solid OpenSCAD_Model
  facet normal 1 0 0
    outer loop
      vertex 2.5399999991059303 2.2899999991059303 0
      vertex 2.5399999991059303 0.25 0.625
      vertex 2.5399999991059303 0.25 0
    endloop
  endfacet
  facet normal 1 0 0
    outer loop
      vertex 2.5399999991059303 2.2899999991059303 0
      vertex 2.5399999991059303 2.2899999991059303 0.625
      vertex 2.5399999991059303 0.25 0.625
    endloop
  endfacet
  facet normal 0.7071067811865475 0.7071067811865475 0
    outer loop
      vertex 2.2899999991059303 2.5399999991059303 0
      vertex 2.5399999991059303 2.2899999991059303 0.625
      vertex 2.5399999991059303 2.2899999991059303 0
    endloop
  endfacet
  facet normal 0.7071067811865475 0.7071067811865475 0
    outer loop
      vertex 2.2899999991059303 2.5399999991059303 0
      vertex 2.2899999991059303 2.5399999991059303 0.625
      vertex 2.5399999991059303 2.2899999991059303 0.625
    endloop
  endfacet
  facet normal 0 1 0
    outer loop
      vertex 0.25 2.5399999991059303 0
      vertex 2.2899999991059303 2.5399999991059303 0.625
      vertex 2.2899999991059303 2.5399999991059303 0
    endloop
  endfacet
  facet normal 0 1 0
    outer loop
      vertex 0.25 2.5399999991059303 0
      vertex 0.25 2.5399999991059303 0.625
      vertex 2.2899999991059303 2.5399999991059303 0.625
    endloop
  endfacet
  facet normal -0.7071067811865475 0.7071067811865475 0
    outer loop
      vertex 0 2.2899999991059303 0
      vertex 0.25 2.5399999991059303 0.625
      vertex 0.25 2.5399999991059303 0
    endloop
  endfacet
  facet normal -0.7071067811865475 0.7071067811865475 0
    outer loop
      vertex 0 2.2899999991059303 0
      vertex 0 2.2899999991059303 0.625
      vertex 0.25 2.5399999991059303 0.625
    endloop
  endfacet
  facet normal -1 0 0
    outer loop
      vertex 0 0.25 0
      vertex 0 2.2899999991059303 0.625
      vertex 0 2.2899999991059303 0
    endloop
  endfacet
  facet normal -1 0 0
    outer loop
      vertex 0 0.25 0
      vertex 0 0.25 0.625
      vertex 0 2.2899999991059303 0.625
    endloop
  endfacet
  facet normal -0.7071067811865475 -0.7071067811865475 0
    outer loop
      vertex 0.25 0 0
      vertex 0 0.25 0.625
      vertex 0 0.25 0
    endloop
  endfacet
  facet normal -0.7071067811865475 -0.7071067811865475 0
    outer loop
      vertex 0.25 0 0
      vertex 0.25 0 0.625
      vertex 0 0.25 0.625
    endloop
  endfacet
  facet normal 0 -1 0
    outer loop
      vertex 2.2899999991059303 0 0
      vertex 0.25 0 0.625
      vertex 0.25 0 0
    endloop
  endfacet
  facet normal 0 -1 0
    outer loop
      vertex 2.2899999991059303 0 0
      vertex 2.2899999991059303 0 0.625
      vertex 0.25 0 0.625
    endloop
  endfacet
  facet normal 0.7071067811865475 -0.7071067811865475 0
    outer loop
      vertex 2.5399999991059303 0.25 0
      vertex 2.2899999991059303 0 0.625
      vertex 2.2899999991059303 0 0
    endloop
  endfacet
  facet normal 0.7071067811865475 -0.7071067811865475 0
    outer loop
      vertex 2.5399999991059303 0.25 0
      vertex 2.5399999991059303 0.25 0.625
      vertex 2.2899999991059303 0 0.625
    endloop
  endfacet
  facet normal 1 0 0
    outer loop
      vertex 2.5399999991059303 2.2899999991059303 0.625
      vertex 2.5399999991059303 0.25 1.25
      vertex 2.5399999991059303 0.25 0.625
    endloop
  endfacet
  facet normal 1 0 0
    outer loop
      vertex 2.5399999991059303 2.2899999991059303 0.625
      vertex 2.5399999991059303 2.2899999991059303 1.25
      vertex 2.5399999991059303 0.25 1.25
    endloop
  endfacet
  facet normal 0.7071067811865475 0.7071067811865475 0
    outer loop
      vertex 2.2899999991059303 2.5399999991059303 0.625
      vertex 2.5399999991059303 2.2899999991059303 1.25
      vertex 2.5399999991059303 2.2899999991059303 0.625
    endloop
  endfacet
  facet normal 0.7071067811865475 0.7071067811865475 0
    outer loop
      vertex 2.2899999991059303 2.5399999991059303 0.625
      vertex 2.2899999991059303 2.5399999991059303 1.25
      vertex 2.5399999991059303 2.2899999991059303 1.25
    endloop
  endfacet
  facet normal 0 1 0
    outer loop
      vertex 0.25 2.5399999991059303 0.625
      vertex 2.2899999991059303 2.5399999991059303 1.25
      vertex 2.2899999991059303 2.5399999991059303 0.625
    endloop
  endfacet
  facet normal 0 1 0
    outer loop
      vertex 0.25 2.5399999991059303 0.625
      vertex 0.25 2.5399999991059303 1.25
      vertex 2.2899999991059303 2.5399999991059303 1.25
    endloop
  endfacet
  facet normal -0.7071067811865475 0.7071067811865475 0
    outer loop
      vertex 0 2.2899999991059303 0.625
      vertex 0.25 2.5399999991059303 1.25
      vertex 0.25 2.5399999991059303 0.625
    endloop
  endfacet
  facet normal -0.7071067811865475 0.7071067811865475 0
    outer loop
      vertex 0 2.2899999991059303 0.625
      vertex 0 2.2899999991059303 1.25
      vertex 0.25 2.5399999991059303 1.25
    endloop
  endfacet
  facet normal -1 0 0
    outer loop
      vertex 0 0.25 0.625
      vertex 0 2.2899999991059303 1.25
      vertex 0 2.2899999991059303 0.625
    endloop
  endfacet
  facet normal -1 0 0
    outer loop
      vertex 0 0.25 0.625
      vertex 0 0.25 1.25
      vertex 0 2.2899999991059303 1.25
    endloop
  endfacet
  facet normal -0.7071067811865475 -0.7071067811865475 0
    outer loop
      vertex 0.25 0 0.625
      vertex 0 0.25 1.25
      vertex 0 0.25 0.625
    endloop
  endfacet
  facet normal -0.7071067811865475 -0.7071067811865475 0
    outer loop
      vertex 0.25 0 0.625
      vertex 0.25 0 1.25
      vertex 0 0.25 1.25
    endloop
  endfacet
  facet normal 0 -1 0
    outer loop
      vertex 2.2899999991059303 0 0.625
      vertex 0.25 0 1.25
      vertex 0.25 0 0.625
    endloop
  endfacet
  facet normal 0 -1 0
    outer loop
      vertex 2.2899999991059303 0 0.625
      vertex 2.2899999991059303 0 1.25
      vertex 0.25 0 1.25
    endloop
  endfacet
  facet normal 0.7071067811865475 -0.7071067811865475 0
    outer loop
      vertex 2.5399999991059303 0.25 0.625
      vertex 2.2899999991059303 0 1.25
      vertex 2.2899999991059303 0 0.625
    endloop
  endfacet
  facet normal 0.7071067811865475 -0.7071067811865475 0
    outer loop
      vertex 2.5399999991059303 0.25 0.625
      vertex 2.5399999991059303 0.25 1.25
      vertex 2.2899999991059303 0 1.25
    endloop
  endfacet
  facet normal 1 0 0
    outer loop
      vertex 2.5399999991059303 2.2899999991059303 1.25
      vertex 2.5399999991059303 0.25 1.875
      vertex 2.5399999991059303 0.25 1.25
    endloop
  endfacet
  facet normal 1 0 0
    outer loop
      vertex 2.5399999991059303 2.2899999991059303 1.25
      vertex 2.5399999991059303 2.2899999991059303 1.875
      vertex 2.5399999991059303 0.25 1.875
    endloop
  endfacet
  facet normal 0.7071067811865475 0.7071067811865475 0
    outer loop
      vertex 2.2899999991059303 2.5399999991059303 1.25
      vertex 2.5399999991059303 2.2899999991059303 1.875
      vertex 2.5399999991059303 2.2899999991059303 1.25
    endloop
  endfacet
  facet normal 0.7071067811865475 0.7071067811865475 0
    outer loop
      vertex 2.2899999991059303 2.5399999991059303 1.25
      vertex 2.2899999991059303 2.5399999991059303 1.875
      vertex 2.5399999991059303 2.2899999991059303 1.875
    endloop
  endfacet
  facet normal 0 1 0
    outer loop
      vertex 0.25 2.5399999991059303 1.25
      vertex 2.2899999991059303 2.5399999991059303 1.875
      vertex 2.2899999991059303 2.5399999991059303 1.25
    endloop
  endfacet
  facet normal 0 1 0
    outer loop
      vertex 0.25 2.5399999991059303 1.25
      vertex 0.25 2.5399999991059303 1.875
      vertex 2.2899999991059303 2.5399999991059303 1.875
    endloop
  endfacet
  facet normal -0.7071067811865475 0.7071067811865475 0
    outer loop
      vertex 0 2.2899999991059303 1.25
      vertex 0.25 2.5399999991059303 1.875
      vertex 0.25 2.5399999991059303 1.25
    endloop
  endfacet
  facet normal -0.7071067811865475 0.7071067811865475 0
    outer loop
      vertex 0 2.2899999991059303 1.25
      vertex 0 2.2899999991059303 1.875
      vertex 0.25 2.5399999991059303 1.875
    endloop
  endfacet
  facet normal -1 0 0
    outer loop
      vertex 0 0.25 1.25
      vertex 0 2.2899999991059303 1.875
      vertex 0 2.2899999991059303 1.25
    endloop
  endfacet
  facet normal -1 0 0
    outer loop
      vertex 0 0.25 1.25
      vertex 0 0.25 1.875
      vertex 0 2.2899999991059303 1.875
    endloop
  endfacet
  facet normal -0.7071067811865475 -0.7071067811865475 0
    outer loop
      vertex 0.25 0 1.25
      vertex 0 0.25 1.875
      vertex 0 0.25 1.25
    endloop
  endfacet
  facet normal -0.7071067811865475 -0.7071067811865475 0
    outer loop
      vertex 0.25 0 1.25
      vertex 0.25 0 1.875
      vertex 0 0.25 1.875
    endloop
  endfacet
  facet normal 0 -1 0
    outer loop
      vertex 2.2899999991059303 0 1.25
      vertex 0.25 0 1.875
      vertex 0.25 0 1.25
    endloop
  endfacet
  facet normal 0 -1 0
    outer loop
      vertex 2.2899999991059303 0 1.25
      vertex 2.2899999991059303 0 1.875
      vertex 0.25 0 1.875
    endloop
  endfacet
  facet normal 0.7071067811865475 -0.7071067811865475 0
    outer loop
      vertex 2.5399999991059303 0.25 1.25
      vertex 2.2899999991059303 0 1.875
      vertex 2.2899999991059303 0 1.25
    endloop
  endfacet
  facet normal 0.7071067811865475 -0.7071067811865475 0
    outer loop
      vertex 2.5399999991059303 0.25 1.25
      vertex 2.5399999991059303 0.25 1.875
      vertex 2.2899999991059303 0 1.875
    endloop
  endfacet
  facet normal 1 0 0
    outer loop
      vertex 2.5399999991059303 2.2899999991059303 1.875
      vertex 2.5399999991059303 0.25 2.5
      vertex 2.5399999991059303 0.25 1.875
    endloop
  endfacet
  facet normal 1 0 0
    outer loop
      vertex 2.5399999991059303 2.2899999991059303 1.875
      vertex 2.5399999991059303 2.2899999991059303 2.5
      vertex 2.5399999991059303 0.25 2.5
    endloop
  endfacet
  facet normal 0.7071067811865475 0.7071067811865475 0
    outer loop
      vertex 2.2899999991059303 2.5399999991059303 1.875
      vertex 2.5399999991059303 2.2899999991059303 2.5
      vertex 2.5399999991059303 2.2899999991059303 1.875
    endloop
  endfacet
  facet normal 0.7071067811865475 0.7071067811865475 0
    outer loop
      vertex 2.2899999991059303 2.5399999991059303 1.875
      vertex 2.2899999991059303 2.5399999991059303 2.5
      vertex 2.5399999991059303 2.2899999991059303 2.5
    endloop
  endfacet
  facet normal 0 1 0
    outer loop
      vertex 0.25 2.5399999991059303 1.875
      vertex 2.2899999991059303 2.5399999991059303 2.5
      vertex 2.2899999991059303 2.5399999991059303 1.875
    endloop
  endfacet
  facet normal 0 1 0
    outer loop
      vertex 0.25 2.5399999991059303 1.875
      vertex 0.25 2.5399999991059303 2.5
      vertex 2.2899999991059303 2.5399999991059303 2.5
    endloop
  endfacet
  facet normal -0.7071067811865475 0.7071067811865475 0
    outer loop
      vertex 0 2.2899999991059303 1.875
      vertex 0.25 2.5399999991059303 2.5
      vertex 0.25 2.5399999991059303 1.875
    endloop
  endfacet
  facet normal -0.7071067811865475 0.7071067811865475 0
    outer loop
      vertex 0 2.2899999991059303 1.875
      vertex 0 2.2899999991059303 2.5
      vertex 0.25 2.5399999991059303 2.5
    endloop
  endfacet
  facet normal -1 0 0
    outer loop
      vertex 0 0.25 1.875
      vertex 0 2.2899999991059303 2.5
      vertex 0 2.2899999991059303 1.875
    endloop
  endfacet
  facet normal -1 0 0
    outer loop
      vertex 0 0.25 1.875
      vertex 0 0.25 2.5
      vertex 0 2.2899999991059303 2.5
    endloop
  endfacet
  facet normal -0.7071067811865475 -0.7071067811865475 0
    outer loop
      vertex 0.25 0 1.875
      vertex 0 0.25 2.5
      vertex 0 0.25 1.875
    endloop
  endfacet
  facet normal -0.7071067811865475 -0.7071067811865475 0
    outer loop
      vertex 0.25 0 1.875
      vertex 0.25 0 2.5
      vertex 0 0.25 2.5
    endloop
  endfacet
  facet normal 0 -1 0
    outer loop
      vertex 2.2899999991059303 0 1.875
      vertex 0.25 0 2.5
      vertex 0.25 0 1.875
    endloop
  endfacet
  facet normal 0 -1 0
    outer loop
      vertex 2.2899999991059303 0 1.875
      vertex 2.2899999991059303 0 2.5
      vertex 0.25 0 2.5
    endloop
  endfacet
  facet normal 0.7071067811865475 -0.7071067811865475 0
    outer loop
      vertex 2.5399999991059303 0.25 1.875
      vertex 2.2899999991059303 0 2.5
      vertex 2.2899999991059303 0 1.875
    endloop
  endfacet
  facet normal 0.7071067811865475 -0.7071067811865475 0
    outer loop
      vertex 2.5399999991059303 0.25 1.875
      vertex 2.5399999991059303 0.25 2.5
      vertex 2.2899999991059303 0 2.5
    endloop
  endfacet
  facet normal 0 0 -1
    outer loop
      vertex 2.2899999991059303 0 0
      vertex 2.5399999991059303 2.2899999991059303 0
      vertex 2.5399999991059303 0.25 0
    endloop
  endfacet
  facet normal 0 0 -1
    outer loop
      vertex 2.2899999991059303 0 0
      vertex 0.25 0 0
      vertex 2.5399999991059303 2.2899999991059303 0
    endloop
  endfacet
  facet normal 0 0 -1
    outer loop
      vertex 0.25 0 0
      vertex 2.2899999991059303 2.5399999991059303 0
      vertex 2.5399999991059303 2.2899999991059303 0
    endloop
  endfacet
  facet normal 0 0 -1
    outer loop
      vertex 0.25 0 0
      vertex 0 0.25 0
      vertex 2.2899999991059303 2.5399999991059303 0
    endloop
  endfacet
  facet normal 0 0 -1
    outer loop
      vertex 0 0.25 0
      vertex 0.25 2.5399999991059303 0
      vertex 2.2899999991059303 2.5399999991059303 0
    endloop
  endfacet
  facet normal 0 0 -1
    outer loop
      vertex 0 0.25 0
      vertex 0 2.2899999991059303 0
      vertex 0.25 2.5399999991059303 0
    endloop
  endfacet
  facet normal 0 0 1
    outer loop
      vertex 2.5399999991059303 0.25 2.5
      vertex 2.5399999991059303 2.2899999991059303 2.5
      vertex 2.2899999991059303 0 2.5
    endloop
  endfacet
  facet normal 0 0 1
    outer loop
      vertex 2.5399999991059303 2.2899999991059303 2.5
      vertex 0.25 0 2.5
      vertex 2.2899999991059303 0 2.5
    endloop
  endfacet
  facet normal 0 0 1
    outer loop
      vertex 2.5399999991059303 2.2899999991059303 2.5
      vertex 2.2899999991059303 2.5399999991059303 2.5
      vertex 0.25 0 2.5
    endloop
  endfacet
  facet normal 0 0 1
    outer loop
      vertex 2.2899999991059303 2.5399999991059303 2.5
      vertex 0 0.25 2.5
      vertex 0.25 0 2.5
    endloop
  endfacet
  facet normal 0 0 1
    outer loop
      vertex 2.2899999991059303 2.5399999991059303 2.5
      vertex 0.25 2.5399999991059303 2.5
      vertex 0 0.25 2.5
    endloop
  endfacet
  facet normal 0 0 1
    outer loop
      vertex 0.25 2.5399999991059303 2.5
      vertex 0 2.2899999991059303 2.5
      vertex 0 0.25 2.5
    endloop
  endfacet
endsolid OpenSCAD_Model
