solid OpenSCAD_Model
  facet normal -1 0 0
    outer loop
      vertex -0.32000000000252354 -0.32000000000252354 -4.975
      vertex -0.32000000000252354 -0.32000000000252354 -2.4875
      vertex -0.32000000000252354 0.32000000000252354 -2.4875
    endloop
  endfacet
  facet normal -1 0 0
    outer loop
      vertex -0.32000000000252354 -0.32000000000252354 -2.4875
      vertex -0.32000000000252354 -0.32000000000252354 0
      vertex -0.32000000000252354 0.32000000000252354 0
    endloop
  endfacet
  facet normal 0 -1 0
    outer loop
      vertex -0.32000000000252354 -0.32000000000252354 -2.4875
      vertex -0.32000000000252354 -0.32000000000252354 -4.975
      vertex 0.32000000000252354 -0.32000000000252354 -4.975
    endloop
  endfacet
  facet normal 0 -1 0
    outer loop
      vertex -0.32000000000252354 -0.32000000000252354 -2.4875
      vertex 0.32000000000252354 -0.32000000000252354 -2.4875
      vertex -0.32000000000252354 -0.32000000000252354 0
    endloop
  endfacet
  facet normal -1 0 0
    outer loop
      vertex -0.32000000000252354 -0.32000000000252354 0
      vertex -0.32000000000252354 -0.32000000000252354 2.4875
      vertex -0.32000000000252354 0.32000000000252354 2.4875
    endloop
  endfacet
  facet normal -1 0 0
    outer loop
      vertex -0.32000000000252354 -0.32000000000252354 2.4875
      vertex -0.32000000000252354 -0.32000000000252354 4.975
      vertex -0.32000000000252354 0.32000000000252354 4.975
    endloop
  endfacet
  facet normal 0 -1 0
    outer loop
      vertex -0.32000000000252354 -0.32000000000252354 0
      vertex 0.32000000000252354 -0.32000000000252354 0
      vertex -0.32000000000252354 -0.32000000000252354 2.4875
    endloop
  endfacet
  facet normal 0 -1 0
    outer loop
      vertex -0.32000000000252354 -0.32000000000252354 2.4875
      vertex 0.32000000000252354 -0.32000000000252354 2.4875
      vertex -0.32000000000252354 -0.32000000000252354 4.975
    endloop
  endfacet
  facet normal -1 0 0
    outer loop
      vertex -0.32000000000252354 -0.32000000000252354 -4.975
      vertex -0.32000000000252354 0.32000000000252354 -2.4875
      vertex -0.32000000000252354 0.32000000000252354 -4.975
    endloop
  endfacet
  facet normal -1 0 0
    outer loop
      vertex -0.32000000000252354 -0.32000000000252354 -2.4875
      vertex -0.32000000000252354 0.32000000000252354 0
      vertex -0.32000000000252354 0.32000000000252354 -2.4875
    endloop
  endfacet
  facet normal 0 1 0
    outer loop
      vertex -0.32000000000252354 0.32000000000252354 -2.4875
      vertex 0.32000000000252354 0.32000000000252354 -2.4875
      vertex -0.32000000000252354 0.32000000000252354 -4.975
    endloop
  endfacet
  facet normal 0 1 0
    outer loop
      vertex -0.32000000000252354 0.32000000000252354 -2.4875
      vertex -0.32000000000252354 0.32000000000252354 0
      vertex 0.32000000000252354 0.32000000000252354 0
    endloop
  endfacet
  facet normal -1 0 0
    outer loop
      vertex -0.32000000000252354 -0.32000000000252354 0
      vertex -0.32000000000252354 0.32000000000252354 2.4875
      vertex -0.32000000000252354 0.32000000000252354 0
    endloop
  endfacet
  facet normal -1 0 0
    outer loop
      vertex -0.32000000000252354 -0.32000000000252354 2.4875
      vertex -0.32000000000252354 0.32000000000252354 4.975
      vertex -0.32000000000252354 0.32000000000252354 2.4875
    endloop
  endfacet
  facet normal 0 1 0
    outer loop
      vertex -0.32000000000252354 0.32000000000252354 0
      vertex -0.32000000000252354 0.32000000000252354 2.4875
      vertex 0.32000000000252354 0.32000000000252354 2.4875
    endloop
  endfacet
  facet normal 0 1 0
    outer loop
      vertex -0.32000000000252354 0.32000000000252354 2.4875
      vertex -0.32000000000252354 0.32000000000252354 4.975
      vertex 0.32000000000252354 0.32000000000252354 4.975
    endloop
  endfacet
  facet normal 0 -1 0
    outer loop
      vertex -0.32000000000252354 -0.32000000000252354 -2.4875
      vertex 0.32000000000252354 -0.32000000000252354 -4.975
      vertex 0.32000000000252354 -0.32000000000252354 -2.4875
    endloop
  endfacet
  facet normal 0 -1 0
    outer loop
      vertex -0.32000000000252354 -0.32000000000252354 0
      vertex 0.32000000000252354 -0.32000000000252354 -2.4875
      vertex 0.32000000000252354 -0.32000000000252354 0
    endloop
  endfacet
  facet normal 1 0 0
    outer loop
      vertex 0.32000000000252354 -0.32000000000252354 -2.4875
      vertex 0.32000000000252354 -0.32000000000252354 -4.975
      vertex 0.32000000000252354 0.32000000000252354 -4.975
    endloop
  endfacet
  facet normal 1 0 0
    outer loop
      vertex 0.32000000000252354 -0.32000000000252354 -2.4875
      vertex 0.32000000000252354 0.32000000000252354 -2.4875
      vertex 0.32000000000252354 -0.32000000000252354 0
    endloop
  endfacet
  facet normal 0 -1 0
    outer loop
      vertex -0.32000000000252354 -0.32000000000252354 2.4875
      vertex 0.32000000000252354 -0.32000000000252354 0
      vertex 0.32000000000252354 -0.32000000000252354 2.4875
    endloop
  endfacet
  facet normal 0 -1 0
    outer loop
      vertex -0.32000000000252354 -0.32000000000252354 4.975
      vertex 0.32000000000252354 -0.32000000000252354 2.4875
      vertex 0.32000000000252354 -0.32000000000252354 4.975
    endloop
  endfacet
  facet normal 1 0 0
    outer loop
      vertex 0.32000000000252354 -0.32000000000252354 0
      vertex 0.32000000000252354 0.32000000000252354 0
      vertex 0.32000000000252354 -0.32000000000252354 2.4875
    endloop
  endfacet
  facet normal 1 0 0
    outer loop
      vertex 0.32000000000252354 -0.32000000000252354 2.4875
      vertex 0.32000000000252354 0.32000000000252354 2.4875
      vertex 0.32000000000252354 -0.32000000000252354 4.975
    endloop
  endfacet
  facet normal 0 1 0
    outer loop
      vertex 0.32000000000252354 0.32000000000252354 -2.4875
      vertex 0.32000000000252354 0.32000000000252354 -4.975
      vertex -0.32000000000252354 0.32000000000252354 -4.975
    endloop
  endfacet
  facet normal 0 1 0
    outer loop
      vertex -0.32000000000252354 0.32000000000252354 -2.4875
      vertex 0.32000000000252354 0.32000000000252354 0
      vertex 0.32000000000252354 0.32000000000252354 -2.4875
    endloop
  endfacet
  facet normal 1 0 0
    outer loop
      vertex 0.32000000000252354 -0.32000000000252354 -2.4875
      vertex 0.32000000000252354 0.32000000000252354 -4.975
      vertex 0.32000000000252354 0.32000000000252354 -2.4875
    endloop
  endfacet
  facet normal 1 0 0
    outer loop
      vertex 0.32000000000252354 -0.32000000000252354 0
      vertex 0.32000000000252354 0.32000000000252354 -2.4875
      vertex 0.32000000000252354 0.32000000000252354 0
    endloop
  endfacet
  facet normal 0 1 0
    outer loop
      vertex -0.32000000000252354 0.32000000000252354 0
      vertex 0.32000000000252354 0.32000000000252354 2.4875
      vertex 0.32000000000252354 0.32000000000252354 0
    endloop
  endfacet
  facet normal 0 1 0
    outer loop
      vertex -0.32000000000252354 0.32000000000252354 2.4875
      vertex 0.32000000000252354 0.32000000000252354 4.975
      vertex 0.32000000000252354 0.32000000000252354 2.4875
    endloop
  endfacet
  facet normal 1 0 0
    outer loop
      vertex 0.32000000000252354 -0.32000000000252354 2.4875
      vertex 0.32000000000252354 0.32000000000252354 0
      vertex 0.32000000000252354 0.32000000000252354 2.4875
    endloop
  endfacet
  facet normal 1 0 0
    outer loop
      vertex 0.32000000000252354 -0.32000000000252354 4.975
      vertex 0.32000000000252354 0.32000000000252354 2.4875
      vertex 0.32000000000252354 0.32000000000252354 4.975
    endloop
  endfacet
  facet normal -0.981156945268447 0 -0.1932124446082335
    outer loop
      vertex -0.2880000000022712 -0.2880000000022712 -5.137499999999999
      vertex -0.32000000000252354 -0.32000000000252354 -4.975
      vertex -0.32000000000252354 0.32000000000252354 -4.975
    endloop
  endfacet
  facet normal -0.9811569452684472 0 -0.1932124446082328
    outer loop
      vertex -0.2880000000022712 -0.2880000000022712 -5.137499999999999
      vertex -0.2880000000022712 0.2880000000022712 -5.137499999999999
      vertex -0.25600000000201883 -0.25600000000201883 -5.3
    endloop
  endfacet
  facet normal -0.981156945268447 0 -0.19321244460823364
    outer loop
      vertex -0.25600000000201883 -0.25600000000201883 -5.3
      vertex -0.25600000000201883 0.25600000000201883 -5.3
      vertex -0.22400000000176648 -0.22400000000176648 -5.4624999999999995
    endloop
  endfacet
  facet normal -0.9811569452684472 0 -0.19321244460823264
    outer loop
      vertex -0.22400000000176648 -0.22400000000176648 -5.4624999999999995
      vertex -0.22400000000176648 0.22400000000176648 -5.4624999999999995
      vertex -0.19200000000151413 -0.19200000000151413 -5.625
    endloop
  endfacet
  facet normal 0 -0.9811569452684471 -0.19321244460823356
    outer loop
      vertex -0.32000000000252354 -0.32000000000252354 -4.975
      vertex -0.2880000000022712 -0.2880000000022712 -5.137499999999999
      vertex 0.2880000000022712 -0.2880000000022712 -5.137499999999999
    endloop
  endfacet
  facet normal 0 -0.9811569452684471 -0.19321244460823284
    outer loop
      vertex -0.2880000000022712 -0.2880000000022712 -5.137499999999999
      vertex -0.25600000000201883 -0.25600000000201883 -5.3
      vertex 0.25600000000201883 -0.25600000000201883 -5.3
    endloop
  endfacet
  facet normal 0 -0.981156945268447 -0.19321244460823367
    outer loop
      vertex -0.25600000000201883 -0.25600000000201883 -5.3
      vertex -0.22400000000176648 -0.22400000000176648 -5.4624999999999995
      vertex 0.22400000000176648 -0.22400000000176648 -5.4624999999999995
    endloop
  endfacet
  facet normal 0 -0.9811569452684472 -0.19321244460823264
    outer loop
      vertex -0.22400000000176648 -0.22400000000176648 -5.4624999999999995
      vertex -0.19200000000151413 -0.19200000000151413 -5.625
      vertex 0.19200000000151413 -0.19200000000151413 -5.625
    endloop
  endfacet
  facet normal 0 0 -1
    outer loop
      vertex -0.19200000000151413 -0.19200000000151413 -5.625
      vertex -0.19200000000151413 0.19200000000151413 -5.625
      vertex 0.19200000000151413 -0.19200000000151413 -5.625
    endloop
  endfacet
  facet normal -0.981156945268447 0 -0.1932124446082335
    outer loop
      vertex -0.2880000000022712 -0.2880000000022712 -5.137499999999999
      vertex -0.32000000000252354 0.32000000000252354 -4.975
      vertex -0.2880000000022712 0.2880000000022712 -5.137499999999999
    endloop
  endfacet
  facet normal -0.9811569452684471 0 -0.1932124446082328
    outer loop
      vertex -0.25600000000201883 -0.25600000000201883 -5.3
      vertex -0.2880000000022712 0.2880000000022712 -5.137499999999999
      vertex -0.25600000000201883 0.25600000000201883 -5.3
    endloop
  endfacet
  facet normal -0.9811569452684471 0 -0.19321244460823264
    outer loop
      vertex -0.19200000000151413 -0.19200000000151413 -5.625
      vertex -0.22400000000176648 0.22400000000176648 -5.4624999999999995
      vertex -0.19200000000151413 0.19200000000151413 -5.625
    endloop
  endfacet
  facet normal -0.981156945268447 0 -0.19321244460823367
    outer loop
      vertex -0.22400000000176648 -0.22400000000176648 -5.4624999999999995
      vertex -0.25600000000201883 0.25600000000201883 -5.3
      vertex -0.22400000000176648 0.22400000000176648 -5.4624999999999995
    endloop
  endfacet
  facet normal 0 0.9811569452684472 -0.1932124446082328
    outer loop
      vertex -0.2880000000022712 0.2880000000022712 -5.137499999999999
      vertex 0.2880000000022712 0.2880000000022712 -5.137499999999999
      vertex -0.25600000000201883 0.25600000000201883 -5.3
    endloop
  endfacet
  facet normal 0 0.981156945268447 -0.1932124446082335
    outer loop
      vertex -0.2880000000022712 0.2880000000022712 -5.137499999999999
      vertex -0.32000000000252354 0.32000000000252354 -4.975
      vertex 0.32000000000252354 0.32000000000252354 -4.975
    endloop
  endfacet
  facet normal 0 0.9811569452684472 -0.19321244460823264
    outer loop
      vertex -0.22400000000176648 0.22400000000176648 -5.4624999999999995
      vertex 0.22400000000176648 0.22400000000176648 -5.4624999999999995
      vertex -0.19200000000151413 0.19200000000151413 -5.625
    endloop
  endfacet
  facet normal 0 0.981156945268447 -0.19321244460823364
    outer loop
      vertex -0.25600000000201883 0.25600000000201883 -5.3
      vertex 0.25600000000201883 0.25600000000201883 -5.3
      vertex -0.22400000000176648 0.22400000000176648 -5.4624999999999995
    endloop
  endfacet
  facet normal 0 -0.981156945268447 -0.19321244460823364
    outer loop
      vertex -0.25600000000201883 -0.25600000000201883 -5.3
      vertex 0.22400000000176648 -0.22400000000176648 -5.4624999999999995
      vertex 0.25600000000201883 -0.25600000000201883 -5.3
    endloop
  endfacet
  facet normal 0 -0.9811569452684472 -0.19321244460823264
    outer loop
      vertex -0.22400000000176648 -0.22400000000176648 -5.4624999999999995
      vertex 0.19200000000151413 -0.19200000000151413 -5.625
      vertex 0.22400000000176648 -0.22400000000176648 -5.4624999999999995
    endloop
  endfacet
  facet normal 0 -0.9811569452684471 -0.19321244460823353
    outer loop
      vertex -0.32000000000252354 -0.32000000000252354 -4.975
      vertex 0.2880000000022712 -0.2880000000022712 -5.137499999999999
      vertex 0.32000000000252354 -0.32000000000252354 -4.975
    endloop
  endfacet
  facet normal 0 -0.9811569452684472 -0.1932124446082328
    outer loop
      vertex -0.2880000000022712 -0.2880000000022712 -5.137499999999999
      vertex 0.25600000000201883 -0.25600000000201883 -5.3
      vertex 0.2880000000022712 -0.2880000000022712 -5.137499999999999
    endloop
  endfacet
  facet normal 0.981156945268447 0 -0.19321244460823367
    outer loop
      vertex 0.22400000000176648 -0.22400000000176648 -5.4624999999999995
      vertex 0.22400000000176648 0.22400000000176648 -5.4624999999999995
      vertex 0.25600000000201883 -0.25600000000201883 -5.3
    endloop
  endfacet
  facet normal 0.9811569452684471 0 -0.19321244460823264
    outer loop
      vertex 0.19200000000151413 -0.19200000000151413 -5.625
      vertex 0.19200000000151413 0.19200000000151413 -5.625
      vertex 0.22400000000176648 -0.22400000000176648 -5.4624999999999995
    endloop
  endfacet
  facet normal 0.9811569452684471 0 -0.1932124446082328
    outer loop
      vertex 0.25600000000201883 -0.25600000000201883 -5.3
      vertex 0.25600000000201883 0.25600000000201883 -5.3
      vertex 0.2880000000022712 -0.2880000000022712 -5.137499999999999
    endloop
  endfacet
  facet normal 0.981156945268447 0 -0.1932124446082335
    outer loop
      vertex 0.2880000000022712 -0.2880000000022712 -5.137499999999999
      vertex 0.2880000000022712 0.2880000000022712 -5.137499999999999
      vertex 0.32000000000252354 -0.32000000000252354 -4.975
    endloop
  endfacet
  facet normal 0 0 -1
    outer loop
      vertex -0.19200000000151413 0.19200000000151413 -5.625
      vertex 0.19200000000151413 0.19200000000151413 -5.625
      vertex 0.19200000000151413 -0.19200000000151413 -5.625
    endloop
  endfacet
  facet normal 0 0.9811569452684471 -0.19321244460823264
    outer loop
      vertex -0.19200000000151413 0.19200000000151413 -5.625
      vertex 0.22400000000176648 0.22400000000176648 -5.4624999999999995
      vertex 0.19200000000151413 0.19200000000151413 -5.625
    endloop
  endfacet
  facet normal 0 0.981156945268447 -0.19321244460823367
    outer loop
      vertex -0.22400000000176648 0.22400000000176648 -5.4624999999999995
      vertex 0.25600000000201883 0.25600000000201883 -5.3
      vertex 0.22400000000176648 0.22400000000176648 -5.4624999999999995
    endloop
  endfacet
  facet normal 0 0.9811569452684471 -0.1932124446082328
    outer loop
      vertex -0.25600000000201883 0.25600000000201883 -5.3
      vertex 0.2880000000022712 0.2880000000022712 -5.137499999999999
      vertex 0.25600000000201883 0.25600000000201883 -5.3
    endloop
  endfacet
  facet normal 0 0.981156945268447 -0.1932124446082335
    outer loop
      vertex -0.2880000000022712 0.2880000000022712 -5.137499999999999
      vertex 0.32000000000252354 0.32000000000252354 -4.975
      vertex 0.2880000000022712 0.2880000000022712 -5.137499999999999
    endloop
  endfacet
  facet normal 0.9811569452684472 0 -0.19321244460823264
    outer loop
      vertex 0.22400000000176648 -0.22400000000176648 -5.4624999999999995
      vertex 0.19200000000151413 0.19200000000151413 -5.625
      vertex 0.22400000000176648 0.22400000000176648 -5.4624999999999995
    endloop
  endfacet
  facet normal 0.981156945268447 0 -0.19321244460823364
    outer loop
      vertex 0.25600000000201883 -0.25600000000201883 -5.3
      vertex 0.22400000000176648 0.22400000000176648 -5.4624999999999995
      vertex 0.25600000000201883 0.25600000000201883 -5.3
    endloop
  endfacet
  facet normal 0.9811569452684472 0 -0.1932124446082328
    outer loop
      vertex 0.2880000000022712 -0.2880000000022712 -5.137499999999999
      vertex 0.25600000000201883 0.25600000000201883 -5.3
      vertex 0.2880000000022712 0.2880000000022712 -5.137499999999999
    endloop
  endfacet
  facet normal 0.9811569452684471 0 -0.19321244460823353
    outer loop
      vertex 0.32000000000252354 -0.32000000000252354 -4.975
      vertex 0.2880000000022712 0.2880000000022712 -5.137499999999999
      vertex 0.32000000000252354 0.32000000000252354 -4.975
    endloop
  endfacet
  facet normal -0.9811569452684471 0 0.19321244460823356
    outer loop
      vertex -0.32000000000252354 -0.32000000000252354 4.975
      vertex -0.2880000000022712 -0.2880000000022712 5.137499999999999
      vertex -0.2880000000022712 0.2880000000022712 5.137499999999999
    endloop
  endfacet
  facet normal -0.9811569452684471 0 0.19321244460823284
    outer loop
      vertex -0.2880000000022712 -0.2880000000022712 5.137499999999999
      vertex -0.25600000000201883 -0.25600000000201883 5.3
      vertex -0.25600000000201883 0.25600000000201883 5.3
    endloop
  endfacet
  facet normal -0.981156945268447 0 0.19321244460823367
    outer loop
      vertex -0.25600000000201883 -0.25600000000201883 5.3
      vertex -0.22400000000176648 -0.22400000000176648 5.4624999999999995
      vertex -0.22400000000176648 0.22400000000176648 5.4624999999999995
    endloop
  endfacet
  facet normal -0.9811569452684472 0 0.19321244460823264
    outer loop
      vertex -0.22400000000176648 -0.22400000000176648 5.4624999999999995
      vertex -0.19200000000151413 -0.19200000000151413 5.625
      vertex -0.19200000000151413 0.19200000000151413 5.625
    endloop
  endfacet
  facet normal 0 -0.981156945268447 0.1932124446082335
    outer loop
      vertex -0.2880000000022712 -0.2880000000022712 5.137499999999999
      vertex -0.32000000000252354 -0.32000000000252354 4.975
      vertex 0.32000000000252354 -0.32000000000252354 4.975
    endloop
  endfacet
  facet normal 0 -0.9811569452684472 0.1932124446082328
    outer loop
      vertex -0.2880000000022712 -0.2880000000022712 5.137499999999999
      vertex 0.2880000000022712 -0.2880000000022712 5.137499999999999
      vertex -0.25600000000201883 -0.25600000000201883 5.3
    endloop
  endfacet
  facet normal 0 -0.981156945268447 0.19321244460823364
    outer loop
      vertex -0.25600000000201883 -0.25600000000201883 5.3
      vertex 0.25600000000201883 -0.25600000000201883 5.3
      vertex -0.22400000000176648 -0.22400000000176648 5.4624999999999995
    endloop
  endfacet
  facet normal 0 -0.9811569452684472 0.19321244460823264
    outer loop
      vertex -0.22400000000176648 -0.22400000000176648 5.4624999999999995
      vertex 0.22400000000176648 -0.22400000000176648 5.4624999999999995
      vertex -0.19200000000151413 -0.19200000000151413 5.625
    endloop
  endfacet
  facet normal -0.981156945268447 0 0.19321244460823364
    outer loop
      vertex -0.25600000000201883 -0.25600000000201883 5.3
      vertex -0.22400000000176648 0.22400000000176648 5.4624999999999995
      vertex -0.25600000000201883 0.25600000000201883 5.3
    endloop
  endfacet
  facet normal -0.9811569452684471 0 0.19321244460823353
    outer loop
      vertex -0.32000000000252354 -0.32000000000252354 4.975
      vertex -0.2880000000022712 0.2880000000022712 5.137499999999999
      vertex -0.32000000000252354 0.32000000000252354 4.975
    endloop
  endfacet
  facet normal -0.9811569452684472 0 0.1932124446082328
    outer loop
      vertex -0.2880000000022712 -0.2880000000022712 5.137499999999999
      vertex -0.25600000000201883 0.25600000000201883 5.3
      vertex -0.2880000000022712 0.2880000000022712 5.137499999999999
    endloop
  endfacet
  facet normal -0.9811569452684472 0 0.19321244460823264
    outer loop
      vertex -0.22400000000176648 -0.22400000000176648 5.4624999999999995
      vertex -0.19200000000151413 0.19200000000151413 5.625
      vertex -0.22400000000176648 0.22400000000176648 5.4624999999999995
    endloop
  endfacet
  facet normal 0 0 1
    outer loop
      vertex -0.19200000000151413 -0.19200000000151413 5.625
      vertex 0.19200000000151413 0.19200000000151413 5.625
      vertex -0.19200000000151413 0.19200000000151413 5.625
    endloop
  endfacet
  facet normal 0 0.981156945268447 0.19321244460823367
    outer loop
      vertex -0.25600000000201883 0.25600000000201883 5.3
      vertex -0.22400000000176648 0.22400000000176648 5.4624999999999995
      vertex 0.22400000000176648 0.22400000000176648 5.4624999999999995
    endloop
  endfacet
  facet normal 0 0.9811569452684471 0.19321244460823284
    outer loop
      vertex -0.2880000000022712 0.2880000000022712 5.137499999999999
      vertex -0.25600000000201883 0.25600000000201883 5.3
      vertex 0.25600000000201883 0.25600000000201883 5.3
    endloop
  endfacet
  facet normal 0 0.9811569452684471 0.19321244460823356
    outer loop
      vertex -0.32000000000252354 0.32000000000252354 4.975
      vertex -0.2880000000022712 0.2880000000022712 5.137499999999999
      vertex 0.2880000000022712 0.2880000000022712 5.137499999999999
    endloop
  endfacet
  facet normal 0 0.9811569452684472 0.19321244460823264
    outer loop
      vertex -0.22400000000176648 0.22400000000176648 5.4624999999999995
      vertex -0.19200000000151413 0.19200000000151413 5.625
      vertex 0.19200000000151413 0.19200000000151413 5.625
    endloop
  endfacet
  facet normal 0 -0.9811569452684471 0.19321244460823264
    outer loop
      vertex -0.19200000000151413 -0.19200000000151413 5.625
      vertex 0.22400000000176648 -0.22400000000176648 5.4624999999999995
      vertex 0.19200000000151413 -0.19200000000151413 5.625
    endloop
  endfacet
  facet normal 0 -0.981156945268447 0.1932124446082335
    outer loop
      vertex -0.2880000000022712 -0.2880000000022712 5.137499999999999
      vertex 0.32000000000252354 -0.32000000000252354 4.975
      vertex 0.2880000000022712 -0.2880000000022712 5.137499999999999
    endloop
  endfacet
  facet normal 0 -0.9811569452684471 0.1932124446082328
    outer loop
      vertex -0.25600000000201883 -0.25600000000201883 5.3
      vertex 0.2880000000022712 -0.2880000000022712 5.137499999999999
      vertex 0.25600000000201883 -0.25600000000201883 5.3
    endloop
  endfacet
  facet normal 0 -0.981156945268447 0.19321244460823367
    outer loop
      vertex -0.22400000000176648 -0.22400000000176648 5.4624999999999995
      vertex 0.25600000000201883 -0.25600000000201883 5.3
      vertex 0.22400000000176648 -0.22400000000176648 5.4624999999999995
    endloop
  endfacet
  facet normal 0 0 1
    outer loop
      vertex -0.19200000000151413 -0.19200000000151413 5.625
      vertex 0.19200000000151413 -0.19200000000151413 5.625
      vertex 0.19200000000151413 0.19200000000151413 5.625
    endloop
  endfacet
  facet normal 0.9811569452684472 0 0.19321244460823267
    outer loop
      vertex 0.19200000000151413 -0.19200000000151413 5.625
      vertex 0.22400000000176648 -0.22400000000176648 5.4624999999999995
      vertex 0.22400000000176648 0.22400000000176648 5.4624999999999995
    endloop
  endfacet
  facet normal 0.9811569452684472 0 0.1932124446082328
    outer loop
      vertex 0.25600000000201883 -0.25600000000201883 5.3
      vertex 0.2880000000022712 -0.2880000000022712 5.137499999999999
      vertex 0.2880000000022712 0.2880000000022712 5.137499999999999
    endloop
  endfacet
  facet normal 0.981156945268447 0 0.1932124446082335
    outer loop
      vertex 0.2880000000022712 -0.2880000000022712 5.137499999999999
      vertex 0.32000000000252354 -0.32000000000252354 4.975
      vertex 0.32000000000252354 0.32000000000252354 4.975
    endloop
  endfacet
  facet normal 0.981156945268447 0 0.1932124446082337
    outer loop
      vertex 0.22400000000176648 -0.22400000000176648 5.4624999999999995
      vertex 0.25600000000201883 -0.25600000000201883 5.3
      vertex 0.25600000000201883 0.25600000000201883 5.3
    endloop
  endfacet
  facet normal 0 0.9811569452684472 0.19321244460823264
    outer loop
      vertex -0.22400000000176648 0.22400000000176648 5.4624999999999995
      vertex 0.19200000000151413 0.19200000000151413 5.625
      vertex 0.22400000000176648 0.22400000000176648 5.4624999999999995
    endloop
  endfacet
  facet normal 0 0.981156945268447 0.19321244460823364
    outer loop
      vertex -0.25600000000201883 0.25600000000201883 5.3
      vertex 0.22400000000176648 0.22400000000176648 5.4624999999999995
      vertex 0.25600000000201883 0.25600000000201883 5.3
    endloop
  endfacet
  facet normal 0 0.9811569452684472 0.1932124446082328
    outer loop
      vertex -0.2880000000022712 0.2880000000022712 5.137499999999999
      vertex 0.25600000000201883 0.25600000000201883 5.3
      vertex 0.2880000000022712 0.2880000000022712 5.137499999999999
    endloop
  endfacet
  facet normal 0 0.9811569452684471 0.19321244460823353
    outer loop
      vertex -0.32000000000252354 0.32000000000252354 4.975
      vertex 0.2880000000022712 0.2880000000022712 5.137499999999999
      vertex 0.32000000000252354 0.32000000000252354 4.975
    endloop
  endfacet
  facet normal 0.9811569452684471 0 0.19321244460823264
    outer loop
      vertex 0.19200000000151413 -0.19200000000151413 5.625
      vertex 0.22400000000176648 0.22400000000176648 5.4624999999999995
      vertex 0.19200000000151413 0.19200000000151413 5.625
    endloop
  endfacet
  facet normal 0.981156945268447 0 0.19321244460823367
    outer loop
      vertex 0.22400000000176648 -0.22400000000176648 5.4624999999999995
      vertex 0.25600000000201883 0.25600000000201883 5.3
      vertex 0.22400000000176648 0.22400000000176648 5.4624999999999995
    endloop
  endfacet
  facet normal 0.9811569452684471 0 0.1932124446082328
    outer loop
      vertex 0.25600000000201883 -0.25600000000201883 5.3
      vertex 0.2880000000022712 0.2880000000022712 5.137499999999999
      vertex 0.25600000000201883 0.25600000000201883 5.3
    endloop
  endfacet
  facet normal 0.981156945268447 0 0.1932124446082335
    outer loop
      vertex 0.2880000000022712 -0.2880000000022712 5.137499999999999
      vertex 0.32000000000252354 0.32000000000252354 4.975
      vertex 0.2880000000022712 0.2880000000022712 5.137499999999999
    endloop
  endfacet
endsolid OpenSCAD_Model
