<?xml version="1.0" encoding="UTF-8" standalone="no"?>
<!DOCTYPE svg PUBLIC "-//W3C//DTD SVG 1.1//EN"
 "http://www.w3.org/Graphics/SVG/1.1/DTD/svg11.dtd">
<!-- Generated by graphviz version 5.0.0 (20220707.1540)
 -->
<!-- Title: default Pages: 1 -->
<svg width="617pt" height="638pt"
 viewBox="0.00 0.00 616.76 638.00" xmlns="http://www.w3.org/2000/svg" xmlns:xlink="http://www.w3.org/1999/xlink">
<g id="graph0" class="graph" transform="scale(1 1) rotate(0) translate(4 634)">
<title>default</title>
<polygon fill="white" stroke="transparent" points="-4,4 -4,-634 612.76,-634 612.76,4 -4,4"/>
<!-- root_5 -->
<g id="node1" class="node">
<title>root_5</title>
<g id="a_node1"><a xlink:href="javascript:s=&quot;\(\)\nNone&quot;; console.log(s); alert(s);" xlink:title="root">
<ellipse fill="none" stroke="black" cx="27" cy="-180" rx="27" ry="18"/>
<text text-anchor="middle" x="27" y="-176.3" font-family="Times New Roman,serif" font-size="14.00">root</text>
</a>
</g>
</g>
<!-- default_6 -->
<g id="node2" class="node">
<title>default_6</title>
<g id="a_node2"><a xlink:href="javascript:s=&quot;\(&#x27;default&#x27;,\)\nResinFilterFunnel&quot;; console.log(s); alert(s);" xlink:title="ResinFilterFunnel">
<ellipse fill="none" stroke="black" cx="125.1" cy="-180" rx="35.19" ry="18"/>
<text text-anchor="middle" x="125.1" y="-176.3" font-family="Times New Roman,serif" font-size="14.00">default</text>
</a>
</g>
</g>
<!-- root_5&#45;&gt;default_6 -->
<g id="edge1" class="edge">
<title>root_5&#45;&gt;default_6</title>
<path fill="none" stroke="black" d="M54.01,-180C61.92,-180 70.84,-180 79.61,-180"/>
<polygon fill="black" stroke="black" points="79.76,-183.5 89.76,-180 79.76,-176.5 79.76,-183.5"/>
</g>
<!-- resin_funnel_7 -->
<g id="node3" class="node">
<title>resin_funnel_7</title>
<g id="a_node3"><a xlink:href="javascript:s=&quot;\(&#x27;default&#x27;,\ &#x27;resin_funnel&#x27;\)\nMaker&quot;; console.log(s); alert(s);" xlink:title="Maker">
<ellipse fill="none" stroke="black" cx="250.79" cy="-315" rx="54.69" ry="18"/>
<text text-anchor="middle" x="250.79" y="-311.3" font-family="Times New Roman,serif" font-size="14.00">resin_funnel</text>
</a>
</g>
</g>
<!-- default_6&#45;&gt;resin_funnel_7 -->
<g id="edge2" class="edge">
<title>default_6&#45;&gt;resin_funnel_7</title>
<path fill="none" stroke="black" d="M133.96,-197.75C145.01,-221.01 167.07,-261.89 196.19,-288 199.38,-290.86 202.92,-293.49 206.62,-295.9"/>
<polygon fill="black" stroke="black" points="205.07,-299.05 215.46,-301.12 208.63,-293.02 205.07,-299.05"/>
</g>
<!-- tab1_26 -->
<g id="node22" class="node">
<title>tab1_26</title>
<g id="a_node22"><a xlink:href="javascript:s=&quot;\(&#x27;default&#x27;,\ &#x27;tab1&#x27;\)\nBox&quot;; console.log(s); alert(s);" xlink:title="Box">
<ellipse fill="none" stroke="black" cx="250.79" cy="-261" rx="27" ry="18"/>
<text text-anchor="middle" x="250.79" y="-257.3" font-family="Times New Roman,serif" font-size="14.00">tab1</text>
</a>
</g>
</g>
<!-- default_6&#45;&gt;tab1_26 -->
<g id="edge21" class="edge">
<title>default_6&#45;&gt;tab1_26</title>
<path fill="none" stroke="black" d="M144.14,-195.44C157.91,-206.82 177.6,-222.3 196.19,-234 203.34,-238.5 211.33,-242.85 218.92,-246.71"/>
<polygon fill="black" stroke="black" points="217.38,-249.84 227.89,-251.13 220.47,-243.57 217.38,-249.84"/>
</g>
<!-- tab2_27 -->
<g id="node23" class="node">
<title>tab2_27</title>
<g id="a_node23"><a xlink:href="javascript:s=&quot;\(&#x27;default&#x27;,\ &#x27;tab2&#x27;\)\nBox&quot;; console.log(s); alert(s);" xlink:title="Box">
<ellipse fill="none" stroke="black" cx="250.79" cy="-207" rx="27" ry="18"/>
<text text-anchor="middle" x="250.79" y="-203.3" font-family="Times New Roman,serif" font-size="14.00">tab2</text>
</a>
</g>
</g>
<!-- default_6&#45;&gt;tab2_27 -->
<g id="edge22" class="edge">
<title>default_6&#45;&gt;tab2_27</title>
<path fill="none" stroke="black" d="M157.63,-186.88C175.18,-190.71 197.06,-195.49 215.1,-199.43"/>
<polygon fill="black" stroke="black" points="214.43,-202.86 224.94,-201.58 215.92,-196.02 214.43,-202.86"/>
</g>
<!-- boss_28 -->
<g id="node24" class="node">
<title>boss_28</title>
<g id="a_node24"><a xlink:href="javascript:s=&quot;\(&#x27;default&#x27;,\ \(&#x27;boss&#x27;,\ 0\)\)\nSphere&quot;; console.log(s); alert(s);" xlink:title="Sphere">
<ellipse fill="none" stroke="black" cx="250.79" cy="-153" rx="47.39" ry="18"/>
<text text-anchor="middle" x="250.79" y="-149.3" font-family="Times New Roman,serif" font-size="14.00">(&#39;boss&#39;, 0)</text>
</a>
</g>
</g>
<!-- default_6&#45;&gt;boss_28 -->
<g id="edge23" class="edge">
<title>default_6&#45;&gt;boss_28</title>
<path fill="none" stroke="black" d="M157.63,-173.12C170.19,-170.38 184.96,-167.15 198.95,-164.1"/>
<polygon fill="black" stroke="black" points="199.94,-167.46 208.96,-161.91 198.44,-160.63 199.94,-167.46"/>
</g>
<!-- boss_29 -->
<g id="node25" class="node">
<title>boss_29</title>
<g id="a_node25"><a xlink:href="javascript:s=&quot;\(&#x27;default&#x27;,\ \(&#x27;boss&#x27;,\ 1\)\)\nSphere&quot;; console.log(s); alert(s);" xlink:title="Sphere">
<ellipse fill="none" stroke="black" cx="250.79" cy="-99" rx="47.39" ry="18"/>
<text text-anchor="middle" x="250.79" y="-95.3" font-family="Times New Roman,serif" font-size="14.00">(&#39;boss&#39;, 1)</text>
</a>
</g>
</g>
<!-- default_6&#45;&gt;boss_29 -->
<g id="edge24" class="edge">
<title>default_6&#45;&gt;boss_29</title>
<path fill="none" stroke="black" d="M144.14,-164.56C157.91,-153.18 177.6,-137.7 196.19,-126 200.88,-123.05 205.93,-120.17 210.99,-117.44"/>
<polygon fill="black" stroke="black" points="212.78,-120.46 220.03,-112.73 209.54,-114.25 212.78,-120.46"/>
</g>
<!-- boss_30 -->
<g id="node26" class="node">
<title>boss_30</title>
<g id="a_node26"><a xlink:href="javascript:s=&quot;\(&#x27;default&#x27;,\ \(&#x27;boss&#x27;,\ 2\)\)\nSphere&quot;; console.log(s); alert(s);" xlink:title="Sphere">
<ellipse fill="none" stroke="black" cx="250.79" cy="-45" rx="47.39" ry="18"/>
<text text-anchor="middle" x="250.79" y="-41.3" font-family="Times New Roman,serif" font-size="14.00">(&#39;boss&#39;, 2)</text>
</a>
</g>
</g>
<!-- default_6&#45;&gt;boss_30 -->
<g id="edge25" class="edge">
<title>default_6&#45;&gt;boss_30</title>
<path fill="none" stroke="black" d="M133.96,-162.25C145.01,-138.99 167.07,-98.11 196.19,-72 199.88,-68.7 204.04,-65.69 208.38,-62.98"/>
<polygon fill="black" stroke="black" points="210.45,-65.83 217.42,-57.85 207,-59.74 210.45,-65.83"/>
</g>
<!-- main_8 -->
<g id="node4" class="node">
<title>main_8</title>
<g id="a_node4"><a xlink:href="javascript:s=&quot;\(&#x27;default&#x27;,\ &#x27;resin_funnel&#x27;,\ &#x27;main&#x27;\)\nConePipe&quot;; console.log(s); alert(s);" xlink:title="ConePipe">
<ellipse fill="none" stroke="black" cx="427.83" cy="-558" rx="27.9" ry="18"/>
<text text-anchor="middle" x="427.83" y="-554.3" font-family="Times New Roman,serif" font-size="14.00">main</text>
</a>
</g>
</g>
<!-- resin_funnel_7&#45;&gt;main_8 -->
<g id="edge3" class="edge">
<title>resin_funnel_7&#45;&gt;main_8</title>
<path fill="none" stroke="black" d="M259.57,-333.1C273.42,-364.25 304.4,-429.22 341.38,-477 359.07,-499.85 383.27,-522.16 401.41,-537.56"/>
<polygon fill="black" stroke="black" points="399.35,-540.4 409.26,-544.13 403.83,-535.03 399.35,-540.4"/>
</g>
<!-- rim_11 -->
<g id="node7" class="node">
<title>rim_11</title>
<g id="a_node7"><a xlink:href="javascript:s=&quot;\(&#x27;default&#x27;,\ &#x27;resin_funnel&#x27;,\ &#x27;rim&#x27;\)\nConePipe&quot;; console.log(s); alert(s);" xlink:title="ConePipe">
<ellipse fill="none" stroke="black" cx="427.83" cy="-450" rx="27" ry="18"/>
<text text-anchor="middle" x="427.83" y="-446.3" font-family="Times New Roman,serif" font-size="14.00">rim</text>
</a>
</g>
</g>
<!-- resin_funnel_7&#45;&gt;rim_11 -->
<g id="edge6" class="edge">
<title>resin_funnel_7&#45;&gt;rim_11</title>
<path fill="none" stroke="black" d="M273.25,-331.55C305.57,-356.48 366.61,-403.56 401.21,-430.24"/>
<polygon fill="black" stroke="black" points="399.35,-433.23 409.4,-436.56 403.62,-427.68 399.35,-433.23"/>
</g>
<!-- mesh_14 -->
<g id="node10" class="node">
<title>mesh_14</title>
<g id="a_node10"><a xlink:href="javascript:s=&quot;\(&#x27;default&#x27;,\ &#x27;resin_funnel&#x27;,\ &#x27;mesh&#x27;\)\nConePipe&quot;; console.log(s); alert(s);" xlink:title="ConePipe">
<ellipse fill="none" stroke="black" cx="427.83" cy="-342" rx="29.8" ry="18"/>
<text text-anchor="middle" x="427.83" y="-338.3" font-family="Times New Roman,serif" font-size="14.00">mesh</text>
</a>
</g>
</g>
<!-- resin_funnel_7&#45;&gt;mesh_14 -->
<g id="edge9" class="edge">
<title>resin_funnel_7&#45;&gt;mesh_14</title>
<path fill="none" stroke="black" d="M300.55,-322.52C328.37,-326.81 362.75,-332.12 388.61,-336.11"/>
<polygon fill="black" stroke="black" points="388.36,-339.61 398.77,-337.67 389.43,-332.69 388.36,-339.61"/>
</g>
<!-- adapter_17 -->
<g id="node13" class="node">
<title>adapter_17</title>
<g id="a_node13"><a xlink:href="javascript:s=&quot;\(&#x27;default&#x27;,\ &#x27;resin_funnel&#x27;,\ &#x27;adapter&#x27;\)\nConePipe&quot;; console.log(s); alert(s);" xlink:title="ConePipe">
<ellipse fill="none" stroke="black" cx="427.83" cy="-288" rx="37.89" ry="18"/>
<text text-anchor="middle" x="427.83" y="-284.3" font-family="Times New Roman,serif" font-size="14.00">adapter</text>
</a>
</g>
</g>
<!-- resin_funnel_7&#45;&gt;adapter_17 -->
<g id="edge12" class="edge">
<title>resin_funnel_7&#45;&gt;adapter_17</title>
<path fill="none" stroke="black" d="M300.55,-307.48C325.97,-303.56 356.87,-298.79 381.74,-294.95"/>
<polygon fill="black" stroke="black" points="382.3,-298.41 391.65,-293.43 381.23,-291.49 382.3,-298.41"/>
</g>
<!-- bottle_inner_adapter_20 -->
<g id="node16" class="node">
<title>bottle_inner_adapter_20</title>
<g id="a_node16"><a xlink:href="javascript:s=&quot;\(&#x27;default&#x27;,\ &#x27;resin_funnel&#x27;,\ &#x27;bottle_inner_adapter&#x27;\)\nConePipe&quot;; console.log(s); alert(s);" xlink:title="ConePipe">
<ellipse fill="none" stroke="black" cx="427.83" cy="-180" rx="85.29" ry="18"/>
<text text-anchor="middle" x="427.83" y="-176.3" font-family="Times New Roman,serif" font-size="14.00">bottle_inner_adapter</text>
</a>
</g>
</g>
<!-- resin_funnel_7&#45;&gt;bottle_inner_adapter_20 -->
<g id="edge15" class="edge">
<title>resin_funnel_7&#45;&gt;bottle_inner_adapter_20</title>
<path fill="none" stroke="black" d="M283.74,-300.62C291.06,-296.86 298.66,-292.57 305.38,-288 342.03,-263.1 379.4,-228.12 402.83,-204.79"/>
<polygon fill="black" stroke="black" points="405.36,-207.21 409.93,-197.65 400.4,-202.28 405.36,-207.21"/>
</g>
<!-- bottle_outer_adapter_23 -->
<g id="node19" class="node">
<title>bottle_outer_adapter_23</title>
<g id="a_node19"><a xlink:href="javascript:s=&quot;\(&#x27;default&#x27;,\ &#x27;resin_funnel&#x27;,\ &#x27;bottle_outer_adapter&#x27;\)\nConePipe&quot;; console.log(s); alert(s);" xlink:title="ConePipe">
<ellipse fill="none" stroke="black" cx="427.83" cy="-72" rx="86.38" ry="18"/>
<text text-anchor="middle" x="427.83" y="-68.3" font-family="Times New Roman,serif" font-size="14.00">bottle_outer_adapter</text>
</a>
</g>
</g>
<!-- resin_funnel_7&#45;&gt;bottle_outer_adapter_23 -->
<g id="edge18" class="edge">
<title>resin_funnel_7&#45;&gt;bottle_outer_adapter_23</title>
<path fill="none" stroke="black" d="M288.55,-301.76C294.87,-298.11 300.85,-293.58 305.38,-288 344.54,-239.81 309.65,-206.38 341.38,-153 354.79,-130.45 376.23,-110.15 394.28,-95.52"/>
<polygon fill="black" stroke="black" points="396.6,-98.14 402.29,-89.2 392.27,-92.64 396.6,-98.14"/>
</g>
<!-- outer_9 -->
<g id="node5" class="node">
<title>outer_9</title>
<g id="a_node5"><a xlink:href="javascript:s=&quot;\(&#x27;default&#x27;,\ &#x27;resin_funnel&#x27;,\ &#x27;main&#x27;,\ &#x27;outer&#x27;\)\nCone&quot;; console.log(s); alert(s);" xlink:title="Cone">
<ellipse fill="none" stroke="black" cx="579.52" cy="-612" rx="29.5" ry="18"/>
<text text-anchor="middle" x="579.52" y="-608.3" font-family="Times New Roman,serif" font-size="14.00">outer</text>
</a>
</g>
</g>
<!-- main_8&#45;&gt;outer_9 -->
<g id="edge4" class="edge">
<title>main_8&#45;&gt;outer_9</title>
<path fill="none" stroke="black" d="M452.55,-566.56C477.32,-575.49 516.42,-589.6 544.49,-599.72"/>
<polygon fill="black" stroke="black" points="543.32,-603.02 553.91,-603.12 545.69,-596.44 543.32,-603.02"/>
</g>
<!-- inner_10 -->
<g id="node6" class="node">
<title>inner_10</title>
<g id="a_node6"><a xlink:href="javascript:s=&quot;\(&#x27;default&#x27;,\ &#x27;resin_funnel&#x27;,\ &#x27;main&#x27;,\ &#x27;inner&#x27;\)\nCone&quot;; console.log(s); alert(s);" xlink:title="Cone">
<ellipse fill="none" stroke="black" cx="579.52" cy="-558" rx="28.7" ry="18"/>
<text text-anchor="middle" x="579.52" y="-554.3" font-family="Times New Roman,serif" font-size="14.00">inner</text>
</a>
</g>
</g>
<!-- main_8&#45;&gt;inner_10 -->
<g id="edge5" class="edge">
<title>main_8&#45;&gt;inner_10</title>
<path fill="none" stroke="black" d="M455.93,-558C479.66,-558 514.37,-558 540.81,-558"/>
<polygon fill="black" stroke="black" points="540.85,-561.5 550.85,-558 540.85,-554.5 540.85,-561.5"/>
</g>
<!-- outer_12 -->
<g id="node8" class="node">
<title>outer_12</title>
<g id="a_node8"><a xlink:href="javascript:s=&quot;\(&#x27;default&#x27;,\ &#x27;resin_funnel&#x27;,\ &#x27;rim&#x27;,\ &#x27;outer&#x27;\)\nCone&quot;; console.log(s); alert(s);" xlink:title="Cone">
<ellipse fill="none" stroke="black" cx="579.52" cy="-504" rx="29.5" ry="18"/>
<text text-anchor="middle" x="579.52" y="-500.3" font-family="Times New Roman,serif" font-size="14.00">outer</text>
</a>
</g>
</g>
<!-- rim_11&#45;&gt;outer_12 -->
<g id="edge7" class="edge">
<title>rim_11&#45;&gt;outer_12</title>
<path fill="none" stroke="black" d="M451.89,-458.32C476.54,-467.21 515.88,-481.41 544.18,-491.61"/>
<polygon fill="black" stroke="black" points="543.09,-494.94 553.68,-495.04 545.46,-488.36 543.09,-494.94"/>
</g>
<!-- inner_13 -->
<g id="node9" class="node">
<title>inner_13</title>
<g id="a_node9"><a xlink:href="javascript:s=&quot;\(&#x27;default&#x27;,\ &#x27;resin_funnel&#x27;,\ &#x27;rim&#x27;,\ &#x27;inner&#x27;\)\nCone&quot;; console.log(s); alert(s);" xlink:title="Cone">
<ellipse fill="none" stroke="black" cx="579.52" cy="-450" rx="28.7" ry="18"/>
<text text-anchor="middle" x="579.52" y="-446.3" font-family="Times New Roman,serif" font-size="14.00">inner</text>
</a>
</g>
</g>
<!-- rim_11&#45;&gt;inner_13 -->
<g id="edge8" class="edge">
<title>rim_11&#45;&gt;inner_13</title>
<path fill="none" stroke="black" d="M454.9,-450C478.56,-450 513.75,-450 540.53,-450"/>
<polygon fill="black" stroke="black" points="540.71,-453.5 550.71,-450 540.71,-446.5 540.71,-453.5"/>
</g>
<!-- outer_15 -->
<g id="node11" class="node">
<title>outer_15</title>
<g id="a_node11"><a xlink:href="javascript:s=&quot;\(&#x27;default&#x27;,\ &#x27;resin_funnel&#x27;,\ &#x27;mesh&#x27;,\ &#x27;outer&#x27;\)\nCone&quot;; console.log(s); alert(s);" xlink:title="Cone">
<ellipse fill="none" stroke="black" cx="579.52" cy="-396" rx="29.5" ry="18"/>
<text text-anchor="middle" x="579.52" y="-392.3" font-family="Times New Roman,serif" font-size="14.00">outer</text>
</a>
</g>
</g>
<!-- mesh_14&#45;&gt;outer_15 -->
<g id="edge10" class="edge">
<title>mesh_14&#45;&gt;outer_15</title>
<path fill="none" stroke="black" d="M453.88,-351.04C478.64,-359.97 516.7,-373.7 544.25,-383.64"/>
<polygon fill="black" stroke="black" points="543.28,-387.01 553.88,-387.11 545.66,-380.43 543.28,-387.01"/>
</g>
<!-- inner_16 -->
<g id="node12" class="node">
<title>inner_16</title>
<g id="a_node12"><a xlink:href="javascript:s=&quot;\(&#x27;default&#x27;,\ &#x27;resin_funnel&#x27;,\ &#x27;mesh&#x27;,\ &#x27;inner&#x27;\)\nCone&quot;; console.log(s); alert(s);" xlink:title="Cone">
<ellipse fill="none" stroke="black" cx="579.52" cy="-342" rx="28.7" ry="18"/>
<text text-anchor="middle" x="579.52" y="-338.3" font-family="Times New Roman,serif" font-size="14.00">inner</text>
</a>
</g>
</g>
<!-- mesh_14&#45;&gt;inner_16 -->
<g id="edge11" class="edge">
<title>mesh_14&#45;&gt;inner_16</title>
<path fill="none" stroke="black" d="M458.04,-342C481.67,-342 515.12,-342 540.77,-342"/>
<polygon fill="black" stroke="black" points="540.89,-345.5 550.89,-342 540.89,-338.5 540.89,-345.5"/>
</g>
<!-- outer_18 -->
<g id="node14" class="node">
<title>outer_18</title>
<g id="a_node14"><a xlink:href="javascript:s=&quot;\(&#x27;default&#x27;,\ &#x27;resin_funnel&#x27;,\ &#x27;adapter&#x27;,\ &#x27;outer&#x27;\)\nCone&quot;; console.log(s); alert(s);" xlink:title="Cone">
<ellipse fill="none" stroke="black" cx="579.52" cy="-288" rx="29.5" ry="18"/>
<text text-anchor="middle" x="579.52" y="-284.3" font-family="Times New Roman,serif" font-size="14.00">outer</text>
</a>
</g>
</g>
<!-- adapter_17&#45;&gt;outer_18 -->
<g id="edge13" class="edge">
<title>adapter_17&#45;&gt;outer_18</title>
<path fill="none" stroke="black" d="M465.83,-288C488.35,-288 517.08,-288 539.89,-288"/>
<polygon fill="black" stroke="black" points="539.91,-291.5 549.91,-288 539.91,-284.5 539.91,-291.5"/>
</g>
<!-- inner_19 -->
<g id="node15" class="node">
<title>inner_19</title>
<g id="a_node15"><a xlink:href="javascript:s=&quot;\(&#x27;default&#x27;,\ &#x27;resin_funnel&#x27;,\ &#x27;adapter&#x27;,\ &#x27;inner&#x27;\)\nCone&quot;; console.log(s); alert(s);" xlink:title="Cone">
<ellipse fill="none" stroke="black" cx="579.52" cy="-234" rx="28.7" ry="18"/>
<text text-anchor="middle" x="579.52" y="-230.3" font-family="Times New Roman,serif" font-size="14.00">inner</text>
</a>
</g>
</g>
<!-- adapter_17&#45;&gt;inner_19 -->
<g id="edge14" class="edge">
<title>adapter_17&#45;&gt;inner_19</title>
<path fill="none" stroke="black" d="M458.4,-277.33C483.33,-268.34 519,-255.47 544.99,-246.1"/>
<polygon fill="black" stroke="black" points="546.21,-249.37 554.43,-242.69 543.84,-242.79 546.21,-249.37"/>
</g>
<!-- outer_21 -->
<g id="node17" class="node">
<title>outer_21</title>
<g id="a_node17"><a xlink:href="javascript:s=&quot;\(&#x27;default&#x27;,\ &#x27;resin_funnel&#x27;,\ &#x27;bottle_inner_adapter&#x27;,\ &#x27;outer&#x27;\)\nCone&quot;; console.log(s); alert(s);" xlink:title="Cone">
<ellipse fill="none" stroke="black" cx="579.52" cy="-180" rx="29.5" ry="18"/>
<text text-anchor="middle" x="579.52" y="-176.3" font-family="Times New Roman,serif" font-size="14.00">outer</text>
</a>
</g>
</g>
<!-- bottle_inner_adapter_20&#45;&gt;outer_21 -->
<g id="edge16" class="edge">
<title>bottle_inner_adapter_20&#45;&gt;outer_21</title>
<path fill="none" stroke="black" d="M513.3,-180C522.62,-180 531.74,-180 540.07,-180"/>
<polygon fill="black" stroke="black" points="540.15,-183.5 550.15,-180 540.15,-176.5 540.15,-183.5"/>
</g>
<!-- inner_22 -->
<g id="node18" class="node">
<title>inner_22</title>
<g id="a_node18"><a xlink:href="javascript:s=&quot;\(&#x27;default&#x27;,\ &#x27;resin_funnel&#x27;,\ &#x27;bottle_inner_adapter&#x27;,\ &#x27;inner&#x27;\)\nCone&quot;; console.log(s); alert(s);" xlink:title="Cone">
<ellipse fill="none" stroke="black" cx="579.52" cy="-126" rx="28.7" ry="18"/>
<text text-anchor="middle" x="579.52" y="-122.3" font-family="Times New Roman,serif" font-size="14.00">inner</text>
</a>
</g>
</g>
<!-- bottle_inner_adapter_20&#45;&gt;inner_22 -->
<g id="edge17" class="edge">
<title>bottle_inner_adapter_20&#45;&gt;inner_22</title>
<path fill="none" stroke="black" d="M471.72,-164.53C494.95,-156.15 523.22,-145.95 544.85,-138.15"/>
<polygon fill="black" stroke="black" points="546.05,-141.43 554.27,-134.75 543.68,-134.85 546.05,-141.43"/>
</g>
<!-- outer_24 -->
<g id="node20" class="node">
<title>outer_24</title>
<g id="a_node20"><a xlink:href="javascript:s=&quot;\(&#x27;default&#x27;,\ &#x27;resin_funnel&#x27;,\ &#x27;bottle_outer_adapter&#x27;,\ &#x27;outer&#x27;\)\nCone&quot;; console.log(s); alert(s);" xlink:title="Cone">
<ellipse fill="none" stroke="black" cx="579.52" cy="-72" rx="29.5" ry="18"/>
<text text-anchor="middle" x="579.52" y="-68.3" font-family="Times New Roman,serif" font-size="14.00">outer</text>
</a>
</g>
</g>
<!-- bottle_outer_adapter_23&#45;&gt;outer_24 -->
<g id="edge19" class="edge">
<title>bottle_outer_adapter_23&#45;&gt;outer_24</title>
<path fill="none" stroke="black" d="M514.6,-72C523.5,-72 532.19,-72 540.16,-72"/>
<polygon fill="black" stroke="black" points="540.16,-75.5 550.16,-72 540.16,-68.5 540.16,-75.5"/>
</g>
<!-- inner_25 -->
<g id="node21" class="node">
<title>inner_25</title>
<g id="a_node21"><a xlink:href="javascript:s=&quot;\(&#x27;default&#x27;,\ &#x27;resin_funnel&#x27;,\ &#x27;bottle_outer_adapter&#x27;,\ &#x27;inner&#x27;\)\nCone&quot;; console.log(s); alert(s);" xlink:title="Cone">
<ellipse fill="none" stroke="black" cx="579.52" cy="-18" rx="28.7" ry="18"/>
<text text-anchor="middle" x="579.52" y="-14.3" font-family="Times New Roman,serif" font-size="14.00">inner</text>
</a>
</g>
</g>
<!-- bottle_outer_adapter_23&#45;&gt;inner_25 -->
<g id="edge20" class="edge">
<title>bottle_outer_adapter_23&#45;&gt;inner_25</title>
<path fill="none" stroke="black" d="M472.12,-56.38C495.23,-48.04 523.25,-37.94 544.73,-30.19"/>
<polygon fill="black" stroke="black" points="546.18,-33.39 554.4,-26.7 543.81,-26.8 546.18,-33.39"/>
</g>
</g>
</svg>
