<?xml version="1.0" encoding="UTF-8" standalone="no"?>
<!DOCTYPE svg PUBLIC "-//W3C//DTD SVG 1.1//EN"
 "http://www.w3.org/Graphics/SVG/1.1/DTD/svg11.dtd">
<!-- Generated by graphviz version 5.0.0 (20220707.1540)
 -->
<!-- Title: default Pages: 1 -->
<svg width="263pt" height="98pt"
 viewBox="0.00 0.00 262.69 98.00" xmlns="http://www.w3.org/2000/svg" xmlns:xlink="http://www.w3.org/1999/xlink">
<g id="graph0" class="graph" transform="scale(1 1) rotate(0) translate(4 94)">
<title>default</title>
<polygon fill="white" stroke="transparent" points="-4,4 -4,-94 258.69,-94 258.69,4 -4,4"/>
<!-- root_1 -->
<g id="node1" class="node">
<title>root_1</title>
<g id="a_node1"><a xlink:href="javascript:s=&quot;\(\)\nNone&quot;; console.log(s); alert(s);" xlink:title="root">
<ellipse fill="none" stroke="black" cx="27" cy="-45" rx="27" ry="18"/>
<text text-anchor="middle" x="27" y="-41.3" font-family="Times New Roman,serif" font-size="14.00">root</text>
</a>
</g>
</g>
<!-- default_2 -->
<g id="node2" class="node">
<title>default_2</title>
<g id="a_node2"><a xlink:href="javascript:s=&quot;\(&#x27;default&#x27;,\)\nConePipe&quot;; console.log(s); alert(s);" xlink:title="ConePipe">
<ellipse fill="none" stroke="black" cx="125.1" cy="-45" rx="35.19" ry="18"/>
<text text-anchor="middle" x="125.1" y="-41.3" font-family="Times New Roman,serif" font-size="14.00">default</text>
</a>
</g>
</g>
<!-- root_1&#45;&gt;default_2 -->
<g id="edge1" class="edge">
<title>root_1&#45;&gt;default_2</title>
<path fill="none" stroke="black" d="M54.01,-45C61.92,-45 70.84,-45 79.61,-45"/>
<polygon fill="black" stroke="black" points="79.76,-48.5 89.76,-45 79.76,-41.5 79.76,-48.5"/>
</g>
<!-- outer_3 -->
<g id="node3" class="node">
<title>outer_3</title>
<g id="a_node3"><a xlink:href="javascript:s=&quot;\(&#x27;default&#x27;,\ &#x27;outer&#x27;\)\nCone&quot;; console.log(s); alert(s);" xlink:title="Cone">
<ellipse fill="none" stroke="black" cx="225.44" cy="-72" rx="29.5" ry="18"/>
<text text-anchor="middle" x="225.44" y="-68.3" font-family="Times New Roman,serif" font-size="14.00">outer</text>
</a>
</g>
</g>
<!-- default_2&#45;&gt;outer_3 -->
<g id="edge2" class="edge">
<title>default_2&#45;&gt;outer_3</title>
<path fill="none" stroke="black" d="M156.41,-53.32C166.58,-56.12 178.03,-59.26 188.6,-62.16"/>
<polygon fill="black" stroke="black" points="187.81,-65.57 198.38,-64.85 189.67,-58.82 187.81,-65.57"/>
</g>
<!-- inner_4 -->
<g id="node4" class="node">
<title>inner_4</title>
<g id="a_node4"><a xlink:href="javascript:s=&quot;\(&#x27;default&#x27;,\ &#x27;inner&#x27;\)\nCone&quot;; console.log(s); alert(s);" xlink:title="Cone">
<ellipse fill="none" stroke="black" cx="225.44" cy="-18" rx="28.7" ry="18"/>
<text text-anchor="middle" x="225.44" y="-14.3" font-family="Times New Roman,serif" font-size="14.00">inner</text>
</a>
</g>
</g>
<!-- default_2&#45;&gt;inner_4 -->
<g id="edge3" class="edge">
<title>default_2&#45;&gt;inner_4</title>
<path fill="none" stroke="black" d="M156.41,-36.68C166.76,-33.84 178.42,-30.63 189.13,-27.69"/>
<polygon fill="black" stroke="black" points="190.31,-31 199.03,-24.98 188.46,-24.25 190.31,-31"/>
</g>
</g>
</svg>
