solid OpenSCAD_Model
  facet normal -1 0 0
    outer loop
      vertex -32.360679775476456 -11.755705043673515 0
      vertex -32.360679775476456 11.755705043673515 5
      vertex -32.360679775476456 11.755705043673515 0
    endloop
  endfacet
  facet normal -1 0 0
    outer loop
      vertex -32.360679775476456 -11.755705043673515 0
      vertex -32.360679775476456 -11.755705043673515 5
      vertex -32.360679775476456 11.755705043673515 5
    endloop
  endfacet
  facet normal -0.1603574565807659 -0.9870590084280412 0
    outer loop
      vertex 12.360679775476456 -19.021130323410034 0
      vertex -32.360679775476456 -11.755705043673515 5
      vertex -32.360679775476456 -11.755705043673515 0
    endloop
  endfacet
  facet normal -0.1603574565807659 -0.9870590084280412 0
    outer loop
      vertex 12.360679775476456 -19.021130323410034 0
      vertex 12.360679775476456 -19.021130323410034 5
      vertex -32.360679775476456 -11.755705043673515 5
    endloop
  endfacet
  facet normal 0.5669152706380371 -0.8237761078821121 0
    outer loop
      vertex 40 0 0
      vertex 12.360679775476456 -19.021130323410034 5
      vertex 12.360679775476456 -19.021130323410034 0
    endloop
  endfacet
  facet normal 0.5669152706380371 -0.8237761078821121 0
    outer loop
      vertex 40 0 0
      vertex 40 0 5
      vertex 12.360679775476456 -19.021130323410034 5
    endloop
  endfacet
  facet normal 0.5669152706380371 0.8237761078821121 0
    outer loop
      vertex 12.360679775476456 19.021130323410034 0
      vertex 40 0 5
      vertex 40 0 0
    endloop
  endfacet
  facet normal 0.5669152706380371 0.8237761078821121 0
    outer loop
      vertex 12.360679775476456 19.021130323410034 0
      vertex 12.360679775476456 19.021130323410034 5
      vertex 40 0 5
    endloop
  endfacet
  facet normal -0.1603574565807659 0.9870590084280412 0
    outer loop
      vertex -32.360679775476456 11.755705043673515 0
      vertex 12.360679775476456 19.021130323410034 5
      vertex 12.360679775476456 19.021130323410034 0
    endloop
  endfacet
  facet normal -0.1603574565807659 0.9870590084280412 0
    outer loop
      vertex -32.360679775476456 11.755705043673515 0
      vertex -32.360679775476456 11.755705043673515 5
      vertex 12.360679775476456 19.021130323410034 5
    endloop
  endfacet
  facet normal -1 0 0
    outer loop
      vertex -32.360679775476456 -11.755705043673515 5
      vertex -32.360679775476456 11.755705043673515 10
      vertex -32.360679775476456 11.755705043673515 5
    endloop
  endfacet
  facet normal -1 0 0
    outer loop
      vertex -32.360679775476456 -11.755705043673515 5
      vertex -32.360679775476456 -11.755705043673515 10
      vertex -32.360679775476456 11.755705043673515 10
    endloop
  endfacet
  facet normal -0.1603574565807659 -0.9870590084280412 0
    outer loop
      vertex 12.360679775476456 -19.021130323410034 5
      vertex -32.360679775476456 -11.755705043673515 10
      vertex -32.360679775476456 -11.755705043673515 5
    endloop
  endfacet
  facet normal -0.1603574565807659 -0.9870590084280412 0
    outer loop
      vertex 12.360679775476456 -19.021130323410034 5
      vertex 12.360679775476456 -19.021130323410034 10
      vertex -32.360679775476456 -11.755705043673515 10
    endloop
  endfacet
  facet normal 0.5669152706380371 -0.8237761078821121 0
    outer loop
      vertex 40 0 5
      vertex 12.360679775476456 -19.021130323410034 10
      vertex 12.360679775476456 -19.021130323410034 5
    endloop
  endfacet
  facet normal 0.5669152706380371 -0.8237761078821121 0
    outer loop
      vertex 40 0 5
      vertex 40 0 10
      vertex 12.360679775476456 -19.021130323410034 10
    endloop
  endfacet
  facet normal 0.5669152706380371 0.8237761078821121 0
    outer loop
      vertex 12.360679775476456 19.021130323410034 5
      vertex 40 0 10
      vertex 40 0 5
    endloop
  endfacet
  facet normal 0.5669152706380371 0.8237761078821121 0
    outer loop
      vertex 12.360679775476456 19.021130323410034 5
      vertex 12.360679775476456 19.021130323410034 10
      vertex 40 0 10
    endloop
  endfacet
  facet normal -0.1603574565807659 0.9870590084280412 0
    outer loop
      vertex -32.360679775476456 11.755705043673515 5
      vertex 12.360679775476456 19.021130323410034 10
      vertex 12.360679775476456 19.021130323410034 5
    endloop
  endfacet
  facet normal -0.1603574565807659 0.9870590084280412 0
    outer loop
      vertex -32.360679775476456 11.755705043673515 5
      vertex -32.360679775476456 11.755705043673515 10
      vertex 12.360679775476456 19.021130323410034 10
    endloop
  endfacet
  facet normal -1 0 0
    outer loop
      vertex -32.360679775476456 -11.755705043673515 10
      vertex -32.360679775476456 11.755705043673515 15
      vertex -32.360679775476456 11.755705043673515 10
    endloop
  endfacet
  facet normal -1 0 0
    outer loop
      vertex -32.360679775476456 -11.755705043673515 10
      vertex -32.360679775476456 -11.755705043673515 15
      vertex -32.360679775476456 11.755705043673515 15
    endloop
  endfacet
  facet normal -0.1603574565807659 -0.9870590084280412 0
    outer loop
      vertex 12.360679775476456 -19.021130323410034 10
      vertex -32.360679775476456 -11.755705043673515 15
      vertex -32.360679775476456 -11.755705043673515 10
    endloop
  endfacet
  facet normal -0.1603574565807659 -0.9870590084280412 0
    outer loop
      vertex 12.360679775476456 -19.021130323410034 10
      vertex 12.360679775476456 -19.021130323410034 15
      vertex -32.360679775476456 -11.755705043673515 15
    endloop
  endfacet
  facet normal 0.5669152706380371 -0.8237761078821121 0
    outer loop
      vertex 40 0 10
      vertex 12.360679775476456 -19.021130323410034 15
      vertex 12.360679775476456 -19.021130323410034 10
    endloop
  endfacet
  facet normal 0.5669152706380371 -0.8237761078821121 0
    outer loop
      vertex 40 0 10
      vertex 40 0 15
      vertex 12.360679775476456 -19.021130323410034 15
    endloop
  endfacet
  facet normal 0.5669152706380371 0.8237761078821121 0
    outer loop
      vertex 12.360679775476456 19.021130323410034 10
      vertex 40 0 15
      vertex 40 0 10
    endloop
  endfacet
  facet normal 0.5669152706380371 0.8237761078821121 0
    outer loop
      vertex 12.360679775476456 19.021130323410034 10
      vertex 12.360679775476456 19.021130323410034 15
      vertex 40 0 15
    endloop
  endfacet
  facet normal -0.1603574565807659 0.9870590084280412 0
    outer loop
      vertex -32.360679775476456 11.755705043673515 10
      vertex 12.360679775476456 19.021130323410034 15
      vertex 12.360679775476456 19.021130323410034 10
    endloop
  endfacet
  facet normal -0.1603574565807659 0.9870590084280412 0
    outer loop
      vertex -32.360679775476456 11.755705043673515 10
      vertex -32.360679775476456 11.755705043673515 15
      vertex 12.360679775476456 19.021130323410034 15
    endloop
  endfacet
  facet normal -1 0 0
    outer loop
      vertex -32.360679775476456 -11.755705043673515 15
      vertex -32.360679775476456 11.755705043673515 20
      vertex -32.360679775476456 11.755705043673515 15
    endloop
  endfacet
  facet normal -1 0 0
    outer loop
      vertex -32.360679775476456 -11.755705043673515 15
      vertex -32.360679775476456 -11.755705043673515 20
      vertex -32.360679775476456 11.755705043673515 20
    endloop
  endfacet
  facet normal -0.1603574565807659 -0.9870590084280412 0
    outer loop
      vertex 12.360679775476456 -19.021130323410034 15
      vertex -32.360679775476456 -11.755705043673515 20
      vertex -32.360679775476456 -11.755705043673515 15
    endloop
  endfacet
  facet normal -0.1603574565807659 -0.9870590084280412 0
    outer loop
      vertex 12.360679775476456 -19.021130323410034 15
      vertex 12.360679775476456 -19.021130323410034 20
      vertex -32.360679775476456 -11.755705043673515 20
    endloop
  endfacet
  facet normal 0.5669152706380371 -0.8237761078821121 0
    outer loop
      vertex 40 0 15
      vertex 12.360679775476456 -19.021130323410034 20
      vertex 12.360679775476456 -19.021130323410034 15
    endloop
  endfacet
  facet normal 0.5669152706380371 -0.8237761078821121 0
    outer loop
      vertex 40 0 15
      vertex 40 0 20
      vertex 12.360679775476456 -19.021130323410034 20
    endloop
  endfacet
  facet normal 0.5669152706380371 0.8237761078821121 0
    outer loop
      vertex 12.360679775476456 19.021130323410034 15
      vertex 40 0 20
      vertex 40 0 15
    endloop
  endfacet
  facet normal 0.5669152706380371 0.8237761078821121 0
    outer loop
      vertex 12.360679775476456 19.021130323410034 15
      vertex 12.360679775476456 19.021130323410034 20
      vertex 40 0 20
    endloop
  endfacet
  facet normal -0.1603574565807659 0.9870590084280412 0
    outer loop
      vertex -32.360679775476456 11.755705043673515 15
      vertex 12.360679775476456 19.021130323410034 20
      vertex 12.360679775476456 19.021130323410034 15
    endloop
  endfacet
  facet normal -0.1603574565807659 0.9870590084280412 0
    outer loop
      vertex -32.360679775476456 11.755705043673515 15
      vertex -32.360679775476456 11.755705043673515 20
      vertex 12.360679775476456 19.021130323410034 20
    endloop
  endfacet
  facet normal 0 0 -1
    outer loop
      vertex 12.360679775476456 19.021130323410034 0
      vertex -32.360679775476456 -11.755705043673515 0
      vertex -32.360679775476456 11.755705043673515 0
    endloop
  endfacet
  facet normal 0 0 -1
    outer loop
      vertex 12.360679775476456 19.021130323410034 0
      vertex 40 0 0
      vertex -32.360679775476456 -11.755705043673515 0
    endloop
  endfacet
  facet normal 0 0 -1
    outer loop
      vertex 40 0 0
      vertex 12.360679775476456 -19.021130323410034 0
      vertex -32.360679775476456 -11.755705043673515 0
    endloop
  endfacet
  facet normal 0 0 1
    outer loop
      vertex -32.360679775476456 11.755705043673515 20
      vertex -32.360679775476456 -11.755705043673515 20
      vertex 12.360679775476456 19.021130323410034 20
    endloop
  endfacet
  facet normal 0 0 1
    outer loop
      vertex -32.360679775476456 -11.755705043673515 20
      vertex 40 0 20
      vertex 12.360679775476456 19.021130323410034 20
    endloop
  endfacet
  facet normal 0 0 1
    outer loop
      vertex -32.360679775476456 -11.755705043673515 20
      vertex 12.360679775476456 -19.021130323410034 20
      vertex 40 0 20
    endloop
  endfacet
endsolid OpenSCAD_Model
