solid OpenSCAD_Model
  facet normal -1 0 0
    outer loop
      vertex -24.27050983160734 -14.694631308317184 0
      vertex -24.27050983160734 14.694631308317184 12.5
      vertex -24.27050983160734 14.694631308317184 0
    endloop
  endfacet
  facet normal -1 0 0
    outer loop
      vertex -24.27050983160734 -14.694631308317184 0
      vertex -24.27050983160734 -14.694631308317184 12.5
      vertex -24.27050983160734 14.694631308317184 12.5
    endloop
  endfacet
  facet normal -0.26135529547041 -0.9652426687261472 0
    outer loop
      vertex 9.270509831607342 -23.776412904262543 0
      vertex -24.27050983160734 -14.694631308317184 12.5
      vertex -24.27050983160734 -14.694631308317184 0
    endloop
  endfacet
  facet normal -0.26135529547041 -0.9652426687261472 0
    outer loop
      vertex 9.270509831607342 -23.776412904262543 0
      vertex 9.270509831607342 -23.776412904262543 12.5
      vertex -24.27050983160734 -14.694631308317184 12.5
    endloop
  endfacet
  facet normal 0.753751761120433 -0.6571592520902722 0
    outer loop
      vertex 30 0 0
      vertex 9.270509831607342 -23.776412904262543 12.5
      vertex 9.270509831607342 -23.776412904262543 0
    endloop
  endfacet
  facet normal 0.753751761120433 -0.6571592520902722 0
    outer loop
      vertex 30 0 0
      vertex 30 0 12.5
      vertex 9.270509831607342 -23.776412904262543 12.5
    endloop
  endfacet
  facet normal 0.753751761120433 0.6571592520902722 0
    outer loop
      vertex 9.270509831607342 23.776412904262543 0
      vertex 30 0 12.5
      vertex 30 0 0
    endloop
  endfacet
  facet normal 0.753751761120433 0.6571592520902722 0
    outer loop
      vertex 9.270509831607342 23.776412904262543 0
      vertex 9.270509831607342 23.776412904262543 12.5
      vertex 30 0 12.5
    endloop
  endfacet
  facet normal -0.26135529547041 0.9652426687261472 0
    outer loop
      vertex -24.27050983160734 14.694631308317184 0
      vertex 9.270509831607342 23.776412904262543 12.5
      vertex 9.270509831607342 23.776412904262543 0
    endloop
  endfacet
  facet normal -0.26135529547041 0.9652426687261472 0
    outer loop
      vertex -24.27050983160734 14.694631308317184 0
      vertex -24.27050983160734 14.694631308317184 12.5
      vertex 9.270509831607342 23.776412904262543 12.5
    endloop
  endfacet
  facet normal -1 0 0
    outer loop
      vertex -24.27050983160734 -14.694631308317184 12.5
      vertex -24.27050983160734 14.694631308317184 25
      vertex -24.27050983160734 14.694631308317184 12.5
    endloop
  endfacet
  facet normal -1 0 0
    outer loop
      vertex -24.27050983160734 -14.694631308317184 12.5
      vertex -24.27050983160734 -14.694631308317184 25
      vertex -24.27050983160734 14.694631308317184 25
    endloop
  endfacet
  facet normal -0.26135529547041 -0.9652426687261472 0
    outer loop
      vertex 9.270509831607342 -23.776412904262543 12.5
      vertex -24.27050983160734 -14.694631308317184 25
      vertex -24.27050983160734 -14.694631308317184 12.5
    endloop
  endfacet
  facet normal -0.26135529547041 -0.9652426687261472 0
    outer loop
      vertex 9.270509831607342 -23.776412904262543 12.5
      vertex 9.270509831607342 -23.776412904262543 25
      vertex -24.27050983160734 -14.694631308317184 25
    endloop
  endfacet
  facet normal 0.753751761120433 -0.6571592520902722 0
    outer loop
      vertex 30 0 12.5
      vertex 9.270509831607342 -23.776412904262543 25
      vertex 9.270509831607342 -23.776412904262543 12.5
    endloop
  endfacet
  facet normal 0.753751761120433 -0.6571592520902722 0
    outer loop
      vertex 30 0 12.5
      vertex 30 0 25
      vertex 9.270509831607342 -23.776412904262543 25
    endloop
  endfacet
  facet normal 0.753751761120433 0.6571592520902722 0
    outer loop
      vertex 9.270509831607342 23.776412904262543 12.5
      vertex 30 0 25
      vertex 30 0 12.5
    endloop
  endfacet
  facet normal 0.753751761120433 0.6571592520902722 0
    outer loop
      vertex 9.270509831607342 23.776412904262543 12.5
      vertex 9.270509831607342 23.776412904262543 25
      vertex 30 0 25
    endloop
  endfacet
  facet normal -0.26135529547041 0.9652426687261472 0
    outer loop
      vertex -24.27050983160734 14.694631308317184 12.5
      vertex 9.270509831607342 23.776412904262543 25
      vertex 9.270509831607342 23.776412904262543 12.5
    endloop
  endfacet
  facet normal -0.26135529547041 0.9652426687261472 0
    outer loop
      vertex -24.27050983160734 14.694631308317184 12.5
      vertex -24.27050983160734 14.694631308317184 25
      vertex 9.270509831607342 23.776412904262543 25
    endloop
  endfacet
  facet normal -1 0 0
    outer loop
      vertex -24.27050983160734 -14.694631308317184 25
      vertex -24.27050983160734 14.694631308317184 37.5
      vertex -24.27050983160734 14.694631308317184 25
    endloop
  endfacet
  facet normal -1 0 0
    outer loop
      vertex -24.27050983160734 -14.694631308317184 25
      vertex -24.27050983160734 -14.694631308317184 37.5
      vertex -24.27050983160734 14.694631308317184 37.5
    endloop
  endfacet
  facet normal -0.26135529547041 -0.9652426687261472 0
    outer loop
      vertex 9.270509831607342 -23.776412904262543 25
      vertex -24.27050983160734 -14.694631308317184 37.5
      vertex -24.27050983160734 -14.694631308317184 25
    endloop
  endfacet
  facet normal -0.26135529547041 -0.9652426687261472 0
    outer loop
      vertex 9.270509831607342 -23.776412904262543 25
      vertex 9.270509831607342 -23.776412904262543 37.5
      vertex -24.27050983160734 -14.694631308317184 37.5
    endloop
  endfacet
  facet normal 0.753751761120433 -0.6571592520902722 0
    outer loop
      vertex 30 0 25
      vertex 9.270509831607342 -23.776412904262543 37.5
      vertex 9.270509831607342 -23.776412904262543 25
    endloop
  endfacet
  facet normal 0.753751761120433 -0.6571592520902722 0
    outer loop
      vertex 30 0 25
      vertex 30 0 37.5
      vertex 9.270509831607342 -23.776412904262543 37.5
    endloop
  endfacet
  facet normal 0.753751761120433 0.6571592520902722 0
    outer loop
      vertex 9.270509831607342 23.776412904262543 25
      vertex 30 0 37.5
      vertex 30 0 25
    endloop
  endfacet
  facet normal 0.753751761120433 0.6571592520902722 0
    outer loop
      vertex 9.270509831607342 23.776412904262543 25
      vertex 9.270509831607342 23.776412904262543 37.5
      vertex 30 0 37.5
    endloop
  endfacet
  facet normal -0.26135529547041 0.9652426687261472 0
    outer loop
      vertex -24.27050983160734 14.694631308317184 25
      vertex 9.270509831607342 23.776412904262543 37.5
      vertex 9.270509831607342 23.776412904262543 25
    endloop
  endfacet
  facet normal -0.26135529547041 0.9652426687261472 0
    outer loop
      vertex -24.27050983160734 14.694631308317184 25
      vertex -24.27050983160734 14.694631308317184 37.5
      vertex 9.270509831607342 23.776412904262543 37.5
    endloop
  endfacet
  facet normal -1 0 0
    outer loop
      vertex -24.27050983160734 -14.694631308317184 37.5
      vertex -24.27050983160734 14.694631308317184 50
      vertex -24.27050983160734 14.694631308317184 37.5
    endloop
  endfacet
  facet normal -1 0 0
    outer loop
      vertex -24.27050983160734 -14.694631308317184 37.5
      vertex -24.27050983160734 -14.694631308317184 50
      vertex -24.27050983160734 14.694631308317184 50
    endloop
  endfacet
  facet normal -0.26135529547041 -0.9652426687261472 0
    outer loop
      vertex 9.270509831607342 -23.776412904262543 37.5
      vertex -24.27050983160734 -14.694631308317184 50
      vertex -24.27050983160734 -14.694631308317184 37.5
    endloop
  endfacet
  facet normal -0.26135529547041 -0.9652426687261472 0
    outer loop
      vertex 9.270509831607342 -23.776412904262543 37.5
      vertex 9.270509831607342 -23.776412904262543 50
      vertex -24.27050983160734 -14.694631308317184 50
    endloop
  endfacet
  facet normal 0.753751761120433 -0.6571592520902722 0
    outer loop
      vertex 30 0 37.5
      vertex 9.270509831607342 -23.776412904262543 50
      vertex 9.270509831607342 -23.776412904262543 37.5
    endloop
  endfacet
  facet normal 0.753751761120433 -0.6571592520902722 0
    outer loop
      vertex 30 0 37.5
      vertex 30 0 50
      vertex 9.270509831607342 -23.776412904262543 50
    endloop
  endfacet
  facet normal 0.753751761120433 0.6571592520902722 0
    outer loop
      vertex 9.270509831607342 23.776412904262543 37.5
      vertex 30 0 50
      vertex 30 0 37.5
    endloop
  endfacet
  facet normal 0.753751761120433 0.6571592520902722 0
    outer loop
      vertex 9.270509831607342 23.776412904262543 37.5
      vertex 9.270509831607342 23.776412904262543 50
      vertex 30 0 50
    endloop
  endfacet
  facet normal -0.26135529547041 0.9652426687261472 0
    outer loop
      vertex -24.27050983160734 14.694631308317184 37.5
      vertex 9.270509831607342 23.776412904262543 50
      vertex 9.270509831607342 23.776412904262543 37.5
    endloop
  endfacet
  facet normal -0.26135529547041 0.9652426687261472 0
    outer loop
      vertex -24.27050983160734 14.694631308317184 37.5
      vertex -24.27050983160734 14.694631308317184 50
      vertex 9.270509831607342 23.776412904262543 50
    endloop
  endfacet
  facet normal 0 0 -1
    outer loop
      vertex 9.270509831607342 23.776412904262543 0
      vertex -24.27050983160734 -14.694631308317184 0
      vertex -24.27050983160734 14.694631308317184 0
    endloop
  endfacet
  facet normal 0 0 -1
    outer loop
      vertex 9.270509831607342 23.776412904262543 0
      vertex 30 0 0
      vertex -24.27050983160734 -14.694631308317184 0
    endloop
  endfacet
  facet normal 0 0 -1
    outer loop
      vertex 30 0 0
      vertex 9.270509831607342 -23.776412904262543 0
      vertex -24.27050983160734 -14.694631308317184 0
    endloop
  endfacet
  facet normal 0 0 1
    outer loop
      vertex -24.27050983160734 14.694631308317184 50
      vertex -24.27050983160734 -14.694631308317184 50
      vertex 9.270509831607342 23.776412904262543 50
    endloop
  endfacet
  facet normal 0 0 1
    outer loop
      vertex -24.27050983160734 -14.694631308317184 50
      vertex 30 0 50
      vertex 9.270509831607342 23.776412904262543 50
    endloop
  endfacet
  facet normal 0 0 1
    outer loop
      vertex -24.27050983160734 -14.694631308317184 50
      vertex 9.270509831607342 -23.776412904262543 50
      vertex 30 0 50
    endloop
  endfacet
endsolid OpenSCAD_Model
