solid OpenSCAD_Model
  facet normal -0.29028467745026154 0.9569403356728139 0
    outer loop
      vertex -11.480502970516682 27.71638597548008 0
      vertex -5.852709658443928 29.42355841398239 12.5
      vertex -5.852709658443928 29.42355841398239 0
    endloop
  endfacet
  facet normal -0.29028467745026154 0.9569403356728139 0
    outer loop
      vertex -11.480502970516682 27.71638597548008 0
      vertex -11.480502970516682 27.71638597548008 12.5
      vertex -5.852709658443928 29.42355841398239 12.5
    endloop
  endfacet
  facet normal -0.471396736537991 0.8819212645022978 0
    outer loop
      vertex -16.667106993496418 24.944088369607925 0
      vertex -11.480502970516682 27.71638597548008 12.5
      vertex -11.480502970516682 27.71638597548008 0
    endloop
  endfacet
  facet normal -0.471396736537991 0.8819212645022978 0
    outer loop
      vertex -16.667106993496418 24.944088369607925 0
      vertex -16.667106993496418 24.944088369607925 12.5
      vertex -11.480502970516682 27.71638597548008 12.5
    endloop
  endfacet
  facet normal -0.6343932840846501 0.7730104534275668 0
    outer loop
      vertex -21.213203437626362 21.213203437626362 0
      vertex -16.667106993496418 24.944088369607925 12.5
      vertex -16.667106993496418 24.944088369607925 0
    endloop
  endfacet
  facet normal -0.6343932840846501 0.7730104534275668 0
    outer loop
      vertex -21.213203437626362 21.213203437626362 0
      vertex -21.213203437626362 21.213203437626362 12.5
      vertex -16.667106993496418 24.944088369607925 12.5
    endloop
  endfacet
  facet normal -0.7730104534275668 0.6343932840846501 0
    outer loop
      vertex -24.944088369607925 16.667106993496418 0
      vertex -21.213203437626362 21.213203437626362 12.5
      vertex -21.213203437626362 21.213203437626362 0
    endloop
  endfacet
  facet normal -0.7730104534275668 0.6343932840846501 0
    outer loop
      vertex -24.944088369607925 16.667106993496418 0
      vertex -24.944088369607925 16.667106993496418 12.5
      vertex -21.213203437626362 21.213203437626362 12.5
    endloop
  endfacet
  facet normal -0.8819212645022978 0.471396736537991 0
    outer loop
      vertex -27.71638597548008 11.480502970516682 0
      vertex -24.944088369607925 16.667106993496418 12.5
      vertex -24.944088369607925 16.667106993496418 0
    endloop
  endfacet
  facet normal -0.8819212645022978 0.471396736537991 0
    outer loop
      vertex -27.71638597548008 11.480502970516682 0
      vertex -27.71638597548008 11.480502970516682 12.5
      vertex -24.944088369607925 16.667106993496418 12.5
    endloop
  endfacet
  facet normal -0.9569403356728139 0.29028467745026154 0
    outer loop
      vertex -29.42355841398239 5.852709658443928 0
      vertex -27.71638597548008 11.480502970516682 12.5
      vertex -27.71638597548008 11.480502970516682 0
    endloop
  endfacet
  facet normal -0.9569403356728139 0.29028467745026154 0
    outer loop
      vertex -29.42355841398239 5.852709658443928 0
      vertex -29.42355841398239 5.852709658443928 12.5
      vertex -27.71638597548008 11.480502970516682 12.5
    endloop
  endfacet
  facet normal -0.9951847267001377 0.09801714004587228 0
    outer loop
      vertex -30 0 0
      vertex -29.42355841398239 5.852709658443928 12.5
      vertex -29.42355841398239 5.852709658443928 0
    endloop
  endfacet
  facet normal -0.9951847267001377 0.09801714004587228 0
    outer loop
      vertex -30 0 0
      vertex -30 0 12.5
      vertex -29.42355841398239 5.852709658443928 12.5
    endloop
  endfacet
  facet normal -0.9951847267001377 -0.09801714004587228 0
    outer loop
      vertex -29.42355841398239 -5.852709658443928 0
      vertex -30 0 12.5
      vertex -30 0 0
    endloop
  endfacet
  facet normal -0.9951847267001377 -0.09801714004587228 0
    outer loop
      vertex -29.42355841398239 -5.852709658443928 0
      vertex -29.42355841398239 -5.852709658443928 12.5
      vertex -30 0 12.5
    endloop
  endfacet
  facet normal -0.9569403356728139 -0.29028467745026154 0
    outer loop
      vertex -27.71638597548008 -11.480502970516682 0
      vertex -29.42355841398239 -5.852709658443928 12.5
      vertex -29.42355841398239 -5.852709658443928 0
    endloop
  endfacet
  facet normal -0.9569403356728139 -0.29028467745026154 0
    outer loop
      vertex -27.71638597548008 -11.480502970516682 0
      vertex -27.71638597548008 -11.480502970516682 12.5
      vertex -29.42355841398239 -5.852709658443928 12.5
    endloop
  endfacet
  facet normal -0.8819212645022978 -0.471396736537991 0
    outer loop
      vertex -24.944088369607925 -16.667106993496418 0
      vertex -27.71638597548008 -11.480502970516682 12.5
      vertex -27.71638597548008 -11.480502970516682 0
    endloop
  endfacet
  facet normal -0.8819212645022978 -0.471396736537991 0
    outer loop
      vertex -24.944088369607925 -16.667106993496418 0
      vertex -24.944088369607925 -16.667106993496418 12.5
      vertex -27.71638597548008 -11.480502970516682 12.5
    endloop
  endfacet
  facet normal -0.7730104534275668 -0.6343932840846501 0
    outer loop
      vertex -21.213203437626362 -21.213203437626362 0
      vertex -24.944088369607925 -16.667106993496418 12.5
      vertex -24.944088369607925 -16.667106993496418 0
    endloop
  endfacet
  facet normal -0.7730104534275668 -0.6343932840846501 0
    outer loop
      vertex -21.213203437626362 -21.213203437626362 0
      vertex -21.213203437626362 -21.213203437626362 12.5
      vertex -24.944088369607925 -16.667106993496418 12.5
    endloop
  endfacet
  facet normal -0.6343932840846501 -0.7730104534275668 0
    outer loop
      vertex -16.667106993496418 -24.944088369607925 0
      vertex -21.213203437626362 -21.213203437626362 12.5
      vertex -21.213203437626362 -21.213203437626362 0
    endloop
  endfacet
  facet normal -0.6343932840846501 -0.7730104534275668 0
    outer loop
      vertex -16.667106993496418 -24.944088369607925 0
      vertex -16.667106993496418 -24.944088369607925 12.5
      vertex -21.213203437626362 -21.213203437626362 12.5
    endloop
  endfacet
  facet normal -0.471396736537991 -0.8819212645022978 0
    outer loop
      vertex -11.480502970516682 -27.71638597548008 0
      vertex -16.667106993496418 -24.944088369607925 12.5
      vertex -16.667106993496418 -24.944088369607925 0
    endloop
  endfacet
  facet normal -0.471396736537991 -0.8819212645022978 0
    outer loop
      vertex -11.480502970516682 -27.71638597548008 0
      vertex -11.480502970516682 -27.71638597548008 12.5
      vertex -16.667106993496418 -24.944088369607925 12.5
    endloop
  endfacet
  facet normal -0.29028467745026154 -0.9569403356728139 0
    outer loop
      vertex -5.852709658443928 -29.42355841398239 0
      vertex -11.480502970516682 -27.71638597548008 12.5
      vertex -11.480502970516682 -27.71638597548008 0
    endloop
  endfacet
  facet normal -0.29028467745026154 -0.9569403356728139 0
    outer loop
      vertex -5.852709658443928 -29.42355841398239 0
      vertex -5.852709658443928 -29.42355841398239 12.5
      vertex -11.480502970516682 -27.71638597548008 12.5
    endloop
  endfacet
  facet normal -0.09801714004587228 -0.9951847267001377 0
    outer loop
      vertex 0 -30 0
      vertex -5.852709658443928 -29.42355841398239 12.5
      vertex -5.852709658443928 -29.42355841398239 0
    endloop
  endfacet
  facet normal -0.09801714004587228 -0.9951847267001377 0
    outer loop
      vertex 0 -30 0
      vertex 0 -30 12.5
      vertex -5.852709658443928 -29.42355841398239 12.5
    endloop
  endfacet
  facet normal 0.09801714004587228 -0.9951847267001377 0
    outer loop
      vertex 5.852709658443928 -29.42355841398239 0
      vertex 0 -30 12.5
      vertex 0 -30 0
    endloop
  endfacet
  facet normal 0.09801714004587228 -0.9951847267001377 0
    outer loop
      vertex 5.852709658443928 -29.42355841398239 0
      vertex 5.852709658443928 -29.42355841398239 12.5
      vertex 0 -30 12.5
    endloop
  endfacet
  facet normal 0.29028467745026154 -0.9569403356728139 0
    outer loop
      vertex 11.480502970516682 -27.71638597548008 0
      vertex 5.852709658443928 -29.42355841398239 12.5
      vertex 5.852709658443928 -29.42355841398239 0
    endloop
  endfacet
  facet normal 0.29028467745026154 -0.9569403356728139 0
    outer loop
      vertex 11.480502970516682 -27.71638597548008 0
      vertex 11.480502970516682 -27.71638597548008 12.5
      vertex 5.852709658443928 -29.42355841398239 12.5
    endloop
  endfacet
  facet normal 0.471396736537991 -0.8819212645022978 0
    outer loop
      vertex 16.667106993496418 -24.944088369607925 0
      vertex 11.480502970516682 -27.71638597548008 12.5
      vertex 11.480502970516682 -27.71638597548008 0
    endloop
  endfacet
  facet normal 0.471396736537991 -0.8819212645022978 0
    outer loop
      vertex 16.667106993496418 -24.944088369607925 0
      vertex 16.667106993496418 -24.944088369607925 12.5
      vertex 11.480502970516682 -27.71638597548008 12.5
    endloop
  endfacet
  facet normal 0.6343932840846501 -0.7730104534275668 0
    outer loop
      vertex 21.213203437626362 -21.213203437626362 0
      vertex 16.667106993496418 -24.944088369607925 12.5
      vertex 16.667106993496418 -24.944088369607925 0
    endloop
  endfacet
  facet normal 0.6343932840846501 -0.7730104534275668 0
    outer loop
      vertex 21.213203437626362 -21.213203437626362 0
      vertex 21.213203437626362 -21.213203437626362 12.5
      vertex 16.667106993496418 -24.944088369607925 12.5
    endloop
  endfacet
  facet normal 0.7730104534275668 -0.6343932840846501 0
    outer loop
      vertex 24.944088369607925 -16.667106993496418 0
      vertex 21.213203437626362 -21.213203437626362 12.5
      vertex 21.213203437626362 -21.213203437626362 0
    endloop
  endfacet
  facet normal 0.7730104534275668 -0.6343932840846501 0
    outer loop
      vertex 24.944088369607925 -16.667106993496418 0
      vertex 24.944088369607925 -16.667106993496418 12.5
      vertex 21.213203437626362 -21.213203437626362 12.5
    endloop
  endfacet
  facet normal 0.8819212645022978 -0.471396736537991 0
    outer loop
      vertex 27.71638597548008 -11.480502970516682 0
      vertex 24.944088369607925 -16.667106993496418 12.5
      vertex 24.944088369607925 -16.667106993496418 0
    endloop
  endfacet
  facet normal 0.8819212645022978 -0.471396736537991 0
    outer loop
      vertex 27.71638597548008 -11.480502970516682 0
      vertex 27.71638597548008 -11.480502970516682 12.5
      vertex 24.944088369607925 -16.667106993496418 12.5
    endloop
  endfacet
  facet normal 0.9569403356728139 -0.29028467745026154 0
    outer loop
      vertex 29.42355841398239 -5.852709658443928 0
      vertex 27.71638597548008 -11.480502970516682 12.5
      vertex 27.71638597548008 -11.480502970516682 0
    endloop
  endfacet
  facet normal 0.9569403356728139 -0.29028467745026154 0
    outer loop
      vertex 29.42355841398239 -5.852709658443928 0
      vertex 29.42355841398239 -5.852709658443928 12.5
      vertex 27.71638597548008 -11.480502970516682 12.5
    endloop
  endfacet
  facet normal 0.9951847267001377 -0.09801714004587228 0
    outer loop
      vertex 30 0 0
      vertex 29.42355841398239 -5.852709658443928 12.5
      vertex 29.42355841398239 -5.852709658443928 0
    endloop
  endfacet
  facet normal 0.9951847267001377 -0.09801714004587228 0
    outer loop
      vertex 30 0 0
      vertex 30 0 12.5
      vertex 29.42355841398239 -5.852709658443928 12.5
    endloop
  endfacet
  facet normal 0.9951847267001377 0.09801714004587228 0
    outer loop
      vertex 29.42355841398239 5.852709658443928 0
      vertex 30 0 12.5
      vertex 30 0 0
    endloop
  endfacet
  facet normal 0.9951847267001377 0.09801714004587228 0
    outer loop
      vertex 29.42355841398239 5.852709658443928 0
      vertex 29.42355841398239 5.852709658443928 12.5
      vertex 30 0 12.5
    endloop
  endfacet
  facet normal 0.9569403356728139 0.29028467745026154 0
    outer loop
      vertex 27.71638597548008 11.480502970516682 0
      vertex 29.42355841398239 5.852709658443928 12.5
      vertex 29.42355841398239 5.852709658443928 0
    endloop
  endfacet
  facet normal 0.9569403356728139 0.29028467745026154 0
    outer loop
      vertex 27.71638597548008 11.480502970516682 0
      vertex 27.71638597548008 11.480502970516682 12.5
      vertex 29.42355841398239 5.852709658443928 12.5
    endloop
  endfacet
  facet normal 0.8819212645022978 0.471396736537991 0
    outer loop
      vertex 24.944088369607925 16.667106993496418 0
      vertex 27.71638597548008 11.480502970516682 12.5
      vertex 27.71638597548008 11.480502970516682 0
    endloop
  endfacet
  facet normal 0.8819212645022978 0.471396736537991 0
    outer loop
      vertex 24.944088369607925 16.667106993496418 0
      vertex 24.944088369607925 16.667106993496418 12.5
      vertex 27.71638597548008 11.480502970516682 12.5
    endloop
  endfacet
  facet normal 0.7730104534275668 0.6343932840846501 0
    outer loop
      vertex 21.213203437626362 21.213203437626362 0
      vertex 24.944088369607925 16.667106993496418 12.5
      vertex 24.944088369607925 16.667106993496418 0
    endloop
  endfacet
  facet normal 0.7730104534275668 0.6343932840846501 0
    outer loop
      vertex 21.213203437626362 21.213203437626362 0
      vertex 21.213203437626362 21.213203437626362 12.5
      vertex 24.944088369607925 16.667106993496418 12.5
    endloop
  endfacet
  facet normal 0.6343932840846501 0.7730104534275668 0
    outer loop
      vertex 16.667106993496418 24.944088369607925 0
      vertex 21.213203437626362 21.213203437626362 12.5
      vertex 21.213203437626362 21.213203437626362 0
    endloop
  endfacet
  facet normal 0.6343932840846501 0.7730104534275668 0
    outer loop
      vertex 16.667106993496418 24.944088369607925 0
      vertex 16.667106993496418 24.944088369607925 12.5
      vertex 21.213203437626362 21.213203437626362 12.5
    endloop
  endfacet
  facet normal 0.471396736537991 0.8819212645022978 0
    outer loop
      vertex 11.480502970516682 27.71638597548008 0
      vertex 16.667106993496418 24.944088369607925 12.5
      vertex 16.667106993496418 24.944088369607925 0
    endloop
  endfacet
  facet normal 0.471396736537991 0.8819212645022978 0
    outer loop
      vertex 11.480502970516682 27.71638597548008 0
      vertex 11.480502970516682 27.71638597548008 12.5
      vertex 16.667106993496418 24.944088369607925 12.5
    endloop
  endfacet
  facet normal 0.29028467745026154 0.9569403356728139 0
    outer loop
      vertex 5.852709658443928 29.42355841398239 0
      vertex 11.480502970516682 27.71638597548008 12.5
      vertex 11.480502970516682 27.71638597548008 0
    endloop
  endfacet
  facet normal 0.29028467745026154 0.9569403356728139 0
    outer loop
      vertex 5.852709658443928 29.42355841398239 0
      vertex 5.852709658443928 29.42355841398239 12.5
      vertex 11.480502970516682 27.71638597548008 12.5
    endloop
  endfacet
  facet normal 0.09801714004587228 0.9951847267001377 0
    outer loop
      vertex 0 30 0
      vertex 5.852709658443928 29.42355841398239 12.5
      vertex 5.852709658443928 29.42355841398239 0
    endloop
  endfacet
  facet normal 0.09801714004587228 0.9951847267001377 0
    outer loop
      vertex 0 30 0
      vertex 0 30 12.5
      vertex 5.852709658443928 29.42355841398239 12.5
    endloop
  endfacet
  facet normal -0.09801714004587228 0.9951847267001377 0
    outer loop
      vertex -5.852709658443928 29.42355841398239 0
      vertex 0 30 12.5
      vertex 0 30 0
    endloop
  endfacet
  facet normal -0.09801714004587228 0.9951847267001377 0
    outer loop
      vertex -5.852709658443928 29.42355841398239 0
      vertex -5.852709658443928 29.42355841398239 12.5
      vertex 0 30 12.5
    endloop
  endfacet
  facet normal -0.29028467745026154 0.9569403356728139 0
    outer loop
      vertex -11.480502970516682 27.71638597548008 12.5
      vertex -5.852709658443928 29.42355841398239 25
      vertex -5.852709658443928 29.42355841398239 12.5
    endloop
  endfacet
  facet normal -0.29028467745026154 0.9569403356728139 0
    outer loop
      vertex -11.480502970516682 27.71638597548008 12.5
      vertex -11.480502970516682 27.71638597548008 25
      vertex -5.852709658443928 29.42355841398239 25
    endloop
  endfacet
  facet normal -0.471396736537991 0.8819212645022978 0
    outer loop
      vertex -16.667106993496418 24.944088369607925 12.5
      vertex -11.480502970516682 27.71638597548008 25
      vertex -11.480502970516682 27.71638597548008 12.5
    endloop
  endfacet
  facet normal -0.471396736537991 0.8819212645022978 0
    outer loop
      vertex -16.667106993496418 24.944088369607925 12.5
      vertex -16.667106993496418 24.944088369607925 25
      vertex -11.480502970516682 27.71638597548008 25
    endloop
  endfacet
  facet normal -0.6343932840846501 0.7730104534275668 0
    outer loop
      vertex -21.213203437626362 21.213203437626362 12.5
      vertex -16.667106993496418 24.944088369607925 25
      vertex -16.667106993496418 24.944088369607925 12.5
    endloop
  endfacet
  facet normal -0.6343932840846501 0.7730104534275668 0
    outer loop
      vertex -21.213203437626362 21.213203437626362 12.5
      vertex -21.213203437626362 21.213203437626362 25
      vertex -16.667106993496418 24.944088369607925 25
    endloop
  endfacet
  facet normal -0.7730104534275668 0.6343932840846501 0
    outer loop
      vertex -24.944088369607925 16.667106993496418 12.5
      vertex -21.213203437626362 21.213203437626362 25
      vertex -21.213203437626362 21.213203437626362 12.5
    endloop
  endfacet
  facet normal -0.7730104534275668 0.6343932840846501 0
    outer loop
      vertex -24.944088369607925 16.667106993496418 12.5
      vertex -24.944088369607925 16.667106993496418 25
      vertex -21.213203437626362 21.213203437626362 25
    endloop
  endfacet
  facet normal -0.8819212645022978 0.471396736537991 0
    outer loop
      vertex -27.71638597548008 11.480502970516682 12.5
      vertex -24.944088369607925 16.667106993496418 25
      vertex -24.944088369607925 16.667106993496418 12.5
    endloop
  endfacet
  facet normal -0.8819212645022978 0.471396736537991 0
    outer loop
      vertex -27.71638597548008 11.480502970516682 12.5
      vertex -27.71638597548008 11.480502970516682 25
      vertex -24.944088369607925 16.667106993496418 25
    endloop
  endfacet
  facet normal -0.9569403356728139 0.29028467745026154 0
    outer loop
      vertex -29.42355841398239 5.852709658443928 12.5
      vertex -27.71638597548008 11.480502970516682 25
      vertex -27.71638597548008 11.480502970516682 12.5
    endloop
  endfacet
  facet normal -0.9569403356728139 0.29028467745026154 0
    outer loop
      vertex -29.42355841398239 5.852709658443928 12.5
      vertex -29.42355841398239 5.852709658443928 25
      vertex -27.71638597548008 11.480502970516682 25
    endloop
  endfacet
  facet normal -0.9951847267001377 0.09801714004587228 0
    outer loop
      vertex -30 0 12.5
      vertex -29.42355841398239 5.852709658443928 25
      vertex -29.42355841398239 5.852709658443928 12.5
    endloop
  endfacet
  facet normal -0.9951847267001377 0.09801714004587228 0
    outer loop
      vertex -30 0 12.5
      vertex -30 0 25
      vertex -29.42355841398239 5.852709658443928 25
    endloop
  endfacet
  facet normal -0.9951847267001377 -0.09801714004587228 0
    outer loop
      vertex -29.42355841398239 -5.852709658443928 12.5
      vertex -30 0 25
      vertex -30 0 12.5
    endloop
  endfacet
  facet normal -0.9951847267001377 -0.09801714004587228 0
    outer loop
      vertex -29.42355841398239 -5.852709658443928 12.5
      vertex -29.42355841398239 -5.852709658443928 25
      vertex -30 0 25
    endloop
  endfacet
  facet normal -0.9569403356728139 -0.29028467745026154 0
    outer loop
      vertex -27.71638597548008 -11.480502970516682 12.5
      vertex -29.42355841398239 -5.852709658443928 25
      vertex -29.42355841398239 -5.852709658443928 12.5
    endloop
  endfacet
  facet normal -0.9569403356728139 -0.29028467745026154 0
    outer loop
      vertex -27.71638597548008 -11.480502970516682 12.5
      vertex -27.71638597548008 -11.480502970516682 25
      vertex -29.42355841398239 -5.852709658443928 25
    endloop
  endfacet
  facet normal -0.8819212645022978 -0.471396736537991 0
    outer loop
      vertex -24.944088369607925 -16.667106993496418 12.5
      vertex -27.71638597548008 -11.480502970516682 25
      vertex -27.71638597548008 -11.480502970516682 12.5
    endloop
  endfacet
  facet normal -0.8819212645022978 -0.471396736537991 0
    outer loop
      vertex -24.944088369607925 -16.667106993496418 12.5
      vertex -24.944088369607925 -16.667106993496418 25
      vertex -27.71638597548008 -11.480502970516682 25
    endloop
  endfacet
  facet normal -0.7730104534275668 -0.6343932840846501 0
    outer loop
      vertex -21.213203437626362 -21.213203437626362 12.5
      vertex -24.944088369607925 -16.667106993496418 25
      vertex -24.944088369607925 -16.667106993496418 12.5
    endloop
  endfacet
  facet normal -0.7730104534275668 -0.6343932840846501 0
    outer loop
      vertex -21.213203437626362 -21.213203437626362 12.5
      vertex -21.213203437626362 -21.213203437626362 25
      vertex -24.944088369607925 -16.667106993496418 25
    endloop
  endfacet
  facet normal -0.6343932840846501 -0.7730104534275668 0
    outer loop
      vertex -16.667106993496418 -24.944088369607925 12.5
      vertex -21.213203437626362 -21.213203437626362 25
      vertex -21.213203437626362 -21.213203437626362 12.5
    endloop
  endfacet
  facet normal -0.6343932840846501 -0.7730104534275668 0
    outer loop
      vertex -16.667106993496418 -24.944088369607925 12.5
      vertex -16.667106993496418 -24.944088369607925 25
      vertex -21.213203437626362 -21.213203437626362 25
    endloop
  endfacet
  facet normal -0.471396736537991 -0.8819212645022978 0
    outer loop
      vertex -11.480502970516682 -27.71638597548008 12.5
      vertex -16.667106993496418 -24.944088369607925 25
      vertex -16.667106993496418 -24.944088369607925 12.5
    endloop
  endfacet
  facet normal -0.471396736537991 -0.8819212645022978 0
    outer loop
      vertex -11.480502970516682 -27.71638597548008 12.5
      vertex -11.480502970516682 -27.71638597548008 25
      vertex -16.667106993496418 -24.944088369607925 25
    endloop
  endfacet
  facet normal -0.29028467745026154 -0.9569403356728139 0
    outer loop
      vertex -5.852709658443928 -29.42355841398239 12.5
      vertex -11.480502970516682 -27.71638597548008 25
      vertex -11.480502970516682 -27.71638597548008 12.5
    endloop
  endfacet
  facet normal -0.29028467745026154 -0.9569403356728139 0
    outer loop
      vertex -5.852709658443928 -29.42355841398239 12.5
      vertex -5.852709658443928 -29.42355841398239 25
      vertex -11.480502970516682 -27.71638597548008 25
    endloop
  endfacet
  facet normal -0.09801714004587228 -0.9951847267001377 0
    outer loop
      vertex 0 -30 12.5
      vertex -5.852709658443928 -29.42355841398239 25
      vertex -5.852709658443928 -29.42355841398239 12.5
    endloop
  endfacet
  facet normal -0.09801714004587228 -0.9951847267001377 0
    outer loop
      vertex 0 -30 12.5
      vertex 0 -30 25
      vertex -5.852709658443928 -29.42355841398239 25
    endloop
  endfacet
  facet normal 0.09801714004587228 -0.9951847267001377 0
    outer loop
      vertex 5.852709658443928 -29.42355841398239 12.5
      vertex 0 -30 25
      vertex 0 -30 12.5
    endloop
  endfacet
  facet normal 0.09801714004587228 -0.9951847267001377 0
    outer loop
      vertex 5.852709658443928 -29.42355841398239 12.5
      vertex 5.852709658443928 -29.42355841398239 25
      vertex 0 -30 25
    endloop
  endfacet
  facet normal 0.29028467745026154 -0.9569403356728139 0
    outer loop
      vertex 11.480502970516682 -27.71638597548008 12.5
      vertex 5.852709658443928 -29.42355841398239 25
      vertex 5.852709658443928 -29.42355841398239 12.5
    endloop
  endfacet
  facet normal 0.29028467745026154 -0.9569403356728139 0
    outer loop
      vertex 11.480502970516682 -27.71638597548008 12.5
      vertex 11.480502970516682 -27.71638597548008 25
      vertex 5.852709658443928 -29.42355841398239 25
    endloop
  endfacet
  facet normal 0.471396736537991 -0.8819212645022978 0
    outer loop
      vertex 16.667106993496418 -24.944088369607925 12.5
      vertex 11.480502970516682 -27.71638597548008 25
      vertex 11.480502970516682 -27.71638597548008 12.5
    endloop
  endfacet
  facet normal 0.471396736537991 -0.8819212645022978 0
    outer loop
      vertex 16.667106993496418 -24.944088369607925 12.5
      vertex 16.667106993496418 -24.944088369607925 25
      vertex 11.480502970516682 -27.71638597548008 25
    endloop
  endfacet
  facet normal 0.6343932840846501 -0.7730104534275668 0
    outer loop
      vertex 21.213203437626362 -21.213203437626362 12.5
      vertex 16.667106993496418 -24.944088369607925 25
      vertex 16.667106993496418 -24.944088369607925 12.5
    endloop
  endfacet
  facet normal 0.6343932840846501 -0.7730104534275668 0
    outer loop
      vertex 21.213203437626362 -21.213203437626362 12.5
      vertex 21.213203437626362 -21.213203437626362 25
      vertex 16.667106993496418 -24.944088369607925 25
    endloop
  endfacet
  facet normal 0.7730104534275668 -0.6343932840846501 0
    outer loop
      vertex 24.944088369607925 -16.667106993496418 12.5
      vertex 21.213203437626362 -21.213203437626362 25
      vertex 21.213203437626362 -21.213203437626362 12.5
    endloop
  endfacet
  facet normal 0.7730104534275668 -0.6343932840846501 0
    outer loop
      vertex 24.944088369607925 -16.667106993496418 12.5
      vertex 24.944088369607925 -16.667106993496418 25
      vertex 21.213203437626362 -21.213203437626362 25
    endloop
  endfacet
  facet normal 0.8819212645022978 -0.471396736537991 0
    outer loop
      vertex 27.71638597548008 -11.480502970516682 12.5
      vertex 24.944088369607925 -16.667106993496418 25
      vertex 24.944088369607925 -16.667106993496418 12.5
    endloop
  endfacet
  facet normal 0.8819212645022978 -0.471396736537991 0
    outer loop
      vertex 27.71638597548008 -11.480502970516682 12.5
      vertex 27.71638597548008 -11.480502970516682 25
      vertex 24.944088369607925 -16.667106993496418 25
    endloop
  endfacet
  facet normal 0.9569403356728139 -0.29028467745026154 0
    outer loop
      vertex 29.42355841398239 -5.852709658443928 12.5
      vertex 27.71638597548008 -11.480502970516682 25
      vertex 27.71638597548008 -11.480502970516682 12.5
    endloop
  endfacet
  facet normal 0.9569403356728139 -0.29028467745026154 0
    outer loop
      vertex 29.42355841398239 -5.852709658443928 12.5
      vertex 29.42355841398239 -5.852709658443928 25
      vertex 27.71638597548008 -11.480502970516682 25
    endloop
  endfacet
  facet normal 0.9951847267001377 -0.09801714004587228 0
    outer loop
      vertex 30 0 12.5
      vertex 29.42355841398239 -5.852709658443928 25
      vertex 29.42355841398239 -5.852709658443928 12.5
    endloop
  endfacet
  facet normal 0.9951847267001377 -0.09801714004587228 0
    outer loop
      vertex 30 0 12.5
      vertex 30 0 25
      vertex 29.42355841398239 -5.852709658443928 25
    endloop
  endfacet
  facet normal 0.9951847267001377 0.09801714004587228 0
    outer loop
      vertex 29.42355841398239 5.852709658443928 12.5
      vertex 30 0 25
      vertex 30 0 12.5
    endloop
  endfacet
  facet normal 0.9951847267001377 0.09801714004587228 0
    outer loop
      vertex 29.42355841398239 5.852709658443928 12.5
      vertex 29.42355841398239 5.852709658443928 25
      vertex 30 0 25
    endloop
  endfacet
  facet normal 0.9569403356728139 0.29028467745026154 0
    outer loop
      vertex 27.71638597548008 11.480502970516682 12.5
      vertex 29.42355841398239 5.852709658443928 25
      vertex 29.42355841398239 5.852709658443928 12.5
    endloop
  endfacet
  facet normal 0.9569403356728139 0.29028467745026154 0
    outer loop
      vertex 27.71638597548008 11.480502970516682 12.5
      vertex 27.71638597548008 11.480502970516682 25
      vertex 29.42355841398239 5.852709658443928 25
    endloop
  endfacet
  facet normal 0.8819212645022978 0.471396736537991 0
    outer loop
      vertex 24.944088369607925 16.667106993496418 12.5
      vertex 27.71638597548008 11.480502970516682 25
      vertex 27.71638597548008 11.480502970516682 12.5
    endloop
  endfacet
  facet normal 0.8819212645022978 0.471396736537991 0
    outer loop
      vertex 24.944088369607925 16.667106993496418 12.5
      vertex 24.944088369607925 16.667106993496418 25
      vertex 27.71638597548008 11.480502970516682 25
    endloop
  endfacet
  facet normal 0.7730104534275668 0.6343932840846501 0
    outer loop
      vertex 21.213203437626362 21.213203437626362 12.5
      vertex 24.944088369607925 16.667106993496418 25
      vertex 24.944088369607925 16.667106993496418 12.5
    endloop
  endfacet
  facet normal 0.7730104534275668 0.6343932840846501 0
    outer loop
      vertex 21.213203437626362 21.213203437626362 12.5
      vertex 21.213203437626362 21.213203437626362 25
      vertex 24.944088369607925 16.667106993496418 25
    endloop
  endfacet
  facet normal 0.6343932840846501 0.7730104534275668 0
    outer loop
      vertex 16.667106993496418 24.944088369607925 12.5
      vertex 21.213203437626362 21.213203437626362 25
      vertex 21.213203437626362 21.213203437626362 12.5
    endloop
  endfacet
  facet normal 0.6343932840846501 0.7730104534275668 0
    outer loop
      vertex 16.667106993496418 24.944088369607925 12.5
      vertex 16.667106993496418 24.944088369607925 25
      vertex 21.213203437626362 21.213203437626362 25
    endloop
  endfacet
  facet normal 0.471396736537991 0.8819212645022978 0
    outer loop
      vertex 11.480502970516682 27.71638597548008 12.5
      vertex 16.667106993496418 24.944088369607925 25
      vertex 16.667106993496418 24.944088369607925 12.5
    endloop
  endfacet
  facet normal 0.471396736537991 0.8819212645022978 0
    outer loop
      vertex 11.480502970516682 27.71638597548008 12.5
      vertex 11.480502970516682 27.71638597548008 25
      vertex 16.667106993496418 24.944088369607925 25
    endloop
  endfacet
  facet normal 0.29028467745026154 0.9569403356728139 0
    outer loop
      vertex 5.852709658443928 29.42355841398239 12.5
      vertex 11.480502970516682 27.71638597548008 25
      vertex 11.480502970516682 27.71638597548008 12.5
    endloop
  endfacet
  facet normal 0.29028467745026154 0.9569403356728139 0
    outer loop
      vertex 5.852709658443928 29.42355841398239 12.5
      vertex 5.852709658443928 29.42355841398239 25
      vertex 11.480502970516682 27.71638597548008 25
    endloop
  endfacet
  facet normal 0.09801714004587228 0.9951847267001377 0
    outer loop
      vertex 0 30 12.5
      vertex 5.852709658443928 29.42355841398239 25
      vertex 5.852709658443928 29.42355841398239 12.5
    endloop
  endfacet
  facet normal 0.09801714004587228 0.9951847267001377 0
    outer loop
      vertex 0 30 12.5
      vertex 0 30 25
      vertex 5.852709658443928 29.42355841398239 25
    endloop
  endfacet
  facet normal -0.09801714004587228 0.9951847267001377 0
    outer loop
      vertex -5.852709658443928 29.42355841398239 12.5
      vertex 0 30 25
      vertex 0 30 12.5
    endloop
  endfacet
  facet normal -0.09801714004587228 0.9951847267001377 0
    outer loop
      vertex -5.852709658443928 29.42355841398239 12.5
      vertex -5.852709658443928 29.42355841398239 25
      vertex 0 30 25
    endloop
  endfacet
  facet normal -0.29028467745026154 0.9569403356728139 0
    outer loop
      vertex -11.480502970516682 27.71638597548008 25
      vertex -5.852709658443928 29.42355841398239 37.5
      vertex -5.852709658443928 29.42355841398239 25
    endloop
  endfacet
  facet normal -0.29028467745026154 0.9569403356728139 0
    outer loop
      vertex -11.480502970516682 27.71638597548008 25
      vertex -11.480502970516682 27.71638597548008 37.5
      vertex -5.852709658443928 29.42355841398239 37.5
    endloop
  endfacet
  facet normal -0.471396736537991 0.8819212645022978 0
    outer loop
      vertex -16.667106993496418 24.944088369607925 25
      vertex -11.480502970516682 27.71638597548008 37.5
      vertex -11.480502970516682 27.71638597548008 25
    endloop
  endfacet
  facet normal -0.471396736537991 0.8819212645022978 0
    outer loop
      vertex -16.667106993496418 24.944088369607925 25
      vertex -16.667106993496418 24.944088369607925 37.5
      vertex -11.480502970516682 27.71638597548008 37.5
    endloop
  endfacet
  facet normal -0.6343932840846501 0.7730104534275668 0
    outer loop
      vertex -21.213203437626362 21.213203437626362 25
      vertex -16.667106993496418 24.944088369607925 37.5
      vertex -16.667106993496418 24.944088369607925 25
    endloop
  endfacet
  facet normal -0.6343932840846501 0.7730104534275668 0
    outer loop
      vertex -21.213203437626362 21.213203437626362 25
      vertex -21.213203437626362 21.213203437626362 37.5
      vertex -16.667106993496418 24.944088369607925 37.5
    endloop
  endfacet
  facet normal -0.7730104534275668 0.6343932840846501 0
    outer loop
      vertex -24.944088369607925 16.667106993496418 25
      vertex -21.213203437626362 21.213203437626362 37.5
      vertex -21.213203437626362 21.213203437626362 25
    endloop
  endfacet
  facet normal -0.7730104534275668 0.6343932840846501 0
    outer loop
      vertex -24.944088369607925 16.667106993496418 25
      vertex -24.944088369607925 16.667106993496418 37.5
      vertex -21.213203437626362 21.213203437626362 37.5
    endloop
  endfacet
  facet normal -0.8819212645022978 0.471396736537991 0
    outer loop
      vertex -27.71638597548008 11.480502970516682 25
      vertex -24.944088369607925 16.667106993496418 37.5
      vertex -24.944088369607925 16.667106993496418 25
    endloop
  endfacet
  facet normal -0.8819212645022978 0.471396736537991 0
    outer loop
      vertex -27.71638597548008 11.480502970516682 25
      vertex -27.71638597548008 11.480502970516682 37.5
      vertex -24.944088369607925 16.667106993496418 37.5
    endloop
  endfacet
  facet normal -0.9569403356728139 0.29028467745026154 0
    outer loop
      vertex -29.42355841398239 5.852709658443928 25
      vertex -27.71638597548008 11.480502970516682 37.5
      vertex -27.71638597548008 11.480502970516682 25
    endloop
  endfacet
  facet normal -0.9569403356728139 0.29028467745026154 0
    outer loop
      vertex -29.42355841398239 5.852709658443928 25
      vertex -29.42355841398239 5.852709658443928 37.5
      vertex -27.71638597548008 11.480502970516682 37.5
    endloop
  endfacet
  facet normal -0.9951847267001377 0.09801714004587228 0
    outer loop
      vertex -30 0 25
      vertex -29.42355841398239 5.852709658443928 37.5
      vertex -29.42355841398239 5.852709658443928 25
    endloop
  endfacet
  facet normal -0.9951847267001377 0.09801714004587228 0
    outer loop
      vertex -30 0 25
      vertex -30 0 37.5
      vertex -29.42355841398239 5.852709658443928 37.5
    endloop
  endfacet
  facet normal -0.9951847267001377 -0.09801714004587228 0
    outer loop
      vertex -29.42355841398239 -5.852709658443928 25
      vertex -30 0 37.5
      vertex -30 0 25
    endloop
  endfacet
  facet normal -0.9951847267001377 -0.09801714004587228 0
    outer loop
      vertex -29.42355841398239 -5.852709658443928 25
      vertex -29.42355841398239 -5.852709658443928 37.5
      vertex -30 0 37.5
    endloop
  endfacet
  facet normal -0.9569403356728139 -0.29028467745026154 0
    outer loop
      vertex -27.71638597548008 -11.480502970516682 25
      vertex -29.42355841398239 -5.852709658443928 37.5
      vertex -29.42355841398239 -5.852709658443928 25
    endloop
  endfacet
  facet normal -0.9569403356728139 -0.29028467745026154 0
    outer loop
      vertex -27.71638597548008 -11.480502970516682 25
      vertex -27.71638597548008 -11.480502970516682 37.5
      vertex -29.42355841398239 -5.852709658443928 37.5
    endloop
  endfacet
  facet normal -0.8819212645022978 -0.471396736537991 0
    outer loop
      vertex -24.944088369607925 -16.667106993496418 25
      vertex -27.71638597548008 -11.480502970516682 37.5
      vertex -27.71638597548008 -11.480502970516682 25
    endloop
  endfacet
  facet normal -0.8819212645022978 -0.471396736537991 0
    outer loop
      vertex -24.944088369607925 -16.667106993496418 25
      vertex -24.944088369607925 -16.667106993496418 37.5
      vertex -27.71638597548008 -11.480502970516682 37.5
    endloop
  endfacet
  facet normal -0.7730104534275668 -0.6343932840846501 0
    outer loop
      vertex -21.213203437626362 -21.213203437626362 25
      vertex -24.944088369607925 -16.667106993496418 37.5
      vertex -24.944088369607925 -16.667106993496418 25
    endloop
  endfacet
  facet normal -0.7730104534275668 -0.6343932840846501 0
    outer loop
      vertex -21.213203437626362 -21.213203437626362 25
      vertex -21.213203437626362 -21.213203437626362 37.5
      vertex -24.944088369607925 -16.667106993496418 37.5
    endloop
  endfacet
  facet normal -0.6343932840846501 -0.7730104534275668 0
    outer loop
      vertex -16.667106993496418 -24.944088369607925 25
      vertex -21.213203437626362 -21.213203437626362 37.5
      vertex -21.213203437626362 -21.213203437626362 25
    endloop
  endfacet
  facet normal -0.6343932840846501 -0.7730104534275668 0
    outer loop
      vertex -16.667106993496418 -24.944088369607925 25
      vertex -16.667106993496418 -24.944088369607925 37.5
      vertex -21.213203437626362 -21.213203437626362 37.5
    endloop
  endfacet
  facet normal -0.471396736537991 -0.8819212645022978 0
    outer loop
      vertex -11.480502970516682 -27.71638597548008 25
      vertex -16.667106993496418 -24.944088369607925 37.5
      vertex -16.667106993496418 -24.944088369607925 25
    endloop
  endfacet
  facet normal -0.471396736537991 -0.8819212645022978 0
    outer loop
      vertex -11.480502970516682 -27.71638597548008 25
      vertex -11.480502970516682 -27.71638597548008 37.5
      vertex -16.667106993496418 -24.944088369607925 37.5
    endloop
  endfacet
  facet normal -0.29028467745026154 -0.9569403356728139 0
    outer loop
      vertex -5.852709658443928 -29.42355841398239 25
      vertex -11.480502970516682 -27.71638597548008 37.5
      vertex -11.480502970516682 -27.71638597548008 25
    endloop
  endfacet
  facet normal -0.29028467745026154 -0.9569403356728139 0
    outer loop
      vertex -5.852709658443928 -29.42355841398239 25
      vertex -5.852709658443928 -29.42355841398239 37.5
      vertex -11.480502970516682 -27.71638597548008 37.5
    endloop
  endfacet
  facet normal -0.09801714004587228 -0.9951847267001377 0
    outer loop
      vertex 0 -30 25
      vertex -5.852709658443928 -29.42355841398239 37.5
      vertex -5.852709658443928 -29.42355841398239 25
    endloop
  endfacet
  facet normal -0.09801714004587228 -0.9951847267001377 0
    outer loop
      vertex 0 -30 25
      vertex 0 -30 37.5
      vertex -5.852709658443928 -29.42355841398239 37.5
    endloop
  endfacet
  facet normal 0.09801714004587228 -0.9951847267001377 0
    outer loop
      vertex 5.852709658443928 -29.42355841398239 25
      vertex 0 -30 37.5
      vertex 0 -30 25
    endloop
  endfacet
  facet normal 0.09801714004587228 -0.9951847267001377 0
    outer loop
      vertex 5.852709658443928 -29.42355841398239 25
      vertex 5.852709658443928 -29.42355841398239 37.5
      vertex 0 -30 37.5
    endloop
  endfacet
  facet normal 0.29028467745026154 -0.9569403356728139 0
    outer loop
      vertex 11.480502970516682 -27.71638597548008 25
      vertex 5.852709658443928 -29.42355841398239 37.5
      vertex 5.852709658443928 -29.42355841398239 25
    endloop
  endfacet
  facet normal 0.29028467745026154 -0.9569403356728139 0
    outer loop
      vertex 11.480502970516682 -27.71638597548008 25
      vertex 11.480502970516682 -27.71638597548008 37.5
      vertex 5.852709658443928 -29.42355841398239 37.5
    endloop
  endfacet
  facet normal 0.471396736537991 -0.8819212645022978 0
    outer loop
      vertex 16.667106993496418 -24.944088369607925 25
      vertex 11.480502970516682 -27.71638597548008 37.5
      vertex 11.480502970516682 -27.71638597548008 25
    endloop
  endfacet
  facet normal 0.471396736537991 -0.8819212645022978 0
    outer loop
      vertex 16.667106993496418 -24.944088369607925 25
      vertex 16.667106993496418 -24.944088369607925 37.5
      vertex 11.480502970516682 -27.71638597548008 37.5
    endloop
  endfacet
  facet normal 0.6343932840846501 -0.7730104534275668 0
    outer loop
      vertex 21.213203437626362 -21.213203437626362 25
      vertex 16.667106993496418 -24.944088369607925 37.5
      vertex 16.667106993496418 -24.944088369607925 25
    endloop
  endfacet
  facet normal 0.6343932840846501 -0.7730104534275668 0
    outer loop
      vertex 21.213203437626362 -21.213203437626362 25
      vertex 21.213203437626362 -21.213203437626362 37.5
      vertex 16.667106993496418 -24.944088369607925 37.5
    endloop
  endfacet
  facet normal 0.7730104534275668 -0.6343932840846501 0
    outer loop
      vertex 24.944088369607925 -16.667106993496418 25
      vertex 21.213203437626362 -21.213203437626362 37.5
      vertex 21.213203437626362 -21.213203437626362 25
    endloop
  endfacet
  facet normal 0.7730104534275668 -0.6343932840846501 0
    outer loop
      vertex 24.944088369607925 -16.667106993496418 25
      vertex 24.944088369607925 -16.667106993496418 37.5
      vertex 21.213203437626362 -21.213203437626362 37.5
    endloop
  endfacet
  facet normal 0.8819212645022978 -0.471396736537991 0
    outer loop
      vertex 27.71638597548008 -11.480502970516682 25
      vertex 24.944088369607925 -16.667106993496418 37.5
      vertex 24.944088369607925 -16.667106993496418 25
    endloop
  endfacet
  facet normal 0.8819212645022978 -0.471396736537991 0
    outer loop
      vertex 27.71638597548008 -11.480502970516682 25
      vertex 27.71638597548008 -11.480502970516682 37.5
      vertex 24.944088369607925 -16.667106993496418 37.5
    endloop
  endfacet
  facet normal 0.9569403356728139 -0.29028467745026154 0
    outer loop
      vertex 29.42355841398239 -5.852709658443928 25
      vertex 27.71638597548008 -11.480502970516682 37.5
      vertex 27.71638597548008 -11.480502970516682 25
    endloop
  endfacet
  facet normal 0.9569403356728139 -0.29028467745026154 0
    outer loop
      vertex 29.42355841398239 -5.852709658443928 25
      vertex 29.42355841398239 -5.852709658443928 37.5
      vertex 27.71638597548008 -11.480502970516682 37.5
    endloop
  endfacet
  facet normal 0.9951847267001377 -0.09801714004587228 0
    outer loop
      vertex 30 0 25
      vertex 29.42355841398239 -5.852709658443928 37.5
      vertex 29.42355841398239 -5.852709658443928 25
    endloop
  endfacet
  facet normal 0.9951847267001377 -0.09801714004587228 0
    outer loop
      vertex 30 0 25
      vertex 30 0 37.5
      vertex 29.42355841398239 -5.852709658443928 37.5
    endloop
  endfacet
  facet normal 0.9951847267001377 0.09801714004587228 0
    outer loop
      vertex 29.42355841398239 5.852709658443928 25
      vertex 30 0 37.5
      vertex 30 0 25
    endloop
  endfacet
  facet normal 0.9951847267001377 0.09801714004587228 0
    outer loop
      vertex 29.42355841398239 5.852709658443928 25
      vertex 29.42355841398239 5.852709658443928 37.5
      vertex 30 0 37.5
    endloop
  endfacet
  facet normal 0.9569403356728139 0.29028467745026154 0
    outer loop
      vertex 27.71638597548008 11.480502970516682 25
      vertex 29.42355841398239 5.852709658443928 37.5
      vertex 29.42355841398239 5.852709658443928 25
    endloop
  endfacet
  facet normal 0.9569403356728139 0.29028467745026154 0
    outer loop
      vertex 27.71638597548008 11.480502970516682 25
      vertex 27.71638597548008 11.480502970516682 37.5
      vertex 29.42355841398239 5.852709658443928 37.5
    endloop
  endfacet
  facet normal 0.8819212645022978 0.471396736537991 0
    outer loop
      vertex 24.944088369607925 16.667106993496418 25
      vertex 27.71638597548008 11.480502970516682 37.5
      vertex 27.71638597548008 11.480502970516682 25
    endloop
  endfacet
  facet normal 0.8819212645022978 0.471396736537991 0
    outer loop
      vertex 24.944088369607925 16.667106993496418 25
      vertex 24.944088369607925 16.667106993496418 37.5
      vertex 27.71638597548008 11.480502970516682 37.5
    endloop
  endfacet
  facet normal 0.7730104534275668 0.6343932840846501 0
    outer loop
      vertex 21.213203437626362 21.213203437626362 25
      vertex 24.944088369607925 16.667106993496418 37.5
      vertex 24.944088369607925 16.667106993496418 25
    endloop
  endfacet
  facet normal 0.7730104534275668 0.6343932840846501 0
    outer loop
      vertex 21.213203437626362 21.213203437626362 25
      vertex 21.213203437626362 21.213203437626362 37.5
      vertex 24.944088369607925 16.667106993496418 37.5
    endloop
  endfacet
  facet normal 0.6343932840846501 0.7730104534275668 0
    outer loop
      vertex 16.667106993496418 24.944088369607925 25
      vertex 21.213203437626362 21.213203437626362 37.5
      vertex 21.213203437626362 21.213203437626362 25
    endloop
  endfacet
  facet normal 0.6343932840846501 0.7730104534275668 0
    outer loop
      vertex 16.667106993496418 24.944088369607925 25
      vertex 16.667106993496418 24.944088369607925 37.5
      vertex 21.213203437626362 21.213203437626362 37.5
    endloop
  endfacet
  facet normal 0.471396736537991 0.8819212645022978 0
    outer loop
      vertex 11.480502970516682 27.71638597548008 25
      vertex 16.667106993496418 24.944088369607925 37.5
      vertex 16.667106993496418 24.944088369607925 25
    endloop
  endfacet
  facet normal 0.471396736537991 0.8819212645022978 0
    outer loop
      vertex 11.480502970516682 27.71638597548008 25
      vertex 11.480502970516682 27.71638597548008 37.5
      vertex 16.667106993496418 24.944088369607925 37.5
    endloop
  endfacet
  facet normal 0.29028467745026154 0.9569403356728139 0
    outer loop
      vertex 5.852709658443928 29.42355841398239 25
      vertex 11.480502970516682 27.71638597548008 37.5
      vertex 11.480502970516682 27.71638597548008 25
    endloop
  endfacet
  facet normal 0.29028467745026154 0.9569403356728139 0
    outer loop
      vertex 5.852709658443928 29.42355841398239 25
      vertex 5.852709658443928 29.42355841398239 37.5
      vertex 11.480502970516682 27.71638597548008 37.5
    endloop
  endfacet
  facet normal 0.09801714004587228 0.9951847267001377 0
    outer loop
      vertex 0 30 25
      vertex 5.852709658443928 29.42355841398239 37.5
      vertex 5.852709658443928 29.42355841398239 25
    endloop
  endfacet
  facet normal 0.09801714004587228 0.9951847267001377 0
    outer loop
      vertex 0 30 25
      vertex 0 30 37.5
      vertex 5.852709658443928 29.42355841398239 37.5
    endloop
  endfacet
  facet normal -0.09801714004587228 0.9951847267001377 0
    outer loop
      vertex -5.852709658443928 29.42355841398239 25
      vertex 0 30 37.5
      vertex 0 30 25
    endloop
  endfacet
  facet normal -0.09801714004587228 0.9951847267001377 0
    outer loop
      vertex -5.852709658443928 29.42355841398239 25
      vertex -5.852709658443928 29.42355841398239 37.5
      vertex 0 30 37.5
    endloop
  endfacet
  facet normal -0.29028467745026154 0.9569403356728139 0
    outer loop
      vertex -11.480502970516682 27.71638597548008 37.5
      vertex -5.852709658443928 29.42355841398239 50
      vertex -5.852709658443928 29.42355841398239 37.5
    endloop
  endfacet
  facet normal -0.29028467745026154 0.9569403356728139 0
    outer loop
      vertex -11.480502970516682 27.71638597548008 37.5
      vertex -11.480502970516682 27.71638597548008 50
      vertex -5.852709658443928 29.42355841398239 50
    endloop
  endfacet
  facet normal -0.471396736537991 0.8819212645022978 0
    outer loop
      vertex -16.667106993496418 24.944088369607925 37.5
      vertex -11.480502970516682 27.71638597548008 50
      vertex -11.480502970516682 27.71638597548008 37.5
    endloop
  endfacet
  facet normal -0.471396736537991 0.8819212645022978 0
    outer loop
      vertex -16.667106993496418 24.944088369607925 37.5
      vertex -16.667106993496418 24.944088369607925 50
      vertex -11.480502970516682 27.71638597548008 50
    endloop
  endfacet
  facet normal -0.6343932840846501 0.7730104534275668 0
    outer loop
      vertex -21.213203437626362 21.213203437626362 37.5
      vertex -16.667106993496418 24.944088369607925 50
      vertex -16.667106993496418 24.944088369607925 37.5
    endloop
  endfacet
  facet normal -0.6343932840846501 0.7730104534275668 0
    outer loop
      vertex -21.213203437626362 21.213203437626362 37.5
      vertex -21.213203437626362 21.213203437626362 50
      vertex -16.667106993496418 24.944088369607925 50
    endloop
  endfacet
  facet normal -0.7730104534275668 0.6343932840846501 0
    outer loop
      vertex -24.944088369607925 16.667106993496418 37.5
      vertex -21.213203437626362 21.213203437626362 50
      vertex -21.213203437626362 21.213203437626362 37.5
    endloop
  endfacet
  facet normal -0.7730104534275668 0.6343932840846501 0
    outer loop
      vertex -24.944088369607925 16.667106993496418 37.5
      vertex -24.944088369607925 16.667106993496418 50
      vertex -21.213203437626362 21.213203437626362 50
    endloop
  endfacet
  facet normal -0.8819212645022978 0.471396736537991 0
    outer loop
      vertex -27.71638597548008 11.480502970516682 37.5
      vertex -24.944088369607925 16.667106993496418 50
      vertex -24.944088369607925 16.667106993496418 37.5
    endloop
  endfacet
  facet normal -0.8819212645022978 0.471396736537991 0
    outer loop
      vertex -27.71638597548008 11.480502970516682 37.5
      vertex -27.71638597548008 11.480502970516682 50
      vertex -24.944088369607925 16.667106993496418 50
    endloop
  endfacet
  facet normal -0.9569403356728139 0.29028467745026154 0
    outer loop
      vertex -29.42355841398239 5.852709658443928 37.5
      vertex -27.71638597548008 11.480502970516682 50
      vertex -27.71638597548008 11.480502970516682 37.5
    endloop
  endfacet
  facet normal -0.9569403356728139 0.29028467745026154 0
    outer loop
      vertex -29.42355841398239 5.852709658443928 37.5
      vertex -29.42355841398239 5.852709658443928 50
      vertex -27.71638597548008 11.480502970516682 50
    endloop
  endfacet
  facet normal -0.9951847267001377 0.09801714004587228 0
    outer loop
      vertex -30 0 37.5
      vertex -29.42355841398239 5.852709658443928 50
      vertex -29.42355841398239 5.852709658443928 37.5
    endloop
  endfacet
  facet normal -0.9951847267001377 0.09801714004587228 0
    outer loop
      vertex -30 0 37.5
      vertex -30 0 50
      vertex -29.42355841398239 5.852709658443928 50
    endloop
  endfacet
  facet normal -0.9951847267001377 -0.09801714004587228 0
    outer loop
      vertex -29.42355841398239 -5.852709658443928 37.5
      vertex -30 0 50
      vertex -30 0 37.5
    endloop
  endfacet
  facet normal -0.9951847267001377 -0.09801714004587228 0
    outer loop
      vertex -29.42355841398239 -5.852709658443928 37.5
      vertex -29.42355841398239 -5.852709658443928 50
      vertex -30 0 50
    endloop
  endfacet
  facet normal -0.9569403356728139 -0.29028467745026154 0
    outer loop
      vertex -27.71638597548008 -11.480502970516682 37.5
      vertex -29.42355841398239 -5.852709658443928 50
      vertex -29.42355841398239 -5.852709658443928 37.5
    endloop
  endfacet
  facet normal -0.9569403356728139 -0.29028467745026154 0
    outer loop
      vertex -27.71638597548008 -11.480502970516682 37.5
      vertex -27.71638597548008 -11.480502970516682 50
      vertex -29.42355841398239 -5.852709658443928 50
    endloop
  endfacet
  facet normal -0.8819212645022978 -0.471396736537991 0
    outer loop
      vertex -24.944088369607925 -16.667106993496418 37.5
      vertex -27.71638597548008 -11.480502970516682 50
      vertex -27.71638597548008 -11.480502970516682 37.5
    endloop
  endfacet
  facet normal -0.8819212645022978 -0.471396736537991 0
    outer loop
      vertex -24.944088369607925 -16.667106993496418 37.5
      vertex -24.944088369607925 -16.667106993496418 50
      vertex -27.71638597548008 -11.480502970516682 50
    endloop
  endfacet
  facet normal -0.7730104534275668 -0.6343932840846501 0
    outer loop
      vertex -21.213203437626362 -21.213203437626362 37.5
      vertex -24.944088369607925 -16.667106993496418 50
      vertex -24.944088369607925 -16.667106993496418 37.5
    endloop
  endfacet
  facet normal -0.7730104534275668 -0.6343932840846501 0
    outer loop
      vertex -21.213203437626362 -21.213203437626362 37.5
      vertex -21.213203437626362 -21.213203437626362 50
      vertex -24.944088369607925 -16.667106993496418 50
    endloop
  endfacet
  facet normal -0.6343932840846501 -0.7730104534275668 0
    outer loop
      vertex -16.667106993496418 -24.944088369607925 37.5
      vertex -21.213203437626362 -21.213203437626362 50
      vertex -21.213203437626362 -21.213203437626362 37.5
    endloop
  endfacet
  facet normal -0.6343932840846501 -0.7730104534275668 0
    outer loop
      vertex -16.667106993496418 -24.944088369607925 37.5
      vertex -16.667106993496418 -24.944088369607925 50
      vertex -21.213203437626362 -21.213203437626362 50
    endloop
  endfacet
  facet normal -0.471396736537991 -0.8819212645022978 0
    outer loop
      vertex -11.480502970516682 -27.71638597548008 37.5
      vertex -16.667106993496418 -24.944088369607925 50
      vertex -16.667106993496418 -24.944088369607925 37.5
    endloop
  endfacet
  facet normal -0.471396736537991 -0.8819212645022978 0
    outer loop
      vertex -11.480502970516682 -27.71638597548008 37.5
      vertex -11.480502970516682 -27.71638597548008 50
      vertex -16.667106993496418 -24.944088369607925 50
    endloop
  endfacet
  facet normal -0.29028467745026154 -0.9569403356728139 0
    outer loop
      vertex -5.852709658443928 -29.42355841398239 37.5
      vertex -11.480502970516682 -27.71638597548008 50
      vertex -11.480502970516682 -27.71638597548008 37.5
    endloop
  endfacet
  facet normal -0.29028467745026154 -0.9569403356728139 0
    outer loop
      vertex -5.852709658443928 -29.42355841398239 37.5
      vertex -5.852709658443928 -29.42355841398239 50
      vertex -11.480502970516682 -27.71638597548008 50
    endloop
  endfacet
  facet normal -0.09801714004587228 -0.9951847267001377 0
    outer loop
      vertex 0 -30 37.5
      vertex -5.852709658443928 -29.42355841398239 50
      vertex -5.852709658443928 -29.42355841398239 37.5
    endloop
  endfacet
  facet normal -0.09801714004587228 -0.9951847267001377 0
    outer loop
      vertex 0 -30 37.5
      vertex 0 -30 50
      vertex -5.852709658443928 -29.42355841398239 50
    endloop
  endfacet
  facet normal 0.09801714004587228 -0.9951847267001377 0
    outer loop
      vertex 5.852709658443928 -29.42355841398239 37.5
      vertex 0 -30 50
      vertex 0 -30 37.5
    endloop
  endfacet
  facet normal 0.09801714004587228 -0.9951847267001377 0
    outer loop
      vertex 5.852709658443928 -29.42355841398239 37.5
      vertex 5.852709658443928 -29.42355841398239 50
      vertex 0 -30 50
    endloop
  endfacet
  facet normal 0.29028467745026154 -0.9569403356728139 0
    outer loop
      vertex 11.480502970516682 -27.71638597548008 37.5
      vertex 5.852709658443928 -29.42355841398239 50
      vertex 5.852709658443928 -29.42355841398239 37.5
    endloop
  endfacet
  facet normal 0.29028467745026154 -0.9569403356728139 0
    outer loop
      vertex 11.480502970516682 -27.71638597548008 37.5
      vertex 11.480502970516682 -27.71638597548008 50
      vertex 5.852709658443928 -29.42355841398239 50
    endloop
  endfacet
  facet normal 0.471396736537991 -0.8819212645022978 0
    outer loop
      vertex 16.667106993496418 -24.944088369607925 37.5
      vertex 11.480502970516682 -27.71638597548008 50
      vertex 11.480502970516682 -27.71638597548008 37.5
    endloop
  endfacet
  facet normal 0.471396736537991 -0.8819212645022978 0
    outer loop
      vertex 16.667106993496418 -24.944088369607925 37.5
      vertex 16.667106993496418 -24.944088369607925 50
      vertex 11.480502970516682 -27.71638597548008 50
    endloop
  endfacet
  facet normal 0.6343932840846501 -0.7730104534275668 0
    outer loop
      vertex 21.213203437626362 -21.213203437626362 37.5
      vertex 16.667106993496418 -24.944088369607925 50
      vertex 16.667106993496418 -24.944088369607925 37.5
    endloop
  endfacet
  facet normal 0.6343932840846501 -0.7730104534275668 0
    outer loop
      vertex 21.213203437626362 -21.213203437626362 37.5
      vertex 21.213203437626362 -21.213203437626362 50
      vertex 16.667106993496418 -24.944088369607925 50
    endloop
  endfacet
  facet normal 0.7730104534275668 -0.6343932840846501 0
    outer loop
      vertex 24.944088369607925 -16.667106993496418 37.5
      vertex 21.213203437626362 -21.213203437626362 50
      vertex 21.213203437626362 -21.213203437626362 37.5
    endloop
  endfacet
  facet normal 0.7730104534275668 -0.6343932840846501 0
    outer loop
      vertex 24.944088369607925 -16.667106993496418 37.5
      vertex 24.944088369607925 -16.667106993496418 50
      vertex 21.213203437626362 -21.213203437626362 50
    endloop
  endfacet
  facet normal 0.8819212645022978 -0.471396736537991 0
    outer loop
      vertex 27.71638597548008 -11.480502970516682 37.5
      vertex 24.944088369607925 -16.667106993496418 50
      vertex 24.944088369607925 -16.667106993496418 37.5
    endloop
  endfacet
  facet normal 0.8819212645022978 -0.471396736537991 0
    outer loop
      vertex 27.71638597548008 -11.480502970516682 37.5
      vertex 27.71638597548008 -11.480502970516682 50
      vertex 24.944088369607925 -16.667106993496418 50
    endloop
  endfacet
  facet normal 0.9569403356728139 -0.29028467745026154 0
    outer loop
      vertex 29.42355841398239 -5.852709658443928 37.5
      vertex 27.71638597548008 -11.480502970516682 50
      vertex 27.71638597548008 -11.480502970516682 37.5
    endloop
  endfacet
  facet normal 0.9569403356728139 -0.29028467745026154 0
    outer loop
      vertex 29.42355841398239 -5.852709658443928 37.5
      vertex 29.42355841398239 -5.852709658443928 50
      vertex 27.71638597548008 -11.480502970516682 50
    endloop
  endfacet
  facet normal 0.9951847267001377 -0.09801714004587228 0
    outer loop
      vertex 30 0 37.5
      vertex 29.42355841398239 -5.852709658443928 50
      vertex 29.42355841398239 -5.852709658443928 37.5
    endloop
  endfacet
  facet normal 0.9951847267001377 -0.09801714004587228 0
    outer loop
      vertex 30 0 37.5
      vertex 30 0 50
      vertex 29.42355841398239 -5.852709658443928 50
    endloop
  endfacet
  facet normal 0.9951847267001377 0.09801714004587228 0
    outer loop
      vertex 29.42355841398239 5.852709658443928 37.5
      vertex 30 0 50
      vertex 30 0 37.5
    endloop
  endfacet
  facet normal 0.9951847267001377 0.09801714004587228 0
    outer loop
      vertex 29.42355841398239 5.852709658443928 37.5
      vertex 29.42355841398239 5.852709658443928 50
      vertex 30 0 50
    endloop
  endfacet
  facet normal 0.9569403356728139 0.29028467745026154 0
    outer loop
      vertex 27.71638597548008 11.480502970516682 37.5
      vertex 29.42355841398239 5.852709658443928 50
      vertex 29.42355841398239 5.852709658443928 37.5
    endloop
  endfacet
  facet normal 0.9569403356728139 0.29028467745026154 0
    outer loop
      vertex 27.71638597548008 11.480502970516682 37.5
      vertex 27.71638597548008 11.480502970516682 50
      vertex 29.42355841398239 5.852709658443928 50
    endloop
  endfacet
  facet normal 0.8819212645022978 0.471396736537991 0
    outer loop
      vertex 24.944088369607925 16.667106993496418 37.5
      vertex 27.71638597548008 11.480502970516682 50
      vertex 27.71638597548008 11.480502970516682 37.5
    endloop
  endfacet
  facet normal 0.8819212645022978 0.471396736537991 0
    outer loop
      vertex 24.944088369607925 16.667106993496418 37.5
      vertex 24.944088369607925 16.667106993496418 50
      vertex 27.71638597548008 11.480502970516682 50
    endloop
  endfacet
  facet normal 0.7730104534275668 0.6343932840846501 0
    outer loop
      vertex 21.213203437626362 21.213203437626362 37.5
      vertex 24.944088369607925 16.667106993496418 50
      vertex 24.944088369607925 16.667106993496418 37.5
    endloop
  endfacet
  facet normal 0.7730104534275668 0.6343932840846501 0
    outer loop
      vertex 21.213203437626362 21.213203437626362 37.5
      vertex 21.213203437626362 21.213203437626362 50
      vertex 24.944088369607925 16.667106993496418 50
    endloop
  endfacet
  facet normal 0.6343932840846501 0.7730104534275668 0
    outer loop
      vertex 16.667106993496418 24.944088369607925 37.5
      vertex 21.213203437626362 21.213203437626362 50
      vertex 21.213203437626362 21.213203437626362 37.5
    endloop
  endfacet
  facet normal 0.6343932840846501 0.7730104534275668 0
    outer loop
      vertex 16.667106993496418 24.944088369607925 37.5
      vertex 16.667106993496418 24.944088369607925 50
      vertex 21.213203437626362 21.213203437626362 50
    endloop
  endfacet
  facet normal 0.471396736537991 0.8819212645022978 0
    outer loop
      vertex 11.480502970516682 27.71638597548008 37.5
      vertex 16.667106993496418 24.944088369607925 50
      vertex 16.667106993496418 24.944088369607925 37.5
    endloop
  endfacet
  facet normal 0.471396736537991 0.8819212645022978 0
    outer loop
      vertex 11.480502970516682 27.71638597548008 37.5
      vertex 11.480502970516682 27.71638597548008 50
      vertex 16.667106993496418 24.944088369607925 50
    endloop
  endfacet
  facet normal 0.29028467745026154 0.9569403356728139 0
    outer loop
      vertex 5.852709658443928 29.42355841398239 37.5
      vertex 11.480502970516682 27.71638597548008 50
      vertex 11.480502970516682 27.71638597548008 37.5
    endloop
  endfacet
  facet normal 0.29028467745026154 0.9569403356728139 0
    outer loop
      vertex 5.852709658443928 29.42355841398239 37.5
      vertex 5.852709658443928 29.42355841398239 50
      vertex 11.480502970516682 27.71638597548008 50
    endloop
  endfacet
  facet normal 0.09801714004587228 0.9951847267001377 0
    outer loop
      vertex 0 30 37.5
      vertex 5.852709658443928 29.42355841398239 50
      vertex 5.852709658443928 29.42355841398239 37.5
    endloop
  endfacet
  facet normal 0.09801714004587228 0.9951847267001377 0
    outer loop
      vertex 0 30 37.5
      vertex 0 30 50
      vertex 5.852709658443928 29.42355841398239 50
    endloop
  endfacet
  facet normal -0.09801714004587228 0.9951847267001377 0
    outer loop
      vertex -5.852709658443928 29.42355841398239 37.5
      vertex 0 30 50
      vertex 0 30 37.5
    endloop
  endfacet
  facet normal -0.09801714004587228 0.9951847267001377 0
    outer loop
      vertex -5.852709658443928 29.42355841398239 37.5
      vertex -5.852709658443928 29.42355841398239 50
      vertex 0 30 50
    endloop
  endfacet
  facet normal 0 0 -1
    outer loop
      vertex 0 30 0
      vertex -11.480502970516682 27.71638597548008 0
      vertex -5.852709658443928 29.42355841398239 0
    endloop
  endfacet
  facet normal 0 0 -1
    outer loop
      vertex 0 30 0
      vertex 5.852709658443928 29.42355841398239 0
      vertex -11.480502970516682 27.71638597548008 0
    endloop
  endfacet
  facet normal 0 0 -1
    outer loop
      vertex 5.852709658443928 29.42355841398239 0
      vertex -16.667106993496418 24.944088369607925 0
      vertex -11.480502970516682 27.71638597548008 0
    endloop
  endfacet
  facet normal 0 0 -1
    outer loop
      vertex 5.852709658443928 29.42355841398239 0
      vertex 11.480502970516682 27.71638597548008 0
      vertex -16.667106993496418 24.944088369607925 0
    endloop
  endfacet
  facet normal 0 0 -1
    outer loop
      vertex 11.480502970516682 27.71638597548008 0
      vertex -21.213203437626362 21.213203437626362 0
      vertex -16.667106993496418 24.944088369607925 0
    endloop
  endfacet
  facet normal 0 0 -1
    outer loop
      vertex 11.480502970516682 27.71638597548008 0
      vertex 16.667106993496418 24.944088369607925 0
      vertex -21.213203437626362 21.213203437626362 0
    endloop
  endfacet
  facet normal 0 0 -1
    outer loop
      vertex 16.667106993496418 24.944088369607925 0
      vertex -24.944088369607925 16.667106993496418 0
      vertex -21.213203437626362 21.213203437626362 0
    endloop
  endfacet
  facet normal 0 0 -1
    outer loop
      vertex 16.667106993496418 24.944088369607925 0
      vertex 21.213203437626362 21.213203437626362 0
      vertex -24.944088369607925 16.667106993496418 0
    endloop
  endfacet
  facet normal 0 0 -1
    outer loop
      vertex 21.213203437626362 21.213203437626362 0
      vertex -27.71638597548008 11.480502970516682 0
      vertex -24.944088369607925 16.667106993496418 0
    endloop
  endfacet
  facet normal 0 0 -1
    outer loop
      vertex 21.213203437626362 21.213203437626362 0
      vertex 24.944088369607925 16.667106993496418 0
      vertex -27.71638597548008 11.480502970516682 0
    endloop
  endfacet
  facet normal 0 0 -1
    outer loop
      vertex 24.944088369607925 16.667106993496418 0
      vertex -29.42355841398239 5.852709658443928 0
      vertex -27.71638597548008 11.480502970516682 0
    endloop
  endfacet
  facet normal 0 0 -1
    outer loop
      vertex 24.944088369607925 16.667106993496418 0
      vertex 27.71638597548008 11.480502970516682 0
      vertex -29.42355841398239 5.852709658443928 0
    endloop
  endfacet
  facet normal 0 0 -1
    outer loop
      vertex 27.71638597548008 11.480502970516682 0
      vertex -30 0 0
      vertex -29.42355841398239 5.852709658443928 0
    endloop
  endfacet
  facet normal 0 0 -1
    outer loop
      vertex 27.71638597548008 11.480502970516682 0
      vertex 29.42355841398239 5.852709658443928 0
      vertex -30 0 0
    endloop
  endfacet
  facet normal 0 0 -1
    outer loop
      vertex 29.42355841398239 5.852709658443928 0
      vertex -29.42355841398239 -5.852709658443928 0
      vertex -30 0 0
    endloop
  endfacet
  facet normal 0 0 -1
    outer loop
      vertex 29.42355841398239 5.852709658443928 0
      vertex 30 0 0
      vertex -29.42355841398239 -5.852709658443928 0
    endloop
  endfacet
  facet normal 0 0 -1
    outer loop
      vertex 30 0 0
      vertex -27.71638597548008 -11.480502970516682 0
      vertex -29.42355841398239 -5.852709658443928 0
    endloop
  endfacet
  facet normal 0 0 -1
    outer loop
      vertex 30 0 0
      vertex 29.42355841398239 -5.852709658443928 0
      vertex -27.71638597548008 -11.480502970516682 0
    endloop
  endfacet
  facet normal 0 0 -1
    outer loop
      vertex 29.42355841398239 -5.852709658443928 0
      vertex -24.944088369607925 -16.667106993496418 0
      vertex -27.71638597548008 -11.480502970516682 0
    endloop
  endfacet
  facet normal 0 0 -1
    outer loop
      vertex 29.42355841398239 -5.852709658443928 0
      vertex 27.71638597548008 -11.480502970516682 0
      vertex -24.944088369607925 -16.667106993496418 0
    endloop
  endfacet
  facet normal 0 0 -1
    outer loop
      vertex 27.71638597548008 -11.480502970516682 0
      vertex -21.213203437626362 -21.213203437626362 0
      vertex -24.944088369607925 -16.667106993496418 0
    endloop
  endfacet
  facet normal 0 0 -1
    outer loop
      vertex 27.71638597548008 -11.480502970516682 0
      vertex 24.944088369607925 -16.667106993496418 0
      vertex -21.213203437626362 -21.213203437626362 0
    endloop
  endfacet
  facet normal 0 0 -1
    outer loop
      vertex 24.944088369607925 -16.667106993496418 0
      vertex -16.667106993496418 -24.944088369607925 0
      vertex -21.213203437626362 -21.213203437626362 0
    endloop
  endfacet
  facet normal 0 0 -1
    outer loop
      vertex 24.944088369607925 -16.667106993496418 0
      vertex 21.213203437626362 -21.213203437626362 0
      vertex -16.667106993496418 -24.944088369607925 0
    endloop
  endfacet
  facet normal 0 0 -1
    outer loop
      vertex 21.213203437626362 -21.213203437626362 0
      vertex -11.480502970516682 -27.71638597548008 0
      vertex -16.667106993496418 -24.944088369607925 0
    endloop
  endfacet
  facet normal 0 0 -1
    outer loop
      vertex 21.213203437626362 -21.213203437626362 0
      vertex 16.667106993496418 -24.944088369607925 0
      vertex -11.480502970516682 -27.71638597548008 0
    endloop
  endfacet
  facet normal 0 0 -1
    outer loop
      vertex 16.667106993496418 -24.944088369607925 0
      vertex -5.852709658443928 -29.42355841398239 0
      vertex -11.480502970516682 -27.71638597548008 0
    endloop
  endfacet
  facet normal 0 0 -1
    outer loop
      vertex 16.667106993496418 -24.944088369607925 0
      vertex 11.480502970516682 -27.71638597548008 0
      vertex -5.852709658443928 -29.42355841398239 0
    endloop
  endfacet
  facet normal 0 0 -1
    outer loop
      vertex 11.480502970516682 -27.71638597548008 0
      vertex 0 -30 0
      vertex -5.852709658443928 -29.42355841398239 0
    endloop
  endfacet
  facet normal 0 0 -1
    outer loop
      vertex 11.480502970516682 -27.71638597548008 0
      vertex 5.852709658443928 -29.42355841398239 0
      vertex 0 -30 0
    endloop
  endfacet
  facet normal 0 0 1
    outer loop
      vertex -5.852709658443928 29.42355841398239 50
      vertex -11.480502970516682 27.71638597548008 50
      vertex 0 30 50
    endloop
  endfacet
  facet normal 0 0 1
    outer loop
      vertex -11.480502970516682 27.71638597548008 50
      vertex 5.852709658443928 29.42355841398239 50
      vertex 0 30 50
    endloop
  endfacet
  facet normal 0 0 1
    outer loop
      vertex -11.480502970516682 27.71638597548008 50
      vertex -16.667106993496418 24.944088369607925 50
      vertex 5.852709658443928 29.42355841398239 50
    endloop
  endfacet
  facet normal 0 0 1
    outer loop
      vertex -16.667106993496418 24.944088369607925 50
      vertex 11.480502970516682 27.71638597548008 50
      vertex 5.852709658443928 29.42355841398239 50
    endloop
  endfacet
  facet normal 0 0 1
    outer loop
      vertex -16.667106993496418 24.944088369607925 50
      vertex -21.213203437626362 21.213203437626362 50
      vertex 11.480502970516682 27.71638597548008 50
    endloop
  endfacet
  facet normal 0 0 1
    outer loop
      vertex -21.213203437626362 21.213203437626362 50
      vertex 16.667106993496418 24.944088369607925 50
      vertex 11.480502970516682 27.71638597548008 50
    endloop
  endfacet
  facet normal 0 0 1
    outer loop
      vertex -21.213203437626362 21.213203437626362 50
      vertex -24.944088369607925 16.667106993496418 50
      vertex 16.667106993496418 24.944088369607925 50
    endloop
  endfacet
  facet normal 0 0 1
    outer loop
      vertex -24.944088369607925 16.667106993496418 50
      vertex 21.213203437626362 21.213203437626362 50
      vertex 16.667106993496418 24.944088369607925 50
    endloop
  endfacet
  facet normal 0 0 1
    outer loop
      vertex -24.944088369607925 16.667106993496418 50
      vertex -27.71638597548008 11.480502970516682 50
      vertex 21.213203437626362 21.213203437626362 50
    endloop
  endfacet
  facet normal 0 0 1
    outer loop
      vertex -27.71638597548008 11.480502970516682 50
      vertex 24.944088369607925 16.667106993496418 50
      vertex 21.213203437626362 21.213203437626362 50
    endloop
  endfacet
  facet normal 0 0 1
    outer loop
      vertex -27.71638597548008 11.480502970516682 50
      vertex -29.42355841398239 5.852709658443928 50
      vertex 24.944088369607925 16.667106993496418 50
    endloop
  endfacet
  facet normal 0 0 1
    outer loop
      vertex -29.42355841398239 5.852709658443928 50
      vertex 27.71638597548008 11.480502970516682 50
      vertex 24.944088369607925 16.667106993496418 50
    endloop
  endfacet
  facet normal 0 0 1
    outer loop
      vertex -29.42355841398239 5.852709658443928 50
      vertex -30 0 50
      vertex 27.71638597548008 11.480502970516682 50
    endloop
  endfacet
  facet normal 0 0 1
    outer loop
      vertex -30 0 50
      vertex 29.42355841398239 5.852709658443928 50
      vertex 27.71638597548008 11.480502970516682 50
    endloop
  endfacet
  facet normal 0 0 1
    outer loop
      vertex -30 0 50
      vertex -29.42355841398239 -5.852709658443928 50
      vertex 29.42355841398239 5.852709658443928 50
    endloop
  endfacet
  facet normal 0 0 1
    outer loop
      vertex -29.42355841398239 -5.852709658443928 50
      vertex 30 0 50
      vertex 29.42355841398239 5.852709658443928 50
    endloop
  endfacet
  facet normal 0 0 1
    outer loop
      vertex -29.42355841398239 -5.852709658443928 50
      vertex -27.71638597548008 -11.480502970516682 50
      vertex 30 0 50
    endloop
  endfacet
  facet normal 0 0 1
    outer loop
      vertex -27.71638597548008 -11.480502970516682 50
      vertex 29.42355841398239 -5.852709658443928 50
      vertex 30 0 50
    endloop
  endfacet
  facet normal 0 0 1
    outer loop
      vertex -27.71638597548008 -11.480502970516682 50
      vertex -24.944088369607925 -16.667106993496418 50
      vertex 29.42355841398239 -5.852709658443928 50
    endloop
  endfacet
  facet normal 0 0 1
    outer loop
      vertex -24.944088369607925 -16.667106993496418 50
      vertex 27.71638597548008 -11.480502970516682 50
      vertex 29.42355841398239 -5.852709658443928 50
    endloop
  endfacet
  facet normal 0 0 1
    outer loop
      vertex -24.944088369607925 -16.667106993496418 50
      vertex -21.213203437626362 -21.213203437626362 50
      vertex 27.71638597548008 -11.480502970516682 50
    endloop
  endfacet
  facet normal 0 0 1
    outer loop
      vertex -21.213203437626362 -21.213203437626362 50
      vertex 24.944088369607925 -16.667106993496418 50
      vertex 27.71638597548008 -11.480502970516682 50
    endloop
  endfacet
  facet normal 0 0 1
    outer loop
      vertex -21.213203437626362 -21.213203437626362 50
      vertex -16.667106993496418 -24.944088369607925 50
      vertex 24.944088369607925 -16.667106993496418 50
    endloop
  endfacet
  facet normal 0 0 1
    outer loop
      vertex -16.667106993496418 -24.944088369607925 50
      vertex 21.213203437626362 -21.213203437626362 50
      vertex 24.944088369607925 -16.667106993496418 50
    endloop
  endfacet
  facet normal 0 0 1
    outer loop
      vertex -16.667106993496418 -24.944088369607925 50
      vertex -11.480502970516682 -27.71638597548008 50
      vertex 21.213203437626362 -21.213203437626362 50
    endloop
  endfacet
  facet normal 0 0 1
    outer loop
      vertex -11.480502970516682 -27.71638597548008 50
      vertex 16.667106993496418 -24.944088369607925 50
      vertex 21.213203437626362 -21.213203437626362 50
    endloop
  endfacet
  facet normal 0 0 1
    outer loop
      vertex -11.480502970516682 -27.71638597548008 50
      vertex -5.852709658443928 -29.42355841398239 50
      vertex 16.667106993496418 -24.944088369607925 50
    endloop
  endfacet
  facet normal 0 0 1
    outer loop
      vertex -5.852709658443928 -29.42355841398239 50
      vertex 11.480502970516682 -27.71638597548008 50
      vertex 16.667106993496418 -24.944088369607925 50
    endloop
  endfacet
  facet normal 0 0 1
    outer loop
      vertex -5.852709658443928 -29.42355841398239 50
      vertex 0 -30 50
      vertex 11.480502970516682 -27.71638597548008 50
    endloop
  endfacet
  facet normal 0 0 1
    outer loop
      vertex 0 -30 50
      vertex 5.852709658443928 -29.42355841398239 50
      vertex 11.480502970516682 -27.71638597548008 50
    endloop
  endfacet
endsolid OpenSCAD_Model
