solid OpenSCAD_Model
  facet normal 0 0 1
    outer loop
      vertex -75.005 30.005 30
      vertex 75.005 -30.005 30
      vertex 75.005 30.005 30
    endloop
  endfacet
  facet normal 0 0 1
    outer loop
      vertex 75.005 -30.005 30
      vertex -75.005 30.005 30
      vertex -75.005 -30.005 30
    endloop
  endfacet
  facet normal 0 0 -1
    outer loop
      vertex -75.005 -30.005 9.989999999999998
      vertex 75.005 30.005 9.989999999999998
      vertex 75.005 -30.005 9.989999999999998
    endloop
  endfacet
  facet normal 0 0 -1
    outer loop
      vertex 75.005 30.005 9.989999999999998
      vertex -75.005 -30.005 9.989999999999998
      vertex -75.005 30.005 9.989999999999998
    endloop
  endfacet
  facet normal 0 -1 0
    outer loop
      vertex -75.005 -30.005 9.989999999999998
      vertex 75.005 -30.005 30
      vertex -75.005 -30.005 30
    endloop
  endfacet
  facet normal 0 -1 0
    outer loop
      vertex 75.005 -30.005 30
      vertex -75.005 -30.005 9.989999999999998
      vertex 75.005 -30.005 9.989999999999998
    endloop
  endfacet
  facet normal 1 0 0
    outer loop
      vertex 75.005 -30.005 30
      vertex 75.005 30.005 9.989999999999998
      vertex 75.005 30.005 30
    endloop
  endfacet
  facet normal 1 0 0
    outer loop
      vertex 75.005 30.005 9.989999999999998
      vertex 75.005 -30.005 30
      vertex 75.005 -30.005 9.989999999999998
    endloop
  endfacet
  facet normal 0 1 0
    outer loop
      vertex 75.005 30.005 9.989999999999998
      vertex -75.005 30.005 30
      vertex 75.005 30.005 30
    endloop
  endfacet
  facet normal 0 1 0
    outer loop
      vertex -75.005 30.005 30
      vertex 75.005 30.005 9.989999999999998
      vertex -75.005 30.005 9.989999999999998
    endloop
  endfacet
  facet normal -1 0 0
    outer loop
      vertex -75.005 -30.005 9.989999999999998
      vertex -75.005 30.005 30
      vertex -75.005 30.005 9.989999999999998
    endloop
  endfacet
  facet normal -1 0 0
    outer loop
      vertex -75.005 30.005 30
      vertex -75.005 -30.005 9.989999999999998
      vertex -75.005 -30.005 30
    endloop
  endfacet
endsolid OpenSCAD_Model
