<?xml version="1.0" encoding="UTF-8" standalone="no"?>
<!DOCTYPE svg PUBLIC "-//W3C//DTD SVG 1.1//EN"
 "http://www.w3.org/Graphics/SVG/1.1/DTD/svg11.dtd">
<!-- Generated by graphviz version 5.0.0 (20220707.1540)
 -->
<!-- Title: default Pages: 1 -->
<svg width="267pt" height="98pt"
 viewBox="0.00 0.00 266.59 98.00" xmlns="http://www.w3.org/2000/svg" xmlns:xlink="http://www.w3.org/1999/xlink">
<g id="graph0" class="graph" transform="scale(1 1) rotate(0) translate(4 94)">
<title>default</title>
<polygon fill="white" stroke="transparent" points="-4,4 -4,-94 262.59,-94 262.59,4 -4,4"/>
<!-- root_426 -->
<g id="node1" class="node">
<title>root_426</title>
<g id="a_node1"><a xlink:href="javascript:s=&quot;\(\)\nNone&quot;; console.log(s); alert(s);" xlink:title="root">
<ellipse fill="none" stroke="black" cx="27" cy="-45" rx="27" ry="18"/>
<text text-anchor="middle" x="27" y="-41.3" font-family="Times New Roman,serif" font-size="14.00">root</text>
</a>
</g>
</g>
<!-- default_427 -->
<g id="node2" class="node">
<title>default_427</title>
<g id="a_node2"><a xlink:href="javascript:s=&quot;\(&#x27;default&#x27;,\)\nCaseShellCutter&quot;; console.log(s); alert(s);" xlink:title="CaseShellCutter">
<ellipse fill="none" stroke="black" cx="125.1" cy="-45" rx="35.19" ry="18"/>
<text text-anchor="middle" x="125.1" y="-41.3" font-family="Times New Roman,serif" font-size="14.00">default</text>
</a>
</g>
</g>
<!-- root_426&#45;&gt;default_427 -->
<g id="edge1" class="edge">
<title>root_426&#45;&gt;default_427</title>
<path fill="none" stroke="black" d="M54.01,-45C61.92,-45 70.84,-45 79.61,-45"/>
<polygon fill="black" stroke="black" points="79.76,-48.5 89.76,-45 79.76,-41.5 79.76,-48.5"/>
</g>
<!-- cage_428 -->
<g id="node3" class="node">
<title>cage_428</title>
<g id="a_node3"><a xlink:href="javascript:s=&quot;\(&#x27;default&#x27;,\ &#x27;cage&#x27;\)\nBox&quot;; console.log(s); alert(s);" xlink:title="Box">
<ellipse fill="none" stroke="black" cx="227.39" cy="-72" rx="27.1" ry="18"/>
<text text-anchor="middle" x="227.39" y="-68.3" font-family="Times New Roman,serif" font-size="14.00">cage</text>
</a>
</g>
</g>
<!-- default_427&#45;&gt;cage_428 -->
<g id="edge2" class="edge">
<title>default_427&#45;&gt;cage_428</title>
<path fill="none" stroke="black" d="M156.46,-53.17C167.7,-56.2 180.51,-59.65 192.08,-62.76"/>
<polygon fill="black" stroke="black" points="191.28,-66.17 201.85,-65.39 193.1,-59.41 191.28,-66.17"/>
</g>
<!-- cutter_429 -->
<g id="node4" class="node">
<title>cutter_429</title>
<g id="a_node4"><a xlink:href="javascript:s=&quot;\(&#x27;default&#x27;,\ &#x27;cutter&#x27;\)\nBox&quot;; console.log(s); alert(s);" xlink:title="Box">
<ellipse fill="none" stroke="black" cx="227.39" cy="-18" rx="31.4" ry="18"/>
<text text-anchor="middle" x="227.39" y="-14.3" font-family="Times New Roman,serif" font-size="14.00">cutter</text>
</a>
</g>
</g>
<!-- default_427&#45;&gt;cutter_429 -->
<g id="edge3" class="edge">
<title>default_427&#45;&gt;cutter_429</title>
<path fill="none" stroke="black" d="M156.46,-36.83C166.68,-34.07 178.21,-30.97 188.92,-28.09"/>
<polygon fill="black" stroke="black" points="190.12,-31.39 198.86,-25.41 188.3,-24.63 190.12,-31.39"/>
</g>
</g>
</svg>
