<?xml version="1.0" encoding="UTF-8" standalone="no"?>
<!DOCTYPE svg PUBLIC "-//W3C//DTD SVG 1.1//EN"
 "http://www.w3.org/Graphics/SVG/1.1/DTD/svg11.dtd">
<!-- Generated by graphviz version 5.0.0 (20220707.1540)
 -->
<!-- Title: default Pages: 1 -->
<svg width="578pt" height="638pt"
 viewBox="0.00 0.00 577.77 638.00" xmlns="http://www.w3.org/2000/svg" xmlns:xlink="http://www.w3.org/1999/xlink">
<g id="graph0" class="graph" transform="scale(1 1) rotate(0) translate(4 634)">
<title>default</title>
<polygon fill="white" stroke="transparent" points="-4,4 -4,-634 573.77,-634 573.77,4 -4,4"/>
<!-- root_1 -->
<g id="node1" class="node">
<title>root_1</title>
<g id="a_node1"><a xlink:href="javascript:s=&quot;\(\)\nNone&quot;; console.log(s); alert(s);" xlink:title="root">
<ellipse fill="none" stroke="black" cx="27" cy="-396" rx="27" ry="18"/>
<text text-anchor="middle" x="27" y="-392.3" font-family="Times New Roman,serif" font-size="14.00">root</text>
</a>
</g>
</g>
<!-- default_2 -->
<g id="node2" class="node">
<title>default_2</title>
<g id="a_node2"><a xlink:href="javascript:s=&quot;\(&#x27;default&#x27;,\)\nPie&quot;; console.log(s); alert(s);" xlink:title="Pie">
<ellipse fill="none" stroke="black" cx="164.09" cy="-558" rx="35.19" ry="18"/>
<text text-anchor="middle" x="164.09" y="-554.3" font-family="Times New Roman,serif" font-size="14.00">default</text>
</a>
</g>
</g>
<!-- root_1&#45;&gt;default_2 -->
<g id="edge1" class="edge">
<title>root_1&#45;&gt;default_2</title>
<path fill="none" stroke="black" d="M40.95,-411.53C64.45,-439.71 114.29,-499.47 142.5,-533.3"/>
<polygon fill="black" stroke="black" points="140.08,-535.87 149.17,-541.31 145.46,-531.39 140.08,-535.87"/>
</g>
<!-- 5 -->
<g id="node5" class="node">
<title>5</title>
<g id="a_node5"><a xlink:href="javascript:s=&quot;\(&quot;&#x27;base&#x27;,\ &quot;,\)\nAnnotatedCoordinates&quot;; console.log(s); alert(s);" xlink:title="AnnotatedCoordinates">
<ellipse fill="none" stroke="black" cx="164.09" cy="-396" rx="36.29" ry="18"/>
<text text-anchor="middle" x="164.09" y="-392.3" font-family="Times New Roman,serif" font-size="14.00">&#39;base&#39;, </text>
</a>
</g>
</g>
<!-- root_1&#45;&gt;5 -->
<g id="edge4" class="edge">
<title>root_1&#45;&gt;5</title>
<path fill="none" stroke="black" d="M54.05,-396C72.04,-396 96.43,-396 117.59,-396"/>
<polygon fill="black" stroke="black" points="117.68,-399.5 127.68,-396 117.68,-392.5 117.68,-399.5"/>
</g>
<!-- 21 -->
<g id="node21" class="node">
<title>21</title>
<g id="a_node21"><a xlink:href="javascript:s=&quot;\(&quot;&#x27;surface&#x27;,\ angle=0&quot;,\)\nAnnotatedCoordinates&quot;; console.log(s); alert(s);" xlink:title="AnnotatedCoordinates">
<ellipse fill="none" stroke="black" cx="164.09" cy="-153" rx="74.19" ry="18"/>
<text text-anchor="middle" x="164.09" y="-149.3" font-family="Times New Roman,serif" font-size="14.00">&#39;surface&#39;, angle=0</text>
</a>
</g>
</g>
<!-- root_1&#45;&gt;21 -->
<g id="edge20" class="edge">
<title>root_1&#45;&gt;21</title>
<path fill="none" stroke="black" d="M37.29,-379.3C60.25,-338 119.86,-230.76 147.99,-180.17"/>
<polygon fill="black" stroke="black" points="151.21,-181.57 153.01,-171.13 145.1,-178.17 151.21,-181.57"/>
</g>
<!-- pie_cage_3 -->
<g id="node3" class="node">
<title>pie_cage_3</title>
<g id="a_node3"><a xlink:href="javascript:s=&quot;\(&#x27;default&#x27;,\ &#x27;pie_cage&#x27;\)\nCylinder&quot;; console.log(s); alert(s);" xlink:title="Cylinder">
<ellipse fill="none" stroke="black" cx="317.08" cy="-612" rx="42.79" ry="18"/>
<text text-anchor="middle" x="317.08" y="-608.3" font-family="Times New Roman,serif" font-size="14.00">pie_cage</text>
</a>
</g>
</g>
<!-- default_2&#45;&gt;pie_cage_3 -->
<g id="edge2" class="edge">
<title>default_2&#45;&gt;pie_cage_3</title>
<path fill="none" stroke="black" d="M193.49,-568.16C216.29,-576.31 248.64,-587.88 274.38,-597.08"/>
<polygon fill="black" stroke="black" points="273.29,-600.41 283.88,-600.48 275.65,-593.82 273.29,-600.41"/>
</g>
<!-- pie_4 -->
<g id="node4" class="node">
<title>pie_4</title>
<g id="a_node4"><a xlink:href="javascript:s=&quot;\(&#x27;default&#x27;,\ &#x27;pie&#x27;\)\nRotateExtrude&quot;; console.log(s); alert(s);" xlink:title="RotateExtrude">
<ellipse fill="none" stroke="black" cx="317.08" cy="-558" rx="27" ry="18"/>
<text text-anchor="middle" x="317.08" y="-554.3" font-family="Times New Roman,serif" font-size="14.00">pie</text>
</a>
</g>
</g>
<!-- default_2&#45;&gt;pie_4 -->
<g id="edge3" class="edge">
<title>default_2&#45;&gt;pie_4</title>
<path fill="none" stroke="black" d="M199.36,-558C223.31,-558 255.24,-558 279.66,-558"/>
<polygon fill="black" stroke="black" points="279.95,-561.5 289.95,-558 279.95,-554.5 279.95,-561.5"/>
</g>
<!-- coords_6 -->
<g id="node6" class="node">
<title>coords_6</title>
<g id="a_node6"><a xlink:href="javascript:s=&quot;\(&quot;&#x27;base&#x27;,\ &quot;,\ &#x27;coords&#x27;\)\nCoordinates&quot;; console.log(s); alert(s);" xlink:title="Coordinates">
<ellipse fill="none" stroke="black" cx="317.08" cy="-504" rx="36.29" ry="18"/>
<text text-anchor="middle" x="317.08" y="-500.3" font-family="Times New Roman,serif" font-size="14.00">coords</text>
</a>
</g>
</g>
<!-- 5&#45;&gt;coords_6 -->
<g id="edge5" class="edge">
<title>5&#45;&gt;coords_6</title>
<path fill="none" stroke="black" d="M184.52,-411.03C206.12,-427.6 242.19,-454.84 274.19,-477 277.71,-479.44 281.43,-481.94 285.15,-484.4"/>
<polygon fill="black" stroke="black" points="283.43,-487.45 293.72,-489.98 287.25,-481.59 283.43,-487.45"/>
</g>
<!-- x_17 -->
<g id="node17" class="node">
<title>x_17</title>
<g id="a_node17"><a xlink:href="javascript:s=&quot;\(&quot;&#x27;base&#x27;,\ &quot;,\ &#x27;x&#x27;\)\nText&quot;; console.log(s); alert(s);" xlink:title="Text">
<ellipse fill="none" stroke="black" cx="317.08" cy="-450" rx="27" ry="18"/>
<text text-anchor="middle" x="317.08" y="-446.3" font-family="Times New Roman,serif" font-size="14.00">x</text>
</a>
</g>
</g>
<!-- 5&#45;&gt;x_17 -->
<g id="edge16" class="edge">
<title>5&#45;&gt;x_17</title>
<path fill="none" stroke="black" d="M194.21,-406.41C219.74,-415.54 256.82,-428.81 283.37,-438.3"/>
<polygon fill="black" stroke="black" points="282.39,-441.67 292.99,-441.74 284.75,-435.08 282.39,-441.67"/>
</g>
<!-- y_18 -->
<g id="node18" class="node">
<title>y_18</title>
<g id="a_node18"><a xlink:href="javascript:s=&quot;\(&quot;&#x27;base&#x27;,\ &quot;,\ &#x27;y&#x27;\)\nText&quot;; console.log(s); alert(s);" xlink:title="Text">
<ellipse fill="none" stroke="black" cx="317.08" cy="-396" rx="27" ry="18"/>
<text text-anchor="middle" x="317.08" y="-392.3" font-family="Times New Roman,serif" font-size="14.00">y</text>
</a>
</g>
</g>
<!-- 5&#45;&gt;y_18 -->
<g id="edge17" class="edge">
<title>5&#45;&gt;y_18</title>
<path fill="none" stroke="black" d="M200.49,-396C224.34,-396 255.69,-396 279.73,-396"/>
<polygon fill="black" stroke="black" points="279.87,-399.5 289.87,-396 279.87,-392.5 279.87,-399.5"/>
</g>
<!-- z_19 -->
<g id="node19" class="node">
<title>z_19</title>
<g id="a_node19"><a xlink:href="javascript:s=&quot;\(&quot;&#x27;base&#x27;,\ &quot;,\ &#x27;z&#x27;\)\nText&quot;; console.log(s); alert(s);" xlink:title="Text">
<ellipse fill="none" stroke="black" cx="317.08" cy="-342" rx="27" ry="18"/>
<text text-anchor="middle" x="317.08" y="-338.3" font-family="Times New Roman,serif" font-size="14.00">z</text>
</a>
</g>
</g>
<!-- 5&#45;&gt;z_19 -->
<g id="edge18" class="edge">
<title>5&#45;&gt;z_19</title>
<path fill="none" stroke="black" d="M194.21,-385.59C219.74,-376.46 256.82,-363.19 283.37,-353.7"/>
<polygon fill="black" stroke="black" points="284.75,-356.92 292.99,-350.26 282.39,-350.33 284.75,-356.92"/>
</g>
<!-- label_20 -->
<g id="node20" class="node">
<title>label_20</title>
<g id="a_node20"><a xlink:href="javascript:s=&quot;\(&quot;&#x27;base&#x27;,\ &quot;,\ &#x27;label&#x27;\)\nText&quot;; console.log(s); alert(s);" xlink:title="Text">
<ellipse fill="none" stroke="black" cx="317.08" cy="-288" rx="27.1" ry="18"/>
<text text-anchor="middle" x="317.08" y="-284.3" font-family="Times New Roman,serif" font-size="14.00">label</text>
</a>
</g>
</g>
<!-- 5&#45;&gt;label_20 -->
<g id="edge19" class="edge">
<title>5&#45;&gt;label_20</title>
<path fill="none" stroke="black" d="M184.52,-380.97C206.12,-364.4 242.19,-337.16 274.19,-315 278.61,-311.94 283.35,-308.77 288,-305.73"/>
<polygon fill="black" stroke="black" points="290.22,-308.47 296.72,-300.1 286.42,-302.59 290.22,-308.47"/>
</g>
<!-- origin_7 -->
<g id="node7" class="node">
<title>origin_7</title>
<g id="a_node7"><a xlink:href="javascript:s=&quot;\(&quot;&#x27;base&#x27;,\ &quot;,\ &#x27;coords&#x27;,\ &#x27;origin&#x27;\)\nCoordinatesCage&quot;; console.log(s); alert(s);" xlink:title="CoordinatesCage">
<ellipse fill="none" stroke="black" cx="436.93" cy="-612" rx="31.4" ry="18"/>
<text text-anchor="middle" x="436.93" y="-608.3" font-family="Times New Roman,serif" font-size="14.00">origin</text>
</a>
</g>
</g>
<!-- coords_6&#45;&gt;origin_7 -->
<g id="edge6" class="edge">
<title>coords_6&#45;&gt;origin_7</title>
<path fill="none" stroke="black" d="M342.39,-517.28C348.51,-521.24 354.8,-525.9 359.98,-531 380.53,-551.24 375.65,-564.54 395.98,-585 398.97,-588.01 402.33,-590.88 405.82,-593.55"/>
<polygon fill="black" stroke="black" points="403.84,-596.45 414.02,-599.41 407.91,-590.75 403.84,-596.45"/>
</g>
<!-- x_arrow_8 -->
<g id="node8" class="node">
<title>x_arrow_8</title>
<g id="a_node8"><a xlink:href="javascript:s=&quot;\(&quot;&#x27;base&#x27;,\ &quot;,\ &#x27;coords&#x27;,\ &#x27;x_arrow&#x27;\)\nArrow&quot;; console.log(s); alert(s);" xlink:title="Arrow">
<ellipse fill="none" stroke="black" cx="436.93" cy="-558" rx="40.89" ry="18"/>
<text text-anchor="middle" x="436.93" y="-554.3" font-family="Times New Roman,serif" font-size="14.00">x_arrow</text>
</a>
</g>
</g>
<!-- coords_6&#45;&gt;x_arrow_8 -->
<g id="edge7" class="edge">
<title>coords_6&#45;&gt;x_arrow_8</title>
<path fill="none" stroke="black" d="M344.53,-516.12C360.45,-523.41 380.96,-532.81 398.52,-540.86"/>
<polygon fill="black" stroke="black" points="397.38,-544.19 407.93,-545.17 400.29,-537.82 397.38,-544.19"/>
</g>
<!-- y_arrow_11 -->
<g id="node11" class="node">
<title>y_arrow_11</title>
<g id="a_node11"><a xlink:href="javascript:s=&quot;\(&quot;&#x27;base&#x27;,\ &quot;,\ &#x27;coords&#x27;,\ &#x27;y_arrow&#x27;\)\nArrow&quot;; console.log(s); alert(s);" xlink:title="Arrow">
<ellipse fill="none" stroke="black" cx="436.93" cy="-504" rx="40.89" ry="18"/>
<text text-anchor="middle" x="436.93" y="-500.3" font-family="Times New Roman,serif" font-size="14.00">y_arrow</text>
</a>
</g>
</g>
<!-- coords_6&#45;&gt;y_arrow_11 -->
<g id="edge10" class="edge">
<title>coords_6&#45;&gt;y_arrow_11</title>
<path fill="none" stroke="black" d="M353.76,-504C363.82,-504 374.96,-504 385.7,-504"/>
<polygon fill="black" stroke="black" points="385.84,-507.5 395.84,-504 385.84,-500.5 385.84,-507.5"/>
</g>
<!-- z_arrow_14 -->
<g id="node14" class="node">
<title>z_arrow_14</title>
<g id="a_node14"><a xlink:href="javascript:s=&quot;\(&quot;&#x27;base&#x27;,\ &quot;,\ &#x27;coords&#x27;,\ &#x27;z_arrow&#x27;\)\nArrow&quot;; console.log(s); alert(s);" xlink:title="Arrow">
<ellipse fill="none" stroke="black" cx="436.93" cy="-396" rx="40.09" ry="18"/>
<text text-anchor="middle" x="436.93" y="-392.3" font-family="Times New Roman,serif" font-size="14.00">z_arrow</text>
</a>
</g>
</g>
<!-- coords_6&#45;&gt;z_arrow_14 -->
<g id="edge13" class="edge">
<title>coords_6&#45;&gt;z_arrow_14</title>
<path fill="none" stroke="black" d="M341.41,-490.4C347.66,-486.38 354.26,-481.77 359.98,-477 380.46,-459.92 400.99,-437.64 415.53,-420.77"/>
<polygon fill="black" stroke="black" points="418.35,-422.86 422.16,-412.97 413.02,-418.33 418.35,-422.86"/>
</g>
<!-- stem_9 -->
<g id="node9" class="node">
<title>stem_9</title>
<g id="a_node9"><a xlink:href="javascript:s=&quot;\(&quot;&#x27;base&#x27;,\ &quot;,\ &#x27;coords&#x27;,\ &#x27;x_arrow&#x27;,\ &#x27;stem&#x27;\)\nCone&quot;; console.log(s); alert(s);" xlink:title="Cone">
<ellipse fill="none" stroke="black" cx="541.82" cy="-612" rx="27.9" ry="18"/>
<text text-anchor="middle" x="541.82" y="-608.3" font-family="Times New Roman,serif" font-size="14.00">stem</text>
</a>
</g>
</g>
<!-- x_arrow_8&#45;&gt;stem_9 -->
<g id="edge8" class="edge">
<title>x_arrow_8&#45;&gt;stem_9</title>
<path fill="none" stroke="black" d="M463.89,-571.63C478.05,-579.06 495.66,-588.3 510.46,-596.07"/>
<polygon fill="black" stroke="black" points="509.23,-599.37 519.71,-600.92 512.48,-593.18 509.23,-599.37"/>
</g>
<!-- head_10 -->
<g id="node10" class="node">
<title>head_10</title>
<g id="a_node10"><a xlink:href="javascript:s=&quot;\(&quot;&#x27;base&#x27;,\ &quot;,\ &#x27;coords&#x27;,\ &#x27;x_arrow&#x27;,\ &#x27;head&#x27;\)\nCone&quot;; console.log(s); alert(s);" xlink:title="Cone">
<ellipse fill="none" stroke="black" cx="541.82" cy="-558" rx="27.9" ry="18"/>
<text text-anchor="middle" x="541.82" y="-554.3" font-family="Times New Roman,serif" font-size="14.00">head</text>
</a>
</g>
</g>
<!-- x_arrow_8&#45;&gt;head_10 -->
<g id="edge9" class="edge">
<title>x_arrow_8&#45;&gt;head_10</title>
<path fill="none" stroke="black" d="M478,-558C486.41,-558 495.25,-558 503.55,-558"/>
<polygon fill="black" stroke="black" points="503.71,-561.5 513.71,-558 503.71,-554.5 503.71,-561.5"/>
</g>
<!-- stem_12 -->
<g id="node12" class="node">
<title>stem_12</title>
<g id="a_node12"><a xlink:href="javascript:s=&quot;\(&quot;&#x27;base&#x27;,\ &quot;,\ &#x27;coords&#x27;,\ &#x27;y_arrow&#x27;,\ &#x27;stem&#x27;\)\nCone&quot;; console.log(s); alert(s);" xlink:title="Cone">
<ellipse fill="none" stroke="black" cx="541.82" cy="-504" rx="27.9" ry="18"/>
<text text-anchor="middle" x="541.82" y="-500.3" font-family="Times New Roman,serif" font-size="14.00">stem</text>
</a>
</g>
</g>
<!-- y_arrow_11&#45;&gt;stem_12 -->
<g id="edge11" class="edge">
<title>y_arrow_11&#45;&gt;stem_12</title>
<path fill="none" stroke="black" d="M478,-504C486.41,-504 495.25,-504 503.55,-504"/>
<polygon fill="black" stroke="black" points="503.71,-507.5 513.71,-504 503.71,-500.5 503.71,-507.5"/>
</g>
<!-- head_13 -->
<g id="node13" class="node">
<title>head_13</title>
<g id="a_node13"><a xlink:href="javascript:s=&quot;\(&quot;&#x27;base&#x27;,\ &quot;,\ &#x27;coords&#x27;,\ &#x27;y_arrow&#x27;,\ &#x27;head&#x27;\)\nCone&quot;; console.log(s); alert(s);" xlink:title="Cone">
<ellipse fill="none" stroke="black" cx="541.82" cy="-450" rx="27.9" ry="18"/>
<text text-anchor="middle" x="541.82" y="-446.3" font-family="Times New Roman,serif" font-size="14.00">head</text>
</a>
</g>
</g>
<!-- y_arrow_11&#45;&gt;head_13 -->
<g id="edge12" class="edge">
<title>y_arrow_11&#45;&gt;head_13</title>
<path fill="none" stroke="black" d="M463.89,-490.37C478.05,-482.94 495.66,-473.7 510.46,-465.93"/>
<polygon fill="black" stroke="black" points="512.48,-468.82 519.71,-461.08 509.23,-462.63 512.48,-468.82"/>
</g>
<!-- stem_15 -->
<g id="node15" class="node">
<title>stem_15</title>
<g id="a_node15"><a xlink:href="javascript:s=&quot;\(&quot;&#x27;base&#x27;,\ &quot;,\ &#x27;coords&#x27;,\ &#x27;z_arrow&#x27;,\ &#x27;stem&#x27;\)\nCone&quot;; console.log(s); alert(s);" xlink:title="Cone">
<ellipse fill="none" stroke="black" cx="541.82" cy="-396" rx="27.9" ry="18"/>
<text text-anchor="middle" x="541.82" y="-392.3" font-family="Times New Roman,serif" font-size="14.00">stem</text>
</a>
</g>
</g>
<!-- z_arrow_14&#45;&gt;stem_15 -->
<g id="edge14" class="edge">
<title>z_arrow_14&#45;&gt;stem_15</title>
<path fill="none" stroke="black" d="M477.41,-396C486.04,-396 495.13,-396 503.66,-396"/>
<polygon fill="black" stroke="black" points="503.71,-399.5 513.71,-396 503.71,-392.5 503.71,-399.5"/>
</g>
<!-- head_16 -->
<g id="node16" class="node">
<title>head_16</title>
<g id="a_node16"><a xlink:href="javascript:s=&quot;\(&quot;&#x27;base&#x27;,\ &quot;,\ &#x27;coords&#x27;,\ &#x27;z_arrow&#x27;,\ &#x27;head&#x27;\)\nCone&quot;; console.log(s); alert(s);" xlink:title="Cone">
<ellipse fill="none" stroke="black" cx="541.82" cy="-342" rx="27.9" ry="18"/>
<text text-anchor="middle" x="541.82" y="-338.3" font-family="Times New Roman,serif" font-size="14.00">head</text>
</a>
</g>
</g>
<!-- z_arrow_14&#45;&gt;head_16 -->
<g id="edge15" class="edge">
<title>z_arrow_14&#45;&gt;head_16</title>
<path fill="none" stroke="black" d="M463.62,-382.51C477.92,-375.01 495.79,-365.63 510.73,-357.79"/>
<polygon fill="black" stroke="black" points="512.37,-360.88 519.6,-353.14 509.12,-354.68 512.37,-360.88"/>
</g>
<!-- coords_22 -->
<g id="node22" class="node">
<title>coords_22</title>
<g id="a_node22"><a xlink:href="javascript:s=&quot;\(&quot;&#x27;surface&#x27;,\ angle=0&quot;,\ &#x27;coords&#x27;\)\nCoordinates&quot;; console.log(s); alert(s);" xlink:title="Coordinates">
<ellipse fill="none" stroke="black" cx="317.08" cy="-234" rx="36.29" ry="18"/>
<text text-anchor="middle" x="317.08" y="-230.3" font-family="Times New Roman,serif" font-size="14.00">coords</text>
</a>
</g>
</g>
<!-- 21&#45;&gt;coords_22 -->
<g id="edge21" class="edge">
<title>21&#45;&gt;coords_22</title>
<path fill="none" stroke="black" d="M195.65,-169.39C220.82,-182.9 256.47,-202.02 282.45,-215.96"/>
<polygon fill="black" stroke="black" points="281.08,-219.2 291.55,-220.84 284.39,-213.03 281.08,-219.2"/>
</g>
<!-- x_33 -->
<g id="node33" class="node">
<title>x_33</title>
<g id="a_node33"><a xlink:href="javascript:s=&quot;\(&quot;&#x27;surface&#x27;,\ angle=0&quot;,\ &#x27;x&#x27;\)\nText&quot;; console.log(s); alert(s);" xlink:title="Text">
<ellipse fill="none" stroke="black" cx="317.08" cy="-180" rx="27" ry="18"/>
<text text-anchor="middle" x="317.08" y="-176.3" font-family="Times New Roman,serif" font-size="14.00">x</text>
</a>
</g>
</g>
<!-- 21&#45;&gt;x_33 -->
<g id="edge32" class="edge">
<title>21&#45;&gt;x_33</title>
<path fill="none" stroke="black" d="M224.34,-163.59C243.49,-167.02 264.12,-170.71 280.95,-173.72"/>
<polygon fill="black" stroke="black" points="280.43,-177.18 290.89,-175.5 281.66,-170.29 280.43,-177.18"/>
</g>
<!-- y_34 -->
<g id="node34" class="node">
<title>y_34</title>
<g id="a_node34"><a xlink:href="javascript:s=&quot;\(&quot;&#x27;surface&#x27;,\ angle=0&quot;,\ &#x27;y&#x27;\)\nText&quot;; console.log(s); alert(s);" xlink:title="Text">
<ellipse fill="none" stroke="black" cx="317.08" cy="-126" rx="27" ry="18"/>
<text text-anchor="middle" x="317.08" y="-122.3" font-family="Times New Roman,serif" font-size="14.00">y</text>
</a>
</g>
</g>
<!-- 21&#45;&gt;y_34 -->
<g id="edge33" class="edge">
<title>21&#45;&gt;y_34</title>
<path fill="none" stroke="black" d="M224.34,-142.41C243.49,-138.98 264.12,-135.29 280.95,-132.28"/>
<polygon fill="black" stroke="black" points="281.66,-135.71 290.89,-130.5 280.43,-128.82 281.66,-135.71"/>
</g>
<!-- z_35 -->
<g id="node35" class="node">
<title>z_35</title>
<g id="a_node35"><a xlink:href="javascript:s=&quot;\(&quot;&#x27;surface&#x27;,\ angle=0&quot;,\ &#x27;z&#x27;\)\nText&quot;; console.log(s); alert(s);" xlink:title="Text">
<ellipse fill="none" stroke="black" cx="317.08" cy="-72" rx="27" ry="18"/>
<text text-anchor="middle" x="317.08" y="-68.3" font-family="Times New Roman,serif" font-size="14.00">z</text>
</a>
</g>
</g>
<!-- 21&#45;&gt;z_35 -->
<g id="edge34" class="edge">
<title>21&#45;&gt;z_35</title>
<path fill="none" stroke="black" d="M195.65,-136.61C222.05,-122.45 259.98,-102.1 286.19,-88.04"/>
<polygon fill="black" stroke="black" points="288.11,-90.98 295.27,-83.17 284.8,-84.81 288.11,-90.98"/>
</g>
<!-- label_36 -->
<g id="node36" class="node">
<title>label_36</title>
<g id="a_node36"><a xlink:href="javascript:s=&quot;\(&quot;&#x27;surface&#x27;,\ angle=0&quot;,\ &#x27;label&#x27;\)\nText&quot;; console.log(s); alert(s);" xlink:title="Text">
<ellipse fill="none" stroke="black" cx="317.08" cy="-18" rx="27.1" ry="18"/>
<text text-anchor="middle" x="317.08" y="-14.3" font-family="Times New Roman,serif" font-size="14.00">label</text>
</a>
</g>
</g>
<!-- 21&#45;&gt;label_36 -->
<g id="edge35" class="edge">
<title>21&#45;&gt;label_36</title>
<path fill="none" stroke="black" d="M180.72,-135.41C201.05,-113.04 238.23,-73.86 274.19,-45 278.3,-41.7 282.83,-38.44 287.34,-35.39"/>
<polygon fill="black" stroke="black" points="289.42,-38.21 295.89,-29.82 285.6,-32.35 289.42,-38.21"/>
</g>
<!-- origin_23 -->
<g id="node23" class="node">
<title>origin_23</title>
<g id="a_node23"><a xlink:href="javascript:s=&quot;\(&quot;&#x27;surface&#x27;,\ angle=0&quot;,\ &#x27;coords&#x27;,\ &#x27;origin&#x27;\)\nCoordinatesCage&quot;; console.log(s); alert(s);" xlink:title="CoordinatesCage">
<ellipse fill="none" stroke="black" cx="436.93" cy="-288" rx="31.4" ry="18"/>
<text text-anchor="middle" x="436.93" y="-284.3" font-family="Times New Roman,serif" font-size="14.00">origin</text>
</a>
</g>
</g>
<!-- coords_22&#45;&gt;origin_23 -->
<g id="edge22" class="edge">
<title>coords_22&#45;&gt;origin_23</title>
<path fill="none" stroke="black" d="M344.53,-246.12C361.75,-254.01 384.35,-264.37 402.77,-272.81"/>
<polygon fill="black" stroke="black" points="401.42,-276.04 411.97,-277.02 404.34,-269.68 401.42,-276.04"/>
</g>
<!-- x_arrow_24 -->
<g id="node24" class="node">
<title>x_arrow_24</title>
<g id="a_node24"><a xlink:href="javascript:s=&quot;\(&quot;&#x27;surface&#x27;,\ angle=0&quot;,\ &#x27;coords&#x27;,\ &#x27;x_arrow&#x27;\)\nArrow&quot;; console.log(s); alert(s);" xlink:title="Arrow">
<ellipse fill="none" stroke="black" cx="436.93" cy="-234" rx="40.89" ry="18"/>
<text text-anchor="middle" x="436.93" y="-230.3" font-family="Times New Roman,serif" font-size="14.00">x_arrow</text>
</a>
</g>
</g>
<!-- coords_22&#45;&gt;x_arrow_24 -->
<g id="edge23" class="edge">
<title>coords_22&#45;&gt;x_arrow_24</title>
<path fill="none" stroke="black" d="M353.76,-234C363.82,-234 374.96,-234 385.7,-234"/>
<polygon fill="black" stroke="black" points="385.84,-237.5 395.84,-234 385.84,-230.5 385.84,-237.5"/>
</g>
<!-- y_arrow_27 -->
<g id="node27" class="node">
<title>y_arrow_27</title>
<g id="a_node27"><a xlink:href="javascript:s=&quot;\(&quot;&#x27;surface&#x27;,\ angle=0&quot;,\ &#x27;coords&#x27;,\ &#x27;y_arrow&#x27;\)\nArrow&quot;; console.log(s); alert(s);" xlink:title="Arrow">
<ellipse fill="none" stroke="black" cx="436.93" cy="-180" rx="40.89" ry="18"/>
<text text-anchor="middle" x="436.93" y="-176.3" font-family="Times New Roman,serif" font-size="14.00">y_arrow</text>
</a>
</g>
</g>
<!-- coords_22&#45;&gt;y_arrow_27 -->
<g id="edge26" class="edge">
<title>coords_22&#45;&gt;y_arrow_27</title>
<path fill="none" stroke="black" d="M344.53,-221.88C360.45,-214.59 380.96,-205.19 398.52,-197.14"/>
<polygon fill="black" stroke="black" points="400.29,-200.18 407.93,-192.83 397.38,-193.81 400.29,-200.18"/>
</g>
<!-- z_arrow_30 -->
<g id="node30" class="node">
<title>z_arrow_30</title>
<g id="a_node30"><a xlink:href="javascript:s=&quot;\(&quot;&#x27;surface&#x27;,\ angle=0&quot;,\ &#x27;coords&#x27;,\ &#x27;z_arrow&#x27;\)\nArrow&quot;; console.log(s); alert(s);" xlink:title="Arrow">
<ellipse fill="none" stroke="black" cx="436.93" cy="-72" rx="40.09" ry="18"/>
<text text-anchor="middle" x="436.93" y="-68.3" font-family="Times New Roman,serif" font-size="14.00">z_arrow</text>
</a>
</g>
</g>
<!-- coords_22&#45;&gt;z_arrow_30 -->
<g id="edge29" class="edge">
<title>coords_22&#45;&gt;z_arrow_30</title>
<path fill="none" stroke="black" d="M342.66,-220.98C348.77,-217.02 355,-212.29 359.98,-207 376.16,-189.82 405.85,-132.75 422.92,-98.56"/>
<polygon fill="black" stroke="black" points="426.07,-100.08 427.38,-89.57 419.8,-96.97 426.07,-100.08"/>
</g>
<!-- stem_25 -->
<g id="node25" class="node">
<title>stem_25</title>
<g id="a_node25"><a xlink:href="javascript:s=&quot;\(&quot;&#x27;surface&#x27;,\ angle=0&quot;,\ &#x27;coords&#x27;,\ &#x27;x_arrow&#x27;,\ &#x27;stem&#x27;\)\nCone&quot;; console.log(s); alert(s);" xlink:title="Cone">
<ellipse fill="none" stroke="black" cx="541.82" cy="-288" rx="27.9" ry="18"/>
<text text-anchor="middle" x="541.82" y="-284.3" font-family="Times New Roman,serif" font-size="14.00">stem</text>
</a>
</g>
</g>
<!-- x_arrow_24&#45;&gt;stem_25 -->
<g id="edge24" class="edge">
<title>x_arrow_24&#45;&gt;stem_25</title>
<path fill="none" stroke="black" d="M463.89,-247.63C478.05,-255.06 495.66,-264.3 510.46,-272.07"/>
<polygon fill="black" stroke="black" points="509.23,-275.37 519.71,-276.92 512.48,-269.18 509.23,-275.37"/>
</g>
<!-- head_26 -->
<g id="node26" class="node">
<title>head_26</title>
<g id="a_node26"><a xlink:href="javascript:s=&quot;\(&quot;&#x27;surface&#x27;,\ angle=0&quot;,\ &#x27;coords&#x27;,\ &#x27;x_arrow&#x27;,\ &#x27;head&#x27;\)\nCone&quot;; console.log(s); alert(s);" xlink:title="Cone">
<ellipse fill="none" stroke="black" cx="541.82" cy="-234" rx="27.9" ry="18"/>
<text text-anchor="middle" x="541.82" y="-230.3" font-family="Times New Roman,serif" font-size="14.00">head</text>
</a>
</g>
</g>
<!-- x_arrow_24&#45;&gt;head_26 -->
<g id="edge25" class="edge">
<title>x_arrow_24&#45;&gt;head_26</title>
<path fill="none" stroke="black" d="M478,-234C486.41,-234 495.25,-234 503.55,-234"/>
<polygon fill="black" stroke="black" points="503.71,-237.5 513.71,-234 503.71,-230.5 503.71,-237.5"/>
</g>
<!-- stem_28 -->
<g id="node28" class="node">
<title>stem_28</title>
<g id="a_node28"><a xlink:href="javascript:s=&quot;\(&quot;&#x27;surface&#x27;,\ angle=0&quot;,\ &#x27;coords&#x27;,\ &#x27;y_arrow&#x27;,\ &#x27;stem&#x27;\)\nCone&quot;; console.log(s); alert(s);" xlink:title="Cone">
<ellipse fill="none" stroke="black" cx="541.82" cy="-180" rx="27.9" ry="18"/>
<text text-anchor="middle" x="541.82" y="-176.3" font-family="Times New Roman,serif" font-size="14.00">stem</text>
</a>
</g>
</g>
<!-- y_arrow_27&#45;&gt;stem_28 -->
<g id="edge27" class="edge">
<title>y_arrow_27&#45;&gt;stem_28</title>
<path fill="none" stroke="black" d="M478,-180C486.41,-180 495.25,-180 503.55,-180"/>
<polygon fill="black" stroke="black" points="503.71,-183.5 513.71,-180 503.71,-176.5 503.71,-183.5"/>
</g>
<!-- head_29 -->
<g id="node29" class="node">
<title>head_29</title>
<g id="a_node29"><a xlink:href="javascript:s=&quot;\(&quot;&#x27;surface&#x27;,\ angle=0&quot;,\ &#x27;coords&#x27;,\ &#x27;y_arrow&#x27;,\ &#x27;head&#x27;\)\nCone&quot;; console.log(s); alert(s);" xlink:title="Cone">
<ellipse fill="none" stroke="black" cx="541.82" cy="-126" rx="27.9" ry="18"/>
<text text-anchor="middle" x="541.82" y="-122.3" font-family="Times New Roman,serif" font-size="14.00">head</text>
</a>
</g>
</g>
<!-- y_arrow_27&#45;&gt;head_29 -->
<g id="edge28" class="edge">
<title>y_arrow_27&#45;&gt;head_29</title>
<path fill="none" stroke="black" d="M463.89,-166.37C478.05,-158.94 495.66,-149.7 510.46,-141.93"/>
<polygon fill="black" stroke="black" points="512.48,-144.82 519.71,-137.08 509.23,-138.63 512.48,-144.82"/>
</g>
<!-- stem_31 -->
<g id="node31" class="node">
<title>stem_31</title>
<g id="a_node31"><a xlink:href="javascript:s=&quot;\(&quot;&#x27;surface&#x27;,\ angle=0&quot;,\ &#x27;coords&#x27;,\ &#x27;z_arrow&#x27;,\ &#x27;stem&#x27;\)\nCone&quot;; console.log(s); alert(s);" xlink:title="Cone">
<ellipse fill="none" stroke="black" cx="541.82" cy="-72" rx="27.9" ry="18"/>
<text text-anchor="middle" x="541.82" y="-68.3" font-family="Times New Roman,serif" font-size="14.00">stem</text>
</a>
</g>
</g>
<!-- z_arrow_30&#45;&gt;stem_31 -->
<g id="edge30" class="edge">
<title>z_arrow_30&#45;&gt;stem_31</title>
<path fill="none" stroke="black" d="M477.41,-72C486.04,-72 495.13,-72 503.66,-72"/>
<polygon fill="black" stroke="black" points="503.71,-75.5 513.71,-72 503.71,-68.5 503.71,-75.5"/>
</g>
<!-- head_32 -->
<g id="node32" class="node">
<title>head_32</title>
<g id="a_node32"><a xlink:href="javascript:s=&quot;\(&quot;&#x27;surface&#x27;,\ angle=0&quot;,\ &#x27;coords&#x27;,\ &#x27;z_arrow&#x27;,\ &#x27;head&#x27;\)\nCone&quot;; console.log(s); alert(s);" xlink:title="Cone">
<ellipse fill="none" stroke="black" cx="541.82" cy="-18" rx="27.9" ry="18"/>
<text text-anchor="middle" x="541.82" y="-14.3" font-family="Times New Roman,serif" font-size="14.00">head</text>
</a>
</g>
</g>
<!-- z_arrow_30&#45;&gt;head_32 -->
<g id="edge31" class="edge">
<title>z_arrow_30&#45;&gt;head_32</title>
<path fill="none" stroke="black" d="M463.62,-58.51C477.92,-51.01 495.79,-41.63 510.73,-33.79"/>
<polygon fill="black" stroke="black" points="512.37,-36.88 519.6,-29.14 509.12,-30.68 512.37,-36.88"/>
</g>
</g>
</svg>
