solid OpenSCAD_Model
  facet normal 0 0 1
    outer loop
      vertex 30 0 0
      vertex 29.85092326096204 2.9870353978744992 0
      vertex 0 0 0
    endloop
  endfacet
  facet normal -0.9987569212189223 -0.04984588566069754 0
    outer loop
      vertex 30 0 0
      vertex 29.85092326096204 2.9870353978744992 20
      vertex 29.85092326096204 2.9870353978744992 0
    endloop
  endfacet
  facet normal -0.9987569212189223 -0.04984588566069754 0
    outer loop
      vertex 29.85092326096204 2.9870353978744992 20
      vertex 30 0 0
      vertex 30 0 20
    endloop
  endfacet
  facet normal 0 0 -1
    outer loop
      vertex 0 0 20
      vertex 29.85092326096204 2.9870353978744992 20
      vertex 30 0 20
    endloop
  endfacet
  facet normal 0 0 1
    outer loop
      vertex 29.85092326096204 2.9870353978744992 0
      vertex 29.405174635456316 5.944384295981926 0
      vertex 0 0 0
    endloop
  endfacet
  facet normal -0.9888308262251285 -0.14904226617617397 0
    outer loop
      vertex 29.85092326096204 2.9870353978744992 0
      vertex 29.405174635456316 5.944384295981926 20
      vertex 29.405174635456316 5.944384295981926 0
    endloop
  endfacet
  facet normal -0.9888308262251285 -0.14904226617617397 0
    outer loop
      vertex 29.405174635456316 5.944384295981926 20
      vertex 29.85092326096204 2.9870353978744992 0
      vertex 29.85092326096204 2.9870353978744992 20
    endloop
  endfacet
  facet normal 0 0 -1
    outer loop
      vertex 0 0 20
      vertex 29.405174635456316 5.944384295981926 20
      vertex 29.85092326096204 2.9870353978744992 20
    endloop
  endfacet
  facet normal 0 0 1
    outer loop
      vertex 29.405174635456316 5.944384295981926 0
      vertex 28.667184173584225 8.842655232327125 0
      vertex 0 0 0
    endloop
  endfacet
  facet normal -0.9690772862290782 -0.24675739769029284 0
    outer loop
      vertex 29.405174635456316 5.944384295981926 0
      vertex 28.667184173584225 8.842655232327125 20
      vertex 28.667184173584225 8.842655232327125 0
    endloop
  endfacet
  facet normal -0.9690772862290782 -0.24675739769029284 0
    outer loop
      vertex 28.667184173584225 8.842655232327125 20
      vertex 29.405174635456316 5.944384295981926 0
      vertex 29.405174635456316 5.944384295981926 20
    endloop
  endfacet
  facet normal 0 0 -1
    outer loop
      vertex 0 0 20
      vertex 28.667184173584225 8.842655232327125 20
      vertex 29.405174635456316 5.944384295981926 20
    endloop
  endfacet
  facet normal 0 0 1
    outer loop
      vertex 28.667184173584225 8.842655232327125 0
      vertex 27.64428635611223 11.653043888240841 0
      vertex 0 0 0
    endloop
  endfacet
  facet normal -0.939692620785908 -0.34202014332566977 0
    outer loop
      vertex 28.667184173584225 8.842655232327125 0
      vertex 27.64428635611223 11.653043888240841 20
      vertex 27.64428635611223 11.653043888240841 0
    endloop
  endfacet
  facet normal -0.939692620785908 -0.34202014332566977 0
    outer loop
      vertex 27.64428635611223 11.653043888240841 20
      vertex 28.667184173584225 8.842655232327125 0
      vertex 28.667184173584225 8.842655232327125 20
    endloop
  endfacet
  facet normal 0 0 -1
    outer loop
      vertex 0 0 20
      vertex 27.64428635611223 11.653043888240841 20
      vertex 28.667184173584225 8.842655232327125 20
    endloop
  endfacet
  facet normal 0 0 1
    outer loop
      vertex 27.64428635611223 11.653043888240841 0
      vertex 26.346647201106855 14.347619358639546 0
      vertex 0 0 0
    endloop
  endfacet
  facet normal -0.900968867902419 -0.43388373911755823 0
    outer loop
      vertex 27.64428635611223 11.653043888240841 0
      vertex 26.346647201106855 14.347619358639546 20
      vertex 26.346647201106855 14.347619358639546 0
    endloop
  endfacet
  facet normal -0.900968867902419 -0.43388373911755823 0
    outer loop
      vertex 26.346647201106855 14.347619358639546 20
      vertex 27.64428635611223 11.653043888240841 0
      vertex 27.64428635611223 11.653043888240841 20
    endloop
  endfacet
  facet normal 0 0 -1
    outer loop
      vertex 0 0 20
      vertex 26.346647201106855 14.347619358639546 20
      vertex 27.64428635611223 11.653043888240841 20
    endloop
  endfacet
  facet normal 0 0 1
    outer loop
      vertex 26.346647201106855 14.347619358639546 0
      vertex 24.787163229479848 16.899601741908658 0
      vertex 0 0 0
    endloop
  endfacet
  facet normal -0.8532908816321558 -0.5214352033794978 0
    outer loop
      vertex 26.346647201106855 14.347619358639546 0
      vertex 24.787163229479848 16.899601741908658 20
      vertex 24.787163229479848 16.899601741908658 0
    endloop
  endfacet
  facet normal -0.8532908816321558 -0.5214352033794978 0
    outer loop
      vertex 24.787163229479848 16.899601741908658 20
      vertex 26.346647201106855 14.347619358639546 0
      vertex 26.346647201106855 14.347619358639546 20
    endloop
  endfacet
  facet normal 0 0 -1
    outer loop
      vertex 0 0 20
      vertex 24.787163229479848 16.899601741908658 20
      vertex 26.346647201106855 14.347619358639546 20
    endloop
  endfacet
  facet normal 0 0 1
    outer loop
      vertex 24.787163229479848 16.899601741908658 0
      vertex 22.98133329356934 19.283628290596177 0
      vertex 0 0 0
    endloop
  endfacet
  facet normal -0.7971325072229217 -0.6038044103254782 0
    outer loop
      vertex 24.787163229479848 16.899601741908658 0
      vertex 22.98133329356934 19.283628290596177 20
      vertex 22.98133329356934 19.283628290596177 0
    endloop
  endfacet
  facet normal -0.7971325072229217 -0.6038044103254782 0
    outer loop
      vertex 22.98133329356934 19.283628290596177 20
      vertex 24.787163229479848 16.899601741908658 0
      vertex 24.787163229479848 16.899601741908658 20
    endloop
  endfacet
  facet normal 0 0 -1
    outer loop
      vertex 0 0 20
      vertex 22.98133329356934 19.283628290596177 20
      vertex 24.787163229479848 16.899601741908658 20
    endloop
  endfacet
  facet normal 0 0 1
    outer loop
      vertex 22.98133329356934 19.283628290596177 0
      vertex 20.947104542582185 21.476005477791553 0
      vertex 0 0 0
    endloop
  endfacet
  facet normal -0.7330518718298271 -0.6801727377709186 0
    outer loop
      vertex 22.98133329356934 19.283628290596177 0
      vertex 20.947104542582185 21.476005477791553 20
      vertex 20.947104542582185 21.476005477791553 0
    endloop
  endfacet
  facet normal -0.7330518718298271 -0.6801727377709186 0
    outer loop
      vertex 20.947104542582185 21.476005477791553 20
      vertex 22.98133329356934 19.283628290596177 0
      vertex 22.98133329356934 19.283628290596177 20
    endloop
  endfacet
  facet normal 0 0 -1
    outer loop
      vertex 0 0 20
      vertex 20.947104542582185 21.476005477791553 20
      vertex 22.98133329356934 19.283628290596177 20
    endloop
  endfacet
  facet normal 0 0 1
    outer loop
      vertex 20.947104542582185 21.476005477791553 0
      vertex 18.70469405576201 23.45494447404089 0
      vertex 0 0 0
    endloop
  endfacet
  facet normal -0.6616858375968588 -0.7497812029677345 0
    outer loop
      vertex 18.70469405576201 23.45494447404089 0
      vertex 20.947104542582185 21.476005477791553 20
      vertex 18.70469405576201 23.45494447404089 20
    endloop
  endfacet
  facet normal -0.6616858375968588 -0.7497812029677345 0
    outer loop
      vertex 20.947104542582185 21.476005477791553 20
      vertex 18.70469405576201 23.45494447404089 0
      vertex 20.947104542582185 21.476005477791553 0
    endloop
  endfacet
  facet normal 0 0 -1
    outer loop
      vertex 0 0 20
      vertex 18.70469405576201 23.45494447404089 20
      vertex 20.947104542582185 21.476005477791553 20
    endloop
  endfacet
  facet normal 0 0 1
    outer loop
      vertex 18.70469405576201 23.45494447404089 0
      vertex 16.276387915972784 25.200777694523143 0
      vertex 0 0 0
    endloop
  endfacet
  facet normal -0.5837436722347908 -0.8119380057158558 0
    outer loop
      vertex 16.276387915972784 25.200777694523143 0
      vertex 18.70469405576201 23.45494447404089 20
      vertex 16.276387915972784 25.200777694523143 20
    endloop
  endfacet
  facet normal -0.5837436722347908 -0.8119380057158558 0
    outer loop
      vertex 18.70469405576201 23.45494447404089 20
      vertex 16.276387915972784 25.200777694523143 0
      vertex 18.70469405576201 23.45494447404089 0
    endloop
  endfacet
  facet normal 0 0 -1
    outer loop
      vertex 0 0 20
      vertex 16.276387915972784 25.200777694523143 20
      vertex 18.70469405576201 23.45494447404089 20
    endloop
  endfacet
  facet normal 0 0 1
    outer loop
      vertex 16.276387915972784 25.200777694523143 0
      vertex 13.686319720594891 26.696154264344056 0
      vertex 0 0 0
    endloop
  endfacet
  facet normal -0.4999999999999996 -0.8660254037844389 0
    outer loop
      vertex 13.686319720594891 26.696154264344056 0
      vertex 16.276387915972784 25.200777694523143 20
      vertex 13.686319720594891 26.696154264344056 20
    endloop
  endfacet
  facet normal -0.4999999999999996 -0.8660254037844389 0
    outer loop
      vertex 16.276387915972784 25.200777694523143 20
      vertex 13.686319720594891 26.696154264344056 0
      vertex 16.276387915972784 25.200777694523143 0
    endloop
  endfacet
  facet normal 0 0 -1
    outer loop
      vertex 0 0 20
      vertex 13.686319720594891 26.696154264344056 20
      vertex 16.276387915972784 25.200777694523143 20
    endloop
  endfacet
  facet normal 0 0 1
    outer loop
      vertex 13.686319720594891 26.696154264344056 0
      vertex 10.960230730991857 27.926212459326123 0
      vertex 0 0 0
    endloop
  endfacet
  facet normal -0.4112871031306114 -0.9115058523116732 0
    outer loop
      vertex 10.960230730991857 27.926212459326123 0
      vertex 13.686319720594891 26.696154264344056 20
      vertex 10.960230730991857 27.926212459326123 20
    endloop
  endfacet
  facet normal -0.4112871031306114 -0.9115058523116732 0
    outer loop
      vertex 13.686319720594891 26.696154264344056 20
      vertex 10.960230730991857 27.926212459326123 0
      vertex 13.686319720594891 26.696154264344056 0
    endloop
  endfacet
  facet normal 0 0 -1
    outer loop
      vertex 0 0 20
      vertex 10.960230730991857 27.926212459326123 20
      vertex 13.686319720594891 26.696154264344056 20
    endloop
  endfacet
  facet normal 0 0 1
    outer loop
      vertex 10.960230730991857 27.926212459326123 0
      vertex 8.12521404429016 28.87872740850036 0
      vertex 0 0 0
    endloop
  endfacet
  facet normal -0.3184866502516852 -0.9479273461671315 0
    outer loop
      vertex 8.12521404429016 28.87872740850036 0
      vertex 10.960230730991857 27.926212459326123 20
      vertex 8.12521404429016 28.87872740850036 20
    endloop
  endfacet
  facet normal -0.3184866502516852 -0.9479273461671315 0
    outer loop
      vertex 10.960230730991857 27.926212459326123 20
      vertex 8.12521404429016 28.87872740850036 0
      vertex 10.960230730991857 27.926212459326123 0
    endloop
  endfacet
  facet normal 0 0 -1
    outer loop
      vertex 0 0 20
      vertex 8.12521404429016 28.87872740850036 20
      vertex 10.960230730991857 27.926212459326123 20
    endloop
  endfacet
  facet normal 0 0 1
    outer loop
      vertex 8.12521404429016 28.87872740850036 0
      vertex 5.209445330007912 29.544232590366242 0
      vertex 0 0 0
    endloop
  endfacet
  facet normal -0.22252093395631478 -0.9749279121818235 0
    outer loop
      vertex 5.209445330007912 29.544232590366242 0
      vertex 8.12521404429016 28.87872740850036 20
      vertex 5.209445330007912 29.544232590366242 20
    endloop
  endfacet
  facet normal -0.22252093395631478 -0.9749279121818235 0
    outer loop
      vertex 8.12521404429016 28.87872740850036 20
      vertex 5.209445330007912 29.544232590366242 0
      vertex 8.12521404429016 28.87872740850036 0
    endloop
  endfacet
  facet normal 0 0 -1
    outer loop
      vertex 0 0 20
      vertex 5.209445330007912 29.544232590366242 20
      vertex 8.12521404429016 28.87872740850036 20
    endloop
  endfacet
  facet normal 0 0 1
    outer loop
      vertex 5.209445330007912 29.544232590366242 0
      vertex 2.241902807592732 29.916113915435403 0
      vertex 0 0 0
    endloop
  endfacet
  facet normal -0.12434370464748476 -0.9922392066001722 0
    outer loop
      vertex 2.241902807592732 29.916113915435403 0
      vertex 5.209445330007912 29.544232590366242 20
      vertex 2.241902807592732 29.916113915435403 20
    endloop
  endfacet
  facet normal -0.12434370464748476 -0.9922392066001722 0
    outer loop
      vertex 5.209445330007912 29.544232590366242 20
      vertex 2.241902807592732 29.916113915435403 0
      vertex 5.209445330007912 29.544232590366242 0
    endloop
  endfacet
  facet normal 0 0 -1
    outer loop
      vertex 0 0 20
      vertex 2.241902807592732 29.916113915435403 20
      vertex 5.209445330007912 29.544232590366242 20
    endloop
  endfacet
  facet normal 0 0 1
    outer loop
      vertex 2.241902807592732 29.916113915435403 0
      vertex -0.7479207521421807 29.990675460024487 0
      vertex 0 0 0
    endloop
  endfacet
  facet normal -0.02493069173807291 -0.9996891820008162 0
    outer loop
      vertex -0.7479207521421807 29.990675460024487 0
      vertex 2.241902807592732 29.916113915435403 20
      vertex -0.7479207521421807 29.990675460024487 20
    endloop
  endfacet
  facet normal -0.02493069173807291 -0.9996891820008162 0
    outer loop
      vertex 2.241902807592732 29.916113915435403 20
      vertex -0.7479207521421807 29.990675460024487 0
      vertex 2.241902807592732 29.916113915435403 0
    endloop
  endfacet
  facet normal 0 0 -1
    outer loop
      vertex 0 0 20
      vertex -0.7479207521421807 29.990675460024487 20
      vertex 2.241902807592732 29.916113915435403 20
    endloop
  endfacet
  facet normal 0 0 1
    outer loop
      vertex -0.7479207521421807 29.990675460024487 0
      vertex -3.7303111394245483 29.767176198005163 0
      vertex 0 0 0
    endloop
  endfacet
  facet normal 0.07473009358642355 -0.9972037971811801 0
    outer loop
      vertex -3.7303111394245483 29.767176198005163 0
      vertex -0.7479207521421807 29.990675460024487 20
      vertex -3.7303111394245483 29.767176198005163 20
    endloop
  endfacet
  facet normal 0.07473009358642355 -0.9972037971811801 0
    outer loop
      vertex -0.7479207521421807 29.990675460024487 20
      vertex -3.7303111394245483 29.767176198005163 0
      vertex -0.7479207521421807 29.990675460024487 0
    endloop
  endfacet
  facet normal 0 0 -1
    outer loop
      vertex 0 0 20
      vertex -3.7303111394245483 29.767176198005163 20
      vertex -0.7479207521421807 29.990675460024487 20
    endloop
  endfacet
  facet normal 0 0 1
    outer loop
      vertex -3.7303111394245483 29.767176198005163 0
      vertex -6.675628018689423 29.247837365454707 0
      vertex 0 0 0
    endloop
  endfacet
  facet normal 0.1736481776669312 -0.9848077530122078 0
    outer loop
      vertex -6.675628018689423 29.247837365454707 0
      vertex -3.7303111394245483 29.767176198005163 20
      vertex -6.675628018689423 29.247837365454707 20
    endloop
  endfacet
  facet normal 0.1736481776669312 -0.9848077530122078 0
    outer loop
      vertex -3.7303111394245483 29.767176198005163 20
      vertex -6.675628018689423 29.247837365454707 0
      vertex -3.7303111394245483 29.767176198005163 0
    endloop
  endfacet
  facet normal 0 0 -1
    outer loop
      vertex 0 0 20
      vertex -6.675628018689423 29.247837365454707 20
      vertex -3.7303111394245483 29.767176198005163 20
    endloop
  endfacet
  facet normal 0 0 1
    outer loop
      vertex -6.675628018689423 29.247837365454707 0
      vertex -9.55459950755053 28.437820385013953 0
      vertex 0 0 0
    endloop
  endfacet
  facet normal 0.270840468143004 -0.9626242469500124 0
    outer loop
      vertex -9.55459950755053 28.437820385013953 0
      vertex -6.675628018689423 29.247837365454707 20
      vertex -9.55459950755053 28.437820385013953 20
    endloop
  endfacet
  facet normal 0.270840468143004 -0.9626242469500124 0
    outer loop
      vertex -6.675628018689423 29.247837365454707 20
      vertex -9.55459950755053 28.437820385013953 0
      vertex -6.675628018689423 29.247837365454707 0
    endloop
  endfacet
  facet normal 0 0 -1
    outer loop
      vertex 0 0 20
      vertex -9.55459950755053 28.437820385013953 20
      vertex -6.675628018689423 29.247837365454707 20
    endloop
  endfacet
  facet normal 0 0 1
    outer loop
      vertex -9.55459950755053 28.437820385013953 0
      vertex -12.338613093918342 27.345175569350197 0
      vertex 0 0 0
    endloop
  endfacet
  facet normal 0.3653410243663947 -0.9308737486442044 0
    outer loop
      vertex -12.338613093918342 27.345175569350197 0
      vertex -9.55459950755053 28.437820385013953 20
      vertex -12.338613093918342 27.345175569350197 20
    endloop
  endfacet
  facet normal 0.3653410243663947 -0.9308737486442044 0
    outer loop
      vertex -9.55459950755053 28.437820385013953 20
      vertex -12.338613093918342 27.345175569350197 0
      vertex -9.55459950755053 28.437820385013953 0
    endloop
  endfacet
  facet normal 0 0 -1
    outer loop
      vertex 0 0 20
      vertex -12.338613093918342 27.345175569350197 20
      vertex -9.55459950755053 28.437820385013953 20
    endloop
  endfacet
  facet normal 0 0 1
    outer loop
      vertex -12.338613093918342 27.345175569350197 0
      vertex -14.999999999999993 25.98076211353316 0
      vertex 0 0 0
    endloop
  endfacet
  facet normal 0.4562106573531637 -0.8898718088114682 0
    outer loop
      vertex -14.999999999999993 25.98076211353316 0
      vertex -12.338613093918342 27.345175569350197 20
      vertex -14.999999999999993 25.98076211353316 20
    endloop
  endfacet
  facet normal 0.4562106573531637 -0.8898718088114682 0
    outer loop
      vertex -12.338613093918342 27.345175569350197 20
      vertex -14.999999999999993 25.98076211353316 0
      vertex -12.338613093918342 27.345175569350197 0
    endloop
  endfacet
  facet normal 0 0 -1
    outer loop
      vertex 0 0 20
      vertex -14.999999999999993 25.98076211353316 20
      vertex -12.338613093918342 27.345175569350197 20
    endloop
  endfacet
  facet normal 0 1 0
    outer loop
      vertex 30 0 0
      vertex 0 0 20
      vertex 30 0 20
    endloop
  endfacet
  facet normal 0 1 0
    outer loop
      vertex 0 0 20
      vertex 30 0 0
      vertex 0 0 0
    endloop
  endfacet
  facet normal 0.8660254037844387 0.49999999999999983 0
    outer loop
      vertex 0 0 20
      vertex -14.999999999999993 25.98076211353316 0
      vertex -14.999999999999993 25.98076211353316 20
    endloop
  endfacet
  facet normal 0.8660254037844387 0.49999999999999983 0
    outer loop
      vertex -14.999999999999993 25.98076211353316 0
      vertex 0 0 20
      vertex 0 0 0
    endloop
  endfacet
endsolid OpenSCAD_Model
