solid OpenSCAD_Model
  facet normal 0 0 -1
    outer loop
      vertex -7.071067811865475 -7.0710678118654755 -25
      vertex -9.238795325112868 -3.826834323650899 -25
      vertex -4.242640687119285 -4.242640687119286 -25
    endloop
  endfacet
  facet normal 0 0 -1
    outer loop
      vertex -9.238795325112868 -3.826834323650899 -25
      vertex -10 0 -25
      vertex -5.54327719506772 -2.2961005941905395 -25
    endloop
  endfacet
  facet normal 0 0 -1
    outer loop
      vertex -9.238795325112868 -3.826834323650899 -25
      vertex -5.54327719506772 -2.2961005941905395 -25
      vertex -4.242640687119285 -4.242640687119286 -25
    endloop
  endfacet
  facet normal 0 0 -1
    outer loop
      vertex -10 0 -25
      vertex -6 0 -25
      vertex -5.54327719506772 -2.2961005941905395 -25
    endloop
  endfacet
  facet normal -0.8314696123025451 -0.5555702330196025 0
    outer loop
      vertex -7.071067811865475 -7.0710678118654755 -25
      vertex -9.238795325112868 -3.826834323650899 25
      vertex -9.238795325112868 -3.826834323650899 -25
    endloop
  endfacet
  facet normal -0.9807852804032304 -0.19509032201612816 0
    outer loop
      vertex -9.238795325112868 -3.826834323650899 -25
      vertex -10 0 25
      vertex -10 0 -25
    endloop
  endfacet
  facet normal 0 0 -1
    outer loop
      vertex -7.071067811865475 -7.0710678118654755 -25
      vertex -2.2961005941905377 -5.54327719506772 -25
      vertex -3.826834323650897 -9.238795325112868 -25
    endloop
  endfacet
  facet normal 0 0 -1
    outer loop
      vertex -7.071067811865475 -7.0710678118654755 -25
      vertex -4.242640687119285 -4.242640687119286 -25
      vertex -2.2961005941905377 -5.54327719506772 -25
    endloop
  endfacet
  facet normal 0 0 -1
    outer loop
      vertex -3.826834323650897 -9.238795325112868 -25
      vertex 0 -6 -25
      vertex 0 -10 -25
    endloop
  endfacet
  facet normal 0 0 -1
    outer loop
      vertex -3.826834323650897 -9.238795325112868 -25
      vertex -2.2961005941905377 -5.54327719506772 -25
      vertex 0 -6 -25
    endloop
  endfacet
  facet normal -0.5555702330196023 -0.8314696123025452 0
    outer loop
      vertex -7.071067811865475 -7.0710678118654755 -25
      vertex -3.826834323650897 -9.238795325112868 -25
      vertex -3.826834323650897 -9.238795325112868 25
    endloop
  endfacet
  facet normal -0.19509032201612825 -0.9807852804032304 0
    outer loop
      vertex -3.826834323650897 -9.238795325112868 -25
      vertex 0 -10 -25
      vertex 0 -10 25
    endloop
  endfacet
  facet normal -0.8314696123025451 -0.5555702330196025 0
    outer loop
      vertex -7.071067811865475 -7.0710678118654755 -25
      vertex -7.071067811865475 -7.0710678118654755 25
      vertex -9.238795325112868 -3.826834323650899 25
    endloop
  endfacet
  facet normal -0.5555702330196023 -0.8314696123025452 0
    outer loop
      vertex -7.071067811865475 -7.0710678118654755 -25
      vertex -3.826834323650897 -9.238795325112868 25
      vertex -7.071067811865475 -7.0710678118654755 25
    endloop
  endfacet
  facet normal 0 0 1
    outer loop
      vertex -7.071067811865475 -7.0710678118654755 25
      vertex -3.826834323650897 -9.238795325112868 25
      vertex -4.242640687119285 -4.242640687119286 25
    endloop
  endfacet
  facet normal -0.9807852804032304 -0.19509032201612816 0
    outer loop
      vertex -9.238795325112868 -3.826834323650899 -25
      vertex -9.238795325112868 -3.826834323650899 25
      vertex -10 0 25
    endloop
  endfacet
  facet normal 0 0 1
    outer loop
      vertex -9.238795325112868 -3.826834323650899 25
      vertex -6 0 25
      vertex -10 0 25
    endloop
  endfacet
  facet normal 0 0 1
    outer loop
      vertex -7.071067811865475 -7.0710678118654755 25
      vertex -5.54327719506772 -2.296100594190539 25
      vertex -9.238795325112868 -3.826834323650899 25
    endloop
  endfacet
  facet normal 0 0 1
    outer loop
      vertex -7.071067811865475 -7.0710678118654755 25
      vertex -4.242640687119285 -4.242640687119286 25
      vertex -5.54327719506772 -2.296100594190539 25
    endloop
  endfacet
  facet normal 0 0 1
    outer loop
      vertex -9.238795325112868 -3.826834323650899 25
      vertex -5.54327719506772 -2.296100594190539 25
      vertex -6 0 25
    endloop
  endfacet
  facet normal -0.19509032201612825 -0.9807852804032304 0
    outer loop
      vertex -3.826834323650897 -9.238795325112868 -25
      vertex 0 -10 25
      vertex -3.826834323650897 -9.238795325112868 25
    endloop
  endfacet
  facet normal 0 0 1
    outer loop
      vertex -3.826834323650897 -9.238795325112868 25
      vertex -2.2961005941905386 -5.54327719506772 25
      vertex -4.242640687119285 -4.242640687119286 25
    endloop
  endfacet
  facet normal 0 0 1
    outer loop
      vertex -3.826834323650897 -9.238795325112868 25
      vertex 0 -10 25
      vertex -2.2961005941905386 -5.54327719506772 25
    endloop
  endfacet
  facet normal 0 0 1
    outer loop
      vertex 0 -10 25
      vertex 0 -6 25
      vertex -2.2961005941905386 -5.54327719506772 25
    endloop
  endfacet
  facet normal 0 0 -1
    outer loop
      vertex -10 0 -25
      vertex -9.238795325112868 3.8268343236508966 -25
      vertex -6 0 -25
    endloop
  endfacet
  facet normal 0 0 -1
    outer loop
      vertex -9.238795325112868 3.8268343236508966 -25
      vertex -5.543277195067721 2.296100594190538 -25
      vertex -6 0 -25
    endloop
  endfacet
  facet normal 0 0 -1
    outer loop
      vertex -9.238795325112868 3.8268343236508966 -25
      vertex -7.071067811865477 7.071067811865475 -25
      vertex -5.543277195067721 2.296100594190538 -25
    endloop
  endfacet
  facet normal 0 0 -1
    outer loop
      vertex -7.071067811865477 7.071067811865475 -25
      vertex -4.242640687119286 4.242640687119284 -25
      vertex -5.543277195067721 2.296100594190538 -25
    endloop
  endfacet
  facet normal -0.9807852804032304 0.19509032201612825 0
    outer loop
      vertex -10 0 -25
      vertex -9.238795325112868 3.8268343236508966 25
      vertex -9.238795325112868 3.8268343236508966 -25
    endloop
  endfacet
  facet normal 0 0 -1
    outer loop
      vertex -7.071067811865477 7.071067811865475 -25
      vertex -3.8268343236509033 9.238795325112864 -25
      vertex -4.242640687119286 4.242640687119284 -25
    endloop
  endfacet
  facet normal -0.8314696123025455 0.5555702330196018 0
    outer loop
      vertex -9.238795325112868 3.8268343236508966 -25
      vertex -7.071067811865477 7.071067811865475 25
      vertex -7.071067811865477 7.071067811865475 -25
    endloop
  endfacet
  facet normal -0.5555702330196022 0.8314696123025452 0
    outer loop
      vertex -7.071067811865477 7.071067811865475 -25
      vertex -7.071067811865477 7.071067811865475 25
      vertex -3.8268343236509033 9.238795325112864 -25
    endloop
  endfacet
  facet normal 0 0 -1
    outer loop
      vertex -3.8268343236509033 9.238795325112864 -25
      vertex -2.2961005941905426 5.543277195067719 -25
      vertex -4.242640687119286 4.242640687119284 -25
    endloop
  endfacet
  facet normal 0 0 -1
    outer loop
      vertex 0 10 -25
      vertex 0 6 -25
      vertex -2.2961005941905426 5.543277195067719 -25
    endloop
  endfacet
  facet normal 0 0 -1
    outer loop
      vertex -3.8268343236509033 9.238795325112864 -25
      vertex 0 10 -25
      vertex -2.2961005941905426 5.543277195067719 -25
    endloop
  endfacet
  facet normal -0.1950903220161288 0.9807852804032303 0
    outer loop
      vertex -3.8268343236509033 9.238795325112864 -25
      vertex -3.8268343236509033 9.238795325112864 25
      vertex 0 10 -25
    endloop
  endfacet
  facet normal -0.9807852804032304 0.19509032201612825 0
    outer loop
      vertex -10 0 -25
      vertex -10 0 25
      vertex -9.238795325112868 3.8268343236508966 25
    endloop
  endfacet
  facet normal -0.8314696123025455 0.5555702330196018 0
    outer loop
      vertex -9.238795325112868 3.8268343236508966 -25
      vertex -9.238795325112868 3.8268343236508966 25
      vertex -7.071067811865477 7.071067811865475 25
    endloop
  endfacet
  facet normal 0 0 1
    outer loop
      vertex -10 0 25
      vertex -5.543277195067721 2.296100594190538 25
      vertex -9.238795325112868 3.8268343236508966 25
    endloop
  endfacet
  facet normal 0 0 1
    outer loop
      vertex -10 0 25
      vertex -6 0 25
      vertex -5.543277195067721 2.296100594190538 25
    endloop
  endfacet
  facet normal 0 0 1
    outer loop
      vertex -9.238795325112868 3.8268343236508966 25
      vertex -5.543277195067721 2.296100594190538 25
      vertex -4.242640687119286 4.242640687119285 25
    endloop
  endfacet
  facet normal 0 0 1
    outer loop
      vertex -9.238795325112868 3.8268343236508966 25
      vertex -4.242640687119286 4.242640687119285 25
      vertex -7.071067811865477 7.071067811865475 25
    endloop
  endfacet
  facet normal -0.5555702330196022 0.8314696123025452 0
    outer loop
      vertex -3.8268343236509033 9.238795325112864 -25
      vertex -7.071067811865477 7.071067811865475 25
      vertex -3.8268343236509033 9.238795325112864 25
    endloop
  endfacet
  facet normal -0.1950903220161288 0.9807852804032303 0
    outer loop
      vertex -3.8268343236509033 9.238795325112864 25
      vertex 0 10 25
      vertex 0 10 -25
    endloop
  endfacet
  facet normal 0 0 1
    outer loop
      vertex -7.071067811865477 7.071067811865475 25
      vertex -4.242640687119286 4.242640687119285 25
      vertex -2.296100594190542 5.543277195067719 25
    endloop
  endfacet
  facet normal 0 0 1
    outer loop
      vertex -7.071067811865477 7.071067811865475 25
      vertex -2.296100594190542 5.543277195067719 25
      vertex -3.8268343236509033 9.238795325112864 25
    endloop
  endfacet
  facet normal 0 0 1
    outer loop
      vertex -3.8268343236509033 9.238795325112864 25
      vertex -2.296100594190542 5.543277195067719 25
      vertex 0 6 25
    endloop
  endfacet
  facet normal 0 0 1
    outer loop
      vertex -3.8268343236509033 9.238795325112864 25
      vertex 0 6 25
      vertex 0 10 25
    endloop
  endfacet
  facet normal 0 0 -1
    outer loop
      vertex 0 -10 -25
      vertex 2.296100594190539 -5.54327719506772 -25
      vertex 3.8268343236508984 -9.238795325112868 -25
    endloop
  endfacet
  facet normal 0 0 -1
    outer loop
      vertex 0 -10 -25
      vertex 0 -6 -25
      vertex 2.296100594190539 -5.54327719506772 -25
    endloop
  endfacet
  facet normal 0 0 -1
    outer loop
      vertex 3.8268343236508984 -9.238795325112868 -25
      vertex 2.296100594190539 -5.54327719506772 -25
      vertex 4.242640687119286 -4.242640687119286 -25
    endloop
  endfacet
  facet normal 0.19509032201612816 -0.9807852804032304 0
    outer loop
      vertex 0 -10 -25
      vertex 3.8268343236508984 -9.238795325112868 -25
      vertex 3.8268343236508984 -9.238795325112868 25
    endloop
  endfacet
  facet normal 0 0 -1
    outer loop
      vertex 3.8268343236508984 -9.238795325112868 -25
      vertex 4.242640687119286 -4.242640687119286 -25
      vertex 7.0710678118654755 -7.0710678118654755 -25
    endloop
  endfacet
  facet normal 0.5555702330196023 -0.8314696123025451 0
    outer loop
      vertex 3.8268343236508984 -9.238795325112868 -25
      vertex 7.0710678118654755 -7.0710678118654755 -25
      vertex 7.0710678118654755 -7.0710678118654755 25
    endloop
  endfacet
  facet normal 0.8314696123025452 -0.5555702330196023 0
    outer loop
      vertex 7.0710678118654755 -7.0710678118654755 -25
      vertex 9.238795325112868 -3.826834323650898 -25
      vertex 7.0710678118654755 -7.0710678118654755 25
    endloop
  endfacet
  facet normal 0 0 -1
    outer loop
      vertex 7.0710678118654755 -7.0710678118654755 -25
      vertex 4.242640687119286 -4.242640687119286 -25
      vertex 5.54327719506772 -2.2961005941905386 -25
    endloop
  endfacet
  facet normal 0 0 -1
    outer loop
      vertex 7.0710678118654755 -7.0710678118654755 -25
      vertex 5.54327719506772 -2.2961005941905386 -25
      vertex 9.238795325112868 -3.826834323650898 -25
    endloop
  endfacet
  facet normal 0 0 -1
    outer loop
      vertex 9.238795325112868 -3.826834323650898 -25
      vertex 5.54327719506772 -2.2961005941905386 -25
      vertex 6 0 -25
    endloop
  endfacet
  facet normal 0 0 -1
    outer loop
      vertex 9.238795325112868 -3.826834323650898 -25
      vertex 6 0 -25
      vertex 10 0 -25
    endloop
  endfacet
  facet normal 0.9807852804032304 -0.1950903220161282 0
    outer loop
      vertex 9.238795325112868 -3.826834323650898 -25
      vertex 10 0 -25
      vertex 9.238795325112868 -3.826834323650898 25
    endloop
  endfacet
  facet normal 0.19509032201612816 -0.9807852804032304 0
    outer loop
      vertex 0 -10 -25
      vertex 3.8268343236508984 -9.238795325112868 25
      vertex 0 -10 25
    endloop
  endfacet
  facet normal 0.5555702330196023 -0.8314696123025451 0
    outer loop
      vertex 3.8268343236508984 -9.238795325112868 -25
      vertex 7.0710678118654755 -7.0710678118654755 25
      vertex 3.8268343236508984 -9.238795325112868 25
    endloop
  endfacet
  facet normal 0 0 1
    outer loop
      vertex 0 -10 25
      vertex 3.8268343236508984 -9.238795325112868 25
      vertex 0 -6 25
    endloop
  endfacet
  facet normal 0 0 1
    outer loop
      vertex 3.8268343236508984 -9.238795325112868 25
      vertex 2.296100594190539 -5.54327719506772 25
      vertex 0 -6 25
    endloop
  endfacet
  facet normal 0 0 1
    outer loop
      vertex 3.8268343236508984 -9.238795325112868 25
      vertex 7.0710678118654755 -7.0710678118654755 25
      vertex 2.296100594190539 -5.54327719506772 25
    endloop
  endfacet
  facet normal 0 0 1
    outer loop
      vertex 7.0710678118654755 -7.0710678118654755 25
      vertex 4.242640687119286 -4.242640687119286 25
      vertex 2.296100594190539 -5.54327719506772 25
    endloop
  endfacet
  facet normal 0 0 1
    outer loop
      vertex 7.0710678118654755 -7.0710678118654755 25
      vertex 9.238795325112868 -3.826834323650898 25
      vertex 4.242640687119286 -4.242640687119286 25
    endloop
  endfacet
  facet normal 0.8314696123025452 -0.5555702330196023 0
    outer loop
      vertex 9.238795325112868 -3.826834323650898 -25
      vertex 9.238795325112868 -3.826834323650898 25
      vertex 7.0710678118654755 -7.0710678118654755 25
    endloop
  endfacet
  facet normal 0.9807852804032304 -0.1950903220161282 0
    outer loop
      vertex 9.238795325112868 -3.826834323650898 25
      vertex 10 0 -25
      vertex 10 0 25
    endloop
  endfacet
  facet normal 0 0 1
    outer loop
      vertex 9.238795325112868 -3.826834323650898 25
      vertex 5.54327719506772 -2.2961005941905386 25
      vertex 4.242640687119286 -4.242640687119286 25
    endloop
  endfacet
  facet normal 0 0 1
    outer loop
      vertex 10 0 25
      vertex 6 0 25
      vertex 5.54327719506772 -2.2961005941905386 25
    endloop
  endfacet
  facet normal 0 0 1
    outer loop
      vertex 9.238795325112868 -3.826834323650898 25
      vertex 10 0 25
      vertex 5.54327719506772 -2.2961005941905386 25
    endloop
  endfacet
  facet normal 0 0 -1
    outer loop
      vertex 3.8268343236509 9.238795325112866 -25
      vertex 2.29610059419054 5.54327719506772 -25
      vertex 0 6 -25
    endloop
  endfacet
  facet normal 0 0 -1
    outer loop
      vertex 0 10 -25
      vertex 3.8268343236509 9.238795325112866 -25
      vertex 0 6 -25
    endloop
  endfacet
  facet normal 0 0 -1
    outer loop
      vertex 7.071067811865474 7.071067811865477 -25
      vertex 4.242640687119284 4.242640687119286 -25
      vertex 2.29610059419054 5.54327719506772 -25
    endloop
  endfacet
  facet normal 0 0 -1
    outer loop
      vertex 3.8268343236509 9.238795325112866 -25
      vertex 7.071067811865474 7.071067811865477 -25
      vertex 2.29610059419054 5.54327719506772 -25
    endloop
  endfacet
  facet normal 0.19509032201612847 0.9807852804032303 0
    outer loop
      vertex 0 10 -25
      vertex 0 10 25
      vertex 3.8268343236509 9.238795325112866 -25
    endloop
  endfacet
  facet normal 0.5555702330196021 0.8314696123025453 0
    outer loop
      vertex 3.8268343236509 9.238795325112866 -25
      vertex 3.8268343236509 9.238795325112866 25
      vertex 7.071067811865474 7.071067811865477 -25
    endloop
  endfacet
  facet normal 0 0 -1
    outer loop
      vertex 10 0 -25
      vertex 6 0 -25
      vertex 5.543277195067719 2.2961005941905426 -25
    endloop
  endfacet
  facet normal 0 0 -1
    outer loop
      vertex 9.238795325112864 3.826834323650904 -25
      vertex 5.543277195067719 2.2961005941905426 -25
      vertex 4.242640687119284 4.242640687119286 -25
    endloop
  endfacet
  facet normal 0 0 -1
    outer loop
      vertex 10 0 -25
      vertex 5.543277195067719 2.2961005941905426 -25
      vertex 9.238795325112864 3.826834323650904 -25
    endloop
  endfacet
  facet normal 0.9807852804032303 0.19509032201612875 0
    outer loop
      vertex 10 0 -25
      vertex 9.238795325112864 3.826834323650904 -25
      vertex 10 0 25
    endloop
  endfacet
  facet normal 0.8314696123025451 0.5555702330196025 0
    outer loop
      vertex 9.238795325112864 3.826834323650904 -25
      vertex 7.071067811865474 7.071067811865477 -25
      vertex 9.238795325112864 3.826834323650904 25
    endloop
  endfacet
  facet normal 0 0 -1
    outer loop
      vertex 9.238795325112864 3.826834323650904 -25
      vertex 4.242640687119284 4.242640687119286 -25
      vertex 7.071067811865474 7.071067811865477 -25
    endloop
  endfacet
  facet normal 0.19509032201612847 0.9807852804032303 0
    outer loop
      vertex 3.8268343236509 9.238795325112866 -25
      vertex 0 10 25
      vertex 3.8268343236509 9.238795325112866 25
    endloop
  endfacet
  facet normal 0 0 1
    outer loop
      vertex 0 10 25
      vertex 0 6 25
      vertex 2.29610059419054 5.54327719506772 25
    endloop
  endfacet
  facet normal 0 0 1
    outer loop
      vertex 0 10 25
      vertex 2.29610059419054 5.54327719506772 25
      vertex 3.8268343236509 9.238795325112866 25
    endloop
  endfacet
  facet normal 0 0 1
    outer loop
      vertex 3.8268343236509 9.238795325112866 25
      vertex 2.29610059419054 5.54327719506772 25
      vertex 4.242640687119284 4.242640687119286 25
    endloop
  endfacet
  facet normal 0.9807852804032303 0.19509032201612875 0
    outer loop
      vertex 9.238795325112864 3.826834323650904 -25
      vertex 9.238795325112864 3.826834323650904 25
      vertex 10 0 25
    endloop
  endfacet
  facet normal 0 0 1
    outer loop
      vertex 9.238795325112864 3.826834323650904 25
      vertex 5.543277195067719 2.296100594190542 25
      vertex 6 0 25
    endloop
  endfacet
  facet normal 0 0 1
    outer loop
      vertex 7.071067811865474 7.071067811865477 25
      vertex 4.242640687119284 4.242640687119286 25
      vertex 5.543277195067719 2.296100594190542 25
    endloop
  endfacet
  facet normal 0 0 1
    outer loop
      vertex 9.238795325112864 3.826834323650904 25
      vertex 7.071067811865474 7.071067811865477 25
      vertex 5.543277195067719 2.296100594190542 25
    endloop
  endfacet
  facet normal 0 0 1
    outer loop
      vertex 10 0 25
      vertex 9.238795325112864 3.826834323650904 25
      vertex 6 0 25
    endloop
  endfacet
  facet normal 0.5555702330196021 0.8314696123025453 0
    outer loop
      vertex 7.071067811865474 7.071067811865477 -25
      vertex 3.8268343236509 9.238795325112866 25
      vertex 7.071067811865474 7.071067811865477 25
    endloop
  endfacet
  facet normal 0.8314696123025451 0.5555702330196025 0
    outer loop
      vertex 7.071067811865474 7.071067811865477 -25
      vertex 7.071067811865474 7.071067811865477 25
      vertex 9.238795325112864 3.826834323650904 25
    endloop
  endfacet
  facet normal 0 0 1
    outer loop
      vertex 3.8268343236509 9.238795325112866 25
      vertex 4.242640687119284 4.242640687119286 25
      vertex 7.071067811865474 7.071067811865477 25
    endloop
  endfacet
  facet normal 0.8314696123025452 0.5555702330196022 -3.793876987000151e-18
    outer loop
      vertex -4.242640687119285 -4.242640687119286 -25
      vertex -5.54327719506772 -2.2961005941905395 -25
      vertex -5.54327719506772 -2.296100594190539 25
    endloop
  endfacet
  facet normal 0.9807852804032303 0.1950903220161284 0
    outer loop
      vertex -5.54327719506772 -2.2961005941905395 -25
      vertex -6 0 -25
      vertex -6 0 25
    endloop
  endfacet
  facet normal 0.19509032201612855 0.9807852804032303 3.465500278141472e-18
    outer loop
      vertex -2.2961005941905386 -5.54327719506772 25
      vertex 0 -6 -25
      vertex -2.2961005941905377 -5.54327719506772 -25
    endloop
  endfacet
  facet normal 0.5555702330196017 0.8314696123025456 0
    outer loop
      vertex -4.242640687119285 -4.242640687119286 -25
      vertex -4.242640687119285 -4.242640687119286 25
      vertex -2.2961005941905377 -5.54327719506772 -25
    endloop
  endfacet
  facet normal 0.9807852804032304 0.19509032201612847 -1.7327501390707354e-18
    outer loop
      vertex -5.54327719506772 -2.2961005941905395 -25
      vertex -6 0 25
      vertex -5.54327719506772 -2.296100594190539 25
    endloop
  endfacet
  facet normal 0.555570233019602 0.8314696123025455 9.868909831915607e-18
    outer loop
      vertex -2.2961005941905377 -5.54327719506772 -25
      vertex -4.242640687119285 -4.242640687119286 25
      vertex -2.2961005941905386 -5.54327719506772 25
    endloop
  endfacet
  facet normal 0.1950903220161285 0.9807852804032304 0
    outer loop
      vertex 0 -6 -25
      vertex -2.2961005941905386 -5.54327719506772 25
      vertex 0 -6 25
    endloop
  endfacet
  facet normal 0.8314696123025453 0.5555702330196022 0
    outer loop
      vertex -4.242640687119285 -4.242640687119286 -25
      vertex -5.54327719506772 -2.296100594190539 25
      vertex -4.242640687119285 -4.242640687119286 25
    endloop
  endfacet
  facet normal 0.9807852804032304 -0.19509032201612816 0
    outer loop
      vertex -6 0 -25
      vertex -5.543277195067721 2.296100594190538 -25
      vertex -5.543277195067721 2.296100594190538 25
    endloop
  endfacet
  facet normal 0.8314696123025451 -0.5555702330196023 7.587753974000302e-18
    outer loop
      vertex -5.543277195067721 2.296100594190538 -25
      vertex -4.242640687119286 4.242640687119284 -25
      vertex -4.242640687119286 4.242640687119285 25
    endloop
  endfacet
  facet normal 0.5555702330196028 -0.8314696123025449 -4.934454915957813e-18
    outer loop
      vertex -2.296100594190542 5.543277195067719 25
      vertex -4.242640687119286 4.242640687119284 -25
      vertex -2.2961005941905426 5.543277195067719 -25
    endloop
  endfacet
  facet normal 0.19509032201612853 -0.9807852804032304 0
    outer loop
      vertex -2.2961005941905426 5.543277195067719 -25
      vertex 0 6 -25
      vertex 0 6 25
    endloop
  endfacet
  facet normal 0.9807852804032304 -0.19509032201612816 0
    outer loop
      vertex -6 0 -25
      vertex -5.543277195067721 2.296100594190538 25
      vertex -6 0 25
    endloop
  endfacet
  facet normal 0.8314696123025453 -0.5555702330196022 0
    outer loop
      vertex -5.543277195067721 2.296100594190538 -25
      vertex -4.242640687119286 4.242640687119285 25
      vertex -5.543277195067721 2.296100594190538 25
    endloop
  endfacet
  facet normal 0.5555702330196025 -0.8314696123025451 1.4769867325671006e-17
    outer loop
      vertex -4.242640687119286 4.242640687119284 -25
      vertex -2.296100594190542 5.543277195067719 25
      vertex -4.242640687119286 4.242640687119285 25
    endloop
  endfacet
  facet normal 0.19509032201612855 -0.9807852804032303 -1.896938493500072e-18
    outer loop
      vertex 0 6 25
      vertex -2.296100594190542 5.543277195067719 25
      vertex -2.2961005941905426 5.543277195067719 -25
    endloop
  endfacet
  facet normal -0.19509032201612847 0.9807852804032304 0
    outer loop
      vertex 0 -6 25
      vertex 2.296100594190539 -5.54327719506772 -25
      vertex 0 -6 -25
    endloop
  endfacet
  facet normal -0.5555702330196018 0.8314696123025455 0
    outer loop
      vertex 2.296100594190539 -5.54327719506772 25
      vertex 4.242640687119286 -4.242640687119286 -25
      vertex 2.296100594190539 -5.54327719506772 -25
    endloop
  endfacet
  facet normal -0.8314696123025456 0.5555702330196017 0
    outer loop
      vertex 4.242640687119286 -4.242640687119286 -25
      vertex 4.242640687119286 -4.242640687119286 25
      vertex 5.54327719506772 -2.2961005941905386 -25
    endloop
  endfacet
  facet normal -0.9807852804032304 0.1950903220161285 0
    outer loop
      vertex 5.54327719506772 -2.2961005941905386 -25
      vertex 5.54327719506772 -2.2961005941905386 25
      vertex 6 0 -25
    endloop
  endfacet
  facet normal -0.19509032201612847 0.9807852804032304 0
    outer loop
      vertex 2.296100594190539 -5.54327719506772 -25
      vertex 0 -6 25
      vertex 2.296100594190539 -5.54327719506772 25
    endloop
  endfacet
  facet normal -0.5555702330196018 0.8314696123025455 0
    outer loop
      vertex 4.242640687119286 -4.242640687119286 -25
      vertex 2.296100594190539 -5.54327719506772 25
      vertex 4.242640687119286 -4.242640687119286 25
    endloop
  endfacet
  facet normal -0.8314696123025456 0.5555702330196017 0
    outer loop
      vertex 5.54327719506772 -2.2961005941905386 -25
      vertex 4.242640687119286 -4.242640687119286 25
      vertex 5.54327719506772 -2.2961005941905386 25
    endloop
  endfacet
  facet normal -0.9807852804032304 0.1950903220161285 0
    outer loop
      vertex 6 0 -25
      vertex 5.54327719506772 -2.2961005941905386 25
      vertex 6 0 25
    endloop
  endfacet
  facet normal -0.5555702330196024 -0.8314696123025451 0
    outer loop
      vertex 2.29610059419054 5.54327719506772 -25
      vertex 4.242640687119284 4.242640687119286 -25
      vertex 4.242640687119284 4.242640687119286 25
    endloop
  endfacet
  facet normal -0.1950903220161284 -0.9807852804032304 0
    outer loop
      vertex 2.29610059419054 5.54327719506772 -25
      vertex 2.29610059419054 5.54327719506772 25
      vertex 0 6 -25
    endloop
  endfacet
  facet normal -0.9807852804032304 -0.19509032201612853 0
    outer loop
      vertex 6 0 -25
      vertex 6 0 25
      vertex 5.543277195067719 2.2961005941905426 -25
    endloop
  endfacet
  facet normal -0.8314696123025449 -0.5555702330196028 -3.793876987000155e-18
    outer loop
      vertex 4.242640687119284 4.242640687119286 -25
      vertex 5.543277195067719 2.2961005941905426 -25
      vertex 5.543277195067719 2.296100594190542 25
    endloop
  endfacet
  facet normal -0.8314696123025449 -0.5555702330196027 0
    outer loop
      vertex 4.242640687119284 4.242640687119286 -25
      vertex 5.543277195067719 2.296100594190542 25
      vertex 4.242640687119284 4.242640687119286 25
    endloop
  endfacet
  facet normal -0.1950903220161284 -0.9807852804032304 0
    outer loop
      vertex 0 6 -25
      vertex 2.29610059419054 5.54327719506772 25
      vertex 0 6 25
    endloop
  endfacet
  facet normal -0.5555702330196024 -0.8314696123025451 0
    outer loop
      vertex 2.29610059419054 5.54327719506772 -25
      vertex 4.242640687119284 4.242640687119286 25
      vertex 2.29610059419054 5.54327719506772 25
    endloop
  endfacet
  facet normal -0.9807852804032303 -0.19509032201612855 -1.7327501390707362e-18
    outer loop
      vertex 5.543277195067719 2.2961005941905426 -25
      vertex 6 0 25
      vertex 5.543277195067719 2.296100594190542 25
    endloop
  endfacet
endsolid OpenSCAD_Model
