<?xml version="1.0" encoding="UTF-8" standalone="no"?>
<!DOCTYPE svg PUBLIC "-//W3C//DTD SVG 1.1//EN"
 "http://www.w3.org/Graphics/SVG/1.1/DTD/svg11.dtd">
<!-- Generated by graphviz version 5.0.0 (20220707.1540)
 -->
<!-- Title: default Pages: 1 -->
<svg width="461pt" height="206pt"
 viewBox="0.00 0.00 461.17 206.00" xmlns="http://www.w3.org/2000/svg" xmlns:xlink="http://www.w3.org/1999/xlink">
<g id="graph0" class="graph" transform="scale(1 1) rotate(0) translate(4 202)">
<title>default</title>
<polygon fill="white" stroke="transparent" points="-4,4 -4,-202 457.17,-202 457.17,4 -4,4"/>
<!-- root_15 -->
<g id="node1" class="node">
<title>root_15</title>
<g id="a_node1"><a xlink:href="javascript:s=&quot;\(\)\nNone&quot;; console.log(s); alert(s);" xlink:title="root">
<ellipse fill="none" stroke="black" cx="27" cy="-126" rx="27" ry="18"/>
<text text-anchor="middle" x="27" y="-122.3" font-family="Times New Roman,serif" font-size="14.00">root</text>
</a>
</g>
</g>
<!-- default_16 -->
<g id="node2" class="node">
<title>default_16</title>
<g id="a_node2"><a xlink:href="javascript:s=&quot;\(&#x27;default&#x27;,\)\nTnutWasherOuter&quot;; console.log(s); alert(s);" xlink:title="TnutWasherOuter">
<ellipse fill="none" stroke="black" cx="125.1" cy="-126" rx="35.19" ry="18"/>
<text text-anchor="middle" x="125.1" y="-122.3" font-family="Times New Roman,serif" font-size="14.00">default</text>
</a>
</g>
</g>
<!-- root_15&#45;&gt;default_16 -->
<g id="edge1" class="edge">
<title>root_15&#45;&gt;default_16</title>
<path fill="none" stroke="black" d="M54.01,-126C61.92,-126 70.84,-126 79.61,-126"/>
<polygon fill="black" stroke="black" points="79.76,-129.5 89.76,-126 79.76,-122.5 79.76,-129.5"/>
</g>
<!-- outer_17 -->
<g id="node3" class="node">
<title>outer_17</title>
<g id="a_node3"><a xlink:href="javascript:s=&quot;\(&#x27;default&#x27;,\ &#x27;outer&#x27;\)\nBox&quot;; console.log(s); alert(s);" xlink:title="Box">
<ellipse fill="none" stroke="black" cx="241.04" cy="-180" rx="29.5" ry="18"/>
<text text-anchor="middle" x="241.04" y="-176.3" font-family="Times New Roman,serif" font-size="14.00">outer</text>
</a>
</g>
</g>
<!-- default_16&#45;&gt;outer_17 -->
<g id="edge2" class="edge">
<title>default_16&#45;&gt;outer_17</title>
<path fill="none" stroke="black" d="M151.38,-137.98C167.98,-145.85 189.84,-156.21 207.69,-164.67"/>
<polygon fill="black" stroke="black" points="206.61,-168.03 217.14,-169.15 209.61,-161.7 206.61,-168.03"/>
</g>
<!-- outer_cyl_18 -->
<g id="node4" class="node">
<title>outer_cyl_18</title>
<g id="a_node4"><a xlink:href="javascript:s=&quot;\(&#x27;default&#x27;,\ &#x27;outer_cyl&#x27;\)\nCylinder&quot;; console.log(s); alert(s);" xlink:title="Cylinder">
<ellipse fill="none" stroke="black" cx="241.04" cy="-126" rx="44.69" ry="18"/>
<text text-anchor="middle" x="241.04" y="-122.3" font-family="Times New Roman,serif" font-size="14.00">outer_cyl</text>
</a>
</g>
</g>
<!-- default_16&#45;&gt;outer_cyl_18 -->
<g id="edge3" class="edge">
<title>default_16&#45;&gt;outer_cyl_18</title>
<path fill="none" stroke="black" d="M160.28,-126C168.39,-126 177.23,-126 185.98,-126"/>
<polygon fill="black" stroke="black" points="186.15,-129.5 196.15,-126 186.15,-122.5 186.15,-129.5"/>
</g>
<!-- shaft_19 -->
<g id="node5" class="node">
<title>shaft_19</title>
<g id="a_node5"><a xlink:href="javascript:s=&quot;\(&#x27;default&#x27;,\ &#x27;shaft&#x27;\)\nMaker&quot;; console.log(s); alert(s);" xlink:title="Maker">
<ellipse fill="none" stroke="black" cx="241.04" cy="-72" rx="28.7" ry="18"/>
<text text-anchor="middle" x="241.04" y="-68.3" font-family="Times New Roman,serif" font-size="14.00">shaft</text>
</a>
</g>
</g>
<!-- default_16&#45;&gt;shaft_19 -->
<g id="edge4" class="edge">
<title>default_16&#45;&gt;shaft_19</title>
<path fill="none" stroke="black" d="M151.38,-114.02C168.09,-106.1 190.13,-95.65 208.05,-87.16"/>
<polygon fill="black" stroke="black" points="209.99,-90.12 217.52,-82.67 206.99,-83.79 209.99,-90.12"/>
</g>
<!-- shaft_cyl_cage_20 -->
<g id="node6" class="node">
<title>shaft_cyl_cage_20</title>
<g id="a_node6"><a xlink:href="javascript:s=&quot;\(&#x27;default&#x27;,\ &#x27;shaft&#x27;,\ &#x27;shaft_cyl_cage&#x27;\)\nCylinder&quot;; console.log(s); alert(s);" xlink:title="Cylinder">
<ellipse fill="none" stroke="black" cx="387.53" cy="-126" rx="65.79" ry="18"/>
<text text-anchor="middle" x="387.53" y="-122.3" font-family="Times New Roman,serif" font-size="14.00">shaft_cyl_cage</text>
</a>
</g>
</g>
<!-- shaft_19&#45;&gt;shaft_cyl_cage_20 -->
<g id="edge5" class="edge">
<title>shaft_19&#45;&gt;shaft_cyl_cage_20</title>
<path fill="none" stroke="black" d="M265.9,-80.92C285.57,-88.27 314.1,-98.93 338.48,-108.04"/>
<polygon fill="black" stroke="black" points="337.34,-111.35 347.93,-111.58 339.79,-104.8 337.34,-111.35"/>
</g>
<!-- large_21 -->
<g id="node7" class="node">
<title>large_21</title>
<g id="a_node7"><a xlink:href="javascript:s=&quot;\(&#x27;default&#x27;,\ &#x27;shaft&#x27;,\ &#x27;large&#x27;\)\nCylinder&quot;; console.log(s); alert(s);" xlink:title="Cylinder">
<ellipse fill="none" stroke="black" cx="387.53" cy="-72" rx="27.9" ry="18"/>
<text text-anchor="middle" x="387.53" y="-68.3" font-family="Times New Roman,serif" font-size="14.00">large</text>
</a>
</g>
</g>
<!-- shaft_19&#45;&gt;large_21 -->
<g id="edge6" class="edge">
<title>shaft_19&#45;&gt;large_21</title>
<path fill="none" stroke="black" d="M269.9,-72C292.43,-72 324.37,-72 349.12,-72"/>
<polygon fill="black" stroke="black" points="349.25,-75.5 359.25,-72 349.25,-68.5 349.25,-75.5"/>
</g>
<!-- small_22 -->
<g id="node8" class="node">
<title>small_22</title>
<g id="a_node8"><a xlink:href="javascript:s=&quot;\(&#x27;default&#x27;,\ &#x27;shaft&#x27;,\ &#x27;small&#x27;\)\nCylinder&quot;; console.log(s); alert(s);" xlink:title="Cylinder">
<ellipse fill="none" stroke="black" cx="387.53" cy="-18" rx="29.5" ry="18"/>
<text text-anchor="middle" x="387.53" y="-14.3" font-family="Times New Roman,serif" font-size="14.00">small</text>
</a>
</g>
</g>
<!-- shaft_19&#45;&gt;small_22 -->
<g id="edge7" class="edge">
<title>shaft_19&#45;&gt;small_22</title>
<path fill="none" stroke="black" d="M265.9,-63.08C289.5,-54.26 325.84,-40.68 352.47,-30.73"/>
<polygon fill="black" stroke="black" points="354.01,-33.89 362.15,-27.11 351.56,-27.33 354.01,-33.89"/>
</g>
</g>
</svg>
