<?xml version="1.0" encoding="UTF-8" standalone="no"?>
<!DOCTYPE svg PUBLIC "-//W3C//DTD SVG 1.1//EN"
 "http://www.w3.org/Graphics/SVG/1.1/DTD/svg11.dtd">
<!-- Generated by graphviz version 5.0.0 (20220707.1540)
 -->
<!-- Title: default Pages: 1 -->
<svg width="482pt" height="476pt"
 viewBox="0.00 0.00 481.97 476.00" xmlns="http://www.w3.org/2000/svg" xmlns:xlink="http://www.w3.org/1999/xlink">
<g id="graph0" class="graph" transform="scale(1 1) rotate(0) translate(4 472)">
<title>default</title>
<polygon fill="white" stroke="transparent" points="-4,4 -4,-472 477.97,-472 477.97,4 -4,4"/>
<!-- root_1 -->
<g id="node1" class="node">
<title>root_1</title>
<g id="a_node1"><a xlink:href="javascript:s=&quot;\(\)\nNone&quot;; console.log(s); alert(s);" xlink:title="root">
<ellipse fill="none" stroke="black" cx="27" cy="-234" rx="27" ry="18"/>
<text text-anchor="middle" x="27" y="-230.3" font-family="Times New Roman,serif" font-size="14.00">root</text>
</a>
</g>
</g>
<!-- default_2 -->
<g id="node2" class="node">
<title>default_2</title>
<g id="a_node2"><a xlink:href="javascript:s=&quot;\(&#x27;default&#x27;,\)\nTnutWasherInner&quot;; console.log(s); alert(s);" xlink:title="TnutWasherInner">
<ellipse fill="none" stroke="black" cx="125.1" cy="-234" rx="35.19" ry="18"/>
<text text-anchor="middle" x="125.1" y="-230.3" font-family="Times New Roman,serif" font-size="14.00">default</text>
</a>
</g>
</g>
<!-- root_1&#45;&gt;default_2 -->
<g id="edge1" class="edge">
<title>root_1&#45;&gt;default_2</title>
<path fill="none" stroke="black" d="M54.01,-234C61.92,-234 70.84,-234 79.61,-234"/>
<polygon fill="black" stroke="black" points="79.76,-237.5 89.76,-234 79.76,-230.5 79.76,-237.5"/>
</g>
<!-- base_3 -->
<g id="node3" class="node">
<title>base_3</title>
<g id="a_node3"><a xlink:href="javascript:s=&quot;\(&#x27;default&#x27;,\ &#x27;base&#x27;\)\nBox&quot;; console.log(s); alert(s);" xlink:title="Box">
<ellipse fill="none" stroke="black" cx="249.49" cy="-288" rx="27.1" ry="18"/>
<text text-anchor="middle" x="249.49" y="-284.3" font-family="Times New Roman,serif" font-size="14.00">base</text>
</a>
</g>
</g>
<!-- default_2&#45;&gt;base_3 -->
<g id="edge2" class="edge">
<title>default_2&#45;&gt;base_3</title>
<path fill="none" stroke="black" d="M152.35,-245.58C171.31,-253.95 196.99,-265.28 217.04,-274.12"/>
<polygon fill="black" stroke="black" points="215.81,-277.41 226.37,-278.24 218.64,-271 215.81,-277.41"/>
</g>
<!-- tnut_outline_4 -->
<g id="node4" class="node">
<title>tnut_outline_4</title>
<g id="a_node4"><a xlink:href="javascript:s=&quot;\(&#x27;default&#x27;,\ &#x27;tnut_outline&#x27;\)\nTnut&quot;; console.log(s); alert(s);" xlink:title="Tnut">
<ellipse fill="none" stroke="black" cx="249.49" cy="-234" rx="53.09" ry="18"/>
<text text-anchor="middle" x="249.49" y="-230.3" font-family="Times New Roman,serif" font-size="14.00">tnut_outline</text>
</a>
</g>
</g>
<!-- default_2&#45;&gt;tnut_outline_4 -->
<g id="edge3" class="edge">
<title>default_2&#45;&gt;tnut_outline_4</title>
<path fill="none" stroke="black" d="M160.52,-234C168.44,-234 177.12,-234 185.83,-234"/>
<polygon fill="black" stroke="black" points="186.04,-237.5 196.04,-234 186.04,-230.5 186.04,-237.5"/>
</g>
<!-- overlap_14 -->
<g id="node14" class="node">
<title>overlap_14</title>
<g id="a_node14"><a xlink:href="javascript:s=&quot;\(&#x27;default&#x27;,\ &#x27;overlap&#x27;\)\nCylinder&quot;; console.log(s); alert(s);" xlink:title="Cylinder">
<ellipse fill="none" stroke="black" cx="249.49" cy="-180" rx="37.89" ry="18"/>
<text text-anchor="middle" x="249.49" y="-176.3" font-family="Times New Roman,serif" font-size="14.00">overlap</text>
</a>
</g>
</g>
<!-- default_2&#45;&gt;overlap_14 -->
<g id="edge13" class="edge">
<title>default_2&#45;&gt;overlap_14</title>
<path fill="none" stroke="black" d="M152.35,-222.42C169.66,-214.78 192.57,-204.67 211.68,-196.24"/>
<polygon fill="black" stroke="black" points="213.27,-199.37 221,-192.13 210.44,-192.96 213.27,-199.37"/>
</g>
<!-- cage_5 -->
<g id="node5" class="node">
<title>cage_5</title>
<g id="a_node5"><a xlink:href="javascript:s=&quot;\(&#x27;default&#x27;,\ &#x27;tnut_outline&#x27;,\ &#x27;cage&#x27;\)\nCylinder&quot;; console.log(s); alert(s);" xlink:title="Cylinder">
<ellipse fill="none" stroke="black" cx="406.38" cy="-450" rx="27.1" ry="18"/>
<text text-anchor="middle" x="406.38" y="-446.3" font-family="Times New Roman,serif" font-size="14.00">cage</text>
</a>
</g>
</g>
<!-- tnut_outline_4&#45;&gt;cage_5 -->
<g id="edge4" class="edge">
<title>tnut_outline_4&#45;&gt;cage_5</title>
<path fill="none" stroke="black" d="M286.28,-247.07C292.53,-250.75 298.42,-255.33 302.78,-261 347.8,-319.43 291.15,-366.69 338.78,-423 346.76,-432.43 358.53,-438.6 369.96,-442.63"/>
<polygon fill="black" stroke="black" points="369.23,-446.07 379.82,-445.64 371.28,-439.37 369.23,-446.07"/>
</g>
<!-- flat_6 -->
<g id="node6" class="node">
<title>flat_6</title>
<g id="a_node6"><a xlink:href="javascript:s=&quot;\(&#x27;default&#x27;,\ &#x27;tnut_outline&#x27;,\ &#x27;flat&#x27;\)\nCylinder&quot;; console.log(s); alert(s);" xlink:title="Cylinder">
<ellipse fill="none" stroke="black" cx="406.38" cy="-396" rx="27" ry="18"/>
<text text-anchor="middle" x="406.38" y="-392.3" font-family="Times New Roman,serif" font-size="14.00">flat</text>
</a>
</g>
</g>
<!-- tnut_outline_4&#45;&gt;flat_6 -->
<g id="edge5" class="edge">
<title>tnut_outline_4&#45;&gt;flat_6</title>
<path fill="none" stroke="black" d="M285.56,-247.29C291.94,-250.96 298.07,-255.49 302.78,-261 335.69,-299.44 304.16,-332.11 338.78,-369 347.24,-378.01 359.11,-384.08 370.5,-388.15"/>
<polygon fill="black" stroke="black" points="369.69,-391.57 380.28,-391.23 371.79,-384.89 369.69,-391.57"/>
</g>
<!-- bevel_7 -->
<g id="node7" class="node">
<title>bevel_7</title>
<g id="a_node7"><a xlink:href="javascript:s=&quot;\(&#x27;default&#x27;,\ &#x27;tnut_outline&#x27;,\ &#x27;bevel&#x27;\)\nCone&quot;; console.log(s); alert(s);" xlink:title="Cone">
<ellipse fill="none" stroke="black" cx="406.38" cy="-342" rx="29.8" ry="18"/>
<text text-anchor="middle" x="406.38" y="-338.3" font-family="Times New Roman,serif" font-size="14.00">bevel</text>
</a>
</g>
</g>
<!-- tnut_outline_4&#45;&gt;bevel_7 -->
<g id="edge6" class="edge">
<title>tnut_outline_4&#45;&gt;bevel_7</title>
<path fill="none" stroke="black" d="M283.66,-247.89C290.4,-251.58 297.15,-255.96 302.78,-261 324.28,-280.23 316.43,-296.77 338.78,-315 347.5,-322.11 358.34,-327.56 368.73,-331.64"/>
<polygon fill="black" stroke="black" points="367.87,-335.05 378.46,-335.14 370.24,-328.46 367.87,-335.05"/>
</g>
<!-- shaft_8 -->
<g id="node8" class="node">
<title>shaft_8</title>
<g id="a_node8"><a xlink:href="javascript:s=&quot;\(&#x27;default&#x27;,\ &#x27;tnut_outline&#x27;,\ &#x27;shaft&#x27;\)\nCylinder&quot;; console.log(s); alert(s);" xlink:title="Cylinder">
<ellipse fill="none" stroke="black" cx="406.38" cy="-288" rx="28.7" ry="18"/>
<text text-anchor="middle" x="406.38" y="-284.3" font-family="Times New Roman,serif" font-size="14.00">shaft</text>
</a>
</g>
</g>
<!-- tnut_outline_4&#45;&gt;shaft_8 -->
<g id="edge7" class="edge">
<title>tnut_outline_4&#45;&gt;shaft_8</title>
<path fill="none" stroke="black" d="M287.2,-246.8C312.67,-255.68 346.37,-267.43 371.26,-276.1"/>
<polygon fill="black" stroke="black" points="370.41,-279.51 381,-279.5 372.71,-272.9 370.41,-279.51"/>
</g>
<!-- shaft_extension_9 -->
<g id="node9" class="node">
<title>shaft_extension_9</title>
<g id="a_node9"><a xlink:href="javascript:s=&quot;\(&#x27;default&#x27;,\ &#x27;tnut_outline&#x27;,\ &#x27;shaft_extension&#x27;\)\nCylinder&quot;; console.log(s); alert(s);" xlink:title="Cylinder">
<ellipse fill="none" stroke="black" cx="406.38" cy="-234" rx="67.69" ry="18"/>
<text text-anchor="middle" x="406.38" y="-230.3" font-family="Times New Roman,serif" font-size="14.00">shaft_extension</text>
</a>
</g>
</g>
<!-- tnut_outline_4&#45;&gt;shaft_extension_9 -->
<g id="edge8" class="edge">
<title>tnut_outline_4&#45;&gt;shaft_extension_9</title>
<path fill="none" stroke="black" d="M302.93,-234C311.19,-234 319.88,-234 328.56,-234"/>
<polygon fill="black" stroke="black" points="328.72,-237.5 338.72,-234 328.72,-230.5 328.72,-237.5"/>
</g>
<!-- wing_10 -->
<g id="node10" class="node">
<title>wing_10</title>
<g id="a_node10"><a xlink:href="javascript:s=&quot;\(&#x27;default&#x27;,\ &#x27;tnut_outline&#x27;,\ \(&#x27;wing&#x27;,\ 0\)\)\nBox&quot;; console.log(s); alert(s);" xlink:title="Box">
<ellipse fill="none" stroke="black" cx="406.38" cy="-180" rx="46.59" ry="18"/>
<text text-anchor="middle" x="406.38" y="-176.3" font-family="Times New Roman,serif" font-size="14.00">(&#39;wing&#39;, 0)</text>
</a>
</g>
</g>
<!-- tnut_outline_4&#45;&gt;wing_10 -->
<g id="edge9" class="edge">
<title>tnut_outline_4&#45;&gt;wing_10</title>
<path fill="none" stroke="black" d="M287.2,-221.2C309.43,-213.45 337.92,-203.52 361.36,-195.35"/>
<polygon fill="black" stroke="black" points="362.77,-198.56 371.06,-191.97 360.46,-191.95 362.77,-198.56"/>
</g>
<!-- wing_11 -->
<g id="node11" class="node">
<title>wing_11</title>
<g id="a_node11"><a xlink:href="javascript:s=&quot;\(&#x27;default&#x27;,\ &#x27;tnut_outline&#x27;,\ \(&#x27;wing&#x27;,\ 1\)\)\nBox&quot;; console.log(s); alert(s);" xlink:title="Box">
<ellipse fill="none" stroke="black" cx="406.38" cy="-126" rx="46.59" ry="18"/>
<text text-anchor="middle" x="406.38" y="-122.3" font-family="Times New Roman,serif" font-size="14.00">(&#39;wing&#39;, 1)</text>
</a>
</g>
</g>
<!-- tnut_outline_4&#45;&gt;wing_11 -->
<g id="edge10" class="edge">
<title>tnut_outline_4&#45;&gt;wing_11</title>
<path fill="none" stroke="black" d="M283.66,-220.11C290.4,-216.42 297.15,-212.04 302.78,-207 324.28,-187.77 316.43,-171.23 338.78,-153 344.84,-148.07 351.91,-143.93 359.14,-140.5"/>
<polygon fill="black" stroke="black" points="360.54,-143.71 368.32,-136.52 357.75,-137.29 360.54,-143.71"/>
</g>
<!-- wing_12 -->
<g id="node12" class="node">
<title>wing_12</title>
<g id="a_node12"><a xlink:href="javascript:s=&quot;\(&#x27;default&#x27;,\ &#x27;tnut_outline&#x27;,\ \(&#x27;wing&#x27;,\ 2\)\)\nBox&quot;; console.log(s); alert(s);" xlink:title="Box">
<ellipse fill="none" stroke="black" cx="406.38" cy="-72" rx="46.59" ry="18"/>
<text text-anchor="middle" x="406.38" y="-68.3" font-family="Times New Roman,serif" font-size="14.00">(&#39;wing&#39;, 2)</text>
</a>
</g>
</g>
<!-- tnut_outline_4&#45;&gt;wing_12 -->
<g id="edge11" class="edge">
<title>tnut_outline_4&#45;&gt;wing_12</title>
<path fill="none" stroke="black" d="M285.56,-220.71C291.94,-217.04 298.07,-212.51 302.78,-207 335.69,-168.56 304.16,-135.89 338.78,-99 343.89,-93.56 350.25,-89.19 356.99,-85.68"/>
<polygon fill="black" stroke="black" points="358.69,-88.75 366.34,-81.42 355.79,-82.38 358.69,-88.75"/>
</g>
<!-- wing_13 -->
<g id="node13" class="node">
<title>wing_13</title>
<g id="a_node13"><a xlink:href="javascript:s=&quot;\(&#x27;default&#x27;,\ &#x27;tnut_outline&#x27;,\ \(&#x27;wing&#x27;,\ 3\)\)\nBox&quot;; console.log(s); alert(s);" xlink:title="Box">
<ellipse fill="none" stroke="black" cx="406.38" cy="-18" rx="46.59" ry="18"/>
<text text-anchor="middle" x="406.38" y="-14.3" font-family="Times New Roman,serif" font-size="14.00">(&#39;wing&#39;, 3)</text>
</a>
</g>
</g>
<!-- tnut_outline_4&#45;&gt;wing_13 -->
<g id="edge12" class="edge">
<title>tnut_outline_4&#45;&gt;wing_13</title>
<path fill="none" stroke="black" d="M286.28,-220.93C292.53,-217.25 298.42,-212.67 302.78,-207 347.8,-148.57 291.15,-101.31 338.78,-45 343.55,-39.37 349.66,-34.9 356.25,-31.35"/>
<polygon fill="black" stroke="black" points="357.86,-34.46 365.45,-27.07 354.91,-28.12 357.86,-34.46"/>
</g>
</g>
</svg>
