<?xml version="1.0" encoding="UTF-8" standalone="no"?>
<!DOCTYPE svg PUBLIC "-//W3C//DTD SVG 1.1//EN"
 "http://www.w3.org/Graphics/SVG/1.1/DTD/svg11.dtd">
<!-- Generated by graphviz version 5.0.0 (20220707.1540)
 -->
<!-- Title: default Pages: 1 -->
<svg width="860pt" height="422pt"
 viewBox="0.00 0.00 860.35 422.00" xmlns="http://www.w3.org/2000/svg" xmlns:xlink="http://www.w3.org/1999/xlink">
<g id="graph0" class="graph" transform="scale(1 1) rotate(0) translate(4 418)">
<title>default</title>
<polygon fill="white" stroke="transparent" points="-4,4 -4,-418 856.35,-418 856.35,4 -4,4"/>
<!-- root_1 -->
<g id="node1" class="node">
<title>root_1</title>
<g id="a_node1"><a xlink:href="javascript:s=&quot;\(\)\nNone&quot;; console.log(s); alert(s);" xlink:title="root">
<ellipse fill="none" stroke="black" cx="27" cy="-193" rx="27" ry="18"/>
<text text-anchor="middle" x="27" y="-189.3" font-family="Times New Roman,serif" font-size="14.00">root</text>
</a>
</g>
</g>
<!-- default_2 -->
<g id="node2" class="node">
<title>default_2</title>
<g id="a_node2"><a xlink:href="javascript:s=&quot;\(&#x27;default&#x27;,\)\nEdgeBracket&quot;; console.log(s); alert(s);" xlink:title="EdgeBracket">
<ellipse fill="none" stroke="black" cx="125.1" cy="-193" rx="35.19" ry="18"/>
<text text-anchor="middle" x="125.1" y="-189.3" font-family="Times New Roman,serif" font-size="14.00">default</text>
</a>
</g>
</g>
<!-- root_1&#45;&gt;default_2 -->
<g id="edge1" class="edge">
<title>root_1&#45;&gt;default_2</title>
<path fill="none" stroke="black" d="M54.01,-193C61.92,-193 70.84,-193 79.61,-193"/>
<polygon fill="black" stroke="black" points="79.76,-196.5 89.76,-193 79.76,-189.5 79.76,-196.5"/>
</g>
<!-- extrusion_3 -->
<g id="node3" class="node">
<title>extrusion_3</title>
<g id="a_node3"><a xlink:href="javascript:s=&quot;\(&#x27;default&#x27;,\ &#x27;extrusion&#x27;\)\nLinearExtrude&quot;; console.log(s); alert(s);" xlink:title="LinearExtrude">
<ellipse fill="none" stroke="black" cx="248.19" cy="-247" rx="44.39" ry="18"/>
<text text-anchor="middle" x="248.19" y="-243.3" font-family="Times New Roman,serif" font-size="14.00">extrusion</text>
</a>
</g>
</g>
<!-- default_2&#45;&gt;extrusion_3 -->
<g id="edge2" class="edge">
<title>default_2&#45;&gt;extrusion_3</title>
<path fill="none" stroke="black" d="M152.07,-204.58C168.41,-211.87 189.79,-221.4 208.14,-229.59"/>
<polygon fill="black" stroke="black" points="206.86,-232.85 217.42,-233.72 209.71,-226.45 206.86,-232.85"/>
</g>
<!-- sepatator_4 -->
<g id="node4" class="node">
<title>sepatator_4</title>
<g id="a_node4"><a xlink:href="javascript:s=&quot;\(&#x27;default&#x27;,\ &#x27;sepatator&#x27;\)\nCylinder&quot;; console.log(s); alert(s);" xlink:title="Cylinder">
<ellipse fill="none" stroke="black" cx="248.19" cy="-193" rx="44.39" ry="18"/>
<text text-anchor="middle" x="248.19" y="-189.3" font-family="Times New Roman,serif" font-size="14.00">sepatator</text>
</a>
</g>
</g>
<!-- default_2&#45;&gt;sepatator_4 -->
<g id="edge3" class="edge">
<title>default_2&#45;&gt;sepatator_4</title>
<path fill="none" stroke="black" d="M160.47,-193C170.75,-193 182.28,-193 193.48,-193"/>
<polygon fill="black" stroke="black" points="193.64,-196.5 203.64,-193 193.64,-189.5 193.64,-196.5"/>
</g>
<!-- screw_hole_5 -->
<g id="node5" class="node">
<title>screw_hole_5</title>
<g id="a_node5"><a xlink:href="javascript:s=&quot;\(&#x27;default&#x27;,\ &#x27;screw_hole&#x27;\)\nCountersinkSelfTapHole&quot;; console.log(s); alert(s);" xlink:title="CountersinkSelfTapHole">
<ellipse fill="none" stroke="black" cx="248.19" cy="-139" rx="51.99" ry="18"/>
<text text-anchor="middle" x="248.19" y="-135.3" font-family="Times New Roman,serif" font-size="14.00">screw_hole</text>
</a>
</g>
</g>
<!-- default_2&#45;&gt;screw_hole_5 -->
<g id="edge4" class="edge">
<title>default_2&#45;&gt;screw_hole_5</title>
<path fill="none" stroke="black" d="M152.07,-181.42C167.79,-174.41 188.18,-165.32 206.04,-157.35"/>
<polygon fill="black" stroke="black" points="207.96,-160.33 215.66,-153.06 205.1,-153.94 207.96,-160.33"/>
</g>
<!-- screw_hole_6 -->
<g id="node6" class="node">
<title>screw_hole_6</title>
<g id="a_node6"><a xlink:href="javascript:s=&quot;\(&#x27;default&#x27;,\ &#x27;screw_hole&#x27;,\ &#x27;screw_hole&#x27;\)\nSelfTapHole&quot;; console.log(s); alert(s);" xlink:title="SelfTapHole">
<ellipse fill="none" stroke="black" cx="391.43" cy="-193" rx="51.99" ry="18"/>
<text text-anchor="middle" x="391.43" y="-189.3" font-family="Times New Roman,serif" font-size="14.00">screw_hole</text>
</a>
</g>
</g>
<!-- screw_hole_5&#45;&gt;screw_hole_6 -->
<g id="edge5" class="edge">
<title>screw_hole_5&#45;&gt;screw_hole_6</title>
<path fill="none" stroke="black" d="M283.74,-152.21C302.55,-159.4 326.03,-168.38 346.16,-176.08"/>
<polygon fill="black" stroke="black" points="345.15,-179.44 355.75,-179.74 347.65,-172.9 345.15,-179.44"/>
</g>
<!-- access_hole_22 -->
<g id="node22" class="node">
<title>access_hole_22</title>
<g id="a_node22"><a xlink:href="javascript:s=&quot;\(&#x27;default&#x27;,\ &#x27;screw_hole&#x27;,\ &#x27;access_hole&#x27;\)\nCountersinkAccessHole&quot;; console.log(s); alert(s);" xlink:title="CountersinkAccessHole">
<ellipse fill="none" stroke="black" cx="391.43" cy="-112" rx="55.49" ry="18"/>
<text text-anchor="middle" x="391.43" y="-108.3" font-family="Times New Roman,serif" font-size="14.00">access_hole</text>
</a>
</g>
</g>
<!-- screw_hole_5&#45;&gt;access_hole_22 -->
<g id="edge21" class="edge">
<title>screw_hole_5&#45;&gt;access_hole_22</title>
<path fill="none" stroke="black" d="M294.27,-130.38C306.75,-128 320.46,-125.38 333.52,-122.88"/>
<polygon fill="black" stroke="black" points="334.18,-126.32 343.35,-121 332.87,-119.44 334.18,-126.32"/>
</g>
<!-- pipe_7 -->
<g id="node7" class="node">
<title>pipe_7</title>
<g id="a_node7"><a xlink:href="javascript:s=&quot;\(&#x27;default&#x27;,\ &#x27;screw_hole&#x27;,\ &#x27;screw_hole&#x27;,\ &#x27;pipe&#x27;\)\nCylinder&quot;; console.log(s); alert(s);" xlink:title="Cylinder">
<ellipse fill="none" stroke="black" cx="559.37" cy="-288" rx="27" ry="18"/>
<text text-anchor="middle" x="559.37" y="-284.3" font-family="Times New Roman,serif" font-size="14.00">pipe</text>
</a>
</g>
</g>
<!-- screw_hole_6&#45;&gt;pipe_7 -->
<g id="edge6" class="edge">
<title>screw_hole_6&#45;&gt;pipe_7</title>
<path fill="none" stroke="black" d="M411.33,-209.96C428.82,-224.97 456.08,-246.67 482.67,-261 495.69,-268.01 510.91,-273.85 524.26,-278.28"/>
<polygon fill="black" stroke="black" points="523.46,-281.69 534.05,-281.39 525.58,-275.02 523.46,-281.69"/>
</g>
<!-- thru_8 -->
<g id="node8" class="node">
<title>thru_8</title>
<g id="a_node8"><a xlink:href="javascript:s=&quot;\(&#x27;default&#x27;,\ &#x27;screw_hole&#x27;,\ &#x27;screw_hole&#x27;,\ &#x27;thru&#x27;\)\nPipe&quot;; console.log(s); alert(s);" xlink:title="Pipe">
<ellipse fill="none" stroke="black" cx="559.37" cy="-234" rx="27" ry="18"/>
<text text-anchor="middle" x="559.37" y="-230.3" font-family="Times New Roman,serif" font-size="14.00">thru</text>
</a>
</g>
</g>
<!-- screw_hole_6&#45;&gt;thru_8 -->
<g id="edge7" class="edge">
<title>screw_hole_6&#45;&gt;thru_8</title>
<path fill="none" stroke="black" d="M434.3,-203.35C461.93,-210.17 497.7,-219.01 523.73,-225.44"/>
<polygon fill="black" stroke="black" points="522.99,-228.86 533.54,-227.86 524.67,-222.07 522.99,-228.86"/>
</g>
<!-- tap_15 -->
<g id="node15" class="node">
<title>tap_15</title>
<g id="a_node15"><a xlink:href="javascript:s=&quot;\(&#x27;default&#x27;,\ &#x27;screw_hole&#x27;,\ &#x27;screw_hole&#x27;,\ &#x27;tap&#x27;\)\nPipe&quot;; console.log(s); alert(s);" xlink:title="Pipe">
<ellipse fill="none" stroke="black" cx="559.37" cy="-180" rx="27" ry="18"/>
<text text-anchor="middle" x="559.37" y="-176.3" font-family="Times New Roman,serif" font-size="14.00">tap</text>
</a>
</g>
</g>
<!-- screw_hole_6&#45;&gt;tap_15 -->
<g id="edge14" class="edge">
<title>screw_hole_6&#45;&gt;tap_15</title>
<path fill="none" stroke="black" d="M442.22,-189.1C467.88,-187.09 498.62,-184.68 522.02,-182.85"/>
<polygon fill="black" stroke="black" points="522.52,-186.32 532.21,-182.05 521.97,-179.34 522.52,-186.32"/>
</g>
<!-- outer_9 -->
<g id="node9" class="node">
<title>outer_9</title>
<g id="a_node9"><a xlink:href="javascript:s=&quot;\(&#x27;default&#x27;,\ &#x27;screw_hole&#x27;,\ &#x27;screw_hole&#x27;,\ &#x27;thru&#x27;,\ &#x27;outer&#x27;\)\nPie&quot;; console.log(s); alert(s);" xlink:title="Pie">
<ellipse fill="none" stroke="black" cx="701.31" cy="-342" rx="29.5" ry="18"/>
<text text-anchor="middle" x="701.31" y="-338.3" font-family="Times New Roman,serif" font-size="14.00">outer</text>
</a>
</g>
</g>
<!-- thru_8&#45;&gt;outer_9 -->
<g id="edge8" class="edge">
<title>thru_8&#45;&gt;outer_9</title>
<path fill="none" stroke="black" d="M585.55,-239.23C601.13,-243.33 620.97,-250.2 636.06,-261 656.57,-275.68 673.92,-298.65 685.4,-316.38"/>
<polygon fill="black" stroke="black" points="682.58,-318.48 690.85,-325.11 688.52,-314.77 682.58,-318.48"/>
</g>
<!-- inner_12 -->
<g id="node12" class="node">
<title>inner_12</title>
<g id="a_node12"><a xlink:href="javascript:s=&quot;\(&#x27;default&#x27;,\ &#x27;screw_hole&#x27;,\ &#x27;screw_hole&#x27;,\ &#x27;thru&#x27;,\ &#x27;inner&#x27;\)\nPie&quot;; console.log(s); alert(s);" xlink:title="Pie">
<ellipse fill="none" stroke="black" cx="701.31" cy="-234" rx="28.7" ry="18"/>
<text text-anchor="middle" x="701.31" y="-230.3" font-family="Times New Roman,serif" font-size="14.00">inner</text>
</a>
</g>
</g>
<!-- thru_8&#45;&gt;inner_12 -->
<g id="edge11" class="edge">
<title>thru_8&#45;&gt;inner_12</title>
<path fill="none" stroke="black" d="M586.69,-234C608.07,-234 638.5,-234 662.49,-234"/>
<polygon fill="black" stroke="black" points="662.67,-237.5 672.67,-234 662.67,-230.5 662.67,-237.5"/>
</g>
<!-- pie_cage_10 -->
<g id="node10" class="node">
<title>pie_cage_10</title>
<g id="a_node10"><a xlink:href="javascript:s=&quot;\(&#x27;default&#x27;,\ &#x27;screw_hole&#x27;,\ &#x27;screw_hole&#x27;,\ &#x27;thru&#x27;,\ &#x27;outer&#x27;,\ &#x27;pie_cage&#x27;\)\nCylinder&quot;; console.log(s); alert(s);" xlink:title="Cylinder">
<ellipse fill="none" stroke="black" cx="809.45" cy="-396" rx="42.79" ry="18"/>
<text text-anchor="middle" x="809.45" y="-392.3" font-family="Times New Roman,serif" font-size="14.00">pie_cage</text>
</a>
</g>
</g>
<!-- outer_9&#45;&gt;pie_cage_10 -->
<g id="edge9" class="edge">
<title>outer_9&#45;&gt;pie_cage_10</title>
<path fill="none" stroke="black" d="M724.3,-353.19C738.11,-360.21 756.25,-369.44 772.15,-377.53"/>
<polygon fill="black" stroke="black" points="770.7,-380.72 781.2,-382.14 773.88,-374.48 770.7,-380.72"/>
</g>
<!-- pie_11 -->
<g id="node11" class="node">
<title>pie_11</title>
<g id="a_node11"><a xlink:href="javascript:s=&quot;\(&#x27;default&#x27;,\ &#x27;screw_hole&#x27;,\ &#x27;screw_hole&#x27;,\ &#x27;thru&#x27;,\ &#x27;outer&#x27;,\ &#x27;pie&#x27;\)\nRotateExtrude&quot;; console.log(s); alert(s);" xlink:title="RotateExtrude">
<ellipse fill="none" stroke="black" cx="809.45" cy="-342" rx="27" ry="18"/>
<text text-anchor="middle" x="809.45" y="-338.3" font-family="Times New Roman,serif" font-size="14.00">pie</text>
</a>
</g>
</g>
<!-- outer_9&#45;&gt;pie_11 -->
<g id="edge10" class="edge">
<title>outer_9&#45;&gt;pie_11</title>
<path fill="none" stroke="black" d="M730.75,-342C743.35,-342 758.33,-342 771.76,-342"/>
<polygon fill="black" stroke="black" points="772.12,-345.5 782.12,-342 772.12,-338.5 772.12,-345.5"/>
</g>
<!-- pie_cage_13 -->
<g id="node13" class="node">
<title>pie_cage_13</title>
<g id="a_node13"><a xlink:href="javascript:s=&quot;\(&#x27;default&#x27;,\ &#x27;screw_hole&#x27;,\ &#x27;screw_hole&#x27;,\ &#x27;thru&#x27;,\ &#x27;inner&#x27;,\ &#x27;pie_cage&#x27;\)\nCylinder&quot;; console.log(s); alert(s);" xlink:title="Cylinder">
<ellipse fill="none" stroke="black" cx="809.45" cy="-288" rx="42.79" ry="18"/>
<text text-anchor="middle" x="809.45" y="-284.3" font-family="Times New Roman,serif" font-size="14.00">pie_cage</text>
</a>
</g>
</g>
<!-- inner_12&#45;&gt;pie_cage_13 -->
<g id="edge12" class="edge">
<title>inner_12&#45;&gt;pie_cage_13</title>
<path fill="none" stroke="black" d="M724.04,-245.06C737.94,-252.13 756.29,-261.46 772.34,-269.63"/>
<polygon fill="black" stroke="black" points="770.97,-272.86 781.46,-274.27 774.14,-266.62 770.97,-272.86"/>
</g>
<!-- pie_14 -->
<g id="node14" class="node">
<title>pie_14</title>
<g id="a_node14"><a xlink:href="javascript:s=&quot;\(&#x27;default&#x27;,\ &#x27;screw_hole&#x27;,\ &#x27;screw_hole&#x27;,\ &#x27;thru&#x27;,\ &#x27;inner&#x27;,\ &#x27;pie&#x27;\)\nRotateExtrude&quot;; console.log(s); alert(s);" xlink:title="RotateExtrude">
<ellipse fill="none" stroke="black" cx="809.45" cy="-234" rx="27" ry="18"/>
<text text-anchor="middle" x="809.45" y="-230.3" font-family="Times New Roman,serif" font-size="14.00">pie</text>
</a>
</g>
</g>
<!-- inner_12&#45;&gt;pie_14 -->
<g id="edge13" class="edge">
<title>inner_12&#45;&gt;pie_14</title>
<path fill="none" stroke="black" d="M729.92,-234C742.84,-234 758.4,-234 772.25,-234"/>
<polygon fill="black" stroke="black" points="772.44,-237.5 782.44,-234 772.44,-230.5 772.44,-237.5"/>
</g>
<!-- outer_16 -->
<g id="node16" class="node">
<title>outer_16</title>
<g id="a_node16"><a xlink:href="javascript:s=&quot;\(&#x27;default&#x27;,\ &#x27;screw_hole&#x27;,\ &#x27;screw_hole&#x27;,\ &#x27;tap&#x27;,\ &#x27;outer&#x27;\)\nPie&quot;; console.log(s); alert(s);" xlink:title="Pie">
<ellipse fill="none" stroke="black" cx="701.31" cy="-180" rx="29.5" ry="18"/>
<text text-anchor="middle" x="701.31" y="-176.3" font-family="Times New Roman,serif" font-size="14.00">outer</text>
</a>
</g>
</g>
<!-- tap_15&#45;&gt;outer_16 -->
<g id="edge15" class="edge">
<title>tap_15&#45;&gt;outer_16</title>
<path fill="none" stroke="black" d="M586.69,-180C607.79,-180 637.72,-180 661.56,-180"/>
<polygon fill="black" stroke="black" points="661.7,-183.5 671.7,-180 661.7,-176.5 661.7,-183.5"/>
</g>
<!-- inner_19 -->
<g id="node19" class="node">
<title>inner_19</title>
<g id="a_node19"><a xlink:href="javascript:s=&quot;\(&#x27;default&#x27;,\ &#x27;screw_hole&#x27;,\ &#x27;screw_hole&#x27;,\ &#x27;tap&#x27;,\ &#x27;inner&#x27;\)\nPie&quot;; console.log(s); alert(s);" xlink:title="Pie">
<ellipse fill="none" stroke="black" cx="701.31" cy="-72" rx="28.7" ry="18"/>
<text text-anchor="middle" x="701.31" y="-68.3" font-family="Times New Roman,serif" font-size="14.00">inner</text>
</a>
</g>
</g>
<!-- tap_15&#45;&gt;inner_19 -->
<g id="edge18" class="edge">
<title>tap_15&#45;&gt;inner_19</title>
<path fill="none" stroke="black" d="M585.55,-174.77C601.13,-170.67 620.97,-163.8 636.06,-153 656.57,-138.32 673.92,-115.35 685.4,-97.62"/>
<polygon fill="black" stroke="black" points="688.52,-99.23 690.85,-88.89 682.58,-95.52 688.52,-99.23"/>
</g>
<!-- pie_cage_17 -->
<g id="node17" class="node">
<title>pie_cage_17</title>
<g id="a_node17"><a xlink:href="javascript:s=&quot;\(&#x27;default&#x27;,\ &#x27;screw_hole&#x27;,\ &#x27;screw_hole&#x27;,\ &#x27;tap&#x27;,\ &#x27;outer&#x27;,\ &#x27;pie_cage&#x27;\)\nCylinder&quot;; console.log(s); alert(s);" xlink:title="Cylinder">
<ellipse fill="none" stroke="black" cx="809.45" cy="-180" rx="42.79" ry="18"/>
<text text-anchor="middle" x="809.45" y="-176.3" font-family="Times New Roman,serif" font-size="14.00">pie_cage</text>
</a>
</g>
</g>
<!-- outer_16&#45;&gt;pie_cage_17 -->
<g id="edge16" class="edge">
<title>outer_16&#45;&gt;pie_cage_17</title>
<path fill="none" stroke="black" d="M730.75,-180C738.61,-180 747.39,-180 756.14,-180"/>
<polygon fill="black" stroke="black" points="756.35,-183.5 766.35,-180 756.35,-176.5 756.35,-183.5"/>
</g>
<!-- pie_18 -->
<g id="node18" class="node">
<title>pie_18</title>
<g id="a_node18"><a xlink:href="javascript:s=&quot;\(&#x27;default&#x27;,\ &#x27;screw_hole&#x27;,\ &#x27;screw_hole&#x27;,\ &#x27;tap&#x27;,\ &#x27;outer&#x27;,\ &#x27;pie&#x27;\)\nRotateExtrude&quot;; console.log(s); alert(s);" xlink:title="RotateExtrude">
<ellipse fill="none" stroke="black" cx="809.45" cy="-126" rx="27" ry="18"/>
<text text-anchor="middle" x="809.45" y="-122.3" font-family="Times New Roman,serif" font-size="14.00">pie</text>
</a>
</g>
</g>
<!-- outer_16&#45;&gt;pie_18 -->
<g id="edge17" class="edge">
<title>outer_16&#45;&gt;pie_18</title>
<path fill="none" stroke="black" d="M724.3,-168.81C739.98,-160.84 761.24,-150.02 778.47,-141.25"/>
<polygon fill="black" stroke="black" points="780.24,-144.28 787.57,-136.62 777.07,-138.04 780.24,-144.28"/>
</g>
<!-- pie_cage_20 -->
<g id="node20" class="node">
<title>pie_cage_20</title>
<g id="a_node20"><a xlink:href="javascript:s=&quot;\(&#x27;default&#x27;,\ &#x27;screw_hole&#x27;,\ &#x27;screw_hole&#x27;,\ &#x27;tap&#x27;,\ &#x27;inner&#x27;,\ &#x27;pie_cage&#x27;\)\nCylinder&quot;; console.log(s); alert(s);" xlink:title="Cylinder">
<ellipse fill="none" stroke="black" cx="809.45" cy="-72" rx="42.79" ry="18"/>
<text text-anchor="middle" x="809.45" y="-68.3" font-family="Times New Roman,serif" font-size="14.00">pie_cage</text>
</a>
</g>
</g>
<!-- inner_19&#45;&gt;pie_cage_20 -->
<g id="edge19" class="edge">
<title>inner_19&#45;&gt;pie_cage_20</title>
<path fill="none" stroke="black" d="M729.92,-72C737.95,-72 747.01,-72 756.03,-72"/>
<polygon fill="black" stroke="black" points="756.16,-75.5 766.16,-72 756.16,-68.5 756.16,-75.5"/>
</g>
<!-- pie_21 -->
<g id="node21" class="node">
<title>pie_21</title>
<g id="a_node21"><a xlink:href="javascript:s=&quot;\(&#x27;default&#x27;,\ &#x27;screw_hole&#x27;,\ &#x27;screw_hole&#x27;,\ &#x27;tap&#x27;,\ &#x27;inner&#x27;,\ &#x27;pie&#x27;\)\nRotateExtrude&quot;; console.log(s); alert(s);" xlink:title="RotateExtrude">
<ellipse fill="none" stroke="black" cx="809.45" cy="-18" rx="27" ry="18"/>
<text text-anchor="middle" x="809.45" y="-14.3" font-family="Times New Roman,serif" font-size="14.00">pie</text>
</a>
</g>
</g>
<!-- inner_19&#45;&gt;pie_21 -->
<g id="edge20" class="edge">
<title>inner_19&#45;&gt;pie_21</title>
<path fill="none" stroke="black" d="M724.04,-60.94C739.7,-52.98 761.03,-42.12 778.33,-33.32"/>
<polygon fill="black" stroke="black" points="780.14,-36.33 787.47,-28.68 776.97,-30.09 780.14,-36.33"/>
</g>
<!-- access_hole_cage_23 -->
<g id="node23" class="node">
<title>access_hole_cage_23</title>
<g id="a_node23"><a xlink:href="javascript:s=&quot;\(&#x27;default&#x27;,\ &#x27;screw_hole&#x27;,\ &#x27;access_hole&#x27;,\ &#x27;access_hole_cage&#x27;\)\nCylinder&quot;; console.log(s); alert(s);" xlink:title="Cylinder">
<ellipse fill="none" stroke="black" cx="559.37" cy="-126" rx="76.89" ry="18"/>
<text text-anchor="middle" x="559.37" y="-122.3" font-family="Times New Roman,serif" font-size="14.00">access_hole_cage</text>
</a>
</g>
</g>
<!-- access_hole_22&#45;&gt;access_hole_cage_23 -->
<g id="edge22" class="edge">
<title>access_hole_22&#45;&gt;access_hole_cage_23</title>
<path fill="none" stroke="black" d="M445.39,-116.47C455.38,-117.31 466.04,-118.21 476.68,-119.11"/>
<polygon fill="black" stroke="black" points="476.58,-122.61 486.84,-119.97 477.17,-115.64 476.58,-122.61"/>
</g>
<!-- access_hole_24 -->
<g id="node24" class="node">
<title>access_hole_24</title>
<g id="a_node24"><a xlink:href="javascript:s=&quot;\(&#x27;default&#x27;,\ &#x27;screw_hole&#x27;,\ &#x27;access_hole&#x27;,\ &#x27;access_hole&#x27;\)\nCylinder&quot;; console.log(s); alert(s);" xlink:title="Cylinder">
<ellipse fill="none" stroke="black" cx="559.37" cy="-72" rx="55.49" ry="18"/>
<text text-anchor="middle" x="559.37" y="-68.3" font-family="Times New Roman,serif" font-size="14.00">access_hole</text>
</a>
</g>
</g>
<!-- access_hole_22&#45;&gt;access_hole_24 -->
<g id="edge23" class="edge">
<title>access_hole_22&#45;&gt;access_hole_24</title>
<path fill="none" stroke="black" d="M436.46,-101.39C457.36,-96.35 482.52,-90.28 504.55,-84.97"/>
<polygon fill="black" stroke="black" points="505.52,-88.34 514.42,-82.59 503.88,-81.54 505.52,-88.34"/>
</g>
<!-- couter_sink_hole_25 -->
<g id="node25" class="node">
<title>couter_sink_hole_25</title>
<g id="a_node25"><a xlink:href="javascript:s=&quot;\(&#x27;default&#x27;,\ &#x27;screw_hole&#x27;,\ &#x27;access_hole&#x27;,\ &#x27;couter_sink_hole&#x27;\)\nCone&quot;; console.log(s); alert(s);" xlink:title="Cone">
<ellipse fill="none" stroke="black" cx="559.37" cy="-18" rx="73.39" ry="18"/>
<text text-anchor="middle" x="559.37" y="-14.3" font-family="Times New Roman,serif" font-size="14.00">couter_sink_hole</text>
</a>
</g>
</g>
<!-- access_hole_22&#45;&gt;couter_sink_hole_25 -->
<g id="edge24" class="edge">
<title>access_hole_22&#45;&gt;couter_sink_hole_25</title>
<path fill="none" stroke="black" d="M411.71,-95.02C429.25,-80.25 456.34,-59.07 482.67,-45 489.02,-41.61 495.88,-38.49 502.79,-35.67"/>
<polygon fill="black" stroke="black" points="504.15,-38.9 512.2,-32.01 501.61,-32.37 504.15,-38.9"/>
</g>
</g>
</svg>
