<?xml version="1.0" encoding="UTF-8" standalone="no"?>
<!DOCTYPE svg PUBLIC "-//W3C//DTD SVG 1.1//EN"
 "http://www.w3.org/Graphics/SVG/1.1/DTD/svg11.dtd">
<!-- Generated by graphviz version 5.0.0 (20220707.1540)
 -->
<!-- Title: default Pages: 1 -->
<svg width="558pt" height="638pt"
 viewBox="0.00 0.00 558.27 638.00" xmlns="http://www.w3.org/2000/svg" xmlns:xlink="http://www.w3.org/1999/xlink">
<g id="graph0" class="graph" transform="scale(1 1) rotate(0) translate(4 634)">
<title>default</title>
<polygon fill="white" stroke="transparent" points="-4,4 -4,-634 554.27,-634 554.27,4 -4,4"/>
<!-- root_1 -->
<g id="node1" class="node">
<title>root_1</title>
<g id="a_node1"><a xlink:href="javascript:s=&quot;\(\)\nNone&quot;; console.log(s); alert(s);" xlink:title="root">
<ellipse fill="none" stroke="black" cx="27" cy="-396" rx="27" ry="18"/>
<text text-anchor="middle" x="27" y="-392.3" font-family="Times New Roman,serif" font-size="14.00">root</text>
</a>
</g>
</g>
<!-- default_2 -->
<g id="node2" class="node">
<title>default_2</title>
<g id="a_node2"><a xlink:href="javascript:s=&quot;\(&#x27;default&#x27;,\)\nTriangularPrism&quot;; console.log(s); alert(s);" xlink:title="TriangularPrism">
<ellipse fill="none" stroke="black" cx="160.84" cy="-558" rx="35.19" ry="18"/>
<text text-anchor="middle" x="160.84" y="-554.3" font-family="Times New Roman,serif" font-size="14.00">default</text>
</a>
</g>
</g>
<!-- root_1&#45;&gt;default_2 -->
<g id="edge1" class="edge">
<title>root_1&#45;&gt;default_2</title>
<path fill="none" stroke="black" d="M40.88,-411.83C63.94,-440.16 112.41,-499.72 139.83,-533.41"/>
<polygon fill="black" stroke="black" points="137.29,-535.84 146.32,-541.38 142.72,-531.42 137.29,-535.84"/>
</g>
<!-- 5 -->
<g id="node5" class="node">
<title>5</title>
<g id="a_node5"><a xlink:href="javascript:s=&quot;\(&quot;&#x27;base&#x27;,\ 0\.5,\ &quot;,\)\nAnnotatedCoordinates&quot;; console.log(s); alert(s);" xlink:title="AnnotatedCoordinates">
<ellipse fill="none" stroke="black" cx="160.84" cy="-396" rx="51.99" ry="18"/>
<text text-anchor="middle" x="160.84" y="-392.3" font-family="Times New Roman,serif" font-size="14.00">&#39;base&#39;, 0.5, </text>
</a>
</g>
</g>
<!-- root_1&#45;&gt;5 -->
<g id="edge4" class="edge">
<title>root_1&#45;&gt;5</title>
<path fill="none" stroke="black" d="M54.05,-396C66.85,-396 82.87,-396 98.54,-396"/>
<polygon fill="black" stroke="black" points="98.75,-399.5 108.75,-396 98.75,-392.5 98.75,-399.5"/>
</g>
<!-- 21 -->
<g id="node21" class="node">
<title>21</title>
<g id="a_node21"><a xlink:href="javascript:s=&quot;\(&quot;&#x27;face_centre&#x27;,\ 1,\ &quot;,\)\nAnnotatedCoordinates&quot;; console.log(s); alert(s);" xlink:title="AnnotatedCoordinates">
<ellipse fill="none" stroke="black" cx="160.84" cy="-153" rx="70.69" ry="18"/>
<text text-anchor="middle" x="160.84" y="-149.3" font-family="Times New Roman,serif" font-size="14.00">&#39;face_centre&#39;, 1, </text>
</a>
</g>
</g>
<!-- root_1&#45;&gt;21 -->
<g id="edge20" class="edge">
<title>root_1&#45;&gt;21</title>
<path fill="none" stroke="black" d="M37.27,-378.91C59.85,-337.3 117.83,-230.44 145.16,-180.06"/>
<polygon fill="black" stroke="black" points="148.36,-181.51 150.05,-171.05 142.2,-178.17 148.36,-181.51"/>
</g>
<!-- cage_3 -->
<g id="node3" class="node">
<title>cage_3</title>
<g id="a_node3"><a xlink:href="javascript:s=&quot;\(&#x27;default&#x27;,\ &#x27;cage&#x27;\)\nBox&quot;; console.log(s); alert(s);" xlink:title="Box">
<ellipse fill="none" stroke="black" cx="304.08" cy="-612" rx="27.1" ry="18"/>
<text text-anchor="middle" x="304.08" y="-608.3" font-family="Times New Roman,serif" font-size="14.00">cage</text>
</a>
</g>
</g>
<!-- default_2&#45;&gt;cage_3 -->
<g id="edge2" class="edge">
<title>default_2&#45;&gt;cage_3</title>
<path fill="none" stroke="black" d="M189.41,-568.54C212.55,-577.39 245.67,-590.05 270.2,-599.43"/>
<polygon fill="black" stroke="black" points="269.21,-602.79 279.8,-603.1 271.71,-596.26 269.21,-602.79"/>
</g>
<!-- prism_4 -->
<g id="node4" class="node">
<title>prism_4</title>
<g id="a_node4"><a xlink:href="javascript:s=&quot;\(&#x27;default&#x27;,\ &#x27;prism&#x27;\)\nLinearExtrude&quot;; console.log(s); alert(s);" xlink:title="LinearExtrude">
<ellipse fill="none" stroke="black" cx="304.08" cy="-558" rx="31.4" ry="18"/>
<text text-anchor="middle" x="304.08" y="-554.3" font-family="Times New Roman,serif" font-size="14.00">prism</text>
</a>
</g>
</g>
<!-- default_2&#45;&gt;prism_4 -->
<g id="edge3" class="edge">
<title>default_2&#45;&gt;prism_4</title>
<path fill="none" stroke="black" d="M196.03,-558C216.01,-558 241.34,-558 262.34,-558"/>
<polygon fill="black" stroke="black" points="262.57,-561.5 272.57,-558 262.57,-554.5 262.57,-561.5"/>
</g>
<!-- coords_6 -->
<g id="node6" class="node">
<title>coords_6</title>
<g id="a_node6"><a xlink:href="javascript:s=&quot;\(&quot;&#x27;base&#x27;,\ 0\.5,\ &quot;,\ &#x27;coords&#x27;\)\nCoordinates&quot;; console.log(s); alert(s);" xlink:title="Coordinates">
<ellipse fill="none" stroke="black" cx="304.08" cy="-504" rx="36.29" ry="18"/>
<text text-anchor="middle" x="304.08" y="-500.3" font-family="Times New Roman,serif" font-size="14.00">coords</text>
</a>
</g>
</g>
<!-- 5&#45;&gt;coords_6 -->
<g id="edge5" class="edge">
<title>5&#45;&gt;coords_6</title>
<path fill="none" stroke="black" d="M183.32,-412.45C204.7,-428.83 238.45,-454.66 267.69,-477 270.05,-478.8 272.5,-480.67 274.96,-482.55"/>
<polygon fill="black" stroke="black" points="273.16,-485.58 283.24,-488.87 277.41,-480.02 273.16,-485.58"/>
</g>
<!-- x_17 -->
<g id="node17" class="node">
<title>x_17</title>
<g id="a_node17"><a xlink:href="javascript:s=&quot;\(&quot;&#x27;base&#x27;,\ 0\.5,\ &quot;,\ &#x27;x&#x27;\)\nText&quot;; console.log(s); alert(s);" xlink:title="Text">
<ellipse fill="none" stroke="black" cx="304.08" cy="-450" rx="27" ry="18"/>
<text text-anchor="middle" x="304.08" y="-446.3" font-family="Times New Roman,serif" font-size="14.00">x</text>
</a>
</g>
</g>
<!-- 5&#45;&gt;x_17 -->
<g id="edge16" class="edge">
<title>5&#45;&gt;x_17</title>
<path fill="none" stroke="black" d="M196.4,-409.21C219.16,-417.91 248.76,-429.23 271.01,-437.74"/>
<polygon fill="black" stroke="black" points="269.76,-441.01 280.35,-441.31 272.26,-434.47 269.76,-441.01"/>
</g>
<!-- y_18 -->
<g id="node18" class="node">
<title>y_18</title>
<g id="a_node18"><a xlink:href="javascript:s=&quot;\(&quot;&#x27;base&#x27;,\ 0\.5,\ &quot;,\ &#x27;y&#x27;\)\nText&quot;; console.log(s); alert(s);" xlink:title="Text">
<ellipse fill="none" stroke="black" cx="304.08" cy="-396" rx="27" ry="18"/>
<text text-anchor="middle" x="304.08" y="-392.3" font-family="Times New Roman,serif" font-size="14.00">y</text>
</a>
</g>
</g>
<!-- 5&#45;&gt;y_18 -->
<g id="edge17" class="edge">
<title>5&#45;&gt;y_18</title>
<path fill="none" stroke="black" d="M213.23,-396C230.96,-396 250.44,-396 266.72,-396"/>
<polygon fill="black" stroke="black" points="266.9,-399.5 276.9,-396 266.9,-392.5 266.9,-399.5"/>
</g>
<!-- z_19 -->
<g id="node19" class="node">
<title>z_19</title>
<g id="a_node19"><a xlink:href="javascript:s=&quot;\(&quot;&#x27;base&#x27;,\ 0\.5,\ &quot;,\ &#x27;z&#x27;\)\nText&quot;; console.log(s); alert(s);" xlink:title="Text">
<ellipse fill="none" stroke="black" cx="304.08" cy="-342" rx="27" ry="18"/>
<text text-anchor="middle" x="304.08" y="-338.3" font-family="Times New Roman,serif" font-size="14.00">z</text>
</a>
</g>
</g>
<!-- 5&#45;&gt;z_19 -->
<g id="edge18" class="edge">
<title>5&#45;&gt;z_19</title>
<path fill="none" stroke="black" d="M196.4,-382.79C219.16,-374.09 248.76,-362.77 271.01,-354.26"/>
<polygon fill="black" stroke="black" points="272.26,-357.53 280.35,-350.69 269.76,-350.99 272.26,-357.53"/>
</g>
<!-- label_20 -->
<g id="node20" class="node">
<title>label_20</title>
<g id="a_node20"><a xlink:href="javascript:s=&quot;\(&quot;&#x27;base&#x27;,\ 0\.5,\ &quot;,\ &#x27;label&#x27;\)\nText&quot;; console.log(s); alert(s);" xlink:title="Text">
<ellipse fill="none" stroke="black" cx="304.08" cy="-288" rx="27.1" ry="18"/>
<text text-anchor="middle" x="304.08" y="-284.3" font-family="Times New Roman,serif" font-size="14.00">label</text>
</a>
</g>
</g>
<!-- 5&#45;&gt;label_20 -->
<g id="edge19" class="edge">
<title>5&#45;&gt;label_20</title>
<path fill="none" stroke="black" d="M183.32,-379.55C204.7,-363.17 238.45,-337.34 267.69,-315 270.84,-312.59 274.16,-310.06 277.45,-307.55"/>
<polygon fill="black" stroke="black" points="279.61,-310.3 285.44,-301.45 275.36,-304.74 279.61,-310.3"/>
</g>
<!-- origin_7 -->
<g id="node7" class="node">
<title>origin_7</title>
<g id="a_node7"><a xlink:href="javascript:s=&quot;\(&quot;&#x27;base&#x27;,\ 0\.5,\ &quot;,\ &#x27;coords&#x27;,\ &#x27;origin&#x27;\)\nCoordinatesCage&quot;; console.log(s); alert(s);" xlink:title="CoordinatesCage">
<ellipse fill="none" stroke="black" cx="417.43" cy="-612" rx="31.4" ry="18"/>
<text text-anchor="middle" x="417.43" y="-608.3" font-family="Times New Roman,serif" font-size="14.00">origin</text>
</a>
</g>
</g>
<!-- coords_6&#45;&gt;origin_7 -->
<g id="edge6" class="edge">
<title>coords_6&#45;&gt;origin_7</title>
<path fill="none" stroke="black" d="M326.27,-518.34C331.21,-522.16 336.25,-526.49 340.48,-531 360.22,-552.03 356.15,-564.54 376.48,-585 379.47,-588.01 382.84,-590.88 386.32,-593.55"/>
<polygon fill="black" stroke="black" points="384.35,-596.45 394.52,-599.41 388.41,-590.75 384.35,-596.45"/>
</g>
<!-- x_arrow_8 -->
<g id="node8" class="node">
<title>x_arrow_8</title>
<g id="a_node8"><a xlink:href="javascript:s=&quot;\(&quot;&#x27;base&#x27;,\ 0\.5,\ &quot;,\ &#x27;coords&#x27;,\ &#x27;x_arrow&#x27;\)\nArrow&quot;; console.log(s); alert(s);" xlink:title="Arrow">
<ellipse fill="none" stroke="black" cx="417.43" cy="-558" rx="40.89" ry="18"/>
<text text-anchor="middle" x="417.43" y="-554.3" font-family="Times New Roman,serif" font-size="14.00">x_arrow</text>
</a>
</g>
</g>
<!-- coords_6&#45;&gt;x_arrow_8 -->
<g id="edge7" class="edge">
<title>coords_6&#45;&gt;x_arrow_8</title>
<path fill="none" stroke="black" d="M330.63,-516.39C345.23,-523.47 363.78,-532.47 379.9,-540.28"/>
<polygon fill="black" stroke="black" points="378.53,-543.51 389.06,-544.73 381.59,-537.21 378.53,-543.51"/>
</g>
<!-- y_arrow_11 -->
<g id="node11" class="node">
<title>y_arrow_11</title>
<g id="a_node11"><a xlink:href="javascript:s=&quot;\(&quot;&#x27;base&#x27;,\ 0\.5,\ &quot;,\ &#x27;coords&#x27;,\ &#x27;y_arrow&#x27;\)\nArrow&quot;; console.log(s); alert(s);" xlink:title="Arrow">
<ellipse fill="none" stroke="black" cx="417.43" cy="-504" rx="40.89" ry="18"/>
<text text-anchor="middle" x="417.43" y="-500.3" font-family="Times New Roman,serif" font-size="14.00">y_arrow</text>
</a>
</g>
</g>
<!-- coords_6&#45;&gt;y_arrow_11 -->
<g id="edge10" class="edge">
<title>coords_6&#45;&gt;y_arrow_11</title>
<path fill="none" stroke="black" d="M340.62,-504C348.67,-504 357.38,-504 365.92,-504"/>
<polygon fill="black" stroke="black" points="366.2,-507.5 376.2,-504 366.2,-500.5 366.2,-507.5"/>
</g>
<!-- z_arrow_14 -->
<g id="node14" class="node">
<title>z_arrow_14</title>
<g id="a_node14"><a xlink:href="javascript:s=&quot;\(&quot;&#x27;base&#x27;,\ 0\.5,\ &quot;,\ &#x27;coords&#x27;,\ &#x27;z_arrow&#x27;\)\nArrow&quot;; console.log(s); alert(s);" xlink:title="Arrow">
<ellipse fill="none" stroke="black" cx="417.43" cy="-396" rx="40.09" ry="18"/>
<text text-anchor="middle" x="417.43" y="-392.3" font-family="Times New Roman,serif" font-size="14.00">z_arrow</text>
</a>
</g>
</g>
<!-- coords_6&#45;&gt;z_arrow_14 -->
<g id="edge13" class="edge">
<title>coords_6&#45;&gt;z_arrow_14</title>
<path fill="none" stroke="black" d="M325.76,-489.14C330.72,-485.34 335.89,-481.14 340.48,-477 360.15,-459.23 380.6,-437.18 395.32,-420.58"/>
<polygon fill="black" stroke="black" points="398.09,-422.73 402.05,-412.91 392.83,-418.11 398.09,-422.73"/>
</g>
<!-- stem_9 -->
<g id="node9" class="node">
<title>stem_9</title>
<g id="a_node9"><a xlink:href="javascript:s=&quot;\(&quot;&#x27;base&#x27;,\ 0\.5,\ &quot;,\ &#x27;coords&#x27;,\ &#x27;x_arrow&#x27;,\ &#x27;stem&#x27;\)\nCone&quot;; console.log(s); alert(s);" xlink:title="Cone">
<ellipse fill="none" stroke="black" cx="522.32" cy="-612" rx="27.9" ry="18"/>
<text text-anchor="middle" x="522.32" y="-608.3" font-family="Times New Roman,serif" font-size="14.00">stem</text>
</a>
</g>
</g>
<!-- x_arrow_8&#45;&gt;stem_9 -->
<g id="edge8" class="edge">
<title>x_arrow_8&#45;&gt;stem_9</title>
<path fill="none" stroke="black" d="M444.39,-571.63C458.55,-579.06 476.16,-588.3 490.96,-596.07"/>
<polygon fill="black" stroke="black" points="489.73,-599.37 500.21,-600.92 492.98,-593.18 489.73,-599.37"/>
</g>
<!-- head_10 -->
<g id="node10" class="node">
<title>head_10</title>
<g id="a_node10"><a xlink:href="javascript:s=&quot;\(&quot;&#x27;base&#x27;,\ 0\.5,\ &quot;,\ &#x27;coords&#x27;,\ &#x27;x_arrow&#x27;,\ &#x27;head&#x27;\)\nCone&quot;; console.log(s); alert(s);" xlink:title="Cone">
<ellipse fill="none" stroke="black" cx="522.32" cy="-558" rx="27.9" ry="18"/>
<text text-anchor="middle" x="522.32" y="-554.3" font-family="Times New Roman,serif" font-size="14.00">head</text>
</a>
</g>
</g>
<!-- x_arrow_8&#45;&gt;head_10 -->
<g id="edge9" class="edge">
<title>x_arrow_8&#45;&gt;head_10</title>
<path fill="none" stroke="black" d="M458.5,-558C466.91,-558 475.75,-558 484.06,-558"/>
<polygon fill="black" stroke="black" points="484.22,-561.5 494.22,-558 484.22,-554.5 484.22,-561.5"/>
</g>
<!-- stem_12 -->
<g id="node12" class="node">
<title>stem_12</title>
<g id="a_node12"><a xlink:href="javascript:s=&quot;\(&quot;&#x27;base&#x27;,\ 0\.5,\ &quot;,\ &#x27;coords&#x27;,\ &#x27;y_arrow&#x27;,\ &#x27;stem&#x27;\)\nCone&quot;; console.log(s); alert(s);" xlink:title="Cone">
<ellipse fill="none" stroke="black" cx="522.32" cy="-504" rx="27.9" ry="18"/>
<text text-anchor="middle" x="522.32" y="-500.3" font-family="Times New Roman,serif" font-size="14.00">stem</text>
</a>
</g>
</g>
<!-- y_arrow_11&#45;&gt;stem_12 -->
<g id="edge11" class="edge">
<title>y_arrow_11&#45;&gt;stem_12</title>
<path fill="none" stroke="black" d="M458.5,-504C466.91,-504 475.75,-504 484.06,-504"/>
<polygon fill="black" stroke="black" points="484.22,-507.5 494.22,-504 484.22,-500.5 484.22,-507.5"/>
</g>
<!-- head_13 -->
<g id="node13" class="node">
<title>head_13</title>
<g id="a_node13"><a xlink:href="javascript:s=&quot;\(&quot;&#x27;base&#x27;,\ 0\.5,\ &quot;,\ &#x27;coords&#x27;,\ &#x27;y_arrow&#x27;,\ &#x27;head&#x27;\)\nCone&quot;; console.log(s); alert(s);" xlink:title="Cone">
<ellipse fill="none" stroke="black" cx="522.32" cy="-450" rx="27.9" ry="18"/>
<text text-anchor="middle" x="522.32" y="-446.3" font-family="Times New Roman,serif" font-size="14.00">head</text>
</a>
</g>
</g>
<!-- y_arrow_11&#45;&gt;head_13 -->
<g id="edge12" class="edge">
<title>y_arrow_11&#45;&gt;head_13</title>
<path fill="none" stroke="black" d="M444.39,-490.37C458.55,-482.94 476.16,-473.7 490.96,-465.93"/>
<polygon fill="black" stroke="black" points="492.98,-468.82 500.21,-461.08 489.73,-462.63 492.98,-468.82"/>
</g>
<!-- stem_15 -->
<g id="node15" class="node">
<title>stem_15</title>
<g id="a_node15"><a xlink:href="javascript:s=&quot;\(&quot;&#x27;base&#x27;,\ 0\.5,\ &quot;,\ &#x27;coords&#x27;,\ &#x27;z_arrow&#x27;,\ &#x27;stem&#x27;\)\nCone&quot;; console.log(s); alert(s);" xlink:title="Cone">
<ellipse fill="none" stroke="black" cx="522.32" cy="-396" rx="27.9" ry="18"/>
<text text-anchor="middle" x="522.32" y="-392.3" font-family="Times New Roman,serif" font-size="14.00">stem</text>
</a>
</g>
</g>
<!-- z_arrow_14&#45;&gt;stem_15 -->
<g id="edge14" class="edge">
<title>z_arrow_14&#45;&gt;stem_15</title>
<path fill="none" stroke="black" d="M457.91,-396C466.54,-396 475.63,-396 484.16,-396"/>
<polygon fill="black" stroke="black" points="484.21,-399.5 494.21,-396 484.21,-392.5 484.21,-399.5"/>
</g>
<!-- head_16 -->
<g id="node16" class="node">
<title>head_16</title>
<g id="a_node16"><a xlink:href="javascript:s=&quot;\(&quot;&#x27;base&#x27;,\ 0\.5,\ &quot;,\ &#x27;coords&#x27;,\ &#x27;z_arrow&#x27;,\ &#x27;head&#x27;\)\nCone&quot;; console.log(s); alert(s);" xlink:title="Cone">
<ellipse fill="none" stroke="black" cx="522.32" cy="-342" rx="27.9" ry="18"/>
<text text-anchor="middle" x="522.32" y="-338.3" font-family="Times New Roman,serif" font-size="14.00">head</text>
</a>
</g>
</g>
<!-- z_arrow_14&#45;&gt;head_16 -->
<g id="edge15" class="edge">
<title>z_arrow_14&#45;&gt;head_16</title>
<path fill="none" stroke="black" d="M444.13,-382.51C458.42,-375.01 476.29,-365.63 491.23,-357.79"/>
<polygon fill="black" stroke="black" points="492.88,-360.88 500.1,-353.14 489.62,-354.68 492.88,-360.88"/>
</g>
<!-- coords_22 -->
<g id="node22" class="node">
<title>coords_22</title>
<g id="a_node22"><a xlink:href="javascript:s=&quot;\(&quot;&#x27;face_centre&#x27;,\ 1,\ &quot;,\ &#x27;coords&#x27;\)\nCoordinates&quot;; console.log(s); alert(s);" xlink:title="Coordinates">
<ellipse fill="none" stroke="black" cx="304.08" cy="-234" rx="36.29" ry="18"/>
<text text-anchor="middle" x="304.08" y="-230.3" font-family="Times New Roman,serif" font-size="14.00">coords</text>
</a>
</g>
</g>
<!-- 21&#45;&gt;coords_22 -->
<g id="edge21" class="edge">
<title>21&#45;&gt;coords_22</title>
<path fill="none" stroke="black" d="M190.43,-169.39C213.73,-182.75 246.63,-201.62 270.86,-215.52"/>
<polygon fill="black" stroke="black" points="269.27,-218.64 279.69,-220.58 272.75,-212.57 269.27,-218.64"/>
</g>
<!-- x_33 -->
<g id="node33" class="node">
<title>x_33</title>
<g id="a_node33"><a xlink:href="javascript:s=&quot;\(&quot;&#x27;face_centre&#x27;,\ 1,\ &quot;,\ &#x27;x&#x27;\)\nText&quot;; console.log(s); alert(s);" xlink:title="Text">
<ellipse fill="none" stroke="black" cx="304.08" cy="-180" rx="27" ry="18"/>
<text text-anchor="middle" x="304.08" y="-176.3" font-family="Times New Roman,serif" font-size="14.00">x</text>
</a>
</g>
</g>
<!-- 21&#45;&gt;x_33 -->
<g id="edge32" class="edge">
<title>21&#45;&gt;x_33</title>
<path fill="none" stroke="black" d="M218.07,-163.75C234.95,-166.97 252.97,-170.42 268.06,-173.3"/>
<polygon fill="black" stroke="black" points="267.5,-176.76 277.98,-175.2 268.82,-169.89 267.5,-176.76"/>
</g>
<!-- y_34 -->
<g id="node34" class="node">
<title>y_34</title>
<g id="a_node34"><a xlink:href="javascript:s=&quot;\(&quot;&#x27;face_centre&#x27;,\ 1,\ &quot;,\ &#x27;y&#x27;\)\nText&quot;; console.log(s); alert(s);" xlink:title="Text">
<ellipse fill="none" stroke="black" cx="304.08" cy="-126" rx="27" ry="18"/>
<text text-anchor="middle" x="304.08" y="-122.3" font-family="Times New Roman,serif" font-size="14.00">y</text>
</a>
</g>
</g>
<!-- 21&#45;&gt;y_34 -->
<g id="edge33" class="edge">
<title>21&#45;&gt;y_34</title>
<path fill="none" stroke="black" d="M218.07,-142.25C234.95,-139.03 252.97,-135.58 268.06,-132.7"/>
<polygon fill="black" stroke="black" points="268.82,-136.11 277.98,-130.8 267.5,-129.24 268.82,-136.11"/>
</g>
<!-- z_35 -->
<g id="node35" class="node">
<title>z_35</title>
<g id="a_node35"><a xlink:href="javascript:s=&quot;\(&quot;&#x27;face_centre&#x27;,\ 1,\ &quot;,\ &#x27;z&#x27;\)\nText&quot;; console.log(s); alert(s);" xlink:title="Text">
<ellipse fill="none" stroke="black" cx="304.08" cy="-72" rx="27" ry="18"/>
<text text-anchor="middle" x="304.08" y="-68.3" font-family="Times New Roman,serif" font-size="14.00">z</text>
</a>
</g>
</g>
<!-- 21&#45;&gt;z_35 -->
<g id="edge34" class="edge">
<title>21&#45;&gt;z_35</title>
<path fill="none" stroke="black" d="M190.43,-136.61C214.87,-122.59 249.88,-102.51 274.37,-88.47"/>
<polygon fill="black" stroke="black" points="276.26,-91.42 283.19,-83.41 272.77,-85.35 276.26,-91.42"/>
</g>
<!-- label_36 -->
<g id="node36" class="node">
<title>label_36</title>
<g id="a_node36"><a xlink:href="javascript:s=&quot;\(&quot;&#x27;face_centre&#x27;,\ 1,\ &quot;,\ &#x27;label&#x27;\)\nText&quot;; console.log(s); alert(s);" xlink:title="Text">
<ellipse fill="none" stroke="black" cx="304.08" cy="-18" rx="27.1" ry="18"/>
<text text-anchor="middle" x="304.08" y="-14.3" font-family="Times New Roman,serif" font-size="14.00">label</text>
</a>
</g>
</g>
<!-- 21&#45;&gt;label_36 -->
<g id="edge35" class="edge">
<title>21&#45;&gt;label_36</title>
<path fill="none" stroke="black" d="M177.62,-135.4C197.7,-113.37 233.85,-74.9 267.69,-45 270.67,-42.37 273.87,-39.71 277.1,-37.13"/>
<polygon fill="black" stroke="black" points="279.28,-39.87 285.04,-30.97 274.99,-34.34 279.28,-39.87"/>
</g>
<!-- origin_23 -->
<g id="node23" class="node">
<title>origin_23</title>
<g id="a_node23"><a xlink:href="javascript:s=&quot;\(&quot;&#x27;face_centre&#x27;,\ 1,\ &quot;,\ &#x27;coords&#x27;,\ &#x27;origin&#x27;\)\nCoordinatesCage&quot;; console.log(s); alert(s);" xlink:title="CoordinatesCage">
<ellipse fill="none" stroke="black" cx="417.43" cy="-288" rx="31.4" ry="18"/>
<text text-anchor="middle" x="417.43" y="-284.3" font-family="Times New Roman,serif" font-size="14.00">origin</text>
</a>
</g>
</g>
<!-- coords_22&#45;&gt;origin_23 -->
<g id="edge22" class="edge">
<title>coords_22&#45;&gt;origin_23</title>
<path fill="none" stroke="black" d="M330.63,-246.39C346.45,-254.06 366.91,-263.98 383.88,-272.22"/>
<polygon fill="black" stroke="black" points="382.38,-275.38 392.9,-276.59 385.43,-269.08 382.38,-275.38"/>
</g>
<!-- x_arrow_24 -->
<g id="node24" class="node">
<title>x_arrow_24</title>
<g id="a_node24"><a xlink:href="javascript:s=&quot;\(&quot;&#x27;face_centre&#x27;,\ 1,\ &quot;,\ &#x27;coords&#x27;,\ &#x27;x_arrow&#x27;\)\nArrow&quot;; console.log(s); alert(s);" xlink:title="Arrow">
<ellipse fill="none" stroke="black" cx="417.43" cy="-234" rx="40.89" ry="18"/>
<text text-anchor="middle" x="417.43" y="-230.3" font-family="Times New Roman,serif" font-size="14.00">x_arrow</text>
</a>
</g>
</g>
<!-- coords_22&#45;&gt;x_arrow_24 -->
<g id="edge23" class="edge">
<title>coords_22&#45;&gt;x_arrow_24</title>
<path fill="none" stroke="black" d="M340.62,-234C348.67,-234 357.38,-234 365.92,-234"/>
<polygon fill="black" stroke="black" points="366.2,-237.5 376.2,-234 366.2,-230.5 366.2,-237.5"/>
</g>
<!-- y_arrow_27 -->
<g id="node27" class="node">
<title>y_arrow_27</title>
<g id="a_node27"><a xlink:href="javascript:s=&quot;\(&quot;&#x27;face_centre&#x27;,\ 1,\ &quot;,\ &#x27;coords&#x27;,\ &#x27;y_arrow&#x27;\)\nArrow&quot;; console.log(s); alert(s);" xlink:title="Arrow">
<ellipse fill="none" stroke="black" cx="417.43" cy="-180" rx="40.89" ry="18"/>
<text text-anchor="middle" x="417.43" y="-176.3" font-family="Times New Roman,serif" font-size="14.00">y_arrow</text>
</a>
</g>
</g>
<!-- coords_22&#45;&gt;y_arrow_27 -->
<g id="edge26" class="edge">
<title>coords_22&#45;&gt;y_arrow_27</title>
<path fill="none" stroke="black" d="M330.63,-221.61C345.23,-214.53 363.78,-205.53 379.9,-197.72"/>
<polygon fill="black" stroke="black" points="381.59,-200.79 389.06,-193.27 378.53,-194.49 381.59,-200.79"/>
</g>
<!-- z_arrow_30 -->
<g id="node30" class="node">
<title>z_arrow_30</title>
<g id="a_node30"><a xlink:href="javascript:s=&quot;\(&quot;&#x27;face_centre&#x27;,\ 1,\ &quot;,\ &#x27;coords&#x27;,\ &#x27;z_arrow&#x27;\)\nArrow&quot;; console.log(s); alert(s);" xlink:title="Arrow">
<ellipse fill="none" stroke="black" cx="417.43" cy="-72" rx="40.09" ry="18"/>
<text text-anchor="middle" x="417.43" y="-68.3" font-family="Times New Roman,serif" font-size="14.00">z_arrow</text>
</a>
</g>
</g>
<!-- coords_22&#45;&gt;z_arrow_30 -->
<g id="edge29" class="edge">
<title>coords_22&#45;&gt;z_arrow_30</title>
<path fill="none" stroke="black" d="M326.89,-219.59C331.69,-215.83 336.52,-211.55 340.48,-207 355.93,-189.24 385.76,-132.65 403.08,-98.64"/>
<polygon fill="black" stroke="black" points="406.21,-100.19 407.61,-89.69 399.97,-97.03 406.21,-100.19"/>
</g>
<!-- stem_25 -->
<g id="node25" class="node">
<title>stem_25</title>
<g id="a_node25"><a xlink:href="javascript:s=&quot;\(&quot;&#x27;face_centre&#x27;,\ 1,\ &quot;,\ &#x27;coords&#x27;,\ &#x27;x_arrow&#x27;,\ &#x27;stem&#x27;\)\nCone&quot;; console.log(s); alert(s);" xlink:title="Cone">
<ellipse fill="none" stroke="black" cx="522.32" cy="-288" rx="27.9" ry="18"/>
<text text-anchor="middle" x="522.32" y="-284.3" font-family="Times New Roman,serif" font-size="14.00">stem</text>
</a>
</g>
</g>
<!-- x_arrow_24&#45;&gt;stem_25 -->
<g id="edge24" class="edge">
<title>x_arrow_24&#45;&gt;stem_25</title>
<path fill="none" stroke="black" d="M444.39,-247.63C458.55,-255.06 476.16,-264.3 490.96,-272.07"/>
<polygon fill="black" stroke="black" points="489.73,-275.37 500.21,-276.92 492.98,-269.18 489.73,-275.37"/>
</g>
<!-- head_26 -->
<g id="node26" class="node">
<title>head_26</title>
<g id="a_node26"><a xlink:href="javascript:s=&quot;\(&quot;&#x27;face_centre&#x27;,\ 1,\ &quot;,\ &#x27;coords&#x27;,\ &#x27;x_arrow&#x27;,\ &#x27;head&#x27;\)\nCone&quot;; console.log(s); alert(s);" xlink:title="Cone">
<ellipse fill="none" stroke="black" cx="522.32" cy="-234" rx="27.9" ry="18"/>
<text text-anchor="middle" x="522.32" y="-230.3" font-family="Times New Roman,serif" font-size="14.00">head</text>
</a>
</g>
</g>
<!-- x_arrow_24&#45;&gt;head_26 -->
<g id="edge25" class="edge">
<title>x_arrow_24&#45;&gt;head_26</title>
<path fill="none" stroke="black" d="M458.5,-234C466.91,-234 475.75,-234 484.06,-234"/>
<polygon fill="black" stroke="black" points="484.22,-237.5 494.22,-234 484.22,-230.5 484.22,-237.5"/>
</g>
<!-- stem_28 -->
<g id="node28" class="node">
<title>stem_28</title>
<g id="a_node28"><a xlink:href="javascript:s=&quot;\(&quot;&#x27;face_centre&#x27;,\ 1,\ &quot;,\ &#x27;coords&#x27;,\ &#x27;y_arrow&#x27;,\ &#x27;stem&#x27;\)\nCone&quot;; console.log(s); alert(s);" xlink:title="Cone">
<ellipse fill="none" stroke="black" cx="522.32" cy="-180" rx="27.9" ry="18"/>
<text text-anchor="middle" x="522.32" y="-176.3" font-family="Times New Roman,serif" font-size="14.00">stem</text>
</a>
</g>
</g>
<!-- y_arrow_27&#45;&gt;stem_28 -->
<g id="edge27" class="edge">
<title>y_arrow_27&#45;&gt;stem_28</title>
<path fill="none" stroke="black" d="M458.5,-180C466.91,-180 475.75,-180 484.06,-180"/>
<polygon fill="black" stroke="black" points="484.22,-183.5 494.22,-180 484.22,-176.5 484.22,-183.5"/>
</g>
<!-- head_29 -->
<g id="node29" class="node">
<title>head_29</title>
<g id="a_node29"><a xlink:href="javascript:s=&quot;\(&quot;&#x27;face_centre&#x27;,\ 1,\ &quot;,\ &#x27;coords&#x27;,\ &#x27;y_arrow&#x27;,\ &#x27;head&#x27;\)\nCone&quot;; console.log(s); alert(s);" xlink:title="Cone">
<ellipse fill="none" stroke="black" cx="522.32" cy="-126" rx="27.9" ry="18"/>
<text text-anchor="middle" x="522.32" y="-122.3" font-family="Times New Roman,serif" font-size="14.00">head</text>
</a>
</g>
</g>
<!-- y_arrow_27&#45;&gt;head_29 -->
<g id="edge28" class="edge">
<title>y_arrow_27&#45;&gt;head_29</title>
<path fill="none" stroke="black" d="M444.39,-166.37C458.55,-158.94 476.16,-149.7 490.96,-141.93"/>
<polygon fill="black" stroke="black" points="492.98,-144.82 500.21,-137.08 489.73,-138.63 492.98,-144.82"/>
</g>
<!-- stem_31 -->
<g id="node31" class="node">
<title>stem_31</title>
<g id="a_node31"><a xlink:href="javascript:s=&quot;\(&quot;&#x27;face_centre&#x27;,\ 1,\ &quot;,\ &#x27;coords&#x27;,\ &#x27;z_arrow&#x27;,\ &#x27;stem&#x27;\)\nCone&quot;; console.log(s); alert(s);" xlink:title="Cone">
<ellipse fill="none" stroke="black" cx="522.32" cy="-72" rx="27.9" ry="18"/>
<text text-anchor="middle" x="522.32" y="-68.3" font-family="Times New Roman,serif" font-size="14.00">stem</text>
</a>
</g>
</g>
<!-- z_arrow_30&#45;&gt;stem_31 -->
<g id="edge30" class="edge">
<title>z_arrow_30&#45;&gt;stem_31</title>
<path fill="none" stroke="black" d="M457.91,-72C466.54,-72 475.63,-72 484.16,-72"/>
<polygon fill="black" stroke="black" points="484.21,-75.5 494.21,-72 484.21,-68.5 484.21,-75.5"/>
</g>
<!-- head_32 -->
<g id="node32" class="node">
<title>head_32</title>
<g id="a_node32"><a xlink:href="javascript:s=&quot;\(&quot;&#x27;face_centre&#x27;,\ 1,\ &quot;,\ &#x27;coords&#x27;,\ &#x27;z_arrow&#x27;,\ &#x27;head&#x27;\)\nCone&quot;; console.log(s); alert(s);" xlink:title="Cone">
<ellipse fill="none" stroke="black" cx="522.32" cy="-18" rx="27.9" ry="18"/>
<text text-anchor="middle" x="522.32" y="-14.3" font-family="Times New Roman,serif" font-size="14.00">head</text>
</a>
</g>
</g>
<!-- z_arrow_30&#45;&gt;head_32 -->
<g id="edge31" class="edge">
<title>z_arrow_30&#45;&gt;head_32</title>
<path fill="none" stroke="black" d="M444.13,-58.51C458.42,-51.01 476.29,-41.63 491.23,-33.79"/>
<polygon fill="black" stroke="black" points="492.88,-36.88 500.1,-29.14 489.62,-30.68 492.88,-36.88"/>
</g>
</g>
</svg>
