<?xml version="1.0" encoding="UTF-8" standalone="no"?>
<!DOCTYPE svg PUBLIC "-//W3C//DTD SVG 1.1//EN"
 "http://www.w3.org/Graphics/SVG/1.1/DTD/svg11.dtd">
<!-- Generated by graphviz version 5.0.0 (20220707.1540)
 -->
<!-- Title: default Pages: 1 -->
<svg width="273pt" height="44pt"
 viewBox="0.00 0.00 273.09 44.00" xmlns="http://www.w3.org/2000/svg" xmlns:xlink="http://www.w3.org/1999/xlink">
<g id="graph0" class="graph" transform="scale(1 1) rotate(0) translate(4 40)">
<title>default</title>
<polygon fill="white" stroke="transparent" points="-4,4 -4,-40 269.09,-40 269.09,4 -4,4"/>
<!-- root_1 -->
<g id="node1" class="node">
<title>root_1</title>
<g id="a_node1"><a xlink:href="javascript:s=&quot;\(\)\nNone&quot;; console.log(s); alert(s);" xlink:title="root">
<ellipse fill="none" stroke="black" cx="27" cy="-18" rx="27" ry="18"/>
<text text-anchor="middle" x="27" y="-14.3" font-family="Times New Roman,serif" font-size="14.00">root</text>
</a>
</g>
</g>
<!-- default_2 -->
<g id="node2" class="node">
<title>default_2</title>
<g id="a_node2"><a xlink:href="javascript:s=&quot;\(&#x27;default&#x27;,\)\nPlanes&quot;; console.log(s); alert(s);" xlink:title="Planes">
<ellipse fill="none" stroke="black" cx="125.1" cy="-18" rx="35.19" ry="18"/>
<text text-anchor="middle" x="125.1" y="-14.3" font-family="Times New Roman,serif" font-size="14.00">default</text>
</a>
</g>
</g>
<!-- root_1&#45;&gt;default_2 -->
<g id="edge1" class="edge">
<title>root_1&#45;&gt;default_2</title>
<path fill="none" stroke="black" d="M54.01,-18C61.92,-18 70.84,-18 79.61,-18"/>
<polygon fill="black" stroke="black" points="79.76,-21.5 89.76,-18 79.76,-14.5 79.76,-21.5"/>
</g>
<!-- plane1_3 -->
<g id="node3" class="node">
<title>plane1_3</title>
<g id="a_node3"><a xlink:href="javascript:s=&quot;\(&#x27;default&#x27;,\ &#x27;plane1&#x27;\)\nBox&quot;; console.log(s); alert(s);" xlink:title="Box">
<ellipse fill="none" stroke="black" cx="230.64" cy="-18" rx="34.39" ry="18"/>
<text text-anchor="middle" x="230.64" y="-14.3" font-family="Times New Roman,serif" font-size="14.00">plane1</text>
</a>
</g>
</g>
<!-- default_2&#45;&gt;plane1_3 -->
<g id="edge2" class="edge">
<title>default_2&#45;&gt;plane1_3</title>
<path fill="none" stroke="black" d="M160.29,-18C168.5,-18 177.37,-18 185.95,-18"/>
<polygon fill="black" stroke="black" points="186.19,-21.5 196.19,-18 186.19,-14.5 186.19,-21.5"/>
</g>
</g>
</svg>
