<?xml version="1.0" encoding="UTF-8" standalone="no"?>
<!DOCTYPE svg PUBLIC "-//W3C//DTD SVG 1.1//EN"
 "http://www.w3.org/Graphics/SVG/1.1/DTD/svg11.dtd">
<!-- Generated by graphviz version 5.0.0 (20220707.1540)
 -->
<!-- Title: default Pages: 1 -->
<svg width="545pt" height="368pt"
 viewBox="0.00 0.00 545.27 368.00" xmlns="http://www.w3.org/2000/svg" xmlns:xlink="http://www.w3.org/1999/xlink">
<g id="graph0" class="graph" transform="scale(1 1) rotate(0) translate(4 364)">
<title>default</title>
<polygon fill="white" stroke="transparent" points="-4,4 -4,-364 541.27,-364 541.27,4 -4,4"/>
<!-- root_1 -->
<g id="node1" class="node">
<title>root_1</title>
<g id="a_node1"><a xlink:href="javascript:s=&quot;\(\)\nNone&quot;; console.log(s); alert(s);" xlink:title="root">
<ellipse fill="none" stroke="black" cx="27" cy="-207" rx="27" ry="18"/>
<text text-anchor="middle" x="27" y="-203.3" font-family="Times New Roman,serif" font-size="14.00">root</text>
</a>
</g>
</g>
<!-- default_2 -->
<g id="node2" class="node">
<title>default_2</title>
<g id="a_node2"><a xlink:href="javascript:s=&quot;\(&#x27;default&#x27;,\)\nBourns3296&quot;; console.log(s); alert(s);" xlink:title="Bourns3296">
<ellipse fill="none" stroke="black" cx="153.69" cy="-288" rx="35.19" ry="18"/>
<text text-anchor="middle" x="153.69" y="-284.3" font-family="Times New Roman,serif" font-size="14.00">default</text>
</a>
</g>
</g>
<!-- root_1&#45;&gt;default_2 -->
<g id="edge1" class="edge">
<title>root_1&#45;&gt;default_2</title>
<path fill="none" stroke="black" d="M46.94,-219.3C67,-232.33 98.95,-253.09 122.49,-268.38"/>
<polygon fill="black" stroke="black" points="120.77,-271.43 131.06,-273.95 124.58,-265.56 120.77,-271.43"/>
</g>
<!-- 5 -->
<g id="node5" class="node">
<title>5</title>
<g id="a_node5"><a xlink:href="javascript:s=&quot;\(&quot;&#x27;mount_base&#x27;,\ &quot;,\)\nAnnotatedCoordinates&quot;; console.log(s); alert(s);" xlink:title="AnnotatedCoordinates">
<ellipse fill="none" stroke="black" cx="153.69" cy="-153" rx="63.89" ry="18"/>
<text text-anchor="middle" x="153.69" y="-149.3" font-family="Times New Roman,serif" font-size="14.00">&#39;mount_base&#39;, </text>
</a>
</g>
</g>
<!-- root_1&#45;&gt;5 -->
<g id="edge4" class="edge">
<title>root_1&#45;&gt;5</title>
<path fill="none" stroke="black" d="M50.01,-197.47C66.18,-190.47 88.71,-180.71 108.54,-172.12"/>
<polygon fill="black" stroke="black" points="109.94,-175.33 117.72,-168.14 107.16,-168.91 109.94,-175.33"/>
</g>
<!-- trimpot_3 -->
<g id="node3" class="node">
<title>trimpot_3</title>
<g id="a_node3"><a xlink:href="javascript:s=&quot;\(&#x27;default&#x27;,\ &#x27;trimpot&#x27;\)\nLinearExtrude&quot;; console.log(s); alert(s);" xlink:title="LinearExtrude">
<ellipse fill="none" stroke="black" cx="290.44" cy="-342" rx="37.09" ry="18"/>
<text text-anchor="middle" x="290.44" y="-338.3" font-family="Times New Roman,serif" font-size="14.00">trimpot</text>
</a>
</g>
</g>
<!-- default_2&#45;&gt;trimpot_3 -->
<g id="edge2" class="edge">
<title>default_2&#45;&gt;trimpot_3</title>
<path fill="none" stroke="black" d="M181.96,-298.93C202.06,-306.98 229.64,-318.03 251.83,-326.93"/>
<polygon fill="black" stroke="black" points="250.7,-330.25 261.28,-330.72 253.3,-323.75 250.7,-330.25"/>
</g>
<!-- adj_4 -->
<g id="node4" class="node">
<title>adj_4</title>
<g id="a_node4"><a xlink:href="javascript:s=&quot;\(&#x27;default&#x27;,\ &#x27;adj&#x27;\)\nCylinder&quot;; console.log(s); alert(s);" xlink:title="Cylinder">
<ellipse fill="none" stroke="black" cx="290.44" cy="-288" rx="27" ry="18"/>
<text text-anchor="middle" x="290.44" y="-284.3" font-family="Times New Roman,serif" font-size="14.00">adj</text>
</a>
</g>
</g>
<!-- default_2&#45;&gt;adj_4 -->
<g id="edge3" class="edge">
<title>default_2&#45;&gt;adj_4</title>
<path fill="none" stroke="black" d="M189.04,-288C208.61,-288 233.11,-288 253,-288"/>
<polygon fill="black" stroke="black" points="253.23,-291.5 263.23,-288 253.23,-284.5 253.23,-291.5"/>
</g>
<!-- coords_6 -->
<g id="node6" class="node">
<title>coords_6</title>
<g id="a_node6"><a xlink:href="javascript:s=&quot;\(&quot;&#x27;mount_base&#x27;,\ &quot;,\ &#x27;coords&#x27;\)\nCoordinates&quot;; console.log(s); alert(s);" xlink:title="Coordinates">
<ellipse fill="none" stroke="black" cx="290.44" cy="-234" rx="36.29" ry="18"/>
<text text-anchor="middle" x="290.44" y="-230.3" font-family="Times New Roman,serif" font-size="14.00">coords</text>
</a>
</g>
</g>
<!-- 5&#45;&gt;coords_6 -->
<g id="edge5" class="edge">
<title>5&#45;&gt;coords_6</title>
<path fill="none" stroke="black" d="M181.64,-169.2C203.6,-182.4 234.67,-201.08 257.81,-214.99"/>
<polygon fill="black" stroke="black" points="256.2,-218.1 266.57,-220.26 259.8,-212.1 256.2,-218.1"/>
</g>
<!-- x_17 -->
<g id="node17" class="node">
<title>x_17</title>
<g id="a_node17"><a xlink:href="javascript:s=&quot;\(&quot;&#x27;mount_base&#x27;,\ &quot;,\ &#x27;x&#x27;\)\nText&quot;; console.log(s); alert(s);" xlink:title="Text">
<ellipse fill="none" stroke="black" cx="290.44" cy="-180" rx="27" ry="18"/>
<text text-anchor="middle" x="290.44" y="-176.3" font-family="Times New Roman,serif" font-size="14.00">x</text>
</a>
</g>
</g>
<!-- 5&#45;&gt;x_17 -->
<g id="edge16" class="edge">
<title>5&#45;&gt;x_17</title>
<path fill="none" stroke="black" d="M206.02,-163.28C222.06,-166.5 239.38,-169.97 254.07,-172.91"/>
<polygon fill="black" stroke="black" points="253.74,-176.42 264.24,-174.95 255.12,-169.55 253.74,-176.42"/>
</g>
<!-- y_18 -->
<g id="node18" class="node">
<title>y_18</title>
<g id="a_node18"><a xlink:href="javascript:s=&quot;\(&quot;&#x27;mount_base&#x27;,\ &quot;,\ &#x27;y&#x27;\)\nText&quot;; console.log(s); alert(s);" xlink:title="Text">
<ellipse fill="none" stroke="black" cx="290.44" cy="-126" rx="27" ry="18"/>
<text text-anchor="middle" x="290.44" y="-122.3" font-family="Times New Roman,serif" font-size="14.00">y</text>
</a>
</g>
</g>
<!-- 5&#45;&gt;y_18 -->
<g id="edge17" class="edge">
<title>5&#45;&gt;y_18</title>
<path fill="none" stroke="black" d="M206.02,-142.72C222.06,-139.5 239.38,-136.03 254.07,-133.09"/>
<polygon fill="black" stroke="black" points="255.12,-136.45 264.24,-131.05 253.74,-129.58 255.12,-136.45"/>
</g>
<!-- z_19 -->
<g id="node19" class="node">
<title>z_19</title>
<g id="a_node19"><a xlink:href="javascript:s=&quot;\(&quot;&#x27;mount_base&#x27;,\ &quot;,\ &#x27;z&#x27;\)\nText&quot;; console.log(s); alert(s);" xlink:title="Text">
<ellipse fill="none" stroke="black" cx="290.44" cy="-72" rx="27" ry="18"/>
<text text-anchor="middle" x="290.44" y="-68.3" font-family="Times New Roman,serif" font-size="14.00">z</text>
</a>
</g>
</g>
<!-- 5&#45;&gt;z_19 -->
<g id="edge18" class="edge">
<title>5&#45;&gt;z_19</title>
<path fill="none" stroke="black" d="M181.64,-136.8C204.55,-123.03 237.37,-103.3 260.77,-89.23"/>
<polygon fill="black" stroke="black" points="262.77,-92.11 269.54,-83.96 259.17,-86.11 262.77,-92.11"/>
</g>
<!-- label_20 -->
<g id="node20" class="node">
<title>label_20</title>
<g id="a_node20"><a xlink:href="javascript:s=&quot;\(&quot;&#x27;mount_base&#x27;,\ &quot;,\ &#x27;label&#x27;\)\nText&quot;; console.log(s); alert(s);" xlink:title="Text">
<ellipse fill="none" stroke="black" cx="290.44" cy="-18" rx="27.1" ry="18"/>
<text text-anchor="middle" x="290.44" y="-14.3" font-family="Times New Roman,serif" font-size="14.00">label</text>
</a>
</g>
</g>
<!-- 5&#45;&gt;label_20 -->
<g id="edge19" class="edge">
<title>5&#45;&gt;label_20</title>
<path fill="none" stroke="black" d="M169.15,-135.23C187.6,-113.01 221.03,-74.35 253.39,-45 256.37,-42.3 259.6,-39.6 262.87,-37"/>
<polygon fill="black" stroke="black" points="265.13,-39.68 270.94,-30.82 260.87,-34.12 265.13,-39.68"/>
</g>
<!-- origin_7 -->
<g id="node7" class="node">
<title>origin_7</title>
<g id="a_node7"><a xlink:href="javascript:s=&quot;\(&quot;&#x27;mount_base&#x27;,\ &quot;,\ &#x27;coords&#x27;,\ &#x27;origin&#x27;\)\nCoordinatesCage&quot;; console.log(s); alert(s);" xlink:title="CoordinatesCage">
<ellipse fill="none" stroke="black" cx="404.43" cy="-315" rx="31.4" ry="18"/>
<text text-anchor="middle" x="404.43" y="-311.3" font-family="Times New Roman,serif" font-size="14.00">origin</text>
</a>
</g>
</g>
<!-- coords_6&#45;&gt;origin_7 -->
<g id="edge6" class="edge">
<title>coords_6&#45;&gt;origin_7</title>
<path fill="none" stroke="black" d="M311.27,-248.85C316.54,-252.8 322.23,-257.06 327.48,-261 343.49,-273 347.19,-276.4 363.48,-288 367.01,-290.51 370.74,-293.11 374.46,-295.66"/>
<polygon fill="black" stroke="black" points="372.74,-298.73 382.97,-301.46 376.67,-292.94 372.74,-298.73"/>
</g>
<!-- x_arrow_8 -->
<g id="node8" class="node">
<title>x_arrow_8</title>
<g id="a_node8"><a xlink:href="javascript:s=&quot;\(&quot;&#x27;mount_base&#x27;,\ &quot;,\ &#x27;coords&#x27;,\ &#x27;x_arrow&#x27;\)\nArrow&quot;; console.log(s); alert(s);" xlink:title="Arrow">
<ellipse fill="none" stroke="black" cx="404.43" cy="-261" rx="40.89" ry="18"/>
<text text-anchor="middle" x="404.43" y="-257.3" font-family="Times New Roman,serif" font-size="14.00">x_arrow</text>
</a>
</g>
</g>
<!-- coords_6&#45;&gt;x_arrow_8 -->
<g id="edge7" class="edge">
<title>coords_6&#45;&gt;x_arrow_8</title>
<path fill="none" stroke="black" d="M323.53,-241.74C334.33,-244.34 346.58,-247.3 358.2,-250.1"/>
<polygon fill="black" stroke="black" points="357.65,-253.56 368.19,-252.5 359.29,-246.76 357.65,-253.56"/>
</g>
<!-- y_arrow_11 -->
<g id="node11" class="node">
<title>y_arrow_11</title>
<g id="a_node11"><a xlink:href="javascript:s=&quot;\(&quot;&#x27;mount_base&#x27;,\ &quot;,\ &#x27;coords&#x27;,\ &#x27;y_arrow&#x27;\)\nArrow&quot;; console.log(s); alert(s);" xlink:title="Arrow">
<ellipse fill="none" stroke="black" cx="404.43" cy="-207" rx="40.89" ry="18"/>
<text text-anchor="middle" x="404.43" y="-203.3" font-family="Times New Roman,serif" font-size="14.00">y_arrow</text>
</a>
</g>
</g>
<!-- coords_6&#45;&gt;y_arrow_11 -->
<g id="edge10" class="edge">
<title>coords_6&#45;&gt;y_arrow_11</title>
<path fill="none" stroke="black" d="M323.53,-226.26C334.33,-223.66 346.58,-220.7 358.2,-217.9"/>
<polygon fill="black" stroke="black" points="359.29,-221.24 368.19,-215.5 357.65,-214.44 359.29,-221.24"/>
</g>
<!-- z_arrow_14 -->
<g id="node14" class="node">
<title>z_arrow_14</title>
<g id="a_node14"><a xlink:href="javascript:s=&quot;\(&quot;&#x27;mount_base&#x27;,\ &quot;,\ &#x27;coords&#x27;,\ &#x27;z_arrow&#x27;\)\nArrow&quot;; console.log(s); alert(s);" xlink:title="Arrow">
<ellipse fill="none" stroke="black" cx="404.43" cy="-99" rx="40.09" ry="18"/>
<text text-anchor="middle" x="404.43" y="-95.3" font-family="Times New Roman,serif" font-size="14.00">z_arrow</text>
</a>
</g>
</g>
<!-- coords_6&#45;&gt;z_arrow_14 -->
<g id="edge13" class="edge">
<title>coords_6&#45;&gt;z_arrow_14</title>
<path fill="none" stroke="black" d="M312.94,-219.63C317.97,-215.81 323.13,-211.49 327.48,-207 351.75,-181.99 373.99,-148.59 388.04,-125.59"/>
<polygon fill="black" stroke="black" points="391.21,-127.1 393.36,-116.72 385.21,-123.49 391.21,-127.1"/>
</g>
<!-- stem_9 -->
<g id="node9" class="node">
<title>stem_9</title>
<g id="a_node9"><a xlink:href="javascript:s=&quot;\(&quot;&#x27;mount_base&#x27;,\ &quot;,\ &#x27;coords&#x27;,\ &#x27;x_arrow&#x27;,\ &#x27;stem&#x27;\)\nCone&quot;; console.log(s); alert(s);" xlink:title="Cone">
<ellipse fill="none" stroke="black" cx="509.32" cy="-315" rx="27.9" ry="18"/>
<text text-anchor="middle" x="509.32" y="-311.3" font-family="Times New Roman,serif" font-size="14.00">stem</text>
</a>
</g>
</g>
<!-- x_arrow_8&#45;&gt;stem_9 -->
<g id="edge8" class="edge">
<title>x_arrow_8&#45;&gt;stem_9</title>
<path fill="none" stroke="black" d="M431.39,-274.63C445.56,-282.06 463.17,-291.3 477.96,-299.07"/>
<polygon fill="black" stroke="black" points="476.73,-302.37 487.21,-303.92 479.98,-296.18 476.73,-302.37"/>
</g>
<!-- head_10 -->
<g id="node10" class="node">
<title>head_10</title>
<g id="a_node10"><a xlink:href="javascript:s=&quot;\(&quot;&#x27;mount_base&#x27;,\ &quot;,\ &#x27;coords&#x27;,\ &#x27;x_arrow&#x27;,\ &#x27;head&#x27;\)\nCone&quot;; console.log(s); alert(s);" xlink:title="Cone">
<ellipse fill="none" stroke="black" cx="509.32" cy="-261" rx="27.9" ry="18"/>
<text text-anchor="middle" x="509.32" y="-257.3" font-family="Times New Roman,serif" font-size="14.00">head</text>
</a>
</g>
</g>
<!-- x_arrow_8&#45;&gt;head_10 -->
<g id="edge9" class="edge">
<title>x_arrow_8&#45;&gt;head_10</title>
<path fill="none" stroke="black" d="M445.5,-261C453.92,-261 462.75,-261 471.06,-261"/>
<polygon fill="black" stroke="black" points="471.22,-264.5 481.22,-261 471.22,-257.5 471.22,-264.5"/>
</g>
<!-- stem_12 -->
<g id="node12" class="node">
<title>stem_12</title>
<g id="a_node12"><a xlink:href="javascript:s=&quot;\(&quot;&#x27;mount_base&#x27;,\ &quot;,\ &#x27;coords&#x27;,\ &#x27;y_arrow&#x27;,\ &#x27;stem&#x27;\)\nCone&quot;; console.log(s); alert(s);" xlink:title="Cone">
<ellipse fill="none" stroke="black" cx="509.32" cy="-207" rx="27.9" ry="18"/>
<text text-anchor="middle" x="509.32" y="-203.3" font-family="Times New Roman,serif" font-size="14.00">stem</text>
</a>
</g>
</g>
<!-- y_arrow_11&#45;&gt;stem_12 -->
<g id="edge11" class="edge">
<title>y_arrow_11&#45;&gt;stem_12</title>
<path fill="none" stroke="black" d="M445.5,-207C453.92,-207 462.75,-207 471.06,-207"/>
<polygon fill="black" stroke="black" points="471.22,-210.5 481.22,-207 471.22,-203.5 471.22,-210.5"/>
</g>
<!-- head_13 -->
<g id="node13" class="node">
<title>head_13</title>
<g id="a_node13"><a xlink:href="javascript:s=&quot;\(&quot;&#x27;mount_base&#x27;,\ &quot;,\ &#x27;coords&#x27;,\ &#x27;y_arrow&#x27;,\ &#x27;head&#x27;\)\nCone&quot;; console.log(s); alert(s);" xlink:title="Cone">
<ellipse fill="none" stroke="black" cx="509.32" cy="-153" rx="27.9" ry="18"/>
<text text-anchor="middle" x="509.32" y="-149.3" font-family="Times New Roman,serif" font-size="14.00">head</text>
</a>
</g>
</g>
<!-- y_arrow_11&#45;&gt;head_13 -->
<g id="edge12" class="edge">
<title>y_arrow_11&#45;&gt;head_13</title>
<path fill="none" stroke="black" d="M431.39,-193.37C445.56,-185.94 463.17,-176.7 477.96,-168.93"/>
<polygon fill="black" stroke="black" points="479.98,-171.82 487.21,-164.08 476.73,-165.63 479.98,-171.82"/>
</g>
<!-- stem_15 -->
<g id="node15" class="node">
<title>stem_15</title>
<g id="a_node15"><a xlink:href="javascript:s=&quot;\(&quot;&#x27;mount_base&#x27;,\ &quot;,\ &#x27;coords&#x27;,\ &#x27;z_arrow&#x27;,\ &#x27;stem&#x27;\)\nCone&quot;; console.log(s); alert(s);" xlink:title="Cone">
<ellipse fill="none" stroke="black" cx="509.32" cy="-99" rx="27.9" ry="18"/>
<text text-anchor="middle" x="509.32" y="-95.3" font-family="Times New Roman,serif" font-size="14.00">stem</text>
</a>
</g>
</g>
<!-- z_arrow_14&#45;&gt;stem_15 -->
<g id="edge14" class="edge">
<title>z_arrow_14&#45;&gt;stem_15</title>
<path fill="none" stroke="black" d="M444.92,-99C453.54,-99 462.63,-99 471.16,-99"/>
<polygon fill="black" stroke="black" points="471.21,-102.5 481.21,-99 471.21,-95.5 471.21,-102.5"/>
</g>
<!-- head_16 -->
<g id="node16" class="node">
<title>head_16</title>
<g id="a_node16"><a xlink:href="javascript:s=&quot;\(&quot;&#x27;mount_base&#x27;,\ &quot;,\ &#x27;coords&#x27;,\ &#x27;z_arrow&#x27;,\ &#x27;head&#x27;\)\nCone&quot;; console.log(s); alert(s);" xlink:title="Cone">
<ellipse fill="none" stroke="black" cx="509.32" cy="-45" rx="27.9" ry="18"/>
<text text-anchor="middle" x="509.32" y="-41.3" font-family="Times New Roman,serif" font-size="14.00">head</text>
</a>
</g>
</g>
<!-- z_arrow_14&#45;&gt;head_16 -->
<g id="edge15" class="edge">
<title>z_arrow_14&#45;&gt;head_16</title>
<path fill="none" stroke="black" d="M431.13,-85.51C445.42,-78.01 463.29,-68.63 478.24,-60.79"/>
<polygon fill="black" stroke="black" points="479.88,-63.88 487.11,-56.14 476.62,-57.68 479.88,-63.88"/>
</g>
</g>
</svg>
