solid OpenSCAD_Model
  facet normal 0 -1 0
    outer loop
      vertex -1.1920935349962747e-9 -4.83 -1.1920935349962747e-9
      vertex 0.49999999880790647 -4.83 -1.1920935349962747e-9
      vertex 0.49999999880790647 -4.83 0.49999999880790647
    endloop
  endfacet
  facet normal 0 0 -1
    outer loop
      vertex -1.1920935349962747e-9 -4.83 -1.1920935349962747e-9
      vertex 0.49999999880790647 -3.6225 -1.1920935349962747e-9
      vertex 0.49999999880790647 -4.83 -1.1920935349962747e-9
    endloop
  endfacet
  facet normal 1 0 0
    outer loop
      vertex 0.49999999880790647 -4.83 -1.1920935349962747e-9
      vertex 0.49999999880790647 -3.6225 0.49999999880790647
      vertex 0.49999999880790647 -4.83 0.49999999880790647
    endloop
  endfacet
  facet normal 0 0 -1
    outer loop
      vertex -1.1920935349962747e-9 -4.83 -1.1920935349962747e-9
      vertex -1.1920935349962747e-9 -3.6225 -1.1920935349962747e-9
      vertex 0.49999999880790647 -3.6225 -1.1920935349962747e-9
    endloop
  endfacet
  facet normal 1 0 0
    outer loop
      vertex 0.49999999880790647 -4.83 -1.1920935349962747e-9
      vertex 0.49999999880790647 -3.6225 -1.1920935349962747e-9
      vertex 0.49999999880790647 -3.6225 0.49999999880790647
    endloop
  endfacet
  facet normal 0 -1 0
    outer loop
      vertex -1.1920935349962747e-9 -4.83 -1.1920935349962747e-9
      vertex 0.49999999880790647 -4.83 0.49999999880790647
      vertex -1.1920935349962747e-9 -4.83 10.03
    endloop
  endfacet
  facet normal -1 0 0
    outer loop
      vertex -1.1920935349962747e-9 -4.83 -1.1920935349962747e-9
      vertex -1.1920935349962747e-9 -4.83 10.03
      vertex -1.1920935349962747e-9 -3.6225 -1.1920935349962747e-9
    endloop
  endfacet
  facet normal 0 0 -1
    outer loop
      vertex -1.1920935349962747e-9 -3.6225 -1.1920935349962747e-9
      vertex 0.49999999880790647 -2.415 -1.1920935349962747e-9
      vertex 0.49999999880790647 -3.6225 -1.1920935349962747e-9
    endloop
  endfacet
  facet normal 1 0 0
    outer loop
      vertex 0.49999999880790647 -3.6225 -1.1920935349962747e-9
      vertex 0.49999999880790647 -2.415 0.49999999880790647
      vertex 0.49999999880790647 -3.6225 0.49999999880790647
    endloop
  endfacet
  facet normal 0 0 -1
    outer loop
      vertex -1.1920935349962747e-9 -3.6225 -1.1920935349962747e-9
      vertex -1.1920935349962747e-9 -2.415 -1.1920935349962747e-9
      vertex 0.49999999880790647 -2.415 -1.1920935349962747e-9
    endloop
  endfacet
  facet normal 1 0 0
    outer loop
      vertex 0.49999999880790647 -3.6225 -1.1920935349962747e-9
      vertex 0.49999999880790647 -2.415 -1.1920935349962747e-9
      vertex 0.49999999880790647 -2.415 0.49999999880790647
    endloop
  endfacet
  facet normal -1 0 0
    outer loop
      vertex -1.1920935349962747e-9 -3.6225 -1.1920935349962747e-9
      vertex -1.1920935349962747e-9 -3.6225 10.03
      vertex -1.1920935349962747e-9 -2.415 -1.1920935349962747e-9
    endloop
  endfacet
  facet normal 0 0 -1
    outer loop
      vertex 0.49999999880790647 -4.83 0.49999999880790647
      vertex 0.49999999880790647 -3.6225 0.49999999880790647
      vertex 9.03 -3.6225 0.49999999880790647
    endloop
  endfacet
  facet normal 0 -1 0
    outer loop
      vertex 0.49999999880790647 -4.83 0.49999999880790647
      vertex 9.03 -4.83 0.49999999880790647
      vertex -1.1920935349962747e-9 -4.83 10.03
    endloop
  endfacet
  facet normal 0 0 -1
    outer loop
      vertex 0.49999999880790647 -3.6225 0.49999999880790647
      vertex 0.49999999880790647 -2.415 0.49999999880790647
      vertex 9.03 -2.415 0.49999999880790647
    endloop
  endfacet
  facet normal -1 0 0
    outer loop
      vertex -1.1920935349962747e-9 -3.6225 -1.1920935349962747e-9
      vertex -1.1920935349962747e-9 -4.83 10.03
      vertex -1.1920935349962747e-9 -3.6225 10.03
    endloop
  endfacet
  facet normal -1 0 0
    outer loop
      vertex -1.1920935349962747e-9 -3.6225 10.03
      vertex -1.1920935349962747e-9 -2.415 10.03
      vertex -1.1920935349962747e-9 -2.415 -1.1920935349962747e-9
    endloop
  endfacet
  facet normal 0 0 1
    outer loop
      vertex -1.1920935349962747e-9 -4.83 10.03
      vertex 9.53 -4.83 10.03
      vertex -1.1920935349962747e-9 -3.6225 10.03
    endloop
  endfacet
  facet normal 0 0 1
    outer loop
      vertex -1.1920935349962747e-9 -3.6225 10.03
      vertex 9.53 -3.6225 10.03
      vertex -1.1920935349962747e-9 -2.415 10.03
    endloop
  endfacet
  facet normal 0 0 -1
    outer loop
      vertex -1.1920935349962747e-9 -2.415 -1.1920935349962747e-9
      vertex 0.49999999880790647 -1.2075 -1.1920935349962747e-9
      vertex 0.49999999880790647 -2.415 -1.1920935349962747e-9
    endloop
  endfacet
  facet normal 1 0 0
    outer loop
      vertex 0.49999999880790647 -2.415 -1.1920935349962747e-9
      vertex 0.49999999880790647 -1.2075 0.49999999880790647
      vertex 0.49999999880790647 -2.415 0.49999999880790647
    endloop
  endfacet
  facet normal 0 0 -1
    outer loop
      vertex -1.1920935349962747e-9 -2.415 -1.1920935349962747e-9
      vertex -1.1920935349962747e-9 -1.2075 -1.1920935349962747e-9
      vertex 0.49999999880790647 -1.2075 -1.1920935349962747e-9
    endloop
  endfacet
  facet normal 1 0 0
    outer loop
      vertex 0.49999999880790647 -2.415 -1.1920935349962747e-9
      vertex 0.49999999880790647 -1.2075 -1.1920935349962747e-9
      vertex 0.49999999880790647 -1.2075 0.49999999880790647
    endloop
  endfacet
  facet normal -1 0 0
    outer loop
      vertex -1.1920935349962747e-9 -2.415 -1.1920935349962747e-9
      vertex -1.1920935349962747e-9 -2.415 10.03
      vertex -1.1920935349962747e-9 -1.2075 -1.1920935349962747e-9
    endloop
  endfacet
  facet normal 0 0 -1
    outer loop
      vertex -1.1920935349962747e-9 -1.2075 -1.1920935349962747e-9
      vertex 0.49999999880790647 0 -1.1920935349962747e-9
      vertex 0.49999999880790647 -1.2075 -1.1920935349962747e-9
    endloop
  endfacet
  facet normal 1 0 0
    outer loop
      vertex 0.49999999880790647 -1.2075 -1.1920935349962747e-9
      vertex 0.49999999880790647 0 0.49999999880790647
      vertex 0.49999999880790647 -1.2075 0.49999999880790647
    endloop
  endfacet
  facet normal 0 0 -1
    outer loop
      vertex -1.1920935349962747e-9 -1.2075 -1.1920935349962747e-9
      vertex -1.1920935349962747e-9 0 -1.1920935349962747e-9
      vertex 0.49999999880790647 0 -1.1920935349962747e-9
    endloop
  endfacet
  facet normal 1 0 0
    outer loop
      vertex 0.49999999880790647 -1.2075 -1.1920935349962747e-9
      vertex 0.49999999880790647 0 -1.1920935349962747e-9
      vertex 0.49999999880790647 0 0.49999999880790647
    endloop
  endfacet
  facet normal 0 1 0
    outer loop
      vertex -1.1920935349962747e-9 0 -1.1920935349962747e-9
      vertex 0.49999999880790647 0 0.49999999880790647
      vertex 0.49999999880790647 0 -1.1920935349962747e-9
    endloop
  endfacet
  facet normal -1 0 0
    outer loop
      vertex -1.1920935349962747e-9 -1.2075 -1.1920935349962747e-9
      vertex -1.1920935349962747e-9 -1.2075 10.03
      vertex -1.1920935349962747e-9 0 -1.1920935349962747e-9
    endloop
  endfacet
  facet normal 0 1 0
    outer loop
      vertex -1.1920935349962747e-9 0 -1.1920935349962747e-9
      vertex -1.1920935349962747e-9 0 10.03
      vertex 0.49999999880790647 0 0.49999999880790647
    endloop
  endfacet
  facet normal 0 0 -1
    outer loop
      vertex 0.49999999880790647 -2.415 0.49999999880790647
      vertex 0.49999999880790647 -1.2075 0.49999999880790647
      vertex 9.03 -1.2075 0.49999999880790647
    endloop
  endfacet
  facet normal 0 0 -1
    outer loop
      vertex 0.49999999880790647 -1.2075 0.49999999880790647
      vertex 0.49999999880790647 0 0.49999999880790647
      vertex 9.03 0 0.49999999880790647
    endloop
  endfacet
  facet normal 0 1 0
    outer loop
      vertex 0.49999999880790647 0 0.49999999880790647
      vertex -1.1920935349962747e-9 0 10.03
      vertex 9.03 0 0.49999999880790647
    endloop
  endfacet
  facet normal -1 0 0
    outer loop
      vertex -1.1920935349962747e-9 -1.2075 -1.1920935349962747e-9
      vertex -1.1920935349962747e-9 -2.415 10.03
      vertex -1.1920935349962747e-9 -1.2075 10.03
    endloop
  endfacet
  facet normal 0 0 1
    outer loop
      vertex -1.1920935349962747e-9 -2.415 10.03
      vertex 0.8509616415602267 -2.2816480880998586 10.03
      vertex 0.6616505948435356 -2.180459225471287 10.03
    endloop
  endfacet
  facet normal 0 0 1
    outer loop
      vertex -1.1920935349962747e-9 -2.415 10.03
      vertex 0.6616505948435356 -2.180459225471287 10.03
      vertex 0.4957180746007305 -2.0442819253992695 10.03
    endloop
  endfacet
  facet normal 0 0 1
    outer loop
      vertex -1.1920935349962747e-9 -2.415 10.03
      vertex 0.4957180746007305 -2.0442819253992695 10.03
      vertex 0.359540774528713 -1.8783494051564644 10.03
    endloop
  endfacet
  facet normal 0 0 1
    outer loop
      vertex -1.1920935349962747e-9 -2.415 10.03
      vertex 0.359540774528713 -1.8783494051564644 10.03
      vertex 0.2583519119001412 -1.6890383584397735 10.03
    endloop
  endfacet
  facet normal 0 0 1
    outer loop
      vertex -1.1920935349962747e-9 -2.415 10.03
      vertex 0.2583519119001412 -1.6890383584397735 10.03
      vertex 0.19604011795846277 -1.4836239026076605 10.03
    endloop
  endfacet
  facet normal 0 0 1
    outer loop
      vertex -1.1920935349962747e-9 -2.415 10.03
      vertex 1.0563760973923395 -2.3439598820415375 10.03
      vertex 0.8509616415602267 -2.2816480880998586 10.03
    endloop
  endfacet
  facet normal 0 0 1
    outer loop
      vertex -1.1920935349962747e-9 -2.415 10.03
      vertex 1.27 -2.365 10.03
      vertex 1.0563760973923395 -2.3439598820415375 10.03
    endloop
  endfacet
  facet normal 0 0 1
    outer loop
      vertex -1.1920935349962747e-9 -2.415 10.03
      vertex 0.19604011795846277 -1.4836239026076605 10.03
      vertex -1.1920935349962747e-9 -1.2075 10.03
    endloop
  endfacet
  facet normal 0 0 1
    outer loop
      vertex -1.1920935349962747e-9 -1.2075 10.03
      vertex 0.19604011795846277 -1.4836239026076605 10.03
      vertex 0.17500000000000004 -1.27 10.03
    endloop
  endfacet
  facet normal -1 0 0
    outer loop
      vertex -1.1920935349962747e-9 0 -1.1920935349962747e-9
      vertex -1.1920935349962747e-9 -1.2075 10.03
      vertex -1.1920935349962747e-9 0 10.03
    endloop
  endfacet
  facet normal 0 0 1
    outer loop
      vertex -1.1920935349962747e-9 -1.2075 10.03
      vertex 0.17500000000000004 -1.27 10.03
      vertex 0.19604011795846277 -1.0563760973923395 10.03
    endloop
  endfacet
  facet normal 0 0 1
    outer loop
      vertex -1.1920935349962747e-9 -1.2075 10.03
      vertex 0.19604011795846277 -1.0563760973923395 10.03
      vertex -1.1920935349962747e-9 0 10.03
    endloop
  endfacet
  facet normal 0 0 1
    outer loop
      vertex -1.1920935349962747e-9 0 10.03
      vertex 0.19604011795846277 -1.0563760973923395 10.03
      vertex 0.2583519119001412 -0.8509616415602267 10.03
    endloop
  endfacet
  facet normal 0 0 1
    outer loop
      vertex -1.1920935349962747e-9 0 10.03
      vertex 0.2583519119001412 -0.8509616415602267 10.03
      vertex 0.359540774528713 -0.6616505948435356 10.03
    endloop
  endfacet
  facet normal 0 0 1
    outer loop
      vertex -1.1920935349962747e-9 0 10.03
      vertex 0.359540774528713 -0.6616505948435356 10.03
      vertex 0.4957180746007305 -0.4957180746007305 10.03
    endloop
  endfacet
  facet normal 0 0 1
    outer loop
      vertex -1.1920935349962747e-9 0 10.03
      vertex 0.4957180746007305 -0.4957180746007305 10.03
      vertex 0.6616505948435356 -0.359540774528713 10.03
    endloop
  endfacet
  facet normal 0 0 1
    outer loop
      vertex -1.1920935349962747e-9 0 10.03
      vertex 0.6616505948435356 -0.359540774528713 10.03
      vertex 0.8509616415602267 -0.2583519119001412 10.03
    endloop
  endfacet
  facet normal 0 0 1
    outer loop
      vertex -1.1920935349962747e-9 0 10.03
      vertex 0.8509616415602267 -0.2583519119001412 10.03
      vertex 1.0563760973923395 -0.19604011795846277 10.03
    endloop
  endfacet
  facet normal 0 0 1
    outer loop
      vertex -1.1920935349962747e-9 0 10.03
      vertex 1.0563760973923395 -0.19604011795846277 10.03
      vertex 1.27 -0.17500000000000004 10.03
    endloop
  endfacet
  facet normal 0 0 1
    outer loop
      vertex -1.1920935349962747e-9 0 10.03
      vertex 1.27 -0.17500000000000004 10.03
      vertex 1.4836239026076605 -0.19604011795846277 10.03
    endloop
  endfacet
  facet normal 0 0 1
    outer loop
      vertex -1.1920935349962747e-9 -2.415 10.03
      vertex 9.53 -2.415 10.03
      vertex 1.27 -2.365 10.03
    endloop
  endfacet
  facet normal 0 0 1
    outer loop
      vertex 9.53 -2.415 10.03
      vertex 1.4836239026076605 -2.3439598820415375 10.03
      vertex 1.27 -2.365 10.03
    endloop
  endfacet
  facet normal 0 0 1
    outer loop
      vertex 9.53 -2.415 10.03
      vertex 1.6890383584397735 -2.2816480880998586 10.03
      vertex 1.4836239026076605 -2.3439598820415375 10.03
    endloop
  endfacet
  facet normal 0 0 1
    outer loop
      vertex 9.53 -2.415 10.03
      vertex 1.8783494051564644 -2.180459225471287 10.03
      vertex 1.6890383584397735 -2.2816480880998586 10.03
    endloop
  endfacet
  facet normal 0 0 1
    outer loop
      vertex 9.53 -2.415 10.03
      vertex 2.0442819253992695 -2.0442819253992695 10.03
      vertex 1.8783494051564644 -2.180459225471287 10.03
    endloop
  endfacet
  facet normal 0 0 1
    outer loop
      vertex 9.53 -2.415 10.03
      vertex 2.180459225471287 -1.8783494051564644 10.03
      vertex 2.0442819253992695 -2.0442819253992695 10.03
    endloop
  endfacet
  facet normal 0 0 1
    outer loop
      vertex 9.53 -2.415 10.03
      vertex 2.2816480880998586 -1.6890383584397735 10.03
      vertex 2.180459225471287 -1.8783494051564644 10.03
    endloop
  endfacet
  facet normal 0 0 1
    outer loop
      vertex 9.53 -2.415 10.03
      vertex 2.3439598820415375 -1.4836239026076605 10.03
      vertex 2.2816480880998586 -1.6890383584397735 10.03
    endloop
  endfacet
  facet normal 0 0 1
    outer loop
      vertex 9.53 -2.415 10.03
      vertex 2.365 -1.27 10.03
      vertex 2.3439598820415375 -1.4836239026076605 10.03
    endloop
  endfacet
  facet normal 0 0 1
    outer loop
      vertex 9.53 -1.2075 10.03
      vertex 2.3439598820415375 -1.0563760973923395 10.03
      vertex 2.365 -1.27 10.03
    endloop
  endfacet
  facet normal 0 0 1
    outer loop
      vertex 9.53 -1.2075 10.03
      vertex 2.2816480880998586 -0.8509616415602267 10.03
      vertex 2.3439598820415375 -1.0563760973923395 10.03
    endloop
  endfacet
  facet normal 0 0 1
    outer loop
      vertex 9.53 -1.2075 10.03
      vertex 2.180459225471287 -0.6616505948435356 10.03
      vertex 2.2816480880998586 -0.8509616415602267 10.03
    endloop
  endfacet
  facet normal 0 0 1
    outer loop
      vertex 9.53 -1.2075 10.03
      vertex 1.6890383584397735 -0.2583519119001412 10.03
      vertex 1.8783494051564644 -0.359540774528713 10.03
    endloop
  endfacet
  facet normal 0 0 1
    outer loop
      vertex 9.53 -1.2075 10.03
      vertex 2.0442819253992695 -0.4957180746007305 10.03
      vertex 2.180459225471287 -0.6616505948435356 10.03
    endloop
  endfacet
  facet normal 0 0 1
    outer loop
      vertex 9.53 -1.2075 10.03
      vertex 1.8783494051564644 -0.359540774528713 10.03
      vertex 2.0442819253992695 -0.4957180746007305 10.03
    endloop
  endfacet
  facet normal 0 0 1
    outer loop
      vertex -1.1920935349962747e-9 0 10.03
      vertex 1.4836239026076605 -0.19604011795846277 10.03
      vertex 9.53 -1.2075 10.03
    endloop
  endfacet
  facet normal 0 0 1
    outer loop
      vertex 9.53 -1.2075 10.03
      vertex 1.4836239026076605 -0.19604011795846277 10.03
      vertex 1.6890383584397735 -0.2583519119001412 10.03
    endloop
  endfacet
  facet normal 0 0 -1
    outer loop
      vertex 0.49999999880790647 -4.83 0.49999999880790647
      vertex 9.03 -3.6225 0.49999999880790647
      vertex 9.03 -4.83 0.49999999880790647
    endloop
  endfacet
  facet normal 0 0 -1
    outer loop
      vertex 0.49999999880790647 -3.6225 0.49999999880790647
      vertex 9.03 -2.415 0.49999999880790647
      vertex 9.03 -3.6225 0.49999999880790647
    endloop
  endfacet
  facet normal 0 -1 0
    outer loop
      vertex 9.03 -4.83 -1.1920935349962747e-9
      vertex 9.53 -4.83 -1.1920935349962747e-9
      vertex 9.03 -4.83 0.49999999880790647
    endloop
  endfacet
  facet normal -1 0 0
    outer loop
      vertex 9.03 -4.83 -1.1920935349962747e-9
      vertex 9.03 -4.83 0.49999999880790647
      vertex 9.03 -3.6225 -1.1920935349962747e-9
    endloop
  endfacet
  facet normal 0 0 -1
    outer loop
      vertex 9.03 -4.83 -1.1920935349962747e-9
      vertex 9.53 -3.6225 -1.1920935349962747e-9
      vertex 9.53 -4.83 -1.1920935349962747e-9
    endloop
  endfacet
  facet normal -1 0 0
    outer loop
      vertex 9.03 -4.83 0.49999999880790647
      vertex 9.03 -3.6225 0.49999999880790647
      vertex 9.03 -3.6225 -1.1920935349962747e-9
    endloop
  endfacet
  facet normal 0 0 -1
    outer loop
      vertex 9.03 -4.83 -1.1920935349962747e-9
      vertex 9.03 -3.6225 -1.1920935349962747e-9
      vertex 9.53 -3.6225 -1.1920935349962747e-9
    endloop
  endfacet
  facet normal 0 -1 0
    outer loop
      vertex 9.03 -4.83 0.49999999880790647
      vertex 9.53 -4.83 -1.1920935349962747e-9
      vertex 9.53 -4.83 10.03
    endloop
  endfacet
  facet normal 1 0 0
    outer loop
      vertex 9.53 -4.83 -1.1920935349962747e-9
      vertex 9.53 -3.6225 -1.1920935349962747e-9
      vertex 9.53 -3.6225 10.03
    endloop
  endfacet
  facet normal -1 0 0
    outer loop
      vertex 9.03 -3.6225 -1.1920935349962747e-9
      vertex 9.03 -3.6225 0.49999999880790647
      vertex 9.03 -2.415 -1.1920935349962747e-9
    endloop
  endfacet
  facet normal 0 0 -1
    outer loop
      vertex 9.03 -3.6225 -1.1920935349962747e-9
      vertex 9.53 -2.415 -1.1920935349962747e-9
      vertex 9.53 -3.6225 -1.1920935349962747e-9
    endloop
  endfacet
  facet normal -1 0 0
    outer loop
      vertex 9.03 -3.6225 0.49999999880790647
      vertex 9.03 -2.415 0.49999999880790647
      vertex 9.03 -2.415 -1.1920935349962747e-9
    endloop
  endfacet
  facet normal 0 0 -1
    outer loop
      vertex 9.03 -3.6225 -1.1920935349962747e-9
      vertex 9.03 -2.415 -1.1920935349962747e-9
      vertex 9.53 -2.415 -1.1920935349962747e-9
    endloop
  endfacet
  facet normal 1 0 0
    outer loop
      vertex 9.53 -3.6225 -1.1920935349962747e-9
      vertex 9.53 -2.415 -1.1920935349962747e-9
      vertex 9.53 -2.415 10.03
    endloop
  endfacet
  facet normal 0 -1 0
    outer loop
      vertex -1.1920935349962747e-9 -4.83 10.03
      vertex 9.03 -4.83 0.49999999880790647
      vertex 9.53 -4.83 10.03
    endloop
  endfacet
  facet normal 0 0 1
    outer loop
      vertex -1.1920935349962747e-9 -3.6225 10.03
      vertex 9.53 -4.83 10.03
      vertex 9.53 -3.6225 10.03
    endloop
  endfacet
  facet normal 0 0 1
    outer loop
      vertex -1.1920935349962747e-9 -2.415 10.03
      vertex 9.53 -3.6225 10.03
      vertex 9.53 -2.415 10.03
    endloop
  endfacet
  facet normal 1 0 0
    outer loop
      vertex 9.53 -4.83 -1.1920935349962747e-9
      vertex 9.53 -3.6225 10.03
      vertex 9.53 -4.83 10.03
    endloop
  endfacet
  facet normal 1 0 0
    outer loop
      vertex 9.53 -3.6225 -1.1920935349962747e-9
      vertex 9.53 -2.415 10.03
      vertex 9.53 -3.6225 10.03
    endloop
  endfacet
  facet normal 0 0 -1
    outer loop
      vertex 0.49999999880790647 -2.415 0.49999999880790647
      vertex 9.03 -1.2075 0.49999999880790647
      vertex 9.03 -2.415 0.49999999880790647
    endloop
  endfacet
  facet normal 0 0 -1
    outer loop
      vertex 0.49999999880790647 -1.2075 0.49999999880790647
      vertex 9.03 0 0.49999999880790647
      vertex 9.03 -1.2075 0.49999999880790647
    endloop
  endfacet
  facet normal -1 0 0
    outer loop
      vertex 9.03 -2.415 -1.1920935349962747e-9
      vertex 9.03 -2.415 0.49999999880790647
      vertex 9.03 -1.2075 -1.1920935349962747e-9
    endloop
  endfacet
  facet normal 0 0 -1
    outer loop
      vertex 9.03 -2.415 -1.1920935349962747e-9
      vertex 9.53 -1.2075 -1.1920935349962747e-9
      vertex 9.53 -2.415 -1.1920935349962747e-9
    endloop
  endfacet
  facet normal -1 0 0
    outer loop
      vertex 9.03 -2.415 0.49999999880790647
      vertex 9.03 -1.2075 0.49999999880790647
      vertex 9.03 -1.2075 -1.1920935349962747e-9
    endloop
  endfacet
  facet normal 0 0 -1
    outer loop
      vertex 9.03 -2.415 -1.1920935349962747e-9
      vertex 9.03 -1.2075 -1.1920935349962747e-9
      vertex 9.53 -1.2075 -1.1920935349962747e-9
    endloop
  endfacet
  facet normal 1 0 0
    outer loop
      vertex 9.53 -2.415 -1.1920935349962747e-9
      vertex 9.53 -1.2075 -1.1920935349962747e-9
      vertex 9.53 -1.2075 10.03
    endloop
  endfacet
  facet normal -1 0 0
    outer loop
      vertex 9.03 -1.2075 -1.1920935349962747e-9
      vertex 9.03 -1.2075 0.49999999880790647
      vertex 9.03 0 -1.1920935349962747e-9
    endloop
  endfacet
  facet normal 0 0 -1
    outer loop
      vertex 9.03 -1.2075 -1.1920935349962747e-9
      vertex 9.53 0 -1.1920935349962747e-9
      vertex 9.53 -1.2075 -1.1920935349962747e-9
    endloop
  endfacet
  facet normal -1 0 0
    outer loop
      vertex 9.03 -1.2075 0.49999999880790647
      vertex 9.03 0 0.49999999880790647
      vertex 9.03 0 -1.1920935349962747e-9
    endloop
  endfacet
  facet normal 0 0 -1
    outer loop
      vertex 9.03 -1.2075 -1.1920935349962747e-9
      vertex 9.03 0 -1.1920935349962747e-9
      vertex 9.53 0 -1.1920935349962747e-9
    endloop
  endfacet
  facet normal 0 1 0
    outer loop
      vertex 9.03 0 -1.1920935349962747e-9
      vertex 9.03 0 0.49999999880790647
      vertex 9.53 0 -1.1920935349962747e-9
    endloop
  endfacet
  facet normal 1 0 0
    outer loop
      vertex 9.53 -1.2075 -1.1920935349962747e-9
      vertex 9.53 0 -1.1920935349962747e-9
      vertex 9.53 0 10.03
    endloop
  endfacet
  facet normal 0 1 0
    outer loop
      vertex 9.03 0 0.49999999880790647
      vertex 9.53 0 10.03
      vertex 9.53 0 -1.1920935349962747e-9
    endloop
  endfacet
  facet normal 0 0 1
    outer loop
      vertex 9.53 -2.415 10.03
      vertex 9.53 -1.2075 10.03
      vertex 2.365 -1.27 10.03
    endloop
  endfacet
  facet normal 0 1 0
    outer loop
      vertex -1.1920935349962747e-9 0 10.03
      vertex 9.53 0 10.03
      vertex 9.03 0 0.49999999880790647
    endloop
  endfacet
  facet normal 0 0 1
    outer loop
      vertex -1.1920935349962747e-9 0 10.03
      vertex 9.53 -1.2075 10.03
      vertex 9.53 0 10.03
    endloop
  endfacet
  facet normal 1 0 0
    outer loop
      vertex 9.53 -2.415 -1.1920935349962747e-9
      vertex 9.53 -1.2075 10.03
      vertex 9.53 -2.415 10.03
    endloop
  endfacet
  facet normal 1 0 0
    outer loop
      vertex 9.53 -1.2075 -1.1920935349962747e-9
      vertex 9.53 0 10.03
      vertex 9.53 -1.2075 10.03
    endloop
  endfacet
  facet normal -0.773010453362737 -0.6343932841636456 0
    outer loop
      vertex 0.359540774528713 -1.8783494051564644 11.549999999999999
      vertex 0.359540774528713 -1.8783494051564644 10.03
      vertex 0.4957180746007305 -2.0442819253992695 10.03
    endloop
  endfacet
  facet normal -0.6343932841636453 -0.7730104533627371 0
    outer loop
      vertex 0.6616505948435356 -2.180459225471287 11.549999999999999
      vertex 0.4957180746007305 -2.0442819253992695 11.549999999999999
      vertex 0.4957180746007305 -2.0442819253992695 10.03
    endloop
  endfacet
  facet normal -0.773010453362737 -0.6343932841636456 0
    outer loop
      vertex 0.359540774528713 -1.8783494051564644 11.549999999999999
      vertex 0.4957180746007305 -2.0442819253992695 10.03
      vertex 0.4957180746007305 -2.0442819253992695 11.549999999999999
    endloop
  endfacet
  facet normal -0.8819212643483552 -0.4713967368259976 0
    outer loop
      vertex 0.359540774528713 -1.8783494051564644 11.549999999999999
      vertex 0.2583519119001412 -1.6890383584397735 11.549999999999999
      vertex 0.359540774528713 -1.8783494051564644 10.03
    endloop
  endfacet
  facet normal -0.6343932841636453 -0.7730104533627371 0
    outer loop
      vertex 0.6616505948435356 -2.180459225471287 11.549999999999999
      vertex 0.4957180746007305 -2.0442819253992695 10.03
      vertex 0.6616505948435356 -2.180459225471287 10.03
    endloop
  endfacet
  facet normal -0.4713967368259969 -0.8819212643483553 0
    outer loop
      vertex 0.8509616415602267 -2.2816480880998586 11.549999999999999
      vertex 0.6616505948435356 -2.180459225471287 10.03
      vertex 0.8509616415602267 -2.2816480880998586 10.03
    endloop
  endfacet
  facet normal -0.2902846772544645 -0.9569403357322082 0
    outer loop
      vertex 1.0563760973923395 -2.3439598820415375 11.549999999999999
      vertex 0.8509616415602267 -2.2816480880998586 10.03
      vertex 1.0563760973923395 -2.3439598820415375 10.03
    endloop
  endfacet
  facet normal -0.4713967368259969 -0.8819212643483553 0
    outer loop
      vertex 0.6616505948435356 -2.180459225471287 11.549999999999999
      vertex 0.6616505948435356 -2.180459225471287 10.03
      vertex 0.8509616415602267 -2.2816480880998586 11.549999999999999
    endloop
  endfacet
  facet normal -0.2902846772544645 -0.9569403357322082 0
    outer loop
      vertex 0.8509616415602267 -2.2816480880998586 11.549999999999999
      vertex 0.8509616415602267 -2.2816480880998586 10.03
      vertex 1.0563760973923395 -2.3439598820415375 11.549999999999999
    endloop
  endfacet
  facet normal -0.09801714032956088 -0.9951847266721969 0
    outer loop
      vertex 1.0563760973923395 -2.3439598820415375 11.549999999999999
      vertex 1.0563760973923395 -2.3439598820415375 10.03
      vertex 1.27 -2.365 11.549999999999999
    endloop
  endfacet
  facet normal -0.8819212643483552 -0.4713967368259976 0
    outer loop
      vertex 0.2583519119001412 -1.6890383584397735 11.549999999999999
      vertex 0.2583519119001412 -1.6890383584397735 10.03
      vertex 0.359540774528713 -1.8783494051564644 10.03
    endloop
  endfacet
  facet normal -0.9569403357322088 -0.2902846772544625 0
    outer loop
      vertex 0.19604011795846277 -1.4836239026076605 11.549999999999999
      vertex 0.19604011795846277 -1.4836239026076605 10.03
      vertex 0.2583519119001412 -1.6890383584397735 10.03
    endloop
  endfacet
  facet normal -0.9569403357322088 -0.2902846772544625 0
    outer loop
      vertex 0.2583519119001412 -1.6890383584397735 11.549999999999999
      vertex 0.19604011795846277 -1.4836239026076605 11.549999999999999
      vertex 0.2583519119001412 -1.6890383584397735 10.03
    endloop
  endfacet
  facet normal 0 0 1
    outer loop
      vertex 0.359540774528713 -1.8783494051564644 11.549999999999999
      vertex 0.4957180746007305 -2.0442819253992695 11.549999999999999
      vertex 0.359540774528713 -0.6616505948435356 11.549999999999999
    endloop
  endfacet
  facet normal 0 0 1
    outer loop
      vertex 0.6616505948435356 -2.180459225471287 11.549999999999999
      vertex 0.4957180746007305 -0.4957180746007305 11.549999999999999
      vertex 0.4957180746007305 -2.0442819253992695 11.549999999999999
    endloop
  endfacet
  facet normal -0.9951847266721969 -0.09801714032956088 0
    outer loop
      vertex 0.17500000000000004 -1.27 11.549999999999999
      vertex 0.17500000000000004 -1.27 10.03
      vertex 0.19604011795846277 -1.4836239026076605 10.03
    endloop
  endfacet
  facet normal -0.9951847266721969 -0.09801714032956088 0
    outer loop
      vertex 0.19604011795846277 -1.4836239026076605 11.549999999999999
      vertex 0.17500000000000004 -1.27 11.549999999999999
      vertex 0.19604011795846277 -1.4836239026076605 10.03
    endloop
  endfacet
  facet normal 0 0 1
    outer loop
      vertex 0.359540774528713 -1.8783494051564644 11.549999999999999
      vertex 0.2583519119001412 -0.8509616415602267 11.549999999999999
      vertex 0.2583519119001412 -1.6890383584397735 11.549999999999999
    endloop
  endfacet
  facet normal 0 0 1
    outer loop
      vertex 0.2583519119001412 -1.6890383584397735 11.549999999999999
      vertex 0.19604011795846277 -1.0563760973923395 11.549999999999999
      vertex 0.19604011795846277 -1.4836239026076605 11.549999999999999
    endloop
  endfacet
  facet normal 0 0 1
    outer loop
      vertex 0.19604011795846277 -1.4836239026076605 11.549999999999999
      vertex 0.19604011795846277 -1.0563760973923395 11.549999999999999
      vertex 0.17500000000000004 -1.27 11.549999999999999
    endloop
  endfacet
  facet normal 0 0 1
    outer loop
      vertex 0.6616505948435356 -2.180459225471287 11.549999999999999
      vertex 0.8509616415602267 -2.2816480880998586 11.549999999999999
      vertex 0.6616505948435356 -0.359540774528713 11.549999999999999
    endloop
  endfacet
  facet normal 0 0 1
    outer loop
      vertex 0.8509616415602267 -2.2816480880998586 11.549999999999999
      vertex 1.0563760973923395 -2.3439598820415375 11.549999999999999
      vertex 0.8509616415602267 -0.2583519119001412 11.549999999999999
    endloop
  endfacet
  facet normal 0 0 1
    outer loop
      vertex 1.0563760973923395 -2.3439598820415375 11.549999999999999
      vertex 1.27 -2.365 11.549999999999999
      vertex 1.0563760973923395 -0.19604011795846277 11.549999999999999
    endloop
  endfacet
  facet normal -0.09801714032956088 -0.9951847266721969 0
    outer loop
      vertex 1.27 -2.365 11.549999999999999
      vertex 1.0563760973923395 -2.3439598820415375 10.03
      vertex 1.27 -2.365 10.03
    endloop
  endfacet
  facet normal 0.09801714032956088 -0.9951847266721969 0
    outer loop
      vertex 1.4836239026076605 -2.3439598820415375 11.549999999999999
      vertex 1.27 -2.365 10.03
      vertex 1.4836239026076605 -2.3439598820415375 10.03
    endloop
  endfacet
  facet normal 0.29028467725446444 -0.9569403357322083 0
    outer loop
      vertex 1.6890383584397735 -2.2816480880998586 11.549999999999999
      vertex 1.4836239026076605 -2.3439598820415375 10.03
      vertex 1.6890383584397735 -2.2816480880998586 10.03
    endloop
  endfacet
  facet normal 0.09801714032956088 -0.9951847266721969 0
    outer loop
      vertex 1.27 -2.365 11.549999999999999
      vertex 1.27 -2.365 10.03
      vertex 1.4836239026076605 -2.3439598820415375 11.549999999999999
    endloop
  endfacet
  facet normal 0.29028467725446444 -0.9569403357322083 0
    outer loop
      vertex 1.4836239026076605 -2.3439598820415375 11.549999999999999
      vertex 1.4836239026076605 -2.3439598820415375 10.03
      vertex 1.6890383584397735 -2.2816480880998586 11.549999999999999
    endloop
  endfacet
  facet normal 0.47139673682599714 -0.8819212643483553 0
    outer loop
      vertex 1.6890383584397735 -2.2816480880998586 11.549999999999999
      vertex 1.6890383584397735 -2.2816480880998586 10.03
      vertex 1.8783494051564644 -2.180459225471287 11.549999999999999
    endloop
  endfacet
  facet normal 0.47139673682599714 -0.8819212643483553 0
    outer loop
      vertex 1.8783494051564644 -2.180459225471287 11.549999999999999
      vertex 1.6890383584397735 -2.2816480880998586 10.03
      vertex 1.8783494051564644 -2.180459225471287 10.03
    endloop
  endfacet
  facet normal 0.6343932841636456 -0.773010453362737 0
    outer loop
      vertex 1.8783494051564644 -2.180459225471287 11.549999999999999
      vertex 1.8783494051564644 -2.180459225471287 10.03
      vertex 2.0442819253992695 -2.0442819253992695 11.549999999999999
    endloop
  endfacet
  facet normal 0.6343932841636456 -0.773010453362737 0
    outer loop
      vertex 2.0442819253992695 -2.0442819253992695 11.549999999999999
      vertex 1.8783494051564644 -2.180459225471287 10.03
      vertex 2.0442819253992695 -2.0442819253992695 10.03
    endloop
  endfacet
  facet normal 0.773010453362737 -0.6343932841636456 0
    outer loop
      vertex 2.0442819253992695 -2.0442819253992695 11.549999999999999
      vertex 2.0442819253992695 -2.0442819253992695 10.03
      vertex 2.180459225471287 -1.8783494051564644 10.03
    endloop
  endfacet
  facet normal 0.8819212643483553 -0.47139673682599714 0
    outer loop
      vertex 2.180459225471287 -1.8783494051564644 11.549999999999999
      vertex 2.180459225471287 -1.8783494051564644 10.03
      vertex 2.2816480880998586 -1.6890383584397735 10.03
    endloop
  endfacet
  facet normal 0.773010453362737 -0.6343932841636456 0
    outer loop
      vertex 2.0442819253992695 -2.0442819253992695 11.549999999999999
      vertex 2.180459225471287 -1.8783494051564644 10.03
      vertex 2.180459225471287 -1.8783494051564644 11.549999999999999
    endloop
  endfacet
  facet normal 0 0 1
    outer loop
      vertex 1.27 -2.365 11.549999999999999
      vertex 1.4836239026076605 -2.3439598820415375 11.549999999999999
      vertex 1.27 -0.17500000000000004 11.549999999999999
    endloop
  endfacet
  facet normal 0 0 1
    outer loop
      vertex 1.4836239026076605 -2.3439598820415375 11.549999999999999
      vertex 1.6890383584397735 -2.2816480880998586 11.549999999999999
      vertex 1.4836239026076605 -0.19604011795846277 11.549999999999999
    endloop
  endfacet
  facet normal 0 0 1
    outer loop
      vertex 1.6890383584397735 -2.2816480880998586 11.549999999999999
      vertex 1.8783494051564644 -2.180459225471287 11.549999999999999
      vertex 1.6890383584397735 -0.2583519119001412 11.549999999999999
    endloop
  endfacet
  facet normal 0.9569403357322083 -0.29028467725446444 0
    outer loop
      vertex 2.2816480880998586 -1.6890383584397735 11.549999999999999
      vertex 2.2816480880998586 -1.6890383584397735 10.03
      vertex 2.3439598820415375 -1.4836239026076605 10.03
    endloop
  endfacet
  facet normal 0 0 1
    outer loop
      vertex 1.8783494051564644 -2.180459225471287 11.549999999999999
      vertex 2.0442819253992695 -2.0442819253992695 11.549999999999999
      vertex 1.8783494051564644 -0.359540774528713 11.549999999999999
    endloop
  endfacet
  facet normal 0.8819212643483553 -0.47139673682599714 0
    outer loop
      vertex 2.180459225471287 -1.8783494051564644 11.549999999999999
      vertex 2.2816480880998586 -1.6890383584397735 10.03
      vertex 2.2816480880998586 -1.6890383584397735 11.549999999999999
    endloop
  endfacet
  facet normal 0.9569403357322083 -0.29028467725446444 0
    outer loop
      vertex 2.2816480880998586 -1.6890383584397735 11.549999999999999
      vertex 2.3439598820415375 -1.4836239026076605 10.03
      vertex 2.3439598820415375 -1.4836239026076605 11.549999999999999
    endloop
  endfacet
  facet normal 0.9951847266721969 -0.09801714032956088 0
    outer loop
      vertex 2.3439598820415375 -1.4836239026076605 11.549999999999999
      vertex 2.3439598820415375 -1.4836239026076605 10.03
      vertex 2.365 -1.27 10.03
    endloop
  endfacet
  facet normal 0 0 1
    outer loop
      vertex 2.0442819253992695 -2.0442819253992695 11.549999999999999
      vertex 2.180459225471287 -1.8783494051564644 11.549999999999999
      vertex 2.0442819253992695 -0.4957180746007305 11.549999999999999
    endloop
  endfacet
  facet normal 0 0 1
    outer loop
      vertex 2.180459225471287 -1.8783494051564644 11.549999999999999
      vertex 2.2816480880998586 -1.6890383584397735 11.549999999999999
      vertex 2.180459225471287 -0.6616505948435356 11.549999999999999
    endloop
  endfacet
  facet normal 0.9951847266721969 -0.09801714032956088 0
    outer loop
      vertex 2.3439598820415375 -1.4836239026076605 11.549999999999999
      vertex 2.365 -1.27 10.03
      vertex 2.365 -1.27 11.549999999999999
    endloop
  endfacet
  facet normal 0 0 1
    outer loop
      vertex 2.2816480880998586 -1.6890383584397735 11.549999999999999
      vertex 2.3439598820415375 -1.4836239026076605 11.549999999999999
      vertex 2.2816480880998586 -0.8509616415602267 11.549999999999999
    endloop
  endfacet
  facet normal 0 0 1
    outer loop
      vertex 2.3439598820415375 -1.4836239026076605 11.549999999999999
      vertex 2.365 -1.27 11.549999999999999
      vertex 2.3439598820415375 -1.0563760973923395 11.549999999999999
    endloop
  endfacet
  facet normal -0.9951847266721969 0.09801714032956088 0
    outer loop
      vertex 0.19604011795846277 -1.0563760973923395 11.549999999999999
      vertex 0.19604011795846277 -1.0563760973923395 10.03
      vertex 0.17500000000000004 -1.27 10.03
    endloop
  endfacet
  facet normal -0.9569403357322088 0.29028467725446266 0
    outer loop
      vertex 0.2583519119001412 -0.8509616415602267 11.549999999999999
      vertex 0.2583519119001412 -0.8509616415602267 10.03
      vertex 0.19604011795846277 -1.0563760973923395 10.03
    endloop
  endfacet
  facet normal -0.9951847266721969 0.09801714032956088 0
    outer loop
      vertex 0.17500000000000004 -1.27 11.549999999999999
      vertex 0.19604011795846277 -1.0563760973923395 11.549999999999999
      vertex 0.17500000000000004 -1.27 10.03
    endloop
  endfacet
  facet normal 0 0 1
    outer loop
      vertex 0.2583519119001412 -1.6890383584397735 11.549999999999999
      vertex 0.2583519119001412 -0.8509616415602267 11.549999999999999
      vertex 0.19604011795846277 -1.0563760973923395 11.549999999999999
    endloop
  endfacet
  facet normal -0.9569403357322088 0.29028467725446266 0
    outer loop
      vertex 0.19604011795846277 -1.0563760973923395 11.549999999999999
      vertex 0.2583519119001412 -0.8509616415602267 11.549999999999999
      vertex 0.19604011795846277 -1.0563760973923395 10.03
    endloop
  endfacet
  facet normal 0 0 1
    outer loop
      vertex 0.359540774528713 -1.8783494051564644 11.549999999999999
      vertex 0.359540774528713 -0.6616505948435356 11.549999999999999
      vertex 0.2583519119001412 -0.8509616415602267 11.549999999999999
    endloop
  endfacet
  facet normal 0 0 1
    outer loop
      vertex 0.4957180746007305 -2.0442819253992695 11.549999999999999
      vertex 0.4957180746007305 -0.4957180746007305 11.549999999999999
      vertex 0.359540774528713 -0.6616505948435356 11.549999999999999
    endloop
  endfacet
  facet normal -0.8819212643483552 0.47139673682599736 0
    outer loop
      vertex 0.359540774528713 -0.6616505948435356 11.549999999999999
      vertex 0.359540774528713 -0.6616505948435356 10.03
      vertex 0.2583519119001412 -0.8509616415602267 10.03
    endloop
  endfacet
  facet normal -0.8819212643483552 0.47139673682599736 0
    outer loop
      vertex 0.2583519119001412 -0.8509616415602267 11.549999999999999
      vertex 0.359540774528713 -0.6616505948435356 11.549999999999999
      vertex 0.2583519119001412 -0.8509616415602267 10.03
    endloop
  endfacet
  facet normal -0.7730104533627371 0.6343932841636453 0
    outer loop
      vertex 0.359540774528713 -0.6616505948435356 11.549999999999999
      vertex 0.4957180746007305 -0.4957180746007305 11.549999999999999
      vertex 0.359540774528713 -0.6616505948435356 10.03
    endloop
  endfacet
  facet normal 0 0 1
    outer loop
      vertex 0.6616505948435356 -2.180459225471287 11.549999999999999
      vertex 0.6616505948435356 -0.359540774528713 11.549999999999999
      vertex 0.4957180746007305 -0.4957180746007305 11.549999999999999
    endloop
  endfacet
  facet normal 0 0 1
    outer loop
      vertex 0.8509616415602267 -2.2816480880998586 11.549999999999999
      vertex 0.8509616415602267 -0.2583519119001412 11.549999999999999
      vertex 0.6616505948435356 -0.359540774528713 11.549999999999999
    endloop
  endfacet
  facet normal 0 0 1
    outer loop
      vertex 1.0563760973923395 -2.3439598820415375 11.549999999999999
      vertex 1.0563760973923395 -0.19604011795846277 11.549999999999999
      vertex 0.8509616415602267 -0.2583519119001412 11.549999999999999
    endloop
  endfacet
  facet normal -0.7730104533627371 0.6343932841636453 0
    outer loop
      vertex 0.4957180746007305 -0.4957180746007305 11.549999999999999
      vertex 0.4957180746007305 -0.4957180746007305 10.03
      vertex 0.359540774528713 -0.6616505948435356 10.03
    endloop
  endfacet
  facet normal -0.6343932841636453 0.7730104533627371 0
    outer loop
      vertex 0.4957180746007305 -0.4957180746007305 11.549999999999999
      vertex 0.6616505948435356 -0.359540774528713 10.03
      vertex 0.4957180746007305 -0.4957180746007305 10.03
    endloop
  endfacet
  facet normal -0.47139673682599736 0.8819212643483552 0
    outer loop
      vertex 0.6616505948435356 -0.359540774528713 11.549999999999999
      vertex 0.8509616415602267 -0.2583519119001412 10.03
      vertex 0.6616505948435356 -0.359540774528713 10.03
    endloop
  endfacet
  facet normal -0.6343932841636453 0.7730104533627371 0
    outer loop
      vertex 0.4957180746007305 -0.4957180746007305 11.549999999999999
      vertex 0.6616505948435356 -0.359540774528713 11.549999999999999
      vertex 0.6616505948435356 -0.359540774528713 10.03
    endloop
  endfacet
  facet normal -0.29028467725446266 0.9569403357322088 0
    outer loop
      vertex 0.8509616415602267 -0.2583519119001412 11.549999999999999
      vertex 1.0563760973923395 -0.19604011795846277 10.03
      vertex 0.8509616415602267 -0.2583519119001412 10.03
    endloop
  endfacet
  facet normal -0.09801714032956088 0.9951847266721969 0
    outer loop
      vertex 1.0563760973923395 -0.19604011795846277 11.549999999999999
      vertex 1.27 -0.17500000000000004 10.03
      vertex 1.0563760973923395 -0.19604011795846277 10.03
    endloop
  endfacet
  facet normal -0.47139673682599736 0.8819212643483552 0
    outer loop
      vertex 0.6616505948435356 -0.359540774528713 11.549999999999999
      vertex 0.8509616415602267 -0.2583519119001412 11.549999999999999
      vertex 0.8509616415602267 -0.2583519119001412 10.03
    endloop
  endfacet
  facet normal -0.29028467725446266 0.9569403357322088 0
    outer loop
      vertex 0.8509616415602267 -0.2583519119001412 11.549999999999999
      vertex 1.0563760973923395 -0.19604011795846277 11.549999999999999
      vertex 1.0563760973923395 -0.19604011795846277 10.03
    endloop
  endfacet
  facet normal 0 0 1
    outer loop
      vertex 1.27 -2.365 11.549999999999999
      vertex 1.27 -0.17500000000000004 11.549999999999999
      vertex 1.0563760973923395 -0.19604011795846277 11.549999999999999
    endloop
  endfacet
  facet normal 0 0 1
    outer loop
      vertex 1.6890383584397735 -2.2816480880998586 11.549999999999999
      vertex 1.6890383584397735 -0.2583519119001412 11.549999999999999
      vertex 1.4836239026076605 -0.19604011795846277 11.549999999999999
    endloop
  endfacet
  facet normal 0 0 1
    outer loop
      vertex 1.27 -0.17500000000000004 11.549999999999999
      vertex 1.4836239026076605 -2.3439598820415375 11.549999999999999
      vertex 1.4836239026076605 -0.19604011795846277 11.549999999999999
    endloop
  endfacet
  facet normal 0.9951847266721969 0.09801714032956088 0
    outer loop
      vertex 2.365 -1.27 11.549999999999999
      vertex 2.365 -1.27 10.03
      vertex 2.3439598820415375 -1.0563760973923395 10.03
    endloop
  endfacet
  facet normal 0.9569403357322082 0.2902846772544645 0
    outer loop
      vertex 2.3439598820415375 -1.0563760973923395 11.549999999999999
      vertex 2.3439598820415375 -1.0563760973923395 10.03
      vertex 2.2816480880998586 -0.8509616415602267 10.03
    endloop
  endfacet
  facet normal 0 0 1
    outer loop
      vertex 1.8783494051564644 -2.180459225471287 11.549999999999999
      vertex 1.8783494051564644 -0.359540774528713 11.549999999999999
      vertex 1.6890383584397735 -0.2583519119001412 11.549999999999999
    endloop
  endfacet
  facet normal 0 0 1
    outer loop
      vertex 2.0442819253992695 -2.0442819253992695 11.549999999999999
      vertex 2.0442819253992695 -0.4957180746007305 11.549999999999999
      vertex 1.8783494051564644 -0.359540774528713 11.549999999999999
    endloop
  endfacet
  facet normal 0.9951847266721969 0.09801714032956088 0
    outer loop
      vertex 2.365 -1.27 11.549999999999999
      vertex 2.3439598820415375 -1.0563760973923395 10.03
      vertex 2.3439598820415375 -1.0563760973923395 11.549999999999999
    endloop
  endfacet
  facet normal 0 0 1
    outer loop
      vertex 2.2816480880998586 -1.6890383584397735 11.549999999999999
      vertex 2.2816480880998586 -0.8509616415602267 11.549999999999999
      vertex 2.180459225471287 -0.6616505948435356 11.549999999999999
    endloop
  endfacet
  facet normal 0 0 1
    outer loop
      vertex 2.3439598820415375 -1.4836239026076605 11.549999999999999
      vertex 2.3439598820415375 -1.0563760973923395 11.549999999999999
      vertex 2.2816480880998586 -0.8509616415602267 11.549999999999999
    endloop
  endfacet
  facet normal 0.9569403357322082 0.2902846772544645 0
    outer loop
      vertex 2.3439598820415375 -1.0563760973923395 11.549999999999999
      vertex 2.2816480880998586 -0.8509616415602267 10.03
      vertex 2.2816480880998586 -0.8509616415602267 11.549999999999999
    endloop
  endfacet
  facet normal 0 0 1
    outer loop
      vertex 2.180459225471287 -1.8783494051564644 11.549999999999999
      vertex 2.180459225471287 -0.6616505948435356 11.549999999999999
      vertex 2.0442819253992695 -0.4957180746007305 11.549999999999999
    endloop
  endfacet
  facet normal 0.8819212643483553 0.4713967368259969 0
    outer loop
      vertex 2.2816480880998586 -0.8509616415602267 11.549999999999999
      vertex 2.2816480880998586 -0.8509616415602267 10.03
      vertex 2.180459225471287 -0.6616505948435356 10.03
    endloop
  endfacet
  facet normal 0.7730104533627371 0.6343932841636453 0
    outer loop
      vertex 2.180459225471287 -0.6616505948435356 11.549999999999999
      vertex 2.180459225471287 -0.6616505948435356 10.03
      vertex 2.0442819253992695 -0.4957180746007305 10.03
    endloop
  endfacet
  facet normal 0.8819212643483553 0.4713967368259969 0
    outer loop
      vertex 2.2816480880998586 -0.8509616415602267 11.549999999999999
      vertex 2.180459225471287 -0.6616505948435356 10.03
      vertex 2.180459225471287 -0.6616505948435356 11.549999999999999
    endloop
  endfacet
  facet normal 0.09801714032956088 0.9951847266721969 0
    outer loop
      vertex 1.27 -0.17500000000000004 11.549999999999999
      vertex 1.4836239026076605 -0.19604011795846277 10.03
      vertex 1.27 -0.17500000000000004 10.03
    endloop
  endfacet
  facet normal 0.2902846772544625 0.9569403357322088 0
    outer loop
      vertex 1.4836239026076605 -0.19604011795846277 11.549999999999999
      vertex 1.6890383584397735 -0.2583519119001412 10.03
      vertex 1.4836239026076605 -0.19604011795846277 10.03
    endloop
  endfacet
  facet normal 0.4713967368259976 0.8819212643483552 0
    outer loop
      vertex 1.6890383584397735 -0.2583519119001412 11.549999999999999
      vertex 1.8783494051564644 -0.359540774528713 10.03
      vertex 1.6890383584397735 -0.2583519119001412 10.03
    endloop
  endfacet
  facet normal -0.09801714032956088 0.9951847266721969 0
    outer loop
      vertex 1.0563760973923395 -0.19604011795846277 11.549999999999999
      vertex 1.27 -0.17500000000000004 11.549999999999999
      vertex 1.27 -0.17500000000000004 10.03
    endloop
  endfacet
  facet normal 0.09801714032956088 0.9951847266721969 0
    outer loop
      vertex 1.27 -0.17500000000000004 11.549999999999999
      vertex 1.4836239026076605 -0.19604011795846277 11.549999999999999
      vertex 1.4836239026076605 -0.19604011795846277 10.03
    endloop
  endfacet
  facet normal 0.2902846772544625 0.9569403357322088 0
    outer loop
      vertex 1.4836239026076605 -0.19604011795846277 11.549999999999999
      vertex 1.6890383584397735 -0.2583519119001412 11.549999999999999
      vertex 1.6890383584397735 -0.2583519119001412 10.03
    endloop
  endfacet
  facet normal 0.6343932841636456 0.773010453362737 0
    outer loop
      vertex 1.8783494051564644 -0.359540774528713 11.549999999999999
      vertex 2.0442819253992695 -0.4957180746007305 10.03
      vertex 1.8783494051564644 -0.359540774528713 10.03
    endloop
  endfacet
  facet normal 0.4713967368259976 0.8819212643483552 0
    outer loop
      vertex 1.6890383584397735 -0.2583519119001412 11.549999999999999
      vertex 1.8783494051564644 -0.359540774528713 11.549999999999999
      vertex 1.8783494051564644 -0.359540774528713 10.03
    endloop
  endfacet
  facet normal 0.6343932841636456 0.773010453362737 0
    outer loop
      vertex 2.0442819253992695 -0.4957180746007305 11.549999999999999
      vertex 2.0442819253992695 -0.4957180746007305 10.03
      vertex 1.8783494051564644 -0.359540774528713 11.549999999999999
    endloop
  endfacet
  facet normal 0.7730104533627371 0.6343932841636453 0
    outer loop
      vertex 2.0442819253992695 -0.4957180746007305 11.549999999999999
      vertex 2.180459225471287 -0.6616505948435356 11.549999999999999
      vertex 2.0442819253992695 -0.4957180746007305 10.03
    endloop
  endfacet
endsolid OpenSCAD_Model
