<?xml version="1.0" encoding="UTF-8" standalone="no"?>
<!DOCTYPE svg PUBLIC "-//W3C//DTD SVG 1.1//EN"
 "http://www.w3.org/Graphics/SVG/1.1/DTD/svg11.dtd">
<!-- Generated by graphviz version 5.0.0 (20220707.1540)
 -->
<!-- Title: default Pages: 1 -->
<svg width="671pt" height="854pt"
 viewBox="0.00 0.00 671.36 854.00" xmlns="http://www.w3.org/2000/svg" xmlns:xlink="http://www.w3.org/1999/xlink">
<g id="graph0" class="graph" transform="scale(1 1) rotate(0) translate(4 850)">
<title>default</title>
<polygon fill="white" stroke="transparent" points="-4,4 -4,-850 667.36,-850 667.36,4 -4,4"/>
<!-- root_274 -->
<g id="node1" class="node">
<title>root_274</title>
<g id="a_node1"><a xlink:href="javascript:s=&quot;\(\)\nNone&quot;; console.log(s); alert(s);" xlink:title="root">
<ellipse fill="none" stroke="black" cx="27" cy="-410" rx="27" ry="18"/>
<text text-anchor="middle" x="27" y="-406.3" font-family="Times New Roman,serif" font-size="14.00">root</text>
</a>
</g>
</g>
<!-- default_275 -->
<g id="node2" class="node">
<title>default_275</title>
<g id="a_node2"><a xlink:href="javascript:s=&quot;\(&#x27;default&#x27;,\)\nHingeBar3XEndHoles&quot;; console.log(s); alert(s);" xlink:title="HingeBar3XEndHoles">
<ellipse fill="none" stroke="black" cx="171.24" cy="-626" rx="35.19" ry="18"/>
<text text-anchor="middle" x="171.24" y="-622.3" font-family="Times New Roman,serif" font-size="14.00">default</text>
</a>
</g>
</g>
<!-- root_274&#45;&gt;default_275 -->
<g id="edge1" class="edge">
<title>root_274&#45;&gt;default_275</title>
<path fill="none" stroke="black" d="M38.69,-426.24C63.23,-463.5 123.76,-555.42 153.38,-600.39"/>
<polygon fill="black" stroke="black" points="150.61,-602.55 159.03,-608.98 156.46,-598.7 150.61,-602.55"/>
</g>
<!-- 286 -->
<g id="node13" class="node">
<title>286</title>
<g id="a_node13"><a xlink:href="javascript:s=&quot;\(&quot;&#x27;base&#x27;,\ &quot;,\)\nAnnotatedCoordinates&quot;; console.log(s); alert(s);" xlink:title="AnnotatedCoordinates">
<ellipse fill="none" stroke="black" cx="171.24" cy="-410" rx="36.29" ry="18"/>
<text text-anchor="middle" x="171.24" y="-406.3" font-family="Times New Roman,serif" font-size="14.00">&#39;base&#39;, </text>
</a>
</g>
</g>
<!-- root_274&#45;&gt;286 -->
<g id="edge12" class="edge">
<title>root_274&#45;&gt;286</title>
<path fill="none" stroke="black" d="M54.09,-410C73.79,-410 101.33,-410 124.64,-410"/>
<polygon fill="black" stroke="black" points="124.68,-413.5 134.68,-410 124.68,-406.5 124.68,-413.5"/>
</g>
<!-- 302 -->
<g id="node29" class="node">
<title>302</title>
<g id="a_node29"><a xlink:href="javascript:s=&quot;\(&quot;&#x27;base_hole&#x27;,\ &#x27;base&#x27;,\ &quot;,\)\nAnnotatedCoordinates&quot;; console.log(s); alert(s);" xlink:title="AnnotatedCoordinates">
<ellipse fill="none" stroke="black" cx="171.24" cy="-153" rx="81.49" ry="18"/>
<text text-anchor="middle" x="171.24" y="-149.3" font-family="Times New Roman,serif" font-size="14.00">&#39;base_hole&#39;, &#39;base&#39;, </text>
</a>
</g>
</g>
<!-- root_274&#45;&gt;302 -->
<g id="edge28" class="edge">
<title>root_274&#45;&gt;302</title>
<path fill="none" stroke="black" d="M37.33,-393.14C61.47,-349.52 126.12,-232.72 155.43,-179.76"/>
<polygon fill="black" stroke="black" points="158.53,-181.39 160.31,-170.94 152.41,-178 158.53,-181.39"/>
</g>
<!-- cage_276 -->
<g id="node3" class="node">
<title>cage_276</title>
<g id="a_node3"><a xlink:href="javascript:s=&quot;\(&#x27;default&#x27;,\ &#x27;cage&#x27;\)\nHingeBar3X&quot;; console.log(s); alert(s);" xlink:title="HingeBar3X">
<ellipse fill="none" stroke="black" cx="342.43" cy="-720" rx="27.1" ry="18"/>
<text text-anchor="middle" x="342.43" y="-716.3" font-family="Times New Roman,serif" font-size="14.00">cage</text>
</a>
</g>
</g>
<!-- default_275&#45;&gt;cage_276 -->
<g id="edge2" class="edge">
<title>default_275&#45;&gt;cage_276</title>
<path fill="none" stroke="black" d="M195.77,-639.07C226.1,-655.92 278.85,-685.23 311.86,-703.57"/>
<polygon fill="black" stroke="black" points="310.58,-706.86 321.02,-708.66 313.98,-700.74 310.58,-706.86"/>
</g>
<!-- top_sleeve_284 -->
<g id="node11" class="node">
<title>top_sleeve_284</title>
<g id="a_node11"><a xlink:href="javascript:s=&quot;\(&#x27;default&#x27;,\ &#x27;top_sleeve&#x27;\)\nCylinder&quot;; console.log(s); alert(s);" xlink:title="Cylinder">
<ellipse fill="none" stroke="black" cx="342.43" cy="-653" rx="50.09" ry="18"/>
<text text-anchor="middle" x="342.43" y="-649.3" font-family="Times New Roman,serif" font-size="14.00">top_sleeve</text>
</a>
</g>
</g>
<!-- default_275&#45;&gt;top_sleeve_284 -->
<g id="edge10" class="edge">
<title>default_275&#45;&gt;top_sleeve_284</title>
<path fill="none" stroke="black" d="M204.86,-631.21C227.94,-634.89 259.44,-639.91 286.37,-644.21"/>
<polygon fill="black" stroke="black" points="286.01,-647.7 296.44,-645.82 287.12,-640.79 286.01,-647.7"/>
</g>
<!-- base_sleeve_285 -->
<g id="node12" class="node">
<title>base_sleeve_285</title>
<g id="a_node12"><a xlink:href="javascript:s=&quot;\(&#x27;default&#x27;,\ &#x27;base_sleeve&#x27;\)\nCylinder&quot;; console.log(s); alert(s);" xlink:title="Cylinder">
<ellipse fill="none" stroke="black" cx="342.43" cy="-599" rx="53.89" ry="18"/>
<text text-anchor="middle" x="342.43" y="-595.3" font-family="Times New Roman,serif" font-size="14.00">base_sleeve</text>
</a>
</g>
</g>
<!-- default_275&#45;&gt;base_sleeve_285 -->
<g id="edge11" class="edge">
<title>default_275&#45;&gt;base_sleeve_285</title>
<path fill="none" stroke="black" d="M204.86,-620.79C227.07,-617.25 257.09,-612.46 283.32,-608.27"/>
<polygon fill="black" stroke="black" points="284.22,-611.67 293.54,-606.64 283.12,-604.76 284.22,-611.67"/>
</g>
<!-- bar_277 -->
<g id="node4" class="node">
<title>bar_277</title>
<g id="a_node4"><a xlink:href="javascript:s=&quot;\(&#x27;default&#x27;,\ &#x27;cage&#x27;,\ &#x27;bar&#x27;\)\nCylinder&quot;; console.log(s); alert(s);" xlink:title="Cylinder">
<ellipse fill="none" stroke="black" cx="479.82" cy="-828" rx="27" ry="18"/>
<text text-anchor="middle" x="479.82" y="-824.3" font-family="Times New Roman,serif" font-size="14.00">bar</text>
</a>
</g>
</g>
<!-- cage_276&#45;&gt;bar_277 -->
<g id="edge3" class="edge">
<title>cage_276&#45;&gt;bar_277</title>
<path fill="none" stroke="black" d="M358.01,-735.09C374.97,-752.19 404.25,-780.38 432.38,-801 437.61,-804.84 443.43,-808.58 449.13,-812"/>
<polygon fill="black" stroke="black" points="447.48,-815.09 457.88,-817.07 450.98,-809.03 447.48,-815.09"/>
</g>
<!-- top_hole_278 -->
<g id="node5" class="node">
<title>top_hole_278</title>
<g id="a_node5"><a xlink:href="javascript:s=&quot;\(&#x27;default&#x27;,\ &#x27;cage&#x27;,\ &#x27;top_hole&#x27;\)\nHingeHole&quot;; console.log(s); alert(s);" xlink:title="HingeHole">
<ellipse fill="none" stroke="black" cx="479.82" cy="-774" rx="42.79" ry="18"/>
<text text-anchor="middle" x="479.82" y="-770.3" font-family="Times New Roman,serif" font-size="14.00">top_hole</text>
</a>
</g>
</g>
<!-- cage_276&#45;&gt;top_hole_278 -->
<g id="edge4" class="edge">
<title>cage_276&#45;&gt;top_hole_278</title>
<path fill="none" stroke="black" d="M366.09,-729.04C385.87,-736.93 415.05,-748.56 438.76,-758.02"/>
<polygon fill="black" stroke="black" points="437.63,-761.34 448.21,-761.79 440.22,-754.84 437.63,-761.34"/>
</g>
<!-- base_hole_281 -->
<g id="node8" class="node">
<title>base_hole_281</title>
<g id="a_node8"><a xlink:href="javascript:s=&quot;\(&#x27;default&#x27;,\ &#x27;cage&#x27;,\ &#x27;base_hole&#x27;\)\nHingeHole&quot;; console.log(s); alert(s);" xlink:title="HingeHole">
<ellipse fill="none" stroke="black" cx="479.82" cy="-720" rx="47.39" ry="18"/>
<text text-anchor="middle" x="479.82" y="-716.3" font-family="Times New Roman,serif" font-size="14.00">base_hole</text>
</a>
</g>
</g>
<!-- cage_276&#45;&gt;base_hole_281 -->
<g id="edge7" class="edge">
<title>cage_276&#45;&gt;base_hole_281</title>
<path fill="none" stroke="black" d="M369.86,-720C384.72,-720 403.88,-720 421.98,-720"/>
<polygon fill="black" stroke="black" points="422.18,-723.5 432.18,-720 422.18,-716.5 422.18,-723.5"/>
</g>
<!-- cage_279 -->
<g id="node6" class="node">
<title>cage_279</title>
<g id="a_node6"><a xlink:href="javascript:s=&quot;\(&#x27;default&#x27;,\ &#x27;cage&#x27;,\ &#x27;top_hole&#x27;,\ &#x27;cage&#x27;\)\nCylinder&quot;; console.log(s); alert(s);" xlink:title="Cylinder">
<ellipse fill="none" stroke="black" cx="613.31" cy="-828" rx="27.1" ry="18"/>
<text text-anchor="middle" x="613.31" y="-824.3" font-family="Times New Roman,serif" font-size="14.00">cage</text>
</a>
</g>
</g>
<!-- top_hole_278&#45;&gt;cage_279 -->
<g id="edge5" class="edge">
<title>top_hole_278&#45;&gt;cage_279</title>
<path fill="none" stroke="black" d="M510.99,-786.39C531.67,-794.88 559.08,-806.14 580.17,-814.8"/>
<polygon fill="black" stroke="black" points="579.09,-818.14 589.67,-818.7 581.75,-811.66 579.09,-818.14"/>
</g>
<!-- hinge_hole_280 -->
<g id="node7" class="node">
<title>hinge_hole_280</title>
<g id="a_node7"><a xlink:href="javascript:s=&quot;\(&#x27;default&#x27;,\ &#x27;cage&#x27;,\ &#x27;top_hole&#x27;,\ &#x27;hinge_hole&#x27;\)\nRotateExtrude&quot;; console.log(s); alert(s);" xlink:title="RotateExtrude">
<ellipse fill="none" stroke="black" cx="613.31" cy="-774" rx="50.09" ry="18"/>
<text text-anchor="middle" x="613.31" y="-770.3" font-family="Times New Roman,serif" font-size="14.00">hinge_hole</text>
</a>
</g>
</g>
<!-- top_hole_278&#45;&gt;hinge_hole_280 -->
<g id="edge6" class="edge">
<title>top_hole_278&#45;&gt;hinge_hole_280</title>
<path fill="none" stroke="black" d="M522.79,-774C532.37,-774 542.73,-774 552.89,-774"/>
<polygon fill="black" stroke="black" points="552.95,-777.5 562.95,-774 552.95,-770.5 552.95,-777.5"/>
</g>
<!-- cage_282 -->
<g id="node9" class="node">
<title>cage_282</title>
<g id="a_node9"><a xlink:href="javascript:s=&quot;\(&#x27;default&#x27;,\ &#x27;cage&#x27;,\ &#x27;base_hole&#x27;,\ &#x27;cage&#x27;\)\nCylinder&quot;; console.log(s); alert(s);" xlink:title="Cylinder">
<ellipse fill="none" stroke="black" cx="613.31" cy="-720" rx="27.1" ry="18"/>
<text text-anchor="middle" x="613.31" y="-716.3" font-family="Times New Roman,serif" font-size="14.00">cage</text>
</a>
</g>
</g>
<!-- base_hole_281&#45;&gt;cage_282 -->
<g id="edge8" class="edge">
<title>base_hole_281&#45;&gt;cage_282</title>
<path fill="none" stroke="black" d="M527.55,-720C543.35,-720 560.75,-720 575.66,-720"/>
<polygon fill="black" stroke="black" points="576.01,-723.5 586.01,-720 576.01,-716.5 576.01,-723.5"/>
</g>
<!-- hinge_hole_283 -->
<g id="node10" class="node">
<title>hinge_hole_283</title>
<g id="a_node10"><a xlink:href="javascript:s=&quot;\(&#x27;default&#x27;,\ &#x27;cage&#x27;,\ &#x27;base_hole&#x27;,\ &#x27;hinge_hole&#x27;\)\nRotateExtrude&quot;; console.log(s); alert(s);" xlink:title="RotateExtrude">
<ellipse fill="none" stroke="black" cx="613.31" cy="-666" rx="50.09" ry="18"/>
<text text-anchor="middle" x="613.31" y="-662.3" font-family="Times New Roman,serif" font-size="14.00">hinge_hole</text>
</a>
</g>
</g>
<!-- base_hole_281&#45;&gt;hinge_hole_283 -->
<g id="edge9" class="edge">
<title>base_hole_281&#45;&gt;hinge_hole_283</title>
<path fill="none" stroke="black" d="M512.65,-706.93C529.87,-699.86 551.36,-691.03 569.97,-683.39"/>
<polygon fill="black" stroke="black" points="571.48,-686.55 579.4,-679.52 568.82,-680.08 571.48,-686.55"/>
</g>
<!-- coords_287 -->
<g id="node14" class="node">
<title>coords_287</title>
<g id="a_node14"><a xlink:href="javascript:s=&quot;\(&quot;&#x27;base&#x27;,\ &quot;,\ &#x27;coords&#x27;\)\nCoordinates&quot;; console.log(s); alert(s);" xlink:title="Coordinates">
<ellipse fill="none" stroke="black" cx="342.43" cy="-518" rx="36.29" ry="18"/>
<text text-anchor="middle" x="342.43" y="-514.3" font-family="Times New Roman,serif" font-size="14.00">coords</text>
</a>
</g>
</g>
<!-- 286&#45;&gt;coords_287 -->
<g id="edge13" class="edge">
<title>286&#45;&gt;coords_287</title>
<path fill="none" stroke="black" d="M191.85,-424.9C214.52,-441.84 253.25,-469.88 288.49,-491 294.12,-494.38 300.22,-497.74 306.22,-500.9"/>
<polygon fill="black" stroke="black" points="304.97,-504.19 315.46,-505.65 308.17,-497.96 304.97,-504.19"/>
</g>
<!-- x_298 -->
<g id="node25" class="node">
<title>x_298</title>
<g id="a_node25"><a xlink:href="javascript:s=&quot;\(&quot;&#x27;base&#x27;,\ &quot;,\ &#x27;x&#x27;\)\nText&quot;; console.log(s); alert(s);" xlink:title="Text">
<ellipse fill="none" stroke="black" cx="342.43" cy="-464" rx="27" ry="18"/>
<text text-anchor="middle" x="342.43" y="-460.3" font-family="Times New Roman,serif" font-size="14.00">x</text>
</a>
</g>
</g>
<!-- 286&#45;&gt;x_298 -->
<g id="edge24" class="edge">
<title>286&#45;&gt;x_298</title>
<path fill="none" stroke="black" d="M202.49,-419.65C232.12,-429.11 277.18,-443.49 307.9,-453.3"/>
<polygon fill="black" stroke="black" points="307.13,-456.73 317.72,-456.43 309.26,-450.06 307.13,-456.73"/>
</g>
<!-- y_299 -->
<g id="node26" class="node">
<title>y_299</title>
<g id="a_node26"><a xlink:href="javascript:s=&quot;\(&quot;&#x27;base&#x27;,\ &quot;,\ &#x27;y&#x27;\)\nText&quot;; console.log(s); alert(s);" xlink:title="Text">
<ellipse fill="none" stroke="black" cx="342.43" cy="-410" rx="27" ry="18"/>
<text text-anchor="middle" x="342.43" y="-406.3" font-family="Times New Roman,serif" font-size="14.00">y</text>
</a>
</g>
</g>
<!-- 286&#45;&gt;y_299 -->
<g id="edge25" class="edge">
<title>286&#45;&gt;y_299</title>
<path fill="none" stroke="black" d="M207.71,-410C236.36,-410 276.52,-410 305.34,-410"/>
<polygon fill="black" stroke="black" points="305.4,-413.5 315.4,-410 305.4,-406.5 305.4,-413.5"/>
</g>
<!-- z_300 -->
<g id="node27" class="node">
<title>z_300</title>
<g id="a_node27"><a xlink:href="javascript:s=&quot;\(&quot;&#x27;base&#x27;,\ &quot;,\ &#x27;z&#x27;\)\nText&quot;; console.log(s); alert(s);" xlink:title="Text">
<ellipse fill="none" stroke="black" cx="342.43" cy="-356" rx="27" ry="18"/>
<text text-anchor="middle" x="342.43" y="-352.3" font-family="Times New Roman,serif" font-size="14.00">z</text>
</a>
</g>
</g>
<!-- 286&#45;&gt;z_300 -->
<g id="edge26" class="edge">
<title>286&#45;&gt;z_300</title>
<path fill="none" stroke="black" d="M202.49,-400.35C232.12,-390.89 277.18,-376.51 307.9,-366.7"/>
<polygon fill="black" stroke="black" points="309.26,-369.94 317.72,-363.57 307.13,-363.27 309.26,-369.94"/>
</g>
<!-- label_301 -->
<g id="node28" class="node">
<title>label_301</title>
<g id="a_node28"><a xlink:href="javascript:s=&quot;\(&quot;&#x27;base&#x27;,\ &quot;,\ &#x27;label&#x27;\)\nText&quot;; console.log(s); alert(s);" xlink:title="Text">
<ellipse fill="none" stroke="black" cx="342.43" cy="-302" rx="27.1" ry="18"/>
<text text-anchor="middle" x="342.43" y="-298.3" font-family="Times New Roman,serif" font-size="14.00">label</text>
</a>
</g>
</g>
<!-- 286&#45;&gt;label_301 -->
<g id="edge27" class="edge">
<title>286&#45;&gt;label_301</title>
<path fill="none" stroke="black" d="M191.85,-395.1C214.52,-378.16 253.25,-350.12 288.49,-329 295.52,-324.78 303.28,-320.58 310.65,-316.8"/>
<polygon fill="black" stroke="black" points="312.33,-319.87 319.69,-312.25 309.18,-313.62 312.33,-319.87"/>
</g>
<!-- origin_288 -->
<g id="node15" class="node">
<title>origin_288</title>
<g id="a_node15"><a xlink:href="javascript:s=&quot;\(&quot;&#x27;base&#x27;,\ &quot;,\ &#x27;coords&#x27;,\ &#x27;origin&#x27;\)\nCoordinatesCage&quot;; console.log(s); alert(s);" xlink:title="CoordinatesCage">
<ellipse fill="none" stroke="black" cx="479.82" cy="-612" rx="31.4" ry="18"/>
<text text-anchor="middle" x="479.82" y="-608.3" font-family="Times New Roman,serif" font-size="14.00">origin</text>
</a>
</g>
</g>
<!-- coords_287&#45;&gt;origin_288 -->
<g id="edge14" class="edge">
<title>coords_287&#45;&gt;origin_288</title>
<path fill="none" stroke="black" d="M362.38,-533.32C380.07,-547.36 407.41,-568.43 432.38,-585 437.14,-588.16 442.28,-591.35 447.34,-594.38"/>
<polygon fill="black" stroke="black" points="445.89,-597.59 456.29,-599.62 449.42,-591.55 445.89,-597.59"/>
</g>
<!-- x_arrow_289 -->
<g id="node16" class="node">
<title>x_arrow_289</title>
<g id="a_node16"><a xlink:href="javascript:s=&quot;\(&quot;&#x27;base&#x27;,\ &quot;,\ &#x27;coords&#x27;,\ &#x27;x_arrow&#x27;\)\nArrow&quot;; console.log(s); alert(s);" xlink:title="Arrow">
<ellipse fill="none" stroke="black" cx="479.82" cy="-558" rx="40.89" ry="18"/>
<text text-anchor="middle" x="479.82" y="-554.3" font-family="Times New Roman,serif" font-size="14.00">x_arrow</text>
</a>
</g>
</g>
<!-- coords_287&#45;&gt;x_arrow_289 -->
<g id="edge15" class="edge">
<title>coords_287&#45;&gt;x_arrow_289</title>
<path fill="none" stroke="black" d="M374.15,-527.08C392.31,-532.44 415.58,-539.32 435.57,-545.22"/>
<polygon fill="black" stroke="black" points="434.79,-548.64 445.38,-548.12 436.78,-541.93 434.79,-548.64"/>
</g>
<!-- y_arrow_292 -->
<g id="node19" class="node">
<title>y_arrow_292</title>
<g id="a_node19"><a xlink:href="javascript:s=&quot;\(&quot;&#x27;base&#x27;,\ &quot;,\ &#x27;coords&#x27;,\ &#x27;y_arrow&#x27;\)\nArrow&quot;; console.log(s); alert(s);" xlink:title="Arrow">
<ellipse fill="none" stroke="black" cx="479.82" cy="-504" rx="40.89" ry="18"/>
<text text-anchor="middle" x="479.82" y="-500.3" font-family="Times New Roman,serif" font-size="14.00">y_arrow</text>
</a>
</g>
</g>
<!-- coords_287&#45;&gt;y_arrow_292 -->
<g id="edge18" class="edge">
<title>coords_287&#45;&gt;y_arrow_292</title>
<path fill="none" stroke="black" d="M378.3,-514.39C393.87,-512.78 412.5,-510.86 429.47,-509.1"/>
<polygon fill="black" stroke="black" points="430.19,-512.55 439.77,-508.04 429.47,-505.58 430.19,-512.55"/>
</g>
<!-- z_arrow_295 -->
<g id="node22" class="node">
<title>z_arrow_295</title>
<g id="a_node22"><a xlink:href="javascript:s=&quot;\(&quot;&#x27;base&#x27;,\ &quot;,\ &#x27;coords&#x27;,\ &#x27;z_arrow&#x27;\)\nArrow&quot;; console.log(s); alert(s);" xlink:title="Arrow">
<ellipse fill="none" stroke="black" cx="479.82" cy="-396" rx="40.09" ry="18"/>
<text text-anchor="middle" x="479.82" y="-392.3" font-family="Times New Roman,serif" font-size="14.00">z_arrow</text>
</a>
</g>
</g>
<!-- coords_287&#45;&gt;z_arrow_295 -->
<g id="edge21" class="edge">
<title>coords_287&#45;&gt;z_arrow_295</title>
<path fill="none" stroke="black" d="M370.75,-506.56C379.37,-502.31 388.66,-497.04 396.38,-491 421.96,-470.99 445.65,-442.16 461.01,-421.51"/>
<polygon fill="black" stroke="black" points="463.99,-423.36 467.06,-413.22 458.34,-419.23 463.99,-423.36"/>
</g>
<!-- stem_290 -->
<g id="node17" class="node">
<title>stem_290</title>
<g id="a_node17"><a xlink:href="javascript:s=&quot;\(&quot;&#x27;base&#x27;,\ &quot;,\ &#x27;coords&#x27;,\ &#x27;x_arrow&#x27;,\ &#x27;stem&#x27;\)\nCone&quot;; console.log(s); alert(s);" xlink:title="Cone">
<ellipse fill="none" stroke="black" cx="613.31" cy="-612" rx="27.9" ry="18"/>
<text text-anchor="middle" x="613.31" y="-608.3" font-family="Times New Roman,serif" font-size="14.00">stem</text>
</a>
</g>
</g>
<!-- x_arrow_289&#45;&gt;stem_290 -->
<g id="edge16" class="edge">
<title>x_arrow_289&#45;&gt;stem_290</title>
<path fill="none" stroke="black" d="M510.33,-570.12C531.08,-578.64 558.83,-590.04 580.15,-598.79"/>
<polygon fill="black" stroke="black" points="578.86,-602.05 589.44,-602.61 581.52,-595.57 578.86,-602.05"/>
</g>
<!-- head_291 -->
<g id="node18" class="node">
<title>head_291</title>
<g id="a_node18"><a xlink:href="javascript:s=&quot;\(&quot;&#x27;base&#x27;,\ &quot;,\ &#x27;coords&#x27;,\ &#x27;x_arrow&#x27;,\ &#x27;head&#x27;\)\nCone&quot;; console.log(s); alert(s);" xlink:title="Cone">
<ellipse fill="none" stroke="black" cx="613.31" cy="-558" rx="27.9" ry="18"/>
<text text-anchor="middle" x="613.31" y="-554.3" font-family="Times New Roman,serif" font-size="14.00">head</text>
</a>
</g>
</g>
<!-- x_arrow_289&#45;&gt;head_291 -->
<g id="edge17" class="edge">
<title>x_arrow_289&#45;&gt;head_291</title>
<path fill="none" stroke="black" d="M520.99,-558C538.25,-558 558.3,-558 575.21,-558"/>
<polygon fill="black" stroke="black" points="575.28,-561.5 585.28,-558 575.28,-554.5 575.28,-561.5"/>
</g>
<!-- stem_293 -->
<g id="node20" class="node">
<title>stem_293</title>
<g id="a_node20"><a xlink:href="javascript:s=&quot;\(&quot;&#x27;base&#x27;,\ &quot;,\ &#x27;coords&#x27;,\ &#x27;y_arrow&#x27;,\ &#x27;stem&#x27;\)\nCone&quot;; console.log(s); alert(s);" xlink:title="Cone">
<ellipse fill="none" stroke="black" cx="613.31" cy="-504" rx="27.9" ry="18"/>
<text text-anchor="middle" x="613.31" y="-500.3" font-family="Times New Roman,serif" font-size="14.00">stem</text>
</a>
</g>
</g>
<!-- y_arrow_292&#45;&gt;stem_293 -->
<g id="edge19" class="edge">
<title>y_arrow_292&#45;&gt;stem_293</title>
<path fill="none" stroke="black" d="M520.99,-504C538.25,-504 558.3,-504 575.21,-504"/>
<polygon fill="black" stroke="black" points="575.28,-507.5 585.28,-504 575.28,-500.5 575.28,-507.5"/>
</g>
<!-- head_294 -->
<g id="node21" class="node">
<title>head_294</title>
<g id="a_node21"><a xlink:href="javascript:s=&quot;\(&quot;&#x27;base&#x27;,\ &quot;,\ &#x27;coords&#x27;,\ &#x27;y_arrow&#x27;,\ &#x27;head&#x27;\)\nCone&quot;; console.log(s); alert(s);" xlink:title="Cone">
<ellipse fill="none" stroke="black" cx="613.31" cy="-450" rx="27.9" ry="18"/>
<text text-anchor="middle" x="613.31" y="-446.3" font-family="Times New Roman,serif" font-size="14.00">head</text>
</a>
</g>
</g>
<!-- y_arrow_292&#45;&gt;head_294 -->
<g id="edge20" class="edge">
<title>y_arrow_292&#45;&gt;head_294</title>
<path fill="none" stroke="black" d="M510.33,-491.88C531.08,-483.36 558.83,-471.96 580.15,-463.21"/>
<polygon fill="black" stroke="black" points="581.52,-466.43 589.44,-459.39 578.86,-459.95 581.52,-466.43"/>
</g>
<!-- stem_296 -->
<g id="node23" class="node">
<title>stem_296</title>
<g id="a_node23"><a xlink:href="javascript:s=&quot;\(&quot;&#x27;base&#x27;,\ &quot;,\ &#x27;coords&#x27;,\ &#x27;z_arrow&#x27;,\ &#x27;stem&#x27;\)\nCone&quot;; console.log(s); alert(s);" xlink:title="Cone">
<ellipse fill="none" stroke="black" cx="613.31" cy="-396" rx="27.9" ry="18"/>
<text text-anchor="middle" x="613.31" y="-392.3" font-family="Times New Roman,serif" font-size="14.00">stem</text>
</a>
</g>
</g>
<!-- z_arrow_295&#45;&gt;stem_296 -->
<g id="edge22" class="edge">
<title>z_arrow_295&#45;&gt;stem_296</title>
<path fill="none" stroke="black" d="M520.27,-396C537.56,-396 557.76,-396 574.82,-396"/>
<polygon fill="black" stroke="black" points="574.98,-399.5 584.98,-396 574.98,-392.5 574.98,-399.5"/>
</g>
<!-- head_297 -->
<g id="node24" class="node">
<title>head_297</title>
<g id="a_node24"><a xlink:href="javascript:s=&quot;\(&quot;&#x27;base&#x27;,\ &quot;,\ &#x27;coords&#x27;,\ &#x27;z_arrow&#x27;,\ &#x27;head&#x27;\)\nCone&quot;; console.log(s); alert(s);" xlink:title="Cone">
<ellipse fill="none" stroke="black" cx="613.31" cy="-342" rx="27.9" ry="18"/>
<text text-anchor="middle" x="613.31" y="-338.3" font-family="Times New Roman,serif" font-size="14.00">head</text>
</a>
</g>
</g>
<!-- z_arrow_295&#45;&gt;head_297 -->
<g id="edge23" class="edge">
<title>z_arrow_295&#45;&gt;head_297</title>
<path fill="none" stroke="black" d="M510,-384.02C530.74,-375.5 558.58,-364.06 579.99,-355.27"/>
<polygon fill="black" stroke="black" points="581.4,-358.48 589.32,-351.44 578.74,-352 581.4,-358.48"/>
</g>
<!-- coords_303 -->
<g id="node30" class="node">
<title>coords_303</title>
<g id="a_node30"><a xlink:href="javascript:s=&quot;\(&quot;&#x27;base_hole&#x27;,\ &#x27;base&#x27;,\ &quot;,\ &#x27;coords&#x27;\)\nCoordinates&quot;; console.log(s); alert(s);" xlink:title="Coordinates">
<ellipse fill="none" stroke="black" cx="342.43" cy="-234" rx="36.29" ry="18"/>
<text text-anchor="middle" x="342.43" y="-230.3" font-family="Times New Roman,serif" font-size="14.00">coords</text>
</a>
</g>
</g>
<!-- 302&#45;&gt;coords_303 -->
<g id="edge29" class="edge">
<title>302&#45;&gt;coords_303</title>
<path fill="none" stroke="black" d="M206.48,-169.39C235.67,-183.37 277.43,-203.36 306.75,-217.39"/>
<polygon fill="black" stroke="black" points="305.26,-220.57 315.8,-221.73 308.29,-214.25 305.26,-220.57"/>
</g>
<!-- x_314 -->
<g id="node41" class="node">
<title>x_314</title>
<g id="a_node41"><a xlink:href="javascript:s=&quot;\(&quot;&#x27;base_hole&#x27;,\ &#x27;base&#x27;,\ &quot;,\ &#x27;x&#x27;\)\nText&quot;; console.log(s); alert(s);" xlink:title="Text">
<ellipse fill="none" stroke="black" cx="342.43" cy="-180" rx="27" ry="18"/>
<text text-anchor="middle" x="342.43" y="-176.3" font-family="Times New Roman,serif" font-size="14.00">x</text>
</a>
</g>
</g>
<!-- 302&#45;&gt;x_314 -->
<g id="edge40" class="edge">
<title>302&#45;&gt;x_314</title>
<path fill="none" stroke="black" d="M237.66,-163.44C260.83,-167.14 286.03,-171.16 305.79,-174.31"/>
<polygon fill="black" stroke="black" points="305.45,-177.8 315.88,-175.92 306.56,-170.89 305.45,-177.8"/>
</g>
<!-- y_315 -->
<g id="node42" class="node">
<title>y_315</title>
<g id="a_node42"><a xlink:href="javascript:s=&quot;\(&quot;&#x27;base_hole&#x27;,\ &#x27;base&#x27;,\ &quot;,\ &#x27;y&#x27;\)\nText&quot;; console.log(s); alert(s);" xlink:title="Text">
<ellipse fill="none" stroke="black" cx="342.43" cy="-126" rx="27" ry="18"/>
<text text-anchor="middle" x="342.43" y="-122.3" font-family="Times New Roman,serif" font-size="14.00">y</text>
</a>
</g>
</g>
<!-- 302&#45;&gt;y_315 -->
<g id="edge41" class="edge">
<title>302&#45;&gt;y_315</title>
<path fill="none" stroke="black" d="M237.66,-142.56C260.83,-138.86 286.03,-134.84 305.79,-131.69"/>
<polygon fill="black" stroke="black" points="306.56,-135.11 315.88,-130.08 305.45,-128.2 306.56,-135.11"/>
</g>
<!-- z_316 -->
<g id="node43" class="node">
<title>z_316</title>
<g id="a_node43"><a xlink:href="javascript:s=&quot;\(&quot;&#x27;base_hole&#x27;,\ &#x27;base&#x27;,\ &quot;,\ &#x27;z&#x27;\)\nText&quot;; console.log(s); alert(s);" xlink:title="Text">
<ellipse fill="none" stroke="black" cx="342.43" cy="-72" rx="27" ry="18"/>
<text text-anchor="middle" x="342.43" y="-68.3" font-family="Times New Roman,serif" font-size="14.00">z</text>
</a>
</g>
</g>
<!-- 302&#45;&gt;z_316 -->
<g id="edge42" class="edge">
<title>302&#45;&gt;z_316</title>
<path fill="none" stroke="black" d="M206.48,-136.61C237.02,-121.99 281.32,-100.78 310.73,-86.7"/>
<polygon fill="black" stroke="black" points="312.58,-89.69 320.09,-82.22 309.56,-83.38 312.58,-89.69"/>
</g>
<!-- label_317 -->
<g id="node44" class="node">
<title>label_317</title>
<g id="a_node44"><a xlink:href="javascript:s=&quot;\(&quot;&#x27;base_hole&#x27;,\ &#x27;base&#x27;,\ &quot;,\ &#x27;label&#x27;\)\nText&quot;; console.log(s); alert(s);" xlink:title="Text">
<ellipse fill="none" stroke="black" cx="342.43" cy="-18" rx="27.1" ry="18"/>
<text text-anchor="middle" x="342.43" y="-14.3" font-family="Times New Roman,serif" font-size="14.00">label</text>
</a>
</g>
</g>
<!-- 302&#45;&gt;label_317 -->
<g id="edge43" class="edge">
<title>302&#45;&gt;label_317</title>
<path fill="none" stroke="black" d="M188.29,-135.31C209.62,-112.49 249.2,-72.46 288.49,-45 295.2,-40.3 302.85,-35.92 310.21,-32.11"/>
<polygon fill="black" stroke="black" points="311.87,-35.19 319.27,-27.61 308.76,-28.92 311.87,-35.19"/>
</g>
<!-- origin_304 -->
<g id="node31" class="node">
<title>origin_304</title>
<g id="a_node31"><a xlink:href="javascript:s=&quot;\(&quot;&#x27;base_hole&#x27;,\ &#x27;base&#x27;,\ &quot;,\ &#x27;coords&#x27;,\ &#x27;origin&#x27;\)\nCoordinatesCage&quot;; console.log(s); alert(s);" xlink:title="CoordinatesCage">
<ellipse fill="none" stroke="black" cx="479.82" cy="-288" rx="31.4" ry="18"/>
<text text-anchor="middle" x="479.82" y="-284.3" font-family="Times New Roman,serif" font-size="14.00">origin</text>
</a>
</g>
</g>
<!-- coords_303&#45;&gt;origin_304 -->
<g id="edge30" class="edge">
<title>coords_303&#45;&gt;origin_304</title>
<path fill="none" stroke="black" d="M371.16,-245.06C392.18,-253.44 421.22,-265.03 443.85,-274.05"/>
<polygon fill="black" stroke="black" points="442.84,-277.42 453.42,-277.87 445.43,-270.91 442.84,-277.42"/>
</g>
<!-- x_arrow_305 -->
<g id="node32" class="node">
<title>x_arrow_305</title>
<g id="a_node32"><a xlink:href="javascript:s=&quot;\(&quot;&#x27;base_hole&#x27;,\ &#x27;base&#x27;,\ &quot;,\ &#x27;coords&#x27;,\ &#x27;x_arrow&#x27;\)\nArrow&quot;; console.log(s); alert(s);" xlink:title="Arrow">
<ellipse fill="none" stroke="black" cx="479.82" cy="-234" rx="40.89" ry="18"/>
<text text-anchor="middle" x="479.82" y="-230.3" font-family="Times New Roman,serif" font-size="14.00">x_arrow</text>
</a>
</g>
</g>
<!-- coords_303&#45;&gt;x_arrow_305 -->
<g id="edge31" class="edge">
<title>coords_303&#45;&gt;x_arrow_305</title>
<path fill="none" stroke="black" d="M379,-234C394.19,-234 412.17,-234 428.67,-234"/>
<polygon fill="black" stroke="black" points="428.71,-237.5 438.71,-234 428.71,-230.5 428.71,-237.5"/>
</g>
<!-- y_arrow_308 -->
<g id="node35" class="node">
<title>y_arrow_308</title>
<g id="a_node35"><a xlink:href="javascript:s=&quot;\(&quot;&#x27;base_hole&#x27;,\ &#x27;base&#x27;,\ &quot;,\ &#x27;coords&#x27;,\ &#x27;y_arrow&#x27;\)\nArrow&quot;; console.log(s); alert(s);" xlink:title="Arrow">
<ellipse fill="none" stroke="black" cx="479.82" cy="-180" rx="40.89" ry="18"/>
<text text-anchor="middle" x="479.82" y="-176.3" font-family="Times New Roman,serif" font-size="14.00">y_arrow</text>
</a>
</g>
</g>
<!-- coords_303&#45;&gt;y_arrow_308 -->
<g id="edge34" class="edge">
<title>coords_303&#45;&gt;y_arrow_308</title>
<path fill="none" stroke="black" d="M371.16,-222.94C390.83,-215.09 417.53,-204.44 439.42,-195.72"/>
<polygon fill="black" stroke="black" points="440.79,-198.94 448.78,-191.98 438.2,-192.43 440.79,-198.94"/>
</g>
<!-- z_arrow_311 -->
<g id="node38" class="node">
<title>z_arrow_311</title>
<g id="a_node38"><a xlink:href="javascript:s=&quot;\(&quot;&#x27;base_hole&#x27;,\ &#x27;base&#x27;,\ &quot;,\ &#x27;coords&#x27;,\ &#x27;z_arrow&#x27;\)\nArrow&quot;; console.log(s); alert(s);" xlink:title="Arrow">
<ellipse fill="none" stroke="black" cx="479.82" cy="-72" rx="40.09" ry="18"/>
<text text-anchor="middle" x="479.82" y="-68.3" font-family="Times New Roman,serif" font-size="14.00">z_arrow</text>
</a>
</g>
</g>
<!-- coords_303&#45;&gt;z_arrow_311 -->
<g id="edge37" class="edge">
<title>coords_303&#45;&gt;z_arrow_311</title>
<path fill="none" stroke="black" d="M371.65,-223.16C380.23,-218.98 389.26,-213.59 396.38,-207 405.45,-198.59 442.61,-135.11 463.81,-98.27"/>
<polygon fill="black" stroke="black" points="466.89,-99.94 468.83,-89.53 460.82,-96.46 466.89,-99.94"/>
</g>
<!-- stem_306 -->
<g id="node33" class="node">
<title>stem_306</title>
<g id="a_node33"><a xlink:href="javascript:s=&quot;\(&quot;&#x27;base_hole&#x27;,\ &#x27;base&#x27;,\ &quot;,\ &#x27;coords&#x27;,\ &#x27;x_arrow&#x27;,\ &#x27;stem&#x27;\)\nCone&quot;; console.log(s); alert(s);" xlink:title="Cone">
<ellipse fill="none" stroke="black" cx="613.31" cy="-288" rx="27.9" ry="18"/>
<text text-anchor="middle" x="613.31" y="-284.3" font-family="Times New Roman,serif" font-size="14.00">stem</text>
</a>
</g>
</g>
<!-- x_arrow_305&#45;&gt;stem_306 -->
<g id="edge32" class="edge">
<title>x_arrow_305&#45;&gt;stem_306</title>
<path fill="none" stroke="black" d="M510.33,-246.12C531.08,-254.64 558.83,-266.04 580.15,-274.79"/>
<polygon fill="black" stroke="black" points="578.86,-278.05 589.44,-278.61 581.52,-271.57 578.86,-278.05"/>
</g>
<!-- head_307 -->
<g id="node34" class="node">
<title>head_307</title>
<g id="a_node34"><a xlink:href="javascript:s=&quot;\(&quot;&#x27;base_hole&#x27;,\ &#x27;base&#x27;,\ &quot;,\ &#x27;coords&#x27;,\ &#x27;x_arrow&#x27;,\ &#x27;head&#x27;\)\nCone&quot;; console.log(s); alert(s);" xlink:title="Cone">
<ellipse fill="none" stroke="black" cx="613.31" cy="-234" rx="27.9" ry="18"/>
<text text-anchor="middle" x="613.31" y="-230.3" font-family="Times New Roman,serif" font-size="14.00">head</text>
</a>
</g>
</g>
<!-- x_arrow_305&#45;&gt;head_307 -->
<g id="edge33" class="edge">
<title>x_arrow_305&#45;&gt;head_307</title>
<path fill="none" stroke="black" d="M520.99,-234C538.25,-234 558.3,-234 575.21,-234"/>
<polygon fill="black" stroke="black" points="575.28,-237.5 585.28,-234 575.28,-230.5 575.28,-237.5"/>
</g>
<!-- stem_309 -->
<g id="node36" class="node">
<title>stem_309</title>
<g id="a_node36"><a xlink:href="javascript:s=&quot;\(&quot;&#x27;base_hole&#x27;,\ &#x27;base&#x27;,\ &quot;,\ &#x27;coords&#x27;,\ &#x27;y_arrow&#x27;,\ &#x27;stem&#x27;\)\nCone&quot;; console.log(s); alert(s);" xlink:title="Cone">
<ellipse fill="none" stroke="black" cx="613.31" cy="-180" rx="27.9" ry="18"/>
<text text-anchor="middle" x="613.31" y="-176.3" font-family="Times New Roman,serif" font-size="14.00">stem</text>
</a>
</g>
</g>
<!-- y_arrow_308&#45;&gt;stem_309 -->
<g id="edge35" class="edge">
<title>y_arrow_308&#45;&gt;stem_309</title>
<path fill="none" stroke="black" d="M520.99,-180C538.25,-180 558.3,-180 575.21,-180"/>
<polygon fill="black" stroke="black" points="575.28,-183.5 585.28,-180 575.28,-176.5 575.28,-183.5"/>
</g>
<!-- head_310 -->
<g id="node37" class="node">
<title>head_310</title>
<g id="a_node37"><a xlink:href="javascript:s=&quot;\(&quot;&#x27;base_hole&#x27;,\ &#x27;base&#x27;,\ &quot;,\ &#x27;coords&#x27;,\ &#x27;y_arrow&#x27;,\ &#x27;head&#x27;\)\nCone&quot;; console.log(s); alert(s);" xlink:title="Cone">
<ellipse fill="none" stroke="black" cx="613.31" cy="-126" rx="27.9" ry="18"/>
<text text-anchor="middle" x="613.31" y="-122.3" font-family="Times New Roman,serif" font-size="14.00">head</text>
</a>
</g>
</g>
<!-- y_arrow_308&#45;&gt;head_310 -->
<g id="edge36" class="edge">
<title>y_arrow_308&#45;&gt;head_310</title>
<path fill="none" stroke="black" d="M510.33,-167.88C531.08,-159.36 558.83,-147.96 580.15,-139.21"/>
<polygon fill="black" stroke="black" points="581.52,-142.43 589.44,-135.39 578.86,-135.95 581.52,-142.43"/>
</g>
<!-- stem_312 -->
<g id="node39" class="node">
<title>stem_312</title>
<g id="a_node39"><a xlink:href="javascript:s=&quot;\(&quot;&#x27;base_hole&#x27;,\ &#x27;base&#x27;,\ &quot;,\ &#x27;coords&#x27;,\ &#x27;z_arrow&#x27;,\ &#x27;stem&#x27;\)\nCone&quot;; console.log(s); alert(s);" xlink:title="Cone">
<ellipse fill="none" stroke="black" cx="613.31" cy="-72" rx="27.9" ry="18"/>
<text text-anchor="middle" x="613.31" y="-68.3" font-family="Times New Roman,serif" font-size="14.00">stem</text>
</a>
</g>
</g>
<!-- z_arrow_311&#45;&gt;stem_312 -->
<g id="edge38" class="edge">
<title>z_arrow_311&#45;&gt;stem_312</title>
<path fill="none" stroke="black" d="M520.27,-72C537.56,-72 557.76,-72 574.82,-72"/>
<polygon fill="black" stroke="black" points="574.98,-75.5 584.98,-72 574.98,-68.5 574.98,-75.5"/>
</g>
<!-- head_313 -->
<g id="node40" class="node">
<title>head_313</title>
<g id="a_node40"><a xlink:href="javascript:s=&quot;\(&quot;&#x27;base_hole&#x27;,\ &#x27;base&#x27;,\ &quot;,\ &#x27;coords&#x27;,\ &#x27;z_arrow&#x27;,\ &#x27;head&#x27;\)\nCone&quot;; console.log(s); alert(s);" xlink:title="Cone">
<ellipse fill="none" stroke="black" cx="613.31" cy="-18" rx="27.9" ry="18"/>
<text text-anchor="middle" x="613.31" y="-14.3" font-family="Times New Roman,serif" font-size="14.00">head</text>
</a>
</g>
</g>
<!-- z_arrow_311&#45;&gt;head_313 -->
<g id="edge39" class="edge">
<title>z_arrow_311&#45;&gt;head_313</title>
<path fill="none" stroke="black" d="M510,-60.02C530.74,-51.5 558.58,-40.06 579.99,-31.27"/>
<polygon fill="black" stroke="black" points="581.4,-34.48 589.32,-27.44 578.74,-28 581.4,-34.48"/>
</g>
</g>
</svg>
