<?xml version="1.0" encoding="UTF-8" standalone="no"?>
<!DOCTYPE svg PUBLIC "-//W3C//DTD SVG 1.1//EN"
 "http://www.w3.org/Graphics/SVG/1.1/DTD/svg11.dtd">
<!-- Generated by graphviz version 5.0.0 (20220707.1540)
 -->
<!-- Title: default Pages: 1 -->
<svg width="571pt" height="206pt"
 viewBox="0.00 0.00 571.27 206.00" xmlns="http://www.w3.org/2000/svg" xmlns:xlink="http://www.w3.org/1999/xlink">
<g id="graph0" class="graph" transform="scale(1 1) rotate(0) translate(4 202)">
<title>default</title>
<polygon fill="white" stroke="transparent" points="-4,4 -4,-202 567.27,-202 567.27,4 -4,4"/>
<!-- root_318 -->
<g id="node1" class="node">
<title>root_318</title>
<g id="a_node1"><a xlink:href="javascript:s=&quot;\(\)\nNone&quot;; console.log(s); alert(s);" xlink:title="root">
<ellipse fill="none" stroke="black" cx="27" cy="-99" rx="27" ry="18"/>
<text text-anchor="middle" x="27" y="-95.3" font-family="Times New Roman,serif" font-size="14.00">root</text>
</a>
</g>
</g>
<!-- default_319 -->
<g id="node2" class="node">
<title>default_319</title>
<g id="a_node2"><a xlink:href="javascript:s=&quot;\(&#x27;default&#x27;,\)\nHingeBar3XMiddleHole&quot;; console.log(s); alert(s);" xlink:title="HingeBar3XMiddleHole">
<ellipse fill="none" stroke="black" cx="125.1" cy="-99" rx="35.19" ry="18"/>
<text text-anchor="middle" x="125.1" y="-95.3" font-family="Times New Roman,serif" font-size="14.00">default</text>
</a>
</g>
</g>
<!-- root_318&#45;&gt;default_319 -->
<g id="edge1" class="edge">
<title>root_318&#45;&gt;default_319</title>
<path fill="none" stroke="black" d="M54.01,-99C61.92,-99 70.84,-99 79.61,-99"/>
<polygon fill="black" stroke="black" points="79.76,-102.5 89.76,-99 79.76,-95.5 79.76,-102.5"/>
</g>
<!-- cage_320 -->
<g id="node3" class="node">
<title>cage_320</title>
<g id="a_node3"><a xlink:href="javascript:s=&quot;\(&#x27;default&#x27;,\ &#x27;cage&#x27;\)\nHingeBar3X&quot;; console.log(s); alert(s);" xlink:title="HingeBar3X">
<ellipse fill="none" stroke="black" cx="246.24" cy="-126" rx="27.1" ry="18"/>
<text text-anchor="middle" x="246.24" y="-122.3" font-family="Times New Roman,serif" font-size="14.00">cage</text>
</a>
</g>
</g>
<!-- default_319&#45;&gt;cage_320 -->
<g id="edge2" class="edge">
<title>default_319&#45;&gt;cage_320</title>
<path fill="none" stroke="black" d="M157.4,-106.09C173.62,-109.77 193.47,-114.27 210.19,-118.06"/>
<polygon fill="black" stroke="black" points="209.62,-121.52 220.15,-120.31 211.17,-114.69 209.62,-121.52"/>
</g>
<!-- top_sleeve_328 -->
<g id="node11" class="node">
<title>top_sleeve_328</title>
<g id="a_node11"><a xlink:href="javascript:s=&quot;\(&#x27;default&#x27;,\ &#x27;top_sleeve&#x27;\)\nCylinder&quot;; console.log(s); alert(s);" xlink:title="Cylinder">
<ellipse fill="none" stroke="black" cx="246.24" cy="-72" rx="50.09" ry="18"/>
<text text-anchor="middle" x="246.24" y="-68.3" font-family="Times New Roman,serif" font-size="14.00">top_sleeve</text>
</a>
</g>
</g>
<!-- default_319&#45;&gt;top_sleeve_328 -->
<g id="edge10" class="edge">
<title>default_319&#45;&gt;top_sleeve_328</title>
<path fill="none" stroke="black" d="M157.4,-91.91C168.5,-89.39 181.3,-86.49 193.64,-83.69"/>
<polygon fill="black" stroke="black" points="194.41,-87.11 203.39,-81.48 192.86,-80.28 194.41,-87.11"/>
</g>
<!-- bar_321 -->
<g id="node4" class="node">
<title>bar_321</title>
<g id="a_node4"><a xlink:href="javascript:s=&quot;\(&#x27;default&#x27;,\ &#x27;cage&#x27;,\ &#x27;bar&#x27;\)\nCylinder&quot;; console.log(s); alert(s);" xlink:title="Cylinder">
<ellipse fill="none" stroke="black" cx="379.73" cy="-180" rx="27" ry="18"/>
<text text-anchor="middle" x="379.73" y="-176.3" font-family="Times New Roman,serif" font-size="14.00">bar</text>
</a>
</g>
</g>
<!-- cage_320&#45;&gt;bar_321 -->
<g id="edge3" class="edge">
<title>cage_320&#45;&gt;bar_321</title>
<path fill="none" stroke="black" d="M269.84,-135.28C291.14,-144.03 323.25,-157.22 347.09,-167.01"/>
<polygon fill="black" stroke="black" points="345.84,-170.28 356.42,-170.84 348.5,-163.8 345.84,-170.28"/>
</g>
<!-- top_hole_322 -->
<g id="node5" class="node">
<title>top_hole_322</title>
<g id="a_node5"><a xlink:href="javascript:s=&quot;\(&#x27;default&#x27;,\ &#x27;cage&#x27;,\ &#x27;top_hole&#x27;\)\nHingeHole&quot;; console.log(s); alert(s);" xlink:title="HingeHole">
<ellipse fill="none" stroke="black" cx="379.73" cy="-126" rx="42.79" ry="18"/>
<text text-anchor="middle" x="379.73" y="-122.3" font-family="Times New Roman,serif" font-size="14.00">top_hole</text>
</a>
</g>
</g>
<!-- cage_320&#45;&gt;top_hole_322 -->
<g id="edge4" class="edge">
<title>cage_320&#45;&gt;top_hole_322</title>
<path fill="none" stroke="black" d="M273.85,-126C288.97,-126 308.45,-126 326.5,-126"/>
<polygon fill="black" stroke="black" points="326.63,-129.5 336.63,-126 326.63,-122.5 326.63,-129.5"/>
</g>
<!-- base_hole_325 -->
<g id="node8" class="node">
<title>base_hole_325</title>
<g id="a_node8"><a xlink:href="javascript:s=&quot;\(&#x27;default&#x27;,\ &#x27;cage&#x27;,\ &#x27;base_hole&#x27;\)\nHingeHole&quot;; console.log(s); alert(s);" xlink:title="HingeHole">
<ellipse fill="none" stroke="black" cx="379.73" cy="-72" rx="47.39" ry="18"/>
<text text-anchor="middle" x="379.73" y="-68.3" font-family="Times New Roman,serif" font-size="14.00">base_hole</text>
</a>
</g>
</g>
<!-- cage_320&#45;&gt;base_hole_325 -->
<g id="edge7" class="edge">
<title>cage_320&#45;&gt;base_hole_325</title>
<path fill="none" stroke="black" d="M269.84,-116.72C288.35,-109.12 315.01,-98.17 337.33,-89"/>
<polygon fill="black" stroke="black" points="338.66,-92.24 346.59,-85.2 336.01,-85.76 338.66,-92.24"/>
</g>
<!-- cage_323 -->
<g id="node6" class="node">
<title>cage_323</title>
<g id="a_node6"><a xlink:href="javascript:s=&quot;\(&#x27;default&#x27;,\ &#x27;cage&#x27;,\ &#x27;top_hole&#x27;,\ &#x27;cage&#x27;\)\nCylinder&quot;; console.log(s); alert(s);" xlink:title="Cylinder">
<ellipse fill="none" stroke="black" cx="513.22" cy="-180" rx="27.1" ry="18"/>
<text text-anchor="middle" x="513.22" y="-176.3" font-family="Times New Roman,serif" font-size="14.00">cage</text>
</a>
</g>
</g>
<!-- top_hole_322&#45;&gt;cage_323 -->
<g id="edge5" class="edge">
<title>top_hole_322&#45;&gt;cage_323</title>
<path fill="none" stroke="black" d="M410.9,-138.39C431.58,-146.88 458.99,-158.14 480.08,-166.8"/>
<polygon fill="black" stroke="black" points="479,-170.14 489.58,-170.7 481.66,-163.66 479,-170.14"/>
</g>
<!-- hinge_hole_324 -->
<g id="node7" class="node">
<title>hinge_hole_324</title>
<g id="a_node7"><a xlink:href="javascript:s=&quot;\(&#x27;default&#x27;,\ &#x27;cage&#x27;,\ &#x27;top_hole&#x27;,\ &#x27;hinge_hole&#x27;\)\nRotateExtrude&quot;; console.log(s); alert(s);" xlink:title="RotateExtrude">
<ellipse fill="none" stroke="black" cx="513.22" cy="-126" rx="50.09" ry="18"/>
<text text-anchor="middle" x="513.22" y="-122.3" font-family="Times New Roman,serif" font-size="14.00">hinge_hole</text>
</a>
</g>
</g>
<!-- top_hole_322&#45;&gt;hinge_hole_324 -->
<g id="edge6" class="edge">
<title>top_hole_322&#45;&gt;hinge_hole_324</title>
<path fill="none" stroke="black" d="M422.7,-126C432.28,-126 442.64,-126 452.8,-126"/>
<polygon fill="black" stroke="black" points="452.85,-129.5 462.85,-126 452.85,-122.5 452.85,-129.5"/>
</g>
<!-- cage_326 -->
<g id="node9" class="node">
<title>cage_326</title>
<g id="a_node9"><a xlink:href="javascript:s=&quot;\(&#x27;default&#x27;,\ &#x27;cage&#x27;,\ &#x27;base_hole&#x27;,\ &#x27;cage&#x27;\)\nCylinder&quot;; console.log(s); alert(s);" xlink:title="Cylinder">
<ellipse fill="none" stroke="black" cx="513.22" cy="-72" rx="27.1" ry="18"/>
<text text-anchor="middle" x="513.22" y="-68.3" font-family="Times New Roman,serif" font-size="14.00">cage</text>
</a>
</g>
</g>
<!-- base_hole_325&#45;&gt;cage_326 -->
<g id="edge8" class="edge">
<title>base_hole_325&#45;&gt;cage_326</title>
<path fill="none" stroke="black" d="M427.46,-72C443.26,-72 460.66,-72 475.57,-72"/>
<polygon fill="black" stroke="black" points="475.92,-75.5 485.92,-72 475.92,-68.5 475.92,-75.5"/>
</g>
<!-- hinge_hole_327 -->
<g id="node10" class="node">
<title>hinge_hole_327</title>
<g id="a_node10"><a xlink:href="javascript:s=&quot;\(&#x27;default&#x27;,\ &#x27;cage&#x27;,\ &#x27;base_hole&#x27;,\ &#x27;hinge_hole&#x27;\)\nRotateExtrude&quot;; console.log(s); alert(s);" xlink:title="RotateExtrude">
<ellipse fill="none" stroke="black" cx="513.22" cy="-18" rx="50.09" ry="18"/>
<text text-anchor="middle" x="513.22" y="-14.3" font-family="Times New Roman,serif" font-size="14.00">hinge_hole</text>
</a>
</g>
</g>
<!-- base_hole_325&#45;&gt;hinge_hole_327 -->
<g id="edge9" class="edge">
<title>base_hole_325&#45;&gt;hinge_hole_327</title>
<path fill="none" stroke="black" d="M412.56,-58.93C429.78,-51.86 451.27,-43.03 469.88,-35.39"/>
<polygon fill="black" stroke="black" points="471.39,-38.55 479.31,-31.52 468.73,-32.08 471.39,-38.55"/>
</g>
</g>
</svg>
