<?xml version="1.0" encoding="UTF-8" standalone="no"?>
<!DOCTYPE svg PUBLIC "-//W3C//DTD SVG 1.1//EN"
 "http://www.w3.org/Graphics/SVG/1.1/DTD/svg11.dtd">
<!-- Generated by graphviz version 5.0.0 (20220707.1540)
 -->
<!-- Title: default Pages: 1 -->
<svg width="435pt" height="206pt"
 viewBox="0.00 0.00 435.18 206.00" xmlns="http://www.w3.org/2000/svg" xmlns:xlink="http://www.w3.org/1999/xlink">
<g id="graph0" class="graph" transform="scale(1 1) rotate(0) translate(4 202)">
<title>default</title>
<polygon fill="white" stroke="transparent" points="-4,4 -4,-202 431.18,-202 431.18,4 -4,4"/>
<!-- root_265 -->
<g id="node1" class="node">
<title>root_265</title>
<g id="a_node1"><a xlink:href="javascript:s=&quot;\(\)\nNone&quot;; console.log(s); alert(s);" xlink:title="root">
<ellipse fill="none" stroke="black" cx="27" cy="-126" rx="27" ry="18"/>
<text text-anchor="middle" x="27" y="-122.3" font-family="Times New Roman,serif" font-size="14.00">root</text>
</a>
</g>
</g>
<!-- default_266 -->
<g id="node2" class="node">
<title>default_266</title>
<g id="a_node2"><a xlink:href="javascript:s=&quot;\(&#x27;default&#x27;,\)\nHingeBar3X&quot;; console.log(s); alert(s);" xlink:title="HingeBar3X">
<ellipse fill="none" stroke="black" cx="125.1" cy="-126" rx="35.19" ry="18"/>
<text text-anchor="middle" x="125.1" y="-122.3" font-family="Times New Roman,serif" font-size="14.00">default</text>
</a>
</g>
</g>
<!-- root_265&#45;&gt;default_266 -->
<g id="edge1" class="edge">
<title>root_265&#45;&gt;default_266</title>
<path fill="none" stroke="black" d="M54.01,-126C61.92,-126 70.84,-126 79.61,-126"/>
<polygon fill="black" stroke="black" points="79.76,-129.5 89.76,-126 79.76,-122.5 79.76,-129.5"/>
</g>
<!-- bar_267 -->
<g id="node3" class="node">
<title>bar_267</title>
<g id="a_node3"><a xlink:href="javascript:s=&quot;\(&#x27;default&#x27;,\ &#x27;bar&#x27;\)\nCylinder&quot;; console.log(s); alert(s);" xlink:title="Cylinder">
<ellipse fill="none" stroke="black" cx="243.64" cy="-180" rx="27" ry="18"/>
<text text-anchor="middle" x="243.64" y="-176.3" font-family="Times New Roman,serif" font-size="14.00">bar</text>
</a>
</g>
</g>
<!-- default_266&#45;&gt;bar_267 -->
<g id="edge2" class="edge">
<title>default_266&#45;&gt;bar_267</title>
<path fill="none" stroke="black" d="M151.67,-137.85C169.36,-146.05 192.99,-157 211.73,-165.68"/>
<polygon fill="black" stroke="black" points="210.49,-168.96 221.03,-169.99 213.43,-162.61 210.49,-168.96"/>
</g>
<!-- top_hole_268 -->
<g id="node4" class="node">
<title>top_hole_268</title>
<g id="a_node4"><a xlink:href="javascript:s=&quot;\(&#x27;default&#x27;,\ &#x27;top_hole&#x27;\)\nHingeHole&quot;; console.log(s); alert(s);" xlink:title="HingeHole">
<ellipse fill="none" stroke="black" cx="243.64" cy="-126" rx="42.79" ry="18"/>
<text text-anchor="middle" x="243.64" y="-122.3" font-family="Times New Roman,serif" font-size="14.00">top_hole</text>
</a>
</g>
</g>
<!-- default_266&#45;&gt;top_hole_268 -->
<g id="edge3" class="edge">
<title>default_266&#45;&gt;top_hole_268</title>
<path fill="none" stroke="black" d="M160.43,-126C169.9,-126 180.39,-126 190.62,-126"/>
<polygon fill="black" stroke="black" points="190.71,-129.5 200.71,-126 190.71,-122.5 190.71,-129.5"/>
</g>
<!-- base_hole_271 -->
<g id="node7" class="node">
<title>base_hole_271</title>
<g id="a_node7"><a xlink:href="javascript:s=&quot;\(&#x27;default&#x27;,\ &#x27;base_hole&#x27;\)\nHingeHole&quot;; console.log(s); alert(s);" xlink:title="HingeHole">
<ellipse fill="none" stroke="black" cx="243.64" cy="-72" rx="47.39" ry="18"/>
<text text-anchor="middle" x="243.64" y="-68.3" font-family="Times New Roman,serif" font-size="14.00">base_hole</text>
</a>
</g>
</g>
<!-- default_266&#45;&gt;base_hole_271 -->
<g id="edge6" class="edge">
<title>default_266&#45;&gt;base_hole_271</title>
<path fill="none" stroke="black" d="M151.67,-114.15C166.82,-107.13 186.34,-98.09 203.4,-90.18"/>
<polygon fill="black" stroke="black" points="204.98,-93.3 212.59,-85.92 202.04,-86.95 204.98,-93.3"/>
</g>
<!-- cage_269 -->
<g id="node5" class="node">
<title>cage_269</title>
<g id="a_node5"><a xlink:href="javascript:s=&quot;\(&#x27;default&#x27;,\ &#x27;top_hole&#x27;,\ &#x27;cage&#x27;\)\nCylinder&quot;; console.log(s); alert(s);" xlink:title="Cylinder">
<ellipse fill="none" stroke="black" cx="377.13" cy="-180" rx="27.1" ry="18"/>
<text text-anchor="middle" x="377.13" y="-176.3" font-family="Times New Roman,serif" font-size="14.00">cage</text>
</a>
</g>
</g>
<!-- top_hole_268&#45;&gt;cage_269 -->
<g id="edge4" class="edge">
<title>top_hole_268&#45;&gt;cage_269</title>
<path fill="none" stroke="black" d="M274.81,-138.39C295.49,-146.88 322.9,-158.14 343.99,-166.8"/>
<polygon fill="black" stroke="black" points="342.91,-170.14 353.49,-170.7 345.57,-163.66 342.91,-170.14"/>
</g>
<!-- hinge_hole_270 -->
<g id="node6" class="node">
<title>hinge_hole_270</title>
<g id="a_node6"><a xlink:href="javascript:s=&quot;\(&#x27;default&#x27;,\ &#x27;top_hole&#x27;,\ &#x27;hinge_hole&#x27;\)\nRotateExtrude&quot;; console.log(s); alert(s);" xlink:title="RotateExtrude">
<ellipse fill="none" stroke="black" cx="377.13" cy="-126" rx="50.09" ry="18"/>
<text text-anchor="middle" x="377.13" y="-122.3" font-family="Times New Roman,serif" font-size="14.00">hinge_hole</text>
</a>
</g>
</g>
<!-- top_hole_268&#45;&gt;hinge_hole_270 -->
<g id="edge5" class="edge">
<title>top_hole_268&#45;&gt;hinge_hole_270</title>
<path fill="none" stroke="black" d="M286.61,-126C296.19,-126 306.55,-126 316.71,-126"/>
<polygon fill="black" stroke="black" points="316.76,-129.5 326.76,-126 316.76,-122.5 316.76,-129.5"/>
</g>
<!-- cage_272 -->
<g id="node8" class="node">
<title>cage_272</title>
<g id="a_node8"><a xlink:href="javascript:s=&quot;\(&#x27;default&#x27;,\ &#x27;base_hole&#x27;,\ &#x27;cage&#x27;\)\nCylinder&quot;; console.log(s); alert(s);" xlink:title="Cylinder">
<ellipse fill="none" stroke="black" cx="377.13" cy="-72" rx="27.1" ry="18"/>
<text text-anchor="middle" x="377.13" y="-68.3" font-family="Times New Roman,serif" font-size="14.00">cage</text>
</a>
</g>
</g>
<!-- base_hole_271&#45;&gt;cage_272 -->
<g id="edge7" class="edge">
<title>base_hole_271&#45;&gt;cage_272</title>
<path fill="none" stroke="black" d="M291.37,-72C307.17,-72 324.57,-72 339.48,-72"/>
<polygon fill="black" stroke="black" points="339.83,-75.5 349.83,-72 339.83,-68.5 339.83,-75.5"/>
</g>
<!-- hinge_hole_273 -->
<g id="node9" class="node">
<title>hinge_hole_273</title>
<g id="a_node9"><a xlink:href="javascript:s=&quot;\(&#x27;default&#x27;,\ &#x27;base_hole&#x27;,\ &#x27;hinge_hole&#x27;\)\nRotateExtrude&quot;; console.log(s); alert(s);" xlink:title="RotateExtrude">
<ellipse fill="none" stroke="black" cx="377.13" cy="-18" rx="50.09" ry="18"/>
<text text-anchor="middle" x="377.13" y="-14.3" font-family="Times New Roman,serif" font-size="14.00">hinge_hole</text>
</a>
</g>
</g>
<!-- base_hole_271&#45;&gt;hinge_hole_273 -->
<g id="edge8" class="edge">
<title>base_hole_271&#45;&gt;hinge_hole_273</title>
<path fill="none" stroke="black" d="M276.47,-58.93C293.69,-51.86 315.18,-43.03 333.79,-35.39"/>
<polygon fill="black" stroke="black" points="335.3,-38.55 343.22,-31.52 332.64,-32.08 335.3,-38.55"/>
</g>
</g>
</svg>
