<?xml version="1.0" encoding="UTF-8" standalone="no"?>
<!DOCTYPE svg PUBLIC "-//W3C//DTD SVG 1.1//EN"
 "http://www.w3.org/Graphics/SVG/1.1/DTD/svg11.dtd">
<!-- Generated by graphviz version 5.0.0 (20220707.1540)
 -->
<!-- Title: default Pages: 1 -->
<svg width="849pt" height="550pt"
 viewBox="0.00 0.00 848.65 550.00" xmlns="http://www.w3.org/2000/svg" xmlns:xlink="http://www.w3.org/1999/xlink">
<g id="graph0" class="graph" transform="scale(1 1) rotate(0) translate(4 546)">
<title>default</title>
<polygon fill="white" stroke="transparent" points="-4,4 -4,-546 844.65,-546 844.65,4 -4,4"/>
<!-- root_205 -->
<g id="node1" class="node">
<title>root_205</title>
<g id="a_node1"><a xlink:href="javascript:s=&quot;\(\)\nNone&quot;; console.log(s); alert(s);" xlink:title="root">
<ellipse fill="none" stroke="black" cx="27" cy="-355" rx="27" ry="18"/>
<text text-anchor="middle" x="27" y="-351.3" font-family="Times New Roman,serif" font-size="14.00">root</text>
</a>
</g>
</g>
<!-- default_206 -->
<g id="node2" class="node">
<title>default_206</title>
<g id="a_node2"><a xlink:href="javascript:s=&quot;\(&#x27;default&#x27;,\)\nHinge3XTestPrint&quot;; console.log(s); alert(s);" xlink:title="Hinge3XTestPrint">
<ellipse fill="none" stroke="black" cx="125.1" cy="-355" rx="35.19" ry="18"/>
<text text-anchor="middle" x="125.1" y="-351.3" font-family="Times New Roman,serif" font-size="14.00">default</text>
</a>
</g>
</g>
<!-- root_205&#45;&gt;default_206 -->
<g id="edge1" class="edge">
<title>root_205&#45;&gt;default_206</title>
<path fill="none" stroke="black" d="M54.01,-355C61.92,-355 70.84,-355 79.61,-355"/>
<polygon fill="black" stroke="black" points="79.76,-358.5 89.76,-355 79.76,-351.5 79.76,-358.5"/>
</g>
<!-- cage_207 -->
<g id="node3" class="node">
<title>cage_207</title>
<g id="a_node3"><a xlink:href="javascript:s=&quot;\(&#x27;default&#x27;,\ &#x27;cage&#x27;\)\nBox&quot;; console.log(s); alert(s);" xlink:title="Box">
<ellipse fill="none" stroke="black" cx="233.24" cy="-436" rx="27.1" ry="18"/>
<text text-anchor="middle" x="233.24" y="-432.3" font-family="Times New Roman,serif" font-size="14.00">cage</text>
</a>
</g>
</g>
<!-- default_206&#45;&gt;cage_207 -->
<g id="edge2" class="edge">
<title>default_206&#45;&gt;cage_207</title>
<path fill="none" stroke="black" d="M145.38,-369.97C159.43,-380.85 178.95,-395.9 196.19,-409 199.39,-411.43 202.76,-413.97 206.1,-416.49"/>
<polygon fill="black" stroke="black" points="204.14,-419.39 214.24,-422.59 208.34,-413.79 204.14,-419.39"/>
</g>
<!-- plate_1_208 -->
<g id="node4" class="node">
<title>plate_1_208</title>
<g id="a_node4"><a xlink:href="javascript:s=&quot;\(&#x27;default&#x27;,\ &#x27;plate_1&#x27;\)\nMaker&quot;; console.log(s); alert(s);" xlink:title="Maker">
<ellipse fill="none" stroke="black" cx="233.24" cy="-382" rx="37.09" ry="18"/>
<text text-anchor="middle" x="233.24" y="-378.3" font-family="Times New Roman,serif" font-size="14.00">plate_1</text>
</a>
</g>
</g>
<!-- default_206&#45;&gt;plate_1_208 -->
<g id="edge3" class="edge">
<title>default_206&#45;&gt;plate_1_208</title>
<path fill="none" stroke="black" d="M156.8,-362.81C167.2,-365.46 179.02,-368.46 190.15,-371.29"/>
<polygon fill="black" stroke="black" points="189.58,-374.76 200.13,-373.83 191.3,-367.97 189.58,-374.76"/>
</g>
<!-- plate_2_221 -->
<g id="node17" class="node">
<title>plate_2_221</title>
<g id="a_node17"><a xlink:href="javascript:s=&quot;\(&#x27;default&#x27;,\ &#x27;plate_2&#x27;\)\nMaker&quot;; console.log(s); alert(s);" xlink:title="Maker">
<ellipse fill="none" stroke="black" cx="233.24" cy="-328" rx="37.09" ry="18"/>
<text text-anchor="middle" x="233.24" y="-324.3" font-family="Times New Roman,serif" font-size="14.00">plate_2</text>
</a>
</g>
</g>
<!-- default_206&#45;&gt;plate_2_221 -->
<g id="edge16" class="edge">
<title>default_206&#45;&gt;plate_2_221</title>
<path fill="none" stroke="black" d="M156.8,-347.19C167.2,-344.54 179.02,-341.54 190.15,-338.71"/>
<polygon fill="black" stroke="black" points="191.3,-342.03 200.13,-336.17 189.58,-335.24 191.3,-342.03"/>
</g>
<!-- bar_233 -->
<g id="node29" class="node">
<title>bar_233</title>
<g id="a_node29"><a xlink:href="javascript:s=&quot;\(&#x27;default&#x27;,\ &#x27;bar&#x27;\)\nHingeBar3X&quot;; console.log(s); alert(s);" xlink:title="HingeBar3X">
<ellipse fill="none" stroke="black" cx="233.24" cy="-180" rx="27" ry="18"/>
<text text-anchor="middle" x="233.24" y="-176.3" font-family="Times New Roman,serif" font-size="14.00">bar</text>
</a>
</g>
</g>
<!-- default_206&#45;&gt;bar_233 -->
<g id="edge28" class="edge">
<title>default_206&#45;&gt;bar_233</title>
<path fill="none" stroke="black" d="M136.47,-337.9C155.19,-307.03 194.73,-241.84 216.7,-205.62"/>
<polygon fill="black" stroke="black" points="219.95,-207.02 222.14,-196.65 213.96,-203.39 219.95,-207.02"/>
</g>
<!-- plate_1_209 -->
<g id="node5" class="node">
<title>plate_1_209</title>
<g id="a_node5"><a xlink:href="javascript:s=&quot;\(&#x27;default&#x27;,\ &#x27;plate_1&#x27;,\ &#x27;plate_1&#x27;\)\nBox&quot;; console.log(s); alert(s);" xlink:title="Box">
<ellipse fill="none" stroke="black" cx="368.03" cy="-436" rx="37.09" ry="18"/>
<text text-anchor="middle" x="368.03" y="-432.3" font-family="Times New Roman,serif" font-size="14.00">plate_1</text>
</a>
</g>
</g>
<!-- plate_1_208&#45;&gt;plate_1_209 -->
<g id="edge4" class="edge">
<title>plate_1_208&#45;&gt;plate_1_209</title>
<path fill="none" stroke="black" d="M262.08,-393.32C281.6,-401.26 307.93,-411.96 329.33,-420.67"/>
<polygon fill="black" stroke="black" points="328.19,-423.98 338.77,-424.51 330.83,-417.5 328.19,-423.98"/>
</g>
<!-- sleeve_ends_210 -->
<g id="node6" class="node">
<title>sleeve_ends_210</title>
<g id="a_node6"><a xlink:href="javascript:s=&quot;\(&#x27;default&#x27;,\ &#x27;plate_1&#x27;,\ &#x27;sleeve_ends&#x27;\)\nHingeBar3XEndHoles&quot;; console.log(s); alert(s);" xlink:title="HingeBar3XEndHoles">
<ellipse fill="none" stroke="black" cx="368.03" cy="-382" rx="54.69" ry="18"/>
<text text-anchor="middle" x="368.03" y="-378.3" font-family="Times New Roman,serif" font-size="14.00">sleeve_ends</text>
</a>
</g>
</g>
<!-- plate_1_208&#45;&gt;sleeve_ends_210 -->
<g id="edge5" class="edge">
<title>plate_1_208&#45;&gt;sleeve_ends_210</title>
<path fill="none" stroke="black" d="M270.53,-382C280.64,-382 291.93,-382 303.13,-382"/>
<polygon fill="black" stroke="black" points="303.36,-385.5 313.36,-382 303.36,-378.5 303.36,-385.5"/>
</g>
<!-- cage_211 -->
<g id="node7" class="node">
<title>cage_211</title>
<g id="a_node7"><a xlink:href="javascript:s=&quot;\(&#x27;default&#x27;,\ &#x27;plate_1&#x27;,\ &#x27;sleeve_ends&#x27;,\ &#x27;cage&#x27;\)\nHingeBar3X&quot;; console.log(s); alert(s);" xlink:title="HingeBar3X">
<ellipse fill="none" stroke="black" cx="519.72" cy="-460" rx="27.1" ry="18"/>
<text text-anchor="middle" x="519.72" y="-456.3" font-family="Times New Roman,serif" font-size="14.00">cage</text>
</a>
</g>
</g>
<!-- sleeve_ends_210&#45;&gt;cage_211 -->
<g id="edge6" class="edge">
<title>sleeve_ends_210&#45;&gt;cage_211</title>
<path fill="none" stroke="black" d="M402.95,-395.86C411.82,-399.81 421.28,-404.33 429.78,-409 446.62,-418.27 449.18,-423.28 465.78,-433 472.85,-437.14 480.63,-441.32 488,-445.1"/>
<polygon fill="black" stroke="black" points="486.53,-448.28 497.03,-449.65 489.68,-442.03 486.53,-448.28"/>
</g>
<!-- top_sleeve_219 -->
<g id="node15" class="node">
<title>top_sleeve_219</title>
<g id="a_node15"><a xlink:href="javascript:s=&quot;\(&#x27;default&#x27;,\ &#x27;plate_1&#x27;,\ &#x27;sleeve_ends&#x27;,\ &#x27;top_sleeve&#x27;\)\nCylinder&quot;; console.log(s); alert(s);" xlink:title="Cylinder">
<ellipse fill="none" stroke="black" cx="519.72" cy="-406" rx="50.09" ry="18"/>
<text text-anchor="middle" x="519.72" y="-402.3" font-family="Times New Roman,serif" font-size="14.00">top_sleeve</text>
</a>
</g>
</g>
<!-- sleeve_ends_210&#45;&gt;top_sleeve_219 -->
<g id="edge14" class="edge">
<title>sleeve_ends_210&#45;&gt;top_sleeve_219</title>
<path fill="none" stroke="black" d="M417.63,-389.79C432.27,-392.14 448.44,-394.73 463.47,-397.14"/>
<polygon fill="black" stroke="black" points="463.23,-400.65 473.66,-398.78 464.34,-393.74 463.23,-400.65"/>
</g>
<!-- base_sleeve_220 -->
<g id="node16" class="node">
<title>base_sleeve_220</title>
<g id="a_node16"><a xlink:href="javascript:s=&quot;\(&#x27;default&#x27;,\ &#x27;plate_1&#x27;,\ &#x27;sleeve_ends&#x27;,\ &#x27;base_sleeve&#x27;\)\nCylinder&quot;; console.log(s); alert(s);" xlink:title="Cylinder">
<ellipse fill="none" stroke="black" cx="519.72" cy="-352" rx="53.89" ry="18"/>
<text text-anchor="middle" x="519.72" y="-348.3" font-family="Times New Roman,serif" font-size="14.00">base_sleeve</text>
</a>
</g>
</g>
<!-- sleeve_ends_210&#45;&gt;base_sleeve_220 -->
<g id="edge15" class="edge">
<title>sleeve_ends_210&#45;&gt;base_sleeve_220</title>
<path fill="none" stroke="black" d="M415.16,-372.75C430.25,-369.73 447.16,-366.34 462.87,-363.19"/>
<polygon fill="black" stroke="black" points="463.88,-366.56 473,-361.16 462.5,-359.7 463.88,-366.56"/>
</g>
<!-- bar_212 -->
<g id="node8" class="node">
<title>bar_212</title>
<g id="a_node8"><a xlink:href="javascript:s=&quot;\(&#x27;default&#x27;,\ &#x27;plate_1&#x27;,\ &#x27;sleeve_ends&#x27;,\ &#x27;cage&#x27;,\ &#x27;bar&#x27;\)\nCylinder&quot;; console.log(s); alert(s);" xlink:title="Cylinder">
<ellipse fill="none" stroke="black" cx="657.11" cy="-524" rx="27" ry="18"/>
<text text-anchor="middle" x="657.11" y="-520.3" font-family="Times New Roman,serif" font-size="14.00">bar</text>
</a>
</g>
</g>
<!-- cage_211&#45;&gt;bar_212 -->
<g id="edge7" class="edge">
<title>cage_211&#45;&gt;bar_212</title>
<path fill="none" stroke="black" d="M542.47,-470.28C564.88,-480.87 599.99,-497.47 625.26,-509.42"/>
<polygon fill="black" stroke="black" points="623.88,-512.63 634.41,-513.74 626.87,-506.3 623.88,-512.63"/>
</g>
<!-- top_hole_213 -->
<g id="node9" class="node">
<title>top_hole_213</title>
<g id="a_node9"><a xlink:href="javascript:s=&quot;\(&#x27;default&#x27;,\ &#x27;plate_1&#x27;,\ &#x27;sleeve_ends&#x27;,\ &#x27;cage&#x27;,\ &#x27;top_hole&#x27;\)\nHingeHole&quot;; console.log(s); alert(s);" xlink:title="HingeHole">
<ellipse fill="none" stroke="black" cx="657.11" cy="-470" rx="42.79" ry="18"/>
<text text-anchor="middle" x="657.11" y="-466.3" font-family="Times New Roman,serif" font-size="14.00">top_hole</text>
</a>
</g>
</g>
<!-- cage_211&#45;&gt;top_hole_213 -->
<g id="edge8" class="edge">
<title>cage_211&#45;&gt;top_hole_213</title>
<path fill="none" stroke="black" d="M547.15,-461.95C563.53,-463.16 585.13,-464.76 604.77,-466.21"/>
<polygon fill="black" stroke="black" points="604.6,-469.7 614.83,-466.95 605.11,-462.72 604.6,-469.7"/>
</g>
<!-- base_hole_216 -->
<g id="node12" class="node">
<title>base_hole_216</title>
<g id="a_node12"><a xlink:href="javascript:s=&quot;\(&#x27;default&#x27;,\ &#x27;plate_1&#x27;,\ &#x27;sleeve_ends&#x27;,\ &#x27;cage&#x27;,\ &#x27;base_hole&#x27;\)\nHingeHole&quot;; console.log(s); alert(s);" xlink:title="HingeHole">
<ellipse fill="none" stroke="black" cx="657.11" cy="-416" rx="47.39" ry="18"/>
<text text-anchor="middle" x="657.11" y="-412.3" font-family="Times New Roman,serif" font-size="14.00">base_hole</text>
</a>
</g>
</g>
<!-- cage_211&#45;&gt;base_hole_216 -->
<g id="edge11" class="edge">
<title>cage_211&#45;&gt;base_hole_216</title>
<path fill="none" stroke="black" d="M544.61,-452.23C562.93,-446.28 588.75,-437.89 610.93,-430.68"/>
<polygon fill="black" stroke="black" points="612.07,-433.99 620.5,-427.57 609.91,-427.34 612.07,-433.99"/>
</g>
<!-- cage_214 -->
<g id="node10" class="node">
<title>cage_214</title>
<g id="a_node10"><a xlink:href="javascript:s=&quot;\(&#x27;default&#x27;,\ &#x27;plate_1&#x27;,\ &#x27;sleeve_ends&#x27;,\ &#x27;cage&#x27;,\ &#x27;top_hole&#x27;,\ &#x27;cage&#x27;\)\nCylinder&quot;; console.log(s); alert(s);" xlink:title="Cylinder">
<ellipse fill="none" stroke="black" cx="790.6" cy="-524" rx="27.1" ry="18"/>
<text text-anchor="middle" x="790.6" y="-520.3" font-family="Times New Roman,serif" font-size="14.00">cage</text>
</a>
</g>
</g>
<!-- top_hole_213&#45;&gt;cage_214 -->
<g id="edge9" class="edge">
<title>top_hole_213&#45;&gt;cage_214</title>
<path fill="none" stroke="black" d="M688.28,-482.39C708.96,-490.88 736.37,-502.14 757.46,-510.8"/>
<polygon fill="black" stroke="black" points="756.38,-514.14 766.96,-514.7 759.04,-507.66 756.38,-514.14"/>
</g>
<!-- hinge_hole_215 -->
<g id="node11" class="node">
<title>hinge_hole_215</title>
<g id="a_node11"><a xlink:href="javascript:s=&quot;\(&#x27;default&#x27;,\ &#x27;plate_1&#x27;,\ &#x27;sleeve_ends&#x27;,\ &#x27;cage&#x27;,\ &#x27;top_hole&#x27;,\ &#x27;hinge_hole&#x27;\)\nRotateExtrude&quot;; console.log(s); alert(s);" xlink:title="RotateExtrude">
<ellipse fill="none" stroke="black" cx="790.6" cy="-470" rx="50.09" ry="18"/>
<text text-anchor="middle" x="790.6" y="-466.3" font-family="Times New Roman,serif" font-size="14.00">hinge_hole</text>
</a>
</g>
</g>
<!-- top_hole_213&#45;&gt;hinge_hole_215 -->
<g id="edge10" class="edge">
<title>top_hole_213&#45;&gt;hinge_hole_215</title>
<path fill="none" stroke="black" d="M700.08,-470C709.66,-470 720.02,-470 730.18,-470"/>
<polygon fill="black" stroke="black" points="730.24,-473.5 740.24,-470 730.24,-466.5 730.24,-473.5"/>
</g>
<!-- cage_217 -->
<g id="node13" class="node">
<title>cage_217</title>
<g id="a_node13"><a xlink:href="javascript:s=&quot;\(&#x27;default&#x27;,\ &#x27;plate_1&#x27;,\ &#x27;sleeve_ends&#x27;,\ &#x27;cage&#x27;,\ &#x27;base_hole&#x27;,\ &#x27;cage&#x27;\)\nCylinder&quot;; console.log(s); alert(s);" xlink:title="Cylinder">
<ellipse fill="none" stroke="black" cx="790.6" cy="-416" rx="27.1" ry="18"/>
<text text-anchor="middle" x="790.6" y="-412.3" font-family="Times New Roman,serif" font-size="14.00">cage</text>
</a>
</g>
</g>
<!-- base_hole_216&#45;&gt;cage_217 -->
<g id="edge12" class="edge">
<title>base_hole_216&#45;&gt;cage_217</title>
<path fill="none" stroke="black" d="M704.84,-416C720.64,-416 738.05,-416 752.95,-416"/>
<polygon fill="black" stroke="black" points="753.3,-419.5 763.3,-416 753.3,-412.5 753.3,-419.5"/>
</g>
<!-- hinge_hole_218 -->
<g id="node14" class="node">
<title>hinge_hole_218</title>
<g id="a_node14"><a xlink:href="javascript:s=&quot;\(&#x27;default&#x27;,\ &#x27;plate_1&#x27;,\ &#x27;sleeve_ends&#x27;,\ &#x27;cage&#x27;,\ &#x27;base_hole&#x27;,\ &#x27;hinge_hole&#x27;\)\nRotateExtrude&quot;; console.log(s); alert(s);" xlink:title="RotateExtrude">
<ellipse fill="none" stroke="black" cx="790.6" cy="-362" rx="50.09" ry="18"/>
<text text-anchor="middle" x="790.6" y="-358.3" font-family="Times New Roman,serif" font-size="14.00">hinge_hole</text>
</a>
</g>
</g>
<!-- base_hole_216&#45;&gt;hinge_hole_218 -->
<g id="edge13" class="edge">
<title>base_hole_216&#45;&gt;hinge_hole_218</title>
<path fill="none" stroke="black" d="M689.94,-402.93C707.16,-395.86 728.65,-387.03 747.26,-379.39"/>
<polygon fill="black" stroke="black" points="748.77,-382.55 756.69,-375.52 746.11,-376.08 748.77,-382.55"/>
</g>
<!-- plate_2_222 -->
<g id="node18" class="node">
<title>plate_2_222</title>
<g id="a_node18"><a xlink:href="javascript:s=&quot;\(&#x27;default&#x27;,\ &#x27;plate_2&#x27;,\ &#x27;plate_2&#x27;\)\nBox&quot;; console.log(s); alert(s);" xlink:title="Box">
<ellipse fill="none" stroke="black" cx="368.03" cy="-328" rx="37.09" ry="18"/>
<text text-anchor="middle" x="368.03" y="-324.3" font-family="Times New Roman,serif" font-size="14.00">plate_2</text>
</a>
</g>
</g>
<!-- plate_2_221&#45;&gt;plate_2_222 -->
<g id="edge17" class="edge">
<title>plate_2_221&#45;&gt;plate_2_222</title>
<path fill="none" stroke="black" d="M270.53,-328C285.9,-328 304,-328 320.35,-328"/>
<polygon fill="black" stroke="black" points="320.79,-331.5 330.79,-328 320.79,-324.5 320.79,-331.5"/>
</g>
<!-- sleeve_middle_223 -->
<g id="node19" class="node">
<title>sleeve_middle_223</title>
<g id="a_node19"><a xlink:href="javascript:s=&quot;\(&#x27;default&#x27;,\ &#x27;plate_2&#x27;,\ &#x27;sleeve_middle&#x27;\)\nHingeBar3XMiddleHole&quot;; console.log(s); alert(s);" xlink:title="HingeBar3XMiddleHole">
<ellipse fill="none" stroke="black" cx="368.03" cy="-274" rx="61.99" ry="18"/>
<text text-anchor="middle" x="368.03" y="-270.3" font-family="Times New Roman,serif" font-size="14.00">sleeve_middle</text>
</a>
</g>
</g>
<!-- plate_2_221&#45;&gt;sleeve_middle_223 -->
<g id="edge18" class="edge">
<title>plate_2_221&#45;&gt;sleeve_middle_223</title>
<path fill="none" stroke="black" d="M262.08,-316.68C279.33,-309.66 301.9,-300.48 321.69,-292.44"/>
<polygon fill="black" stroke="black" points="323.2,-295.6 331.15,-288.59 320.56,-289.12 323.2,-295.6"/>
</g>
<!-- cage_224 -->
<g id="node20" class="node">
<title>cage_224</title>
<g id="a_node20"><a xlink:href="javascript:s=&quot;\(&#x27;default&#x27;,\ &#x27;plate_2&#x27;,\ &#x27;sleeve_middle&#x27;,\ &#x27;cage&#x27;\)\nHingeBar3X&quot;; console.log(s); alert(s);" xlink:title="HingeBar3X">
<ellipse fill="none" stroke="black" cx="519.72" cy="-288" rx="27.1" ry="18"/>
<text text-anchor="middle" x="519.72" y="-284.3" font-family="Times New Roman,serif" font-size="14.00">cage</text>
</a>
</g>
</g>
<!-- sleeve_middle_223&#45;&gt;cage_224 -->
<g id="edge19" class="edge">
<title>sleeve_middle_223&#45;&gt;cage_224</title>
<path fill="none" stroke="black" d="M427.33,-279.45C445.79,-281.18 465.65,-283.04 482.13,-284.58"/>
<polygon fill="black" stroke="black" points="482.14,-288.09 492.42,-285.54 482.79,-281.12 482.14,-288.09"/>
</g>
<!-- top_sleeve_232 -->
<g id="node28" class="node">
<title>top_sleeve_232</title>
<g id="a_node28"><a xlink:href="javascript:s=&quot;\(&#x27;default&#x27;,\ &#x27;plate_2&#x27;,\ &#x27;sleeve_middle&#x27;,\ &#x27;top_sleeve&#x27;\)\nCylinder&quot;; console.log(s); alert(s);" xlink:title="Cylinder">
<ellipse fill="none" stroke="black" cx="519.72" cy="-234" rx="50.09" ry="18"/>
<text text-anchor="middle" x="519.72" y="-230.3" font-family="Times New Roman,serif" font-size="14.00">top_sleeve</text>
</a>
</g>
</g>
<!-- sleeve_middle_223&#45;&gt;top_sleeve_232 -->
<g id="edge27" class="edge">
<title>sleeve_middle_223&#45;&gt;top_sleeve_232</title>
<path fill="none" stroke="black" d="M414.35,-261.89C431.61,-257.28 451.37,-252 469.02,-247.28"/>
<polygon fill="black" stroke="black" points="470.38,-250.54 479.14,-244.58 468.57,-243.78 470.38,-250.54"/>
</g>
<!-- bar_225 -->
<g id="node21" class="node">
<title>bar_225</title>
<g id="a_node21"><a xlink:href="javascript:s=&quot;\(&#x27;default&#x27;,\ &#x27;plate_2&#x27;,\ &#x27;sleeve_middle&#x27;,\ &#x27;cage&#x27;,\ &#x27;bar&#x27;\)\nCylinder&quot;; console.log(s); alert(s);" xlink:title="Cylinder">
<ellipse fill="none" stroke="black" cx="657.11" cy="-308" rx="27" ry="18"/>
<text text-anchor="middle" x="657.11" y="-304.3" font-family="Times New Roman,serif" font-size="14.00">bar</text>
</a>
</g>
</g>
<!-- cage_224&#45;&gt;bar_225 -->
<g id="edge20" class="edge">
<title>cage_224&#45;&gt;bar_225</title>
<path fill="none" stroke="black" d="M546.51,-291.81C567.4,-294.9 597.07,-299.28 620.27,-302.71"/>
<polygon fill="black" stroke="black" points="620.02,-306.21 630.42,-304.21 621.04,-299.28 620.02,-306.21"/>
</g>
<!-- top_hole_226 -->
<g id="node22" class="node">
<title>top_hole_226</title>
<g id="a_node22"><a xlink:href="javascript:s=&quot;\(&#x27;default&#x27;,\ &#x27;plate_2&#x27;,\ &#x27;sleeve_middle&#x27;,\ &#x27;cage&#x27;,\ &#x27;top_hole&#x27;\)\nHingeHole&quot;; console.log(s); alert(s);" xlink:title="HingeHole">
<ellipse fill="none" stroke="black" cx="657.11" cy="-254" rx="42.79" ry="18"/>
<text text-anchor="middle" x="657.11" y="-250.3" font-family="Times New Roman,serif" font-size="14.00">top_hole</text>
</a>
</g>
</g>
<!-- cage_224&#45;&gt;top_hole_226 -->
<g id="edge21" class="edge">
<title>cage_224&#45;&gt;top_hole_226</title>
<path fill="none" stroke="black" d="M545.55,-281.76C563.55,-277.25 588.4,-271 609.99,-265.58"/>
<polygon fill="black" stroke="black" points="611.11,-268.91 619.96,-263.08 609.4,-262.12 611.11,-268.91"/>
</g>
<!-- base_hole_229 -->
<g id="node25" class="node">
<title>base_hole_229</title>
<g id="a_node25"><a xlink:href="javascript:s=&quot;\(&#x27;default&#x27;,\ &#x27;plate_2&#x27;,\ &#x27;sleeve_middle&#x27;,\ &#x27;cage&#x27;,\ &#x27;base_hole&#x27;\)\nHingeHole&quot;; console.log(s); alert(s);" xlink:title="HingeHole">
<ellipse fill="none" stroke="black" cx="657.11" cy="-200" rx="47.39" ry="18"/>
<text text-anchor="middle" x="657.11" y="-196.3" font-family="Times New Roman,serif" font-size="14.00">base_hole</text>
</a>
</g>
</g>
<!-- cage_224&#45;&gt;base_hole_229 -->
<g id="edge24" class="edge">
<title>cage_224&#45;&gt;base_hole_229</title>
<path fill="none" stroke="black" d="M542.91,-278.43C552.71,-273.77 564.14,-267.72 573.67,-261 591.65,-248.32 592.04,-240.17 609.67,-227 612.85,-224.62 616.27,-222.28 619.75,-220.04"/>
<polygon fill="black" stroke="black" points="621.75,-222.92 628.43,-214.69 618.08,-216.96 621.75,-222.92"/>
</g>
<!-- cage_227 -->
<g id="node23" class="node">
<title>cage_227</title>
<g id="a_node23"><a xlink:href="javascript:s=&quot;\(&#x27;default&#x27;,\ &#x27;plate_2&#x27;,\ &#x27;sleeve_middle&#x27;,\ &#x27;cage&#x27;,\ &#x27;top_hole&#x27;,\ &#x27;cage&#x27;\)\nCylinder&quot;; console.log(s); alert(s);" xlink:title="Cylinder">
<ellipse fill="none" stroke="black" cx="790.6" cy="-308" rx="27.1" ry="18"/>
<text text-anchor="middle" x="790.6" y="-304.3" font-family="Times New Roman,serif" font-size="14.00">cage</text>
</a>
</g>
</g>
<!-- top_hole_226&#45;&gt;cage_227 -->
<g id="edge22" class="edge">
<title>top_hole_226&#45;&gt;cage_227</title>
<path fill="none" stroke="black" d="M688.28,-266.39C708.96,-274.88 736.37,-286.14 757.46,-294.8"/>
<polygon fill="black" stroke="black" points="756.38,-298.14 766.96,-298.7 759.04,-291.66 756.38,-298.14"/>
</g>
<!-- hinge_hole_228 -->
<g id="node24" class="node">
<title>hinge_hole_228</title>
<g id="a_node24"><a xlink:href="javascript:s=&quot;\(&#x27;default&#x27;,\ &#x27;plate_2&#x27;,\ &#x27;sleeve_middle&#x27;,\ &#x27;cage&#x27;,\ &#x27;top_hole&#x27;,\ &#x27;hinge_hole&#x27;\)\nRotateExtrude&quot;; console.log(s); alert(s);" xlink:title="RotateExtrude">
<ellipse fill="none" stroke="black" cx="790.6" cy="-254" rx="50.09" ry="18"/>
<text text-anchor="middle" x="790.6" y="-250.3" font-family="Times New Roman,serif" font-size="14.00">hinge_hole</text>
</a>
</g>
</g>
<!-- top_hole_226&#45;&gt;hinge_hole_228 -->
<g id="edge23" class="edge">
<title>top_hole_226&#45;&gt;hinge_hole_228</title>
<path fill="none" stroke="black" d="M700.08,-254C709.66,-254 720.02,-254 730.18,-254"/>
<polygon fill="black" stroke="black" points="730.24,-257.5 740.24,-254 730.24,-250.5 730.24,-257.5"/>
</g>
<!-- cage_230 -->
<g id="node26" class="node">
<title>cage_230</title>
<g id="a_node26"><a xlink:href="javascript:s=&quot;\(&#x27;default&#x27;,\ &#x27;plate_2&#x27;,\ &#x27;sleeve_middle&#x27;,\ &#x27;cage&#x27;,\ &#x27;base_hole&#x27;,\ &#x27;cage&#x27;\)\nCylinder&quot;; console.log(s); alert(s);" xlink:title="Cylinder">
<ellipse fill="none" stroke="black" cx="790.6" cy="-200" rx="27.1" ry="18"/>
<text text-anchor="middle" x="790.6" y="-196.3" font-family="Times New Roman,serif" font-size="14.00">cage</text>
</a>
</g>
</g>
<!-- base_hole_229&#45;&gt;cage_230 -->
<g id="edge25" class="edge">
<title>base_hole_229&#45;&gt;cage_230</title>
<path fill="none" stroke="black" d="M704.84,-200C720.64,-200 738.05,-200 752.95,-200"/>
<polygon fill="black" stroke="black" points="753.3,-203.5 763.3,-200 753.3,-196.5 753.3,-203.5"/>
</g>
<!-- hinge_hole_231 -->
<g id="node27" class="node">
<title>hinge_hole_231</title>
<g id="a_node27"><a xlink:href="javascript:s=&quot;\(&#x27;default&#x27;,\ &#x27;plate_2&#x27;,\ &#x27;sleeve_middle&#x27;,\ &#x27;cage&#x27;,\ &#x27;base_hole&#x27;,\ &#x27;hinge_hole&#x27;\)\nRotateExtrude&quot;; console.log(s); alert(s);" xlink:title="RotateExtrude">
<ellipse fill="none" stroke="black" cx="790.6" cy="-146" rx="50.09" ry="18"/>
<text text-anchor="middle" x="790.6" y="-142.3" font-family="Times New Roman,serif" font-size="14.00">hinge_hole</text>
</a>
</g>
</g>
<!-- base_hole_229&#45;&gt;hinge_hole_231 -->
<g id="edge26" class="edge">
<title>base_hole_229&#45;&gt;hinge_hole_231</title>
<path fill="none" stroke="black" d="M689.94,-186.93C707.16,-179.86 728.65,-171.03 747.26,-163.39"/>
<polygon fill="black" stroke="black" points="748.77,-166.55 756.69,-159.52 746.11,-160.08 748.77,-166.55"/>
</g>
<!-- bar_234 -->
<g id="node30" class="node">
<title>bar_234</title>
<g id="a_node30"><a xlink:href="javascript:s=&quot;\(&#x27;default&#x27;,\ &#x27;bar&#x27;,\ &#x27;bar&#x27;\)\nCylinder&quot;; console.log(s); alert(s);" xlink:title="Cylinder">
<ellipse fill="none" stroke="black" cx="368.03" cy="-207" rx="27" ry="18"/>
<text text-anchor="middle" x="368.03" y="-203.3" font-family="Times New Roman,serif" font-size="14.00">bar</text>
</a>
</g>
</g>
<!-- bar_233&#45;&gt;bar_234 -->
<g id="edge29" class="edge">
<title>bar_233&#45;&gt;bar_234</title>
<path fill="none" stroke="black" d="M259.22,-185.08C279.68,-189.24 308.87,-195.17 331.72,-199.82"/>
<polygon fill="black" stroke="black" points="331.22,-203.29 341.72,-201.85 332.61,-196.43 331.22,-203.29"/>
</g>
<!-- top_hole_235 -->
<g id="node31" class="node">
<title>top_hole_235</title>
<g id="a_node31"><a xlink:href="javascript:s=&quot;\(&#x27;default&#x27;,\ &#x27;bar&#x27;,\ &#x27;top_hole&#x27;\)\nHingeHole&quot;; console.log(s); alert(s);" xlink:title="HingeHole">
<ellipse fill="none" stroke="black" cx="368.03" cy="-153" rx="42.79" ry="18"/>
<text text-anchor="middle" x="368.03" y="-149.3" font-family="Times New Roman,serif" font-size="14.00">top_hole</text>
</a>
</g>
</g>
<!-- bar_233&#45;&gt;top_hole_235 -->
<g id="edge30" class="edge">
<title>bar_233&#45;&gt;top_hole_235</title>
<path fill="none" stroke="black" d="M259.22,-174.92C276.06,-171.5 298.81,-166.87 319.08,-162.75"/>
<polygon fill="black" stroke="black" points="320,-166.14 329.1,-160.71 318.6,-159.28 320,-166.14"/>
</g>
<!-- base_hole_238 -->
<g id="node34" class="node">
<title>base_hole_238</title>
<g id="a_node34"><a xlink:href="javascript:s=&quot;\(&#x27;default&#x27;,\ &#x27;bar&#x27;,\ &#x27;base_hole&#x27;\)\nHingeHole&quot;; console.log(s); alert(s);" xlink:title="HingeHole">
<ellipse fill="none" stroke="black" cx="368.03" cy="-72" rx="47.39" ry="18"/>
<text text-anchor="middle" x="368.03" y="-68.3" font-family="Times New Roman,serif" font-size="14.00">base_hole</text>
</a>
</g>
</g>
<!-- bar_233&#45;&gt;base_hole_238 -->
<g id="edge33" class="edge">
<title>bar_233&#45;&gt;base_hole_238</title>
<path fill="none" stroke="black" d="M251.06,-166.32C273.19,-148.32 312.41,-116.42 339.05,-94.76"/>
<polygon fill="black" stroke="black" points="341.33,-97.41 346.88,-88.39 336.92,-91.98 341.33,-97.41"/>
</g>
<!-- cage_236 -->
<g id="node32" class="node">
<title>cage_236</title>
<g id="a_node32"><a xlink:href="javascript:s=&quot;\(&#x27;default&#x27;,\ &#x27;bar&#x27;,\ &#x27;top_hole&#x27;,\ &#x27;cage&#x27;\)\nCylinder&quot;; console.log(s); alert(s);" xlink:title="Cylinder">
<ellipse fill="none" stroke="black" cx="519.72" cy="-180" rx="27.1" ry="18"/>
<text text-anchor="middle" x="519.72" y="-176.3" font-family="Times New Roman,serif" font-size="14.00">cage</text>
</a>
</g>
</g>
<!-- top_hole_235&#45;&gt;cage_236 -->
<g id="edge31" class="edge">
<title>top_hole_235&#45;&gt;cage_236</title>
<path fill="none" stroke="black" d="M407.97,-160.02C431.26,-164.22 460.62,-169.52 483.26,-173.6"/>
<polygon fill="black" stroke="black" points="482.68,-177.06 493.15,-175.39 483.93,-170.17 482.68,-177.06"/>
</g>
<!-- hinge_hole_237 -->
<g id="node33" class="node">
<title>hinge_hole_237</title>
<g id="a_node33"><a xlink:href="javascript:s=&quot;\(&#x27;default&#x27;,\ &#x27;bar&#x27;,\ &#x27;top_hole&#x27;,\ &#x27;hinge_hole&#x27;\)\nRotateExtrude&quot;; console.log(s); alert(s);" xlink:title="RotateExtrude">
<ellipse fill="none" stroke="black" cx="519.72" cy="-126" rx="50.09" ry="18"/>
<text text-anchor="middle" x="519.72" y="-122.3" font-family="Times New Roman,serif" font-size="14.00">hinge_hole</text>
</a>
</g>
</g>
<!-- top_hole_235&#45;&gt;hinge_hole_237 -->
<g id="edge32" class="edge">
<title>top_hole_235&#45;&gt;hinge_hole_237</title>
<path fill="none" stroke="black" d="M407.97,-145.98C425.3,-142.85 445.99,-139.12 464.78,-135.73"/>
<polygon fill="black" stroke="black" points="465.47,-139.16 474.69,-133.94 464.23,-132.27 465.47,-139.16"/>
</g>
<!-- cage_239 -->
<g id="node35" class="node">
<title>cage_239</title>
<g id="a_node35"><a xlink:href="javascript:s=&quot;\(&#x27;default&#x27;,\ &#x27;bar&#x27;,\ &#x27;base_hole&#x27;,\ &#x27;cage&#x27;\)\nCylinder&quot;; console.log(s); alert(s);" xlink:title="Cylinder">
<ellipse fill="none" stroke="black" cx="519.72" cy="-72" rx="27.1" ry="18"/>
<text text-anchor="middle" x="519.72" y="-68.3" font-family="Times New Roman,serif" font-size="14.00">cage</text>
</a>
</g>
</g>
<!-- base_hole_238&#45;&gt;cage_239 -->
<g id="edge34" class="edge">
<title>base_hole_238&#45;&gt;cage_239</title>
<path fill="none" stroke="black" d="M415.57,-72C436.96,-72 461.97,-72 482,-72"/>
<polygon fill="black" stroke="black" points="482.27,-75.5 492.27,-72 482.27,-68.5 482.27,-75.5"/>
</g>
<!-- hinge_hole_240 -->
<g id="node36" class="node">
<title>hinge_hole_240</title>
<g id="a_node36"><a xlink:href="javascript:s=&quot;\(&#x27;default&#x27;,\ &#x27;bar&#x27;,\ &#x27;base_hole&#x27;,\ &#x27;hinge_hole&#x27;\)\nRotateExtrude&quot;; console.log(s); alert(s);" xlink:title="RotateExtrude">
<ellipse fill="none" stroke="black" cx="519.72" cy="-18" rx="50.09" ry="18"/>
<text text-anchor="middle" x="519.72" y="-14.3" font-family="Times New Roman,serif" font-size="14.00">hinge_hole</text>
</a>
</g>
</g>
<!-- base_hole_238&#45;&gt;hinge_hole_240 -->
<g id="edge35" class="edge">
<title>base_hole_238&#45;&gt;hinge_hole_240</title>
<path fill="none" stroke="black" d="M403,-59.75C424.13,-52.12 451.54,-42.24 474.37,-34"/>
<polygon fill="black" stroke="black" points="475.63,-37.27 483.85,-30.58 473.26,-30.68 475.63,-37.27"/>
</g>
</g>
</svg>
