<?xml version="1.0" encoding="UTF-8" standalone="no"?>
<!DOCTYPE svg PUBLIC "-//W3C//DTD SVG 1.1//EN"
 "http://www.w3.org/Graphics/SVG/1.1/DTD/svg11.dtd">
<!-- Generated by graphviz version 5.0.0 (20220707.1540)
 -->
<!-- Title: example2 Pages: 1 -->
<svg width="589pt" height="1475pt"
 viewBox="0.00 0.00 589.47 1475.00" xmlns="http://www.w3.org/2000/svg" xmlns:xlink="http://www.w3.org/1999/xlink">
<g id="graph0" class="graph" transform="scale(1 1) rotate(0) translate(4 1471)">
<title>example2</title>
<polygon fill="white" stroke="transparent" points="-4,4 -4,-1471 585.47,-1471 585.47,4 -4,4"/>
<!-- root_406 -->
<g id="node1" class="node">
<title>root_406</title>
<g id="a_node1"><a xlink:href="javascript:s=&quot;\(\)\nNone&quot;; console.log(s); alert(s);" xlink:title="root">
<ellipse fill="none" stroke="black" cx="27" cy="-504" rx="27" ry="18"/>
<text text-anchor="middle" x="27" y="-500.3" font-family="Times New Roman,serif" font-size="14.00">root</text>
</a>
</g>
</g>
<!-- example2_407 -->
<g id="node2" class="node">
<title>example2_407</title>
<g id="a_node2"><a xlink:href="javascript:s=&quot;\(&#x27;example2&#x27;,\)\nHingeBarSleeveHoles&quot;; console.log(s); alert(s);" xlink:title="HingeBarSleeveHoles">
<ellipse fill="none" stroke="black" cx="134.85" cy="-504" rx="44.69" ry="18"/>
<text text-anchor="middle" x="134.85" y="-500.3" font-family="Times New Roman,serif" font-size="14.00">example2</text>
</a>
</g>
</g>
<!-- root_406&#45;&gt;example2_407 -->
<g id="edge1" class="edge">
<title>root_406&#45;&gt;example2_407</title>
<path fill="none" stroke="black" d="M54.16,-504C61.99,-504 70.88,-504 79.81,-504"/>
<polygon fill="black" stroke="black" points="79.86,-507.5 89.86,-504 79.86,-500.5 79.86,-507.5"/>
</g>
<!-- cage_408 -->
<g id="node3" class="node">
<title>cage_408</title>
<g id="a_node3"><a xlink:href="javascript:s=&quot;\(&#x27;example2&#x27;,\ &#x27;cage&#x27;\)\nHingeBar&quot;; console.log(s); alert(s);" xlink:title="HingeBar">
<ellipse fill="none" stroke="black" cx="267.69" cy="-1098" rx="27.1" ry="18"/>
<text text-anchor="middle" x="267.69" y="-1094.3" font-family="Times New Roman,serif" font-size="14.00">cage</text>
</a>
</g>
</g>
<!-- example2_407&#45;&gt;cage_408 -->
<g id="edge2" class="edge">
<title>example2_407&#45;&gt;cage_408</title>
<path fill="none" stroke="black" d="M139.83,-522.1C158.55,-607.08 237.74,-966.59 260.53,-1070.04"/>
<polygon fill="black" stroke="black" points="257.16,-1071.03 262.73,-1080.04 264,-1069.52 257.16,-1071.03"/>
</g>
<!-- sleeve_431 -->
<g id="node26" class="node">
<title>sleeve_431</title>
<g id="a_node26"><a xlink:href="javascript:s=&quot;\(&#x27;example2&#x27;,\ \(&#x27;sleeve&#x27;,\ 1\)\)\nSleeveAndKeyway&quot;; console.log(s); alert(s);" xlink:title="SleeveAndKeyway">
<ellipse fill="none" stroke="black" cx="267.69" cy="-693" rx="51.99" ry="18"/>
<text text-anchor="middle" x="267.69" y="-689.3" font-family="Times New Roman,serif" font-size="14.00">(&#39;sleeve&#39;, 1)</text>
</a>
</g>
</g>
<!-- example2_407&#45;&gt;sleeve_431 -->
<g id="edge25" class="edge">
<title>example2_407&#45;&gt;sleeve_431</title>
<path fill="none" stroke="black" d="M147.92,-521.44C171.04,-554.83 221.64,-627.93 248.73,-667.06"/>
<polygon fill="black" stroke="black" points="245.88,-669.1 254.45,-675.33 251.64,-665.11 245.88,-669.1"/>
</g>
<!-- sleeve_435 -->
<g id="node30" class="node">
<title>sleeve_435</title>
<g id="a_node30"><a xlink:href="javascript:s=&quot;\(&#x27;example2&#x27;,\ \(&#x27;sleeve&#x27;,\ 3\)\)\nSleeveAndKeyway&quot;; console.log(s); alert(s);" xlink:title="SleeveAndKeyway">
<ellipse fill="none" stroke="black" cx="267.69" cy="-531" rx="51.99" ry="18"/>
<text text-anchor="middle" x="267.69" y="-527.3" font-family="Times New Roman,serif" font-size="14.00">(&#39;sleeve&#39;, 3)</text>
</a>
</g>
</g>
<!-- example2_407&#45;&gt;sleeve_435 -->
<g id="edge29" class="edge">
<title>example2_407&#45;&gt;sleeve_435</title>
<path fill="none" stroke="black" d="M175.1,-512.1C186.86,-514.53 199.97,-517.23 212.52,-519.82"/>
<polygon fill="black" stroke="black" points="211.92,-523.27 222.42,-521.86 213.33,-516.42 211.92,-523.27"/>
</g>
<!-- sleeve_439 -->
<g id="node34" class="node">
<title>sleeve_439</title>
<g id="a_node34"><a xlink:href="javascript:s=&quot;\(&#x27;example2&#x27;,\ \(&#x27;sleeve&#x27;,\ 5\)\)\nSleeveAndKeyway&quot;; console.log(s); alert(s);" xlink:title="SleeveAndKeyway">
<ellipse fill="none" stroke="black" cx="267.69" cy="-423" rx="51.99" ry="18"/>
<text text-anchor="middle" x="267.69" y="-419.3" font-family="Times New Roman,serif" font-size="14.00">(&#39;sleeve&#39;, 5)</text>
</a>
</g>
</g>
<!-- example2_407&#45;&gt;sleeve_439 -->
<g id="edge33" class="edge">
<title>example2_407&#45;&gt;sleeve_439</title>
<path fill="none" stroke="black" d="M160.15,-488.95C180.51,-476.35 209.79,-458.22 232.51,-444.16"/>
<polygon fill="black" stroke="black" points="234.51,-447.03 241.17,-438.79 230.83,-441.08 234.51,-447.03"/>
</g>
<!-- sleeve_443 -->
<g id="node38" class="node">
<title>sleeve_443</title>
<g id="a_node38"><a xlink:href="javascript:s=&quot;\(&#x27;example2&#x27;,\ \(&#x27;sleeve&#x27;,\ 7\)\)\nSleeveAndKeyway&quot;; console.log(s); alert(s);" xlink:title="SleeveAndKeyway">
<ellipse fill="none" stroke="black" cx="267.69" cy="-261" rx="51.99" ry="18"/>
<text text-anchor="middle" x="267.69" y="-257.3" font-family="Times New Roman,serif" font-size="14.00">(&#39;sleeve&#39;, 7)</text>
</a>
</g>
</g>
<!-- example2_407&#45;&gt;sleeve_443 -->
<g id="edge37" class="edge">
<title>example2_407&#45;&gt;sleeve_443</title>
<path fill="none" stroke="black" d="M145.47,-486.13C168.2,-443.91 225.33,-337.8 252.24,-287.83"/>
<polygon fill="black" stroke="black" points="255.39,-289.36 257.05,-278.89 249.23,-286.04 255.39,-289.36"/>
</g>
<!-- sleeve_top_447 -->
<g id="node42" class="node">
<title>sleeve_top_447</title>
<g id="a_node42"><a xlink:href="javascript:s=&quot;\(&#x27;example2&#x27;,\ &#x27;sleeve_top&#x27;\)\nSleeve&quot;; console.log(s); alert(s);" xlink:title="Sleeve">
<ellipse fill="none" stroke="black" cx="267.69" cy="-99" rx="50.09" ry="18"/>
<text text-anchor="middle" x="267.69" y="-95.3" font-family="Times New Roman,serif" font-size="14.00">sleeve_top</text>
</a>
</g>
</g>
<!-- example2_407&#45;&gt;sleeve_top_447 -->
<g id="edge41" class="edge">
<title>example2_407&#45;&gt;sleeve_top_447</title>
<path fill="none" stroke="black" d="M140.72,-485.85C152.55,-442.16 184.15,-327.82 215.69,-234 228.29,-196.52 244.74,-153.94 255.5,-126.79"/>
<polygon fill="black" stroke="black" points="258.88,-127.77 259.33,-117.19 252.38,-125.18 258.88,-127.77"/>
</g>
<!-- bar_409 -->
<g id="node4" class="node">
<title>bar_409</title>
<g id="a_node4"><a xlink:href="javascript:s=&quot;\(&#x27;example2&#x27;,\ &#x27;cage&#x27;,\ &#x27;bar&#x27;\)\nCylinder&quot;; console.log(s); alert(s);" xlink:title="Cylinder">
<ellipse fill="none" stroke="black" cx="400.53" cy="-1422" rx="27" ry="18"/>
<text text-anchor="middle" x="400.53" y="-1418.3" font-family="Times New Roman,serif" font-size="14.00">bar</text>
</a>
</g>
</g>
<!-- cage_408&#45;&gt;bar_409 -->
<g id="edge3" class="edge">
<title>cage_408&#45;&gt;bar_409</title>
<path fill="none" stroke="black" d="M269.56,-1116.04C272.83,-1165.62 287.88,-1306.16 355.68,-1395 359.21,-1399.62 363.77,-1403.63 368.61,-1407.05"/>
<polygon fill="black" stroke="black" points="367.14,-1410.25 377.48,-1412.56 370.83,-1404.31 367.14,-1410.25"/>
</g>
<!-- hole_410 -->
<g id="node5" class="node">
<title>hole_410</title>
<g id="a_node5"><a xlink:href="javascript:s=&quot;\(&#x27;example2&#x27;,\ &#x27;cage&#x27;,\ \(&#x27;hole&#x27;,\ 0\)\)\nHingeHole&quot;; console.log(s); alert(s);" xlink:title="HingeHole">
<ellipse fill="none" stroke="black" cx="400.53" cy="-1368" rx="44.69" ry="18"/>
<text text-anchor="middle" x="400.53" y="-1364.3" font-family="Times New Roman,serif" font-size="14.00">(&#39;hole&#39;, 0)</text>
</a>
</g>
</g>
<!-- cage_408&#45;&gt;hole_410 -->
<g id="edge4" class="edge">
<title>cage_408&#45;&gt;hole_410</title>
<path fill="none" stroke="black" d="M273.8,-1115.62C285.23,-1153.54 315.05,-1245.03 355.68,-1314 361.69,-1324.2 369.52,-1334.5 376.91,-1343.33"/>
<polygon fill="black" stroke="black" points="374.32,-1345.69 383.49,-1350.99 379.62,-1341.13 374.32,-1345.69"/>
</g>
<!-- hole_413 -->
<g id="node8" class="node">
<title>hole_413</title>
<g id="a_node8"><a xlink:href="javascript:s=&quot;\(&#x27;example2&#x27;,\ &#x27;cage&#x27;,\ \(&#x27;hole&#x27;,\ 1\)\)\nHingeHole&quot;; console.log(s); alert(s);" xlink:title="HingeHole">
<ellipse fill="none" stroke="black" cx="400.53" cy="-1287" rx="44.69" ry="18"/>
<text text-anchor="middle" x="400.53" y="-1283.3" font-family="Times New Roman,serif" font-size="14.00">(&#39;hole&#39;, 1)</text>
</a>
</g>
</g>
<!-- cage_408&#45;&gt;hole_413 -->
<g id="edge7" class="edge">
<title>cage_408&#45;&gt;hole_413</title>
<path fill="none" stroke="black" d="M280.07,-1114.44C302.9,-1147.42 354.44,-1221.86 381.75,-1261.32"/>
<polygon fill="black" stroke="black" points="378.94,-1263.41 387.51,-1269.64 384.7,-1259.43 378.94,-1263.41"/>
</g>
<!-- hole_416 -->
<g id="node11" class="node">
<title>hole_416</title>
<g id="a_node11"><a xlink:href="javascript:s=&quot;\(&#x27;example2&#x27;,\ &#x27;cage&#x27;,\ \(&#x27;hole&#x27;,\ 2\)\)\nHingeHole&quot;; console.log(s); alert(s);" xlink:title="HingeHole">
<ellipse fill="none" stroke="black" cx="400.53" cy="-1179" rx="44.69" ry="18"/>
<text text-anchor="middle" x="400.53" y="-1175.3" font-family="Times New Roman,serif" font-size="14.00">(&#39;hole&#39;, 2)</text>
</a>
</g>
</g>
<!-- cage_408&#45;&gt;hole_416 -->
<g id="edge10" class="edge">
<title>cage_408&#45;&gt;hole_416</title>
<path fill="none" stroke="black" d="M288.28,-1110.13C308.97,-1122.94 341.97,-1143.37 366.67,-1158.66"/>
<polygon fill="black" stroke="black" points="365.01,-1161.74 375.35,-1164.03 368.69,-1155.79 365.01,-1161.74"/>
</g>
<!-- hole_419 -->
<g id="node14" class="node">
<title>hole_419</title>
<g id="a_node14"><a xlink:href="javascript:s=&quot;\(&#x27;example2&#x27;,\ &#x27;cage&#x27;,\ \(&#x27;hole&#x27;,\ 3\)\)\nHingeHole&quot;; console.log(s); alert(s);" xlink:title="HingeHole">
<ellipse fill="none" stroke="black" cx="400.53" cy="-1098" rx="44.69" ry="18"/>
<text text-anchor="middle" x="400.53" y="-1094.3" font-family="Times New Roman,serif" font-size="14.00">(&#39;hole&#39;, 3)</text>
</a>
</g>
</g>
<!-- cage_408&#45;&gt;hole_419 -->
<g id="edge13" class="edge">
<title>cage_408&#45;&gt;hole_419</title>
<path fill="none" stroke="black" d="M295.17,-1098C309.65,-1098 328.13,-1098 345.51,-1098"/>
<polygon fill="black" stroke="black" points="345.57,-1101.5 355.57,-1098 345.57,-1094.5 345.57,-1101.5"/>
</g>
<!-- hole_422 -->
<g id="node17" class="node">
<title>hole_422</title>
<g id="a_node17"><a xlink:href="javascript:s=&quot;\(&#x27;example2&#x27;,\ &#x27;cage&#x27;,\ \(&#x27;hole&#x27;,\ 4\)\)\nHingeHole&quot;; console.log(s); alert(s);" xlink:title="HingeHole">
<ellipse fill="none" stroke="black" cx="400.53" cy="-1017" rx="44.69" ry="18"/>
<text text-anchor="middle" x="400.53" y="-1013.3" font-family="Times New Roman,serif" font-size="14.00">(&#39;hole&#39;, 4)</text>
</a>
</g>
</g>
<!-- cage_408&#45;&gt;hole_422 -->
<g id="edge16" class="edge">
<title>cage_408&#45;&gt;hole_422</title>
<path fill="none" stroke="black" d="M288.28,-1085.87C308.97,-1073.06 341.97,-1052.63 366.67,-1037.34"/>
<polygon fill="black" stroke="black" points="368.69,-1040.21 375.35,-1031.97 365.01,-1034.26 368.69,-1040.21"/>
</g>
<!-- hole_425 -->
<g id="node20" class="node">
<title>hole_425</title>
<g id="a_node20"><a xlink:href="javascript:s=&quot;\(&#x27;example2&#x27;,\ &#x27;cage&#x27;,\ \(&#x27;hole&#x27;,\ 5\)\)\nHingeHole&quot;; console.log(s); alert(s);" xlink:title="HingeHole">
<ellipse fill="none" stroke="black" cx="400.53" cy="-909" rx="44.69" ry="18"/>
<text text-anchor="middle" x="400.53" y="-905.3" font-family="Times New Roman,serif" font-size="14.00">(&#39;hole&#39;, 5)</text>
</a>
</g>
</g>
<!-- cage_408&#45;&gt;hole_425 -->
<g id="edge19" class="edge">
<title>cage_408&#45;&gt;hole_425</title>
<path fill="none" stroke="black" d="M280.07,-1081.56C302.9,-1048.58 354.44,-974.14 381.75,-934.68"/>
<polygon fill="black" stroke="black" points="384.7,-936.57 387.51,-926.36 378.94,-932.59 384.7,-936.57"/>
</g>
<!-- hole_428 -->
<g id="node23" class="node">
<title>hole_428</title>
<g id="a_node23"><a xlink:href="javascript:s=&quot;\(&#x27;example2&#x27;,\ &#x27;cage&#x27;,\ \(&#x27;hole&#x27;,\ 6\)\)\nHingeHole&quot;; console.log(s); alert(s);" xlink:title="HingeHole">
<ellipse fill="none" stroke="black" cx="400.53" cy="-828" rx="44.69" ry="18"/>
<text text-anchor="middle" x="400.53" y="-824.3" font-family="Times New Roman,serif" font-size="14.00">(&#39;hole&#39;, 6)</text>
</a>
</g>
</g>
<!-- cage_408&#45;&gt;hole_428 -->
<g id="edge22" class="edge">
<title>cage_408&#45;&gt;hole_428</title>
<path fill="none" stroke="black" d="M273.8,-1080.38C285.23,-1042.46 315.05,-950.97 355.68,-882 361.69,-871.8 369.52,-861.5 376.91,-852.67"/>
<polygon fill="black" stroke="black" points="379.62,-854.87 383.49,-845.01 374.32,-850.31 379.62,-854.87"/>
</g>
<!-- cage_411 -->
<g id="node6" class="node">
<title>cage_411</title>
<g id="a_node6"><a xlink:href="javascript:s=&quot;\(&#x27;example2&#x27;,\ &#x27;cage&#x27;,\ \(&#x27;hole&#x27;,\ 0\),\ &#x27;cage&#x27;\)\nCylinder&quot;; console.log(s); alert(s);" xlink:title="Cylinder">
<ellipse fill="none" stroke="black" cx="531.42" cy="-1449" rx="27.1" ry="18"/>
<text text-anchor="middle" x="531.42" y="-1445.3" font-family="Times New Roman,serif" font-size="14.00">cage</text>
</a>
</g>
</g>
<!-- hole_410&#45;&gt;cage_411 -->
<g id="edge5" class="edge">
<title>hole_410&#45;&gt;cage_411</title>
<path fill="none" stroke="black" d="M426.36,-1382.75C432.64,-1386.62 439.32,-1390.87 445.37,-1395 461.91,-1406.26 464.57,-1411.15 481.37,-1422 487.3,-1425.83 493.81,-1429.65 500.09,-1433.17"/>
<polygon fill="black" stroke="black" points="498.59,-1436.34 509.04,-1438.07 501.95,-1430.2 498.59,-1436.34"/>
</g>
<!-- hinge_hole_412 -->
<g id="node7" class="node">
<title>hinge_hole_412</title>
<g id="a_node7"><a xlink:href="javascript:s=&quot;\(&#x27;example2&#x27;,\ &#x27;cage&#x27;,\ \(&#x27;hole&#x27;,\ 0\),\ &#x27;hinge_hole&#x27;\)\nRotateExtrude&quot;; console.log(s); alert(s);" xlink:title="RotateExtrude">
<ellipse fill="none" stroke="black" cx="531.42" cy="-1395" rx="50.09" ry="18"/>
<text text-anchor="middle" x="531.42" y="-1391.3" font-family="Times New Roman,serif" font-size="14.00">hinge_hole</text>
</a>
</g>
</g>
<!-- hole_410&#45;&gt;hinge_hole_412 -->
<g id="edge6" class="edge">
<title>hole_410&#45;&gt;hinge_hole_412</title>
<path fill="none" stroke="black" d="M440.55,-1376.17C452.24,-1378.62 465.27,-1381.35 477.69,-1383.95"/>
<polygon fill="black" stroke="black" points="476.98,-1387.38 487.48,-1386.01 478.41,-1380.53 476.98,-1387.38"/>
</g>
<!-- cage_414 -->
<g id="node9" class="node">
<title>cage_414</title>
<g id="a_node9"><a xlink:href="javascript:s=&quot;\(&#x27;example2&#x27;,\ &#x27;cage&#x27;,\ \(&#x27;hole&#x27;,\ 1\),\ &#x27;cage&#x27;\)\nCylinder&quot;; console.log(s); alert(s);" xlink:title="Cylinder">
<ellipse fill="none" stroke="black" cx="531.42" cy="-1341" rx="27.1" ry="18"/>
<text text-anchor="middle" x="531.42" y="-1337.3" font-family="Times New Roman,serif" font-size="14.00">cage</text>
</a>
</g>
</g>
<!-- hole_413&#45;&gt;cage_414 -->
<g id="edge8" class="edge">
<title>hole_413&#45;&gt;cage_414</title>
<path fill="none" stroke="black" d="M432.07,-1299.8C452.03,-1308.16 478.06,-1319.06 498.32,-1327.55"/>
<polygon fill="black" stroke="black" points="497.18,-1330.87 507.76,-1331.51 499.89,-1324.41 497.18,-1330.87"/>
</g>
<!-- hinge_hole_415 -->
<g id="node10" class="node">
<title>hinge_hole_415</title>
<g id="a_node10"><a xlink:href="javascript:s=&quot;\(&#x27;example2&#x27;,\ &#x27;cage&#x27;,\ \(&#x27;hole&#x27;,\ 1\),\ &#x27;hinge_hole&#x27;\)\nRotateExtrude&quot;; console.log(s); alert(s);" xlink:title="RotateExtrude">
<ellipse fill="none" stroke="black" cx="531.42" cy="-1287" rx="50.09" ry="18"/>
<text text-anchor="middle" x="531.42" y="-1283.3" font-family="Times New Roman,serif" font-size="14.00">hinge_hole</text>
</a>
</g>
</g>
<!-- hole_413&#45;&gt;hinge_hole_415 -->
<g id="edge9" class="edge">
<title>hole_413&#45;&gt;hinge_hole_415</title>
<path fill="none" stroke="black" d="M445.53,-1287C453.81,-1287 462.59,-1287 471.25,-1287"/>
<polygon fill="black" stroke="black" points="471.31,-1290.5 481.31,-1287 471.31,-1283.5 471.31,-1290.5"/>
</g>
<!-- cage_417 -->
<g id="node12" class="node">
<title>cage_417</title>
<g id="a_node12"><a xlink:href="javascript:s=&quot;\(&#x27;example2&#x27;,\ &#x27;cage&#x27;,\ \(&#x27;hole&#x27;,\ 2\),\ &#x27;cage&#x27;\)\nCylinder&quot;; console.log(s); alert(s);" xlink:title="Cylinder">
<ellipse fill="none" stroke="black" cx="531.42" cy="-1233" rx="27.1" ry="18"/>
<text text-anchor="middle" x="531.42" y="-1229.3" font-family="Times New Roman,serif" font-size="14.00">cage</text>
</a>
</g>
</g>
<!-- hole_416&#45;&gt;cage_417 -->
<g id="edge11" class="edge">
<title>hole_416&#45;&gt;cage_417</title>
<path fill="none" stroke="black" d="M432.07,-1191.8C452.03,-1200.16 478.06,-1211.06 498.32,-1219.55"/>
<polygon fill="black" stroke="black" points="497.18,-1222.87 507.76,-1223.51 499.89,-1216.41 497.18,-1222.87"/>
</g>
<!-- hinge_hole_418 -->
<g id="node13" class="node">
<title>hinge_hole_418</title>
<g id="a_node13"><a xlink:href="javascript:s=&quot;\(&#x27;example2&#x27;,\ &#x27;cage&#x27;,\ \(&#x27;hole&#x27;,\ 2\),\ &#x27;hinge_hole&#x27;\)\nRotateExtrude&quot;; console.log(s); alert(s);" xlink:title="RotateExtrude">
<ellipse fill="none" stroke="black" cx="531.42" cy="-1179" rx="50.09" ry="18"/>
<text text-anchor="middle" x="531.42" y="-1175.3" font-family="Times New Roman,serif" font-size="14.00">hinge_hole</text>
</a>
</g>
</g>
<!-- hole_416&#45;&gt;hinge_hole_418 -->
<g id="edge12" class="edge">
<title>hole_416&#45;&gt;hinge_hole_418</title>
<path fill="none" stroke="black" d="M445.53,-1179C453.81,-1179 462.59,-1179 471.25,-1179"/>
<polygon fill="black" stroke="black" points="471.31,-1182.5 481.31,-1179 471.31,-1175.5 471.31,-1182.5"/>
</g>
<!-- cage_420 -->
<g id="node15" class="node">
<title>cage_420</title>
<g id="a_node15"><a xlink:href="javascript:s=&quot;\(&#x27;example2&#x27;,\ &#x27;cage&#x27;,\ \(&#x27;hole&#x27;,\ 3\),\ &#x27;cage&#x27;\)\nCylinder&quot;; console.log(s); alert(s);" xlink:title="Cylinder">
<ellipse fill="none" stroke="black" cx="531.42" cy="-1125" rx="27.1" ry="18"/>
<text text-anchor="middle" x="531.42" y="-1121.3" font-family="Times New Roman,serif" font-size="14.00">cage</text>
</a>
</g>
</g>
<!-- hole_419&#45;&gt;cage_420 -->
<g id="edge14" class="edge">
<title>hole_419&#45;&gt;cage_420</title>
<path fill="none" stroke="black" d="M440.55,-1106.17C457.85,-1109.8 478.07,-1114.03 494.94,-1117.57"/>
<polygon fill="black" stroke="black" points="494.45,-1121.04 504.96,-1119.67 495.89,-1114.19 494.45,-1121.04"/>
</g>
<!-- hinge_hole_421 -->
<g id="node16" class="node">
<title>hinge_hole_421</title>
<g id="a_node16"><a xlink:href="javascript:s=&quot;\(&#x27;example2&#x27;,\ &#x27;cage&#x27;,\ \(&#x27;hole&#x27;,\ 3\),\ &#x27;hinge_hole&#x27;\)\nRotateExtrude&quot;; console.log(s); alert(s);" xlink:title="RotateExtrude">
<ellipse fill="none" stroke="black" cx="531.42" cy="-1071" rx="50.09" ry="18"/>
<text text-anchor="middle" x="531.42" y="-1067.3" font-family="Times New Roman,serif" font-size="14.00">hinge_hole</text>
</a>
</g>
</g>
<!-- hole_419&#45;&gt;hinge_hole_421 -->
<g id="edge15" class="edge">
<title>hole_419&#45;&gt;hinge_hole_421</title>
<path fill="none" stroke="black" d="M440.55,-1089.83C452.24,-1087.38 465.27,-1084.65 477.69,-1082.05"/>
<polygon fill="black" stroke="black" points="478.41,-1085.47 487.48,-1079.99 476.98,-1078.62 478.41,-1085.47"/>
</g>
<!-- cage_423 -->
<g id="node18" class="node">
<title>cage_423</title>
<g id="a_node18"><a xlink:href="javascript:s=&quot;\(&#x27;example2&#x27;,\ &#x27;cage&#x27;,\ \(&#x27;hole&#x27;,\ 4\),\ &#x27;cage&#x27;\)\nCylinder&quot;; console.log(s); alert(s);" xlink:title="Cylinder">
<ellipse fill="none" stroke="black" cx="531.42" cy="-1017" rx="27.1" ry="18"/>
<text text-anchor="middle" x="531.42" y="-1013.3" font-family="Times New Roman,serif" font-size="14.00">cage</text>
</a>
</g>
</g>
<!-- hole_422&#45;&gt;cage_423 -->
<g id="edge17" class="edge">
<title>hole_422&#45;&gt;cage_423</title>
<path fill="none" stroke="black" d="M445.53,-1017C461.14,-1017 478.53,-1017 493.49,-1017"/>
<polygon fill="black" stroke="black" points="493.89,-1020.5 503.89,-1017 493.89,-1013.5 493.89,-1020.5"/>
</g>
<!-- hinge_hole_424 -->
<g id="node19" class="node">
<title>hinge_hole_424</title>
<g id="a_node19"><a xlink:href="javascript:s=&quot;\(&#x27;example2&#x27;,\ &#x27;cage&#x27;,\ \(&#x27;hole&#x27;,\ 4\),\ &#x27;hinge_hole&#x27;\)\nRotateExtrude&quot;; console.log(s); alert(s);" xlink:title="RotateExtrude">
<ellipse fill="none" stroke="black" cx="531.42" cy="-963" rx="50.09" ry="18"/>
<text text-anchor="middle" x="531.42" y="-959.3" font-family="Times New Roman,serif" font-size="14.00">hinge_hole</text>
</a>
</g>
</g>
<!-- hole_422&#45;&gt;hinge_hole_424 -->
<g id="edge18" class="edge">
<title>hole_422&#45;&gt;hinge_hole_424</title>
<path fill="none" stroke="black" d="M432.07,-1004.2C448.94,-997.14 470.13,-988.26 488.52,-980.56"/>
<polygon fill="black" stroke="black" points="489.97,-983.74 497.84,-976.65 487.27,-977.29 489.97,-983.74"/>
</g>
<!-- cage_426 -->
<g id="node21" class="node">
<title>cage_426</title>
<g id="a_node21"><a xlink:href="javascript:s=&quot;\(&#x27;example2&#x27;,\ &#x27;cage&#x27;,\ \(&#x27;hole&#x27;,\ 5\),\ &#x27;cage&#x27;\)\nCylinder&quot;; console.log(s); alert(s);" xlink:title="Cylinder">
<ellipse fill="none" stroke="black" cx="531.42" cy="-909" rx="27.1" ry="18"/>
<text text-anchor="middle" x="531.42" y="-905.3" font-family="Times New Roman,serif" font-size="14.00">cage</text>
</a>
</g>
</g>
<!-- hole_425&#45;&gt;cage_426 -->
<g id="edge20" class="edge">
<title>hole_425&#45;&gt;cage_426</title>
<path fill="none" stroke="black" d="M445.53,-909C461.14,-909 478.53,-909 493.49,-909"/>
<polygon fill="black" stroke="black" points="493.89,-912.5 503.89,-909 493.89,-905.5 493.89,-912.5"/>
</g>
<!-- hinge_hole_427 -->
<g id="node22" class="node">
<title>hinge_hole_427</title>
<g id="a_node22"><a xlink:href="javascript:s=&quot;\(&#x27;example2&#x27;,\ &#x27;cage&#x27;,\ \(&#x27;hole&#x27;,\ 5\),\ &#x27;hinge_hole&#x27;\)\nRotateExtrude&quot;; console.log(s); alert(s);" xlink:title="RotateExtrude">
<ellipse fill="none" stroke="black" cx="531.42" cy="-855" rx="50.09" ry="18"/>
<text text-anchor="middle" x="531.42" y="-851.3" font-family="Times New Roman,serif" font-size="14.00">hinge_hole</text>
</a>
</g>
</g>
<!-- hole_425&#45;&gt;hinge_hole_427 -->
<g id="edge21" class="edge">
<title>hole_425&#45;&gt;hinge_hole_427</title>
<path fill="none" stroke="black" d="M432.07,-896.2C448.94,-889.14 470.13,-880.26 488.52,-872.56"/>
<polygon fill="black" stroke="black" points="489.97,-875.74 497.84,-868.65 487.27,-869.29 489.97,-875.74"/>
</g>
<!-- cage_429 -->
<g id="node24" class="node">
<title>cage_429</title>
<g id="a_node24"><a xlink:href="javascript:s=&quot;\(&#x27;example2&#x27;,\ &#x27;cage&#x27;,\ \(&#x27;hole&#x27;,\ 6\),\ &#x27;cage&#x27;\)\nCylinder&quot;; console.log(s); alert(s);" xlink:title="Cylinder">
<ellipse fill="none" stroke="black" cx="531.42" cy="-801" rx="27.1" ry="18"/>
<text text-anchor="middle" x="531.42" y="-797.3" font-family="Times New Roman,serif" font-size="14.00">cage</text>
</a>
</g>
</g>
<!-- hole_428&#45;&gt;cage_429 -->
<g id="edge23" class="edge">
<title>hole_428&#45;&gt;cage_429</title>
<path fill="none" stroke="black" d="M440.55,-819.83C457.85,-816.2 478.07,-811.97 494.94,-808.43"/>
<polygon fill="black" stroke="black" points="495.89,-811.81 504.96,-806.33 494.45,-804.96 495.89,-811.81"/>
</g>
<!-- hinge_hole_430 -->
<g id="node25" class="node">
<title>hinge_hole_430</title>
<g id="a_node25"><a xlink:href="javascript:s=&quot;\(&#x27;example2&#x27;,\ &#x27;cage&#x27;,\ \(&#x27;hole&#x27;,\ 6\),\ &#x27;hinge_hole&#x27;\)\nRotateExtrude&quot;; console.log(s); alert(s);" xlink:title="RotateExtrude">
<ellipse fill="none" stroke="black" cx="531.42" cy="-747" rx="50.09" ry="18"/>
<text text-anchor="middle" x="531.42" y="-743.3" font-family="Times New Roman,serif" font-size="14.00">hinge_hole</text>
</a>
</g>
</g>
<!-- hole_428&#45;&gt;hinge_hole_430 -->
<g id="edge24" class="edge">
<title>hole_428&#45;&gt;hinge_hole_430</title>
<path fill="none" stroke="black" d="M426.36,-813.25C432.64,-809.38 439.32,-805.13 445.37,-801 461.91,-789.74 464.57,-784.85 481.37,-774 485.15,-771.56 489.16,-769.12 493.2,-766.76"/>
<polygon fill="black" stroke="black" points="495.05,-769.74 502.01,-761.76 491.59,-763.66 495.05,-769.74"/>
</g>
<!-- outer_432 -->
<g id="node27" class="node">
<title>outer_432</title>
<g id="a_node27"><a xlink:href="javascript:s=&quot;\(&#x27;example2&#x27;,\ \(&#x27;sleeve&#x27;,\ 1\),\ &#x27;outer&#x27;\)\nCylinder&quot;; console.log(s); alert(s);" xlink:title="Cylinder">
<ellipse fill="none" stroke="black" cx="400.53" cy="-774" rx="29.5" ry="18"/>
<text text-anchor="middle" x="400.53" y="-770.3" font-family="Times New Roman,serif" font-size="14.00">outer</text>
</a>
</g>
</g>
<!-- sleeve_431&#45;&gt;outer_432 -->
<g id="edge26" class="edge">
<title>sleeve_431&#45;&gt;outer_432</title>
<path fill="none" stroke="black" d="M293.8,-708.62C311.17,-719.42 334.82,-734.1 355.68,-747 360.44,-749.94 365.48,-753.05 370.39,-756.08"/>
<polygon fill="black" stroke="black" points="368.65,-759.11 379,-761.38 372.32,-753.15 368.65,-759.11"/>
</g>
<!-- inner_433 -->
<g id="node28" class="node">
<title>inner_433</title>
<g id="a_node28"><a xlink:href="javascript:s=&quot;\(&#x27;example2&#x27;,\ \(&#x27;sleeve&#x27;,\ 1\),\ &#x27;inner&#x27;\)\nCylinder&quot;; console.log(s); alert(s);" xlink:title="Cylinder">
<ellipse fill="none" stroke="black" cx="400.53" cy="-720" rx="28.7" ry="18"/>
<text text-anchor="middle" x="400.53" y="-716.3" font-family="Times New Roman,serif" font-size="14.00">inner</text>
</a>
</g>
</g>
<!-- sleeve_431&#45;&gt;inner_433 -->
<g id="edge27" class="edge">
<title>sleeve_431&#45;&gt;inner_433</title>
<path fill="none" stroke="black" d="M312.62,-702.07C329.06,-705.46 347.54,-709.27 363.22,-712.51"/>
<polygon fill="black" stroke="black" points="362.57,-715.95 373.07,-714.54 363.98,-709.09 362.57,-715.95"/>
</g>
<!-- sleeve_434 -->
<g id="node29" class="node">
<title>sleeve_434</title>
<g id="a_node29"><a xlink:href="javascript:s=&quot;\(&#x27;example2&#x27;,\ \(&#x27;sleeve&#x27;,\ 1\),\ &#x27;sleeve&#x27;\)\nLinearExtrude&quot;; console.log(s); alert(s);" xlink:title="LinearExtrude">
<ellipse fill="none" stroke="black" cx="400.53" cy="-666" rx="32.49" ry="18"/>
<text text-anchor="middle" x="400.53" y="-662.3" font-family="Times New Roman,serif" font-size="14.00">sleeve</text>
</a>
</g>
</g>
<!-- sleeve_431&#45;&gt;sleeve_434 -->
<g id="edge28" class="edge">
<title>sleeve_431&#45;&gt;sleeve_434</title>
<path fill="none" stroke="black" d="M312.62,-683.93C327.94,-680.77 345.03,-677.25 359.97,-674.16"/>
<polygon fill="black" stroke="black" points="360.84,-677.56 369.93,-672.11 359.43,-670.7 360.84,-677.56"/>
</g>
<!-- outer_436 -->
<g id="node31" class="node">
<title>outer_436</title>
<g id="a_node31"><a xlink:href="javascript:s=&quot;\(&#x27;example2&#x27;,\ \(&#x27;sleeve&#x27;,\ 3\),\ &#x27;outer&#x27;\)\nCylinder&quot;; console.log(s); alert(s);" xlink:title="Cylinder">
<ellipse fill="none" stroke="black" cx="400.53" cy="-612" rx="29.5" ry="18"/>
<text text-anchor="middle" x="400.53" y="-608.3" font-family="Times New Roman,serif" font-size="14.00">outer</text>
</a>
</g>
</g>
<!-- sleeve_435&#45;&gt;outer_436 -->
<g id="edge30" class="edge">
<title>sleeve_435&#45;&gt;outer_436</title>
<path fill="none" stroke="black" d="M293.8,-546.62C311.17,-557.42 334.82,-572.1 355.68,-585 360.44,-587.94 365.48,-591.05 370.39,-594.08"/>
<polygon fill="black" stroke="black" points="368.65,-597.11 379,-599.38 372.32,-591.15 368.65,-597.11"/>
</g>
<!-- inner_437 -->
<g id="node32" class="node">
<title>inner_437</title>
<g id="a_node32"><a xlink:href="javascript:s=&quot;\(&#x27;example2&#x27;,\ \(&#x27;sleeve&#x27;,\ 3\),\ &#x27;inner&#x27;\)\nCylinder&quot;; console.log(s); alert(s);" xlink:title="Cylinder">
<ellipse fill="none" stroke="black" cx="400.53" cy="-558" rx="28.7" ry="18"/>
<text text-anchor="middle" x="400.53" y="-554.3" font-family="Times New Roman,serif" font-size="14.00">inner</text>
</a>
</g>
</g>
<!-- sleeve_435&#45;&gt;inner_437 -->
<g id="edge31" class="edge">
<title>sleeve_435&#45;&gt;inner_437</title>
<path fill="none" stroke="black" d="M312.62,-540.07C329.06,-543.46 347.54,-547.27 363.22,-550.51"/>
<polygon fill="black" stroke="black" points="362.57,-553.95 373.07,-552.54 363.98,-547.09 362.57,-553.95"/>
</g>
<!-- sleeve_438 -->
<g id="node33" class="node">
<title>sleeve_438</title>
<g id="a_node33"><a xlink:href="javascript:s=&quot;\(&#x27;example2&#x27;,\ \(&#x27;sleeve&#x27;,\ 3\),\ &#x27;sleeve&#x27;\)\nLinearExtrude&quot;; console.log(s); alert(s);" xlink:title="LinearExtrude">
<ellipse fill="none" stroke="black" cx="400.53" cy="-504" rx="32.49" ry="18"/>
<text text-anchor="middle" x="400.53" y="-500.3" font-family="Times New Roman,serif" font-size="14.00">sleeve</text>
</a>
</g>
</g>
<!-- sleeve_435&#45;&gt;sleeve_438 -->
<g id="edge32" class="edge">
<title>sleeve_435&#45;&gt;sleeve_438</title>
<path fill="none" stroke="black" d="M312.62,-521.93C327.94,-518.77 345.03,-515.25 359.97,-512.16"/>
<polygon fill="black" stroke="black" points="360.84,-515.56 369.93,-510.11 359.43,-508.7 360.84,-515.56"/>
</g>
<!-- outer_440 -->
<g id="node35" class="node">
<title>outer_440</title>
<g id="a_node35"><a xlink:href="javascript:s=&quot;\(&#x27;example2&#x27;,\ \(&#x27;sleeve&#x27;,\ 5\),\ &#x27;outer&#x27;\)\nCylinder&quot;; console.log(s); alert(s);" xlink:title="Cylinder">
<ellipse fill="none" stroke="black" cx="400.53" cy="-450" rx="29.5" ry="18"/>
<text text-anchor="middle" x="400.53" y="-446.3" font-family="Times New Roman,serif" font-size="14.00">outer</text>
</a>
</g>
</g>
<!-- sleeve_439&#45;&gt;outer_440 -->
<g id="edge34" class="edge">
<title>sleeve_439&#45;&gt;outer_440</title>
<path fill="none" stroke="black" d="M312.62,-432.07C328.94,-435.43 347.27,-439.22 362.87,-442.44"/>
<polygon fill="black" stroke="black" points="362.18,-445.87 372.68,-444.46 363.6,-439.01 362.18,-445.87"/>
</g>
<!-- inner_441 -->
<g id="node36" class="node">
<title>inner_441</title>
<g id="a_node36"><a xlink:href="javascript:s=&quot;\(&#x27;example2&#x27;,\ \(&#x27;sleeve&#x27;,\ 5\),\ &#x27;inner&#x27;\)\nCylinder&quot;; console.log(s); alert(s);" xlink:title="Cylinder">
<ellipse fill="none" stroke="black" cx="400.53" cy="-396" rx="28.7" ry="18"/>
<text text-anchor="middle" x="400.53" y="-392.3" font-family="Times New Roman,serif" font-size="14.00">inner</text>
</a>
</g>
</g>
<!-- sleeve_439&#45;&gt;inner_441 -->
<g id="edge35" class="edge">
<title>sleeve_439&#45;&gt;inner_441</title>
<path fill="none" stroke="black" d="M312.62,-413.93C329.06,-410.54 347.54,-406.73 363.22,-403.49"/>
<polygon fill="black" stroke="black" points="363.98,-406.91 373.07,-401.46 362.57,-400.05 363.98,-406.91"/>
</g>
<!-- sleeve_442 -->
<g id="node37" class="node">
<title>sleeve_442</title>
<g id="a_node37"><a xlink:href="javascript:s=&quot;\(&#x27;example2&#x27;,\ \(&#x27;sleeve&#x27;,\ 5\),\ &#x27;sleeve&#x27;\)\nLinearExtrude&quot;; console.log(s); alert(s);" xlink:title="LinearExtrude">
<ellipse fill="none" stroke="black" cx="400.53" cy="-342" rx="32.49" ry="18"/>
<text text-anchor="middle" x="400.53" y="-338.3" font-family="Times New Roman,serif" font-size="14.00">sleeve</text>
</a>
</g>
</g>
<!-- sleeve_439&#45;&gt;sleeve_442 -->
<g id="edge36" class="edge">
<title>sleeve_439&#45;&gt;sleeve_442</title>
<path fill="none" stroke="black" d="M293.8,-407.38C311.17,-396.58 334.82,-381.9 355.68,-369 360.13,-366.25 364.84,-363.35 369.45,-360.5"/>
<polygon fill="black" stroke="black" points="371.43,-363.39 378.11,-355.17 367.76,-357.43 371.43,-363.39"/>
</g>
<!-- outer_444 -->
<g id="node39" class="node">
<title>outer_444</title>
<g id="a_node39"><a xlink:href="javascript:s=&quot;\(&#x27;example2&#x27;,\ \(&#x27;sleeve&#x27;,\ 7\),\ &#x27;outer&#x27;\)\nCylinder&quot;; console.log(s); alert(s);" xlink:title="Cylinder">
<ellipse fill="none" stroke="black" cx="400.53" cy="-288" rx="29.5" ry="18"/>
<text text-anchor="middle" x="400.53" y="-284.3" font-family="Times New Roman,serif" font-size="14.00">outer</text>
</a>
</g>
</g>
<!-- sleeve_443&#45;&gt;outer_444 -->
<g id="edge38" class="edge">
<title>sleeve_443&#45;&gt;outer_444</title>
<path fill="none" stroke="black" d="M312.62,-270.07C328.94,-273.43 347.27,-277.22 362.87,-280.44"/>
<polygon fill="black" stroke="black" points="362.18,-283.87 372.68,-282.46 363.6,-277.01 362.18,-283.87"/>
</g>
<!-- inner_445 -->
<g id="node40" class="node">
<title>inner_445</title>
<g id="a_node40"><a xlink:href="javascript:s=&quot;\(&#x27;example2&#x27;,\ \(&#x27;sleeve&#x27;,\ 7\),\ &#x27;inner&#x27;\)\nCylinder&quot;; console.log(s); alert(s);" xlink:title="Cylinder">
<ellipse fill="none" stroke="black" cx="400.53" cy="-234" rx="28.7" ry="18"/>
<text text-anchor="middle" x="400.53" y="-230.3" font-family="Times New Roman,serif" font-size="14.00">inner</text>
</a>
</g>
</g>
<!-- sleeve_443&#45;&gt;inner_445 -->
<g id="edge39" class="edge">
<title>sleeve_443&#45;&gt;inner_445</title>
<path fill="none" stroke="black" d="M312.62,-251.93C329.06,-248.54 347.54,-244.73 363.22,-241.49"/>
<polygon fill="black" stroke="black" points="363.98,-244.91 373.07,-239.46 362.57,-238.05 363.98,-244.91"/>
</g>
<!-- sleeve_446 -->
<g id="node41" class="node">
<title>sleeve_446</title>
<g id="a_node41"><a xlink:href="javascript:s=&quot;\(&#x27;example2&#x27;,\ \(&#x27;sleeve&#x27;,\ 7\),\ &#x27;sleeve&#x27;\)\nLinearExtrude&quot;; console.log(s); alert(s);" xlink:title="LinearExtrude">
<ellipse fill="none" stroke="black" cx="400.53" cy="-180" rx="32.49" ry="18"/>
<text text-anchor="middle" x="400.53" y="-176.3" font-family="Times New Roman,serif" font-size="14.00">sleeve</text>
</a>
</g>
</g>
<!-- sleeve_443&#45;&gt;sleeve_446 -->
<g id="edge40" class="edge">
<title>sleeve_443&#45;&gt;sleeve_446</title>
<path fill="none" stroke="black" d="M293.8,-245.38C311.17,-234.58 334.82,-219.9 355.68,-207 360.13,-204.25 364.84,-201.35 369.45,-198.5"/>
<polygon fill="black" stroke="black" points="371.43,-201.39 378.11,-193.17 367.76,-195.43 371.43,-201.39"/>
</g>
<!-- outer_448 -->
<g id="node43" class="node">
<title>outer_448</title>
<g id="a_node43"><a xlink:href="javascript:s=&quot;\(&#x27;example2&#x27;,\ &#x27;sleeve_top&#x27;,\ &#x27;outer&#x27;\)\nCylinder&quot;; console.log(s); alert(s);" xlink:title="Cylinder">
<ellipse fill="none" stroke="black" cx="400.53" cy="-126" rx="29.5" ry="18"/>
<text text-anchor="middle" x="400.53" y="-122.3" font-family="Times New Roman,serif" font-size="14.00">outer</text>
</a>
</g>
</g>
<!-- sleeve_top_447&#45;&gt;outer_448 -->
<g id="edge42" class="edge">
<title>sleeve_top_447&#45;&gt;outer_448</title>
<path fill="none" stroke="black" d="M311.53,-107.84C328.04,-111.25 346.73,-115.1 362.63,-118.39"/>
<polygon fill="black" stroke="black" points="362.12,-121.85 372.62,-120.45 363.54,-115 362.12,-121.85"/>
</g>
<!-- inner_449 -->
<g id="node44" class="node">
<title>inner_449</title>
<g id="a_node44"><a xlink:href="javascript:s=&quot;\(&#x27;example2&#x27;,\ &#x27;sleeve_top&#x27;,\ &#x27;inner&#x27;\)\nCylinder&quot;; console.log(s); alert(s);" xlink:title="Cylinder">
<ellipse fill="none" stroke="black" cx="400.53" cy="-72" rx="28.7" ry="18"/>
<text text-anchor="middle" x="400.53" y="-68.3" font-family="Times New Roman,serif" font-size="14.00">inner</text>
</a>
</g>
</g>
<!-- sleeve_top_447&#45;&gt;inner_449 -->
<g id="edge43" class="edge">
<title>sleeve_top_447&#45;&gt;inner_449</title>
<path fill="none" stroke="black" d="M311.53,-90.16C328.16,-86.73 347.01,-82.84 362.98,-79.54"/>
<polygon fill="black" stroke="black" points="363.93,-82.92 373.01,-77.47 362.51,-76.07 363.93,-82.92"/>
</g>
<!-- sleeve_450 -->
<g id="node45" class="node">
<title>sleeve_450</title>
<g id="a_node45"><a xlink:href="javascript:s=&quot;\(&#x27;example2&#x27;,\ &#x27;sleeve_top&#x27;,\ &#x27;sleeve&#x27;\)\nRotateExtrude&quot;; console.log(s); alert(s);" xlink:title="RotateExtrude">
<ellipse fill="none" stroke="black" cx="400.53" cy="-18" rx="32.49" ry="18"/>
<text text-anchor="middle" x="400.53" y="-14.3" font-family="Times New Roman,serif" font-size="14.00">sleeve</text>
</a>
</g>
</g>
<!-- sleeve_top_447&#45;&gt;sleeve_450 -->
<g id="edge44" class="edge">
<title>sleeve_top_447&#45;&gt;sleeve_450</title>
<path fill="none" stroke="black" d="M293.8,-83.38C311.17,-72.58 334.82,-57.9 355.68,-45 360.13,-42.25 364.84,-39.35 369.45,-36.5"/>
<polygon fill="black" stroke="black" points="371.43,-39.39 378.11,-31.17 367.76,-33.43 371.43,-39.39"/>
</g>
</g>
</svg>
