<?xml version="1.0" encoding="UTF-8" standalone="no"?>
<!DOCTYPE svg PUBLIC "-//W3C//DTD SVG 1.1//EN"
 "http://www.w3.org/Graphics/SVG/1.1/DTD/svg11.dtd">
<!-- Generated by graphviz version 5.0.0 (20220707.1540)
 -->
<!-- Title: default Pages: 1 -->
<svg width="430pt" height="746pt"
 viewBox="0.00 0.00 429.98 746.00" xmlns="http://www.w3.org/2000/svg" xmlns:xlink="http://www.w3.org/1999/xlink">
<g id="graph0" class="graph" transform="scale(1 1) rotate(0) translate(4 742)">
<title>default</title>
<polygon fill="white" stroke="transparent" points="-4,4 -4,-742 425.98,-742 425.98,4 -4,4"/>
<!-- root_241 -->
<g id="node1" class="node">
<title>root_241</title>
<g id="a_node1"><a xlink:href="javascript:s=&quot;\(\)\nNone&quot;; console.log(s); alert(s);" xlink:title="root">
<ellipse fill="none" stroke="black" cx="27" cy="-423" rx="27" ry="18"/>
<text text-anchor="middle" x="27" y="-419.3" font-family="Times New Roman,serif" font-size="14.00">root</text>
</a>
</g>
</g>
<!-- default_242 -->
<g id="node2" class="node">
<title>default_242</title>
<g id="a_node2"><a xlink:href="javascript:s=&quot;\(&#x27;default&#x27;,\)\nHingeBar&quot;; console.log(s); alert(s);" xlink:title="HingeBar">
<ellipse fill="none" stroke="black" cx="125.1" cy="-423" rx="35.19" ry="18"/>
<text text-anchor="middle" x="125.1" y="-419.3" font-family="Times New Roman,serif" font-size="14.00">default</text>
</a>
</g>
</g>
<!-- root_241&#45;&gt;default_242 -->
<g id="edge1" class="edge">
<title>root_241&#45;&gt;default_242</title>
<path fill="none" stroke="black" d="M54.01,-423C61.92,-423 70.84,-423 79.61,-423"/>
<polygon fill="black" stroke="black" points="79.76,-426.5 89.76,-423 79.76,-419.5 79.76,-426.5"/>
</g>
<!-- bar_243 -->
<g id="node3" class="node">
<title>bar_243</title>
<g id="a_node3"><a xlink:href="javascript:s=&quot;\(&#x27;default&#x27;,\ &#x27;bar&#x27;\)\nCylinder&quot;; console.log(s); alert(s);" xlink:title="Cylinder">
<ellipse fill="none" stroke="black" cx="241.04" cy="-693" rx="27" ry="18"/>
<text text-anchor="middle" x="241.04" y="-689.3" font-family="Times New Roman,serif" font-size="14.00">bar</text>
</a>
</g>
</g>
<!-- default_242&#45;&gt;bar_243 -->
<g id="edge2" class="edge">
<title>default_242&#45;&gt;bar_243</title>
<path fill="none" stroke="black" d="M126.95,-441.13C129.85,-484.37 142.4,-595.21 196.19,-666 199.71,-670.63 204.27,-674.64 209.11,-678.06"/>
<polygon fill="black" stroke="black" points="207.63,-681.27 217.97,-683.58 211.33,-675.32 207.63,-681.27"/>
</g>
<!-- hole_244 -->
<g id="node4" class="node">
<title>hole_244</title>
<g id="a_node4"><a xlink:href="javascript:s=&quot;\(&#x27;default&#x27;,\ \(&#x27;hole&#x27;,\ 0\)\)\nHingeHole&quot;; console.log(s); alert(s);" xlink:title="HingeHole">
<ellipse fill="none" stroke="black" cx="241.04" cy="-639" rx="44.69" ry="18"/>
<text text-anchor="middle" x="241.04" y="-635.3" font-family="Times New Roman,serif" font-size="14.00">(&#39;hole&#39;, 0)</text>
</a>
</g>
</g>
<!-- default_242&#45;&gt;hole_244 -->
<g id="edge3" class="edge">
<title>default_242&#45;&gt;hole_244</title>
<path fill="none" stroke="black" d="M131.98,-440.79C142.52,-471.46 166.32,-535.74 196.19,-585 202.33,-595.12 210.19,-605.4 217.56,-614.25"/>
<polygon fill="black" stroke="black" points="214.97,-616.59 224.13,-621.91 220.28,-612.04 214.97,-616.59"/>
</g>
<!-- hole_247 -->
<g id="node7" class="node">
<title>hole_247</title>
<g id="a_node7"><a xlink:href="javascript:s=&quot;\(&#x27;default&#x27;,\ \(&#x27;hole&#x27;,\ 1\)\)\nHingeHole&quot;; console.log(s); alert(s);" xlink:title="HingeHole">
<ellipse fill="none" stroke="black" cx="241.04" cy="-558" rx="44.69" ry="18"/>
<text text-anchor="middle" x="241.04" y="-554.3" font-family="Times New Roman,serif" font-size="14.00">(&#39;hole&#39;, 1)</text>
</a>
</g>
</g>
<!-- default_242&#45;&gt;hole_247 -->
<g id="edge6" class="edge">
<title>default_242&#45;&gt;hole_247</title>
<path fill="none" stroke="black" d="M140.07,-439.55C159.78,-462.91 195.91,-505.71 218.91,-532.97"/>
<polygon fill="black" stroke="black" points="216.47,-535.5 225.59,-540.89 221.82,-530.99 216.47,-535.5"/>
</g>
<!-- hole_250 -->
<g id="node10" class="node">
<title>hole_250</title>
<g id="a_node10"><a xlink:href="javascript:s=&quot;\(&#x27;default&#x27;,\ \(&#x27;hole&#x27;,\ 2\)\)\nHingeHole&quot;; console.log(s); alert(s);" xlink:title="HingeHole">
<ellipse fill="none" stroke="black" cx="241.04" cy="-450" rx="44.69" ry="18"/>
<text text-anchor="middle" x="241.04" y="-446.3" font-family="Times New Roman,serif" font-size="14.00">(&#39;hole&#39;, 2)</text>
</a>
</g>
</g>
<!-- default_242&#45;&gt;hole_250 -->
<g id="edge9" class="edge">
<title>default_242&#45;&gt;hole_250</title>
<path fill="none" stroke="black" d="M157.23,-430.38C168.04,-432.94 180.43,-435.87 192.27,-438.68"/>
<polygon fill="black" stroke="black" points="191.5,-442.1 202.04,-441 193.12,-435.28 191.5,-442.1"/>
</g>
<!-- hole_253 -->
<g id="node13" class="node">
<title>hole_253</title>
<g id="a_node13"><a xlink:href="javascript:s=&quot;\(&#x27;default&#x27;,\ \(&#x27;hole&#x27;,\ 3\)\)\nHingeHole&quot;; console.log(s); alert(s);" xlink:title="HingeHole">
<ellipse fill="none" stroke="black" cx="241.04" cy="-396" rx="44.69" ry="18"/>
<text text-anchor="middle" x="241.04" y="-392.3" font-family="Times New Roman,serif" font-size="14.00">(&#39;hole&#39;, 3)</text>
</a>
</g>
</g>
<!-- default_242&#45;&gt;hole_253 -->
<g id="edge12" class="edge">
<title>default_242&#45;&gt;hole_253</title>
<path fill="none" stroke="black" d="M157.23,-415.62C168.04,-413.06 180.43,-410.13 192.27,-407.32"/>
<polygon fill="black" stroke="black" points="193.12,-410.72 202.04,-405 191.5,-403.9 193.12,-410.72"/>
</g>
<!-- hole_256 -->
<g id="node16" class="node">
<title>hole_256</title>
<g id="a_node16"><a xlink:href="javascript:s=&quot;\(&#x27;default&#x27;,\ \(&#x27;hole&#x27;,\ 4\)\)\nHingeHole&quot;; console.log(s); alert(s);" xlink:title="HingeHole">
<ellipse fill="none" stroke="black" cx="241.04" cy="-288" rx="44.69" ry="18"/>
<text text-anchor="middle" x="241.04" y="-284.3" font-family="Times New Roman,serif" font-size="14.00">(&#39;hole&#39;, 4)</text>
</a>
</g>
</g>
<!-- default_242&#45;&gt;hole_256 -->
<g id="edge15" class="edge">
<title>default_242&#45;&gt;hole_256</title>
<path fill="none" stroke="black" d="M140.07,-406.45C159.78,-383.09 195.91,-340.29 218.91,-313.03"/>
<polygon fill="black" stroke="black" points="221.82,-315.01 225.59,-305.11 216.47,-310.5 221.82,-315.01"/>
</g>
<!-- hole_259 -->
<g id="node19" class="node">
<title>hole_259</title>
<g id="a_node19"><a xlink:href="javascript:s=&quot;\(&#x27;default&#x27;,\ \(&#x27;hole&#x27;,\ 5\)\)\nHingeHole&quot;; console.log(s); alert(s);" xlink:title="HingeHole">
<ellipse fill="none" stroke="black" cx="241.04" cy="-180" rx="44.69" ry="18"/>
<text text-anchor="middle" x="241.04" y="-176.3" font-family="Times New Roman,serif" font-size="14.00">(&#39;hole&#39;, 5)</text>
</a>
</g>
</g>
<!-- default_242&#45;&gt;hole_259 -->
<g id="edge18" class="edge">
<title>default_242&#45;&gt;hole_259</title>
<path fill="none" stroke="black" d="M133.17,-405.27C145.29,-375.23 171.15,-312.54 196.19,-261 205.16,-242.54 216.16,-222.23 224.9,-206.56"/>
<polygon fill="black" stroke="black" points="228.16,-207.9 230.01,-197.47 222.06,-204.47 228.16,-207.9"/>
</g>
<!-- hole_262 -->
<g id="node22" class="node">
<title>hole_262</title>
<g id="a_node22"><a xlink:href="javascript:s=&quot;\(&#x27;default&#x27;,\ \(&#x27;hole&#x27;,\ 6\)\)\nHingeHole&quot;; console.log(s); alert(s);" xlink:title="HingeHole">
<ellipse fill="none" stroke="black" cx="241.04" cy="-72" rx="44.69" ry="18"/>
<text text-anchor="middle" x="241.04" y="-68.3" font-family="Times New Roman,serif" font-size="14.00">(&#39;hole&#39;, 6)</text>
</a>
</g>
</g>
<!-- default_242&#45;&gt;hole_262 -->
<g id="edge21" class="edge">
<title>default_242&#45;&gt;hole_262</title>
<path fill="none" stroke="black" d="M129.24,-404.84C137.2,-360.65 160.18,-244.48 196.19,-153 203.66,-134.02 214.57,-113.85 223.64,-98.39"/>
<polygon fill="black" stroke="black" points="226.88,-99.8 229,-89.42 220.87,-96.21 226.88,-99.8"/>
</g>
<!-- cage_245 -->
<g id="node5" class="node">
<title>cage_245</title>
<g id="a_node5"><a xlink:href="javascript:s=&quot;\(&#x27;default&#x27;,\ \(&#x27;hole&#x27;,\ 0\),\ &#x27;cage&#x27;\)\nCylinder&quot;; console.log(s); alert(s);" xlink:title="Cylinder">
<ellipse fill="none" stroke="black" cx="371.93" cy="-720" rx="27.1" ry="18"/>
<text text-anchor="middle" x="371.93" y="-716.3" font-family="Times New Roman,serif" font-size="14.00">cage</text>
</a>
</g>
</g>
<!-- hole_244&#45;&gt;cage_245 -->
<g id="edge4" class="edge">
<title>hole_244&#45;&gt;cage_245</title>
<path fill="none" stroke="black" d="M266.87,-653.75C273.15,-657.62 279.83,-661.87 285.89,-666 302.42,-677.26 305.08,-682.15 321.89,-693 327.81,-696.83 334.32,-700.65 340.6,-704.17"/>
<polygon fill="black" stroke="black" points="339.1,-707.34 349.55,-709.07 342.46,-701.2 339.1,-707.34"/>
</g>
<!-- hinge_hole_246 -->
<g id="node6" class="node">
<title>hinge_hole_246</title>
<g id="a_node6"><a xlink:href="javascript:s=&quot;\(&#x27;default&#x27;,\ \(&#x27;hole&#x27;,\ 0\),\ &#x27;hinge_hole&#x27;\)\nRotateExtrude&quot;; console.log(s); alert(s);" xlink:title="RotateExtrude">
<ellipse fill="none" stroke="black" cx="371.93" cy="-666" rx="50.09" ry="18"/>
<text text-anchor="middle" x="371.93" y="-662.3" font-family="Times New Roman,serif" font-size="14.00">hinge_hole</text>
</a>
</g>
</g>
<!-- hole_244&#45;&gt;hinge_hole_246 -->
<g id="edge5" class="edge">
<title>hole_244&#45;&gt;hinge_hole_246</title>
<path fill="none" stroke="black" d="M281.06,-647.17C292.75,-649.62 305.78,-652.35 318.2,-654.95"/>
<polygon fill="black" stroke="black" points="317.49,-658.38 328,-657.01 318.93,-651.53 317.49,-658.38"/>
</g>
<!-- cage_248 -->
<g id="node8" class="node">
<title>cage_248</title>
<g id="a_node8"><a xlink:href="javascript:s=&quot;\(&#x27;default&#x27;,\ \(&#x27;hole&#x27;,\ 1\),\ &#x27;cage&#x27;\)\nCylinder&quot;; console.log(s); alert(s);" xlink:title="Cylinder">
<ellipse fill="none" stroke="black" cx="371.93" cy="-612" rx="27.1" ry="18"/>
<text text-anchor="middle" x="371.93" y="-608.3" font-family="Times New Roman,serif" font-size="14.00">cage</text>
</a>
</g>
</g>
<!-- hole_247&#45;&gt;cage_248 -->
<g id="edge7" class="edge">
<title>hole_247&#45;&gt;cage_248</title>
<path fill="none" stroke="black" d="M272.59,-570.8C292.55,-579.16 318.57,-590.06 338.83,-598.55"/>
<polygon fill="black" stroke="black" points="337.69,-601.87 348.27,-602.51 340.4,-595.41 337.69,-601.87"/>
</g>
<!-- hinge_hole_249 -->
<g id="node9" class="node">
<title>hinge_hole_249</title>
<g id="a_node9"><a xlink:href="javascript:s=&quot;\(&#x27;default&#x27;,\ \(&#x27;hole&#x27;,\ 1\),\ &#x27;hinge_hole&#x27;\)\nRotateExtrude&quot;; console.log(s); alert(s);" xlink:title="RotateExtrude">
<ellipse fill="none" stroke="black" cx="371.93" cy="-558" rx="50.09" ry="18"/>
<text text-anchor="middle" x="371.93" y="-554.3" font-family="Times New Roman,serif" font-size="14.00">hinge_hole</text>
</a>
</g>
</g>
<!-- hole_247&#45;&gt;hinge_hole_249 -->
<g id="edge8" class="edge">
<title>hole_247&#45;&gt;hinge_hole_249</title>
<path fill="none" stroke="black" d="M286.04,-558C294.32,-558 303.1,-558 311.76,-558"/>
<polygon fill="black" stroke="black" points="311.83,-561.5 321.83,-558 311.83,-554.5 311.83,-561.5"/>
</g>
<!-- cage_251 -->
<g id="node11" class="node">
<title>cage_251</title>
<g id="a_node11"><a xlink:href="javascript:s=&quot;\(&#x27;default&#x27;,\ \(&#x27;hole&#x27;,\ 2\),\ &#x27;cage&#x27;\)\nCylinder&quot;; console.log(s); alert(s);" xlink:title="Cylinder">
<ellipse fill="none" stroke="black" cx="371.93" cy="-504" rx="27.1" ry="18"/>
<text text-anchor="middle" x="371.93" y="-500.3" font-family="Times New Roman,serif" font-size="14.00">cage</text>
</a>
</g>
</g>
<!-- hole_250&#45;&gt;cage_251 -->
<g id="edge10" class="edge">
<title>hole_250&#45;&gt;cage_251</title>
<path fill="none" stroke="black" d="M272.59,-462.8C292.55,-471.16 318.57,-482.06 338.83,-490.55"/>
<polygon fill="black" stroke="black" points="337.69,-493.87 348.27,-494.51 340.4,-487.41 337.69,-493.87"/>
</g>
<!-- hinge_hole_252 -->
<g id="node12" class="node">
<title>hinge_hole_252</title>
<g id="a_node12"><a xlink:href="javascript:s=&quot;\(&#x27;default&#x27;,\ \(&#x27;hole&#x27;,\ 2\),\ &#x27;hinge_hole&#x27;\)\nRotateExtrude&quot;; console.log(s); alert(s);" xlink:title="RotateExtrude">
<ellipse fill="none" stroke="black" cx="371.93" cy="-450" rx="50.09" ry="18"/>
<text text-anchor="middle" x="371.93" y="-446.3" font-family="Times New Roman,serif" font-size="14.00">hinge_hole</text>
</a>
</g>
</g>
<!-- hole_250&#45;&gt;hinge_hole_252 -->
<g id="edge11" class="edge">
<title>hole_250&#45;&gt;hinge_hole_252</title>
<path fill="none" stroke="black" d="M286.04,-450C294.32,-450 303.1,-450 311.76,-450"/>
<polygon fill="black" stroke="black" points="311.83,-453.5 321.83,-450 311.83,-446.5 311.83,-453.5"/>
</g>
<!-- cage_254 -->
<g id="node14" class="node">
<title>cage_254</title>
<g id="a_node14"><a xlink:href="javascript:s=&quot;\(&#x27;default&#x27;,\ \(&#x27;hole&#x27;,\ 3\),\ &#x27;cage&#x27;\)\nCylinder&quot;; console.log(s); alert(s);" xlink:title="Cylinder">
<ellipse fill="none" stroke="black" cx="371.93" cy="-396" rx="27.1" ry="18"/>
<text text-anchor="middle" x="371.93" y="-392.3" font-family="Times New Roman,serif" font-size="14.00">cage</text>
</a>
</g>
</g>
<!-- hole_253&#45;&gt;cage_254 -->
<g id="edge13" class="edge">
<title>hole_253&#45;&gt;cage_254</title>
<path fill="none" stroke="black" d="M286.04,-396C301.65,-396 319.04,-396 334,-396"/>
<polygon fill="black" stroke="black" points="334.4,-399.5 344.4,-396 334.4,-392.5 334.4,-399.5"/>
</g>
<!-- hinge_hole_255 -->
<g id="node15" class="node">
<title>hinge_hole_255</title>
<g id="a_node15"><a xlink:href="javascript:s=&quot;\(&#x27;default&#x27;,\ \(&#x27;hole&#x27;,\ 3\),\ &#x27;hinge_hole&#x27;\)\nRotateExtrude&quot;; console.log(s); alert(s);" xlink:title="RotateExtrude">
<ellipse fill="none" stroke="black" cx="371.93" cy="-342" rx="50.09" ry="18"/>
<text text-anchor="middle" x="371.93" y="-338.3" font-family="Times New Roman,serif" font-size="14.00">hinge_hole</text>
</a>
</g>
</g>
<!-- hole_253&#45;&gt;hinge_hole_255 -->
<g id="edge14" class="edge">
<title>hole_253&#45;&gt;hinge_hole_255</title>
<path fill="none" stroke="black" d="M272.59,-383.2C289.45,-376.14 310.64,-367.26 329.03,-359.56"/>
<polygon fill="black" stroke="black" points="330.48,-362.74 338.35,-355.65 327.78,-356.29 330.48,-362.74"/>
</g>
<!-- cage_257 -->
<g id="node17" class="node">
<title>cage_257</title>
<g id="a_node17"><a xlink:href="javascript:s=&quot;\(&#x27;default&#x27;,\ \(&#x27;hole&#x27;,\ 4\),\ &#x27;cage&#x27;\)\nCylinder&quot;; console.log(s); alert(s);" xlink:title="Cylinder">
<ellipse fill="none" stroke="black" cx="371.93" cy="-288" rx="27.1" ry="18"/>
<text text-anchor="middle" x="371.93" y="-284.3" font-family="Times New Roman,serif" font-size="14.00">cage</text>
</a>
</g>
</g>
<!-- hole_256&#45;&gt;cage_257 -->
<g id="edge16" class="edge">
<title>hole_256&#45;&gt;cage_257</title>
<path fill="none" stroke="black" d="M286.04,-288C301.65,-288 319.04,-288 334,-288"/>
<polygon fill="black" stroke="black" points="334.4,-291.5 344.4,-288 334.4,-284.5 334.4,-291.5"/>
</g>
<!-- hinge_hole_258 -->
<g id="node18" class="node">
<title>hinge_hole_258</title>
<g id="a_node18"><a xlink:href="javascript:s=&quot;\(&#x27;default&#x27;,\ \(&#x27;hole&#x27;,\ 4\),\ &#x27;hinge_hole&#x27;\)\nRotateExtrude&quot;; console.log(s); alert(s);" xlink:title="RotateExtrude">
<ellipse fill="none" stroke="black" cx="371.93" cy="-234" rx="50.09" ry="18"/>
<text text-anchor="middle" x="371.93" y="-230.3" font-family="Times New Roman,serif" font-size="14.00">hinge_hole</text>
</a>
</g>
</g>
<!-- hole_256&#45;&gt;hinge_hole_258 -->
<g id="edge17" class="edge">
<title>hole_256&#45;&gt;hinge_hole_258</title>
<path fill="none" stroke="black" d="M272.59,-275.2C289.45,-268.14 310.64,-259.26 329.03,-251.56"/>
<polygon fill="black" stroke="black" points="330.48,-254.74 338.35,-247.65 327.78,-248.29 330.48,-254.74"/>
</g>
<!-- cage_260 -->
<g id="node20" class="node">
<title>cage_260</title>
<g id="a_node20"><a xlink:href="javascript:s=&quot;\(&#x27;default&#x27;,\ \(&#x27;hole&#x27;,\ 5\),\ &#x27;cage&#x27;\)\nCylinder&quot;; console.log(s); alert(s);" xlink:title="Cylinder">
<ellipse fill="none" stroke="black" cx="371.93" cy="-180" rx="27.1" ry="18"/>
<text text-anchor="middle" x="371.93" y="-176.3" font-family="Times New Roman,serif" font-size="14.00">cage</text>
</a>
</g>
</g>
<!-- hole_259&#45;&gt;cage_260 -->
<g id="edge19" class="edge">
<title>hole_259&#45;&gt;cage_260</title>
<path fill="none" stroke="black" d="M286.04,-180C301.65,-180 319.04,-180 334,-180"/>
<polygon fill="black" stroke="black" points="334.4,-183.5 344.4,-180 334.4,-176.5 334.4,-183.5"/>
</g>
<!-- hinge_hole_261 -->
<g id="node21" class="node">
<title>hinge_hole_261</title>
<g id="a_node21"><a xlink:href="javascript:s=&quot;\(&#x27;default&#x27;,\ \(&#x27;hole&#x27;,\ 5\),\ &#x27;hinge_hole&#x27;\)\nRotateExtrude&quot;; console.log(s); alert(s);" xlink:title="RotateExtrude">
<ellipse fill="none" stroke="black" cx="371.93" cy="-126" rx="50.09" ry="18"/>
<text text-anchor="middle" x="371.93" y="-122.3" font-family="Times New Roman,serif" font-size="14.00">hinge_hole</text>
</a>
</g>
</g>
<!-- hole_259&#45;&gt;hinge_hole_261 -->
<g id="edge20" class="edge">
<title>hole_259&#45;&gt;hinge_hole_261</title>
<path fill="none" stroke="black" d="M272.59,-167.2C289.45,-160.14 310.64,-151.26 329.03,-143.56"/>
<polygon fill="black" stroke="black" points="330.48,-146.74 338.35,-139.65 327.78,-140.29 330.48,-146.74"/>
</g>
<!-- cage_263 -->
<g id="node23" class="node">
<title>cage_263</title>
<g id="a_node23"><a xlink:href="javascript:s=&quot;\(&#x27;default&#x27;,\ \(&#x27;hole&#x27;,\ 6\),\ &#x27;cage&#x27;\)\nCylinder&quot;; console.log(s); alert(s);" xlink:title="Cylinder">
<ellipse fill="none" stroke="black" cx="371.93" cy="-72" rx="27.1" ry="18"/>
<text text-anchor="middle" x="371.93" y="-68.3" font-family="Times New Roman,serif" font-size="14.00">cage</text>
</a>
</g>
</g>
<!-- hole_262&#45;&gt;cage_263 -->
<g id="edge22" class="edge">
<title>hole_262&#45;&gt;cage_263</title>
<path fill="none" stroke="black" d="M286.04,-72C301.65,-72 319.04,-72 334,-72"/>
<polygon fill="black" stroke="black" points="334.4,-75.5 344.4,-72 334.4,-68.5 334.4,-75.5"/>
</g>
<!-- hinge_hole_264 -->
<g id="node24" class="node">
<title>hinge_hole_264</title>
<g id="a_node24"><a xlink:href="javascript:s=&quot;\(&#x27;default&#x27;,\ \(&#x27;hole&#x27;,\ 6\),\ &#x27;hinge_hole&#x27;\)\nRotateExtrude&quot;; console.log(s); alert(s);" xlink:title="RotateExtrude">
<ellipse fill="none" stroke="black" cx="371.93" cy="-18" rx="50.09" ry="18"/>
<text text-anchor="middle" x="371.93" y="-14.3" font-family="Times New Roman,serif" font-size="14.00">hinge_hole</text>
</a>
</g>
</g>
<!-- hole_262&#45;&gt;hinge_hole_264 -->
<g id="edge23" class="edge">
<title>hole_262&#45;&gt;hinge_hole_264</title>
<path fill="none" stroke="black" d="M272.59,-59.2C289.45,-52.14 310.64,-43.26 329.03,-35.56"/>
<polygon fill="black" stroke="black" points="330.48,-38.74 338.35,-31.65 327.78,-32.29 330.48,-38.74"/>
</g>
</g>
</svg>
