<?xml version="1.0" encoding="UTF-8" standalone="no"?>
<!DOCTYPE svg PUBLIC "-//W3C//DTD SVG 1.1//EN"
 "http://www.w3.org/Graphics/SVG/1.1/DTD/svg11.dtd">
<!-- Generated by graphviz version 5.0.0 (20220707.1540)
 -->
<!-- Title: default Pages: 1 -->
<svg width="517pt" height="368pt"
 viewBox="0.00 0.00 516.67 368.00" xmlns="http://www.w3.org/2000/svg" xmlns:xlink="http://www.w3.org/1999/xlink">
<g id="graph0" class="graph" transform="scale(1 1) rotate(0) translate(4 364)">
<title>default</title>
<polygon fill="white" stroke="transparent" points="-4,4 -4,-364 512.67,-364 512.67,4 -4,4"/>
<!-- root_788 -->
<g id="node1" class="node">
<title>root_788</title>
<g id="a_node1"><a xlink:href="javascript:s=&quot;\(\)\nNone&quot;; console.log(s); alert(s);" xlink:title="root">
<ellipse fill="none" stroke="black" cx="27" cy="-207" rx="27" ry="18"/>
<text text-anchor="middle" x="27" y="-203.3" font-family="Times New Roman,serif" font-size="14.00">root</text>
</a>
</g>
</g>
<!-- default_789 -->
<g id="node2" class="node">
<title>default_789</title>
<g id="a_node2"><a xlink:href="javascript:s=&quot;\(&#x27;default&#x27;,\)\nHingeHole&quot;; console.log(s); alert(s);" xlink:title="HingeHole">
<ellipse fill="none" stroke="black" cx="126.4" cy="-288" rx="35.19" ry="18"/>
<text text-anchor="middle" x="126.4" y="-284.3" font-family="Times New Roman,serif" font-size="14.00">default</text>
</a>
</g>
</g>
<!-- root_788&#45;&gt;default_789 -->
<g id="edge1" class="edge">
<title>root_788&#45;&gt;default_789</title>
<path fill="none" stroke="black" d="M44.52,-220.74C59.45,-233.15 81.67,-251.64 99.05,-266.09"/>
<polygon fill="black" stroke="black" points="97.21,-269.11 107.13,-272.81 101.68,-263.73 97.21,-269.11"/>
</g>
<!-- 792 -->
<g id="node5" class="node">
<title>792</title>
<g id="a_node5"><a xlink:href="javascript:s=&quot;\(&quot;&#x27;base&#x27;,\ &quot;,\)\nAnnotatedCoordinates&quot;; console.log(s); alert(s);" xlink:title="AnnotatedCoordinates">
<ellipse fill="none" stroke="black" cx="126.4" cy="-153" rx="36.29" ry="18"/>
<text text-anchor="middle" x="126.4" y="-149.3" font-family="Times New Roman,serif" font-size="14.00">&#39;base&#39;, </text>
</a>
</g>
</g>
<!-- root_788&#45;&gt;792 -->
<g id="edge4" class="edge">
<title>root_788&#45;&gt;792</title>
<path fill="none" stroke="black" d="M48.18,-195.81C61.01,-188.7 77.91,-179.33 92.63,-171.17"/>
<polygon fill="black" stroke="black" points="94.41,-174.18 101.46,-166.27 91.02,-168.06 94.41,-174.18"/>
</g>
<!-- cage_790 -->
<g id="node3" class="node">
<title>cage_790</title>
<g id="a_node3"><a xlink:href="javascript:s=&quot;\(&#x27;default&#x27;,\ &#x27;cage&#x27;\)\nCylinder&quot;; console.log(s); alert(s);" xlink:title="Cylinder">
<ellipse fill="none" stroke="black" cx="248.84" cy="-342" rx="27.1" ry="18"/>
<text text-anchor="middle" x="248.84" y="-338.3" font-family="Times New Roman,serif" font-size="14.00">cage</text>
</a>
</g>
</g>
<!-- default_789&#45;&gt;cage_790 -->
<g id="edge2" class="edge">
<title>default_789&#45;&gt;cage_790</title>
<path fill="none" stroke="black" d="M153.53,-299.72C172.08,-308.03 197.07,-319.24 216.66,-328.02"/>
<polygon fill="black" stroke="black" points="215.24,-331.22 225.79,-332.12 218.1,-324.83 215.24,-331.22"/>
</g>
<!-- hinge_hole_791 -->
<g id="node4" class="node">
<title>hinge_hole_791</title>
<g id="a_node4"><a xlink:href="javascript:s=&quot;\(&#x27;default&#x27;,\ &#x27;hinge_hole&#x27;\)\nRotateExtrude&quot;; console.log(s); alert(s);" xlink:title="RotateExtrude">
<ellipse fill="none" stroke="black" cx="248.84" cy="-288" rx="50.09" ry="18"/>
<text text-anchor="middle" x="248.84" y="-284.3" font-family="Times New Roman,serif" font-size="14.00">hinge_hole</text>
</a>
</g>
</g>
<!-- default_789&#45;&gt;hinge_hole_791 -->
<g id="edge3" class="edge">
<title>default_789&#45;&gt;hinge_hole_791</title>
<path fill="none" stroke="black" d="M161.59,-288C170.07,-288 179.4,-288 188.69,-288"/>
<polygon fill="black" stroke="black" points="188.73,-291.5 198.73,-288 188.73,-284.5 188.73,-291.5"/>
</g>
<!-- coords_793 -->
<g id="node6" class="node">
<title>coords_793</title>
<g id="a_node6"><a xlink:href="javascript:s=&quot;\(&quot;&#x27;base&#x27;,\ &quot;,\ &#x27;coords&#x27;\)\nCoordinates&quot;; console.log(s); alert(s);" xlink:title="Coordinates">
<ellipse fill="none" stroke="black" cx="248.84" cy="-234" rx="36.29" ry="18"/>
<text text-anchor="middle" x="248.84" y="-230.3" font-family="Times New Roman,serif" font-size="14.00">coords</text>
</a>
</g>
</g>
<!-- 792&#45;&gt;coords_793 -->
<g id="edge5" class="edge">
<title>792&#45;&gt;coords_793</title>
<path fill="none" stroke="black" d="M145.95,-168.21C160.06,-179.47 180.15,-194.91 198.79,-207 203.58,-210.11 208.76,-213.21 213.89,-216.15"/>
<polygon fill="black" stroke="black" points="212.55,-219.41 222.98,-221.22 215.96,-213.29 212.55,-219.41"/>
</g>
<!-- x_804 -->
<g id="node17" class="node">
<title>x_804</title>
<g id="a_node17"><a xlink:href="javascript:s=&quot;\(&quot;&#x27;base&#x27;,\ &quot;,\ &#x27;x&#x27;\)\nText&quot;; console.log(s); alert(s);" xlink:title="Text">
<ellipse fill="none" stroke="black" cx="248.84" cy="-180" rx="27" ry="18"/>
<text text-anchor="middle" x="248.84" y="-176.3" font-family="Times New Roman,serif" font-size="14.00">x</text>
</a>
</g>
</g>
<!-- 792&#45;&gt;x_804 -->
<g id="edge16" class="edge">
<title>792&#45;&gt;x_804</title>
<path fill="none" stroke="black" d="M159.99,-160.31C176.38,-163.98 196.24,-168.43 212.94,-172.18"/>
<polygon fill="black" stroke="black" points="212.34,-175.63 222.86,-174.4 213.87,-168.8 212.34,-175.63"/>
</g>
<!-- y_805 -->
<g id="node18" class="node">
<title>y_805</title>
<g id="a_node18"><a xlink:href="javascript:s=&quot;\(&quot;&#x27;base&#x27;,\ &quot;,\ &#x27;y&#x27;\)\nText&quot;; console.log(s); alert(s);" xlink:title="Text">
<ellipse fill="none" stroke="black" cx="248.84" cy="-126" rx="27" ry="18"/>
<text text-anchor="middle" x="248.84" y="-122.3" font-family="Times New Roman,serif" font-size="14.00">y</text>
</a>
</g>
</g>
<!-- 792&#45;&gt;y_805 -->
<g id="edge17" class="edge">
<title>792&#45;&gt;y_805</title>
<path fill="none" stroke="black" d="M159.99,-145.69C176.38,-142.02 196.24,-137.57 212.94,-133.82"/>
<polygon fill="black" stroke="black" points="213.87,-137.2 222.86,-131.6 212.34,-130.37 213.87,-137.2"/>
</g>
<!-- z_806 -->
<g id="node19" class="node">
<title>z_806</title>
<g id="a_node19"><a xlink:href="javascript:s=&quot;\(&quot;&#x27;base&#x27;,\ &quot;,\ &#x27;z&#x27;\)\nText&quot;; console.log(s); alert(s);" xlink:title="Text">
<ellipse fill="none" stroke="black" cx="248.84" cy="-72" rx="27" ry="18"/>
<text text-anchor="middle" x="248.84" y="-68.3" font-family="Times New Roman,serif" font-size="14.00">z</text>
</a>
</g>
</g>
<!-- 792&#45;&gt;z_806 -->
<g id="edge18" class="edge">
<title>792&#45;&gt;z_806</title>
<path fill="none" stroke="black" d="M145.95,-137.79C160.06,-126.53 180.15,-111.09 198.79,-99 204.82,-95.09 211.46,-91.19 217.84,-87.61"/>
<polygon fill="black" stroke="black" points="219.83,-90.52 226.93,-82.65 216.48,-84.37 219.83,-90.52"/>
</g>
<!-- label_807 -->
<g id="node20" class="node">
<title>label_807</title>
<g id="a_node20"><a xlink:href="javascript:s=&quot;\(&quot;&#x27;base&#x27;,\ &quot;,\ &#x27;label&#x27;\)\nText&quot;; console.log(s); alert(s);" xlink:title="Text">
<ellipse fill="none" stroke="black" cx="248.84" cy="-18" rx="27.1" ry="18"/>
<text text-anchor="middle" x="248.84" y="-14.3" font-family="Times New Roman,serif" font-size="14.00">label</text>
</a>
</g>
</g>
<!-- 792&#45;&gt;label_807 -->
<g id="edge19" class="edge">
<title>792&#45;&gt;label_807</title>
<path fill="none" stroke="black" d="M135.63,-135.41C147.13,-112.34 169.88,-71.67 198.79,-45 203.98,-40.22 210.16,-35.98 216.37,-32.36"/>
<polygon fill="black" stroke="black" points="218.22,-35.34 225.35,-27.5 214.89,-29.18 218.22,-35.34"/>
</g>
<!-- origin_794 -->
<g id="node7" class="node">
<title>origin_794</title>
<g id="a_node7"><a xlink:href="javascript:s=&quot;\(&quot;&#x27;base&#x27;,\ &quot;,\ &#x27;coords&#x27;,\ &#x27;origin&#x27;\)\nCoordinatesCage&quot;; console.log(s); alert(s);" xlink:title="CoordinatesCage">
<ellipse fill="none" stroke="black" cx="375.83" cy="-315" rx="31.4" ry="18"/>
<text text-anchor="middle" x="375.83" y="-311.3" font-family="Times New Roman,serif" font-size="14.00">origin</text>
</a>
</g>
</g>
<!-- coords_793&#45;&gt;origin_794 -->
<g id="edge6" class="edge">
<title>coords_793&#45;&gt;origin_794</title>
<path fill="none" stroke="black" d="M274.68,-246.8C282.56,-251.09 291.21,-256.04 298.88,-261 315.69,-271.85 318.59,-276.4 334.88,-288 338.41,-290.51 342.15,-293.11 345.86,-295.66"/>
<polygon fill="black" stroke="black" points="344.14,-298.73 354.38,-301.46 348.08,-292.94 344.14,-298.73"/>
</g>
<!-- x_arrow_795 -->
<g id="node8" class="node">
<title>x_arrow_795</title>
<g id="a_node8"><a xlink:href="javascript:s=&quot;\(&quot;&#x27;base&#x27;,\ &quot;,\ &#x27;coords&#x27;,\ &#x27;x_arrow&#x27;\)\nArrow&quot;; console.log(s); alert(s);" xlink:title="Arrow">
<ellipse fill="none" stroke="black" cx="375.83" cy="-261" rx="40.89" ry="18"/>
<text text-anchor="middle" x="375.83" y="-257.3" font-family="Times New Roman,serif" font-size="14.00">x_arrow</text>
</a>
</g>
</g>
<!-- coords_793&#45;&gt;x_arrow_795 -->
<g id="edge7" class="edge">
<title>coords_793&#45;&gt;x_arrow_795</title>
<path fill="none" stroke="black" d="M282.35,-241.02C296.47,-244.07 313.27,-247.7 328.65,-251.03"/>
<polygon fill="black" stroke="black" points="328,-254.46 338.51,-253.16 329.48,-247.62 328,-254.46"/>
</g>
<!-- y_arrow_798 -->
<g id="node11" class="node">
<title>y_arrow_798</title>
<g id="a_node11"><a xlink:href="javascript:s=&quot;\(&quot;&#x27;base&#x27;,\ &quot;,\ &#x27;coords&#x27;,\ &#x27;y_arrow&#x27;\)\nArrow&quot;; console.log(s); alert(s);" xlink:title="Arrow">
<ellipse fill="none" stroke="black" cx="375.83" cy="-207" rx="40.89" ry="18"/>
<text text-anchor="middle" x="375.83" y="-203.3" font-family="Times New Roman,serif" font-size="14.00">y_arrow</text>
</a>
</g>
</g>
<!-- coords_793&#45;&gt;y_arrow_798 -->
<g id="edge10" class="edge">
<title>coords_793&#45;&gt;y_arrow_798</title>
<path fill="none" stroke="black" d="M282.35,-226.98C296.47,-223.93 313.27,-220.3 328.65,-216.97"/>
<polygon fill="black" stroke="black" points="329.48,-220.38 338.51,-214.84 328,-213.54 329.48,-220.38"/>
</g>
<!-- z_arrow_801 -->
<g id="node14" class="node">
<title>z_arrow_801</title>
<g id="a_node14"><a xlink:href="javascript:s=&quot;\(&quot;&#x27;base&#x27;,\ &quot;,\ &#x27;coords&#x27;,\ &#x27;z_arrow&#x27;\)\nArrow&quot;; console.log(s); alert(s);" xlink:title="Arrow">
<ellipse fill="none" stroke="black" cx="375.83" cy="-99" rx="40.09" ry="18"/>
<text text-anchor="middle" x="375.83" y="-95.3" font-family="Times New Roman,serif" font-size="14.00">z_arrow</text>
</a>
</g>
</g>
<!-- coords_793&#45;&gt;z_arrow_801 -->
<g id="edge13" class="edge">
<title>coords_793&#45;&gt;z_arrow_801</title>
<path fill="none" stroke="black" d="M276.49,-222.17C284.2,-218.02 292.3,-212.9 298.88,-207 325.26,-183.37 347.46,-148.93 360.92,-125.33"/>
<polygon fill="black" stroke="black" points="364,-126.99 365.81,-116.56 357.88,-123.59 364,-126.99"/>
</g>
<!-- stem_796 -->
<g id="node9" class="node">
<title>stem_796</title>
<g id="a_node9"><a xlink:href="javascript:s=&quot;\(&quot;&#x27;base&#x27;,\ &quot;,\ &#x27;coords&#x27;,\ &#x27;x_arrow&#x27;,\ &#x27;stem&#x27;\)\nCone&quot;; console.log(s); alert(s);" xlink:title="Cone">
<ellipse fill="none" stroke="black" cx="480.72" cy="-315" rx="27.9" ry="18"/>
<text text-anchor="middle" x="480.72" y="-311.3" font-family="Times New Roman,serif" font-size="14.00">stem</text>
</a>
</g>
</g>
<!-- x_arrow_795&#45;&gt;stem_796 -->
<g id="edge8" class="edge">
<title>x_arrow_795&#45;&gt;stem_796</title>
<path fill="none" stroke="black" d="M402.8,-274.63C416.96,-282.06 434.57,-291.3 449.36,-299.07"/>
<polygon fill="black" stroke="black" points="448.13,-302.37 458.62,-303.92 451.39,-296.18 448.13,-302.37"/>
</g>
<!-- head_797 -->
<g id="node10" class="node">
<title>head_797</title>
<g id="a_node10"><a xlink:href="javascript:s=&quot;\(&quot;&#x27;base&#x27;,\ &quot;,\ &#x27;coords&#x27;,\ &#x27;x_arrow&#x27;,\ &#x27;head&#x27;\)\nCone&quot;; console.log(s); alert(s);" xlink:title="Cone">
<ellipse fill="none" stroke="black" cx="480.72" cy="-261" rx="27.9" ry="18"/>
<text text-anchor="middle" x="480.72" y="-257.3" font-family="Times New Roman,serif" font-size="14.00">head</text>
</a>
</g>
</g>
<!-- x_arrow_795&#45;&gt;head_797 -->
<g id="edge9" class="edge">
<title>x_arrow_795&#45;&gt;head_797</title>
<path fill="none" stroke="black" d="M416.91,-261C425.32,-261 434.16,-261 442.46,-261"/>
<polygon fill="black" stroke="black" points="442.62,-264.5 452.62,-261 442.62,-257.5 442.62,-264.5"/>
</g>
<!-- stem_799 -->
<g id="node12" class="node">
<title>stem_799</title>
<g id="a_node12"><a xlink:href="javascript:s=&quot;\(&quot;&#x27;base&#x27;,\ &quot;,\ &#x27;coords&#x27;,\ &#x27;y_arrow&#x27;,\ &#x27;stem&#x27;\)\nCone&quot;; console.log(s); alert(s);" xlink:title="Cone">
<ellipse fill="none" stroke="black" cx="480.72" cy="-207" rx="27.9" ry="18"/>
<text text-anchor="middle" x="480.72" y="-203.3" font-family="Times New Roman,serif" font-size="14.00">stem</text>
</a>
</g>
</g>
<!-- y_arrow_798&#45;&gt;stem_799 -->
<g id="edge11" class="edge">
<title>y_arrow_798&#45;&gt;stem_799</title>
<path fill="none" stroke="black" d="M416.91,-207C425.32,-207 434.16,-207 442.46,-207"/>
<polygon fill="black" stroke="black" points="442.62,-210.5 452.62,-207 442.62,-203.5 442.62,-210.5"/>
</g>
<!-- head_800 -->
<g id="node13" class="node">
<title>head_800</title>
<g id="a_node13"><a xlink:href="javascript:s=&quot;\(&quot;&#x27;base&#x27;,\ &quot;,\ &#x27;coords&#x27;,\ &#x27;y_arrow&#x27;,\ &#x27;head&#x27;\)\nCone&quot;; console.log(s); alert(s);" xlink:title="Cone">
<ellipse fill="none" stroke="black" cx="480.72" cy="-153" rx="27.9" ry="18"/>
<text text-anchor="middle" x="480.72" y="-149.3" font-family="Times New Roman,serif" font-size="14.00">head</text>
</a>
</g>
</g>
<!-- y_arrow_798&#45;&gt;head_800 -->
<g id="edge12" class="edge">
<title>y_arrow_798&#45;&gt;head_800</title>
<path fill="none" stroke="black" d="M402.8,-193.37C416.96,-185.94 434.57,-176.7 449.36,-168.93"/>
<polygon fill="black" stroke="black" points="451.39,-171.82 458.62,-164.08 448.13,-165.63 451.39,-171.82"/>
</g>
<!-- stem_802 -->
<g id="node15" class="node">
<title>stem_802</title>
<g id="a_node15"><a xlink:href="javascript:s=&quot;\(&quot;&#x27;base&#x27;,\ &quot;,\ &#x27;coords&#x27;,\ &#x27;z_arrow&#x27;,\ &#x27;stem&#x27;\)\nCone&quot;; console.log(s); alert(s);" xlink:title="Cone">
<ellipse fill="none" stroke="black" cx="480.72" cy="-99" rx="27.9" ry="18"/>
<text text-anchor="middle" x="480.72" y="-95.3" font-family="Times New Roman,serif" font-size="14.00">stem</text>
</a>
</g>
</g>
<!-- z_arrow_801&#45;&gt;stem_802 -->
<g id="edge14" class="edge">
<title>z_arrow_801&#45;&gt;stem_802</title>
<path fill="none" stroke="black" d="M416.32,-99C424.94,-99 434.04,-99 442.57,-99"/>
<polygon fill="black" stroke="black" points="442.62,-102.5 452.62,-99 442.62,-95.5 442.62,-102.5"/>
</g>
<!-- head_803 -->
<g id="node16" class="node">
<title>head_803</title>
<g id="a_node16"><a xlink:href="javascript:s=&quot;\(&quot;&#x27;base&#x27;,\ &quot;,\ &#x27;coords&#x27;,\ &#x27;z_arrow&#x27;,\ &#x27;head&#x27;\)\nCone&quot;; console.log(s); alert(s);" xlink:title="Cone">
<ellipse fill="none" stroke="black" cx="480.72" cy="-45" rx="27.9" ry="18"/>
<text text-anchor="middle" x="480.72" y="-41.3" font-family="Times New Roman,serif" font-size="14.00">head</text>
</a>
</g>
</g>
<!-- z_arrow_801&#45;&gt;head_803 -->
<g id="edge15" class="edge">
<title>z_arrow_801&#45;&gt;head_803</title>
<path fill="none" stroke="black" d="M402.53,-85.51C416.83,-78.01 434.69,-68.63 449.64,-60.79"/>
<polygon fill="black" stroke="black" points="451.28,-63.88 458.51,-56.14 448.03,-57.68 451.28,-63.88"/>
</g>
</g>
</svg>
