<?xml version="1.0" encoding="UTF-8" standalone="no"?>
<!DOCTYPE svg PUBLIC "-//W3C//DTD SVG 1.1//EN"
 "http://www.w3.org/Graphics/SVG/1.1/DTD/svg11.dtd">
<!-- Generated by graphviz version 5.0.0 (20220707.1540)
 -->
<!-- Title: default Pages: 1 -->
<svg width="378pt" height="98pt"
 viewBox="0.00 0.00 377.98 98.00" xmlns="http://www.w3.org/2000/svg" xmlns:xlink="http://www.w3.org/1999/xlink">
<g id="graph0" class="graph" transform="scale(1 1) rotate(0) translate(4 94)">
<title>default</title>
<polygon fill="white" stroke="transparent" points="-4,4 -4,-94 373.98,-94 373.98,4 -4,4"/>
<!-- root_1 -->
<g id="node1" class="node">
<title>root_1</title>
<g id="a_node1"><a xlink:href="javascript:s=&quot;\(\)\nNone&quot;; console.log(s); alert(s);" xlink:title="root">
<ellipse fill="none" stroke="black" cx="27" cy="-45" rx="27" ry="18"/>
<text text-anchor="middle" x="27" y="-41.3" font-family="Times New Roman,serif" font-size="14.00">root</text>
</a>
</g>
</g>
<!-- default_2 -->
<g id="node2" class="node">
<title>default_2</title>
<g id="a_node2"><a xlink:href="javascript:s=&quot;\(&#x27;default&#x27;,\)\nSquareSphereOperation&quot;; console.log(s); alert(s);" xlink:title="SquareSphereOperation">
<ellipse fill="none" stroke="black" cx="125.1" cy="-45" rx="35.19" ry="18"/>
<text text-anchor="middle" x="125.1" y="-41.3" font-family="Times New Roman,serif" font-size="14.00">default</text>
</a>
</g>
</g>
<!-- root_1&#45;&gt;default_2 -->
<g id="edge1" class="edge">
<title>root_1&#45;&gt;default_2</title>
<path fill="none" stroke="black" d="M54.01,-45C61.92,-45 70.84,-45 79.61,-45"/>
<polygon fill="black" stroke="black" points="79.76,-48.5 89.76,-45 79.76,-41.5 79.76,-48.5"/>
</g>
<!-- overall_3 -->
<g id="node3" class="node">
<title>overall_3</title>
<g id="a_node3"><a xlink:href="javascript:s=&quot;\(&#x27;default&#x27;,\ &#x27;overall&#x27;\)\nMaker&quot;; console.log(s); alert(s);" xlink:title="Maker">
<ellipse fill="none" stroke="black" cx="230.64" cy="-45" rx="34.39" ry="18"/>
<text text-anchor="middle" x="230.64" y="-41.3" font-family="Times New Roman,serif" font-size="14.00">overall</text>
</a>
</g>
</g>
<!-- default_2&#45;&gt;overall_3 -->
<g id="edge2" class="edge">
<title>default_2&#45;&gt;overall_3</title>
<path fill="none" stroke="black" d="M160.29,-45C168.5,-45 177.37,-45 185.95,-45"/>
<polygon fill="black" stroke="black" points="186.19,-48.5 196.19,-45 186.19,-41.5 186.19,-48.5"/>
</g>
<!-- box_4 -->
<g id="node4" class="node">
<title>box_4</title>
<g id="a_node4"><a xlink:href="javascript:s=&quot;\(&#x27;default&#x27;,\ &#x27;overall&#x27;,\ &#x27;box&#x27;\)\nBox&quot;; console.log(s); alert(s);" xlink:title="Box">
<ellipse fill="none" stroke="black" cx="335.53" cy="-72" rx="27" ry="18"/>
<text text-anchor="middle" x="335.53" y="-68.3" font-family="Times New Roman,serif" font-size="14.00">box</text>
</a>
</g>
</g>
<!-- overall_3&#45;&gt;box_4 -->
<g id="edge3" class="edge">
<title>overall_3&#45;&gt;box_4</title>
<path fill="none" stroke="black" d="M261.68,-52.88C273.73,-56.04 287.68,-59.71 300.14,-62.97"/>
<polygon fill="black" stroke="black" points="299.61,-66.45 310.17,-65.61 301.38,-59.68 299.61,-66.45"/>
</g>
<!-- sphere_5 -->
<g id="node5" class="node">
<title>sphere_5</title>
<g id="a_node5"><a xlink:href="javascript:s=&quot;\(&#x27;default&#x27;,\ &#x27;overall&#x27;,\ &#x27;sphere&#x27;\)\nSphere&quot;; console.log(s); alert(s);" xlink:title="Sphere">
<ellipse fill="none" stroke="black" cx="335.53" cy="-18" rx="34.39" ry="18"/>
<text text-anchor="middle" x="335.53" y="-14.3" font-family="Times New Roman,serif" font-size="14.00">sphere</text>
</a>
</g>
</g>
<!-- overall_3&#45;&gt;sphere_5 -->
<g id="edge4" class="edge">
<title>overall_3&#45;&gt;sphere_5</title>
<path fill="none" stroke="black" d="M261.68,-37.12C271.94,-34.42 283.59,-31.37 294.51,-28.5"/>
<polygon fill="black" stroke="black" points="295.5,-31.86 304.28,-25.94 293.72,-25.09 295.5,-31.86"/>
</g>
</g>
</svg>
