<?xml version="1.0" encoding="UTF-8" standalone="no"?>
<!DOCTYPE svg PUBLIC "-//W3C//DTD SVG 1.1//EN"
 "http://www.w3.org/Graphics/SVG/1.1/DTD/svg11.dtd">
<!-- Generated by graphviz version 5.0.0 (20220707.1540)
 -->
<!-- Title: intersection Pages: 1 -->
<svg width="412pt" height="98pt"
 viewBox="0.00 0.00 411.78 98.00" xmlns="http://www.w3.org/2000/svg" xmlns:xlink="http://www.w3.org/1999/xlink">
<g id="graph0" class="graph" transform="scale(1 1) rotate(0) translate(4 94)">
<title>intersection</title>
<polygon fill="white" stroke="transparent" points="-4,4 -4,-94 407.78,-94 407.78,4 -4,4"/>
<!-- root_6 -->
<g id="node1" class="node">
<title>root_6</title>
<g id="a_node1"><a xlink:href="javascript:s=&quot;\(\)\nNone&quot;; console.log(s); alert(s);" xlink:title="root">
<ellipse fill="none" stroke="black" cx="27" cy="-45" rx="27" ry="18"/>
<text text-anchor="middle" x="27" y="-41.3" font-family="Times New Roman,serif" font-size="14.00">root</text>
</a>
</g>
</g>
<!-- intersection_7 -->
<g id="node2" class="node">
<title>intersection_7</title>
<g id="a_node2"><a xlink:href="javascript:s=&quot;\(&#x27;intersection&#x27;,\)\nSquareSphereOperation&quot;; console.log(s); alert(s);" xlink:title="SquareSphereOperation">
<ellipse fill="none" stroke="black" cx="142" cy="-45" rx="51.99" ry="18"/>
<text text-anchor="middle" x="142" y="-41.3" font-family="Times New Roman,serif" font-size="14.00">intersection</text>
</a>
</g>
</g>
<!-- root_6&#45;&gt;intersection_7 -->
<g id="edge1" class="edge">
<title>root_6&#45;&gt;intersection_7</title>
<path fill="none" stroke="black" d="M54.21,-45C61.88,-45 70.61,-45 79.51,-45"/>
<polygon fill="black" stroke="black" points="79.58,-48.5 89.58,-45 79.58,-41.5 79.58,-48.5"/>
</g>
<!-- overall_8 -->
<g id="node3" class="node">
<title>overall_8</title>
<g id="a_node3"><a xlink:href="javascript:s=&quot;\(&#x27;intersection&#x27;,\ &#x27;overall&#x27;\)\nMaker&quot;; console.log(s); alert(s);" xlink:title="Maker">
<ellipse fill="none" stroke="black" cx="264.44" cy="-45" rx="34.39" ry="18"/>
<text text-anchor="middle" x="264.44" y="-41.3" font-family="Times New Roman,serif" font-size="14.00">overall</text>
</a>
</g>
</g>
<!-- intersection_7&#45;&gt;overall_8 -->
<g id="edge2" class="edge">
<title>intersection_7&#45;&gt;overall_8</title>
<path fill="none" stroke="black" d="M194.07,-45C202.55,-45 211.27,-45 219.55,-45"/>
<polygon fill="black" stroke="black" points="219.74,-48.5 229.74,-45 219.74,-41.5 219.74,-48.5"/>
</g>
<!-- box_9 -->
<g id="node4" class="node">
<title>box_9</title>
<g id="a_node4"><a xlink:href="javascript:s=&quot;\(&#x27;intersection&#x27;,\ &#x27;overall&#x27;,\ &#x27;box&#x27;\)\nBox&quot;; console.log(s); alert(s);" xlink:title="Box">
<ellipse fill="none" stroke="black" cx="369.33" cy="-72" rx="27" ry="18"/>
<text text-anchor="middle" x="369.33" y="-68.3" font-family="Times New Roman,serif" font-size="14.00">box</text>
</a>
</g>
</g>
<!-- overall_8&#45;&gt;box_9 -->
<g id="edge3" class="edge">
<title>overall_8&#45;&gt;box_9</title>
<path fill="none" stroke="black" d="M295.48,-52.88C307.52,-56.04 321.48,-59.71 333.93,-62.97"/>
<polygon fill="black" stroke="black" points="333.4,-66.45 343.97,-65.61 335.18,-59.68 333.4,-66.45"/>
</g>
<!-- sphere_10 -->
<g id="node5" class="node">
<title>sphere_10</title>
<g id="a_node5"><a xlink:href="javascript:s=&quot;\(&#x27;intersection&#x27;,\ &#x27;overall&#x27;,\ &#x27;sphere&#x27;\)\nSphere&quot;; console.log(s); alert(s);" xlink:title="Sphere">
<ellipse fill="none" stroke="black" cx="369.33" cy="-18" rx="34.39" ry="18"/>
<text text-anchor="middle" x="369.33" y="-14.3" font-family="Times New Roman,serif" font-size="14.00">sphere</text>
</a>
</g>
</g>
<!-- overall_8&#45;&gt;sphere_10 -->
<g id="edge4" class="edge">
<title>overall_8&#45;&gt;sphere_10</title>
<path fill="none" stroke="black" d="M295.48,-37.12C305.74,-34.42 317.39,-31.37 328.31,-28.5"/>
<polygon fill="black" stroke="black" points="329.29,-31.86 338.08,-25.94 327.52,-25.09 329.29,-31.86"/>
</g>
</g>
</svg>
