<?xml version="1.0" encoding="UTF-8" standalone="no"?>
<!DOCTYPE svg PUBLIC "-//W3C//DTD SVG 1.1//EN"
 "http://www.w3.org/Graphics/SVG/1.1/DTD/svg11.dtd">
<!-- Generated by graphviz version 5.0.0 (20220707.1540)
 -->
<!-- Title: hull Pages: 1 -->
<svg width="362pt" height="98pt"
 viewBox="0.00 0.00 361.79 98.00" xmlns="http://www.w3.org/2000/svg" xmlns:xlink="http://www.w3.org/1999/xlink">
<g id="graph0" class="graph" transform="scale(1 1) rotate(0) translate(4 94)">
<title>hull</title>
<polygon fill="white" stroke="transparent" points="-4,4 -4,-94 357.79,-94 357.79,4 -4,4"/>
<!-- root_11 -->
<g id="node1" class="node">
<title>root_11</title>
<g id="a_node1"><a xlink:href="javascript:s=&quot;\(\)\nNone&quot;; console.log(s); alert(s);" xlink:title="root">
<ellipse fill="none" stroke="black" cx="27" cy="-45" rx="27" ry="18"/>
<text text-anchor="middle" x="27" y="-41.3" font-family="Times New Roman,serif" font-size="14.00">root</text>
</a>
</g>
</g>
<!-- hull_12 -->
<g id="node2" class="node">
<title>hull_12</title>
<g id="a_node2"><a xlink:href="javascript:s=&quot;\(&#x27;hull&#x27;,\)\nSquareSphereOperation&quot;; console.log(s); alert(s);" xlink:title="SquareSphereOperation">
<ellipse fill="none" stroke="black" cx="117" cy="-45" rx="27" ry="18"/>
<text text-anchor="middle" x="117" y="-41.3" font-family="Times New Roman,serif" font-size="14.00">hull</text>
</a>
</g>
</g>
<!-- root_11&#45;&gt;hull_12 -->
<g id="edge1" class="edge">
<title>root_11&#45;&gt;hull_12</title>
<path fill="none" stroke="black" d="M54.4,-45C62.39,-45 71.31,-45 79.82,-45"/>
<polygon fill="black" stroke="black" points="79.92,-48.5 89.92,-45 79.92,-41.5 79.92,-48.5"/>
</g>
<!-- overall_13 -->
<g id="node3" class="node">
<title>overall_13</title>
<g id="a_node3"><a xlink:href="javascript:s=&quot;\(&#x27;hull&#x27;,\ &#x27;overall&#x27;\)\nMaker&quot;; console.log(s); alert(s);" xlink:title="Maker">
<ellipse fill="none" stroke="black" cx="214.45" cy="-45" rx="34.39" ry="18"/>
<text text-anchor="middle" x="214.45" y="-41.3" font-family="Times New Roman,serif" font-size="14.00">overall</text>
</a>
</g>
</g>
<!-- hull_12&#45;&gt;overall_13 -->
<g id="edge2" class="edge">
<title>hull_12&#45;&gt;overall_13</title>
<path fill="none" stroke="black" d="M144.08,-45C152.02,-45 160.96,-45 169.73,-45"/>
<polygon fill="black" stroke="black" points="169.86,-48.5 179.86,-45 169.86,-41.5 169.86,-48.5"/>
</g>
<!-- box_14 -->
<g id="node4" class="node">
<title>box_14</title>
<g id="a_node4"><a xlink:href="javascript:s=&quot;\(&#x27;hull&#x27;,\ &#x27;overall&#x27;,\ &#x27;box&#x27;\)\nBox&quot;; console.log(s); alert(s);" xlink:title="Box">
<ellipse fill="none" stroke="black" cx="319.34" cy="-72" rx="27" ry="18"/>
<text text-anchor="middle" x="319.34" y="-68.3" font-family="Times New Roman,serif" font-size="14.00">box</text>
</a>
</g>
</g>
<!-- overall_13&#45;&gt;box_14 -->
<g id="edge3" class="edge">
<title>overall_13&#45;&gt;box_14</title>
<path fill="none" stroke="black" d="M245.48,-52.88C257.53,-56.04 271.49,-59.71 283.94,-62.97"/>
<polygon fill="black" stroke="black" points="283.41,-66.45 293.97,-65.61 285.19,-59.68 283.41,-66.45"/>
</g>
<!-- sphere_15 -->
<g id="node5" class="node">
<title>sphere_15</title>
<g id="a_node5"><a xlink:href="javascript:s=&quot;\(&#x27;hull&#x27;,\ &#x27;overall&#x27;,\ &#x27;sphere&#x27;\)\nSphere&quot;; console.log(s); alert(s);" xlink:title="Sphere">
<ellipse fill="none" stroke="black" cx="319.34" cy="-18" rx="34.39" ry="18"/>
<text text-anchor="middle" x="319.34" y="-14.3" font-family="Times New Roman,serif" font-size="14.00">sphere</text>
</a>
</g>
</g>
<!-- overall_13&#45;&gt;sphere_15 -->
<g id="edge4" class="edge">
<title>overall_13&#45;&gt;sphere_15</title>
<path fill="none" stroke="black" d="M245.48,-37.12C255.75,-34.42 267.4,-31.37 278.32,-28.5"/>
<polygon fill="black" stroke="black" points="279.3,-31.86 288.09,-25.94 277.53,-25.09 279.3,-31.86"/>
</g>
</g>
</svg>
