<?xml version="1.0" encoding="UTF-8" standalone="no"?>
<!DOCTYPE svg PUBLIC "-//W3C//DTD SVG 1.1//EN"
 "http://www.w3.org/Graphics/SVG/1.1/DTD/svg11.dtd">
<!-- Generated by graphviz version 5.0.0 (20220707.1540)
 -->
<!-- Title: minkowski Pages: 1 -->
<svg width="408pt" height="98pt"
 viewBox="0.00 0.00 407.88 98.00" xmlns="http://www.w3.org/2000/svg" xmlns:xlink="http://www.w3.org/1999/xlink">
<g id="graph0" class="graph" transform="scale(1 1) rotate(0) translate(4 94)">
<title>minkowski</title>
<polygon fill="white" stroke="transparent" points="-4,4 -4,-94 403.88,-94 403.88,4 -4,4"/>
<!-- root_21 -->
<g id="node1" class="node">
<title>root_21</title>
<g id="a_node1"><a xlink:href="javascript:s=&quot;\(\)\nNone&quot;; console.log(s); alert(s);" xlink:title="root">
<ellipse fill="none" stroke="black" cx="27" cy="-45" rx="27" ry="18"/>
<text text-anchor="middle" x="27" y="-41.3" font-family="Times New Roman,serif" font-size="14.00">root</text>
</a>
</g>
</g>
<!-- minkowski_22 -->
<g id="node2" class="node">
<title>minkowski_22</title>
<g id="a_node2"><a xlink:href="javascript:s=&quot;\(&#x27;minkowski&#x27;,\)\nSquareSphereOperation&quot;; console.log(s); alert(s);" xlink:title="SquareSphereOperation">
<ellipse fill="none" stroke="black" cx="140.05" cy="-45" rx="50.09" ry="18"/>
<text text-anchor="middle" x="140.05" y="-41.3" font-family="Times New Roman,serif" font-size="14.00">minkowski</text>
</a>
</g>
</g>
<!-- root_21&#45;&gt;minkowski_22 -->
<g id="edge1" class="edge">
<title>root_21&#45;&gt;minkowski_22</title>
<path fill="none" stroke="black" d="M54.04,-45C61.77,-45 70.57,-45 79.52,-45"/>
<polygon fill="black" stroke="black" points="79.63,-48.5 89.63,-45 79.63,-41.5 79.63,-48.5"/>
</g>
<!-- overall_23 -->
<g id="node3" class="node">
<title>overall_23</title>
<g id="a_node3"><a xlink:href="javascript:s=&quot;\(&#x27;minkowski&#x27;,\ &#x27;overall&#x27;\)\nMaker&quot;; console.log(s); alert(s);" xlink:title="Maker">
<ellipse fill="none" stroke="black" cx="260.54" cy="-45" rx="34.39" ry="18"/>
<text text-anchor="middle" x="260.54" y="-41.3" font-family="Times New Roman,serif" font-size="14.00">overall</text>
</a>
</g>
</g>
<!-- minkowski_22&#45;&gt;overall_23 -->
<g id="edge2" class="edge">
<title>minkowski_22&#45;&gt;overall_23</title>
<path fill="none" stroke="black" d="M190.27,-45C198.67,-45 207.36,-45 215.61,-45"/>
<polygon fill="black" stroke="black" points="215.79,-48.5 225.79,-45 215.79,-41.5 215.79,-48.5"/>
</g>
<!-- box_24 -->
<g id="node4" class="node">
<title>box_24</title>
<g id="a_node4"><a xlink:href="javascript:s=&quot;\(&#x27;minkowski&#x27;,\ &#x27;overall&#x27;,\ &#x27;box&#x27;\)\nBox&quot;; console.log(s); alert(s);" xlink:title="Box">
<ellipse fill="none" stroke="black" cx="365.43" cy="-72" rx="27" ry="18"/>
<text text-anchor="middle" x="365.43" y="-68.3" font-family="Times New Roman,serif" font-size="14.00">box</text>
</a>
</g>
</g>
<!-- overall_23&#45;&gt;box_24 -->
<g id="edge3" class="edge">
<title>overall_23&#45;&gt;box_24</title>
<path fill="none" stroke="black" d="M291.58,-52.88C303.62,-56.04 317.58,-59.71 330.03,-62.97"/>
<polygon fill="black" stroke="black" points="329.5,-66.45 340.07,-65.61 331.28,-59.68 329.5,-66.45"/>
</g>
<!-- sphere_25 -->
<g id="node5" class="node">
<title>sphere_25</title>
<g id="a_node5"><a xlink:href="javascript:s=&quot;\(&#x27;minkowski&#x27;,\ &#x27;overall&#x27;,\ &#x27;sphere&#x27;\)\nSphere&quot;; console.log(s); alert(s);" xlink:title="Sphere">
<ellipse fill="none" stroke="black" cx="365.43" cy="-18" rx="34.39" ry="18"/>
<text text-anchor="middle" x="365.43" y="-14.3" font-family="Times New Roman,serif" font-size="14.00">sphere</text>
</a>
</g>
</g>
<!-- overall_23&#45;&gt;sphere_25 -->
<g id="edge4" class="edge">
<title>overall_23&#45;&gt;sphere_25</title>
<path fill="none" stroke="black" d="M291.58,-37.12C301.84,-34.42 313.49,-31.37 324.41,-28.5"/>
<polygon fill="black" stroke="black" points="325.39,-31.86 334.18,-25.94 323.62,-25.09 325.39,-31.86"/>
</g>
</g>
</svg>
