solid OpenSCAD_Model
  facet normal 0 0 1
    outer loop
      vertex 15 15 10
      vertex 2.0096189432334217 7.5 10
      vertex 3.852827617839086 4.963040904617127 10
    endloop
  endfacet
  facet normal 0 0 1
    outer loop
      vertex 15 15 10
      vertex 0.7341522555726971 10.36474508437579 10
      vertex 2.0096189432334217 7.5 10
    endloop
  endfacet
  facet normal 0 1 0
    outer loop
      vertex 15 15 10
      vertex 3.852827617839086 15 0.018024416725996417
      vertex 2.0096189432334217 15 2.54108578473795
    endloop
  endfacet
  facet normal 0 1 0
    outer loop
      vertex 15 15 10
      vertex 2.0096189432334217 15 2.54108578473795
      vertex 0.7341522555726971 15 5.390137495798304
    endloop
  endfacet
  facet normal 0 0 1
    outer loop
      vertex 15 15 10
      vertex 0.08217156947589999 13.432073050985197 10
      vertex 0.7341522555726971 10.36474508437579 10
    endloop
  endfacet
  facet normal 0 1 0
    outer loop
      vertex 15 15 10
      vertex 0.7341522555726971 15 5.390137495798304
      vertex 0.08217156947589999 15 8.440662318866805
    endloop
  endfacet
  facet normal 0 0 1
    outer loop
      vertex 15 15 10
      vertex 0.08217156947589999 15 10
      vertex 0.08217156947589999 13.432073050985197 10
    endloop
  endfacet
  facet normal 0 1 0
    outer loop
      vertex 15 15 10
      vertex 0.08217156947589999 15 8.440662318866805
      vertex 0.08217156947589999 15 10
    endloop
  endfacet
  facet normal 0 0 1
    outer loop
      vertex 15 15 10
      vertex 6.183221215612903 2.8647450843757873 10
      vertex 8.898950353862997 1.2968181353609864 10
    endloop
  endfacet
  facet normal 1 0 0
    outer loop
      vertex 15 15 10
      vertex 15 1.2968181353609864 3.898950353862997
      vertex 15 2.8647450843757873 1.1832212156129032
    endloop
  endfacet
  facet normal 0 0 1
    outer loop
      vertex 15 15 10
      vertex 8.898950353862997 1.2968181353609864 10
      vertex 11.88132463773361 0.32778598899291467 10
    endloop
  endfacet
  facet normal 1 0 0
    outer loop
      vertex 15 15 10
      vertex 15 0.32778598899291467 6.881324637733609
      vertex 15 1.2968181353609864 3.898950353862997
    endloop
  endfacet
  facet normal 0 0 1
    outer loop
      vertex 15 15 10
      vertex 11.88132463773361 0.32778598899291467 10
      vertex 15 0 10
    endloop
  endfacet
  facet normal 1 0 0
    outer loop
      vertex 15 15 10
      vertex 15 0 10
      vertex 15 0.32778598899291467 6.881324637733609
    endloop
  endfacet
  facet normal 0 1 0
    outer loop
      vertex 15 15 10
      vertex 8.898950353862997 15 -3.6281144005969406
      vertex 6.183221215612903 15 -2.068776719463747
    endloop
  endfacet
  facet normal 1 0 0
    outer loop
      vertex 15 15 10
      vertex 15 4.963040904617127 -1.1471723821609139
      vertex 15 7.5 -2.9903810567665783
    endloop
  endfacet
  facet normal 1 0 0
    outer loop
      vertex 15 15 10
      vertex 15 7.5 -2.9903810567665783
      vertex 15 10.36474508437579 -4.265847744427303
    endloop
  endfacet
  facet normal 0 1 0
    outer loop
      vertex 15 15 10
      vertex 11.88132463773361 15 -4.591838087475702
      vertex 8.898950353862997 15 -3.6281144005969406
    endloop
  endfacet
  facet normal 1 0 0
    outer loop
      vertex 15 15 10
      vertex 15 10.36474508437579 -4.265847744427303
      vertex 15 13.432073050985197 -4.9178284305241
    endloop
  endfacet
  facet normal 0 1 0
    outer loop
      vertex 15 15 10
      vertex 15 15 -4.9178284305241
      vertex 11.88132463773361 15 -4.591838087475702
    endloop
  endfacet
  facet normal 1 0 0
    outer loop
      vertex 15 15 10
      vertex 15 13.432073050985197 -4.9178284305241
      vertex 15 15 -4.9178284305241
    endloop
  endfacet
  facet normal 0 0 1
    outer loop
      vertex 15 15 10
      vertex 3.852827617839086 4.963040904617127 10
      vertex 6.183221215612903 2.8647450843757873 10
    endloop
  endfacet
  facet normal 0 1 0
    outer loop
      vertex 15 15 10
      vertex 6.183221215612903 15 -2.068776719463747
      vertex 3.852827617839086 15 0.018024416725996417
    endloop
  endfacet
  facet normal 1 0 0
    outer loop
      vertex 15 15 10
      vertex 15 2.8647450843757873 1.1832212156129032
      vertex 15 4.963040904617127 -1.1471723821609139
    endloop
  endfacet
  facet normal -0.49794148874886085 -0.6444630909970451 -0.5802771735344261
    outer loop
      vertex 6.183221215612903 6.879929519989055 0.9817481036047546
      vertex 8.898950353862997 3.9138929944964573 1.9454717904835146
      vertex 6.183221215612903 5.182372542187894 2.8670761277863477
    endloop
  endfacet
  facet normal -0.8074775483285445 -0.5108669168276533 -0.2949491519505195
    outer loop
      vertex 3.852827617839086 6.879929519989057 4.100423465871145
      vertex 3.852827617839086 5.830781609868389 5.91760095085485
      vertex 2.0096189432334217 8.148409067680493 6.949475176931498
    endloop
  endfacet
  facet normal -0.8074775483285443 -0.5610266258765422 -0.18228860085837872
    outer loop
      vertex 3.852827617839086 5.830781609868389 5.91760095085485
      vertex 2.0096189432334217 7.663892994496457 8.440662318866805
      vertex 2.0096189432334217 8.148409067680493 6.949475176931498
    endloop
  endfacet
  facet normal -0.8074775483285447 -0.5610266258765421 -0.18228860085837897
    outer loop
      vertex 3.852827617839086 5.830781609868389 5.91760095085485
      vertex 3.852827617839086 5.182372542187894 7.913198863810258
      vertex 2.0096189432334217 7.663892994496457 8.440662318866805
    endloop
  endfacet
  facet normal -0.8074775483285446 -0.5866667792701913 -0.061661163190970744
    outer loop
      vertex 3.852827617839086 5.182372542187894 7.913198863810258
      vertex 2.0096189432334217 7.5 10
      vertex 2.0096189432334217 7.663892994496457 8.440662318866805
    endloop
  endfacet
  facet normal -0.8074775483285447 -0.5866667792701914 -0.061661163190970536
    outer loop
      vertex 3.852827617839086 5.182372542187894 7.913198863810258
      vertex 3.852827617839086 4.963040904617127 10
      vertex 2.0096189432334217 7.5 10
    endloop
  endfacet
  facet normal -0.667098779842783 -0.7408882535206791 -0.07787049330361352
    outer loop
      vertex 6.183221215612903 3.129929519989055 7.476938631988045
      vertex 6.183221215612903 2.8647450843757873 10
      vertex 3.852827617839086 5.182372542187894 7.913198863810258
    endloop
  endfacet
  facet normal -0.49794148874886074 -0.8247663190155666 -0.2679828218376706
    outer loop
      vertex 6.183221215612903 3.129929519989055 7.476938631988045
      vertex 6.183221215612903 3.9138929944964573 5.0641471527499045
      vertex 8.898950353862997 1.596265536684351 7.150948288939647
    endloop
  endfacet
  facet normal -0.4979414887488606 -0.8624599577095137 -0.09064819430232599
    outer loop
      vertex 6.183221215612903 3.129929519989055 7.476938631988045
      vertex 8.898950353862997 1.2968181353609864 10
      vertex 6.183221215612903 2.8647450843757873 10
    endloop
  endfacet
  facet normal -0.6670987798427832 -0.7085078816655442 -0.23020816568938887
    outer loop
      vertex 6.183221215612903 3.129929519989055 7.476938631988045
      vertex 3.852827617839086 5.830781609868389 5.91760095085485
      vertex 6.183221215612903 3.9138929944964573 5.0641471527499045
    endloop
  endfacet
  facet normal -0.6670987798427832 -0.6451623155836076 -0.37248463657319814
    outer loop
      vertex 3.852827617839086 5.830781609868389 5.91760095085485
      vertex 6.183221215612903 5.182372542187894 2.8670761277863477
      vertex 6.183221215612903 3.9138929944964573 5.0641471527499045
    endloop
  endfacet
  facet normal -0.667098779842783 -0.6451623155836078 -0.3724846365731979
    outer loop
      vertex 3.852827617839086 6.879929519989057 4.100423465871145
      vertex 6.183221215612903 5.182372542187894 2.8670761277863477
      vertex 3.852827617839086 5.830781609868389 5.91760095085485
    endloop
  endfacet
  facet normal -0.6670987798427833 -0.5536200604783997 -0.4984817414591661
    outer loop
      vertex 6.183221215612903 6.879929519989055 0.9817481036047546
      vertex 3.852827617839086 6.879929519989057 4.100423465871145
      vertex 3.852827617839086 8.283963474507402 2.54108578473795
    endloop
  endfacet
  facet normal -0.6670987798427831 -0.5536200604784001 -0.4984817414591659
    outer loop
      vertex 6.183221215612903 6.879929519989055 0.9817481036047546
      vertex 6.183221215612903 5.182372542187894 2.8670761277863477
      vertex 3.852827617839086 6.879929519989057 4.100423465871145
    endloop
  endfacet
  facet normal -0.4979414887488607 -0.7510264345127449 -0.433605314134458
    outer loop
      vertex 6.183221215612903 5.182372542187894 2.8670761277863477
      vertex 8.898950353862997 2.4815204523085637 4.426413808919543
      vertex 6.183221215612903 3.9138929944964573 5.0641471527499045
    endloop
  endfacet
  facet normal -0.6670987798427829 -0.7085078816655442 -0.23020816568938926
    outer loop
      vertex 6.183221215612903 3.129929519989055 7.476938631988045
      vertex 3.852827617839086 5.182372542187894 7.913198863810258
      vertex 3.852827617839086 5.830781609868389 5.91760095085485
    endloop
  endfacet
  facet normal -0.6670987798427831 -0.740888253520679 -0.07787049330361316
    outer loop
      vertex 3.852827617839086 5.182372542187894 7.913198863810258
      vertex 6.183221215612903 2.8647450843757873 10
      vertex 3.852827617839086 4.963040904617127 10
    endloop
  endfacet
  facet normal -0.8074775483285447 -0.23993325588481682 -0.538898915999869
    outer loop
      vertex 3.852827617839086 9.981520452308564 1.307738446653154
      vertex 2.0096189432334217 11.25 3.504809471616711
      vertex 3.852827617839086 11.898409067680493 0.45428464854821016
    endloop
  endfacet
  facet normal -0.8074775483285446 -0.239933255884817 -0.538898915999869
    outer loop
      vertex 3.852827617839086 11.898409067680493 0.45428464854821016
      vertex 2.0096189432334217 11.25 3.504809471616711
      vertex 2.0096189432334217 12.682372542187895 2.8670761277863486
    endloop
  endfacet
  facet normal -0.8074775483285446 -0.12264675377459357 -0.577007610637743
    outer loop
      vertex 3.852827617839086 11.898409067680493 0.45428464854821016
      vertex 2.0096189432334217 12.682372542187895 2.8670761277863486
      vertex 3.852827617839086 13.95085208987933 0.018024416725996417
    endloop
  endfacet
  facet normal -0.8074775483285446 -0.12264675377459378 -0.5770076106377431
    outer loop
      vertex 3.852827617839086 13.95085208987933 0.018024416725996417
      vertex 2.0096189432334217 12.682372542187895 2.8670761277863486
      vertex 2.0096189432334217 14.2160365254926 2.54108578473795
    endloop
  endfacet
  facet normal -0.8074775483285443 0 -0.5898983039010394
    outer loop
      vertex 3.852827617839086 13.95085208987933 0.018024416725996417
      vertex 2.0096189432334217 14.2160365254926 2.54108578473795
      vertex 2.0096189432334217 15 2.54108578473795
    endloop
  endfacet
  facet normal -0.8074775483285445 0 -0.5898983039010394
    outer loop
      vertex 3.852827617839086 13.95085208987933 0.018024416725996417
      vertex 2.0096189432334217 15 2.54108578473795
      vertex 3.852827617839086 15 0.018024416725996417
    endloop
  endfacet
  facet normal -0.49794148874886085 -0.3527263397817546 -0.7922363302744544
    outer loop
      vertex 6.183221215612903 8.932372542187894 -0.5094390383305516
      vertex 6.183221215612903 11.25 -1.5413132644072007
      vertex 8.898950353862997 10.765483926815964 -3.032500406342507
    endloop
  endfacet
  facet normal -0.6670987798427831 -0.4378819521664949 -0.6026928022625869
    outer loop
      vertex 3.852827617839086 9.981520452308564 1.307738446653154
      vertex 6.183221215612903 8.932372542187894 -0.5094390383305516
      vertex 3.852827617839086 8.283963474507402 2.54108578473795
    endloop
  endfacet
  facet normal -0.6670987798427831 -0.43788195216649467 -0.6026928022625869
    outer loop
      vertex 6.183221215612903 6.879929519989055 0.9817481036047546
      vertex 3.852827617839086 8.283963474507402 2.54108578473795
      vertex 6.183221215612903 8.932372542187894 -0.5094390383305516
    endloop
  endfacet
  facet normal -0.6670987798427832 -0.3030063013541839 -0.6805632955662003
    outer loop
      vertex 3.852827617839086 9.981520452308564 1.307738446653154
      vertex 3.852827617839086 11.898409067680493 0.45428464854821016
      vertex 6.183221215612903 11.25 -1.5413132644072007
    endloop
  endfacet
  facet normal -0.667098779842783 -0.30300630135418416 -0.6805632955662004
    outer loop
      vertex 3.852827617839086 9.981520452308564 1.307738446653154
      vertex 6.183221215612903 11.25 -1.5413132644072007
      vertex 6.183221215612903 8.932372542187894 -0.5094390383305516
    endloop
  endfacet
  facet normal -0.4979414887488608 -0.5097336179277587 -0.7015881359721284
    outer loop
      vertex 6.183221215612903 6.879929519989055 0.9817481036047546
      vertex 6.183221215612903 8.932372542187894 -0.5094390383305516
      vertex 8.898950353862997 8.148409067680493 -1.8673036074555984
    endloop
  endfacet
  facet normal -0.6670987798427832 0 -0.7449692731463963
    outer loop
      vertex 6.183221215612903 13.731520452308564 -2.068776719463747
      vertex 3.852827617839086 15 0.018024416725996417
      vertex 6.183221215612903 15 -2.068776719463747
    endloop
  endfacet
  facet normal -0.4979414887488605 -0.18030322801852167 -0.8482599953720965
    outer loop
      vertex 6.183221215612903 11.25 -1.5413132644072007
      vertex 6.183221215612903 13.731520452308564 -2.068776719463747
      vertex 8.898950353862997 13.567627457812106 -3.6281144005969406
    endloop
  endfacet
  facet normal -0.4979414887488606 0 -0.8672106282689163
    outer loop
      vertex 6.183221215612903 13.731520452308564 -2.068776719463747
      vertex 6.183221215612903 15 -2.068776719463747
      vertex 8.898950353862997 13.567627457812106 -3.6281144005969406
    endloop
  endfacet
  facet normal -0.6670987798427831 -0.1548878211871444 -0.7286899071485546
    outer loop
      vertex 6.183221215612903 11.25 -1.5413132644072007
      vertex 3.852827617839086 11.898409067680493 0.45428464854821016
      vertex 6.183221215612903 13.731520452308564 -2.068776719463747
    endloop
  endfacet
  facet normal -0.6670987798427832 -0.15488782118714445 -0.7286899071485545
    outer loop
      vertex 6.183221215612903 13.731520452308564 -2.068776719463747
      vertex 3.852827617839086 11.898409067680493 0.45428464854821016
      vertex 3.852827617839086 13.95085208987933 0.018024416725996417
    endloop
  endfacet
  facet normal -0.6670987798427832 0 -0.7449692731463962
    outer loop
      vertex 6.183221215612903 13.731520452308564 -2.068776719463747
      vertex 3.852827617839086 13.95085208987933 0.018024416725996417
      vertex 3.852827617839086 15 0.018024416725996417
    endloop
  endfacet
  facet normal -0.912711829380293 -0.30365184614093177 -0.27340935032380065
    outer loop
      vertex 2.0096189432334217 8.932372542187894 5.591610607806452
      vertex 0.7341522555726971 11.25 7.275465519979897
      vertex 2.0096189432334217 9.981520452308564 4.426413808919543
    endloop
  endfacet
  facet normal -0.9127118293802929 -0.24017132444993672 -0.33056746878850946
    outer loop
      vertex 2.0096189432334217 9.981520452308564 4.426413808919543
      vertex 0.7341522555726971 11.898409067680493 6.555334294685212
      vertex 2.0096189432334217 11.25 3.504809471616711
    endloop
  endfacet
  facet normal -0.912711829380293 -0.303651846140932 -0.2734093503238005
    outer loop
      vertex 2.0096189432334217 9.981520452308564 4.426413808919543
      vertex 0.7341522555726971 11.25 7.275465519979897
      vertex 0.7341522555726971 11.898409067680493 6.555334294685212
    endloop
  endfacet
  facet normal -0.8074775483285446 -0.4383798721019486 -0.39471900977936464
    outer loop
      vertex 2.0096189432334217 8.932372542187894 5.591610607806452
      vertex 2.0096189432334217 9.981520452308564 4.426413808919543
      vertex 3.852827617839086 8.283963474507402 2.54108578473795
    endloop
  endfacet
  facet normal -0.8074775483285446 -0.43837987210194873 -0.3947190097793646
    outer loop
      vertex 3.852827617839086 6.879929519989057 4.100423465871145
      vertex 2.0096189432334217 8.932372542187894 5.591610607806452
      vertex 3.852827617839086 8.283963474507402 2.54108578473795
    endloop
  endfacet
  facet normal -0.8074775483285446 -0.5108669168276533 -0.2949491519505195
    outer loop
      vertex 3.852827617839086 6.879929519989057 4.100423465871145
      vertex 2.0096189432334217 8.148409067680493 6.949475176931498
      vertex 2.0096189432334217 8.932372542187894 5.591610607806452
    endloop
  endfacet
  facet normal -0.8074775483285446 -0.3467335233853742 -0.4772377528088982
    outer loop
      vertex 3.852827617839086 9.981520452308564 1.307738446653154
      vertex 2.0096189432334217 9.981520452308564 4.426413808919543
      vertex 2.0096189432334217 11.25 3.504809471616711
    endloop
  endfacet
  facet normal -0.8074775483285446 -0.34673352338537433 -0.4772377528088982
    outer loop
      vertex 3.852827617839086 9.981520452308564 1.307738446653154
      vertex 3.852827617839086 8.283963474507402 2.54108578473795
      vertex 2.0096189432334217 9.981520452308564 4.426413808919543
    endloop
  endfacet
  facet normal -0.912711829380293 -0.3538613250723499 -0.20430193128631874
    outer loop
      vertex 2.0096189432334217 8.932372542187894 5.591610607806452
      vertex 2.0096189432334217 8.148409067680493 6.949475176931498
      vertex 0.7341522555726971 10.765483926815964 8.114671975818407
    endloop
  endfacet
  facet normal -0.9127118293802929 -0.3886053660830763 -0.12626553750219055
    outer loop
      vertex 0.7341522555726971 10.4660365254926 9.03627631312124
      vertex 2.0096189432334217 8.148409067680493 6.949475176931498
      vertex 2.0096189432334217 7.663892994496457 8.440662318866805
    endloop
  endfacet
  facet normal -0.9127118293802929 -0.406365487860537 -0.04271073383994517
    outer loop
      vertex 2.0096189432334217 7.663892994496457 8.440662318866805
      vertex 2.0096189432334217 7.5 10
      vertex 0.7341522555726971 10.36474508437579 10
    endloop
  endfacet
  facet normal -0.9127118293802929 -0.3886053660830765 -0.1262655375021902
    outer loop
      vertex 0.7341522555726971 10.765483926815964 8.114671975818407
      vertex 2.0096189432334217 8.148409067680493 6.949475176931498
      vertex 0.7341522555726971 10.4660365254926 9.03627631312124
    endloop
  endfacet
  facet normal -0.9127118293802929 -0.3538613250723495 -0.2043019312863189
    outer loop
      vertex 2.0096189432334217 8.932372542187894 5.591610607806452
      vertex 0.7341522555726971 10.765483926815964 8.114671975818407
      vertex 0.7341522555726971 11.25 7.275465519979897
    endloop
  endfacet
  facet normal -0.912711829380293 -0.406365487860537 -0.04271073383994532
    outer loop
      vertex 0.7341522555726971 10.4660365254926 9.03627631312124
      vertex 2.0096189432334217 7.663892994496457 8.440662318866805
      vertex 0.7341522555726971 10.36474508437579 10
    endloop
  endfacet
  facet normal -0.912711829380293 -0.16619416341060017 -0.37327820262845457
    outer loop
      vertex 0.7341522555726971 12.682372542187895 5.985751490052739
      vertex 2.0096189432334217 12.682372542187895 2.8670761277863486
      vertex 2.0096189432334217 11.25 3.504809471616711
    endloop
  endfacet
  facet normal -0.9127118293802932 -0.24017132444993616 -0.3305674687885097
    outer loop
      vertex 0.7341522555726971 12.682372542187895 5.985751490052739
      vertex 2.0096189432334217 11.25 3.504809471616711
      vertex 0.7341522555726971 11.898409067680493 6.555334294685212
    endloop
  endfacet
  facet normal -0.912711829380293 -0.16619416341060034 -0.37327820262845457
    outer loop
      vertex 0.7341522555726971 12.682372542187895 5.985751490052739
      vertex 0.7341522555726971 13.567627457812106 5.5916106078064525
      vertex 2.0096189432334217 12.682372542187895 2.8670761277863486
    endloop
  endfacet
  facet normal -0.9127118293802932 -0.08495351994214456 -0.3996748878259911
    outer loop
      vertex 0.7341522555726971 13.567627457812106 5.5916106078064525
      vertex 2.0096189432334217 14.2160365254926 2.54108578473795
      vertex 2.0096189432334217 12.682372542187895 2.8670761277863486
    endloop
  endfacet
  facet normal -0.912711829380293 0 -0.40860386257263764
    outer loop
      vertex 2.0096189432334217 14.2160365254926 2.54108578473795
      vertex 0.7341522555726971 15 5.390137495798304
      vertex 2.0096189432334217 15 2.54108578473795
    endloop
  endfacet
  facet normal -0.9127118293802929 -0.08495351994214471 -0.39967488782599103
    outer loop
      vertex 0.7341522555726971 13.567627457812106 5.5916106078064525
      vertex 0.7341522555726971 14.515483926815964 5.390137495798304
      vertex 2.0096189432334217 14.2160365254926 2.54108578473795
    endloop
  endfacet
  facet normal -0.9127118293802929 0 -0.40860386257263753
    outer loop
      vertex 0.7341522555726971 14.515483926815964 5.390137495798304
      vertex 0.7341522555726971 15 5.390137495798304
      vertex 2.0096189432334217 14.2160365254926 2.54108578473795
    endloop
  endfacet
  facet normal -0.9779141382263812 -0.12285124939195642 -0.16909023857038466
    outer loop
      vertex 0.7341522555726971 12.682372542187895 5.985751490052739
      vertex 0.7341522555726971 11.898409067680493 6.555334294685212
      vertex 0.08217156947589999 13.95085208987933 8.834803201113091
    endloop
  endfacet
  facet normal -0.9779141382263812 -0.1553224922418398 -0.13985300018497232
    outer loop
      vertex 0.7341522555726971 11.898409067680493 6.555334294685212
      vertex 0.7341522555726971 11.25 7.275465519979897
      vertex 0.08217156947589999 13.731520452308564 9.078395662697167
    endloop
  endfacet
  facet normal -0.9779141382263812 -0.19877749707657577 -0.06458672396805823
    outer loop
      vertex 0.7341522555726971 10.765483926815964 8.114671975818407
      vertex 0.7341522555726971 10.4660365254926 9.03627631312124
      vertex 0.08217156947589999 13.466336016695296 9.674009656951602
    endloop
  endfacet
  facet normal -0.9779141382263812 -0.18100539686074463 -0.10450351460232604
    outer loop
      vertex 0.7341522555726971 10.765483926815964 8.114671975818407
      vertex 0.08217156947589999 13.567627457812106 9.362266656169638
      vertex 0.7341522555726971 11.25 7.275465519979897
    endloop
  endfacet
  facet normal -0.9779141382263812 -0.20786206682990263 -0.021847183574899877
    outer loop
      vertex 0.7341522555726971 10.4660365254926 9.03627631312124
      vertex 0.7341522555726971 10.36474508437579 10
      vertex 0.08217156947589999 13.432073050985197 10
    endloop
  endfacet
  facet normal -0.9779141382263812 -0.1987774970765759 -0.06458672396805841
    outer loop
      vertex 0.7341522555726971 10.765483926815964 8.114671975818407
      vertex 0.08217156947589999 13.466336016695296 9.674009656951602
      vertex 0.08217156947589999 13.567627457812106 9.362266656169638
    endloop
  endfacet
  facet normal -0.9779141382263812 -0.18100539686074468 -0.10450351460232585
    outer loop
      vertex 0.7341522555726971 11.25 7.275465519979897
      vertex 0.08217156947589999 13.567627457812106 9.362266656169638
      vertex 0.08217156947589999 13.731520452308564 9.078395662697167
    endloop
  endfacet
  facet normal -0.9779141382263812 -0.20786206682990233 -0.021847183574900588
    outer loop
      vertex 0.7341522555726971 10.4660365254926 9.03627631312124
      vertex 0.08217156947589999 13.432073050985197 10
      vertex 0.08217156947589999 13.466336016695296 9.674009656951602
    endloop
  endfacet
  facet normal -0.9779141382263812 -0.08501081743794597 -0.19093742214528428
    outer loop
      vertex 0.7341522555726971 12.682372542187895 5.985751490052739
      vertex 0.08217156947589999 14.2160365254926 8.642135430874953
      vertex 0.7341522555726971 13.567627457812106 5.5916106078064525
    endloop
  endfacet
  facet normal -0.9779141382263812 -0.1228512493919561 -0.16909023857038472
    outer loop
      vertex 0.7341522555726971 12.682372542187895 5.985751490052739
      vertex 0.08217156947589999 13.95085208987933 8.834803201113091
      vertex 0.08217156947589999 14.2160365254926 8.642135430874953
    endloop
  endfacet
  facet normal -0.9779141382263812 -0.04345500483473614 -0.2044397241530308
    outer loop
      vertex 0.7341522555726971 13.567627457812106 5.5916106078064525
      vertex 0.08217156947589999 14.515483926815964 8.508812858064694
      vertex 0.7341522555726971 14.515483926815964 5.390137495798304
    endloop
  endfacet
  facet normal -0.9779141382263812 0 -0.20900702920465206
    outer loop
      vertex 0.7341522555726971 14.515483926815964 5.390137495798304
      vertex 0.08217156947589999 15 8.440662318866805
      vertex 0.7341522555726971 15 5.390137495798304
    endloop
  endfacet
  facet normal -0.9779141382263813 -0.08501081743794604 -0.19093742214528434
    outer loop
      vertex 0.7341522555726971 13.567627457812106 5.5916106078064525
      vertex 0.08217156947589999 14.2160365254926 8.642135430874953
      vertex 0.08217156947589999 14.515483926815964 8.508812858064694
    endloop
  endfacet
  facet normal -0.9779141382263813 -0.04345500483473625 -0.2044397241530308
    outer loop
      vertex 0.7341522555726971 14.515483926815964 5.390137495798304
      vertex 0.08217156947589999 14.515483926815964 8.508812858064694
      vertex 0.08217156947589999 14.836107005503543 8.440662318866805
    endloop
  endfacet
  facet normal -0.9779141382263811 0 -0.20900702920465206
    outer loop
      vertex 0.7341522555726971 14.515483926815964 5.390137495798304
      vertex 0.08217156947589999 14.836107005503543 8.440662318866805
      vertex 0.08217156947589999 15 8.440662318866805
    endloop
  endfacet
  facet normal -0.9779141382263811 -0.15532249224184014 -0.13985300018497196
    outer loop
      vertex 0.7341522555726971 11.898409067680493 6.555334294685212
      vertex 0.08217156947589999 13.731520452308564 9.078395662697167
      vertex 0.08217156947589999 13.95085208987933 8.834803201113091
    endloop
  endfacet
  facet normal -1 0 0
    outer loop
      vertex 0.08217156947589999 14.515483926815964 8.508812858064694
      vertex 0.08217156947589999 14.2160365254926 8.642135430874953
      vertex 0.08217156947589999 13.432073050985197 10
    endloop
  endfacet
  facet normal -1 0 0
    outer loop
      vertex 0.08217156947589999 13.567627457812106 9.362266656169638
      vertex 0.08217156947589999 13.432073050985197 10
      vertex 0.08217156947589999 13.731520452308564 9.078395662697167
    endloop
  endfacet
  facet normal -1 0 0
    outer loop
      vertex 0.08217156947589999 13.567627457812106 9.362266656169638
      vertex 0.08217156947589999 13.466336016695296 9.674009656951602
      vertex 0.08217156947589999 13.432073050985197 10
    endloop
  endfacet
  facet normal -1 0 0
    outer loop
      vertex 0.08217156947589999 13.95085208987933 8.834803201113091
      vertex 0.08217156947589999 13.731520452308564 9.078395662697167
      vertex 0.08217156947589999 13.432073050985197 10
    endloop
  endfacet
  facet normal -1 0 0
    outer loop
      vertex 0.08217156947589999 13.95085208987933 8.834803201113091
      vertex 0.08217156947589999 13.432073050985197 10
      vertex 0.08217156947589999 14.2160365254926 8.642135430874953
    endloop
  endfacet
  facet normal -1 0 0
    outer loop
      vertex 0.08217156947589999 14.515483926815964 8.508812858064694
      vertex 0.08217156947589999 13.432073050985197 10
      vertex 0.08217156947589999 14.836107005503543 8.440662318866805
    endloop
  endfacet
  facet normal -1 0 0
    outer loop
      vertex 0.08217156947589999 14.836107005503543 8.440662318866805
      vertex 0.08217156947589999 15 10
      vertex 0.08217156947589999 15 8.440662318866805
    endloop
  endfacet
  facet normal -1 0 0
    outer loop
      vertex 0.08217156947589999 14.836107005503543 8.440662318866805
      vertex 0.08217156947589999 13.432073050985197 10
      vertex 0.08217156947589999 15 10
    endloop
  endfacet
  facet normal -0.3074846172652085 -0.824069115796091 -0.4757765258357299
    outer loop
      vertex 8.898950353862997 3.9138929944964573 1.9454717904835146
      vertex 11.88132463773361 3.129929519989055 1.3758889858510415
      vertex 11.88132463773361 1.596265536684351 4.032272926673256
    endloop
  endfacet
  facet normal -0.3074846172652085 -0.5593088505463816 -0.7698225898515537
    outer loop
      vertex 8.898950353862997 5.830781609868387 -0.1834486952821539
      vertex 8.898950353862997 8.148409067680493 -1.8673036074555984
      vertex 11.88132463773361 7.663892994496457 -2.7065100632941093
    endloop
  endfacet
  facet normal -0.30748461726520815 -0.559308850546382 -0.7698225898515537
    outer loop
      vertex 8.898950353862997 5.830781609868387 -0.1834486952821539
      vertex 11.88132463773361 7.663892994496457 -2.7065100632941093
      vertex 11.88132463773361 5.182372542187894 -0.9035799205768384
    endloop
  endfacet
  facet normal -0.49794148874886074 -0.6444630909970451 -0.5802771735344262
    outer loop
      vertex 6.183221215612903 6.879929519989055 0.9817481036047546
      vertex 8.898950353862997 5.830781609868387 -0.1834486952821539
      vertex 8.898950353862997 3.9138929944964573 1.9454717904835146
    endloop
  endfacet
  facet normal -0.49794148874886074 -0.5097336179277588 -0.7015881359721284
    outer loop
      vertex 6.183221215612903 6.879929519989055 0.9817481036047546
      vertex 8.898950353862997 8.148409067680493 -1.8673036074555984
      vertex 8.898950353862997 5.830781609868387 -0.1834486952821539
    endloop
  endfacet
  facet normal -0.30748461726520815 -0.7071417265168689 -0.636713270447546
    outer loop
      vertex 8.898950353862997 5.830781609868387 -0.1834486952821539
      vertex 11.88132463773361 5.182372542187894 -0.9035799205768384
      vertex 11.88132463773361 3.129929519989055 1.3758889858510415
    endloop
  endfacet
  facet normal -0.3074846172652084 -0.7071417265168691 -0.6367132704475459
    outer loop
      vertex 8.898950353862997 3.9138929944964573 1.9454717904835146
      vertex 8.898950353862997 5.830781609868387 -0.1834486952821539
      vertex 11.88132463773361 3.129929519989055 1.3758889858510415
    endloop
  endfacet
  facet normal -0.10396205118449756 -0.7391179203117909 -0.6655047646617454
    outer loop
      vertex 11.88132463773361 3.129929519989055 1.3758889858510415
      vertex 11.88132463773361 5.182372542187894 -0.9035799205768384
      vertex 15 2.8647450843757873 1.1832212156129032
    endloop
  endfacet
  facet normal -0.10396205118449753 -0.8613326412804371 -0.4972906323050714
    outer loop
      vertex 11.88132463773361 3.129929519989055 1.3758889858510415
      vertex 15 2.8647450843757873 1.1832212156129032
      vertex 15 1.2968181353609864 3.898950353862997
    endloop
  endfacet
  facet normal -0.10396205118449701 -0.5846001995442401 -0.8046331453565324
    outer loop
      vertex 11.88132463773361 5.182372542187894 -0.9035799205768384
      vertex 11.88132463773361 7.663892994496457 -2.7065100632941093
      vertex 15 7.5 -2.9903810567665783
    endloop
  endfacet
  facet normal -0.10396205118449751 -0.5846001995442398 -0.8046331453565326
    outer loop
      vertex 11.88132463773361 5.182372542187894 -0.9035799205768384
      vertex 15 7.5 -2.9903810567665783
      vertex 15 4.963040904617127 -1.1471723821609139
    endloop
  endfacet
  facet normal -0.10396205118449746 -0.7391179203117907 -0.6655047646617455
    outer loop
      vertex 11.88132463773361 5.182372542187894 -0.9035799205768384
      vertex 15 4.963040904617127 -1.1471723821609139
      vertex 15 2.8647450843757873 1.1832212156129032
    endloop
  endfacet
  facet normal -0.4979414887488607 -0.8247663190155666 -0.2679828218376706
    outer loop
      vertex 6.183221215612903 3.9138929944964573 5.0641471527499045
      vertex 8.898950353862997 2.4815204523085637 4.426413808919543
      vertex 8.898950353862997 1.596265536684351 7.150948288939647
    endloop
  endfacet
  facet normal -0.30748461726520854 -0.9049807303926808 -0.2940460640158239
    outer loop
      vertex 8.898950353862997 2.4815204523085637 4.426413808919543
      vertex 11.88132463773361 0.6484090676804914 6.949475176931498
      vertex 8.898950353862997 1.596265536684351 7.150948288939647
    endloop
  endfacet
  facet normal -0.30748461726520865 -0.9049807303926809 -0.29404606401582384
    outer loop
      vertex 8.898950353862997 2.4815204523085637 4.426413808919543
      vertex 11.88132463773361 1.596265536684351 4.032272926673256
      vertex 11.88132463773361 0.6484090676804914 6.949475176931498
    endloop
  endfacet
  facet normal -0.3074846172652086 -0.824069115796091 -0.47577652583572966
    outer loop
      vertex 8.898950353862997 3.9138929944964573 1.9454717904835146
      vertex 11.88132463773361 1.596265536684351 4.032272926673256
      vertex 8.898950353862997 2.4815204523085637 4.426413808919543
    endloop
  endfacet
  facet normal -0.49794148874886074 -0.8624599577095136 -0.09064819430232578
    outer loop
      vertex 6.183221215612903 3.129929519989055 7.476938631988045
      vertex 8.898950353862997 1.596265536684351 7.150948288939647
      vertex 8.898950353862997 1.2968181353609864 10
    endloop
  endfacet
  facet normal -0.30748461726520854 -0.9463403444917651 -0.09946437820886346
    outer loop
      vertex 8.898950353862997 1.596265536684351 7.150948288939647
      vertex 11.88132463773361 0.6484090676804914 6.949475176931498
      vertex 11.88132463773361 0.32778598899291467 10
    endloop
  endfacet
  facet normal -0.3074846172652085 -0.946340344491765 -0.09946437820886349
    outer loop
      vertex 8.898950353862997 1.596265536684351 7.150948288939647
      vertex 11.88132463773361 0.32778598899291467 10
      vertex 8.898950353862997 1.2968181353609864 10
    endloop
  endfacet
  facet normal -0.49794148874886074 -0.7510264345127449 -0.43360531413445785
    outer loop
      vertex 6.183221215612903 5.182372542187894 2.8670761277863477
      vertex 8.898950353862997 3.9138929944964573 1.9454717904835146
      vertex 8.898950353862997 2.4815204523085637 4.426413808919543
    endloop
  endfacet
  facet normal -0.10396205118449746 -0.9459029926925513 -0.307342513051461
    outer loop
      vertex 11.88132463773361 1.596265536684351 4.032272926673256
      vertex 15 0.32778598899291467 6.881324637733609
      vertex 11.88132463773361 0.6484090676804914 6.949475176931498
    endloop
  endfacet
  facet normal -0.10396205118449733 -0.8613326412804372 -0.49729063230507153
    outer loop
      vertex 11.88132463773361 3.129929519989055 1.3758889858510415
      vertex 15 1.2968181353609864 3.898950353862997
      vertex 11.88132463773361 1.596265536684351 4.032272926673256
    endloop
  endfacet
  facet normal -0.10396205118449742 -0.9459029926925512 -0.3073425130514611
    outer loop
      vertex 11.88132463773361 1.596265536684351 4.032272926673256
      vertex 15 1.2968181353609864 3.898950353862997
      vertex 15 0.32778598899291467 6.881324637733609
    endloop
  endfacet
  facet normal -0.10396205118449744 -0.989132844377854 -0.10396205118449735
    outer loop
      vertex 11.88132463773361 0.6484090676804914 6.949475176931498
      vertex 15 0 10
      vertex 11.88132463773361 0.32778598899291467 10
    endloop
  endfacet
  facet normal -0.10396205118449738 -0.9891328443778541 -0.10396205118449746
    outer loop
      vertex 11.88132463773361 0.6484090676804914 6.949475176931498
      vertex 15 0.32778598899291467 6.881324637733609
      vertex 15 0 10
    endloop
  endfacet
  facet normal -0.49794148874886085 -0.3527263397817547 -0.7922363302744544
    outer loop
      vertex 6.183221215612903 8.932372542187894 -0.5094390383305516
      vertex 8.898950353862997 10.765483926815964 -3.032500406342507
      vertex 8.898950353862997 8.148409067680493 -1.8673036074555984
    endloop
  endfacet
  facet normal -0.3074846172652085 -0.38703149394538283 -0.8692869680604175
    outer loop
      vertex 8.898950353862997 8.148409067680493 -1.8673036074555984
      vertex 11.88132463773361 10.4660365254926 -3.95410474364534
      vertex 11.88132463773361 7.663892994496457 -2.7065100632941093
    endloop
  endfacet
  facet normal -0.3074846172652082 -0.3870314939453833 -0.8692869680604175
    outer loop
      vertex 8.898950353862997 8.148409067680493 -1.8673036074555984
      vertex 8.898950353862997 10.765483926815964 -3.032500406342507
      vertex 11.88132463773361 10.4660365254926 -3.95410474364534
    endloop
  endfacet
  facet normal -0.49794148874886085 -0.18030322801852125 -0.8482599953720965
    outer loop
      vertex 6.183221215612903 11.25 -1.5413132644072007
      vertex 8.898950353862997 13.567627457812106 -3.6281144005969406
      vertex 8.898950353862997 10.765483926815964 -3.032500406342507
    endloop
  endfacet
  facet normal -0.4979414887488606 0 -0.8672106282689162
    outer loop
      vertex 8.898950353862997 13.567627457812106 -3.6281144005969406
      vertex 6.183221215612903 15 -2.068776719463747
      vertex 8.898950353862997 15 -3.6281144005969406
    endloop
  endfacet
  facet normal -0.30748461726520876 -0.19783900387581152 -0.9307593344633697
    outer loop
      vertex 8.898950353862997 10.765483926815964 -3.032500406342507
      vertex 8.898950353862997 13.567627457812106 -3.6281144005969406
      vertex 11.88132463773361 13.466336016695296 -4.591838087475702
    endloop
  endfacet
  facet normal -0.3074846172652082 -0.19783900387581208 -0.9307593344633696
    outer loop
      vertex 8.898950353862997 10.765483926815964 -3.032500406342507
      vertex 11.88132463773361 13.466336016695296 -4.591838087475702
      vertex 11.88132463773361 10.4660365254926 -3.95410474364534
    endloop
  endfacet
  facet normal -0.30748461726520876 0 -0.9515530516714599
    outer loop
      vertex 8.898950353862997 13.567627457812106 -3.6281144005969406
      vertex 8.898950353862997 15 -3.6281144005969406
      vertex 11.88132463773361 13.466336016695296 -4.591838087475702
    endloop
  endfacet
  facet normal -0.30748461726520876 0 -0.95155305167146
    outer loop
      vertex 11.88132463773361 13.466336016695296 -4.591838087475702
      vertex 8.898950353862997 15 -3.6281144005969406
      vertex 11.88132463773361 15 -4.591838087475702
    endloop
  endfacet
  facet normal -0.1039620511844975 -0.4045326448336137 -0.9085951965410304
    outer loop
      vertex 11.88132463773361 7.663892994496457 -2.7065100632941093
      vertex 11.88132463773361 10.4660365254926 -3.95410474364534
      vertex 15 10.36474508437579 -4.265847744427303
    endloop
  endfacet
  facet normal -0.10396205118449703 -0.4045326448336141 -0.9085951965410302
    outer loop
      vertex 11.88132463773361 7.663892994496457 -2.7065100632941093
      vertex 15 10.36474508437579 -4.265847744427303
      vertex 15 7.5 -2.9903810567665783
    endloop
  endfacet
  facet normal -0.10396205118449761 -0.20678507238076033 -0.9728472777132059
    outer loop
      vertex 11.88132463773361 10.4660365254926 -3.95410474364534
      vertex 11.88132463773361 13.466336016695296 -4.591838087475702
      vertex 15 13.432073050985197 -4.9178284305241
    endloop
  endfacet
  facet normal -0.1039620511844975 0 -0.9945812646101433
    outer loop
      vertex 11.88132463773361 13.466336016695296 -4.591838087475702
      vertex 11.88132463773361 15 -4.591838087475702
      vertex 15 13.432073050985197 -4.9178284305241
    endloop
  endfacet
  facet normal -0.10396205118449742 -0.2067850723807605 -0.9728472777132059
    outer loop
      vertex 11.88132463773361 10.4660365254926 -3.95410474364534
      vertex 15 13.432073050985197 -4.9178284305241
      vertex 15 10.36474508437579 -4.265847744427303
    endloop
  endfacet
  facet normal -0.10396205118449749 0 -0.9945812646101434
    outer loop
      vertex 15 15 -4.9178284305241
      vertex 15 13.432073050985197 -4.9178284305241
      vertex 11.88132463773361 15 -4.591838087475702
    endloop
  endfacet
endsolid OpenSCAD_Model
