<?xml version="1.0" encoding="UTF-8" standalone="no"?>
<!DOCTYPE svg PUBLIC "-//W3C//DTD SVG 1.1//EN"
 "http://www.w3.org/Graphics/SVG/1.1/DTD/svg11.dtd">
<!-- Generated by graphviz version 5.0.0 (20220707.1540)
 -->
<!-- Title: default Pages: 1 -->
<svg width="304pt" height="152pt"
 viewBox="0.00 0.00 304.28 152.00" xmlns="http://www.w3.org/2000/svg" xmlns:xlink="http://www.w3.org/1999/xlink">
<g id="graph0" class="graph" transform="scale(1 1) rotate(0) translate(4 148)">
<title>default</title>
<polygon fill="white" stroke="transparent" points="-4,4 -4,-148 300.28,-148 300.28,4 -4,4"/>
<!-- root_1 -->
<g id="node1" class="node">
<title>root_1</title>
<g id="a_node1"><a xlink:href="javascript:s=&quot;\(\)\nNone&quot;; console.log(s); alert(s);" xlink:title="root">
<ellipse fill="none" stroke="black" cx="27" cy="-72" rx="27" ry="18"/>
<text text-anchor="middle" x="27" y="-68.3" font-family="Times New Roman,serif" font-size="14.00">root</text>
</a>
</g>
</g>
<!-- default_2 -->
<g id="node2" class="node">
<title>default_2</title>
<g id="a_node2"><a xlink:href="javascript:s=&quot;\(&#x27;default&#x27;,\)\nBuildVolume&quot;; console.log(s); alert(s);" xlink:title="BuildVolume">
<ellipse fill="none" stroke="black" cx="125.1" cy="-72" rx="35.19" ry="18"/>
<text text-anchor="middle" x="125.1" y="-68.3" font-family="Times New Roman,serif" font-size="14.00">default</text>
</a>
</g>
</g>
<!-- root_1&#45;&gt;default_2 -->
<g id="edge1" class="edge">
<title>root_1&#45;&gt;default_2</title>
<path fill="none" stroke="black" d="M54.01,-72C61.92,-72 70.84,-72 79.61,-72"/>
<polygon fill="black" stroke="black" points="79.76,-75.5 89.76,-72 79.76,-68.5 79.76,-75.5"/>
</g>
<!-- volume_3 -->
<g id="node3" class="node">
<title>volume_3</title>
<g id="a_node3"><a xlink:href="javascript:s=&quot;\(&#x27;default&#x27;,\ &#x27;volume&#x27;\)\nBox&quot;; console.log(s); alert(s);" xlink:title="Box">
<ellipse fill="none" stroke="black" cx="246.24" cy="-126" rx="37.09" ry="18"/>
<text text-anchor="middle" x="246.24" y="-122.3" font-family="Times New Roman,serif" font-size="14.00">volume</text>
</a>
</g>
</g>
<!-- default_2&#45;&gt;volume_3 -->
<g id="edge2" class="edge">
<title>default_2&#45;&gt;volume_3</title>
<path fill="none" stroke="black" d="M151.95,-83.72C168.73,-91.32 190.84,-101.35 209.33,-109.72"/>
<polygon fill="black" stroke="black" points="208.06,-112.99 218.61,-113.93 210.95,-106.62 208.06,-112.99"/>
</g>
<!-- plate_4 -->
<g id="node4" class="node">
<title>plate_4</title>
<g id="a_node4"><a xlink:href="javascript:s=&quot;\(&#x27;default&#x27;,\ &#x27;plate&#x27;\)\nBox&quot;; console.log(s); alert(s);" xlink:title="Box">
<ellipse fill="none" stroke="black" cx="246.24" cy="-72" rx="27.9" ry="18"/>
<text text-anchor="middle" x="246.24" y="-68.3" font-family="Times New Roman,serif" font-size="14.00">plate</text>
</a>
</g>
</g>
<!-- default_2&#45;&gt;plate_4 -->
<g id="edge3" class="edge">
<title>default_2&#45;&gt;plate_4</title>
<path fill="none" stroke="black" d="M160.24,-72C175.21,-72 192.82,-72 208.12,-72"/>
<polygon fill="black" stroke="black" points="208.28,-75.5 218.28,-72 208.28,-68.5 208.28,-75.5"/>
</g>
<!-- front_label_5 -->
<g id="node5" class="node">
<title>front_label_5</title>
<g id="a_node5"><a xlink:href="javascript:s=&quot;\(&#x27;default&#x27;,\ &#x27;front_label&#x27;\)\nText&quot;; console.log(s); alert(s);" xlink:title="Text">
<ellipse fill="none" stroke="black" cx="246.24" cy="-18" rx="50.09" ry="18"/>
<text text-anchor="middle" x="246.24" y="-14.3" font-family="Times New Roman,serif" font-size="14.00">front_label</text>
</a>
</g>
</g>
<!-- default_2&#45;&gt;front_label_5 -->
<g id="edge4" class="edge">
<title>default_2&#45;&gt;front_label_5</title>
<path fill="none" stroke="black" d="M151.95,-60.28C167.42,-53.27 187.43,-44.2 204.94,-36.27"/>
<polygon fill="black" stroke="black" points="206.71,-39.31 214.37,-31.99 203.82,-32.93 206.71,-39.31"/>
</g>
</g>
</svg>
