<?xml version="1.0" encoding="UTF-8" standalone="no"?>
<!DOCTYPE svg PUBLIC "-//W3C//DTD SVG 1.1//EN"
 "http://www.w3.org/Graphics/SVG/1.1/DTD/svg11.dtd">
<!-- Generated by graphviz version 5.0.0 (20220707.1540)
 -->
<!-- Title: default Pages: 1 -->
<svg width="286pt" height="206pt"
 viewBox="0.00 0.00 286.09 206.00" xmlns="http://www.w3.org/2000/svg" xmlns:xlink="http://www.w3.org/1999/xlink">
<g id="graph0" class="graph" transform="scale(1 1) rotate(0) translate(4 202)">
<title>default</title>
<polygon fill="white" stroke="transparent" points="-4,4 -4,-202 282.09,-202 282.09,4 -4,4"/>
<!-- root_1 -->
<g id="node1" class="node">
<title>root_1</title>
<g id="a_node1"><a xlink:href="javascript:s=&quot;\(\)\nNone&quot;; console.log(s); alert(s);" xlink:title="root">
<ellipse fill="none" stroke="black" cx="27" cy="-99" rx="27" ry="18"/>
<text text-anchor="middle" x="27" y="-95.3" font-family="Times New Roman,serif" font-size="14.00">root</text>
</a>
</g>
</g>
<!-- default_2 -->
<g id="node2" class="node">
<title>default_2</title>
<g id="a_node2"><a xlink:href="javascript:s=&quot;\(&#x27;default&#x27;,\)\nWedge&quot;; console.log(s); alert(s);" xlink:title="Wedge">
<ellipse fill="none" stroke="black" cx="125.1" cy="-99" rx="35.19" ry="18"/>
<text text-anchor="middle" x="125.1" y="-95.3" font-family="Times New Roman,serif" font-size="14.00">default</text>
</a>
</g>
</g>
<!-- root_1&#45;&gt;default_2 -->
<g id="edge1" class="edge">
<title>root_1&#45;&gt;default_2</title>
<path fill="none" stroke="black" d="M54.01,-99C61.92,-99 70.84,-99 79.61,-99"/>
<polygon fill="black" stroke="black" points="79.76,-102.5 89.76,-99 79.76,-95.5 79.76,-102.5"/>
</g>
<!-- base_3 -->
<g id="node3" class="node">
<title>base_3</title>
<g id="a_node3"><a xlink:href="javascript:s=&quot;\(&#x27;default&#x27;,\ &#x27;base&#x27;\)\nBox&quot;; console.log(s); alert(s);" xlink:title="Box">
<ellipse fill="none" stroke="black" cx="237.14" cy="-180" rx="27.1" ry="18"/>
<text text-anchor="middle" x="237.14" y="-176.3" font-family="Times New Roman,serif" font-size="14.00">base</text>
</a>
</g>
</g>
<!-- default_2&#45;&gt;base_3 -->
<g id="edge2" class="edge">
<title>default_2&#45;&gt;base_3</title>
<path fill="none" stroke="black" d="M144.9,-113.99C158.88,-125.01 178.51,-140.23 196.19,-153 200.22,-155.91 204.53,-158.92 208.77,-161.83"/>
<polygon fill="black" stroke="black" points="207.04,-164.88 217.28,-167.6 210.97,-159.09 207.04,-164.88"/>
</g>
<!-- roof_4 -->
<g id="node4" class="node">
<title>roof_4</title>
<g id="a_node4"><a xlink:href="javascript:s=&quot;\(&#x27;default&#x27;,\ &#x27;roof&#x27;\)\nLinearExtrude&quot;; console.log(s); alert(s);" xlink:title="LinearExtrude">
<ellipse fill="none" stroke="black" cx="237.14" cy="-126" rx="27" ry="18"/>
<text text-anchor="middle" x="237.14" y="-122.3" font-family="Times New Roman,serif" font-size="14.00">roof</text>
</a>
</g>
</g>
<!-- default_2&#45;&gt;roof_4 -->
<g id="edge3" class="edge">
<title>default_2&#45;&gt;roof_4</title>
<path fill="none" stroke="black" d="M157.04,-106.59C170.85,-109.98 187.19,-113.99 201.41,-117.48"/>
<polygon fill="black" stroke="black" points="200.79,-120.93 211.34,-119.91 202.46,-114.13 200.79,-120.93"/>
</g>
<!-- door_5 -->
<g id="node5" class="node">
<title>door_5</title>
<g id="a_node5"><a xlink:href="javascript:s=&quot;\(&#x27;default&#x27;,\ &#x27;door&#x27;\)\nBox&quot;; console.log(s); alert(s);" xlink:title="Box">
<ellipse fill="none" stroke="black" cx="237.14" cy="-72" rx="28.7" ry="18"/>
<text text-anchor="middle" x="237.14" y="-68.3" font-family="Times New Roman,serif" font-size="14.00">door</text>
</a>
</g>
</g>
<!-- default_2&#45;&gt;door_5 -->
<g id="edge4" class="edge">
<title>default_2&#45;&gt;door_5</title>
<path fill="none" stroke="black" d="M157.04,-91.41C170.55,-88.09 186.46,-84.19 200.46,-80.75"/>
<polygon fill="black" stroke="black" points="201.38,-84.13 210.26,-78.35 199.71,-77.33 201.38,-84.13"/>
</g>
<!-- chimney_6 -->
<g id="node6" class="node">
<title>chimney_6</title>
<g id="a_node6"><a xlink:href="javascript:s=&quot;\(&#x27;default&#x27;,\ &#x27;chimney&#x27;\)\nCone&quot;; console.log(s); alert(s);" xlink:title="Cone">
<ellipse fill="none" stroke="black" cx="237.14" cy="-18" rx="40.89" ry="18"/>
<text text-anchor="middle" x="237.14" y="-14.3" font-family="Times New Roman,serif" font-size="14.00">chimney</text>
</a>
</g>
</g>
<!-- default_2&#45;&gt;chimney_6 -->
<g id="edge5" class="edge">
<title>default_2&#45;&gt;chimney_6</title>
<path fill="none" stroke="black" d="M144.9,-84.01C158.88,-72.99 178.51,-57.77 196.19,-45 199.06,-42.93 202.07,-40.8 205.1,-38.7"/>
<polygon fill="black" stroke="black" points="207.31,-41.43 213.58,-32.9 203.35,-35.66 207.31,-41.43"/>
</g>
</g>
</svg>
