<?xml version="1.0" encoding="UTF-8" standalone="no"?>
<!DOCTYPE svg PUBLIC "-//W3C//DTD SVG 1.1//EN"
 "http://www.w3.org/Graphics/SVG/1.1/DTD/svg11.dtd">
<!-- Generated by graphviz version 5.0.0 (20220707.1540)
 -->
<!-- Title: default Pages: 1 -->
<svg width="489pt" height="638pt"
 viewBox="0.00 0.00 489.37 638.00" xmlns="http://www.w3.org/2000/svg" xmlns:xlink="http://www.w3.org/1999/xlink">
<g id="graph0" class="graph" transform="scale(1 1) rotate(0) translate(4 634)">
<title>default</title>
<polygon fill="white" stroke="transparent" points="-4,4 -4,-634 485.37,-634 485.37,4 -4,4"/>
<!-- root_1 -->
<g id="node1" class="node">
<title>root_1</title>
<g id="a_node1"><a xlink:href="javascript:s=&quot;\(\)\nNone&quot;; console.log(s); alert(s);" xlink:title="root">
<ellipse fill="none" stroke="black" cx="27" cy="-396" rx="27" ry="18"/>
<text text-anchor="middle" x="27" y="-392.3" font-family="Times New Roman,serif" font-size="14.00">root</text>
</a>
</g>
</g>
<!-- default_2 -->
<g id="node2" class="node">
<title>default_2</title>
<g id="a_node2"><a xlink:href="javascript:s=&quot;\(&#x27;default&#x27;,\)\nTrapezoidPrism&quot;; console.log(s); alert(s);" xlink:title="TrapezoidPrism">
<ellipse fill="none" stroke="black" cx="126.4" cy="-504" rx="35.19" ry="18"/>
<text text-anchor="middle" x="126.4" y="-500.3" font-family="Times New Roman,serif" font-size="14.00">default</text>
</a>
</g>
</g>
<!-- root_1&#45;&gt;default_2 -->
<g id="edge1" class="edge">
<title>root_1&#45;&gt;default_2</title>
<path fill="none" stroke="black" d="M41.95,-411.47C58.19,-429.47 85.16,-459.38 104.03,-480.31"/>
<polygon fill="black" stroke="black" points="101.54,-482.77 110.83,-487.85 106.73,-478.08 101.54,-482.77"/>
</g>
<!-- 4 -->
<g id="node4" class="node">
<title>4</title>
<g id="a_node4"><a xlink:href="javascript:s=&quot;\(&quot;&#x27;top&#x27;,\ &quot;,\)\nAnnotatedCoordinates&quot;; console.log(s); alert(s);" xlink:title="AnnotatedCoordinates">
<ellipse fill="none" stroke="black" cx="126.4" cy="-396" rx="31.7" ry="18"/>
<text text-anchor="middle" x="126.4" y="-392.3" font-family="Times New Roman,serif" font-size="14.00">&#39;top&#39;, </text>
</a>
</g>
</g>
<!-- root_1&#45;&gt;4 -->
<g id="edge3" class="edge">
<title>root_1&#45;&gt;4</title>
<path fill="none" stroke="black" d="M54.1,-396C63.4,-396 74.11,-396 84.35,-396"/>
<polygon fill="black" stroke="black" points="84.37,-399.5 94.37,-396 84.37,-392.5 84.37,-399.5"/>
</g>
<!-- 20 -->
<g id="node20" class="node">
<title>20</title>
<g id="a_node20"><a xlink:href="javascript:s=&quot;\(&quot;&#x27;base&#x27;,\ &quot;,\)\nAnnotatedCoordinates&quot;; console.log(s); alert(s);" xlink:title="AnnotatedCoordinates">
<ellipse fill="none" stroke="black" cx="126.4" cy="-153" rx="36.29" ry="18"/>
<text text-anchor="middle" x="126.4" y="-149.3" font-family="Times New Roman,serif" font-size="14.00">&#39;base&#39;, </text>
</a>
</g>
</g>
<!-- root_1&#45;&gt;20 -->
<g id="edge19" class="edge">
<title>root_1&#45;&gt;20</title>
<path fill="none" stroke="black" d="M35,-378.52C51.78,-336.68 94.34,-230.49 114.49,-180.2"/>
<polygon fill="black" stroke="black" points="117.85,-181.23 118.32,-170.64 111.36,-178.62 117.85,-181.23"/>
</g>
<!-- prism_3 -->
<g id="node3" class="node">
<title>prism_3</title>
<g id="a_node3"><a xlink:href="javascript:s=&quot;\(&#x27;default&#x27;,\ &#x27;prism&#x27;\)\nLinearExtrude&quot;; console.log(s); alert(s);" xlink:title="LinearExtrude">
<ellipse fill="none" stroke="black" cx="235.19" cy="-558" rx="31.4" ry="18"/>
<text text-anchor="middle" x="235.19" y="-554.3" font-family="Times New Roman,serif" font-size="14.00">prism</text>
</a>
</g>
</g>
<!-- default_2&#45;&gt;prism_3 -->
<g id="edge2" class="edge">
<title>default_2&#45;&gt;prism_3</title>
<path fill="none" stroke="black" d="M151.9,-516.39C166.83,-523.94 186.07,-533.67 202.19,-541.82"/>
<polygon fill="black" stroke="black" points="200.76,-545.02 211.27,-546.41 203.92,-538.77 200.76,-545.02"/>
</g>
<!-- coords_5 -->
<g id="node5" class="node">
<title>coords_5</title>
<g id="a_node5"><a xlink:href="javascript:s=&quot;\(&quot;&#x27;top&#x27;,\ &quot;,\ &#x27;coords&#x27;\)\nCoordinates&quot;; console.log(s); alert(s);" xlink:title="Coordinates">
<ellipse fill="none" stroke="black" cx="235.19" cy="-504" rx="36.29" ry="18"/>
<text text-anchor="middle" x="235.19" y="-500.3" font-family="Times New Roman,serif" font-size="14.00">coords</text>
</a>
</g>
</g>
<!-- 4&#45;&gt;coords_5 -->
<g id="edge4" class="edge">
<title>4&#45;&gt;coords_5</title>
<path fill="none" stroke="black" d="M140.22,-412.37C153.88,-429.36 176.57,-456.3 198.79,-477 200.91,-478.98 203.17,-480.95 205.48,-482.89"/>
<polygon fill="black" stroke="black" points="203.42,-485.72 213.42,-489.24 207.8,-480.26 203.42,-485.72"/>
</g>
<!-- x_16 -->
<g id="node16" class="node">
<title>x_16</title>
<g id="a_node16"><a xlink:href="javascript:s=&quot;\(&quot;&#x27;top&#x27;,\ &quot;,\ &#x27;x&#x27;\)\nText&quot;; console.log(s); alert(s);" xlink:title="Text">
<ellipse fill="none" stroke="black" cx="235.19" cy="-450" rx="27" ry="18"/>
<text text-anchor="middle" x="235.19" y="-446.3" font-family="Times New Roman,serif" font-size="14.00">x</text>
</a>
</g>
</g>
<!-- 4&#45;&gt;x_16 -->
<g id="edge15" class="edge">
<title>4&#45;&gt;x_16</title>
<path fill="none" stroke="black" d="M150.83,-407.85C166.33,-415.69 186.81,-426.04 203.6,-434.53"/>
<polygon fill="black" stroke="black" points="202.48,-437.89 212.98,-439.28 205.64,-431.64 202.48,-437.89"/>
</g>
<!-- y_17 -->
<g id="node17" class="node">
<title>y_17</title>
<g id="a_node17"><a xlink:href="javascript:s=&quot;\(&quot;&#x27;top&#x27;,\ &quot;,\ &#x27;y&#x27;\)\nText&quot;; console.log(s); alert(s);" xlink:title="Text">
<ellipse fill="none" stroke="black" cx="235.19" cy="-396" rx="27" ry="18"/>
<text text-anchor="middle" x="235.19" y="-392.3" font-family="Times New Roman,serif" font-size="14.00">y</text>
</a>
</g>
</g>
<!-- 4&#45;&gt;y_17 -->
<g id="edge16" class="edge">
<title>4&#45;&gt;y_17</title>
<path fill="none" stroke="black" d="M158.29,-396C170.61,-396 184.88,-396 197.71,-396"/>
<polygon fill="black" stroke="black" points="198.07,-399.5 208.07,-396 198.07,-392.5 198.07,-399.5"/>
</g>
<!-- z_18 -->
<g id="node18" class="node">
<title>z_18</title>
<g id="a_node18"><a xlink:href="javascript:s=&quot;\(&quot;&#x27;top&#x27;,\ &quot;,\ &#x27;z&#x27;\)\nText&quot;; console.log(s); alert(s);" xlink:title="Text">
<ellipse fill="none" stroke="black" cx="235.19" cy="-342" rx="27" ry="18"/>
<text text-anchor="middle" x="235.19" y="-338.3" font-family="Times New Roman,serif" font-size="14.00">z</text>
</a>
</g>
</g>
<!-- 4&#45;&gt;z_18 -->
<g id="edge17" class="edge">
<title>4&#45;&gt;z_18</title>
<path fill="none" stroke="black" d="M150.83,-384.15C166.33,-376.31 186.81,-365.96 203.6,-357.47"/>
<polygon fill="black" stroke="black" points="205.64,-360.36 212.98,-352.72 202.48,-354.11 205.64,-360.36"/>
</g>
<!-- label_19 -->
<g id="node19" class="node">
<title>label_19</title>
<g id="a_node19"><a xlink:href="javascript:s=&quot;\(&quot;&#x27;top&#x27;,\ &quot;,\ &#x27;label&#x27;\)\nText&quot;; console.log(s); alert(s);" xlink:title="Text">
<ellipse fill="none" stroke="black" cx="235.19" cy="-288" rx="27.1" ry="18"/>
<text text-anchor="middle" x="235.19" y="-284.3" font-family="Times New Roman,serif" font-size="14.00">label</text>
</a>
</g>
</g>
<!-- 4&#45;&gt;label_19 -->
<g id="edge18" class="edge">
<title>4&#45;&gt;label_19</title>
<path fill="none" stroke="black" d="M140.22,-379.63C153.88,-362.64 176.57,-335.7 198.79,-315 201.7,-312.29 204.87,-309.58 208.07,-306.98"/>
<polygon fill="black" stroke="black" points="210.26,-309.71 215.99,-300.8 205.96,-304.19 210.26,-309.71"/>
</g>
<!-- origin_6 -->
<g id="node6" class="node">
<title>origin_6</title>
<g id="a_node6"><a xlink:href="javascript:s=&quot;\(&quot;&#x27;top&#x27;,\ &quot;,\ &#x27;coords&#x27;,\ &#x27;origin&#x27;\)\nCoordinatesCage&quot;; console.log(s); alert(s);" xlink:title="CoordinatesCage">
<ellipse fill="none" stroke="black" cx="348.53" cy="-612" rx="31.4" ry="18"/>
<text text-anchor="middle" x="348.53" y="-608.3" font-family="Times New Roman,serif" font-size="14.00">origin</text>
</a>
</g>
</g>
<!-- coords_5&#45;&gt;origin_6 -->
<g id="edge5" class="edge">
<title>coords_5&#45;&gt;origin_6</title>
<path fill="none" stroke="black" d="M257.38,-518.34C262.31,-522.16 267.36,-526.49 271.59,-531 291.32,-552.03 287.26,-564.54 307.59,-585 310.57,-588.01 313.94,-590.88 317.42,-593.55"/>
<polygon fill="black" stroke="black" points="315.45,-596.45 325.63,-599.41 319.52,-590.75 315.45,-596.45"/>
</g>
<!-- x_arrow_7 -->
<g id="node7" class="node">
<title>x_arrow_7</title>
<g id="a_node7"><a xlink:href="javascript:s=&quot;\(&quot;&#x27;top&#x27;,\ &quot;,\ &#x27;coords&#x27;,\ &#x27;x_arrow&#x27;\)\nArrow&quot;; console.log(s); alert(s);" xlink:title="Arrow">
<ellipse fill="none" stroke="black" cx="348.53" cy="-558" rx="40.89" ry="18"/>
<text text-anchor="middle" x="348.53" y="-554.3" font-family="Times New Roman,serif" font-size="14.00">x_arrow</text>
</a>
</g>
</g>
<!-- coords_5&#45;&gt;x_arrow_7 -->
<g id="edge6" class="edge">
<title>coords_5&#45;&gt;x_arrow_7</title>
<path fill="none" stroke="black" d="M261.73,-516.39C276.33,-523.47 294.89,-532.47 311,-540.28"/>
<polygon fill="black" stroke="black" points="309.64,-543.51 320.16,-544.73 312.69,-537.21 309.64,-543.51"/>
</g>
<!-- y_arrow_10 -->
<g id="node10" class="node">
<title>y_arrow_10</title>
<g id="a_node10"><a xlink:href="javascript:s=&quot;\(&quot;&#x27;top&#x27;,\ &quot;,\ &#x27;coords&#x27;,\ &#x27;y_arrow&#x27;\)\nArrow&quot;; console.log(s); alert(s);" xlink:title="Arrow">
<ellipse fill="none" stroke="black" cx="348.53" cy="-504" rx="40.89" ry="18"/>
<text text-anchor="middle" x="348.53" y="-500.3" font-family="Times New Roman,serif" font-size="14.00">y_arrow</text>
</a>
</g>
</g>
<!-- coords_5&#45;&gt;y_arrow_10 -->
<g id="edge9" class="edge">
<title>coords_5&#45;&gt;y_arrow_10</title>
<path fill="none" stroke="black" d="M271.73,-504C279.78,-504 288.48,-504 297.02,-504"/>
<polygon fill="black" stroke="black" points="297.31,-507.5 307.31,-504 297.31,-500.5 297.31,-507.5"/>
</g>
<!-- z_arrow_13 -->
<g id="node13" class="node">
<title>z_arrow_13</title>
<g id="a_node13"><a xlink:href="javascript:s=&quot;\(&quot;&#x27;top&#x27;,\ &quot;,\ &#x27;coords&#x27;,\ &#x27;z_arrow&#x27;\)\nArrow&quot;; console.log(s); alert(s);" xlink:title="Arrow">
<ellipse fill="none" stroke="black" cx="348.53" cy="-396" rx="40.09" ry="18"/>
<text text-anchor="middle" x="348.53" y="-392.3" font-family="Times New Roman,serif" font-size="14.00">z_arrow</text>
</a>
</g>
</g>
<!-- coords_5&#45;&gt;z_arrow_13 -->
<g id="edge12" class="edge">
<title>coords_5&#45;&gt;z_arrow_13</title>
<path fill="none" stroke="black" d="M256.87,-489.14C261.82,-485.34 267,-481.14 271.59,-477 291.26,-459.23 311.71,-437.18 326.42,-420.58"/>
<polygon fill="black" stroke="black" points="329.19,-422.73 333.16,-412.91 323.93,-418.11 329.19,-422.73"/>
</g>
<!-- stem_8 -->
<g id="node8" class="node">
<title>stem_8</title>
<g id="a_node8"><a xlink:href="javascript:s=&quot;\(&quot;&#x27;top&#x27;,\ &quot;,\ &#x27;coords&#x27;,\ &#x27;x_arrow&#x27;,\ &#x27;stem&#x27;\)\nCone&quot;; console.log(s); alert(s);" xlink:title="Cone">
<ellipse fill="none" stroke="black" cx="453.43" cy="-612" rx="27.9" ry="18"/>
<text text-anchor="middle" x="453.43" y="-608.3" font-family="Times New Roman,serif" font-size="14.00">stem</text>
</a>
</g>
</g>
<!-- x_arrow_7&#45;&gt;stem_8 -->
<g id="edge7" class="edge">
<title>x_arrow_7&#45;&gt;stem_8</title>
<path fill="none" stroke="black" d="M375.5,-571.63C389.66,-579.06 407.27,-588.3 422.07,-596.07"/>
<polygon fill="black" stroke="black" points="420.84,-599.37 431.32,-600.92 424.09,-593.18 420.84,-599.37"/>
</g>
<!-- head_9 -->
<g id="node9" class="node">
<title>head_9</title>
<g id="a_node9"><a xlink:href="javascript:s=&quot;\(&quot;&#x27;top&#x27;,\ &quot;,\ &#x27;coords&#x27;,\ &#x27;x_arrow&#x27;,\ &#x27;head&#x27;\)\nCone&quot;; console.log(s); alert(s);" xlink:title="Cone">
<ellipse fill="none" stroke="black" cx="453.43" cy="-558" rx="27.9" ry="18"/>
<text text-anchor="middle" x="453.43" y="-554.3" font-family="Times New Roman,serif" font-size="14.00">head</text>
</a>
</g>
</g>
<!-- x_arrow_7&#45;&gt;head_9 -->
<g id="edge8" class="edge">
<title>x_arrow_7&#45;&gt;head_9</title>
<path fill="none" stroke="black" d="M389.61,-558C398.02,-558 406.86,-558 415.16,-558"/>
<polygon fill="black" stroke="black" points="415.32,-561.5 425.32,-558 415.32,-554.5 415.32,-561.5"/>
</g>
<!-- stem_11 -->
<g id="node11" class="node">
<title>stem_11</title>
<g id="a_node11"><a xlink:href="javascript:s=&quot;\(&quot;&#x27;top&#x27;,\ &quot;,\ &#x27;coords&#x27;,\ &#x27;y_arrow&#x27;,\ &#x27;stem&#x27;\)\nCone&quot;; console.log(s); alert(s);" xlink:title="Cone">
<ellipse fill="none" stroke="black" cx="453.43" cy="-504" rx="27.9" ry="18"/>
<text text-anchor="middle" x="453.43" y="-500.3" font-family="Times New Roman,serif" font-size="14.00">stem</text>
</a>
</g>
</g>
<!-- y_arrow_10&#45;&gt;stem_11 -->
<g id="edge10" class="edge">
<title>y_arrow_10&#45;&gt;stem_11</title>
<path fill="none" stroke="black" d="M389.61,-504C398.02,-504 406.86,-504 415.16,-504"/>
<polygon fill="black" stroke="black" points="415.32,-507.5 425.32,-504 415.32,-500.5 415.32,-507.5"/>
</g>
<!-- head_12 -->
<g id="node12" class="node">
<title>head_12</title>
<g id="a_node12"><a xlink:href="javascript:s=&quot;\(&quot;&#x27;top&#x27;,\ &quot;,\ &#x27;coords&#x27;,\ &#x27;y_arrow&#x27;,\ &#x27;head&#x27;\)\nCone&quot;; console.log(s); alert(s);" xlink:title="Cone">
<ellipse fill="none" stroke="black" cx="453.43" cy="-450" rx="27.9" ry="18"/>
<text text-anchor="middle" x="453.43" y="-446.3" font-family="Times New Roman,serif" font-size="14.00">head</text>
</a>
</g>
</g>
<!-- y_arrow_10&#45;&gt;head_12 -->
<g id="edge11" class="edge">
<title>y_arrow_10&#45;&gt;head_12</title>
<path fill="none" stroke="black" d="M375.5,-490.37C389.66,-482.94 407.27,-473.7 422.07,-465.93"/>
<polygon fill="black" stroke="black" points="424.09,-468.82 431.32,-461.08 420.84,-462.63 424.09,-468.82"/>
</g>
<!-- stem_14 -->
<g id="node14" class="node">
<title>stem_14</title>
<g id="a_node14"><a xlink:href="javascript:s=&quot;\(&quot;&#x27;top&#x27;,\ &quot;,\ &#x27;coords&#x27;,\ &#x27;z_arrow&#x27;,\ &#x27;stem&#x27;\)\nCone&quot;; console.log(s); alert(s);" xlink:title="Cone">
<ellipse fill="none" stroke="black" cx="453.43" cy="-396" rx="27.9" ry="18"/>
<text text-anchor="middle" x="453.43" y="-392.3" font-family="Times New Roman,serif" font-size="14.00">stem</text>
</a>
</g>
</g>
<!-- z_arrow_13&#45;&gt;stem_14 -->
<g id="edge13" class="edge">
<title>z_arrow_13&#45;&gt;stem_14</title>
<path fill="none" stroke="black" d="M389.02,-396C397.64,-396 406.74,-396 415.27,-396"/>
<polygon fill="black" stroke="black" points="415.32,-399.5 425.32,-396 415.32,-392.5 415.32,-399.5"/>
</g>
<!-- head_15 -->
<g id="node15" class="node">
<title>head_15</title>
<g id="a_node15"><a xlink:href="javascript:s=&quot;\(&quot;&#x27;top&#x27;,\ &quot;,\ &#x27;coords&#x27;,\ &#x27;z_arrow&#x27;,\ &#x27;head&#x27;\)\nCone&quot;; console.log(s); alert(s);" xlink:title="Cone">
<ellipse fill="none" stroke="black" cx="453.43" cy="-342" rx="27.9" ry="18"/>
<text text-anchor="middle" x="453.43" y="-338.3" font-family="Times New Roman,serif" font-size="14.00">head</text>
</a>
</g>
</g>
<!-- z_arrow_13&#45;&gt;head_15 -->
<g id="edge14" class="edge">
<title>z_arrow_13&#45;&gt;head_15</title>
<path fill="none" stroke="black" d="M375.23,-382.51C389.53,-375.01 407.4,-365.63 422.34,-357.79"/>
<polygon fill="black" stroke="black" points="423.98,-360.88 431.21,-353.14 420.73,-354.68 423.98,-360.88"/>
</g>
<!-- coords_21 -->
<g id="node21" class="node">
<title>coords_21</title>
<g id="a_node21"><a xlink:href="javascript:s=&quot;\(&quot;&#x27;base&#x27;,\ &quot;,\ &#x27;coords&#x27;\)\nCoordinates&quot;; console.log(s); alert(s);" xlink:title="Coordinates">
<ellipse fill="none" stroke="black" cx="235.19" cy="-234" rx="36.29" ry="18"/>
<text text-anchor="middle" x="235.19" y="-230.3" font-family="Times New Roman,serif" font-size="14.00">coords</text>
</a>
</g>
</g>
<!-- 20&#45;&gt;coords_21 -->
<g id="edge20" class="edge">
<title>20&#45;&gt;coords_21</title>
<path fill="none" stroke="black" d="M146.98,-167.86C163.59,-180.45 187.61,-198.67 206.23,-212.79"/>
<polygon fill="black" stroke="black" points="204.28,-215.71 214.37,-218.96 208.51,-210.13 204.28,-215.71"/>
</g>
<!-- x_32 -->
<g id="node32" class="node">
<title>x_32</title>
<g id="a_node32"><a xlink:href="javascript:s=&quot;\(&quot;&#x27;base&#x27;,\ &quot;,\ &#x27;x&#x27;\)\nText&quot;; console.log(s); alert(s);" xlink:title="Text">
<ellipse fill="none" stroke="black" cx="235.19" cy="-180" rx="27" ry="18"/>
<text text-anchor="middle" x="235.19" y="-176.3" font-family="Times New Roman,serif" font-size="14.00">x</text>
</a>
</g>
</g>
<!-- 20&#45;&gt;x_32 -->
<g id="edge31" class="edge">
<title>20&#45;&gt;x_32</title>
<path fill="none" stroke="black" d="M159.15,-161.03C171.86,-164.24 186.54,-167.95 199.53,-171.24"/>
<polygon fill="black" stroke="black" points="198.96,-174.7 209.51,-173.76 200.67,-167.92 198.96,-174.7"/>
</g>
<!-- y_33 -->
<g id="node33" class="node">
<title>y_33</title>
<g id="a_node33"><a xlink:href="javascript:s=&quot;\(&quot;&#x27;base&#x27;,\ &quot;,\ &#x27;y&#x27;\)\nText&quot;; console.log(s); alert(s);" xlink:title="Text">
<ellipse fill="none" stroke="black" cx="235.19" cy="-126" rx="27" ry="18"/>
<text text-anchor="middle" x="235.19" y="-122.3" font-family="Times New Roman,serif" font-size="14.00">y</text>
</a>
</g>
</g>
<!-- 20&#45;&gt;y_33 -->
<g id="edge32" class="edge">
<title>20&#45;&gt;y_33</title>
<path fill="none" stroke="black" d="M159.15,-144.97C171.86,-141.76 186.54,-138.05 199.53,-134.76"/>
<polygon fill="black" stroke="black" points="200.67,-138.08 209.51,-132.24 198.96,-131.3 200.67,-138.08"/>
</g>
<!-- z_34 -->
<g id="node34" class="node">
<title>z_34</title>
<g id="a_node34"><a xlink:href="javascript:s=&quot;\(&quot;&#x27;base&#x27;,\ &quot;,\ &#x27;z&#x27;\)\nText&quot;; console.log(s); alert(s);" xlink:title="Text">
<ellipse fill="none" stroke="black" cx="235.19" cy="-72" rx="27" ry="18"/>
<text text-anchor="middle" x="235.19" y="-68.3" font-family="Times New Roman,serif" font-size="14.00">z</text>
</a>
</g>
</g>
<!-- 20&#45;&gt;z_34 -->
<g id="edge33" class="edge">
<title>20&#45;&gt;z_34</title>
<path fill="none" stroke="black" d="M146.98,-138.14C164.22,-125.07 189.43,-105.95 208.32,-91.62"/>
<polygon fill="black" stroke="black" points="210.65,-94.25 216.5,-85.42 206.42,-88.67 210.65,-94.25"/>
</g>
<!-- label_35 -->
<g id="node35" class="node">
<title>label_35</title>
<g id="a_node35"><a xlink:href="javascript:s=&quot;\(&quot;&#x27;base&#x27;,\ &quot;,\ &#x27;label&#x27;\)\nText&quot;; console.log(s); alert(s);" xlink:title="Text">
<ellipse fill="none" stroke="black" cx="235.19" cy="-18" rx="27.1" ry="18"/>
<text text-anchor="middle" x="235.19" y="-14.3" font-family="Times New Roman,serif" font-size="14.00">label</text>
</a>
</g>
</g>
<!-- 20&#45;&gt;label_35 -->
<g id="edge34" class="edge">
<title>20&#45;&gt;label_35</title>
<path fill="none" stroke="black" d="M136.46,-135.65C148.7,-113.2 172.09,-73.57 198.79,-45 201.37,-42.24 204.26,-39.55 207.24,-37"/>
<polygon fill="black" stroke="black" points="209.57,-39.62 215.2,-30.65 205.2,-34.15 209.57,-39.62"/>
</g>
<!-- origin_22 -->
<g id="node22" class="node">
<title>origin_22</title>
<g id="a_node22"><a xlink:href="javascript:s=&quot;\(&quot;&#x27;base&#x27;,\ &quot;,\ &#x27;coords&#x27;,\ &#x27;origin&#x27;\)\nCoordinatesCage&quot;; console.log(s); alert(s);" xlink:title="CoordinatesCage">
<ellipse fill="none" stroke="black" cx="348.53" cy="-288" rx="31.4" ry="18"/>
<text text-anchor="middle" x="348.53" y="-284.3" font-family="Times New Roman,serif" font-size="14.00">origin</text>
</a>
</g>
</g>
<!-- coords_21&#45;&gt;origin_22 -->
<g id="edge21" class="edge">
<title>coords_21&#45;&gt;origin_22</title>
<path fill="none" stroke="black" d="M261.73,-246.39C277.55,-254.06 298.01,-263.98 314.99,-272.22"/>
<polygon fill="black" stroke="black" points="313.48,-275.38 324.01,-276.59 316.54,-269.08 313.48,-275.38"/>
</g>
<!-- x_arrow_23 -->
<g id="node23" class="node">
<title>x_arrow_23</title>
<g id="a_node23"><a xlink:href="javascript:s=&quot;\(&quot;&#x27;base&#x27;,\ &quot;,\ &#x27;coords&#x27;,\ &#x27;x_arrow&#x27;\)\nArrow&quot;; console.log(s); alert(s);" xlink:title="Arrow">
<ellipse fill="none" stroke="black" cx="348.53" cy="-234" rx="40.89" ry="18"/>
<text text-anchor="middle" x="348.53" y="-230.3" font-family="Times New Roman,serif" font-size="14.00">x_arrow</text>
</a>
</g>
</g>
<!-- coords_21&#45;&gt;x_arrow_23 -->
<g id="edge22" class="edge">
<title>coords_21&#45;&gt;x_arrow_23</title>
<path fill="none" stroke="black" d="M271.73,-234C279.78,-234 288.48,-234 297.02,-234"/>
<polygon fill="black" stroke="black" points="297.31,-237.5 307.31,-234 297.31,-230.5 297.31,-237.5"/>
</g>
<!-- y_arrow_26 -->
<g id="node26" class="node">
<title>y_arrow_26</title>
<g id="a_node26"><a xlink:href="javascript:s=&quot;\(&quot;&#x27;base&#x27;,\ &quot;,\ &#x27;coords&#x27;,\ &#x27;y_arrow&#x27;\)\nArrow&quot;; console.log(s); alert(s);" xlink:title="Arrow">
<ellipse fill="none" stroke="black" cx="348.53" cy="-180" rx="40.89" ry="18"/>
<text text-anchor="middle" x="348.53" y="-176.3" font-family="Times New Roman,serif" font-size="14.00">y_arrow</text>
</a>
</g>
</g>
<!-- coords_21&#45;&gt;y_arrow_26 -->
<g id="edge25" class="edge">
<title>coords_21&#45;&gt;y_arrow_26</title>
<path fill="none" stroke="black" d="M261.73,-221.61C276.33,-214.53 294.89,-205.53 311,-197.72"/>
<polygon fill="black" stroke="black" points="312.69,-200.79 320.16,-193.27 309.64,-194.49 312.69,-200.79"/>
</g>
<!-- z_arrow_29 -->
<g id="node29" class="node">
<title>z_arrow_29</title>
<g id="a_node29"><a xlink:href="javascript:s=&quot;\(&quot;&#x27;base&#x27;,\ &quot;,\ &#x27;coords&#x27;,\ &#x27;z_arrow&#x27;\)\nArrow&quot;; console.log(s); alert(s);" xlink:title="Arrow">
<ellipse fill="none" stroke="black" cx="348.53" cy="-72" rx="40.09" ry="18"/>
<text text-anchor="middle" x="348.53" y="-68.3" font-family="Times New Roman,serif" font-size="14.00">z_arrow</text>
</a>
</g>
</g>
<!-- coords_21&#45;&gt;z_arrow_29 -->
<g id="edge28" class="edge">
<title>coords_21&#45;&gt;z_arrow_29</title>
<path fill="none" stroke="black" d="M257.99,-219.59C262.8,-215.83 267.63,-211.55 271.59,-207 287.03,-189.24 316.86,-132.65 334.19,-98.64"/>
<polygon fill="black" stroke="black" points="337.32,-100.19 338.72,-89.69 331.08,-97.03 337.32,-100.19"/>
</g>
<!-- stem_24 -->
<g id="node24" class="node">
<title>stem_24</title>
<g id="a_node24"><a xlink:href="javascript:s=&quot;\(&quot;&#x27;base&#x27;,\ &quot;,\ &#x27;coords&#x27;,\ &#x27;x_arrow&#x27;,\ &#x27;stem&#x27;\)\nCone&quot;; console.log(s); alert(s);" xlink:title="Cone">
<ellipse fill="none" stroke="black" cx="453.43" cy="-288" rx="27.9" ry="18"/>
<text text-anchor="middle" x="453.43" y="-284.3" font-family="Times New Roman,serif" font-size="14.00">stem</text>
</a>
</g>
</g>
<!-- x_arrow_23&#45;&gt;stem_24 -->
<g id="edge23" class="edge">
<title>x_arrow_23&#45;&gt;stem_24</title>
<path fill="none" stroke="black" d="M375.5,-247.63C389.66,-255.06 407.27,-264.3 422.07,-272.07"/>
<polygon fill="black" stroke="black" points="420.84,-275.37 431.32,-276.92 424.09,-269.18 420.84,-275.37"/>
</g>
<!-- head_25 -->
<g id="node25" class="node">
<title>head_25</title>
<g id="a_node25"><a xlink:href="javascript:s=&quot;\(&quot;&#x27;base&#x27;,\ &quot;,\ &#x27;coords&#x27;,\ &#x27;x_arrow&#x27;,\ &#x27;head&#x27;\)\nCone&quot;; console.log(s); alert(s);" xlink:title="Cone">
<ellipse fill="none" stroke="black" cx="453.43" cy="-234" rx="27.9" ry="18"/>
<text text-anchor="middle" x="453.43" y="-230.3" font-family="Times New Roman,serif" font-size="14.00">head</text>
</a>
</g>
</g>
<!-- x_arrow_23&#45;&gt;head_25 -->
<g id="edge24" class="edge">
<title>x_arrow_23&#45;&gt;head_25</title>
<path fill="none" stroke="black" d="M389.61,-234C398.02,-234 406.86,-234 415.16,-234"/>
<polygon fill="black" stroke="black" points="415.32,-237.5 425.32,-234 415.32,-230.5 415.32,-237.5"/>
</g>
<!-- stem_27 -->
<g id="node27" class="node">
<title>stem_27</title>
<g id="a_node27"><a xlink:href="javascript:s=&quot;\(&quot;&#x27;base&#x27;,\ &quot;,\ &#x27;coords&#x27;,\ &#x27;y_arrow&#x27;,\ &#x27;stem&#x27;\)\nCone&quot;; console.log(s); alert(s);" xlink:title="Cone">
<ellipse fill="none" stroke="black" cx="453.43" cy="-180" rx="27.9" ry="18"/>
<text text-anchor="middle" x="453.43" y="-176.3" font-family="Times New Roman,serif" font-size="14.00">stem</text>
</a>
</g>
</g>
<!-- y_arrow_26&#45;&gt;stem_27 -->
<g id="edge26" class="edge">
<title>y_arrow_26&#45;&gt;stem_27</title>
<path fill="none" stroke="black" d="M389.61,-180C398.02,-180 406.86,-180 415.16,-180"/>
<polygon fill="black" stroke="black" points="415.32,-183.5 425.32,-180 415.32,-176.5 415.32,-183.5"/>
</g>
<!-- head_28 -->
<g id="node28" class="node">
<title>head_28</title>
<g id="a_node28"><a xlink:href="javascript:s=&quot;\(&quot;&#x27;base&#x27;,\ &quot;,\ &#x27;coords&#x27;,\ &#x27;y_arrow&#x27;,\ &#x27;head&#x27;\)\nCone&quot;; console.log(s); alert(s);" xlink:title="Cone">
<ellipse fill="none" stroke="black" cx="453.43" cy="-126" rx="27.9" ry="18"/>
<text text-anchor="middle" x="453.43" y="-122.3" font-family="Times New Roman,serif" font-size="14.00">head</text>
</a>
</g>
</g>
<!-- y_arrow_26&#45;&gt;head_28 -->
<g id="edge27" class="edge">
<title>y_arrow_26&#45;&gt;head_28</title>
<path fill="none" stroke="black" d="M375.5,-166.37C389.66,-158.94 407.27,-149.7 422.07,-141.93"/>
<polygon fill="black" stroke="black" points="424.09,-144.82 431.32,-137.08 420.84,-138.63 424.09,-144.82"/>
</g>
<!-- stem_30 -->
<g id="node30" class="node">
<title>stem_30</title>
<g id="a_node30"><a xlink:href="javascript:s=&quot;\(&quot;&#x27;base&#x27;,\ &quot;,\ &#x27;coords&#x27;,\ &#x27;z_arrow&#x27;,\ &#x27;stem&#x27;\)\nCone&quot;; console.log(s); alert(s);" xlink:title="Cone">
<ellipse fill="none" stroke="black" cx="453.43" cy="-72" rx="27.9" ry="18"/>
<text text-anchor="middle" x="453.43" y="-68.3" font-family="Times New Roman,serif" font-size="14.00">stem</text>
</a>
</g>
</g>
<!-- z_arrow_29&#45;&gt;stem_30 -->
<g id="edge29" class="edge">
<title>z_arrow_29&#45;&gt;stem_30</title>
<path fill="none" stroke="black" d="M389.02,-72C397.64,-72 406.74,-72 415.27,-72"/>
<polygon fill="black" stroke="black" points="415.32,-75.5 425.32,-72 415.32,-68.5 415.32,-75.5"/>
</g>
<!-- head_31 -->
<g id="node31" class="node">
<title>head_31</title>
<g id="a_node31"><a xlink:href="javascript:s=&quot;\(&quot;&#x27;base&#x27;,\ &quot;,\ &#x27;coords&#x27;,\ &#x27;z_arrow&#x27;,\ &#x27;head&#x27;\)\nCone&quot;; console.log(s); alert(s);" xlink:title="Cone">
<ellipse fill="none" stroke="black" cx="453.43" cy="-18" rx="27.9" ry="18"/>
<text text-anchor="middle" x="453.43" y="-14.3" font-family="Times New Roman,serif" font-size="14.00">head</text>
</a>
</g>
</g>
<!-- z_arrow_29&#45;&gt;head_31 -->
<g id="edge30" class="edge">
<title>z_arrow_29&#45;&gt;head_31</title>
<path fill="none" stroke="black" d="M375.23,-58.51C389.53,-51.01 407.4,-41.63 422.34,-33.79"/>
<polygon fill="black" stroke="black" points="423.98,-36.88 431.21,-29.14 420.73,-30.68 423.98,-36.88"/>
</g>
</g>
</svg>
