<?xml version="1.0" encoding="UTF-8" standalone="no"?>
<!DOCTYPE svg PUBLIC "-//W3C//DTD SVG 1.1//EN"
 "http://www.w3.org/Graphics/SVG/1.1/DTD/svg11.dtd">
<!-- Generated by graphviz version 5.0.0 (20220707.1540)
 -->
<!-- Title: default Pages: 1 -->
<svg width="449pt" height="260pt"
 viewBox="0.00 0.00 449.48 260.00" xmlns="http://www.w3.org/2000/svg" xmlns:xlink="http://www.w3.org/1999/xlink">
<g id="graph0" class="graph" transform="scale(1 1) rotate(0) translate(4 256)">
<title>default</title>
<polygon fill="white" stroke="transparent" points="-4,4 -4,-256 445.48,-256 445.48,4 -4,4"/>
<!-- root_85 -->
<g id="node1" class="node">
<title>root_85</title>
<g id="a_node1"><a xlink:href="javascript:s=&quot;\(\)\nNone&quot;; console.log(s); alert(s);" xlink:title="root">
<ellipse fill="none" stroke="black" cx="27" cy="-126" rx="27" ry="18"/>
<text text-anchor="middle" x="27" y="-122.3" font-family="Times New Roman,serif" font-size="14.00">root</text>
</a>
</g>
</g>
<!-- default_86 -->
<g id="node2" class="node">
<title>default_86</title>
<g id="a_node2"><a xlink:href="javascript:s=&quot;\(&#x27;default&#x27;,\)\nScrewHole&quot;; console.log(s); alert(s);" xlink:title="ScrewHole">
<ellipse fill="none" stroke="black" cx="125.1" cy="-126" rx="35.19" ry="18"/>
<text text-anchor="middle" x="125.1" y="-122.3" font-family="Times New Roman,serif" font-size="14.00">default</text>
</a>
</g>
</g>
<!-- root_85&#45;&gt;default_86 -->
<g id="edge1" class="edge">
<title>root_85&#45;&gt;default_86</title>
<path fill="none" stroke="black" d="M54.01,-126C61.92,-126 70.84,-126 79.61,-126"/>
<polygon fill="black" stroke="black" points="79.76,-129.5 89.76,-126 79.76,-122.5 79.76,-129.5"/>
</g>
<!-- top_screw_87 -->
<g id="node3" class="node">
<title>top_screw_87</title>
<g id="a_node3"><a xlink:href="javascript:s=&quot;\(&#x27;default&#x27;,\ &#x27;top_screw&#x27;\)\nCountersunkScrew&quot;; console.log(s); alert(s);" xlink:title="CountersunkScrew">
<ellipse fill="none" stroke="black" cx="245.59" cy="-126" rx="49.29" ry="18"/>
<text text-anchor="middle" x="245.59" y="-122.3" font-family="Times New Roman,serif" font-size="14.00">top_screw</text>
</a>
</g>
</g>
<!-- default_86&#45;&gt;top_screw_87 -->
<g id="edge2" class="edge">
<title>default_86&#45;&gt;top_screw_87</title>
<path fill="none" stroke="black" d="M160.37,-126C168.33,-126 177.02,-126 185.71,-126"/>
<polygon fill="black" stroke="black" points="185.85,-129.5 195.85,-126 185.85,-122.5 185.85,-129.5"/>
</g>
<!-- screw_cage_88 -->
<g id="node4" class="node">
<title>screw_cage_88</title>
<g id="a_node4"><a xlink:href="javascript:s=&quot;\(&#x27;default&#x27;,\ &#x27;top_screw&#x27;,\ &#x27;screw_cage&#x27;\)\nCone&quot;; console.log(s); alert(s);" xlink:title="Cone">
<ellipse fill="none" stroke="black" cx="386.23" cy="-234" rx="53.89" ry="18"/>
<text text-anchor="middle" x="386.23" y="-230.3" font-family="Times New Roman,serif" font-size="14.00">screw_cage</text>
</a>
</g>
</g>
<!-- top_screw_87&#45;&gt;screw_cage_88 -->
<g id="edge3" class="edge">
<title>top_screw_87&#45;&gt;screw_cage_88</title>
<path fill="none" stroke="black" d="M261.49,-143.08C277.43,-160.66 304.08,-188.06 330.99,-207 334.97,-209.8 339.29,-212.48 343.69,-214.98"/>
<polygon fill="black" stroke="black" points="342.29,-218.2 352.76,-219.84 345.6,-212.03 342.29,-218.2"/>
</g>
<!-- tap_shaft_89 -->
<g id="node5" class="node">
<title>tap_shaft_89</title>
<g id="a_node5"><a xlink:href="javascript:s=&quot;\(&#x27;default&#x27;,\ &#x27;top_screw&#x27;,\ &#x27;tap_shaft&#x27;\)\nCone&quot;; console.log(s); alert(s);" xlink:title="Cone">
<ellipse fill="none" stroke="black" cx="386.23" cy="-180" rx="44.39" ry="18"/>
<text text-anchor="middle" x="386.23" y="-176.3" font-family="Times New Roman,serif" font-size="14.00">tap_shaft</text>
</a>
</g>
</g>
<!-- top_screw_87&#45;&gt;tap_shaft_89 -->
<g id="edge4" class="edge">
<title>top_screw_87&#45;&gt;tap_shaft_89</title>
<path fill="none" stroke="black" d="M280.15,-139.07C299.38,-146.56 323.67,-156.02 344.05,-163.96"/>
<polygon fill="black" stroke="black" points="342.82,-167.24 353.41,-167.6 345.36,-160.71 342.82,-167.24"/>
</g>
<!-- thru_shaft_90 -->
<g id="node6" class="node">
<title>thru_shaft_90</title>
<g id="a_node6"><a xlink:href="javascript:s=&quot;\(&#x27;default&#x27;,\ &#x27;top_screw&#x27;,\ &#x27;thru_shaft&#x27;\)\nCone&quot;; console.log(s); alert(s);" xlink:title="Cone">
<ellipse fill="none" stroke="black" cx="386.23" cy="-126" rx="47.39" ry="18"/>
<text text-anchor="middle" x="386.23" y="-122.3" font-family="Times New Roman,serif" font-size="14.00">thru_shaft</text>
</a>
</g>
</g>
<!-- top_screw_87&#45;&gt;thru_shaft_90 -->
<g id="edge5" class="edge">
<title>top_screw_87&#45;&gt;thru_shaft_90</title>
<path fill="none" stroke="black" d="M295.08,-126C305.84,-126 317.34,-126 328.4,-126"/>
<polygon fill="black" stroke="black" points="328.4,-129.5 338.4,-126 328.4,-122.5 328.4,-129.5"/>
</g>
<!-- access_hole_91 -->
<g id="node7" class="node">
<title>access_hole_91</title>
<g id="a_node7"><a xlink:href="javascript:s=&quot;\(&#x27;default&#x27;,\ &#x27;top_screw&#x27;,\ &#x27;access_hole&#x27;\)\nCone&quot;; console.log(s); alert(s);" xlink:title="Cone">
<ellipse fill="none" stroke="black" cx="386.23" cy="-72" rx="55.49" ry="18"/>
<text text-anchor="middle" x="386.23" y="-68.3" font-family="Times New Roman,serif" font-size="14.00">access_hole</text>
</a>
</g>
</g>
<!-- top_screw_87&#45;&gt;access_hole_91 -->
<g id="edge6" class="edge">
<title>top_screw_87&#45;&gt;access_hole_91</title>
<path fill="none" stroke="black" d="M280.15,-112.93C298.33,-105.85 321.03,-97 340.68,-89.35"/>
<polygon fill="black" stroke="black" points="342,-92.6 350.04,-85.71 339.46,-86.07 342,-92.6"/>
</g>
<!-- screw_hole_92 -->
<g id="node8" class="node">
<title>screw_hole_92</title>
<g id="a_node8"><a xlink:href="javascript:s=&quot;\(&#x27;default&#x27;,\ &#x27;top_screw&#x27;,\ &#x27;screw_hole&#x27;\)\nRotateExtrude&quot;; console.log(s); alert(s);" xlink:title="RotateExtrude">
<ellipse fill="none" stroke="black" cx="386.23" cy="-18" rx="51.99" ry="18"/>
<text text-anchor="middle" x="386.23" y="-14.3" font-family="Times New Roman,serif" font-size="14.00">screw_hole</text>
</a>
</g>
</g>
<!-- top_screw_87&#45;&gt;screw_hole_92 -->
<g id="edge7" class="edge">
<title>top_screw_87&#45;&gt;screw_hole_92</title>
<path fill="none" stroke="black" d="M261.49,-108.92C277.43,-91.34 304.08,-63.94 330.99,-45 335.13,-42.08 339.63,-39.31 344.21,-36.73"/>
<polygon fill="black" stroke="black" points="345.87,-39.81 353.04,-32.01 342.57,-33.64 345.87,-39.81"/>
</g>
</g>
</svg>
