<?xml version="1.0" encoding="UTF-8" standalone="no"?>
<!DOCTYPE svg PUBLIC "-//W3C//DTD SVG 1.1//EN"
 "http://www.w3.org/Graphics/SVG/1.1/DTD/svg11.dtd">
<!-- Generated by graphviz version 5.0.0 (20220707.1540)
 -->
<!-- Title: default Pages: 1 -->
<svg width="335pt" height="206pt"
 viewBox="0.00 0.00 335.48 206.00" xmlns="http://www.w3.org/2000/svg" xmlns:xlink="http://www.w3.org/1999/xlink">
<g id="graph0" class="graph" transform="scale(1 1) rotate(0) translate(4 202)">
<title>default</title>
<polygon fill="white" stroke="transparent" points="-4,4 -4,-202 331.48,-202 331.48,4 -4,4"/>
<!-- root_93 -->
<g id="node1" class="node">
<title>root_93</title>
<g id="a_node1"><a xlink:href="javascript:s=&quot;\(\)\nNone&quot;; console.log(s); alert(s);" xlink:title="root">
<ellipse fill="none" stroke="black" cx="27" cy="-99" rx="27" ry="18"/>
<text text-anchor="middle" x="27" y="-95.3" font-family="Times New Roman,serif" font-size="14.00">root</text>
</a>
</g>
</g>
<!-- default_94 -->
<g id="node2" class="node">
<title>default_94</title>
<g id="a_node2"><a xlink:href="javascript:s=&quot;\(&#x27;default&#x27;,\)\nToggleSwitchMTS103&quot;; console.log(s); alert(s);" xlink:title="ToggleSwitchMTS103">
<ellipse fill="none" stroke="black" cx="125.1" cy="-99" rx="35.19" ry="18"/>
<text text-anchor="middle" x="125.1" y="-95.3" font-family="Times New Roman,serif" font-size="14.00">default</text>
</a>
</g>
</g>
<!-- root_93&#45;&gt;default_94 -->
<g id="edge1" class="edge">
<title>root_93&#45;&gt;default_94</title>
<path fill="none" stroke="black" d="M54.01,-99C61.92,-99 70.84,-99 79.61,-99"/>
<polygon fill="black" stroke="black" points="79.76,-102.5 89.76,-99 79.76,-95.5 79.76,-102.5"/>
</g>
<!-- case_95 -->
<g id="node3" class="node">
<title>case_95</title>
<g id="a_node3"><a xlink:href="javascript:s=&quot;\(&#x27;default&#x27;,\ &#x27;case&#x27;\)\nBox&quot;; console.log(s); alert(s);" xlink:title="Box">
<ellipse fill="none" stroke="black" cx="261.84" cy="-180" rx="27" ry="18"/>
<text text-anchor="middle" x="261.84" y="-176.3" font-family="Times New Roman,serif" font-size="14.00">case</text>
</a>
</g>
</g>
<!-- default_94&#45;&gt;case_95 -->
<g id="edge2" class="edge">
<title>default_94&#45;&gt;case_95</title>
<path fill="none" stroke="black" d="M143.62,-114.59C157.28,-126.2 177.06,-141.89 196.19,-153 206.08,-158.74 217.42,-163.9 227.81,-168.14"/>
<polygon fill="black" stroke="black" points="226.82,-171.51 237.4,-171.91 229.38,-164.99 226.82,-171.51"/>
</g>
<!-- shaft_96 -->
<g id="node4" class="node">
<title>shaft_96</title>
<g id="a_node4"><a xlink:href="javascript:s=&quot;\(&#x27;default&#x27;,\ &#x27;shaft&#x27;\)\nCylinder&quot;; console.log(s); alert(s);" xlink:title="Cylinder">
<ellipse fill="none" stroke="black" cx="261.84" cy="-126" rx="28.7" ry="18"/>
<text text-anchor="middle" x="261.84" y="-122.3" font-family="Times New Roman,serif" font-size="14.00">shaft</text>
</a>
</g>
</g>
<!-- default_94&#45;&gt;shaft_96 -->
<g id="edge3" class="edge">
<title>default_94&#45;&gt;shaft_96</title>
<path fill="none" stroke="black" d="M158.03,-105.4C177.87,-109.37 203.44,-114.5 224.11,-118.64"/>
<polygon fill="black" stroke="black" points="223.63,-122.11 234.12,-120.65 225.01,-115.25 223.63,-122.11"/>
</g>
<!-- bat_97 -->
<g id="node5" class="node">
<title>bat_97</title>
<g id="a_node5"><a xlink:href="javascript:s=&quot;\(&#x27;default&#x27;,\ &#x27;bat&#x27;\)\nCylinder&quot;; console.log(s); alert(s);" xlink:title="Cylinder">
<ellipse fill="none" stroke="black" cx="261.84" cy="-72" rx="27" ry="18"/>
<text text-anchor="middle" x="261.84" y="-68.3" font-family="Times New Roman,serif" font-size="14.00">bat</text>
</a>
</g>
</g>
<!-- default_94&#45;&gt;bat_97 -->
<g id="edge4" class="edge">
<title>default_94&#45;&gt;bat_97</title>
<path fill="none" stroke="black" d="M158.03,-92.6C178.49,-88.5 205.06,-83.18 226.06,-78.97"/>
<polygon fill="black" stroke="black" points="226.75,-82.4 235.87,-77 225.37,-75.54 226.75,-82.4"/>
</g>
<!-- terminal_cavity_98 -->
<g id="node6" class="node">
<title>terminal_cavity_98</title>
<g id="a_node6"><a xlink:href="javascript:s=&quot;\(&#x27;default&#x27;,\ &#x27;terminal_cavity&#x27;\)\nBox&quot;; console.log(s); alert(s);" xlink:title="Box">
<ellipse fill="none" stroke="black" cx="261.84" cy="-18" rx="65.79" ry="18"/>
<text text-anchor="middle" x="261.84" y="-14.3" font-family="Times New Roman,serif" font-size="14.00">terminal_cavity</text>
</a>
</g>
</g>
<!-- default_94&#45;&gt;terminal_cavity_98 -->
<g id="edge5" class="edge">
<title>default_94&#45;&gt;terminal_cavity_98</title>
<path fill="none" stroke="black" d="M143.62,-83.41C157.28,-71.8 177.06,-56.11 196.19,-45 201.31,-42.03 206.83,-39.21 212.39,-36.59"/>
<polygon fill="black" stroke="black" points="214.07,-39.68 221.76,-32.39 211.2,-33.29 214.07,-39.68"/>
</g>
</g>
</svg>
