solid OpenSCAD_Model
  facet normal 0 -1 0
    outer loop
      vertex -5.25 -13 20
      vertex -5.25 -13 0
      vertex -3.75 -13 0
    endloop
  endfacet
  facet normal 0 -1 0
    outer loop
      vertex -3.75 -13 20
      vertex -5.25 -13 20
      vertex -3.75 -13 0
    endloop
  endfacet
  facet normal -1 0 0
    outer loop
      vertex -5.25 -13 20
      vertex -5.25 13 20
      vertex -5.25 -13 0
    endloop
  endfacet
  facet normal -1 0 0
    outer loop
      vertex -5.25 -13 0
      vertex -5.25 13 20
      vertex -5.25 13 0
    endloop
  endfacet
  facet normal 0 1 0
    outer loop
      vertex -3.75 13 0
      vertex -5.25 13 0
      vertex -3.75 13 20
    endloop
  endfacet
  facet normal 0 1 0
    outer loop
      vertex -5.25 13 20
      vertex -3.75 13 20
      vertex -5.25 13 0
    endloop
  endfacet
  facet normal 0 -1 0
    outer loop
      vertex 3.75 -13 20
      vertex 3.75 -13 0
      vertex 5.25 -13 0
    endloop
  endfacet
  facet normal 0 -1 0
    outer loop
      vertex 3.75 -13 20
      vertex 5.25 -13 0
      vertex 5.25 -13 20
    endloop
  endfacet
  facet normal 1 0 0
    outer loop
      vertex 5.25 -13 0
      vertex 5.25 13 0
      vertex 5.25 -13 20
    endloop
  endfacet
  facet normal 1 0 0
    outer loop
      vertex 5.25 13 20
      vertex 5.25 -13 20
      vertex 5.25 13 0
    endloop
  endfacet
  facet normal 0 1 0
    outer loop
      vertex 5.25 13 0
      vertex 3.75 13 0
      vertex 5.25 13 20
    endloop
  endfacet
  facet normal 0 1 0
    outer loop
      vertex 3.75 13 20
      vertex 5.25 13 20
      vertex 3.75 13 0
    endloop
  endfacet
  facet normal 0 0 -1
    outer loop
      vertex -7.75 -15.4 20
      vertex -5.25 -13 20
      vertex -3.75 -13 20
    endloop
  endfacet
  facet normal 0 0 -1
    outer loop
      vertex -7.75 -15.4 20
      vertex -3.75 -13 20
      vertex -3.75 -15.4 20
    endloop
  endfacet
  facet normal -1 0 0
    outer loop
      vertex -7.75 -15.4 20
      vertex -7.75 -15.4 22.3
      vertex -7.75 15.4 22.3
    endloop
  endfacet
  facet normal 0 0 -1
    outer loop
      vertex -7.75 -15.4 20
      vertex -7.75 15.4 20
      vertex -5.25 -13 20
    endloop
  endfacet
  facet normal 0 -1 0
    outer loop
      vertex -7.75 -15.4 20
      vertex 7.75 -15.4 22.3
      vertex -7.75 -15.4 22.3
    endloop
  endfacet
  facet normal 0 -1 0
    outer loop
      vertex -7.75 -15.4 20
      vertex -3.75 -15.4 20
      vertex 7.75 -15.4 22.3
    endloop
  endfacet
  facet normal 0 0 1
    outer loop
      vertex -7.75 -15.4 22.3
      vertex 7.75 -15.4 22.3
      vertex -7.75 15.4 22.3
    endloop
  endfacet
  facet normal -1 0 0
    outer loop
      vertex -7.75 -15.4 20
      vertex -7.75 15.4 22.3
      vertex -7.75 15.4 20
    endloop
  endfacet
  facet normal 0 0 -1
    outer loop
      vertex -7.75 15.4 20
      vertex -5.25 13 20
      vertex -5.25 -13 20
    endloop
  endfacet
  facet normal 0 1 0
    outer loop
      vertex -7.75 15.4 20
      vertex -7.75 15.4 22.3
      vertex -3.75 15.4 20
    endloop
  endfacet
  facet normal 0 0 -1
    outer loop
      vertex -7.75 15.4 20
      vertex -3.75 13 20
      vertex -5.25 13 20
    endloop
  endfacet
  facet normal 0 0 -1
    outer loop
      vertex -7.75 15.4 20
      vertex -3.75 15.4 20
      vertex -3.75 13 20
    endloop
  endfacet
  facet normal 0 1 0
    outer loop
      vertex -7.75 15.4 22.3
      vertex 3.75 15.4 20
      vertex -3.75 15.4 20
    endloop
  endfacet
  facet normal 0 -1 0
    outer loop
      vertex -3.75 -15.4 20
      vertex 3.75 -15.4 20
      vertex 7.75 -15.4 22.3
    endloop
  endfacet
  facet normal 0 0 -1
    outer loop
      vertex 3.75 -15.4 20
      vertex 3.75 -13 20
      vertex 7.75 -15.4 20
    endloop
  endfacet
  facet normal 0 0 -1
    outer loop
      vertex 7.75 -15.4 20
      vertex 3.75 -13 20
      vertex 5.25 -13 20
    endloop
  endfacet
  facet normal 0 -1 0
    outer loop
      vertex 3.75 -15.4 20
      vertex 7.75 -15.4 20
      vertex 7.75 -15.4 22.3
    endloop
  endfacet
  facet normal 0 0 -1
    outer loop
      vertex 7.75 -15.4 20
      vertex 5.25 -13 20
      vertex 5.25 13 20
    endloop
  endfacet
  facet normal 1 0 0
    outer loop
      vertex 7.75 -15.4 20
      vertex 7.75 15.4 20
      vertex 7.75 -15.4 22.3
    endloop
  endfacet
  facet normal 0 0 1
    outer loop
      vertex -7.75 15.4 22.3
      vertex 7.75 -15.4 22.3
      vertex 7.75 15.4 22.3
    endloop
  endfacet
  facet normal 0 1 0
    outer loop
      vertex -7.75 15.4 22.3
      vertex 7.75 15.4 20
      vertex 3.75 15.4 20
    endloop
  endfacet
  facet normal 0 1 0
    outer loop
      vertex -7.75 15.4 22.3
      vertex 7.75 15.4 22.3
      vertex 7.75 15.4 20
    endloop
  endfacet
  facet normal 0 0 -1
    outer loop
      vertex 7.75 -15.4 20
      vertex 5.25 13 20
      vertex 7.75 15.4 20
    endloop
  endfacet
  facet normal 1 0 0
    outer loop
      vertex 7.75 -15.4 22.3
      vertex 7.75 15.4 20
      vertex 7.75 15.4 22.3
    endloop
  endfacet
  facet normal 0 0 -1
    outer loop
      vertex 3.75 15.4 20
      vertex 7.75 15.4 20
      vertex 3.75 13 20
    endloop
  endfacet
  facet normal 0 0 -1
    outer loop
      vertex 7.75 15.4 20
      vertex 5.25 13 20
      vertex 3.75 13 20
    endloop
  endfacet
  facet normal 0 -1 0
    outer loop
      vertex -5.25 -13 -40
      vertex -3.75 -13 0
      vertex -5.25 -13 0
    endloop
  endfacet
  facet normal -1 0 0
    outer loop
      vertex -5.25 -13 -40
      vertex -5.25 -13 0
      vertex -5.25 13 0
    endloop
  endfacet
  facet normal 0 -1 0
    outer loop
      vertex -5.25 -13 -40
      vertex 3.75 -13 0
      vertex -3.75 -13 0
    endloop
  endfacet
  facet normal -1 0 0
    outer loop
      vertex -5.25 -13 -40
      vertex -5.25 13 0
      vertex -5.25 13 -40
    endloop
  endfacet
  facet normal 0 0 -1
    outer loop
      vertex -5.25 -13 -40
      vertex -5.25 13 -40
      vertex 5.25 13 -40
    endloop
  endfacet
  facet normal 0 1 0
    outer loop
      vertex -5.25 13 -40
      vertex -5.25 13 0
      vertex 5.25 13 -40
    endloop
  endfacet
  facet normal 0 1 0
    outer loop
      vertex -3.75 13 0
      vertex 5.25 13 -40
      vertex -5.25 13 0
    endloop
  endfacet
  facet normal 0 -1 0
    outer loop
      vertex -5.25 -13 -40
      vertex 5.25 -13 -40
      vertex 5.25 -13 0
    endloop
  endfacet
  facet normal 0 -1 0
    outer loop
      vertex -5.25 -13 -40
      vertex 5.25 -13 0
      vertex 3.75 -13 0
    endloop
  endfacet
  facet normal 0 0 -1
    outer loop
      vertex -5.25 -13 -40
      vertex 5.25 13 -40
      vertex 5.25 -13 -40
    endloop
  endfacet
  facet normal 1 0 0
    outer loop
      vertex 5.25 -13 -40
      vertex 5.25 13 -40
      vertex 5.25 -13 0
    endloop
  endfacet
  facet normal 0 1 0
    outer loop
      vertex 3.75 13 0
      vertex 5.25 13 -40
      vertex -3.75 13 0
    endloop
  endfacet
  facet normal 1 0 0
    outer loop
      vertex 5.25 -13 0
      vertex 5.25 13 -40
      vertex 5.25 13 0
    endloop
  endfacet
  facet normal 0 1 0
    outer loop
      vertex 3.75 13 0
      vertex 5.25 13 0
      vertex 5.25 13 -40
    endloop
  endfacet
  facet normal -1 0 0
    outer loop
      vertex -3.75 13 0
      vertex -3.75 17.5 20
      vertex -3.75 17.5 0
    endloop
  endfacet
  facet normal 0 0 -1
    outer loop
      vertex -3.75 13 0
      vertex -3.75 17.5 0
      vertex 3.75 17.5 0
    endloop
  endfacet
  facet normal 0 1 0
    outer loop
      vertex -3.75 17.5 0
      vertex -3.75 17.5 20
      vertex 3.75 17.5 0
    endloop
  endfacet
  facet normal -1 0 0
    outer loop
      vertex -3.75 15.4 20
      vertex -3.75 13 0
      vertex -3.75 13 20
    endloop
  endfacet
  facet normal -1 0 0
    outer loop
      vertex -3.75 13 0
      vertex -3.75 15.4 20
      vertex -3.75 17.5 20
    endloop
  endfacet
  facet normal 0 0 1
    outer loop
      vertex -3.75 15.4 20
      vertex 3.75 17.5 20
      vertex -3.75 17.5 20
    endloop
  endfacet
  facet normal 0 0 -1
    outer loop
      vertex -3.75 13 0
      vertex 3.75 17.5 0
      vertex 3.75 13 0
    endloop
  endfacet
  facet normal 1 0 0
    outer loop
      vertex 3.75 17.5 0
      vertex 3.75 13 20
      vertex 3.75 13 0
    endloop
  endfacet
  facet normal 0 1 0
    outer loop
      vertex -3.75 17.5 20
      vertex 3.75 17.5 20
      vertex 3.75 17.5 0
    endloop
  endfacet
  facet normal 0 0 1
    outer loop
      vertex -3.75 15.4 20
      vertex 3.75 15.4 20
      vertex 3.75 17.5 20
    endloop
  endfacet
  facet normal 1 0 0
    outer loop
      vertex 3.75 17.5 0
      vertex 3.75 15.4 20
      vertex 3.75 13 20
    endloop
  endfacet
  facet normal 1 0 0
    outer loop
      vertex 3.75 17.5 0
      vertex 3.75 17.5 20
      vertex 3.75 15.4 20
    endloop
  endfacet
  facet normal -1 0 0
    outer loop
      vertex -3.75 -17.5 0
      vertex -3.75 -13 20
      vertex -3.75 -13 0
    endloop
  endfacet
  facet normal 0 0 -1
    outer loop
      vertex -3.75 -17.5 0
      vertex -3.75 -13 0
      vertex 3.75 -13 0
    endloop
  endfacet
  facet normal -1 0 0
    outer loop
      vertex -3.75 -17.5 0
      vertex -3.75 -17.5 20
      vertex -3.75 -15.4 20
    endloop
  endfacet
  facet normal -1 0 0
    outer loop
      vertex -3.75 -17.5 0
      vertex -3.75 -15.4 20
      vertex -3.75 -13 20
    endloop
  endfacet
  facet normal 0 -1 0
    outer loop
      vertex -3.75 -17.5 0
      vertex 3.75 -17.5 20
      vertex -3.75 -17.5 20
    endloop
  endfacet
  facet normal 0 0 1
    outer loop
      vertex -3.75 -17.5 20
      vertex 3.75 -15.4 20
      vertex -3.75 -15.4 20
    endloop
  endfacet
  facet normal 0 0 -1
    outer loop
      vertex -3.75 -17.5 0
      vertex 3.75 -13 0
      vertex 3.75 -17.5 0
    endloop
  endfacet
  facet normal 0 -1 0
    outer loop
      vertex -3.75 -17.5 0
      vertex 3.75 -17.5 0
      vertex 3.75 -17.5 20
    endloop
  endfacet
  facet normal 1 0 0
    outer loop
      vertex 3.75 -17.5 0
      vertex 3.75 -13 0
      vertex 3.75 -17.5 20
    endloop
  endfacet
  facet normal 0 0 1
    outer loop
      vertex -3.75 -17.5 20
      vertex 3.75 -17.5 20
      vertex 3.75 -15.4 20
    endloop
  endfacet
  facet normal 1 0 0
    outer loop
      vertex 3.75 -13 0
      vertex 3.75 -15.4 20
      vertex 3.75 -17.5 20
    endloop
  endfacet
  facet normal 1 0 0
    outer loop
      vertex 3.75 -15.4 20
      vertex 3.75 -13 0
      vertex 3.75 -13 20
    endloop
  endfacet
endsolid OpenSCAD_Model
