<?xml version="1.0" encoding="UTF-8" standalone="no"?>
<!DOCTYPE svg PUBLIC "-//W3C//DTD SVG 1.1//EN"
 "http://www.w3.org/Graphics/SVG/1.1/DTD/svg11.dtd">
<!-- Generated by graphviz version 5.0.0 (20220707.1540)
 -->
<!-- Title: default Pages: 1 -->
<svg width="748pt" height="584pt"
 viewBox="0.00 0.00 748.05 584.00" xmlns="http://www.w3.org/2000/svg" xmlns:xlink="http://www.w3.org/1999/xlink">
<g id="graph0" class="graph" transform="scale(1 1) rotate(0) translate(4 580)">
<title>default</title>
<polygon fill="white" stroke="transparent" points="-4,4 -4,-580 744.05,-580 744.05,4 -4,4"/>
<!-- root_99 -->
<g id="node1" class="node">
<title>root_99</title>
<g id="a_node1"><a xlink:href="javascript:s=&quot;\(\)\nNone&quot;; console.log(s); alert(s);" xlink:title="root">
<ellipse fill="none" stroke="black" cx="27" cy="-180" rx="27" ry="18"/>
<text text-anchor="middle" x="27" y="-176.3" font-family="Times New Roman,serif" font-size="14.00">root</text>
</a>
</g>
</g>
<!-- default_100 -->
<g id="node2" class="node">
<title>default_100</title>
<g id="a_node2"><a xlink:href="javascript:s=&quot;\(&#x27;default&#x27;,\)\nWireHole&quot;; console.log(s); alert(s);" xlink:title="WireHole">
<ellipse fill="none" stroke="black" cx="242.09" cy="-315" rx="35.19" ry="18"/>
<text text-anchor="middle" x="242.09" y="-311.3" font-family="Times New Roman,serif" font-size="14.00">default</text>
</a>
</g>
</g>
<!-- root_99&#45;&gt;default_100 -->
<g id="edge1" class="edge">
<title>root_99&#45;&gt;default_100</title>
<path fill="none" stroke="black" d="M47.29,-192.22C84.38,-215.72 165.92,-267.38 210.5,-295.62"/>
<polygon fill="black" stroke="black" points="208.84,-298.71 219.16,-301.11 212.59,-292.8 208.84,-298.71"/>
</g>
<!-- 107 -->
<g id="node9" class="node">
<title>107</title>
<g id="a_node9"><a xlink:href="javascript:s=&quot;\(&quot;\(&#x27;item&#x27;,\ 0\),\ &#x27;base&#x27;,\ 0,\ h=2,\ ex_end=True&quot;,\)\nAnnotatedCoordinates&quot;; console.log(s); alert(s);" xlink:title="AnnotatedCoordinates">
<ellipse fill="none" stroke="black" cx="242.09" cy="-153" rx="152.17" ry="18"/>
<text text-anchor="middle" x="242.09" y="-149.3" font-family="Times New Roman,serif" font-size="14.00">(&#39;item&#39;, 0), &#39;base&#39;, 0, h=2, ex_end=True</text>
</a>
</g>
</g>
<!-- root_99&#45;&gt;107 -->
<g id="edge8" class="edge">
<title>root_99&#45;&gt;107</title>
<path fill="none" stroke="black" d="M53.7,-176.74C72.53,-174.36 99.54,-170.94 127.2,-167.43"/>
<polygon fill="black" stroke="black" points="127.93,-170.87 137.41,-166.14 127.05,-163.92 127.93,-170.87"/>
</g>
<!-- wire_hole_101 -->
<g id="node3" class="node">
<title>wire_hole_101</title>
<g id="a_node3"><a xlink:href="javascript:s=&quot;\(&#x27;default&#x27;,\ &#x27;wire_hole&#x27;\)\nExtrudedSequence&quot;; console.log(s); alert(s);" xlink:title="ExtrudedSequence">
<ellipse fill="none" stroke="black" cx="476.32" cy="-423" rx="46.29" ry="18"/>
<text text-anchor="middle" x="476.32" y="-419.3" font-family="Times New Roman,serif" font-size="14.00">wire_hole</text>
</a>
</g>
</g>
<!-- default_100&#45;&gt;wire_hole_101 -->
<g id="edge2" class="edge">
<title>default_100&#45;&gt;wire_hole_101</title>
<path fill="none" stroke="black" d="M268.83,-326.97C309.57,-345.92 389.16,-382.93 436.75,-405.06"/>
<polygon fill="black" stroke="black" points="435.27,-408.24 445.82,-409.28 438.23,-401.89 435.27,-408.24"/>
</g>
<!-- item_102 -->
<g id="node4" class="node">
<title>item_102</title>
<g id="a_node4"><a xlink:href="javascript:s=&quot;\(&#x27;default&#x27;,\ &#x27;wire_hole&#x27;,\ \(&#x27;item&#x27;,\ 0\)\)\nLinearExtrude&quot;; console.log(s); alert(s);" xlink:title="LinearExtrude">
<ellipse fill="none" stroke="black" cx="603.31" cy="-558" rx="44.69" ry="18"/>
<text text-anchor="middle" x="603.31" y="-554.3" font-family="Times New Roman,serif" font-size="14.00">(&#39;item&#39;, 0)</text>
</a>
</g>
</g>
<!-- wire_hole_101&#45;&gt;item_102 -->
<g id="edge3" class="edge">
<title>wire_hole_101&#45;&gt;item_102</title>
<path fill="none" stroke="black" d="M487.68,-440.68C501.66,-463.49 528.31,-503.51 558.46,-531 561.2,-533.5 564.2,-535.89 567.31,-538.15"/>
<polygon fill="black" stroke="black" points="565.42,-541.1 575.67,-543.81 569.35,-535.3 565.42,-541.1"/>
</g>
<!-- item_103 -->
<g id="node5" class="node">
<title>item_103</title>
<g id="a_node5"><a xlink:href="javascript:s=&quot;\(&#x27;default&#x27;,\ &#x27;wire_hole&#x27;,\ \(&#x27;item&#x27;,\ 1\)\)\nRotateExtrude&quot;; console.log(s); alert(s);" xlink:title="RotateExtrude">
<ellipse fill="none" stroke="black" cx="603.31" cy="-504" rx="44.69" ry="18"/>
<text text-anchor="middle" x="603.31" y="-500.3" font-family="Times New Roman,serif" font-size="14.00">(&#39;item&#39;, 1)</text>
</a>
</g>
</g>
<!-- wire_hole_101&#45;&gt;item_103 -->
<g id="edge4" class="edge">
<title>wire_hole_101&#45;&gt;item_103</title>
<path fill="none" stroke="black" d="M500.26,-438.58C516.44,-449.49 538.66,-464.32 558.46,-477 561.84,-479.16 565.38,-481.39 568.92,-483.61"/>
<polygon fill="black" stroke="black" points="567.29,-486.72 577.63,-489.01 570.98,-480.77 567.29,-486.72"/>
</g>
<!-- item_104 -->
<g id="node6" class="node">
<title>item_104</title>
<g id="a_node6"><a xlink:href="javascript:s=&quot;\(&#x27;default&#x27;,\ &#x27;wire_hole&#x27;,\ \(&#x27;item&#x27;,\ 2\)\)\nLinearExtrude&quot;; console.log(s); alert(s);" xlink:title="LinearExtrude">
<ellipse fill="none" stroke="black" cx="603.31" cy="-450" rx="44.69" ry="18"/>
<text text-anchor="middle" x="603.31" y="-446.3" font-family="Times New Roman,serif" font-size="14.00">(&#39;item&#39;, 2)</text>
</a>
</g>
</g>
<!-- wire_hole_101&#45;&gt;item_104 -->
<g id="edge5" class="edge">
<title>wire_hole_101&#45;&gt;item_104</title>
<path fill="none" stroke="black" d="M517.21,-431.62C528.71,-434.1 541.39,-436.84 553.37,-439.43"/>
<polygon fill="black" stroke="black" points="552.71,-442.87 563.22,-441.56 554.19,-436.02 552.71,-442.87"/>
</g>
<!-- item_105 -->
<g id="node7" class="node">
<title>item_105</title>
<g id="a_node7"><a xlink:href="javascript:s=&quot;\(&#x27;default&#x27;,\ &#x27;wire_hole&#x27;,\ \(&#x27;item&#x27;,\ 3\)\)\nRotateExtrude&quot;; console.log(s); alert(s);" xlink:title="RotateExtrude">
<ellipse fill="none" stroke="black" cx="603.31" cy="-396" rx="44.69" ry="18"/>
<text text-anchor="middle" x="603.31" y="-392.3" font-family="Times New Roman,serif" font-size="14.00">(&#39;item&#39;, 3)</text>
</a>
</g>
</g>
<!-- wire_hole_101&#45;&gt;item_105 -->
<g id="edge6" class="edge">
<title>wire_hole_101&#45;&gt;item_105</title>
<path fill="none" stroke="black" d="M517.21,-414.38C528.71,-411.9 541.39,-409.16 553.37,-406.57"/>
<polygon fill="black" stroke="black" points="554.19,-409.98 563.22,-404.44 552.71,-403.13 554.19,-409.98"/>
</g>
<!-- item_106 -->
<g id="node8" class="node">
<title>item_106</title>
<g id="a_node8"><a xlink:href="javascript:s=&quot;\(&#x27;default&#x27;,\ &#x27;wire_hole&#x27;,\ \(&#x27;item&#x27;,\ 4\)\)\nLinearExtrude&quot;; console.log(s); alert(s);" xlink:title="LinearExtrude">
<ellipse fill="none" stroke="black" cx="603.31" cy="-342" rx="44.69" ry="18"/>
<text text-anchor="middle" x="603.31" y="-338.3" font-family="Times New Roman,serif" font-size="14.00">(&#39;item&#39;, 4)</text>
</a>
</g>
</g>
<!-- wire_hole_101&#45;&gt;item_106 -->
<g id="edge7" class="edge">
<title>wire_hole_101&#45;&gt;item_106</title>
<path fill="none" stroke="black" d="M500.26,-407.42C516.44,-396.51 538.66,-381.68 558.46,-369 561.84,-366.84 565.38,-364.61 568.92,-362.39"/>
<polygon fill="black" stroke="black" points="570.98,-365.23 577.63,-356.99 567.29,-359.28 570.98,-365.23"/>
</g>
<!-- coords_108 -->
<g id="node10" class="node">
<title>coords_108</title>
<g id="a_node10"><a xlink:href="javascript:s=&quot;\(&quot;\(&#x27;item&#x27;,\ 0\),\ &#x27;base&#x27;,\ 0,\ h=2,\ ex_end=True&quot;,\ &#x27;coords&#x27;\)\nCoordinates&quot;; console.log(s); alert(s);" xlink:title="Coordinates">
<ellipse fill="none" stroke="black" cx="476.32" cy="-234" rx="36.29" ry="18"/>
<text text-anchor="middle" x="476.32" y="-230.3" font-family="Times New Roman,serif" font-size="14.00">coords</text>
</a>
</g>
</g>
<!-- 107&#45;&gt;coords_108 -->
<g id="edge9" class="edge">
<title>107&#45;&gt;coords_108</title>
<path fill="none" stroke="black" d="M292.05,-170.08C335.11,-185.1 396.94,-206.66 436.62,-220.5"/>
<polygon fill="black" stroke="black" points="435.61,-223.86 446.21,-223.85 437.92,-217.25 435.61,-223.86"/>
</g>
<!-- x_119 -->
<g id="node21" class="node">
<title>x_119</title>
<g id="a_node21"><a xlink:href="javascript:s=&quot;\(&quot;\(&#x27;item&#x27;,\ 0\),\ &#x27;base&#x27;,\ 0,\ h=2,\ ex_end=True&quot;,\ &#x27;x&#x27;\)\nText&quot;; console.log(s); alert(s);" xlink:title="Text">
<ellipse fill="none" stroke="black" cx="476.32" cy="-180" rx="27" ry="18"/>
<text text-anchor="middle" x="476.32" y="-176.3" font-family="Times New Roman,serif" font-size="14.00">x</text>
</a>
</g>
</g>
<!-- 107&#45;&gt;x_119 -->
<g id="edge20" class="edge">
<title>107&#45;&gt;x_119</title>
<path fill="none" stroke="black" d="M351.38,-165.59C383.11,-169.28 415.62,-173.06 439.38,-175.82"/>
<polygon fill="black" stroke="black" points="438.98,-179.3 449.32,-176.98 439.79,-172.35 438.98,-179.3"/>
</g>
<!-- y_120 -->
<g id="node22" class="node">
<title>y_120</title>
<g id="a_node22"><a xlink:href="javascript:s=&quot;\(&quot;\(&#x27;item&#x27;,\ 0\),\ &#x27;base&#x27;,\ 0,\ h=2,\ ex_end=True&quot;,\ &#x27;y&#x27;\)\nText&quot;; console.log(s); alert(s);" xlink:title="Text">
<ellipse fill="none" stroke="black" cx="476.32" cy="-126" rx="27" ry="18"/>
<text text-anchor="middle" x="476.32" y="-122.3" font-family="Times New Roman,serif" font-size="14.00">y</text>
</a>
</g>
</g>
<!-- 107&#45;&gt;y_120 -->
<g id="edge21" class="edge">
<title>107&#45;&gt;y_120</title>
<path fill="none" stroke="black" d="M351.38,-140.41C383.11,-136.72 415.62,-132.94 439.38,-130.18"/>
<polygon fill="black" stroke="black" points="439.79,-133.65 449.32,-129.02 438.98,-126.7 439.79,-133.65"/>
</g>
<!-- z_121 -->
<g id="node23" class="node">
<title>z_121</title>
<g id="a_node23"><a xlink:href="javascript:s=&quot;\(&quot;\(&#x27;item&#x27;,\ 0\),\ &#x27;base&#x27;,\ 0,\ h=2,\ ex_end=True&quot;,\ &#x27;z&#x27;\)\nText&quot;; console.log(s); alert(s);" xlink:title="Text">
<ellipse fill="none" stroke="black" cx="476.32" cy="-72" rx="27" ry="18"/>
<text text-anchor="middle" x="476.32" y="-68.3" font-family="Times New Roman,serif" font-size="14.00">z</text>
</a>
</g>
</g>
<!-- 107&#45;&gt;z_121 -->
<g id="edge22" class="edge">
<title>107&#45;&gt;z_121</title>
<path fill="none" stroke="black" d="M292.05,-135.92C337.23,-120.17 403.06,-97.2 442.3,-83.52"/>
<polygon fill="black" stroke="black" points="443.62,-86.76 451.91,-80.17 441.31,-80.15 443.62,-86.76"/>
</g>
<!-- label_122 -->
<g id="node24" class="node">
<title>label_122</title>
<g id="a_node24"><a xlink:href="javascript:s=&quot;\(&quot;\(&#x27;item&#x27;,\ 0\),\ &#x27;base&#x27;,\ 0,\ h=2,\ ex_end=True&quot;,\ &#x27;label&#x27;\)\nText&quot;; console.log(s); alert(s);" xlink:title="Text">
<ellipse fill="none" stroke="black" cx="476.32" cy="-18" rx="27.1" ry="18"/>
<text text-anchor="middle" x="476.32" y="-14.3" font-family="Times New Roman,serif" font-size="14.00">label</text>
</a>
</g>
</g>
<!-- 107&#45;&gt;label_122 -->
<g id="edge23" class="edge">
<title>107&#45;&gt;label_122</title>
<path fill="none" stroke="black" d="M273.45,-135.35C318.44,-109.19 402.25,-60.47 446.4,-34.81"/>
<polygon fill="black" stroke="black" points="448.31,-37.75 455.19,-29.7 444.79,-31.7 448.31,-37.75"/>
</g>
<!-- origin_109 -->
<g id="node11" class="node">
<title>origin_109</title>
<g id="a_node11"><a xlink:href="javascript:s=&quot;\(&quot;\(&#x27;item&#x27;,\ 0\),\ &#x27;base&#x27;,\ 0,\ h=2,\ ex_end=True&quot;,\ &#x27;coords&#x27;,\ &#x27;origin&#x27;\)\nCoordinatesCage&quot;; console.log(s); alert(s);" xlink:title="CoordinatesCage">
<ellipse fill="none" stroke="black" cx="603.31" cy="-288" rx="31.4" ry="18"/>
<text text-anchor="middle" x="603.31" y="-284.3" font-family="Times New Roman,serif" font-size="14.00">origin</text>
</a>
</g>
</g>
<!-- coords_108&#45;&gt;origin_109 -->
<g id="edge10" class="edge">
<title>coords_108&#45;&gt;origin_109</title>
<path fill="none" stroke="black" d="M504.44,-245.72C523.2,-253.82 548.29,-264.66 568.38,-273.34"/>
<polygon fill="black" stroke="black" points="567.22,-276.65 577.78,-277.4 569.99,-270.22 567.22,-276.65"/>
</g>
<!-- x_arrow_110 -->
<g id="node12" class="node">
<title>x_arrow_110</title>
<g id="a_node12"><a xlink:href="javascript:s=&quot;\(&quot;\(&#x27;item&#x27;,\ 0\),\ &#x27;base&#x27;,\ 0,\ h=2,\ ex_end=True&quot;,\ &#x27;coords&#x27;,\ &#x27;x_arrow&#x27;\)\nArrow&quot;; console.log(s); alert(s);" xlink:title="Arrow">
<ellipse fill="none" stroke="black" cx="603.31" cy="-234" rx="40.89" ry="18"/>
<text text-anchor="middle" x="603.31" y="-230.3" font-family="Times New Roman,serif" font-size="14.00">x_arrow</text>
</a>
</g>
</g>
<!-- coords_108&#45;&gt;x_arrow_110 -->
<g id="edge11" class="edge">
<title>coords_108&#45;&gt;x_arrow_110</title>
<path fill="none" stroke="black" d="M512.8,-234C524.99,-234 538.87,-234 552.01,-234"/>
<polygon fill="black" stroke="black" points="552.34,-237.5 562.34,-234 552.34,-230.5 552.34,-237.5"/>
</g>
<!-- y_arrow_113 -->
<g id="node15" class="node">
<title>y_arrow_113</title>
<g id="a_node15"><a xlink:href="javascript:s=&quot;\(&quot;\(&#x27;item&#x27;,\ 0\),\ &#x27;base&#x27;,\ 0,\ h=2,\ ex_end=True&quot;,\ &#x27;coords&#x27;,\ &#x27;y_arrow&#x27;\)\nArrow&quot;; console.log(s); alert(s);" xlink:title="Arrow">
<ellipse fill="none" stroke="black" cx="603.31" cy="-180" rx="40.89" ry="18"/>
<text text-anchor="middle" x="603.31" y="-176.3" font-family="Times New Roman,serif" font-size="14.00">y_arrow</text>
</a>
</g>
</g>
<!-- coords_108&#45;&gt;y_arrow_113 -->
<g id="edge14" class="edge">
<title>coords_108&#45;&gt;y_arrow_113</title>
<path fill="none" stroke="black" d="M504.44,-222.28C521.88,-214.75 544.81,-204.84 564.09,-196.51"/>
<polygon fill="black" stroke="black" points="565.71,-199.62 573.5,-192.45 562.93,-193.2 565.71,-199.62"/>
</g>
<!-- z_arrow_116 -->
<g id="node18" class="node">
<title>z_arrow_116</title>
<g id="a_node18"><a xlink:href="javascript:s=&quot;\(&quot;\(&#x27;item&#x27;,\ 0\),\ &#x27;base&#x27;,\ 0,\ h=2,\ ex_end=True&quot;,\ &#x27;coords&#x27;,\ &#x27;z_arrow&#x27;\)\nArrow&quot;; console.log(s); alert(s);" xlink:title="Arrow">
<ellipse fill="none" stroke="black" cx="603.31" cy="-72" rx="40.09" ry="18"/>
<text text-anchor="middle" x="603.31" y="-68.3" font-family="Times New Roman,serif" font-size="14.00">z_arrow</text>
</a>
</g>
</g>
<!-- coords_108&#45;&gt;z_arrow_116 -->
<g id="edge17" class="edge">
<title>coords_108&#45;&gt;z_arrow_116</title>
<path fill="none" stroke="black" d="M503.27,-221.46C510.01,-217.44 516.92,-212.57 522.46,-207 531.08,-198.34 566.86,-135.48 587.48,-98.66"/>
<polygon fill="black" stroke="black" points="590.79,-99.91 592.61,-89.48 584.68,-96.5 590.79,-99.91"/>
</g>
<!-- stem_111 -->
<g id="node13" class="node">
<title>stem_111</title>
<g id="a_node13"><a xlink:href="javascript:s=&quot;\(&quot;\(&#x27;item&#x27;,\ 0\),\ &#x27;base&#x27;,\ 0,\ h=2,\ ex_end=True&quot;,\ &#x27;coords&#x27;,\ &#x27;x_arrow&#x27;,\ &#x27;stem&#x27;\)\nCone&quot;; console.log(s); alert(s);" xlink:title="Cone">
<ellipse fill="none" stroke="black" cx="712.1" cy="-288" rx="27.9" ry="18"/>
<text text-anchor="middle" x="712.1" y="-284.3" font-family="Times New Roman,serif" font-size="14.00">stem</text>
</a>
</g>
</g>
<!-- x_arrow_110&#45;&gt;stem_111 -->
<g id="edge12" class="edge">
<title>x_arrow_110&#45;&gt;stem_111</title>
<path fill="none" stroke="black" d="M630.98,-247.49C645.92,-255.04 664.62,-264.5 680.2,-272.37"/>
<polygon fill="black" stroke="black" points="678.93,-275.65 689.43,-277.04 682.09,-269.4 678.93,-275.65"/>
</g>
<!-- head_112 -->
<g id="node14" class="node">
<title>head_112</title>
<g id="a_node14"><a xlink:href="javascript:s=&quot;\(&quot;\(&#x27;item&#x27;,\ 0\),\ &#x27;base&#x27;,\ 0,\ h=2,\ ex_end=True&quot;,\ &#x27;coords&#x27;,\ &#x27;x_arrow&#x27;,\ &#x27;head&#x27;\)\nCone&quot;; console.log(s); alert(s);" xlink:title="Cone">
<ellipse fill="none" stroke="black" cx="712.1" cy="-234" rx="27.9" ry="18"/>
<text text-anchor="middle" x="712.1" y="-230.3" font-family="Times New Roman,serif" font-size="14.00">head</text>
</a>
</g>
</g>
<!-- x_arrow_110&#45;&gt;head_112 -->
<g id="edge13" class="edge">
<title>x_arrow_110&#45;&gt;head_112</title>
<path fill="none" stroke="black" d="M644.38,-234C654.12,-234 664.48,-234 674.07,-234"/>
<polygon fill="black" stroke="black" points="674.1,-237.5 684.1,-234 674.1,-230.5 674.1,-237.5"/>
</g>
<!-- stem_114 -->
<g id="node16" class="node">
<title>stem_114</title>
<g id="a_node16"><a xlink:href="javascript:s=&quot;\(&quot;\(&#x27;item&#x27;,\ 0\),\ &#x27;base&#x27;,\ 0,\ h=2,\ ex_end=True&quot;,\ &#x27;coords&#x27;,\ &#x27;y_arrow&#x27;,\ &#x27;stem&#x27;\)\nCone&quot;; console.log(s); alert(s);" xlink:title="Cone">
<ellipse fill="none" stroke="black" cx="712.1" cy="-180" rx="27.9" ry="18"/>
<text text-anchor="middle" x="712.1" y="-176.3" font-family="Times New Roman,serif" font-size="14.00">stem</text>
</a>
</g>
</g>
<!-- y_arrow_113&#45;&gt;stem_114 -->
<g id="edge15" class="edge">
<title>y_arrow_113&#45;&gt;stem_114</title>
<path fill="none" stroke="black" d="M644.38,-180C654.12,-180 664.48,-180 674.07,-180"/>
<polygon fill="black" stroke="black" points="674.1,-183.5 684.1,-180 674.1,-176.5 674.1,-183.5"/>
</g>
<!-- head_115 -->
<g id="node17" class="node">
<title>head_115</title>
<g id="a_node17"><a xlink:href="javascript:s=&quot;\(&quot;\(&#x27;item&#x27;,\ 0\),\ &#x27;base&#x27;,\ 0,\ h=2,\ ex_end=True&quot;,\ &#x27;coords&#x27;,\ &#x27;y_arrow&#x27;,\ &#x27;head&#x27;\)\nCone&quot;; console.log(s); alert(s);" xlink:title="Cone">
<ellipse fill="none" stroke="black" cx="712.1" cy="-126" rx="27.9" ry="18"/>
<text text-anchor="middle" x="712.1" y="-122.3" font-family="Times New Roman,serif" font-size="14.00">head</text>
</a>
</g>
</g>
<!-- y_arrow_113&#45;&gt;head_115 -->
<g id="edge16" class="edge">
<title>y_arrow_113&#45;&gt;head_115</title>
<path fill="none" stroke="black" d="M630.98,-166.51C645.92,-158.96 664.62,-149.5 680.2,-141.63"/>
<polygon fill="black" stroke="black" points="682.09,-144.6 689.43,-136.96 678.93,-138.35 682.09,-144.6"/>
</g>
<!-- stem_117 -->
<g id="node19" class="node">
<title>stem_117</title>
<g id="a_node19"><a xlink:href="javascript:s=&quot;\(&quot;\(&#x27;item&#x27;,\ 0\),\ &#x27;base&#x27;,\ 0,\ h=2,\ ex_end=True&quot;,\ &#x27;coords&#x27;,\ &#x27;z_arrow&#x27;,\ &#x27;stem&#x27;\)\nCone&quot;; console.log(s); alert(s);" xlink:title="Cone">
<ellipse fill="none" stroke="black" cx="712.1" cy="-72" rx="27.9" ry="18"/>
<text text-anchor="middle" x="712.1" y="-68.3" font-family="Times New Roman,serif" font-size="14.00">stem</text>
</a>
</g>
</g>
<!-- z_arrow_116&#45;&gt;stem_117 -->
<g id="edge18" class="edge">
<title>z_arrow_116&#45;&gt;stem_117</title>
<path fill="none" stroke="black" d="M643.77,-72C653.63,-72 664.18,-72 673.92,-72"/>
<polygon fill="black" stroke="black" points="674.12,-75.5 684.12,-72 674.12,-68.5 674.12,-75.5"/>
</g>
<!-- head_118 -->
<g id="node20" class="node">
<title>head_118</title>
<g id="a_node20"><a xlink:href="javascript:s=&quot;\(&quot;\(&#x27;item&#x27;,\ 0\),\ &#x27;base&#x27;,\ 0,\ h=2,\ ex_end=True&quot;,\ &#x27;coords&#x27;,\ &#x27;z_arrow&#x27;,\ &#x27;head&#x27;\)\nCone&quot;; console.log(s); alert(s);" xlink:title="Cone">
<ellipse fill="none" stroke="black" cx="712.1" cy="-18" rx="27.9" ry="18"/>
<text text-anchor="middle" x="712.1" y="-14.3" font-family="Times New Roman,serif" font-size="14.00">head</text>
</a>
</g>
</g>
<!-- z_arrow_116&#45;&gt;head_118 -->
<g id="edge19" class="edge">
<title>z_arrow_116&#45;&gt;head_118</title>
<path fill="none" stroke="black" d="M630.71,-58.65C645.75,-51.05 664.66,-41.48 680.37,-33.54"/>
<polygon fill="black" stroke="black" points="682.32,-36.48 689.67,-28.84 679.16,-30.23 682.32,-36.48"/>
</g>
</g>
</svg>
