solid OpenSCAD_Model
  facet normal -0.6691306063588579 -0.7431448254773944 0
    outer loop
      vertex -3.8428307232810006 -2.7919799483892476 -44.999
      vertex -2.375 -4.113620667976083 -44.999
      vertex -2.375 -4.113620667976083 -34.999
    endloop
  endfacet
  facet normal -0.6691306063588579 -0.7431448254773944 0
    outer loop
      vertex -3.8428307232810006 -2.7919799483892476 -44.999
      vertex -2.375 -4.113620667976083 -34.999
      vertex -3.8428307232810006 -2.7919799483892476 -34.999
    endloop
  endfacet
  facet normal -0.6691306063588581 -0.7431448254773942 0
    outer loop
      vertex -3.578339794333377 -3.03012865049378 -34.999
      vertex -3.578339794333377 -3.03012865049378 -35
      vertex -2.7950139244664354 -3.7354384317250977 -35
    endloop
  endfacet
  facet normal -0.6691306063588581 -0.7431448254773942 0
    outer loop
      vertex -3.578339794333377 -3.03012865049378 -34.999
      vertex -2.7950139244664354 -3.7354384317250977 -35
      vertex -2.7950139244664354 -3.7354384317250977 -34.999
    endloop
  endfacet
  facet normal -0.913545457642601 -0.4067366430758001 0
    outer loop
      vertex -3.8428307232810006 -2.7919799483892476 -44.999
      vertex -4.646201103485577 -0.9875805313843569 -34.999
      vertex -4.646201103485577 -0.9875805313843569 -44.999
    endloop
  endfacet
  facet normal -0.9135454576426008 -0.4067366430758007 0
    outer loop
      vertex -4.053243615150239 -2.319384855547405 -34.999
      vertex -4.478744236368244 -1.3636948129726794 -34.999
      vertex -4.053243615150239 -2.319384855547405 -35
    endloop
  endfacet
  facet normal -0.9135454576426008 -0.4067366430758007 0
    outer loop
      vertex -4.478744236368244 -1.3636948129726794 -34.999
      vertex -4.478744236368244 -1.3636948129726794 -35
      vertex -4.053243615150239 -2.319384855547405 -35
    endloop
  endfacet
  facet normal 0 0 1
    outer loop
      vertex -3.8428307232810006 -2.7919799483892476 -34.999
      vertex -4.646201103485577 -0.5218322916860413 -34.999
      vertex -4.646201103485577 -0.9875805313843569 -34.999
    endloop
  endfacet
  facet normal -0.913545457642601 -0.4067366430758001 0
    outer loop
      vertex -3.8428307232810006 -2.7919799483892476 -44.999
      vertex -3.8428307232810006 -2.7919799483892476 -34.999
      vertex -4.646201103485577 -0.9875805313843569 -34.999
    endloop
  endfacet
  facet normal 0 0 1
    outer loop
      vertex -4.646201103485577 0.9875805313843569 -34.999
      vertex -4.053243615150239 -2.319384855547405 -34.999
      vertex -3.578339794333377 -3.03012865049378 -34.999
    endloop
  endfacet
  facet normal 0 0 -1
    outer loop
      vertex -3.8428307232810006 -2.7919799483892476 -44.999
      vertex -4.646201103485577 -0.9875805313843569 -44.999
      vertex -3.8428307232810006 2.7919799483892476 -44.999
    endloop
  endfacet
  facet normal -1 0 0
    outer loop
      vertex -4.646201103485577 -0.9875805313843569 -44.999
      vertex -4.646201103485577 -0.9875805313843569 -34.999
      vertex -4.646201103485577 -0.5218322916860413 -34.999
    endloop
  endfacet
  facet normal 0 0 1
    outer loop
      vertex -4.478744236368244 -1.3636948129726794 -34.999
      vertex -4.053243615150239 -2.319384855547405 -34.999
      vertex -4.646201103485577 0.9875805313843569 -34.999
    endloop
  endfacet
  facet normal 0 0 1
    outer loop
      vertex -3.8428307232810006 -2.7919799483892476 -34.999
      vertex -4.646201103485577 0.5218322916860422 -34.999
      vertex -4.646201103485577 -0.5218322916860413 -34.999
    endloop
  endfacet
  facet normal -1 0 0
    outer loop
      vertex -4.646201103485577 -0.9875805313843569 -44.999
      vertex -4.646201103485577 -0.5218322916860413 -34.999
      vertex -4.646201103485577 0.9875805313843569 -34.999
    endloop
  endfacet
  facet normal 0 0 1
    outer loop
      vertex -4.646201103485577 0.9875805313843569 -34.999
      vertex -4.646201103485577 -0.5218322916860413 -34.999
      vertex -4.478744236368244 -1.3636948129726794 -34.999
    endloop
  endfacet
  facet normal -1 0 0
    outer loop
      vertex -4.646201103485577 -0.5218322916860413 -34.999
      vertex -4.646201103485577 0.5218322916860422 -34.999
      vertex -4.646201103485577 -0.5218322916860413 -35
    endloop
  endfacet
  facet normal 0 0 1
    outer loop
      vertex -3.8428307232810006 -2.7919799483892476 -34.999
      vertex -4.478744236368245 1.3636948129726776 -34.999
      vertex -4.646201103485577 0.5218322916860422 -34.999
    endloop
  endfacet
  facet normal 0 0 1
    outer loop
      vertex -2.375 -4.113620667976083 -34.999
      vertex -4.05324361515024 2.319384855547405 -34.999
      vertex -3.8428307232810006 -2.7919799483892476 -34.999
    endloop
  endfacet
  facet normal 0 0 1
    outer loop
      vertex -3.578339794333377 -3.03012865049378 -34.999
      vertex -2.7950139244664354 -3.7354384317250977 -34.999
      vertex -3.8428307232810006 2.7919799483892476 -34.999
    endloop
  endfacet
  facet normal 0 0 1
    outer loop
      vertex -3.8428307232810006 2.7919799483892476 -34.999
      vertex -2.7950139244664354 -3.7354384317250977 -34.999
      vertex -2.0908474479508934 -4.205947428871684 -34.999
    endloop
  endfacet
  facet normal 0 0 -1
    outer loop
      vertex -3.8428307232810006 -2.7919799483892476 -44.999
      vertex -2.375 4.113620667976083 -44.999
      vertex -2.375 -4.113620667976083 -44.999
    endloop
  endfacet
  facet normal -0.30901699437494756 -0.9510565162951535 0
    outer loop
      vertex -2.375 -4.113620667976083 -44.999
      vertex -0.496510200521354 -4.7239790029992985 -34.999
      vertex -2.375 -4.113620667976083 -34.999
    endloop
  endfacet
  facet normal -0.3090169943749482 -0.9510565162951532 0
    outer loop
      vertex -2.0908474479508934 -4.205947428871684 -34.999
      vertex -2.0908474479508934 -4.205947428871684 -35
      vertex -1.0737863246574788 -4.53641062010248 -35
    endloop
  endfacet
  facet normal -0.3090169943749482 -0.9510565162951532 0
    outer loop
      vertex -2.0908474479508934 -4.205947428871684 -34.999
      vertex -1.0737863246574788 -4.53641062010248 -35
      vertex -1.0737863246574788 -4.53641062010248 -34.999
    endloop
  endfacet
  facet normal -0.30901699437494756 -0.9510565162951535 0
    outer loop
      vertex -2.375 -4.113620667976083 -44.999
      vertex -0.496510200521354 -4.7239790029992985 -44.999
      vertex -0.496510200521354 -4.7239790029992985 -34.999
    endloop
  endfacet
  facet normal 0 0 1
    outer loop
      vertex -2.0908474479508934 -4.205947428871684 -34.999
      vertex -1.0737863246574788 -4.53641062010248 -34.999
      vertex -0.2572435888290673 -4.698831068752771 -34.999
    endloop
  endfacet
  facet normal 0 0 1
    outer loop
      vertex -0.496510200521354 -4.7239790029992985 -34.999
      vertex -2.7950139244664367 3.7354384317250964 -34.999
      vertex -2.375 -4.113620667976083 -34.999
    endloop
  endfacet
  facet normal 0 0 1
    outer loop
      vertex -2.375 4.113620667976083 -34.999
      vertex -2.0908474479508934 -4.205947428871684 -34.999
      vertex -0.2572435888290673 -4.698831068752771 -34.999
    endloop
  endfacet
  facet normal 0 0 -1
    outer loop
      vertex -2.375 -4.113620667976083 -44.999
      vertex -0.496510200521354 4.7239790029992985 -44.999
      vertex -0.496510200521354 -4.7239790029992985 -44.999
    endloop
  endfacet
  facet normal 0 0 1
    outer loop
      vertex 1.4678307232810002 -4.517518452401979 -34.999
      vertex -1.0737863246574872 4.536410620102476 -34.999
      vertex -0.496510200521354 -4.7239790029992985 -34.999
    endloop
  endfacet
  facet normal -1 0 0
    outer loop
      vertex -4.646201103485577 -0.9875805313843569 -44.999
      vertex -4.646201103485577 0.9875805313843569 -34.999
      vertex -4.646201103485577 0.9875805313843569 -44.999
    endloop
  endfacet
  facet normal 0 0 -1
    outer loop
      vertex -4.646201103485577 -0.9875805313843569 -44.999
      vertex -4.646201103485577 0.9875805313843569 -44.999
      vertex -3.8428307232810006 2.7919799483892476 -44.999
    endloop
  endfacet
  facet normal -1 0 0
    outer loop
      vertex -4.646201103485577 0.5218322916860422 -34.999
      vertex -4.646201103485577 0.5218322916860422 -35
      vertex -4.646201103485577 -0.5218322916860413 -35
    endloop
  endfacet
  facet normal 0 0 1
    outer loop
      vertex -4.646201103485577 0.9875805313843569 -34.999
      vertex -3.578339794333377 -3.03012865049378 -34.999
      vertex -3.8428307232810006 2.7919799483892476 -34.999
    endloop
  endfacet
  facet normal 0 0 1
    outer loop
      vertex -4.05324361515024 2.319384855547405 -34.999
      vertex -4.478744236368245 1.3636948129726776 -34.999
      vertex -3.8428307232810006 -2.7919799483892476 -34.999
    endloop
  endfacet
  facet normal -0.913545457642601 0.4067366430758001 0
    outer loop
      vertex -4.646201103485577 0.9875805313843569 -44.999
      vertex -3.8428307232810006 2.7919799483892476 -34.999
      vertex -3.8428307232810006 2.7919799483892476 -44.999
    endloop
  endfacet
  facet normal -0.913545457642601 0.4067366430758001 0
    outer loop
      vertex -4.646201103485577 0.9875805313843569 -44.999
      vertex -4.646201103485577 0.9875805313843569 -34.999
      vertex -3.8428307232810006 2.7919799483892476 -34.999
    endloop
  endfacet
  facet normal -0.9135454576426009 0.40673664307580004 0
    outer loop
      vertex -4.478744236368245 1.3636948129726776 -34.999
      vertex -4.05324361515024 2.319384855547405 -34.999
      vertex -4.478744236368245 1.3636948129726776 -35
    endloop
  endfacet
  facet normal -0.9135454576426009 0.40673664307580004 0
    outer loop
      vertex -4.05324361515024 2.319384855547405 -34.999
      vertex -4.05324361515024 2.319384855547405 -35
      vertex -4.478744236368245 1.3636948129726776 -35
    endloop
  endfacet
  facet normal 0 0 1
    outer loop
      vertex -2.375 -4.113620667976083 -34.999
      vertex -3.5783397943333775 3.0301286504937797 -34.999
      vertex -4.05324361515024 2.319384855547405 -34.999
    endloop
  endfacet
  facet normal 0 0 1
    outer loop
      vertex -2.375 -4.113620667976083 -34.999
      vertex -2.7950139244664367 3.7354384317250964 -34.999
      vertex -3.5783397943333775 3.0301286504937797 -34.999
    endloop
  endfacet
  facet normal 0 0 1
    outer loop
      vertex -2.375 4.113620667976083 -34.999
      vertex -3.8428307232810006 2.7919799483892476 -34.999
      vertex -2.0908474479508934 -4.205947428871684 -34.999
    endloop
  endfacet
  facet normal 0 0 -1
    outer loop
      vertex -3.8428307232810006 -2.7919799483892476 -44.999
      vertex -3.8428307232810006 2.7919799483892476 -44.999
      vertex -2.375 4.113620667976083 -44.999
    endloop
  endfacet
  facet normal -0.6691306063588579 0.7431448254773944 0
    outer loop
      vertex -3.8428307232810006 2.7919799483892476 -44.999
      vertex -3.8428307232810006 2.7919799483892476 -34.999
      vertex -2.375 4.113620667976083 -44.999
    endloop
  endfacet
  facet normal -0.6691306063588581 0.7431448254773944 0
    outer loop
      vertex -3.5783397943333775 3.0301286504937797 -34.999
      vertex -2.7950139244664367 3.7354384317250964 -34.999
      vertex -3.5783397943333775 3.0301286504937797 -35
    endloop
  endfacet
  facet normal -0.6691306063588581 0.7431448254773944 0
    outer loop
      vertex -2.7950139244664367 3.7354384317250964 -34.999
      vertex -2.7950139244664367 3.7354384317250964 -35
      vertex -3.5783397943333775 3.0301286504937797 -35
    endloop
  endfacet
  facet normal -0.6691306063588579 0.7431448254773944 0
    outer loop
      vertex -2.375 4.113620667976083 -44.999
      vertex -3.8428307232810006 2.7919799483892476 -34.999
      vertex -2.375 4.113620667976083 -34.999
    endloop
  endfacet
  facet normal 0 0 1
    outer loop
      vertex -0.496510200521354 -4.7239790029992985 -34.999
      vertex -2.090847447950894 4.205947428871684 -34.999
      vertex -2.7950139244664367 3.7354384317250964 -34.999
    endloop
  endfacet
  facet normal 0 0 -1
    outer loop
      vertex -2.375 -4.113620667976083 -44.999
      vertex -2.375 4.113620667976083 -44.999
      vertex -0.496510200521354 4.7239790029992985 -44.999
    endloop
  endfacet
  facet normal 0 0 1
    outer loop
      vertex -0.496510200521354 -4.7239790029992985 -34.999
      vertex -1.0737863246574872 4.536410620102476 -34.999
      vertex -2.090847447950894 4.205947428871684 -34.999
    endloop
  endfacet
  facet normal 0 0 1
    outer loop
      vertex -0.496510200521354 4.7239790029992985 -34.999
      vertex -2.375 4.113620667976083 -34.999
      vertex -0.2572435888290673 -4.698831068752771 -34.999
    endloop
  endfacet
  facet normal -0.30901699437494756 0.9510565162951535 0
    outer loop
      vertex -2.375 4.113620667976083 -44.999
      vertex -2.375 4.113620667976083 -34.999
      vertex -0.496510200521354 4.7239790029992985 -44.999
    endloop
  endfacet
  facet normal -0.3090169943749473 0.9510565162951536 0
    outer loop
      vertex -2.090847447950894 4.205947428871684 -34.999
      vertex -1.0737863246574872 4.536410620102476 -34.999
      vertex -2.090847447950894 4.205947428871684 -35
    endloop
  endfacet
  facet normal -0.3090169943749473 0.9510565162951536 0
    outer loop
      vertex -1.0737863246574872 4.536410620102476 -34.999
      vertex -1.0737863246574872 4.536410620102476 -35
      vertex -2.090847447950894 4.205947428871684 -35
    endloop
  endfacet
  facet normal -0.30901699437494756 0.9510565162951535 0
    outer loop
      vertex -0.496510200521354 4.7239790029992985 -44.999
      vertex -2.375 4.113620667976083 -34.999
      vertex -0.496510200521354 4.7239790029992985 -34.999
    endloop
  endfacet
  facet normal 0.10452846326765385 -0.9945218953682733 0
    outer loop
      vertex -0.496510200521354 -4.7239790029992985 -44.999
      vertex 1.4678307232810002 -4.517518452401979 -44.999
      vertex 1.4678307232810002 -4.517518452401979 -34.999
    endloop
  endfacet
  facet normal 0.10452846326765385 -0.9945218953682733 0
    outer loop
      vertex -0.496510200521354 -4.7239790029992985 -44.999
      vertex 1.4678307232810002 -4.517518452401979 -34.999
      vertex -0.496510200521354 -4.7239790029992985 -34.999
    endloop
  endfacet
  facet normal 0.10452846326765333 -0.9945218953682732 0
    outer loop
      vertex -0.2572435888290673 -4.698831068752771 -34.999
      vertex -0.2572435888290673 -4.698831068752771 -35
      vertex 0.8336838200027505 -4.584169977717137 -35
    endloop
  endfacet
  facet normal 0.10452846326765333 -0.9945218953682732 0
    outer loop
      vertex -0.2572435888290673 -4.698831068752771 -34.999
      vertex 0.8336838200027505 -4.584169977717137 -35
      vertex 0.8336838200027505 -4.584169977717137 -34.999
    endloop
  endfacet
  facet normal 0.49999999999999983 -0.8660254037844387 0
    outer loop
      vertex 1.4678307232810002 -4.517518452401979 -44.999
      vertex 3.1783703802045764 -3.5299379210176225 -34.999
      vertex 1.4678307232810002 -4.517518452401979 -34.999
    endloop
  endfacet
  facet normal 0.4999999999999996 -0.8660254037844389 0
    outer loop
      vertex 1.6250246412207252 -4.4267625015645065 -34.999
      vertex 1.6250246412207252 -4.4267625015645065 -35
      vertex 2.620724300751663 -3.8518950351023014 -35
    endloop
  endfacet
  facet normal 0.4999999999999996 -0.8660254037844389 0
    outer loop
      vertex 1.6250246412207252 -4.4267625015645065 -34.999
      vertex 2.620724300751663 -3.8518950351023014 -35
      vertex 2.620724300751663 -3.8518950351023014 -34.999
    endloop
  endfacet
  facet normal 0 0 -1
    outer loop
      vertex -0.496510200521354 -4.7239790029992985 -44.999
      vertex 1.4678307232810002 4.517518452401979 -44.999
      vertex 1.4678307232810002 -4.517518452401979 -44.999
    endloop
  endfacet
  facet normal 0 0 1
    outer loop
      vertex -0.2572435888290673 -4.698831068752771 -34.999
      vertex 0.8336838200027505 -4.584169977717137 -34.999
      vertex -0.496510200521354 4.7239790029992985 -34.999
    endloop
  endfacet
  facet normal 0 0 1
    outer loop
      vertex -0.496510200521354 4.7239790029992985 -34.999
      vertex 0.8336838200027505 -4.584169977717137 -34.999
      vertex 1.4556990579057847 -4.460443454199623 -34.999
    endloop
  endfacet
  facet normal 0 0 1
    outer loop
      vertex 1.4678307232810002 4.517518452401979 -34.999
      vertex 1.4556990579057847 -4.460443454199623 -34.999
      vertex 1.6250246412207252 -4.4267625015645065 -34.999
    endloop
  endfacet
  facet normal 0 0 1
    outer loop
      vertex 1.6250246412207252 -4.4267625015645065 -34.999
      vertex 2.620724300751663 -3.8518950351023014 -34.999
      vertex 1.4678307232810002 4.517518452401979 -34.999
    endloop
  endfacet
  facet normal 0 0 1
    outer loop
      vertex 3.1783703802045764 -3.5299379210176225 -34.999
      vertex 0.8336838200027505 4.584169977717137 -34.999
      vertex 1.4678307232810002 -4.517518452401979 -34.999
    endloop
  endfacet
  facet normal 0.49999999999999983 -0.8660254037844387 0
    outer loop
      vertex 1.4678307232810002 -4.517518452401979 -44.999
      vertex 3.1783703802045764 -3.5299379210176225 -44.999
      vertex 3.1783703802045764 -3.5299379210176225 -34.999
    endloop
  endfacet
  facet normal 0.8090169943749476 -0.5877852522924729 0
    outer loop
      vertex 3.249889511749263 -3.431500281391716 -34.999
      vertex 3.249889511749263 -3.431500281391716 -35
      vertex 4.00006479412617 -2.398972585543783 -35
    endloop
  endfacet
  facet normal 0.8090169943749476 -0.587785252292473 0
    outer loop
      vertex 3.1783703802045764 -3.5299379210176225 -44.999
      vertex 4.339340923802354 -1.931999054610051 -44.999
      vertex 3.1783703802045764 -3.5299379210176225 -34.999
    endloop
  endfacet
  facet normal 0.8090169943749476 -0.587785252292473 0
    outer loop
      vertex 4.339340923802354 -1.931999054610051 -44.999
      vertex 4.339340923802354 -1.931999054610051 -34.999
      vertex 3.1783703802045764 -3.5299379210176225 -34.999
    endloop
  endfacet
  facet normal 0.8090169943749476 -0.5877852522924729 0
    outer loop
      vertex 3.249889511749263 -3.431500281391716 -34.999
      vertex 4.00006479412617 -2.398972585543783 -35
      vertex 4.00006479412617 -2.398972585543783 -34.999
    endloop
  endfacet
  facet normal 0 0 -1
    outer loop
      vertex 1.4678307232810002 -4.517518452401979 -44.999
      vertex 3.1783703802045764 3.5299379210176225 -44.999
      vertex 3.1783703802045764 -3.5299379210176225 -44.999
    endloop
  endfacet
  facet normal 0 0 1
    outer loop
      vertex 1.4678307232810002 4.517518452401979 -34.999
      vertex 2.620724300751663 -3.8518950351023014 -34.999
      vertex 3.1689432656158174 -3.4855868338778424 -34.999
    endloop
  endfacet
  facet normal 0 0 1
    outer loop
      vertex 3.1783703802045764 3.5299379210176225 -34.999
      vertex 3.1689432656158174 -3.4855868338778424 -34.999
      vertex 3.249889511749263 -3.431500281391716 -34.999
    endloop
  endfacet
  facet normal 0 0 1
    outer loop
      vertex 3.249889511749263 -3.431500281391716 -34.999
      vertex 4.00006479412617 -2.398972585543783 -34.999
      vertex 3.1783703802045764 3.5299379210176225 -34.999
    endloop
  endfacet
  facet normal 0 0 1
    outer loop
      vertex 4.339340923802354 -1.931999054610051 -34.999
      vertex 2.6207243007516587 3.851895035102304 -34.999
      vertex 3.1783703802045764 -3.5299379210176225 -34.999
    endloop
  endfacet
  facet normal 0.9781476007338055 -0.2079116908177596 0
    outer loop
      vertex 4.339340923802354 -1.931999054610051 -44.999
      vertex 4.75 0 -44.999
      vertex 4.339340923802354 -1.931999054610051 -34.999
    endloop
  endfacet
  facet normal 0.9781476007338055 -0.20791169081775973 0
    outer loop
      vertex 4.352055627764937 -1.8721810755145756 -34.999
      vertex 4.352055627764937 -1.8721810755145756 -35
      vertex 4.75 0 -35
    endloop
  endfacet
  facet normal 0 0 -1
    outer loop
      vertex 3.1783703802045764 -3.5299379210176225 -44.999
      vertex 4.339340923802354 1.931999054610051 -44.999
      vertex 4.339340923802354 -1.931999054610051 -44.999
    endloop
  endfacet
  facet normal 0 0 1
    outer loop
      vertex 3.1783703802045764 3.5299379210176225 -34.999
      vertex 4.00006479412617 -2.398972585543783 -34.999
      vertex 4.332763351086935 -1.90105400796581 -34.999
    endloop
  endfacet
  facet normal 0.9781476007338055 -0.2079116908177596 0
    outer loop
      vertex 4.339340923802354 -1.931999054610051 -34.999
      vertex 4.75 0 -44.999
      vertex 4.75 0 -35
    endloop
  endfacet
  facet normal 0 0 1
    outer loop
      vertex 4.339340923802354 1.931999054610051 -34.999
      vertex 4.332763351086935 -1.90105400796581 -34.999
      vertex 4.352055627764937 -1.8721810755145756 -34.999
    endloop
  endfacet
  facet normal 0.9781476007338056 -0.20791169081775962 0
    outer loop
      vertex 4.339340923802354 -1.931999054610051 -34.999
      vertex 4.75 0 -35
      vertex 4.75 0 -34.999
    endloop
  endfacet
  facet normal 0.9781476007338055 -0.20791169081775973 0
    outer loop
      vertex 4.75 0 -34.999
      vertex 4.352055627764937 -1.8721810755145756 -34.999
      vertex 4.75 0 -35
    endloop
  endfacet
  facet normal 0 0 -1
    outer loop
      vertex -0.496510200521354 -4.7239790029992985 -44.999
      vertex -0.496510200521354 4.7239790029992985 -44.999
      vertex 1.4678307232810002 4.517518452401979 -44.999
    endloop
  endfacet
  facet normal 0 0 1
    outer loop
      vertex 1.4678307232810002 -4.517518452401979 -34.999
      vertex -0.25724358882906584 4.698831068752771 -34.999
      vertex -1.0737863246574872 4.536410620102476 -34.999
    endloop
  endfacet
  facet normal 0 0 1
    outer loop
      vertex 1.4678307232810002 -4.517518452401979 -34.999
      vertex 0.8336838200027505 4.584169977717137 -34.999
      vertex -0.25724358882906584 4.698831068752771 -34.999
    endloop
  endfacet
  facet normal 0 0 1
    outer loop
      vertex 1.4678307232810002 4.517518452401979 -34.999
      vertex -0.496510200521354 4.7239790029992985 -34.999
      vertex 1.4556990579057847 -4.460443454199623 -34.999
    endloop
  endfacet
  facet normal 0 0 -1
    outer loop
      vertex 1.4678307232810002 -4.517518452401979 -44.999
      vertex 1.4678307232810002 4.517518452401979 -44.999
      vertex 3.1783703802045764 3.5299379210176225 -44.999
    endloop
  endfacet
  facet normal 0 0 1
    outer loop
      vertex 3.1783703802045764 -3.5299379210176225 -34.999
      vertex 1.625024641220726 4.4267625015645065 -34.999
      vertex 0.8336838200027505 4.584169977717137 -34.999
    endloop
  endfacet
  facet normal 0.10452846326765385 0.9945218953682733 0
    outer loop
      vertex -0.496510200521354 4.7239790029992985 -44.999
      vertex -0.496510200521354 4.7239790029992985 -34.999
      vertex 1.4678307232810002 4.517518452401979 -44.999
    endloop
  endfacet
  facet normal 0.1045284632676535 0.9945218953682734 0
    outer loop
      vertex -0.25724358882906584 4.698831068752771 -34.999
      vertex 0.8336838200027505 4.584169977717137 -34.999
      vertex -0.25724358882906584 4.698831068752771 -35
    endloop
  endfacet
  facet normal 0.1045284632676535 0.9945218953682734 0
    outer loop
      vertex 0.8336838200027505 4.584169977717137 -34.999
      vertex 0.8336838200027505 4.584169977717137 -35
      vertex -0.25724358882906584 4.698831068752771 -35
    endloop
  endfacet
  facet normal 0.10452846326765385 0.9945218953682733 0
    outer loop
      vertex 1.4678307232810002 4.517518452401979 -44.999
      vertex -0.496510200521354 4.7239790029992985 -34.999
      vertex 1.4678307232810002 4.517518452401979 -34.999
    endloop
  endfacet
  facet normal 0.49999999999999983 0.8660254037844387 0
    outer loop
      vertex 1.4678307232810002 4.517518452401979 -44.999
      vertex 1.4678307232810002 4.517518452401979 -34.999
      vertex 3.1783703802045764 3.5299379210176225 -44.999
    endloop
  endfacet
  facet normal 0.49999999999999983 0.8660254037844388 0
    outer loop
      vertex 2.6207243007516587 3.851895035102304 -34.999
      vertex 2.6207243007516587 3.851895035102304 -35
      vertex 1.625024641220726 4.4267625015645065 -35
    endloop
  endfacet
  facet normal 0.49999999999999983 0.8660254037844388 0
    outer loop
      vertex 1.625024641220726 4.4267625015645065 -34.999
      vertex 2.6207243007516587 3.851895035102304 -34.999
      vertex 1.625024641220726 4.4267625015645065 -35
    endloop
  endfacet
  facet normal 0 0 1
    outer loop
      vertex 3.1783703802045764 -3.5299379210176225 -34.999
      vertex 2.6207243007516587 3.851895035102304 -34.999
      vertex 1.625024641220726 4.4267625015645065 -34.999
    endloop
  endfacet
  facet normal 0 0 1
    outer loop
      vertex 3.1783703802045764 3.5299379210176225 -34.999
      vertex 1.4678307232810002 4.517518452401979 -34.999
      vertex 3.1689432656158174 -3.4855868338778424 -34.999
    endloop
  endfacet
  facet normal 0 0 1
    outer loop
      vertex 4.339340923802354 -1.931999054610051 -34.999
      vertex 3.249889511749263 3.4315002813917164 -34.999
      vertex 2.6207243007516587 3.851895035102304 -34.999
    endloop
  endfacet
  facet normal 0 0 -1
    outer loop
      vertex 3.1783703802045764 -3.5299379210176225 -44.999
      vertex 3.1783703802045764 3.5299379210176225 -44.999
      vertex 4.339340923802354 1.931999054610051 -44.999
    endloop
  endfacet
  facet normal 0 0 -1
    outer loop
      vertex 4.339340923802354 -1.931999054610051 -44.999
      vertex 4.339340923802354 1.931999054610051 -44.999
      vertex 4.75 0 -44.999
    endloop
  endfacet
  facet normal 0.9781476007338055 0.2079116908177596 0
    outer loop
      vertex 4.75 0 -44.999
      vertex 4.339340923802354 1.931999054610051 -44.999
      vertex 4.75 0 -35
    endloop
  endfacet
  facet normal 0 0 1
    outer loop
      vertex 4.339340923802354 1.931999054610051 -34.999
      vertex 3.1783703802045764 3.5299379210176225 -34.999
      vertex 4.332763351086935 -1.90105400796581 -34.999
    endloop
  endfacet
  facet normal 0 0 1
    outer loop
      vertex 4.339340923802354 -1.931999054610051 -34.999
      vertex 4.75 0 -34.999
      vertex 4.0000647941261755 2.3989725855437762 -34.999
    endloop
  endfacet
  facet normal 0 0 1
    outer loop
      vertex 4.75 0 -34.999
      vertex 4.352055627764937 1.8721810755145765 -34.999
      vertex 4.352055627764937 -1.8721810755145756 -34.999
    endloop
  endfacet
  facet normal 0.9781476007337909 0.20791169081782834 0
    outer loop
      vertex 4.339340923802354 1.931999054610051 -44.999
      vertex 4.75 0 -34.999
      vertex 4.75 0 -35
    endloop
  endfacet
  facet normal 0 0 1
    outer loop
      vertex 4.352055627764937 1.8721810755145765 -34.999
      vertex 4.339340923802354 1.931999054610051 -34.999
      vertex 4.352055627764937 -1.8721810755145756 -34.999
    endloop
  endfacet
  facet normal 0.9781476007338056 0.20791169081775965 0
    outer loop
      vertex 4.75 0 -34.999
      vertex 4.75 0 -35
      vertex 4.352055627764937 1.8721810755145765 -34.999
    endloop
  endfacet
  facet normal 0 0 1
    outer loop
      vertex 4.339340923802354 -1.931999054610051 -34.999
      vertex 4.0000647941261755 2.3989725855437762 -34.999
      vertex 3.249889511749263 3.4315002813917164 -34.999
    endloop
  endfacet
  facet normal 0.9781476007338055 0.20791169081775965 1.0513438730153041e-17
    outer loop
      vertex 4.339340923802354 1.931999054610051 -44.999
      vertex 4.352055627764937 1.8721810755145765 -34.999
      vertex 4.75 0 -34.999
    endloop
  endfacet
  facet normal 0 0 1
    outer loop
      vertex 4.0000647941261755 2.3989725855437762 -34.999
      vertex 4.75 0 -34.999
      vertex 4.352055627764937 1.8721810755145765 -34.999
    endloop
  endfacet
  facet normal 0.9781476007338056 0.20791169081775965 0
    outer loop
      vertex 4.75 0 -35
      vertex 4.352055627764937 1.8721810755145765 -35
      vertex 4.352055627764937 1.8721810755145765 -34.999
    endloop
  endfacet
  facet normal 0.978147600733806 0.20791169081775798 0
    outer loop
      vertex 4.339340923802354 1.931999054610051 -44.999
      vertex 4.339340923802354 1.931999054610051 -34.999
      vertex 4.352055627764937 1.8721810755145765 -34.999
    endloop
  endfacet
  facet normal 0.8090169943749476 0.5877852522924731 0
    outer loop
      vertex 3.249889511749263 3.4315002813917164 -34.999
      vertex 4.0000647941261755 2.3989725855437762 -34.999
      vertex 3.249889511749263 3.4315002813917164 -35
    endloop
  endfacet
  facet normal 0.49999999999999983 0.8660254037844387 0
    outer loop
      vertex 3.1783703802045764 3.5299379210176225 -44.999
      vertex 1.4678307232810002 4.517518452401979 -34.999
      vertex 3.1783703802045764 3.5299379210176225 -34.999
    endloop
  endfacet
  facet normal 0.8090169943749476 0.587785252292473 0
    outer loop
      vertex 4.339340923802354 1.931999054610051 -44.999
      vertex 3.1783703802045764 3.5299379210176225 -44.999
      vertex 4.339340923802354 1.931999054610051 -34.999
    endloop
  endfacet
  facet normal 0.8090169943749476 0.5877852522924731 0
    outer loop
      vertex 4.0000647941261755 2.3989725855437762 -34.999
      vertex 4.0000647941261755 2.3989725855437762 -35
      vertex 3.249889511749263 3.4315002813917164 -35
    endloop
  endfacet
  facet normal 0.8090169943749476 0.587785252292473 0
    outer loop
      vertex 3.1783703802045764 3.5299379210176225 -44.999
      vertex 3.1783703802045764 3.5299379210176225 -34.999
      vertex 4.339340923802354 1.931999054610051 -34.999
    endloop
  endfacet
  facet normal 0.8314696123025449 0.5555702330196026 7.594098795573633e-15
    outer loop
      vertex -3.3587572106361003 -3.3587572106361017 -34.9
      vertex -4.053243615150239 -2.319384855547405 -34.999
      vertex -4.388427779428611 -1.817746303734179 -35
    endloop
  endfacet
  facet normal 0.8314696123025455 0.5555702330196022 6.559614910990557e-16
    outer loop
      vertex -3.3587572106361003 -3.3587572106361017 -34.9
      vertex -3.578339794333377 -3.03012865049378 -34.999
      vertex -4.053243615150239 -2.319384855547405 -34.999
    endloop
  endfacet
  facet normal 0.5555702330196021 0.8314696123025455 0
    outer loop
      vertex -3.3587572106361003 -3.3587572106361017 -35
      vertex -2.7950139244664354 -3.7354384317250977 -34.999
      vertex -2.7950139244664354 -3.7354384317250977 -35
    endloop
  endfacet
  facet normal 0.5555702330196017 0.8314696123025455 -1.3241770946820576e-15
    outer loop
      vertex -3.3587572106361003 -3.3587572106361017 -34.9
      vertex -2.0908474479508934 -4.205947428871684 -34.999
      vertex -2.7950139244664354 -3.7354384317250977 -34.999
    endloop
  endfacet
  facet normal 0.5555702330196023 0.8314696123025452 7.164523261938096e-15
    outer loop
      vertex -3.3587572106361003 -3.3587572106361017 -34.9
      vertex -1.817746303734176 -4.388427779428612 -35
      vertex -2.0908474479508934 -4.205947428871684 -34.999
    endloop
  endfacet
  facet normal 0.8314696123025455 0.555570233019602 0
    outer loop
      vertex -3.3587572106361003 -3.3587572106361017 -35
      vertex -3.578339794333377 -3.03012865049378 -35
      vertex -3.578339794333377 -3.03012865049378 -34.999
    endloop
  endfacet
  facet normal 0.8314696123025455 0.555570233019602 0
    outer loop
      vertex -3.3587572106361003 -3.3587572106361017 -35
      vertex -3.578339794333377 -3.03012865049378 -34.999
      vertex -3.3587572106361003 -3.3587572106361017 -34.9
    endloop
  endfacet
  facet normal 0.555570233019602 0.8314696123025455 0
    outer loop
      vertex -3.3587572106361003 -3.3587572106361017 -35
      vertex -3.3587572106361003 -3.3587572106361017 -34.9
      vertex -2.7950139244664354 -3.7354384317250977 -34.999
    endloop
  endfacet
  facet normal 0 0 1
    outer loop
      vertex -3.3587572106361003 -3.3587572106361017 -35
      vertex -2.7950139244664354 -3.7354384317250977 -35
      vertex -3.578339794333377 -3.03012865049378 -35
    endloop
  endfacet
  facet normal 0.8314696123025449 0.5555702330196026 0
    outer loop
      vertex -4.388427779428611 -1.817746303734179 -35
      vertex -4.053243615150239 -2.319384855547405 -34.999
      vertex -4.053243615150239 -2.319384855547405 -35
    endloop
  endfacet
  facet normal 0 0 1
    outer loop
      vertex -4.388427779428611 -1.817746303734179 -35
      vertex -4.053243615150239 -2.319384855547405 -35
      vertex -4.478744236368244 -1.3636948129726794 -35
    endloop
  endfacet
  facet normal 0.9807852804032303 0.19509032201612847 -3.919485423002065e-15
    outer loop
      vertex -4.388427779428611 -1.817746303734179 -34.9
      vertex -4.478744236368244 -1.3636948129726794 -34.999
      vertex -4.646201103485577 -0.5218322916860413 -34.999
    endloop
  endfacet
  facet normal 0.9807852804032301 0.19509032201612928 0
    outer loop
      vertex -4.388427779428611 -1.817746303734179 -35
      vertex -4.478744236368244 -1.3636948129726794 -34.999
      vertex -4.388427779428611 -1.817746303734179 -34.9
    endloop
  endfacet
  facet normal 0.9807852804032303 0.1950903220161293 0
    outer loop
      vertex -4.388427779428611 -1.817746303734179 -35
      vertex -4.478744236368244 -1.3636948129726794 -35
      vertex -4.478744236368244 -1.3636948129726794 -34.999
    endloop
  endfacet
  facet normal 0.8314696123025452 0.5555702330196023 0
    outer loop
      vertex -3.3587572106361003 -3.3587572106361017 -34.9
      vertex -4.388427779428611 -1.817746303734179 -35
      vertex -4.388427779428611 -1.817746303734179 -34.9
    endloop
  endfacet
  facet normal 0.9807852804032303 0.19509032201612875 0
    outer loop
      vertex -4.388427779428611 -1.817746303734179 -34.9
      vertex -4.75 0 -35
      vertex -4.75 0 -34.9
    endloop
  endfacet
  facet normal 0.9807852804032303 0.19509032201612878 1.0809887432614126e-15
    outer loop
      vertex -4.388427779428611 -1.817746303734179 -34.9
      vertex -4.646201103485577 -0.5218322916860413 -34.999
      vertex -4.75 0 -35
    endloop
  endfacet
  facet normal 0.9807852804032303 0.19509032201612875 0
    outer loop
      vertex -4.75 0 -35
      vertex -4.646201103485577 -0.5218322916860413 -34.999
      vertex -4.646201103485577 -0.5218322916860413 -35
    endloop
  endfacet
  facet normal 0.6236648884296672 0.12405465940911571 -0.7717852994317131
    outer loop
      vertex -4.388427779428611 -1.817746303734179 -34.9
      vertex -4.75 0 -34.9
      vertex -2.275 0 -32.9
    endloop
  endfacet
  facet normal 0.5287175627025422 0.3532777808905962 -0.771785299431713
    outer loop
      vertex -3.3587572106361003 -3.3587572106361017 -34.9
      vertex -4.388427779428611 -1.817746303734179 -34.9
      vertex -2.1018259364631766 -0.8706048086305804 -32.9
    endloop
  endfacet
  facet normal 0.6236648884296672 0.12405465940911568 -0.7717852994317133
    outer loop
      vertex -4.388427779428611 -1.817746303734179 -34.9
      vertex -2.275 0 -32.9
      vertex -2.1018259364631766 -0.8706048086305804 -32.9
    endloop
  endfacet
  facet normal 0.5555702330196023 0.8314696123025452 0
    outer loop
      vertex -1.817746303734176 -4.388427779428612 -35
      vertex -2.0908474479508934 -4.205947428871684 -35
      vertex -2.0908474479508934 -4.205947428871684 -34.999
    endloop
  endfacet
  facet normal 0.555570233019602 0.8314696123025455 0
    outer loop
      vertex -3.3587572106361003 -3.3587572106361017 -34.9
      vertex -1.817746303734176 -4.388427779428612 -34.9
      vertex -1.817746303734176 -4.388427779428612 -35
    endloop
  endfacet
  facet normal 0 0 1
    outer loop
      vertex -1.817746303734176 -4.388427779428612 -35
      vertex -1.0737863246574788 -4.53641062010248 -35
      vertex -2.0908474479508934 -4.205947428871684 -35
    endloop
  endfacet
  facet normal 0.195090322016129 0.9807852804032302 0
    outer loop
      vertex -1.817746303734176 -4.388427779428612 -35
      vertex -1.817746303734176 -4.388427779428612 -34.9
      vertex -1.0737863246574788 -4.53641062010248 -34.999
    endloop
  endfacet
  facet normal 0.19509032201612905 0.9807852804032303 0
    outer loop
      vertex -1.817746303734176 -4.388427779428612 -35
      vertex -1.0737863246574788 -4.53641062010248 -34.999
      vertex -1.0737863246574788 -4.53641062010248 -35
    endloop
  endfacet
  facet normal 0.35327778089059597 0.5287175627025422 -0.7717852994317131
    outer loop
      vertex -3.3587572106361003 -3.3587572106361017 -34.9
      vertex -1.6086679271993953 -1.608667927199396 -32.9
      vertex -1.817746303734176 -4.388427779428612 -34.9
    endloop
  endfacet
  facet normal 0.19509032201612722 0.9807852804032307 -1.3470076276359313e-14
    outer loop
      vertex -1.817746303734176 -4.388427779428612 -34.9
      vertex -0.2572435888290673 -4.698831068752771 -34.999
      vertex -1.0737863246574788 -4.53641062010248 -34.999
    endloop
  endfacet
  facet normal 0.19509032201612844 0.9807852804032304 4.554766581466828e-15
    outer loop
      vertex -1.817746303734176 -4.388427779428612 -34.9
      vertex 0 -4.75 -35
      vertex -0.2572435888290673 -4.698831068752771 -34.999
    endloop
  endfacet
  facet normal 0.19509032201612816 0.9807852804032304 0
    outer loop
      vertex -1.817746303734176 -4.388427779428612 -34.9
      vertex 0 -4.75 -34.9
      vertex 0 -4.75 -35
    endloop
  endfacet
  facet normal 0.12405465940911531 0.6236648884296672 -0.771785299431713
    outer loop
      vertex -1.817746303734176 -4.388427779428612 -34.9
      vertex -0.870604808630579 -2.1018259364631775 -32.9
      vertex 0 -4.75 -34.9
    endloop
  endfacet
  facet normal 0.19509032201612864 0.9807852804032304 0
    outer loop
      vertex 0 -4.75 -35
      vertex -0.2572435888290673 -4.698831068752771 -35
      vertex -0.2572435888290673 -4.698831068752771 -34.999
    endloop
  endfacet
  facet normal 0.35327778089059614 0.5287175627025423 -0.7717852994317131
    outer loop
      vertex -1.817746303734176 -4.388427779428612 -34.9
      vertex -1.6086679271993953 -1.608667927199396 -32.9
      vertex -0.870604808630579 -2.1018259364631775 -32.9
    endloop
  endfacet
  facet normal 0.12405465940911525 0.6236648884296672 -0.7717852994317131
    outer loop
      vertex -0.870604808630579 -2.1018259364631775 -32.9
      vertex 0 -2.275 -32.9
      vertex 0 -4.75 -34.9
    endloop
  endfacet
  facet normal 0.5287175627025422 0.35327778089059625 -0.7717852994317131
    outer loop
      vertex -3.3587572106361003 -3.3587572106361017 -34.9
      vertex -2.1018259364631766 -0.8706048086305804 -32.9
      vertex -1.6086679271993953 -1.608667927199396 -32.9
    endloop
  endfacet
  facet normal 0 0 1
    outer loop
      vertex -1.6970562748477138 -1.6970562748477145 -32.9
      vertex -1.6086679271993953 -1.608667927199396 -32.9
      vertex -2.1018259364631766 -0.8706048086305804 -32.9
    endloop
  endfacet
  facet normal 0 0 1
    outer loop
      vertex -1.6970562748477138 -1.6970562748477145 -32.9
      vertex -0.9184402376762152 -2.2173108780270883 -32.9
      vertex -1.6086679271993953 -1.608667927199396 -32.9
    endloop
  endfacet
  facet normal 0 0 1
    outer loop
      vertex -2.2173108780270874 -0.9184402376762167 -32.9
      vertex -2.1018259364631766 -0.8706048086305804 -32.9
      vertex -2.275 0 -32.9
    endloop
  endfacet
  facet normal 0 0 1
    outer loop
      vertex -1.6970562748477138 -1.6970562748477145 -32.9
      vertex -2.1018259364631766 -0.8706048086305804 -32.9
      vertex -2.2173108780270874 -0.9184402376762167 -32.9
    endloop
  endfacet
  facet normal 0 0 1
    outer loop
      vertex -2.2173108780270874 -0.9184402376762167 -32.9
      vertex -2.275 0 -32.9
      vertex -2.4 0 -32.9
    endloop
  endfacet
  facet normal 0 0 1
    outer loop
      vertex -1.6086679271993953 -1.608667927199396 -32.9
      vertex -0.9184402376762152 -2.2173108780270883 -32.9
      vertex -0.870604808630579 -2.1018259364631775 -32.9
    endloop
  endfacet
  facet normal 0 0 1
    outer loop
      vertex -0.9184402376762152 -2.2173108780270883 -32.9
      vertex 0 -2.4 -32.9
      vertex -0.870604808630579 -2.1018259364631775 -32.9
    endloop
  endfacet
  facet normal 0 0 1
    outer loop
      vertex -0.870604808630579 -2.1018259364631775 -32.9
      vertex 0 -2.4 -32.9
      vertex 0 -2.275 -32.9
    endloop
  endfacet
  facet normal 0.8314696123025452 0.5555702330196022 0
    outer loop
      vertex -1.6970562748477138 -1.6970562748477145 -32.9
      vertex -2.2173108780270874 -0.9184402376762167 -32.9
      vertex -1.6970562748477138 -1.6970562748477145 0
    endloop
  endfacet
  facet normal 0.555570233019602 0.8314696123025453 0
    outer loop
      vertex -1.6970562748477138 -1.6970562748477145 -32.9
      vertex -1.6970562748477138 -1.6970562748477145 0
      vertex -0.9184402376762152 -2.2173108780270883 -32.9
    endloop
  endfacet
  facet normal 0.9807852804032303 0.19509032201612875 0
    outer loop
      vertex -2.2173108780270874 -0.9184402376762167 -32.9
      vertex -2.4 0 -32.9
      vertex -2.2173108780270874 -0.9184402376762167 0
    endloop
  endfacet
  facet normal 0.1950903220161282 0.9807852804032304 0
    outer loop
      vertex -0.9184402376762152 -2.2173108780270883 -32.9
      vertex -0.9184402376762152 -2.2173108780270883 0
      vertex 0 -2.4 -32.9
    endloop
  endfacet
  facet normal 0.8314696123025452 0.5555702330196022 0
    outer loop
      vertex -2.2173108780270874 -0.9184402376762167 -32.9
      vertex -2.2173108780270874 -0.9184402376762167 0
      vertex -1.6970562748477138 -1.6970562748477145 0
    endloop
  endfacet
  facet normal 0.9807852804032303 0.19509032201612875 0
    outer loop
      vertex -2.2173108780270874 -0.9184402376762167 0
      vertex -2.4 0 -32.9
      vertex -2.4 0 0
    endloop
  endfacet
  facet normal 0 0 -1
    outer loop
      vertex -1.6970562748477138 -1.6970562748477145 0
      vertex -2.2173108780270874 -0.9184402376762167 0
      vertex 0 0 0
    endloop
  endfacet
  facet normal 0 0 -1
    outer loop
      vertex -2.2173108780270874 -0.9184402376762167 0
      vertex -2.4 0 0
      vertex 0 0 0
    endloop
  endfacet
  facet normal 0.555570233019602 0.8314696123025453 0
    outer loop
      vertex -0.9184402376762152 -2.2173108780270883 -32.9
      vertex -1.6970562748477138 -1.6970562748477145 0
      vertex -0.9184402376762152 -2.2173108780270883 0
    endloop
  endfacet
  facet normal 0.1950903220161282 0.9807852804032304 0
    outer loop
      vertex -0.9184402376762152 -2.2173108780270883 0
      vertex 0 -2.4 0
      vertex 0 -2.4 -32.9
    endloop
  endfacet
  facet normal 0 0 -1
    outer loop
      vertex -1.6970562748477138 -1.6970562748477145 0
      vertex 0 0 0
      vertex -0.9184402376762152 -2.2173108780270883 0
    endloop
  endfacet
  facet normal 0 0 -1
    outer loop
      vertex -0.9184402376762152 -2.2173108780270883 0
      vertex 0 0 0
      vertex 0 -2.4 0
    endloop
  endfacet
  facet normal 0 0 1
    outer loop
      vertex -4.75 0 -35
      vertex -4.646201103485577 -0.5218322916860413 -35
      vertex -4.646201103485577 0.5218322916860422 -35
    endloop
  endfacet
  facet normal 0.9807852804032304 -0.19509032201612844 0
    outer loop
      vertex -4.75 0 -35
      vertex -4.646201103485577 0.5218322916860422 -34.999
      vertex -4.75 0 -34.9
    endloop
  endfacet
  facet normal 0.9807852804032304 -0.19509032201612844 0
    outer loop
      vertex -4.75 0 -35
      vertex -4.646201103485577 0.5218322916860422 -35
      vertex -4.646201103485577 0.5218322916860422 -34.999
    endloop
  endfacet
  facet normal 0.9807852804032304 -0.19509032201612808 1.9597427115010387e-15
    outer loop
      vertex -4.75 0 -34.9
      vertex -4.646201103485577 0.5218322916860422 -34.999
      vertex -4.478744236368245 1.3636948129726776 -34.999
    endloop
  endfacet
  facet normal 0.9807852804032302 -0.19509032201612933 -1.3739972611154241e-14
    outer loop
      vertex -4.75 0 -34.9
      vertex -4.478744236368245 1.3636948129726776 -34.999
      vertex -4.3884277794286115 1.8177463037341774 -35
    endloop
  endfacet
  facet normal 0.6236648884296672 -0.12405465940911549 -0.7717852994317131
    outer loop
      vertex -4.75 0 -34.9
      vertex -4.3884277794286115 1.8177463037341774 -34.9
      vertex -2.275 0 -32.9
    endloop
  endfacet
  facet normal 0.9807852804032304 -0.1950903220161285 0
    outer loop
      vertex -4.75 0 -34.9
      vertex -4.3884277794286115 1.8177463037341774 -35
      vertex -4.3884277794286115 1.8177463037341774 -34.9
    endloop
  endfacet
  facet normal 0.9807852804032302 -0.1950903220161292 0
    outer loop
      vertex -4.3884277794286115 1.8177463037341774 -35
      vertex -4.478744236368245 1.3636948129726776 -34.999
      vertex -4.478744236368245 1.3636948129726776 -35
    endloop
  endfacet
  facet normal 0 0 1
    outer loop
      vertex -4.3884277794286115 1.8177463037341774 -35
      vertex -4.478744236368245 1.3636948129726776 -35
      vertex -4.05324361515024 2.319384855547405 -35
    endloop
  endfacet
  facet normal 0.8314696123025457 -0.5555702330196014 0
    outer loop
      vertex -4.3884277794286115 1.8177463037341774 -35
      vertex -4.05324361515024 2.319384855547405 -34.999
      vertex -4.3884277794286115 1.8177463037341774 -34.9
    endloop
  endfacet
  facet normal 0.8314696123025458 -0.5555702330196015 0
    outer loop
      vertex -4.3884277794286115 1.8177463037341774 -35
      vertex -4.05324361515024 2.319384855547405 -35
      vertex -4.05324361515024 2.319384855547405 -34.999
    endloop
  endfacet
  facet normal 0.5287175627025423 -0.35327778089059614 -0.7717852994317131
    outer loop
      vertex -4.3884277794286115 1.8177463037341774 -34.9
      vertex -3.3587572106361017 3.3587572106361 -34.9
      vertex -2.101825936463177 0.8706048086305798 -32.9
    endloop
  endfacet
  facet normal 0.6236648884296672 -0.12405465940911548 -0.7717852994317133
    outer loop
      vertex -4.3884277794286115 1.8177463037341774 -34.9
      vertex -2.101825936463177 0.8706048086305798 -32.9
      vertex -2.275 0 -32.9
    endloop
  endfacet
  facet normal 0.8314696123025449 -0.5555702330196026 -8.527499384287726e-15
    outer loop
      vertex -4.3884277794286115 1.8177463037341774 -34.9
      vertex -4.05324361515024 2.319384855547405 -34.999
      vertex -3.5783397943333775 3.0301286504937797 -34.999
    endloop
  endfacet
  facet normal 0.8314696123025455 -0.555570233019602 5.894395459086705e-15
    outer loop
      vertex -4.3884277794286115 1.8177463037341774 -34.9
      vertex -3.5783397943333775 3.0301286504937797 -34.999
      vertex -3.3587572106361017 3.3587572106361 -35
    endloop
  endfacet
  facet normal 0.8314696123025452 -0.5555702330196022 0
    outer loop
      vertex -4.3884277794286115 1.8177463037341774 -34.9
      vertex -3.3587572106361017 3.3587572106361 -35
      vertex -3.3587572106361017 3.3587572106361 -34.9
    endloop
  endfacet
  facet normal 0.8314696123025455 -0.555570233019602 0
    outer loop
      vertex -3.3587572106361017 3.3587572106361 -35
      vertex -3.5783397943333775 3.0301286504937797 -34.999
      vertex -3.5783397943333775 3.0301286504937797 -35
    endloop
  endfacet
  facet normal 0 0 1
    outer loop
      vertex -3.3587572106361017 3.3587572106361 -35
      vertex -3.5783397943333775 3.0301286504937797 -35
      vertex -2.7950139244664367 3.7354384317250964 -35
    endloop
  endfacet
  facet normal 0.5555702330196025 -0.8314696123025451 0
    outer loop
      vertex -3.3587572106361017 3.3587572106361 -35
      vertex -2.7950139244664367 3.7354384317250964 -35
      vertex -2.7950139244664367 3.7354384317250964 -34.999
    endloop
  endfacet
  facet normal 0.5555702330196026 -0.8314696123025451 0
    outer loop
      vertex -3.3587572106361017 3.3587572106361 -35
      vertex -1.8177463037341794 4.388427779428611 -34.9
      vertex -3.3587572106361017 3.3587572106361 -34.9
    endloop
  endfacet
  facet normal 0.5555702330196025 -0.8314696123025451 1.6834959955102756e-15
    outer loop
      vertex -3.3587572106361017 3.3587572106361 -35
      vertex -2.7950139244664367 3.7354384317250964 -34.999
      vertex -1.8177463037341794 4.388427779428611 -34.9
    endloop
  endfacet
  facet normal 0 0 1
    outer loop
      vertex -2.4 0 -32.9
      vertex -2.275 0 -32.9
      vertex -2.217310878027088 0.918440237676216 -32.9
    endloop
  endfacet
  facet normal 0 0 1
    outer loop
      vertex -2.275 0 -32.9
      vertex -2.101825936463177 0.8706048086305798 -32.9
      vertex -2.217310878027088 0.918440237676216 -32.9
    endloop
  endfacet
  facet normal 0 0 1
    outer loop
      vertex -2.101825936463177 0.8706048086305798 -32.9
      vertex -1.6970562748477145 1.6970562748477136 -32.9
      vertex -2.217310878027088 0.918440237676216 -32.9
    endloop
  endfacet
  facet normal 0 0 1
    outer loop
      vertex -2.101825936463177 0.8706048086305798 -32.9
      vertex -1.608667927199396 1.608667927199395 -32.9
      vertex -1.6970562748477145 1.6970562748477136 -32.9
    endloop
  endfacet
  facet normal 0.5287175627025422 -0.3532777808905963 -0.7717852994317131
    outer loop
      vertex -3.3587572106361017 3.3587572106361 -34.9
      vertex -1.608667927199396 1.608667927199395 -32.9
      vertex -2.101825936463177 0.8706048086305798 -32.9
    endloop
  endfacet
  facet normal 0 0 1
    outer loop
      vertex -1.6970562748477145 1.6970562748477136 -32.9
      vertex -1.608667927199396 1.608667927199395 -32.9
      vertex -0.9184402376762169 2.2173108780270874 -32.9
    endloop
  endfacet
  facet normal 0 0 1
    outer loop
      vertex -1.608667927199396 1.608667927199395 -32.9
      vertex -0.8706048086305807 2.1018259364631766 -32.9
      vertex -0.9184402376762169 2.2173108780270874 -32.9
    endloop
  endfacet
  facet normal 0 0 1
    outer loop
      vertex -0.9184402376762169 2.2173108780270874 -32.9
      vertex -0.8706048086305807 2.1018259364631766 -32.9
      vertex 0 2.4 -32.9
    endloop
  endfacet
  facet normal 0 0 1
    outer loop
      vertex -0.8706048086305807 2.1018259364631766 -32.9
      vertex 0 2.275 -32.9
      vertex 0 2.4 -32.9
    endloop
  endfacet
  facet normal 0.3532777808905964 -0.5287175627025421 -0.7717852994317131
    outer loop
      vertex -3.3587572106361017 3.3587572106361 -34.9
      vertex -1.8177463037341794 4.388427779428611 -34.9
      vertex -1.608667927199396 1.608667927199395 -32.9
    endloop
  endfacet
  facet normal 0.5555702330196024 -0.831469612302545 1.9862656420230833e-15
    outer loop
      vertex -1.8177463037341794 4.388427779428611 -34.9
      vertex -2.7950139244664367 3.7354384317250964 -34.999
      vertex -2.090847447950894 4.205947428871684 -34.999
    endloop
  endfacet
  facet normal 0.5555702330196028 -0.8314696123025447 0
    outer loop
      vertex -1.8177463037341794 4.388427779428611 -35
      vertex -2.090847447950894 4.205947428871684 -34.999
      vertex -2.090847447950894 4.205947428871684 -35
    endloop
  endfacet
  facet normal 0.555570233019603 -0.8314696123025448 0
    outer loop
      vertex -1.8177463037341794 4.388427779428611 -35
      vertex -1.8177463037341794 4.388427779428611 -34.9
      vertex -2.090847447950894 4.205947428871684 -34.999
    endloop
  endfacet
  facet normal 0 0 1
    outer loop
      vertex -1.8177463037341794 4.388427779428611 -35
      vertex -2.090847447950894 4.205947428871684 -35
      vertex -1.0737863246574872 4.536410620102476 -35
    endloop
  endfacet
  facet normal 0.195090322016128 -0.9807852804032305 0
    outer loop
      vertex -1.8177463037341794 4.388427779428611 -35
      vertex -1.0737863246574872 4.536410620102476 -35
      vertex -1.0737863246574872 4.536410620102476 -34.999
    endloop
  endfacet
  facet normal 0.1950903220161287 -0.9807852804032303 0
    outer loop
      vertex -1.8177463037341794 4.388427779428611 -35
      vertex 0 4.75 -34.9
      vertex -1.8177463037341794 4.388427779428611 -34.9
    endloop
  endfacet
  facet normal 0.12405465940911567 -0.6236648884296672 -0.771785299431713
    outer loop
      vertex -0.8706048086305807 2.1018259364631766 -32.9
      vertex -1.8177463037341794 4.388427779428611 -34.9
      vertex 0 4.75 -34.9
    endloop
  endfacet
  facet normal 0.19509032201612797 -0.9807852804032305 1.3502686256666329e-14
    outer loop
      vertex -1.8177463037341794 4.388427779428611 -35
      vertex -1.0737863246574872 4.536410620102476 -34.999
      vertex 0 4.75 -34.9
    endloop
  endfacet
  facet normal 0.1950903220161291 -0.9807852804032303 1.515383581090404e-15
    outer loop
      vertex 0 4.75 -34.9
      vertex -1.0737863246574872 4.536410620102476 -34.999
      vertex -0.25724358882906584 4.698831068752771 -34.999
    endloop
  endfacet
  facet normal 0.19509032201612964 -0.9807852804032301 0
    outer loop
      vertex 0 4.75 -35
      vertex -0.25724358882906584 4.698831068752771 -34.999
      vertex -0.25724358882906584 4.698831068752771 -35
    endloop
  endfacet
  facet normal 0.1950903220161297 -0.9807852804032302 0
    outer loop
      vertex 0 4.75 -35
      vertex 0 4.75 -34.9
      vertex -0.25724358882906584 4.698831068752771 -34.999
    endloop
  endfacet
  facet normal 0.3532777808905964 -0.5287175627025421 -0.7717852994317131
    outer loop
      vertex -1.608667927199396 1.608667927199395 -32.9
      vertex -1.8177463037341794 4.388427779428611 -34.9
      vertex -0.8706048086305807 2.1018259364631766 -32.9
    endloop
  endfacet
  facet normal 0.12405465940911567 -0.6236648884296673 -0.7717852994317131
    outer loop
      vertex -0.8706048086305807 2.1018259364631766 -32.9
      vertex 0 4.75 -34.9
      vertex 0 2.275 -32.9
    endloop
  endfacet
  facet normal 0.9807852804032304 -0.19509032201612847 0
    outer loop
      vertex -2.4 0 -32.9
      vertex -2.217310878027088 0.918440237676216 -32.9
      vertex -2.4 0 0
    endloop
  endfacet
  facet normal 0.8314696123025453 -0.5555702330196021 0
    outer loop
      vertex -2.217310878027088 0.918440237676216 -32.9
      vertex -1.6970562748477145 1.6970562748477136 -32.9
      vertex -2.217310878027088 0.918440237676216 0
    endloop
  endfacet
  facet normal 0.5555702330196024 -0.8314696123025451 0
    outer loop
      vertex -1.6970562748477145 1.6970562748477136 -32.9
      vertex -0.9184402376762169 2.2173108780270874 -32.9
      vertex -0.9184402376762169 2.2173108780270874 0
    endloop
  endfacet
  facet normal 0.19509032201612875 -0.9807852804032303 0
    outer loop
      vertex -0.9184402376762169 2.2173108780270874 -32.9
      vertex 0 2.4 -32.9
      vertex 0 2.4 0
    endloop
  endfacet
  facet normal 0.9807852804032304 -0.19509032201612847 0
    outer loop
      vertex -2.217310878027088 0.918440237676216 -32.9
      vertex -2.217310878027088 0.918440237676216 0
      vertex -2.4 0 0
    endloop
  endfacet
  facet normal 0 0 -1
    outer loop
      vertex -2.4 0 0
      vertex -2.217310878027088 0.918440237676216 0
      vertex 0 0 0
    endloop
  endfacet
  facet normal 0 0 -1
    outer loop
      vertex -2.217310878027088 0.918440237676216 0
      vertex -1.6970562748477145 1.6970562748477136 0
      vertex 0 0 0
    endloop
  endfacet
  facet normal 0.8314696123025453 -0.5555702330196021 0
    outer loop
      vertex -1.6970562748477145 1.6970562748477136 -32.9
      vertex -1.6970562748477145 1.6970562748477136 0
      vertex -2.217310878027088 0.918440237676216 0
    endloop
  endfacet
  facet normal 0.5555702330196024 -0.8314696123025451 0
    outer loop
      vertex -1.6970562748477145 1.6970562748477136 -32.9
      vertex -0.9184402376762169 2.2173108780270874 0
      vertex -1.6970562748477145 1.6970562748477136 0
    endloop
  endfacet
  facet normal 0.19509032201612875 -0.9807852804032303 0
    outer loop
      vertex -0.9184402376762169 2.2173108780270874 -32.9
      vertex 0 2.4 0
      vertex -0.9184402376762169 2.2173108780270874 0
    endloop
  endfacet
  facet normal 0 0 -1
    outer loop
      vertex -1.6970562748477145 1.6970562748477136 0
      vertex -0.9184402376762169 2.2173108780270874 0
      vertex 0 0 0
    endloop
  endfacet
  facet normal 0 0 -1
    outer loop
      vertex -0.9184402376762169 2.2173108780270874 0
      vertex 0 2.4 0
      vertex 0 0 0
    endloop
  endfacet
  facet normal 0 0 1
    outer loop
      vertex 0 -4.75 -35
      vertex 0.8336838200027505 -4.584169977717137 -35
      vertex -0.2572435888290673 -4.698831068752771 -35
    endloop
  endfacet
  facet normal -0.1950903220161277 0.9807852804032307 0
    outer loop
      vertex 0 -4.75 -35
      vertex 0 -4.75 -34.9
      vertex 0.8336838200027505 -4.584169977717137 -34.999
    endloop
  endfacet
  facet normal -0.19509032201612767 0.9807852804032307 0
    outer loop
      vertex 0 -4.75 -35
      vertex 0.8336838200027505 -4.584169977717137 -34.999
      vertex 0.8336838200027505 -4.584169977717137 -35
    endloop
  endfacet
  facet normal -0.19509032201612775 0.9807852804032305 -4.420668604355973e-16
    outer loop
      vertex 0 -4.75 -34.9
      vertex 1.4556990579057847 -4.460443454199623 -34.999
      vertex 0.8336838200027505 -4.584169977717137 -34.999
    endloop
  endfacet
  facet normal -0.19509032201613136 0.98078528040323 -6.170921182273609e-14
    outer loop
      vertex 0 -4.75 -34.9
      vertex 1.6250246412207252 -4.4267625015645065 -34.999
      vertex 1.4556990579057847 -4.460443454199623 -34.999
    endloop
  endfacet
  facet normal -0.1950903220161277 0.9807852804032305 1.247695888817964e-14
    outer loop
      vertex 0 -4.75 -34.9
      vertex 1.817746303734177 -4.388427779428612 -35
      vertex 1.6250246412207252 -4.4267625015645065 -34.999
    endloop
  endfacet
  facet normal -0.12405465940911523 0.6236648884296672 -0.7717852994317133
    outer loop
      vertex 0 -4.75 -34.9
      vertex 0.8706048086305794 -2.101825936463177 -32.9
      vertex 1.817746303734177 -4.388427779428612 -34.9
    endloop
  endfacet
  facet normal -0.19509032201612803 0.9807852804032304 0
    outer loop
      vertex 0 -4.75 -34.9
      vertex 1.817746303734177 -4.388427779428612 -34.9
      vertex 1.817746303734177 -4.388427779428612 -35
    endloop
  endfacet
  facet normal -0.19509032201612764 0.9807852804032305 0
    outer loop
      vertex 1.817746303734177 -4.388427779428612 -35
      vertex 1.6250246412207252 -4.4267625015645065 -35
      vertex 1.6250246412207252 -4.4267625015645065 -34.999
    endloop
  endfacet
  facet normal 0 0 1
    outer loop
      vertex 1.817746303734177 -4.388427779428612 -35
      vertex 2.620724300751663 -3.8518950351023014 -35
      vertex 1.6250246412207252 -4.4267625015645065 -35
    endloop
  endfacet
  facet normal -0.5555702330196024 0.8314696123025451 0
    outer loop
      vertex 1.817746303734177 -4.388427779428612 -35
      vertex 1.817746303734177 -4.388427779428612 -34.9
      vertex 2.620724300751663 -3.8518950351023014 -34.999
    endloop
  endfacet
  facet normal -0.5555702330196024 0.8314696123025451 0
    outer loop
      vertex 1.817746303734177 -4.388427779428612 -35
      vertex 2.620724300751663 -3.8518950351023014 -34.999
      vertex 2.620724300751663 -3.8518950351023014 -35
    endloop
  endfacet
  facet normal -0.3532777808905964 0.528717562702542 -0.7717852994317131
    outer loop
      vertex 1.817746303734177 -4.388427779428612 -34.9
      vertex 1.6086679271993958 -1.6086679271993953 -32.9
      vertex 3.3587572106361008 -3.3587572106361003 -34.9
    endloop
  endfacet
  facet normal -0.1240546594091155 0.6236648884296672 -0.7717852994317131
    outer loop
      vertex 0 -4.75 -34.9
      vertex 0 -2.275 -32.9
      vertex 0.8706048086305794 -2.101825936463177 -32.9
    endloop
  endfacet
  facet normal -0.3532777808905963 0.5287175627025422 -0.7717852994317133
    outer loop
      vertex 1.817746303734177 -4.388427779428612 -34.9
      vertex 0.8706048086305794 -2.101825936463177 -32.9
      vertex 1.6086679271993958 -1.6086679271993953 -32.9
    endloop
  endfacet
  facet normal 0 0 1
    outer loop
      vertex 0 -2.4 -32.9
      vertex 0.9184402376762157 -2.2173108780270883 -32.9
      vertex 0 -2.275 -32.9
    endloop
  endfacet
  facet normal 0 0 1
    outer loop
      vertex 0 -2.275 -32.9
      vertex 0.9184402376762157 -2.2173108780270883 -32.9
      vertex 0.8706048086305794 -2.101825936463177 -32.9
    endloop
  endfacet
  facet normal 0 0 1
    outer loop
      vertex 0.8706048086305794 -2.101825936463177 -32.9
      vertex 0.9184402376762157 -2.2173108780270883 -32.9
      vertex 1.6086679271993958 -1.6086679271993953 -32.9
    endloop
  endfacet
  facet normal 0 0 1
    outer loop
      vertex 0.9184402376762157 -2.2173108780270883 -32.9
      vertex 1.697056274847714 -1.6970562748477138 -32.9
      vertex 1.6086679271993958 -1.6086679271993953 -32.9
    endloop
  endfacet
  facet normal -0.5287175627025424 0.3532777808905961 -0.7717852994317131
    outer loop
      vertex 1.6086679271993958 -1.6086679271993953 -32.9
      vertex 2.101825936463177 -0.8706048086305791 -32.9
      vertex 3.3587572106361008 -3.3587572106361003 -34.9
    endloop
  endfacet
  facet normal 0 0 1
    outer loop
      vertex 1.6086679271993958 -1.6086679271993953 -32.9
      vertex 1.697056274847714 -1.6970562748477138 -32.9
      vertex 2.101825936463177 -0.8706048086305791 -32.9
    endloop
  endfacet
  facet normal 0 0 1
    outer loop
      vertex 1.697056274847714 -1.6970562748477138 -32.9
      vertex 2.2173108780270883 -0.9184402376762153 -32.9
      vertex 2.101825936463177 -0.8706048086305791 -32.9
    endloop
  endfacet
  facet normal 0 0 1
    outer loop
      vertex 2.2173108780270883 -0.9184402376762153 -32.9
      vertex 2.275 0 -32.9
      vertex 2.101825936463177 -0.8706048086305791 -32.9
    endloop
  endfacet
  facet normal 0 0 1
    outer loop
      vertex 2.2173108780270883 -0.9184402376762153 -32.9
      vertex 2.4 0 -32.9
      vertex 2.275 0 -32.9
    endloop
  endfacet
  facet normal -0.5555702330196026 0.8314696123025451 -3.4017105529207852e-15
    outer loop
      vertex 1.817746303734177 -4.388427779428612 -34.9
      vertex 3.1689432656158174 -3.4855868338778424 -34.999
      vertex 2.620724300751663 -3.8518950351023014 -34.999
    endloop
  endfacet
  facet normal -0.5555702330196057 0.8314696123025429 -6.911557955443566e-14
    outer loop
      vertex 1.817746303734177 -4.388427779428612 -34.9
      vertex 3.249889511749263 -3.431500281391716 -34.999
      vertex 3.1689432656158174 -3.4855868338778424 -34.999
    endloop
  endfacet
  facet normal -0.5555702330196017 0.8314696123025455 1.975477239790892e-14
    outer loop
      vertex 1.817746303734177 -4.388427779428612 -34.9
      vertex 3.3587572106361008 -3.3587572106361003 -35
      vertex 3.249889511749263 -3.431500281391716 -34.999
    endloop
  endfacet
  facet normal -0.5555702330196026 0.8314696123025449 0
    outer loop
      vertex 1.817746303734177 -4.388427779428612 -34.9
      vertex 3.3587572106361008 -3.3587572106361003 -34.9
      vertex 3.3587572106361008 -3.3587572106361003 -35
    endloop
  endfacet
  facet normal -0.555570233019602 0.8314696123025455 0
    outer loop
      vertex 3.3587572106361008 -3.3587572106361003 -35
      vertex 3.249889511749263 -3.431500281391716 -35
      vertex 3.249889511749263 -3.431500281391716 -34.999
    endloop
  endfacet
  facet normal 0 0 1
    outer loop
      vertex 3.3587572106361008 -3.3587572106361003 -35
      vertex 4.00006479412617 -2.398972585543783 -35
      vertex 3.249889511749263 -3.431500281391716 -35
    endloop
  endfacet
  facet normal -0.8314696123025451 0.5555702330196024 0
    outer loop
      vertex 3.3587572106361008 -3.3587572106361003 -35
      vertex 3.3587572106361008 -3.3587572106361003 -34.9
      vertex 4.388427779428612 -1.8177463037341761 -34.9
    endloop
  endfacet
  facet normal -0.8314696123025452 0.5555702330196022 0
    outer loop
      vertex 3.3587572106361008 -3.3587572106361003 -35
      vertex 4.00006479412617 -2.398972585543783 -34.999
      vertex 4.00006479412617 -2.398972585543783 -35
    endloop
  endfacet
  facet normal -0.8314696123025453 0.5555702330196022 5.864940395098183e-15
    outer loop
      vertex 3.3587572106361008 -3.3587572106361003 -35
      vertex 4.388427779428612 -1.8177463037341761 -34.9
      vertex 4.00006479412617 -2.398972585543783 -34.999
    endloop
  endfacet
  facet normal -0.5287175627025422 0.3532777808905963 -0.7717852994317131
    outer loop
      vertex 2.101825936463177 -0.8706048086305791 -32.9
      vertex 4.388427779428612 -1.8177463037341761 -34.9
      vertex 3.3587572106361008 -3.3587572106361003 -34.9
    endloop
  endfacet
  facet normal -0.8314696123025448 0.5555702330196028 -8.192965837235496e-16
    outer loop
      vertex 4.388427779428612 -1.8177463037341761 -34.9
      vertex 4.332763351086935 -1.90105400796581 -34.999
      vertex 4.00006479412617 -2.398972585543783 -34.999
    endloop
  endfacet
  facet normal -0.831469612302549 0.5555702330195965 6.6860008332476015e-15
    outer loop
      vertex 4.388427779428612 -1.8177463037341761 -34.9
      vertex 4.352055627764937 -1.8721810755145756 -34.999
      vertex 4.332763351086935 -1.90105400796581 -34.999
    endloop
  endfacet
  facet normal -0.8314696123025435 0.5555702330196051 0
    outer loop
      vertex 4.388427779428612 -1.8177463037341761 -35
      vertex 4.352055627764937 -1.8721810755145756 -35
      vertex 4.352055627764937 -1.8721810755145756 -34.999
    endloop
  endfacet
  facet normal -0.8314696123025433 0.5555702330196051 0
    outer loop
      vertex 4.388427779428612 -1.8177463037341761 -35
      vertex 4.352055627764937 -1.8721810755145756 -34.999
      vertex 4.388427779428612 -1.8177463037341761 -34.9
    endloop
  endfacet
  facet normal 0 0 1
    outer loop
      vertex 4.388427779428612 -1.8177463037341761 -35
      vertex 4.75 0 -35
      vertex 4.352055627764937 -1.8721810755145756 -35
    endloop
  endfacet
  facet normal -0.9807852804032305 0.19509032201612816 0
    outer loop
      vertex 4.388427779428612 -1.8177463037341761 -35
      vertex 4.388427779428612 -1.8177463037341761 -34.9
      vertex 4.75 0 -34.9
    endloop
  endfacet
  facet normal -0.6236648884296673 0.12405465940911531 -0.7717852994317133
    outer loop
      vertex 4.388427779428612 -1.8177463037341761 -34.9
      vertex 2.275 0 -32.9
      vertex 4.75 0 -34.9
    endloop
  endfacet
  facet normal -0.9807852804032305 0.19509032201612816 0
    outer loop
      vertex 4.388427779428612 -1.8177463037341761 -35
      vertex 4.75 0 -34.999
      vertex 4.75 0 -35
    endloop
  endfacet
  facet normal -0.9807852804032304 0.19509032201612814 0
    outer loop
      vertex 4.388427779428612 -1.8177463037341761 -35
      vertex 4.75 0 -34.9
      vertex 4.75 0 -34.999
    endloop
  endfacet
  facet normal -0.623664888429667 0.12405465940911553 -0.7717852994317133
    outer loop
      vertex 2.101825936463177 -0.8706048086305791 -32.9
      vertex 2.275 0 -32.9
      vertex 4.388427779428612 -1.8177463037341761 -34.9
    endloop
  endfacet
  facet normal -0.19509032201612805 0.9807852804032304 0
    outer loop
      vertex 0 -2.4 -32.9
      vertex 0 -2.4 0
      vertex 0.9184402376762157 -2.2173108780270883 -32.9
    endloop
  endfacet
  facet normal -0.5555702330196026 0.831469612302545 0
    outer loop
      vertex 0.9184402376762157 -2.2173108780270883 -32.9
      vertex 0.9184402376762157 -2.2173108780270883 0
      vertex 1.697056274847714 -1.6970562748477138 -32.9
    endloop
  endfacet
  facet normal -0.8314696123025451 0.5555702330196023 0
    outer loop
      vertex 1.697056274847714 -1.6970562748477138 -32.9
      vertex 2.2173108780270883 -0.9184402376762153 0
      vertex 2.2173108780270883 -0.9184402376762153 -32.9
    endloop
  endfacet
  facet normal -0.9807852804032304 0.19509032201612816 0
    outer loop
      vertex 2.2173108780270883 -0.9184402376762153 -32.9
      vertex 2.4 0 0
      vertex 2.4 0 -32.9
    endloop
  endfacet
  facet normal -0.19509032201612805 0.9807852804032304 0
    outer loop
      vertex 0.9184402376762157 -2.2173108780270883 -32.9
      vertex 0 -2.4 0
      vertex 0.9184402376762157 -2.2173108780270883 0
    endloop
  endfacet
  facet normal 0 0 -1
    outer loop
      vertex 0 -2.4 0
      vertex 0 0 0
      vertex 0.9184402376762157 -2.2173108780270883 0
    endloop
  endfacet
  facet normal 0 0 -1
    outer loop
      vertex 0.9184402376762157 -2.2173108780270883 0
      vertex 0 0 0
      vertex 1.697056274847714 -1.6970562748477138 0
    endloop
  endfacet
  facet normal -0.5555702330196026 0.831469612302545 0
    outer loop
      vertex 1.697056274847714 -1.6970562748477138 -32.9
      vertex 0.9184402376762157 -2.2173108780270883 0
      vertex 1.697056274847714 -1.6970562748477138 0
    endloop
  endfacet
  facet normal -0.8314696123025451 0.5555702330196023 0
    outer loop
      vertex 1.697056274847714 -1.6970562748477138 -32.9
      vertex 1.697056274847714 -1.6970562748477138 0
      vertex 2.2173108780270883 -0.9184402376762153 0
    endloop
  endfacet
  facet normal -0.9807852804032304 0.19509032201612816 0
    outer loop
      vertex 2.2173108780270883 -0.9184402376762153 -32.9
      vertex 2.2173108780270883 -0.9184402376762153 0
      vertex 2.4 0 0
    endloop
  endfacet
  facet normal 0 0 -1
    outer loop
      vertex 1.697056274847714 -1.6970562748477138 0
      vertex 0 0 0
      vertex 2.2173108780270883 -0.9184402376762153 0
    endloop
  endfacet
  facet normal 0 0 -1
    outer loop
      vertex 2.2173108780270883 -0.9184402376762153 0
      vertex 0 0 0
      vertex 2.4 0 0
    endloop
  endfacet
  facet normal 0 0 1
    outer loop
      vertex 0 2.275 -32.9
      vertex 0.8706048086305792 2.101825936463177 -32.9
      vertex 0 2.4 -32.9
    endloop
  endfacet
  facet normal 0 0 1
    outer loop
      vertex 0.8706048086305792 2.101825936463177 -32.9
      vertex 0.9184402376762154 2.2173108780270883 -32.9
      vertex 0 2.4 -32.9
    endloop
  endfacet
  facet normal 0 0 1
    outer loop
      vertex 0.8706048086305792 2.101825936463177 -32.9
      vertex 1.6086679271993958 1.6086679271993958 -32.9
      vertex 0.9184402376762154 2.2173108780270883 -32.9
    endloop
  endfacet
  facet normal 0 0 1
    outer loop
      vertex 2.275 0 -32.9
      vertex 2.4 0 -32.9
      vertex 2.2173108780270883 0.9184402376762155 -32.9
    endloop
  endfacet
  facet normal 0 0 1
    outer loop
      vertex 2.101825936463177 0.8706048086305793 -32.9
      vertex 2.2173108780270883 0.9184402376762155 -32.9
      vertex 1.697056274847714 1.697056274847714 -32.9
    endloop
  endfacet
  facet normal 0 0 1
    outer loop
      vertex 2.275 0 -32.9
      vertex 2.2173108780270883 0.9184402376762155 -32.9
      vertex 2.101825936463177 0.8706048086305793 -32.9
    endloop
  endfacet
  facet normal 0 0 1
    outer loop
      vertex 0.9184402376762154 2.2173108780270883 -32.9
      vertex 1.6086679271993958 1.6086679271993958 -32.9
      vertex 1.697056274847714 1.697056274847714 -32.9
    endloop
  endfacet
  facet normal 0 0 1
    outer loop
      vertex 2.101825936463177 0.8706048086305793 -32.9
      vertex 1.697056274847714 1.697056274847714 -32.9
      vertex 1.6086679271993958 1.6086679271993958 -32.9
    endloop
  endfacet
  facet normal -0.5287175627025426 -0.353277780890596 -0.7717852994317131
    outer loop
      vertex 2.101825936463177 0.8706048086305793 -32.9
      vertex 1.6086679271993958 1.6086679271993958 -32.9
      vertex 3.3587572106361008 3.3587572106361008 -34.9
    endloop
  endfacet
  facet normal 0 0 1
    outer loop
      vertex 0 4.75 -35
      vertex -0.25724358882906584 4.698831068752771 -35
      vertex 0.8336838200027505 4.584169977717137 -35
    endloop
  endfacet
  facet normal -0.19509032201612767 -0.9807852804032307 0
    outer loop
      vertex 0 4.75 -35
      vertex 0.8336838200027505 4.584169977717137 -35
      vertex 0.8336838200027505 4.584169977717137 -34.999
    endloop
  endfacet
  facet normal -0.12405465940911527 -0.6236648884296672 -0.7717852994317131
    outer loop
      vertex 0 2.275 -32.9
      vertex 0 4.75 -34.9
      vertex 1.8177463037341766 4.388427779428612 -34.9
    endloop
  endfacet
  facet normal -0.19509032201612808 -0.9807852804032304 0
    outer loop
      vertex 0 4.75 -35
      vertex 1.8177463037341766 4.388427779428612 -34.9
      vertex 0 4.75 -34.9
    endloop
  endfacet
  facet normal -0.19509032201612767 -0.9807852804032305 -8.679009725562374e-15
    outer loop
      vertex 0 4.75 -35
      vertex 0.8336838200027505 4.584169977717137 -34.999
      vertex 1.8177463037341766 4.388427779428612 -34.9
    endloop
  endfacet
  facet normal -0.35327778089059625 -0.5287175627025423 -0.7717852994317131
    outer loop
      vertex 1.6086679271993958 1.6086679271993958 -32.9
      vertex 1.8177463037341766 4.388427779428612 -34.9
      vertex 3.3587572106361008 3.3587572106361008 -34.9
    endloop
  endfacet
  facet normal -0.1950903220161283 -0.9807852804032304 -1.216167681440812e-15
    outer loop
      vertex 1.8177463037341766 4.388427779428612 -34.9
      vertex 0.8336838200027505 4.584169977717137 -34.999
      vertex 1.625024641220726 4.4267625015645065 -34.999
    endloop
  endfacet
  facet normal -0.19509032201612897 -0.9807852804032303 0
    outer loop
      vertex 1.8177463037341766 4.388427779428612 -35
      vertex 1.625024641220726 4.4267625015645065 -34.999
      vertex 1.625024641220726 4.4267625015645065 -35
    endloop
  endfacet
  facet normal -0.19509032201612894 -0.9807852804032303 0
    outer loop
      vertex 1.8177463037341766 4.388427779428612 -35
      vertex 1.8177463037341766 4.388427779428612 -34.9
      vertex 1.625024641220726 4.4267625015645065 -34.999
    endloop
  endfacet
  facet normal -0.5555702330196024 -0.8314696123025451 0
    outer loop
      vertex 1.8177463037341766 4.388427779428612 -35
      vertex 3.3587572106361008 3.3587572106361008 -34.9
      vertex 1.8177463037341766 4.388427779428612 -34.9
    endloop
  endfacet
  facet normal -0.5555702330196024 -0.8314696123025452 0
    outer loop
      vertex 1.8177463037341766 4.388427779428612 -35
      vertex 2.6207243007516587 3.851895035102304 -35
      vertex 2.6207243007516587 3.851895035102304 -34.999
    endloop
  endfacet
  facet normal 0 0 1
    outer loop
      vertex 1.8177463037341766 4.388427779428612 -35
      vertex 1.625024641220726 4.4267625015645065 -35
      vertex 2.6207243007516587 3.851895035102304 -35
    endloop
  endfacet
  facet normal -0.12405465940911553 -0.623664888429667 -0.7717852994317133
    outer loop
      vertex 0 2.275 -32.9
      vertex 1.8177463037341766 4.388427779428612 -34.9
      vertex 0.8706048086305792 2.101825936463177 -32.9
    endloop
  endfacet
  facet normal -0.35327778089059586 -0.5287175627025423 -0.7717852994317133
    outer loop
      vertex 0.8706048086305792 2.101825936463177 -32.9
      vertex 1.8177463037341766 4.388427779428612 -34.9
      vertex 1.6086679271993958 1.6086679271993958 -32.9
    endloop
  endfacet
  facet normal -0.528717562702542 -0.3532777808905962 -0.7717852994317133
    outer loop
      vertex 2.101825936463177 0.8706048086305793 -32.9
      vertex 3.3587572106361008 3.3587572106361008 -34.9
      vertex 4.388427779428612 1.8177463037341768 -34.9
    endloop
  endfacet
  facet normal -0.6236648884296672 -0.12405465940911525 -0.7717852994317131
    outer loop
      vertex 2.275 0 -32.9
      vertex 4.388427779428612 1.8177463037341768 -34.9
      vertex 4.75 0 -34.9
    endloop
  endfacet
  facet normal -0.9807852804032304 -0.19509032201612847 0
    outer loop
      vertex 4.388427779428612 1.8177463037341768 -34.9
      vertex 4.75 0 -35
      vertex 4.75 0 -34.999
    endloop
  endfacet
  facet normal -0.9807852804032304 -0.19509032201612808 0
    outer loop
      vertex 4.75 0 -34.9
      vertex 4.388427779428612 1.8177463037341768 -34.9
      vertex 4.75 0 -34.999
    endloop
  endfacet
  facet normal -0.8314696123025442 -0.5555702330196038 3.252521316291879e-14
    outer loop
      vertex 4.388427779428612 1.8177463037341768 -35
      vertex 3.3587572106361008 3.3587572106361008 -34.9
      vertex 4.352055627764937 1.8721810755145765 -34.999
    endloop
  endfacet
  facet normal -0.8314696123025451 -0.5555702330196024 0
    outer loop
      vertex 4.388427779428612 1.8177463037341768 -35
      vertex 4.388427779428612 1.8177463037341768 -34.9
      vertex 3.3587572106361008 3.3587572106361008 -34.9
    endloop
  endfacet
  facet normal -0.9807852804032305 -0.19509032201612808 0
    outer loop
      vertex 4.388427779428612 1.8177463037341768 -35
      vertex 4.75 0 -35
      vertex 4.388427779428612 1.8177463037341768 -34.9
    endloop
  endfacet
  facet normal 0 0 1
    outer loop
      vertex 4.388427779428612 1.8177463037341768 -35
      vertex 4.352055627764937 1.8721810755145765 -35
      vertex 4.75 0 -35
    endloop
  endfacet
  facet normal -0.8314696123025443 -0.5555702330196035 0
    outer loop
      vertex 4.388427779428612 1.8177463037341768 -35
      vertex 4.352055627764937 1.8721810755145765 -34.999
      vertex 4.352055627764937 1.8721810755145765 -35
    endloop
  endfacet
  facet normal -0.623664888429667 -0.1240546594091155 -0.7717852994317133
    outer loop
      vertex 2.275 0 -32.9
      vertex 2.101825936463177 0.8706048086305793 -32.9
      vertex 4.388427779428612 1.8177463037341768 -34.9
    endloop
  endfacet
  facet normal -0.5555702330196024 -0.8314696123025451 6.483877087471003e-16
    outer loop
      vertex 3.3587572106361008 3.3587572106361008 -34.9
      vertex 2.6207243007516587 3.851895035102304 -34.999
      vertex 3.249889511749263 3.4315002813917164 -34.999
    endloop
  endfacet
  facet normal 0 0 1
    outer loop
      vertex 3.3587572106361008 3.3587572106361008 -35
      vertex 3.249889511749263 3.4315002813917164 -35
      vertex 4.0000647941261755 2.3989725855437762 -35
    endloop
  endfacet
  facet normal -0.555570233019602 -0.8314696123025455 0
    outer loop
      vertex 3.3587572106361008 3.3587572106361008 -35
      vertex 3.249889511749263 3.4315002813917164 -34.999
      vertex 3.249889511749263 3.4315002813917164 -35
    endloop
  endfacet
  facet normal -0.555570233019602 -0.8314696123025455 0
    outer loop
      vertex 3.3587572106361008 3.3587572106361008 -35
      vertex 3.3587572106361008 3.3587572106361008 -34.9
      vertex 3.249889511749263 3.4315002813917164 -34.999
    endloop
  endfacet
  facet normal -0.5555702330196024 -0.831469612302545 1.1721106484661415e-15
    outer loop
      vertex 1.8177463037341766 4.388427779428612 -35
      vertex 2.6207243007516587 3.851895035102304 -34.999
      vertex 3.3587572106361008 3.3587572106361008 -34.9
    endloop
  endfacet
  facet normal -0.831469612302545 -0.5555702330196024 0
    outer loop
      vertex 3.3587572106361008 3.3587572106361008 -35
      vertex 4.0000647941261755 2.3989725855437762 -35
      vertex 4.0000647941261755 2.3989725855437762 -34.999
    endloop
  endfacet
  facet normal -0.8314696123025452 -0.5555702330196021 -3.5400764867800043e-15
    outer loop
      vertex 3.3587572106361008 3.3587572106361008 -34.9
      vertex 4.0000647941261755 2.3989725855437762 -34.999
      vertex 4.352055627764937 1.8721810755145765 -34.999
    endloop
  endfacet
  facet normal -0.831469612302545 -0.5555702330196024 0
    outer loop
      vertex 3.3587572106361008 3.3587572106361008 -35
      vertex 4.0000647941261755 2.3989725855437762 -34.999
      vertex 3.3587572106361008 3.3587572106361008 -34.9
    endloop
  endfacet
  facet normal -0.19509032201612814 -0.9807852804032304 0
    outer loop
      vertex 0.9184402376762154 2.2173108780270883 -32.9
      vertex 0.9184402376762154 2.2173108780270883 0
      vertex 0 2.4 -32.9
    endloop
  endfacet
  facet normal -0.9807852804032304 -0.1950903220161281 0
    outer loop
      vertex 2.2173108780270883 0.9184402376762155 -32.9
      vertex 2.4 0 -32.9
      vertex 2.2173108780270883 0.9184402376762155 0
    endloop
  endfacet
  facet normal -0.5555702330196023 -0.8314696123025452 0
    outer loop
      vertex 0.9184402376762154 2.2173108780270883 -32.9
      vertex 1.697056274847714 1.697056274847714 -32.9
      vertex 1.697056274847714 1.697056274847714 0
    endloop
  endfacet
  facet normal -0.8314696123025451 -0.5555702330196023 0
    outer loop
      vertex 2.2173108780270883 0.9184402376762155 -32.9
      vertex 1.697056274847714 1.697056274847714 0
      vertex 1.697056274847714 1.697056274847714 -32.9
    endloop
  endfacet
  facet normal -0.19509032201612814 -0.9807852804032304 0
    outer loop
      vertex 0 2.4 -32.9
      vertex 0.9184402376762154 2.2173108780270883 0
      vertex 0 2.4 0
    endloop
  endfacet
  facet normal -0.5555702330196023 -0.8314696123025452 0
    outer loop
      vertex 0.9184402376762154 2.2173108780270883 -32.9
      vertex 1.697056274847714 1.697056274847714 0
      vertex 0.9184402376762154 2.2173108780270883 0
    endloop
  endfacet
  facet normal 0 0 -1
    outer loop
      vertex 0 0 0
      vertex 0 2.4 0
      vertex 0.9184402376762154 2.2173108780270883 0
    endloop
  endfacet
  facet normal 0 0 -1
    outer loop
      vertex 0 0 0
      vertex 0.9184402376762154 2.2173108780270883 0
      vertex 1.697056274847714 1.697056274847714 0
    endloop
  endfacet
  facet normal -0.9807852804032304 -0.1950903220161281 0
    outer loop
      vertex 2.4 0 -32.9
      vertex 2.4 0 0
      vertex 2.2173108780270883 0.9184402376762155 0
    endloop
  endfacet
  facet normal -0.8314696123025451 -0.5555702330196023 0
    outer loop
      vertex 2.2173108780270883 0.9184402376762155 -32.9
      vertex 2.2173108780270883 0.9184402376762155 0
      vertex 1.697056274847714 1.697056274847714 0
    endloop
  endfacet
  facet normal 0 0 -1
    outer loop
      vertex 0 0 0
      vertex 2.2173108780270883 0.9184402376762155 0
      vertex 2.4 0 0
    endloop
  endfacet
  facet normal 0 0 -1
    outer loop
      vertex 0 0 0
      vertex 1.697056274847714 1.697056274847714 0
      vertex 2.2173108780270883 0.9184402376762155 0
    endloop
  endfacet
endsolid OpenSCAD_Model
