<?xml version="1.0" encoding="UTF-8" standalone="no"?>
<!DOCTYPE svg PUBLIC "-//W3C//DTD SVG 1.1//EN"
 "http://www.w3.org/Graphics/SVG/1.1/DTD/svg11.dtd">
<!-- Generated by graphviz version 5.0.0 (20220707.1540)
 -->
<!-- Title: default Pages: 1 -->
<svg width="335pt" height="314pt"
 viewBox="0.00 0.00 335.48 314.00" xmlns="http://www.w3.org/2000/svg" xmlns:xlink="http://www.w3.org/1999/xlink">
<g id="graph0" class="graph" transform="scale(1 1) rotate(0) translate(4 310)">
<title>default</title>
<polygon fill="white" stroke="transparent" points="-4,4 -4,-310 331.48,-310 331.48,4 -4,4"/>
<!-- root_1 -->
<g id="node1" class="node">
<title>root_1</title>
<g id="a_node1"><a xlink:href="javascript:s=&quot;\(\)\nNone&quot;; console.log(s); alert(s);" xlink:title="root">
<ellipse fill="none" stroke="black" cx="27" cy="-153" rx="27" ry="18"/>
<text text-anchor="middle" x="27" y="-149.3" font-family="Times New Roman,serif" font-size="14.00">root</text>
</a>
</g>
</g>
<!-- default_2 -->
<g id="node2" class="node">
<title>default_2</title>
<g id="a_node2"><a xlink:href="javascript:s=&quot;\(&#x27;default&#x27;,\)\nRockerSwitchKCD3&quot;; console.log(s); alert(s);" xlink:title="RockerSwitchKCD3">
<ellipse fill="none" stroke="black" cx="125.1" cy="-153" rx="35.19" ry="18"/>
<text text-anchor="middle" x="125.1" y="-149.3" font-family="Times New Roman,serif" font-size="14.00">default</text>
</a>
</g>
</g>
<!-- root_1&#45;&gt;default_2 -->
<g id="edge1" class="edge">
<title>root_1&#45;&gt;default_2</title>
<path fill="none" stroke="black" d="M54.01,-153C61.92,-153 70.84,-153 79.61,-153"/>
<polygon fill="black" stroke="black" points="79.76,-156.5 89.76,-153 79.76,-149.5 79.76,-156.5"/>
</g>
<!-- case_3 -->
<g id="node3" class="node">
<title>case_3</title>
<g id="a_node3"><a xlink:href="javascript:s=&quot;\(&#x27;default&#x27;,\ &#x27;case&#x27;\)\nBox&quot;; console.log(s); alert(s);" xlink:title="Box">
<ellipse fill="none" stroke="black" cx="261.84" cy="-288" rx="27" ry="18"/>
<text text-anchor="middle" x="261.84" y="-284.3" font-family="Times New Roman,serif" font-size="14.00">case</text>
</a>
</g>
</g>
<!-- default_2&#45;&gt;case_3 -->
<g id="edge2" class="edge">
<title>default_2&#45;&gt;case_3</title>
<path fill="none" stroke="black" d="M133.5,-170.66C144.18,-194.2 165.99,-235.8 196.19,-261 205.13,-268.46 216.42,-274.11 227.05,-278.27"/>
<polygon fill="black" stroke="black" points="225.96,-281.59 236.55,-281.68 228.32,-275.01 225.96,-281.59"/>
</g>
<!-- lip_4 -->
<g id="node4" class="node">
<title>lip_4</title>
<g id="a_node4"><a xlink:href="javascript:s=&quot;\(&#x27;default&#x27;,\ &#x27;lip&#x27;\)\nBox&quot;; console.log(s); alert(s);" xlink:title="Box">
<ellipse fill="none" stroke="black" cx="261.84" cy="-234" rx="27" ry="18"/>
<text text-anchor="middle" x="261.84" y="-230.3" font-family="Times New Roman,serif" font-size="14.00">lip</text>
</a>
</g>
</g>
<!-- default_2&#45;&gt;lip_4 -->
<g id="edge3" class="edge">
<title>default_2&#45;&gt;lip_4</title>
<path fill="none" stroke="black" d="M143.62,-168.59C157.28,-180.2 177.06,-195.89 196.19,-207 206.08,-212.74 217.42,-217.9 227.81,-222.14"/>
<polygon fill="black" stroke="black" points="226.82,-225.51 237.4,-225.91 229.38,-218.99 226.82,-225.51"/>
</g>
<!-- terminal_cavity_5 -->
<g id="node5" class="node">
<title>terminal_cavity_5</title>
<g id="a_node5"><a xlink:href="javascript:s=&quot;\(&#x27;default&#x27;,\ &#x27;terminal_cavity&#x27;\)\nBox&quot;; console.log(s); alert(s);" xlink:title="Box">
<ellipse fill="none" stroke="black" cx="261.84" cy="-180" rx="65.79" ry="18"/>
<text text-anchor="middle" x="261.84" y="-176.3" font-family="Times New Roman,serif" font-size="14.00">terminal_cavity</text>
</a>
</g>
</g>
<!-- default_2&#45;&gt;terminal_cavity_5 -->
<g id="edge4" class="edge">
<title>default_2&#45;&gt;terminal_cavity_5</title>
<path fill="none" stroke="black" d="M158.03,-159.4C170.11,-161.82 184.33,-164.67 198.27,-167.46"/>
<polygon fill="black" stroke="black" points="197.84,-170.95 208.33,-169.48 199.21,-164.08 197.84,-170.95"/>
</g>
<!-- wing_6 -->
<g id="node6" class="node">
<title>wing_6</title>
<g id="a_node6"><a xlink:href="javascript:s=&quot;\(&#x27;default&#x27;,\ \(&#x27;wing&#x27;,\ &#x27;top&#x27;\)\)\nBox&quot;; console.log(s); alert(s);" xlink:title="Box">
<ellipse fill="none" stroke="black" cx="261.84" cy="-126" rx="58.49" ry="18"/>
<text text-anchor="middle" x="261.84" y="-122.3" font-family="Times New Roman,serif" font-size="14.00">(&#39;wing&#39;, &#39;top&#39;)</text>
</a>
</g>
</g>
<!-- default_2&#45;&gt;wing_6 -->
<g id="edge5" class="edge">
<title>default_2&#45;&gt;wing_6</title>
<path fill="none" stroke="black" d="M158.03,-146.6C171.31,-143.94 187.15,-140.77 202.38,-137.71"/>
<polygon fill="black" stroke="black" points="203.15,-141.13 212.26,-135.73 201.77,-134.27 203.15,-141.13"/>
</g>
<!-- wing_7 -->
<g id="node7" class="node">
<title>wing_7</title>
<g id="a_node7"><a xlink:href="javascript:s=&quot;\(&#x27;default&#x27;,\ \(&#x27;wing&#x27;,\ &#x27;base&#x27;\)\)\nBox&quot;; console.log(s); alert(s);" xlink:title="Box">
<ellipse fill="none" stroke="black" cx="261.84" cy="-72" rx="63.09" ry="18"/>
<text text-anchor="middle" x="261.84" y="-68.3" font-family="Times New Roman,serif" font-size="14.00">(&#39;wing&#39;, &#39;base&#39;)</text>
</a>
</g>
</g>
<!-- default_2&#45;&gt;wing_7 -->
<g id="edge6" class="edge">
<title>default_2&#45;&gt;wing_7</title>
<path fill="none" stroke="black" d="M143.62,-137.41C157.28,-125.8 177.06,-110.11 196.19,-99 201.58,-95.87 207.39,-92.92 213.25,-90.19"/>
<polygon fill="black" stroke="black" points="214.73,-93.36 222.44,-86.1 211.88,-86.97 214.73,-93.36"/>
</g>
<!-- bound_box_8 -->
<g id="node8" class="node">
<title>bound_box_8</title>
<g id="a_node8"><a xlink:href="javascript:s=&quot;\(&#x27;default&#x27;,\ &#x27;bound_box&#x27;\)\nBox&quot;; console.log(s); alert(s);" xlink:title="Box">
<ellipse fill="none" stroke="black" cx="261.84" cy="-18" rx="53.09" ry="18"/>
<text text-anchor="middle" x="261.84" y="-14.3" font-family="Times New Roman,serif" font-size="14.00">bound_box</text>
</a>
</g>
</g>
<!-- default_2&#45;&gt;bound_box_8 -->
<g id="edge7" class="edge">
<title>default_2&#45;&gt;bound_box_8</title>
<path fill="none" stroke="black" d="M133.5,-135.34C144.18,-111.8 165.99,-70.2 196.19,-45 201.1,-40.91 206.71,-37.36 212.53,-34.3"/>
<polygon fill="black" stroke="black" points="214.26,-37.36 221.78,-29.9 211.25,-31.04 214.26,-37.36"/>
</g>
</g>
</svg>
