<?xml version="1.0" encoding="UTF-8" standalone="no"?>
<!DOCTYPE svg PUBLIC "-//W3C//DTD SVG 1.1//EN"
 "http://www.w3.org/Graphics/SVG/1.1/DTD/svg11.dtd">
<!-- Generated by graphviz version 5.0.0 (20220707.1540)
 -->
<!-- Title: default Pages: 1 -->
<svg width="294pt" height="98pt"
 viewBox="0.00 0.00 293.89 98.00" xmlns="http://www.w3.org/2000/svg" xmlns:xlink="http://www.w3.org/1999/xlink">
<g id="graph0" class="graph" transform="scale(1 1) rotate(0) translate(4 94)">
<title>default</title>
<polygon fill="white" stroke="transparent" points="-4,4 -4,-94 289.89,-94 289.89,4 -4,4"/>
<!-- root_46 -->
<g id="node1" class="node">
<title>root_46</title>
<g id="a_node1"><a xlink:href="javascript:s=&quot;\(\)\nNone&quot;; console.log(s); alert(s);" xlink:title="root">
<ellipse fill="none" stroke="black" cx="27" cy="-45" rx="27" ry="18"/>
<text text-anchor="middle" x="27" y="-41.3" font-family="Times New Roman,serif" font-size="14.00">root</text>
</a>
</g>
</g>
<!-- default_47 -->
<g id="node2" class="node">
<title>default_47</title>
<g id="a_node2"><a xlink:href="javascript:s=&quot;\(&#x27;default&#x27;,\)\nHingeWithAxleSegment&quot;; console.log(s); alert(s);" xlink:title="HingeWithAxleSegment">
<ellipse fill="none" stroke="black" cx="125.1" cy="-45" rx="35.19" ry="18"/>
<text text-anchor="middle" x="125.1" y="-41.3" font-family="Times New Roman,serif" font-size="14.00">default</text>
</a>
</g>
</g>
<!-- root_46&#45;&gt;default_47 -->
<g id="edge1" class="edge">
<title>root_46&#45;&gt;default_47</title>
<path fill="none" stroke="black" d="M54.01,-45C61.92,-45 70.84,-45 79.61,-45"/>
<polygon fill="black" stroke="black" points="79.76,-48.5 89.76,-45 79.76,-41.5 79.76,-48.5"/>
</g>
<!-- segment_48 -->
<g id="node3" class="node">
<title>segment_48</title>
<g id="a_node3"><a xlink:href="javascript:s=&quot;\(&#x27;default&#x27;,\ &#x27;segment&#x27;\)\nLinearExtrude&quot;; console.log(s); alert(s);" xlink:title="LinearExtrude">
<ellipse fill="none" stroke="black" cx="241.04" cy="-72" rx="40.09" ry="18"/>
<text text-anchor="middle" x="241.04" y="-68.3" font-family="Times New Roman,serif" font-size="14.00">segment</text>
</a>
</g>
</g>
<!-- default_47&#45;&gt;segment_48 -->
<g id="edge2" class="edge">
<title>default_47&#45;&gt;segment_48</title>
<path fill="none" stroke="black" d="M157.23,-52.38C168.88,-55.14 182.35,-58.33 195,-61.33"/>
<polygon fill="black" stroke="black" points="194.39,-64.78 204.92,-63.68 196,-57.97 194.39,-64.78"/>
</g>
<!-- axle_hole_49 -->
<g id="node4" class="node">
<title>axle_hole_49</title>
<g id="a_node4"><a xlink:href="javascript:s=&quot;\(&#x27;default&#x27;,\ &#x27;axle_hole&#x27;\)\nCylinder&quot;; console.log(s); alert(s);" xlink:title="Cylinder">
<ellipse fill="none" stroke="black" cx="241.04" cy="-18" rx="44.69" ry="18"/>
<text text-anchor="middle" x="241.04" y="-14.3" font-family="Times New Roman,serif" font-size="14.00">axle_hole</text>
</a>
</g>
</g>
<!-- default_47&#45;&gt;axle_hole_49 -->
<g id="edge3" class="edge">
<title>default_47&#45;&gt;axle_hole_49</title>
<path fill="none" stroke="black" d="M157.23,-37.62C168.04,-35.06 180.43,-32.13 192.27,-29.32"/>
<polygon fill="black" stroke="black" points="193.12,-32.72 202.04,-27 191.5,-25.9 193.12,-32.72"/>
</g>
</g>
</svg>
