<?xml version="1.0" encoding="UTF-8" standalone="no"?>
<!DOCTYPE svg PUBLIC "-//W3C//DTD SVG 1.1//EN"
 "http://www.w3.org/Graphics/SVG/1.1/DTD/svg11.dtd">
<!-- Generated by graphviz version 5.0.0 (20220707.1540)
 -->
<!-- Title: default Pages: 1 -->
<svg width="1028pt" height="1286pt"
 viewBox="0.00 0.00 1027.53 1286.00" xmlns="http://www.w3.org/2000/svg" xmlns:xlink="http://www.w3.org/1999/xlink">
<g id="graph0" class="graph" transform="scale(1 1) rotate(0) translate(4 1282)">
<title>default</title>
<polygon fill="white" stroke="transparent" points="-4,4 -4,-1282 1023.53,-1282 1023.53,4 -4,4"/>
<!-- root_1 -->
<g id="node1" class="node">
<title>root_1</title>
<g id="a_node1"><a xlink:href="javascript:s=&quot;\(\)\nNone&quot;; console.log(s); alert(s);" xlink:title="root">
<ellipse fill="none" stroke="black" cx="27" cy="-423" rx="27" ry="18"/>
<text text-anchor="middle" x="27" y="-419.3" font-family="Times New Roman,serif" font-size="14.00">root</text>
</a>
</g>
</g>
<!-- default_2 -->
<g id="node2" class="node">
<title>default_2</title>
<g id="a_node2"><a xlink:href="javascript:s=&quot;\(&#x27;default&#x27;,\)\nHingeWithAxle&quot;; console.log(s); alert(s);" xlink:title="HingeWithAxle">
<ellipse fill="none" stroke="black" cx="368.18" cy="-747" rx="35.19" ry="18"/>
<text text-anchor="middle" x="368.18" y="-743.3" font-family="Times New Roman,serif" font-size="14.00">default</text>
</a>
</g>
</g>
<!-- root_1&#45;&gt;default_2 -->
<g id="edge1" class="edge">
<title>root_1&#45;&gt;default_2</title>
<path fill="none" stroke="black" d="M43.46,-437.76C97.38,-489.27 277.45,-661.29 343.03,-723.93"/>
<polygon fill="black" stroke="black" points="340.79,-726.64 350.44,-731.01 345.63,-721.58 340.79,-726.64"/>
</g>
<!-- 30 -->
<g id="node30" class="node">
<title>30</title>
<g id="a_node30"><a xlink:href="javascript:s=&quot;\(&quot;\(&#x27;segment&#x27;,\ 0\),\ &#x27;centre_of&#x27;,\ &#x27;axle_tube&#x27;,\ rh=1,\ normal_segment=&#x27;foot_base&#x27;&quot;,\)\nAnnotatedCoordinates&quot;; console.log(s); alert(s);" xlink:title="AnnotatedCoordinates">
<ellipse fill="none" stroke="black" cx="368.18" cy="-153" rx="278.35" ry="18"/>
<text text-anchor="middle" x="368.18" y="-149.3" font-family="Times New Roman,serif" font-size="14.00">(&#39;segment&#39;, 0), &#39;centre_of&#39;, &#39;axle_tube&#39;, rh=1, normal_segment=&#39;foot_base&#39;</text>
</a>
</g>
</g>
<!-- root_1&#45;&gt;30 -->
<g id="edge29" class="edge">
<title>root_1&#45;&gt;30</title>
<path fill="none" stroke="black" d="M45.29,-409.24C99.51,-366.07 266.77,-232.93 336.33,-177.55"/>
<polygon fill="black" stroke="black" points="338.67,-180.16 344.32,-171.2 334.31,-174.69 338.67,-180.16"/>
</g>
<!-- segment_3 -->
<g id="node3" class="node">
<title>segment_3</title>
<g id="a_node3"><a xlink:href="javascript:s=&quot;\(&#x27;default&#x27;,\ \(&#x27;segment&#x27;,\ 0\)\)\nHingeWithAxleSegment&quot;; console.log(s); alert(s);" xlink:title="HingeWithAxleSegment">
<ellipse fill="none" stroke="black" cx="742.15" cy="-1206" rx="59.59" ry="18"/>
<text text-anchor="middle" x="742.15" y="-1202.3" font-family="Times New Roman,serif" font-size="14.00">(&#39;segment&#39;, 0)</text>
</a>
</g>
</g>
<!-- default_2&#45;&gt;segment_3 -->
<g id="edge2" class="edge">
<title>default_2&#45;&gt;segment_3</title>
<path fill="none" stroke="black" d="M382.63,-763.61C438.54,-832.6 652.7,-1096.87 720.46,-1180.48"/>
<polygon fill="black" stroke="black" points="717.9,-1182.87 726.91,-1188.44 723.34,-1178.47 717.9,-1182.87"/>
</g>
<!-- segment_6 -->
<g id="node6" class="node">
<title>segment_6</title>
<g id="a_node6"><a xlink:href="javascript:s=&quot;\(&#x27;default&#x27;,\ \(&#x27;segment&#x27;,\ 1\)\)\nHingeWithAxleSegment&quot;; console.log(s); alert(s);" xlink:title="HingeWithAxleSegment">
<ellipse fill="none" stroke="black" cx="742.15" cy="-1098" rx="59.59" ry="18"/>
<text text-anchor="middle" x="742.15" y="-1094.3" font-family="Times New Roman,serif" font-size="14.00">(&#39;segment&#39;, 1)</text>
</a>
</g>
</g>
<!-- default_2&#45;&gt;segment_6 -->
<g id="edge5" class="edge">
<title>default_2&#45;&gt;segment_6</title>
<path fill="none" stroke="black" d="M386.12,-762.99C445.38,-818.91 643.55,-1005.91 715.1,-1073.42"/>
<polygon fill="black" stroke="black" points="713.12,-1076.36 722.79,-1080.68 717.92,-1071.27 713.12,-1076.36"/>
</g>
<!-- segment_9 -->
<g id="node9" class="node">
<title>segment_9</title>
<g id="a_node9"><a xlink:href="javascript:s=&quot;\(&#x27;default&#x27;,\ \(&#x27;segment&#x27;,\ 2\)\)\nHingeWithAxleSegment&quot;; console.log(s); alert(s);" xlink:title="HingeWithAxleSegment">
<ellipse fill="none" stroke="black" cx="742.15" cy="-990" rx="59.59" ry="18"/>
<text text-anchor="middle" x="742.15" y="-986.3" font-family="Times New Roman,serif" font-size="14.00">(&#39;segment&#39;, 2)</text>
</a>
</g>
</g>
<!-- default_2&#45;&gt;segment_9 -->
<g id="edge8" class="edge">
<title>default_2&#45;&gt;segment_9</title>
<path fill="none" stroke="black" d="M390.51,-760.94C452.37,-801.35 632.17,-918.81 707.42,-967.97"/>
<polygon fill="black" stroke="black" points="705.77,-971.07 716.06,-973.61 709.6,-965.21 705.77,-971.07"/>
</g>
<!-- segment_12 -->
<g id="node12" class="node">
<title>segment_12</title>
<g id="a_node12"><a xlink:href="javascript:s=&quot;\(&#x27;default&#x27;,\ \(&#x27;segment&#x27;,\ 3\)\)\nHingeWithAxleSegment&quot;; console.log(s); alert(s);" xlink:title="HingeWithAxleSegment">
<ellipse fill="none" stroke="black" cx="742.15" cy="-882" rx="59.59" ry="18"/>
<text text-anchor="middle" x="742.15" y="-878.3" font-family="Times New Roman,serif" font-size="14.00">(&#39;segment&#39;, 3)</text>
</a>
</g>
</g>
<!-- default_2&#45;&gt;segment_12 -->
<g id="edge11" class="edge">
<title>default_2&#45;&gt;segment_12</title>
<path fill="none" stroke="black" d="M397.44,-757.26C460.85,-780.27 615.02,-836.22 693.52,-864.71"/>
<polygon fill="black" stroke="black" points="692.57,-868.09 703.16,-868.22 694.96,-861.51 692.57,-868.09"/>
</g>
<!-- segment_15 -->
<g id="node15" class="node">
<title>segment_15</title>
<g id="a_node15"><a xlink:href="javascript:s=&quot;\(&#x27;default&#x27;,\ \(&#x27;segment&#x27;,\ 4\)\)\nHingeWithAxleSegment&quot;; console.log(s); alert(s);" xlink:title="HingeWithAxleSegment">
<ellipse fill="none" stroke="black" cx="742.15" cy="-774" rx="59.59" ry="18"/>
<text text-anchor="middle" x="742.15" y="-770.3" font-family="Times New Roman,serif" font-size="14.00">(&#39;segment&#39;, 4)</text>
</a>
</g>
</g>
<!-- default_2&#45;&gt;segment_15 -->
<g id="edge14" class="edge">
<title>default_2&#45;&gt;segment_15</title>
<path fill="none" stroke="black" d="M403.17,-749.47C464.27,-753.9 593.71,-763.3 673.49,-769.09"/>
<polygon fill="black" stroke="black" points="673.69,-772.61 683.92,-769.85 674.2,-765.63 673.69,-772.61"/>
</g>
<!-- segment_18 -->
<g id="node18" class="node">
<title>segment_18</title>
<g id="a_node18"><a xlink:href="javascript:s=&quot;\(&#x27;default&#x27;,\ \(&#x27;segment&#x27;,\ 5\)\)\nHingeWithAxleSegment&quot;; console.log(s); alert(s);" xlink:title="HingeWithAxleSegment">
<ellipse fill="none" stroke="black" cx="742.15" cy="-720" rx="59.59" ry="18"/>
<text text-anchor="middle" x="742.15" y="-716.3" font-family="Times New Roman,serif" font-size="14.00">(&#39;segment&#39;, 5)</text>
</a>
</g>
</g>
<!-- default_2&#45;&gt;segment_18 -->
<g id="edge17" class="edge">
<title>default_2&#45;&gt;segment_18</title>
<path fill="none" stroke="black" d="M403.17,-744.53C464.27,-740.1 593.71,-730.7 673.49,-724.91"/>
<polygon fill="black" stroke="black" points="674.2,-728.37 683.92,-724.15 673.69,-721.39 674.2,-728.37"/>
</g>
<!-- segment_21 -->
<g id="node21" class="node">
<title>segment_21</title>
<g id="a_node21"><a xlink:href="javascript:s=&quot;\(&#x27;default&#x27;,\ \(&#x27;segment&#x27;,\ 6\)\)\nHingeWithAxleSegment&quot;; console.log(s); alert(s);" xlink:title="HingeWithAxleSegment">
<ellipse fill="none" stroke="black" cx="742.15" cy="-612" rx="59.59" ry="18"/>
<text text-anchor="middle" x="742.15" y="-608.3" font-family="Times New Roman,serif" font-size="14.00">(&#39;segment&#39;, 6)</text>
</a>
</g>
</g>
<!-- default_2&#45;&gt;segment_21 -->
<g id="edge20" class="edge">
<title>default_2&#45;&gt;segment_21</title>
<path fill="none" stroke="black" d="M397.44,-736.74C460.85,-713.73 615.02,-657.78 693.52,-629.29"/>
<polygon fill="black" stroke="black" points="694.96,-632.49 703.16,-625.78 692.57,-625.91 694.96,-632.49"/>
</g>
<!-- segment_24 -->
<g id="node24" class="node">
<title>segment_24</title>
<g id="a_node24"><a xlink:href="javascript:s=&quot;\(&#x27;default&#x27;,\ \(&#x27;segment&#x27;,\ 7\)\)\nHingeWithAxleSegment&quot;; console.log(s); alert(s);" xlink:title="HingeWithAxleSegment">
<ellipse fill="none" stroke="black" cx="742.15" cy="-504" rx="59.59" ry="18"/>
<text text-anchor="middle" x="742.15" y="-500.3" font-family="Times New Roman,serif" font-size="14.00">(&#39;segment&#39;, 7)</text>
</a>
</g>
</g>
<!-- default_2&#45;&gt;segment_24 -->
<g id="edge23" class="edge">
<title>default_2&#45;&gt;segment_24</title>
<path fill="none" stroke="black" d="M390.51,-733.06C452.37,-692.65 632.17,-575.19 707.42,-526.03"/>
<polygon fill="black" stroke="black" points="709.6,-528.79 716.06,-520.39 705.77,-522.93 709.6,-528.79"/>
</g>
<!-- segment_27 -->
<g id="node27" class="node">
<title>segment_27</title>
<g id="a_node27"><a xlink:href="javascript:s=&quot;\(&#x27;default&#x27;,\ \(&#x27;segment&#x27;,\ 8\)\)\nHingeWithAxleSegment&quot;; console.log(s); alert(s);" xlink:title="HingeWithAxleSegment">
<ellipse fill="none" stroke="black" cx="742.15" cy="-396" rx="59.59" ry="18"/>
<text text-anchor="middle" x="742.15" y="-392.3" font-family="Times New Roman,serif" font-size="14.00">(&#39;segment&#39;, 8)</text>
</a>
</g>
</g>
<!-- default_2&#45;&gt;segment_27 -->
<g id="edge26" class="edge">
<title>default_2&#45;&gt;segment_27</title>
<path fill="none" stroke="black" d="M386.12,-731.01C445.38,-675.09 643.55,-488.09 715.1,-420.58"/>
<polygon fill="black" stroke="black" points="717.92,-422.73 722.79,-413.32 713.12,-417.64 717.92,-422.73"/>
</g>
<!-- segment_4 -->
<g id="node4" class="node">
<title>segment_4</title>
<g id="a_node4"><a xlink:href="javascript:s=&quot;\(&#x27;default&#x27;,\ \(&#x27;segment&#x27;,\ 0\),\ &#x27;segment&#x27;\)\nLinearExtrude&quot;; console.log(s); alert(s);" xlink:title="LinearExtrude">
<ellipse fill="none" stroke="black" cx="882.79" cy="-1260" rx="40.09" ry="18"/>
<text text-anchor="middle" x="882.79" y="-1256.3" font-family="Times New Roman,serif" font-size="14.00">segment</text>
</a>
</g>
</g>
<!-- segment_3&#45;&gt;segment_4 -->
<g id="edge3" class="edge">
<title>segment_3&#45;&gt;segment_4</title>
<path fill="none" stroke="black" d="M779.57,-1220.19C798.88,-1227.71 822.61,-1236.95 842.35,-1244.64"/>
<polygon fill="black" stroke="black" points="841.09,-1247.91 851.68,-1248.27 843.63,-1241.38 841.09,-1247.91"/>
</g>
<!-- axle_hole_5 -->
<g id="node5" class="node">
<title>axle_hole_5</title>
<g id="a_node5"><a xlink:href="javascript:s=&quot;\(&#x27;default&#x27;,\ \(&#x27;segment&#x27;,\ 0\),\ &#x27;axle_hole&#x27;\)\nCylinder&quot;; console.log(s); alert(s);" xlink:title="Cylinder">
<ellipse fill="none" stroke="black" cx="882.79" cy="-1206" rx="44.69" ry="18"/>
<text text-anchor="middle" x="882.79" y="-1202.3" font-family="Times New Roman,serif" font-size="14.00">axle_hole</text>
</a>
</g>
</g>
<!-- segment_3&#45;&gt;axle_hole_5 -->
<g id="edge4" class="edge">
<title>segment_3&#45;&gt;axle_hole_5</title>
<path fill="none" stroke="black" d="M801.94,-1206C810.44,-1206 819.16,-1206 827.56,-1206"/>
<polygon fill="black" stroke="black" points="827.62,-1209.5 837.62,-1206 827.62,-1202.5 827.62,-1209.5"/>
</g>
<!-- segment_7 -->
<g id="node7" class="node">
<title>segment_7</title>
<g id="a_node7"><a xlink:href="javascript:s=&quot;\(&#x27;default&#x27;,\ \(&#x27;segment&#x27;,\ 1\),\ &#x27;segment&#x27;\)\nLinearExtrude&quot;; console.log(s); alert(s);" xlink:title="LinearExtrude">
<ellipse fill="none" stroke="black" cx="882.79" cy="-1152" rx="40.09" ry="18"/>
<text text-anchor="middle" x="882.79" y="-1148.3" font-family="Times New Roman,serif" font-size="14.00">segment</text>
</a>
</g>
</g>
<!-- segment_6&#45;&gt;segment_7 -->
<g id="edge6" class="edge">
<title>segment_6&#45;&gt;segment_7</title>
<path fill="none" stroke="black" d="M779.57,-1112.19C798.88,-1119.71 822.61,-1128.95 842.35,-1136.64"/>
<polygon fill="black" stroke="black" points="841.09,-1139.91 851.68,-1140.27 843.63,-1133.38 841.09,-1139.91"/>
</g>
<!-- axle_hole_8 -->
<g id="node8" class="node">
<title>axle_hole_8</title>
<g id="a_node8"><a xlink:href="javascript:s=&quot;\(&#x27;default&#x27;,\ \(&#x27;segment&#x27;,\ 1\),\ &#x27;axle_hole&#x27;\)\nCylinder&quot;; console.log(s); alert(s);" xlink:title="Cylinder">
<ellipse fill="none" stroke="black" cx="882.79" cy="-1098" rx="44.69" ry="18"/>
<text text-anchor="middle" x="882.79" y="-1094.3" font-family="Times New Roman,serif" font-size="14.00">axle_hole</text>
</a>
</g>
</g>
<!-- segment_6&#45;&gt;axle_hole_8 -->
<g id="edge7" class="edge">
<title>segment_6&#45;&gt;axle_hole_8</title>
<path fill="none" stroke="black" d="M801.94,-1098C810.44,-1098 819.16,-1098 827.56,-1098"/>
<polygon fill="black" stroke="black" points="827.62,-1101.5 837.62,-1098 827.62,-1094.5 827.62,-1101.5"/>
</g>
<!-- segment_10 -->
<g id="node10" class="node">
<title>segment_10</title>
<g id="a_node10"><a xlink:href="javascript:s=&quot;\(&#x27;default&#x27;,\ \(&#x27;segment&#x27;,\ 2\),\ &#x27;segment&#x27;\)\nLinearExtrude&quot;; console.log(s); alert(s);" xlink:title="LinearExtrude">
<ellipse fill="none" stroke="black" cx="882.79" cy="-1044" rx="40.09" ry="18"/>
<text text-anchor="middle" x="882.79" y="-1040.3" font-family="Times New Roman,serif" font-size="14.00">segment</text>
</a>
</g>
</g>
<!-- segment_9&#45;&gt;segment_10 -->
<g id="edge9" class="edge">
<title>segment_9&#45;&gt;segment_10</title>
<path fill="none" stroke="black" d="M779.57,-1004.19C798.88,-1011.71 822.61,-1020.95 842.35,-1028.64"/>
<polygon fill="black" stroke="black" points="841.09,-1031.91 851.68,-1032.27 843.63,-1025.38 841.09,-1031.91"/>
</g>
<!-- axle_hole_11 -->
<g id="node11" class="node">
<title>axle_hole_11</title>
<g id="a_node11"><a xlink:href="javascript:s=&quot;\(&#x27;default&#x27;,\ \(&#x27;segment&#x27;,\ 2\),\ &#x27;axle_hole&#x27;\)\nCylinder&quot;; console.log(s); alert(s);" xlink:title="Cylinder">
<ellipse fill="none" stroke="black" cx="882.79" cy="-990" rx="44.69" ry="18"/>
<text text-anchor="middle" x="882.79" y="-986.3" font-family="Times New Roman,serif" font-size="14.00">axle_hole</text>
</a>
</g>
</g>
<!-- segment_9&#45;&gt;axle_hole_11 -->
<g id="edge10" class="edge">
<title>segment_9&#45;&gt;axle_hole_11</title>
<path fill="none" stroke="black" d="M801.94,-990C810.44,-990 819.16,-990 827.56,-990"/>
<polygon fill="black" stroke="black" points="827.62,-993.5 837.62,-990 827.62,-986.5 827.62,-993.5"/>
</g>
<!-- segment_13 -->
<g id="node13" class="node">
<title>segment_13</title>
<g id="a_node13"><a xlink:href="javascript:s=&quot;\(&#x27;default&#x27;,\ \(&#x27;segment&#x27;,\ 3\),\ &#x27;segment&#x27;\)\nLinearExtrude&quot;; console.log(s); alert(s);" xlink:title="LinearExtrude">
<ellipse fill="none" stroke="black" cx="882.79" cy="-936" rx="40.09" ry="18"/>
<text text-anchor="middle" x="882.79" y="-932.3" font-family="Times New Roman,serif" font-size="14.00">segment</text>
</a>
</g>
</g>
<!-- segment_12&#45;&gt;segment_13 -->
<g id="edge12" class="edge">
<title>segment_12&#45;&gt;segment_13</title>
<path fill="none" stroke="black" d="M779.57,-896.19C798.88,-903.71 822.61,-912.95 842.35,-920.64"/>
<polygon fill="black" stroke="black" points="841.09,-923.91 851.68,-924.27 843.63,-917.38 841.09,-923.91"/>
</g>
<!-- axle_hole_14 -->
<g id="node14" class="node">
<title>axle_hole_14</title>
<g id="a_node14"><a xlink:href="javascript:s=&quot;\(&#x27;default&#x27;,\ \(&#x27;segment&#x27;,\ 3\),\ &#x27;axle_hole&#x27;\)\nCylinder&quot;; console.log(s); alert(s);" xlink:title="Cylinder">
<ellipse fill="none" stroke="black" cx="882.79" cy="-882" rx="44.69" ry="18"/>
<text text-anchor="middle" x="882.79" y="-878.3" font-family="Times New Roman,serif" font-size="14.00">axle_hole</text>
</a>
</g>
</g>
<!-- segment_12&#45;&gt;axle_hole_14 -->
<g id="edge13" class="edge">
<title>segment_12&#45;&gt;axle_hole_14</title>
<path fill="none" stroke="black" d="M801.94,-882C810.44,-882 819.16,-882 827.56,-882"/>
<polygon fill="black" stroke="black" points="827.62,-885.5 837.62,-882 827.62,-878.5 827.62,-885.5"/>
</g>
<!-- segment_16 -->
<g id="node16" class="node">
<title>segment_16</title>
<g id="a_node16"><a xlink:href="javascript:s=&quot;\(&#x27;default&#x27;,\ \(&#x27;segment&#x27;,\ 4\),\ &#x27;segment&#x27;\)\nLinearExtrude&quot;; console.log(s); alert(s);" xlink:title="LinearExtrude">
<ellipse fill="none" stroke="black" cx="882.79" cy="-828" rx="40.09" ry="18"/>
<text text-anchor="middle" x="882.79" y="-824.3" font-family="Times New Roman,serif" font-size="14.00">segment</text>
</a>
</g>
</g>
<!-- segment_15&#45;&gt;segment_16 -->
<g id="edge15" class="edge">
<title>segment_15&#45;&gt;segment_16</title>
<path fill="none" stroke="black" d="M779.57,-788.19C798.88,-795.71 822.61,-804.95 842.35,-812.64"/>
<polygon fill="black" stroke="black" points="841.09,-815.91 851.68,-816.27 843.63,-809.38 841.09,-815.91"/>
</g>
<!-- axle_hole_17 -->
<g id="node17" class="node">
<title>axle_hole_17</title>
<g id="a_node17"><a xlink:href="javascript:s=&quot;\(&#x27;default&#x27;,\ \(&#x27;segment&#x27;,\ 4\),\ &#x27;axle_hole&#x27;\)\nCylinder&quot;; console.log(s); alert(s);" xlink:title="Cylinder">
<ellipse fill="none" stroke="black" cx="882.79" cy="-774" rx="44.69" ry="18"/>
<text text-anchor="middle" x="882.79" y="-770.3" font-family="Times New Roman,serif" font-size="14.00">axle_hole</text>
</a>
</g>
</g>
<!-- segment_15&#45;&gt;axle_hole_17 -->
<g id="edge16" class="edge">
<title>segment_15&#45;&gt;axle_hole_17</title>
<path fill="none" stroke="black" d="M801.94,-774C810.44,-774 819.16,-774 827.56,-774"/>
<polygon fill="black" stroke="black" points="827.62,-777.5 837.62,-774 827.62,-770.5 827.62,-777.5"/>
</g>
<!-- segment_19 -->
<g id="node19" class="node">
<title>segment_19</title>
<g id="a_node19"><a xlink:href="javascript:s=&quot;\(&#x27;default&#x27;,\ \(&#x27;segment&#x27;,\ 5\),\ &#x27;segment&#x27;\)\nLinearExtrude&quot;; console.log(s); alert(s);" xlink:title="LinearExtrude">
<ellipse fill="none" stroke="black" cx="882.79" cy="-720" rx="40.09" ry="18"/>
<text text-anchor="middle" x="882.79" y="-716.3" font-family="Times New Roman,serif" font-size="14.00">segment</text>
</a>
</g>
</g>
<!-- segment_18&#45;&gt;segment_19 -->
<g id="edge18" class="edge">
<title>segment_18&#45;&gt;segment_19</title>
<path fill="none" stroke="black" d="M801.94,-720C811.91,-720 822.18,-720 831.9,-720"/>
<polygon fill="black" stroke="black" points="832.18,-723.5 842.18,-720 832.18,-716.5 832.18,-723.5"/>
</g>
<!-- axle_hole_20 -->
<g id="node20" class="node">
<title>axle_hole_20</title>
<g id="a_node20"><a xlink:href="javascript:s=&quot;\(&#x27;default&#x27;,\ \(&#x27;segment&#x27;,\ 5\),\ &#x27;axle_hole&#x27;\)\nCylinder&quot;; console.log(s); alert(s);" xlink:title="Cylinder">
<ellipse fill="none" stroke="black" cx="882.79" cy="-666" rx="44.69" ry="18"/>
<text text-anchor="middle" x="882.79" y="-662.3" font-family="Times New Roman,serif" font-size="14.00">axle_hole</text>
</a>
</g>
</g>
<!-- segment_18&#45;&gt;axle_hole_20 -->
<g id="edge19" class="edge">
<title>segment_18&#45;&gt;axle_hole_20</title>
<path fill="none" stroke="black" d="M779.57,-705.81C798.24,-698.54 821.05,-689.66 840.38,-682.13"/>
<polygon fill="black" stroke="black" points="841.8,-685.33 849.85,-678.44 839.26,-678.81 841.8,-685.33"/>
</g>
<!-- segment_22 -->
<g id="node22" class="node">
<title>segment_22</title>
<g id="a_node22"><a xlink:href="javascript:s=&quot;\(&#x27;default&#x27;,\ \(&#x27;segment&#x27;,\ 6\),\ &#x27;segment&#x27;\)\nLinearExtrude&quot;; console.log(s); alert(s);" xlink:title="LinearExtrude">
<ellipse fill="none" stroke="black" cx="882.79" cy="-612" rx="40.09" ry="18"/>
<text text-anchor="middle" x="882.79" y="-608.3" font-family="Times New Roman,serif" font-size="14.00">segment</text>
</a>
</g>
</g>
<!-- segment_21&#45;&gt;segment_22 -->
<g id="edge21" class="edge">
<title>segment_21&#45;&gt;segment_22</title>
<path fill="none" stroke="black" d="M801.94,-612C811.91,-612 822.18,-612 831.9,-612"/>
<polygon fill="black" stroke="black" points="832.18,-615.5 842.18,-612 832.18,-608.5 832.18,-615.5"/>
</g>
<!-- axle_hole_23 -->
<g id="node23" class="node">
<title>axle_hole_23</title>
<g id="a_node23"><a xlink:href="javascript:s=&quot;\(&#x27;default&#x27;,\ \(&#x27;segment&#x27;,\ 6\),\ &#x27;axle_hole&#x27;\)\nCylinder&quot;; console.log(s); alert(s);" xlink:title="Cylinder">
<ellipse fill="none" stroke="black" cx="882.79" cy="-558" rx="44.69" ry="18"/>
<text text-anchor="middle" x="882.79" y="-554.3" font-family="Times New Roman,serif" font-size="14.00">axle_hole</text>
</a>
</g>
</g>
<!-- segment_21&#45;&gt;axle_hole_23 -->
<g id="edge22" class="edge">
<title>segment_21&#45;&gt;axle_hole_23</title>
<path fill="none" stroke="black" d="M779.57,-597.81C798.24,-590.54 821.05,-581.66 840.38,-574.13"/>
<polygon fill="black" stroke="black" points="841.8,-577.33 849.85,-570.44 839.26,-570.81 841.8,-577.33"/>
</g>
<!-- segment_25 -->
<g id="node25" class="node">
<title>segment_25</title>
<g id="a_node25"><a xlink:href="javascript:s=&quot;\(&#x27;default&#x27;,\ \(&#x27;segment&#x27;,\ 7\),\ &#x27;segment&#x27;\)\nLinearExtrude&quot;; console.log(s); alert(s);" xlink:title="LinearExtrude">
<ellipse fill="none" stroke="black" cx="882.79" cy="-504" rx="40.09" ry="18"/>
<text text-anchor="middle" x="882.79" y="-500.3" font-family="Times New Roman,serif" font-size="14.00">segment</text>
</a>
</g>
</g>
<!-- segment_24&#45;&gt;segment_25 -->
<g id="edge24" class="edge">
<title>segment_24&#45;&gt;segment_25</title>
<path fill="none" stroke="black" d="M801.94,-504C811.91,-504 822.18,-504 831.9,-504"/>
<polygon fill="black" stroke="black" points="832.18,-507.5 842.18,-504 832.18,-500.5 832.18,-507.5"/>
</g>
<!-- axle_hole_26 -->
<g id="node26" class="node">
<title>axle_hole_26</title>
<g id="a_node26"><a xlink:href="javascript:s=&quot;\(&#x27;default&#x27;,\ \(&#x27;segment&#x27;,\ 7\),\ &#x27;axle_hole&#x27;\)\nCylinder&quot;; console.log(s); alert(s);" xlink:title="Cylinder">
<ellipse fill="none" stroke="black" cx="882.79" cy="-450" rx="44.69" ry="18"/>
<text text-anchor="middle" x="882.79" y="-446.3" font-family="Times New Roman,serif" font-size="14.00">axle_hole</text>
</a>
</g>
</g>
<!-- segment_24&#45;&gt;axle_hole_26 -->
<g id="edge25" class="edge">
<title>segment_24&#45;&gt;axle_hole_26</title>
<path fill="none" stroke="black" d="M779.57,-489.81C798.24,-482.54 821.05,-473.66 840.38,-466.13"/>
<polygon fill="black" stroke="black" points="841.8,-469.33 849.85,-462.44 839.26,-462.81 841.8,-469.33"/>
</g>
<!-- segment_28 -->
<g id="node28" class="node">
<title>segment_28</title>
<g id="a_node28"><a xlink:href="javascript:s=&quot;\(&#x27;default&#x27;,\ \(&#x27;segment&#x27;,\ 8\),\ &#x27;segment&#x27;\)\nLinearExtrude&quot;; console.log(s); alert(s);" xlink:title="LinearExtrude">
<ellipse fill="none" stroke="black" cx="882.79" cy="-396" rx="40.09" ry="18"/>
<text text-anchor="middle" x="882.79" y="-392.3" font-family="Times New Roman,serif" font-size="14.00">segment</text>
</a>
</g>
</g>
<!-- segment_27&#45;&gt;segment_28 -->
<g id="edge27" class="edge">
<title>segment_27&#45;&gt;segment_28</title>
<path fill="none" stroke="black" d="M801.94,-396C811.91,-396 822.18,-396 831.9,-396"/>
<polygon fill="black" stroke="black" points="832.18,-399.5 842.18,-396 832.18,-392.5 832.18,-399.5"/>
</g>
<!-- axle_hole_29 -->
<g id="node29" class="node">
<title>axle_hole_29</title>
<g id="a_node29"><a xlink:href="javascript:s=&quot;\(&#x27;default&#x27;,\ \(&#x27;segment&#x27;,\ 8\),\ &#x27;axle_hole&#x27;\)\nCylinder&quot;; console.log(s); alert(s);" xlink:title="Cylinder">
<ellipse fill="none" stroke="black" cx="882.79" cy="-342" rx="44.69" ry="18"/>
<text text-anchor="middle" x="882.79" y="-338.3" font-family="Times New Roman,serif" font-size="14.00">axle_hole</text>
</a>
</g>
</g>
<!-- segment_27&#45;&gt;axle_hole_29 -->
<g id="edge28" class="edge">
<title>segment_27&#45;&gt;axle_hole_29</title>
<path fill="none" stroke="black" d="M779.57,-381.81C798.24,-374.54 821.05,-365.66 840.38,-358.13"/>
<polygon fill="black" stroke="black" points="841.8,-361.33 849.85,-354.44 839.26,-354.81 841.8,-361.33"/>
</g>
<!-- coords_31 -->
<g id="node31" class="node">
<title>coords_31</title>
<g id="a_node31"><a xlink:href="javascript:s=&quot;\(&quot;\(&#x27;segment&#x27;,\ 0\),\ &#x27;centre_of&#x27;,\ &#x27;axle_tube&#x27;,\ rh=1,\ normal_segment=&#x27;foot_base&#x27;&quot;,\ &#x27;coords&#x27;\)\nCoordinates&quot;; console.log(s); alert(s);" xlink:title="Coordinates">
<ellipse fill="none" stroke="black" cx="742.15" cy="-234" rx="36.29" ry="18"/>
<text text-anchor="middle" x="742.15" y="-230.3" font-family="Times New Roman,serif" font-size="14.00">coords</text>
</a>
</g>
</g>
<!-- 30&#45;&gt;coords_31 -->
<g id="edge30" class="edge">
<title>30&#45;&gt;coords_31</title>
<path fill="none" stroke="black" d="M448.52,-170.28C524.96,-186.92 637.71,-211.48 698.52,-224.72"/>
<polygon fill="black" stroke="black" points="698.02,-228.19 708.54,-226.9 699.51,-221.35 698.02,-228.19"/>
</g>
<!-- x_42 -->
<g id="node42" class="node">
<title>x_42</title>
<g id="a_node42"><a xlink:href="javascript:s=&quot;\(&quot;\(&#x27;segment&#x27;,\ 0\),\ &#x27;centre_of&#x27;,\ &#x27;axle_tube&#x27;,\ rh=1,\ normal_segment=&#x27;foot_base&#x27;&quot;,\ &#x27;x&#x27;\)\nText&quot;; console.log(s); alert(s);" xlink:title="Text">
<ellipse fill="none" stroke="black" cx="742.15" cy="-180" rx="27" ry="18"/>
<text text-anchor="middle" x="742.15" y="-176.3" font-family="Times New Roman,serif" font-size="14.00">x</text>
</a>
</g>
</g>
<!-- 30&#45;&gt;x_42 -->
<g id="edge41" class="edge">
<title>30&#45;&gt;x_42</title>
<path fill="none" stroke="black" d="M554.07,-166.42C611.41,-170.58 668.88,-174.75 704.7,-177.35"/>
<polygon fill="black" stroke="black" points="704.87,-180.88 715.09,-178.11 705.37,-173.89 704.87,-180.88"/>
</g>
<!-- y_43 -->
<g id="node43" class="node">
<title>y_43</title>
<g id="a_node43"><a xlink:href="javascript:s=&quot;\(&quot;\(&#x27;segment&#x27;,\ 0\),\ &#x27;centre_of&#x27;,\ &#x27;axle_tube&#x27;,\ rh=1,\ normal_segment=&#x27;foot_base&#x27;&quot;,\ &#x27;y&#x27;\)\nText&quot;; console.log(s); alert(s);" xlink:title="Text">
<ellipse fill="none" stroke="black" cx="742.15" cy="-126" rx="27" ry="18"/>
<text text-anchor="middle" x="742.15" y="-122.3" font-family="Times New Roman,serif" font-size="14.00">y</text>
</a>
</g>
</g>
<!-- 30&#45;&gt;y_43 -->
<g id="edge42" class="edge">
<title>30&#45;&gt;y_43</title>
<path fill="none" stroke="black" d="M554.07,-139.58C611.41,-135.42 668.88,-131.25 704.7,-128.65"/>
<polygon fill="black" stroke="black" points="705.37,-132.11 715.09,-127.89 704.87,-125.12 705.37,-132.11"/>
</g>
<!-- z_44 -->
<g id="node44" class="node">
<title>z_44</title>
<g id="a_node44"><a xlink:href="javascript:s=&quot;\(&quot;\(&#x27;segment&#x27;,\ 0\),\ &#x27;centre_of&#x27;,\ &#x27;axle_tube&#x27;,\ rh=1,\ normal_segment=&#x27;foot_base&#x27;&quot;,\ &#x27;z&#x27;\)\nText&quot;; console.log(s); alert(s);" xlink:title="Text">
<ellipse fill="none" stroke="black" cx="742.15" cy="-72" rx="27" ry="18"/>
<text text-anchor="middle" x="742.15" y="-68.3" font-family="Times New Roman,serif" font-size="14.00">z</text>
</a>
</g>
</g>
<!-- 30&#45;&gt;z_44 -->
<g id="edge43" class="edge">
<title>30&#45;&gt;z_44</title>
<path fill="none" stroke="black" d="M448.52,-135.72C528.42,-118.32 648,-92.28 706.46,-79.55"/>
<polygon fill="black" stroke="black" points="707.28,-82.96 716.31,-77.41 705.79,-76.12 707.28,-82.96"/>
</g>
<!-- label_45 -->
<g id="node45" class="node">
<title>label_45</title>
<g id="a_node45"><a xlink:href="javascript:s=&quot;\(&quot;\(&#x27;segment&#x27;,\ 0\),\ &#x27;centre_of&#x27;,\ &#x27;axle_tube&#x27;,\ rh=1,\ normal_segment=&#x27;foot_base&#x27;&quot;,\ &#x27;label&#x27;\)\nText&quot;; console.log(s); alert(s);" xlink:title="Text">
<ellipse fill="none" stroke="black" cx="742.15" cy="-18" rx="27.1" ry="18"/>
<text text-anchor="middle" x="742.15" y="-14.3" font-family="Times New Roman,serif" font-size="14.00">label</text>
</a>
</g>
</g>
<!-- 30&#45;&gt;label_45 -->
<g id="edge44" class="edge">
<title>30&#45;&gt;label_45</title>
<path fill="none" stroke="black" d="M418.19,-135.21C495.31,-107.22 642.94,-53.64 708.45,-29.87"/>
<polygon fill="black" stroke="black" points="709.66,-33.15 717.87,-26.45 707.27,-26.57 709.66,-33.15"/>
</g>
<!-- origin_32 -->
<g id="node32" class="node">
<title>origin_32</title>
<g id="a_node32"><a xlink:href="javascript:s=&quot;\(&quot;\(&#x27;segment&#x27;,\ 0\),\ &#x27;centre_of&#x27;,\ &#x27;axle_tube&#x27;,\ rh=1,\ normal_segment=&#x27;foot_base&#x27;&quot;,\ &#x27;coords&#x27;,\ &#x27;origin&#x27;\)\nCoordinatesCage&quot;; console.log(s); alert(s);" xlink:title="CoordinatesCage">
<ellipse fill="none" stroke="black" cx="882.79" cy="-288" rx="31.4" ry="18"/>
<text text-anchor="middle" x="882.79" y="-284.3" font-family="Times New Roman,serif" font-size="14.00">origin</text>
</a>
</g>
</g>
<!-- coords_31&#45;&gt;origin_32 -->
<g id="edge31" class="edge">
<title>coords_31&#45;&gt;origin_32</title>
<path fill="none" stroke="black" d="M771.2,-244.93C793.08,-253.45 823.58,-265.33 847.01,-274.45"/>
<polygon fill="black" stroke="black" points="845.98,-277.81 856.57,-278.18 848.52,-271.29 845.98,-277.81"/>
</g>
<!-- x_arrow_33 -->
<g id="node33" class="node">
<title>x_arrow_33</title>
<g id="a_node33"><a xlink:href="javascript:s=&quot;\(&quot;\(&#x27;segment&#x27;,\ 0\),\ &#x27;centre_of&#x27;,\ &#x27;axle_tube&#x27;,\ rh=1,\ normal_segment=&#x27;foot_base&#x27;&quot;,\ &#x27;coords&#x27;,\ &#x27;x_arrow&#x27;\)\nArrow&quot;; console.log(s); alert(s);" xlink:title="Arrow">
<ellipse fill="none" stroke="black" cx="882.79" cy="-234" rx="40.89" ry="18"/>
<text text-anchor="middle" x="882.79" y="-230.3" font-family="Times New Roman,serif" font-size="14.00">x_arrow</text>
</a>
</g>
</g>
<!-- coords_31&#45;&gt;x_arrow_33 -->
<g id="edge32" class="edge">
<title>coords_31&#45;&gt;x_arrow_33</title>
<path fill="none" stroke="black" d="M778.85,-234C794.95,-234 814.23,-234 831.74,-234"/>
<polygon fill="black" stroke="black" points="831.8,-237.5 841.8,-234 831.8,-230.5 831.8,-237.5"/>
</g>
<!-- y_arrow_36 -->
<g id="node36" class="node">
<title>y_arrow_36</title>
<g id="a_node36"><a xlink:href="javascript:s=&quot;\(&quot;\(&#x27;segment&#x27;,\ 0\),\ &#x27;centre_of&#x27;,\ &#x27;axle_tube&#x27;,\ rh=1,\ normal_segment=&#x27;foot_base&#x27;&quot;,\ &#x27;coords&#x27;,\ &#x27;y_arrow&#x27;\)\nArrow&quot;; console.log(s); alert(s);" xlink:title="Arrow">
<ellipse fill="none" stroke="black" cx="882.79" cy="-180" rx="40.89" ry="18"/>
<text text-anchor="middle" x="882.79" y="-176.3" font-family="Times New Roman,serif" font-size="14.00">y_arrow</text>
</a>
</g>
</g>
<!-- coords_31&#45;&gt;y_arrow_36 -->
<g id="edge35" class="edge">
<title>coords_31&#45;&gt;y_arrow_36</title>
<path fill="none" stroke="black" d="M771.2,-223.07C791.56,-215.14 819.37,-204.31 842.02,-195.49"/>
<polygon fill="black" stroke="black" points="843.32,-198.74 851.37,-191.85 840.78,-192.22 843.32,-198.74"/>
</g>
<!-- z_arrow_39 -->
<g id="node39" class="node">
<title>z_arrow_39</title>
<g id="a_node39"><a xlink:href="javascript:s=&quot;\(&quot;\(&#x27;segment&#x27;,\ 0\),\ &#x27;centre_of&#x27;,\ &#x27;axle_tube&#x27;,\ rh=1,\ normal_segment=&#x27;foot_base&#x27;&quot;,\ &#x27;coords&#x27;,\ &#x27;z_arrow&#x27;\)\nArrow&quot;; console.log(s); alert(s);" xlink:title="Arrow">
<ellipse fill="none" stroke="black" cx="882.79" cy="-72" rx="40.09" ry="18"/>
<text text-anchor="middle" x="882.79" y="-68.3" font-family="Times New Roman,serif" font-size="14.00">z_arrow</text>
</a>
</g>
</g>
<!-- coords_31&#45;&gt;z_arrow_39 -->
<g id="edge38" class="edge">
<title>coords_31&#45;&gt;z_arrow_39</title>
<path fill="none" stroke="black" d="M773.04,-224.39C783.02,-220.17 793.68,-214.45 801.94,-207 811.05,-198.79 846.91,-135.23 867.34,-98.32"/>
<polygon fill="black" stroke="black" points="870.4,-100.01 872.17,-89.56 864.27,-96.63 870.4,-100.01"/>
</g>
<!-- stem_34 -->
<g id="node34" class="node">
<title>stem_34</title>
<g id="a_node34"><a xlink:href="javascript:s=&quot;\(&quot;\(&#x27;segment&#x27;,\ 0\),\ &#x27;centre_of&#x27;,\ &#x27;axle_tube&#x27;,\ rh=1,\ normal_segment=&#x27;foot_base&#x27;&quot;,\ &#x27;coords&#x27;,\ &#x27;x_arrow&#x27;,\ &#x27;stem&#x27;\)\nCone&quot;; console.log(s); alert(s);" xlink:title="Cone">
<ellipse fill="none" stroke="black" cx="991.58" cy="-288" rx="27.9" ry="18"/>
<text text-anchor="middle" x="991.58" y="-284.3" font-family="Times New Roman,serif" font-size="14.00">stem</text>
</a>
</g>
</g>
<!-- x_arrow_33&#45;&gt;stem_34 -->
<g id="edge33" class="edge">
<title>x_arrow_33&#45;&gt;stem_34</title>
<path fill="none" stroke="black" d="M910.46,-247.49C925.4,-255.04 944.1,-264.5 959.67,-272.37"/>
<polygon fill="black" stroke="black" points="958.4,-275.65 968.91,-277.04 961.56,-269.4 958.4,-275.65"/>
</g>
<!-- head_35 -->
<g id="node35" class="node">
<title>head_35</title>
<g id="a_node35"><a xlink:href="javascript:s=&quot;\(&quot;\(&#x27;segment&#x27;,\ 0\),\ &#x27;centre_of&#x27;,\ &#x27;axle_tube&#x27;,\ rh=1,\ normal_segment=&#x27;foot_base&#x27;&quot;,\ &#x27;coords&#x27;,\ &#x27;x_arrow&#x27;,\ &#x27;head&#x27;\)\nCone&quot;; console.log(s); alert(s);" xlink:title="Cone">
<ellipse fill="none" stroke="black" cx="991.58" cy="-234" rx="27.9" ry="18"/>
<text text-anchor="middle" x="991.58" y="-230.3" font-family="Times New Roman,serif" font-size="14.00">head</text>
</a>
</g>
</g>
<!-- x_arrow_33&#45;&gt;head_35 -->
<g id="edge34" class="edge">
<title>x_arrow_33&#45;&gt;head_35</title>
<path fill="none" stroke="black" d="M923.86,-234C933.59,-234 943.96,-234 953.55,-234"/>
<polygon fill="black" stroke="black" points="953.58,-237.5 963.58,-234 953.58,-230.5 953.58,-237.5"/>
</g>
<!-- stem_37 -->
<g id="node37" class="node">
<title>stem_37</title>
<g id="a_node37"><a xlink:href="javascript:s=&quot;\(&quot;\(&#x27;segment&#x27;,\ 0\),\ &#x27;centre_of&#x27;,\ &#x27;axle_tube&#x27;,\ rh=1,\ normal_segment=&#x27;foot_base&#x27;&quot;,\ &#x27;coords&#x27;,\ &#x27;y_arrow&#x27;,\ &#x27;stem&#x27;\)\nCone&quot;; console.log(s); alert(s);" xlink:title="Cone">
<ellipse fill="none" stroke="black" cx="991.58" cy="-180" rx="27.9" ry="18"/>
<text text-anchor="middle" x="991.58" y="-176.3" font-family="Times New Roman,serif" font-size="14.00">stem</text>
</a>
</g>
</g>
<!-- y_arrow_36&#45;&gt;stem_37 -->
<g id="edge36" class="edge">
<title>y_arrow_36&#45;&gt;stem_37</title>
<path fill="none" stroke="black" d="M923.86,-180C933.59,-180 943.96,-180 953.55,-180"/>
<polygon fill="black" stroke="black" points="953.58,-183.5 963.58,-180 953.58,-176.5 953.58,-183.5"/>
</g>
<!-- head_38 -->
<g id="node38" class="node">
<title>head_38</title>
<g id="a_node38"><a xlink:href="javascript:s=&quot;\(&quot;\(&#x27;segment&#x27;,\ 0\),\ &#x27;centre_of&#x27;,\ &#x27;axle_tube&#x27;,\ rh=1,\ normal_segment=&#x27;foot_base&#x27;&quot;,\ &#x27;coords&#x27;,\ &#x27;y_arrow&#x27;,\ &#x27;head&#x27;\)\nCone&quot;; console.log(s); alert(s);" xlink:title="Cone">
<ellipse fill="none" stroke="black" cx="991.58" cy="-126" rx="27.9" ry="18"/>
<text text-anchor="middle" x="991.58" y="-122.3" font-family="Times New Roman,serif" font-size="14.00">head</text>
</a>
</g>
</g>
<!-- y_arrow_36&#45;&gt;head_38 -->
<g id="edge37" class="edge">
<title>y_arrow_36&#45;&gt;head_38</title>
<path fill="none" stroke="black" d="M910.46,-166.51C925.4,-158.96 944.1,-149.5 959.67,-141.63"/>
<polygon fill="black" stroke="black" points="961.56,-144.6 968.91,-136.96 958.4,-138.35 961.56,-144.6"/>
</g>
<!-- stem_40 -->
<g id="node40" class="node">
<title>stem_40</title>
<g id="a_node40"><a xlink:href="javascript:s=&quot;\(&quot;\(&#x27;segment&#x27;,\ 0\),\ &#x27;centre_of&#x27;,\ &#x27;axle_tube&#x27;,\ rh=1,\ normal_segment=&#x27;foot_base&#x27;&quot;,\ &#x27;coords&#x27;,\ &#x27;z_arrow&#x27;,\ &#x27;stem&#x27;\)\nCone&quot;; console.log(s); alert(s);" xlink:title="Cone">
<ellipse fill="none" stroke="black" cx="991.58" cy="-72" rx="27.9" ry="18"/>
<text text-anchor="middle" x="991.58" y="-68.3" font-family="Times New Roman,serif" font-size="14.00">stem</text>
</a>
</g>
</g>
<!-- z_arrow_39&#45;&gt;stem_40 -->
<g id="edge39" class="edge">
<title>z_arrow_39&#45;&gt;stem_40</title>
<path fill="none" stroke="black" d="M923.25,-72C933.11,-72 943.65,-72 953.4,-72"/>
<polygon fill="black" stroke="black" points="953.59,-75.5 963.59,-72 953.59,-68.5 953.59,-75.5"/>
</g>
<!-- head_41 -->
<g id="node41" class="node">
<title>head_41</title>
<g id="a_node41"><a xlink:href="javascript:s=&quot;\(&quot;\(&#x27;segment&#x27;,\ 0\),\ &#x27;centre_of&#x27;,\ &#x27;axle_tube&#x27;,\ rh=1,\ normal_segment=&#x27;foot_base&#x27;&quot;,\ &#x27;coords&#x27;,\ &#x27;z_arrow&#x27;,\ &#x27;head&#x27;\)\nCone&quot;; console.log(s); alert(s);" xlink:title="Cone">
<ellipse fill="none" stroke="black" cx="991.58" cy="-18" rx="27.9" ry="18"/>
<text text-anchor="middle" x="991.58" y="-14.3" font-family="Times New Roman,serif" font-size="14.00">head</text>
</a>
</g>
</g>
<!-- z_arrow_39&#45;&gt;head_41 -->
<g id="edge40" class="edge">
<title>z_arrow_39&#45;&gt;head_41</title>
<path fill="none" stroke="black" d="M910.18,-58.65C925.22,-51.05 944.14,-41.48 959.84,-33.54"/>
<polygon fill="black" stroke="black" points="961.8,-36.48 969.14,-28.84 958.64,-30.23 961.8,-36.48"/>
</g>
</g>
</svg>
