<?xml version="1.0" encoding="UTF-8" standalone="no"?>
<!DOCTYPE svg PUBLIC "-//W3C//DTD SVG 1.1//EN"
 "http://www.w3.org/Graphics/SVG/1.1/DTD/svg11.dtd">
<!-- Generated by graphviz version 5.0.0 (20220707.1540)
 -->
<!-- Title: default Pages: 1 -->
<svg width="848pt" height="638pt"
 viewBox="0.00 0.00 847.75 638.00" xmlns="http://www.w3.org/2000/svg" xmlns:xlink="http://www.w3.org/1999/xlink">
<g id="graph0" class="graph" transform="scale(1 1) rotate(0) translate(4 634)">
<title>default</title>
<polygon fill="white" stroke="transparent" points="-4,4 -4,-634 843.75,-634 843.75,4 -4,4"/>
<!-- root_109 -->
<g id="node1" class="node">
<title>root_109</title>
<g id="a_node1"><a xlink:href="javascript:s=&quot;\(\)\nNone&quot;; console.log(s); alert(s);" xlink:title="root">
<ellipse fill="none" stroke="black" cx="27" cy="-274" rx="27" ry="18"/>
<text text-anchor="middle" x="27" y="-270.3" font-family="Times New Roman,serif" font-size="14.00">root</text>
</a>
</g>
</g>
<!-- default_110 -->
<g id="node2" class="node">
<title>default_110</title>
<g id="a_node2"><a xlink:href="javascript:s=&quot;\(&#x27;default&#x27;,\)\nButtonForTactileSwitch&quot;; console.log(s); alert(s);" xlink:title="ButtonForTactileSwitch">
<ellipse fill="none" stroke="black" cx="125.1" cy="-274" rx="35.19" ry="18"/>
<text text-anchor="middle" x="125.1" y="-270.3" font-family="Times New Roman,serif" font-size="14.00">default</text>
</a>
</g>
</g>
<!-- root_109&#45;&gt;default_110 -->
<g id="edge1" class="edge">
<title>root_109&#45;&gt;default_110</title>
<path fill="none" stroke="black" d="M54.01,-274C61.92,-274 70.84,-274 79.61,-274"/>
<polygon fill="black" stroke="black" points="79.76,-277.5 89.76,-274 79.76,-270.5 79.76,-277.5"/>
</g>
<!-- body_111 -->
<g id="node3" class="node">
<title>body_111</title>
<g id="a_node3"><a xlink:href="javascript:s=&quot;\(&#x27;default&#x27;,\ &#x27;body&#x27;\)\nButtonBody&quot;; console.log(s); alert(s);" xlink:title="ButtonBody">
<ellipse fill="none" stroke="black" cx="250.14" cy="-477" rx="29.8" ry="18"/>
<text text-anchor="middle" x="250.14" y="-473.3" font-family="Times New Roman,serif" font-size="14.00">body</text>
</a>
</g>
</g>
<!-- default_110&#45;&gt;body_111 -->
<g id="edge2" class="edge">
<title>default_110&#45;&gt;body_111</title>
<path fill="none" stroke="black" d="M136.59,-291.31C158.25,-327.05 208.04,-409.19 233.51,-451.21"/>
<polygon fill="black" stroke="black" points="230.67,-453.28 238.85,-460.02 236.66,-449.66 230.67,-453.28"/>
</g>
<!-- switch_hole_122 -->
<g id="node14" class="node">
<title>switch_hole_122</title>
<g id="a_node14"><a xlink:href="javascript:s=&quot;\(&#x27;default&#x27;,\ &#x27;switch_hole&#x27;\)\nTactileSwitchOutline&quot;; console.log(s); alert(s);" xlink:title="TactileSwitchOutline">
<ellipse fill="none" stroke="black" cx="250.14" cy="-126" rx="53.89" ry="18"/>
<text text-anchor="middle" x="250.14" y="-122.3" font-family="Times New Roman,serif" font-size="14.00">switch_hole</text>
</a>
</g>
</g>
<!-- default_110&#45;&gt;switch_hole_122 -->
<g id="edge13" class="edge">
<title>default_110&#45;&gt;switch_hole_122</title>
<path fill="none" stroke="black" d="M139.73,-257.6C161.12,-231.87 202.72,-181.83 228.01,-151.41"/>
<polygon fill="black" stroke="black" points="230.98,-153.32 234.68,-143.39 225.6,-148.84 230.98,-153.32"/>
</g>
<!-- cage_112 -->
<g id="node4" class="node">
<title>cage_112</title>
<g id="a_node4"><a xlink:href="javascript:s=&quot;\(&#x27;default&#x27;,\ &#x27;body&#x27;,\ &#x27;cage&#x27;\)\nCylinder&quot;; console.log(s); alert(s);" xlink:title="Cylinder">
<ellipse fill="none" stroke="black" cx="430.43" cy="-612" rx="27.1" ry="18"/>
<text text-anchor="middle" x="430.43" y="-608.3" font-family="Times New Roman,serif" font-size="14.00">cage</text>
</a>
</g>
</g>
<!-- body_111&#45;&gt;cage_112 -->
<g id="edge3" class="edge">
<title>body_111&#45;&gt;cage_112</title>
<path fill="none" stroke="black" d="M260.62,-493.89C274.83,-517.7 303.9,-560.89 340.08,-585 355.94,-595.56 376.08,-602.12 393.23,-606.12"/>
<polygon fill="black" stroke="black" points="392.94,-609.64 403.45,-608.3 394.39,-602.79 392.94,-609.64"/>
</g>
<!-- plate_cage_113 -->
<g id="node5" class="node">
<title>plate_cage_113</title>
<g id="a_node5"><a xlink:href="javascript:s=&quot;\(&#x27;default&#x27;,\ &#x27;body&#x27;,\ &#x27;plate_cage&#x27;\)\nCylinder&quot;; console.log(s); alert(s);" xlink:title="Cylinder">
<ellipse fill="none" stroke="black" cx="430.43" cy="-558" rx="49.29" ry="18"/>
<text text-anchor="middle" x="430.43" y="-554.3" font-family="Times New Roman,serif" font-size="14.00">plate_cage</text>
</a>
</g>
</g>
<!-- body_111&#45;&gt;plate_cage_113 -->
<g id="edge4" class="edge">
<title>body_111&#45;&gt;plate_cage_113</title>
<path fill="none" stroke="black" d="M270.15,-490.49C287.65,-502.43 314.68,-519.67 340.08,-531 352.47,-536.52 366.3,-541.32 379.31,-545.28"/>
<polygon fill="black" stroke="black" points="378.48,-548.68 389.06,-548.13 380.45,-541.96 378.48,-548.68"/>
</g>
<!-- rim_plate_cage_114 -->
<g id="node6" class="node">
<title>rim_plate_cage_114</title>
<g id="a_node6"><a xlink:href="javascript:s=&quot;\(&#x27;default&#x27;,\ &#x27;body&#x27;,\ &#x27;rim_plate_cage&#x27;\)\nCylinder&quot;; console.log(s); alert(s);" xlink:title="Cylinder">
<ellipse fill="none" stroke="black" cx="430.43" cy="-504" rx="65.79" ry="18"/>
<text text-anchor="middle" x="430.43" y="-500.3" font-family="Times New Roman,serif" font-size="14.00">rim_plate_cage</text>
</a>
</g>
</g>
<!-- body_111&#45;&gt;rim_plate_cage_114 -->
<g id="edge5" class="edge">
<title>body_111&#45;&gt;rim_plate_cage_114</title>
<path fill="none" stroke="black" d="M279.39,-481.28C301.7,-484.66 333.75,-489.51 362.51,-493.87"/>
<polygon fill="black" stroke="black" points="362.12,-497.35 372.53,-495.38 363.16,-490.43 362.12,-497.35"/>
</g>
<!-- body_115 -->
<g id="node7" class="node">
<title>body_115</title>
<g id="a_node7"><a xlink:href="javascript:s=&quot;\(&#x27;default&#x27;,\ &#x27;body&#x27;,\ &#x27;body&#x27;\)\nRotateExtrude&quot;; console.log(s); alert(s);" xlink:title="RotateExtrude">
<ellipse fill="none" stroke="black" cx="430.43" cy="-450" rx="29.8" ry="18"/>
<text text-anchor="middle" x="430.43" y="-446.3" font-family="Times New Roman,serif" font-size="14.00">body</text>
</a>
</g>
</g>
<!-- body_111&#45;&gt;body_115 -->
<g id="edge6" class="edge">
<title>body_111&#45;&gt;body_115</title>
<path fill="none" stroke="black" d="M279.39,-472.72C309.64,-468.14 357.82,-460.84 391.39,-455.76"/>
<polygon fill="black" stroke="black" points="391.95,-459.22 401.31,-454.26 390.9,-452.3 391.95,-459.22"/>
</g>
<!-- body_wings_116 -->
<g id="node8" class="node">
<title>body_wings_116</title>
<g id="a_node8"><a xlink:href="javascript:s=&quot;\(&#x27;default&#x27;,\ &#x27;body&#x27;,\ &#x27;body_wings&#x27;\)\nButtonWings&quot;; console.log(s); alert(s);" xlink:title="ButtonWings">
<ellipse fill="none" stroke="black" cx="430.43" cy="-396" rx="55.79" ry="18"/>
<text text-anchor="middle" x="430.43" y="-392.3" font-family="Times New Roman,serif" font-size="14.00">body_wings</text>
</a>
</g>
</g>
<!-- body_111&#45;&gt;body_wings_116 -->
<g id="edge7" class="edge">
<title>body_111&#45;&gt;body_wings_116</title>
<path fill="none" stroke="black" d="M270.15,-463.51C287.65,-451.57 314.68,-434.33 340.08,-423 351.3,-418 363.7,-413.59 375.61,-409.87"/>
<polygon fill="black" stroke="black" points="376.89,-413.14 385.46,-406.9 374.87,-406.43 376.89,-413.14"/>
</g>
<!-- cage_117 -->
<g id="node9" class="node">
<title>cage_117</title>
<g id="a_node9"><a xlink:href="javascript:s=&quot;\(&#x27;default&#x27;,\ &#x27;body&#x27;,\ &#x27;body_wings&#x27;,\ &#x27;cage&#x27;\)\nCylinder&quot;; console.log(s); alert(s);" xlink:title="Cylinder">
<ellipse fill="none" stroke="black" cx="641.26" cy="-531" rx="27.1" ry="18"/>
<text text-anchor="middle" x="641.26" y="-527.3" font-family="Times New Roman,serif" font-size="14.00">cage</text>
</a>
</g>
</g>
<!-- body_wings_116&#45;&gt;cage_117 -->
<g id="edge8" class="edge">
<title>body_wings_116&#45;&gt;cage_117</title>
<path fill="none" stroke="black" d="M482.08,-403.3C495.86,-407.29 509.96,-413.46 520.77,-423 550.31,-449.07 527.48,-477.65 556.77,-504 569.77,-515.7 587.91,-522.34 603.96,-526.1"/>
<polygon fill="black" stroke="black" points="603.64,-529.6 614.13,-528.18 605.04,-522.75 603.64,-529.6"/>
</g>
<!-- wing_118 -->
<g id="node10" class="node">
<title>wing_118</title>
<g id="a_node10"><a xlink:href="javascript:s=&quot;\(&#x27;default&#x27;,\ &#x27;body&#x27;,\ &#x27;body_wings&#x27;,\ \(&#x27;wing&#x27;,\ 0\)\)\nRotateExtrude&quot;; console.log(s); alert(s);" xlink:title="RotateExtrude">
<ellipse fill="none" stroke="black" cx="641.26" cy="-477" rx="46.59" ry="18"/>
<text text-anchor="middle" x="641.26" y="-473.3" font-family="Times New Roman,serif" font-size="14.00">(&#39;wing&#39;, 0)</text>
</a>
</g>
</g>
<!-- body_wings_116&#45;&gt;wing_118 -->
<g id="edge9" class="edge">
<title>body_wings_116&#45;&gt;wing_118</title>
<path fill="none" stroke="black" d="M476.69,-406.36C491.19,-410.54 507.03,-416.05 520.77,-423 538.61,-432.03 539.01,-440.8 556.77,-450 567.65,-455.64 579.94,-460.4 591.68,-464.28"/>
<polygon fill="black" stroke="black" points="590.78,-467.67 601.37,-467.33 592.88,-460.99 590.78,-467.67"/>
</g>
<!-- wing_119 -->
<g id="node11" class="node">
<title>wing_119</title>
<g id="a_node11"><a xlink:href="javascript:s=&quot;\(&#x27;default&#x27;,\ &#x27;body&#x27;,\ &#x27;body_wings&#x27;,\ \(&#x27;wing&#x27;,\ 1\)\)\nRotateExtrude&quot;; console.log(s); alert(s);" xlink:title="RotateExtrude">
<ellipse fill="none" stroke="black" cx="641.26" cy="-423" rx="46.59" ry="18"/>
<text text-anchor="middle" x="641.26" y="-419.3" font-family="Times New Roman,serif" font-size="14.00">(&#39;wing&#39;, 1)</text>
</a>
</g>
</g>
<!-- body_wings_116&#45;&gt;wing_119 -->
<g id="edge10" class="edge">
<title>body_wings_116&#45;&gt;wing_119</title>
<path fill="none" stroke="black" d="M482.51,-402.6C514.11,-406.69 554.62,-411.93 586.67,-416.07"/>
<polygon fill="black" stroke="black" points="586.39,-419.56 596.76,-417.38 587.29,-412.62 586.39,-419.56"/>
</g>
<!-- wing_120 -->
<g id="node12" class="node">
<title>wing_120</title>
<g id="a_node12"><a xlink:href="javascript:s=&quot;\(&#x27;default&#x27;,\ &#x27;body&#x27;,\ &#x27;body_wings&#x27;,\ \(&#x27;wing&#x27;,\ 2\)\)\nRotateExtrude&quot;; console.log(s); alert(s);" xlink:title="RotateExtrude">
<ellipse fill="none" stroke="black" cx="641.26" cy="-369" rx="46.59" ry="18"/>
<text text-anchor="middle" x="641.26" y="-365.3" font-family="Times New Roman,serif" font-size="14.00">(&#39;wing&#39;, 2)</text>
</a>
</g>
</g>
<!-- body_wings_116&#45;&gt;wing_120 -->
<g id="edge11" class="edge">
<title>body_wings_116&#45;&gt;wing_120</title>
<path fill="none" stroke="black" d="M482.51,-389.4C514.11,-385.31 554.62,-380.07 586.67,-375.93"/>
<polygon fill="black" stroke="black" points="587.29,-379.38 596.76,-374.62 586.39,-372.44 587.29,-379.38"/>
</g>
<!-- wing_121 -->
<g id="node13" class="node">
<title>wing_121</title>
<g id="a_node13"><a xlink:href="javascript:s=&quot;\(&#x27;default&#x27;,\ &#x27;body&#x27;,\ &#x27;body_wings&#x27;,\ \(&#x27;wing&#x27;,\ 3\)\)\nRotateExtrude&quot;; console.log(s); alert(s);" xlink:title="RotateExtrude">
<ellipse fill="none" stroke="black" cx="641.26" cy="-315" rx="46.59" ry="18"/>
<text text-anchor="middle" x="641.26" y="-311.3" font-family="Times New Roman,serif" font-size="14.00">(&#39;wing&#39;, 3)</text>
</a>
</g>
</g>
<!-- body_wings_116&#45;&gt;wing_121 -->
<g id="edge12" class="edge">
<title>body_wings_116&#45;&gt;wing_121</title>
<path fill="none" stroke="black" d="M463.29,-381.29C488.42,-369.92 524.5,-354.14 556.77,-342 568.81,-337.47 581.99,-332.99 594.24,-329.02"/>
<polygon fill="black" stroke="black" points="595.38,-332.34 603.84,-325.96 593.25,-325.67 595.38,-332.34"/>
</g>
<!-- switch_123 -->
<g id="node15" class="node">
<title>switch_123</title>
<g id="a_node15"><a xlink:href="javascript:s=&quot;\(&#x27;default&#x27;,\ &#x27;switch_hole&#x27;,\ &#x27;switch&#x27;\)\nTactileSwitchTL59&quot;; console.log(s); alert(s);" xlink:title="TactileSwitchTL59">
<ellipse fill="none" stroke="black" cx="430.43" cy="-180" rx="34.39" ry="18"/>
<text text-anchor="middle" x="430.43" y="-176.3" font-family="Times New Roman,serif" font-size="14.00">switch</text>
</a>
</g>
</g>
<!-- switch_hole_122&#45;&gt;switch_123 -->
<g id="edge14" class="edge">
<title>switch_hole_122&#45;&gt;switch_123</title>
<path fill="none" stroke="black" d="M290.54,-137.97C305.99,-142.66 323.87,-148.09 340.08,-153 356.49,-157.97 374.6,-163.45 390.2,-168.16"/>
<polygon fill="black" stroke="black" points="389.46,-171.59 400.05,-171.13 391.49,-164.89 389.46,-171.59"/>
</g>
<!-- lead_hole_shape_131 -->
<g id="node23" class="node">
<title>lead_hole_shape_131</title>
<g id="a_node23"><a xlink:href="javascript:s=&quot;\(&#x27;default&#x27;,\ &#x27;switch_hole&#x27;,\ \(&#x27;lead_hole_shape&#x27;,\ 0\)\)\nCylinder&quot;; console.log(s); alert(s);" xlink:title="Cylinder">
<ellipse fill="none" stroke="black" cx="430.43" cy="-126" rx="90.18" ry="18"/>
<text text-anchor="middle" x="430.43" y="-122.3" font-family="Times New Roman,serif" font-size="14.00">(&#39;lead_hole_shape&#39;, 0)</text>
</a>
</g>
</g>
<!-- switch_hole_122&#45;&gt;lead_hole_shape_131 -->
<g id="edge22" class="edge">
<title>switch_hole_122&#45;&gt;lead_hole_shape_131</title>
<path fill="none" stroke="black" d="M304.15,-126C312.35,-126 321.05,-126 329.88,-126"/>
<polygon fill="black" stroke="black" points="329.89,-129.5 339.89,-126 329.89,-122.5 329.89,-129.5"/>
</g>
<!-- lead_hole_shape_132 -->
<g id="node24" class="node">
<title>lead_hole_shape_132</title>
<g id="a_node24"><a xlink:href="javascript:s=&quot;\(&#x27;default&#x27;,\ &#x27;switch_hole&#x27;,\ \(&#x27;lead_hole_shape&#x27;,\ 1\)\)\nCylinder&quot;; console.log(s); alert(s);" xlink:title="Cylinder">
<ellipse fill="none" stroke="black" cx="430.43" cy="-72" rx="90.18" ry="18"/>
<text text-anchor="middle" x="430.43" y="-68.3" font-family="Times New Roman,serif" font-size="14.00">(&#39;lead_hole_shape&#39;, 1)</text>
</a>
</g>
</g>
<!-- switch_hole_122&#45;&gt;lead_hole_shape_132 -->
<g id="edge23" class="edge">
<title>switch_hole_122&#45;&gt;lead_hole_shape_132</title>
<path fill="none" stroke="black" d="M290.54,-114.03C305.99,-109.34 323.87,-103.91 340.08,-99 349.74,-96.08 359.98,-92.98 369.95,-89.96"/>
<polygon fill="black" stroke="black" points="371.24,-93.23 379.8,-86.98 369.22,-86.53 371.24,-93.23"/>
</g>
<!-- push_hole_shape_133 -->
<g id="node25" class="node">
<title>push_hole_shape_133</title>
<g id="a_node25"><a xlink:href="javascript:s=&quot;\(&#x27;default&#x27;,\ &#x27;switch_hole&#x27;,\ &#x27;push_hole_shape&#x27;\)\nCylinder&quot;; console.log(s); alert(s);" xlink:title="Cylinder">
<ellipse fill="none" stroke="black" cx="430.43" cy="-18" rx="74.19" ry="18"/>
<text text-anchor="middle" x="430.43" y="-14.3" font-family="Times New Roman,serif" font-size="14.00">push_hole_shape</text>
</a>
</g>
</g>
<!-- switch_hole_122&#45;&gt;push_hole_shape_133 -->
<g id="edge24" class="edge">
<title>switch_hole_122&#45;&gt;push_hole_shape_133</title>
<path fill="none" stroke="black" d="M265.8,-108.68C282.17,-90.39 310.29,-61.9 340.08,-45 348.05,-40.48 356.86,-36.64 365.75,-33.4"/>
<polygon fill="black" stroke="black" points="367.05,-36.65 375.39,-30.11 364.79,-30.02 367.05,-36.65"/>
</g>
<!-- body_124 -->
<g id="node16" class="node">
<title>body_124</title>
<g id="a_node16"><a xlink:href="javascript:s=&quot;\(&#x27;default&#x27;,\ &#x27;switch_hole&#x27;,\ &#x27;switch&#x27;,\ &#x27;body&#x27;\)\nBox&quot;; console.log(s); alert(s);" xlink:title="Box">
<ellipse fill="none" stroke="black" cx="641.26" cy="-261" rx="29.8" ry="18"/>
<text text-anchor="middle" x="641.26" y="-257.3" font-family="Times New Roman,serif" font-size="14.00">body</text>
</a>
</g>
</g>
<!-- switch_123&#45;&gt;body_124 -->
<g id="edge15" class="edge">
<title>switch_123&#45;&gt;body_124</title>
<path fill="none" stroke="black" d="M457.06,-191.89C482.2,-203.34 521.73,-220.82 556.77,-234 572.18,-239.8 589.45,-245.51 604.28,-250.18"/>
<polygon fill="black" stroke="black" points="603.5,-253.6 614.09,-253.23 605.58,-246.92 603.5,-253.6"/>
</g>
<!-- shaft_125 -->
<g id="node17" class="node">
<title>shaft_125</title>
<g id="a_node17"><a xlink:href="javascript:s=&quot;\(&#x27;default&#x27;,\ &#x27;switch_hole&#x27;,\ &#x27;switch&#x27;,\ &#x27;shaft&#x27;\)\nCone&quot;; console.log(s); alert(s);" xlink:title="Cone">
<ellipse fill="none" stroke="black" cx="641.26" cy="-207" rx="28.7" ry="18"/>
<text text-anchor="middle" x="641.26" y="-203.3" font-family="Times New Roman,serif" font-size="14.00">shaft</text>
</a>
</g>
</g>
<!-- switch_123&#45;&gt;shaft_125 -->
<g id="edge16" class="edge">
<title>switch_123&#45;&gt;shaft_125</title>
<path fill="none" stroke="black" d="M464.06,-184.22C501.76,-189.09 563.65,-197.1 603.15,-202.2"/>
<polygon fill="black" stroke="black" points="602.81,-205.69 613.17,-203.5 603.7,-198.74 602.81,-205.69"/>
</g>
<!-- lead_pos_cage_126 -->
<g id="node18" class="node">
<title>lead_pos_cage_126</title>
<g id="a_node18"><a xlink:href="javascript:s=&quot;\(&#x27;default&#x27;,\ &#x27;switch_hole&#x27;,\ &#x27;switch&#x27;,\ \(&#x27;lead_pos_cage&#x27;,\ 0\)\)\nBox&quot;; console.log(s); alert(s);" xlink:title="Box">
<ellipse fill="none" stroke="black" cx="641.26" cy="-153" rx="84.49" ry="18"/>
<text text-anchor="middle" x="641.26" y="-149.3" font-family="Times New Roman,serif" font-size="14.00">(&#39;lead_pos_cage&#39;, 0)</text>
</a>
</g>
</g>
<!-- switch_123&#45;&gt;lead_pos_cage_126 -->
<g id="edge17" class="edge">
<title>switch_123&#45;&gt;lead_pos_cage_126</title>
<path fill="none" stroke="black" d="M464.06,-175.78C489.32,-172.52 525.45,-167.84 558.42,-163.58"/>
<polygon fill="black" stroke="black" points="559.07,-167.03 568.54,-162.27 558.17,-160.08 559.07,-167.03"/>
</g>
<!-- lead_127 -->
<g id="node19" class="node">
<title>lead_127</title>
<g id="a_node19"><a xlink:href="javascript:s=&quot;\(&#x27;default&#x27;,\ &#x27;switch_hole&#x27;,\ &#x27;switch&#x27;,\ \(&#x27;lead&#x27;,\ 1\)\)\nTactileSwitchTL59Lead&quot;; console.log(s); alert(s);" xlink:title="TactileSwitchTL59Lead">
<ellipse fill="none" stroke="black" cx="641.26" cy="-99" rx="44.39" ry="18"/>
<text text-anchor="middle" x="641.26" y="-95.3" font-family="Times New Roman,serif" font-size="14.00">(&#39;lead&#39;, 1)</text>
</a>
</g>
</g>
<!-- switch_123&#45;&gt;lead_127 -->
<g id="edge18" class="edge">
<title>switch_123&#45;&gt;lead_127</title>
<path fill="none" stroke="black" d="M462.63,-173.42C480.28,-169.01 502.41,-162.29 520.77,-153 538.61,-143.97 539.01,-135.2 556.77,-126 568.19,-120.08 581.16,-115.13 593.41,-111.15"/>
<polygon fill="black" stroke="black" points="594.52,-114.47 603.04,-108.17 592.45,-107.78 594.52,-114.47"/>
</g>
<!-- lead_129 -->
<g id="node21" class="node">
<title>lead_129</title>
<g id="a_node21"><a xlink:href="javascript:s=&quot;\(&#x27;default&#x27;,\ &#x27;switch_hole&#x27;,\ &#x27;switch&#x27;,\ \(&#x27;lead&#x27;,\ 2\)\)\nTactileSwitchTL59Lead&quot;; console.log(s); alert(s);" xlink:title="TactileSwitchTL59Lead">
<ellipse fill="none" stroke="black" cx="641.26" cy="-45" rx="44.39" ry="18"/>
<text text-anchor="middle" x="641.26" y="-41.3" font-family="Times New Roman,serif" font-size="14.00">(&#39;lead&#39;, 2)</text>
</a>
</g>
</g>
<!-- switch_123&#45;&gt;lead_129 -->
<g id="edge20" class="edge">
<title>switch_123&#45;&gt;lead_129</title>
<path fill="none" stroke="black" d="M464.43,-176.79C482.88,-173.47 505.22,-166.72 520.77,-153 550.31,-126.93 527.48,-98.35 556.77,-72 565.97,-63.72 577.74,-57.98 589.52,-53.99"/>
<polygon fill="black" stroke="black" points="590.79,-57.27 599.37,-51.04 588.78,-50.56 590.79,-57.27"/>
</g>
<!-- terminal_128 -->
<g id="node20" class="node">
<title>terminal_128</title>
<g id="a_node20"><a xlink:href="javascript:s=&quot;\(&#x27;default&#x27;,\ &#x27;switch_hole&#x27;,\ &#x27;switch&#x27;,\ \(&#x27;lead&#x27;,\ 1\),\ &#x27;terminal&#x27;\)\nBox&quot;; console.log(s); alert(s);" xlink:title="Box">
<ellipse fill="none" stroke="black" cx="800.75" cy="-99" rx="38.99" ry="18"/>
<text text-anchor="middle" x="800.75" y="-95.3" font-family="Times New Roman,serif" font-size="14.00">terminal</text>
</a>
</g>
</g>
<!-- lead_127&#45;&gt;terminal_128 -->
<g id="edge19" class="edge">
<title>lead_127&#45;&gt;terminal_128</title>
<path fill="none" stroke="black" d="M685.71,-99C706.04,-99 730.33,-99 751.25,-99"/>
<polygon fill="black" stroke="black" points="751.53,-102.5 761.53,-99 751.53,-95.5 751.53,-102.5"/>
</g>
<!-- terminal_130 -->
<g id="node22" class="node">
<title>terminal_130</title>
<g id="a_node22"><a xlink:href="javascript:s=&quot;\(&#x27;default&#x27;,\ &#x27;switch_hole&#x27;,\ &#x27;switch&#x27;,\ \(&#x27;lead&#x27;,\ 2\),\ &#x27;terminal&#x27;\)\nBox&quot;; console.log(s); alert(s);" xlink:title="Box">
<ellipse fill="none" stroke="black" cx="800.75" cy="-45" rx="38.99" ry="18"/>
<text text-anchor="middle" x="800.75" y="-41.3" font-family="Times New Roman,serif" font-size="14.00">terminal</text>
</a>
</g>
</g>
<!-- lead_129&#45;&gt;terminal_130 -->
<g id="edge21" class="edge">
<title>lead_129&#45;&gt;terminal_130</title>
<path fill="none" stroke="black" d="M685.71,-45C706.04,-45 730.33,-45 751.25,-45"/>
<polygon fill="black" stroke="black" points="751.53,-48.5 761.53,-45 751.53,-41.5 751.53,-48.5"/>
</g>
</g>
</svg>
