<?xml version="1.0" encoding="UTF-8" standalone="no"?>
<!DOCTYPE svg PUBLIC "-//W3C//DTD SVG 1.1//EN"
 "http://www.w3.org/Graphics/SVG/1.1/DTD/svg11.dtd">
<!-- Generated by graphviz version 5.0.0 (20220707.1540)
 -->
<!-- Title: example2_cap Pages: 1 -->
<svg width="584pt" height="260pt"
 viewBox="0.00 0.00 583.67 260.00" xmlns="http://www.w3.org/2000/svg" xmlns:xlink="http://www.w3.org/1999/xlink">
<g id="graph0" class="graph" transform="scale(1 1) rotate(0) translate(4 256)">
<title>example2_cap</title>
<polygon fill="white" stroke="transparent" points="-4,4 -4,-256 579.67,-256 579.67,4 -4,4"/>
<!-- root_134 -->
<g id="node1" class="node">
<title>root_134</title>
<g id="a_node1"><a xlink:href="javascript:s=&quot;\(\)\nNone&quot;; console.log(s); alert(s);" xlink:title="root">
<ellipse fill="none" stroke="black" cx="27" cy="-180" rx="27" ry="18"/>
<text text-anchor="middle" x="27" y="-176.3" font-family="Times New Roman,serif" font-size="14.00">root</text>
</a>
</g>
</g>
<!-- example2_cap_135 -->
<g id="node2" class="node">
<title>example2_cap_135</title>
<g id="a_node2"><a xlink:href="javascript:s=&quot;\(&#x27;example2_cap&#x27;,\)\nButtonForTactileSwitch&quot;; console.log(s); alert(s);" xlink:title="ButtonForTactileSwitch">
<ellipse fill="none" stroke="black" cx="153.04" cy="-180" rx="63.09" ry="18"/>
<text text-anchor="middle" x="153.04" y="-176.3" font-family="Times New Roman,serif" font-size="14.00">example2_cap</text>
</a>
</g>
</g>
<!-- root_134&#45;&gt;example2_cap_135 -->
<g id="edge1" class="edge">
<title>root_134&#45;&gt;example2_cap_135</title>
<path fill="none" stroke="black" d="M54,-180C61.73,-180 70.59,-180 79.76,-180"/>
<polygon fill="black" stroke="black" points="79.79,-183.5 89.79,-180 79.79,-176.5 79.79,-183.5"/>
</g>
<!-- cap_136 -->
<g id="node3" class="node">
<title>cap_136</title>
<g id="a_node3"><a xlink:href="javascript:s=&quot;\(&#x27;example2_cap&#x27;,\ &#x27;cap&#x27;\)\nButtonCap&quot;; console.log(s); alert(s);" xlink:title="ButtonCap">
<ellipse fill="none" stroke="black" cx="279.09" cy="-180" rx="27" ry="18"/>
<text text-anchor="middle" x="279.09" y="-176.3" font-family="Times New Roman,serif" font-size="14.00">cap</text>
</a>
</g>
</g>
<!-- example2_cap_135&#45;&gt;cap_136 -->
<g id="edge2" class="edge">
<title>example2_cap_135&#45;&gt;cap_136</title>
<path fill="none" stroke="black" d="M216.43,-180C225.16,-180 233.87,-180 241.89,-180"/>
<polygon fill="black" stroke="black" points="241.96,-183.5 251.96,-180 241.96,-176.5 241.96,-183.5"/>
</g>
<!-- cage_137 -->
<g id="node4" class="node">
<title>cage_137</title>
<g id="a_node4"><a xlink:href="javascript:s=&quot;\(&#x27;example2_cap&#x27;,\ &#x27;cap&#x27;,\ &#x27;cage&#x27;\)\nCylinder&quot;; console.log(s); alert(s);" xlink:title="Cylinder">
<ellipse fill="none" stroke="black" cx="394.08" cy="-234" rx="27.1" ry="18"/>
<text text-anchor="middle" x="394.08" y="-230.3" font-family="Times New Roman,serif" font-size="14.00">cage</text>
</a>
</g>
</g>
<!-- cap_136&#45;&gt;cage_137 -->
<g id="edge3" class="edge">
<title>cap_136&#45;&gt;cage_137</title>
<path fill="none" stroke="black" d="M301.61,-190.28C318.7,-198.45 342.83,-209.98 362.02,-219.15"/>
<polygon fill="black" stroke="black" points="360.73,-222.42 371.26,-223.57 363.75,-216.1 360.73,-222.42"/>
</g>
<!-- button_cap_138 -->
<g id="node5" class="node">
<title>button_cap_138</title>
<g id="a_node5"><a xlink:href="javascript:s=&quot;\(&#x27;example2_cap&#x27;,\ &#x27;cap&#x27;,\ &#x27;button_cap&#x27;\)\nRotateExtrude&quot;; console.log(s); alert(s);" xlink:title="RotateExtrude">
<ellipse fill="none" stroke="black" cx="394.08" cy="-180" rx="51.99" ry="18"/>
<text text-anchor="middle" x="394.08" y="-176.3" font-family="Times New Roman,serif" font-size="14.00">button_cap</text>
</a>
</g>
</g>
<!-- cap_136&#45;&gt;button_cap_138 -->
<g id="edge4" class="edge">
<title>cap_136&#45;&gt;button_cap_138</title>
<path fill="none" stroke="black" d="M306.3,-180C313.97,-180 322.7,-180 331.6,-180"/>
<polygon fill="black" stroke="black" points="331.67,-183.5 341.67,-180 331.67,-176.5 331.67,-183.5"/>
</g>
<!-- cap_wings_139 -->
<g id="node6" class="node">
<title>cap_wings_139</title>
<g id="a_node6"><a xlink:href="javascript:s=&quot;\(&#x27;example2_cap&#x27;,\ &#x27;cap&#x27;,\ &#x27;cap_wings&#x27;\)\nButtonWings&quot;; console.log(s); alert(s);" xlink:title="ButtonWings">
<ellipse fill="none" stroke="black" cx="394.08" cy="-126" rx="50.09" ry="18"/>
<text text-anchor="middle" x="394.08" y="-122.3" font-family="Times New Roman,serif" font-size="14.00">cap_wings</text>
</a>
</g>
</g>
<!-- cap_136&#45;&gt;cap_wings_139 -->
<g id="edge5" class="edge">
<title>cap_136&#45;&gt;cap_wings_139</title>
<path fill="none" stroke="black" d="M301.61,-169.72C316.3,-162.69 336.2,-153.18 353.69,-144.83"/>
<polygon fill="black" stroke="black" points="355.6,-147.79 363.11,-140.32 352.58,-141.48 355.6,-147.79"/>
</g>
<!-- cage_140 -->
<g id="node7" class="node">
<title>cage_140</title>
<g id="a_node7"><a xlink:href="javascript:s=&quot;\(&#x27;example2_cap&#x27;,\ &#x27;cap&#x27;,\ &#x27;cap_wings&#x27;,\ &#x27;cage&#x27;\)\nCylinder&quot;; console.log(s); alert(s);" xlink:title="Cylinder">
<ellipse fill="none" stroke="black" cx="528.88" cy="-234" rx="27.1" ry="18"/>
<text text-anchor="middle" x="528.88" y="-230.3" font-family="Times New Roman,serif" font-size="14.00">cage</text>
</a>
</g>
</g>
<!-- cap_wings_139&#45;&gt;cage_140 -->
<g id="edge6" class="edge">
<title>cap_wings_139&#45;&gt;cage_140</title>
<path fill="none" stroke="black" d="M426.89,-139.7C433.64,-143.44 440.43,-147.9 446.08,-153 467.48,-172.34 461.13,-187.18 482.08,-207 486.55,-211.23 491.79,-215.08 497.1,-218.47"/>
<polygon fill="black" stroke="black" points="495.6,-221.65 505.99,-223.72 499.16,-215.62 495.6,-221.65"/>
</g>
<!-- wing_141 -->
<g id="node8" class="node">
<title>wing_141</title>
<g id="a_node8"><a xlink:href="javascript:s=&quot;\(&#x27;example2_cap&#x27;,\ &#x27;cap&#x27;,\ &#x27;cap_wings&#x27;,\ \(&#x27;wing&#x27;,\ 0\)\)\nRotateExtrude&quot;; console.log(s); alert(s);" xlink:title="RotateExtrude">
<ellipse fill="none" stroke="black" cx="528.88" cy="-180" rx="46.59" ry="18"/>
<text text-anchor="middle" x="528.88" y="-176.3" font-family="Times New Roman,serif" font-size="14.00">(&#39;wing&#39;, 0)</text>
</a>
</g>
</g>
<!-- cap_wings_139&#45;&gt;wing_141 -->
<g id="edge7" class="edge">
<title>cap_wings_139&#45;&gt;wing_141</title>
<path fill="none" stroke="black" d="M427.91,-139.35C445.65,-146.56 467.73,-155.54 486.62,-163.22"/>
<polygon fill="black" stroke="black" points="485.3,-166.47 495.89,-166.99 487.94,-159.98 485.3,-166.47"/>
</g>
<!-- wing_142 -->
<g id="node9" class="node">
<title>wing_142</title>
<g id="a_node9"><a xlink:href="javascript:s=&quot;\(&#x27;example2_cap&#x27;,\ &#x27;cap&#x27;,\ &#x27;cap_wings&#x27;,\ \(&#x27;wing&#x27;,\ 1\)\)\nRotateExtrude&quot;; console.log(s); alert(s);" xlink:title="RotateExtrude">
<ellipse fill="none" stroke="black" cx="528.88" cy="-126" rx="46.59" ry="18"/>
<text text-anchor="middle" x="528.88" y="-122.3" font-family="Times New Roman,serif" font-size="14.00">(&#39;wing&#39;, 1)</text>
</a>
</g>
</g>
<!-- cap_wings_139&#45;&gt;wing_142 -->
<g id="edge8" class="edge">
<title>cap_wings_139&#45;&gt;wing_142</title>
<path fill="none" stroke="black" d="M444.15,-126C453.06,-126 462.42,-126 471.52,-126"/>
<polygon fill="black" stroke="black" points="471.65,-129.5 481.65,-126 471.65,-122.5 471.65,-129.5"/>
</g>
<!-- wing_143 -->
<g id="node10" class="node">
<title>wing_143</title>
<g id="a_node10"><a xlink:href="javascript:s=&quot;\(&#x27;example2_cap&#x27;,\ &#x27;cap&#x27;,\ &#x27;cap_wings&#x27;,\ \(&#x27;wing&#x27;,\ 2\)\)\nRotateExtrude&quot;; console.log(s); alert(s);" xlink:title="RotateExtrude">
<ellipse fill="none" stroke="black" cx="528.88" cy="-72" rx="46.59" ry="18"/>
<text text-anchor="middle" x="528.88" y="-68.3" font-family="Times New Roman,serif" font-size="14.00">(&#39;wing&#39;, 2)</text>
</a>
</g>
</g>
<!-- cap_wings_139&#45;&gt;wing_143 -->
<g id="edge9" class="edge">
<title>cap_wings_139&#45;&gt;wing_143</title>
<path fill="none" stroke="black" d="M427.91,-112.65C445.65,-105.44 467.73,-96.46 486.62,-88.78"/>
<polygon fill="black" stroke="black" points="487.94,-92.02 495.89,-85.01 485.3,-85.53 487.94,-92.02"/>
</g>
<!-- wing_144 -->
<g id="node11" class="node">
<title>wing_144</title>
<g id="a_node11"><a xlink:href="javascript:s=&quot;\(&#x27;example2_cap&#x27;,\ &#x27;cap&#x27;,\ &#x27;cap_wings&#x27;,\ \(&#x27;wing&#x27;,\ 3\)\)\nRotateExtrude&quot;; console.log(s); alert(s);" xlink:title="RotateExtrude">
<ellipse fill="none" stroke="black" cx="528.88" cy="-18" rx="46.59" ry="18"/>
<text text-anchor="middle" x="528.88" y="-14.3" font-family="Times New Roman,serif" font-size="14.00">(&#39;wing&#39;, 3)</text>
</a>
</g>
</g>
<!-- cap_wings_139&#45;&gt;wing_144 -->
<g id="edge10" class="edge">
<title>cap_wings_139&#45;&gt;wing_144</title>
<path fill="none" stroke="black" d="M411.13,-109.03C427.91,-91.79 455.45,-64.87 482.08,-45 485.23,-42.64 488.61,-40.33 492.04,-38.09"/>
<polygon fill="black" stroke="black" points="493.97,-41.02 500.61,-32.76 490.27,-35.07 493.97,-41.02"/>
</g>
</g>
</svg>
