<?xml version="1.0" encoding="UTF-8" standalone="no"?>
<!DOCTYPE svg PUBLIC "-//W3C//DTD SVG 1.1//EN"
 "http://www.w3.org/Graphics/SVG/1.1/DTD/svg11.dtd">
<!-- Generated by graphviz version 5.0.0 (20220707.1540)
 -->
<!-- Title: default Pages: 1 -->
<svg width="560pt" height="1002pt"
 viewBox="0.00 0.00 559.57 1002.00" xmlns="http://www.w3.org/2000/svg" xmlns:xlink="http://www.w3.org/1999/xlink">
<g id="graph0" class="graph" transform="scale(1 1) rotate(0) translate(4 998)">
<title>default</title>
<polygon fill="white" stroke="transparent" points="-4,4 -4,-998 555.57,-998 555.57,4 -4,4"/>
<!-- root_64 -->
<g id="node1" class="node">
<title>root_64</title>
<g id="a_node1"><a xlink:href="javascript:s=&quot;\(\)\nNone&quot;; console.log(s); alert(s);" xlink:title="root">
<ellipse fill="none" stroke="black" cx="27" cy="-409" rx="27" ry="18"/>
<text text-anchor="middle" x="27" y="-405.3" font-family="Times New Roman,serif" font-size="14.00">root</text>
</a>
</g>
</g>
<!-- default_65 -->
<g id="node2" class="node">
<title>default_65</title>
<g id="a_node2"><a xlink:href="javascript:s=&quot;\(&#x27;default&#x27;,\)\nButtonBody&quot;; console.log(s); alert(s);" xlink:title="ButtonBody">
<ellipse fill="none" stroke="black" cx="126.4" cy="-841" rx="35.19" ry="18"/>
<text text-anchor="middle" x="126.4" y="-837.3" font-family="Times New Roman,serif" font-size="14.00">default</text>
</a>
</g>
</g>
<!-- root_64&#45;&gt;default_65 -->
<g id="edge1" class="edge">
<title>root_64&#45;&gt;default_65</title>
<path fill="none" stroke="black" d="M32,-426.74C47.09,-493.67 100.64,-731.18 119.09,-813.03"/>
<polygon fill="black" stroke="black" points="115.7,-813.89 121.31,-822.87 122.52,-812.35 115.7,-813.89"/>
</g>
<!-- 77 -->
<g id="node14" class="node">
<title>77</title>
<g id="a_node14"><a xlink:href="javascript:s=&quot;\(&quot;&#x27;base&#x27;,\ &quot;,\)\nAnnotatedCoordinates&quot;; console.log(s); alert(s);" xlink:title="AnnotatedCoordinates">
<ellipse fill="none" stroke="black" cx="126.4" cy="-409" rx="36.29" ry="18"/>
<text text-anchor="middle" x="126.4" y="-405.3" font-family="Times New Roman,serif" font-size="14.00">&#39;base&#39;, </text>
</a>
</g>
</g>
<!-- root_64&#45;&gt;77 -->
<g id="edge13" class="edge">
<title>root_64&#45;&gt;77</title>
<path fill="none" stroke="black" d="M54.1,-409C61.96,-409 70.82,-409 79.56,-409"/>
<polygon fill="black" stroke="black" points="79.7,-412.5 89.7,-409 79.7,-405.5 79.7,-412.5"/>
</g>
<!-- 93 -->
<g id="node30" class="node">
<title>93</title>
<g id="a_node30"><a xlink:href="javascript:s=&quot;\(&quot;&#x27;plate&#x27;,\ &quot;,\)\nAnnotatedCoordinates&quot;; console.log(s); alert(s);" xlink:title="AnnotatedCoordinates">
<ellipse fill="none" stroke="black" cx="126.4" cy="-153" rx="36.29" ry="18"/>
<text text-anchor="middle" x="126.4" y="-149.3" font-family="Times New Roman,serif" font-size="14.00">&#39;plate&#39;, </text>
</a>
</g>
</g>
<!-- root_64&#45;&gt;93 -->
<g id="edge29" class="edge">
<title>root_64&#45;&gt;93</title>
<path fill="none" stroke="black" d="M34.69,-391.4C51.41,-347.47 95.07,-232.71 115.09,-180.08"/>
<polygon fill="black" stroke="black" points="118.37,-181.31 118.66,-170.72 111.83,-178.82 118.37,-181.31"/>
</g>
<!-- cage_66 -->
<g id="node3" class="node">
<title>cage_66</title>
<g id="a_node3"><a xlink:href="javascript:s=&quot;\(&#x27;default&#x27;,\ &#x27;cage&#x27;\)\nCylinder&quot;; console.log(s); alert(s);" xlink:title="Cylinder">
<ellipse fill="none" stroke="black" cx="264.44" cy="-976" rx="27.1" ry="18"/>
<text text-anchor="middle" x="264.44" y="-972.3" font-family="Times New Roman,serif" font-size="14.00">cage</text>
</a>
</g>
</g>
<!-- default_65&#45;&gt;cage_66 -->
<g id="edge2" class="edge">
<title>default_65&#45;&gt;cage_66</title>
<path fill="none" stroke="black" d="M135.03,-858.66C146,-882.19 168.31,-923.78 198.79,-949 207.69,-956.36 218.88,-961.97 229.44,-966.13"/>
<polygon fill="black" stroke="black" points="228.28,-969.43 238.87,-969.54 230.65,-962.84 228.28,-969.43"/>
</g>
<!-- plate_cage_67 -->
<g id="node4" class="node">
<title>plate_cage_67</title>
<g id="a_node4"><a xlink:href="javascript:s=&quot;\(&#x27;default&#x27;,\ &#x27;plate_cage&#x27;\)\nCylinder&quot;; console.log(s); alert(s);" xlink:title="Cylinder">
<ellipse fill="none" stroke="black" cx="264.44" cy="-922" rx="49.29" ry="18"/>
<text text-anchor="middle" x="264.44" y="-918.3" font-family="Times New Roman,serif" font-size="14.00">plate_cage</text>
</a>
</g>
</g>
<!-- default_65&#45;&gt;plate_cage_67 -->
<g id="edge3" class="edge">
<title>default_65&#45;&gt;plate_cage_67</title>
<path fill="none" stroke="black" d="M145.01,-856.32C158.94,-867.94 179.26,-883.77 198.79,-895 205.25,-898.71 212.31,-902.19 219.32,-905.33"/>
<polygon fill="black" stroke="black" points="218.21,-908.67 228.78,-909.41 220.98,-902.24 218.21,-908.67"/>
</g>
<!-- rim_plate_cage_68 -->
<g id="node5" class="node">
<title>rim_plate_cage_68</title>
<g id="a_node5"><a xlink:href="javascript:s=&quot;\(&#x27;default&#x27;,\ &#x27;rim_plate_cage&#x27;\)\nCylinder&quot;; console.log(s); alert(s);" xlink:title="Cylinder">
<ellipse fill="none" stroke="black" cx="264.44" cy="-868" rx="65.79" ry="18"/>
<text text-anchor="middle" x="264.44" y="-864.3" font-family="Times New Roman,serif" font-size="14.00">rim_plate_cage</text>
</a>
</g>
</g>
<!-- default_65&#45;&gt;rim_plate_cage_68 -->
<g id="edge4" class="edge">
<title>default_65&#45;&gt;rim_plate_cage_68</title>
<path fill="none" stroke="black" d="M159.29,-847.33C171.74,-849.8 186.45,-852.72 200.84,-855.58"/>
<polygon fill="black" stroke="black" points="200.23,-859.02 210.72,-857.54 201.59,-852.16 200.23,-859.02"/>
</g>
<!-- body_69 -->
<g id="node6" class="node">
<title>body_69</title>
<g id="a_node6"><a xlink:href="javascript:s=&quot;\(&#x27;default&#x27;,\ &#x27;body&#x27;\)\nRotateExtrude&quot;; console.log(s); alert(s);" xlink:title="RotateExtrude">
<ellipse fill="none" stroke="black" cx="264.44" cy="-814" rx="29.8" ry="18"/>
<text text-anchor="middle" x="264.44" y="-810.3" font-family="Times New Roman,serif" font-size="14.00">body</text>
</a>
</g>
</g>
<!-- default_65&#45;&gt;body_69 -->
<g id="edge5" class="edge">
<title>default_65&#45;&gt;body_69</title>
<path fill="none" stroke="black" d="M159.29,-834.67C179.27,-830.7 205.1,-825.58 226.04,-821.42"/>
<polygon fill="black" stroke="black" points="226.75,-824.85 235.88,-819.47 225.39,-817.98 226.75,-824.85"/>
</g>
<!-- body_wings_70 -->
<g id="node7" class="node">
<title>body_wings_70</title>
<g id="a_node7"><a xlink:href="javascript:s=&quot;\(&#x27;default&#x27;,\ &#x27;body_wings&#x27;\)\nButtonWings&quot;; console.log(s); alert(s);" xlink:title="ButtonWings">
<ellipse fill="none" stroke="black" cx="264.44" cy="-760" rx="55.79" ry="18"/>
<text text-anchor="middle" x="264.44" y="-756.3" font-family="Times New Roman,serif" font-size="14.00">body_wings</text>
</a>
</g>
</g>
<!-- default_65&#45;&gt;body_wings_70 -->
<g id="edge6" class="edge">
<title>default_65&#45;&gt;body_wings_70</title>
<path fill="none" stroke="black" d="M145.01,-825.68C158.94,-814.06 179.26,-798.23 198.79,-787 204.67,-783.62 211.06,-780.43 217.45,-777.51"/>
<polygon fill="black" stroke="black" points="219.01,-780.65 226.76,-773.43 216.2,-774.24 219.01,-780.65"/>
</g>
<!-- cage_71 -->
<g id="node8" class="node">
<title>cage_71</title>
<g id="a_node8"><a xlink:href="javascript:s=&quot;\(&#x27;default&#x27;,\ &#x27;body_wings&#x27;,\ &#x27;cage&#x27;\)\nCylinder&quot;; console.log(s); alert(s);" xlink:title="Cylinder">
<ellipse fill="none" stroke="black" cx="412.88" cy="-922" rx="27.1" ry="18"/>
<text text-anchor="middle" x="412.88" y="-918.3" font-family="Times New Roman,serif" font-size="14.00">cage</text>
</a>
</g>
</g>
<!-- body_wings_70&#45;&gt;cage_71 -->
<g id="edge7" class="edge">
<title>body_wings_70&#45;&gt;cage_71</title>
<path fill="none" stroke="black" d="M307.71,-771.54C315.97,-775.37 323.96,-780.41 330.08,-787 364.51,-824.07 334.27,-855.65 366.08,-895 369.95,-899.78 374.9,-903.9 380.12,-907.38"/>
<polygon fill="black" stroke="black" points="378.61,-910.56 389,-912.64 382.18,-904.53 378.61,-910.56"/>
</g>
<!-- wing_72 -->
<g id="node9" class="node">
<title>wing_72</title>
<g id="a_node9"><a xlink:href="javascript:s=&quot;\(&#x27;default&#x27;,\ &#x27;body_wings&#x27;,\ \(&#x27;wing&#x27;,\ 0\)\)\nRotateExtrude&quot;; console.log(s); alert(s);" xlink:title="RotateExtrude">
<ellipse fill="none" stroke="black" cx="412.88" cy="-868" rx="46.59" ry="18"/>
<text text-anchor="middle" x="412.88" y="-864.3" font-family="Times New Roman,serif" font-size="14.00">(&#39;wing&#39;, 0)</text>
</a>
</g>
</g>
<!-- body_wings_70&#45;&gt;wing_72 -->
<g id="edge8" class="edge">
<title>body_wings_70&#45;&gt;wing_72</title>
<path fill="none" stroke="black" d="M305.45,-772.41C314.13,-776.23 322.85,-781.04 330.08,-787 352.34,-805.34 345.13,-821.18 366.08,-841 368.79,-843.56 371.78,-845.99 374.9,-848.25"/>
<polygon fill="black" stroke="black" points="373.09,-851.25 383.35,-853.88 376.96,-845.42 373.09,-851.25"/>
</g>
<!-- wing_73 -->
<g id="node10" class="node">
<title>wing_73</title>
<g id="a_node10"><a xlink:href="javascript:s=&quot;\(&#x27;default&#x27;,\ &#x27;body_wings&#x27;,\ \(&#x27;wing&#x27;,\ 1\)\)\nRotateExtrude&quot;; console.log(s); alert(s);" xlink:title="RotateExtrude">
<ellipse fill="none" stroke="black" cx="412.88" cy="-814" rx="46.59" ry="18"/>
<text text-anchor="middle" x="412.88" y="-810.3" font-family="Times New Roman,serif" font-size="14.00">(&#39;wing&#39;, 1)</text>
</a>
</g>
</g>
<!-- body_wings_70&#45;&gt;wing_73 -->
<g id="edge9" class="edge">
<title>body_wings_70&#45;&gt;wing_73</title>
<path fill="none" stroke="black" d="M302.01,-773.49C322.29,-780.96 347.62,-790.3 368.84,-798.13"/>
<polygon fill="black" stroke="black" points="367.68,-801.43 378.27,-801.61 370.1,-794.86 367.68,-801.43"/>
</g>
<!-- wing_74 -->
<g id="node11" class="node">
<title>wing_74</title>
<g id="a_node11"><a xlink:href="javascript:s=&quot;\(&#x27;default&#x27;,\ &#x27;body_wings&#x27;,\ \(&#x27;wing&#x27;,\ 2\)\)\nRotateExtrude&quot;; console.log(s); alert(s);" xlink:title="RotateExtrude">
<ellipse fill="none" stroke="black" cx="412.88" cy="-760" rx="46.59" ry="18"/>
<text text-anchor="middle" x="412.88" y="-756.3" font-family="Times New Roman,serif" font-size="14.00">(&#39;wing&#39;, 2)</text>
</a>
</g>
</g>
<!-- body_wings_70&#45;&gt;wing_74 -->
<g id="edge10" class="edge">
<title>body_wings_70&#45;&gt;wing_74</title>
<path fill="none" stroke="black" d="M320.38,-760C331.93,-760 344.13,-760 355.72,-760"/>
<polygon fill="black" stroke="black" points="355.73,-763.5 365.73,-760 355.73,-756.5 355.73,-763.5"/>
</g>
<!-- wing_75 -->
<g id="node12" class="node">
<title>wing_75</title>
<g id="a_node12"><a xlink:href="javascript:s=&quot;\(&#x27;default&#x27;,\ &#x27;body_wings&#x27;,\ \(&#x27;wing&#x27;,\ 3\)\)\nRotateExtrude&quot;; console.log(s); alert(s);" xlink:title="RotateExtrude">
<ellipse fill="none" stroke="black" cx="412.88" cy="-706" rx="46.59" ry="18"/>
<text text-anchor="middle" x="412.88" y="-702.3" font-family="Times New Roman,serif" font-size="14.00">(&#39;wing&#39;, 3)</text>
</a>
</g>
</g>
<!-- body_wings_70&#45;&gt;wing_75 -->
<g id="edge11" class="edge">
<title>body_wings_70&#45;&gt;wing_75</title>
<path fill="none" stroke="black" d="M302.01,-746.51C322.29,-739.04 347.62,-729.7 368.84,-721.87"/>
<polygon fill="black" stroke="black" points="370.1,-725.14 378.27,-718.39 367.68,-718.57 370.1,-725.14"/>
</g>
<!-- wing_76 -->
<g id="node13" class="node">
<title>wing_76</title>
<g id="a_node13"><a xlink:href="javascript:s=&quot;\(&#x27;default&#x27;,\ &#x27;body_wings&#x27;,\ \(&#x27;wing&#x27;,\ 4\)\)\nRotateExtrude&quot;; console.log(s); alert(s);" xlink:title="RotateExtrude">
<ellipse fill="none" stroke="black" cx="412.88" cy="-652" rx="46.59" ry="18"/>
<text text-anchor="middle" x="412.88" y="-648.3" font-family="Times New Roman,serif" font-size="14.00">(&#39;wing&#39;, 4)</text>
</a>
</g>
</g>
<!-- body_wings_70&#45;&gt;wing_76 -->
<g id="edge12" class="edge">
<title>body_wings_70&#45;&gt;wing_76</title>
<path fill="none" stroke="black" d="M284.83,-742.98C304.63,-725.95 336.57,-699.42 366.08,-679 369.4,-676.7 372.93,-674.4 376.49,-672.17"/>
<polygon fill="black" stroke="black" points="378.6,-674.98 385.31,-666.78 374.95,-669 378.6,-674.98"/>
</g>
<!-- coords_78 -->
<g id="node15" class="node">
<title>coords_78</title>
<g id="a_node15"><a xlink:href="javascript:s=&quot;\(&quot;&#x27;base&#x27;,\ &quot;,\ &#x27;coords&#x27;\)\nCoordinates&quot;; console.log(s); alert(s);" xlink:title="Coordinates">
<ellipse fill="none" stroke="black" cx="264.44" cy="-517" rx="36.29" ry="18"/>
<text text-anchor="middle" x="264.44" y="-513.3" font-family="Times New Roman,serif" font-size="14.00">coords</text>
</a>
</g>
</g>
<!-- 77&#45;&gt;coords_78 -->
<g id="edge14" class="edge">
<title>77&#45;&gt;coords_78</title>
<path fill="none" stroke="black" d="M138.99,-426.25C151.81,-444.23 173.96,-472.2 198.79,-490 206.26,-495.35 214.95,-499.9 223.5,-503.65"/>
<polygon fill="black" stroke="black" points="222.42,-506.99 233,-507.54 225.08,-500.51 222.42,-506.99"/>
</g>
<!-- x_89 -->
<g id="node26" class="node">
<title>x_89</title>
<g id="a_node26"><a xlink:href="javascript:s=&quot;\(&quot;&#x27;base&#x27;,\ &quot;,\ &#x27;x&#x27;\)\nText&quot;; console.log(s); alert(s);" xlink:title="Text">
<ellipse fill="none" stroke="black" cx="264.44" cy="-463" rx="27" ry="18"/>
<text text-anchor="middle" x="264.44" y="-459.3" font-family="Times New Roman,serif" font-size="14.00">x</text>
</a>
</g>
</g>
<!-- 77&#45;&gt;x_89 -->
<g id="edge25" class="edge">
<title>77&#45;&gt;x_89</title>
<path fill="none" stroke="black" d="M155.25,-420.06C177.29,-428.81 208.09,-441.03 231.2,-450.2"/>
<polygon fill="black" stroke="black" points="229.99,-453.49 240.58,-453.93 232.58,-446.98 229.99,-453.49"/>
</g>
<!-- y_90 -->
<g id="node27" class="node">
<title>y_90</title>
<g id="a_node27"><a xlink:href="javascript:s=&quot;\(&quot;&#x27;base&#x27;,\ &quot;,\ &#x27;y&#x27;\)\nText&quot;; console.log(s); alert(s);" xlink:title="Text">
<ellipse fill="none" stroke="black" cx="264.44" cy="-409" rx="27" ry="18"/>
<text text-anchor="middle" x="264.44" y="-405.3" font-family="Times New Roman,serif" font-size="14.00">y</text>
</a>
</g>
</g>
<!-- 77&#45;&gt;y_90 -->
<g id="edge26" class="edge">
<title>77&#45;&gt;y_90</title>
<path fill="none" stroke="black" d="M163.14,-409C182.89,-409 207.37,-409 227.2,-409"/>
<polygon fill="black" stroke="black" points="227.39,-412.5 237.39,-409 227.39,-405.5 227.39,-412.5"/>
</g>
<!-- z_91 -->
<g id="node28" class="node">
<title>z_91</title>
<g id="a_node28"><a xlink:href="javascript:s=&quot;\(&quot;&#x27;base&#x27;,\ &quot;,\ &#x27;z&#x27;\)\nText&quot;; console.log(s); alert(s);" xlink:title="Text">
<ellipse fill="none" stroke="black" cx="264.44" cy="-355" rx="27" ry="18"/>
<text text-anchor="middle" x="264.44" y="-351.3" font-family="Times New Roman,serif" font-size="14.00">z</text>
</a>
</g>
</g>
<!-- 77&#45;&gt;z_91 -->
<g id="edge27" class="edge">
<title>77&#45;&gt;z_91</title>
<path fill="none" stroke="black" d="M155.25,-397.94C177.29,-389.19 208.09,-376.97 231.2,-367.8"/>
<polygon fill="black" stroke="black" points="232.58,-371.02 240.58,-364.07 229.99,-364.51 232.58,-371.02"/>
</g>
<!-- label_92 -->
<g id="node29" class="node">
<title>label_92</title>
<g id="a_node29"><a xlink:href="javascript:s=&quot;\(&quot;&#x27;base&#x27;,\ &quot;,\ &#x27;label&#x27;\)\nText&quot;; console.log(s); alert(s);" xlink:title="Text">
<ellipse fill="none" stroke="black" cx="264.44" cy="-301" rx="27.1" ry="18"/>
<text text-anchor="middle" x="264.44" y="-297.3" font-family="Times New Roman,serif" font-size="14.00">label</text>
</a>
</g>
</g>
<!-- 77&#45;&gt;label_92 -->
<g id="edge28" class="edge">
<title>77&#45;&gt;label_92</title>
<path fill="none" stroke="black" d="M138.99,-391.75C151.81,-373.77 173.96,-345.8 198.79,-328 208.01,-321.39 219.08,-316.02 229.44,-311.86"/>
<polygon fill="black" stroke="black" points="230.94,-315.03 239.07,-308.23 228.48,-308.48 230.94,-315.03"/>
</g>
<!-- origin_79 -->
<g id="node16" class="node">
<title>origin_79</title>
<g id="a_node16"><a xlink:href="javascript:s=&quot;\(&quot;&#x27;base&#x27;,\ &quot;,\ &#x27;coords&#x27;,\ &#x27;origin&#x27;\)\nCoordinatesCage&quot;; console.log(s); alert(s);" xlink:title="CoordinatesCage">
<ellipse fill="none" stroke="black" cx="412.88" cy="-598" rx="31.4" ry="18"/>
<text text-anchor="middle" x="412.88" y="-594.3" font-family="Times New Roman,serif" font-size="14.00">origin</text>
</a>
</g>
</g>
<!-- coords_78&#45;&gt;origin_79 -->
<g id="edge15" class="edge">
<title>coords_78&#45;&gt;origin_79</title>
<path fill="none" stroke="black" d="M289.29,-530.19C314.19,-543.97 353.36,-565.63 380.7,-580.75"/>
<polygon fill="black" stroke="black" points="379.03,-583.83 389.48,-585.61 382.42,-577.71 379.03,-583.83"/>
</g>
<!-- x_arrow_80 -->
<g id="node17" class="node">
<title>x_arrow_80</title>
<g id="a_node17"><a xlink:href="javascript:s=&quot;\(&quot;&#x27;base&#x27;,\ &quot;,\ &#x27;coords&#x27;,\ &#x27;x_arrow&#x27;\)\nArrow&quot;; console.log(s); alert(s);" xlink:title="Arrow">
<ellipse fill="none" stroke="black" cx="412.88" cy="-544" rx="40.89" ry="18"/>
<text text-anchor="middle" x="412.88" y="-540.3" font-family="Times New Roman,serif" font-size="14.00">x_arrow</text>
</a>
</g>
</g>
<!-- coords_78&#45;&gt;x_arrow_80 -->
<g id="edge16" class="edge">
<title>coords_78&#45;&gt;x_arrow_80</title>
<path fill="none" stroke="black" d="M298.67,-523.13C318.26,-526.74 343.37,-531.37 364.96,-535.35"/>
<polygon fill="black" stroke="black" points="364.45,-538.81 374.92,-537.19 365.72,-531.93 364.45,-538.81"/>
</g>
<!-- y_arrow_83 -->
<g id="node20" class="node">
<title>y_arrow_83</title>
<g id="a_node20"><a xlink:href="javascript:s=&quot;\(&quot;&#x27;base&#x27;,\ &quot;,\ &#x27;coords&#x27;,\ &#x27;y_arrow&#x27;\)\nArrow&quot;; console.log(s); alert(s);" xlink:title="Arrow">
<ellipse fill="none" stroke="black" cx="412.88" cy="-490" rx="40.89" ry="18"/>
<text text-anchor="middle" x="412.88" y="-486.3" font-family="Times New Roman,serif" font-size="14.00">y_arrow</text>
</a>
</g>
</g>
<!-- coords_78&#45;&gt;y_arrow_83 -->
<g id="edge19" class="edge">
<title>coords_78&#45;&gt;y_arrow_83</title>
<path fill="none" stroke="black" d="M298.67,-510.87C318.26,-507.26 343.37,-502.63 364.96,-498.65"/>
<polygon fill="black" stroke="black" points="365.72,-502.07 374.92,-496.81 364.45,-495.19 365.72,-502.07"/>
</g>
<!-- z_arrow_86 -->
<g id="node23" class="node">
<title>z_arrow_86</title>
<g id="a_node23"><a xlink:href="javascript:s=&quot;\(&quot;&#x27;base&#x27;,\ &quot;,\ &#x27;coords&#x27;,\ &#x27;z_arrow&#x27;\)\nArrow&quot;; console.log(s); alert(s);" xlink:title="Arrow">
<ellipse fill="none" stroke="black" cx="412.88" cy="-396" rx="40.09" ry="18"/>
<text text-anchor="middle" x="412.88" y="-392.3" font-family="Times New Roman,serif" font-size="14.00">z_arrow</text>
</a>
</g>
</g>
<!-- coords_78&#45;&gt;z_arrow_86 -->
<g id="edge22" class="edge">
<title>coords_78&#45;&gt;z_arrow_86</title>
<path fill="none" stroke="black" d="M295.9,-507.58C307.23,-503.25 319.83,-497.4 330.08,-490 356.17,-471.17 379.56,-442.48 394.58,-421.76"/>
<polygon fill="black" stroke="black" points="397.56,-423.59 400.48,-413.41 391.85,-419.55 397.56,-423.59"/>
</g>
<!-- stem_81 -->
<g id="node18" class="node">
<title>stem_81</title>
<g id="a_node18"><a xlink:href="javascript:s=&quot;\(&quot;&#x27;base&#x27;,\ &quot;,\ &#x27;coords&#x27;,\ &#x27;x_arrow&#x27;,\ &#x27;stem&#x27;\)\nCone&quot;; console.log(s); alert(s);" xlink:title="Cone">
<ellipse fill="none" stroke="black" cx="523.62" cy="-612" rx="27.9" ry="18"/>
<text text-anchor="middle" x="523.62" y="-608.3" font-family="Times New Roman,serif" font-size="14.00">stem</text>
</a>
</g>
</g>
<!-- x_arrow_80&#45;&gt;stem_81 -->
<g id="edge17" class="edge">
<title>x_arrow_80&#45;&gt;stem_81</title>
<path fill="none" stroke="black" d="M438.72,-558.37C445.55,-562.4 452.93,-566.82 459.67,-571 471.28,-578.19 483.92,-586.36 494.81,-593.5"/>
<polygon fill="black" stroke="black" points="493.2,-596.64 503.48,-599.21 497.05,-590.79 493.2,-596.64"/>
</g>
<!-- head_82 -->
<g id="node19" class="node">
<title>head_82</title>
<g id="a_node19"><a xlink:href="javascript:s=&quot;\(&quot;&#x27;base&#x27;,\ &quot;,\ &#x27;coords&#x27;,\ &#x27;x_arrow&#x27;,\ &#x27;head&#x27;\)\nCone&quot;; console.log(s); alert(s);" xlink:title="Cone">
<ellipse fill="none" stroke="black" cx="523.62" cy="-558" rx="27.9" ry="18"/>
<text text-anchor="middle" x="523.62" y="-554.3" font-family="Times New Roman,serif" font-size="14.00">head</text>
</a>
</g>
</g>
<!-- x_arrow_80&#45;&gt;head_82 -->
<g id="edge18" class="edge">
<title>x_arrow_80&#45;&gt;head_82</title>
<path fill="none" stroke="black" d="M452.52,-548.98C463.44,-550.38 475.28,-551.91 486.07,-553.29"/>
<polygon fill="black" stroke="black" points="485.67,-556.77 496.03,-554.58 486.56,-549.83 485.67,-556.77"/>
</g>
<!-- stem_84 -->
<g id="node21" class="node">
<title>stem_84</title>
<g id="a_node21"><a xlink:href="javascript:s=&quot;\(&quot;&#x27;base&#x27;,\ &quot;,\ &#x27;coords&#x27;,\ &#x27;y_arrow&#x27;,\ &#x27;stem&#x27;\)\nCone&quot;; console.log(s); alert(s);" xlink:title="Cone">
<ellipse fill="none" stroke="black" cx="523.62" cy="-504" rx="27.9" ry="18"/>
<text text-anchor="middle" x="523.62" y="-500.3" font-family="Times New Roman,serif" font-size="14.00">stem</text>
</a>
</g>
</g>
<!-- y_arrow_83&#45;&gt;stem_84 -->
<g id="edge20" class="edge">
<title>y_arrow_83&#45;&gt;stem_84</title>
<path fill="none" stroke="black" d="M452.52,-494.98C463.44,-496.38 475.28,-497.91 486.07,-499.29"/>
<polygon fill="black" stroke="black" points="485.67,-502.77 496.03,-500.58 486.56,-495.83 485.67,-502.77"/>
</g>
<!-- head_85 -->
<g id="node22" class="node">
<title>head_85</title>
<g id="a_node22"><a xlink:href="javascript:s=&quot;\(&quot;&#x27;base&#x27;,\ &quot;,\ &#x27;coords&#x27;,\ &#x27;y_arrow&#x27;,\ &#x27;head&#x27;\)\nCone&quot;; console.log(s); alert(s);" xlink:title="Cone">
<ellipse fill="none" stroke="black" cx="523.62" cy="-450" rx="27.9" ry="18"/>
<text text-anchor="middle" x="523.62" y="-446.3" font-family="Times New Roman,serif" font-size="14.00">head</text>
</a>
</g>
</g>
<!-- y_arrow_83&#45;&gt;head_85 -->
<g id="edge21" class="edge">
<title>y_arrow_83&#45;&gt;head_85</title>
<path fill="none" stroke="black" d="M444.75,-478.64C458.73,-473.5 475.27,-467.42 489.51,-462.18"/>
<polygon fill="black" stroke="black" points="490.76,-465.45 498.94,-458.71 488.34,-458.88 490.76,-465.45"/>
</g>
<!-- stem_87 -->
<g id="node24" class="node">
<title>stem_87</title>
<g id="a_node24"><a xlink:href="javascript:s=&quot;\(&quot;&#x27;base&#x27;,\ &quot;,\ &#x27;coords&#x27;,\ &#x27;z_arrow&#x27;,\ &#x27;stem&#x27;\)\nCone&quot;; console.log(s); alert(s);" xlink:title="Cone">
<ellipse fill="none" stroke="black" cx="523.62" cy="-396" rx="27.9" ry="18"/>
<text text-anchor="middle" x="523.62" y="-392.3" font-family="Times New Roman,serif" font-size="14.00">stem</text>
</a>
</g>
</g>
<!-- z_arrow_86&#45;&gt;stem_87 -->
<g id="edge23" class="edge">
<title>z_arrow_86&#45;&gt;stem_87</title>
<path fill="none" stroke="black" d="M453.44,-396C463.81,-396 474.95,-396 485.2,-396"/>
<polygon fill="black" stroke="black" points="485.49,-399.5 495.49,-396 485.49,-392.5 485.49,-399.5"/>
</g>
<!-- head_88 -->
<g id="node25" class="node">
<title>head_88</title>
<g id="a_node25"><a xlink:href="javascript:s=&quot;\(&quot;&#x27;base&#x27;,\ &quot;,\ &#x27;coords&#x27;,\ &#x27;z_arrow&#x27;,\ &#x27;head&#x27;\)\nCone&quot;; console.log(s); alert(s);" xlink:title="Cone">
<ellipse fill="none" stroke="black" cx="523.62" cy="-342" rx="27.9" ry="18"/>
<text text-anchor="middle" x="523.62" y="-338.3" font-family="Times New Roman,serif" font-size="14.00">head</text>
</a>
</g>
</g>
<!-- z_arrow_86&#45;&gt;head_88 -->
<g id="edge24" class="edge">
<title>z_arrow_86&#45;&gt;head_88</title>
<path fill="none" stroke="black" d="M440.48,-382.79C456.04,-375.06 475.74,-365.28 491.95,-357.23"/>
<polygon fill="black" stroke="black" points="493.64,-360.3 501.04,-352.72 490.52,-354.03 493.64,-360.3"/>
</g>
<!-- coords_94 -->
<g id="node31" class="node">
<title>coords_94</title>
<g id="a_node31"><a xlink:href="javascript:s=&quot;\(&quot;&#x27;plate&#x27;,\ &quot;,\ &#x27;coords&#x27;\)\nCoordinates&quot;; console.log(s); alert(s);" xlink:title="Coordinates">
<ellipse fill="none" stroke="black" cx="264.44" cy="-234" rx="36.29" ry="18"/>
<text text-anchor="middle" x="264.44" y="-230.3" font-family="Times New Roman,serif" font-size="14.00">coords</text>
</a>
</g>
</g>
<!-- 93&#45;&gt;coords_94 -->
<g id="edge30" class="edge">
<title>93&#45;&gt;coords_94</title>
<path fill="none" stroke="black" d="M145.29,-168.56C159.22,-180.16 179.39,-195.85 198.79,-207 207,-211.72 216.2,-216.06 225.02,-219.83"/>
<polygon fill="black" stroke="black" points="223.8,-223.11 234.38,-223.67 226.46,-216.63 223.8,-223.11"/>
</g>
<!-- x_105 -->
<g id="node42" class="node">
<title>x_105</title>
<g id="a_node42"><a xlink:href="javascript:s=&quot;\(&quot;&#x27;plate&#x27;,\ &quot;,\ &#x27;x&#x27;\)\nText&quot;; console.log(s); alert(s);" xlink:title="Text">
<ellipse fill="none" stroke="black" cx="264.44" cy="-180" rx="27" ry="18"/>
<text text-anchor="middle" x="264.44" y="-176.3" font-family="Times New Roman,serif" font-size="14.00">x</text>
</a>
</g>
</g>
<!-- 93&#45;&gt;x_105 -->
<g id="edge41" class="edge">
<title>93&#45;&gt;x_105</title>
<path fill="none" stroke="black" d="M160.33,-159.54C180.78,-163.59 207.06,-168.81 227.96,-172.96"/>
<polygon fill="black" stroke="black" points="227.56,-176.45 238.05,-174.96 228.92,-169.58 227.56,-176.45"/>
</g>
<!-- y_106 -->
<g id="node43" class="node">
<title>y_106</title>
<g id="a_node43"><a xlink:href="javascript:s=&quot;\(&quot;&#x27;plate&#x27;,\ &quot;,\ &#x27;y&#x27;\)\nText&quot;; console.log(s); alert(s);" xlink:title="Text">
<ellipse fill="none" stroke="black" cx="264.44" cy="-126" rx="27" ry="18"/>
<text text-anchor="middle" x="264.44" y="-122.3" font-family="Times New Roman,serif" font-size="14.00">y</text>
</a>
</g>
</g>
<!-- 93&#45;&gt;y_106 -->
<g id="edge42" class="edge">
<title>93&#45;&gt;y_106</title>
<path fill="none" stroke="black" d="M160.33,-146.46C180.78,-142.41 207.06,-137.19 227.96,-133.04"/>
<polygon fill="black" stroke="black" points="228.92,-136.42 238.05,-131.04 227.56,-129.55 228.92,-136.42"/>
</g>
<!-- z_107 -->
<g id="node44" class="node">
<title>z_107</title>
<g id="a_node44"><a xlink:href="javascript:s=&quot;\(&quot;&#x27;plate&#x27;,\ &quot;,\ &#x27;z&#x27;\)\nText&quot;; console.log(s); alert(s);" xlink:title="Text">
<ellipse fill="none" stroke="black" cx="264.44" cy="-72" rx="27" ry="18"/>
<text text-anchor="middle" x="264.44" y="-68.3" font-family="Times New Roman,serif" font-size="14.00">z</text>
</a>
</g>
</g>
<!-- 93&#45;&gt;z_107 -->
<g id="edge43" class="edge">
<title>93&#45;&gt;z_107</title>
<path fill="none" stroke="black" d="M145.29,-137.44C159.22,-125.84 179.39,-110.15 198.79,-99 208.7,-93.31 220.05,-88.15 230.44,-83.91"/>
<polygon fill="black" stroke="black" points="232.01,-87.06 240.03,-80.14 229.44,-80.54 232.01,-87.06"/>
</g>
<!-- label_108 -->
<g id="node45" class="node">
<title>label_108</title>
<g id="a_node45"><a xlink:href="javascript:s=&quot;\(&quot;&#x27;plate&#x27;,\ &quot;,\ &#x27;label&#x27;\)\nText&quot;; console.log(s); alert(s);" xlink:title="Text">
<ellipse fill="none" stroke="black" cx="264.44" cy="-18" rx="27.1" ry="18"/>
<text text-anchor="middle" x="264.44" y="-14.3" font-family="Times New Roman,serif" font-size="14.00">label</text>
</a>
</g>
</g>
<!-- 93&#45;&gt;label_108 -->
<g id="edge44" class="edge">
<title>93&#45;&gt;label_108</title>
<path fill="none" stroke="black" d="M135.03,-135.34C146,-111.81 168.31,-70.22 198.79,-45 207.69,-37.64 218.88,-32.03 229.44,-27.87"/>
<polygon fill="black" stroke="black" points="230.65,-31.16 238.87,-24.46 228.28,-24.57 230.65,-31.16"/>
</g>
<!-- origin_95 -->
<g id="node32" class="node">
<title>origin_95</title>
<g id="a_node32"><a xlink:href="javascript:s=&quot;\(&quot;&#x27;plate&#x27;,\ &quot;,\ &#x27;coords&#x27;,\ &#x27;origin&#x27;\)\nCoordinatesCage&quot;; console.log(s); alert(s);" xlink:title="CoordinatesCage">
<ellipse fill="none" stroke="black" cx="412.88" cy="-288" rx="31.4" ry="18"/>
<text text-anchor="middle" x="412.88" y="-284.3" font-family="Times New Roman,serif" font-size="14.00">origin</text>
</a>
</g>
</g>
<!-- coords_94&#45;&gt;origin_95 -->
<g id="edge31" class="edge">
<title>coords_94&#45;&gt;origin_95</title>
<path fill="none" stroke="black" d="M294.02,-244.54C317.53,-253.21 350.98,-265.54 376.24,-274.86"/>
<polygon fill="black" stroke="black" points="375.23,-278.22 385.82,-278.39 377.65,-271.65 375.23,-278.22"/>
</g>
<!-- x_arrow_96 -->
<g id="node33" class="node">
<title>x_arrow_96</title>
<g id="a_node33"><a xlink:href="javascript:s=&quot;\(&quot;&#x27;plate&#x27;,\ &quot;,\ &#x27;coords&#x27;,\ &#x27;x_arrow&#x27;\)\nArrow&quot;; console.log(s); alert(s);" xlink:title="Arrow">
<ellipse fill="none" stroke="black" cx="412.88" cy="-234" rx="40.89" ry="18"/>
<text text-anchor="middle" x="412.88" y="-230.3" font-family="Times New Roman,serif" font-size="14.00">x_arrow</text>
</a>
</g>
</g>
<!-- coords_94&#45;&gt;x_arrow_96 -->
<g id="edge32" class="edge">
<title>coords_94&#45;&gt;x_arrow_96</title>
<path fill="none" stroke="black" d="M300.89,-234C319.12,-234 341.67,-234 361.66,-234"/>
<polygon fill="black" stroke="black" points="361.85,-237.5 371.85,-234 361.85,-230.5 361.85,-237.5"/>
</g>
<!-- y_arrow_99 -->
<g id="node36" class="node">
<title>y_arrow_99</title>
<g id="a_node36"><a xlink:href="javascript:s=&quot;\(&quot;&#x27;plate&#x27;,\ &quot;,\ &#x27;coords&#x27;,\ &#x27;y_arrow&#x27;\)\nArrow&quot;; console.log(s); alert(s);" xlink:title="Arrow">
<ellipse fill="none" stroke="black" cx="412.88" cy="-180" rx="40.89" ry="18"/>
<text text-anchor="middle" x="412.88" y="-176.3" font-family="Times New Roman,serif" font-size="14.00">y_arrow</text>
</a>
</g>
</g>
<!-- coords_94&#45;&gt;y_arrow_99 -->
<g id="edge35" class="edge">
<title>coords_94&#45;&gt;y_arrow_99</title>
<path fill="none" stroke="black" d="M294.02,-223.46C316.14,-215.3 347.04,-203.91 371.66,-194.83"/>
<polygon fill="black" stroke="black" points="372.92,-198.1 381.09,-191.35 370.5,-191.53 372.92,-198.1"/>
</g>
<!-- z_arrow_102 -->
<g id="node39" class="node">
<title>z_arrow_102</title>
<g id="a_node39"><a xlink:href="javascript:s=&quot;\(&quot;&#x27;plate&#x27;,\ &quot;,\ &#x27;coords&#x27;,\ &#x27;z_arrow&#x27;\)\nArrow&quot;; console.log(s); alert(s);" xlink:title="Arrow">
<ellipse fill="none" stroke="black" cx="412.88" cy="-72" rx="40.09" ry="18"/>
<text text-anchor="middle" x="412.88" y="-68.3" font-family="Times New Roman,serif" font-size="14.00">z_arrow</text>
</a>
</g>
</g>
<!-- coords_94&#45;&gt;z_arrow_102 -->
<g id="edge38" class="edge">
<title>coords_94&#45;&gt;z_arrow_102</title>
<path fill="none" stroke="black" d="M296.61,-225.48C308.03,-221.26 320.5,-215.25 330.08,-207 339.44,-198.94 376.16,-135.32 397.08,-98.36"/>
<polygon fill="black" stroke="black" points="400.16,-100.02 402.03,-89.59 394.07,-96.58 400.16,-100.02"/>
</g>
<!-- stem_97 -->
<g id="node34" class="node">
<title>stem_97</title>
<g id="a_node34"><a xlink:href="javascript:s=&quot;\(&quot;&#x27;plate&#x27;,\ &quot;,\ &#x27;coords&#x27;,\ &#x27;x_arrow&#x27;,\ &#x27;stem&#x27;\)\nCone&quot;; console.log(s); alert(s);" xlink:title="Cone">
<ellipse fill="none" stroke="black" cx="523.62" cy="-288" rx="27.9" ry="18"/>
<text text-anchor="middle" x="523.62" y="-284.3" font-family="Times New Roman,serif" font-size="14.00">stem</text>
</a>
</g>
</g>
<!-- x_arrow_96&#45;&gt;stem_97 -->
<g id="edge33" class="edge">
<title>x_arrow_96&#45;&gt;stem_97</title>
<path fill="none" stroke="black" d="M440.76,-247.35C456.22,-255.02 475.7,-264.7 491.77,-272.68"/>
<polygon fill="black" stroke="black" points="490.28,-275.85 500.79,-277.16 493.39,-269.58 490.28,-275.85"/>
</g>
<!-- head_98 -->
<g id="node35" class="node">
<title>head_98</title>
<g id="a_node35"><a xlink:href="javascript:s=&quot;\(&quot;&#x27;plate&#x27;,\ &quot;,\ &#x27;coords&#x27;,\ &#x27;x_arrow&#x27;,\ &#x27;head&#x27;\)\nCone&quot;; console.log(s); alert(s);" xlink:title="Cone">
<ellipse fill="none" stroke="black" cx="523.62" cy="-234" rx="27.9" ry="18"/>
<text text-anchor="middle" x="523.62" y="-230.3" font-family="Times New Roman,serif" font-size="14.00">head</text>
</a>
</g>
</g>
<!-- x_arrow_96&#45;&gt;head_98 -->
<g id="edge34" class="edge">
<title>x_arrow_96&#45;&gt;head_98</title>
<path fill="none" stroke="black" d="M454.06,-234C464.3,-234 475.26,-234 485.34,-234"/>
<polygon fill="black" stroke="black" points="485.47,-237.5 495.47,-234 485.47,-230.5 485.47,-237.5"/>
</g>
<!-- stem_100 -->
<g id="node37" class="node">
<title>stem_100</title>
<g id="a_node37"><a xlink:href="javascript:s=&quot;\(&quot;&#x27;plate&#x27;,\ &quot;,\ &#x27;coords&#x27;,\ &#x27;y_arrow&#x27;,\ &#x27;stem&#x27;\)\nCone&quot;; console.log(s); alert(s);" xlink:title="Cone">
<ellipse fill="none" stroke="black" cx="523.62" cy="-180" rx="27.9" ry="18"/>
<text text-anchor="middle" x="523.62" y="-176.3" font-family="Times New Roman,serif" font-size="14.00">stem</text>
</a>
</g>
</g>
<!-- y_arrow_99&#45;&gt;stem_100 -->
<g id="edge36" class="edge">
<title>y_arrow_99&#45;&gt;stem_100</title>
<path fill="none" stroke="black" d="M454.06,-180C464.3,-180 475.26,-180 485.34,-180"/>
<polygon fill="black" stroke="black" points="485.47,-183.5 495.47,-180 485.47,-176.5 485.47,-183.5"/>
</g>
<!-- head_101 -->
<g id="node38" class="node">
<title>head_101</title>
<g id="a_node38"><a xlink:href="javascript:s=&quot;\(&quot;&#x27;plate&#x27;,\ &quot;,\ &#x27;coords&#x27;,\ &#x27;y_arrow&#x27;,\ &#x27;head&#x27;\)\nCone&quot;; console.log(s); alert(s);" xlink:title="Cone">
<ellipse fill="none" stroke="black" cx="523.62" cy="-126" rx="27.9" ry="18"/>
<text text-anchor="middle" x="523.62" y="-122.3" font-family="Times New Roman,serif" font-size="14.00">head</text>
</a>
</g>
</g>
<!-- y_arrow_99&#45;&gt;head_101 -->
<g id="edge37" class="edge">
<title>y_arrow_99&#45;&gt;head_101</title>
<path fill="none" stroke="black" d="M440.76,-166.65C456.22,-158.98 475.7,-149.3 491.77,-141.32"/>
<polygon fill="black" stroke="black" points="493.39,-144.42 500.79,-136.84 490.28,-138.15 493.39,-144.42"/>
</g>
<!-- stem_103 -->
<g id="node40" class="node">
<title>stem_103</title>
<g id="a_node40"><a xlink:href="javascript:s=&quot;\(&quot;&#x27;plate&#x27;,\ &quot;,\ &#x27;coords&#x27;,\ &#x27;z_arrow&#x27;,\ &#x27;stem&#x27;\)\nCone&quot;; console.log(s); alert(s);" xlink:title="Cone">
<ellipse fill="none" stroke="black" cx="523.62" cy="-72" rx="27.9" ry="18"/>
<text text-anchor="middle" x="523.62" y="-68.3" font-family="Times New Roman,serif" font-size="14.00">stem</text>
</a>
</g>
</g>
<!-- z_arrow_102&#45;&gt;stem_103 -->
<g id="edge39" class="edge">
<title>z_arrow_102&#45;&gt;stem_103</title>
<path fill="none" stroke="black" d="M453.44,-72C463.81,-72 474.95,-72 485.2,-72"/>
<polygon fill="black" stroke="black" points="485.49,-75.5 495.49,-72 485.49,-68.5 485.49,-75.5"/>
</g>
<!-- head_104 -->
<g id="node41" class="node">
<title>head_104</title>
<g id="a_node41"><a xlink:href="javascript:s=&quot;\(&quot;&#x27;plate&#x27;,\ &quot;,\ &#x27;coords&#x27;,\ &#x27;z_arrow&#x27;,\ &#x27;head&#x27;\)\nCone&quot;; console.log(s); alert(s);" xlink:title="Cone">
<ellipse fill="none" stroke="black" cx="523.62" cy="-18" rx="27.9" ry="18"/>
<text text-anchor="middle" x="523.62" y="-14.3" font-family="Times New Roman,serif" font-size="14.00">head</text>
</a>
</g>
</g>
<!-- z_arrow_102&#45;&gt;head_104 -->
<g id="edge40" class="edge">
<title>z_arrow_102&#45;&gt;head_104</title>
<path fill="none" stroke="black" d="M440.48,-58.79C456.04,-51.06 475.74,-41.28 491.95,-33.23"/>
<polygon fill="black" stroke="black" points="493.64,-36.3 501.04,-28.72 490.52,-30.03 493.64,-36.3"/>
</g>
</g>
</svg>
