<?xml version="1.0" encoding="UTF-8" standalone="no"?>
<!DOCTYPE svg PUBLIC "-//W3C//DTD SVG 1.1//EN"
 "http://www.w3.org/Graphics/SVG/1.1/DTD/svg11.dtd">
<!-- Generated by graphviz version 5.0.0 (20220707.1540)
 -->
<!-- Title: show_cage Pages: 1 -->
<svg width="348pt" height="260pt"
 viewBox="0.00 0.00 348.48 260.00" xmlns="http://www.w3.org/2000/svg" xmlns:xlink="http://www.w3.org/1999/xlink">
<g id="graph0" class="graph" transform="scale(1 1) rotate(0) translate(4 256)">
<title>show_cage</title>
<polygon fill="white" stroke="transparent" points="-4,4 -4,-256 344.48,-256 344.48,4 -4,4"/>
<!-- root_150 -->
<g id="node1" class="node">
<title>root_150</title>
<g id="a_node1"><a xlink:href="javascript:s=&quot;\(\)\nNone&quot;; console.log(s); alert(s);" xlink:title="root">
<ellipse fill="none" stroke="black" cx="27" cy="-126" rx="27" ry="18"/>
<text text-anchor="middle" x="27" y="-122.3" font-family="Times New Roman,serif" font-size="14.00">root</text>
</a>
</g>
</g>
<!-- show_cage_151 -->
<g id="node2" class="node">
<title>show_cage_151</title>
<g id="a_node2"><a xlink:href="javascript:s=&quot;\(&#x27;show_cage&#x27;,\)\nFlatHeadScrew&quot;; console.log(s); alert(s);" xlink:title="FlatHeadScrew">
<ellipse fill="none" stroke="black" cx="142" cy="-126" rx="51.99" ry="18"/>
<text text-anchor="middle" x="142" y="-122.3" font-family="Times New Roman,serif" font-size="14.00">show_cage</text>
</a>
</g>
</g>
<!-- root_150&#45;&gt;show_cage_151 -->
<g id="edge1" class="edge">
<title>root_150&#45;&gt;show_cage_151</title>
<path fill="none" stroke="black" d="M54.21,-126C61.88,-126 70.61,-126 79.51,-126"/>
<polygon fill="black" stroke="black" points="79.58,-129.5 89.58,-126 79.58,-122.5 79.58,-129.5"/>
</g>
<!-- screw_cage_152 -->
<g id="node3" class="node">
<title>screw_cage_152</title>
<g id="a_node3"><a xlink:href="javascript:s=&quot;\(&#x27;show_cage&#x27;,\ &#x27;screw_cage&#x27;\)\nCone&quot;; console.log(s); alert(s);" xlink:title="Cone">
<ellipse fill="none" stroke="black" cx="285.24" cy="-234" rx="53.89" ry="18"/>
<text text-anchor="middle" x="285.24" y="-230.3" font-family="Times New Roman,serif" font-size="14.00">screw_cage</text>
</a>
</g>
</g>
<!-- show_cage_151&#45;&gt;screw_cage_152 -->
<g id="edge2" class="edge">
<title>show_cage_151&#45;&gt;screw_cage_152</title>
<path fill="none" stroke="black" d="M158.76,-143.37C175.31,-160.92 202.68,-188.08 229.99,-207 234,-209.77 238.33,-212.43 242.74,-214.91"/>
<polygon fill="black" stroke="black" points="241.34,-218.14 251.81,-219.77 244.64,-211.97 241.34,-218.14"/>
</g>
<!-- tap_shaft_153 -->
<g id="node4" class="node">
<title>tap_shaft_153</title>
<g id="a_node4"><a xlink:href="javascript:s=&quot;\(&#x27;show_cage&#x27;,\ &#x27;tap_shaft&#x27;\)\nCone&quot;; console.log(s); alert(s);" xlink:title="Cone">
<ellipse fill="none" stroke="black" cx="285.24" cy="-180" rx="44.39" ry="18"/>
<text text-anchor="middle" x="285.24" y="-176.3" font-family="Times New Roman,serif" font-size="14.00">tap_shaft</text>
</a>
</g>
</g>
<!-- show_cage_151&#45;&gt;tap_shaft_153 -->
<g id="edge3" class="edge">
<title>show_cage_151&#45;&gt;tap_shaft_153</title>
<path fill="none" stroke="black" d="M177.55,-139.21C197.29,-146.76 222.17,-156.27 242.94,-164.21"/>
<polygon fill="black" stroke="black" points="241.87,-167.55 252.46,-167.85 244.37,-161.01 241.87,-167.55"/>
</g>
<!-- thru_shaft_154 -->
<g id="node5" class="node">
<title>thru_shaft_154</title>
<g id="a_node5"><a xlink:href="javascript:s=&quot;\(&#x27;show_cage&#x27;,\ &#x27;thru_shaft&#x27;\)\nCone&quot;; console.log(s); alert(s);" xlink:title="Cone">
<ellipse fill="none" stroke="black" cx="285.24" cy="-126" rx="47.39" ry="18"/>
<text text-anchor="middle" x="285.24" y="-122.3" font-family="Times New Roman,serif" font-size="14.00">thru_shaft</text>
</a>
</g>
</g>
<!-- show_cage_151&#45;&gt;thru_shaft_154 -->
<g id="edge4" class="edge">
<title>show_cage_151&#45;&gt;thru_shaft_154</title>
<path fill="none" stroke="black" d="M194.39,-126C205.03,-126 216.3,-126 227.13,-126"/>
<polygon fill="black" stroke="black" points="227.34,-129.5 237.34,-126 227.34,-122.5 227.34,-129.5"/>
</g>
<!-- access_hole_155 -->
<g id="node6" class="node">
<title>access_hole_155</title>
<g id="a_node6"><a xlink:href="javascript:s=&quot;\(&#x27;show_cage&#x27;,\ &#x27;access_hole&#x27;\)\nCone&quot;; console.log(s); alert(s);" xlink:title="Cone">
<ellipse fill="none" stroke="black" cx="285.24" cy="-72" rx="55.49" ry="18"/>
<text text-anchor="middle" x="285.24" y="-68.3" font-family="Times New Roman,serif" font-size="14.00">access_hole</text>
</a>
</g>
</g>
<!-- show_cage_151&#45;&gt;access_hole_155 -->
<g id="edge5" class="edge">
<title>show_cage_151&#45;&gt;access_hole_155</title>
<path fill="none" stroke="black" d="M177.55,-112.79C196.08,-105.71 219.13,-96.89 239.07,-89.27"/>
<polygon fill="black" stroke="black" points="240.48,-92.48 248.57,-85.64 237.98,-85.94 240.48,-92.48"/>
</g>
<!-- screw_hole_156 -->
<g id="node7" class="node">
<title>screw_hole_156</title>
<g id="a_node7"><a xlink:href="javascript:s=&quot;\(&#x27;show_cage&#x27;,\ &#x27;screw_hole&#x27;\)\nRotateExtrude&quot;; console.log(s); alert(s);" xlink:title="RotateExtrude">
<ellipse fill="none" stroke="black" cx="285.24" cy="-18" rx="51.99" ry="18"/>
<text text-anchor="middle" x="285.24" y="-14.3" font-family="Times New Roman,serif" font-size="14.00">screw_hole</text>
</a>
</g>
</g>
<!-- show_cage_151&#45;&gt;screw_hole_156 -->
<g id="edge6" class="edge">
<title>show_cage_151&#45;&gt;screw_hole_156</title>
<path fill="none" stroke="black" d="M158.76,-108.63C175.31,-91.08 202.68,-63.92 229.99,-45 234.15,-42.12 238.67,-39.36 243.26,-36.79"/>
<polygon fill="black" stroke="black" points="244.91,-39.87 252.1,-32.09 241.63,-33.7 244.91,-39.87"/>
</g>
</g>
</svg>
