<?xml version="1.0" encoding="UTF-8" standalone="no"?>
<!DOCTYPE svg PUBLIC "-//W3C//DTD SVG 1.1//EN"
 "http://www.w3.org/Graphics/SVG/1.1/DTD/svg11.dtd">
<!-- Generated by graphviz version 5.0.0 (20220707.1540)
 -->
<!-- Title: default Pages: 1 -->
<svg width="468pt" height="260pt"
 viewBox="0.00 0.00 467.67 260.00" xmlns="http://www.w3.org/2000/svg" xmlns:xlink="http://www.w3.org/1999/xlink">
<g id="graph0" class="graph" transform="scale(1 1) rotate(0) translate(4 256)">
<title>default</title>
<polygon fill="white" stroke="transparent" points="-4,4 -4,-256 463.67,-256 463.67,4 -4,4"/>
<!-- root_235 -->
<g id="node1" class="node">
<title>root_235</title>
<g id="a_node1"><a xlink:href="javascript:s=&quot;\(\)\nNone&quot;; console.log(s); alert(s);" xlink:title="root">
<ellipse fill="none" stroke="black" cx="27" cy="-180" rx="27" ry="18"/>
<text text-anchor="middle" x="27" y="-176.3" font-family="Times New Roman,serif" font-size="14.00">root</text>
</a>
</g>
</g>
<!-- default_236 -->
<g id="node2" class="node">
<title>default_236</title>
<g id="a_node2"><a xlink:href="javascript:s=&quot;\(&#x27;default&#x27;,\)\nTestCountersunkScrew&quot;; console.log(s); alert(s);" xlink:title="TestCountersunkScrew">
<ellipse fill="none" stroke="black" cx="125.1" cy="-180" rx="35.19" ry="18"/>
<text text-anchor="middle" x="125.1" y="-176.3" font-family="Times New Roman,serif" font-size="14.00">default</text>
</a>
</g>
</g>
<!-- root_235&#45;&gt;default_236 -->
<g id="edge1" class="edge">
<title>root_235&#45;&gt;default_236</title>
<path fill="none" stroke="black" d="M54.01,-180C61.92,-180 70.84,-180 79.61,-180"/>
<polygon fill="black" stroke="black" points="79.76,-183.5 89.76,-180 79.76,-176.5 79.76,-183.5"/>
</g>
<!-- test_box_237 -->
<g id="node3" class="node">
<title>test_box_237</title>
<g id="a_node3"><a xlink:href="javascript:s=&quot;\(&#x27;default&#x27;,\ &#x27;test_box&#x27;\)\nBox&quot;; console.log(s); alert(s);" xlink:title="Box">
<ellipse fill="none" stroke="black" cx="254.69" cy="-234" rx="42.49" ry="18"/>
<text text-anchor="middle" x="254.69" y="-230.3" font-family="Times New Roman,serif" font-size="14.00">test_box</text>
</a>
</g>
</g>
<!-- default_236&#45;&gt;test_box_237 -->
<g id="edge2" class="edge">
<title>default_236&#45;&gt;test_box_237</title>
<path fill="none" stroke="black" d="M152.84,-191.32C170.68,-198.87 194.43,-208.92 214.39,-217.37"/>
<polygon fill="black" stroke="black" points="213.28,-220.7 223.85,-221.37 216.01,-214.25 213.28,-220.7"/>
</g>
<!-- test_cut_box_238 -->
<g id="node4" class="node">
<title>test_cut_box_238</title>
<g id="a_node4"><a xlink:href="javascript:s=&quot;\(&#x27;default&#x27;,\ &#x27;test_cut_box&#x27;\)\nBox&quot;; console.log(s); alert(s);" xlink:title="Box">
<ellipse fill="none" stroke="black" cx="254.69" cy="-180" rx="58.49" ry="18"/>
<text text-anchor="middle" x="254.69" y="-176.3" font-family="Times New Roman,serif" font-size="14.00">test_cut_box</text>
</a>
</g>
</g>
<!-- default_236&#45;&gt;test_cut_box_238 -->
<g id="edge3" class="edge">
<title>default_236&#45;&gt;test_cut_box_238</title>
<path fill="none" stroke="black" d="M160.29,-180C168.14,-180 176.76,-180 185.49,-180"/>
<polygon fill="black" stroke="black" points="185.76,-183.5 195.76,-180 185.76,-176.5 185.76,-183.5"/>
</g>
<!-- screw_239 -->
<g id="node5" class="node">
<title>screw_239</title>
<g id="a_node5"><a xlink:href="javascript:s=&quot;\(&#x27;default&#x27;,\ &#x27;screw&#x27;\)\nCountersunkScrew&quot;; console.log(s); alert(s);" xlink:title="CountersunkScrew">
<ellipse fill="none" stroke="black" cx="254.69" cy="-126" rx="32.49" ry="18"/>
<text text-anchor="middle" x="254.69" y="-122.3" font-family="Times New Roman,serif" font-size="14.00">screw</text>
</a>
</g>
</g>
<!-- default_236&#45;&gt;screw_239 -->
<g id="edge4" class="edge">
<title>default_236&#45;&gt;screw_239</title>
<path fill="none" stroke="black" d="M152.84,-168.68C172.02,-160.56 198.03,-149.55 218.84,-140.75"/>
<polygon fill="black" stroke="black" points="220.44,-143.87 228.28,-136.75 217.71,-137.43 220.44,-143.87"/>
</g>
<!-- screw_cage_240 -->
<g id="node6" class="node">
<title>screw_cage_240</title>
<g id="a_node6"><a xlink:href="javascript:s=&quot;\(&#x27;default&#x27;,\ &#x27;screw&#x27;,\ &#x27;screw_cage&#x27;\)\nCone&quot;; console.log(s); alert(s);" xlink:title="Cone">
<ellipse fill="none" stroke="black" cx="404.43" cy="-234" rx="53.89" ry="18"/>
<text text-anchor="middle" x="404.43" y="-230.3" font-family="Times New Roman,serif" font-size="14.00">screw_cage</text>
</a>
</g>
</g>
<!-- screw_239&#45;&gt;screw_cage_240 -->
<g id="edge5" class="edge">
<title>screw_239&#45;&gt;screw_cage_240</title>
<path fill="none" stroke="black" d="M282.94,-135.21C293.16,-139.54 304.41,-145.44 313.18,-153 335.04,-171.82 327.54,-187.93 349.18,-207 352.56,-209.98 356.32,-212.71 360.25,-215.2"/>
<polygon fill="black" stroke="black" points="358.61,-218.3 369.02,-220.27 362.11,-212.23 358.61,-218.3"/>
</g>
<!-- tap_shaft_241 -->
<g id="node7" class="node">
<title>tap_shaft_241</title>
<g id="a_node7"><a xlink:href="javascript:s=&quot;\(&#x27;default&#x27;,\ &#x27;screw&#x27;,\ &#x27;tap_shaft&#x27;\)\nCone&quot;; console.log(s); alert(s);" xlink:title="Cone">
<ellipse fill="none" stroke="black" cx="404.43" cy="-180" rx="44.39" ry="18"/>
<text text-anchor="middle" x="404.43" y="-176.3" font-family="Times New Roman,serif" font-size="14.00">tap_shaft</text>
</a>
</g>
</g>
<!-- screw_239&#45;&gt;tap_shaft_241 -->
<g id="edge6" class="edge">
<title>screw_239&#45;&gt;tap_shaft_241</title>
<path fill="none" stroke="black" d="M282.44,-135.78C304.49,-143.84 336.15,-155.41 361.55,-164.69"/>
<polygon fill="black" stroke="black" points="360.35,-167.98 370.94,-168.13 362.75,-161.41 360.35,-167.98"/>
</g>
<!-- thru_shaft_242 -->
<g id="node8" class="node">
<title>thru_shaft_242</title>
<g id="a_node8"><a xlink:href="javascript:s=&quot;\(&#x27;default&#x27;,\ &#x27;screw&#x27;,\ &#x27;thru_shaft&#x27;\)\nCone&quot;; console.log(s); alert(s);" xlink:title="Cone">
<ellipse fill="none" stroke="black" cx="404.43" cy="-126" rx="47.39" ry="18"/>
<text text-anchor="middle" x="404.43" y="-122.3" font-family="Times New Roman,serif" font-size="14.00">thru_shaft</text>
</a>
</g>
</g>
<!-- screw_239&#45;&gt;thru_shaft_242 -->
<g id="edge7" class="edge">
<title>screw_239&#45;&gt;thru_shaft_242</title>
<path fill="none" stroke="black" d="M287.38,-126C304.72,-126 326.71,-126 346.88,-126"/>
<polygon fill="black" stroke="black" points="346.92,-129.5 356.92,-126 346.92,-122.5 346.92,-129.5"/>
</g>
<!-- access_hole_243 -->
<g id="node9" class="node">
<title>access_hole_243</title>
<g id="a_node9"><a xlink:href="javascript:s=&quot;\(&#x27;default&#x27;,\ &#x27;screw&#x27;,\ &#x27;access_hole&#x27;\)\nCone&quot;; console.log(s); alert(s);" xlink:title="Cone">
<ellipse fill="none" stroke="black" cx="404.43" cy="-72" rx="55.49" ry="18"/>
<text text-anchor="middle" x="404.43" y="-68.3" font-family="Times New Roman,serif" font-size="14.00">access_hole</text>
</a>
</g>
</g>
<!-- screw_239&#45;&gt;access_hole_243 -->
<g id="edge8" class="edge">
<title>screw_239&#45;&gt;access_hole_243</title>
<path fill="none" stroke="black" d="M282.44,-116.22C303.29,-108.6 332.73,-97.84 357.35,-88.84"/>
<polygon fill="black" stroke="black" points="358.68,-92.08 366.87,-85.36 356.28,-85.51 358.68,-92.08"/>
</g>
<!-- screw_hole_244 -->
<g id="node10" class="node">
<title>screw_hole_244</title>
<g id="a_node10"><a xlink:href="javascript:s=&quot;\(&#x27;default&#x27;,\ &#x27;screw&#x27;,\ &#x27;screw_hole&#x27;\)\nRotateExtrude&quot;; console.log(s); alert(s);" xlink:title="RotateExtrude">
<ellipse fill="none" stroke="black" cx="404.43" cy="-18" rx="51.99" ry="18"/>
<text text-anchor="middle" x="404.43" y="-14.3" font-family="Times New Roman,serif" font-size="14.00">screw_hole</text>
</a>
</g>
</g>
<!-- screw_239&#45;&gt;screw_hole_244 -->
<g id="edge9" class="edge">
<title>screw_239&#45;&gt;screw_hole_244</title>
<path fill="none" stroke="black" d="M271.23,-110.34C289.01,-92.96 319.52,-64.77 349.18,-45 353.45,-42.16 358.06,-39.42 362.73,-36.84"/>
<polygon fill="black" stroke="black" points="364.48,-39.88 371.69,-32.12 361.22,-33.68 364.48,-39.88"/>
</g>
</g>
</svg>
