<?xml version="1.0" encoding="UTF-8" standalone="no"?>
<!DOCTYPE svg PUBLIC "-//W3C//DTD SVG 1.1//EN"
 "http://www.w3.org/Graphics/SVG/1.1/DTD/svg11.dtd">
<!-- Generated by graphviz version 5.0.0 (20220707.1540)
 -->
<!-- Title: show_cage Pages: 1 -->
<svg width="567pt" height="368pt"
 viewBox="0.00 0.00 567.37 368.00" xmlns="http://www.w3.org/2000/svg" xmlns:xlink="http://www.w3.org/1999/xlink">
<g id="graph0" class="graph" transform="scale(1 1) rotate(0) translate(4 364)">
<title>show_cage</title>
<polygon fill="white" stroke="transparent" points="-4,4 -4,-364 563.37,-364 563.37,4 -4,4"/>
<!-- root_1377 -->
<g id="node1" class="node">
<title>root_1377</title>
<g id="a_node1"><a xlink:href="javascript:s=&quot;\(\)\nNone&quot;; console.log(s); alert(s);" xlink:title="root">
<ellipse fill="none" stroke="black" cx="27" cy="-207" rx="27" ry="18"/>
<text text-anchor="middle" x="27" y="-203.3" font-family="Times New Roman,serif" font-size="14.00">root</text>
</a>
</g>
</g>
<!-- show_cage_1378 -->
<g id="node2" class="node">
<title>show_cage_1378</title>
<g id="a_node2"><a xlink:href="javascript:s=&quot;\(&#x27;show_cage&#x27;,\)\nBoxSideBevels&quot;; console.log(s); alert(s);" xlink:title="BoxSideBevels">
<ellipse fill="none" stroke="black" cx="165.39" cy="-288" rx="51.99" ry="18"/>
<text text-anchor="middle" x="165.39" y="-284.3" font-family="Times New Roman,serif" font-size="14.00">show_cage</text>
</a>
</g>
</g>
<!-- root_1377&#45;&gt;show_cage_1378 -->
<g id="edge1" class="edge">
<title>root_1377&#45;&gt;show_cage_1378</title>
<path fill="none" stroke="black" d="M47.83,-218.78C69.11,-231.42 103.34,-251.74 129.21,-267.11"/>
<polygon fill="black" stroke="black" points="127.6,-270.22 137.98,-272.31 131.17,-264.2 127.6,-270.22"/>
</g>
<!-- 1381 -->
<g id="node5" class="node">
<title>1381</title>
<g id="a_node5"><a xlink:href="javascript:s=&quot;\(&quot;&#x27;face_edge&#x27;,\ 0,\ 0,\ &quot;,\)\nAnnotatedCoordinates&quot;; console.log(s); alert(s);" xlink:title="AnnotatedCoordinates">
<ellipse fill="none" stroke="black" cx="165.39" cy="-153" rx="75.29" ry="18"/>
<text text-anchor="middle" x="165.39" y="-149.3" font-family="Times New Roman,serif" font-size="14.00">&#39;face_edge&#39;, 0, 0, </text>
</a>
</g>
</g>
<!-- root_1377&#45;&gt;1381 -->
<g id="edge4" class="edge">
<title>root_1377&#45;&gt;1381</title>
<path fill="none" stroke="black" d="M50.52,-198.08C68.33,-191.03 93.83,-180.94 116.19,-172.09"/>
<polygon fill="black" stroke="black" points="117.54,-175.32 125.55,-168.38 114.96,-168.81 117.54,-175.32"/>
</g>
<!-- shell_1379 -->
<g id="node3" class="node">
<title>shell_1379</title>
<g id="a_node3"><a xlink:href="javascript:s=&quot;\(&#x27;show_cage&#x27;,\ &#x27;shell&#x27;\)\nBox&quot;; console.log(s); alert(s);" xlink:title="Box">
<ellipse fill="none" stroke="black" cx="313.18" cy="-342" rx="27" ry="18"/>
<text text-anchor="middle" x="313.18" y="-338.3" font-family="Times New Roman,serif" font-size="14.00">shell</text>
</a>
</g>
</g>
<!-- show_cage_1378&#45;&gt;shell_1379 -->
<g id="edge2" class="edge">
<title>show_cage_1378&#45;&gt;shell_1379</title>
<path fill="none" stroke="black" d="M201.69,-301.07C225.43,-309.87 256.5,-321.38 279.65,-329.95"/>
<polygon fill="black" stroke="black" points="278.44,-333.24 289.04,-333.43 280.88,-326.67 278.44,-333.24"/>
</g>
<!-- hull_1380 -->
<g id="node4" class="node">
<title>hull_1380</title>
<g id="a_node4"><a xlink:href="javascript:s=&quot;\(&#x27;show_cage&#x27;,\ &#x27;hull&#x27;\)\nLinearExtrude&quot;; console.log(s); alert(s);" xlink:title="LinearExtrude">
<ellipse fill="none" stroke="black" cx="313.18" cy="-288" rx="27" ry="18"/>
<text text-anchor="middle" x="313.18" y="-284.3" font-family="Times New Roman,serif" font-size="14.00">hull</text>
</a>
</g>
</g>
<!-- show_cage_1378&#45;&gt;hull_1380 -->
<g id="edge3" class="edge">
<title>show_cage_1378&#45;&gt;hull_1380</title>
<path fill="none" stroke="black" d="M217.79,-288C236.94,-288 258.26,-288 275.78,-288"/>
<polygon fill="black" stroke="black" points="276.15,-291.5 286.15,-288 276.15,-284.5 276.15,-291.5"/>
</g>
<!-- coords_1382 -->
<g id="node6" class="node">
<title>coords_1382</title>
<g id="a_node6"><a xlink:href="javascript:s=&quot;\(&quot;&#x27;face_edge&#x27;,\ 0,\ 0,\ &quot;,\ &#x27;coords&#x27;\)\nCoordinates&quot;; console.log(s); alert(s);" xlink:title="Coordinates">
<ellipse fill="none" stroke="black" cx="313.18" cy="-234" rx="36.29" ry="18"/>
<text text-anchor="middle" x="313.18" y="-230.3" font-family="Times New Roman,serif" font-size="14.00">coords</text>
</a>
</g>
</g>
<!-- 1381&#45;&gt;coords_1382 -->
<g id="edge5" class="edge">
<title>1381&#45;&gt;coords_1382</title>
<path fill="none" stroke="black" d="M196.25,-169.59C220.33,-182.97 254.17,-201.77 279.08,-215.61"/>
<polygon fill="black" stroke="black" points="277.71,-218.85 288.15,-220.65 281.11,-212.73 277.71,-218.85"/>
</g>
<!-- x_1393 -->
<g id="node17" class="node">
<title>x_1393</title>
<g id="a_node17"><a xlink:href="javascript:s=&quot;\(&quot;&#x27;face_edge&#x27;,\ 0,\ 0,\ &quot;,\ &#x27;x&#x27;\)\nText&quot;; console.log(s); alert(s);" xlink:title="Text">
<ellipse fill="none" stroke="black" cx="313.18" cy="-180" rx="27" ry="18"/>
<text text-anchor="middle" x="313.18" y="-176.3" font-family="Times New Roman,serif" font-size="14.00">x</text>
</a>
</g>
</g>
<!-- 1381&#45;&gt;x_1393 -->
<g id="edge16" class="edge">
<title>1381&#45;&gt;x_1393</title>
<path fill="none" stroke="black" d="M225.69,-163.98C242.99,-167.18 261.34,-170.58 276.67,-173.42"/>
<polygon fill="black" stroke="black" points="276.28,-176.91 286.75,-175.29 277.55,-170.03 276.28,-176.91"/>
</g>
<!-- y_1394 -->
<g id="node18" class="node">
<title>y_1394</title>
<g id="a_node18"><a xlink:href="javascript:s=&quot;\(&quot;&#x27;face_edge&#x27;,\ 0,\ 0,\ &quot;,\ &#x27;y&#x27;\)\nText&quot;; console.log(s); alert(s);" xlink:title="Text">
<ellipse fill="none" stroke="black" cx="313.18" cy="-126" rx="27" ry="18"/>
<text text-anchor="middle" x="313.18" y="-122.3" font-family="Times New Roman,serif" font-size="14.00">y</text>
</a>
</g>
</g>
<!-- 1381&#45;&gt;y_1394 -->
<g id="edge17" class="edge">
<title>1381&#45;&gt;y_1394</title>
<path fill="none" stroke="black" d="M225.69,-142.02C242.99,-138.82 261.34,-135.42 276.67,-132.58"/>
<polygon fill="black" stroke="black" points="277.55,-135.97 286.75,-130.71 276.28,-129.09 277.55,-135.97"/>
</g>
<!-- z_1395 -->
<g id="node19" class="node">
<title>z_1395</title>
<g id="a_node19"><a xlink:href="javascript:s=&quot;\(&quot;&#x27;face_edge&#x27;,\ 0,\ 0,\ &quot;,\ &#x27;z&#x27;\)\nText&quot;; console.log(s); alert(s);" xlink:title="Text">
<ellipse fill="none" stroke="black" cx="313.18" cy="-72" rx="27" ry="18"/>
<text text-anchor="middle" x="313.18" y="-68.3" font-family="Times New Roman,serif" font-size="14.00">z</text>
</a>
</g>
</g>
<!-- 1381&#45;&gt;z_1395 -->
<g id="edge18" class="edge">
<title>1381&#45;&gt;z_1395</title>
<path fill="none" stroke="black" d="M196.25,-136.41C221.51,-122.38 257.52,-102.37 282.68,-88.39"/>
<polygon fill="black" stroke="black" points="284.71,-91.27 291.75,-83.35 281.31,-85.15 284.71,-91.27"/>
</g>
<!-- label_1396 -->
<g id="node20" class="node">
<title>label_1396</title>
<g id="a_node20"><a xlink:href="javascript:s=&quot;\(&quot;&#x27;face_edge&#x27;,\ 0,\ 0,\ &quot;,\ &#x27;label&#x27;\)\nText&quot;; console.log(s); alert(s);" xlink:title="Text">
<ellipse fill="none" stroke="black" cx="313.18" cy="-18" rx="27.1" ry="18"/>
<text text-anchor="middle" x="313.18" y="-14.3" font-family="Times New Roman,serif" font-size="14.00">label</text>
</a>
</g>
</g>
<!-- 1381&#45;&gt;label_1396 -->
<g id="edge19" class="edge">
<title>1381&#45;&gt;label_1396</title>
<path fill="none" stroke="black" d="M182.98,-135.49C204.06,-113.55 241.91,-75.17 276.79,-45 279.79,-42.4 283.02,-39.76 286.25,-37.19"/>
<polygon fill="black" stroke="black" points="288.43,-39.93 294.2,-31.04 284.15,-34.39 288.43,-39.93"/>
</g>
<!-- origin_1383 -->
<g id="node7" class="node">
<title>origin_1383</title>
<g id="a_node7"><a xlink:href="javascript:s=&quot;\(&quot;&#x27;face_edge&#x27;,\ 0,\ 0,\ &quot;,\ &#x27;coords&#x27;,\ &#x27;origin&#x27;\)\nCoordinatesCage&quot;; console.log(s); alert(s);" xlink:title="CoordinatesCage">
<ellipse fill="none" stroke="black" cx="426.53" cy="-315" rx="31.4" ry="18"/>
<text text-anchor="middle" x="426.53" y="-311.3" font-family="Times New Roman,serif" font-size="14.00">origin</text>
</a>
</g>
</g>
<!-- coords_1382&#45;&gt;origin_1383 -->
<g id="edge6" class="edge">
<title>coords_1382&#45;&gt;origin_1383</title>
<path fill="none" stroke="black" d="M333.92,-249.01C353.23,-263.69 380.46,-284.34 385.58,-288 389.1,-290.52 392.83,-293.13 396.55,-295.68"/>
<polygon fill="black" stroke="black" points="394.82,-298.74 405.06,-301.47 398.76,-292.95 394.82,-298.74"/>
</g>
<!-- x_arrow_1384 -->
<g id="node8" class="node">
<title>x_arrow_1384</title>
<g id="a_node8"><a xlink:href="javascript:s=&quot;\(&quot;&#x27;face_edge&#x27;,\ 0,\ 0,\ &quot;,\ &#x27;coords&#x27;,\ &#x27;x_arrow&#x27;\)\nArrow&quot;; console.log(s); alert(s);" xlink:title="Arrow">
<ellipse fill="none" stroke="black" cx="426.53" cy="-261" rx="40.89" ry="18"/>
<text text-anchor="middle" x="426.53" y="-257.3" font-family="Times New Roman,serif" font-size="14.00">x_arrow</text>
</a>
</g>
</g>
<!-- coords_1382&#45;&gt;x_arrow_1384 -->
<g id="edge7" class="edge">
<title>coords_1382&#45;&gt;x_arrow_1384</title>
<path fill="none" stroke="black" d="M346.09,-241.74C356.73,-244.32 368.79,-247.24 380.24,-250.02"/>
<polygon fill="black" stroke="black" points="379.55,-253.45 390.1,-252.41 381.2,-246.65 379.55,-253.45"/>
</g>
<!-- y_arrow_1387 -->
<g id="node11" class="node">
<title>y_arrow_1387</title>
<g id="a_node11"><a xlink:href="javascript:s=&quot;\(&quot;&#x27;face_edge&#x27;,\ 0,\ 0,\ &quot;,\ &#x27;coords&#x27;,\ &#x27;y_arrow&#x27;\)\nArrow&quot;; console.log(s); alert(s);" xlink:title="Arrow">
<ellipse fill="none" stroke="black" cx="426.53" cy="-207" rx="40.89" ry="18"/>
<text text-anchor="middle" x="426.53" y="-203.3" font-family="Times New Roman,serif" font-size="14.00">y_arrow</text>
</a>
</g>
</g>
<!-- coords_1382&#45;&gt;y_arrow_1387 -->
<g id="edge10" class="edge">
<title>coords_1382&#45;&gt;y_arrow_1387</title>
<path fill="none" stroke="black" d="M346.09,-226.26C356.73,-223.68 368.79,-220.76 380.24,-217.98"/>
<polygon fill="black" stroke="black" points="381.2,-221.35 390.1,-215.59 379.55,-214.55 381.2,-221.35"/>
</g>
<!-- z_arrow_1390 -->
<g id="node14" class="node">
<title>z_arrow_1390</title>
<g id="a_node14"><a xlink:href="javascript:s=&quot;\(&quot;&#x27;face_edge&#x27;,\ 0,\ 0,\ &quot;,\ &#x27;coords&#x27;,\ &#x27;z_arrow&#x27;\)\nArrow&quot;; console.log(s); alert(s);" xlink:title="Arrow">
<ellipse fill="none" stroke="black" cx="426.53" cy="-99" rx="40.09" ry="18"/>
<text text-anchor="middle" x="426.53" y="-95.3" font-family="Times New Roman,serif" font-size="14.00">z_arrow</text>
</a>
</g>
</g>
<!-- coords_1382&#45;&gt;z_arrow_1390 -->
<g id="edge13" class="edge">
<title>coords_1382&#45;&gt;z_arrow_1390</title>
<path fill="none" stroke="black" d="M335.29,-219.58C340.23,-215.76 345.29,-211.46 349.58,-207 373.74,-181.88 395.99,-148.5 410.08,-125.54"/>
<polygon fill="black" stroke="black" points="413.25,-127.05 415.42,-116.68 407.26,-123.44 413.25,-127.05"/>
</g>
<!-- stem_1385 -->
<g id="node9" class="node">
<title>stem_1385</title>
<g id="a_node9"><a xlink:href="javascript:s=&quot;\(&quot;&#x27;face_edge&#x27;,\ 0,\ 0,\ &quot;,\ &#x27;coords&#x27;,\ &#x27;x_arrow&#x27;,\ &#x27;stem&#x27;\)\nCone&quot;; console.log(s); alert(s);" xlink:title="Cone">
<ellipse fill="none" stroke="black" cx="531.42" cy="-315" rx="27.9" ry="18"/>
<text text-anchor="middle" x="531.42" y="-311.3" font-family="Times New Roman,serif" font-size="14.00">stem</text>
</a>
</g>
</g>
<!-- x_arrow_1384&#45;&gt;stem_1385 -->
<g id="edge8" class="edge">
<title>x_arrow_1384&#45;&gt;stem_1385</title>
<path fill="none" stroke="black" d="M453.49,-274.63C467.65,-282.06 485.26,-291.3 500.06,-299.07"/>
<polygon fill="black" stroke="black" points="498.83,-302.37 509.31,-303.92 502.08,-296.18 498.83,-302.37"/>
</g>
<!-- head_1386 -->
<g id="node10" class="node">
<title>head_1386</title>
<g id="a_node10"><a xlink:href="javascript:s=&quot;\(&quot;&#x27;face_edge&#x27;,\ 0,\ 0,\ &quot;,\ &#x27;coords&#x27;,\ &#x27;x_arrow&#x27;,\ &#x27;head&#x27;\)\nCone&quot;; console.log(s); alert(s);" xlink:title="Cone">
<ellipse fill="none" stroke="black" cx="531.42" cy="-261" rx="27.9" ry="18"/>
<text text-anchor="middle" x="531.42" y="-257.3" font-family="Times New Roman,serif" font-size="14.00">head</text>
</a>
</g>
</g>
<!-- x_arrow_1384&#45;&gt;head_1386 -->
<g id="edge9" class="edge">
<title>x_arrow_1384&#45;&gt;head_1386</title>
<path fill="none" stroke="black" d="M467.6,-261C476.01,-261 484.85,-261 493.16,-261"/>
<polygon fill="black" stroke="black" points="493.31,-264.5 503.31,-261 493.31,-257.5 493.31,-264.5"/>
</g>
<!-- stem_1388 -->
<g id="node12" class="node">
<title>stem_1388</title>
<g id="a_node12"><a xlink:href="javascript:s=&quot;\(&quot;&#x27;face_edge&#x27;,\ 0,\ 0,\ &quot;,\ &#x27;coords&#x27;,\ &#x27;y_arrow&#x27;,\ &#x27;stem&#x27;\)\nCone&quot;; console.log(s); alert(s);" xlink:title="Cone">
<ellipse fill="none" stroke="black" cx="531.42" cy="-207" rx="27.9" ry="18"/>
<text text-anchor="middle" x="531.42" y="-203.3" font-family="Times New Roman,serif" font-size="14.00">stem</text>
</a>
</g>
</g>
<!-- y_arrow_1387&#45;&gt;stem_1388 -->
<g id="edge11" class="edge">
<title>y_arrow_1387&#45;&gt;stem_1388</title>
<path fill="none" stroke="black" d="M467.6,-207C476.01,-207 484.85,-207 493.16,-207"/>
<polygon fill="black" stroke="black" points="493.31,-210.5 503.31,-207 493.31,-203.5 493.31,-210.5"/>
</g>
<!-- head_1389 -->
<g id="node13" class="node">
<title>head_1389</title>
<g id="a_node13"><a xlink:href="javascript:s=&quot;\(&quot;&#x27;face_edge&#x27;,\ 0,\ 0,\ &quot;,\ &#x27;coords&#x27;,\ &#x27;y_arrow&#x27;,\ &#x27;head&#x27;\)\nCone&quot;; console.log(s); alert(s);" xlink:title="Cone">
<ellipse fill="none" stroke="black" cx="531.42" cy="-153" rx="27.9" ry="18"/>
<text text-anchor="middle" x="531.42" y="-149.3" font-family="Times New Roman,serif" font-size="14.00">head</text>
</a>
</g>
</g>
<!-- y_arrow_1387&#45;&gt;head_1389 -->
<g id="edge12" class="edge">
<title>y_arrow_1387&#45;&gt;head_1389</title>
<path fill="none" stroke="black" d="M453.49,-193.37C467.65,-185.94 485.26,-176.7 500.06,-168.93"/>
<polygon fill="black" stroke="black" points="502.08,-171.82 509.31,-164.08 498.83,-165.63 502.08,-171.82"/>
</g>
<!-- stem_1391 -->
<g id="node15" class="node">
<title>stem_1391</title>
<g id="a_node15"><a xlink:href="javascript:s=&quot;\(&quot;&#x27;face_edge&#x27;,\ 0,\ 0,\ &quot;,\ &#x27;coords&#x27;,\ &#x27;z_arrow&#x27;,\ &#x27;stem&#x27;\)\nCone&quot;; console.log(s); alert(s);" xlink:title="Cone">
<ellipse fill="none" stroke="black" cx="531.42" cy="-99" rx="27.9" ry="18"/>
<text text-anchor="middle" x="531.42" y="-95.3" font-family="Times New Roman,serif" font-size="14.00">stem</text>
</a>
</g>
</g>
<!-- z_arrow_1390&#45;&gt;stem_1391 -->
<g id="edge14" class="edge">
<title>z_arrow_1390&#45;&gt;stem_1391</title>
<path fill="none" stroke="black" d="M467.01,-99C475.64,-99 484.73,-99 493.26,-99"/>
<polygon fill="black" stroke="black" points="493.31,-102.5 503.31,-99 493.31,-95.5 493.31,-102.5"/>
</g>
<!-- head_1392 -->
<g id="node16" class="node">
<title>head_1392</title>
<g id="a_node16"><a xlink:href="javascript:s=&quot;\(&quot;&#x27;face_edge&#x27;,\ 0,\ 0,\ &quot;,\ &#x27;coords&#x27;,\ &#x27;z_arrow&#x27;,\ &#x27;head&#x27;\)\nCone&quot;; console.log(s); alert(s);" xlink:title="Cone">
<ellipse fill="none" stroke="black" cx="531.42" cy="-45" rx="27.9" ry="18"/>
<text text-anchor="middle" x="531.42" y="-41.3" font-family="Times New Roman,serif" font-size="14.00">head</text>
</a>
</g>
</g>
<!-- z_arrow_1390&#45;&gt;head_1392 -->
<g id="edge15" class="edge">
<title>z_arrow_1390&#45;&gt;head_1392</title>
<path fill="none" stroke="black" d="M453.23,-85.51C467.52,-78.01 485.39,-68.63 500.33,-60.79"/>
<polygon fill="black" stroke="black" points="501.97,-63.88 509.2,-56.14 498.72,-57.68 501.97,-63.88"/>
</g>
</g>
</svg>
