<?xml version="1.0" encoding="UTF-8" standalone="no"?>
<!DOCTYPE svg PUBLIC "-//W3C//DTD SVG 1.1//EN"
 "http://www.w3.org/Graphics/SVG/1.1/DTD/svg11.dtd">
<!-- Generated by graphviz version 5.0.0 (20220707.1540)
 -->
<!-- Title: default Pages: 1 -->
<svg width="309pt" height="692pt"
 viewBox="0.00 0.00 309.48 692.00" xmlns="http://www.w3.org/2000/svg" xmlns:xlink="http://www.w3.org/1999/xlink">
<g id="graph0" class="graph" transform="scale(1 1) rotate(0) translate(4 688)">
<title>default</title>
<polygon fill="white" stroke="transparent" points="-4,4 -4,-688 305.48,-688 305.48,4 -4,4"/>
<!-- root_1 -->
<g id="node1" class="node">
<title>root_1</title>
<g id="a_node1"><a xlink:href="javascript:s=&quot;\(\)\nNone&quot;; console.log(s); alert(s);" xlink:title="root">
<ellipse fill="none" stroke="black" cx="27" cy="-342" rx="27" ry="18"/>
<text text-anchor="middle" x="27" y="-338.3" font-family="Times New Roman,serif" font-size="14.00">root</text>
</a>
</g>
</g>
<!-- default_2 -->
<g id="node2" class="node">
<title>default_2</title>
<g id="a_node2"><a xlink:href="javascript:s=&quot;\(&#x27;default&#x27;,\)\nClockFace&quot;; console.log(s); alert(s);" xlink:title="ClockFace">
<ellipse fill="none" stroke="black" cx="125.1" cy="-342" rx="35.19" ry="18"/>
<text text-anchor="middle" x="125.1" y="-338.3" font-family="Times New Roman,serif" font-size="14.00">default</text>
</a>
</g>
</g>
<!-- root_1&#45;&gt;default_2 -->
<g id="edge1" class="edge">
<title>root_1&#45;&gt;default_2</title>
<path fill="none" stroke="black" d="M54.01,-342C61.92,-342 70.84,-342 79.61,-342"/>
<polygon fill="black" stroke="black" points="79.76,-345.5 89.76,-342 79.76,-338.5 79.76,-345.5"/>
</g>
<!-- cage_3 -->
<g id="node3" class="node">
<title>cage_3</title>
<g id="a_node3"><a xlink:href="javascript:s=&quot;\(&#x27;default&#x27;,\ &#x27;cage&#x27;\)\nCylinder&quot;; console.log(s); alert(s);" xlink:title="Cylinder">
<ellipse fill="none" stroke="black" cx="248.84" cy="-666" rx="27.1" ry="18"/>
<text text-anchor="middle" x="248.84" y="-662.3" font-family="Times New Roman,serif" font-size="14.00">cage</text>
</a>
</g>
</g>
<!-- default_2&#45;&gt;cage_3 -->
<g id="edge2" class="edge">
<title>default_2&#45;&gt;cage_3</title>
<path fill="none" stroke="black" d="M125.44,-360.23C124.57,-410.3 128.59,-551.97 196.19,-639 200.97,-645.15 207.55,-650.05 214.41,-653.88"/>
<polygon fill="black" stroke="black" points="213.28,-657.23 223.8,-658.48 216.35,-650.94 213.28,-657.23"/>
</g>
<!-- point_4 -->
<g id="node4" class="node">
<title>point_4</title>
<g id="a_node4"><a xlink:href="javascript:s=&quot;\(&#x27;default&#x27;,\ \(&#x27;point&#x27;,\ 0\)\)\nSphere&quot;; console.log(s); alert(s);" xlink:title="Sphere">
<ellipse fill="none" stroke="black" cx="248.84" cy="-612" rx="48.19" ry="18"/>
<text text-anchor="middle" x="248.84" y="-608.3" font-family="Times New Roman,serif" font-size="14.00">(&#39;point&#39;, 0)</text>
</a>
</g>
</g>
<!-- default_2&#45;&gt;point_4 -->
<g id="edge3" class="edge">
<title>default_2&#45;&gt;point_4</title>
<path fill="none" stroke="black" d="M126.62,-360.06C128.77,-403.62 139.8,-515.97 196.19,-585 198.89,-588.31 202.11,-591.25 205.59,-593.88"/>
<polygon fill="black" stroke="black" points="203.8,-596.89 214.09,-599.41 207.62,-591.02 203.8,-596.89"/>
</g>
<!-- point_5 -->
<g id="node5" class="node">
<title>point_5</title>
<g id="a_node5"><a xlink:href="javascript:s=&quot;\(&#x27;default&#x27;,\ \(&#x27;point&#x27;,\ 1\)\)\nSphere&quot;; console.log(s); alert(s);" xlink:title="Sphere">
<ellipse fill="none" stroke="black" cx="248.84" cy="-558" rx="48.19" ry="18"/>
<text text-anchor="middle" x="248.84" y="-554.3" font-family="Times New Roman,serif" font-size="14.00">(&#39;point&#39;, 1)</text>
</a>
</g>
</g>
<!-- default_2&#45;&gt;point_5 -->
<g id="edge4" class="edge">
<title>default_2&#45;&gt;point_5</title>
<path fill="none" stroke="black" d="M128.41,-360.08C133.94,-396.51 150.97,-479.66 196.19,-531 199.05,-534.25 202.4,-537.16 205.98,-539.76"/>
<polygon fill="black" stroke="black" points="204.37,-542.88 214.68,-545.28 208.12,-536.97 204.37,-542.88"/>
</g>
<!-- point_6 -->
<g id="node6" class="node">
<title>point_6</title>
<g id="a_node6"><a xlink:href="javascript:s=&quot;\(&#x27;default&#x27;,\ \(&#x27;point&#x27;,\ 2\)\)\nSphere&quot;; console.log(s); alert(s);" xlink:title="Sphere">
<ellipse fill="none" stroke="black" cx="248.84" cy="-504" rx="48.19" ry="18"/>
<text text-anchor="middle" x="248.84" y="-500.3" font-family="Times New Roman,serif" font-size="14.00">(&#39;point&#39;, 2)</text>
</a>
</g>
</g>
<!-- default_2&#45;&gt;point_6 -->
<g id="edge5" class="edge">
<title>default_2&#45;&gt;point_6</title>
<path fill="none" stroke="black" d="M131.47,-359.86C140.68,-387.9 161.88,-442.59 196.19,-477 199.37,-480.19 203.01,-483.09 206.85,-485.69"/>
<polygon fill="black" stroke="black" points="205.11,-488.73 215.47,-490.95 208.75,-482.76 205.11,-488.73"/>
</g>
<!-- point_7 -->
<g id="node7" class="node">
<title>point_7</title>
<g id="a_node7"><a xlink:href="javascript:s=&quot;\(&#x27;default&#x27;,\ \(&#x27;point&#x27;,\ 3\)\)\nSphere&quot;; console.log(s); alert(s);" xlink:title="Sphere">
<ellipse fill="none" stroke="black" cx="248.84" cy="-450" rx="48.19" ry="18"/>
<text text-anchor="middle" x="248.84" y="-446.3" font-family="Times New Roman,serif" font-size="14.00">(&#39;point&#39;, 3)</text>
</a>
</g>
</g>
<!-- default_2&#45;&gt;point_7 -->
<g id="edge6" class="edge">
<title>default_2&#45;&gt;point_7</title>
<path fill="none" stroke="black" d="M137.72,-358.85C150.51,-376.49 172.43,-404.19 196.19,-423 199.96,-425.98 204.11,-428.79 208.37,-431.38"/>
<polygon fill="black" stroke="black" points="206.75,-434.49 217.17,-436.39 210.21,-428.4 206.75,-434.49"/>
</g>
<!-- point_8 -->
<g id="node8" class="node">
<title>point_8</title>
<g id="a_node8"><a xlink:href="javascript:s=&quot;\(&#x27;default&#x27;,\ \(&#x27;point&#x27;,\ 4\)\)\nSphere&quot;; console.log(s); alert(s);" xlink:title="Sphere">
<ellipse fill="none" stroke="black" cx="248.84" cy="-396" rx="48.19" ry="18"/>
<text text-anchor="middle" x="248.84" y="-392.3" font-family="Times New Roman,serif" font-size="14.00">(&#39;point&#39;, 4)</text>
</a>
</g>
</g>
<!-- default_2&#45;&gt;point_8 -->
<g id="edge7" class="edge">
<title>default_2&#45;&gt;point_8</title>
<path fill="none" stroke="black" d="M152.21,-353.58C168.4,-360.76 189.51,-370.13 207.78,-378.23"/>
<polygon fill="black" stroke="black" points="206.47,-381.48 217.03,-382.33 209.31,-375.08 206.47,-381.48"/>
</g>
<!-- point_9 -->
<g id="node9" class="node">
<title>point_9</title>
<g id="a_node9"><a xlink:href="javascript:s=&quot;\(&#x27;default&#x27;,\ \(&#x27;point&#x27;,\ 5\)\)\nSphere&quot;; console.log(s); alert(s);" xlink:title="Sphere">
<ellipse fill="none" stroke="black" cx="248.84" cy="-342" rx="48.19" ry="18"/>
<text text-anchor="middle" x="248.84" y="-338.3" font-family="Times New Roman,serif" font-size="14.00">(&#39;point&#39;, 5)</text>
</a>
</g>
</g>
<!-- default_2&#45;&gt;point_9 -->
<g id="edge8" class="edge">
<title>default_2&#45;&gt;point_9</title>
<path fill="none" stroke="black" d="M160.33,-342C169.72,-342 180.16,-342 190.47,-342"/>
<polygon fill="black" stroke="black" points="190.69,-345.5 200.69,-342 190.69,-338.5 190.69,-345.5"/>
</g>
<!-- point_10 -->
<g id="node10" class="node">
<title>point_10</title>
<g id="a_node10"><a xlink:href="javascript:s=&quot;\(&#x27;default&#x27;,\ \(&#x27;point&#x27;,\ 6\)\)\nSphere&quot;; console.log(s); alert(s);" xlink:title="Sphere">
<ellipse fill="none" stroke="black" cx="248.84" cy="-288" rx="48.19" ry="18"/>
<text text-anchor="middle" x="248.84" y="-284.3" font-family="Times New Roman,serif" font-size="14.00">(&#39;point&#39;, 6)</text>
</a>
</g>
</g>
<!-- default_2&#45;&gt;point_10 -->
<g id="edge9" class="edge">
<title>default_2&#45;&gt;point_10</title>
<path fill="none" stroke="black" d="M152.21,-330.42C168.4,-323.24 189.51,-313.87 207.78,-305.77"/>
<polygon fill="black" stroke="black" points="209.31,-308.92 217.03,-301.67 206.47,-302.52 209.31,-308.92"/>
</g>
<!-- point_11 -->
<g id="node11" class="node">
<title>point_11</title>
<g id="a_node11"><a xlink:href="javascript:s=&quot;\(&#x27;default&#x27;,\ \(&#x27;point&#x27;,\ 7\)\)\nSphere&quot;; console.log(s); alert(s);" xlink:title="Sphere">
<ellipse fill="none" stroke="black" cx="248.84" cy="-234" rx="48.19" ry="18"/>
<text text-anchor="middle" x="248.84" y="-230.3" font-family="Times New Roman,serif" font-size="14.00">(&#39;point&#39;, 7)</text>
</a>
</g>
</g>
<!-- default_2&#45;&gt;point_11 -->
<g id="edge10" class="edge">
<title>default_2&#45;&gt;point_11</title>
<path fill="none" stroke="black" d="M137.72,-325.15C150.51,-307.51 172.43,-279.81 196.19,-261 199.96,-258.02 204.11,-255.21 208.37,-252.62"/>
<polygon fill="black" stroke="black" points="210.21,-255.6 217.17,-247.61 206.75,-249.51 210.21,-255.6"/>
</g>
<!-- point_12 -->
<g id="node12" class="node">
<title>point_12</title>
<g id="a_node12"><a xlink:href="javascript:s=&quot;\(&#x27;default&#x27;,\ \(&#x27;point&#x27;,\ 8\)\)\nSphere&quot;; console.log(s); alert(s);" xlink:title="Sphere">
<ellipse fill="none" stroke="black" cx="248.84" cy="-180" rx="48.19" ry="18"/>
<text text-anchor="middle" x="248.84" y="-176.3" font-family="Times New Roman,serif" font-size="14.00">(&#39;point&#39;, 8)</text>
</a>
</g>
</g>
<!-- default_2&#45;&gt;point_12 -->
<g id="edge11" class="edge">
<title>default_2&#45;&gt;point_12</title>
<path fill="none" stroke="black" d="M131.47,-324.14C140.68,-296.1 161.88,-241.41 196.19,-207 199.37,-203.81 203.01,-200.91 206.85,-198.31"/>
<polygon fill="black" stroke="black" points="208.75,-201.24 215.47,-193.05 205.11,-195.27 208.75,-201.24"/>
</g>
<!-- point_13 -->
<g id="node13" class="node">
<title>point_13</title>
<g id="a_node13"><a xlink:href="javascript:s=&quot;\(&#x27;default&#x27;,\ \(&#x27;point&#x27;,\ 9\)\)\nSphere&quot;; console.log(s); alert(s);" xlink:title="Sphere">
<ellipse fill="none" stroke="black" cx="248.84" cy="-126" rx="48.19" ry="18"/>
<text text-anchor="middle" x="248.84" y="-122.3" font-family="Times New Roman,serif" font-size="14.00">(&#39;point&#39;, 9)</text>
</a>
</g>
</g>
<!-- default_2&#45;&gt;point_13 -->
<g id="edge12" class="edge">
<title>default_2&#45;&gt;point_13</title>
<path fill="none" stroke="black" d="M128.41,-323.92C133.94,-287.49 150.97,-204.34 196.19,-153 199.05,-149.75 202.4,-146.84 205.98,-144.24"/>
<polygon fill="black" stroke="black" points="208.12,-147.03 214.68,-138.72 204.37,-141.12 208.12,-147.03"/>
</g>
<!-- point_14 -->
<g id="node14" class="node">
<title>point_14</title>
<g id="a_node14"><a xlink:href="javascript:s=&quot;\(&#x27;default&#x27;,\ \(&#x27;point&#x27;,\ 10\)\)\nSphere&quot;; console.log(s); alert(s);" xlink:title="Sphere">
<ellipse fill="none" stroke="black" cx="248.84" cy="-72" rx="52.79" ry="18"/>
<text text-anchor="middle" x="248.84" y="-68.3" font-family="Times New Roman,serif" font-size="14.00">(&#39;point&#39;, 10)</text>
</a>
</g>
</g>
<!-- default_2&#45;&gt;point_14 -->
<g id="edge13" class="edge">
<title>default_2&#45;&gt;point_14</title>
<path fill="none" stroke="black" d="M126.62,-323.94C128.77,-280.38 139.8,-168.03 196.19,-99 198.61,-96.04 201.43,-93.37 204.49,-90.97"/>
<polygon fill="black" stroke="black" points="206.7,-93.7 213.03,-85.21 202.78,-87.9 206.7,-93.7"/>
</g>
<!-- point_15 -->
<g id="node15" class="node">
<title>point_15</title>
<g id="a_node15"><a xlink:href="javascript:s=&quot;\(&#x27;default&#x27;,\ \(&#x27;point&#x27;,\ 11\)\)\nSphere&quot;; console.log(s); alert(s);" xlink:title="Sphere">
<ellipse fill="none" stroke="black" cx="248.84" cy="-18" rx="52.79" ry="18"/>
<text text-anchor="middle" x="248.84" y="-14.3" font-family="Times New Roman,serif" font-size="14.00">(&#39;point&#39;, 11)</text>
</a>
</g>
</g>
<!-- default_2&#45;&gt;point_15 -->
<g id="edge14" class="edge">
<title>default_2&#45;&gt;point_15</title>
<path fill="none" stroke="black" d="M125.44,-323.77C124.57,-273.7 128.59,-132.03 196.19,-45 198.5,-42.03 201.23,-39.35 204.21,-36.94"/>
<polygon fill="black" stroke="black" points="206.3,-39.75 212.55,-31.19 202.33,-33.99 206.3,-39.75"/>
</g>
</g>
</svg>
