<?xml version="1.0" encoding="UTF-8" standalone="no"?>
<!DOCTYPE svg PUBLIC "-//W3C//DTD SVG 1.1//EN"
 "http://www.w3.org/Graphics/SVG/1.1/DTD/svg11.dtd">
<!-- Generated by graphviz version 5.0.0 (20220707.1540)
 -->
<!-- Title: default Pages: 1 -->
<svg width="289pt" height="44pt"
 viewBox="0.00 0.00 288.69 44.00" xmlns="http://www.w3.org/2000/svg" xmlns:xlink="http://www.w3.org/1999/xlink">
<g id="graph0" class="graph" transform="scale(1 1) rotate(0) translate(4 40)">
<title>default</title>
<polygon fill="white" stroke="transparent" points="-4,4 -4,-40 284.69,-40 284.69,4 -4,4"/>
<!-- root_1 -->
<g id="node1" class="node">
<title>root_1</title>
<g id="a_node1"><a xlink:href="javascript:s=&quot;\(\)\nNone&quot;; console.log(s); alert(s);" xlink:title="root">
<ellipse fill="none" stroke="black" cx="27" cy="-18" rx="27" ry="18"/>
<text text-anchor="middle" x="27" y="-14.3" font-family="Times New Roman,serif" font-size="14.00">root</text>
</a>
</g>
</g>
<!-- default_2 -->
<g id="node2" class="node">
<title>default_2</title>
<g id="a_node2"><a xlink:href="javascript:s=&quot;\(&#x27;default&#x27;,\)\nCurtainEndCap&quot;; console.log(s); alert(s);" xlink:title="CurtainEndCap">
<ellipse fill="none" stroke="black" cx="125.1" cy="-18" rx="35.19" ry="18"/>
<text text-anchor="middle" x="125.1" y="-14.3" font-family="Times New Roman,serif" font-size="14.00">default</text>
</a>
</g>
</g>
<!-- root_1&#45;&gt;default_2 -->
<g id="edge1" class="edge">
<title>root_1&#45;&gt;default_2</title>
<path fill="none" stroke="black" d="M54.01,-18C61.92,-18 70.84,-18 79.61,-18"/>
<polygon fill="black" stroke="black" points="79.76,-21.5 89.76,-18 79.76,-14.5 79.76,-21.5"/>
</g>
<!-- end_cap_3 -->
<g id="node3" class="node">
<title>end_cap_3</title>
<g id="a_node3"><a xlink:href="javascript:s=&quot;\(&#x27;default&#x27;,\ &#x27;end_cap&#x27;\)\nRotateExtrude&quot;; console.log(s); alert(s);" xlink:title="RotateExtrude">
<ellipse fill="none" stroke="black" cx="238.44" cy="-18" rx="42.49" ry="18"/>
<text text-anchor="middle" x="238.44" y="-14.3" font-family="Times New Roman,serif" font-size="14.00">end_cap</text>
</a>
</g>
</g>
<!-- default_2&#45;&gt;end_cap_3 -->
<g id="edge2" class="edge">
<title>default_2&#45;&gt;end_cap_3</title>
<path fill="none" stroke="black" d="M160.41,-18C168.49,-18 177.29,-18 185.94,-18"/>
<polygon fill="black" stroke="black" points="185.99,-21.5 195.99,-18 185.99,-14.5 185.99,-21.5"/>
</g>
</g>
</svg>
