<?xml version="1.0" encoding="UTF-8" standalone="no"?>
<!DOCTYPE svg PUBLIC "-//W3C//DTD SVG 1.1//EN"
 "http://www.w3.org/Graphics/SVG/1.1/DTD/svg11.dtd">
<!-- Generated by graphviz version 5.0.0 (20220707.1540)
 -->
<!-- Title: default Pages: 1 -->
<svg width="306pt" height="908pt"
 viewBox="0.00 0.00 305.58 908.00" xmlns="http://www.w3.org/2000/svg" xmlns:xlink="http://www.w3.org/1999/xlink">
<g id="graph0" class="graph" transform="scale(1 1) rotate(0) translate(4 904)">
<title>default</title>
<polygon fill="white" stroke="transparent" points="-4,4 -4,-904 301.58,-904 301.58,4 -4,4"/>
<!-- root_25 -->
<g id="node1" class="node">
<title>root_25</title>
<g id="a_node1"><a xlink:href="javascript:s=&quot;\(\)\nNone&quot;; console.log(s); alert(s);" xlink:title="root">
<ellipse fill="none" stroke="black" cx="27" cy="-450" rx="27" ry="18"/>
<text text-anchor="middle" x="27" y="-446.3" font-family="Times New Roman,serif" font-size="14.00">root</text>
</a>
</g>
</g>
<!-- default_26 -->
<g id="node2" class="node">
<title>default_26</title>
<g id="a_node2"><a xlink:href="javascript:s=&quot;\(&#x27;default&#x27;,\)\nRectangularGrilleHoles&quot;; console.log(s); alert(s);" xlink:title="RectangularGrilleHoles">
<ellipse fill="none" stroke="black" cx="125.1" cy="-450" rx="35.19" ry="18"/>
<text text-anchor="middle" x="125.1" y="-446.3" font-family="Times New Roman,serif" font-size="14.00">default</text>
</a>
</g>
</g>
<!-- root_25&#45;&gt;default_26 -->
<g id="edge1" class="edge">
<title>root_25&#45;&gt;default_26</title>
<path fill="none" stroke="black" d="M54.01,-450C61.92,-450 70.84,-450 79.61,-450"/>
<polygon fill="black" stroke="black" points="79.76,-453.5 89.76,-450 79.76,-446.5 79.76,-453.5"/>
</g>
<!-- cage_27 -->
<g id="node3" class="node">
<title>cage_27</title>
<g id="a_node3"><a xlink:href="javascript:s=&quot;\(&#x27;default&#x27;,\ &#x27;cage&#x27;\)\nBox&quot;; console.log(s); alert(s);" xlink:title="Box">
<ellipse fill="none" stroke="black" cx="246.89" cy="-882" rx="27.1" ry="18"/>
<text text-anchor="middle" x="246.89" y="-878.3" font-family="Times New Roman,serif" font-size="14.00">cage</text>
</a>
</g>
</g>
<!-- default_26&#45;&gt;cage_27 -->
<g id="edge2" class="edge">
<title>default_26&#45;&gt;cage_27</title>
<path fill="none" stroke="black" d="M127.15,-467.99C131.56,-537.96 150.44,-791.22 196.19,-855 200.42,-860.9 206.35,-865.64 212.65,-869.4"/>
<polygon fill="black" stroke="black" points="211.49,-872.74 221.98,-874.23 214.71,-866.53 211.49,-872.74"/>
</g>
<!-- vane_28 -->
<g id="node4" class="node">
<title>vane_28</title>
<g id="a_node4"><a xlink:href="javascript:s=&quot;\(&#x27;default&#x27;,\ \(&#x27;vane&#x27;,\ 0\)\)\nLinearExtrude&quot;; console.log(s); alert(s);" xlink:title="LinearExtrude">
<ellipse fill="none" stroke="black" cx="246.89" cy="-828" rx="46.29" ry="18"/>
<text text-anchor="middle" x="246.89" y="-824.3" font-family="Times New Roman,serif" font-size="14.00">(&#39;vane&#39;, 0)</text>
</a>
</g>
</g>
<!-- default_26&#45;&gt;vane_28 -->
<g id="edge3" class="edge">
<title>default_26&#45;&gt;vane_28</title>
<path fill="none" stroke="black" d="M127.7,-468.18C133.64,-532.26 156.19,-746.72 196.19,-801 198.61,-804.29 201.56,-807.22 204.79,-809.82"/>
<polygon fill="black" stroke="black" points="203.07,-812.88 213.3,-815.64 207.02,-807.1 203.07,-812.88"/>
</g>
<!-- vane_29 -->
<g id="node5" class="node">
<title>vane_29</title>
<g id="a_node5"><a xlink:href="javascript:s=&quot;\(&#x27;default&#x27;,\ \(&#x27;vane&#x27;,\ 1\)\)\nLinearExtrude&quot;; console.log(s); alert(s);" xlink:title="LinearExtrude">
<ellipse fill="none" stroke="black" cx="246.89" cy="-774" rx="46.29" ry="18"/>
<text text-anchor="middle" x="246.89" y="-770.3" font-family="Times New Roman,serif" font-size="14.00">(&#39;vane&#39;, 1)</text>
</a>
</g>
</g>
<!-- default_26&#45;&gt;vane_29 -->
<g id="edge4" class="edge">
<title>default_26&#45;&gt;vane_29</title>
<path fill="none" stroke="black" d="M125.51,-468.17C124.83,-518.1 129.29,-659.44 196.19,-747 198.67,-750.24 201.65,-753.14 204.91,-755.73"/>
<polygon fill="black" stroke="black" points="203.21,-758.8 213.45,-761.52 207.14,-753.01 203.21,-758.8"/>
</g>
<!-- vane_30 -->
<g id="node6" class="node">
<title>vane_30</title>
<g id="a_node6"><a xlink:href="javascript:s=&quot;\(&#x27;default&#x27;,\ \(&#x27;vane&#x27;,\ 2\)\)\nLinearExtrude&quot;; console.log(s); alert(s);" xlink:title="LinearExtrude">
<ellipse fill="none" stroke="black" cx="246.89" cy="-720" rx="46.29" ry="18"/>
<text text-anchor="middle" x="246.89" y="-716.3" font-family="Times New Roman,serif" font-size="14.00">(&#39;vane&#39;, 2)</text>
</a>
</g>
</g>
<!-- default_26&#45;&gt;vane_30 -->
<g id="edge5" class="edge">
<title>default_26&#45;&gt;vane_30</title>
<path fill="none" stroke="black" d="M126.69,-468C129,-511.43 140.36,-623.52 196.19,-693 198.75,-696.18 201.79,-699.04 205.08,-701.6"/>
<polygon fill="black" stroke="black" points="203.41,-704.69 213.67,-707.35 207.31,-698.88 203.41,-704.69"/>
</g>
<!-- vane_31 -->
<g id="node7" class="node">
<title>vane_31</title>
<g id="a_node7"><a xlink:href="javascript:s=&quot;\(&#x27;default&#x27;,\ \(&#x27;vane&#x27;,\ 3\)\)\nLinearExtrude&quot;; console.log(s); alert(s);" xlink:title="LinearExtrude">
<ellipse fill="none" stroke="black" cx="246.89" cy="-666" rx="46.29" ry="18"/>
<text text-anchor="middle" x="246.89" y="-662.3" font-family="Times New Roman,serif" font-size="14.00">(&#39;vane&#39;, 3)</text>
</a>
</g>
</g>
<!-- default_26&#45;&gt;vane_31 -->
<g id="edge6" class="edge">
<title>default_26&#45;&gt;vane_31</title>
<path fill="none" stroke="black" d="M128.48,-468.02C134.13,-504.34 151.38,-587.3 196.19,-639 198.98,-642.21 202.24,-645.11 205.75,-647.71"/>
<polygon fill="black" stroke="black" points="203.95,-650.72 214.24,-653.24 207.77,-644.85 203.95,-650.72"/>
</g>
<!-- vane_32 -->
<g id="node8" class="node">
<title>vane_32</title>
<g id="a_node8"><a xlink:href="javascript:s=&quot;\(&#x27;default&#x27;,\ \(&#x27;vane&#x27;,\ 4\)\)\nLinearExtrude&quot;; console.log(s); alert(s);" xlink:title="LinearExtrude">
<ellipse fill="none" stroke="black" cx="246.89" cy="-612" rx="46.29" ry="18"/>
<text text-anchor="middle" x="246.89" y="-608.3" font-family="Times New Roman,serif" font-size="14.00">(&#39;vane&#39;, 4)</text>
</a>
</g>
</g>
<!-- default_26&#45;&gt;vane_32 -->
<g id="edge7" class="edge">
<title>default_26&#45;&gt;vane_32</title>
<path fill="none" stroke="black" d="M131.54,-467.8C140.84,-495.75 162.16,-550.32 196.19,-585 199.21,-588.07 202.65,-590.89 206.29,-593.44"/>
<polygon fill="black" stroke="black" points="204.67,-596.56 215,-598.92 208.4,-590.63 204.67,-596.56"/>
</g>
<!-- vane_33 -->
<g id="node9" class="node">
<title>vane_33</title>
<g id="a_node9"><a xlink:href="javascript:s=&quot;\(&#x27;default&#x27;,\ \(&#x27;vane&#x27;,\ 5\)\)\nLinearExtrude&quot;; console.log(s); alert(s);" xlink:title="LinearExtrude">
<ellipse fill="none" stroke="black" cx="246.89" cy="-558" rx="46.29" ry="18"/>
<text text-anchor="middle" x="246.89" y="-554.3" font-family="Times New Roman,serif" font-size="14.00">(&#39;vane&#39;, 5)</text>
</a>
</g>
</g>
<!-- default_26&#45;&gt;vane_33 -->
<g id="edge8" class="edge">
<title>default_26&#45;&gt;vane_33</title>
<path fill="none" stroke="black" d="M138.02,-467.1C150.89,-484.69 172.72,-512.11 196.19,-531 199.78,-533.88 203.71,-536.61 207.75,-539.15"/>
<polygon fill="black" stroke="black" points="206.26,-542.34 216.66,-544.39 209.81,-536.3 206.26,-542.34"/>
</g>
<!-- vane_34 -->
<g id="node10" class="node">
<title>vane_34</title>
<g id="a_node10"><a xlink:href="javascript:s=&quot;\(&#x27;default&#x27;,\ \(&#x27;vane&#x27;,\ 6\)\)\nLinearExtrude&quot;; console.log(s); alert(s);" xlink:title="LinearExtrude">
<ellipse fill="none" stroke="black" cx="246.89" cy="-504" rx="46.29" ry="18"/>
<text text-anchor="middle" x="246.89" y="-500.3" font-family="Times New Roman,serif" font-size="14.00">(&#39;vane&#39;, 6)</text>
</a>
</g>
</g>
<!-- default_26&#45;&gt;vane_34 -->
<g id="edge9" class="edge">
<title>default_26&#45;&gt;vane_34</title>
<path fill="none" stroke="black" d="M152.09,-461.72C167.88,-468.84 188.36,-478.07 206.16,-486.09"/>
<polygon fill="black" stroke="black" points="205.16,-489.48 215.72,-490.4 208.04,-483.1 205.16,-489.48"/>
</g>
<!-- vane_35 -->
<g id="node11" class="node">
<title>vane_35</title>
<g id="a_node11"><a xlink:href="javascript:s=&quot;\(&#x27;default&#x27;,\ \(&#x27;vane&#x27;,\ 7\)\)\nLinearExtrude&quot;; console.log(s); alert(s);" xlink:title="LinearExtrude">
<ellipse fill="none" stroke="black" cx="246.89" cy="-450" rx="46.29" ry="18"/>
<text text-anchor="middle" x="246.89" y="-446.3" font-family="Times New Roman,serif" font-size="14.00">(&#39;vane&#39;, 7)</text>
</a>
</g>
</g>
<!-- default_26&#45;&gt;vane_35 -->
<g id="edge10" class="edge">
<title>default_26&#45;&gt;vane_35</title>
<path fill="none" stroke="black" d="M160.42,-450C169.76,-450 180.11,-450 190.3,-450"/>
<polygon fill="black" stroke="black" points="190.38,-453.5 200.38,-450 190.38,-446.5 190.38,-453.5"/>
</g>
<!-- vane_36 -->
<g id="node12" class="node">
<title>vane_36</title>
<g id="a_node12"><a xlink:href="javascript:s=&quot;\(&#x27;default&#x27;,\ \(&#x27;vane&#x27;,\ 8\)\)\nLinearExtrude&quot;; console.log(s); alert(s);" xlink:title="LinearExtrude">
<ellipse fill="none" stroke="black" cx="246.89" cy="-396" rx="46.29" ry="18"/>
<text text-anchor="middle" x="246.89" y="-392.3" font-family="Times New Roman,serif" font-size="14.00">(&#39;vane&#39;, 8)</text>
</a>
</g>
</g>
<!-- default_26&#45;&gt;vane_36 -->
<g id="edge11" class="edge">
<title>default_26&#45;&gt;vane_36</title>
<path fill="none" stroke="black" d="M152.09,-438.28C167.88,-431.16 188.36,-421.93 206.16,-413.91"/>
<polygon fill="black" stroke="black" points="208.04,-416.9 215.72,-409.6 205.16,-410.52 208.04,-416.9"/>
</g>
<!-- vane_37 -->
<g id="node13" class="node">
<title>vane_37</title>
<g id="a_node13"><a xlink:href="javascript:s=&quot;\(&#x27;default&#x27;,\ \(&#x27;vane&#x27;,\ 9\)\)\nLinearExtrude&quot;; console.log(s); alert(s);" xlink:title="LinearExtrude">
<ellipse fill="none" stroke="black" cx="246.89" cy="-342" rx="46.29" ry="18"/>
<text text-anchor="middle" x="246.89" y="-338.3" font-family="Times New Roman,serif" font-size="14.00">(&#39;vane&#39;, 9)</text>
</a>
</g>
</g>
<!-- default_26&#45;&gt;vane_37 -->
<g id="edge12" class="edge">
<title>default_26&#45;&gt;vane_37</title>
<path fill="none" stroke="black" d="M138.02,-432.9C150.89,-415.31 172.72,-387.89 196.19,-369 199.78,-366.12 203.71,-363.39 207.75,-360.85"/>
<polygon fill="black" stroke="black" points="209.81,-363.7 216.66,-355.61 206.26,-357.66 209.81,-363.7"/>
</g>
<!-- vane_38 -->
<g id="node14" class="node">
<title>vane_38</title>
<g id="a_node14"><a xlink:href="javascript:s=&quot;\(&#x27;default&#x27;,\ \(&#x27;vane&#x27;,\ 10\)\)\nLinearExtrude&quot;; console.log(s); alert(s);" xlink:title="LinearExtrude">
<ellipse fill="none" stroke="black" cx="246.89" cy="-288" rx="50.89" ry="18"/>
<text text-anchor="middle" x="246.89" y="-284.3" font-family="Times New Roman,serif" font-size="14.00">(&#39;vane&#39;, 10)</text>
</a>
</g>
</g>
<!-- default_26&#45;&gt;vane_38 -->
<g id="edge13" class="edge">
<title>default_26&#45;&gt;vane_38</title>
<path fill="none" stroke="black" d="M131.54,-432.2C140.84,-404.25 162.16,-349.68 196.19,-315 198.94,-312.2 202.04,-309.62 205.31,-307.26"/>
<polygon fill="black" stroke="black" points="207.21,-310.19 213.71,-301.82 203.41,-304.32 207.21,-310.19"/>
</g>
<!-- vane_39 -->
<g id="node15" class="node">
<title>vane_39</title>
<g id="a_node15"><a xlink:href="javascript:s=&quot;\(&#x27;default&#x27;,\ \(&#x27;vane&#x27;,\ 11\)\)\nLinearExtrude&quot;; console.log(s); alert(s);" xlink:title="LinearExtrude">
<ellipse fill="none" stroke="black" cx="246.89" cy="-234" rx="50.89" ry="18"/>
<text text-anchor="middle" x="246.89" y="-230.3" font-family="Times New Roman,serif" font-size="14.00">(&#39;vane&#39;, 11)</text>
</a>
</g>
</g>
<!-- default_26&#45;&gt;vane_39 -->
<g id="edge14" class="edge">
<title>default_26&#45;&gt;vane_39</title>
<path fill="none" stroke="black" d="M128.48,-431.98C134.13,-395.66 151.38,-312.7 196.19,-261 198.65,-258.16 201.49,-255.57 204.53,-253.21"/>
<polygon fill="black" stroke="black" points="206.63,-256.02 212.95,-247.51 202.71,-250.22 206.63,-256.02"/>
</g>
<!-- vane_40 -->
<g id="node16" class="node">
<title>vane_40</title>
<g id="a_node16"><a xlink:href="javascript:s=&quot;\(&#x27;default&#x27;,\ \(&#x27;vane&#x27;,\ 12\)\)\nLinearExtrude&quot;; console.log(s); alert(s);" xlink:title="LinearExtrude">
<ellipse fill="none" stroke="black" cx="246.89" cy="-180" rx="50.89" ry="18"/>
<text text-anchor="middle" x="246.89" y="-176.3" font-family="Times New Roman,serif" font-size="14.00">(&#39;vane&#39;, 12)</text>
</a>
</g>
</g>
<!-- default_26&#45;&gt;vane_40 -->
<g id="edge15" class="edge">
<title>default_26&#45;&gt;vane_40</title>
<path fill="none" stroke="black" d="M126.69,-432C129,-388.57 140.36,-276.48 196.19,-207 198.51,-204.11 201.23,-201.49 204.17,-199.12"/>
<polygon fill="black" stroke="black" points="206.17,-201.99 212.38,-193.41 202.17,-196.24 206.17,-201.99"/>
</g>
<!-- vane_41 -->
<g id="node17" class="node">
<title>vane_41</title>
<g id="a_node17"><a xlink:href="javascript:s=&quot;\(&#x27;default&#x27;,\ \(&#x27;vane&#x27;,\ 13\)\)\nLinearExtrude&quot;; console.log(s); alert(s);" xlink:title="LinearExtrude">
<ellipse fill="none" stroke="black" cx="246.89" cy="-126" rx="50.89" ry="18"/>
<text text-anchor="middle" x="246.89" y="-122.3" font-family="Times New Roman,serif" font-size="14.00">(&#39;vane&#39;, 13)</text>
</a>
</g>
</g>
<!-- default_26&#45;&gt;vane_41 -->
<g id="edge16" class="edge">
<title>default_26&#45;&gt;vane_41</title>
<path fill="none" stroke="black" d="M125.51,-431.83C124.83,-381.9 129.29,-240.56 196.19,-153 198.38,-150.14 200.95,-147.55 203.76,-145.21"/>
<polygon fill="black" stroke="black" points="206.04,-147.88 212.17,-139.24 201.99,-142.17 206.04,-147.88"/>
</g>
<!-- vane_42 -->
<g id="node18" class="node">
<title>vane_42</title>
<g id="a_node18"><a xlink:href="javascript:s=&quot;\(&#x27;default&#x27;,\ \(&#x27;vane&#x27;,\ 14\)\)\nLinearExtrude&quot;; console.log(s); alert(s);" xlink:title="LinearExtrude">
<ellipse fill="none" stroke="black" cx="246.89" cy="-72" rx="50.89" ry="18"/>
<text text-anchor="middle" x="246.89" y="-68.3" font-family="Times New Roman,serif" font-size="14.00">(&#39;vane&#39;, 14)</text>
</a>
</g>
</g>
<!-- default_26&#45;&gt;vane_42 -->
<g id="edge17" class="edge">
<title>default_26&#45;&gt;vane_42</title>
<path fill="none" stroke="black" d="M127.7,-431.82C133.64,-367.74 156.19,-153.28 196.19,-99 198.33,-96.11 200.87,-93.49 203.65,-91.13"/>
<polygon fill="black" stroke="black" points="205.93,-93.8 212.02,-85.13 201.85,-88.11 205.93,-93.8"/>
</g>
<!-- vane_43 -->
<g id="node19" class="node">
<title>vane_43</title>
<g id="a_node19"><a xlink:href="javascript:s=&quot;\(&#x27;default&#x27;,\ \(&#x27;vane&#x27;,\ 15\)\)\nLinearExtrude&quot;; console.log(s); alert(s);" xlink:title="LinearExtrude">
<ellipse fill="none" stroke="black" cx="246.89" cy="-18" rx="50.89" ry="18"/>
<text text-anchor="middle" x="246.89" y="-14.3" font-family="Times New Roman,serif" font-size="14.00">(&#39;vane&#39;, 15)</text>
</a>
</g>
</g>
<!-- default_26&#45;&gt;vane_43 -->
<g id="edge18" class="edge">
<title>default_26&#45;&gt;vane_43</title>
<path fill="none" stroke="black" d="M127.15,-432.01C131.56,-362.04 150.44,-108.78 196.19,-45 198.29,-42.08 200.8,-39.44 203.57,-37.07"/>
<polygon fill="black" stroke="black" points="205.85,-39.74 211.91,-31.05 201.75,-34.06 205.85,-39.74"/>
</g>
</g>
</svg>
