<?xml version="1.0" encoding="UTF-8" standalone="no"?>
<!DOCTYPE svg PUBLIC "-//W3C//DTD SVG 1.1//EN"
 "http://www.w3.org/Graphics/SVG/1.1/DTD/svg11.dtd">
<!-- Generated by graphviz version 5.0.0 (20220707.1540)
 -->
<!-- Title: default Pages: 1 -->
<svg width="328pt" height="530pt"
 viewBox="0.00 0.00 327.68 530.00" xmlns="http://www.w3.org/2000/svg" xmlns:xlink="http://www.w3.org/1999/xlink">
<g id="graph0" class="graph" transform="scale(1 1) rotate(0) translate(4 526)">
<title>default</title>
<polygon fill="white" stroke="transparent" points="-4,4 -4,-526 323.68,-526 323.68,4 -4,4"/>
<!-- root_1 -->
<g id="node1" class="node">
<title>root_1</title>
<g id="a_node1"><a xlink:href="javascript:s=&quot;\(\)\nNone&quot;; console.log(s); alert(s);" xlink:title="root">
<ellipse fill="none" stroke="black" cx="27" cy="-261" rx="27" ry="18"/>
<text text-anchor="middle" x="27" y="-257.3" font-family="Times New Roman,serif" font-size="14.00">root</text>
</a>
</g>
</g>
<!-- default_2 -->
<g id="node2" class="node">
<title>default_2</title>
<g id="a_node2"><a xlink:href="javascript:s=&quot;\(&#x27;default&#x27;,\)\nRectangularGrille&quot;; console.log(s); alert(s);" xlink:title="RectangularGrille">
<ellipse fill="none" stroke="black" cx="125.1" cy="-261" rx="35.19" ry="18"/>
<text text-anchor="middle" x="125.1" y="-257.3" font-family="Times New Roman,serif" font-size="14.00">default</text>
</a>
</g>
</g>
<!-- root_1&#45;&gt;default_2 -->
<g id="edge1" class="edge">
<title>root_1&#45;&gt;default_2</title>
<path fill="none" stroke="black" d="M54.01,-261C61.92,-261 70.84,-261 79.61,-261"/>
<polygon fill="black" stroke="black" points="79.76,-264.5 89.76,-261 79.76,-257.5 79.76,-264.5"/>
</g>
<!-- cage_3 -->
<g id="node3" class="node">
<title>cage_3</title>
<g id="a_node3"><a xlink:href="javascript:s=&quot;\(&#x27;default&#x27;,\ &#x27;cage&#x27;\)\nBox&quot;; console.log(s); alert(s);" xlink:title="Box">
<ellipse fill="none" stroke="black" cx="257.94" cy="-504" rx="27.1" ry="18"/>
<text text-anchor="middle" x="257.94" y="-500.3" font-family="Times New Roman,serif" font-size="14.00">cage</text>
</a>
</g>
</g>
<!-- default_2&#45;&gt;cage_3 -->
<g id="edge2" class="edge">
<title>default_2&#45;&gt;cage_3</title>
<path fill="none" stroke="black" d="M127.12,-279.07C130.32,-319.53 143.42,-418.41 196.19,-477 203.2,-484.78 212.88,-490.44 222.44,-494.5"/>
<polygon fill="black" stroke="black" points="221.28,-497.8 231.87,-498.05 223.75,-491.25 221.28,-497.8"/>
</g>
<!-- vane_4 -->
<g id="node4" class="node">
<title>vane_4</title>
<g id="a_node4"><a xlink:href="javascript:s=&quot;\(&#x27;default&#x27;,\ \(&#x27;vane&#x27;,\ &#x27;left&#x27;\)\)\nLinearExtrude&quot;; console.log(s); alert(s);" xlink:title="LinearExtrude">
<ellipse fill="none" stroke="black" cx="257.94" cy="-450" rx="57.39" ry="18"/>
<text text-anchor="middle" x="257.94" y="-446.3" font-family="Times New Roman,serif" font-size="14.00">(&#39;vane&#39;, &#39;left&#39;)</text>
</a>
</g>
</g>
<!-- default_2&#45;&gt;vane_4 -->
<g id="edge3" class="edge">
<title>default_2&#45;&gt;vane_4</title>
<path fill="none" stroke="black" d="M129.39,-278.98C136.26,-311.7 155.01,-381.41 196.19,-423 199.67,-426.51 203.67,-429.59 207.94,-432.31"/>
<polygon fill="black" stroke="black" points="206.53,-435.53 216.97,-437.36 209.95,-429.42 206.53,-435.53"/>
</g>
<!-- vane_5 -->
<g id="node5" class="node">
<title>vane_5</title>
<g id="a_node5"><a xlink:href="javascript:s=&quot;\(&#x27;default&#x27;,\ \(&#x27;vane&#x27;,\ 0\)\)\nLinearExtrude&quot;; console.log(s); alert(s);" xlink:title="LinearExtrude">
<ellipse fill="none" stroke="black" cx="257.94" cy="-396" rx="46.29" ry="18"/>
<text text-anchor="middle" x="257.94" y="-392.3" font-family="Times New Roman,serif" font-size="14.00">(&#39;vane&#39;, 0)</text>
</a>
</g>
</g>
<!-- default_2&#45;&gt;vane_5 -->
<g id="edge4" class="edge">
<title>default_2&#45;&gt;vane_5</title>
<path fill="none" stroke="black" d="M133.59,-278.57C144.36,-301.99 166.27,-343.46 196.19,-369 201.15,-373.23 206.87,-376.91 212.78,-380.07"/>
<polygon fill="black" stroke="black" points="211.62,-383.39 222.14,-384.62 214.68,-377.1 211.62,-383.39"/>
</g>
<!-- vane_6 -->
<g id="node6" class="node">
<title>vane_6</title>
<g id="a_node6"><a xlink:href="javascript:s=&quot;\(&#x27;default&#x27;,\ \(&#x27;vane&#x27;,\ 1\)\)\nLinearExtrude&quot;; console.log(s); alert(s);" xlink:title="LinearExtrude">
<ellipse fill="none" stroke="black" cx="257.94" cy="-342" rx="46.29" ry="18"/>
<text text-anchor="middle" x="257.94" y="-338.3" font-family="Times New Roman,serif" font-size="14.00">(&#39;vane&#39;, 1)</text>
</a>
</g>
</g>
<!-- default_2&#45;&gt;vane_6 -->
<g id="edge5" class="edge">
<title>default_2&#45;&gt;vane_6</title>
<path fill="none" stroke="black" d="M143.7,-276.46C157.39,-288.01 177.19,-303.68 196.19,-315 202.19,-318.57 208.74,-321.96 215.25,-325.06"/>
<polygon fill="black" stroke="black" points="214.14,-328.4 224.69,-329.37 217.05,-322.03 214.14,-328.4"/>
</g>
<!-- vane_7 -->
<g id="node7" class="node">
<title>vane_7</title>
<g id="a_node7"><a xlink:href="javascript:s=&quot;\(&#x27;default&#x27;,\ \(&#x27;vane&#x27;,\ 2\)\)\nLinearExtrude&quot;; console.log(s); alert(s);" xlink:title="LinearExtrude">
<ellipse fill="none" stroke="black" cx="257.94" cy="-288" rx="46.29" ry="18"/>
<text text-anchor="middle" x="257.94" y="-284.3" font-family="Times New Roman,serif" font-size="14.00">(&#39;vane&#39;, 2)</text>
</a>
</g>
</g>
<!-- default_2&#45;&gt;vane_7 -->
<g id="edge6" class="edge">
<title>default_2&#45;&gt;vane_7</title>
<path fill="none" stroke="black" d="M158.1,-267.6C172.76,-270.63 190.49,-274.29 206.85,-277.66"/>
<polygon fill="black" stroke="black" points="206.32,-281.13 216.82,-279.72 207.74,-274.27 206.32,-281.13"/>
</g>
<!-- vane_8 -->
<g id="node8" class="node">
<title>vane_8</title>
<g id="a_node8"><a xlink:href="javascript:s=&quot;\(&#x27;default&#x27;,\ \(&#x27;vane&#x27;,\ 3\)\)\nLinearExtrude&quot;; console.log(s); alert(s);" xlink:title="LinearExtrude">
<ellipse fill="none" stroke="black" cx="257.94" cy="-234" rx="46.29" ry="18"/>
<text text-anchor="middle" x="257.94" y="-230.3" font-family="Times New Roman,serif" font-size="14.00">(&#39;vane&#39;, 3)</text>
</a>
</g>
</g>
<!-- default_2&#45;&gt;vane_8 -->
<g id="edge7" class="edge">
<title>default_2&#45;&gt;vane_8</title>
<path fill="none" stroke="black" d="M158.1,-254.4C172.76,-251.37 190.49,-247.71 206.85,-244.34"/>
<polygon fill="black" stroke="black" points="207.74,-247.73 216.82,-242.28 206.32,-240.87 207.74,-247.73"/>
</g>
<!-- vane_9 -->
<g id="node9" class="node">
<title>vane_9</title>
<g id="a_node9"><a xlink:href="javascript:s=&quot;\(&#x27;default&#x27;,\ \(&#x27;vane&#x27;,\ 4\)\)\nLinearExtrude&quot;; console.log(s); alert(s);" xlink:title="LinearExtrude">
<ellipse fill="none" stroke="black" cx="257.94" cy="-180" rx="46.29" ry="18"/>
<text text-anchor="middle" x="257.94" y="-176.3" font-family="Times New Roman,serif" font-size="14.00">(&#39;vane&#39;, 4)</text>
</a>
</g>
</g>
<!-- default_2&#45;&gt;vane_9 -->
<g id="edge8" class="edge">
<title>default_2&#45;&gt;vane_9</title>
<path fill="none" stroke="black" d="M143.7,-245.54C157.39,-233.99 177.19,-218.32 196.19,-207 202.19,-203.43 208.74,-200.04 215.25,-196.94"/>
<polygon fill="black" stroke="black" points="217.05,-199.97 224.69,-192.63 214.14,-193.6 217.05,-199.97"/>
</g>
<!-- vane_10 -->
<g id="node10" class="node">
<title>vane_10</title>
<g id="a_node10"><a xlink:href="javascript:s=&quot;\(&#x27;default&#x27;,\ \(&#x27;vane&#x27;,\ 5\)\)\nLinearExtrude&quot;; console.log(s); alert(s);" xlink:title="LinearExtrude">
<ellipse fill="none" stroke="black" cx="257.94" cy="-126" rx="46.29" ry="18"/>
<text text-anchor="middle" x="257.94" y="-122.3" font-family="Times New Roman,serif" font-size="14.00">(&#39;vane&#39;, 5)</text>
</a>
</g>
</g>
<!-- default_2&#45;&gt;vane_10 -->
<g id="edge9" class="edge">
<title>default_2&#45;&gt;vane_10</title>
<path fill="none" stroke="black" d="M133.59,-243.43C144.36,-220.01 166.27,-178.54 196.19,-153 201.15,-148.77 206.87,-145.09 212.78,-141.93"/>
<polygon fill="black" stroke="black" points="214.68,-144.9 222.14,-137.38 211.62,-138.61 214.68,-144.9"/>
</g>
<!-- vane_11 -->
<g id="node11" class="node">
<title>vane_11</title>
<g id="a_node11"><a xlink:href="javascript:s=&quot;\(&#x27;default&#x27;,\ \(&#x27;vane&#x27;,\ 6\)\)\nLinearExtrude&quot;; console.log(s); alert(s);" xlink:title="LinearExtrude">
<ellipse fill="none" stroke="black" cx="257.94" cy="-72" rx="46.29" ry="18"/>
<text text-anchor="middle" x="257.94" y="-68.3" font-family="Times New Roman,serif" font-size="14.00">(&#39;vane&#39;, 6)</text>
</a>
</g>
</g>
<!-- default_2&#45;&gt;vane_11 -->
<g id="edge10" class="edge">
<title>default_2&#45;&gt;vane_11</title>
<path fill="none" stroke="black" d="M129.39,-243.02C136.26,-210.3 155.01,-140.59 196.19,-99 200.67,-94.48 206.04,-90.65 211.7,-87.43"/>
<polygon fill="black" stroke="black" points="213.41,-90.49 220.76,-82.86 210.26,-84.24 213.41,-90.49"/>
</g>
<!-- vane_12 -->
<g id="node12" class="node">
<title>vane_12</title>
<g id="a_node12"><a xlink:href="javascript:s=&quot;\(&#x27;default&#x27;,\ \(&#x27;vane&#x27;,\ &#x27;right&#x27;\)\)\nLinearExtrude&quot;; console.log(s); alert(s);" xlink:title="LinearExtrude">
<ellipse fill="none" stroke="black" cx="257.94" cy="-18" rx="61.99" ry="18"/>
<text text-anchor="middle" x="257.94" y="-14.3" font-family="Times New Roman,serif" font-size="14.00">(&#39;vane&#39;, &#39;right&#39;)</text>
</a>
</g>
</g>
<!-- default_2&#45;&gt;vane_12 -->
<g id="edge11" class="edge">
<title>default_2&#45;&gt;vane_12</title>
<path fill="none" stroke="black" d="M127.12,-242.93C130.32,-202.47 143.42,-103.59 196.19,-45 199.1,-41.77 202.47,-38.9 206.11,-36.37"/>
<polygon fill="black" stroke="black" points="208.21,-39.19 214.96,-31.02 204.59,-33.19 208.21,-39.19"/>
</g>
</g>
</svg>
