<?xml version="1.0" encoding="UTF-8" standalone="no"?>
<!DOCTYPE svg PUBLIC "-//W3C//DTD SVG 1.1//EN"
 "http://www.w3.org/Graphics/SVG/1.1/DTD/svg11.dtd">
<!-- Generated by graphviz version 5.0.0 (20220707.1540)
 -->
<!-- Title: default Pages: 1 -->
<svg width="573pt" height="368pt"
 viewBox="0.00 0.00 572.57 368.00" xmlns="http://www.w3.org/2000/svg" xmlns:xlink="http://www.w3.org/1999/xlink">
<g id="graph0" class="graph" transform="scale(1 1) rotate(0) translate(4 364)">
<title>default</title>
<polygon fill="white" stroke="transparent" points="-4,4 -4,-364 568.57,-364 568.57,4 -4,4"/>
<!-- root_36 -->
<g id="node1" class="node">
<title>root_36</title>
<g id="a_node1"><a xlink:href="javascript:s=&quot;\(\)\nNone&quot;; console.log(s); alert(s);" xlink:title="root">
<ellipse fill="none" stroke="black" cx="27" cy="-207" rx="27" ry="18"/>
<text text-anchor="middle" x="27" y="-203.3" font-family="Times New Roman,serif" font-size="14.00">root</text>
</a>
</g>
</g>
<!-- default_37 -->
<g id="node2" class="node">
<title>default_37</title>
<g id="a_node2"><a xlink:href="javascript:s=&quot;\(&#x27;default&#x27;,\)\nTerminalKF301Body&quot;; console.log(s); alert(s);" xlink:title="TerminalKF301Body">
<ellipse fill="none" stroke="black" cx="165.39" cy="-288" rx="35.19" ry="18"/>
<text text-anchor="middle" x="165.39" y="-284.3" font-family="Times New Roman,serif" font-size="14.00">default</text>
</a>
</g>
</g>
<!-- root_36&#45;&gt;default_37 -->
<g id="edge1" class="edge">
<title>root_36&#45;&gt;default_37</title>
<path fill="none" stroke="black" d="M47.83,-218.78C70.17,-232.04 106.77,-253.78 133,-269.36"/>
<polygon fill="black" stroke="black" points="131.42,-272.49 141.81,-274.59 135,-266.47 131.42,-272.49"/>
</g>
<!-- 40 -->
<g id="node5" class="node">
<title>40</title>
<g id="a_node5"><a xlink:href="javascript:s=&quot;\(&quot;&#x27;face_edge&#x27;,\ 1,\ 0,\ &quot;,\)\nAnnotatedCoordinates&quot;; console.log(s); alert(s);" xlink:title="AnnotatedCoordinates">
<ellipse fill="none" stroke="black" cx="165.39" cy="-153" rx="75.29" ry="18"/>
<text text-anchor="middle" x="165.39" y="-149.3" font-family="Times New Roman,serif" font-size="14.00">&#39;face_edge&#39;, 1, 0, </text>
</a>
</g>
</g>
<!-- root_36&#45;&gt;40 -->
<g id="edge4" class="edge">
<title>root_36&#45;&gt;40</title>
<path fill="none" stroke="black" d="M50.52,-198.08C68.33,-191.03 93.83,-180.94 116.19,-172.09"/>
<polygon fill="black" stroke="black" points="117.54,-175.32 125.55,-168.38 114.96,-168.81 117.54,-175.32"/>
</g>
<!-- cage_38 -->
<g id="node3" class="node">
<title>cage_38</title>
<g id="a_node3"><a xlink:href="javascript:s=&quot;\(&#x27;default&#x27;,\ &#x27;cage&#x27;\)\nBox&quot;; console.log(s); alert(s);" xlink:title="Box">
<ellipse fill="none" stroke="black" cx="315.78" cy="-342" rx="27.1" ry="18"/>
<text text-anchor="middle" x="315.78" y="-338.3" font-family="Times New Roman,serif" font-size="14.00">cage</text>
</a>
</g>
</g>
<!-- default_37&#45;&gt;cage_38 -->
<g id="edge2" class="edge">
<title>default_37&#45;&gt;cage_38</title>
<path fill="none" stroke="black" d="M194.65,-298.28C219.56,-307.35 255.85,-320.55 282.01,-330.08"/>
<polygon fill="black" stroke="black" points="280.91,-333.4 291.5,-333.53 283.3,-326.82 280.91,-333.4"/>
</g>
<!-- terminal_39 -->
<g id="node4" class="node">
<title>terminal_39</title>
<g id="a_node4"><a xlink:href="javascript:s=&quot;\(&#x27;default&#x27;,\ &#x27;terminal&#x27;\)\nLinearExtrude&quot;; console.log(s); alert(s);" xlink:title="LinearExtrude">
<ellipse fill="none" stroke="black" cx="315.78" cy="-288" rx="38.99" ry="18"/>
<text text-anchor="middle" x="315.78" y="-284.3" font-family="Times New Roman,serif" font-size="14.00">terminal</text>
</a>
</g>
</g>
<!-- default_37&#45;&gt;terminal_39 -->
<g id="edge3" class="edge">
<title>default_37&#45;&gt;terminal_39</title>
<path fill="none" stroke="black" d="M200.81,-288C220.31,-288 245.01,-288 266.43,-288"/>
<polygon fill="black" stroke="black" points="266.64,-291.5 276.64,-288 266.64,-284.5 266.64,-291.5"/>
</g>
<!-- coords_41 -->
<g id="node6" class="node">
<title>coords_41</title>
<g id="a_node6"><a xlink:href="javascript:s=&quot;\(&quot;&#x27;face_edge&#x27;,\ 1,\ 0,\ &quot;,\ &#x27;coords&#x27;\)\nCoordinates&quot;; console.log(s); alert(s);" xlink:title="Coordinates">
<ellipse fill="none" stroke="black" cx="315.78" cy="-234" rx="36.29" ry="18"/>
<text text-anchor="middle" x="315.78" y="-230.3" font-family="Times New Roman,serif" font-size="14.00">coords</text>
</a>
</g>
</g>
<!-- 40&#45;&gt;coords_41 -->
<g id="edge5" class="edge">
<title>40&#45;&gt;coords_41</title>
<path fill="none" stroke="black" d="M196.78,-169.59C221.55,-183.11 256.47,-202.17 281.89,-216.05"/>
<polygon fill="black" stroke="black" points="280.34,-219.19 290.79,-220.9 283.69,-213.04 280.34,-219.19"/>
</g>
<!-- x_52 -->
<g id="node17" class="node">
<title>x_52</title>
<g id="a_node17"><a xlink:href="javascript:s=&quot;\(&quot;&#x27;face_edge&#x27;,\ 1,\ 0,\ &quot;,\ &#x27;x&#x27;\)\nText&quot;; console.log(s); alert(s);" xlink:title="Text">
<ellipse fill="none" stroke="black" cx="315.78" cy="-180" rx="27" ry="18"/>
<text text-anchor="middle" x="315.78" y="-176.3" font-family="Times New Roman,serif" font-size="14.00">x</text>
</a>
</g>
</g>
<!-- 40&#45;&gt;x_52 -->
<g id="edge16" class="edge">
<title>40&#45;&gt;x_52</title>
<path fill="none" stroke="black" d="M225.89,-163.83C244.02,-167.12 263.36,-170.64 279.36,-173.55"/>
<polygon fill="black" stroke="black" points="278.87,-177.02 289.34,-175.37 280.13,-170.14 278.87,-177.02"/>
</g>
<!-- y_53 -->
<g id="node18" class="node">
<title>y_53</title>
<g id="a_node18"><a xlink:href="javascript:s=&quot;\(&quot;&#x27;face_edge&#x27;,\ 1,\ 0,\ &quot;,\ &#x27;y&#x27;\)\nText&quot;; console.log(s); alert(s);" xlink:title="Text">
<ellipse fill="none" stroke="black" cx="315.78" cy="-126" rx="27" ry="18"/>
<text text-anchor="middle" x="315.78" y="-122.3" font-family="Times New Roman,serif" font-size="14.00">y</text>
</a>
</g>
</g>
<!-- 40&#45;&gt;y_53 -->
<g id="edge17" class="edge">
<title>40&#45;&gt;y_53</title>
<path fill="none" stroke="black" d="M225.89,-142.17C244.02,-138.88 263.36,-135.36 279.36,-132.45"/>
<polygon fill="black" stroke="black" points="280.13,-135.86 289.34,-130.63 278.87,-128.98 280.13,-135.86"/>
</g>
<!-- z_54 -->
<g id="node19" class="node">
<title>z_54</title>
<g id="a_node19"><a xlink:href="javascript:s=&quot;\(&quot;&#x27;face_edge&#x27;,\ 1,\ 0,\ &quot;,\ &#x27;z&#x27;\)\nText&quot;; console.log(s); alert(s);" xlink:title="Text">
<ellipse fill="none" stroke="black" cx="315.78" cy="-72" rx="27" ry="18"/>
<text text-anchor="middle" x="315.78" y="-68.3" font-family="Times New Roman,serif" font-size="14.00">z</text>
</a>
</g>
</g>
<!-- 40&#45;&gt;z_54 -->
<g id="edge18" class="edge">
<title>40&#45;&gt;z_54</title>
<path fill="none" stroke="black" d="M196.78,-136.41C222.76,-122.23 259.9,-101.96 285.54,-87.96"/>
<polygon fill="black" stroke="black" points="287.33,-90.97 294.43,-83.11 283.97,-84.83 287.33,-90.97"/>
</g>
<!-- label_55 -->
<g id="node20" class="node">
<title>label_55</title>
<g id="a_node20"><a xlink:href="javascript:s=&quot;\(&quot;&#x27;face_edge&#x27;,\ 1,\ 0,\ &quot;,\ &#x27;label&#x27;\)\nText&quot;; console.log(s); alert(s);" xlink:title="Text">
<ellipse fill="none" stroke="black" cx="315.78" cy="-18" rx="27.1" ry="18"/>
<text text-anchor="middle" x="315.78" y="-14.3" font-family="Times New Roman,serif" font-size="14.00">label</text>
</a>
</g>
</g>
<!-- 40&#45;&gt;label_55 -->
<g id="edge19" class="edge">
<title>40&#45;&gt;label_55</title>
<path fill="none" stroke="black" d="M182.82,-135.3C203.73,-113.16 241.4,-74.57 276.79,-45 280.14,-42.2 283.77,-39.38 287.41,-36.67"/>
<polygon fill="black" stroke="black" points="289.73,-39.31 295.79,-30.62 285.64,-33.63 289.73,-39.31"/>
</g>
<!-- origin_42 -->
<g id="node7" class="node">
<title>origin_42</title>
<g id="a_node7"><a xlink:href="javascript:s=&quot;\(&quot;&#x27;face_edge&#x27;,\ 1,\ 0,\ &quot;,\ &#x27;coords&#x27;,\ &#x27;origin&#x27;\)\nCoordinatesCage&quot;; console.log(s); alert(s);" xlink:title="CoordinatesCage">
<ellipse fill="none" stroke="black" cx="431.73" cy="-315" rx="31.4" ry="18"/>
<text text-anchor="middle" x="431.73" y="-311.3" font-family="Times New Roman,serif" font-size="14.00">origin</text>
</a>
</g>
</g>
<!-- coords_41&#45;&gt;origin_42 -->
<g id="edge6" class="edge">
<title>coords_41&#45;&gt;origin_42</title>
<path fill="none" stroke="black" d="M337.76,-248.76C343.31,-252.71 349.29,-256.99 354.78,-261 370.93,-272.79 374.49,-276.4 390.78,-288 394.31,-290.51 398.04,-293.11 401.75,-295.66"/>
<polygon fill="black" stroke="black" points="400.03,-298.73 410.27,-301.46 403.97,-292.94 400.03,-298.73"/>
</g>
<!-- x_arrow_43 -->
<g id="node8" class="node">
<title>x_arrow_43</title>
<g id="a_node8"><a xlink:href="javascript:s=&quot;\(&quot;&#x27;face_edge&#x27;,\ 1,\ 0,\ &quot;,\ &#x27;coords&#x27;,\ &#x27;x_arrow&#x27;\)\nArrow&quot;; console.log(s); alert(s);" xlink:title="Arrow">
<ellipse fill="none" stroke="black" cx="431.73" cy="-261" rx="40.89" ry="18"/>
<text text-anchor="middle" x="431.73" y="-257.3" font-family="Times New Roman,serif" font-size="14.00">x_arrow</text>
</a>
</g>
</g>
<!-- coords_41&#45;&gt;x_arrow_43 -->
<g id="edge7" class="edge">
<title>coords_41&#45;&gt;x_arrow_43</title>
<path fill="none" stroke="black" d="M348.83,-241.59C360.14,-244.27 373.09,-247.34 385.3,-250.23"/>
<polygon fill="black" stroke="black" points="384.79,-253.71 395.33,-252.61 386.4,-246.9 384.79,-253.71"/>
</g>
<!-- y_arrow_46 -->
<g id="node11" class="node">
<title>y_arrow_46</title>
<g id="a_node11"><a xlink:href="javascript:s=&quot;\(&quot;&#x27;face_edge&#x27;,\ 1,\ 0,\ &quot;,\ &#x27;coords&#x27;,\ &#x27;y_arrow&#x27;\)\nArrow&quot;; console.log(s); alert(s);" xlink:title="Arrow">
<ellipse fill="none" stroke="black" cx="431.73" cy="-207" rx="40.89" ry="18"/>
<text text-anchor="middle" x="431.73" y="-203.3" font-family="Times New Roman,serif" font-size="14.00">y_arrow</text>
</a>
</g>
</g>
<!-- coords_41&#45;&gt;y_arrow_46 -->
<g id="edge10" class="edge">
<title>coords_41&#45;&gt;y_arrow_46</title>
<path fill="none" stroke="black" d="M348.83,-226.41C360.14,-223.73 373.09,-220.66 385.3,-217.77"/>
<polygon fill="black" stroke="black" points="386.4,-221.1 395.33,-215.39 384.79,-214.29 386.4,-221.1"/>
</g>
<!-- z_arrow_49 -->
<g id="node14" class="node">
<title>z_arrow_49</title>
<g id="a_node14"><a xlink:href="javascript:s=&quot;\(&quot;&#x27;face_edge&#x27;,\ 1,\ 0,\ &quot;,\ &#x27;coords&#x27;,\ &#x27;z_arrow&#x27;\)\nArrow&quot;; console.log(s); alert(s);" xlink:title="Arrow">
<ellipse fill="none" stroke="black" cx="431.73" cy="-99" rx="40.09" ry="18"/>
<text text-anchor="middle" x="431.73" y="-95.3" font-family="Times New Roman,serif" font-size="14.00">z_arrow</text>
</a>
</g>
</g>
<!-- coords_41&#45;&gt;z_arrow_49 -->
<g id="edge13" class="edge">
<title>coords_41&#45;&gt;z_arrow_49</title>
<path fill="none" stroke="black" d="M339.09,-220.06C344.52,-216.16 350.1,-211.7 354.78,-207 379.51,-182.15 401.79,-148.45 415.73,-125.34"/>
<polygon fill="black" stroke="black" points="418.92,-126.83 421,-116.44 412.89,-123.26 418.92,-126.83"/>
</g>
<!-- stem_44 -->
<g id="node9" class="node">
<title>stem_44</title>
<g id="a_node9"><a xlink:href="javascript:s=&quot;\(&quot;&#x27;face_edge&#x27;,\ 1,\ 0,\ &quot;,\ &#x27;coords&#x27;,\ &#x27;x_arrow&#x27;,\ &#x27;stem&#x27;\)\nCone&quot;; console.log(s); alert(s);" xlink:title="Cone">
<ellipse fill="none" stroke="black" cx="536.62" cy="-315" rx="27.9" ry="18"/>
<text text-anchor="middle" x="536.62" y="-311.3" font-family="Times New Roman,serif" font-size="14.00">stem</text>
</a>
</g>
</g>
<!-- x_arrow_43&#45;&gt;stem_44 -->
<g id="edge8" class="edge">
<title>x_arrow_43&#45;&gt;stem_44</title>
<path fill="none" stroke="black" d="M458.69,-274.63C472.85,-282.06 490.46,-291.3 505.26,-299.07"/>
<polygon fill="black" stroke="black" points="504.03,-302.37 514.51,-303.92 507.28,-296.18 504.03,-302.37"/>
</g>
<!-- head_45 -->
<g id="node10" class="node">
<title>head_45</title>
<g id="a_node10"><a xlink:href="javascript:s=&quot;\(&quot;&#x27;face_edge&#x27;,\ 1,\ 0,\ &quot;,\ &#x27;coords&#x27;,\ &#x27;x_arrow&#x27;,\ &#x27;head&#x27;\)\nCone&quot;; console.log(s); alert(s);" xlink:title="Cone">
<ellipse fill="none" stroke="black" cx="536.62" cy="-261" rx="27.9" ry="18"/>
<text text-anchor="middle" x="536.62" y="-257.3" font-family="Times New Roman,serif" font-size="14.00">head</text>
</a>
</g>
</g>
<!-- x_arrow_43&#45;&gt;head_45 -->
<g id="edge9" class="edge">
<title>x_arrow_43&#45;&gt;head_45</title>
<path fill="none" stroke="black" d="M472.8,-261C481.21,-261 490.05,-261 498.35,-261"/>
<polygon fill="black" stroke="black" points="498.51,-264.5 508.51,-261 498.51,-257.5 498.51,-264.5"/>
</g>
<!-- stem_47 -->
<g id="node12" class="node">
<title>stem_47</title>
<g id="a_node12"><a xlink:href="javascript:s=&quot;\(&quot;&#x27;face_edge&#x27;,\ 1,\ 0,\ &quot;,\ &#x27;coords&#x27;,\ &#x27;y_arrow&#x27;,\ &#x27;stem&#x27;\)\nCone&quot;; console.log(s); alert(s);" xlink:title="Cone">
<ellipse fill="none" stroke="black" cx="536.62" cy="-207" rx="27.9" ry="18"/>
<text text-anchor="middle" x="536.62" y="-203.3" font-family="Times New Roman,serif" font-size="14.00">stem</text>
</a>
</g>
</g>
<!-- y_arrow_46&#45;&gt;stem_47 -->
<g id="edge11" class="edge">
<title>y_arrow_46&#45;&gt;stem_47</title>
<path fill="none" stroke="black" d="M472.8,-207C481.21,-207 490.05,-207 498.35,-207"/>
<polygon fill="black" stroke="black" points="498.51,-210.5 508.51,-207 498.51,-203.5 498.51,-210.5"/>
</g>
<!-- head_48 -->
<g id="node13" class="node">
<title>head_48</title>
<g id="a_node13"><a xlink:href="javascript:s=&quot;\(&quot;&#x27;face_edge&#x27;,\ 1,\ 0,\ &quot;,\ &#x27;coords&#x27;,\ &#x27;y_arrow&#x27;,\ &#x27;head&#x27;\)\nCone&quot;; console.log(s); alert(s);" xlink:title="Cone">
<ellipse fill="none" stroke="black" cx="536.62" cy="-153" rx="27.9" ry="18"/>
<text text-anchor="middle" x="536.62" y="-149.3" font-family="Times New Roman,serif" font-size="14.00">head</text>
</a>
</g>
</g>
<!-- y_arrow_46&#45;&gt;head_48 -->
<g id="edge12" class="edge">
<title>y_arrow_46&#45;&gt;head_48</title>
<path fill="none" stroke="black" d="M458.69,-193.37C472.85,-185.94 490.46,-176.7 505.26,-168.93"/>
<polygon fill="black" stroke="black" points="507.28,-171.82 514.51,-164.08 504.03,-165.63 507.28,-171.82"/>
</g>
<!-- stem_50 -->
<g id="node15" class="node">
<title>stem_50</title>
<g id="a_node15"><a xlink:href="javascript:s=&quot;\(&quot;&#x27;face_edge&#x27;,\ 1,\ 0,\ &quot;,\ &#x27;coords&#x27;,\ &#x27;z_arrow&#x27;,\ &#x27;stem&#x27;\)\nCone&quot;; console.log(s); alert(s);" xlink:title="Cone">
<ellipse fill="none" stroke="black" cx="536.62" cy="-99" rx="27.9" ry="18"/>
<text text-anchor="middle" x="536.62" y="-95.3" font-family="Times New Roman,serif" font-size="14.00">stem</text>
</a>
</g>
</g>
<!-- z_arrow_49&#45;&gt;stem_50 -->
<g id="edge14" class="edge">
<title>z_arrow_49&#45;&gt;stem_50</title>
<path fill="none" stroke="black" d="M472.21,-99C480.84,-99 489.93,-99 498.46,-99"/>
<polygon fill="black" stroke="black" points="498.51,-102.5 508.51,-99 498.51,-95.5 498.51,-102.5"/>
</g>
<!-- head_51 -->
<g id="node16" class="node">
<title>head_51</title>
<g id="a_node16"><a xlink:href="javascript:s=&quot;\(&quot;&#x27;face_edge&#x27;,\ 1,\ 0,\ &quot;,\ &#x27;coords&#x27;,\ &#x27;z_arrow&#x27;,\ &#x27;head&#x27;\)\nCone&quot;; console.log(s); alert(s);" xlink:title="Cone">
<ellipse fill="none" stroke="black" cx="536.62" cy="-45" rx="27.9" ry="18"/>
<text text-anchor="middle" x="536.62" y="-41.3" font-family="Times New Roman,serif" font-size="14.00">head</text>
</a>
</g>
</g>
<!-- z_arrow_49&#45;&gt;head_51 -->
<g id="edge15" class="edge">
<title>z_arrow_49&#45;&gt;head_51</title>
<path fill="none" stroke="black" d="M458.43,-85.51C472.72,-78.01 490.59,-68.63 505.53,-60.79"/>
<polygon fill="black" stroke="black" points="507.17,-63.88 514.4,-56.14 503.92,-57.68 507.17,-63.88"/>
</g>
</g>
</svg>
