solid OpenSCAD_Model
  facet normal -1 0 0
    outer loop
      vertex -1.5 0.3700000000000001 0.8
      vertex -1.5 0.3700000000000001 5.96
      vertex -1.5 1.117861343415316 2.467119033076614
    endloop
  endfacet
  facet normal -1 0 0
    outer loop
      vertex -1.5 0.3700000000000001 0.8
      vertex -1.5 1.117861343415316 2.467119033076614
      vertex -1.5 1.2003746778586344 2.1951090230706196
    endloop
  endfacet
  facet normal -1 0 0
    outer loop
      vertex -1.5 0.3700000000000001 5.96
      vertex -1.5 1.09 2.75
      vertex -1.5 1.117861343415316 2.467119033076614
    endloop
  endfacet
  facet normal -1 0 0
    outer loop
      vertex -1.5 0.3700000000000001 5.96
      vertex -1.5 1.117861343415316 3.032880966923386
      vertex -1.5 1.09 2.75
    endloop
  endfacet
  facet normal -1 0 0
    outer loop
      vertex -1.5 0.3700000000000001 5.96
      vertex -1.5 1.2003746778586344 3.3048909769293804
      vertex -1.5 1.117861343415316 3.032880966923386
    endloop
  endfacet
  facet normal 0 -1 0
    outer loop
      vertex -1.5 0.3700000000000001 0.8
      vertex 2.8 0.3700000000000001 5.96
      vertex -1.5 0.3700000000000001 5.96
    endloop
  endfacet
  facet normal -1 0 0
    outer loop
      vertex -1.5 0.3700000000000001 0.8
      vertex -1.5 1.2003746778586344 2.1951090230706196
      vertex -1.5 1.3343690621613096 1.9444231621215768
    endloop
  endfacet
  facet normal -1 0 0
    outer loop
      vertex -1.5 0.3700000000000001 0.8
      vertex -1.5 1.3343690621613096 1.9444231621215768
      vertex -1.5 1.5146951672795061 1.7246951672795061
    endloop
  endfacet
  facet normal -1 0 0
    outer loop
      vertex -1.5 0.3700000000000001 0.8
      vertex -1.5 1.5146951672795061 1.7246951672795061
      vertex -1.5 1.7344231621215769 1.5443690621613095
    endloop
  endfacet
  facet normal -1 0 0
    outer loop
      vertex -1.5 0.3700000000000001 0.8
      vertex -1.5 1.7344231621215769 1.5443690621613095
      vertex -1.5 1.9851090230706199 1.4103746778586344
    endloop
  endfacet
  facet normal -1 0 0
    outer loop
      vertex -1.5 0.3700000000000001 5.96
      vertex -1.5 1.3343690621613096 3.555576837878423
      vertex -1.5 1.2003746778586344 3.3048909769293804
    endloop
  endfacet
  facet normal -1 0 0
    outer loop
      vertex -1.5 0.3700000000000001 5.96
      vertex -1.5 1.5146951672795061 3.7753048327204937
      vertex -1.5 1.3343690621613096 3.555576837878423
    endloop
  endfacet
  facet normal -1 0 0
    outer loop
      vertex -1.5 0.3700000000000001 5.96
      vertex -1.5 1.7344231621215769 3.9556309378386905
      vertex -1.5 1.5146951672795061 3.7753048327204937
    endloop
  endfacet
  facet normal -1 0 0
    outer loop
      vertex -1.5 0.3700000000000001 5.96
      vertex -1.5 1.9851090230706199 4.089625322141366
      vertex -1.5 1.7344231621215769 3.9556309378386905
    endloop
  endfacet
  facet normal 0 -1 0
    outer loop
      vertex -1.5 0.3700000000000001 0.8
      vertex 2.8 0.3700000000000001 0.8
      vertex 2.8 0.3700000000000001 5.96
    endloop
  endfacet
  facet normal -1 0 0
    outer loop
      vertex -1.5 0.3700000000000001 0.8
      vertex -1.5 1.9851090230706199 1.4103746778586344
      vertex -1.5 2.257119033076614 1.327861343415316
    endloop
  endfacet
  facet normal -1 0 0
    outer loop
      vertex -1.5 0.3700000000000001 5.96
      vertex -1.5 2.257119033076614 4.172138656584684
      vertex -1.5 1.9851090230706199 4.089625322141366
    endloop
  endfacet
  facet normal -1 0 0
    outer loop
      vertex -1.5 0.3700000000000001 5.96
      vertex -1.5 2.54 4.2
      vertex -1.5 2.257119033076614 4.172138656584684
    endloop
  endfacet
  facet normal -1 0 0
    outer loop
      vertex -1.5 0.3700000000000001 5.96
      vertex -1.5 2.822880966923386 4.172138656584684
      vertex -1.5 2.54 4.2
    endloop
  endfacet
  facet normal -1 0 0
    outer loop
      vertex -1.5 0.3700000000000001 0.8
      vertex -1.5 2.257119033076614 1.327861343415316
      vertex -1.5 4.71 0.8
    endloop
  endfacet
  facet normal 0 0 -1
    outer loop
      vertex -1.5 0.3700000000000001 0.8
      vertex 2.8 4.71 0.8
      vertex 2.8 0.3700000000000001 0.8
    endloop
  endfacet
  facet normal 1 0 0
    outer loop
      vertex 2.8 0.3700000000000001 0.8
      vertex 2.8 0.8200000000000001 1.25
      vertex 2.8 0.3700000000000001 5.96
    endloop
  endfacet
  facet normal 1 0 0
    outer loop
      vertex 2.8 0.8200000000000001 1.25
      vertex 2.8 0.8200000000000001 5.51
      vertex 2.8 0.3700000000000001 5.96
    endloop
  endfacet
  facet normal 1 0 0
    outer loop
      vertex 2.8 0.3700000000000001 0.8
      vertex 2.8 4.26 1.25
      vertex 2.8 0.8200000000000001 1.25
    endloop
  endfacet
  facet normal 1 0 0
    outer loop
      vertex 2.8 0.8200000000000001 5.51
      vertex 2.8 4.26 5.51
      vertex 2.8 0.3700000000000001 5.96
    endloop
  endfacet
  facet normal 0 0 1
    outer loop
      vertex -1.5 0.3700000000000001 5.96
      vertex 2.8 0.3700000000000001 5.96
      vertex -1.5 4.71 5.96
    endloop
  endfacet
  facet normal -1 0 0
    outer loop
      vertex -1.5 0.3700000000000001 5.96
      vertex -1.5 4.71 5.96
      vertex -1.5 2.822880966923386 4.172138656584684
    endloop
  endfacet
  facet normal -1 0 0
    outer loop
      vertex -1.5 4.71 0.8
      vertex -1.5 2.257119033076614 1.327861343415316
      vertex -1.5 2.54 1.3
    endloop
  endfacet
  facet normal -1 0 0
    outer loop
      vertex -1.5 4.71 0.8
      vertex -1.5 2.54 1.3
      vertex -1.5 2.822880966923386 1.327861343415316
    endloop
  endfacet
  facet normal -1 0 0
    outer loop
      vertex -1.5 4.71 0.8
      vertex -1.5 2.822880966923386 1.327861343415316
      vertex -1.5 3.0948909769293804 1.4103746778586344
    endloop
  endfacet
  facet normal 0 0 -1
    outer loop
      vertex -1.5 0.3700000000000001 0.8
      vertex -1.5 4.71 0.8
      vertex 2.8 4.71 0.8
    endloop
  endfacet
  facet normal -1 0 0
    outer loop
      vertex -1.5 4.71 5.96
      vertex -1.5 3.0948909769293804 4.089625322141366
      vertex -1.5 2.822880966923386 4.172138656584684
    endloop
  endfacet
  facet normal -1 0 0
    outer loop
      vertex -1.5 4.71 0.8
      vertex -1.5 3.0948909769293804 1.4103746778586344
      vertex -1.5 3.345576837878423 1.5443690621613095
    endloop
  endfacet
  facet normal -1 0 0
    outer loop
      vertex -1.5 4.71 0.8
      vertex -1.5 3.345576837878423 1.5443690621613095
      vertex -1.5 3.5653048327204937 1.7246951672795061
    endloop
  endfacet
  facet normal -1 0 0
    outer loop
      vertex -1.5 4.71 0.8
      vertex -1.5 3.5653048327204937 1.7246951672795061
      vertex -1.5 3.7456309378386905 1.9444231621215768
    endloop
  endfacet
  facet normal -1 0 0
    outer loop
      vertex -1.5 4.71 0.8
      vertex -1.5 3.7456309378386905 1.9444231621215768
      vertex -1.5 3.879625322141366 2.1951090230706196
    endloop
  endfacet
  facet normal -1 0 0
    outer loop
      vertex -1.5 4.71 5.96
      vertex -1.5 3.345576837878423 3.9556309378386905
      vertex -1.5 3.0948909769293804 4.089625322141366
    endloop
  endfacet
  facet normal -1 0 0
    outer loop
      vertex -1.5 4.71 5.96
      vertex -1.5 3.5653048327204937 3.7753048327204937
      vertex -1.5 3.345576837878423 3.9556309378386905
    endloop
  endfacet
  facet normal -1 0 0
    outer loop
      vertex -1.5 4.71 5.96
      vertex -1.5 3.7456309378386905 3.555576837878423
      vertex -1.5 3.5653048327204937 3.7753048327204937
    endloop
  endfacet
  facet normal -1 0 0
    outer loop
      vertex -1.5 4.71 5.96
      vertex -1.5 3.879625322141366 3.3048909769293804
      vertex -1.5 3.7456309378386905 3.555576837878423
    endloop
  endfacet
  facet normal -1 0 0
    outer loop
      vertex -1.5 4.71 0.8
      vertex -1.5 3.879625322141366 2.1951090230706196
      vertex -1.5 3.962138656584684 2.467119033076614
    endloop
  endfacet
  facet normal -1 0 0
    outer loop
      vertex -1.5 4.71 0.8
      vertex -1.5 3.962138656584684 2.467119033076614
      vertex -1.5 3.99 2.75
    endloop
  endfacet
  facet normal -1 0 0
    outer loop
      vertex -1.5 4.71 0.8
      vertex -1.5 3.99 2.75
      vertex -1.5 3.962138656584684 3.032880966923386
    endloop
  endfacet
  facet normal 0 1 0
    outer loop
      vertex -1.5 4.71 0.8
      vertex -1.5 4.71 5.96
      vertex 2.8 4.71 0.8
    endloop
  endfacet
  facet normal -1 0 0
    outer loop
      vertex -1.5 4.71 5.96
      vertex -1.5 3.962138656584684 3.032880966923386
      vertex -1.5 3.879625322141366 3.3048909769293804
    endloop
  endfacet
  facet normal -1 0 0
    outer loop
      vertex -1.5 4.71 0.8
      vertex -1.5 3.962138656584684 3.032880966923386
      vertex -1.5 4.71 5.96
    endloop
  endfacet
  facet normal 0 1 0
    outer loop
      vertex 2.8 4.71 0.8
      vertex -1.5 4.71 5.96
      vertex 2.8 4.71 5.96
    endloop
  endfacet
  facet normal 1 0 0
    outer loop
      vertex 2.8 0.3700000000000001 0.8
      vertex 2.8 4.71 0.8
      vertex 2.8 4.26 1.25
    endloop
  endfacet
  facet normal 1 0 0
    outer loop
      vertex 2.8 4.26 1.25
      vertex 2.8 4.71 0.8
      vertex 2.8 4.26 5.51
    endloop
  endfacet
  facet normal 1 0 0
    outer loop
      vertex 2.8 4.71 0.8
      vertex 2.8 4.71 5.96
      vertex 2.8 4.26 5.51
    endloop
  endfacet
  facet normal 0 0 1
    outer loop
      vertex 2.8 0.3700000000000001 5.96
      vertex 2.8 4.71 5.96
      vertex -1.5 4.71 5.96
    endloop
  endfacet
  facet normal 1 0 0
    outer loop
      vertex 2.8 0.3700000000000001 5.96
      vertex 2.8 4.26 5.51
      vertex 2.8 4.71 5.96
    endloop
  endfacet
  facet normal -0.9238795325112868 -0.3826834323650895 0
    outer loop
      vertex 0.2964466094067261 2.186446609406726 -4.5
      vertex 0.1499999999999999 2.54 0.7999999999999998
      vertex 0.1499999999999999 2.54 -4.5
    endloop
  endfacet
  facet normal -0.9238795325112868 -0.3826834323650895 0
    outer loop
      vertex 0.2964466094067261 2.186446609406726 -4.5
      vertex 0.2964466094067261 2.186446609406726 0.7999999999999998
      vertex 0.1499999999999999 2.54 0.7999999999999998
    endloop
  endfacet
  facet normal -0.38268343236508934 -0.923879532511287 0
    outer loop
      vertex 0.6499999999999999 2.04 -4.5
      vertex 0.6499999999999999 2.04 0.7999999999999998
      vertex 0.2964466094067261 2.186446609406726 -4.5
    endloop
  endfacet
  facet normal 0.38268343236508934 -0.9238795325112868 0
    outer loop
      vertex 0.6499999999999999 2.04 -4.5
      vertex 1.0035533905932736 2.186446609406726 -4.5
      vertex 1.0035533905932736 2.186446609406726 0.7999999999999998
    endloop
  endfacet
  facet normal 0 0 -1
    outer loop
      vertex 0.6499999999999999 2.04 -4.5
      vertex 0.2964466094067261 2.186446609406726 -4.5
      vertex 0.6499999999999999 3.04 -4.5
    endloop
  endfacet
  facet normal 0 0 -1
    outer loop
      vertex 0.6499999999999999 2.04 -4.5
      vertex 1.0035533905932736 2.893553390593274 -4.5
      vertex 1.0035533905932736 2.186446609406726 -4.5
    endloop
  endfacet
  facet normal 0.9238795325112868 -0.38268343236508967 0
    outer loop
      vertex 1.0035533905932736 2.186446609406726 -4.5
      vertex 1.15 2.54 -4.5
      vertex 1.0035533905932736 2.186446609406726 0.7999999999999998
    endloop
  endfacet
  facet normal -0.38268343236508934 -0.923879532511287 0
    outer loop
      vertex 0.2964466094067261 2.186446609406726 -4.5
      vertex 0.6499999999999999 2.04 0.7999999999999998
      vertex 0.2964466094067261 2.186446609406726 0.7999999999999998
    endloop
  endfacet
  facet normal 0.38268343236508934 -0.9238795325112868 0
    outer loop
      vertex 0.6499999999999999 2.04 -4.5
      vertex 1.0035533905932736 2.186446609406726 0.7999999999999998
      vertex 0.6499999999999999 2.04 0.7999999999999998
    endloop
  endfacet
  facet normal 0.9238795325112868 -0.38268343236508967 0
    outer loop
      vertex 1.0035533905932736 2.186446609406726 0.7999999999999998
      vertex 1.15 2.54 -4.5
      vertex 1.15 2.54 0.7999999999999998
    endloop
  endfacet
  facet normal 0 0 1
    outer loop
      vertex 0.6499999999999999 2.04 0.7999999999999998
      vertex 0.2964466094067261 2.893553390593274 0.7999999999999998
      vertex 0.2964466094067261 2.186446609406726 0.7999999999999998
    endloop
  endfacet
  facet normal 0 0 1
    outer loop
      vertex 0.6499999999999999 2.04 0.7999999999999998
      vertex 1.0035533905932736 2.186446609406726 0.7999999999999998
      vertex 0.6499999999999999 3.04 0.7999999999999998
    endloop
  endfacet
  facet normal 0 0 -1
    outer loop
      vertex 0.2964466094067261 2.186446609406726 -4.5
      vertex 0.1499999999999999 2.54 -4.5
      vertex 0.2964466094067261 2.893553390593274 -4.5
    endloop
  endfacet
  facet normal -0.9238795325112868 0.3826834323650895 0
    outer loop
      vertex 0.1499999999999999 2.54 -4.5
      vertex 0.2964466094067261 2.893553390593274 0.7999999999999998
      vertex 0.2964466094067261 2.893553390593274 -4.5
    endloop
  endfacet
  facet normal -0.9238795325112868 0.3826834323650895 0
    outer loop
      vertex 0.1499999999999999 2.54 -4.5
      vertex 0.1499999999999999 2.54 0.7999999999999998
      vertex 0.2964466094067261 2.893553390593274 0.7999999999999998
    endloop
  endfacet
  facet normal 0 0 -1
    outer loop
      vertex 0.2964466094067261 2.186446609406726 -4.5
      vertex 0.2964466094067261 2.893553390593274 -4.5
      vertex 0.6499999999999999 3.04 -4.5
    endloop
  endfacet
  facet normal 0 0 -1
    outer loop
      vertex 0.6499999999999999 2.04 -4.5
      vertex 0.6499999999999999 3.04 -4.5
      vertex 1.0035533905932736 2.893553390593274 -4.5
    endloop
  endfacet
  facet normal 0 0 -1
    outer loop
      vertex 1.0035533905932736 2.186446609406726 -4.5
      vertex 1.0035533905932736 2.893553390593274 -4.5
      vertex 1.15 2.54 -4.5
    endloop
  endfacet
  facet normal 0.9238795325112868 0.38268343236508967 0
    outer loop
      vertex 1.15 2.54 -4.5
      vertex 1.0035533905932736 2.893553390593274 -4.5
      vertex 1.15 2.54 0.7999999999999998
    endloop
  endfacet
  facet normal -0.38268343236508934 0.923879532511287 0
    outer loop
      vertex 0.2964466094067261 2.893553390593274 -4.5
      vertex 0.2964466094067261 2.893553390593274 0.7999999999999998
      vertex 0.6499999999999999 3.04 -4.5
    endloop
  endfacet
  facet normal 0.38268343236508934 0.9238795325112868 0
    outer loop
      vertex 0.6499999999999999 3.04 -4.5
      vertex 0.6499999999999999 3.04 0.7999999999999998
      vertex 1.0035533905932736 2.893553390593274 -4.5
    endloop
  endfacet
  facet normal 0.9238795325112868 0.38268343236508967 0
    outer loop
      vertex 1.0035533905932736 2.893553390593274 -4.5
      vertex 1.0035533905932736 2.893553390593274 0.7999999999999998
      vertex 1.15 2.54 0.7999999999999998
    endloop
  endfacet
  facet normal -0.38268343236508934 0.923879532511287 0
    outer loop
      vertex 0.6499999999999999 3.04 -4.5
      vertex 0.2964466094067261 2.893553390593274 0.7999999999999998
      vertex 0.6499999999999999 3.04 0.7999999999999998
    endloop
  endfacet
  facet normal 0.38268343236508934 0.9238795325112868 0
    outer loop
      vertex 1.0035533905932736 2.893553390593274 -4.5
      vertex 0.6499999999999999 3.04 0.7999999999999998
      vertex 1.0035533905932736 2.893553390593274 0.7999999999999998
    endloop
  endfacet
  facet normal 0 0 1
    outer loop
      vertex 0.2964466094067261 2.186446609406726 0.7999999999999998
      vertex 0.2964466094067261 2.893553390593274 0.7999999999999998
      vertex 0.1499999999999999 2.54 0.7999999999999998
    endloop
  endfacet
  facet normal 0 0 1
    outer loop
      vertex 0.6499999999999999 2.04 0.7999999999999998
      vertex 0.6499999999999999 3.04 0.7999999999999998
      vertex 0.2964466094067261 2.893553390593274 0.7999999999999998
    endloop
  endfacet
  facet normal 0 0 1
    outer loop
      vertex 1.0035533905932736 2.186446609406726 0.7999999999999998
      vertex 1.15 2.54 0.7999999999999998
      vertex 1.0035533905932736 2.893553390593274 0.7999999999999998
    endloop
  endfacet
  facet normal 0 0 1
    outer loop
      vertex 1.0035533905932736 2.186446609406726 0.7999999999999998
      vertex 1.0035533905932736 2.893553390593274 0.7999999999999998
      vertex 0.6499999999999999 3.04 0.7999999999999998
    endloop
  endfacet
  facet normal -0.47139673682599786 -0.8819212643483548 0
    outer loop
      vertex -0.28058014030783374 1.1472883993932368 5.960000000000001
      vertex 0.009005250788474473 0.9925017830435947 5.960000000000001
      vertex 0.009005250788474473 0.9925017830435947 15.96
    endloop
  endfacet
  facet normal -0.2902846772544623 -0.9569403357322089 0
    outer loop
      vertex 0.009005250788474473 0.9925017830435947 5.960000000000001
      vertex 0.3232237106229851 0.897184655324589 5.960000000000001
      vertex 0.3232237106229851 0.897184655324589 15.96
    endloop
  endfacet
  facet normal -0.634393284163645 -0.7730104533627374 0
    outer loop
      vertex -0.28058014030783374 1.1472883993932368 5.960000000000001
      vertex -0.28058014030783374 1.1472883993932368 15.96
      vertex -0.5344038584874673 1.3555961415125328 5.960000000000001
    endloop
  endfacet
  facet normal -0.09801714032956071 -0.9951847266721968 0
    outer loop
      vertex 0.3232237106229851 0.897184655324589 5.960000000000001
      vertex 0.6499999999999999 0.865 5.960000000000001
      vertex 0.6499999999999999 0.865 15.96
    endloop
  endfacet
  facet normal 0.09801714032956073 -0.9951847266721968 0
    outer loop
      vertex 0.6499999999999999 0.865 5.960000000000001
      vertex 0.9767762893770147 0.897184655324589 5.960000000000001
      vertex 0.9767762893770147 0.897184655324589 15.96
    endloop
  endfacet
  facet normal 0.29028467725446233 -0.9569403357322089 0
    outer loop
      vertex 0.9767762893770147 0.897184655324589 5.960000000000001
      vertex 1.2909947492115252 0.9925017830435947 5.960000000000001
      vertex 1.2909947492115252 0.9925017830435947 15.96
    endloop
  endfacet
  facet normal 0.4713967368259977 -0.8819212643483552 0
    outer loop
      vertex 1.2909947492115252 0.9925017830435947 5.960000000000001
      vertex 1.5805801403078337 1.1472883993932368 5.960000000000001
      vertex 1.5805801403078337 1.1472883993932368 15.96
    endloop
  endfacet
  facet normal 0.6343932841636452 -0.7730104533627373 0
    outer loop
      vertex 1.5805801403078337 1.1472883993932368 5.960000000000001
      vertex 1.8344038584874671 1.3555961415125328 5.960000000000001
      vertex 1.8344038584874671 1.3555961415125328 15.96
    endloop
  endfacet
  facet normal 0.7730104533627373 -0.6343932841636452 0
    outer loop
      vertex 1.8344038584874671 1.3555961415125328 5.960000000000001
      vertex 2.042711600606763 1.6094198596921663 5.960000000000001
      vertex 1.8344038584874671 1.3555961415125328 15.96
    endloop
  endfacet
  facet normal -0.47139673682599786 -0.8819212643483548 0
    outer loop
      vertex -0.28058014030783374 1.1472883993932368 5.960000000000001
      vertex 0.009005250788474473 0.9925017830435947 15.96
      vertex -0.28058014030783374 1.1472883993932368 15.96
    endloop
  endfacet
  facet normal -0.2902846772544623 -0.9569403357322089 0
    outer loop
      vertex 0.009005250788474473 0.9925017830435947 5.960000000000001
      vertex 0.3232237106229851 0.897184655324589 15.96
      vertex 0.009005250788474473 0.9925017830435947 15.96
    endloop
  endfacet
  facet normal -0.634393284163645 -0.7730104533627374 0
    outer loop
      vertex -0.5344038584874673 1.3555961415125328 5.960000000000001
      vertex -0.28058014030783374 1.1472883993932368 15.96
      vertex -0.5344038584874673 1.3555961415125328 15.96
    endloop
  endfacet
  facet normal -0.7730104533627373 -0.6343932841636452 0
    outer loop
      vertex -0.5344038584874673 1.3555961415125328 5.960000000000001
      vertex -0.5344038584874673 1.3555961415125328 15.96
      vertex -0.7427116006067633 1.6094198596921663 15.96
    endloop
  endfacet
  facet normal -0.09801714032956071 -0.9951847266721968 0
    outer loop
      vertex 0.3232237106229851 0.897184655324589 5.960000000000001
      vertex 0.6499999999999999 0.865 15.96
      vertex 0.3232237106229851 0.897184655324589 15.96
    endloop
  endfacet
  facet normal 0.09801714032956073 -0.9951847266721968 0
    outer loop
      vertex 0.6499999999999999 0.865 5.960000000000001
      vertex 0.9767762893770147 0.897184655324589 15.96
      vertex 0.6499999999999999 0.865 15.96
    endloop
  endfacet
  facet normal 0.29028467725446233 -0.9569403357322089 0
    outer loop
      vertex 0.9767762893770147 0.897184655324589 5.960000000000001
      vertex 1.2909947492115252 0.9925017830435947 15.96
      vertex 0.9767762893770147 0.897184655324589 15.96
    endloop
  endfacet
  facet normal 0.4713967368259977 -0.8819212643483552 0
    outer loop
      vertex 1.2909947492115252 0.9925017830435947 5.960000000000001
      vertex 1.5805801403078337 1.1472883993932368 15.96
      vertex 1.2909947492115252 0.9925017830435947 15.96
    endloop
  endfacet
  facet normal 0.6343932841636452 -0.7730104533627373 0
    outer loop
      vertex 1.5805801403078337 1.1472883993932368 5.960000000000001
      vertex 1.8344038584874671 1.3555961415125328 15.96
      vertex 1.5805801403078337 1.1472883993932368 15.96
    endloop
  endfacet
  facet normal -0.7730104533627373 -0.6343932841636452 0
    outer loop
      vertex -0.5344038584874673 1.3555961415125328 5.960000000000001
      vertex -0.7427116006067633 1.6094198596921663 15.96
      vertex -0.7427116006067633 1.6094198596921663 5.960000000000001
    endloop
  endfacet
  facet normal -0.8819212643483552 -0.4713967368259977 0
    outer loop
      vertex -0.7427116006067633 1.6094198596921663 5.960000000000001
      vertex -0.8974982169564054 1.8990052507884747 15.96
      vertex -0.8974982169564054 1.8990052507884747 5.960000000000001
    endloop
  endfacet
  facet normal 0 0 -1
    outer loop
      vertex -0.7427116006067633 1.6094198596921663 5.960000000000001
      vertex -0.8974982169564054 1.8990052507884747 5.960000000000001
      vertex -0.7427116006067633 3.470580140307834 5.960000000000001
    endloop
  endfacet
  facet normal 0 0 -1
    outer loop
      vertex -0.8974982169564054 1.8990052507884747 5.960000000000001
      vertex -0.9928153446754111 2.213223710622985 5.960000000000001
      vertex -0.8974982169564054 3.1809947492115254 5.960000000000001
    endloop
  endfacet
  facet normal 0 0 -1
    outer loop
      vertex -0.9928153446754111 2.213223710622985 5.960000000000001
      vertex -1.0250000000000001 2.54 5.960000000000001
      vertex -0.9928153446754111 2.866776289377015 5.960000000000001
    endloop
  endfacet
  facet normal 0 0 -1
    outer loop
      vertex -0.5344038584874673 1.3555961415125328 5.960000000000001
      vertex -0.7427116006067633 1.6094198596921663 5.960000000000001
      vertex -0.5344038584874673 3.7244038584874675 5.960000000000001
    endloop
  endfacet
  facet normal 0 0 -1
    outer loop
      vertex -0.28058014030783374 1.1472883993932368 5.960000000000001
      vertex -0.5344038584874673 1.3555961415125328 5.960000000000001
      vertex -0.28058014030783374 3.9327116006067633 5.960000000000001
    endloop
  endfacet
  facet normal 0 0 -1
    outer loop
      vertex -0.28058014030783374 1.1472883993932368 5.960000000000001
      vertex 0.009005250788474473 4.087498216956405 5.960000000000001
      vertex 0.009005250788474473 0.9925017830435947 5.960000000000001
    endloop
  endfacet
  facet normal 0 0 -1
    outer loop
      vertex 0.009005250788474473 0.9925017830435947 5.960000000000001
      vertex 0.3232237106229851 4.1828153446754115 5.960000000000001
      vertex 0.3232237106229851 0.897184655324589 5.960000000000001
    endloop
  endfacet
  facet normal -0.9569403357322088 -0.29028467725446255 0
    outer loop
      vertex -0.8974982169564054 1.8990052507884747 5.960000000000001
      vertex -0.9928153446754111 2.213223710622985 15.96
      vertex -0.9928153446754111 2.213223710622985 5.960000000000001
    endloop
  endfacet
  facet normal -0.9951847266721968 -0.09801714032956066 0
    outer loop
      vertex -0.9928153446754111 2.213223710622985 5.960000000000001
      vertex -1.0250000000000001 2.54 15.96
      vertex -1.0250000000000001 2.54 5.960000000000001
    endloop
  endfacet
  facet normal 0 0 -1
    outer loop
      vertex 0.3232237106229851 0.897184655324589 5.960000000000001
      vertex 0.6499999999999999 4.215 5.960000000000001
      vertex 0.6499999999999999 0.865 5.960000000000001
    endloop
  endfacet
  facet normal 0 0 -1
    outer loop
      vertex 0.6499999999999999 0.865 5.960000000000001
      vertex 0.9767762893770147 4.1828153446754115 5.960000000000001
      vertex 0.9767762893770147 0.897184655324589 5.960000000000001
    endloop
  endfacet
  facet normal 0 0 -1
    outer loop
      vertex 0.9767762893770147 0.897184655324589 5.960000000000001
      vertex 1.2909947492115252 4.087498216956405 5.960000000000001
      vertex 1.2909947492115252 0.9925017830435947 5.960000000000001
    endloop
  endfacet
  facet normal 0 0 -1
    outer loop
      vertex 1.2909947492115252 0.9925017830435947 5.960000000000001
      vertex 1.5805801403078337 3.9327116006067633 5.960000000000001
      vertex 1.5805801403078337 1.1472883993932368 5.960000000000001
    endloop
  endfacet
  facet normal 0 0 -1
    outer loop
      vertex 1.5805801403078337 1.1472883993932368 5.960000000000001
      vertex 1.8344038584874671 3.7244038584874675 5.960000000000001
      vertex 1.8344038584874671 1.3555961415125328 5.960000000000001
    endloop
  endfacet
  facet normal 0 0 -1
    outer loop
      vertex 1.8344038584874671 1.3555961415125328 5.960000000000001
      vertex 2.042711600606763 3.470580140307834 5.960000000000001
      vertex 2.042711600606763 1.6094198596921663 5.960000000000001
    endloop
  endfacet
  facet normal -0.8819212643483552 -0.4713967368259977 0
    outer loop
      vertex -0.7427116006067633 1.6094198596921663 5.960000000000001
      vertex -0.7427116006067633 1.6094198596921663 15.96
      vertex -0.8974982169564054 1.8990052507884747 15.96
    endloop
  endfacet
  facet normal 0 0 1
    outer loop
      vertex 0.009005250788474473 0.9925017830435947 15.96
      vertex 0.3232237106229851 0.897184655324589 15.96
      vertex 0.009005250788474473 4.087498216956405 15.96
    endloop
  endfacet
  facet normal -0.9569403357322088 -0.29028467725446255 0
    outer loop
      vertex -0.8974982169564054 1.8990052507884747 5.960000000000001
      vertex -0.8974982169564054 1.8990052507884747 15.96
      vertex -0.9928153446754111 2.213223710622985 15.96
    endloop
  endfacet
  facet normal -0.9951847266721968 -0.09801714032956066 0
    outer loop
      vertex -0.9928153446754111 2.213223710622985 5.960000000000001
      vertex -0.9928153446754111 2.213223710622985 15.96
      vertex -1.0250000000000001 2.54 15.96
    endloop
  endfacet
  facet normal 0 0 1
    outer loop
      vertex -0.7427116006067633 1.6094198596921663 15.96
      vertex -0.8974982169564054 3.1809947492115254 15.96
      vertex -0.8974982169564054 1.8990052507884747 15.96
    endloop
  endfacet
  facet normal 0 0 1
    outer loop
      vertex -0.5344038584874673 1.3555961415125328 15.96
      vertex -0.7427116006067633 3.470580140307834 15.96
      vertex -0.7427116006067633 1.6094198596921663 15.96
    endloop
  endfacet
  facet normal 0 0 1
    outer loop
      vertex -0.8974982169564054 1.8990052507884747 15.96
      vertex -0.9928153446754111 2.866776289377015 15.96
      vertex -0.9928153446754111 2.213223710622985 15.96
    endloop
  endfacet
  facet normal 0 0 1
    outer loop
      vertex -0.28058014030783374 1.1472883993932368 15.96
      vertex -0.5344038584874673 3.7244038584874675 15.96
      vertex -0.5344038584874673 1.3555961415125328 15.96
    endloop
  endfacet
  facet normal 0 0 1
    outer loop
      vertex -0.28058014030783374 1.1472883993932368 15.96
      vertex 0.009005250788474473 0.9925017830435947 15.96
      vertex -0.28058014030783374 3.9327116006067633 15.96
    endloop
  endfacet
  facet normal 0.7730104533627373 -0.6343932841636452 0
    outer loop
      vertex 1.8344038584874671 1.3555961415125328 15.96
      vertex 2.042711600606763 1.6094198596921663 5.960000000000001
      vertex 2.042711600606763 1.6094198596921663 15.96
    endloop
  endfacet
  facet normal 0 0 1
    outer loop
      vertex 0.3232237106229851 0.897184655324589 15.96
      vertex 0.6499999999999999 0.865 15.96
      vertex 0.3232237106229851 4.1828153446754115 15.96
    endloop
  endfacet
  facet normal 0 0 1
    outer loop
      vertex 0.6499999999999999 0.865 15.96
      vertex 0.9767762893770147 0.897184655324589 15.96
      vertex 0.6499999999999999 4.215 15.96
    endloop
  endfacet
  facet normal 0 0 1
    outer loop
      vertex 0.9767762893770147 0.897184655324589 15.96
      vertex 1.2909947492115252 0.9925017830435947 15.96
      vertex 0.9767762893770147 4.1828153446754115 15.96
    endloop
  endfacet
  facet normal 0 0 1
    outer loop
      vertex 1.2909947492115252 0.9925017830435947 15.96
      vertex 1.5805801403078337 1.1472883993932368 15.96
      vertex 1.2909947492115252 4.087498216956405 15.96
    endloop
  endfacet
  facet normal 0 0 1
    outer loop
      vertex 1.5805801403078337 1.1472883993932368 15.96
      vertex 1.8344038584874671 1.3555961415125328 15.96
      vertex 1.5805801403078337 3.9327116006067633 15.96
    endloop
  endfacet
  facet normal 0 0 1
    outer loop
      vertex 1.8344038584874671 1.3555961415125328 15.96
      vertex 2.042711600606763 1.6094198596921663 15.96
      vertex 1.8344038584874671 3.7244038584874675 15.96
    endloop
  endfacet
  facet normal 0.8819212643483552 -0.4713967368259977 0
    outer loop
      vertex 2.042711600606763 1.6094198596921663 5.960000000000001
      vertex 2.1974982169564052 1.8990052507884747 5.960000000000001
      vertex 2.042711600606763 1.6094198596921663 15.96
    endloop
  endfacet
  facet normal 0 0 -1
    outer loop
      vertex 2.042711600606763 1.6094198596921663 5.960000000000001
      vertex 2.1974982169564052 3.1809947492115254 5.960000000000001
      vertex 2.1974982169564052 1.8990052507884747 5.960000000000001
    endloop
  endfacet
  facet normal 0 0 -1
    outer loop
      vertex 2.1974982169564052 1.8990052507884747 5.960000000000001
      vertex 2.292815344675411 2.866776289377015 5.960000000000001
      vertex 2.292815344675411 2.213223710622985 5.960000000000001
    endloop
  endfacet
  facet normal 0.9569403357322088 -0.29028467725446255 0
    outer loop
      vertex 2.1974982169564052 1.8990052507884747 5.960000000000001
      vertex 2.292815344675411 2.213223710622985 5.960000000000001
      vertex 2.1974982169564052 1.8990052507884747 15.96
    endloop
  endfacet
  facet normal 0.9951847266721968 -0.09801714032956134 0
    outer loop
      vertex 2.292815344675411 2.213223710622985 5.960000000000001
      vertex 2.325 2.54 5.960000000000001
      vertex 2.292815344675411 2.213223710622985 15.96
    endloop
  endfacet
  facet normal 0.8819212643483552 -0.4713967368259977 0
    outer loop
      vertex 2.042711600606763 1.6094198596921663 15.96
      vertex 2.1974982169564052 1.8990052507884747 5.960000000000001
      vertex 2.1974982169564052 1.8990052507884747 15.96
    endloop
  endfacet
  facet normal 0.9569403357322088 -0.29028467725446255 0
    outer loop
      vertex 2.292815344675411 2.213223710622985 5.960000000000001
      vertex 2.292815344675411 2.213223710622985 15.96
      vertex 2.1974982169564052 1.8990052507884747 15.96
    endloop
  endfacet
  facet normal 0.9951847266721968 -0.09801714032956134 0
    outer loop
      vertex 2.292815344675411 2.213223710622985 15.96
      vertex 2.325 2.54 5.960000000000001
      vertex 2.325 2.54 15.96
    endloop
  endfacet
  facet normal 0 0 1
    outer loop
      vertex 2.042711600606763 1.6094198596921663 15.96
      vertex 2.1974982169564052 1.8990052507884747 15.96
      vertex 2.042711600606763 3.470580140307834 15.96
    endloop
  endfacet
  facet normal 0 0 1
    outer loop
      vertex 2.1974982169564052 1.8990052507884747 15.96
      vertex 2.292815344675411 2.213223710622985 15.96
      vertex 2.1974982169564052 3.1809947492115254 15.96
    endloop
  endfacet
  facet normal 0 0 1
    outer loop
      vertex 2.292815344675411 2.213223710622985 15.96
      vertex 2.325 2.54 15.96
      vertex 2.292815344675411 2.866776289377015 15.96
    endloop
  endfacet
  facet normal 0 0 -1
    outer loop
      vertex -0.9928153446754111 2.213223710622985 5.960000000000001
      vertex -0.9928153446754111 2.866776289377015 5.960000000000001
      vertex -0.8974982169564054 3.1809947492115254 5.960000000000001
    endloop
  endfacet
  facet normal 0 0 -1
    outer loop
      vertex -0.8974982169564054 1.8990052507884747 5.960000000000001
      vertex -0.8974982169564054 3.1809947492115254 5.960000000000001
      vertex -0.7427116006067633 3.470580140307834 5.960000000000001
    endloop
  endfacet
  facet normal 0 0 -1
    outer loop
      vertex -0.7427116006067633 1.6094198596921663 5.960000000000001
      vertex -0.7427116006067633 3.470580140307834 5.960000000000001
      vertex -0.5344038584874673 3.7244038584874675 5.960000000000001
    endloop
  endfacet
  facet normal 0 0 -1
    outer loop
      vertex -0.5344038584874673 1.3555961415125328 5.960000000000001
      vertex -0.5344038584874673 3.7244038584874675 5.960000000000001
      vertex -0.28058014030783374 3.9327116006067633 5.960000000000001
    endloop
  endfacet
  facet normal 0 0 -1
    outer loop
      vertex -0.28058014030783374 1.1472883993932368 5.960000000000001
      vertex -0.28058014030783374 3.9327116006067633 5.960000000000001
      vertex 0.009005250788474473 4.087498216956405 5.960000000000001
    endloop
  endfacet
  facet normal -0.9951847266721968 0.09801714032956066 0
    outer loop
      vertex -1.0250000000000001 2.54 5.960000000000001
      vertex -0.9928153446754111 2.866776289377015 15.96
      vertex -0.9928153446754111 2.866776289377015 5.960000000000001
    endloop
  endfacet
  facet normal -0.9569403357322088 0.29028467725446255 0
    outer loop
      vertex -0.9928153446754111 2.866776289377015 5.960000000000001
      vertex -0.8974982169564054 3.1809947492115254 15.96
      vertex -0.8974982169564054 3.1809947492115254 5.960000000000001
    endloop
  endfacet
  facet normal 0 0 -1
    outer loop
      vertex 0.009005250788474473 0.9925017830435947 5.960000000000001
      vertex 0.009005250788474473 4.087498216956405 5.960000000000001
      vertex 0.3232237106229851 4.1828153446754115 5.960000000000001
    endloop
  endfacet
  facet normal -0.8819212643483552 0.4713967368259977 0
    outer loop
      vertex -0.8974982169564054 3.1809947492115254 5.960000000000001
      vertex -0.7427116006067633 3.470580140307834 15.96
      vertex -0.7427116006067633 3.470580140307834 5.960000000000001
    endloop
  endfacet
  facet normal 0 0 -1
    outer loop
      vertex 0.9767762893770147 0.897184655324589 5.960000000000001
      vertex 0.9767762893770147 4.1828153446754115 5.960000000000001
      vertex 1.2909947492115252 4.087498216956405 5.960000000000001
    endloop
  endfacet
  facet normal 0 0 -1
    outer loop
      vertex 1.2909947492115252 0.9925017830435947 5.960000000000001
      vertex 1.2909947492115252 4.087498216956405 5.960000000000001
      vertex 1.5805801403078337 3.9327116006067633 5.960000000000001
    endloop
  endfacet
  facet normal 0 0 -1
    outer loop
      vertex 1.5805801403078337 1.1472883993932368 5.960000000000001
      vertex 1.5805801403078337 3.9327116006067633 5.960000000000001
      vertex 1.8344038584874671 3.7244038584874675 5.960000000000001
    endloop
  endfacet
  facet normal 0 0 -1
    outer loop
      vertex 1.8344038584874671 1.3555961415125328 5.960000000000001
      vertex 1.8344038584874671 3.7244038584874675 5.960000000000001
      vertex 2.042711600606763 3.470580140307834 5.960000000000001
    endloop
  endfacet
  facet normal 0 0 -1
    outer loop
      vertex 0.3232237106229851 0.897184655324589 5.960000000000001
      vertex 0.3232237106229851 4.1828153446754115 5.960000000000001
      vertex 0.6499999999999999 4.215 5.960000000000001
    endloop
  endfacet
  facet normal 0 0 -1
    outer loop
      vertex 0.6499999999999999 0.865 5.960000000000001
      vertex 0.6499999999999999 4.215 5.960000000000001
      vertex 0.9767762893770147 4.1828153446754115 5.960000000000001
    endloop
  endfacet
  facet normal 0.7730104533627375 0.6343932841636448 0
    outer loop
      vertex 2.042711600606763 3.470580140307834 5.960000000000001
      vertex 1.8344038584874671 3.7244038584874675 5.960000000000001
      vertex 2.042711600606763 3.470580140307834 15.96
    endloop
  endfacet
  facet normal -0.9951847266721968 0.09801714032956066 0
    outer loop
      vertex -1.0250000000000001 2.54 5.960000000000001
      vertex -1.0250000000000001 2.54 15.96
      vertex -0.9928153446754111 2.866776289377015 15.96
    endloop
  endfacet
  facet normal -0.9569403357322088 0.29028467725446255 0
    outer loop
      vertex -0.9928153446754111 2.866776289377015 5.960000000000001
      vertex -0.9928153446754111 2.866776289377015 15.96
      vertex -0.8974982169564054 3.1809947492115254 15.96
    endloop
  endfacet
  facet normal 0 0 1
    outer loop
      vertex -0.9928153446754111 2.213223710622985 15.96
      vertex -0.9928153446754111 2.866776289377015 15.96
      vertex -1.0250000000000001 2.54 15.96
    endloop
  endfacet
  facet normal 0 0 1
    outer loop
      vertex -0.8974982169564054 1.8990052507884747 15.96
      vertex -0.8974982169564054 3.1809947492115254 15.96
      vertex -0.9928153446754111 2.866776289377015 15.96
    endloop
  endfacet
  facet normal 0 0 1
    outer loop
      vertex -0.7427116006067633 1.6094198596921663 15.96
      vertex -0.7427116006067633 3.470580140307834 15.96
      vertex -0.8974982169564054 3.1809947492115254 15.96
    endloop
  endfacet
  facet normal 0 0 1
    outer loop
      vertex -0.5344038584874673 1.3555961415125328 15.96
      vertex -0.5344038584874673 3.7244038584874675 15.96
      vertex -0.7427116006067633 3.470580140307834 15.96
    endloop
  endfacet
  facet normal 0 0 1
    outer loop
      vertex -0.28058014030783374 1.1472883993932368 15.96
      vertex -0.28058014030783374 3.9327116006067633 15.96
      vertex -0.5344038584874673 3.7244038584874675 15.96
    endloop
  endfacet
  facet normal 0 0 1
    outer loop
      vertex 0.009005250788474473 0.9925017830435947 15.96
      vertex 0.009005250788474473 4.087498216956405 15.96
      vertex -0.28058014030783374 3.9327116006067633 15.96
    endloop
  endfacet
  facet normal 0 0 1
    outer loop
      vertex 0.3232237106229851 0.897184655324589 15.96
      vertex 0.3232237106229851 4.1828153446754115 15.96
      vertex 0.009005250788474473 4.087498216956405 15.96
    endloop
  endfacet
  facet normal -0.8819212643483552 0.4713967368259977 0
    outer loop
      vertex -0.8974982169564054 3.1809947492115254 5.960000000000001
      vertex -0.8974982169564054 3.1809947492115254 15.96
      vertex -0.7427116006067633 3.470580140307834 15.96
    endloop
  endfacet
  facet normal -0.7730104533627375 0.6343932841636448 0
    outer loop
      vertex -0.7427116006067633 3.470580140307834 5.960000000000001
      vertex -0.7427116006067633 3.470580140307834 15.96
      vertex -0.5344038584874673 3.7244038584874675 15.96
    endloop
  endfacet
  facet normal 0 0 1
    outer loop
      vertex 1.5805801403078337 1.1472883993932368 15.96
      vertex 1.5805801403078337 3.9327116006067633 15.96
      vertex 1.2909947492115252 4.087498216956405 15.96
    endloop
  endfacet
  facet normal 0 0 1
    outer loop
      vertex 2.042711600606763 1.6094198596921663 15.96
      vertex 2.042711600606763 3.470580140307834 15.96
      vertex 1.8344038584874671 3.7244038584874675 15.96
    endloop
  endfacet
  facet normal 0 0 1
    outer loop
      vertex 1.8344038584874671 1.3555961415125328 15.96
      vertex 1.8344038584874671 3.7244038584874675 15.96
      vertex 1.5805801403078337 3.9327116006067633 15.96
    endloop
  endfacet
  facet normal 0 0 1
    outer loop
      vertex 0.6499999999999999 0.865 15.96
      vertex 0.6499999999999999 4.215 15.96
      vertex 0.3232237106229851 4.1828153446754115 15.96
    endloop
  endfacet
  facet normal 0 0 1
    outer loop
      vertex 0.9767762893770147 0.897184655324589 15.96
      vertex 0.9767762893770147 4.1828153446754115 15.96
      vertex 0.6499999999999999 4.215 15.96
    endloop
  endfacet
  facet normal 0 0 1
    outer loop
      vertex 1.2909947492115252 0.9925017830435947 15.96
      vertex 1.2909947492115252 4.087498216956405 15.96
      vertex 0.9767762893770147 4.1828153446754115 15.96
    endloop
  endfacet
  facet normal -0.7730104533627375 0.6343932841636448 0
    outer loop
      vertex -0.7427116006067633 3.470580140307834 5.960000000000001
      vertex -0.5344038584874673 3.7244038584874675 15.96
      vertex -0.5344038584874673 3.7244038584874675 5.960000000000001
    endloop
  endfacet
  facet normal -0.6343932841636445 0.7730104533627377 0
    outer loop
      vertex -0.5344038584874673 3.7244038584874675 5.960000000000001
      vertex -0.5344038584874673 3.7244038584874675 15.96
      vertex -0.28058014030783374 3.9327116006067633 5.960000000000001
    endloop
  endfacet
  facet normal -0.47139673682599686 0.8819212643483554 0
    outer loop
      vertex -0.28058014030783374 3.9327116006067633 5.960000000000001
      vertex -0.28058014030783374 3.9327116006067633 15.96
      vertex 0.009005250788474473 4.087498216956405 5.960000000000001
    endloop
  endfacet
  facet normal -0.2902846772544648 0.9569403357322082 0
    outer loop
      vertex 0.009005250788474473 4.087498216956405 5.960000000000001
      vertex 0.009005250788474473 4.087498216956405 15.96
      vertex 0.3232237106229851 4.1828153446754115 5.960000000000001
    endloop
  endfacet
  facet normal 0.29028467725446483 0.9569403357322082 0
    outer loop
      vertex 1.2909947492115252 4.087498216956405 5.960000000000001
      vertex 0.9767762893770147 4.1828153446754115 5.960000000000001
      vertex 0.9767762893770147 4.1828153446754115 15.96
    endloop
  endfacet
  facet normal 0.6343932841636447 0.7730104533627375 0
    outer loop
      vertex 1.8344038584874671 3.7244038584874675 5.960000000000001
      vertex 1.5805801403078337 3.9327116006067633 5.960000000000001
      vertex 1.5805801403078337 3.9327116006067633 15.96
    endloop
  endfacet
  facet normal 0.4713967368259966 0.8819212643483556 0
    outer loop
      vertex 1.5805801403078337 3.9327116006067633 5.960000000000001
      vertex 1.2909947492115252 4.087498216956405 5.960000000000001
      vertex 1.2909947492115252 4.087498216956405 15.96
    endloop
  endfacet
  facet normal -0.0980171403295587 0.9951847266721972 0
    outer loop
      vertex 0.3232237106229851 4.1828153446754115 5.960000000000001
      vertex 0.3232237106229851 4.1828153446754115 15.96
      vertex 0.6499999999999999 4.215 5.960000000000001
    endloop
  endfacet
  facet normal 0.09801714032955872 0.9951847266721972 0
    outer loop
      vertex 0.6499999999999999 4.215 5.960000000000001
      vertex 0.6499999999999999 4.215 15.96
      vertex 0.9767762893770147 4.1828153446754115 5.960000000000001
    endloop
  endfacet
  facet normal -0.6343932841636445 0.7730104533627377 0
    outer loop
      vertex -0.28058014030783374 3.9327116006067633 5.960000000000001
      vertex -0.5344038584874673 3.7244038584874675 15.96
      vertex -0.28058014030783374 3.9327116006067633 15.96
    endloop
  endfacet
  facet normal -0.47139673682599686 0.8819212643483554 0
    outer loop
      vertex 0.009005250788474473 4.087498216956405 5.960000000000001
      vertex -0.28058014030783374 3.9327116006067633 15.96
      vertex 0.009005250788474473 4.087498216956405 15.96
    endloop
  endfacet
  facet normal -0.2902846772544648 0.9569403357322082 0
    outer loop
      vertex 0.3232237106229851 4.1828153446754115 5.960000000000001
      vertex 0.009005250788474473 4.087498216956405 15.96
      vertex 0.3232237106229851 4.1828153446754115 15.96
    endloop
  endfacet
  facet normal 0.7730104533627375 0.6343932841636448 0
    outer loop
      vertex 2.042711600606763 3.470580140307834 15.96
      vertex 1.8344038584874671 3.7244038584874675 5.960000000000001
      vertex 1.8344038584874671 3.7244038584874675 15.96
    endloop
  endfacet
  facet normal 0.6343932841636447 0.7730104533627375 0
    outer loop
      vertex 1.8344038584874671 3.7244038584874675 5.960000000000001
      vertex 1.5805801403078337 3.9327116006067633 15.96
      vertex 1.8344038584874671 3.7244038584874675 15.96
    endloop
  endfacet
  facet normal 0.4713967368259966 0.8819212643483556 0
    outer loop
      vertex 1.5805801403078337 3.9327116006067633 5.960000000000001
      vertex 1.2909947492115252 4.087498216956405 15.96
      vertex 1.5805801403078337 3.9327116006067633 15.96
    endloop
  endfacet
  facet normal 0.29028467725446483 0.9569403357322082 0
    outer loop
      vertex 1.2909947492115252 4.087498216956405 5.960000000000001
      vertex 0.9767762893770147 4.1828153446754115 15.96
      vertex 1.2909947492115252 4.087498216956405 15.96
    endloop
  endfacet
  facet normal -0.0980171403295587 0.9951847266721972 0
    outer loop
      vertex 0.6499999999999999 4.215 5.960000000000001
      vertex 0.3232237106229851 4.1828153446754115 15.96
      vertex 0.6499999999999999 4.215 15.96
    endloop
  endfacet
  facet normal 0.09801714032955872 0.9951847266721972 0
    outer loop
      vertex 0.9767762893770147 4.1828153446754115 5.960000000000001
      vertex 0.6499999999999999 4.215 15.96
      vertex 0.9767762893770147 4.1828153446754115 15.96
    endloop
  endfacet
  facet normal 0 0 -1
    outer loop
      vertex 2.1974982169564052 1.8990052507884747 5.960000000000001
      vertex 2.1974982169564052 3.1809947492115254 5.960000000000001
      vertex 2.292815344675411 2.866776289377015 5.960000000000001
    endloop
  endfacet
  facet normal 0 0 -1
    outer loop
      vertex 2.292815344675411 2.213223710622985 5.960000000000001
      vertex 2.292815344675411 2.866776289377015 5.960000000000001
      vertex 2.325 2.54 5.960000000000001
    endloop
  endfacet
  facet normal 0 0 -1
    outer loop
      vertex 2.042711600606763 1.6094198596921663 5.960000000000001
      vertex 2.042711600606763 3.470580140307834 5.960000000000001
      vertex 2.1974982169564052 3.1809947492115254 5.960000000000001
    endloop
  endfacet
  facet normal 0.9951847266721968 0.09801714032956134 0
    outer loop
      vertex 2.325 2.54 5.960000000000001
      vertex 2.292815344675411 2.866776289377015 5.960000000000001
      vertex 2.325 2.54 15.96
    endloop
  endfacet
  facet normal 0.9569403357322088 0.29028467725446255 0
    outer loop
      vertex 2.292815344675411 2.866776289377015 5.960000000000001
      vertex 2.1974982169564052 3.1809947492115254 5.960000000000001
      vertex 2.292815344675411 2.866776289377015 15.96
    endloop
  endfacet
  facet normal 0.8819212643483552 0.4713967368259977 0
    outer loop
      vertex 2.042711600606763 3.470580140307834 5.960000000000001
      vertex 2.1974982169564052 3.1809947492115254 15.96
      vertex 2.1974982169564052 3.1809947492115254 5.960000000000001
    endloop
  endfacet
  facet normal 0.9951847266721968 0.09801714032956134 0
    outer loop
      vertex 2.292815344675411 2.866776289377015 5.960000000000001
      vertex 2.292815344675411 2.866776289377015 15.96
      vertex 2.325 2.54 15.96
    endloop
  endfacet
  facet normal 0.9569403357322088 0.29028467725446255 0
    outer loop
      vertex 2.1974982169564052 3.1809947492115254 5.960000000000001
      vertex 2.1974982169564052 3.1809947492115254 15.96
      vertex 2.292815344675411 2.866776289377015 15.96
    endloop
  endfacet
  facet normal 0 0 1
    outer loop
      vertex 2.292815344675411 2.213223710622985 15.96
      vertex 2.292815344675411 2.866776289377015 15.96
      vertex 2.1974982169564052 3.1809947492115254 15.96
    endloop
  endfacet
  facet normal 0 0 1
    outer loop
      vertex 2.1974982169564052 1.8990052507884747 15.96
      vertex 2.1974982169564052 3.1809947492115254 15.96
      vertex 2.042711600606763 3.470580140307834 15.96
    endloop
  endfacet
  facet normal 0.8819212643483552 0.4713967368259977 0
    outer loop
      vertex 2.042711600606763 3.470580140307834 5.960000000000001
      vertex 2.042711600606763 3.470580140307834 15.96
      vertex 2.1974982169564052 3.1809947492115254 15.96
    endloop
  endfacet
  facet normal 0 -1 0
    outer loop
      vertex 2.8 0.8200000000000001 1.25
      vertex 12.8 0.8200000000000001 5.51
      vertex 2.8 0.8200000000000001 5.51
    endloop
  endfacet
  facet normal 0 0 1
    outer loop
      vertex 2.8 0.8200000000000001 5.51
      vertex 12.8 0.8200000000000001 5.51
      vertex 2.8 4.26 5.51
    endloop
  endfacet
  facet normal 0 -1 0
    outer loop
      vertex 2.8 0.8200000000000001 1.25
      vertex 12.8 0.8200000000000001 1.25
      vertex 12.8 0.8200000000000001 5.51
    endloop
  endfacet
  facet normal 0 0 -1
    outer loop
      vertex 2.8 0.8200000000000001 1.25
      vertex 12.8 4.26 1.25
      vertex 12.8 0.8200000000000001 1.25
    endloop
  endfacet
  facet normal 1 0 0
    outer loop
      vertex 12.8 0.8200000000000001 1.25
      vertex 12.8 4.26 1.25
      vertex 12.8 0.8200000000000001 5.51
    endloop
  endfacet
  facet normal 0 0 -1
    outer loop
      vertex 2.8 0.8200000000000001 1.25
      vertex 2.8 4.26 1.25
      vertex 12.8 4.26 1.25
    endloop
  endfacet
  facet normal 0 1 0
    outer loop
      vertex 2.8 4.26 1.25
      vertex 2.8 4.26 5.51
      vertex 12.8 4.26 1.25
    endloop
  endfacet
  facet normal 0 0 1
    outer loop
      vertex 2.8 4.26 5.51
      vertex 12.8 0.8200000000000001 5.51
      vertex 12.8 4.26 5.51
    endloop
  endfacet
  facet normal 1 0 0
    outer loop
      vertex 12.8 0.8200000000000001 5.51
      vertex 12.8 4.26 1.25
      vertex 12.8 4.26 5.51
    endloop
  endfacet
  facet normal 0 1 0
    outer loop
      vertex 2.8 4.26 5.51
      vertex 12.8 4.26 5.51
      vertex 12.8 4.26 1.25
    endloop
  endfacet
  facet normal 0 0.9569403357322089 0.2902846772544623
    outer loop
      vertex 2.8009999999999997 1.117861343415316 2.467119033076614
      vertex -1.5 1.2003746778586344 2.1951090230706196
      vertex -1.5 1.117861343415316 2.467119033076614
    endloop
  endfacet
  facet normal 0 0.9951847266721969 0.09801714032956076
    outer loop
      vertex 2.8009999999999997 1.09 2.75
      vertex -1.5 1.117861343415316 2.467119033076614
      vertex -1.5 1.09 2.75
    endloop
  endfacet
  facet normal 0 0.9951847266721969 -0.09801714032956076
    outer loop
      vertex 2.8009999999999997 1.117861343415316 3.032880966923386
      vertex -1.5 1.09 2.75
      vertex -1.5 1.117861343415316 3.032880966923386
    endloop
  endfacet
  facet normal 0 0.7730104533627372 0.6343932841636452
    outer loop
      vertex 2.8009999999999997 1.3343690621613096 1.9444231621215768
      vertex -1.5 1.5146951672795061 1.7246951672795061
      vertex -1.5 1.3343690621613096 1.9444231621215768
    endloop
  endfacet
  facet normal 0 0.8819212643483548 0.471396736825998
    outer loop
      vertex 2.8009999999999997 1.2003746778586344 2.1951090230706196
      vertex -1.5 1.3343690621613096 1.9444231621215768
      vertex -1.5 1.2003746778586344 2.1951090230706196
    endloop
  endfacet
  facet normal 0 0.9569403357322089 -0.2902846772544623
    outer loop
      vertex 2.8009999999999997 1.2003746778586344 3.3048909769293804
      vertex -1.5 1.117861343415316 3.032880966923386
      vertex -1.5 1.2003746778586344 3.3048909769293804
    endloop
  endfacet
  facet normal 0 0.8819212643483547 -0.4713967368259984
    outer loop
      vertex 2.8009999999999997 1.3343690621613096 3.555576837878423
      vertex -1.5 1.2003746778586344 3.3048909769293804
      vertex -1.5 1.3343690621613096 3.555576837878423
    endloop
  endfacet
  facet normal 0 0.7730104533627372 -0.6343932841636452
    outer loop
      vertex 2.8009999999999997 1.5146951672795061 3.7753048327204937
      vertex -1.5 1.3343690621613096 3.555576837878423
      vertex -1.5 1.5146951672795061 3.7753048327204937
    endloop
  endfacet
  facet normal 0 0.9569403357322089 0.2902846772544623
    outer loop
      vertex 2.8009999999999997 1.2003746778586344 2.1951090230706196
      vertex -1.5 1.2003746778586344 2.1951090230706196
      vertex 2.8009999999999997 1.117861343415316 2.467119033076614
    endloop
  endfacet
  facet normal 0 0.9951847266721969 0.09801714032956076
    outer loop
      vertex 2.8009999999999997 1.117861343415316 2.467119033076614
      vertex -1.5 1.117861343415316 2.467119033076614
      vertex 2.8009999999999997 1.09 2.75
    endloop
  endfacet
  facet normal 0 0.9951847266721969 -0.09801714032956076
    outer loop
      vertex 2.8009999999999997 1.09 2.75
      vertex -1.5 1.09 2.75
      vertex 2.8009999999999997 1.117861343415316 3.032880966923386
    endloop
  endfacet
  facet normal 0 0.9569403357322089 -0.2902846772544623
    outer loop
      vertex 2.8009999999999997 1.117861343415316 3.032880966923386
      vertex -1.5 1.117861343415316 3.032880966923386
      vertex 2.8009999999999997 1.2003746778586344 3.3048909769293804
    endloop
  endfacet
  facet normal 0 0.7730104533627372 0.6343932841636452
    outer loop
      vertex 2.8009999999999997 1.3343690621613096 1.9444231621215768
      vertex 2.8009999999999997 1.5146951672795061 1.7246951672795061
      vertex -1.5 1.5146951672795061 1.7246951672795061
    endloop
  endfacet
  facet normal 0 0.8819212643483548 0.471396736825998
    outer loop
      vertex 2.8009999999999997 1.3343690621613096 1.9444231621215768
      vertex -1.5 1.3343690621613096 1.9444231621215768
      vertex 2.8009999999999997 1.2003746778586344 2.1951090230706196
    endloop
  endfacet
  facet normal 0 0.8819212643483547 -0.4713967368259984
    outer loop
      vertex 2.8009999999999997 1.2003746778586344 3.3048909769293804
      vertex -1.5 1.2003746778586344 3.3048909769293804
      vertex 2.8009999999999997 1.3343690621613096 3.555576837878423
    endloop
  endfacet
  facet normal 0 0.7730104533627372 -0.6343932841636452
    outer loop
      vertex 2.8009999999999997 1.3343690621613096 3.555576837878423
      vertex -1.5 1.3343690621613096 3.555576837878423
      vertex 2.8009999999999997 1.5146951672795061 3.7753048327204937
    endloop
  endfacet
  facet normal 0 0.6343932841636452 0.7730104533627372
    outer loop
      vertex 2.8009999999999997 1.5146951672795061 1.7246951672795061
      vertex -1.5 1.7344231621215769 1.5443690621613095
      vertex -1.5 1.5146951672795061 1.7246951672795061
    endloop
  endfacet
  facet normal 0 0.4713967368259977 0.881921264348355
    outer loop
      vertex 2.8009999999999997 1.7344231621215769 1.5443690621613095
      vertex -1.5 1.9851090230706199 1.4103746778586344
      vertex -1.5 1.7344231621215769 1.5443690621613095
    endloop
  endfacet
  facet normal 0 0.6343932841636457 -0.7730104533627368
    outer loop
      vertex 2.8009999999999997 1.7344231621215769 3.9556309378386905
      vertex -1.5 1.5146951672795061 3.7753048327204937
      vertex -1.5 1.7344231621215769 3.9556309378386905
    endloop
  endfacet
  facet normal 0 0.4713967368259983 -0.8819212643483546
    outer loop
      vertex 2.8009999999999997 1.9851090230706199 4.089625322141366
      vertex -1.5 1.7344231621215769 3.9556309378386905
      vertex -1.5 1.9851090230706199 4.089625322141366
    endloop
  endfacet
  facet normal 0 0.29028467725446244 0.9569403357322087
    outer loop
      vertex 2.8009999999999997 1.9851090230706199 1.4103746778586344
      vertex -1.5 2.257119033076614 1.327861343415316
      vertex -1.5 1.9851090230706199 1.4103746778586344
    endloop
  endfacet
  facet normal 0 0.09801714032956076 0.9951847266721969
    outer loop
      vertex 2.8009999999999997 2.257119033076614 1.327861343415316
      vertex -1.5 2.54 1.3
      vertex -1.5 2.257119033076614 1.327861343415316
    endloop
  endfacet
  facet normal 0 0.290284677254461 -0.9569403357322093
    outer loop
      vertex 2.8009999999999997 2.257119033076614 4.172138656584684
      vertex -1.5 1.9851090230706199 4.089625322141366
      vertex -1.5 2.257119033076614 4.172138656584684
    endloop
  endfacet
  facet normal 0 0.0980171403295623 -0.9951847266721967
    outer loop
      vertex 2.8009999999999997 2.54 4.2
      vertex -1.5 2.257119033076614 4.172138656584684
      vertex -1.5 2.54 4.2
    endloop
  endfacet
  facet normal 0 0.6343932841636452 0.7730104533627372
    outer loop
      vertex 2.8009999999999997 1.7344231621215769 1.5443690621613095
      vertex -1.5 1.7344231621215769 1.5443690621613095
      vertex 2.8009999999999997 1.5146951672795061 1.7246951672795061
    endloop
  endfacet
  facet normal 0 0.4713967368259977 0.881921264348355
    outer loop
      vertex 2.8009999999999997 1.7344231621215769 1.5443690621613095
      vertex 2.8009999999999997 1.9851090230706199 1.4103746778586344
      vertex -1.5 1.9851090230706199 1.4103746778586344
    endloop
  endfacet
  facet normal 0 0.6343932841636457 -0.7730104533627368
    outer loop
      vertex 2.8009999999999997 1.5146951672795061 3.7753048327204937
      vertex -1.5 1.5146951672795061 3.7753048327204937
      vertex 2.8009999999999997 1.7344231621215769 3.9556309378386905
    endloop
  endfacet
  facet normal 0 0.4713967368259983 -0.8819212643483546
    outer loop
      vertex 2.8009999999999997 1.7344231621215769 3.9556309378386905
      vertex -1.5 1.7344231621215769 3.9556309378386905
      vertex 2.8009999999999997 1.9851090230706199 4.089625322141366
    endloop
  endfacet
  facet normal 0 0.29028467725446244 0.9569403357322087
    outer loop
      vertex 2.8009999999999997 1.9851090230706199 1.4103746778586344
      vertex 2.8009999999999997 2.257119033076614 1.327861343415316
      vertex -1.5 2.257119033076614 1.327861343415316
    endloop
  endfacet
  facet normal 0 0.09801714032956076 0.9951847266721969
    outer loop
      vertex 2.8009999999999997 2.257119033076614 1.327861343415316
      vertex 2.8009999999999997 2.54 1.3
      vertex -1.5 2.54 1.3
    endloop
  endfacet
  facet normal 0 0.290284677254461 -0.9569403357322093
    outer loop
      vertex 2.8009999999999997 1.9851090230706199 4.089625322141366
      vertex -1.5 1.9851090230706199 4.089625322141366
      vertex 2.8009999999999997 2.257119033076614 4.172138656584684
    endloop
  endfacet
  facet normal 0 0.0980171403295623 -0.9951847266721967
    outer loop
      vertex 2.8009999999999997 2.257119033076614 4.172138656584684
      vertex -1.5 2.257119033076614 4.172138656584684
      vertex 2.8009999999999997 2.54 4.2
    endloop
  endfacet
  facet normal -1 0 0
    outer loop
      vertex 2.8009999999999997 1.117861343415316 2.467119033076614
      vertex 2.8009999999999997 1.09 2.75
      vertex 2.8009999999999997 1.117861343415316 3.032880966923386
    endloop
  endfacet
  facet normal -1 0 0
    outer loop
      vertex 2.8009999999999997 1.2003746778586344 2.1951090230706196
      vertex 2.8009999999999997 1.117861343415316 2.467119033076614
      vertex 2.8009999999999997 1.117861343415316 3.032880966923386
    endloop
  endfacet
  facet normal -1 0 0
    outer loop
      vertex 2.8009999999999997 1.2003746778586344 2.1951090230706196
      vertex 2.8009999999999997 1.117861343415316 3.032880966923386
      vertex 2.8009999999999997 1.2003746778586344 3.3048909769293804
    endloop
  endfacet
  facet normal -1 0 0
    outer loop
      vertex 2.8009999999999997 1.3343690621613096 1.9444231621215768
      vertex 2.8009999999999997 1.2003746778586344 2.1951090230706196
      vertex 2.8009999999999997 1.2003746778586344 3.3048909769293804
    endloop
  endfacet
  facet normal -1 0 0
    outer loop
      vertex 2.8009999999999997 1.3343690621613096 1.9444231621215768
      vertex 2.8009999999999997 1.2003746778586344 3.3048909769293804
      vertex 2.8009999999999997 1.3343690621613096 3.555576837878423
    endloop
  endfacet
  facet normal -1 0 0
    outer loop
      vertex 2.8009999999999997 1.3343690621613096 1.9444231621215768
      vertex 2.8009999999999997 1.3343690621613096 3.555576837878423
      vertex 2.8009999999999997 1.5146951672795061 1.7246951672795061
    endloop
  endfacet
  facet normal -1 0 0
    outer loop
      vertex 2.8009999999999997 1.5146951672795061 1.7246951672795061
      vertex 2.8009999999999997 1.3343690621613096 3.555576837878423
      vertex 2.8009999999999997 1.5146951672795061 3.7753048327204937
    endloop
  endfacet
  facet normal -1 0 0
    outer loop
      vertex 2.8009999999999997 1.7344231621215769 1.5443690621613095
      vertex 2.8009999999999997 1.5146951672795061 1.7246951672795061
      vertex 2.8009999999999997 1.5146951672795061 3.7753048327204937
    endloop
  endfacet
  facet normal -1 0 0
    outer loop
      vertex 2.8009999999999997 1.7344231621215769 1.5443690621613095
      vertex 2.8009999999999997 1.5146951672795061 3.7753048327204937
      vertex 2.8009999999999997 1.7344231621215769 3.9556309378386905
    endloop
  endfacet
  facet normal -1 0 0
    outer loop
      vertex 2.8009999999999997 1.7344231621215769 1.5443690621613095
      vertex 2.8009999999999997 1.7344231621215769 3.9556309378386905
      vertex 2.8009999999999997 1.9851090230706199 1.4103746778586344
    endloop
  endfacet
  facet normal -1 0 0
    outer loop
      vertex 2.8009999999999997 1.9851090230706199 1.4103746778586344
      vertex 2.8009999999999997 1.7344231621215769 3.9556309378386905
      vertex 2.8009999999999997 1.9851090230706199 4.089625322141366
    endloop
  endfacet
  facet normal -1 0 0
    outer loop
      vertex 2.8009999999999997 1.9851090230706199 1.4103746778586344
      vertex 2.8009999999999997 1.9851090230706199 4.089625322141366
      vertex 2.8009999999999997 2.257119033076614 1.327861343415316
    endloop
  endfacet
  facet normal -1 0 0
    outer loop
      vertex 2.8009999999999997 2.257119033076614 1.327861343415316
      vertex 2.8009999999999997 2.257119033076614 4.172138656584684
      vertex 2.8009999999999997 2.54 1.3
    endloop
  endfacet
  facet normal -1 0 0
    outer loop
      vertex 2.8009999999999997 2.257119033076614 1.327861343415316
      vertex 2.8009999999999997 1.9851090230706199 4.089625322141366
      vertex 2.8009999999999997 2.257119033076614 4.172138656584684
    endloop
  endfacet
  facet normal -1 0 0
    outer loop
      vertex 2.8009999999999997 2.54 1.3
      vertex 2.8009999999999997 2.257119033076614 4.172138656584684
      vertex 2.8009999999999997 2.54 4.2
    endloop
  endfacet
  facet normal 0 -0.09801714032956076 0.9951847266721969
    outer loop
      vertex 2.8009999999999997 2.54 1.3
      vertex -1.5 2.822880966923386 1.327861343415316
      vertex -1.5 2.54 1.3
    endloop
  endfacet
  facet normal 0 -0.2902846772544623 0.9569403357322089
    outer loop
      vertex 2.8009999999999997 2.822880966923386 1.327861343415316
      vertex -1.5 3.0948909769293804 1.4103746778586344
      vertex -1.5 2.822880966923386 1.327861343415316
    endloop
  endfacet
  facet normal 0 -0.0980171403295623 -0.9951847266721967
    outer loop
      vertex 2.8009999999999997 2.822880966923386 4.172138656584684
      vertex -1.5 2.54 4.2
      vertex -1.5 2.822880966923386 4.172138656584684
    endloop
  endfacet
  facet normal 0 -0.2902846772544608 -0.9569403357322093
    outer loop
      vertex 2.8009999999999997 3.0948909769293804 4.089625322141366
      vertex -1.5 2.822880966923386 4.172138656584684
      vertex -1.5 3.0948909769293804 4.089625322141366
    endloop
  endfacet
  facet normal 0 -0.4713967368259984 0.8819212643483547
    outer loop
      vertex 2.8009999999999997 3.0948909769293804 1.4103746778586344
      vertex -1.5 3.345576837878423 1.5443690621613095
      vertex -1.5 3.0948909769293804 1.4103746778586344
    endloop
  endfacet
  facet normal 0 -0.6343932841636452 0.7730104533627372
    outer loop
      vertex 2.8009999999999997 3.345576837878423 1.5443690621613095
      vertex -1.5 3.5653048327204937 1.7246951672795061
      vertex -1.5 3.345576837878423 1.5443690621613095
    endloop
  endfacet
  facet normal 0 -0.471396736825999 -0.8819212643483543
    outer loop
      vertex 2.8009999999999997 3.345576837878423 3.9556309378386905
      vertex -1.5 3.0948909769293804 4.089625322141366
      vertex -1.5 3.345576837878423 3.9556309378386905
    endloop
  endfacet
  facet normal 0 -0.6343932841636457 -0.7730104533627368
    outer loop
      vertex 2.8009999999999997 3.5653048327204937 3.7753048327204937
      vertex -1.5 3.345576837878423 3.9556309378386905
      vertex -1.5 3.5653048327204937 3.7753048327204937
    endloop
  endfacet
  facet normal 0 -0.09801714032956076 0.9951847266721969
    outer loop
      vertex 2.8009999999999997 2.54 1.3
      vertex 2.8009999999999997 2.822880966923386 1.327861343415316
      vertex -1.5 2.822880966923386 1.327861343415316
    endloop
  endfacet
  facet normal 0 -0.2902846772544623 0.9569403357322089
    outer loop
      vertex 2.8009999999999997 2.822880966923386 1.327861343415316
      vertex 2.8009999999999997 3.0948909769293804 1.4103746778586344
      vertex -1.5 3.0948909769293804 1.4103746778586344
    endloop
  endfacet
  facet normal 0 -0.0980171403295623 -0.9951847266721967
    outer loop
      vertex 2.8009999999999997 2.54 4.2
      vertex -1.5 2.54 4.2
      vertex 2.8009999999999997 2.822880966923386 4.172138656584684
    endloop
  endfacet
  facet normal 0 -0.2902846772544608 -0.9569403357322093
    outer loop
      vertex 2.8009999999999997 2.822880966923386 4.172138656584684
      vertex -1.5 2.822880966923386 4.172138656584684
      vertex 2.8009999999999997 3.0948909769293804 4.089625322141366
    endloop
  endfacet
  facet normal 0 -0.4713967368259984 0.8819212643483547
    outer loop
      vertex 2.8009999999999997 3.0948909769293804 1.4103746778586344
      vertex 2.8009999999999997 3.345576837878423 1.5443690621613095
      vertex -1.5 3.345576837878423 1.5443690621613095
    endloop
  endfacet
  facet normal 0 -0.6343932841636452 0.7730104533627372
    outer loop
      vertex 2.8009999999999997 3.345576837878423 1.5443690621613095
      vertex 2.8009999999999997 3.5653048327204937 1.7246951672795061
      vertex -1.5 3.5653048327204937 1.7246951672795061
    endloop
  endfacet
  facet normal 0 -0.471396736825999 -0.8819212643483543
    outer loop
      vertex 2.8009999999999997 3.0948909769293804 4.089625322141366
      vertex -1.5 3.0948909769293804 4.089625322141366
      vertex 2.8009999999999997 3.345576837878423 3.9556309378386905
    endloop
  endfacet
  facet normal 0 -0.6343932841636457 -0.7730104533627368
    outer loop
      vertex 2.8009999999999997 3.5653048327204937 3.7753048327204937
      vertex 2.8009999999999997 3.345576837878423 3.9556309378386905
      vertex -1.5 3.345576837878423 3.9556309378386905
    endloop
  endfacet
  facet normal 0 -0.7730104533627368 0.6343932841636457
    outer loop
      vertex 2.8009999999999997 3.5653048327204937 1.7246951672795061
      vertex -1.5 3.7456309378386905 1.9444231621215768
      vertex -1.5 3.5653048327204937 1.7246951672795061
    endloop
  endfacet
  facet normal 0 -0.8819212643483545 0.47139673682599864
    outer loop
      vertex 2.8009999999999997 3.7456309378386905 1.9444231621215768
      vertex -1.5 3.879625322141366 2.1951090230706196
      vertex -1.5 3.7456309378386905 1.9444231621215768
    endloop
  endfacet
  facet normal 0 -0.9569403357322093 0.2902846772544608
    outer loop
      vertex 2.8009999999999997 3.879625322141366 2.1951090230706196
      vertex -1.5 3.962138656584684 2.467119033076614
      vertex -1.5 3.879625322141366 2.1951090230706196
    endloop
  endfacet
  facet normal 0 -0.9569403357322093 -0.2902846772544608
    outer loop
      vertex 2.8009999999999997 3.962138656584684 3.032880966923386
      vertex -1.5 3.879625322141366 3.3048909769293804
      vertex -1.5 3.962138656584684 3.032880966923386
    endloop
  endfacet
  facet normal 0 -0.9951847266721967 0.0980171403295623
    outer loop
      vertex 2.8009999999999997 3.962138656584684 2.467119033076614
      vertex -1.5 3.99 2.75
      vertex -1.5 3.962138656584684 2.467119033076614
    endloop
  endfacet
  facet normal 0 -0.9951847266721967 -0.0980171403295623
    outer loop
      vertex 2.8009999999999997 3.99 2.75
      vertex -1.5 3.962138656584684 3.032880966923386
      vertex -1.5 3.99 2.75
    endloop
  endfacet
  facet normal 0 -0.7730104533627368 -0.6343932841636457
    outer loop
      vertex 2.8009999999999997 3.7456309378386905 3.555576837878423
      vertex -1.5 3.5653048327204937 3.7753048327204937
      vertex -1.5 3.7456309378386905 3.555576837878423
    endloop
  endfacet
  facet normal 0 -0.8819212643483543 -0.471396736825999
    outer loop
      vertex 2.8009999999999997 3.879625322141366 3.3048909769293804
      vertex -1.5 3.7456309378386905 3.555576837878423
      vertex -1.5 3.879625322141366 3.3048909769293804
    endloop
  endfacet
  facet normal 0 -0.7730104533627368 0.6343932841636457
    outer loop
      vertex 2.8009999999999997 3.5653048327204937 1.7246951672795061
      vertex 2.8009999999999997 3.7456309378386905 1.9444231621215768
      vertex -1.5 3.7456309378386905 1.9444231621215768
    endloop
  endfacet
  facet normal 0 -0.8819212643483545 0.47139673682599864
    outer loop
      vertex 2.8009999999999997 3.7456309378386905 1.9444231621215768
      vertex 2.8009999999999997 3.879625322141366 2.1951090230706196
      vertex -1.5 3.879625322141366 2.1951090230706196
    endloop
  endfacet
  facet normal 0 -0.9569403357322093 0.2902846772544608
    outer loop
      vertex 2.8009999999999997 3.879625322141366 2.1951090230706196
      vertex 2.8009999999999997 3.962138656584684 2.467119033076614
      vertex -1.5 3.962138656584684 2.467119033076614
    endloop
  endfacet
  facet normal 0 -0.9951847266721967 0.0980171403295623
    outer loop
      vertex 2.8009999999999997 3.962138656584684 2.467119033076614
      vertex 2.8009999999999997 3.99 2.75
      vertex -1.5 3.99 2.75
    endloop
  endfacet
  facet normal 0 -0.9951847266721967 -0.0980171403295623
    outer loop
      vertex 2.8009999999999997 3.99 2.75
      vertex 2.8009999999999997 3.962138656584684 3.032880966923386
      vertex -1.5 3.962138656584684 3.032880966923386
    endloop
  endfacet
  facet normal 0 -0.7730104533627368 -0.6343932841636457
    outer loop
      vertex 2.8009999999999997 3.5653048327204937 3.7753048327204937
      vertex -1.5 3.5653048327204937 3.7753048327204937
      vertex 2.8009999999999997 3.7456309378386905 3.555576837878423
    endloop
  endfacet
  facet normal 0 -0.8819212643483543 -0.471396736825999
    outer loop
      vertex 2.8009999999999997 3.879625322141366 3.3048909769293804
      vertex 2.8009999999999997 3.7456309378386905 3.555576837878423
      vertex -1.5 3.7456309378386905 3.555576837878423
    endloop
  endfacet
  facet normal 0 -0.9569403357322093 -0.2902846772544608
    outer loop
      vertex 2.8009999999999997 3.962138656584684 3.032880966923386
      vertex 2.8009999999999997 3.879625322141366 3.3048909769293804
      vertex -1.5 3.879625322141366 3.3048909769293804
    endloop
  endfacet
  facet normal -1 0 0
    outer loop
      vertex 2.8009999999999997 2.54 1.3
      vertex 2.8009999999999997 2.54 4.2
      vertex 2.8009999999999997 2.822880966923386 1.327861343415316
    endloop
  endfacet
  facet normal -1 0 0
    outer loop
      vertex 2.8009999999999997 2.822880966923386 1.327861343415316
      vertex 2.8009999999999997 2.822880966923386 4.172138656584684
      vertex 2.8009999999999997 3.0948909769293804 1.4103746778586344
    endloop
  endfacet
  facet normal -1 0 0
    outer loop
      vertex 2.8009999999999997 2.54 4.2
      vertex 2.8009999999999997 2.822880966923386 4.172138656584684
      vertex 2.8009999999999997 2.822880966923386 1.327861343415316
    endloop
  endfacet
  facet normal -1 0 0
    outer loop
      vertex 2.8009999999999997 3.0948909769293804 1.4103746778586344
      vertex 2.8009999999999997 2.822880966923386 4.172138656584684
      vertex 2.8009999999999997 3.0948909769293804 4.089625322141366
    endloop
  endfacet
  facet normal -1 0 0
    outer loop
      vertex 2.8009999999999997 3.0948909769293804 1.4103746778586344
      vertex 2.8009999999999997 3.0948909769293804 4.089625322141366
      vertex 2.8009999999999997 3.345576837878423 1.5443690621613095
    endloop
  endfacet
  facet normal -1 0 0
    outer loop
      vertex 2.8009999999999997 3.345576837878423 1.5443690621613095
      vertex 2.8009999999999997 3.345576837878423 3.9556309378386905
      vertex 2.8009999999999997 3.5653048327204937 1.7246951672795061
    endloop
  endfacet
  facet normal -1 0 0
    outer loop
      vertex 2.8009999999999997 3.5653048327204937 1.7246951672795061
      vertex 2.8009999999999997 3.345576837878423 3.9556309378386905
      vertex 2.8009999999999997 3.5653048327204937 3.7753048327204937
    endloop
  endfacet
  facet normal -1 0 0
    outer loop
      vertex 2.8009999999999997 3.345576837878423 1.5443690621613095
      vertex 2.8009999999999997 3.0948909769293804 4.089625322141366
      vertex 2.8009999999999997 3.345576837878423 3.9556309378386905
    endloop
  endfacet
  facet normal -1 0 0
    outer loop
      vertex 2.8009999999999997 3.5653048327204937 1.7246951672795061
      vertex 2.8009999999999997 3.5653048327204937 3.7753048327204937
      vertex 2.8009999999999997 3.7456309378386905 1.9444231621215768
    endloop
  endfacet
  facet normal -1 0 0
    outer loop
      vertex 2.8009999999999997 3.7456309378386905 1.9444231621215768
      vertex 2.8009999999999997 3.5653048327204937 3.7753048327204937
      vertex 2.8009999999999997 3.7456309378386905 3.555576837878423
    endloop
  endfacet
  facet normal -1 0 0
    outer loop
      vertex 2.8009999999999997 3.7456309378386905 1.9444231621215768
      vertex 2.8009999999999997 3.7456309378386905 3.555576837878423
      vertex 2.8009999999999997 3.879625322141366 2.1951090230706196
    endloop
  endfacet
  facet normal -1 0 0
    outer loop
      vertex 2.8009999999999997 3.879625322141366 2.1951090230706196
      vertex 2.8009999999999997 3.7456309378386905 3.555576837878423
      vertex 2.8009999999999997 3.879625322141366 3.3048909769293804
    endloop
  endfacet
  facet normal -1 0 0
    outer loop
      vertex 2.8009999999999997 3.879625322141366 2.1951090230706196
      vertex 2.8009999999999997 3.879625322141366 3.3048909769293804
      vertex 2.8009999999999997 3.962138656584684 2.467119033076614
    endloop
  endfacet
  facet normal -1 0 0
    outer loop
      vertex 2.8009999999999997 3.962138656584684 2.467119033076614
      vertex 2.8009999999999997 3.879625322141366 3.3048909769293804
      vertex 2.8009999999999997 3.962138656584684 3.032880966923386
    endloop
  endfacet
  facet normal -1 0 0
    outer loop
      vertex 2.8009999999999997 3.962138656584684 2.467119033076614
      vertex 2.8009999999999997 3.962138656584684 3.032880966923386
      vertex 2.8009999999999997 3.99 2.75
    endloop
  endfacet
endsolid OpenSCAD_Model
