<?xml version="1.0" encoding="UTF-8" standalone="no"?>
<!DOCTYPE svg PUBLIC "-//W3C//DTD SVG 1.1//EN"
 "http://www.w3.org/Graphics/SVG/1.1/DTD/svg11.dtd">
<!-- Generated by graphviz version 5.0.0 (20220707.1540)
 -->
<!-- Title: default Pages: 1 -->
<svg width="652pt" height="1070pt"
 viewBox="0.00 0.00 651.86 1070.00" xmlns="http://www.w3.org/2000/svg" xmlns:xlink="http://www.w3.org/1999/xlink">
<g id="graph0" class="graph" transform="scale(1 1) rotate(0) translate(4 1066)">
<title>default</title>
<polygon fill="white" stroke="transparent" points="-4,4 -4,-1066 647.86,-1066 647.86,4 -4,4"/>
<!-- root_1 -->
<g id="node1" class="node">
<title>root_1</title>
<g id="a_node1"><a xlink:href="javascript:s=&quot;\(\)\nNone&quot;; console.log(s); alert(s);" xlink:title="root">
<ellipse fill="none" stroke="black" cx="27" cy="-315" rx="27" ry="18"/>
<text text-anchor="middle" x="27" y="-311.3" font-family="Times New Roman,serif" font-size="14.00">root</text>
</a>
</g>
</g>
<!-- default_2 -->
<g id="node2" class="node">
<title>default_2</title>
<g id="a_node2"><a xlink:href="javascript:s=&quot;\(&#x27;default&#x27;,\)\nTerminalKF301&quot;; console.log(s); alert(s);" xlink:title="TerminalKF301">
<ellipse fill="none" stroke="black" cx="165.39" cy="-639" rx="35.19" ry="18"/>
<text text-anchor="middle" x="165.39" y="-635.3" font-family="Times New Roman,serif" font-size="14.00">default</text>
</a>
</g>
</g>
<!-- root_1&#45;&gt;default_2 -->
<g id="edge1" class="edge">
<title>root_1&#45;&gt;default_2</title>
<path fill="none" stroke="black" d="M35.33,-332.42C57.81,-385.82 125.88,-547.51 153.03,-612.01"/>
<polygon fill="black" stroke="black" points="149.92,-613.64 157.02,-621.49 156.37,-610.92 149.92,-613.64"/>
</g>
<!-- 20 -->
<g id="node20" class="node">
<title>20</title>
<g id="a_node20"><a xlink:href="javascript:s=&quot;\(&quot;&#x27;face_edge&#x27;,\ 1,\ 0,\ &quot;,\)\nAnnotatedCoordinates&quot;; console.log(s); alert(s);" xlink:title="AnnotatedCoordinates">
<ellipse fill="none" stroke="black" cx="165.39" cy="-153" rx="75.29" ry="18"/>
<text text-anchor="middle" x="165.39" y="-149.3" font-family="Times New Roman,serif" font-size="14.00">&#39;face_edge&#39;, 1, 0, </text>
</a>
</g>
</g>
<!-- root_1&#45;&gt;20 -->
<g id="edge19" class="edge">
<title>root_1&#45;&gt;20</title>
<path fill="none" stroke="black" d="M41.08,-299.47C64.56,-271.58 114.08,-212.76 142.71,-178.76"/>
<polygon fill="black" stroke="black" points="145.74,-180.59 149.51,-170.68 140.39,-176.08 145.74,-180.59"/>
</g>
<!-- body_3 -->
<g id="node3" class="node">
<title>body_3</title>
<g id="a_node3"><a xlink:href="javascript:s=&quot;\(&#x27;default&#x27;,\ &#x27;body&#x27;\)\nTerminalKF301Body&quot;; console.log(s); alert(s);" xlink:title="TerminalKF301Body">
<ellipse fill="none" stroke="black" cx="334.63" cy="-990" rx="29.8" ry="18"/>
<text text-anchor="middle" x="334.63" y="-986.3" font-family="Times New Roman,serif" font-size="14.00">body</text>
</a>
</g>
</g>
<!-- default_2&#45;&gt;body_3 -->
<g id="edge2" class="edge">
<title>default_2&#45;&gt;body_3</title>
<path fill="none" stroke="black" d="M174.69,-656.41C201.82,-713.36 288.11,-894.46 320.86,-963.19"/>
<polygon fill="black" stroke="black" points="317.83,-964.97 325.29,-972.49 324.15,-961.96 317.83,-964.97"/>
</g>
<!-- terminal_6 -->
<g id="node6" class="node">
<title>terminal_6</title>
<g id="a_node6"><a xlink:href="javascript:s=&quot;\(&#x27;default&#x27;,\ \(&#x27;terminal&#x27;,\ 1\)\)\nTerminalKF301Terminal&quot;; console.log(s); alert(s);" xlink:title="TerminalKF301Terminal">
<ellipse fill="none" stroke="black" cx="334.63" cy="-774" rx="57.69" ry="18"/>
<text text-anchor="middle" x="334.63" y="-770.3" font-family="Times New Roman,serif" font-size="14.00">(&#39;terminal&#39;, 1)</text>
</a>
</g>
</g>
<!-- default_2&#45;&gt;terminal_6 -->
<g id="edge5" class="edge">
<title>default_2&#45;&gt;terminal_6</title>
<path fill="none" stroke="black" d="M184.93,-653.96C214.06,-677.48 270.77,-723.26 305.12,-750.98"/>
<polygon fill="black" stroke="black" points="302.94,-753.73 312.92,-757.28 307.34,-748.28 302.94,-753.73"/>
</g>
<!-- terminal_13 -->
<g id="node13" class="node">
<title>terminal_13</title>
<g id="a_node13"><a xlink:href="javascript:s=&quot;\(&#x27;default&#x27;,\ \(&#x27;terminal&#x27;,\ 2\)\)\nTerminalKF301Terminal&quot;; console.log(s); alert(s);" xlink:title="TerminalKF301Terminal">
<ellipse fill="none" stroke="black" cx="334.63" cy="-504" rx="57.69" ry="18"/>
<text text-anchor="middle" x="334.63" y="-500.3" font-family="Times New Roman,serif" font-size="14.00">(&#39;terminal&#39;, 2)</text>
</a>
</g>
</g>
<!-- default_2&#45;&gt;terminal_13 -->
<g id="edge12" class="edge">
<title>default_2&#45;&gt;terminal_13</title>
<path fill="none" stroke="black" d="M184.93,-624.04C214.06,-600.52 270.77,-554.74 305.12,-527.02"/>
<polygon fill="black" stroke="black" points="307.34,-529.72 312.92,-520.72 302.94,-524.27 307.34,-529.72"/>
</g>
<!-- cage_4 -->
<g id="node4" class="node">
<title>cage_4</title>
<g id="a_node4"><a xlink:href="javascript:s=&quot;\(&#x27;default&#x27;,\ &#x27;body&#x27;,\ &#x27;cage&#x27;\)\nBox&quot;; console.log(s); alert(s);" xlink:title="Box">
<ellipse fill="none" stroke="black" cx="490.22" cy="-1044" rx="27.1" ry="18"/>
<text text-anchor="middle" x="490.22" y="-1040.3" font-family="Times New Roman,serif" font-size="14.00">cage</text>
</a>
</g>
</g>
<!-- body_3&#45;&gt;cage_4 -->
<g id="edge3" class="edge">
<title>body_3&#45;&gt;cage_4</title>
<path fill="none" stroke="black" d="M360.99,-998.92C387.06,-1008.08 427.76,-1022.39 456.29,-1032.42"/>
<polygon fill="black" stroke="black" points="455.24,-1035.76 465.84,-1035.78 457.56,-1029.16 455.24,-1035.76"/>
</g>
<!-- terminal_5 -->
<g id="node5" class="node">
<title>terminal_5</title>
<g id="a_node5"><a xlink:href="javascript:s=&quot;\(&#x27;default&#x27;,\ &#x27;body&#x27;,\ &#x27;terminal&#x27;\)\nLinearExtrude&quot;; console.log(s); alert(s);" xlink:title="LinearExtrude">
<ellipse fill="none" stroke="black" cx="490.22" cy="-990" rx="38.99" ry="18"/>
<text text-anchor="middle" x="490.22" y="-986.3" font-family="Times New Roman,serif" font-size="14.00">terminal</text>
</a>
</g>
</g>
<!-- body_3&#45;&gt;terminal_5 -->
<g id="edge4" class="edge">
<title>body_3&#45;&gt;terminal_5</title>
<path fill="none" stroke="black" d="M364.88,-990C386.38,-990 416.07,-990 441.04,-990"/>
<polygon fill="black" stroke="black" points="441.06,-993.5 451.06,-990 441.06,-986.5 441.06,-993.5"/>
</g>
<!-- cage_7 -->
<g id="node7" class="node">
<title>cage_7</title>
<g id="a_node7"><a xlink:href="javascript:s=&quot;\(&#x27;default&#x27;,\ \(&#x27;terminal&#x27;,\ 1\),\ &#x27;cage&#x27;\)\nBox&quot;; console.log(s); alert(s);" xlink:title="Box">
<ellipse fill="none" stroke="black" cx="490.22" cy="-936" rx="27.1" ry="18"/>
<text text-anchor="middle" x="490.22" y="-932.3" font-family="Times New Roman,serif" font-size="14.00">cage</text>
</a>
</g>
</g>
<!-- terminal_6&#45;&gt;cage_7 -->
<g id="edge6" class="edge">
<title>terminal_6&#45;&gt;cage_7</title>
<path fill="none" stroke="black" d="M343.98,-792.09C357.87,-820.44 388.22,-875.55 428.48,-909 436.38,-915.57 446.14,-920.83 455.5,-924.91"/>
<polygon fill="black" stroke="black" points="454.44,-928.25 465.02,-928.73 457.05,-921.76 454.44,-928.25"/>
</g>
<!-- block_8 -->
<g id="node8" class="node">
<title>block_8</title>
<g id="a_node8"><a xlink:href="javascript:s=&quot;\(&#x27;default&#x27;,\ \(&#x27;terminal&#x27;,\ 1\),\ &#x27;block&#x27;\)\nBox&quot;; console.log(s); alert(s);" xlink:title="Box">
<ellipse fill="none" stroke="black" cx="490.22" cy="-882" rx="31.4" ry="18"/>
<text text-anchor="middle" x="490.22" y="-878.3" font-family="Times New Roman,serif" font-size="14.00">block</text>
</a>
</g>
</g>
<!-- terminal_6&#45;&gt;block_8 -->
<g id="edge7" class="edge">
<title>terminal_6&#45;&gt;block_8</title>
<path fill="none" stroke="black" d="M352.18,-791.2C369.84,-808.88 399.26,-836.36 428.48,-855 436.48,-860.1 445.61,-864.72 454.32,-868.63"/>
<polygon fill="black" stroke="black" points="452.96,-871.85 463.53,-872.58 455.72,-865.42 452.96,-871.85"/>
</g>
<!-- term_hole_9 -->
<g id="node9" class="node">
<title>term_hole_9</title>
<g id="a_node9"><a xlink:href="javascript:s=&quot;\(&#x27;default&#x27;,\ \(&#x27;terminal&#x27;,\ 1\),\ &#x27;term_hole&#x27;\)\nCylinder&quot;; console.log(s); alert(s);" xlink:title="Cylinder">
<ellipse fill="none" stroke="black" cx="490.22" cy="-828" rx="46.59" ry="18"/>
<text text-anchor="middle" x="490.22" y="-824.3" font-family="Times New Roman,serif" font-size="14.00">term_hole</text>
</a>
</g>
</g>
<!-- terminal_6&#45;&gt;term_hole_9 -->
<g id="edge8" class="edge">
<title>terminal_6&#45;&gt;term_hole_9</title>
<path fill="none" stroke="black" d="M373.6,-787.35C395.34,-794.99 422.72,-804.62 445.38,-812.59"/>
<polygon fill="black" stroke="black" points="444.5,-815.99 455.09,-816 446.82,-809.38 444.5,-815.99"/>
</g>
<!-- pin_10 -->
<g id="node10" class="node">
<title>pin_10</title>
<g id="a_node10"><a xlink:href="javascript:s=&quot;\(&#x27;default&#x27;,\ \(&#x27;terminal&#x27;,\ 1\),\ &#x27;pin&#x27;\)\nCylinder&quot;; console.log(s); alert(s);" xlink:title="Cylinder">
<ellipse fill="none" stroke="black" cx="490.22" cy="-774" rx="27" ry="18"/>
<text text-anchor="middle" x="490.22" y="-770.3" font-family="Times New Roman,serif" font-size="14.00">pin</text>
</a>
</g>
</g>
<!-- terminal_6&#45;&gt;pin_10 -->
<g id="edge9" class="edge">
<title>terminal_6&#45;&gt;pin_10</title>
<path fill="none" stroke="black" d="M392.82,-774C412.93,-774 434.95,-774 452.87,-774"/>
<polygon fill="black" stroke="black" points="452.9,-777.5 462.9,-774 452.9,-770.5 452.9,-777.5"/>
</g>
<!-- screw_access_11 -->
<g id="node11" class="node">
<title>screw_access_11</title>
<g id="a_node11"><a xlink:href="javascript:s=&quot;\(&#x27;default&#x27;,\ \(&#x27;terminal&#x27;,\ 1\),\ &#x27;screw_access&#x27;\)\nCylinder&quot;; console.log(s); alert(s);" xlink:title="Cylinder">
<ellipse fill="none" stroke="black" cx="490.22" cy="-720" rx="61.99" ry="18"/>
<text text-anchor="middle" x="490.22" y="-716.3" font-family="Times New Roman,serif" font-size="14.00">screw_access</text>
</a>
</g>
</g>
<!-- terminal_6&#45;&gt;screw_access_11 -->
<g id="edge10" class="edge">
<title>terminal_6&#45;&gt;screw_access_11</title>
<path fill="none" stroke="black" d="M373.6,-760.65C393.78,-753.56 418.82,-744.75 440.43,-737.15"/>
<polygon fill="black" stroke="black" points="441.82,-740.38 450.09,-733.76 439.49,-733.77 441.82,-740.38"/>
</g>
<!-- block_access_12 -->
<g id="node12" class="node">
<title>block_access_12</title>
<g id="a_node12"><a xlink:href="javascript:s=&quot;\(&#x27;default&#x27;,\ \(&#x27;terminal&#x27;,\ 1\),\ &#x27;block_access&#x27;\)\nBox&quot;; console.log(s); alert(s);" xlink:title="Box">
<ellipse fill="none" stroke="black" cx="490.22" cy="-666" rx="60.39" ry="18"/>
<text text-anchor="middle" x="490.22" y="-662.3" font-family="Times New Roman,serif" font-size="14.00">block_access</text>
</a>
</g>
</g>
<!-- terminal_6&#45;&gt;block_access_12 -->
<g id="edge11" class="edge">
<title>terminal_6&#45;&gt;block_access_12</title>
<path fill="none" stroke="black" d="M352.18,-756.8C369.84,-739.12 399.26,-711.64 428.48,-693 433.16,-690.01 438.23,-687.2 443.37,-684.59"/>
<polygon fill="black" stroke="black" points="445.15,-687.62 452.65,-680.13 442.12,-681.31 445.15,-687.62"/>
</g>
<!-- cage_14 -->
<g id="node14" class="node">
<title>cage_14</title>
<g id="a_node14"><a xlink:href="javascript:s=&quot;\(&#x27;default&#x27;,\ \(&#x27;terminal&#x27;,\ 2\),\ &#x27;cage&#x27;\)\nBox&quot;; console.log(s); alert(s);" xlink:title="Box">
<ellipse fill="none" stroke="black" cx="490.22" cy="-612" rx="27.1" ry="18"/>
<text text-anchor="middle" x="490.22" y="-608.3" font-family="Times New Roman,serif" font-size="14.00">cage</text>
</a>
</g>
</g>
<!-- terminal_13&#45;&gt;cage_14 -->
<g id="edge13" class="edge">
<title>terminal_13&#45;&gt;cage_14</title>
<path fill="none" stroke="black" d="M352.18,-521.2C369.84,-538.88 399.26,-566.36 428.48,-585 437.14,-590.53 447.13,-595.48 456.47,-599.58"/>
<polygon fill="black" stroke="black" points="455.32,-602.89 465.89,-603.54 458.03,-596.44 455.32,-602.89"/>
</g>
<!-- block_15 -->
<g id="node15" class="node">
<title>block_15</title>
<g id="a_node15"><a xlink:href="javascript:s=&quot;\(&#x27;default&#x27;,\ \(&#x27;terminal&#x27;,\ 2\),\ &#x27;block&#x27;\)\nBox&quot;; console.log(s); alert(s);" xlink:title="Box">
<ellipse fill="none" stroke="black" cx="490.22" cy="-558" rx="31.4" ry="18"/>
<text text-anchor="middle" x="490.22" y="-554.3" font-family="Times New Roman,serif" font-size="14.00">block</text>
</a>
</g>
</g>
<!-- terminal_13&#45;&gt;block_15 -->
<g id="edge14" class="edge">
<title>terminal_13&#45;&gt;block_15</title>
<path fill="none" stroke="black" d="M373.6,-517.35C398.11,-525.97 429.79,-537.11 453.79,-545.54"/>
<polygon fill="black" stroke="black" points="452.64,-548.85 463.23,-548.86 454.96,-542.24 452.64,-548.85"/>
</g>
<!-- term_hole_16 -->
<g id="node16" class="node">
<title>term_hole_16</title>
<g id="a_node16"><a xlink:href="javascript:s=&quot;\(&#x27;default&#x27;,\ \(&#x27;terminal&#x27;,\ 2\),\ &#x27;term_hole&#x27;\)\nCylinder&quot;; console.log(s); alert(s);" xlink:title="Cylinder">
<ellipse fill="none" stroke="black" cx="490.22" cy="-504" rx="46.59" ry="18"/>
<text text-anchor="middle" x="490.22" y="-500.3" font-family="Times New Roman,serif" font-size="14.00">term_hole</text>
</a>
</g>
</g>
<!-- terminal_13&#45;&gt;term_hole_16 -->
<g id="edge15" class="edge">
<title>terminal_13&#45;&gt;term_hole_16</title>
<path fill="none" stroke="black" d="M392.82,-504C405.88,-504 419.74,-504 432.77,-504"/>
<polygon fill="black" stroke="black" points="433,-507.5 443,-504 433,-500.5 433,-507.5"/>
</g>
<!-- pin_17 -->
<g id="node17" class="node">
<title>pin_17</title>
<g id="a_node17"><a xlink:href="javascript:s=&quot;\(&#x27;default&#x27;,\ \(&#x27;terminal&#x27;,\ 2\),\ &#x27;pin&#x27;\)\nCylinder&quot;; console.log(s); alert(s);" xlink:title="Cylinder">
<ellipse fill="none" stroke="black" cx="490.22" cy="-450" rx="27" ry="18"/>
<text text-anchor="middle" x="490.22" y="-446.3" font-family="Times New Roman,serif" font-size="14.00">pin</text>
</a>
</g>
</g>
<!-- terminal_13&#45;&gt;pin_17 -->
<g id="edge16" class="edge">
<title>terminal_13&#45;&gt;pin_17</title>
<path fill="none" stroke="black" d="M373.6,-490.65C399.05,-481.7 432.23,-470.04 456.51,-461.5"/>
<polygon fill="black" stroke="black" points="457.72,-464.78 466,-458.17 455.4,-458.18 457.72,-464.78"/>
</g>
<!-- screw_access_18 -->
<g id="node18" class="node">
<title>screw_access_18</title>
<g id="a_node18"><a xlink:href="javascript:s=&quot;\(&#x27;default&#x27;,\ \(&#x27;terminal&#x27;,\ 2\),\ &#x27;screw_access&#x27;\)\nCylinder&quot;; console.log(s); alert(s);" xlink:title="Cylinder">
<ellipse fill="none" stroke="black" cx="490.22" cy="-396" rx="61.99" ry="18"/>
<text text-anchor="middle" x="490.22" y="-392.3" font-family="Times New Roman,serif" font-size="14.00">screw_access</text>
</a>
</g>
</g>
<!-- terminal_13&#45;&gt;screw_access_18 -->
<g id="edge17" class="edge">
<title>terminal_13&#45;&gt;screw_access_18</title>
<path fill="none" stroke="black" d="M352.18,-486.8C369.84,-469.12 399.26,-441.64 428.48,-423 433.1,-420.05 438.1,-417.27 443.17,-414.69"/>
<polygon fill="black" stroke="black" points="444.84,-417.77 452.33,-410.28 441.8,-411.47 444.84,-417.77"/>
</g>
<!-- block_access_19 -->
<g id="node19" class="node">
<title>block_access_19</title>
<g id="a_node19"><a xlink:href="javascript:s=&quot;\(&#x27;default&#x27;,\ \(&#x27;terminal&#x27;,\ 2\),\ &#x27;block_access&#x27;\)\nBox&quot;; console.log(s); alert(s);" xlink:title="Box">
<ellipse fill="none" stroke="black" cx="490.22" cy="-342" rx="60.39" ry="18"/>
<text text-anchor="middle" x="490.22" y="-338.3" font-family="Times New Roman,serif" font-size="14.00">block_access</text>
</a>
</g>
</g>
<!-- terminal_13&#45;&gt;block_access_19 -->
<g id="edge18" class="edge">
<title>terminal_13&#45;&gt;block_access_19</title>
<path fill="none" stroke="black" d="M343.98,-485.91C357.87,-457.56 388.22,-402.45 428.48,-369 432.37,-365.76 436.71,-362.84 441.24,-360.23"/>
<polygon fill="black" stroke="black" points="442.88,-363.32 450.09,-355.56 439.61,-357.13 442.88,-363.32"/>
</g>
<!-- coords_21 -->
<g id="node21" class="node">
<title>coords_21</title>
<g id="a_node21"><a xlink:href="javascript:s=&quot;\(&quot;&#x27;face_edge&#x27;,\ 1,\ 0,\ &quot;,\ &#x27;coords&#x27;\)\nCoordinates&quot;; console.log(s); alert(s);" xlink:title="Coordinates">
<ellipse fill="none" stroke="black" cx="334.63" cy="-234" rx="36.29" ry="18"/>
<text text-anchor="middle" x="334.63" y="-230.3" font-family="Times New Roman,serif" font-size="14.00">coords</text>
</a>
</g>
</g>
<!-- 20&#45;&gt;coords_21 -->
<g id="edge20" class="edge">
<title>20&#45;&gt;coords_21</title>
<path fill="none" stroke="black" d="M199.19,-169.17C221.13,-179.95 250.65,-194.4 276.79,-207 283.69,-210.33 291.07,-213.86 298.16,-217.23"/>
<polygon fill="black" stroke="black" points="297.03,-220.57 307.57,-221.7 300.04,-214.24 297.03,-220.57"/>
</g>
<!-- x_32 -->
<g id="node32" class="node">
<title>x_32</title>
<g id="a_node32"><a xlink:href="javascript:s=&quot;\(&quot;&#x27;face_edge&#x27;,\ 1,\ 0,\ &quot;,\ &#x27;x&#x27;\)\nText&quot;; console.log(s); alert(s);" xlink:title="Text">
<ellipse fill="none" stroke="black" cx="334.63" cy="-180" rx="27" ry="18"/>
<text text-anchor="middle" x="334.63" y="-176.3" font-family="Times New Roman,serif" font-size="14.00">x</text>
</a>
</g>
</g>
<!-- 20&#45;&gt;x_32 -->
<g id="edge31" class="edge">
<title>20&#45;&gt;x_32</title>
<path fill="none" stroke="black" d="M228.19,-162.98C251.8,-166.79 277.91,-171 298.24,-174.29"/>
<polygon fill="black" stroke="black" points="297.87,-177.77 308.3,-175.91 298.99,-170.86 297.87,-177.77"/>
</g>
<!-- y_33 -->
<g id="node33" class="node">
<title>y_33</title>
<g id="a_node33"><a xlink:href="javascript:s=&quot;\(&quot;&#x27;face_edge&#x27;,\ 1,\ 0,\ &quot;,\ &#x27;y&#x27;\)\nText&quot;; console.log(s); alert(s);" xlink:title="Text">
<ellipse fill="none" stroke="black" cx="334.63" cy="-126" rx="27" ry="18"/>
<text text-anchor="middle" x="334.63" y="-122.3" font-family="Times New Roman,serif" font-size="14.00">y</text>
</a>
</g>
</g>
<!-- 20&#45;&gt;y_33 -->
<g id="edge32" class="edge">
<title>20&#45;&gt;y_33</title>
<path fill="none" stroke="black" d="M228.19,-143.02C251.8,-139.21 277.91,-135 298.24,-131.71"/>
<polygon fill="black" stroke="black" points="298.99,-135.14 308.3,-130.09 297.87,-128.23 298.99,-135.14"/>
</g>
<!-- z_34 -->
<g id="node34" class="node">
<title>z_34</title>
<g id="a_node34"><a xlink:href="javascript:s=&quot;\(&quot;&#x27;face_edge&#x27;,\ 1,\ 0,\ &quot;,\ &#x27;z&#x27;\)\nText&quot;; console.log(s); alert(s);" xlink:title="Text">
<ellipse fill="none" stroke="black" cx="334.63" cy="-72" rx="27" ry="18"/>
<text text-anchor="middle" x="334.63" y="-68.3" font-family="Times New Roman,serif" font-size="14.00">z</text>
</a>
</g>
</g>
<!-- 20&#45;&gt;z_34 -->
<g id="edge33" class="edge">
<title>20&#45;&gt;z_34</title>
<path fill="none" stroke="black" d="M199.19,-136.83C221.13,-126.05 250.65,-111.6 276.79,-99 285.22,-94.93 294.39,-90.56 302.84,-86.55"/>
<polygon fill="black" stroke="black" points="304.47,-89.65 312.01,-82.2 301.47,-83.32 304.47,-89.65"/>
</g>
<!-- label_35 -->
<g id="node35" class="node">
<title>label_35</title>
<g id="a_node35"><a xlink:href="javascript:s=&quot;\(&quot;&#x27;face_edge&#x27;,\ 1,\ 0,\ &quot;,\ &#x27;label&#x27;\)\nText&quot;; console.log(s); alert(s);" xlink:title="Text">
<ellipse fill="none" stroke="black" cx="334.63" cy="-18" rx="27.1" ry="18"/>
<text text-anchor="middle" x="334.63" y="-14.3" font-family="Times New Roman,serif" font-size="14.00">label</text>
</a>
</g>
</g>
<!-- 20&#45;&gt;label_35 -->
<g id="edge34" class="edge">
<title>20&#45;&gt;label_35</title>
<path fill="none" stroke="black" d="M181.34,-135.07C201.27,-111.99 238.52,-71.69 276.79,-45 284.34,-39.73 293.08,-35.01 301.41,-31.04"/>
<polygon fill="black" stroke="black" points="302.89,-34.21 310.55,-26.89 300,-27.83 302.89,-34.21"/>
</g>
<!-- origin_22 -->
<g id="node22" class="node">
<title>origin_22</title>
<g id="a_node22"><a xlink:href="javascript:s=&quot;\(&quot;&#x27;face_edge&#x27;,\ 1,\ 0,\ &quot;,\ &#x27;coords&#x27;,\ &#x27;origin&#x27;\)\nCoordinatesCage&quot;; console.log(s); alert(s);" xlink:title="CoordinatesCage">
<ellipse fill="none" stroke="black" cx="490.22" cy="-288" rx="31.4" ry="18"/>
<text text-anchor="middle" x="490.22" y="-284.3" font-family="Times New Roman,serif" font-size="14.00">origin</text>
</a>
</g>
</g>
<!-- coords_21&#45;&gt;origin_22 -->
<g id="edge21" class="edge">
<title>coords_21&#45;&gt;origin_22</title>
<path fill="none" stroke="black" d="M364.88,-244.28C390.15,-253.17 426.75,-266.03 453.7,-275.51"/>
<polygon fill="black" stroke="black" points="452.55,-278.82 463.15,-278.83 454.88,-272.21 452.55,-278.82"/>
</g>
<!-- x_arrow_23 -->
<g id="node23" class="node">
<title>x_arrow_23</title>
<g id="a_node23"><a xlink:href="javascript:s=&quot;\(&quot;&#x27;face_edge&#x27;,\ 1,\ 0,\ &quot;,\ &#x27;coords&#x27;,\ &#x27;x_arrow&#x27;\)\nArrow&quot;; console.log(s); alert(s);" xlink:title="Arrow">
<ellipse fill="none" stroke="black" cx="490.22" cy="-234" rx="40.89" ry="18"/>
<text text-anchor="middle" x="490.22" y="-230.3" font-family="Times New Roman,serif" font-size="14.00">x_arrow</text>
</a>
</g>
</g>
<!-- coords_21&#45;&gt;x_arrow_23 -->
<g id="edge22" class="edge">
<title>coords_21&#45;&gt;x_arrow_23</title>
<path fill="none" stroke="black" d="M371.25,-234C391.37,-234 416.85,-234 438.97,-234"/>
<polygon fill="black" stroke="black" points="439.19,-237.5 449.19,-234 439.19,-230.5 439.19,-237.5"/>
</g>
<!-- y_arrow_26 -->
<g id="node26" class="node">
<title>y_arrow_26</title>
<g id="a_node26"><a xlink:href="javascript:s=&quot;\(&quot;&#x27;face_edge&#x27;,\ 1,\ 0,\ &quot;,\ &#x27;coords&#x27;,\ &#x27;y_arrow&#x27;\)\nArrow&quot;; console.log(s); alert(s);" xlink:title="Arrow">
<ellipse fill="none" stroke="black" cx="490.22" cy="-180" rx="40.89" ry="18"/>
<text text-anchor="middle" x="490.22" y="-176.3" font-family="Times New Roman,serif" font-size="14.00">y_arrow</text>
</a>
</g>
</g>
<!-- coords_21&#45;&gt;y_arrow_26 -->
<g id="edge25" class="edge">
<title>coords_21&#45;&gt;y_arrow_26</title>
<path fill="none" stroke="black" d="M364.88,-223.72C388.42,-215.44 421.79,-203.71 448.03,-194.48"/>
<polygon fill="black" stroke="black" points="449.43,-197.7 457.7,-191.08 447.11,-191.1 449.43,-197.7"/>
</g>
<!-- z_arrow_29 -->
<g id="node29" class="node">
<title>z_arrow_29</title>
<g id="a_node29"><a xlink:href="javascript:s=&quot;\(&quot;&#x27;face_edge&#x27;,\ 1,\ 0,\ &quot;,\ &#x27;coords&#x27;,\ &#x27;z_arrow&#x27;\)\nArrow&quot;; console.log(s); alert(s);" xlink:title="Arrow">
<ellipse fill="none" stroke="black" cx="490.22" cy="-72" rx="40.09" ry="18"/>
<text text-anchor="middle" x="490.22" y="-68.3" font-family="Times New Roman,serif" font-size="14.00">z_arrow</text>
</a>
</g>
</g>
<!-- coords_21&#45;&gt;z_arrow_29 -->
<g id="edge28" class="edge">
<title>coords_21&#45;&gt;z_arrow_29</title>
<path fill="none" stroke="black" d="M364.9,-223.71C374.36,-219.49 384.46,-213.93 392.48,-207 414.29,-188.13 411.82,-176.55 428.48,-153 441.84,-134.11 457.52,-113.23 469.6,-97.41"/>
<polygon fill="black" stroke="black" points="472.6,-99.24 475.91,-89.18 467.05,-94.99 472.6,-99.24"/>
</g>
<!-- stem_24 -->
<g id="node24" class="node">
<title>stem_24</title>
<g id="a_node24"><a xlink:href="javascript:s=&quot;\(&quot;&#x27;face_edge&#x27;,\ 1,\ 0,\ &quot;,\ &#x27;coords&#x27;,\ &#x27;x_arrow&#x27;,\ &#x27;stem&#x27;\)\nCone&quot;; console.log(s); alert(s);" xlink:title="Cone">
<ellipse fill="none" stroke="black" cx="615.91" cy="-288" rx="27.9" ry="18"/>
<text text-anchor="middle" x="615.91" y="-284.3" font-family="Times New Roman,serif" font-size="14.00">stem</text>
</a>
</g>
</g>
<!-- x_arrow_23&#45;&gt;stem_24 -->
<g id="edge23" class="edge">
<title>x_arrow_23&#45;&gt;stem_24</title>
<path fill="none" stroke="black" d="M519.91,-246.52C538.71,-254.73 563.32,-265.48 582.78,-273.97"/>
<polygon fill="black" stroke="black" points="581.59,-277.27 592.15,-278.06 584.39,-270.86 581.59,-277.27"/>
</g>
<!-- head_25 -->
<g id="node25" class="node">
<title>head_25</title>
<g id="a_node25"><a xlink:href="javascript:s=&quot;\(&quot;&#x27;face_edge&#x27;,\ 1,\ 0,\ &quot;,\ &#x27;coords&#x27;,\ &#x27;x_arrow&#x27;,\ &#x27;head&#x27;\)\nCone&quot;; console.log(s); alert(s);" xlink:title="Cone">
<ellipse fill="none" stroke="black" cx="615.91" cy="-234" rx="27.9" ry="18"/>
<text text-anchor="middle" x="615.91" y="-230.3" font-family="Times New Roman,serif" font-size="14.00">head</text>
</a>
</g>
</g>
<!-- x_arrow_23&#45;&gt;head_25 -->
<g id="edge24" class="edge">
<title>x_arrow_23&#45;&gt;head_25</title>
<path fill="none" stroke="black" d="M531.38,-234C546.25,-234 563.04,-234 577.64,-234"/>
<polygon fill="black" stroke="black" points="577.83,-237.5 587.83,-234 577.83,-230.5 577.83,-237.5"/>
</g>
<!-- stem_27 -->
<g id="node27" class="node">
<title>stem_27</title>
<g id="a_node27"><a xlink:href="javascript:s=&quot;\(&quot;&#x27;face_edge&#x27;,\ 1,\ 0,\ &quot;,\ &#x27;coords&#x27;,\ &#x27;y_arrow&#x27;,\ &#x27;stem&#x27;\)\nCone&quot;; console.log(s); alert(s);" xlink:title="Cone">
<ellipse fill="none" stroke="black" cx="615.91" cy="-180" rx="27.9" ry="18"/>
<text text-anchor="middle" x="615.91" y="-176.3" font-family="Times New Roman,serif" font-size="14.00">stem</text>
</a>
</g>
</g>
<!-- y_arrow_26&#45;&gt;stem_27 -->
<g id="edge26" class="edge">
<title>y_arrow_26&#45;&gt;stem_27</title>
<path fill="none" stroke="black" d="M531.38,-180C546.25,-180 563.04,-180 577.64,-180"/>
<polygon fill="black" stroke="black" points="577.83,-183.5 587.83,-180 577.83,-176.5 577.83,-183.5"/>
</g>
<!-- head_28 -->
<g id="node28" class="node">
<title>head_28</title>
<g id="a_node28"><a xlink:href="javascript:s=&quot;\(&quot;&#x27;face_edge&#x27;,\ 1,\ 0,\ &quot;,\ &#x27;coords&#x27;,\ &#x27;y_arrow&#x27;,\ &#x27;head&#x27;\)\nCone&quot;; console.log(s); alert(s);" xlink:title="Cone">
<ellipse fill="none" stroke="black" cx="615.91" cy="-126" rx="27.9" ry="18"/>
<text text-anchor="middle" x="615.91" y="-122.3" font-family="Times New Roman,serif" font-size="14.00">head</text>
</a>
</g>
</g>
<!-- y_arrow_26&#45;&gt;head_28 -->
<g id="edge27" class="edge">
<title>y_arrow_26&#45;&gt;head_28</title>
<path fill="none" stroke="black" d="M519.91,-167.48C538.71,-159.27 563.32,-148.52 582.78,-140.03"/>
<polygon fill="black" stroke="black" points="584.39,-143.14 592.15,-135.94 581.59,-136.73 584.39,-143.14"/>
</g>
<!-- stem_30 -->
<g id="node30" class="node">
<title>stem_30</title>
<g id="a_node30"><a xlink:href="javascript:s=&quot;\(&quot;&#x27;face_edge&#x27;,\ 1,\ 0,\ &quot;,\ &#x27;coords&#x27;,\ &#x27;z_arrow&#x27;,\ &#x27;stem&#x27;\)\nCone&quot;; console.log(s); alert(s);" xlink:title="Cone">
<ellipse fill="none" stroke="black" cx="615.91" cy="-72" rx="27.9" ry="18"/>
<text text-anchor="middle" x="615.91" y="-68.3" font-family="Times New Roman,serif" font-size="14.00">stem</text>
</a>
</g>
</g>
<!-- z_arrow_29&#45;&gt;stem_30 -->
<g id="edge29" class="edge">
<title>z_arrow_29&#45;&gt;stem_30</title>
<path fill="none" stroke="black" d="M530.7,-72C545.72,-72 562.77,-72 577.59,-72"/>
<polygon fill="black" stroke="black" points="577.92,-75.5 587.92,-72 577.92,-68.5 577.92,-75.5"/>
</g>
<!-- head_31 -->
<g id="node31" class="node">
<title>head_31</title>
<g id="a_node31"><a xlink:href="javascript:s=&quot;\(&quot;&#x27;face_edge&#x27;,\ 1,\ 0,\ &quot;,\ &#x27;coords&#x27;,\ &#x27;z_arrow&#x27;,\ &#x27;head&#x27;\)\nCone&quot;; console.log(s); alert(s);" xlink:title="Cone">
<ellipse fill="none" stroke="black" cx="615.91" cy="-18" rx="27.9" ry="18"/>
<text text-anchor="middle" x="615.91" y="-14.3" font-family="Times New Roman,serif" font-size="14.00">head</text>
</a>
</g>
</g>
<!-- z_arrow_29&#45;&gt;head_31 -->
<g id="edge30" class="edge">
<title>z_arrow_29&#45;&gt;head_31</title>
<path fill="none" stroke="black" d="M519.6,-59.61C538.51,-51.35 563.41,-40.49 583.01,-31.93"/>
<polygon fill="black" stroke="black" points="584.67,-35.02 592.44,-27.81 581.87,-28.61 584.67,-35.02"/>
</g>
</g>
</svg>
