<?xml version="1.0" encoding="UTF-8" standalone="no"?>
<!DOCTYPE svg PUBLIC "-//W3C//DTD SVG 1.1//EN"
 "http://www.w3.org/Graphics/SVG/1.1/DTD/svg11.dtd">
<!-- Generated by graphviz version 5.0.0 (20220707.1540)
 -->
<!-- Title: default Pages: 1 -->
<svg width="618pt" height="854pt"
 viewBox="0.00 0.00 618.06 854.00" xmlns="http://www.w3.org/2000/svg" xmlns:xlink="http://www.w3.org/1999/xlink">
<g id="graph0" class="graph" transform="scale(1 1) rotate(0) translate(4 850)">
<title>default</title>
<polygon fill="white" stroke="transparent" points="-4,4 -4,-850 614.06,-850 614.06,4 -4,4"/>
<!-- root_56 -->
<g id="node1" class="node">
<title>root_56</title>
<g id="a_node1"><a xlink:href="javascript:s=&quot;\(\)\nNone&quot;; console.log(s); alert(s);" xlink:title="root">
<ellipse fill="none" stroke="black" cx="27" cy="-396" rx="27" ry="18"/>
<text text-anchor="middle" x="27" y="-392.3" font-family="Times New Roman,serif" font-size="14.00">root</text>
</a>
</g>
</g>
<!-- default_57 -->
<g id="node2" class="node">
<title>default_57</title>
<g id="a_node2"><a xlink:href="javascript:s=&quot;\(&#x27;default&#x27;,\)\nTerminalKF301Terminal&quot;; console.log(s); alert(s);" xlink:title="TerminalKF301Terminal">
<ellipse fill="none" stroke="black" cx="165.39" cy="-666" rx="35.19" ry="18"/>
<text text-anchor="middle" x="165.39" y="-662.3" font-family="Times New Roman,serif" font-size="14.00">default</text>
</a>
</g>
</g>
<!-- root_56&#45;&gt;default_57 -->
<g id="edge1" class="edge">
<title>root_56&#45;&gt;default_57</title>
<path fill="none" stroke="black" d="M36.53,-412.89C59.53,-458.41 122.94,-583.95 150.88,-639.25"/>
<polygon fill="black" stroke="black" points="147.88,-641.07 155.51,-648.42 154.13,-637.91 147.88,-641.07"/>
</g>
<!-- 64 -->
<g id="node9" class="node">
<title>64</title>
<g id="a_node9"><a xlink:href="javascript:s=&quot;\(&quot;&#x27;face_edge&#x27;,\ 1,\ 0,\ &quot;,\)\nAnnotatedCoordinates&quot;; console.log(s); alert(s);" xlink:title="AnnotatedCoordinates">
<ellipse fill="none" stroke="black" cx="165.39" cy="-396" rx="75.29" ry="18"/>
<text text-anchor="middle" x="165.39" y="-392.3" font-family="Times New Roman,serif" font-size="14.00">&#39;face_edge&#39;, 1, 0, </text>
</a>
</g>
</g>
<!-- root_56&#45;&gt;64 -->
<g id="edge8" class="edge">
<title>root_56&#45;&gt;64</title>
<path fill="none" stroke="black" d="M54.3,-396C61.92,-396 70.67,-396 79.85,-396"/>
<polygon fill="black" stroke="black" points="79.94,-399.5 89.94,-396 79.94,-392.5 79.94,-399.5"/>
</g>
<!-- 80 -->
<g id="node25" class="node">
<title>80</title>
<g id="a_node25"><a xlink:href="javascript:s=&quot;\(&quot;&#x27;pin&#x27;,\ &#x27;top&#x27;,\ &quot;,\)\nAnnotatedCoordinates&quot;; console.log(s); alert(s);" xlink:title="AnnotatedCoordinates">
<ellipse fill="none" stroke="black" cx="165.39" cy="-153" rx="51.99" ry="18"/>
<text text-anchor="middle" x="165.39" y="-149.3" font-family="Times New Roman,serif" font-size="14.00">&#39;pin&#39;, &#39;top&#39;, </text>
</a>
</g>
</g>
<!-- root_56&#45;&gt;80 -->
<g id="edge24" class="edge">
<title>root_56&#45;&gt;80</title>
<path fill="none" stroke="black" d="M37.37,-379.3C60.61,-337.9 121.04,-230.24 149.35,-179.8"/>
<polygon fill="black" stroke="black" points="152.56,-181.23 154.4,-170.8 146.46,-177.81 152.56,-181.23"/>
</g>
<!-- cage_58 -->
<g id="node3" class="node">
<title>cage_58</title>
<g id="a_node3"><a xlink:href="javascript:s=&quot;\(&#x27;default&#x27;,\ &#x27;cage&#x27;\)\nBox&quot;; console.log(s); alert(s);" xlink:title="Box">
<ellipse fill="none" stroke="black" cx="338.53" cy="-828" rx="27.1" ry="18"/>
<text text-anchor="middle" x="338.53" y="-824.3" font-family="Times New Roman,serif" font-size="14.00">cage</text>
</a>
</g>
</g>
<!-- default_57&#45;&gt;cage_58 -->
<g id="edge2" class="edge">
<title>default_57&#45;&gt;cage_58</title>
<path fill="none" stroke="black" d="M176.6,-683.1C194.03,-711.05 232.02,-766.84 276.79,-801 284.96,-807.24 294.8,-812.4 304.15,-816.48"/>
<polygon fill="black" stroke="black" points="303.06,-819.82 313.64,-820.35 305.7,-813.33 303.06,-819.82"/>
</g>
<!-- block_59 -->
<g id="node4" class="node">
<title>block_59</title>
<g id="a_node4"><a xlink:href="javascript:s=&quot;\(&#x27;default&#x27;,\ &#x27;block&#x27;\)\nBox&quot;; console.log(s); alert(s);" xlink:title="Box">
<ellipse fill="none" stroke="black" cx="338.53" cy="-774" rx="31.4" ry="18"/>
<text text-anchor="middle" x="338.53" y="-770.3" font-family="Times New Roman,serif" font-size="14.00">block</text>
</a>
</g>
</g>
<!-- default_57&#45;&gt;block_59 -->
<g id="edge3" class="edge">
<title>default_57&#45;&gt;block_59</title>
<path fill="none" stroke="black" d="M184.69,-681.34C205.93,-698.68 242.45,-727.08 276.79,-747 285,-751.76 294.2,-756.25 302.92,-760.15"/>
<polygon fill="black" stroke="black" points="301.54,-763.37 312.11,-764.14 304.32,-756.95 301.54,-763.37"/>
</g>
<!-- term_hole_60 -->
<g id="node5" class="node">
<title>term_hole_60</title>
<g id="a_node5"><a xlink:href="javascript:s=&quot;\(&#x27;default&#x27;,\ &#x27;term_hole&#x27;\)\nCylinder&quot;; console.log(s); alert(s);" xlink:title="Cylinder">
<ellipse fill="none" stroke="black" cx="338.53" cy="-720" rx="46.59" ry="18"/>
<text text-anchor="middle" x="338.53" y="-716.3" font-family="Times New Roman,serif" font-size="14.00">term_hole</text>
</a>
</g>
</g>
<!-- default_57&#45;&gt;term_hole_60 -->
<g id="edge4" class="edge">
<title>default_57&#45;&gt;term_hole_60</title>
<path fill="none" stroke="black" d="M195.81,-675.28C222.29,-683.64 261.6,-696.04 292.11,-705.67"/>
<polygon fill="black" stroke="black" points="291.09,-709.02 301.68,-708.69 293.19,-702.34 291.09,-709.02"/>
</g>
<!-- pin_61 -->
<g id="node6" class="node">
<title>pin_61</title>
<g id="a_node6"><a xlink:href="javascript:s=&quot;\(&#x27;default&#x27;,\ &#x27;pin&#x27;\)\nCylinder&quot;; console.log(s); alert(s);" xlink:title="Cylinder">
<ellipse fill="none" stroke="black" cx="338.53" cy="-666" rx="27" ry="18"/>
<text text-anchor="middle" x="338.53" y="-662.3" font-family="Times New Roman,serif" font-size="14.00">pin</text>
</a>
</g>
</g>
<!-- default_57&#45;&gt;pin_61 -->
<g id="edge5" class="edge">
<title>default_57&#45;&gt;pin_61</title>
<path fill="none" stroke="black" d="M200.61,-666C229.72,-666 271.4,-666 301.11,-666"/>
<polygon fill="black" stroke="black" points="301.47,-669.5 311.47,-666 301.47,-662.5 301.47,-669.5"/>
</g>
<!-- screw_access_62 -->
<g id="node7" class="node">
<title>screw_access_62</title>
<g id="a_node7"><a xlink:href="javascript:s=&quot;\(&#x27;default&#x27;,\ &#x27;screw_access&#x27;\)\nCylinder&quot;; console.log(s); alert(s);" xlink:title="Cylinder">
<ellipse fill="none" stroke="black" cx="338.53" cy="-612" rx="61.99" ry="18"/>
<text text-anchor="middle" x="338.53" y="-608.3" font-family="Times New Roman,serif" font-size="14.00">screw_access</text>
</a>
</g>
</g>
<!-- default_57&#45;&gt;screw_access_62 -->
<g id="edge6" class="edge">
<title>default_57&#45;&gt;screw_access_62</title>
<path fill="none" stroke="black" d="M195.81,-656.72C220.63,-648.89 256.72,-637.5 286.27,-628.17"/>
<polygon fill="black" stroke="black" points="287.53,-631.45 296.02,-625.1 285.43,-624.77 287.53,-631.45"/>
</g>
<!-- block_access_63 -->
<g id="node8" class="node">
<title>block_access_63</title>
<g id="a_node8"><a xlink:href="javascript:s=&quot;\(&#x27;default&#x27;,\ &#x27;block_access&#x27;\)\nBox&quot;; console.log(s); alert(s);" xlink:title="Box">
<ellipse fill="none" stroke="black" cx="338.53" cy="-558" rx="60.39" ry="18"/>
<text text-anchor="middle" x="338.53" y="-554.3" font-family="Times New Roman,serif" font-size="14.00">block_access</text>
</a>
</g>
</g>
<!-- default_57&#45;&gt;block_access_63 -->
<g id="edge7" class="edge">
<title>default_57&#45;&gt;block_access_63</title>
<path fill="none" stroke="black" d="M184.69,-650.66C205.93,-633.32 242.45,-604.92 276.79,-585 281.65,-582.18 286.87,-579.45 292.12,-576.88"/>
<polygon fill="black" stroke="black" points="294,-579.87 301.56,-572.46 291.02,-573.54 294,-579.87"/>
</g>
<!-- coords_65 -->
<g id="node10" class="node">
<title>coords_65</title>
<g id="a_node10"><a xlink:href="javascript:s=&quot;\(&quot;&#x27;face_edge&#x27;,\ 1,\ 0,\ &quot;,\ &#x27;coords&#x27;\)\nCoordinates&quot;; console.log(s); alert(s);" xlink:title="Coordinates">
<ellipse fill="none" stroke="black" cx="338.53" cy="-504" rx="36.29" ry="18"/>
<text text-anchor="middle" x="338.53" y="-500.3" font-family="Times New Roman,serif" font-size="14.00">coords</text>
</a>
</g>
</g>
<!-- 64&#45;&gt;coords_65 -->
<g id="edge9" class="edge">
<title>64&#45;&gt;coords_65</title>
<path fill="none" stroke="black" d="M187.04,-413.25C208.55,-430.71 243.68,-457.8 276.79,-477 284.1,-481.24 292.19,-485.26 300.03,-488.85"/>
<polygon fill="black" stroke="black" points="298.83,-492.14 309.39,-492.99 301.66,-485.74 298.83,-492.14"/>
</g>
<!-- x_76 -->
<g id="node21" class="node">
<title>x_76</title>
<g id="a_node21"><a xlink:href="javascript:s=&quot;\(&quot;&#x27;face_edge&#x27;,\ 1,\ 0,\ &quot;,\ &#x27;x&#x27;\)\nText&quot;; console.log(s); alert(s);" xlink:title="Text">
<ellipse fill="none" stroke="black" cx="338.53" cy="-450" rx="27" ry="18"/>
<text text-anchor="middle" x="338.53" y="-446.3" font-family="Times New Roman,serif" font-size="14.00">x</text>
</a>
</g>
</g>
<!-- 64&#45;&gt;x_76 -->
<g id="edge20" class="edge">
<title>64&#45;&gt;x_76</title>
<path fill="none" stroke="black" d="M211.81,-410.33C240.65,-419.43 277.38,-431.02 303.68,-439.32"/>
<polygon fill="black" stroke="black" points="302.96,-442.76 313.55,-442.43 305.07,-436.09 302.96,-442.76"/>
</g>
<!-- y_77 -->
<g id="node22" class="node">
<title>y_77</title>
<g id="a_node22"><a xlink:href="javascript:s=&quot;\(&quot;&#x27;face_edge&#x27;,\ 1,\ 0,\ &quot;,\ &#x27;y&#x27;\)\nText&quot;; console.log(s); alert(s);" xlink:title="Text">
<ellipse fill="none" stroke="black" cx="338.53" cy="-396" rx="27" ry="18"/>
<text text-anchor="middle" x="338.53" y="-392.3" font-family="Times New Roman,serif" font-size="14.00">y</text>
</a>
</g>
</g>
<!-- 64&#45;&gt;y_77 -->
<g id="edge21" class="edge">
<title>64&#45;&gt;y_77</title>
<path fill="none" stroke="black" d="M240.96,-396C261.7,-396 283.31,-396 300.82,-396"/>
<polygon fill="black" stroke="black" points="301.15,-399.5 311.15,-396 301.15,-392.5 301.15,-399.5"/>
</g>
<!-- z_78 -->
<g id="node23" class="node">
<title>z_78</title>
<g id="a_node23"><a xlink:href="javascript:s=&quot;\(&quot;&#x27;face_edge&#x27;,\ 1,\ 0,\ &quot;,\ &#x27;z&#x27;\)\nText&quot;; console.log(s); alert(s);" xlink:title="Text">
<ellipse fill="none" stroke="black" cx="338.53" cy="-342" rx="27" ry="18"/>
<text text-anchor="middle" x="338.53" y="-338.3" font-family="Times New Roman,serif" font-size="14.00">z</text>
</a>
</g>
</g>
<!-- 64&#45;&gt;z_78 -->
<g id="edge22" class="edge">
<title>64&#45;&gt;z_78</title>
<path fill="none" stroke="black" d="M211.81,-381.67C240.65,-372.57 277.38,-360.98 303.68,-352.68"/>
<polygon fill="black" stroke="black" points="305.07,-355.91 313.55,-349.57 302.96,-349.24 305.07,-355.91"/>
</g>
<!-- label_79 -->
<g id="node24" class="node">
<title>label_79</title>
<g id="a_node24"><a xlink:href="javascript:s=&quot;\(&quot;&#x27;face_edge&#x27;,\ 1,\ 0,\ &quot;,\ &#x27;label&#x27;\)\nText&quot;; console.log(s); alert(s);" xlink:title="Text">
<ellipse fill="none" stroke="black" cx="338.53" cy="-288" rx="27.1" ry="18"/>
<text text-anchor="middle" x="338.53" y="-284.3" font-family="Times New Roman,serif" font-size="14.00">label</text>
</a>
</g>
</g>
<!-- 64&#45;&gt;label_79 -->
<g id="edge23" class="edge">
<title>64&#45;&gt;label_79</title>
<path fill="none" stroke="black" d="M187.04,-378.75C208.55,-361.29 243.68,-334.2 276.79,-315 285.68,-309.84 295.73,-305.01 305.07,-300.89"/>
<polygon fill="black" stroke="black" points="306.64,-304.03 314.46,-296.88 303.89,-297.59 306.64,-304.03"/>
</g>
<!-- origin_66 -->
<g id="node11" class="node">
<title>origin_66</title>
<g id="a_node11"><a xlink:href="javascript:s=&quot;\(&quot;&#x27;face_edge&#x27;,\ 1,\ 0,\ &quot;,\ &#x27;coords&#x27;,\ &#x27;origin&#x27;\)\nCoordinatesCage&quot;; console.log(s); alert(s);" xlink:title="CoordinatesCage">
<ellipse fill="none" stroke="black" cx="477.22" cy="-612" rx="31.4" ry="18"/>
<text text-anchor="middle" x="477.22" y="-608.3" font-family="Times New Roman,serif" font-size="14.00">origin</text>
</a>
</g>
</g>
<!-- coords_65&#45;&gt;origin_66 -->
<g id="edge10" class="edge">
<title>coords_65&#45;&gt;origin_66</title>
<path fill="none" stroke="black" d="M369.57,-513.44C380.03,-517.7 391.36,-523.49 400.28,-531 422.33,-549.59 415.94,-564.54 436.28,-585 439.26,-588.01 442.63,-590.88 446.11,-593.55"/>
<polygon fill="black" stroke="black" points="444.14,-596.45 454.31,-599.41 448.21,-590.75 444.14,-596.45"/>
</g>
<!-- x_arrow_67 -->
<g id="node12" class="node">
<title>x_arrow_67</title>
<g id="a_node12"><a xlink:href="javascript:s=&quot;\(&quot;&#x27;face_edge&#x27;,\ 1,\ 0,\ &quot;,\ &#x27;coords&#x27;,\ &#x27;x_arrow&#x27;\)\nArrow&quot;; console.log(s); alert(s);" xlink:title="Arrow">
<ellipse fill="none" stroke="black" cx="477.22" cy="-558" rx="40.89" ry="18"/>
<text text-anchor="middle" x="477.22" y="-554.3" font-family="Times New Roman,serif" font-size="14.00">x_arrow</text>
</a>
</g>
</g>
<!-- coords_65&#45;&gt;x_arrow_67 -->
<g id="edge11" class="edge">
<title>coords_65&#45;&gt;x_arrow_67</title>
<path fill="none" stroke="black" d="M367.52,-515.06C387.39,-522.91 414.34,-533.56 436.44,-542.28"/>
<polygon fill="black" stroke="black" points="435.31,-545.6 445.89,-546.02 437.88,-539.09 435.31,-545.6"/>
</g>
<!-- y_arrow_70 -->
<g id="node15" class="node">
<title>y_arrow_70</title>
<g id="a_node15"><a xlink:href="javascript:s=&quot;\(&quot;&#x27;face_edge&#x27;,\ 1,\ 0,\ &quot;,\ &#x27;coords&#x27;,\ &#x27;y_arrow&#x27;\)\nArrow&quot;; console.log(s); alert(s);" xlink:title="Arrow">
<ellipse fill="none" stroke="black" cx="477.22" cy="-504" rx="40.89" ry="18"/>
<text text-anchor="middle" x="477.22" y="-500.3" font-family="Times New Roman,serif" font-size="14.00">y_arrow</text>
</a>
</g>
</g>
<!-- coords_65&#45;&gt;y_arrow_70 -->
<g id="edge14" class="edge">
<title>coords_65&#45;&gt;y_arrow_70</title>
<path fill="none" stroke="black" d="M375.09,-504C390.55,-504 408.94,-504 425.78,-504"/>
<polygon fill="black" stroke="black" points="426.02,-507.5 436.02,-504 426.02,-500.5 426.02,-507.5"/>
</g>
<!-- z_arrow_73 -->
<g id="node18" class="node">
<title>z_arrow_73</title>
<g id="a_node18"><a xlink:href="javascript:s=&quot;\(&quot;&#x27;face_edge&#x27;,\ 1,\ 0,\ &quot;,\ &#x27;coords&#x27;,\ &#x27;z_arrow&#x27;\)\nArrow&quot;; console.log(s); alert(s);" xlink:title="Arrow">
<ellipse fill="none" stroke="black" cx="477.22" cy="-396" rx="40.09" ry="18"/>
<text text-anchor="middle" x="477.22" y="-392.3" font-family="Times New Roman,serif" font-size="14.00">z_arrow</text>
</a>
</g>
</g>
<!-- coords_65&#45;&gt;z_arrow_73 -->
<g id="edge17" class="edge">
<title>coords_65&#45;&gt;z_arrow_73</title>
<path fill="none" stroke="black" d="M368.61,-493.85C379.09,-489.49 390.68,-483.82 400.28,-477 422.29,-461.36 442.95,-438.58 457.15,-421.16"/>
<polygon fill="black" stroke="black" points="460.08,-423.1 463.58,-413.1 454.61,-418.73 460.08,-423.1"/>
</g>
<!-- stem_68 -->
<g id="node13" class="node">
<title>stem_68</title>
<g id="a_node13"><a xlink:href="javascript:s=&quot;\(&quot;&#x27;face_edge&#x27;,\ 1,\ 0,\ &quot;,\ &#x27;coords&#x27;,\ &#x27;x_arrow&#x27;,\ &#x27;stem&#x27;\)\nCone&quot;; console.log(s); alert(s);" xlink:title="Cone">
<ellipse fill="none" stroke="black" cx="582.12" cy="-612" rx="27.9" ry="18"/>
<text text-anchor="middle" x="582.12" y="-608.3" font-family="Times New Roman,serif" font-size="14.00">stem</text>
</a>
</g>
</g>
<!-- x_arrow_67&#45;&gt;stem_68 -->
<g id="edge12" class="edge">
<title>x_arrow_67&#45;&gt;stem_68</title>
<path fill="none" stroke="black" d="M504.19,-571.63C518.35,-579.06 535.96,-588.3 550.75,-596.07"/>
<polygon fill="black" stroke="black" points="549.53,-599.37 560.01,-600.92 552.78,-593.18 549.53,-599.37"/>
</g>
<!-- head_69 -->
<g id="node14" class="node">
<title>head_69</title>
<g id="a_node14"><a xlink:href="javascript:s=&quot;\(&quot;&#x27;face_edge&#x27;,\ 1,\ 0,\ &quot;,\ &#x27;coords&#x27;,\ &#x27;x_arrow&#x27;,\ &#x27;head&#x27;\)\nCone&quot;; console.log(s); alert(s);" xlink:title="Cone">
<ellipse fill="none" stroke="black" cx="582.12" cy="-558" rx="27.9" ry="18"/>
<text text-anchor="middle" x="582.12" y="-554.3" font-family="Times New Roman,serif" font-size="14.00">head</text>
</a>
</g>
</g>
<!-- x_arrow_67&#45;&gt;head_69 -->
<g id="edge13" class="edge">
<title>x_arrow_67&#45;&gt;head_69</title>
<path fill="none" stroke="black" d="M518.3,-558C526.71,-558 535.55,-558 543.85,-558"/>
<polygon fill="black" stroke="black" points="544.01,-561.5 554.01,-558 544.01,-554.5 544.01,-561.5"/>
</g>
<!-- stem_71 -->
<g id="node16" class="node">
<title>stem_71</title>
<g id="a_node16"><a xlink:href="javascript:s=&quot;\(&quot;&#x27;face_edge&#x27;,\ 1,\ 0,\ &quot;,\ &#x27;coords&#x27;,\ &#x27;y_arrow&#x27;,\ &#x27;stem&#x27;\)\nCone&quot;; console.log(s); alert(s);" xlink:title="Cone">
<ellipse fill="none" stroke="black" cx="582.12" cy="-504" rx="27.9" ry="18"/>
<text text-anchor="middle" x="582.12" y="-500.3" font-family="Times New Roman,serif" font-size="14.00">stem</text>
</a>
</g>
</g>
<!-- y_arrow_70&#45;&gt;stem_71 -->
<g id="edge15" class="edge">
<title>y_arrow_70&#45;&gt;stem_71</title>
<path fill="none" stroke="black" d="M518.3,-504C526.71,-504 535.55,-504 543.85,-504"/>
<polygon fill="black" stroke="black" points="544.01,-507.5 554.01,-504 544.01,-500.5 544.01,-507.5"/>
</g>
<!-- head_72 -->
<g id="node17" class="node">
<title>head_72</title>
<g id="a_node17"><a xlink:href="javascript:s=&quot;\(&quot;&#x27;face_edge&#x27;,\ 1,\ 0,\ &quot;,\ &#x27;coords&#x27;,\ &#x27;y_arrow&#x27;,\ &#x27;head&#x27;\)\nCone&quot;; console.log(s); alert(s);" xlink:title="Cone">
<ellipse fill="none" stroke="black" cx="582.12" cy="-450" rx="27.9" ry="18"/>
<text text-anchor="middle" x="582.12" y="-446.3" font-family="Times New Roman,serif" font-size="14.00">head</text>
</a>
</g>
</g>
<!-- y_arrow_70&#45;&gt;head_72 -->
<g id="edge16" class="edge">
<title>y_arrow_70&#45;&gt;head_72</title>
<path fill="none" stroke="black" d="M504.19,-490.37C518.35,-482.94 535.96,-473.7 550.75,-465.93"/>
<polygon fill="black" stroke="black" points="552.78,-468.82 560.01,-461.08 549.53,-462.63 552.78,-468.82"/>
</g>
<!-- stem_74 -->
<g id="node19" class="node">
<title>stem_74</title>
<g id="a_node19"><a xlink:href="javascript:s=&quot;\(&quot;&#x27;face_edge&#x27;,\ 1,\ 0,\ &quot;,\ &#x27;coords&#x27;,\ &#x27;z_arrow&#x27;,\ &#x27;stem&#x27;\)\nCone&quot;; console.log(s); alert(s);" xlink:title="Cone">
<ellipse fill="none" stroke="black" cx="582.12" cy="-396" rx="27.9" ry="18"/>
<text text-anchor="middle" x="582.12" y="-392.3" font-family="Times New Roman,serif" font-size="14.00">stem</text>
</a>
</g>
</g>
<!-- z_arrow_73&#45;&gt;stem_74 -->
<g id="edge18" class="edge">
<title>z_arrow_73&#45;&gt;stem_74</title>
<path fill="none" stroke="black" d="M517.71,-396C526.33,-396 535.43,-396 543.96,-396"/>
<polygon fill="black" stroke="black" points="544.01,-399.5 554.01,-396 544.01,-392.5 544.01,-399.5"/>
</g>
<!-- head_75 -->
<g id="node20" class="node">
<title>head_75</title>
<g id="a_node20"><a xlink:href="javascript:s=&quot;\(&quot;&#x27;face_edge&#x27;,\ 1,\ 0,\ &quot;,\ &#x27;coords&#x27;,\ &#x27;z_arrow&#x27;,\ &#x27;head&#x27;\)\nCone&quot;; console.log(s); alert(s);" xlink:title="Cone">
<ellipse fill="none" stroke="black" cx="582.12" cy="-342" rx="27.9" ry="18"/>
<text text-anchor="middle" x="582.12" y="-338.3" font-family="Times New Roman,serif" font-size="14.00">head</text>
</a>
</g>
</g>
<!-- z_arrow_73&#45;&gt;head_75 -->
<g id="edge19" class="edge">
<title>z_arrow_73&#45;&gt;head_75</title>
<path fill="none" stroke="black" d="M503.92,-382.51C518.22,-375.01 536.08,-365.63 551.03,-357.79"/>
<polygon fill="black" stroke="black" points="552.67,-360.88 559.9,-353.14 549.42,-354.68 552.67,-360.88"/>
</g>
<!-- coords_81 -->
<g id="node26" class="node">
<title>coords_81</title>
<g id="a_node26"><a xlink:href="javascript:s=&quot;\(&quot;&#x27;pin&#x27;,\ &#x27;top&#x27;,\ &quot;,\ &#x27;coords&#x27;\)\nCoordinates&quot;; console.log(s); alert(s);" xlink:title="Coordinates">
<ellipse fill="none" stroke="black" cx="338.53" cy="-234" rx="36.29" ry="18"/>
<text text-anchor="middle" x="338.53" y="-230.3" font-family="Times New Roman,serif" font-size="14.00">coords</text>
</a>
</g>
</g>
<!-- 80&#45;&gt;coords_81 -->
<g id="edge25" class="edge">
<title>80&#45;&gt;coords_81</title>
<path fill="none" stroke="black" d="M195.77,-167.73C217.93,-178.76 249.14,-194.1 276.79,-207 284.68,-210.68 293.2,-214.54 301.29,-218.15"/>
<polygon fill="black" stroke="black" points="299.96,-221.39 310.52,-222.25 302.8,-214.99 299.96,-221.39"/>
</g>
<!-- x_92 -->
<g id="node37" class="node">
<title>x_92</title>
<g id="a_node37"><a xlink:href="javascript:s=&quot;\(&quot;&#x27;pin&#x27;,\ &#x27;top&#x27;,\ &quot;,\ &#x27;x&#x27;\)\nText&quot;; console.log(s); alert(s);" xlink:title="Text">
<ellipse fill="none" stroke="black" cx="338.53" cy="-180" rx="27" ry="18"/>
<text text-anchor="middle" x="338.53" y="-176.3" font-family="Times New Roman,serif" font-size="14.00">x</text>
</a>
</g>
</g>
<!-- 80&#45;&gt;x_92 -->
<g id="edge36" class="edge">
<title>80&#45;&gt;x_92</title>
<path fill="none" stroke="black" d="M213.16,-160.38C241.17,-164.8 276.21,-170.33 301.96,-174.39"/>
<polygon fill="black" stroke="black" points="301.6,-177.87 312.03,-175.98 302.69,-170.96 301.6,-177.87"/>
</g>
<!-- y_93 -->
<g id="node38" class="node">
<title>y_93</title>
<g id="a_node38"><a xlink:href="javascript:s=&quot;\(&quot;&#x27;pin&#x27;,\ &#x27;top&#x27;,\ &quot;,\ &#x27;y&#x27;\)\nText&quot;; console.log(s); alert(s);" xlink:title="Text">
<ellipse fill="none" stroke="black" cx="338.53" cy="-126" rx="27" ry="18"/>
<text text-anchor="middle" x="338.53" y="-122.3" font-family="Times New Roman,serif" font-size="14.00">y</text>
</a>
</g>
</g>
<!-- 80&#45;&gt;y_93 -->
<g id="edge37" class="edge">
<title>80&#45;&gt;y_93</title>
<path fill="none" stroke="black" d="M213.16,-145.62C241.17,-141.2 276.21,-135.67 301.96,-131.61"/>
<polygon fill="black" stroke="black" points="302.69,-135.04 312.03,-130.02 301.6,-128.13 302.69,-135.04"/>
</g>
<!-- z_94 -->
<g id="node39" class="node">
<title>z_94</title>
<g id="a_node39"><a xlink:href="javascript:s=&quot;\(&quot;&#x27;pin&#x27;,\ &#x27;top&#x27;,\ &quot;,\ &#x27;z&#x27;\)\nText&quot;; console.log(s); alert(s);" xlink:title="Text">
<ellipse fill="none" stroke="black" cx="338.53" cy="-72" rx="27" ry="18"/>
<text text-anchor="middle" x="338.53" y="-68.3" font-family="Times New Roman,serif" font-size="14.00">z</text>
</a>
</g>
</g>
<!-- 80&#45;&gt;z_94 -->
<g id="edge38" class="edge">
<title>80&#45;&gt;z_94</title>
<path fill="none" stroke="black" d="M195.77,-138.27C217.93,-127.24 249.14,-111.9 276.79,-99 286.26,-94.58 296.63,-89.91 306.08,-85.72"/>
<polygon fill="black" stroke="black" points="307.78,-88.79 315.51,-81.55 304.95,-82.39 307.78,-88.79"/>
</g>
<!-- label_95 -->
<g id="node40" class="node">
<title>label_95</title>
<g id="a_node40"><a xlink:href="javascript:s=&quot;\(&quot;&#x27;pin&#x27;,\ &#x27;top&#x27;,\ &quot;,\ &#x27;label&#x27;\)\nText&quot;; console.log(s); alert(s);" xlink:title="Text">
<ellipse fill="none" stroke="black" cx="338.53" cy="-18" rx="27.1" ry="18"/>
<text text-anchor="middle" x="338.53" y="-14.3" font-family="Times New Roman,serif" font-size="14.00">label</text>
</a>
</g>
</g>
<!-- 80&#45;&gt;label_95 -->
<g id="edge39" class="edge">
<title>80&#45;&gt;label_95</title>
<path fill="none" stroke="black" d="M180.56,-135.72C200.21,-112.61 237.74,-71.5 276.79,-45 285.29,-39.23 295.23,-34.2 304.58,-30.11"/>
<polygon fill="black" stroke="black" points="306.13,-33.25 314.02,-26.18 303.44,-26.79 306.13,-33.25"/>
</g>
<!-- origin_82 -->
<g id="node27" class="node">
<title>origin_82</title>
<g id="a_node27"><a xlink:href="javascript:s=&quot;\(&quot;&#x27;pin&#x27;,\ &#x27;top&#x27;,\ &quot;,\ &#x27;coords&#x27;,\ &#x27;origin&#x27;\)\nCoordinatesCage&quot;; console.log(s); alert(s);" xlink:title="CoordinatesCage">
<ellipse fill="none" stroke="black" cx="477.22" cy="-288" rx="31.4" ry="18"/>
<text text-anchor="middle" x="477.22" y="-284.3" font-family="Times New Roman,serif" font-size="14.00">origin</text>
</a>
</g>
</g>
<!-- coords_81&#45;&gt;origin_82 -->
<g id="edge26" class="edge">
<title>coords_81&#45;&gt;origin_82</title>
<path fill="none" stroke="black" d="M367.52,-245.06C388.98,-253.54 418.71,-265.28 441.66,-274.34"/>
<polygon fill="black" stroke="black" points="440.44,-277.63 451.03,-278.05 443.02,-271.12 440.44,-277.63"/>
</g>
<!-- x_arrow_83 -->
<g id="node28" class="node">
<title>x_arrow_83</title>
<g id="a_node28"><a xlink:href="javascript:s=&quot;\(&quot;&#x27;pin&#x27;,\ &#x27;top&#x27;,\ &quot;,\ &#x27;coords&#x27;,\ &#x27;x_arrow&#x27;\)\nArrow&quot;; console.log(s); alert(s);" xlink:title="Arrow">
<ellipse fill="none" stroke="black" cx="477.22" cy="-234" rx="40.89" ry="18"/>
<text text-anchor="middle" x="477.22" y="-230.3" font-family="Times New Roman,serif" font-size="14.00">x_arrow</text>
</a>
</g>
</g>
<!-- coords_81&#45;&gt;x_arrow_83 -->
<g id="edge27" class="edge">
<title>coords_81&#45;&gt;x_arrow_83</title>
<path fill="none" stroke="black" d="M375.09,-234C390.55,-234 408.94,-234 425.78,-234"/>
<polygon fill="black" stroke="black" points="426.02,-237.5 436.02,-234 426.02,-230.5 426.02,-237.5"/>
</g>
<!-- y_arrow_86 -->
<g id="node31" class="node">
<title>y_arrow_86</title>
<g id="a_node31"><a xlink:href="javascript:s=&quot;\(&quot;&#x27;pin&#x27;,\ &#x27;top&#x27;,\ &quot;,\ &#x27;coords&#x27;,\ &#x27;y_arrow&#x27;\)\nArrow&quot;; console.log(s); alert(s);" xlink:title="Arrow">
<ellipse fill="none" stroke="black" cx="477.22" cy="-180" rx="40.89" ry="18"/>
<text text-anchor="middle" x="477.22" y="-176.3" font-family="Times New Roman,serif" font-size="14.00">y_arrow</text>
</a>
</g>
</g>
<!-- coords_81&#45;&gt;y_arrow_86 -->
<g id="edge30" class="edge">
<title>coords_81&#45;&gt;y_arrow_86</title>
<path fill="none" stroke="black" d="M367.52,-222.94C387.39,-215.09 414.34,-204.44 436.44,-195.72"/>
<polygon fill="black" stroke="black" points="437.88,-198.91 445.89,-191.98 435.31,-192.4 437.88,-198.91"/>
</g>
<!-- z_arrow_89 -->
<g id="node34" class="node">
<title>z_arrow_89</title>
<g id="a_node34"><a xlink:href="javascript:s=&quot;\(&quot;&#x27;pin&#x27;,\ &#x27;top&#x27;,\ &quot;,\ &#x27;coords&#x27;,\ &#x27;z_arrow&#x27;\)\nArrow&quot;; console.log(s); alert(s);" xlink:title="Arrow">
<ellipse fill="none" stroke="black" cx="477.22" cy="-72" rx="40.09" ry="18"/>
<text text-anchor="middle" x="477.22" y="-68.3" font-family="Times New Roman,serif" font-size="14.00">z_arrow</text>
</a>
</g>
</g>
<!-- coords_81&#45;&gt;z_arrow_89 -->
<g id="edge33" class="edge">
<title>coords_81&#45;&gt;z_arrow_89</title>
<path fill="none" stroke="black" d="M370.2,-224.79C380.6,-220.59 391.74,-214.77 400.28,-207 417.73,-191.12 446.94,-133.57 463.59,-98.94"/>
<polygon fill="black" stroke="black" points="466.79,-100.37 467.94,-89.84 460.47,-97.36 466.79,-100.37"/>
</g>
<!-- stem_84 -->
<g id="node29" class="node">
<title>stem_84</title>
<g id="a_node29"><a xlink:href="javascript:s=&quot;\(&quot;&#x27;pin&#x27;,\ &#x27;top&#x27;,\ &quot;,\ &#x27;coords&#x27;,\ &#x27;x_arrow&#x27;,\ &#x27;stem&#x27;\)\nCone&quot;; console.log(s); alert(s);" xlink:title="Cone">
<ellipse fill="none" stroke="black" cx="582.12" cy="-288" rx="27.9" ry="18"/>
<text text-anchor="middle" x="582.12" y="-284.3" font-family="Times New Roman,serif" font-size="14.00">stem</text>
</a>
</g>
</g>
<!-- x_arrow_83&#45;&gt;stem_84 -->
<g id="edge28" class="edge">
<title>x_arrow_83&#45;&gt;stem_84</title>
<path fill="none" stroke="black" d="M504.19,-247.63C518.35,-255.06 535.96,-264.3 550.75,-272.07"/>
<polygon fill="black" stroke="black" points="549.53,-275.37 560.01,-276.92 552.78,-269.18 549.53,-275.37"/>
</g>
<!-- head_85 -->
<g id="node30" class="node">
<title>head_85</title>
<g id="a_node30"><a xlink:href="javascript:s=&quot;\(&quot;&#x27;pin&#x27;,\ &#x27;top&#x27;,\ &quot;,\ &#x27;coords&#x27;,\ &#x27;x_arrow&#x27;,\ &#x27;head&#x27;\)\nCone&quot;; console.log(s); alert(s);" xlink:title="Cone">
<ellipse fill="none" stroke="black" cx="582.12" cy="-234" rx="27.9" ry="18"/>
<text text-anchor="middle" x="582.12" y="-230.3" font-family="Times New Roman,serif" font-size="14.00">head</text>
</a>
</g>
</g>
<!-- x_arrow_83&#45;&gt;head_85 -->
<g id="edge29" class="edge">
<title>x_arrow_83&#45;&gt;head_85</title>
<path fill="none" stroke="black" d="M518.3,-234C526.71,-234 535.55,-234 543.85,-234"/>
<polygon fill="black" stroke="black" points="544.01,-237.5 554.01,-234 544.01,-230.5 544.01,-237.5"/>
</g>
<!-- stem_87 -->
<g id="node32" class="node">
<title>stem_87</title>
<g id="a_node32"><a xlink:href="javascript:s=&quot;\(&quot;&#x27;pin&#x27;,\ &#x27;top&#x27;,\ &quot;,\ &#x27;coords&#x27;,\ &#x27;y_arrow&#x27;,\ &#x27;stem&#x27;\)\nCone&quot;; console.log(s); alert(s);" xlink:title="Cone">
<ellipse fill="none" stroke="black" cx="582.12" cy="-180" rx="27.9" ry="18"/>
<text text-anchor="middle" x="582.12" y="-176.3" font-family="Times New Roman,serif" font-size="14.00">stem</text>
</a>
</g>
</g>
<!-- y_arrow_86&#45;&gt;stem_87 -->
<g id="edge31" class="edge">
<title>y_arrow_86&#45;&gt;stem_87</title>
<path fill="none" stroke="black" d="M518.3,-180C526.71,-180 535.55,-180 543.85,-180"/>
<polygon fill="black" stroke="black" points="544.01,-183.5 554.01,-180 544.01,-176.5 544.01,-183.5"/>
</g>
<!-- head_88 -->
<g id="node33" class="node">
<title>head_88</title>
<g id="a_node33"><a xlink:href="javascript:s=&quot;\(&quot;&#x27;pin&#x27;,\ &#x27;top&#x27;,\ &quot;,\ &#x27;coords&#x27;,\ &#x27;y_arrow&#x27;,\ &#x27;head&#x27;\)\nCone&quot;; console.log(s); alert(s);" xlink:title="Cone">
<ellipse fill="none" stroke="black" cx="582.12" cy="-126" rx="27.9" ry="18"/>
<text text-anchor="middle" x="582.12" y="-122.3" font-family="Times New Roman,serif" font-size="14.00">head</text>
</a>
</g>
</g>
<!-- y_arrow_86&#45;&gt;head_88 -->
<g id="edge32" class="edge">
<title>y_arrow_86&#45;&gt;head_88</title>
<path fill="none" stroke="black" d="M504.19,-166.37C518.35,-158.94 535.96,-149.7 550.75,-141.93"/>
<polygon fill="black" stroke="black" points="552.78,-144.82 560.01,-137.08 549.53,-138.63 552.78,-144.82"/>
</g>
<!-- stem_90 -->
<g id="node35" class="node">
<title>stem_90</title>
<g id="a_node35"><a xlink:href="javascript:s=&quot;\(&quot;&#x27;pin&#x27;,\ &#x27;top&#x27;,\ &quot;,\ &#x27;coords&#x27;,\ &#x27;z_arrow&#x27;,\ &#x27;stem&#x27;\)\nCone&quot;; console.log(s); alert(s);" xlink:title="Cone">
<ellipse fill="none" stroke="black" cx="582.12" cy="-72" rx="27.9" ry="18"/>
<text text-anchor="middle" x="582.12" y="-68.3" font-family="Times New Roman,serif" font-size="14.00">stem</text>
</a>
</g>
</g>
<!-- z_arrow_89&#45;&gt;stem_90 -->
<g id="edge34" class="edge">
<title>z_arrow_89&#45;&gt;stem_90</title>
<path fill="none" stroke="black" d="M517.71,-72C526.33,-72 535.43,-72 543.96,-72"/>
<polygon fill="black" stroke="black" points="544.01,-75.5 554.01,-72 544.01,-68.5 544.01,-75.5"/>
</g>
<!-- head_91 -->
<g id="node36" class="node">
<title>head_91</title>
<g id="a_node36"><a xlink:href="javascript:s=&quot;\(&quot;&#x27;pin&#x27;,\ &#x27;top&#x27;,\ &quot;,\ &#x27;coords&#x27;,\ &#x27;z_arrow&#x27;,\ &#x27;head&#x27;\)\nCone&quot;; console.log(s); alert(s);" xlink:title="Cone">
<ellipse fill="none" stroke="black" cx="582.12" cy="-18" rx="27.9" ry="18"/>
<text text-anchor="middle" x="582.12" y="-14.3" font-family="Times New Roman,serif" font-size="14.00">head</text>
</a>
</g>
</g>
<!-- z_arrow_89&#45;&gt;head_91 -->
<g id="edge35" class="edge">
<title>z_arrow_89&#45;&gt;head_91</title>
<path fill="none" stroke="black" d="M503.92,-58.51C518.22,-51.01 536.08,-41.63 551.03,-33.79"/>
<polygon fill="black" stroke="black" points="552.67,-36.88 559.9,-29.14 549.42,-30.68 552.67,-36.88"/>
</g>
</g>
</svg>
