<?xml version="1.0" encoding="UTF-8" standalone="no"?>
<!DOCTYPE svg PUBLIC "-//W3C//DTD SVG 1.1//EN"
 "http://www.w3.org/Graphics/SVG/1.1/DTD/svg11.dtd">
<!-- Generated by graphviz version 5.0.0 (20220707.1540)
 -->
<!-- Title: offset Pages: 1 -->
<svg width="505pt" height="314pt"
 viewBox="0.00 0.00 504.97 314.00" xmlns="http://www.w3.org/2000/svg" xmlns:xlink="http://www.w3.org/1999/xlink">
<g id="graph0" class="graph" transform="scale(1 1) rotate(0) translate(4 310)">
<title>offset</title>
<polygon fill="white" stroke="transparent" points="-4,4 -4,-310 500.97,-310 500.97,4 -4,4"/>
<!-- root_987 -->
<g id="node1" class="node">
<title>root_987</title>
<g id="a_node1"><a xlink:href="javascript:s=&quot;\(\)\nNone&quot;; console.log(s); alert(s);" xlink:title="root">
<ellipse fill="none" stroke="black" cx="27" cy="-153" rx="27" ry="18"/>
<text text-anchor="middle" x="27" y="-149.3" font-family="Times New Roman,serif" font-size="14.00">root</text>
</a>
</g>
</g>
<!-- offset_988 -->
<g id="node2" class="node">
<title>offset_988</title>
<g id="a_node2"><a xlink:href="javascript:s=&quot;\(&#x27;offset&#x27;,\)\nText&quot;; console.log(s); alert(s);" xlink:title="Text">
<ellipse fill="none" stroke="black" cx="134.2" cy="-180" rx="31.7" ry="18"/>
<text text-anchor="middle" x="134.2" y="-176.3" font-family="Times New Roman,serif" font-size="14.00">offset</text>
</a>
</g>
</g>
<!-- root_987&#45;&gt;offset_988 -->
<g id="edge1" class="edge">
<title>root_987&#45;&gt;offset_988</title>
<path fill="none" stroke="black" d="M52.4,-159.26C65,-162.5 80.67,-166.52 94.84,-170.16"/>
<polygon fill="black" stroke="black" points="94.28,-173.62 104.83,-172.72 96.02,-166.84 94.28,-173.62"/>
</g>
<!-- 989 -->
<g id="node3" class="node">
<title>989</title>
<g id="a_node3"><a xlink:href="javascript:s=&quot;\(&quot;&#x27;default&#x27;,\ &quot;,\)\nAnnotatedCoordinates&quot;; console.log(s); alert(s);" xlink:title="AnnotatedCoordinates">
<ellipse fill="none" stroke="black" cx="134.2" cy="-126" rx="44.39" ry="18"/>
<text text-anchor="middle" x="134.2" y="-122.3" font-family="Times New Roman,serif" font-size="14.00">&#39;default&#39;, </text>
</a>
</g>
</g>
<!-- root_987&#45;&gt;989 -->
<g id="edge2" class="edge">
<title>root_987&#45;&gt;989</title>
<path fill="none" stroke="black" d="M52.4,-146.74C62.55,-144.13 74.68,-141.02 86.42,-138"/>
<polygon fill="black" stroke="black" points="87.33,-141.39 96.14,-135.51 85.59,-134.61 87.33,-141.39"/>
</g>
<!-- coords_990 -->
<g id="node4" class="node">
<title>coords_990</title>
<g id="a_node4"><a xlink:href="javascript:s=&quot;\(&quot;&#x27;default&#x27;,\ &quot;,\ &#x27;coords&#x27;\)\nCoordinates&quot;; console.log(s); alert(s);" xlink:title="Coordinates">
<ellipse fill="none" stroke="black" cx="250.79" cy="-207" rx="36.29" ry="18"/>
<text text-anchor="middle" x="250.79" y="-203.3" font-family="Times New Roman,serif" font-size="14.00">coords</text>
</a>
</g>
</g>
<!-- 989&#45;&gt;coords_990 -->
<g id="edge3" class="edge">
<title>989&#45;&gt;coords_990</title>
<path fill="none" stroke="black" d="M159.66,-140.76C165.84,-144.64 172.42,-148.89 178.39,-153 182.89,-156.1 203.95,-172.06 222.04,-185.83"/>
<polygon fill="black" stroke="black" points="220,-188.67 230.08,-191.95 224.24,-183.1 220,-188.67"/>
</g>
<!-- x_1001 -->
<g id="node15" class="node">
<title>x_1001</title>
<g id="a_node15"><a xlink:href="javascript:s=&quot;\(&quot;&#x27;default&#x27;,\ &quot;,\ &#x27;x&#x27;\)\nText&quot;; console.log(s); alert(s);" xlink:title="Text">
<ellipse fill="none" stroke="black" cx="250.79" cy="-153" rx="27" ry="18"/>
<text text-anchor="middle" x="250.79" y="-149.3" font-family="Times New Roman,serif" font-size="14.00">x</text>
</a>
</g>
</g>
<!-- 989&#45;&gt;x_1001 -->
<g id="edge14" class="edge">
<title>989&#45;&gt;x_1001</title>
<path fill="none" stroke="black" d="M172.72,-134.84C186.45,-138.08 201.91,-141.72 215.36,-144.89"/>
<polygon fill="black" stroke="black" points="214.65,-148.32 225.19,-147.2 216.26,-141.5 214.65,-148.32"/>
</g>
<!-- y_1002 -->
<g id="node16" class="node">
<title>y_1002</title>
<g id="a_node16"><a xlink:href="javascript:s=&quot;\(&quot;&#x27;default&#x27;,\ &quot;,\ &#x27;y&#x27;\)\nText&quot;; console.log(s); alert(s);" xlink:title="Text">
<ellipse fill="none" stroke="black" cx="250.79" cy="-99" rx="27" ry="18"/>
<text text-anchor="middle" x="250.79" y="-95.3" font-family="Times New Roman,serif" font-size="14.00">y</text>
</a>
</g>
</g>
<!-- 989&#45;&gt;y_1002 -->
<g id="edge15" class="edge">
<title>989&#45;&gt;y_1002</title>
<path fill="none" stroke="black" d="M172.72,-117.16C186.45,-113.92 201.91,-110.28 215.36,-107.11"/>
<polygon fill="black" stroke="black" points="216.26,-110.5 225.19,-104.8 214.65,-103.68 216.26,-110.5"/>
</g>
<!-- z_1003 -->
<g id="node17" class="node">
<title>z_1003</title>
<g id="a_node17"><a xlink:href="javascript:s=&quot;\(&quot;&#x27;default&#x27;,\ &quot;,\ &#x27;z&#x27;\)\nText&quot;; console.log(s); alert(s);" xlink:title="Text">
<ellipse fill="none" stroke="black" cx="250.79" cy="-45" rx="27" ry="18"/>
<text text-anchor="middle" x="250.79" y="-41.3" font-family="Times New Roman,serif" font-size="14.00">z</text>
</a>
</g>
</g>
<!-- 989&#45;&gt;z_1003 -->
<g id="edge16" class="edge">
<title>989&#45;&gt;z_1003</title>
<path fill="none" stroke="black" d="M157.02,-110.57C175.8,-97.3 202.96,-78.1 223.05,-63.9"/>
<polygon fill="black" stroke="black" points="225.3,-66.6 231.45,-57.96 221.26,-60.88 225.3,-66.6"/>
</g>
<!-- origin_991 -->
<g id="node5" class="node">
<title>origin_991</title>
<g id="a_node5"><a xlink:href="javascript:s=&quot;\(&quot;&#x27;default&#x27;,\ &quot;,\ &#x27;coords&#x27;,\ &#x27;origin&#x27;\)\nCoordinatesCage&quot;; console.log(s); alert(s);" xlink:title="CoordinatesCage">
<ellipse fill="none" stroke="black" cx="364.13" cy="-288" rx="31.4" ry="18"/>
<text text-anchor="middle" x="364.13" y="-284.3" font-family="Times New Roman,serif" font-size="14.00">origin</text>
</a>
</g>
</g>
<!-- coords_990&#45;&gt;origin_991 -->
<g id="edge4" class="edge">
<title>coords_990&#45;&gt;origin_991</title>
<path fill="none" stroke="black" d="M271.28,-222.18C285.51,-233.16 305.36,-248.25 323.19,-261 326.71,-263.52 330.44,-266.13 334.15,-268.68"/>
<polygon fill="black" stroke="black" points="332.43,-271.74 342.67,-274.47 336.37,-265.95 332.43,-271.74"/>
</g>
<!-- x_arrow_992 -->
<g id="node6" class="node">
<title>x_arrow_992</title>
<g id="a_node6"><a xlink:href="javascript:s=&quot;\(&quot;&#x27;default&#x27;,\ &quot;,\ &#x27;coords&#x27;,\ &#x27;x_arrow&#x27;\)\nArrow&quot;; console.log(s); alert(s);" xlink:title="Arrow">
<ellipse fill="none" stroke="black" cx="364.13" cy="-234" rx="40.89" ry="18"/>
<text text-anchor="middle" x="364.13" y="-230.3" font-family="Times New Roman,serif" font-size="14.00">x_arrow</text>
</a>
</g>
</g>
<!-- coords_990&#45;&gt;x_arrow_992 -->
<g id="edge5" class="edge">
<title>coords_990&#45;&gt;x_arrow_992</title>
<path fill="none" stroke="black" d="M283.7,-214.74C294.33,-217.32 306.39,-220.24 317.85,-223.02"/>
<polygon fill="black" stroke="black" points="317.16,-226.45 327.7,-225.41 318.81,-219.65 317.16,-226.45"/>
</g>
<!-- y_arrow_995 -->
<g id="node9" class="node">
<title>y_arrow_995</title>
<g id="a_node9"><a xlink:href="javascript:s=&quot;\(&quot;&#x27;default&#x27;,\ &quot;,\ &#x27;coords&#x27;,\ &#x27;y_arrow&#x27;\)\nArrow&quot;; console.log(s); alert(s);" xlink:title="Arrow">
<ellipse fill="none" stroke="black" cx="364.13" cy="-180" rx="40.89" ry="18"/>
<text text-anchor="middle" x="364.13" y="-176.3" font-family="Times New Roman,serif" font-size="14.00">y_arrow</text>
</a>
</g>
</g>
<!-- coords_990&#45;&gt;y_arrow_995 -->
<g id="edge8" class="edge">
<title>coords_990&#45;&gt;y_arrow_995</title>
<path fill="none" stroke="black" d="M283.7,-199.26C294.33,-196.68 306.39,-193.76 317.85,-190.98"/>
<polygon fill="black" stroke="black" points="318.81,-194.35 327.7,-188.59 317.16,-187.55 318.81,-194.35"/>
</g>
<!-- z_arrow_998 -->
<g id="node12" class="node">
<title>z_arrow_998</title>
<g id="a_node12"><a xlink:href="javascript:s=&quot;\(&quot;&#x27;default&#x27;,\ &quot;,\ &#x27;coords&#x27;,\ &#x27;z_arrow&#x27;\)\nArrow&quot;; console.log(s); alert(s);" xlink:title="Arrow">
<ellipse fill="none" stroke="black" cx="364.13" cy="-72" rx="40.09" ry="18"/>
<text text-anchor="middle" x="364.13" y="-68.3" font-family="Times New Roman,serif" font-size="14.00">z_arrow</text>
</a>
</g>
</g>
<!-- coords_990&#45;&gt;z_arrow_998 -->
<g id="edge11" class="edge">
<title>coords_990&#45;&gt;z_arrow_998</title>
<path fill="none" stroke="black" d="M272.9,-192.58C277.83,-188.76 282.9,-184.46 287.19,-180 311.35,-154.88 333.6,-121.5 347.69,-98.54"/>
<polygon fill="black" stroke="black" points="350.86,-100.05 353.03,-89.68 344.86,-96.44 350.86,-100.05"/>
</g>
<!-- stem_993 -->
<g id="node7" class="node">
<title>stem_993</title>
<g id="a_node7"><a xlink:href="javascript:s=&quot;\(&quot;&#x27;default&#x27;,\ &quot;,\ &#x27;coords&#x27;,\ &#x27;x_arrow&#x27;,\ &#x27;stem&#x27;\)\nCone&quot;; console.log(s); alert(s);" xlink:title="Cone">
<ellipse fill="none" stroke="black" cx="469.03" cy="-288" rx="27.9" ry="18"/>
<text text-anchor="middle" x="469.03" y="-284.3" font-family="Times New Roman,serif" font-size="14.00">stem</text>
</a>
</g>
</g>
<!-- x_arrow_992&#45;&gt;stem_993 -->
<g id="edge6" class="edge">
<title>x_arrow_992&#45;&gt;stem_993</title>
<path fill="none" stroke="black" d="M391.1,-247.63C405.26,-255.06 422.87,-264.3 437.66,-272.07"/>
<polygon fill="black" stroke="black" points="436.44,-275.37 446.92,-276.92 439.69,-269.18 436.44,-275.37"/>
</g>
<!-- head_994 -->
<g id="node8" class="node">
<title>head_994</title>
<g id="a_node8"><a xlink:href="javascript:s=&quot;\(&quot;&#x27;default&#x27;,\ &quot;,\ &#x27;coords&#x27;,\ &#x27;x_arrow&#x27;,\ &#x27;head&#x27;\)\nCone&quot;; console.log(s); alert(s);" xlink:title="Cone">
<ellipse fill="none" stroke="black" cx="469.03" cy="-234" rx="27.9" ry="18"/>
<text text-anchor="middle" x="469.03" y="-230.3" font-family="Times New Roman,serif" font-size="14.00">head</text>
</a>
</g>
</g>
<!-- x_arrow_992&#45;&gt;head_994 -->
<g id="edge7" class="edge">
<title>x_arrow_992&#45;&gt;head_994</title>
<path fill="none" stroke="black" d="M405.21,-234C413.62,-234 422.46,-234 430.76,-234"/>
<polygon fill="black" stroke="black" points="430.92,-237.5 440.92,-234 430.92,-230.5 430.92,-237.5"/>
</g>
<!-- stem_996 -->
<g id="node10" class="node">
<title>stem_996</title>
<g id="a_node10"><a xlink:href="javascript:s=&quot;\(&quot;&#x27;default&#x27;,\ &quot;,\ &#x27;coords&#x27;,\ &#x27;y_arrow&#x27;,\ &#x27;stem&#x27;\)\nCone&quot;; console.log(s); alert(s);" xlink:title="Cone">
<ellipse fill="none" stroke="black" cx="469.03" cy="-180" rx="27.9" ry="18"/>
<text text-anchor="middle" x="469.03" y="-176.3" font-family="Times New Roman,serif" font-size="14.00">stem</text>
</a>
</g>
</g>
<!-- y_arrow_995&#45;&gt;stem_996 -->
<g id="edge9" class="edge">
<title>y_arrow_995&#45;&gt;stem_996</title>
<path fill="none" stroke="black" d="M405.21,-180C413.62,-180 422.46,-180 430.76,-180"/>
<polygon fill="black" stroke="black" points="430.92,-183.5 440.92,-180 430.92,-176.5 430.92,-183.5"/>
</g>
<!-- head_997 -->
<g id="node11" class="node">
<title>head_997</title>
<g id="a_node11"><a xlink:href="javascript:s=&quot;\(&quot;&#x27;default&#x27;,\ &quot;,\ &#x27;coords&#x27;,\ &#x27;y_arrow&#x27;,\ &#x27;head&#x27;\)\nCone&quot;; console.log(s); alert(s);" xlink:title="Cone">
<ellipse fill="none" stroke="black" cx="469.03" cy="-126" rx="27.9" ry="18"/>
<text text-anchor="middle" x="469.03" y="-122.3" font-family="Times New Roman,serif" font-size="14.00">head</text>
</a>
</g>
</g>
<!-- y_arrow_995&#45;&gt;head_997 -->
<g id="edge10" class="edge">
<title>y_arrow_995&#45;&gt;head_997</title>
<path fill="none" stroke="black" d="M391.1,-166.37C405.26,-158.94 422.87,-149.7 437.66,-141.93"/>
<polygon fill="black" stroke="black" points="439.69,-144.82 446.92,-137.08 436.44,-138.63 439.69,-144.82"/>
</g>
<!-- stem_999 -->
<g id="node13" class="node">
<title>stem_999</title>
<g id="a_node13"><a xlink:href="javascript:s=&quot;\(&quot;&#x27;default&#x27;,\ &quot;,\ &#x27;coords&#x27;,\ &#x27;z_arrow&#x27;,\ &#x27;stem&#x27;\)\nCone&quot;; console.log(s); alert(s);" xlink:title="Cone">
<ellipse fill="none" stroke="black" cx="469.03" cy="-72" rx="27.9" ry="18"/>
<text text-anchor="middle" x="469.03" y="-68.3" font-family="Times New Roman,serif" font-size="14.00">stem</text>
</a>
</g>
</g>
<!-- z_arrow_998&#45;&gt;stem_999 -->
<g id="edge12" class="edge">
<title>z_arrow_998&#45;&gt;stem_999</title>
<path fill="none" stroke="black" d="M404.62,-72C413.24,-72 422.34,-72 430.87,-72"/>
<polygon fill="black" stroke="black" points="430.92,-75.5 440.92,-72 430.92,-68.5 430.92,-75.5"/>
</g>
<!-- head_1000 -->
<g id="node14" class="node">
<title>head_1000</title>
<g id="a_node14"><a xlink:href="javascript:s=&quot;\(&quot;&#x27;default&#x27;,\ &quot;,\ &#x27;coords&#x27;,\ &#x27;z_arrow&#x27;,\ &#x27;head&#x27;\)\nCone&quot;; console.log(s); alert(s);" xlink:title="Cone">
<ellipse fill="none" stroke="black" cx="469.03" cy="-18" rx="27.9" ry="18"/>
<text text-anchor="middle" x="469.03" y="-14.3" font-family="Times New Roman,serif" font-size="14.00">head</text>
</a>
</g>
</g>
<!-- z_arrow_998&#45;&gt;head_1000 -->
<g id="edge13" class="edge">
<title>z_arrow_998&#45;&gt;head_1000</title>
<path fill="none" stroke="black" d="M390.83,-58.51C405.13,-51.01 422.99,-41.63 437.94,-33.79"/>
<polygon fill="black" stroke="black" points="439.58,-36.88 446.81,-29.14 436.33,-30.68 439.58,-36.88"/>
</g>
</g>
</svg>
