<?xml version="1.0" encoding="UTF-8" standalone="no"?>
<!DOCTYPE svg PUBLIC "-//W3C//DTD SVG 1.1//EN"
 "http://www.w3.org/Graphics/SVG/1.1/DTD/svg11.dtd">
<!-- Generated by graphviz version 5.0.0 (20220707.1540)
 -->
<!-- Title: default Pages: 1 -->
<svg width="487pt" height="341pt"
 viewBox="0.00 0.00 486.78 341.00" xmlns="http://www.w3.org/2000/svg" xmlns:xlink="http://www.w3.org/1999/xlink">
<g id="graph0" class="graph" transform="scale(1 1) rotate(0) translate(4 337)">
<title>default</title>
<polygon fill="white" stroke="transparent" points="-4,4 -4,-337 482.78,-337 482.78,4 -4,4"/>
<!-- root_1 -->
<g id="node1" class="node">
<title>root_1</title>
<g id="a_node1"><a xlink:href="javascript:s=&quot;\(\)\nNone&quot;; console.log(s); alert(s);" xlink:title="root">
<ellipse fill="none" stroke="black" cx="27" cy="-126" rx="27" ry="18"/>
<text text-anchor="middle" x="27" y="-122.3" font-family="Times New Roman,serif" font-size="14.00">root</text>
</a>
</g>
</g>
<!-- default_2 -->
<g id="node2" class="node">
<title>default_2</title>
<g id="a_node2"><a xlink:href="javascript:s=&quot;\(&#x27;default&#x27;,\)\nAnnotatedCoordinates&quot;; console.log(s); alert(s);" xlink:title="AnnotatedCoordinates">
<ellipse fill="none" stroke="black" cx="125.1" cy="-126" rx="35.19" ry="18"/>
<text text-anchor="middle" x="125.1" y="-122.3" font-family="Times New Roman,serif" font-size="14.00">default</text>
</a>
</g>
</g>
<!-- root_1&#45;&gt;default_2 -->
<g id="edge1" class="edge">
<title>root_1&#45;&gt;default_2</title>
<path fill="none" stroke="black" d="M54.01,-126C61.92,-126 70.84,-126 79.61,-126"/>
<polygon fill="black" stroke="black" points="79.76,-129.5 89.76,-126 79.76,-122.5 79.76,-129.5"/>
</g>
<!-- coords_3 -->
<g id="node3" class="node">
<title>coords_3</title>
<g id="a_node3"><a xlink:href="javascript:s=&quot;\(&#x27;default&#x27;,\ &#x27;coords&#x27;\)\nCoordinates&quot;; console.log(s); alert(s);" xlink:title="Coordinates">
<ellipse fill="none" stroke="black" cx="232.59" cy="-234" rx="36.29" ry="18"/>
<text text-anchor="middle" x="232.59" y="-230.3" font-family="Times New Roman,serif" font-size="14.00">coords</text>
</a>
</g>
</g>
<!-- default_2&#45;&gt;coords_3 -->
<g id="edge2" class="edge">
<title>default_2&#45;&gt;coords_3</title>
<path fill="none" stroke="black" d="M138.88,-142.71C152.28,-159.74 174.38,-186.49 196.19,-207 198.31,-208.99 200.56,-210.97 202.86,-212.91"/>
<polygon fill="black" stroke="black" points="200.8,-215.74 210.79,-219.27 205.18,-210.28 200.8,-215.74"/>
</g>
<!-- x_14 -->
<g id="node14" class="node">
<title>x_14</title>
<g id="a_node14"><a xlink:href="javascript:s=&quot;\(&#x27;default&#x27;,\ &#x27;x&#x27;\)\nText&quot;; console.log(s); alert(s);" xlink:title="Text">
<ellipse fill="none" stroke="black" cx="232.59" cy="-180" rx="27" ry="18"/>
<text text-anchor="middle" x="232.59" y="-176.3" font-family="Times New Roman,serif" font-size="14.00">x</text>
</a>
</g>
</g>
<!-- default_2&#45;&gt;x_14 -->
<g id="edge13" class="edge">
<title>default_2&#45;&gt;x_14</title>
<path fill="none" stroke="black" d="M150.56,-138.52C165.73,-146.29 185.32,-156.31 201.43,-164.56"/>
<polygon fill="black" stroke="black" points="199.97,-167.74 210.46,-169.19 203.16,-161.51 199.97,-167.74"/>
</g>
<!-- y_15 -->
<g id="node15" class="node">
<title>y_15</title>
<g id="a_node15"><a xlink:href="javascript:s=&quot;\(&#x27;default&#x27;,\ &#x27;y&#x27;\)\nText&quot;; console.log(s); alert(s);" xlink:title="Text">
<ellipse fill="none" stroke="black" cx="232.59" cy="-126" rx="27" ry="18"/>
<text text-anchor="middle" x="232.59" y="-122.3" font-family="Times New Roman,serif" font-size="14.00">y</text>
</a>
</g>
</g>
<!-- default_2&#45;&gt;y_15 -->
<g id="edge14" class="edge">
<title>default_2&#45;&gt;y_15</title>
<path fill="none" stroke="black" d="M160.35,-126C171.59,-126 184.11,-126 195.48,-126"/>
<polygon fill="black" stroke="black" points="195.53,-129.5 205.53,-126 195.53,-122.5 195.53,-129.5"/>
</g>
<!-- z_16 -->
<g id="node16" class="node">
<title>z_16</title>
<g id="a_node16"><a xlink:href="javascript:s=&quot;\(&#x27;default&#x27;,\ &#x27;z&#x27;\)\nText&quot;; console.log(s); alert(s);" xlink:title="Text">
<ellipse fill="none" stroke="black" cx="232.59" cy="-72" rx="27" ry="18"/>
<text text-anchor="middle" x="232.59" y="-68.3" font-family="Times New Roman,serif" font-size="14.00">z</text>
</a>
</g>
</g>
<!-- default_2&#45;&gt;z_16 -->
<g id="edge15" class="edge">
<title>default_2&#45;&gt;z_16</title>
<path fill="none" stroke="black" d="M150.56,-113.48C165.73,-105.71 185.32,-95.69 201.43,-87.44"/>
<polygon fill="black" stroke="black" points="203.16,-90.49 210.46,-82.81 199.97,-84.26 203.16,-90.49"/>
</g>
<!-- label_17 -->
<g id="node17" class="node">
<title>label_17</title>
<g id="a_node17"><a xlink:href="javascript:s=&quot;\(&#x27;default&#x27;,\ &#x27;label&#x27;\)\nText&quot;; console.log(s); alert(s);" xlink:title="Text">
<ellipse fill="none" stroke="black" cx="232.59" cy="-18" rx="27.1" ry="18"/>
<text text-anchor="middle" x="232.59" y="-14.3" font-family="Times New Roman,serif" font-size="14.00">label</text>
</a>
</g>
</g>
<!-- default_2&#45;&gt;label_17 -->
<g id="edge16" class="edge">
<title>default_2&#45;&gt;label_17</title>
<path fill="none" stroke="black" d="M138.88,-109.29C152.28,-92.26 174.38,-65.51 196.19,-45 198.95,-42.41 201.94,-39.83 204.98,-37.34"/>
<polygon fill="black" stroke="black" points="207.29,-39.97 213,-31.05 202.97,-34.47 207.29,-39.97"/>
</g>
<!-- origin_4 -->
<g id="node4" class="node">
<title>origin_4</title>
<g id="a_node4"><a xlink:href="javascript:s=&quot;\(&#x27;default&#x27;,\ &#x27;coords&#x27;,\ &#x27;origin&#x27;\)\nCoordinatesCage&quot;; console.log(s); alert(s);" xlink:title="CoordinatesCage">
<ellipse fill="none" stroke="black" cx="345.93" cy="-315" rx="31.4" ry="18"/>
<text text-anchor="middle" x="345.93" y="-311.3" font-family="Times New Roman,serif" font-size="14.00">origin</text>
</a>
</g>
</g>
<!-- coords_3&#45;&gt;origin_4 -->
<g id="edge3" class="edge">
<title>coords_3&#45;&gt;origin_4</title>
<path fill="none" stroke="black" d="M253.08,-249.18C267.32,-260.16 287.16,-275.25 304.99,-288 308.51,-290.52 312.24,-293.13 315.95,-295.68"/>
<polygon fill="black" stroke="black" points="314.23,-298.74 324.47,-301.47 318.17,-292.95 314.23,-298.74"/>
</g>
<!-- x_arrow_5 -->
<g id="node5" class="node">
<title>x_arrow_5</title>
<g id="a_node5"><a xlink:href="javascript:s=&quot;\(&#x27;default&#x27;,\ &#x27;coords&#x27;,\ &#x27;x_arrow&#x27;\)\nArrow&quot;; console.log(s); alert(s);" xlink:title="Arrow">
<ellipse fill="none" stroke="black" cx="345.93" cy="-261" rx="40.89" ry="18"/>
<text text-anchor="middle" x="345.93" y="-257.3" font-family="Times New Roman,serif" font-size="14.00">x_arrow</text>
</a>
</g>
</g>
<!-- coords_3&#45;&gt;x_arrow_5 -->
<g id="edge4" class="edge">
<title>coords_3&#45;&gt;x_arrow_5</title>
<path fill="none" stroke="black" d="M265.5,-241.74C276.13,-244.32 288.19,-247.24 299.65,-250.02"/>
<polygon fill="black" stroke="black" points="298.96,-253.45 309.5,-252.41 300.61,-246.65 298.96,-253.45"/>
</g>
<!-- y_arrow_8 -->
<g id="node8" class="node">
<title>y_arrow_8</title>
<g id="a_node8"><a xlink:href="javascript:s=&quot;\(&#x27;default&#x27;,\ &#x27;coords&#x27;,\ &#x27;y_arrow&#x27;\)\nArrow&quot;; console.log(s); alert(s);" xlink:title="Arrow">
<ellipse fill="none" stroke="black" cx="345.93" cy="-207" rx="40.89" ry="18"/>
<text text-anchor="middle" x="345.93" y="-203.3" font-family="Times New Roman,serif" font-size="14.00">y_arrow</text>
</a>
</g>
</g>
<!-- coords_3&#45;&gt;y_arrow_8 -->
<g id="edge7" class="edge">
<title>coords_3&#45;&gt;y_arrow_8</title>
<path fill="none" stroke="black" d="M265.5,-226.26C276.13,-223.68 288.19,-220.76 299.65,-217.98"/>
<polygon fill="black" stroke="black" points="300.61,-221.35 309.5,-215.59 298.96,-214.55 300.61,-221.35"/>
</g>
<!-- z_arrow_11 -->
<g id="node11" class="node">
<title>z_arrow_11</title>
<g id="a_node11"><a xlink:href="javascript:s=&quot;\(&#x27;default&#x27;,\ &#x27;coords&#x27;,\ &#x27;z_arrow&#x27;\)\nArrow&quot;; console.log(s); alert(s);" xlink:title="Arrow">
<ellipse fill="none" stroke="black" cx="345.93" cy="-99" rx="40.09" ry="18"/>
<text text-anchor="middle" x="345.93" y="-95.3" font-family="Times New Roman,serif" font-size="14.00">z_arrow</text>
</a>
</g>
</g>
<!-- coords_3&#45;&gt;z_arrow_11 -->
<g id="edge10" class="edge">
<title>coords_3&#45;&gt;z_arrow_11</title>
<path fill="none" stroke="black" d="M254.7,-219.58C259.64,-215.76 264.7,-211.46 268.99,-207 293.15,-181.88 315.4,-148.5 329.49,-125.54"/>
<polygon fill="black" stroke="black" points="332.66,-127.05 334.83,-116.68 326.67,-123.44 332.66,-127.05"/>
</g>
<!-- stem_6 -->
<g id="node6" class="node">
<title>stem_6</title>
<g id="a_node6"><a xlink:href="javascript:s=&quot;\(&#x27;default&#x27;,\ &#x27;coords&#x27;,\ &#x27;x_arrow&#x27;,\ &#x27;stem&#x27;\)\nCone&quot;; console.log(s); alert(s);" xlink:title="Cone">
<ellipse fill="none" stroke="black" cx="450.83" cy="-315" rx="27.9" ry="18"/>
<text text-anchor="middle" x="450.83" y="-311.3" font-family="Times New Roman,serif" font-size="14.00">stem</text>
</a>
</g>
</g>
<!-- x_arrow_5&#45;&gt;stem_6 -->
<g id="edge5" class="edge">
<title>x_arrow_5&#45;&gt;stem_6</title>
<path fill="none" stroke="black" d="M372.9,-274.63C387.06,-282.06 404.67,-291.3 419.47,-299.07"/>
<polygon fill="black" stroke="black" points="418.24,-302.37 428.72,-303.92 421.49,-296.18 418.24,-302.37"/>
</g>
<!-- head_7 -->
<g id="node7" class="node">
<title>head_7</title>
<g id="a_node7"><a xlink:href="javascript:s=&quot;\(&#x27;default&#x27;,\ &#x27;coords&#x27;,\ &#x27;x_arrow&#x27;,\ &#x27;head&#x27;\)\nCone&quot;; console.log(s); alert(s);" xlink:title="Cone">
<ellipse fill="none" stroke="black" cx="450.83" cy="-261" rx="27.9" ry="18"/>
<text text-anchor="middle" x="450.83" y="-257.3" font-family="Times New Roman,serif" font-size="14.00">head</text>
</a>
</g>
</g>
<!-- x_arrow_5&#45;&gt;head_7 -->
<g id="edge6" class="edge">
<title>x_arrow_5&#45;&gt;head_7</title>
<path fill="none" stroke="black" d="M387.01,-261C395.42,-261 404.26,-261 412.56,-261"/>
<polygon fill="black" stroke="black" points="412.72,-264.5 422.72,-261 412.72,-257.5 412.72,-264.5"/>
</g>
<!-- stem_9 -->
<g id="node9" class="node">
<title>stem_9</title>
<g id="a_node9"><a xlink:href="javascript:s=&quot;\(&#x27;default&#x27;,\ &#x27;coords&#x27;,\ &#x27;y_arrow&#x27;,\ &#x27;stem&#x27;\)\nCone&quot;; console.log(s); alert(s);" xlink:title="Cone">
<ellipse fill="none" stroke="black" cx="450.83" cy="-207" rx="27.9" ry="18"/>
<text text-anchor="middle" x="450.83" y="-203.3" font-family="Times New Roman,serif" font-size="14.00">stem</text>
</a>
</g>
</g>
<!-- y_arrow_8&#45;&gt;stem_9 -->
<g id="edge8" class="edge">
<title>y_arrow_8&#45;&gt;stem_9</title>
<path fill="none" stroke="black" d="M387.01,-207C395.42,-207 404.26,-207 412.56,-207"/>
<polygon fill="black" stroke="black" points="412.72,-210.5 422.72,-207 412.72,-203.5 412.72,-210.5"/>
</g>
<!-- head_10 -->
<g id="node10" class="node">
<title>head_10</title>
<g id="a_node10"><a xlink:href="javascript:s=&quot;\(&#x27;default&#x27;,\ &#x27;coords&#x27;,\ &#x27;y_arrow&#x27;,\ &#x27;head&#x27;\)\nCone&quot;; console.log(s); alert(s);" xlink:title="Cone">
<ellipse fill="none" stroke="black" cx="450.83" cy="-153" rx="27.9" ry="18"/>
<text text-anchor="middle" x="450.83" y="-149.3" font-family="Times New Roman,serif" font-size="14.00">head</text>
</a>
</g>
</g>
<!-- y_arrow_8&#45;&gt;head_10 -->
<g id="edge9" class="edge">
<title>y_arrow_8&#45;&gt;head_10</title>
<path fill="none" stroke="black" d="M372.9,-193.37C387.06,-185.94 404.67,-176.7 419.47,-168.93"/>
<polygon fill="black" stroke="black" points="421.49,-171.82 428.72,-164.08 418.24,-165.63 421.49,-171.82"/>
</g>
<!-- stem_12 -->
<g id="node12" class="node">
<title>stem_12</title>
<g id="a_node12"><a xlink:href="javascript:s=&quot;\(&#x27;default&#x27;,\ &#x27;coords&#x27;,\ &#x27;z_arrow&#x27;,\ &#x27;stem&#x27;\)\nCone&quot;; console.log(s); alert(s);" xlink:title="Cone">
<ellipse fill="none" stroke="black" cx="450.83" cy="-99" rx="27.9" ry="18"/>
<text text-anchor="middle" x="450.83" y="-95.3" font-family="Times New Roman,serif" font-size="14.00">stem</text>
</a>
</g>
</g>
<!-- z_arrow_11&#45;&gt;stem_12 -->
<g id="edge11" class="edge">
<title>z_arrow_11&#45;&gt;stem_12</title>
<path fill="none" stroke="black" d="M386.42,-99C395.04,-99 404.14,-99 412.67,-99"/>
<polygon fill="black" stroke="black" points="412.72,-102.5 422.72,-99 412.72,-95.5 412.72,-102.5"/>
</g>
<!-- head_13 -->
<g id="node13" class="node">
<title>head_13</title>
<g id="a_node13"><a xlink:href="javascript:s=&quot;\(&#x27;default&#x27;,\ &#x27;coords&#x27;,\ &#x27;z_arrow&#x27;,\ &#x27;head&#x27;\)\nCone&quot;; console.log(s); alert(s);" xlink:title="Cone">
<ellipse fill="none" stroke="black" cx="450.83" cy="-45" rx="27.9" ry="18"/>
<text text-anchor="middle" x="450.83" y="-41.3" font-family="Times New Roman,serif" font-size="14.00">head</text>
</a>
</g>
</g>
<!-- z_arrow_11&#45;&gt;head_13 -->
<g id="edge12" class="edge">
<title>z_arrow_11&#45;&gt;head_13</title>
<path fill="none" stroke="black" d="M372.63,-85.51C386.93,-78.01 404.8,-68.63 419.74,-60.79"/>
<polygon fill="black" stroke="black" points="421.38,-63.88 428.61,-56.14 418.13,-57.68 421.38,-63.88"/>
</g>
</g>
</svg>
