<?xml version="1.0" encoding="UTF-8" standalone="no"?>
<!DOCTYPE svg PUBLIC "-//W3C//DTD SVG 1.1//EN"
 "http://www.w3.org/Graphics/SVG/1.1/DTD/svg11.dtd">
<!-- Generated by graphviz version 5.0.0 (20220707.1540)
 -->
<!-- Title: x_y_only Pages: 1 -->
<svg width="506pt" height="314pt"
 viewBox="0.00 0.00 506.27 314.00" xmlns="http://www.w3.org/2000/svg" xmlns:xlink="http://www.w3.org/1999/xlink">
<g id="graph0" class="graph" transform="scale(1 1) rotate(0) translate(4 310)">
<title>x_y_only</title>
<polygon fill="white" stroke="transparent" points="-4,4 -4,-310 502.27,-310 502.27,4 -4,4"/>
<!-- root_18 -->
<g id="node1" class="node">
<title>root_18</title>
<g id="a_node1"><a xlink:href="javascript:s=&quot;\(\)\nNone&quot;; console.log(s); alert(s);" xlink:title="root">
<ellipse fill="none" stroke="black" cx="27" cy="-153" rx="27" ry="18"/>
<text text-anchor="middle" x="27" y="-149.3" font-family="Times New Roman,serif" font-size="14.00">root</text>
</a>
</g>
</g>
<!-- x_y_only_19 -->
<g id="node2" class="node">
<title>x_y_only_19</title>
<g id="a_node2"><a xlink:href="javascript:s=&quot;\(&#x27;x_y_only&#x27;,\)\nAnnotatedCoordinates&quot;; console.log(s); alert(s);" xlink:title="AnnotatedCoordinates">
<ellipse fill="none" stroke="black" cx="134.85" cy="-153" rx="44.69" ry="18"/>
<text text-anchor="middle" x="134.85" y="-149.3" font-family="Times New Roman,serif" font-size="14.00">x_y_only</text>
</a>
</g>
</g>
<!-- root_18&#45;&gt;x_y_only_19 -->
<g id="edge1" class="edge">
<title>root_18&#45;&gt;x_y_only_19</title>
<path fill="none" stroke="black" d="M54.16,-153C61.99,-153 70.88,-153 79.81,-153"/>
<polygon fill="black" stroke="black" points="79.86,-156.5 89.86,-153 79.86,-149.5 79.86,-156.5"/>
</g>
<!-- coords_20 -->
<g id="node3" class="node">
<title>coords_20</title>
<g id="a_node3"><a xlink:href="javascript:s=&quot;\(&#x27;x_y_only&#x27;,\ &#x27;coords&#x27;\)\nCoordinates&quot;; console.log(s); alert(s);" xlink:title="Coordinates">
<ellipse fill="none" stroke="black" cx="252.09" cy="-207" rx="36.29" ry="18"/>
<text text-anchor="middle" x="252.09" y="-203.3" font-family="Times New Roman,serif" font-size="14.00">coords</text>
</a>
</g>
</g>
<!-- x_y_only_19&#45;&gt;coords_20 -->
<g id="edge2" class="edge">
<title>x_y_only_19&#45;&gt;coords_20</title>
<path fill="none" stroke="black" d="M164.63,-166.49C180.12,-173.75 199.36,-182.76 215.76,-190.44"/>
<polygon fill="black" stroke="black" points="214.49,-193.72 225.03,-194.79 217.46,-187.38 214.49,-193.72"/>
</g>
<!-- x_31 -->
<g id="node14" class="node">
<title>x_31</title>
<g id="a_node14"><a xlink:href="javascript:s=&quot;\(&#x27;x_y_only&#x27;,\ &#x27;x&#x27;\)\nText&quot;; console.log(s); alert(s);" xlink:title="Text">
<ellipse fill="none" stroke="black" cx="252.09" cy="-153" rx="27" ry="18"/>
<text text-anchor="middle" x="252.09" y="-149.3" font-family="Times New Roman,serif" font-size="14.00">x</text>
</a>
</g>
</g>
<!-- x_y_only_19&#45;&gt;x_31 -->
<g id="edge13" class="edge">
<title>x_y_only_19&#45;&gt;x_31</title>
<path fill="none" stroke="black" d="M179.74,-153C191.31,-153 203.66,-153 214.78,-153"/>
<polygon fill="black" stroke="black" points="215,-156.5 225,-153 215,-149.5 215,-156.5"/>
</g>
<!-- y_32 -->
<g id="node15" class="node">
<title>y_32</title>
<g id="a_node15"><a xlink:href="javascript:s=&quot;\(&#x27;x_y_only&#x27;,\ &#x27;y&#x27;\)\nText&quot;; console.log(s); alert(s);" xlink:title="Text">
<ellipse fill="none" stroke="black" cx="252.09" cy="-99" rx="27" ry="18"/>
<text text-anchor="middle" x="252.09" y="-95.3" font-family="Times New Roman,serif" font-size="14.00">y</text>
</a>
</g>
</g>
<!-- x_y_only_19&#45;&gt;y_32 -->
<g id="edge14" class="edge">
<title>x_y_only_19&#45;&gt;y_32</title>
<path fill="none" stroke="black" d="M164.63,-139.51C181.62,-131.55 203.11,-121.48 220.42,-113.37"/>
<polygon fill="black" stroke="black" points="221.98,-116.51 229.55,-109.09 219.01,-110.17 221.98,-116.51"/>
</g>
<!-- origin_21 -->
<g id="node4" class="node">
<title>origin_21</title>
<g id="a_node4"><a xlink:href="javascript:s=&quot;\(&#x27;x_y_only&#x27;,\ &#x27;coords&#x27;,\ &#x27;origin&#x27;\)\nCoordinatesCage&quot;; console.log(s); alert(s);" xlink:title="CoordinatesCage">
<ellipse fill="none" stroke="black" cx="365.43" cy="-288" rx="31.4" ry="18"/>
<text text-anchor="middle" x="365.43" y="-284.3" font-family="Times New Roman,serif" font-size="14.00">origin</text>
</a>
</g>
</g>
<!-- coords_20&#45;&gt;origin_21 -->
<g id="edge3" class="edge">
<title>coords_20&#45;&gt;origin_21</title>
<path fill="none" stroke="black" d="M272.58,-222.18C286.81,-233.16 306.66,-248.25 324.49,-261 328.01,-263.52 331.74,-266.13 335.45,-268.68"/>
<polygon fill="black" stroke="black" points="333.73,-271.74 343.97,-274.47 337.67,-265.95 333.73,-271.74"/>
</g>
<!-- x_arrow_22 -->
<g id="node5" class="node">
<title>x_arrow_22</title>
<g id="a_node5"><a xlink:href="javascript:s=&quot;\(&#x27;x_y_only&#x27;,\ &#x27;coords&#x27;,\ &#x27;x_arrow&#x27;\)\nArrow&quot;; console.log(s); alert(s);" xlink:title="Arrow">
<ellipse fill="none" stroke="black" cx="365.43" cy="-234" rx="40.89" ry="18"/>
<text text-anchor="middle" x="365.43" y="-230.3" font-family="Times New Roman,serif" font-size="14.00">x_arrow</text>
</a>
</g>
</g>
<!-- coords_20&#45;&gt;x_arrow_22 -->
<g id="edge4" class="edge">
<title>coords_20&#45;&gt;x_arrow_22</title>
<path fill="none" stroke="black" d="M285,-214.74C295.63,-217.32 307.69,-220.24 319.15,-223.02"/>
<polygon fill="black" stroke="black" points="318.46,-226.45 329,-225.41 320.11,-219.65 318.46,-226.45"/>
</g>
<!-- y_arrow_25 -->
<g id="node8" class="node">
<title>y_arrow_25</title>
<g id="a_node8"><a xlink:href="javascript:s=&quot;\(&#x27;x_y_only&#x27;,\ &#x27;coords&#x27;,\ &#x27;y_arrow&#x27;\)\nArrow&quot;; console.log(s); alert(s);" xlink:title="Arrow">
<ellipse fill="none" stroke="black" cx="365.43" cy="-180" rx="40.89" ry="18"/>
<text text-anchor="middle" x="365.43" y="-176.3" font-family="Times New Roman,serif" font-size="14.00">y_arrow</text>
</a>
</g>
</g>
<!-- coords_20&#45;&gt;y_arrow_25 -->
<g id="edge7" class="edge">
<title>coords_20&#45;&gt;y_arrow_25</title>
<path fill="none" stroke="black" d="M285,-199.26C295.63,-196.68 307.69,-193.76 319.15,-190.98"/>
<polygon fill="black" stroke="black" points="320.11,-194.35 329,-188.59 318.46,-187.55 320.11,-194.35"/>
</g>
<!-- z_arrow_28 -->
<g id="node11" class="node">
<title>z_arrow_28</title>
<g id="a_node11"><a xlink:href="javascript:s=&quot;\(&#x27;x_y_only&#x27;,\ &#x27;coords&#x27;,\ &#x27;z_arrow&#x27;\)\nArrow&quot;; console.log(s); alert(s);" xlink:title="Arrow">
<ellipse fill="none" stroke="black" cx="365.43" cy="-72" rx="40.09" ry="18"/>
<text text-anchor="middle" x="365.43" y="-68.3" font-family="Times New Roman,serif" font-size="14.00">z_arrow</text>
</a>
</g>
</g>
<!-- coords_20&#45;&gt;z_arrow_28 -->
<g id="edge10" class="edge">
<title>coords_20&#45;&gt;z_arrow_28</title>
<path fill="none" stroke="black" d="M274.2,-192.58C279.13,-188.76 284.2,-184.46 288.49,-180 312.65,-154.88 334.9,-121.5 348.99,-98.54"/>
<polygon fill="black" stroke="black" points="352.16,-100.05 354.33,-89.68 346.16,-96.44 352.16,-100.05"/>
</g>
<!-- stem_23 -->
<g id="node6" class="node">
<title>stem_23</title>
<g id="a_node6"><a xlink:href="javascript:s=&quot;\(&#x27;x_y_only&#x27;,\ &#x27;coords&#x27;,\ &#x27;x_arrow&#x27;,\ &#x27;stem&#x27;\)\nCone&quot;; console.log(s); alert(s);" xlink:title="Cone">
<ellipse fill="none" stroke="black" cx="470.33" cy="-288" rx="27.9" ry="18"/>
<text text-anchor="middle" x="470.33" y="-284.3" font-family="Times New Roman,serif" font-size="14.00">stem</text>
</a>
</g>
</g>
<!-- x_arrow_22&#45;&gt;stem_23 -->
<g id="edge5" class="edge">
<title>x_arrow_22&#45;&gt;stem_23</title>
<path fill="none" stroke="black" d="M392.4,-247.63C406.56,-255.06 424.17,-264.3 438.96,-272.07"/>
<polygon fill="black" stroke="black" points="437.74,-275.37 448.22,-276.92 440.99,-269.18 437.74,-275.37"/>
</g>
<!-- head_24 -->
<g id="node7" class="node">
<title>head_24</title>
<g id="a_node7"><a xlink:href="javascript:s=&quot;\(&#x27;x_y_only&#x27;,\ &#x27;coords&#x27;,\ &#x27;x_arrow&#x27;,\ &#x27;head&#x27;\)\nCone&quot;; console.log(s); alert(s);" xlink:title="Cone">
<ellipse fill="none" stroke="black" cx="470.33" cy="-234" rx="27.9" ry="18"/>
<text text-anchor="middle" x="470.33" y="-230.3" font-family="Times New Roman,serif" font-size="14.00">head</text>
</a>
</g>
</g>
<!-- x_arrow_22&#45;&gt;head_24 -->
<g id="edge6" class="edge">
<title>x_arrow_22&#45;&gt;head_24</title>
<path fill="none" stroke="black" d="M406.51,-234C414.92,-234 423.76,-234 432.06,-234"/>
<polygon fill="black" stroke="black" points="432.22,-237.5 442.22,-234 432.22,-230.5 432.22,-237.5"/>
</g>
<!-- stem_26 -->
<g id="node9" class="node">
<title>stem_26</title>
<g id="a_node9"><a xlink:href="javascript:s=&quot;\(&#x27;x_y_only&#x27;,\ &#x27;coords&#x27;,\ &#x27;y_arrow&#x27;,\ &#x27;stem&#x27;\)\nCone&quot;; console.log(s); alert(s);" xlink:title="Cone">
<ellipse fill="none" stroke="black" cx="470.33" cy="-180" rx="27.9" ry="18"/>
<text text-anchor="middle" x="470.33" y="-176.3" font-family="Times New Roman,serif" font-size="14.00">stem</text>
</a>
</g>
</g>
<!-- y_arrow_25&#45;&gt;stem_26 -->
<g id="edge8" class="edge">
<title>y_arrow_25&#45;&gt;stem_26</title>
<path fill="none" stroke="black" d="M406.51,-180C414.92,-180 423.76,-180 432.06,-180"/>
<polygon fill="black" stroke="black" points="432.22,-183.5 442.22,-180 432.22,-176.5 432.22,-183.5"/>
</g>
<!-- head_27 -->
<g id="node10" class="node">
<title>head_27</title>
<g id="a_node10"><a xlink:href="javascript:s=&quot;\(&#x27;x_y_only&#x27;,\ &#x27;coords&#x27;,\ &#x27;y_arrow&#x27;,\ &#x27;head&#x27;\)\nCone&quot;; console.log(s); alert(s);" xlink:title="Cone">
<ellipse fill="none" stroke="black" cx="470.33" cy="-126" rx="27.9" ry="18"/>
<text text-anchor="middle" x="470.33" y="-122.3" font-family="Times New Roman,serif" font-size="14.00">head</text>
</a>
</g>
</g>
<!-- y_arrow_25&#45;&gt;head_27 -->
<g id="edge9" class="edge">
<title>y_arrow_25&#45;&gt;head_27</title>
<path fill="none" stroke="black" d="M392.4,-166.37C406.56,-158.94 424.17,-149.7 438.96,-141.93"/>
<polygon fill="black" stroke="black" points="440.99,-144.82 448.22,-137.08 437.74,-138.63 440.99,-144.82"/>
</g>
<!-- stem_29 -->
<g id="node12" class="node">
<title>stem_29</title>
<g id="a_node12"><a xlink:href="javascript:s=&quot;\(&#x27;x_y_only&#x27;,\ &#x27;coords&#x27;,\ &#x27;z_arrow&#x27;,\ &#x27;stem&#x27;\)\nCone&quot;; console.log(s); alert(s);" xlink:title="Cone">
<ellipse fill="none" stroke="black" cx="470.33" cy="-72" rx="27.9" ry="18"/>
<text text-anchor="middle" x="470.33" y="-68.3" font-family="Times New Roman,serif" font-size="14.00">stem</text>
</a>
</g>
</g>
<!-- z_arrow_28&#45;&gt;stem_29 -->
<g id="edge11" class="edge">
<title>z_arrow_28&#45;&gt;stem_29</title>
<path fill="none" stroke="black" d="M405.92,-72C414.54,-72 423.64,-72 432.17,-72"/>
<polygon fill="black" stroke="black" points="432.22,-75.5 442.22,-72 432.22,-68.5 432.22,-75.5"/>
</g>
<!-- head_30 -->
<g id="node13" class="node">
<title>head_30</title>
<g id="a_node13"><a xlink:href="javascript:s=&quot;\(&#x27;x_y_only&#x27;,\ &#x27;coords&#x27;,\ &#x27;z_arrow&#x27;,\ &#x27;head&#x27;\)\nCone&quot;; console.log(s); alert(s);" xlink:title="Cone">
<ellipse fill="none" stroke="black" cx="470.33" cy="-18" rx="27.9" ry="18"/>
<text text-anchor="middle" x="470.33" y="-14.3" font-family="Times New Roman,serif" font-size="14.00">head</text>
</a>
</g>
</g>
<!-- z_arrow_28&#45;&gt;head_30 -->
<g id="edge12" class="edge">
<title>z_arrow_28&#45;&gt;head_30</title>
<path fill="none" stroke="black" d="M392.13,-58.51C406.43,-51.01 424.29,-41.63 439.24,-33.79"/>
<polygon fill="black" stroke="black" points="440.88,-36.88 448.11,-29.14 437.63,-30.68 440.88,-36.88"/>
</g>
</g>
</svg>
