<?xml version="1.0" encoding="UTF-8" standalone="no"?>
<!DOCTYPE svg PUBLIC "-//W3C//DTD SVG 1.1//EN"
 "http://www.w3.org/Graphics/SVG/1.1/DTD/svg11.dtd">
<!-- Generated by graphviz version 5.0.0 (20220707.1540)
 -->
<!-- Title: default Pages: 1 -->
<svg width="378pt" height="314pt"
 viewBox="0.00 0.00 377.98 314.00" xmlns="http://www.w3.org/2000/svg" xmlns:xlink="http://www.w3.org/1999/xlink">
<g id="graph0" class="graph" transform="scale(1 1) rotate(0) translate(4 310)">
<title>default</title>
<polygon fill="white" stroke="transparent" points="-4,4 -4,-310 373.98,-310 373.98,4 -4,4"/>
<!-- root_761 -->
<g id="node1" class="node">
<title>root_761</title>
<g id="a_node1"><a xlink:href="javascript:s=&quot;\(\)\nNone&quot;; console.log(s); alert(s);" xlink:title="root">
<ellipse fill="none" stroke="black" cx="27" cy="-207" rx="27" ry="18"/>
<text text-anchor="middle" x="27" y="-203.3" font-family="Times New Roman,serif" font-size="14.00">root</text>
</a>
</g>
</g>
<!-- default_762 -->
<g id="node2" class="node">
<title>default_762</title>
<g id="a_node2"><a xlink:href="javascript:s=&quot;\(&#x27;default&#x27;,\)\nCoordinates&quot;; console.log(s); alert(s);" xlink:title="Coordinates">
<ellipse fill="none" stroke="black" cx="125.1" cy="-207" rx="35.19" ry="18"/>
<text text-anchor="middle" x="125.1" y="-203.3" font-family="Times New Roman,serif" font-size="14.00">default</text>
</a>
</g>
</g>
<!-- root_761&#45;&gt;default_762 -->
<g id="edge1" class="edge">
<title>root_761&#45;&gt;default_762</title>
<path fill="none" stroke="black" d="M54.01,-207C61.92,-207 70.84,-207 79.61,-207"/>
<polygon fill="black" stroke="black" points="79.76,-210.5 89.76,-207 79.76,-203.5 79.76,-210.5"/>
</g>
<!-- origin_763 -->
<g id="node3" class="node">
<title>origin_763</title>
<g id="a_node3"><a xlink:href="javascript:s=&quot;\(&#x27;default&#x27;,\ &#x27;origin&#x27;\)\nCoordinatesCage&quot;; console.log(s); alert(s);" xlink:title="CoordinatesCage">
<ellipse fill="none" stroke="black" cx="237.14" cy="-288" rx="31.4" ry="18"/>
<text text-anchor="middle" x="237.14" y="-284.3" font-family="Times New Roman,serif" font-size="14.00">origin</text>
</a>
</g>
</g>
<!-- default_762&#45;&gt;origin_763 -->
<g id="edge2" class="edge">
<title>default_762&#45;&gt;origin_763</title>
<path fill="none" stroke="black" d="M144.9,-221.99C158.88,-233.01 178.51,-248.23 196.19,-261 199.71,-263.54 203.43,-266.15 207.14,-268.71"/>
<polygon fill="black" stroke="black" points="205.41,-271.77 215.65,-274.51 209.36,-265.98 205.41,-271.77"/>
</g>
<!-- x_arrow_764 -->
<g id="node4" class="node">
<title>x_arrow_764</title>
<g id="a_node4"><a xlink:href="javascript:s=&quot;\(&#x27;default&#x27;,\ &#x27;x_arrow&#x27;\)\nArrow&quot;; console.log(s); alert(s);" xlink:title="Arrow">
<ellipse fill="none" stroke="black" cx="237.14" cy="-234" rx="40.89" ry="18"/>
<text text-anchor="middle" x="237.14" y="-230.3" font-family="Times New Roman,serif" font-size="14.00">x_arrow</text>
</a>
</g>
</g>
<!-- default_762&#45;&gt;x_arrow_764 -->
<g id="edge3" class="edge">
<title>default_762&#45;&gt;x_arrow_764</title>
<path fill="none" stroke="black" d="M157.04,-214.59C167.56,-217.17 179.55,-220.12 190.95,-222.91"/>
<polygon fill="black" stroke="black" points="190.23,-226.34 200.77,-225.32 191.89,-219.54 190.23,-226.34"/>
</g>
<!-- y_arrow_767 -->
<g id="node7" class="node">
<title>y_arrow_767</title>
<g id="a_node7"><a xlink:href="javascript:s=&quot;\(&#x27;default&#x27;,\ &#x27;y_arrow&#x27;\)\nArrow&quot;; console.log(s); alert(s);" xlink:title="Arrow">
<ellipse fill="none" stroke="black" cx="237.14" cy="-180" rx="40.89" ry="18"/>
<text text-anchor="middle" x="237.14" y="-176.3" font-family="Times New Roman,serif" font-size="14.00">y_arrow</text>
</a>
</g>
</g>
<!-- default_762&#45;&gt;y_arrow_767 -->
<g id="edge6" class="edge">
<title>default_762&#45;&gt;y_arrow_767</title>
<path fill="none" stroke="black" d="M157.04,-199.41C167.56,-196.83 179.55,-193.88 190.95,-191.09"/>
<polygon fill="black" stroke="black" points="191.89,-194.46 200.77,-188.68 190.23,-187.66 191.89,-194.46"/>
</g>
<!-- z_arrow_770 -->
<g id="node10" class="node">
<title>z_arrow_770</title>
<g id="a_node10"><a xlink:href="javascript:s=&quot;\(&#x27;default&#x27;,\ &#x27;z_arrow&#x27;\)\nArrow&quot;; console.log(s); alert(s);" xlink:title="Arrow">
<ellipse fill="none" stroke="black" cx="237.14" cy="-72" rx="40.09" ry="18"/>
<text text-anchor="middle" x="237.14" y="-68.3" font-family="Times New Roman,serif" font-size="14.00">z_arrow</text>
</a>
</g>
</g>
<!-- default_762&#45;&gt;z_arrow_770 -->
<g id="edge9" class="edge">
<title>default_762&#45;&gt;z_arrow_770</title>
<path fill="none" stroke="black" d="M139.59,-190.45C158.63,-167.09 193.52,-124.29 215.73,-97.03"/>
<polygon fill="black" stroke="black" points="218.58,-99.08 222.19,-89.11 213.16,-94.65 218.58,-99.08"/>
</g>
<!-- stem_765 -->
<g id="node5" class="node">
<title>stem_765</title>
<g id="a_node5"><a xlink:href="javascript:s=&quot;\(&#x27;default&#x27;,\ &#x27;x_arrow&#x27;,\ &#x27;stem&#x27;\)\nCone&quot;; console.log(s); alert(s);" xlink:title="Cone">
<ellipse fill="none" stroke="black" cx="342.03" cy="-288" rx="27.9" ry="18"/>
<text text-anchor="middle" x="342.03" y="-284.3" font-family="Times New Roman,serif" font-size="14.00">stem</text>
</a>
</g>
</g>
<!-- x_arrow_764&#45;&gt;stem_765 -->
<g id="edge4" class="edge">
<title>x_arrow_764&#45;&gt;stem_765</title>
<path fill="none" stroke="black" d="M264.1,-247.63C278.27,-255.06 295.88,-264.3 310.67,-272.07"/>
<polygon fill="black" stroke="black" points="309.44,-275.37 319.92,-276.92 312.7,-269.18 309.44,-275.37"/>
</g>
<!-- head_766 -->
<g id="node6" class="node">
<title>head_766</title>
<g id="a_node6"><a xlink:href="javascript:s=&quot;\(&#x27;default&#x27;,\ &#x27;x_arrow&#x27;,\ &#x27;head&#x27;\)\nCone&quot;; console.log(s); alert(s);" xlink:title="Cone">
<ellipse fill="none" stroke="black" cx="342.03" cy="-234" rx="27.9" ry="18"/>
<text text-anchor="middle" x="342.03" y="-230.3" font-family="Times New Roman,serif" font-size="14.00">head</text>
</a>
</g>
</g>
<!-- x_arrow_764&#45;&gt;head_766 -->
<g id="edge5" class="edge">
<title>x_arrow_764&#45;&gt;head_766</title>
<path fill="none" stroke="black" d="M278.22,-234C286.63,-234 295.47,-234 303.77,-234"/>
<polygon fill="black" stroke="black" points="303.93,-237.5 313.93,-234 303.93,-230.5 303.93,-237.5"/>
</g>
<!-- stem_768 -->
<g id="node8" class="node">
<title>stem_768</title>
<g id="a_node8"><a xlink:href="javascript:s=&quot;\(&#x27;default&#x27;,\ &#x27;y_arrow&#x27;,\ &#x27;stem&#x27;\)\nCone&quot;; console.log(s); alert(s);" xlink:title="Cone">
<ellipse fill="none" stroke="black" cx="342.03" cy="-180" rx="27.9" ry="18"/>
<text text-anchor="middle" x="342.03" y="-176.3" font-family="Times New Roman,serif" font-size="14.00">stem</text>
</a>
</g>
</g>
<!-- y_arrow_767&#45;&gt;stem_768 -->
<g id="edge7" class="edge">
<title>y_arrow_767&#45;&gt;stem_768</title>
<path fill="none" stroke="black" d="M278.22,-180C286.63,-180 295.47,-180 303.77,-180"/>
<polygon fill="black" stroke="black" points="303.93,-183.5 313.93,-180 303.93,-176.5 303.93,-183.5"/>
</g>
<!-- head_769 -->
<g id="node9" class="node">
<title>head_769</title>
<g id="a_node9"><a xlink:href="javascript:s=&quot;\(&#x27;default&#x27;,\ &#x27;y_arrow&#x27;,\ &#x27;head&#x27;\)\nCone&quot;; console.log(s); alert(s);" xlink:title="Cone">
<ellipse fill="none" stroke="black" cx="342.03" cy="-126" rx="27.9" ry="18"/>
<text text-anchor="middle" x="342.03" y="-122.3" font-family="Times New Roman,serif" font-size="14.00">head</text>
</a>
</g>
</g>
<!-- y_arrow_767&#45;&gt;head_769 -->
<g id="edge8" class="edge">
<title>y_arrow_767&#45;&gt;head_769</title>
<path fill="none" stroke="black" d="M264.1,-166.37C278.27,-158.94 295.88,-149.7 310.67,-141.93"/>
<polygon fill="black" stroke="black" points="312.7,-144.82 319.92,-137.08 309.44,-138.63 312.7,-144.82"/>
</g>
<!-- stem_771 -->
<g id="node11" class="node">
<title>stem_771</title>
<g id="a_node11"><a xlink:href="javascript:s=&quot;\(&#x27;default&#x27;,\ &#x27;z_arrow&#x27;,\ &#x27;stem&#x27;\)\nCone&quot;; console.log(s); alert(s);" xlink:title="Cone">
<ellipse fill="none" stroke="black" cx="342.03" cy="-72" rx="27.9" ry="18"/>
<text text-anchor="middle" x="342.03" y="-68.3" font-family="Times New Roman,serif" font-size="14.00">stem</text>
</a>
</g>
</g>
<!-- z_arrow_770&#45;&gt;stem_771 -->
<g id="edge10" class="edge">
<title>z_arrow_770&#45;&gt;stem_771</title>
<path fill="none" stroke="black" d="M277.63,-72C286.25,-72 295.35,-72 303.87,-72"/>
<polygon fill="black" stroke="black" points="303.92,-75.5 313.92,-72 303.92,-68.5 303.92,-75.5"/>
</g>
<!-- head_772 -->
<g id="node12" class="node">
<title>head_772</title>
<g id="a_node12"><a xlink:href="javascript:s=&quot;\(&#x27;default&#x27;,\ &#x27;z_arrow&#x27;,\ &#x27;head&#x27;\)\nCone&quot;; console.log(s); alert(s);" xlink:title="Cone">
<ellipse fill="none" stroke="black" cx="342.03" cy="-18" rx="27.9" ry="18"/>
<text text-anchor="middle" x="342.03" y="-14.3" font-family="Times New Roman,serif" font-size="14.00">head</text>
</a>
</g>
</g>
<!-- z_arrow_770&#45;&gt;head_772 -->
<g id="edge11" class="edge">
<title>z_arrow_770&#45;&gt;head_772</title>
<path fill="none" stroke="black" d="M263.84,-58.51C278.13,-51.01 296,-41.63 310.95,-33.79"/>
<polygon fill="black" stroke="black" points="312.59,-36.88 319.82,-29.14 309.34,-30.68 312.59,-36.88"/>
</g>
</g>
</svg>
