solid OpenSCAD_Model
  facet normal 0.9945218953682733 0.10452846326765322 0
    outer loop
      vertex 30 0 50
      vertex 29.34442802201417 6.237350724532781 0
      vertex 29.34442802201417 6.237350724532781 50
    endloop
  endfacet
  facet normal 0.9945218953682733 0.10452846326765322 0
    outer loop
      vertex 29.34442802201417 6.237350724532781 0
      vertex 30 0 50
      vertex 30 0 0
    endloop
  endfacet
  facet normal 0.9510565162951535 0.3090169943749476 0
    outer loop
      vertex 29.34442802201417 6.237350724532781 50
      vertex 27.406363729278027 12.202099292274006 0
      vertex 27.406363729278027 12.202099292274006 50
    endloop
  endfacet
  facet normal 0.9510565162951535 0.3090169943749476 0
    outer loop
      vertex 27.406363729278027 12.202099292274006 0
      vertex 29.34442802201417 6.237350724532781 50
      vertex 29.34442802201417 6.237350724532781 0
    endloop
  endfacet
  facet normal 0.8660254037844387 0.4999999999999997 0
    outer loop
      vertex 27.406363729278027 12.202099292274006 50
      vertex 24.270509831248425 17.633557568774194 0
      vertex 24.270509831248425 17.633557568774194 50
    endloop
  endfacet
  facet normal 0.8660254037844387 0.4999999999999997 0
    outer loop
      vertex 24.270509831248425 17.633557568774194 0
      vertex 27.406363729278027 12.202099292274006 50
      vertex 27.406363729278027 12.202099292274006 0
    endloop
  endfacet
  facet normal 0.7431448254773941 0.6691306063588585 0
    outer loop
      vertex 24.270509831248425 17.633557568774194 50
      vertex 20.073918190765745 22.294344764321828 0
      vertex 20.073918190765745 22.294344764321828 50
    endloop
  endfacet
  facet normal 0.7431448254773941 0.6691306063588585 0
    outer loop
      vertex 20.073918190765745 22.294344764321828 0
      vertex 24.270509831248425 17.633557568774194 50
      vertex 24.270509831248425 17.633557568774194 0
    endloop
  endfacet
  facet normal 0.5877852522924728 0.8090169943749476 0
    outer loop
      vertex 20.073918190765745 22.294344764321828 0
      vertex 15 25.980762113533157 50
      vertex 20.073918190765745 22.294344764321828 50
    endloop
  endfacet
  facet normal 0.5877852522924728 0.8090169943749476 0
    outer loop
      vertex 15 25.980762113533157 50
      vertex 20.073918190765745 22.294344764321828 0
      vertex 15 25.980762113533157 0
    endloop
  endfacet
  facet normal 0.4067366430758004 0.9135454576426009 0
    outer loop
      vertex 15 25.980762113533157 0
      vertex 9.270509831248422 28.531695488854606 50
      vertex 15 25.980762113533157 50
    endloop
  endfacet
  facet normal 0.4067366430758004 0.9135454576426009 0
    outer loop
      vertex 9.270509831248422 28.531695488854606 50
      vertex 15 25.980762113533157 0
      vertex 9.270509831248422 28.531695488854606 0
    endloop
  endfacet
  facet normal 0.2079116908177596 0.9781476007338056 0
    outer loop
      vertex 9.270509831248422 28.531695488854606 0
      vertex 3.135853898029604 29.8356568610482 50
      vertex 9.270509831248422 28.531695488854606 50
    endloop
  endfacet
  facet normal 0.2079116908177596 0.9781476007338056 0
    outer loop
      vertex 3.135853898029604 29.8356568610482 50
      vertex 9.270509831248422 28.531695488854606 0
      vertex 3.135853898029604 29.8356568610482 0
    endloop
  endfacet
  facet normal 0 1 0
    outer loop
      vertex 3.135853898029604 29.8356568610482 0
      vertex -3.135853898029604 29.8356568610482 50
      vertex 3.135853898029604 29.8356568610482 50
    endloop
  endfacet
  facet normal 0 1 0
    outer loop
      vertex -3.135853898029604 29.8356568610482 50
      vertex 3.135853898029604 29.8356568610482 0
      vertex -3.135853898029604 29.8356568610482 0
    endloop
  endfacet
  facet normal -0.2079116908177596 0.9781476007338056 0
    outer loop
      vertex -3.135853898029604 29.8356568610482 0
      vertex -9.270509831248422 28.531695488854606 50
      vertex -3.135853898029604 29.8356568610482 50
    endloop
  endfacet
  facet normal -0.2079116908177596 0.9781476007338056 0
    outer loop
      vertex -9.270509831248422 28.531695488854606 50
      vertex -3.135853898029604 29.8356568610482 0
      vertex -9.270509831248422 28.531695488854606 0
    endloop
  endfacet
  facet normal -0.4067366430758004 0.9135454576426009 0
    outer loop
      vertex -9.270509831248422 28.531695488854606 0
      vertex -15 25.980762113533157 50
      vertex -9.270509831248422 28.531695488854606 50
    endloop
  endfacet
  facet normal -0.4067366430758004 0.9135454576426009 0
    outer loop
      vertex -15 25.980762113533157 50
      vertex -9.270509831248422 28.531695488854606 0
      vertex -15 25.980762113533157 0
    endloop
  endfacet
  facet normal -0.5877852522924728 0.8090169943749476 0
    outer loop
      vertex -15 25.980762113533157 0
      vertex -20.073918190765745 22.294344764321828 50
      vertex -15 25.980762113533157 50
    endloop
  endfacet
  facet normal -0.5877852522924728 0.8090169943749476 0
    outer loop
      vertex -20.073918190765745 22.294344764321828 50
      vertex -15 25.980762113533157 0
      vertex -20.073918190765745 22.294344764321828 0
    endloop
  endfacet
  facet normal -0.7431448254773941 0.6691306063588585 0
    outer loop
      vertex -24.270509831248425 17.633557568774194 0
      vertex -20.073918190765745 22.294344764321828 50
      vertex -20.073918190765745 22.294344764321828 0
    endloop
  endfacet
  facet normal -0.7431448254773941 0.6691306063588585 0
    outer loop
      vertex -20.073918190765745 22.294344764321828 50
      vertex -24.270509831248425 17.633557568774194 0
      vertex -24.270509831248425 17.633557568774194 50
    endloop
  endfacet
  facet normal -0.8660254037844387 0.4999999999999997 0
    outer loop
      vertex -27.406363729278027 12.202099292274006 0
      vertex -24.270509831248425 17.633557568774194 50
      vertex -24.270509831248425 17.633557568774194 0
    endloop
  endfacet
  facet normal -0.8660254037844387 0.4999999999999997 0
    outer loop
      vertex -24.270509831248425 17.633557568774194 50
      vertex -27.406363729278027 12.202099292274006 0
      vertex -27.406363729278027 12.202099292274006 50
    endloop
  endfacet
  facet normal -0.9510565162951535 0.3090169943749476 0
    outer loop
      vertex -29.34442802201417 6.237350724532781 0
      vertex -27.406363729278027 12.202099292274006 50
      vertex -27.406363729278027 12.202099292274006 0
    endloop
  endfacet
  facet normal -0.9510565162951535 0.3090169943749476 0
    outer loop
      vertex -27.406363729278027 12.202099292274006 50
      vertex -29.34442802201417 6.237350724532781 0
      vertex -29.34442802201417 6.237350724532781 50
    endloop
  endfacet
  facet normal -0.9945218953682733 0.10452846326765322 0
    outer loop
      vertex -30 0 0
      vertex -29.34442802201417 6.237350724532781 50
      vertex -29.34442802201417 6.237350724532781 0
    endloop
  endfacet
  facet normal -0.9945218953682733 0.10452846326765322 0
    outer loop
      vertex -29.34442802201417 6.237350724532781 50
      vertex -30 0 0
      vertex -30 0 50
    endloop
  endfacet
  facet normal -0.9945218953682733 -0.10452846326765322 0
    outer loop
      vertex -29.34442802201417 -6.237350724532781 0
      vertex -30 0 50
      vertex -30 0 0
    endloop
  endfacet
  facet normal -0.9945218953682733 -0.10452846326765322 0
    outer loop
      vertex -30 0 50
      vertex -29.34442802201417 -6.237350724532781 0
      vertex -29.34442802201417 -6.237350724532781 50
    endloop
  endfacet
  facet normal -0.9510565162951535 -0.3090169943749476 0
    outer loop
      vertex -27.406363729278027 -12.202099292274006 0
      vertex -29.34442802201417 -6.237350724532781 50
      vertex -29.34442802201417 -6.237350724532781 0
    endloop
  endfacet
  facet normal -0.9510565162951535 -0.3090169943749476 0
    outer loop
      vertex -29.34442802201417 -6.237350724532781 50
      vertex -27.406363729278027 -12.202099292274006 0
      vertex -27.406363729278027 -12.202099292274006 50
    endloop
  endfacet
  facet normal -0.8660254037844387 -0.4999999999999997 0
    outer loop
      vertex -24.270509831248425 -17.633557568774194 0
      vertex -27.406363729278027 -12.202099292274006 50
      vertex -27.406363729278027 -12.202099292274006 0
    endloop
  endfacet
  facet normal -0.8660254037844387 -0.4999999999999997 0
    outer loop
      vertex -27.406363729278027 -12.202099292274006 50
      vertex -24.270509831248425 -17.633557568774194 0
      vertex -24.270509831248425 -17.633557568774194 50
    endloop
  endfacet
  facet normal -0.7431448254773941 -0.6691306063588585 0
    outer loop
      vertex -20.073918190765745 -22.294344764321828 0
      vertex -24.270509831248425 -17.633557568774194 50
      vertex -24.270509831248425 -17.633557568774194 0
    endloop
  endfacet
  facet normal -0.7431448254773941 -0.6691306063588585 0
    outer loop
      vertex -24.270509831248425 -17.633557568774194 50
      vertex -20.073918190765745 -22.294344764321828 0
      vertex -20.073918190765745 -22.294344764321828 50
    endloop
  endfacet
  facet normal -0.5877852522924728 -0.8090169943749476 0
    outer loop
      vertex -20.073918190765745 -22.294344764321828 0
      vertex -15 -25.980762113533157 50
      vertex -20.073918190765745 -22.294344764321828 50
    endloop
  endfacet
  facet normal -0.5877852522924728 -0.8090169943749476 0
    outer loop
      vertex -15 -25.980762113533157 50
      vertex -20.073918190765745 -22.294344764321828 0
      vertex -15 -25.980762113533157 0
    endloop
  endfacet
  facet normal -0.4067366430758004 -0.9135454576426009 0
    outer loop
      vertex -15 -25.980762113533157 0
      vertex -9.270509831248422 -28.531695488854606 50
      vertex -15 -25.980762113533157 50
    endloop
  endfacet
  facet normal -0.4067366430758004 -0.9135454576426009 0
    outer loop
      vertex -9.270509831248422 -28.531695488854606 50
      vertex -15 -25.980762113533157 0
      vertex -9.270509831248422 -28.531695488854606 0
    endloop
  endfacet
  facet normal -0.2079116908177596 -0.9781476007338056 0
    outer loop
      vertex -9.270509831248422 -28.531695488854606 0
      vertex -3.135853898029604 -29.8356568610482 50
      vertex -9.270509831248422 -28.531695488854606 50
    endloop
  endfacet
  facet normal -0.2079116908177596 -0.9781476007338056 0
    outer loop
      vertex -3.135853898029604 -29.8356568610482 50
      vertex -9.270509831248422 -28.531695488854606 0
      vertex -3.135853898029604 -29.8356568610482 0
    endloop
  endfacet
  facet normal 0 -1 0
    outer loop
      vertex -3.135853898029604 -29.8356568610482 0
      vertex 3.135853898029604 -29.8356568610482 50
      vertex -3.135853898029604 -29.8356568610482 50
    endloop
  endfacet
  facet normal 0 -1 0
    outer loop
      vertex 3.135853898029604 -29.8356568610482 50
      vertex -3.135853898029604 -29.8356568610482 0
      vertex 3.135853898029604 -29.8356568610482 0
    endloop
  endfacet
  facet normal 0.2079116908177596 -0.9781476007338056 0
    outer loop
      vertex 3.135853898029604 -29.8356568610482 0
      vertex 9.270509831248422 -28.531695488854606 50
      vertex 3.135853898029604 -29.8356568610482 50
    endloop
  endfacet
  facet normal 0.2079116908177596 -0.9781476007338056 0
    outer loop
      vertex 9.270509831248422 -28.531695488854606 50
      vertex 3.135853898029604 -29.8356568610482 0
      vertex 9.270509831248422 -28.531695488854606 0
    endloop
  endfacet
  facet normal 0.4067366430758004 -0.9135454576426009 0
    outer loop
      vertex 9.270509831248422 -28.531695488854606 0
      vertex 15 -25.980762113533157 50
      vertex 9.270509831248422 -28.531695488854606 50
    endloop
  endfacet
  facet normal 0.4067366430758004 -0.9135454576426009 0
    outer loop
      vertex 15 -25.980762113533157 50
      vertex 9.270509831248422 -28.531695488854606 0
      vertex 15 -25.980762113533157 0
    endloop
  endfacet
  facet normal 0.5877852522924728 -0.8090169943749476 0
    outer loop
      vertex 15 -25.980762113533157 0
      vertex 20.073918190765745 -22.294344764321828 50
      vertex 15 -25.980762113533157 50
    endloop
  endfacet
  facet normal 0.5877852522924728 -0.8090169943749476 0
    outer loop
      vertex 20.073918190765745 -22.294344764321828 50
      vertex 15 -25.980762113533157 0
      vertex 20.073918190765745 -22.294344764321828 0
    endloop
  endfacet
  facet normal 0.7431448254773941 -0.6691306063588585 0
    outer loop
      vertex 20.073918190765745 -22.294344764321828 50
      vertex 24.270509831248425 -17.633557568774194 0
      vertex 24.270509831248425 -17.633557568774194 50
    endloop
  endfacet
  facet normal 0.7431448254773941 -0.6691306063588585 0
    outer loop
      vertex 24.270509831248425 -17.633557568774194 0
      vertex 20.073918190765745 -22.294344764321828 50
      vertex 20.073918190765745 -22.294344764321828 0
    endloop
  endfacet
  facet normal 0.8660254037844387 -0.4999999999999997 0
    outer loop
      vertex 24.270509831248425 -17.633557568774194 50
      vertex 27.406363729278027 -12.202099292274006 0
      vertex 27.406363729278027 -12.202099292274006 50
    endloop
  endfacet
  facet normal 0.8660254037844387 -0.4999999999999997 0
    outer loop
      vertex 27.406363729278027 -12.202099292274006 0
      vertex 24.270509831248425 -17.633557568774194 50
      vertex 24.270509831248425 -17.633557568774194 0
    endloop
  endfacet
  facet normal 0.9510565162951535 -0.3090169943749476 0
    outer loop
      vertex 27.406363729278027 -12.202099292274006 50
      vertex 29.34442802201417 -6.237350724532781 0
      vertex 29.34442802201417 -6.237350724532781 50
    endloop
  endfacet
  facet normal 0.9510565162951535 -0.3090169943749476 0
    outer loop
      vertex 29.34442802201417 -6.237350724532781 0
      vertex 27.406363729278027 -12.202099292274006 50
      vertex 27.406363729278027 -12.202099292274006 0
    endloop
  endfacet
  facet normal 0.9945218953682733 -0.10452846326765322 0
    outer loop
      vertex 29.34442802201417 -6.237350724532781 50
      vertex 30 0 0
      vertex 30 0 50
    endloop
  endfacet
  facet normal 0.9945218953682733 -0.10452846326765322 0
    outer loop
      vertex 30 0 0
      vertex 29.34442802201417 -6.237350724532781 50
      vertex 29.34442802201417 -6.237350724532781 0
    endloop
  endfacet
  facet normal 0 0 -1
    outer loop
      vertex 29.34442802201417 -6.237350724532781 0
      vertex 29.34442802201417 6.237350724532781 0
      vertex 30 0 0
    endloop
  endfacet
  facet normal 0 0 -1
    outer loop
      vertex 27.406363729278027 -12.202099292274006 0
      vertex 29.34442802201417 6.237350724532781 0
      vertex 29.34442802201417 -6.237350724532781 0
    endloop
  endfacet
  facet normal 0 0 -1
    outer loop
      vertex 27.406363729278027 -12.202099292274006 0
      vertex 27.406363729278027 12.202099292274006 0
      vertex 29.34442802201417 6.237350724532781 0
    endloop
  endfacet
  facet normal 0 0 -1
    outer loop
      vertex 24.270509831248425 -17.633557568774194 0
      vertex 27.406363729278027 12.202099292274006 0
      vertex 27.406363729278027 -12.202099292274006 0
    endloop
  endfacet
  facet normal 0 0 -1
    outer loop
      vertex 24.270509831248425 -17.633557568774194 0
      vertex 24.270509831248425 17.633557568774194 0
      vertex 27.406363729278027 12.202099292274006 0
    endloop
  endfacet
  facet normal 0 0 -1
    outer loop
      vertex 20.073918190765745 -22.294344764321828 0
      vertex 24.270509831248425 17.633557568774194 0
      vertex 24.270509831248425 -17.633557568774194 0
    endloop
  endfacet
  facet normal 0 0 -1
    outer loop
      vertex 20.073918190765745 -22.294344764321828 0
      vertex 20.073918190765745 22.294344764321828 0
      vertex 24.270509831248425 17.633557568774194 0
    endloop
  endfacet
  facet normal 0 0 -1
    outer loop
      vertex 15 -25.980762113533157 0
      vertex 20.073918190765745 22.294344764321828 0
      vertex 20.073918190765745 -22.294344764321828 0
    endloop
  endfacet
  facet normal 0 0 -1
    outer loop
      vertex 15 -25.980762113533157 0
      vertex 15 25.980762113533157 0
      vertex 20.073918190765745 22.294344764321828 0
    endloop
  endfacet
  facet normal 0 0 -1
    outer loop
      vertex 9.270509831248422 -28.531695488854606 0
      vertex 15 25.980762113533157 0
      vertex 15 -25.980762113533157 0
    endloop
  endfacet
  facet normal 0 0 -1
    outer loop
      vertex 9.270509831248422 -28.531695488854606 0
      vertex 9.270509831248422 28.531695488854606 0
      vertex 15 25.980762113533157 0
    endloop
  endfacet
  facet normal 0 0 -1
    outer loop
      vertex 3.135853898029604 -29.8356568610482 0
      vertex 9.270509831248422 28.531695488854606 0
      vertex 9.270509831248422 -28.531695488854606 0
    endloop
  endfacet
  facet normal 0 0 -1
    outer loop
      vertex 3.135853898029604 -29.8356568610482 0
      vertex 3.135853898029604 29.8356568610482 0
      vertex 9.270509831248422 28.531695488854606 0
    endloop
  endfacet
  facet normal 0 0 -1
    outer loop
      vertex -3.135853898029604 -29.8356568610482 0
      vertex 3.135853898029604 29.8356568610482 0
      vertex 3.135853898029604 -29.8356568610482 0
    endloop
  endfacet
  facet normal 0 0 -1
    outer loop
      vertex -3.135853898029604 -29.8356568610482 0
      vertex -3.135853898029604 29.8356568610482 0
      vertex 3.135853898029604 29.8356568610482 0
    endloop
  endfacet
  facet normal 0 0 -1
    outer loop
      vertex -9.270509831248422 -28.531695488854606 0
      vertex -3.135853898029604 29.8356568610482 0
      vertex -3.135853898029604 -29.8356568610482 0
    endloop
  endfacet
  facet normal 0 0 -1
    outer loop
      vertex -9.270509831248422 -28.531695488854606 0
      vertex -9.270509831248422 28.531695488854606 0
      vertex -3.135853898029604 29.8356568610482 0
    endloop
  endfacet
  facet normal 0 0 -1
    outer loop
      vertex -15 -25.980762113533157 0
      vertex -9.270509831248422 28.531695488854606 0
      vertex -9.270509831248422 -28.531695488854606 0
    endloop
  endfacet
  facet normal 0 0 -1
    outer loop
      vertex -15 -25.980762113533157 0
      vertex -15 25.980762113533157 0
      vertex -9.270509831248422 28.531695488854606 0
    endloop
  endfacet
  facet normal 0 0 -1
    outer loop
      vertex -20.073918190765745 -22.294344764321828 0
      vertex -15 25.980762113533157 0
      vertex -15 -25.980762113533157 0
    endloop
  endfacet
  facet normal 0 0 -1
    outer loop
      vertex -20.073918190765745 -22.294344764321828 0
      vertex -20.073918190765745 22.294344764321828 0
      vertex -15 25.980762113533157 0
    endloop
  endfacet
  facet normal 0 0 -1
    outer loop
      vertex -24.270509831248425 -17.633557568774194 0
      vertex -20.073918190765745 22.294344764321828 0
      vertex -20.073918190765745 -22.294344764321828 0
    endloop
  endfacet
  facet normal 0 0 -1
    outer loop
      vertex -24.270509831248425 -17.633557568774194 0
      vertex -24.270509831248425 17.633557568774194 0
      vertex -20.073918190765745 22.294344764321828 0
    endloop
  endfacet
  facet normal 0 0 -1
    outer loop
      vertex -27.406363729278027 -12.202099292274006 0
      vertex -24.270509831248425 17.633557568774194 0
      vertex -24.270509831248425 -17.633557568774194 0
    endloop
  endfacet
  facet normal 0 0 -1
    outer loop
      vertex -27.406363729278027 -12.202099292274006 0
      vertex -27.406363729278027 12.202099292274006 0
      vertex -24.270509831248425 17.633557568774194 0
    endloop
  endfacet
  facet normal 0 0 -1
    outer loop
      vertex -29.34442802201417 -6.237350724532781 0
      vertex -27.406363729278027 12.202099292274006 0
      vertex -27.406363729278027 -12.202099292274006 0
    endloop
  endfacet
  facet normal 0 0 -1
    outer loop
      vertex -29.34442802201417 -6.237350724532781 0
      vertex -29.34442802201417 6.237350724532781 0
      vertex -27.406363729278027 12.202099292274006 0
    endloop
  endfacet
  facet normal 0 0 -1
    outer loop
      vertex -29.34442802201417 6.237350724532781 0
      vertex -29.34442802201417 -6.237350724532781 0
      vertex -30 0 0
    endloop
  endfacet
  facet normal 0 0 1
    outer loop
      vertex 29.34442802201417 6.237350724532781 50
      vertex 29.34442802201417 -6.237350724532781 50
      vertex 30 0 50
    endloop
  endfacet
  facet normal 0 0 1
    outer loop
      vertex 27.406363729278027 12.202099292274006 50
      vertex 29.34442802201417 -6.237350724532781 50
      vertex 29.34442802201417 6.237350724532781 50
    endloop
  endfacet
  facet normal 0 0 1
    outer loop
      vertex 27.406363729278027 12.202099292274006 50
      vertex 27.406363729278027 -12.202099292274006 50
      vertex 29.34442802201417 -6.237350724532781 50
    endloop
  endfacet
  facet normal 0 0 1
    outer loop
      vertex 24.270509831248425 17.633557568774194 50
      vertex 27.406363729278027 -12.202099292274006 50
      vertex 27.406363729278027 12.202099292274006 50
    endloop
  endfacet
  facet normal 0 0 1
    outer loop
      vertex 24.270509831248425 17.633557568774194 50
      vertex 24.270509831248425 -17.633557568774194 50
      vertex 27.406363729278027 -12.202099292274006 50
    endloop
  endfacet
  facet normal 0 0 1
    outer loop
      vertex 20.073918190765745 22.294344764321828 50
      vertex 24.270509831248425 -17.633557568774194 50
      vertex 24.270509831248425 17.633557568774194 50
    endloop
  endfacet
  facet normal 0 0 1
    outer loop
      vertex 20.073918190765745 22.294344764321828 50
      vertex 20.073918190765745 -22.294344764321828 50
      vertex 24.270509831248425 -17.633557568774194 50
    endloop
  endfacet
  facet normal 0 0 1
    outer loop
      vertex 15 25.980762113533157 50
      vertex 20.073918190765745 -22.294344764321828 50
      vertex 20.073918190765745 22.294344764321828 50
    endloop
  endfacet
  facet normal 0 0 1
    outer loop
      vertex 15 25.980762113533157 50
      vertex 15 -25.980762113533157 50
      vertex 20.073918190765745 -22.294344764321828 50
    endloop
  endfacet
  facet normal 0 0 1
    outer loop
      vertex 9.270509831248422 28.531695488854606 50
      vertex 15 -25.980762113533157 50
      vertex 15 25.980762113533157 50
    endloop
  endfacet
  facet normal 0 0 1
    outer loop
      vertex 9.270509831248422 28.531695488854606 50
      vertex 9.270509831248422 -28.531695488854606 50
      vertex 15 -25.980762113533157 50
    endloop
  endfacet
  facet normal 0 0 1
    outer loop
      vertex 3.135853898029604 29.8356568610482 50
      vertex 9.270509831248422 -28.531695488854606 50
      vertex 9.270509831248422 28.531695488854606 50
    endloop
  endfacet
  facet normal 0 0 1
    outer loop
      vertex 3.135853898029604 29.8356568610482 50
      vertex 3.135853898029604 -29.8356568610482 50
      vertex 9.270509831248422 -28.531695488854606 50
    endloop
  endfacet
  facet normal 0 0 1
    outer loop
      vertex -3.135853898029604 29.8356568610482 50
      vertex 3.135853898029604 -29.8356568610482 50
      vertex 3.135853898029604 29.8356568610482 50
    endloop
  endfacet
  facet normal 0 0 1
    outer loop
      vertex -3.135853898029604 29.8356568610482 50
      vertex -3.135853898029604 -29.8356568610482 50
      vertex 3.135853898029604 -29.8356568610482 50
    endloop
  endfacet
  facet normal 0 0 1
    outer loop
      vertex -9.270509831248422 28.531695488854606 50
      vertex -3.135853898029604 -29.8356568610482 50
      vertex -3.135853898029604 29.8356568610482 50
    endloop
  endfacet
  facet normal 0 0 1
    outer loop
      vertex -9.270509831248422 28.531695488854606 50
      vertex -9.270509831248422 -28.531695488854606 50
      vertex -3.135853898029604 -29.8356568610482 50
    endloop
  endfacet
  facet normal 0 0 1
    outer loop
      vertex -15 25.980762113533157 50
      vertex -9.270509831248422 -28.531695488854606 50
      vertex -9.270509831248422 28.531695488854606 50
    endloop
  endfacet
  facet normal 0 0 1
    outer loop
      vertex -15 25.980762113533157 50
      vertex -15 -25.980762113533157 50
      vertex -9.270509831248422 -28.531695488854606 50
    endloop
  endfacet
  facet normal 0 0 1
    outer loop
      vertex -20.073918190765745 22.294344764321828 50
      vertex -15 -25.980762113533157 50
      vertex -15 25.980762113533157 50
    endloop
  endfacet
  facet normal 0 0 1
    outer loop
      vertex -20.073918190765745 22.294344764321828 50
      vertex -20.073918190765745 -22.294344764321828 50
      vertex -15 -25.980762113533157 50
    endloop
  endfacet
  facet normal 0 0 1
    outer loop
      vertex -24.270509831248425 17.633557568774194 50
      vertex -20.073918190765745 -22.294344764321828 50
      vertex -20.073918190765745 22.294344764321828 50
    endloop
  endfacet
  facet normal 0 0 1
    outer loop
      vertex -24.270509831248425 17.633557568774194 50
      vertex -24.270509831248425 -17.633557568774194 50
      vertex -20.073918190765745 -22.294344764321828 50
    endloop
  endfacet
  facet normal 0 0 1
    outer loop
      vertex -27.406363729278027 12.202099292274006 50
      vertex -24.270509831248425 -17.633557568774194 50
      vertex -24.270509831248425 17.633557568774194 50
    endloop
  endfacet
  facet normal 0 0 1
    outer loop
      vertex -27.406363729278027 12.202099292274006 50
      vertex -27.406363729278027 -12.202099292274006 50
      vertex -24.270509831248425 -17.633557568774194 50
    endloop
  endfacet
  facet normal 0 0 1
    outer loop
      vertex -29.34442802201417 6.237350724532781 50
      vertex -27.406363729278027 -12.202099292274006 50
      vertex -27.406363729278027 12.202099292274006 50
    endloop
  endfacet
  facet normal 0 0 1
    outer loop
      vertex -29.34442802201417 6.237350724532781 50
      vertex -29.34442802201417 -6.237350724532781 50
      vertex -27.406363729278027 -12.202099292274006 50
    endloop
  endfacet
  facet normal 0 0 1
    outer loop
      vertex -29.34442802201417 -6.237350724532781 50
      vertex -29.34442802201417 6.237350724532781 50
      vertex -30 0 50
    endloop
  endfacet
endsolid OpenSCAD_Model
