solid OpenSCAD_Model
  facet normal -1 0 0
    outer loop
      vertex -3 0.7132923872213651 -0.23176274578121053
      vertex -3 0 -0.75
      vertex -3 -0.7132923872213651 -0.23176274578121053
    endloop
  endfacet
  facet normal 0 -0.5877852522924732 -0.8090169943749475
    outer loop
      vertex -3 0 -0.75
      vertex -0.5816145087826555 -0.7132923872213651 -0.23176274578121053
      vertex -3 -0.7132923872213651 -0.23176274578121053
    endloop
  endfacet
  facet normal 0 -0.9510565162951535 0.3090169943749474
    outer loop
      vertex -3 -0.7132923872213651 -0.23176274578121053
      vertex -0.5816145087826555 -0.7132923872213651 -0.23176274578121053
      vertex -0.75 -0.6379881062640299 0
    endloop
  endfacet
  facet normal -3.030529815598301e-18 -0.5877852522924732 -0.8090169943749475
    outer loop
      vertex -3 0 -0.75
      vertex -0.23176274578121053 -0.050523694572169674 -0.7132923872213651
      vertex -0.5816145087826555 -0.7132923872213651 -0.23176274578121053
    endloop
  endfacet
  facet normal -2.274400702490736e-17 0.5877852522924731 -0.8090169943749475
    outer loop
      vertex -3 0.7132923872213651 -0.23176274578121053
      vertex -0.23176274578121053 0.05052369457216965 -0.7132923872213651
      vertex -3 0 -0.75
    endloop
  endfacet
  facet normal 0 0.9510565162951535 0.3090169943749474
    outer loop
      vertex -3 0.7132923872213651 -0.23176274578121053
      vertex -0.75 0.6379881062640299 0
      vertex -0.5816145087826555 0.7132923872213651 -0.23176274578121053
    endloop
  endfacet
  facet normal 0 0.5877852522924731 -0.8090169943749473
    outer loop
      vertex -3 0.7132923872213651 -0.23176274578121053
      vertex -0.5816145087826555 0.7132923872213651 -0.23176274578121053
      vertex -0.23176274578121053 0.05052369457216965 -0.7132923872213651
    endloop
  endfacet
  facet normal 0 -0.587785252292473 -0.8090169943749475
    outer loop
      vertex 7 0 -0.75
      vertex -0.23176274578121053 -0.050523694572169674 -0.7132923872213651
      vertex -3 0 -0.75
    endloop
  endfacet
  facet normal 0 0.5877852522924732 -0.8090169943749473
    outer loop
      vertex 7 0 -0.75
      vertex -3 0 -0.75
      vertex -0.23176274578121053 0.05052369457216965 -0.7132923872213651
    endloop
  endfacet
  facet normal 0 0.5877852522924731 -0.8090169943749475
    outer loop
      vertex 7 0 -0.75
      vertex -0.23176274578121053 0.05052369457216965 -0.7132923872213651
      vertex 0.6067627457812106 0.4255236945721695 -0.44083893921935485
    endloop
  endfacet
  facet normal 1.0414211112294401e-17 -0.5877852522924732 -0.8090169943749473
    outer loop
      vertex 7 -0.7132923872213651 -0.23176274578121053
      vertex 0.6067627457812106 -0.42552369457216954 -0.44083893921935485
      vertex -0.23176274578121053 -0.050523694572169674 -0.7132923872213651
    endloop
  endfacet
  facet normal 0 -0.5877852522924732 -0.8090169943749473
    outer loop
      vertex 7 -0.7132923872213651 -0.23176274578121053
      vertex 0.6067627457812106 -0.7132923872213651 -0.23176274578121053
      vertex 0.6067627457812106 -0.42552369457216954 -0.44083893921935485
    endloop
  endfacet
  facet normal -1.220516114563319e-17 0.587785252292473 -0.8090169943749476
    outer loop
      vertex 7 0 -0.75
      vertex 0.6067627457812106 0.4255236945721695 -0.44083893921935485
      vertex 0.6067627457812106 0.7132923872213651 -0.23176274578121053
    endloop
  endfacet
  facet normal -1.399129056812498e-17 -0.9510565162951536 0.30901699437494734
    outer loop
      vertex -3 -0.44083893921935485 0.6067627457812106
      vertex -3 -0.7132923872213651 -0.23176274578121053
      vertex -0.75 -0.6379881062640299 0
    endloop
  endfacet
  facet normal -1 0 0
    outer loop
      vertex -3 -0.44083893921935485 0.6067627457812106
      vertex -3 0.7132923872213651 -0.23176274578121053
      vertex -3 -0.7132923872213651 -0.23176274578121053
    endloop
  endfacet
  facet normal -1 0 0
    outer loop
      vertex -3 0.44083893921935485 0.6067627457812106
      vertex -3 0.7132923872213651 -0.23176274578121053
      vertex -3 -0.44083893921935485 0.6067627457812106
    endloop
  endfacet
  facet normal 0 0 1
    outer loop
      vertex -3 0.44083893921935485 0.6067627457812106
      vertex -3 -0.44083893921935485 0.6067627457812106
      vertex -0.3091610607806451 0.44083893921935485 0.6067627457812106
    endloop
  endfacet
  facet normal 0 -0.9510565162951536 0.30901699437494734
    outer loop
      vertex -3 -0.44083893921935485 0.6067627457812106
      vertex -0.75 -0.6379881062640299 0
      vertex -0.30916106078064504 -0.44083893921935485 0.6067627457812106
    endloop
  endfacet
  facet normal 0 0 1
    outer loop
      vertex -3 -0.44083893921935485 0.6067627457812106
      vertex -0.30916106078064504 -0.44083893921935485 0.6067627457812106
      vertex -0.3091610607806451 0.44083893921935485 0.6067627457812106
    endloop
  endfacet
  facet normal -1.399129056812498e-17 0.9510565162951536 0.30901699437494734
    outer loop
      vertex -3 0.44083893921935485 0.6067627457812106
      vertex -0.75 0.6379881062640299 0
      vertex -3 0.7132923872213651 -0.23176274578121053
    endloop
  endfacet
  facet normal 0 0.9510565162951536 0.30901699437494734
    outer loop
      vertex -3 0.44083893921935485 0.6067627457812106
      vertex -0.3091610607806451 0.44083893921935485 0.6067627457812106
      vertex -0.75 0.6379881062640299 0
    endloop
  endfacet
  facet normal -3.069359765560381e-18 -0.9510565162951536 0.3090169943749474
    outer loop
      vertex 7 -0.44083893921935485 0.6067627457812106
      vertex 0.6067627457812106 -0.4947508520452405 0.44083893921935485
      vertex 0.6067627457812106 -0.7132923872213651 -0.23176274578121053
    endloop
  endfacet
  facet normal 0 -0.9510565162951536 0.3090169943749473
    outer loop
      vertex 7 -0.44083893921935485 0.6067627457812106
      vertex 0.09610177790033586 -0.44083893921935485 0.6067627457812106
      vertex 0.6067627457812106 -0.4947508520452405 0.44083893921935485
    endloop
  endfacet
  facet normal 0 0 1
    outer loop
      vertex 7 0.44083893921935485 0.6067627457812106
      vertex 0.09610177790033587 0.44083893921935485 0.6067627457812106
      vertex 0.09610177790033586 -0.44083893921935485 0.6067627457812106
    endloop
  endfacet
  facet normal 0 0.9510565162951536 0.3090169943749474
    outer loop
      vertex 7 0.7132923872213651 -0.23176274578121053
      vertex 0.6067627457812106 0.7132923872213651 -0.23176274578121053
      vertex 0.6067627457812106 0.4947508520452405 0.44083893921935485
    endloop
  endfacet
  facet normal 0 0.9510565162951536 0.3090169943749473
    outer loop
      vertex 7 0.44083893921935485 0.6067627457812106
      vertex 0.6067627457812106 0.4947508520452405 0.44083893921935485
      vertex 0.09610177790033587 0.44083893921935485 0.6067627457812106
    endloop
  endfacet
  facet normal 1.088268686519269e-18 -0.5877852522924731 -0.8090169943749475
    outer loop
      vertex 7 0 -0.75
      vertex 7 -0.7132923872213651 -0.23176274578121053
      vertex -0.23176274578121053 -0.050523694572169674 -0.7132923872213651
    endloop
  endfacet
  facet normal 0 0.5877852522924731 -0.8090169943749475
    outer loop
      vertex 7 0.7132923872213651 -0.23176274578121053
      vertex 7 0 -0.75
      vertex 0.6067627457812106 0.7132923872213651 -0.23176274578121053
    endloop
  endfacet
  facet normal -1 0 0
    outer loop
      vertex 7 0 -0.75
      vertex 7 0 -1.5
      vertex 7 -0.7132923872213651 -0.23176274578121053
    endloop
  endfacet
  facet normal -1 0 0
    outer loop
      vertex 7 -0.7132923872213651 -0.23176274578121053
      vertex 7 0 -1.5
      vertex 7 -1.4265847744427302 -0.46352549156242107
    endloop
  endfacet
  facet normal 0.374990901834979 -0.5448936755963917 -0.749981803669958
    outer loop
      vertex 10 0 0
      vertex 7 -1.4265847744427302 -0.46352549156242107
      vertex 7 0 -1.5
    endloop
  endfacet
  facet normal -1 0 0
    outer loop
      vertex 7 1.4265847744427302 -0.46352549156242107
      vertex 7 0 -1.5
      vertex 7 0 -0.75
    endloop
  endfacet
  facet normal -1 0 0
    outer loop
      vertex 7 1.4265847744427302 -0.46352549156242107
      vertex 7 0 -0.75
      vertex 7 0.7132923872213651 -0.23176274578121053
    endloop
  endfacet
  facet normal 0.374990901834979 0.5448936755963917 -0.749981803669958
    outer loop
      vertex 10 0 0
      vertex 7 0 -1.5
      vertex 7 1.4265847744427302 -0.46352549156242107
    endloop
  endfacet
  facet normal 0 -0.9510565162951535 0.30901699437494734
    outer loop
      vertex 7 -0.44083893921935485 0.6067627457812106
      vertex 0.6067627457812106 -0.7132923872213651 -0.23176274578121053
      vertex 7 -0.7132923872213651 -0.23176274578121053
    endloop
  endfacet
  facet normal 0 0 1
    outer loop
      vertex 7 0.44083893921935485 0.6067627457812106
      vertex 0.09610177790033586 -0.44083893921935485 0.6067627457812106
      vertex 7 -0.44083893921935485 0.6067627457812106
    endloop
  endfacet
  facet normal -2.4620080975023898e-18 0.9510565162951535 0.30901699437494734
    outer loop
      vertex 7 0.44083893921935485 0.6067627457812106
      vertex 7 0.7132923872213651 -0.23176274578121053
      vertex 0.6067627457812106 0.4947508520452405 0.44083893921935485
    endloop
  endfacet
  facet normal -1 0 0
    outer loop
      vertex 7 -0.44083893921935485 0.6067627457812106
      vertex 7 -0.7132923872213651 -0.23176274578121053
      vertex 7 -1.4265847744427302 -0.46352549156242107
    endloop
  endfacet
  facet normal 0.374990901834979 -0.8816564873698207 0.2864675580579733
    outer loop
      vertex 7 -0.8816778784387097 1.2135254915624212
      vertex 7 -1.4265847744427302 -0.46352549156242107
      vertex 10 0 0
    endloop
  endfacet
  facet normal -1 0 0
    outer loop
      vertex 7 -0.44083893921935485 0.6067627457812106
      vertex 7 -1.4265847744427302 -0.46352549156242107
      vertex 7 -0.8816778784387097 1.2135254915624212
    endloop
  endfacet
  facet normal -1 0 0
    outer loop
      vertex 7 0.44083893921935485 0.6067627457812106
      vertex 7 -0.44083893921935485 0.6067627457812106
      vertex 7 -0.8816778784387097 1.2135254915624212
    endloop
  endfacet
  facet normal -1 0 0
    outer loop
      vertex 7 0.8816778784387097 1.2135254915624212
      vertex 7 0.44083893921935485 0.6067627457812106
      vertex 7 -0.8816778784387097 1.2135254915624212
    endloop
  endfacet
  facet normal 0.374990901834979 0 0.9270284912239695
    outer loop
      vertex 7 0.8816778784387097 1.2135254915624212
      vertex 7 -0.8816778784387097 1.2135254915624212
      vertex 10 0 0
    endloop
  endfacet
  facet normal -1 0 0
    outer loop
      vertex 7 0.8816778784387097 1.2135254915624212
      vertex 7 1.4265847744427302 -0.46352549156242107
      vertex 7 0.7132923872213651 -0.23176274578121053
    endloop
  endfacet
  facet normal 0.374990901834979 0.8816564873698207 0.2864675580579733
    outer loop
      vertex 7 0.8816778784387097 1.2135254915624212
      vertex 10 0 0
      vertex 7 1.4265847744427302 -0.46352549156242107
    endloop
  endfacet
  facet normal -1 0 0
    outer loop
      vertex 7 0.8816778784387097 1.2135254915624212
      vertex 7 0.7132923872213651 -0.23176274578121053
      vertex 7 0.44083893921935485 0.6067627457812106
    endloop
  endfacet
  facet normal 0.3090169943749474 0 -0.9510565162951536
    outer loop
      vertex 0.6067627457812106 -3 -0.44083893921935485
      vertex -0.23176274578121053 -3 -0.7132923872213651
      vertex -0.23176274578121053 -0.050523694572169674 -0.7132923872213651
    endloop
  endfacet
  facet normal -0.8090169943749475 0 -0.587785252292473
    outer loop
      vertex -0.75 -3 0
      vertex -0.75 -0.6379881062640299 0
      vertex -0.5816145087826555 -0.7132923872213651 -0.23176274578121053
    endloop
  endfacet
  facet normal -0.8090169943749475 -6.8833469575125506e-18 -0.5877852522924731
    outer loop
      vertex -0.75 -3 0
      vertex -0.5816145087826555 -0.7132923872213651 -0.23176274578121053
      vertex -0.23176274578121053 -3 -0.7132923872213651
    endloop
  endfacet
  facet normal 0 -1 0
    outer loop
      vertex 0.6067627457812106 -3 -0.44083893921935485
      vertex -0.23176274578121053 -3 0.7132923872213651
      vertex -0.23176274578121053 -3 -0.7132923872213651
    endloop
  endfacet
  facet normal -0.8090169943749473 0 -0.5877852522924732
    outer loop
      vertex -0.23176274578121053 -3 -0.7132923872213651
      vertex -0.5816145087826555 -0.7132923872213651 -0.23176274578121053
      vertex -0.23176274578121053 -0.050523694572169674 -0.7132923872213651
    endloop
  endfacet
  facet normal 0.30901699437494734 0 -0.9510565162951535
    outer loop
      vertex -0.23176274578121053 7 -0.7132923872213651
      vertex 0.6067627457812106 0.4255236945721695 -0.44083893921935485
      vertex -0.23176274578121053 0.05052369457216965 -0.7132923872213651
    endloop
  endfacet
  facet normal -0.8090169943749475 0 -0.5877852522924732
    outer loop
      vertex -0.23176274578121053 7 -0.7132923872213651
      vertex -0.23176274578121053 0.05052369457216965 -0.7132923872213651
      vertex -0.5816145087826555 0.7132923872213651 -0.23176274578121053
    endloop
  endfacet
  facet normal -0.8090169943749475 0 -0.587785252292473
    outer loop
      vertex -0.75 7 0
      vertex -0.5816145087826555 0.7132923872213651 -0.23176274578121053
      vertex -0.75 0.6379881062640299 0
    endloop
  endfacet
  facet normal 1 0 0
    outer loop
      vertex 0.6067627457812106 -3 0.44083893921935485
      vertex 0.6067627457812106 -3 -0.44083893921935485
      vertex 0.6067627457812106 -0.7132923872213651 -0.23176274578121053
    endloop
  endfacet
  facet normal 1 0 0
    outer loop
      vertex 0.6067627457812106 -3 -0.44083893921935485
      vertex 0.6067627457812106 -0.42552369457216954 -0.44083893921935485
      vertex 0.6067627457812106 -0.7132923872213651 -0.23176274578121053
    endloop
  endfacet
  facet normal 0.3090169943749473 0 -0.9510565162951535
    outer loop
      vertex 0.6067627457812106 -3 -0.44083893921935485
      vertex -0.23176274578121053 -0.050523694572169674 -0.7132923872213651
      vertex 0.6067627457812106 -0.42552369457216954 -0.44083893921935485
    endloop
  endfacet
  facet normal 1 0 0
    outer loop
      vertex 0.6067627457812106 7 -0.44083893921935485
      vertex 0.6067627457812106 0.7132923872213651 -0.23176274578121053
      vertex 0.6067627457812106 0.4255236945721695 -0.44083893921935485
    endloop
  endfacet
  facet normal -0.8090169943749475 0 0.5877852522924731
    outer loop
      vertex -0.23176274578121053 -3 0.7132923872213651
      vertex -0.75 -0.6379881062640299 0
      vertex -0.75 -3 0
    endloop
  endfacet
  facet normal 0 -1 0
    outer loop
      vertex -0.23176274578121053 -3 0.7132923872213651
      vertex -0.75 -3 0
      vertex -0.23176274578121053 -3 -0.7132923872213651
    endloop
  endfacet
  facet normal -0.8090169943749473 1.0700843162224567e-17 0.5877852522924732
    outer loop
      vertex -0.23176274578121053 -3 0.7132923872213651
      vertex -0.30916106078064504 -0.44083893921935485 0.6067627457812106
      vertex -0.75 -0.6379881062640299 0
    endloop
  endfacet
  facet normal 0.30901699437494734 -9.964641180153985e-18 0.9510565162951535
    outer loop
      vertex -0.23176274578121053 -3 0.7132923872213651
      vertex 0.6067627457812106 -0.4947508520452405 0.44083893921935485
      vertex 0.09610177790033586 -0.44083893921935485 0.6067627457812106
    endloop
  endfacet
  facet normal 0.3090169943749474 0 0.9510565162951536
    outer loop
      vertex -0.23176274578121053 -3 0.7132923872213651
      vertex 0.09610177790033586 -0.44083893921935485 0.6067627457812106
      vertex 0.09610177790033587 0.44083893921935485 0.6067627457812106
    endloop
  endfacet
  facet normal -0.8090169943749475 0 0.5877852522924729
    outer loop
      vertex -0.23176274578121053 7 0.7132923872213651
      vertex -0.30916106078064504 -0.44083893921935485 0.6067627457812106
      vertex -0.23176274578121053 -3 0.7132923872213651
    endloop
  endfacet
  facet normal 0.30901699437494584 6.709755141645598e-17 0.9510565162951541
    outer loop
      vertex 0.6067627457812106 7 0.44083893921935485
      vertex -0.23176274578121053 -3 0.7132923872213651
      vertex 0.09610177790033587 0.44083893921935485 0.6067627457812106
    endloop
  endfacet
  facet normal -0.8090169943749459 -5.976782917438547e-17 0.5877852522924755
    outer loop
      vertex -0.23176274578121053 7 0.7132923872213651
      vertex -0.3091610607806451 0.44083893921935485 0.6067627457812106
      vertex -0.30916106078064504 -0.44083893921935485 0.6067627457812106
    endloop
  endfacet
  facet normal -0.8090169943749475 2.806240444766073e-18 0.5877852522924731
    outer loop
      vertex -0.23176274578121053 7 0.7132923872213651
      vertex -0.75 0.6379881062640299 0
      vertex -0.3091610607806451 0.44083893921935485 0.6067627457812106
    endloop
  endfacet
  facet normal 0 -1 0
    outer loop
      vertex 0.6067627457812106 -3 0.44083893921935485
      vertex -0.23176274578121053 -3 0.7132923872213651
      vertex 0.6067627457812106 -3 -0.44083893921935485
    endloop
  endfacet
  facet normal 1 0 0
    outer loop
      vertex 0.6067627457812106 -3 0.44083893921935485
      vertex 0.6067627457812106 -0.7132923872213651 -0.23176274578121053
      vertex 0.6067627457812106 -0.4947508520452405 0.44083893921935485
    endloop
  endfacet
  facet normal 0.3090169943749473 0 0.9510565162951535
    outer loop
      vertex 0.6067627457812106 -3 0.44083893921935485
      vertex 0.6067627457812106 -0.4947508520452405 0.44083893921935485
      vertex -0.23176274578121053 -3 0.7132923872213651
    endloop
  endfacet
  facet normal 1 0 0
    outer loop
      vertex 0.6067627457812106 7 0.44083893921935485
      vertex 0.6067627457812106 0.4947508520452405 0.44083893921935485
      vertex 0.6067627457812106 0.7132923872213651 -0.23176274578121053
    endloop
  endfacet
  facet normal 0.3090169943749474 0 0.9510565162951536
    outer loop
      vertex 0.6067627457812106 7 0.44083893921935485
      vertex 0.09610177790033587 0.44083893921935485 0.6067627457812106
      vertex 0.6067627457812106 0.4947508520452405 0.44083893921935485
    endloop
  endfacet
  facet normal -0.8090169943749475 2.503727365520608e-18 -0.5877852522924731
    outer loop
      vertex -0.75 7 0
      vertex -0.23176274578121053 7 -0.7132923872213651
      vertex -0.5816145087826555 0.7132923872213651 -0.23176274578121053
    endloop
  endfacet
  facet normal 0 -1 0
    outer loop
      vertex 0.6067627457812106 7 -0.44083893921935485
      vertex -0.23176274578121053 7 -0.7132923872213651
      vertex -0.46352549156242107 7 -1.4265847744427302
    endloop
  endfacet
  facet normal 0 -1 0
    outer loop
      vertex -0.23176274578121053 7 -0.7132923872213651
      vertex -1.5 7 0
      vertex -0.46352549156242107 7 -1.4265847744427302
    endloop
  endfacet
  facet normal -0.749981803669958 0.374990901834979 -0.5448936755963917
    outer loop
      vertex 0 10 0
      vertex -0.46352549156242107 7 -1.4265847744427302
      vertex -1.5 7 0
    endloop
  endfacet
  facet normal 0 -1 0
    outer loop
      vertex -0.75 7 0
      vertex -1.5 7 0
      vertex -0.23176274578121053 7 -0.7132923872213651
    endloop
  endfacet
  facet normal 0.30901699437494734 0 -0.9510565162951536
    outer loop
      vertex 0.6067627457812106 7 -0.44083893921935485
      vertex 0.6067627457812106 0.4255236945721695 -0.44083893921935485
      vertex -0.23176274578121053 7 -0.7132923872213651
    endloop
  endfacet
  facet normal 1 0 0
    outer loop
      vertex 0.6067627457812106 7 0.44083893921935485
      vertex 0.6067627457812106 0.7132923872213651 -0.23176274578121053
      vertex 0.6067627457812106 7 -0.44083893921935485
    endloop
  endfacet
  facet normal 0 -1 0
    outer loop
      vertex 0.6067627457812106 7 -0.44083893921935485
      vertex -0.46352549156242107 7 -1.4265847744427302
      vertex 1.2135254915624212 7 -0.8816778784387097
    endloop
  endfacet
  facet normal 0.2864675580579733 0.374990901834979 -0.8816564873698207
    outer loop
      vertex 1.2135254915624212 7 -0.8816778784387097
      vertex -0.46352549156242107 7 -1.4265847744427302
      vertex 0 10 0
    endloop
  endfacet
  facet normal 0 -1 0
    outer loop
      vertex 0.6067627457812106 7 0.44083893921935485
      vertex 0.6067627457812106 7 -0.44083893921935485
      vertex 1.2135254915624212 7 -0.8816778784387097
    endloop
  endfacet
  facet normal -0.8090169943749473 0 0.5877852522924731
    outer loop
      vertex -0.23176274578121053 7 0.7132923872213651
      vertex -0.75 7 0
      vertex -0.75 0.6379881062640299 0
    endloop
  endfacet
  facet normal 0.3090169943749473 0 0.9510565162951535
    outer loop
      vertex 0.6067627457812106 7 0.44083893921935485
      vertex -0.23176274578121053 7 0.7132923872213651
      vertex -0.23176274578121053 -3 0.7132923872213651
    endloop
  endfacet
  facet normal 0 -1 0
    outer loop
      vertex -0.46352549156242107 7 1.4265847744427302
      vertex -1.5 7 0
      vertex -0.75 7 0
    endloop
  endfacet
  facet normal -0.749981803669958 0.374990901834979 0.5448936755963917
    outer loop
      vertex 0 10 0
      vertex -1.5 7 0
      vertex -0.46352549156242107 7 1.4265847744427302
    endloop
  endfacet
  facet normal 0 -1 0
    outer loop
      vertex -0.46352549156242107 7 1.4265847744427302
      vertex -0.75 7 0
      vertex -0.23176274578121053 7 0.7132923872213651
    endloop
  endfacet
  facet normal 0 -1 0
    outer loop
      vertex 1.2135254915624212 7 0.8816778784387097
      vertex -0.46352549156242107 7 1.4265847744427302
      vertex -0.23176274578121053 7 0.7132923872213651
    endloop
  endfacet
  facet normal 0 -1 0
    outer loop
      vertex 1.2135254915624212 7 0.8816778784387097
      vertex 0.6067627457812106 7 0.44083893921935485
      vertex 1.2135254915624212 7 -0.8816778784387097
    endloop
  endfacet
  facet normal 0.9270284912239695 0.374990901834979 0
    outer loop
      vertex 1.2135254915624212 7 0.8816778784387097
      vertex 1.2135254915624212 7 -0.8816778784387097
      vertex 0 10 0
    endloop
  endfacet
  facet normal 0 -1 0
    outer loop
      vertex 1.2135254915624212 7 0.8816778784387097
      vertex -0.23176274578121053 7 0.7132923872213651
      vertex 0.6067627457812106 7 0.44083893921935485
    endloop
  endfacet
  facet normal 0.2864675580579733 0.374990901834979 0.8816564873698207
    outer loop
      vertex 1.2135254915624212 7 0.8816778784387097
      vertex 0 10 0
      vertex -0.46352549156242107 7 1.4265847744427302
    endloop
  endfacet
endsolid OpenSCAD_Model
