solid OpenSCAD_Model
  facet normal -1 0 0
    outer loop
      vertex -3 0.7132923872213651 -0.23176274578121053
      vertex -3 0 -0.75
      vertex -3 -0.7132923872213651 -0.23176274578121053
    endloop
  endfacet
  facet normal 0 -0.5877852522924732 -0.8090169943749475
    outer loop
      vertex -3 0 -0.75
      vertex -0.5816145087826555 -0.7132923872213651 -0.23176274578121053
      vertex -3 -0.7132923872213651 -0.23176274578121053
    endloop
  endfacet
  facet normal -2.274400702490736e-17 0.5877852522924731 -0.8090169943749475
    outer loop
      vertex -3 0.7132923872213651 -0.23176274578121053
      vertex -0.23176274578121053 0.05052369457216965 -0.7132923872213651
      vertex -3 0 -0.75
    endloop
  endfacet
  facet normal -3.030529815598301e-18 -0.5877852522924732 -0.8090169943749475
    outer loop
      vertex -3 0 -0.75
      vertex -0.23176274578121053 -0.050523694572169674 -0.7132923872213651
      vertex -0.5816145087826555 -0.7132923872213651 -0.23176274578121053
    endloop
  endfacet
  facet normal 0 0.5877852522924731 -0.8090169943749473
    outer loop
      vertex -3 0.7132923872213651 -0.23176274578121053
      vertex -0.5816145087826555 0.7132923872213651 -0.23176274578121053
      vertex -0.23176274578121053 0.05052369457216965 -0.7132923872213651
    endloop
  endfacet
  facet normal -1 0 0
    outer loop
      vertex -3 -0.44083893921935485 0.6067627457812106
      vertex -3 0.7132923872213651 -0.23176274578121053
      vertex -3 -0.7132923872213651 -0.23176274578121053
    endloop
  endfacet
  facet normal -1.399129056812498e-17 -0.9510565162951536 0.30901699437494734
    outer loop
      vertex -3 -0.44083893921935485 0.6067627457812106
      vertex -3 -0.7132923872213651 -0.23176274578121053
      vertex -0.75 -0.6379881062640299 0
    endloop
  endfacet
  facet normal -1.399129056812498e-17 0.9510565162951536 0.30901699437494734
    outer loop
      vertex -3 0.44083893921935485 0.6067627457812106
      vertex -0.75 0.6379881062640299 0
      vertex -3 0.7132923872213651 -0.23176274578121053
    endloop
  endfacet
  facet normal 0 -0.9510565162951535 0.3090169943749474
    outer loop
      vertex -3 -0.7132923872213651 -0.23176274578121053
      vertex -0.5816145087826555 -0.7132923872213651 -0.23176274578121053
      vertex -0.75 -0.6379881062640299 0
    endloop
  endfacet
  facet normal 0 0.9510565162951535 0.3090169943749474
    outer loop
      vertex -3 0.7132923872213651 -0.23176274578121053
      vertex -0.75 0.6379881062640299 0
      vertex -0.5816145087826555 0.7132923872213651 -0.23176274578121053
    endloop
  endfacet
  facet normal -1 0 0
    outer loop
      vertex -3 0.44083893921935485 0.6067627457812106
      vertex -3 0.7132923872213651 -0.23176274578121053
      vertex -3 -0.44083893921935485 0.6067627457812106
    endloop
  endfacet
  facet normal 0 0 1
    outer loop
      vertex -3 0.44083893921935485 0.6067627457812106
      vertex -3 -0.44083893921935485 0.6067627457812106
      vertex -0.3091610607806451 0.44083893921935485 0.6067627457812106
    endloop
  endfacet
  facet normal 0 -0.9510565162951536 0.30901699437494734
    outer loop
      vertex -3 -0.44083893921935485 0.6067627457812106
      vertex -0.75 -0.6379881062640299 0
      vertex -0.30916106078064504 -0.44083893921935485 0.6067627457812106
    endloop
  endfacet
  facet normal 0 0 1
    outer loop
      vertex -3 -0.44083893921935485 0.6067627457812106
      vertex -0.30916106078064504 -0.44083893921935485 0.6067627457812106
      vertex -0.3091610607806451 0.44083893921935485 0.6067627457812106
    endloop
  endfacet
  facet normal 0 0.9510565162951536 0.30901699437494734
    outer loop
      vertex -3 0.44083893921935485 0.6067627457812106
      vertex -0.3091610607806451 0.44083893921935485 0.6067627457812106
      vertex -0.75 0.6379881062640299 0
    endloop
  endfacet
  facet normal 0 -0.587785252292473 -0.8090169943749475
    outer loop
      vertex 7 0 -0.75
      vertex -0.23176274578121053 -0.050523694572169674 -0.7132923872213651
      vertex -3 0 -0.75
    endloop
  endfacet
  facet normal 0 0.5877852522924732 -0.8090169943749473
    outer loop
      vertex 7 0 -0.75
      vertex -3 0 -0.75
      vertex -0.23176274578121053 0.05052369457216965 -0.7132923872213651
    endloop
  endfacet
  facet normal 1.0414211112294401e-17 -0.5877852522924732 -0.8090169943749473
    outer loop
      vertex 7 -0.7132923872213651 -0.23176274578121053
      vertex 0.6067627457812106 -0.42552369457216954 -0.44083893921935485
      vertex -0.23176274578121053 -0.050523694572169674 -0.7132923872213651
    endloop
  endfacet
  facet normal 0 0.5877852522924731 -0.8090169943749475
    outer loop
      vertex 7 0 -0.75
      vertex -0.23176274578121053 0.05052369457216965 -0.7132923872213651
      vertex 0.6067627457812106 0.4255236945721695 -0.44083893921935485
    endloop
  endfacet
  facet normal -1.220516114563319e-17 0.587785252292473 -0.8090169943749476
    outer loop
      vertex 7 0 -0.75
      vertex 0.6067627457812106 0.4255236945721695 -0.44083893921935485
      vertex 0.6067627457812106 0.7132923872213651 -0.23176274578121053
    endloop
  endfacet
  facet normal 1.088268686519269e-18 -0.5877852522924731 -0.8090169943749475
    outer loop
      vertex 7 0 -0.75
      vertex 7 -0.7132923872213651 -0.23176274578121053
      vertex -0.23176274578121053 -0.050523694572169674 -0.7132923872213651
    endloop
  endfacet
  facet normal 0 0.5877852522924731 -0.8090169943749475
    outer loop
      vertex 7 0.7132923872213651 -0.23176274578121053
      vertex 7 0 -0.75
      vertex 0.6067627457812106 0.7132923872213651 -0.23176274578121053
    endloop
  endfacet
  facet normal 0 -0.5877852522924732 -0.8090169943749473
    outer loop
      vertex 7 -0.7132923872213651 -0.23176274578121053
      vertex 0.6067627457812106 -0.7132923872213651 -0.23176274578121053
      vertex 0.6067627457812106 -0.42552369457216954 -0.44083893921935485
    endloop
  endfacet
  facet normal 0 0.9510565162951536 0.3090169943749474
    outer loop
      vertex 7 0.7132923872213651 -0.23176274578121053
      vertex 0.6067627457812106 0.7132923872213651 -0.23176274578121053
      vertex 0.6067627457812106 0.4947508520452405 0.44083893921935485
    endloop
  endfacet
  facet normal -3.069359765560381e-18 -0.9510565162951536 0.3090169943749474
    outer loop
      vertex 7 -0.44083893921935485 0.6067627457812106
      vertex 0.6067627457812106 -0.4947508520452405 0.44083893921935485
      vertex 0.6067627457812106 -0.7132923872213651 -0.23176274578121053
    endloop
  endfacet
  facet normal 0 -0.9510565162951536 0.3090169943749473
    outer loop
      vertex 7 -0.44083893921935485 0.6067627457812106
      vertex 0.09610177790033586 -0.44083893921935485 0.6067627457812106
      vertex 0.6067627457812106 -0.4947508520452405 0.44083893921935485
    endloop
  endfacet
  facet normal 0 0 1
    outer loop
      vertex 7 0.44083893921935485 0.6067627457812106
      vertex 0.09610177790033587 0.44083893921935485 0.6067627457812106
      vertex 0.09610177790033586 -0.44083893921935485 0.6067627457812106
    endloop
  endfacet
  facet normal 0 0.9510565162951536 0.3090169943749473
    outer loop
      vertex 7 0.44083893921935485 0.6067627457812106
      vertex 0.6067627457812106 0.4947508520452405 0.44083893921935485
      vertex 0.09610177790033587 0.44083893921935485 0.6067627457812106
    endloop
  endfacet
  facet normal 0 -0.9510565162951535 0.30901699437494734
    outer loop
      vertex 7 -0.44083893921935485 0.6067627457812106
      vertex 0.6067627457812106 -0.7132923872213651 -0.23176274578121053
      vertex 7 -0.7132923872213651 -0.23176274578121053
    endloop
  endfacet
  facet normal 0 0 1
    outer loop
      vertex 7 0.44083893921935485 0.6067627457812106
      vertex 0.09610177790033586 -0.44083893921935485 0.6067627457812106
      vertex 7 -0.44083893921935485 0.6067627457812106
    endloop
  endfacet
  facet normal -2.4620080975023898e-18 0.9510565162951535 0.30901699437494734
    outer loop
      vertex 7 0.44083893921935485 0.6067627457812106
      vertex 7 0.7132923872213651 -0.23176274578121053
      vertex 0.6067627457812106 0.4947508520452405 0.44083893921935485
    endloop
  endfacet
  facet normal -1 0 0
    outer loop
      vertex 7 -0.7132923872213651 -0.23176274578121053
      vertex 7 0 -1.5
      vertex 7 -1.4265847744427302 -0.46352549156242107
    endloop
  endfacet
  facet normal -1 0 0
    outer loop
      vertex 7 0 -0.75
      vertex 7 0 -1.5
      vertex 7 -0.7132923872213651 -0.23176274578121053
    endloop
  endfacet
  facet normal -1 0 0
    outer loop
      vertex 7 1.4265847744427302 -0.46352549156242107
      vertex 7 0 -1.5
      vertex 7 0 -0.75
    endloop
  endfacet
  facet normal -1 0 0
    outer loop
      vertex 7 1.4265847744427302 -0.46352549156242107
      vertex 7 0 -0.75
      vertex 7 0.7132923872213651 -0.23176274578121053
    endloop
  endfacet
  facet normal 0.374990901834979 -0.5448936755963917 -0.749981803669958
    outer loop
      vertex 10 0 0
      vertex 7 -1.4265847744427302 -0.46352549156242107
      vertex 7 0 -1.5
    endloop
  endfacet
  facet normal 0.374990901834979 0.5448936755963917 -0.749981803669958
    outer loop
      vertex 10 0 0
      vertex 7 0 -1.5
      vertex 7 1.4265847744427302 -0.46352549156242107
    endloop
  endfacet
  facet normal -1 0 0
    outer loop
      vertex 7 -0.44083893921935485 0.6067627457812106
      vertex 7 -0.7132923872213651 -0.23176274578121053
      vertex 7 -1.4265847744427302 -0.46352549156242107
    endloop
  endfacet
  facet normal -1 0 0
    outer loop
      vertex 7 0.8816778784387097 1.2135254915624212
      vertex 7 1.4265847744427302 -0.46352549156242107
      vertex 7 0.7132923872213651 -0.23176274578121053
    endloop
  endfacet
  facet normal -1 0 0
    outer loop
      vertex 7 -0.44083893921935485 0.6067627457812106
      vertex 7 -1.4265847744427302 -0.46352549156242107
      vertex 7 -0.8816778784387097 1.2135254915624212
    endloop
  endfacet
  facet normal -1 0 0
    outer loop
      vertex 7 0.8816778784387097 1.2135254915624212
      vertex 7 0.7132923872213651 -0.23176274578121053
      vertex 7 0.44083893921935485 0.6067627457812106
    endloop
  endfacet
  facet normal 0.374990901834979 -0.8816564873698207 0.2864675580579733
    outer loop
      vertex 7 -0.8816778784387097 1.2135254915624212
      vertex 7 -1.4265847744427302 -0.46352549156242107
      vertex 10 0 0
    endloop
  endfacet
  facet normal 0.374990901834979 0.8816564873698207 0.2864675580579733
    outer loop
      vertex 7 0.8816778784387097 1.2135254915624212
      vertex 10 0 0
      vertex 7 1.4265847744427302 -0.46352549156242107
    endloop
  endfacet
  facet normal -1 0 0
    outer loop
      vertex 7 0.44083893921935485 0.6067627457812106
      vertex 7 -0.44083893921935485 0.6067627457812106
      vertex 7 -0.8816778784387097 1.2135254915624212
    endloop
  endfacet
  facet normal -1 0 0
    outer loop
      vertex 7 0.8816778784387097 1.2135254915624212
      vertex 7 0.44083893921935485 0.6067627457812106
      vertex 7 -0.8816778784387097 1.2135254915624212
    endloop
  endfacet
  facet normal 0.374990901834979 0 0.9270284912239695
    outer loop
      vertex 7 0.8816778784387097 1.2135254915624212
      vertex 7 -0.8816778784387097 1.2135254915624212
      vertex 10 0 0
    endloop
  endfacet
  facet normal -0.8090169943749473 0 -0.5877852522924732
    outer loop
      vertex -0.23176274578121053 -3 -0.7132923872213651
      vertex -0.5816145087826555 -0.7132923872213651 -0.23176274578121053
      vertex -0.23176274578121053 -0.050523694572169674 -0.7132923872213651
    endloop
  endfacet
  facet normal 0.3090169943749474 0 -0.9510565162951536
    outer loop
      vertex 0.6067627457812106 -3 -0.44083893921935485
      vertex -0.23176274578121053 -3 -0.7132923872213651
      vertex -0.23176274578121053 -0.050523694572169674 -0.7132923872213651
    endloop
  endfacet
  facet normal 0.3090169943749473 0 -0.9510565162951535
    outer loop
      vertex 0.6067627457812106 -3 -0.44083893921935485
      vertex -0.23176274578121053 -0.050523694572169674 -0.7132923872213651
      vertex 0.6067627457812106 -0.42552369457216954 -0.44083893921935485
    endloop
  endfacet
  facet normal 1 0 0
    outer loop
      vertex 0.6067627457812106 -3 -0.44083893921935485
      vertex 0.6067627457812106 -0.42552369457216954 -0.44083893921935485
      vertex 0.6067627457812106 -0.7132923872213651 -0.23176274578121053
    endloop
  endfacet
  facet normal -0.8090169943749475 -6.8833469575125506e-18 -0.5877852522924731
    outer loop
      vertex -0.75 -3 0
      vertex -0.5816145087826555 -0.7132923872213651 -0.23176274578121053
      vertex -0.23176274578121053 -3 -0.7132923872213651
    endloop
  endfacet
  facet normal 0 -1 0
    outer loop
      vertex -0.23176274578121053 -3 0.7132923872213651
      vertex -0.75 -3 0
      vertex -0.23176274578121053 -3 -0.7132923872213651
    endloop
  endfacet
  facet normal -0.8090169943749475 0 -0.587785252292473
    outer loop
      vertex -0.75 -3 0
      vertex -0.75 -0.6379881062640299 0
      vertex -0.5816145087826555 -0.7132923872213651 -0.23176274578121053
    endloop
  endfacet
  facet normal 0 -1 0
    outer loop
      vertex 0.6067627457812106 -3 -0.44083893921935485
      vertex -0.23176274578121053 -3 0.7132923872213651
      vertex -0.23176274578121053 -3 -0.7132923872213651
    endloop
  endfacet
  facet normal 1 0 0
    outer loop
      vertex 0.6067627457812106 -3 0.44083893921935485
      vertex 0.6067627457812106 -3 -0.44083893921935485
      vertex 0.6067627457812106 -0.7132923872213651 -0.23176274578121053
    endloop
  endfacet
  facet normal -0.8090169943749475 0 0.5877852522924731
    outer loop
      vertex -0.23176274578121053 -3 0.7132923872213651
      vertex -0.75 -0.6379881062640299 0
      vertex -0.75 -3 0
    endloop
  endfacet
  facet normal -0.8090169943749473 1.0700843162224567e-17 0.5877852522924732
    outer loop
      vertex -0.23176274578121053 -3 0.7132923872213651
      vertex -0.30916106078064504 -0.44083893921935485 0.6067627457812106
      vertex -0.75 -0.6379881062640299 0
    endloop
  endfacet
  facet normal 0.3090169943749474 0 0.9510565162951536
    outer loop
      vertex -0.23176274578121053 -3 0.7132923872213651
      vertex 0.09610177790033586 -0.44083893921935485 0.6067627457812106
      vertex 0.09610177790033587 0.44083893921935485 0.6067627457812106
    endloop
  endfacet
  facet normal 0 -1 0
    outer loop
      vertex 0.6067627457812106 -3 0.44083893921935485
      vertex -0.23176274578121053 -3 0.7132923872213651
      vertex 0.6067627457812106 -3 -0.44083893921935485
    endloop
  endfacet
  facet normal 0.3090169943749473 0 0.9510565162951535
    outer loop
      vertex 0.6067627457812106 -3 0.44083893921935485
      vertex 0.6067627457812106 -0.4947508520452405 0.44083893921935485
      vertex -0.23176274578121053 -3 0.7132923872213651
    endloop
  endfacet
  facet normal 1 0 0
    outer loop
      vertex 0.6067627457812106 -3 0.44083893921935485
      vertex 0.6067627457812106 -0.7132923872213651 -0.23176274578121053
      vertex 0.6067627457812106 -0.4947508520452405 0.44083893921935485
    endloop
  endfacet
  facet normal 0.30901699437494734 -9.964641180153985e-18 0.9510565162951535
    outer loop
      vertex -0.23176274578121053 -3 0.7132923872213651
      vertex 0.6067627457812106 -0.4947508520452405 0.44083893921935485
      vertex 0.09610177790033586 -0.44083893921935485 0.6067627457812106
    endloop
  endfacet
  facet normal -0.8090169943749475 0 -0.5877852522924732
    outer loop
      vertex -0.23176274578121053 7 -0.7132923872213651
      vertex -0.23176274578121053 0.05052369457216965 -0.7132923872213651
      vertex -0.5816145087826555 0.7132923872213651 -0.23176274578121053
    endloop
  endfacet
  facet normal 0.30901699437494734 0 -0.9510565162951535
    outer loop
      vertex -0.23176274578121053 7 -0.7132923872213651
      vertex 0.6067627457812106 0.4255236945721695 -0.44083893921935485
      vertex -0.23176274578121053 0.05052369457216965 -0.7132923872213651
    endloop
  endfacet
  facet normal 1 0 0
    outer loop
      vertex 0.6067627457812106 7 -0.44083893921935485
      vertex 0.6067627457812106 0.7132923872213651 -0.23176274578121053
      vertex 0.6067627457812106 0.4255236945721695 -0.44083893921935485
    endloop
  endfacet
  facet normal 0.30901699437494734 0 -0.9510565162951536
    outer loop
      vertex 0.6067627457812106 7 -0.44083893921935485
      vertex 0.6067627457812106 0.4255236945721695 -0.44083893921935485
      vertex -0.23176274578121053 7 -0.7132923872213651
    endloop
  endfacet
  facet normal -0.8090169943749475 0 -0.587785252292473
    outer loop
      vertex -0.75 7 0
      vertex -0.5816145087826555 0.7132923872213651 -0.23176274578121053
      vertex -0.75 0.6379881062640299 0
    endloop
  endfacet
  facet normal -0.8090169943749475 0 0.5877852522924729
    outer loop
      vertex -0.23176274578121053 7 0.7132923872213651
      vertex -0.30916106078064504 -0.44083893921935485 0.6067627457812106
      vertex -0.23176274578121053 -3 0.7132923872213651
    endloop
  endfacet
  facet normal -0.8090169943749475 2.806240444766073e-18 0.5877852522924731
    outer loop
      vertex -0.23176274578121053 7 0.7132923872213651
      vertex -0.75 0.6379881062640299 0
      vertex -0.3091610607806451 0.44083893921935485 0.6067627457812106
    endloop
  endfacet
  facet normal -0.8090169943749459 -5.976782917438547e-17 0.5877852522924755
    outer loop
      vertex -0.23176274578121053 7 0.7132923872213651
      vertex -0.3091610607806451 0.44083893921935485 0.6067627457812106
      vertex -0.30916106078064504 -0.44083893921935485 0.6067627457812106
    endloop
  endfacet
  facet normal 0.30901699437494584 6.709755141645598e-17 0.9510565162951541
    outer loop
      vertex 0.6067627457812106 7 0.44083893921935485
      vertex -0.23176274578121053 -3 0.7132923872213651
      vertex 0.09610177790033587 0.44083893921935485 0.6067627457812106
    endloop
  endfacet
  facet normal 0.3090169943749474 0 0.9510565162951536
    outer loop
      vertex 0.6067627457812106 7 0.44083893921935485
      vertex 0.09610177790033587 0.44083893921935485 0.6067627457812106
      vertex 0.6067627457812106 0.4947508520452405 0.44083893921935485
    endloop
  endfacet
  facet normal 1 0 0
    outer loop
      vertex 0.6067627457812106 7 0.44083893921935485
      vertex 0.6067627457812106 0.4947508520452405 0.44083893921935485
      vertex 0.6067627457812106 0.7132923872213651 -0.23176274578121053
    endloop
  endfacet
  facet normal -0.8090169943749475 2.503727365520608e-18 -0.5877852522924731
    outer loop
      vertex -0.75 7 0
      vertex -0.23176274578121053 7 -0.7132923872213651
      vertex -0.5816145087826555 0.7132923872213651 -0.23176274578121053
    endloop
  endfacet
  facet normal 1 0 0
    outer loop
      vertex 0.6067627457812106 7 0.44083893921935485
      vertex 0.6067627457812106 0.7132923872213651 -0.23176274578121053
      vertex 0.6067627457812106 7 -0.44083893921935485
    endloop
  endfacet
  facet normal -0.8090169943749473 0 0.5877852522924731
    outer loop
      vertex -0.23176274578121053 7 0.7132923872213651
      vertex -0.75 7 0
      vertex -0.75 0.6379881062640299 0
    endloop
  endfacet
  facet normal 0.3090169943749473 0 0.9510565162951535
    outer loop
      vertex 0.6067627457812106 7 0.44083893921935485
      vertex -0.23176274578121053 7 0.7132923872213651
      vertex -0.23176274578121053 -3 0.7132923872213651
    endloop
  endfacet
  facet normal 0 -1 0
    outer loop
      vertex -0.23176274578121053 7 -0.7132923872213651
      vertex -1.5 7 0
      vertex -0.46352549156242107 7 -1.4265847744427302
    endloop
  endfacet
  facet normal 0 -1 0
    outer loop
      vertex 0.6067627457812106 7 -0.44083893921935485
      vertex -0.23176274578121053 7 -0.7132923872213651
      vertex -0.46352549156242107 7 -1.4265847744427302
    endloop
  endfacet
  facet normal 0 -1 0
    outer loop
      vertex 0.6067627457812106 7 -0.44083893921935485
      vertex -0.46352549156242107 7 -1.4265847744427302
      vertex 1.2135254915624212 7 -0.8816778784387097
    endloop
  endfacet
  facet normal -0.749981803669958 0.374990901834979 -0.5448936755963917
    outer loop
      vertex 0 10 0
      vertex -0.46352549156242107 7 -1.4265847744427302
      vertex -1.5 7 0
    endloop
  endfacet
  facet normal 0.2864675580579733 0.374990901834979 -0.8816564873698207
    outer loop
      vertex 1.2135254915624212 7 -0.8816778784387097
      vertex -0.46352549156242107 7 -1.4265847744427302
      vertex 0 10 0
    endloop
  endfacet
  facet normal 0 -1 0
    outer loop
      vertex -0.75 7 0
      vertex -1.5 7 0
      vertex -0.23176274578121053 7 -0.7132923872213651
    endloop
  endfacet
  facet normal 0 -1 0
    outer loop
      vertex 0.6067627457812106 7 0.44083893921935485
      vertex 0.6067627457812106 7 -0.44083893921935485
      vertex 1.2135254915624212 7 -0.8816778784387097
    endloop
  endfacet
  facet normal 0 -1 0
    outer loop
      vertex -0.46352549156242107 7 1.4265847744427302
      vertex -1.5 7 0
      vertex -0.75 7 0
    endloop
  endfacet
  facet normal 0 -1 0
    outer loop
      vertex -0.46352549156242107 7 1.4265847744427302
      vertex -0.75 7 0
      vertex -0.23176274578121053 7 0.7132923872213651
    endloop
  endfacet
  facet normal 0 -1 0
    outer loop
      vertex 1.2135254915624212 7 0.8816778784387097
      vertex -0.23176274578121053 7 0.7132923872213651
      vertex 0.6067627457812106 7 0.44083893921935485
    endloop
  endfacet
  facet normal 0.9270284912239695 0.374990901834979 0
    outer loop
      vertex 1.2135254915624212 7 0.8816778784387097
      vertex 1.2135254915624212 7 -0.8816778784387097
      vertex 0 10 0
    endloop
  endfacet
  facet normal -0.749981803669958 0.374990901834979 0.5448936755963917
    outer loop
      vertex 0 10 0
      vertex -1.5 7 0
      vertex -0.46352549156242107 7 1.4265847744427302
    endloop
  endfacet
  facet normal 0.2864675580579733 0.374990901834979 0.8816564873698207
    outer loop
      vertex 1.2135254915624212 7 0.8816778784387097
      vertex 0 10 0
      vertex -0.46352549156242107 7 1.4265847744427302
    endloop
  endfacet
  facet normal 0 -1 0
    outer loop
      vertex 1.2135254915624212 7 0.8816778784387097
      vertex 0.6067627457812106 7 0.44083893921935485
      vertex 1.2135254915624212 7 -0.8816778784387097
    endloop
  endfacet
  facet normal 0 -1 0
    outer loop
      vertex 1.2135254915624212 7 0.8816778784387097
      vertex -0.46352549156242107 7 1.4265847744427302
      vertex -0.23176274578121053 7 0.7132923872213651
    endloop
  endfacet
  facet normal 0 0 -1
    outer loop
      vertex 11.441449999809265 0 -0.5
      vertex 11.046800002455711 0 -0.5
      vertex 11.830040000379086 1.1311199963092804 -0.5
    endloop
  endfacet
  facet normal 0 0 -1
    outer loop
      vertex 12.037519998848438 0.903269998729229 -0.5
      vertex 11.441449999809265 0 -0.5
      vertex 11.830040000379086 1.1311199963092804 -0.5
    endloop
  endfacet
  facet normal 0 0 -1
    outer loop
      vertex 12.245030000805855 1.1351699978113174 -0.5
      vertex 12.629539996385574 0 -0.5
      vertex 12.037519998848438 0.903269998729229 -0.5
    endloop
  endfacet
  facet normal 0 0 -1
    outer loop
      vertex 12.245030000805855 1.1351699978113174 -0.5
      vertex 13.038439996540546 0 -0.5
      vertex 12.629539996385574 0 -0.5
    endloop
  endfacet
  facet normal 0 -1 0
    outer loop
      vertex 11.441449999809265 0 -0.5
      vertex 11.046800002455711 0 0.5
      vertex 11.046800002455711 0 -0.5
    endloop
  endfacet
  facet normal 0 -1 0
    outer loop
      vertex 11.441449999809265 0 -0.5
      vertex 11.441449999809265 0 0.5
      vertex 11.046800002455711 0 0.5
    endloop
  endfacet
  facet normal 0.8346468730058764 -0.5507854367914176 0
    outer loop
      vertex 12.037519998848438 0.903269998729229 -0.5
      vertex 11.441449999809265 0 0.5
      vertex 11.441449999809265 0 -0.5
    endloop
  endfacet
  facet normal -0.8221388090250242 0.5692870793324883 0
    outer loop
      vertex 11.046800002455711 0 -0.5
      vertex 11.830040000379086 1.1311199963092804 0.5
      vertex 11.830040000379086 1.1311199963092804 -0.5
    endloop
  endfacet
  facet normal -0.8221388090250242 0.5692870793324883 0
    outer loop
      vertex 11.046800002455711 0 -0.5
      vertex 11.046800002455711 0 0.5
      vertex 11.830040000379086 1.1311199963092804 0.5
    endloop
  endfacet
  facet normal 0.8346468730058764 -0.5507854367914176 0
    outer loop
      vertex 12.037519998848438 0.903269998729229 -0.5
      vertex 12.037519998848438 0.903269998729229 0.5
      vertex 11.441449999809265 0 0.5
    endloop
  endfacet
  facet normal 0 -1 0
    outer loop
      vertex 13.038439996540546 0 -0.5
      vertex 12.629539996385574 0 0.5
      vertex 12.629539996385574 0 -0.5
    endloop
  endfacet
  facet normal 0 -1 0
    outer loop
      vertex 13.038439996540546 0 -0.5
      vertex 13.038439996540546 0 0.5
      vertex 12.629539996385574 0 0.5
    endloop
  endfacet
  facet normal -0.836366714381719 -0.5481703376454513 0
    outer loop
      vertex 12.629539996385574 0 -0.5
      vertex 12.037519998848438 0.903269998729229 0.5
      vertex 12.037519998848438 0.903269998729229 -0.5
    endloop
  endfacet
  facet normal 0.8196418228204603 0.5728763237240243 0
    outer loop
      vertex 12.245030000805855 1.1351699978113174 -0.5
      vertex 13.038439996540546 0 0.5
      vertex 13.038439996540546 0 -0.5
    endloop
  endfacet
  facet normal -0.836366714381719 -0.5481703376454513 0
    outer loop
      vertex 12.629539996385574 0 -0.5
      vertex 12.629539996385574 0 0.5
      vertex 12.037519998848438 0.903269998729229 0.5
    endloop
  endfacet
  facet normal 0.8196418228204603 0.5728763237240243 0
    outer loop
      vertex 12.245030000805855 1.1351699978113174 -0.5
      vertex 12.245030000805855 1.1351699978113174 0.5
      vertex 13.038439996540546 0 0.5
    endloop
  endfacet
  facet normal 0 0 1
    outer loop
      vertex 11.830040000379086 1.1311199963092804 0.5
      vertex 11.046800002455711 0 0.5
      vertex 11.441449999809265 0 0.5
    endloop
  endfacet
  facet normal 0 0 1
    outer loop
      vertex 11.830040000379086 1.1311199963092804 0.5
      vertex 11.441449999809265 0 0.5
      vertex 12.037519998848438 0.903269998729229 0.5
    endloop
  endfacet
  facet normal 0 0 1
    outer loop
      vertex 12.037519998848438 0.903269998729229 0.5
      vertex 12.629539996385574 0 0.5
      vertex 12.245030000805855 1.1351699978113174 0.5
    endloop
  endfacet
  facet normal 0 0 1
    outer loop
      vertex 12.629539996385574 0 0.5
      vertex 13.038439996540546 0 0.5
      vertex 12.245030000805855 1.1351699978113174 0.5
    endloop
  endfacet
  facet normal 0 0 -1
    outer loop
      vertex 11.830040000379086 1.1311199963092804 -0.5
      vertex 11.083400003612041 2.2011900022625923 -0.5
      vertex 11.488250002264977 2.2011900022625923 -0.5
    endloop
  endfacet
  facet normal 0 0 -1
    outer loop
      vertex 11.830040000379086 1.1311199963092804 -0.5
      vertex 11.488250002264977 2.2011900022625923 -0.5
      vertex 12.037519998848438 1.344719998538494 -0.5
    endloop
  endfacet
  facet normal 0 0 -1
    outer loop
      vertex 12.037519998848438 0.903269998729229 -0.5
      vertex 11.830040000379086 1.1311199963092804 -0.5
      vertex 12.245030000805855 1.1351699978113174 -0.5
    endloop
  endfacet
  facet normal 0 0 -1
    outer loop
      vertex 11.830040000379086 1.1311199963092804 -0.5
      vertex 12.037519998848438 1.344719998538494 -0.5
      vertex 12.245030000805855 1.1351699978113174 -0.5
    endloop
  endfacet
  facet normal 0 0 -1
    outer loop
      vertex 12.037519998848438 1.344719998538494 -0.5
      vertex 12.582740001380444 2.2011900022625923 -0.5
      vertex 12.245030000805855 1.1351699978113174 -0.5
    endloop
  endfacet
  facet normal 0 0 -1
    outer loop
      vertex 12.582740001380444 2.2011900022625923 -0.5
      vertex 12.991640001535416 2.2011900022625923 -0.5
      vertex 12.245030000805855 1.1351699978113174 -0.5
    endloop
  endfacet
  facet normal -0.820098351959402 -0.5722225905305321 0
    outer loop
      vertex 11.830040000379086 1.1311199963092804 -0.5
      vertex 11.083400003612041 2.2011900022625923 0.5
      vertex 11.083400003612041 2.2011900022625923 -0.5
    endloop
  endfacet
  facet normal 0.8417671463993501 0.5398407832339969 0
    outer loop
      vertex 11.488250002264977 2.2011900022625923 -0.5
      vertex 12.037519998848438 1.344719998538494 0.5
      vertex 12.037519998848438 1.344719998538494 -0.5
    endloop
  endfacet
  facet normal -0.820098351959402 -0.5722225905305321 0
    outer loop
      vertex 11.830040000379086 1.1311199963092804 -0.5
      vertex 11.830040000379086 1.1311199963092804 0.5
      vertex 11.083400003612041 2.2011900022625923 0.5
    endloop
  endfacet
  facet normal 0.8417671463993501 0.5398407832339969 0
    outer loop
      vertex 11.488250002264977 2.2011900022625923 -0.5
      vertex 11.488250002264977 2.2011900022625923 0.5
      vertex 12.037519998848438 1.344719998538494 0.5
    endloop
  endfacet
  facet normal 0 1 0
    outer loop
      vertex 11.083400003612041 2.2011900022625923 -0.5
      vertex 11.488250002264977 2.2011900022625923 0.5
      vertex 11.488250002264977 2.2011900022625923 -0.5
    endloop
  endfacet
  facet normal 0 1 0
    outer loop
      vertex 11.083400003612041 2.2011900022625923 -0.5
      vertex 11.083400003612041 2.2011900022625923 0.5
      vertex 11.488250002264977 2.2011900022625923 0.5
    endloop
  endfacet
  facet normal 0.8190889497111751 -0.5736665342000039 0
    outer loop
      vertex 12.991640001535416 2.2011900022625923 -0.5
      vertex 12.245030000805855 1.1351699978113174 0.5
      vertex 12.245030000805855 1.1351699978113174 -0.5
    endloop
  endfacet
  facet normal -0.8435750913456999 0.5370112338313736 0
    outer loop
      vertex 12.037519998848438 1.344719998538494 -0.5
      vertex 12.582740001380444 2.2011900022625923 0.5
      vertex 12.582740001380444 2.2011900022625923 -0.5
    endloop
  endfacet
  facet normal -0.8435750913456999 0.5370112338313736 0
    outer loop
      vertex 12.037519998848438 1.344719998538494 -0.5
      vertex 12.037519998848438 1.344719998538494 0.5
      vertex 12.582740001380444 2.2011900022625923 0.5
    endloop
  endfacet
  facet normal 0.8190889497111751 -0.5736665342000039 0
    outer loop
      vertex 12.991640001535416 2.2011900022625923 -0.5
      vertex 12.991640001535416 2.2011900022625923 0.5
      vertex 12.245030000805855 1.1351699978113174 0.5
    endloop
  endfacet
  facet normal 0 1 0
    outer loop
      vertex 12.582740001380444 2.2011900022625923 -0.5
      vertex 12.991640001535416 2.2011900022625923 0.5
      vertex 12.991640001535416 2.2011900022625923 -0.5
    endloop
  endfacet
  facet normal 0 1 0
    outer loop
      vertex 12.582740001380444 2.2011900022625923 -0.5
      vertex 12.582740001380444 2.2011900022625923 0.5
      vertex 12.991640001535416 2.2011900022625923 0.5
    endloop
  endfacet
  facet normal 0 0 1
    outer loop
      vertex 11.488250002264977 2.2011900022625923 0.5
      vertex 11.083400003612041 2.2011900022625923 0.5
      vertex 11.830040000379086 1.1311199963092804 0.5
    endloop
  endfacet
  facet normal 0 0 1
    outer loop
      vertex 12.037519998848438 1.344719998538494 0.5
      vertex 11.488250002264977 2.2011900022625923 0.5
      vertex 11.830040000379086 1.1311199963092804 0.5
    endloop
  endfacet
  facet normal 0 0 1
    outer loop
      vertex 12.245030000805855 1.1351699978113174 0.5
      vertex 11.830040000379086 1.1311199963092804 0.5
      vertex 12.037519998848438 0.903269998729229 0.5
    endloop
  endfacet
  facet normal 0 0 1
    outer loop
      vertex 12.245030000805855 1.1351699978113174 0.5
      vertex 12.037519998848438 1.344719998538494 0.5
      vertex 11.830040000379086 1.1311199963092804 0.5
    endloop
  endfacet
  facet normal 0 0 1
    outer loop
      vertex 12.245030000805855 1.1351699978113174 0.5
      vertex 12.582740001380444 2.2011900022625923 0.5
      vertex 12.037519998848438 1.344719998538494 0.5
    endloop
  endfacet
  facet normal 0 0 1
    outer loop
      vertex 12.245030000805855 1.1351699978113174 0.5
      vertex 12.991640001535416 2.2011900022625923 0.5
      vertex 12.582740001380444 2.2011900022625923 0.5
    endloop
  endfacet
  facet normal -1 0 0
    outer loop
      vertex -0.5 11.388559997081757 0.0013199970126152039
      vertex -0.5 11.250222496688366 0.006915003061294556
      vertex -0.5 11.307199999690056 0.2861099988222122
    endloop
  endfacet
  facet normal -1 0 0
    outer loop
      vertex -0.5 11.250222496688366 0.006915003061294556
      vertex -0.5 11.13628999888897 0.02369999885559082
      vertex -0.5 11.217672497034073 0.2891625016927719
    endloop
  endfacet
  facet normal -1 0 0
    outer loop
      vertex -0.5 11.13628999888897 0.02369999885559082
      vertex -0.5 11.13628999888897 0.2983200028538704
      vertex -0.5 11.217672497034073 0.2891625016927719
    endloop
  endfacet
  facet normal -1 0 0
    outer loop
      vertex -0.5 11.250222496688366 0.006915003061294556
      vertex -0.5 11.217672497034073 0.2891625016927719
      vertex -0.5 11.307199999690056 0.2861099988222122
    endloop
  endfacet
  facet normal -1 0 0
    outer loop
      vertex -0.5 11.560220003128052 0.022425003349781036
      vertex -0.5 11.388559997081757 0.0013199970126152039
      vertex -0.5 11.307199999690056 0.2861099988222122
    endloop
  endfacet
  facet normal -1 0 0
    outer loop
      vertex -0.5 11.713040001690388 0.08574000000953674
      vertex -0.5 11.560220003128052 0.022425003349781036
      vertex -0.5 11.61336500197649 0.41173499822616577
    endloop
  endfacet
  facet normal 0 -0.14575081503734658 -0.9893213329934563
    outer loop
      vertex -0.5 11.250222496688366 0.006915003061294556
      vertex 0.5 11.13628999888897 0.02369999885559082
      vertex -0.5 11.13628999888897 0.02369999885559082
    endloop
  endfacet
  facet normal 0 -0.040411570093634955 -0.9991831188538802
    outer loop
      vertex -0.5 11.388559997081757 0.0013199970126152039
      vertex 0.5 11.250222496688366 0.006915003061294556
      vertex -0.5 11.250222496688366 0.006915003061294556
    endloop
  endfacet
  facet normal 0 0.12202773712671655 -0.9925266905084884
    outer loop
      vertex -0.5 11.560220003128052 0.022425003349781036
      vertex 0.5 11.388559997081757 0.0013199970126152039
      vertex -0.5 11.388559997081757 0.0013199970126152039
    endloop
  endfacet
  facet normal 0 -1 0
    outer loop
      vertex -0.5 11.13628999888897 0.02369999885559082
      vertex 0.5 11.13628999888897 0.2983200028538704
      vertex -0.5 11.13628999888897 0.2983200028538704
    endloop
  endfacet
  facet normal 0 0.38276021542574845 -0.9238477241879393
    outer loop
      vertex -0.5 11.713040001690388 0.08574000000953674
      vertex 0.5 11.560220003128052 0.022425003349781036
      vertex -0.5 11.560220003128052 0.022425003349781036
    endloop
  endfacet
  facet normal 0 0.6127904477795952 -0.7902454473833325
    outer loop
      vertex -0.5 11.850110001862049 0.19202999770641327
      vertex 0.5 11.713040001690388 0.08574000000953674
      vertex -0.5 11.713040001690388 0.08574000000953674
    endloop
  endfacet
  facet normal 0 -0.14575081503734658 -0.9893213329934563
    outer loop
      vertex -0.5 11.250222496688366 0.006915003061294556
      vertex 0.5 11.250222496688366 0.006915003061294556
      vertex 0.5 11.13628999888897 0.02369999885559082
    endloop
  endfacet
  facet normal 0 -0.040411570093634955 -0.9991831188538802
    outer loop
      vertex -0.5 11.388559997081757 0.0013199970126152039
      vertex 0.5 11.388559997081757 0.0013199970126152039
      vertex 0.5 11.250222496688366 0.006915003061294556
    endloop
  endfacet
  facet normal 0 0.12202773712671655 -0.9925266905084884
    outer loop
      vertex -0.5 11.560220003128052 0.022425003349781036
      vertex 0.5 11.560220003128052 0.022425003349781036
      vertex 0.5 11.388559997081757 0.0013199970126152039
    endloop
  endfacet
  facet normal 0 -1 0
    outer loop
      vertex -0.5 11.13628999888897 0.02369999885559082
      vertex 0.5 11.13628999888897 0.02369999885559082
      vertex 0.5 11.13628999888897 0.2983200028538704
    endloop
  endfacet
  facet normal 1 0 0
    outer loop
      vertex 0.5 11.307199999690056 0.2861099988222122
      vertex 0.5 11.250222496688366 0.006915003061294556
      vertex 0.5 11.388559997081757 0.0013199970126152039
    endloop
  endfacet
  facet normal 1 0 0
    outer loop
      vertex 0.5 11.217672497034073 0.2891625016927719
      vertex 0.5 11.13628999888897 0.02369999885559082
      vertex 0.5 11.250222496688366 0.006915003061294556
    endloop
  endfacet
  facet normal 1 0 0
    outer loop
      vertex 0.5 11.217672497034073 0.2891625016927719
      vertex 0.5 11.13628999888897 0.2983200028538704
      vertex 0.5 11.13628999888897 0.02369999885559082
    endloop
  endfacet
  facet normal 1 0 0
    outer loop
      vertex 0.5 11.307199999690056 0.2861099988222122
      vertex 0.5 11.217672497034073 0.2891625016927719
      vertex 0.5 11.250222496688366 0.006915003061294556
    endloop
  endfacet
  facet normal 1 0 0
    outer loop
      vertex 0.5 11.307199999690056 0.2861099988222122
      vertex 0.5 11.388559997081757 0.0013199970126152039
      vertex 0.5 11.560220003128052 0.022425003349781036
    endloop
  endfacet
  facet normal 0 0.38276021542574845 -0.9238477241879393
    outer loop
      vertex -0.5 11.713040001690388 0.08574000000953674
      vertex 0.5 11.713040001690388 0.08574000000953674
      vertex 0.5 11.560220003128052 0.022425003349781036
    endloop
  endfacet
  facet normal 0 0.6127904477795952 -0.7902454473833325
    outer loop
      vertex -0.5 11.850110001862049 0.19202999770641327
      vertex 0.5 11.850110001862049 0.19202999770641327
      vertex 0.5 11.713040001690388 0.08574000000953674
    endloop
  endfacet
  facet normal 1 0 0
    outer loop
      vertex 0.5 11.61336500197649 0.41173499822616577
      vertex 0.5 11.560220003128052 0.022425003349781036
      vertex 0.5 11.713040001690388 0.08574000000953674
    endloop
  endfacet
  facet normal -1 0 0
    outer loop
      vertex -0.5 11.560220003128052 0.022425003349781036
      vertex -0.5 11.307199999690056 0.2861099988222122
      vertex -0.5 11.61336500197649 0.41173499822616577
    endloop
  endfacet
  facet normal -1 0 0
    outer loop
      vertex -0.5 11.850110001862049 0.19202999770641327
      vertex -0.5 11.713040001690388 0.08574000000953674
      vertex -0.5 11.61336500197649 0.41173499822616577
    endloop
  endfacet
  facet normal -1 0 0
    outer loop
      vertex -0.5 11.974459998309612 0.34205999970436096
      vertex -0.5 11.850110001862049 0.19202999770641327
      vertex -0.5 11.61336500197649 0.41173499822616577
    endloop
  endfacet
  facet normal -1 0 0
    outer loop
      vertex -0.5 12.097032502293587 0.5589750036597252
      vertex -0.5 11.974459998309612 0.34205999970436096
      vertex -0.5 11.61336500197649 0.41173499822616577
    endloop
  endfacet
  facet normal 0 0.1118185287108516 0.9937286433614261
    outer loop
      vertex -0.5 11.13628999888897 0.2983200028538704
      vertex 0.5 11.217672497034073 0.2891625016927719
      vertex -0.5 11.217672497034073 0.2891625016927719
    endloop
  endfacet
  facet normal 0 0.03407589883189288 0.9994192479229118
    outer loop
      vertex -0.5 11.217672497034073 0.2891625016927719
      vertex 0.5 11.307199999690056 0.2861099988222122
      vertex -0.5 11.307199999690056 0.2861099988222122
    endloop
  endfacet
  facet normal 0 -0.3796050956848689 0.925148621211793
    outer loop
      vertex -0.5 11.307199999690056 0.2861099988222122
      vertex 0.5 11.61336500197649 0.41173499822616577
      vertex -0.5 11.61336500197649 0.41173499822616577
    endloop
  endfacet
  facet normal 0 0.7699221580343787 -0.6381378147137852
    outer loop
      vertex -0.5 11.974459998309612 0.34205999970436096
      vertex 0.5 11.850110001862049 0.19202999770641327
      vertex -0.5 11.850110001862049 0.19202999770641327
    endloop
  endfacet
  facet normal 0 0.8706172128246759 -0.4919610439185128
    outer loop
      vertex -0.5 12.097032502293587 0.5589750036597252
      vertex 0.5 11.974459998309612 0.34205999970436096
      vertex -0.5 11.974459998309612 0.34205999970436096
    endloop
  endfacet
  facet normal -1 0 0
    outer loop
      vertex -0.5 12.097032502293587 0.5589750036597252
      vertex -0.5 11.61336500197649 0.41173499822616577
      vertex -0.5 11.84833999723196 0.7886099964380264
    endloop
  endfacet
  facet normal -1 0 0
    outer loop
      vertex -0.5 12.22877000272274 0.8659199997782707
      vertex -0.5 12.097032502293587 0.5589750036597252
      vertex -0.5 11.84833999723196 0.7886099964380264
    endloop
  endfacet
  facet normal 0 -0.8485765171932772 0.5290726740894182
    outer loop
      vertex -0.5 11.61336500197649 0.41173499822616577
      vertex 0.5 11.84833999723196 0.7886099964380264
      vertex -0.5 11.84833999723196 0.7886099964380264
    endloop
  endfacet
  facet normal 0 0.9189393352715879 -0.39439890731417093
    outer loop
      vertex -0.5 12.22877000272274 0.8659199997782707
      vertex 0.5 12.097032502293587 0.5589750036597252
      vertex -0.5 12.097032502293587 0.5589750036597252
    endloop
  endfacet
  facet normal 0 0.1118185287108516 0.9937286433614261
    outer loop
      vertex -0.5 11.13628999888897 0.2983200028538704
      vertex 0.5 11.13628999888897 0.2983200028538704
      vertex 0.5 11.217672497034073 0.2891625016927719
    endloop
  endfacet
  facet normal 0 0.03407589883189288 0.9994192479229118
    outer loop
      vertex -0.5 11.217672497034073 0.2891625016927719
      vertex 0.5 11.217672497034073 0.2891625016927719
      vertex 0.5 11.307199999690056 0.2861099988222122
    endloop
  endfacet
  facet normal 0 -0.3796050956848689 0.925148621211793
    outer loop
      vertex -0.5 11.307199999690056 0.2861099988222122
      vertex 0.5 11.307199999690056 0.2861099988222122
      vertex 0.5 11.61336500197649 0.41173499822616577
    endloop
  endfacet
  facet normal 1 0 0
    outer loop
      vertex 0.5 11.61336500197649 0.41173499822616577
      vertex 0.5 11.307199999690056 0.2861099988222122
      vertex 0.5 11.560220003128052 0.022425003349781036
    endloop
  endfacet
  facet normal 0 0.7699221580343787 -0.6381378147137852
    outer loop
      vertex -0.5 11.974459998309612 0.34205999970436096
      vertex 0.5 11.974459998309612 0.34205999970436096
      vertex 0.5 11.850110001862049 0.19202999770641327
    endloop
  endfacet
  facet normal 1 0 0
    outer loop
      vertex 0.5 11.61336500197649 0.41173499822616577
      vertex 0.5 11.713040001690388 0.08574000000953674
      vertex 0.5 11.850110001862049 0.19202999770641327
    endloop
  endfacet
  facet normal 1 0 0
    outer loop
      vertex 0.5 11.61336500197649 0.41173499822616577
      vertex 0.5 11.850110001862049 0.19202999770641327
      vertex 0.5 11.974459998309612 0.34205999970436096
    endloop
  endfacet
  facet normal 0 0.8706172128246759 -0.4919610439185128
    outer loop
      vertex -0.5 12.097032502293587 0.5589750036597252
      vertex 0.5 12.097032502293587 0.5589750036597252
      vertex 0.5 11.974459998309612 0.34205999970436096
    endloop
  endfacet
  facet normal 1 0 0
    outer loop
      vertex 0.5 11.61336500197649 0.41173499822616577
      vertex 0.5 11.974459998309612 0.34205999970436096
      vertex 0.5 12.097032502293587 0.5589750036597252
    endloop
  endfacet
  facet normal 0 -0.8485765171932772 0.5290726740894182
    outer loop
      vertex -0.5 11.61336500197649 0.41173499822616577
      vertex 0.5 11.61336500197649 0.41173499822616577
      vertex 0.5 11.84833999723196 0.7886099964380264
    endloop
  endfacet
  facet normal 1 0 0
    outer loop
      vertex 0.5 11.84833999723196 0.7886099964380264
      vertex 0.5 11.61336500197649 0.41173499822616577
      vertex 0.5 12.097032502293587 0.5589750036597252
    endloop
  endfacet
  facet normal 1 0 0
    outer loop
      vertex 0.5 11.84833999723196 0.7886099964380264
      vertex 0.5 12.097032502293587 0.5589750036597252
      vertex 0.5 12.22877000272274 0.8659199997782707
    endloop
  endfacet
  facet normal 0 0.9189393352715879 -0.39439890731417093
    outer loop
      vertex -0.5 12.22877000272274 0.8659199997782707
      vertex 0.5 12.22877000272274 0.8659199997782707
      vertex 0.5 12.097032502293587 0.5589750036597252
    endloop
  endfacet
  facet normal -1 0 0
    outer loop
      vertex -0.5 12.22877000272274 0.8659199997782707
      vertex -0.5 11.84833999723196 0.7886099964380264
      vertex -0.5 11.882930003106594 0.8760899975895882
    endloop
  endfacet
  facet normal -1 0 0
    outer loop
      vertex -0.5 12.063979998230934 1.2646500021219254
      vertex -0.5 12.22877000272274 0.8659199997782707
      vertex -0.5 11.882930003106594 0.8760899975895882
    endloop
  endfacet
  facet normal 0 -0.9299429489946621 0.3677038368240279
    outer loop
      vertex -0.5 11.84833999723196 0.7886099964380264
      vertex 0.5 11.882930003106594 0.8760899975895882
      vertex -0.5 11.882930003106594 0.8760899975895882
    endloop
  endfacet
  facet normal -1 0 0
    outer loop
      vertex -0.5 12.04008500277996 1.34094750136137
      vertex -0.5 12.063979998230934 1.2646500021219254
      vertex -0.5 11.882930003106594 0.8760899975895882
    endloop
  endfacet
  facet normal 0 0.9542945328988512 0.29886777089435956
    outer loop
      vertex -0.5 12.04008500277996 1.34094750136137
      vertex 0.5 12.063979998230934 1.2646500021219254
      vertex -0.5 12.063979998230934 1.2646500021219254
    endloop
  endfacet
  facet normal -1 0 0
    outer loop
      vertex -0.5 12.063979998230934 1.2646500021219254
      vertex -0.5 12.206390000879765 1.6654200032353401
      vertex -0.5 12.22877000272274 0.8659199997782707
    endloop
  endfacet
  facet normal 0 -0.9299429489946621 0.3677038368240279
    outer loop
      vertex -0.5 11.84833999723196 0.7886099964380264
      vertex 0.5 11.84833999723196 0.7886099964380264
      vertex 0.5 11.882930003106594 0.8760899975895882
    endloop
  endfacet
  facet normal 1 0 0
    outer loop
      vertex 0.5 11.882930003106594 0.8760899975895882
      vertex 0.5 11.84833999723196 0.7886099964380264
      vertex 0.5 12.22877000272274 0.8659199997782707
    endloop
  endfacet
  facet normal 1 0 0
    outer loop
      vertex 0.5 11.882930003106594 0.8760899975895882
      vertex 0.5 12.22877000272274 0.8659199997782707
      vertex 0.5 12.063979998230934 1.2646500021219254
    endloop
  endfacet
  facet normal 1 0 0
    outer loop
      vertex 0.5 11.882930003106594 0.8760899975895882
      vertex 0.5 12.063979998230934 1.2646500021219254
      vertex 0.5 12.04008500277996 1.34094750136137
    endloop
  endfacet
  facet normal 0 0.9542945328988512 0.29886777089435956
    outer loop
      vertex -0.5 12.04008500277996 1.34094750136137
      vertex 0.5 12.04008500277996 1.34094750136137
      vertex 0.5 12.063979998230934 1.2646500021219254
    endloop
  endfacet
  facet normal 1 0 0
    outer loop
      vertex 0.5 12.22877000272274 0.8659199997782707
      vertex 0.5 12.206390000879765 1.6654200032353401
      vertex 0.5 12.063979998230934 1.2646500021219254
    endloop
  endfacet
  facet normal 0 0.9473057164676669 0.3203308907172087
    outer loop
      vertex -0.5 11.980580002069473 1.5169200003147125
      vertex 0.5 12.04008500277996 1.34094750136137
      vertex -0.5 12.04008500277996 1.34094750136137
    endloop
  endfacet
  facet normal 0 0.9458161535682937 0.3247026388086145
    outer loop
      vertex -0.5 11.919035002589226 1.6961925029754639
      vertex 0.5 11.980580002069473 1.5169200003147125
      vertex -0.5 11.980580002069473 1.5169200003147125
    endloop
  endfacet
  facet normal -1 0 0
    outer loop
      vertex -0.5 12.04008500277996 1.34094750136137
      vertex -0.5 11.882930003106594 0.8760899975895882
      vertex -0.5 11.010169997811317 3.067110002040863
    endloop
  endfacet
  facet normal 0 0.9443836672536201 0.32884569181396267
    outer loop
      vertex -0.5 11.889020003378391 1.7823899984359741
      vertex 0.5 11.919035002589226 1.6961925029754639
      vertex -0.5 11.919035002589226 1.6961925029754639
    endloop
  endfacet
  facet normal 0 0.9412820068671344 0.3376213612142754
    outer loop
      vertex -0.5 11.875789999961853 1.8192749992012978
      vertex 0.5 11.889020003378391 1.7823899984359741
      vertex -0.5 11.889020003378391 1.7823899984359741
    endloop
  endfacet
  facet normal 0 0.9415476769032886 0.33687975913969725
    outer loop
      vertex -0.5 11.864600002765656 1.850550003349781
      vertex 0.5 11.875789999961853 1.8192749992012978
      vertex -0.5 11.875789999961853 1.8192749992012978
    endloop
  endfacet
  facet normal 0 -0.9422784963487698 0.33483015891448814
    outer loop
      vertex -0.5 12.063979998230934 1.2646500021219254
      vertex 0.5 12.206390000879765 1.6654200032353401
      vertex -0.5 12.206390000879765 1.6654200032353401
    endloop
  endfacet
  facet normal 0 0.9333898612273415 -0.35886399507056155
    outer loop
      vertex -0.5 13.07507000118494 3.067110002040863
      vertex 0.5 12.22877000272274 0.8659199997782707
      vertex -0.5 12.22877000272274 0.8659199997782707
    endloop
  endfacet
  facet normal -1 0 0
    outer loop
      vertex -0.5 12.206390000879765 1.6654200032353401
      vertex -0.5 13.07507000118494 3.067110002040863
      vertex -0.5 12.22877000272274 0.8659199997782707
    endloop
  endfacet
  facet normal 0 0.9473057164676669 0.3203308907172087
    outer loop
      vertex -0.5 11.980580002069473 1.5169200003147125
      vertex 0.5 11.980580002069473 1.5169200003147125
      vertex 0.5 12.04008500277996 1.34094750136137
    endloop
  endfacet
  facet normal 0 -0.9290091051727302 -0.3700568638819761
    outer loop
      vertex -0.5 11.882930003106594 0.8760899975895882
      vertex 0.5 11.882930003106594 0.8760899975895882
      vertex 0.5 11.010169997811317 3.067110002040863
    endloop
  endfacet
  facet normal 0 0.9458161535682937 0.3247026388086145
    outer loop
      vertex -0.5 11.919035002589226 1.6961925029754639
      vertex 0.5 11.919035002589226 1.6961925029754639
      vertex 0.5 11.980580002069473 1.5169200003147125
    endloop
  endfacet
  facet normal 0 0.9443836672536201 0.32884569181396267
    outer loop
      vertex -0.5 11.889020003378391 1.7823899984359741
      vertex 0.5 11.889020003378391 1.7823899984359741
      vertex 0.5 11.919035002589226 1.6961925029754639
    endloop
  endfacet
  facet normal 1 0 0
    outer loop
      vertex 0.5 11.010169997811317 3.067110002040863
      vertex 0.5 11.882930003106594 0.8760899975895882
      vertex 0.5 12.04008500277996 1.34094750136137
    endloop
  endfacet
  facet normal 0 0.9412820068671344 0.3376213612142754
    outer loop
      vertex -0.5 11.875789999961853 1.8192749992012978
      vertex 0.5 11.875789999961853 1.8192749992012978
      vertex 0.5 11.889020003378391 1.7823899984359741
    endloop
  endfacet
  facet normal 0 0.9415476769032886 0.33687975913969725
    outer loop
      vertex -0.5 11.864600002765656 1.850550003349781
      vertex 0.5 11.864600002765656 1.850550003349781
      vertex 0.5 11.875789999961853 1.8192749992012978
    endloop
  endfacet
  facet normal 0 -0.9422784963487698 0.33483015891448814
    outer loop
      vertex -0.5 12.063979998230934 1.2646500021219254
      vertex 0.5 12.063979998230934 1.2646500021219254
      vertex 0.5 12.206390000879765 1.6654200032353401
    endloop
  endfacet
  facet normal 1 0 0
    outer loop
      vertex 0.5 12.22877000272274 0.8659199997782707
      vertex 0.5 13.07507000118494 3.067110002040863
      vertex 0.5 12.206390000879765 1.6654200032353401
    endloop
  endfacet
  facet normal -1 0 0
    outer loop
      vertex -0.5 11.980580002069473 1.5169200003147125
      vertex -0.5 12.04008500277996 1.34094750136137
      vertex -0.5 11.010169997811317 3.067110002040863
    endloop
  endfacet
  facet normal -1 0 0
    outer loop
      vertex -0.5 11.919035002589226 1.6961925029754639
      vertex -0.5 11.980580002069473 1.5169200003147125
      vertex -0.5 11.010169997811317 3.067110002040863
    endloop
  endfacet
  facet normal -1 0 0
    outer loop
      vertex -0.5 11.889020003378391 1.7823899984359741
      vertex -0.5 11.919035002589226 1.6961925029754639
      vertex -0.5 11.010169997811317 3.067110002040863
    endloop
  endfacet
  facet normal -1 0 0
    outer loop
      vertex -0.5 11.875789999961853 1.8192749992012978
      vertex -0.5 11.889020003378391 1.7823899984359741
      vertex -0.5 11.010169997811317 3.067110002040863
    endloop
  endfacet
  facet normal -1 0 0
    outer loop
      vertex -0.5 11.875789999961853 1.8192749992012978
      vertex -0.5 11.010169997811317 3.067110002040863
      vertex -0.5 11.864600002765656 1.850550003349781
    endloop
  endfacet
  facet normal 0 -0.9290091051727302 -0.3700568638819761
    outer loop
      vertex -0.5 11.882930003106594 0.8760899975895882
      vertex 0.5 11.010169997811317 3.067110002040863
      vertex -0.5 11.010169997811317 3.067110002040863
    endloop
  endfacet
  facet normal 0 0.9343909699603187 0.35624923193828045
    outer loop
      vertex -0.5 11.400770001113415 3.067110002040863
      vertex 0.5 11.864600002765656 1.850550003349781
      vertex -0.5 11.864600002765656 1.850550003349781
    endloop
  endfacet
  facet normal 1 0 0
    outer loop
      vertex 0.5 11.010169997811317 3.067110002040863
      vertex 0.5 12.04008500277996 1.34094750136137
      vertex 0.5 11.980580002069473 1.5169200003147125
    endloop
  endfacet
  facet normal 1 0 0
    outer loop
      vertex 0.5 11.010169997811317 3.067110002040863
      vertex 0.5 11.980580002069473 1.5169200003147125
      vertex 0.5 11.919035002589226 1.6961925029754639
    endloop
  endfacet
  facet normal 1 0 0
    outer loop
      vertex 0.5 11.010169997811317 3.067110002040863
      vertex 0.5 11.919035002589226 1.6961925029754639
      vertex 0.5 11.889020003378391 1.7823899984359741
    endloop
  endfacet
  facet normal 1 0 0
    outer loop
      vertex 0.5 11.010169997811317 3.067110002040863
      vertex 0.5 11.889020003378391 1.7823899984359741
      vertex 0.5 11.875789999961853 1.8192749992012978
    endloop
  endfacet
  facet normal 1 0 0
    outer loop
      vertex 0.5 11.864600002765656 1.850550003349781
      vertex 0.5 11.010169997811317 3.067110002040863
      vertex 0.5 11.875789999961853 1.8192749992012978
    endloop
  endfacet
  facet normal 0 -0.9456245574405057 0.32526019794227495
    outer loop
      vertex -0.5 12.206390000879765 1.6654200032353401
      vertex 0.5 12.206390000879765 1.6654200032353401
      vertex 0.5 12.68851999938488 3.067110002040863
    endloop
  endfacet
  facet normal 0 0.9333898612273415 -0.35886399507056155
    outer loop
      vertex -0.5 13.07507000118494 3.067110002040863
      vertex 0.5 13.07507000118494 3.067110002040863
      vertex 0.5 12.22877000272274 0.8659199997782707
    endloop
  endfacet
  facet normal -1 0 0
    outer loop
      vertex -0.5 11.010169997811317 3.067110002040863
      vertex -0.5 11.400770001113415 3.067110002040863
      vertex -0.5 11.864600002765656 1.850550003349781
    endloop
  endfacet
  facet normal 0 0 1
    outer loop
      vertex -0.5 11.010169997811317 3.067110002040863
      vertex 0.5 11.400770001113415 3.067110002040863
      vertex -0.5 11.400770001113415 3.067110002040863
    endloop
  endfacet
  facet normal -1 0 0
    outer loop
      vertex -0.5 12.206390000879765 1.6654200032353401
      vertex -0.5 12.68851999938488 3.067110002040863
      vertex -0.5 13.07507000118494 3.067110002040863
    endloop
  endfacet
  facet normal 0 -0.9456245574405057 0.32526019794227495
    outer loop
      vertex -0.5 12.206390000879765 1.6654200032353401
      vertex 0.5 12.68851999938488 3.067110002040863
      vertex -0.5 12.68851999938488 3.067110002040863
    endloop
  endfacet
  facet normal 0 0 1
    outer loop
      vertex -0.5 12.68851999938488 3.067110002040863
      vertex 0.5 13.07507000118494 3.067110002040863
      vertex -0.5 13.07507000118494 3.067110002040863
    endloop
  endfacet
  facet normal 0 0.9343909699603187 0.35624923193828045
    outer loop
      vertex -0.5 11.400770001113415 3.067110002040863
      vertex 0.5 11.400770001113415 3.067110002040863
      vertex 0.5 11.864600002765656 1.850550003349781
    endloop
  endfacet
  facet normal 1 0 0
    outer loop
      vertex 0.5 11.864600002765656 1.850550003349781
      vertex 0.5 11.400770001113415 3.067110002040863
      vertex 0.5 11.010169997811317 3.067110002040863
    endloop
  endfacet
  facet normal 0 0 1
    outer loop
      vertex -0.5 11.010169997811317 3.067110002040863
      vertex 0.5 11.010169997811317 3.067110002040863
      vertex 0.5 11.400770001113415 3.067110002040863
    endloop
  endfacet
  facet normal 1 0 0
    outer loop
      vertex 0.5 13.07507000118494 3.067110002040863
      vertex 0.5 12.68851999938488 3.067110002040863
      vertex 0.5 12.206390000879765 1.6654200032353401
    endloop
  endfacet
  facet normal 0 0 1
    outer loop
      vertex -0.5 12.68851999938488 3.067110002040863
      vertex 0.5 12.68851999938488 3.067110002040863
      vertex 0.5 13.07507000118494 3.067110002040863
    endloop
  endfacet
endsolid OpenSCAD_Model
