solid OpenSCAD_Model
  facet normal 0.890500936492484 0.09359541993340956 0.445250468246242
    outer loop
      vertex 30 0 0
      vertex 4.8907380036690284 1.0395584540887968 50
      vertex 5 0 50
    endloop
  endfacet
  facet normal 0.8905009364924839 0.09359541993341085 0.4452504682462419
    outer loop
      vertex 4.8907380036690284 1.0395584540887968 50
      vertex 30 0 0
      vertex 29.34442802201417 6.237350724532781 0
    endloop
  endfacet
  facet normal 0.8515817724701763 0.27669569082848994 0.4452504682462419
    outer loop
      vertex 4.567727288213004 2.033683215379001 50
      vertex 29.34442802201417 6.237350724532781 0
      vertex 27.406363729278027 12.202099292274006 0
    endloop
  endfacet
  facet normal 0.8515817724701759 0.2766956908284912 0.4452504682462419
    outer loop
      vertex 29.34442802201417 6.237350724532781 0
      vertex 4.567727288213004 2.033683215379001 50
      vertex 4.8907380036690284 1.0395584540887968 50
    endloop
  endfacet
  facet normal 0.7754443986482052 0.44770303230112884 0.44525046824624176
    outer loop
      vertex 4.045084971874737 2.938926261462366 50
      vertex 27.406363729278027 12.202099292274006 0
      vertex 24.270509831248425 17.633557568774194 0
    endloop
  endfacet
  facet normal 0.775444398648205 0.44770303230112996 0.4452504682462411
    outer loop
      vertex 27.406363729278027 12.202099292274006 0
      vertex 4.045084971874737 2.938926261462366 50
      vertex 4.567727288213004 2.033683215379001 50
    endloop
  endfacet
  facet normal 0.6654163836102447 0.5991436029447078 0.44525046824624204
    outer loop
      vertex 3.345653031794291 3.715724127386971 50
      vertex 24.270509831248425 17.633557568774194 0
      vertex 20.073918190765745 22.294344764321828 0
    endloop
  endfacet
  facet normal 0.6654163836102445 0.599143602944708 0.44525046824624237
    outer loop
      vertex 24.270509831248425 17.633557568774194 0
      vertex 3.345653031794291 3.715724127386971 50
      vertex 4.045084971874737 2.938926261462366 50
    endloop
  endfacet
  facet normal 0.5263064795864482 0.7243987231296186 0.445250468246242
    outer loop
      vertex 15 25.980762113533157 0
      vertex 3.345653031794291 3.715724127386971 50
      vertex 20.073918190765745 22.294344764321828 0
    endloop
  endfacet
  facet normal 0.5263064795864483 0.7243987231296186 0.445250468246242
    outer loop
      vertex 3.345653031794291 3.715724127386971 50
      vertex 15 25.980762113533157 0
      vertex 2.5 4.330127018922193 50
    endloop
  endfacet
  facet normal 0.36419445690603547 0.8179941430630296 0.4452504682462419
    outer loop
      vertex 9.270509831248422 28.531695488854606 0
      vertex 2.5 4.330127018922193 50
      vertex 15 25.980762113533157 0
    endloop
  endfacet
  facet normal 0.3641944569060353 0.8179941430630299 0.4452504682462419
    outer loop
      vertex 2.5 4.330127018922193 50
      vertex 9.270509831248422 28.531695488854606 0
      vertex 1.545084971874737 4.755282581475767 50
    endloop
  endfacet
  facet normal 0.18616538885993147 0.8758392937731972 0.4452504682462419
    outer loop
      vertex 3.135853898029604 29.8356568610482 0
      vertex 1.545084971874737 4.755282581475767 50
      vertex 9.270509831248422 28.531695488854606 0
    endloop
  endfacet
  facet normal 0.18616538885993167 0.8758392937731971 0.44525046824624187
    outer loop
      vertex 1.545084971874737 4.755282581475767 50
      vertex 3.135853898029604 29.8356568610482 0
      vertex 0.5226423163382674 4.972609476841367 50
    endloop
  endfacet
  facet normal 0 0.8954060646022577 0.4452504682462419
    outer loop
      vertex 3.135853898029604 29.8356568610482 0
      vertex -0.5226423163382674 4.972609476841367 50
      vertex 0.5226423163382674 4.972609476841367 50
    endloop
  endfacet
  facet normal 0 0.8954060646022575 0.4452504682462419
    outer loop
      vertex -0.5226423163382674 4.972609476841367 50
      vertex 3.135853898029604 29.8356568610482 0
      vertex -3.135853898029604 29.8356568610482 0
    endloop
  endfacet
  facet normal -0.18616538885993203 0.8758392937731971 0.445250468246242
    outer loop
      vertex -3.135853898029604 29.8356568610482 0
      vertex -1.545084971874737 4.755282581475767 50
      vertex -0.5226423163382674 4.972609476841367 50
    endloop
  endfacet
  facet normal -0.186165388859932 0.8758392937731971 0.4452504682462418
    outer loop
      vertex -1.545084971874737 4.755282581475767 50
      vertex -3.135853898029604 29.8356568610482 0
      vertex -9.270509831248422 28.531695488854606 0
    endloop
  endfacet
  facet normal -0.3641944569060375 0.8179941430630289 0.44525046824624154
    outer loop
      vertex -9.270509831248422 28.531695488854606 0
      vertex -2.5 4.330127018922193 50
      vertex -1.545084971874737 4.755282581475767 50
    endloop
  endfacet
  facet normal -0.36419445690603575 0.8179941430630295 0.44525046824624187
    outer loop
      vertex -2.5 4.330127018922193 50
      vertex -9.270509831248422 28.531695488854606 0
      vertex -15 25.980762113533157 0
    endloop
  endfacet
  facet normal -0.5263064795864488 0.7243987231296185 0.4452504682462415
    outer loop
      vertex -15 25.980762113533157 0
      vertex -3.345653031794291 3.715724127386971 50
      vertex -2.5 4.330127018922193 50
    endloop
  endfacet
  facet normal -0.5263064795864482 0.7243987231296186 0.44525046824624187
    outer loop
      vertex -3.345653031794291 3.715724127386971 50
      vertex -15 25.980762113533157 0
      vertex -20.073918190765745 22.294344764321828 0
    endloop
  endfacet
  facet normal -0.6654163836102449 0.5991436029447078 0.4452504682462419
    outer loop
      vertex -24.270509831248425 17.633557568774194 0
      vertex -3.345653031794291 3.715724127386971 50
      vertex -20.073918190765745 22.294344764321828 0
    endloop
  endfacet
  facet normal -0.6654163836102449 0.5991436029447077 0.44525046824624187
    outer loop
      vertex -3.345653031794291 3.715724127386971 50
      vertex -24.270509831248425 17.633557568774194 0
      vertex -4.045084971874737 2.938926261462366 50
    endloop
  endfacet
  facet normal -0.7754443986482054 0.44770303230112857 0.4452504682462419
    outer loop
      vertex -27.406363729278027 12.202099292274006 0
      vertex -4.045084971874737 2.938926261462366 50
      vertex -24.270509831248425 17.633557568774194 0
    endloop
  endfacet
  facet normal -0.7754443986482055 0.4477030323011285 0.445250468246242
    outer loop
      vertex -4.045084971874737 2.938926261462366 50
      vertex -27.406363729278027 12.202099292274006 0
      vertex -4.567727288213004 2.033683215379001 50
    endloop
  endfacet
  facet normal -0.8515817724701763 0.2766956908284898 0.4452504682462419
    outer loop
      vertex -29.34442802201417 6.237350724532781 0
      vertex -4.567727288213004 2.033683215379001 50
      vertex -27.406363729278027 12.202099292274006 0
    endloop
  endfacet
  facet normal -0.8515817724701761 0.27669569082849 0.44525046824624187
    outer loop
      vertex -4.567727288213004 2.033683215379001 50
      vertex -29.34442802201417 6.237350724532781 0
      vertex -4.8907380036690284 1.0395584540887968 50
    endloop
  endfacet
  facet normal -0.8905009364924839 0.09359541993341101 0.445250468246242
    outer loop
      vertex -30 0 0
      vertex -4.8907380036690284 1.0395584540887968 50
      vertex -29.34442802201417 6.237350724532781 0
    endloop
  endfacet
  facet normal -0.8905009364924839 0.093595419933411 0.4452504682462419
    outer loop
      vertex -4.8907380036690284 1.0395584540887968 50
      vertex -30 0 0
      vertex -5 0 50
    endloop
  endfacet
  facet normal -0.890500936492484 -0.09359541993340956 0.445250468246242
    outer loop
      vertex -30 0 0
      vertex -4.8907380036690284 -1.0395584540887968 50
      vertex -5 0 50
    endloop
  endfacet
  facet normal -0.8905009364924839 -0.09359541993341085 0.4452504682462419
    outer loop
      vertex -4.8907380036690284 -1.0395584540887968 50
      vertex -30 0 0
      vertex -29.34442802201417 -6.237350724532781 0
    endloop
  endfacet
  facet normal -0.8515817724701759 -0.2766956908284912 0.4452504682462419
    outer loop
      vertex -29.34442802201417 -6.237350724532781 0
      vertex -4.567727288213004 -2.033683215379001 50
      vertex -4.8907380036690284 -1.0395584540887968 50
    endloop
  endfacet
  facet normal -0.8515817724701763 -0.27669569082848994 0.4452504682462419
    outer loop
      vertex -4.567727288213004 -2.033683215379001 50
      vertex -29.34442802201417 -6.237350724532781 0
      vertex -27.406363729278027 -12.202099292274006 0
    endloop
  endfacet
  facet normal -0.775444398648205 -0.44770303230112996 0.4452504682462411
    outer loop
      vertex -27.406363729278027 -12.202099292274006 0
      vertex -4.045084971874737 -2.938926261462366 50
      vertex -4.567727288213004 -2.033683215379001 50
    endloop
  endfacet
  facet normal -0.7754443986482052 -0.44770303230112884 0.44525046824624176
    outer loop
      vertex -4.045084971874737 -2.938926261462366 50
      vertex -27.406363729278027 -12.202099292274006 0
      vertex -24.270509831248425 -17.633557568774194 0
    endloop
  endfacet
  facet normal -0.6654163836102445 -0.599143602944708 0.44525046824624237
    outer loop
      vertex -24.270509831248425 -17.633557568774194 0
      vertex -3.345653031794291 -3.715724127386971 50
      vertex -4.045084971874737 -2.938926261462366 50
    endloop
  endfacet
  facet normal -0.6654163836102447 -0.5991436029447078 0.44525046824624204
    outer loop
      vertex -3.345653031794291 -3.715724127386971 50
      vertex -24.270509831248425 -17.633557568774194 0
      vertex -20.073918190765745 -22.294344764321828 0
    endloop
  endfacet
  facet normal -0.5263064795864482 -0.7243987231296186 0.445250468246242
    outer loop
      vertex -15 -25.980762113533157 0
      vertex -3.345653031794291 -3.715724127386971 50
      vertex -20.073918190765745 -22.294344764321828 0
    endloop
  endfacet
  facet normal -0.5263064795864483 -0.7243987231296186 0.445250468246242
    outer loop
      vertex -3.345653031794291 -3.715724127386971 50
      vertex -15 -25.980762113533157 0
      vertex -2.5 -4.330127018922193 50
    endloop
  endfacet
  facet normal -0.36419445690603547 -0.8179941430630296 0.4452504682462419
    outer loop
      vertex -9.270509831248422 -28.531695488854606 0
      vertex -2.5 -4.330127018922193 50
      vertex -15 -25.980762113533157 0
    endloop
  endfacet
  facet normal -0.3641944569060353 -0.8179941430630299 0.4452504682462419
    outer loop
      vertex -2.5 -4.330127018922193 50
      vertex -9.270509831248422 -28.531695488854606 0
      vertex -1.545084971874737 -4.755282581475767 50
    endloop
  endfacet
  facet normal -0.18616538885993147 -0.8758392937731972 0.4452504682462419
    outer loop
      vertex -3.135853898029604 -29.8356568610482 0
      vertex -1.545084971874737 -4.755282581475767 50
      vertex -9.270509831248422 -28.531695488854606 0
    endloop
  endfacet
  facet normal -0.18616538885993167 -0.8758392937731971 0.44525046824624187
    outer loop
      vertex -1.545084971874737 -4.755282581475767 50
      vertex -3.135853898029604 -29.8356568610482 0
      vertex -0.5226423163382674 -4.972609476841367 50
    endloop
  endfacet
  facet normal 0 -0.8954060646022577 0.4452504682462419
    outer loop
      vertex -3.135853898029604 -29.8356568610482 0
      vertex 0.5226423163382674 -4.972609476841367 50
      vertex -0.5226423163382674 -4.972609476841367 50
    endloop
  endfacet
  facet normal 0 -0.8954060646022575 0.4452504682462419
    outer loop
      vertex 0.5226423163382674 -4.972609476841367 50
      vertex -3.135853898029604 -29.8356568610482 0
      vertex 3.135853898029604 -29.8356568610482 0
    endloop
  endfacet
  facet normal 0.18616538885993203 -0.8758392937731971 0.445250468246242
    outer loop
      vertex 3.135853898029604 -29.8356568610482 0
      vertex 1.545084971874737 -4.755282581475767 50
      vertex 0.5226423163382674 -4.972609476841367 50
    endloop
  endfacet
  facet normal 0.186165388859932 -0.8758392937731971 0.4452504682462418
    outer loop
      vertex 1.545084971874737 -4.755282581475767 50
      vertex 3.135853898029604 -29.8356568610482 0
      vertex 9.270509831248422 -28.531695488854606 0
    endloop
  endfacet
  facet normal 0.3641944569060375 -0.8179941430630289 0.44525046824624154
    outer loop
      vertex 9.270509831248422 -28.531695488854606 0
      vertex 2.5 -4.330127018922193 50
      vertex 1.545084971874737 -4.755282581475767 50
    endloop
  endfacet
  facet normal 0.36419445690603575 -0.8179941430630295 0.44525046824624187
    outer loop
      vertex 2.5 -4.330127018922193 50
      vertex 9.270509831248422 -28.531695488854606 0
      vertex 15 -25.980762113533157 0
    endloop
  endfacet
  facet normal 0.5263064795864488 -0.7243987231296185 0.4452504682462415
    outer loop
      vertex 15 -25.980762113533157 0
      vertex 3.345653031794291 -3.715724127386971 50
      vertex 2.5 -4.330127018922193 50
    endloop
  endfacet
  facet normal 0.5263064795864482 -0.7243987231296186 0.44525046824624187
    outer loop
      vertex 3.345653031794291 -3.715724127386971 50
      vertex 15 -25.980762113533157 0
      vertex 20.073918190765745 -22.294344764321828 0
    endloop
  endfacet
  facet normal 0.6654163836102449 -0.5991436029447077 0.44525046824624187
    outer loop
      vertex 3.345653031794291 -3.715724127386971 50
      vertex 24.270509831248425 -17.633557568774194 0
      vertex 4.045084971874737 -2.938926261462366 50
    endloop
  endfacet
  facet normal 0.6654163836102449 -0.5991436029447078 0.4452504682462419
    outer loop
      vertex 24.270509831248425 -17.633557568774194 0
      vertex 3.345653031794291 -3.715724127386971 50
      vertex 20.073918190765745 -22.294344764321828 0
    endloop
  endfacet
  facet normal 0.7754443986482055 -0.4477030323011285 0.445250468246242
    outer loop
      vertex 4.045084971874737 -2.938926261462366 50
      vertex 27.406363729278027 -12.202099292274006 0
      vertex 4.567727288213004 -2.033683215379001 50
    endloop
  endfacet
  facet normal 0.7754443986482054 -0.44770303230112857 0.4452504682462419
    outer loop
      vertex 27.406363729278027 -12.202099292274006 0
      vertex 4.045084971874737 -2.938926261462366 50
      vertex 24.270509831248425 -17.633557568774194 0
    endloop
  endfacet
  facet normal 0.8515817724701761 -0.27669569082849 0.44525046824624187
    outer loop
      vertex 4.567727288213004 -2.033683215379001 50
      vertex 29.34442802201417 -6.237350724532781 0
      vertex 4.8907380036690284 -1.0395584540887968 50
    endloop
  endfacet
  facet normal 0.8515817724701763 -0.2766956908284898 0.4452504682462419
    outer loop
      vertex 29.34442802201417 -6.237350724532781 0
      vertex 4.567727288213004 -2.033683215379001 50
      vertex 27.406363729278027 -12.202099292274006 0
    endloop
  endfacet
  facet normal 0.8905009364924839 -0.093595419933411 0.4452504682462419
    outer loop
      vertex 4.8907380036690284 -1.0395584540887968 50
      vertex 30 0 0
      vertex 5 0 50
    endloop
  endfacet
  facet normal 0.8905009364924839 -0.09359541993341101 0.445250468246242
    outer loop
      vertex 30 0 0
      vertex 4.8907380036690284 -1.0395584540887968 50
      vertex 29.34442802201417 -6.237350724532781 0
    endloop
  endfacet
  facet normal 0 0 -1
    outer loop
      vertex 29.34442802201417 -6.237350724532781 0
      vertex 29.34442802201417 6.237350724532781 0
      vertex 30 0 0
    endloop
  endfacet
  facet normal 0 0 -1
    outer loop
      vertex 27.406363729278027 -12.202099292274006 0
      vertex 29.34442802201417 6.237350724532781 0
      vertex 29.34442802201417 -6.237350724532781 0
    endloop
  endfacet
  facet normal 0 0 -1
    outer loop
      vertex 27.406363729278027 -12.202099292274006 0
      vertex 27.406363729278027 12.202099292274006 0
      vertex 29.34442802201417 6.237350724532781 0
    endloop
  endfacet
  facet normal 0 0 -1
    outer loop
      vertex 24.270509831248425 -17.633557568774194 0
      vertex 27.406363729278027 12.202099292274006 0
      vertex 27.406363729278027 -12.202099292274006 0
    endloop
  endfacet
  facet normal 0 0 -1
    outer loop
      vertex 24.270509831248425 -17.633557568774194 0
      vertex 24.270509831248425 17.633557568774194 0
      vertex 27.406363729278027 12.202099292274006 0
    endloop
  endfacet
  facet normal 0 0 -1
    outer loop
      vertex 20.073918190765745 -22.294344764321828 0
      vertex 24.270509831248425 17.633557568774194 0
      vertex 24.270509831248425 -17.633557568774194 0
    endloop
  endfacet
  facet normal 0 0 -1
    outer loop
      vertex 20.073918190765745 -22.294344764321828 0
      vertex 20.073918190765745 22.294344764321828 0
      vertex 24.270509831248425 17.633557568774194 0
    endloop
  endfacet
  facet normal 0 0 -1
    outer loop
      vertex 15 -25.980762113533157 0
      vertex 20.073918190765745 22.294344764321828 0
      vertex 20.073918190765745 -22.294344764321828 0
    endloop
  endfacet
  facet normal 0 0 -1
    outer loop
      vertex 15 -25.980762113533157 0
      vertex 15 25.980762113533157 0
      vertex 20.073918190765745 22.294344764321828 0
    endloop
  endfacet
  facet normal 0 0 -1
    outer loop
      vertex 9.270509831248422 -28.531695488854606 0
      vertex 15 25.980762113533157 0
      vertex 15 -25.980762113533157 0
    endloop
  endfacet
  facet normal 0 0 -1
    outer loop
      vertex 9.270509831248422 -28.531695488854606 0
      vertex 9.270509831248422 28.531695488854606 0
      vertex 15 25.980762113533157 0
    endloop
  endfacet
  facet normal 0 0 -1
    outer loop
      vertex 3.135853898029604 -29.8356568610482 0
      vertex 9.270509831248422 28.531695488854606 0
      vertex 9.270509831248422 -28.531695488854606 0
    endloop
  endfacet
  facet normal 0 0 -1
    outer loop
      vertex 3.135853898029604 -29.8356568610482 0
      vertex 3.135853898029604 29.8356568610482 0
      vertex 9.270509831248422 28.531695488854606 0
    endloop
  endfacet
  facet normal 0 0 -1
    outer loop
      vertex -3.135853898029604 -29.8356568610482 0
      vertex 3.135853898029604 29.8356568610482 0
      vertex 3.135853898029604 -29.8356568610482 0
    endloop
  endfacet
  facet normal 0 0 -1
    outer loop
      vertex -3.135853898029604 -29.8356568610482 0
      vertex -3.135853898029604 29.8356568610482 0
      vertex 3.135853898029604 29.8356568610482 0
    endloop
  endfacet
  facet normal 0 0 -1
    outer loop
      vertex -9.270509831248422 -28.531695488854606 0
      vertex -3.135853898029604 29.8356568610482 0
      vertex -3.135853898029604 -29.8356568610482 0
    endloop
  endfacet
  facet normal 0 0 -1
    outer loop
      vertex -9.270509831248422 -28.531695488854606 0
      vertex -9.270509831248422 28.531695488854606 0
      vertex -3.135853898029604 29.8356568610482 0
    endloop
  endfacet
  facet normal 0 0 -1
    outer loop
      vertex -15 -25.980762113533157 0
      vertex -9.270509831248422 28.531695488854606 0
      vertex -9.270509831248422 -28.531695488854606 0
    endloop
  endfacet
  facet normal 0 0 -1
    outer loop
      vertex -15 -25.980762113533157 0
      vertex -15 25.980762113533157 0
      vertex -9.270509831248422 28.531695488854606 0
    endloop
  endfacet
  facet normal 0 0 -1
    outer loop
      vertex -20.073918190765745 -22.294344764321828 0
      vertex -15 25.980762113533157 0
      vertex -15 -25.980762113533157 0
    endloop
  endfacet
  facet normal 0 0 -1
    outer loop
      vertex -20.073918190765745 -22.294344764321828 0
      vertex -20.073918190765745 22.294344764321828 0
      vertex -15 25.980762113533157 0
    endloop
  endfacet
  facet normal 0 0 -1
    outer loop
      vertex -24.270509831248425 -17.633557568774194 0
      vertex -20.073918190765745 22.294344764321828 0
      vertex -20.073918190765745 -22.294344764321828 0
    endloop
  endfacet
  facet normal 0 0 -1
    outer loop
      vertex -24.270509831248425 -17.633557568774194 0
      vertex -24.270509831248425 17.633557568774194 0
      vertex -20.073918190765745 22.294344764321828 0
    endloop
  endfacet
  facet normal 0 0 -1
    outer loop
      vertex -27.406363729278027 -12.202099292274006 0
      vertex -24.270509831248425 17.633557568774194 0
      vertex -24.270509831248425 -17.633557568774194 0
    endloop
  endfacet
  facet normal 0 0 -1
    outer loop
      vertex -27.406363729278027 -12.202099292274006 0
      vertex -27.406363729278027 12.202099292274006 0
      vertex -24.270509831248425 17.633557568774194 0
    endloop
  endfacet
  facet normal 0 0 -1
    outer loop
      vertex -29.34442802201417 -6.237350724532781 0
      vertex -27.406363729278027 12.202099292274006 0
      vertex -27.406363729278027 -12.202099292274006 0
    endloop
  endfacet
  facet normal 0 0 -1
    outer loop
      vertex -29.34442802201417 -6.237350724532781 0
      vertex -29.34442802201417 6.237350724532781 0
      vertex -27.406363729278027 12.202099292274006 0
    endloop
  endfacet
  facet normal 0 0 -1
    outer loop
      vertex -29.34442802201417 6.237350724532781 0
      vertex -29.34442802201417 -6.237350724532781 0
      vertex -30 0 0
    endloop
  endfacet
  facet normal 0 0 1
    outer loop
      vertex 4.8907380036690284 1.0395584540887968 50
      vertex 4.8907380036690284 -1.0395584540887968 50
      vertex 5 0 50
    endloop
  endfacet
  facet normal 0 0 1
    outer loop
      vertex 4.567727288213004 2.033683215379001 50
      vertex 4.8907380036690284 -1.0395584540887968 50
      vertex 4.8907380036690284 1.0395584540887968 50
    endloop
  endfacet
  facet normal 0 0 1
    outer loop
      vertex 4.567727288213004 2.033683215379001 50
      vertex 4.567727288213004 -2.033683215379001 50
      vertex 4.8907380036690284 -1.0395584540887968 50
    endloop
  endfacet
  facet normal 0 0 1
    outer loop
      vertex 4.045084971874737 2.938926261462366 50
      vertex 4.567727288213004 -2.033683215379001 50
      vertex 4.567727288213004 2.033683215379001 50
    endloop
  endfacet
  facet normal 0 0 1
    outer loop
      vertex 4.045084971874737 2.938926261462366 50
      vertex 4.045084971874737 -2.938926261462366 50
      vertex 4.567727288213004 -2.033683215379001 50
    endloop
  endfacet
  facet normal 0 0 1
    outer loop
      vertex 3.345653031794291 3.715724127386971 50
      vertex 4.045084971874737 -2.938926261462366 50
      vertex 4.045084971874737 2.938926261462366 50
    endloop
  endfacet
  facet normal 0 0 1
    outer loop
      vertex 3.345653031794291 3.715724127386971 50
      vertex 3.345653031794291 -3.715724127386971 50
      vertex 4.045084971874737 -2.938926261462366 50
    endloop
  endfacet
  facet normal 0 0 1
    outer loop
      vertex 2.5 4.330127018922193 50
      vertex 3.345653031794291 -3.715724127386971 50
      vertex 3.345653031794291 3.715724127386971 50
    endloop
  endfacet
  facet normal 0 0 1
    outer loop
      vertex 2.5 4.330127018922193 50
      vertex 2.5 -4.330127018922193 50
      vertex 3.345653031794291 -3.715724127386971 50
    endloop
  endfacet
  facet normal 0 0 1
    outer loop
      vertex 1.545084971874737 4.755282581475767 50
      vertex 2.5 -4.330127018922193 50
      vertex 2.5 4.330127018922193 50
    endloop
  endfacet
  facet normal 0 0 1
    outer loop
      vertex 1.545084971874737 4.755282581475767 50
      vertex 1.545084971874737 -4.755282581475767 50
      vertex 2.5 -4.330127018922193 50
    endloop
  endfacet
  facet normal 0 0 1
    outer loop
      vertex 0.5226423163382674 4.972609476841367 50
      vertex 1.545084971874737 -4.755282581475767 50
      vertex 1.545084971874737 4.755282581475767 50
    endloop
  endfacet
  facet normal 0 0 1
    outer loop
      vertex 0.5226423163382674 4.972609476841367 50
      vertex 0.5226423163382674 -4.972609476841367 50
      vertex 1.545084971874737 -4.755282581475767 50
    endloop
  endfacet
  facet normal 0 0 1
    outer loop
      vertex -0.5226423163382674 4.972609476841367 50
      vertex 0.5226423163382674 -4.972609476841367 50
      vertex 0.5226423163382674 4.972609476841367 50
    endloop
  endfacet
  facet normal 0 0 1
    outer loop
      vertex -0.5226423163382674 4.972609476841367 50
      vertex -0.5226423163382674 -4.972609476841367 50
      vertex 0.5226423163382674 -4.972609476841367 50
    endloop
  endfacet
  facet normal 0 0 1
    outer loop
      vertex -1.545084971874737 4.755282581475767 50
      vertex -0.5226423163382674 -4.972609476841367 50
      vertex -0.5226423163382674 4.972609476841367 50
    endloop
  endfacet
  facet normal 0 0 1
    outer loop
      vertex -1.545084971874737 4.755282581475767 50
      vertex -1.545084971874737 -4.755282581475767 50
      vertex -0.5226423163382674 -4.972609476841367 50
    endloop
  endfacet
  facet normal 0 0 1
    outer loop
      vertex -2.5 4.330127018922193 50
      vertex -1.545084971874737 -4.755282581475767 50
      vertex -1.545084971874737 4.755282581475767 50
    endloop
  endfacet
  facet normal 0 0 1
    outer loop
      vertex -2.5 4.330127018922193 50
      vertex -2.5 -4.330127018922193 50
      vertex -1.545084971874737 -4.755282581475767 50
    endloop
  endfacet
  facet normal 0 0 1
    outer loop
      vertex -3.345653031794291 3.715724127386971 50
      vertex -2.5 -4.330127018922193 50
      vertex -2.5 4.330127018922193 50
    endloop
  endfacet
  facet normal 0 0 1
    outer loop
      vertex -3.345653031794291 3.715724127386971 50
      vertex -3.345653031794291 -3.715724127386971 50
      vertex -2.5 -4.330127018922193 50
    endloop
  endfacet
  facet normal 0 0 1
    outer loop
      vertex -4.045084971874737 2.938926261462366 50
      vertex -3.345653031794291 -3.715724127386971 50
      vertex -3.345653031794291 3.715724127386971 50
    endloop
  endfacet
  facet normal 0 0 1
    outer loop
      vertex -4.045084971874737 2.938926261462366 50
      vertex -4.045084971874737 -2.938926261462366 50
      vertex -3.345653031794291 -3.715724127386971 50
    endloop
  endfacet
  facet normal 0 0 1
    outer loop
      vertex -4.567727288213004 2.033683215379001 50
      vertex -4.045084971874737 -2.938926261462366 50
      vertex -4.045084971874737 2.938926261462366 50
    endloop
  endfacet
  facet normal 0 0 1
    outer loop
      vertex -4.567727288213004 2.033683215379001 50
      vertex -4.567727288213004 -2.033683215379001 50
      vertex -4.045084971874737 -2.938926261462366 50
    endloop
  endfacet
  facet normal 0 0 1
    outer loop
      vertex -4.8907380036690284 1.0395584540887968 50
      vertex -4.567727288213004 -2.033683215379001 50
      vertex -4.567727288213004 2.033683215379001 50
    endloop
  endfacet
  facet normal 0 0 1
    outer loop
      vertex -4.8907380036690284 1.0395584540887968 50
      vertex -4.8907380036690284 -1.0395584540887968 50
      vertex -4.567727288213004 -2.033683215379001 50
    endloop
  endfacet
  facet normal 0 0 1
    outer loop
      vertex -4.8907380036690284 -1.0395584540887968 50
      vertex -4.8907380036690284 1.0395584540887968 50
      vertex -5 0 50
    endloop
  endfacet
endsolid OpenSCAD_Model
