<?xml version="1.0" encoding="UTF-8" standalone="no"?>
<!DOCTYPE svg PUBLIC "-//W3C//DTD SVG 1.1//EN"
 "http://www.w3.org/Graphics/SVG/1.1/DTD/svg11.dtd">
<!-- Generated by graphviz version 5.0.0 (20220707.1540)
 -->
<!-- Title: default Pages: 1 -->
<svg width="549pt" height="341pt"
 viewBox="0.00 0.00 549.17 341.00" xmlns="http://www.w3.org/2000/svg" xmlns:xlink="http://www.w3.org/1999/xlink">
<g id="graph0" class="graph" transform="scale(1 1) rotate(0) translate(4 337)">
<title>default</title>
<polygon fill="white" stroke="transparent" points="-4,4 -4,-337 545.17,-337 545.17,4 -4,4"/>
<!-- root_969 -->
<g id="node1" class="node">
<title>root_969</title>
<g id="a_node1"><a xlink:href="javascript:s=&quot;\(\)\nNone&quot;; console.log(s); alert(s);" xlink:title="root">
<ellipse fill="none" stroke="black" cx="27" cy="-153" rx="27" ry="18"/>
<text text-anchor="middle" x="27" y="-149.3" font-family="Times New Roman,serif" font-size="14.00">root</text>
</a>
</g>
</g>
<!-- default_970 -->
<g id="node2" class="node">
<title>default_970</title>
<g id="a_node2"><a xlink:href="javascript:s=&quot;\(&#x27;default&#x27;,\)\nText&quot;; console.log(s); alert(s);" xlink:title="Text">
<ellipse fill="none" stroke="black" cx="156.29" cy="-180" rx="35.19" ry="18"/>
<text text-anchor="middle" x="156.29" y="-176.3" font-family="Times New Roman,serif" font-size="14.00">default</text>
</a>
</g>
</g>
<!-- root_969&#45;&gt;default_970 -->
<g id="edge1" class="edge">
<title>root_969&#45;&gt;default_970</title>
<path fill="none" stroke="black" d="M52.85,-158.27C70.05,-161.92 93.38,-166.87 113.43,-171.12"/>
<polygon fill="black" stroke="black" points="112.75,-174.55 123.26,-173.21 114.2,-167.71 112.75,-174.55"/>
</g>
<!-- 971 -->
<g id="node3" class="node">
<title>971</title>
<g id="a_node3"><a xlink:href="javascript:s=&quot;\(&quot;&#x27;default&#x27;,\ &#x27;rear&#x27;,\ &quot;,\)\nAnnotatedCoordinates&quot;; console.log(s); alert(s);" xlink:title="AnnotatedCoordinates">
<ellipse fill="none" stroke="black" cx="156.29" cy="-126" rx="66.09" ry="18"/>
<text text-anchor="middle" x="156.29" y="-122.3" font-family="Times New Roman,serif" font-size="14.00">&#39;default&#39;, &#39;rear&#39;, </text>
</a>
</g>
</g>
<!-- root_969&#45;&gt;971 -->
<g id="edge2" class="edge">
<title>root_969&#45;&gt;971</title>
<path fill="none" stroke="black" d="M52.85,-147.73C64.6,-145.24 79.22,-142.14 93.69,-139.07"/>
<polygon fill="black" stroke="black" points="94.59,-142.45 103.65,-136.95 93.14,-135.61 94.59,-142.45"/>
</g>
<!-- coords_972 -->
<g id="node4" class="node">
<title>coords_972</title>
<g id="a_node4"><a xlink:href="javascript:s=&quot;\(&quot;&#x27;default&#x27;,\ &#x27;rear&#x27;,\ &quot;,\ &#x27;coords&#x27;\)\nCoordinates&quot;; console.log(s); alert(s);" xlink:title="Coordinates">
<ellipse fill="none" stroke="black" cx="294.99" cy="-234" rx="36.29" ry="18"/>
<text text-anchor="middle" x="294.99" y="-230.3" font-family="Times New Roman,serif" font-size="14.00">coords</text>
</a>
</g>
</g>
<!-- 971&#45;&gt;coords_972 -->
<g id="edge3" class="edge">
<title>971&#45;&gt;coords_972</title>
<path fill="none" stroke="black" d="M200.44,-139.58C208.29,-143.19 216.05,-147.63 222.59,-153 244.88,-171.3 238.85,-185.97 258.59,-207 260.57,-209.11 262.73,-211.19 264.98,-213.19"/>
<polygon fill="black" stroke="black" points="262.86,-215.98 272.8,-219.66 267.32,-210.58 262.86,-215.98"/>
</g>
<!-- x_983 -->
<g id="node15" class="node">
<title>x_983</title>
<g id="a_node15"><a xlink:href="javascript:s=&quot;\(&quot;&#x27;default&#x27;,\ &#x27;rear&#x27;,\ &quot;,\ &#x27;x&#x27;\)\nText&quot;; console.log(s); alert(s);" xlink:title="Text">
<ellipse fill="none" stroke="black" cx="294.99" cy="-180" rx="27" ry="18"/>
<text text-anchor="middle" x="294.99" y="-176.3" font-family="Times New Roman,serif" font-size="14.00">x</text>
</a>
</g>
</g>
<!-- 971&#45;&gt;x_983 -->
<g id="edge14" class="edge">
<title>971&#45;&gt;x_983</title>
<path fill="none" stroke="black" d="M194.65,-140.76C215.7,-149.07 241.74,-159.36 261.88,-167.32"/>
<polygon fill="black" stroke="black" points="260.65,-170.6 271.24,-171.01 263.23,-164.09 260.65,-170.6"/>
</g>
<!-- y_984 -->
<g id="node16" class="node">
<title>y_984</title>
<g id="a_node16"><a xlink:href="javascript:s=&quot;\(&quot;&#x27;default&#x27;,\ &#x27;rear&#x27;,\ &quot;,\ &#x27;y&#x27;\)\nText&quot;; console.log(s); alert(s);" xlink:title="Text">
<ellipse fill="none" stroke="black" cx="294.99" cy="-126" rx="27" ry="18"/>
<text text-anchor="middle" x="294.99" y="-122.3" font-family="Times New Roman,serif" font-size="14.00">y</text>
</a>
</g>
</g>
<!-- 971&#45;&gt;y_984 -->
<g id="edge15" class="edge">
<title>971&#45;&gt;y_984</title>
<path fill="none" stroke="black" d="M222.84,-126C234.76,-126 246.79,-126 257.49,-126"/>
<polygon fill="black" stroke="black" points="257.69,-129.5 267.69,-126 257.69,-122.5 257.69,-129.5"/>
</g>
<!-- z_985 -->
<g id="node17" class="node">
<title>z_985</title>
<g id="a_node17"><a xlink:href="javascript:s=&quot;\(&quot;&#x27;default&#x27;,\ &#x27;rear&#x27;,\ &quot;,\ &#x27;z&#x27;\)\nText&quot;; console.log(s); alert(s);" xlink:title="Text">
<ellipse fill="none" stroke="black" cx="294.99" cy="-72" rx="27" ry="18"/>
<text text-anchor="middle" x="294.99" y="-68.3" font-family="Times New Roman,serif" font-size="14.00">z</text>
</a>
</g>
</g>
<!-- 971&#45;&gt;z_985 -->
<g id="edge16" class="edge">
<title>971&#45;&gt;z_985</title>
<path fill="none" stroke="black" d="M194.65,-111.24C215.7,-102.93 241.74,-92.64 261.88,-84.68"/>
<polygon fill="black" stroke="black" points="263.23,-87.91 271.24,-80.99 260.65,-81.4 263.23,-87.91"/>
</g>
<!-- label_986 -->
<g id="node18" class="node">
<title>label_986</title>
<g id="a_node18"><a xlink:href="javascript:s=&quot;\(&quot;&#x27;default&#x27;,\ &#x27;rear&#x27;,\ &quot;,\ &#x27;label&#x27;\)\nText&quot;; console.log(s); alert(s);" xlink:title="Text">
<ellipse fill="none" stroke="black" cx="294.99" cy="-18" rx="27.1" ry="18"/>
<text text-anchor="middle" x="294.99" y="-14.3" font-family="Times New Roman,serif" font-size="14.00">label</text>
</a>
</g>
</g>
<!-- 971&#45;&gt;label_986 -->
<g id="edge17" class="edge">
<title>971&#45;&gt;label_986</title>
<path fill="none" stroke="black" d="M178.52,-108.79C198.94,-92.3 230.73,-66.76 258.59,-45 261.72,-42.55 265.02,-40 268.3,-37.48"/>
<polygon fill="black" stroke="black" points="270.46,-40.23 276.28,-31.38 266.21,-34.67 270.46,-40.23"/>
</g>
<!-- origin_973 -->
<g id="node5" class="node">
<title>origin_973</title>
<g id="a_node5"><a xlink:href="javascript:s=&quot;\(&quot;&#x27;default&#x27;,\ &#x27;rear&#x27;,\ &quot;,\ &#x27;coords&#x27;,\ &#x27;origin&#x27;\)\nCoordinatesCage&quot;; console.log(s); alert(s);" xlink:title="CoordinatesCage">
<ellipse fill="none" stroke="black" cx="408.33" cy="-315" rx="31.4" ry="18"/>
<text text-anchor="middle" x="408.33" y="-311.3" font-family="Times New Roman,serif" font-size="14.00">origin</text>
</a>
</g>
</g>
<!-- coords_972&#45;&gt;origin_973 -->
<g id="edge4" class="edge">
<title>coords_972&#45;&gt;origin_973</title>
<path fill="none" stroke="black" d="M315.47,-249.18C329.71,-260.16 349.56,-275.25 367.38,-288 370.9,-290.52 374.64,-293.13 378.35,-295.68"/>
<polygon fill="black" stroke="black" points="376.63,-298.74 386.86,-301.47 380.56,-292.95 376.63,-298.74"/>
</g>
<!-- x_arrow_974 -->
<g id="node6" class="node">
<title>x_arrow_974</title>
<g id="a_node6"><a xlink:href="javascript:s=&quot;\(&quot;&#x27;default&#x27;,\ &#x27;rear&#x27;,\ &quot;,\ &#x27;coords&#x27;,\ &#x27;x_arrow&#x27;\)\nArrow&quot;; console.log(s); alert(s);" xlink:title="Arrow">
<ellipse fill="none" stroke="black" cx="408.33" cy="-261" rx="40.89" ry="18"/>
<text text-anchor="middle" x="408.33" y="-257.3" font-family="Times New Roman,serif" font-size="14.00">x_arrow</text>
</a>
</g>
</g>
<!-- coords_972&#45;&gt;x_arrow_974 -->
<g id="edge5" class="edge">
<title>coords_972&#45;&gt;x_arrow_974</title>
<path fill="none" stroke="black" d="M327.89,-241.74C338.53,-244.32 350.59,-247.24 362.04,-250.02"/>
<polygon fill="black" stroke="black" points="361.36,-253.45 371.9,-252.41 363.01,-246.65 361.36,-253.45"/>
</g>
<!-- y_arrow_977 -->
<g id="node9" class="node">
<title>y_arrow_977</title>
<g id="a_node9"><a xlink:href="javascript:s=&quot;\(&quot;&#x27;default&#x27;,\ &#x27;rear&#x27;,\ &quot;,\ &#x27;coords&#x27;,\ &#x27;y_arrow&#x27;\)\nArrow&quot;; console.log(s); alert(s);" xlink:title="Arrow">
<ellipse fill="none" stroke="black" cx="408.33" cy="-207" rx="40.89" ry="18"/>
<text text-anchor="middle" x="408.33" y="-203.3" font-family="Times New Roman,serif" font-size="14.00">y_arrow</text>
</a>
</g>
</g>
<!-- coords_972&#45;&gt;y_arrow_977 -->
<g id="edge8" class="edge">
<title>coords_972&#45;&gt;y_arrow_977</title>
<path fill="none" stroke="black" d="M327.89,-226.26C338.53,-223.68 350.59,-220.76 362.04,-217.98"/>
<polygon fill="black" stroke="black" points="363.01,-221.35 371.9,-215.59 361.36,-214.55 363.01,-221.35"/>
</g>
<!-- z_arrow_980 -->
<g id="node12" class="node">
<title>z_arrow_980</title>
<g id="a_node12"><a xlink:href="javascript:s=&quot;\(&quot;&#x27;default&#x27;,\ &#x27;rear&#x27;,\ &quot;,\ &#x27;coords&#x27;,\ &#x27;z_arrow&#x27;\)\nArrow&quot;; console.log(s); alert(s);" xlink:title="Arrow">
<ellipse fill="none" stroke="black" cx="408.33" cy="-99" rx="40.09" ry="18"/>
<text text-anchor="middle" x="408.33" y="-95.3" font-family="Times New Roman,serif" font-size="14.00">z_arrow</text>
</a>
</g>
</g>
<!-- coords_972&#45;&gt;z_arrow_980 -->
<g id="edge11" class="edge">
<title>coords_972&#45;&gt;z_arrow_980</title>
<path fill="none" stroke="black" d="M317.09,-219.58C322.03,-215.76 327.1,-211.46 331.38,-207 355.54,-181.88 377.8,-148.5 391.88,-125.54"/>
<polygon fill="black" stroke="black" points="395.05,-127.05 397.22,-116.68 389.06,-123.44 395.05,-127.05"/>
</g>
<!-- stem_975 -->
<g id="node7" class="node">
<title>stem_975</title>
<g id="a_node7"><a xlink:href="javascript:s=&quot;\(&quot;&#x27;default&#x27;,\ &#x27;rear&#x27;,\ &quot;,\ &#x27;coords&#x27;,\ &#x27;x_arrow&#x27;,\ &#x27;stem&#x27;\)\nCone&quot;; console.log(s); alert(s);" xlink:title="Cone">
<ellipse fill="none" stroke="black" cx="513.22" cy="-315" rx="27.9" ry="18"/>
<text text-anchor="middle" x="513.22" y="-311.3" font-family="Times New Roman,serif" font-size="14.00">stem</text>
</a>
</g>
</g>
<!-- x_arrow_974&#45;&gt;stem_975 -->
<g id="edge6" class="edge">
<title>x_arrow_974&#45;&gt;stem_975</title>
<path fill="none" stroke="black" d="M435.29,-274.63C449.46,-282.06 467.06,-291.3 481.86,-299.07"/>
<polygon fill="black" stroke="black" points="480.63,-302.37 491.11,-303.92 483.88,-296.18 480.63,-302.37"/>
</g>
<!-- head_976 -->
<g id="node8" class="node">
<title>head_976</title>
<g id="a_node8"><a xlink:href="javascript:s=&quot;\(&quot;&#x27;default&#x27;,\ &#x27;rear&#x27;,\ &quot;,\ &#x27;coords&#x27;,\ &#x27;x_arrow&#x27;,\ &#x27;head&#x27;\)\nCone&quot;; console.log(s); alert(s);" xlink:title="Cone">
<ellipse fill="none" stroke="black" cx="513.22" cy="-261" rx="27.9" ry="18"/>
<text text-anchor="middle" x="513.22" y="-257.3" font-family="Times New Roman,serif" font-size="14.00">head</text>
</a>
</g>
</g>
<!-- x_arrow_974&#45;&gt;head_976 -->
<g id="edge7" class="edge">
<title>x_arrow_974&#45;&gt;head_976</title>
<path fill="none" stroke="black" d="M449.4,-261C457.82,-261 466.65,-261 474.96,-261"/>
<polygon fill="black" stroke="black" points="475.12,-264.5 485.12,-261 475.12,-257.5 475.12,-264.5"/>
</g>
<!-- stem_978 -->
<g id="node10" class="node">
<title>stem_978</title>
<g id="a_node10"><a xlink:href="javascript:s=&quot;\(&quot;&#x27;default&#x27;,\ &#x27;rear&#x27;,\ &quot;,\ &#x27;coords&#x27;,\ &#x27;y_arrow&#x27;,\ &#x27;stem&#x27;\)\nCone&quot;; console.log(s); alert(s);" xlink:title="Cone">
<ellipse fill="none" stroke="black" cx="513.22" cy="-207" rx="27.9" ry="18"/>
<text text-anchor="middle" x="513.22" y="-203.3" font-family="Times New Roman,serif" font-size="14.00">stem</text>
</a>
</g>
</g>
<!-- y_arrow_977&#45;&gt;stem_978 -->
<g id="edge9" class="edge">
<title>y_arrow_977&#45;&gt;stem_978</title>
<path fill="none" stroke="black" d="M449.4,-207C457.82,-207 466.65,-207 474.96,-207"/>
<polygon fill="black" stroke="black" points="475.12,-210.5 485.12,-207 475.12,-203.5 475.12,-210.5"/>
</g>
<!-- head_979 -->
<g id="node11" class="node">
<title>head_979</title>
<g id="a_node11"><a xlink:href="javascript:s=&quot;\(&quot;&#x27;default&#x27;,\ &#x27;rear&#x27;,\ &quot;,\ &#x27;coords&#x27;,\ &#x27;y_arrow&#x27;,\ &#x27;head&#x27;\)\nCone&quot;; console.log(s); alert(s);" xlink:title="Cone">
<ellipse fill="none" stroke="black" cx="513.22" cy="-153" rx="27.9" ry="18"/>
<text text-anchor="middle" x="513.22" y="-149.3" font-family="Times New Roman,serif" font-size="14.00">head</text>
</a>
</g>
</g>
<!-- y_arrow_977&#45;&gt;head_979 -->
<g id="edge10" class="edge">
<title>y_arrow_977&#45;&gt;head_979</title>
<path fill="none" stroke="black" d="M435.29,-193.37C449.46,-185.94 467.06,-176.7 481.86,-168.93"/>
<polygon fill="black" stroke="black" points="483.88,-171.82 491.11,-164.08 480.63,-165.63 483.88,-171.82"/>
</g>
<!-- stem_981 -->
<g id="node13" class="node">
<title>stem_981</title>
<g id="a_node13"><a xlink:href="javascript:s=&quot;\(&quot;&#x27;default&#x27;,\ &#x27;rear&#x27;,\ &quot;,\ &#x27;coords&#x27;,\ &#x27;z_arrow&#x27;,\ &#x27;stem&#x27;\)\nCone&quot;; console.log(s); alert(s);" xlink:title="Cone">
<ellipse fill="none" stroke="black" cx="513.22" cy="-99" rx="27.9" ry="18"/>
<text text-anchor="middle" x="513.22" y="-95.3" font-family="Times New Roman,serif" font-size="14.00">stem</text>
</a>
</g>
</g>
<!-- z_arrow_980&#45;&gt;stem_981 -->
<g id="edge12" class="edge">
<title>z_arrow_980&#45;&gt;stem_981</title>
<path fill="none" stroke="black" d="M448.82,-99C457.44,-99 466.53,-99 475.06,-99"/>
<polygon fill="black" stroke="black" points="475.11,-102.5 485.11,-99 475.11,-95.5 475.11,-102.5"/>
</g>
<!-- head_982 -->
<g id="node14" class="node">
<title>head_982</title>
<g id="a_node14"><a xlink:href="javascript:s=&quot;\(&quot;&#x27;default&#x27;,\ &#x27;rear&#x27;,\ &quot;,\ &#x27;coords&#x27;,\ &#x27;z_arrow&#x27;,\ &#x27;head&#x27;\)\nCone&quot;; console.log(s); alert(s);" xlink:title="Cone">
<ellipse fill="none" stroke="black" cx="513.22" cy="-45" rx="27.9" ry="18"/>
<text text-anchor="middle" x="513.22" y="-41.3" font-family="Times New Roman,serif" font-size="14.00">head</text>
</a>
</g>
</g>
<!-- z_arrow_980&#45;&gt;head_982 -->
<g id="edge13" class="edge">
<title>z_arrow_980&#45;&gt;head_982</title>
<path fill="none" stroke="black" d="M435.03,-85.51C449.32,-78.01 467.19,-68.63 482.14,-60.79"/>
<polygon fill="black" stroke="black" points="483.78,-63.88 491,-56.14 480.52,-57.68 483.78,-63.88"/>
</g>
</g>
</svg>
