<?xml version="1.0" encoding="UTF-8" standalone="no"?>
<!DOCTYPE svg PUBLIC "-//W3C//DTD SVG 1.1//EN"
 "http://www.w3.org/Graphics/SVG/1.1/DTD/svg11.dtd">
<!-- Generated by graphviz version 5.0.0 (20220707.1540)
 -->
<!-- Title: default Pages: 1 -->
<svg width="532pt" height="962pt"
 viewBox="0.00 0.00 532.27 962.00" xmlns="http://www.w3.org/2000/svg" xmlns:xlink="http://www.w3.org/1999/xlink">
<g id="graph0" class="graph" transform="scale(1 1) rotate(0) translate(4 958)">
<title>default</title>
<polygon fill="white" stroke="transparent" points="-4,4 -4,-958 528.27,-958 528.27,4 -4,4"/>
<!-- root_33 -->
<g id="node1" class="node">
<title>root_33</title>
<g id="a_node1"><a xlink:href="javascript:s=&quot;\(\)\nNone&quot;; console.log(s); alert(s);" xlink:title="root">
<ellipse fill="none" stroke="black" cx="27" cy="-571" rx="27" ry="18"/>
<text text-anchor="middle" x="27" y="-567.3" font-family="Times New Roman,serif" font-size="14.00">root</text>
</a>
</g>
</g>
<!-- default_34 -->
<g id="node2" class="node">
<title>default_34</title>
<g id="a_node2"><a xlink:href="javascript:s=&quot;\(&#x27;default&#x27;,\)\nArrow&quot;; console.log(s); alert(s);" xlink:title="Arrow">
<ellipse fill="none" stroke="black" cx="147.84" cy="-841" rx="35.19" ry="18"/>
<text text-anchor="middle" x="147.84" y="-837.3" font-family="Times New Roman,serif" font-size="14.00">default</text>
</a>
</g>
</g>
<!-- root_33&#45;&gt;default_34 -->
<g id="edge1" class="edge">
<title>root_33&#45;&gt;default_34</title>
<path fill="none" stroke="black" d="M35.62,-588.3C55.77,-634.1 110.65,-758.77 134.97,-814.02"/>
<polygon fill="black" stroke="black" points="131.91,-815.75 139.14,-823.49 138.31,-812.93 131.91,-815.75"/>
</g>
<!-- 37 -->
<g id="node5" class="node">
<title>37</title>
<g id="a_node5"><a xlink:href="javascript:s=&quot;\(&quot;&#x27;base&#x27;,\ &quot;,\)\nAnnotatedCoordinates&quot;; console.log(s); alert(s);" xlink:title="AnnotatedCoordinates">
<ellipse fill="none" stroke="black" cx="147.84" cy="-652" rx="36.29" ry="18"/>
<text text-anchor="middle" x="147.84" y="-648.3" font-family="Times New Roman,serif" font-size="14.00">&#39;base&#39;, </text>
</a>
</g>
</g>
<!-- root_33&#45;&gt;37 -->
<g id="edge4" class="edge">
<title>root_33&#45;&gt;37</title>
<path fill="none" stroke="black" d="M46.57,-583.66C65.47,-596.54 95.07,-616.71 117.21,-631.81"/>
<polygon fill="black" stroke="black" points="115.36,-634.78 125.6,-637.52 119.31,-628.99 115.36,-634.78"/>
</g>
<!-- 53 -->
<g id="node21" class="node">
<title>53</title>
<g id="a_node21"><a xlink:href="javascript:s=&quot;\(&quot;&#x27;top&#x27;,\ &quot;,\)\nAnnotatedCoordinates&quot;; console.log(s); alert(s);" xlink:title="AnnotatedCoordinates">
<ellipse fill="none" stroke="black" cx="147.84" cy="-436" rx="31.7" ry="18"/>
<text text-anchor="middle" x="147.84" y="-432.3" font-family="Times New Roman,serif" font-size="14.00">&#39;top&#39;, </text>
</a>
</g>
</g>
<!-- root_33&#45;&gt;53 -->
<g id="edge20" class="edge">
<title>root_33&#45;&gt;53</title>
<path fill="none" stroke="black" d="M41.63,-555.51C62.28,-532.06 101.63,-487.37 125.91,-459.78"/>
<polygon fill="black" stroke="black" points="128.65,-461.96 132.63,-452.14 123.4,-457.33 128.65,-461.96"/>
</g>
<!-- 69 -->
<g id="node37" class="node">
<title>69</title>
<g id="a_node37"><a xlink:href="javascript:s=&quot;\(&quot;&#x27;stem&#x27;,\ &#x27;top&#x27;,\ &quot;,\)\nAnnotatedCoordinates&quot;; console.log(s); alert(s);" xlink:title="AnnotatedCoordinates">
<ellipse fill="none" stroke="black" cx="147.84" cy="-153" rx="57.69" ry="18"/>
<text text-anchor="middle" x="147.84" y="-149.3" font-family="Times New Roman,serif" font-size="14.00">&#39;stem&#39;, &#39;top&#39;, </text>
</a>
</g>
</g>
<!-- root_33&#45;&gt;69 -->
<g id="edge36" class="edge">
<title>root_33&#45;&gt;69</title>
<path fill="none" stroke="black" d="M33.03,-553.31C51.59,-488.02 116.33,-260.33 138.96,-180.73"/>
<polygon fill="black" stroke="black" points="142.38,-181.51 141.75,-170.93 135.64,-179.59 142.38,-181.51"/>
</g>
<!-- stem_35 -->
<g id="node3" class="node">
<title>stem_35</title>
<g id="a_node3"><a xlink:href="javascript:s=&quot;\(&#x27;default&#x27;,\ &#x27;stem&#x27;\)\nCone&quot;; console.log(s); alert(s);" xlink:title="Cone">
<ellipse fill="none" stroke="black" cx="278.09" cy="-895" rx="27.9" ry="18"/>
<text text-anchor="middle" x="278.09" y="-891.3" font-family="Times New Roman,serif" font-size="14.00">stem</text>
</a>
</g>
</g>
<!-- default_34&#45;&gt;stem_35 -->
<g id="edge2" class="edge">
<title>default_34&#45;&gt;stem_35</title>
<path fill="none" stroke="black" d="M175.42,-852.19C195.52,-860.65 223.23,-872.32 244.64,-881.34"/>
<polygon fill="black" stroke="black" points="243.41,-884.62 253.99,-885.27 246.13,-878.17 243.41,-884.62"/>
</g>
<!-- head_36 -->
<g id="node4" class="node">
<title>head_36</title>
<g id="a_node4"><a xlink:href="javascript:s=&quot;\(&#x27;default&#x27;,\ &#x27;head&#x27;\)\nCone&quot;; console.log(s); alert(s);" xlink:title="Cone">
<ellipse fill="none" stroke="black" cx="278.09" cy="-841" rx="27.9" ry="18"/>
<text text-anchor="middle" x="278.09" y="-837.3" font-family="Times New Roman,serif" font-size="14.00">head</text>
</a>
</g>
</g>
<!-- default_34&#45;&gt;head_36 -->
<g id="edge3" class="edge">
<title>default_34&#45;&gt;head_36</title>
<path fill="none" stroke="black" d="M183.21,-841C200.7,-841 221.99,-841 239.86,-841"/>
<polygon fill="black" stroke="black" points="239.94,-844.5 249.94,-841 239.94,-837.5 239.94,-844.5"/>
</g>
<!-- coords_38 -->
<g id="node6" class="node">
<title>coords_38</title>
<g id="a_node6"><a xlink:href="javascript:s=&quot;\(&quot;&#x27;base&#x27;,\ &quot;,\ &#x27;coords&#x27;\)\nCoordinates&quot;; console.log(s); alert(s);" xlink:title="Coordinates">
<ellipse fill="none" stroke="black" cx="278.09" cy="-787" rx="36.29" ry="18"/>
<text text-anchor="middle" x="278.09" y="-783.3" font-family="Times New Roman,serif" font-size="14.00">coords</text>
</a>
</g>
</g>
<!-- 37&#45;&gt;coords_38 -->
<g id="edge5" class="edge">
<title>37&#45;&gt;coords_38</title>
<path fill="none" stroke="black" d="M161.69,-669.06C178.75,-691.2 210.39,-730.48 241.69,-760 243.8,-761.99 246.05,-763.97 248.35,-765.91"/>
<polygon fill="black" stroke="black" points="246.29,-768.75 256.28,-772.28 250.67,-763.29 246.29,-768.75"/>
</g>
<!-- x_49 -->
<g id="node17" class="node">
<title>x_49</title>
<g id="a_node17"><a xlink:href="javascript:s=&quot;\(&quot;&#x27;base&#x27;,\ &quot;,\ &#x27;x&#x27;\)\nText&quot;; console.log(s); alert(s);" xlink:title="Text">
<ellipse fill="none" stroke="black" cx="278.09" cy="-733" rx="27" ry="18"/>
<text text-anchor="middle" x="278.09" y="-729.3" font-family="Times New Roman,serif" font-size="14.00">x</text>
</a>
</g>
</g>
<!-- 37&#45;&gt;x_49 -->
<g id="edge16" class="edge">
<title>37&#45;&gt;x_49</title>
<path fill="none" stroke="black" d="M171.18,-666.11C192.85,-679.79 225.79,-700.6 249.17,-715.37"/>
<polygon fill="black" stroke="black" points="247.61,-718.52 257.93,-720.9 251.35,-712.6 247.61,-718.52"/>
</g>
<!-- y_50 -->
<g id="node18" class="node">
<title>y_50</title>
<g id="a_node18"><a xlink:href="javascript:s=&quot;\(&quot;&#x27;base&#x27;,\ &quot;,\ &#x27;y&#x27;\)\nText&quot;; console.log(s); alert(s);" xlink:title="Text">
<ellipse fill="none" stroke="black" cx="278.09" cy="-679" rx="27" ry="18"/>
<text text-anchor="middle" x="278.09" y="-675.3" font-family="Times New Roman,serif" font-size="14.00">y</text>
</a>
</g>
</g>
<!-- 37&#45;&gt;y_50 -->
<g id="edge17" class="edge">
<title>37&#45;&gt;y_50</title>
<path fill="none" stroke="black" d="M181.54,-658.88C200.07,-662.79 223.26,-667.67 242.15,-671.64"/>
<polygon fill="black" stroke="black" points="241.64,-675.11 252.15,-673.75 243.08,-668.26 241.64,-675.11"/>
</g>
<!-- z_51 -->
<g id="node19" class="node">
<title>z_51</title>
<g id="a_node19"><a xlink:href="javascript:s=&quot;\(&quot;&#x27;base&#x27;,\ &quot;,\ &#x27;z&#x27;\)\nText&quot;; console.log(s); alert(s);" xlink:title="Text">
<ellipse fill="none" stroke="black" cx="278.09" cy="-625" rx="27" ry="18"/>
<text text-anchor="middle" x="278.09" y="-621.3" font-family="Times New Roman,serif" font-size="14.00">z</text>
</a>
</g>
</g>
<!-- 37&#45;&gt;z_51 -->
<g id="edge18" class="edge">
<title>37&#45;&gt;z_51</title>
<path fill="none" stroke="black" d="M181.54,-645.12C200.07,-641.21 223.26,-636.33 242.15,-632.36"/>
<polygon fill="black" stroke="black" points="243.08,-635.74 252.15,-630.25 241.64,-628.89 243.08,-635.74"/>
</g>
<!-- label_52 -->
<g id="node20" class="node">
<title>label_52</title>
<g id="a_node20"><a xlink:href="javascript:s=&quot;\(&quot;&#x27;base&#x27;,\ &quot;,\ &#x27;label&#x27;\)\nText&quot;; console.log(s); alert(s);" xlink:title="Text">
<ellipse fill="none" stroke="black" cx="278.09" cy="-571" rx="27.1" ry="18"/>
<text text-anchor="middle" x="278.09" y="-567.3" font-family="Times New Roman,serif" font-size="14.00">label</text>
</a>
</g>
</g>
<!-- 37&#45;&gt;label_52 -->
<g id="edge19" class="edge">
<title>37&#45;&gt;label_52</title>
<path fill="none" stroke="black" d="M171.18,-637.89C192.72,-624.29 225.4,-603.64 248.76,-588.89"/>
<polygon fill="black" stroke="black" points="250.94,-591.66 257.52,-583.36 247.2,-585.74 250.94,-591.66"/>
</g>
<!-- origin_39 -->
<g id="node7" class="node">
<title>origin_39</title>
<g id="a_node7"><a xlink:href="javascript:s=&quot;\(&quot;&#x27;base&#x27;,\ &quot;,\ &#x27;coords&#x27;,\ &#x27;origin&#x27;\)\nCoordinatesCage&quot;; console.log(s); alert(s);" xlink:title="CoordinatesCage">
<ellipse fill="none" stroke="black" cx="391.43" cy="-922" rx="31.4" ry="18"/>
<text text-anchor="middle" x="391.43" y="-918.3" font-family="Times New Roman,serif" font-size="14.00">origin</text>
</a>
</g>
</g>
<!-- coords_38&#45;&gt;origin_39 -->
<g id="edge6" class="edge">
<title>coords_38&#45;&gt;origin_39</title>
<path fill="none" stroke="black" d="M301.21,-801.15C306,-804.92 310.75,-809.27 314.48,-814 338.91,-844.91 325.18,-864.8 350.48,-895 353.2,-898.25 356.41,-901.27 359.81,-904.02"/>
<polygon fill="black" stroke="black" points="357.79,-906.88 367.93,-909.95 361.91,-901.23 357.79,-906.88"/>
</g>
<!-- x_arrow_40 -->
<g id="node8" class="node">
<title>x_arrow_40</title>
<g id="a_node8"><a xlink:href="javascript:s=&quot;\(&quot;&#x27;base&#x27;,\ &quot;,\ &#x27;coords&#x27;,\ &#x27;x_arrow&#x27;\)\nArrow&quot;; console.log(s); alert(s);" xlink:title="Arrow">
<ellipse fill="none" stroke="black" cx="391.43" cy="-868" rx="40.89" ry="18"/>
<text text-anchor="middle" x="391.43" y="-864.3" font-family="Times New Roman,serif" font-size="14.00">x_arrow</text>
</a>
</g>
</g>
<!-- coords_38&#45;&gt;x_arrow_40 -->
<g id="edge7" class="edge">
<title>coords_38&#45;&gt;x_arrow_40</title>
<path fill="none" stroke="black" d="M299.25,-801.67C316.5,-814.22 341.56,-832.45 361.04,-846.62"/>
<polygon fill="black" stroke="black" points="359.13,-849.56 369.28,-852.61 363.25,-843.9 359.13,-849.56"/>
</g>
<!-- y_arrow_43 -->
<g id="node11" class="node">
<title>y_arrow_43</title>
<g id="a_node11"><a xlink:href="javascript:s=&quot;\(&quot;&#x27;base&#x27;,\ &quot;,\ &#x27;coords&#x27;,\ &#x27;y_arrow&#x27;\)\nArrow&quot;; console.log(s); alert(s);" xlink:title="Arrow">
<ellipse fill="none" stroke="black" cx="391.43" cy="-787" rx="40.89" ry="18"/>
<text text-anchor="middle" x="391.43" y="-783.3" font-family="Times New Roman,serif" font-size="14.00">y_arrow</text>
</a>
</g>
</g>
<!-- coords_38&#45;&gt;y_arrow_43 -->
<g id="edge10" class="edge">
<title>coords_38&#45;&gt;y_arrow_43</title>
<path fill="none" stroke="black" d="M314.62,-787C322.68,-787 331.38,-787 339.92,-787"/>
<polygon fill="black" stroke="black" points="340.2,-790.5 350.2,-787 340.2,-783.5 340.2,-790.5"/>
</g>
<!-- z_arrow_46 -->
<g id="node14" class="node">
<title>z_arrow_46</title>
<g id="a_node14"><a xlink:href="javascript:s=&quot;\(&quot;&#x27;base&#x27;,\ &quot;,\ &#x27;coords&#x27;,\ &#x27;z_arrow&#x27;\)\nArrow&quot;; console.log(s); alert(s);" xlink:title="Arrow">
<ellipse fill="none" stroke="black" cx="391.43" cy="-720" rx="40.09" ry="18"/>
<text text-anchor="middle" x="391.43" y="-716.3" font-family="Times New Roman,serif" font-size="14.00">z_arrow</text>
</a>
</g>
</g>
<!-- coords_38&#45;&gt;z_arrow_46 -->
<g id="edge13" class="edge">
<title>coords_38&#45;&gt;z_arrow_46</title>
<path fill="none" stroke="black" d="M301.89,-773.28C317.92,-763.63 339.63,-750.57 357.54,-739.79"/>
<polygon fill="black" stroke="black" points="359.74,-742.55 366.51,-734.4 356.13,-736.55 359.74,-742.55"/>
</g>
<!-- stem_41 -->
<g id="node9" class="node">
<title>stem_41</title>
<g id="a_node9"><a xlink:href="javascript:s=&quot;\(&quot;&#x27;base&#x27;,\ &quot;,\ &#x27;coords&#x27;,\ &#x27;x_arrow&#x27;,\ &#x27;stem&#x27;\)\nCone&quot;; console.log(s); alert(s);" xlink:title="Cone">
<ellipse fill="none" stroke="black" cx="496.32" cy="-936" rx="27.9" ry="18"/>
<text text-anchor="middle" x="496.32" y="-932.3" font-family="Times New Roman,serif" font-size="14.00">stem</text>
</a>
</g>
</g>
<!-- x_arrow_40&#45;&gt;stem_41 -->
<g id="edge8" class="edge">
<title>x_arrow_40&#45;&gt;stem_41</title>
<path fill="none" stroke="black" d="M415.01,-882.92C430.48,-893.15 451.11,-906.78 467.58,-917.67"/>
<polygon fill="black" stroke="black" points="465.98,-920.8 476.25,-923.39 469.83,-914.96 465.98,-920.8"/>
</g>
<!-- head_42 -->
<g id="node10" class="node">
<title>head_42</title>
<g id="a_node10"><a xlink:href="javascript:s=&quot;\(&quot;&#x27;base&#x27;,\ &quot;,\ &#x27;coords&#x27;,\ &#x27;x_arrow&#x27;,\ &#x27;head&#x27;\)\nCone&quot;; console.log(s); alert(s);" xlink:title="Cone">
<ellipse fill="none" stroke="black" cx="496.32" cy="-882" rx="27.9" ry="18"/>
<text text-anchor="middle" x="496.32" y="-878.3" font-family="Times New Roman,serif" font-size="14.00">head</text>
</a>
</g>
</g>
<!-- x_arrow_40&#45;&gt;head_42 -->
<g id="edge9" class="edge">
<title>x_arrow_40&#45;&gt;head_42</title>
<path fill="none" stroke="black" d="M430.74,-873.21C439.96,-874.47 449.78,-875.8 458.91,-877.04"/>
<polygon fill="black" stroke="black" points="458.47,-880.52 468.85,-878.4 459.41,-873.58 458.47,-880.52"/>
</g>
<!-- stem_44 -->
<g id="node12" class="node">
<title>stem_44</title>
<g id="a_node12"><a xlink:href="javascript:s=&quot;\(&quot;&#x27;base&#x27;,\ &quot;,\ &#x27;coords&#x27;,\ &#x27;y_arrow&#x27;,\ &#x27;stem&#x27;\)\nCone&quot;; console.log(s); alert(s);" xlink:title="Cone">
<ellipse fill="none" stroke="black" cx="496.32" cy="-828" rx="27.9" ry="18"/>
<text text-anchor="middle" x="496.32" y="-824.3" font-family="Times New Roman,serif" font-size="14.00">stem</text>
</a>
</g>
</g>
<!-- y_arrow_43&#45;&gt;stem_44 -->
<g id="edge11" class="edge">
<title>y_arrow_43&#45;&gt;stem_44</title>
<path fill="none" stroke="black" d="M422.47,-798.97C435.04,-803.98 449.69,-809.82 462.54,-814.94"/>
<polygon fill="black" stroke="black" points="461.37,-818.24 471.96,-818.69 463.96,-811.74 461.37,-818.24"/>
</g>
<!-- head_45 -->
<g id="node13" class="node">
<title>head_45</title>
<g id="a_node13"><a xlink:href="javascript:s=&quot;\(&quot;&#x27;base&#x27;,\ &quot;,\ &#x27;coords&#x27;,\ &#x27;y_arrow&#x27;,\ &#x27;head&#x27;\)\nCone&quot;; console.log(s); alert(s);" xlink:title="Cone">
<ellipse fill="none" stroke="black" cx="496.32" cy="-774" rx="27.9" ry="18"/>
<text text-anchor="middle" x="496.32" y="-770.3" font-family="Times New Roman,serif" font-size="14.00">head</text>
</a>
</g>
</g>
<!-- y_arrow_43&#45;&gt;head_45 -->
<g id="edge12" class="edge">
<title>y_arrow_43&#45;&gt;head_45</title>
<path fill="none" stroke="black" d="M431.04,-782.12C440.05,-780.98 449.63,-779.77 458.57,-778.64"/>
<polygon fill="black" stroke="black" points="459.2,-782.09 468.69,-777.37 458.33,-775.15 459.2,-782.09"/>
</g>
<!-- stem_47 -->
<g id="node15" class="node">
<title>stem_47</title>
<g id="a_node15"><a xlink:href="javascript:s=&quot;\(&quot;&#x27;base&#x27;,\ &quot;,\ &#x27;coords&#x27;,\ &#x27;z_arrow&#x27;,\ &#x27;stem&#x27;\)\nCone&quot;; console.log(s); alert(s);" xlink:title="Cone">
<ellipse fill="none" stroke="black" cx="496.32" cy="-720" rx="27.9" ry="18"/>
<text text-anchor="middle" x="496.32" y="-716.3" font-family="Times New Roman,serif" font-size="14.00">stem</text>
</a>
</g>
</g>
<!-- z_arrow_46&#45;&gt;stem_47 -->
<g id="edge14" class="edge">
<title>z_arrow_46&#45;&gt;stem_47</title>
<path fill="none" stroke="black" d="M431.92,-720C440.54,-720 449.64,-720 458.16,-720"/>
<polygon fill="black" stroke="black" points="458.21,-723.5 468.21,-720 458.21,-716.5 458.21,-723.5"/>
</g>
<!-- head_48 -->
<g id="node16" class="node">
<title>head_48</title>
<g id="a_node16"><a xlink:href="javascript:s=&quot;\(&quot;&#x27;base&#x27;,\ &quot;,\ &#x27;coords&#x27;,\ &#x27;z_arrow&#x27;,\ &#x27;head&#x27;\)\nCone&quot;; console.log(s); alert(s);" xlink:title="Cone">
<ellipse fill="none" stroke="black" cx="496.32" cy="-666" rx="27.9" ry="18"/>
<text text-anchor="middle" x="496.32" y="-662.3" font-family="Times New Roman,serif" font-size="14.00">head</text>
</a>
</g>
</g>
<!-- z_arrow_46&#45;&gt;head_48 -->
<g id="edge15" class="edge">
<title>z_arrow_46&#45;&gt;head_48</title>
<path fill="none" stroke="black" d="M418.13,-706.51C432.42,-699.01 450.29,-689.63 465.24,-681.79"/>
<polygon fill="black" stroke="black" points="466.88,-684.88 474.11,-677.14 463.63,-678.68 466.88,-684.88"/>
</g>
<!-- coords_54 -->
<g id="node22" class="node">
<title>coords_54</title>
<g id="a_node22"><a xlink:href="javascript:s=&quot;\(&quot;&#x27;top&#x27;,\ &quot;,\ &#x27;coords&#x27;\)\nCoordinates&quot;; console.log(s); alert(s);" xlink:title="Coordinates">
<ellipse fill="none" stroke="black" cx="278.09" cy="-517" rx="36.29" ry="18"/>
<text text-anchor="middle" x="278.09" y="-513.3" font-family="Times New Roman,serif" font-size="14.00">coords</text>
</a>
</g>
</g>
<!-- 53&#45;&gt;coords_54 -->
<g id="edge21" class="edge">
<title>53&#45;&gt;coords_54</title>
<path fill="none" stroke="black" d="M169.73,-449.19C190.5,-462.31 222.6,-482.58 246.29,-497.55"/>
<polygon fill="black" stroke="black" points="244.59,-500.61 254.91,-503 248.33,-494.7 244.59,-500.61"/>
</g>
<!-- x_65 -->
<g id="node33" class="node">
<title>x_65</title>
<g id="a_node33"><a xlink:href="javascript:s=&quot;\(&quot;&#x27;top&#x27;,\ &quot;,\ &#x27;x&#x27;\)\nText&quot;; console.log(s); alert(s);" xlink:title="Text">
<ellipse fill="none" stroke="black" cx="278.09" cy="-463" rx="27" ry="18"/>
<text text-anchor="middle" x="278.09" y="-459.3" font-family="Times New Roman,serif" font-size="14.00">x</text>
</a>
</g>
</g>
<!-- 53&#45;&gt;x_65 -->
<g id="edge32" class="edge">
<title>53&#45;&gt;x_65</title>
<path fill="none" stroke="black" d="M177.94,-442.13C196.95,-446.13 221.88,-451.38 241.98,-455.61"/>
<polygon fill="black" stroke="black" points="241.49,-459.08 252,-457.72 242.93,-452.23 241.49,-459.08"/>
</g>
<!-- y_66 -->
<g id="node34" class="node">
<title>y_66</title>
<g id="a_node34"><a xlink:href="javascript:s=&quot;\(&quot;&#x27;top&#x27;,\ &quot;,\ &#x27;y&#x27;\)\nText&quot;; console.log(s); alert(s);" xlink:title="Text">
<ellipse fill="none" stroke="black" cx="278.09" cy="-409" rx="27" ry="18"/>
<text text-anchor="middle" x="278.09" y="-405.3" font-family="Times New Roman,serif" font-size="14.00">y</text>
</a>
</g>
</g>
<!-- 53&#45;&gt;y_66 -->
<g id="edge33" class="edge">
<title>53&#45;&gt;y_66</title>
<path fill="none" stroke="black" d="M177.94,-429.87C196.95,-425.87 221.88,-420.62 241.98,-416.39"/>
<polygon fill="black" stroke="black" points="242.93,-419.77 252,-414.28 241.49,-412.92 242.93,-419.77"/>
</g>
<!-- z_67 -->
<g id="node35" class="node">
<title>z_67</title>
<g id="a_node35"><a xlink:href="javascript:s=&quot;\(&quot;&#x27;top&#x27;,\ &quot;,\ &#x27;z&#x27;\)\nText&quot;; console.log(s); alert(s);" xlink:title="Text">
<ellipse fill="none" stroke="black" cx="278.09" cy="-355" rx="27" ry="18"/>
<text text-anchor="middle" x="278.09" y="-351.3" font-family="Times New Roman,serif" font-size="14.00">z</text>
</a>
</g>
</g>
<!-- 53&#45;&gt;z_67 -->
<g id="edge34" class="edge">
<title>53&#45;&gt;z_67</title>
<path fill="none" stroke="black" d="M169.73,-422.81C191.38,-409.13 225.34,-387.68 249.26,-372.58"/>
<polygon fill="black" stroke="black" points="251.3,-375.43 257.88,-367.13 247.56,-369.51 251.3,-375.43"/>
</g>
<!-- label_68 -->
<g id="node36" class="node">
<title>label_68</title>
<g id="a_node36"><a xlink:href="javascript:s=&quot;\(&quot;&#x27;top&#x27;,\ &quot;,\ &#x27;label&#x27;\)\nText&quot;; console.log(s); alert(s);" xlink:title="Text">
<ellipse fill="none" stroke="black" cx="278.09" cy="-301" rx="27.1" ry="18"/>
<text text-anchor="middle" x="278.09" y="-297.3" font-family="Times New Roman,serif" font-size="14.00">label</text>
</a>
</g>
</g>
<!-- 53&#45;&gt;label_68 -->
<g id="edge35" class="edge">
<title>53&#45;&gt;label_68</title>
<path fill="none" stroke="black" d="M161.39,-419.32C178.38,-397.26 210.21,-357.69 241.69,-328 244.44,-325.41 247.43,-322.82 250.46,-320.33"/>
<polygon fill="black" stroke="black" points="252.78,-322.96 258.49,-314.04 248.46,-317.46 252.78,-322.96"/>
</g>
<!-- origin_55 -->
<g id="node23" class="node">
<title>origin_55</title>
<g id="a_node23"><a xlink:href="javascript:s=&quot;\(&quot;&#x27;top&#x27;,\ &quot;,\ &#x27;coords&#x27;,\ &#x27;origin&#x27;\)\nCoordinatesCage&quot;; console.log(s); alert(s);" xlink:title="CoordinatesCage">
<ellipse fill="none" stroke="black" cx="391.43" cy="-612" rx="31.4" ry="18"/>
<text text-anchor="middle" x="391.43" y="-608.3" font-family="Times New Roman,serif" font-size="14.00">origin</text>
</a>
</g>
</g>
<!-- coords_54&#45;&gt;origin_55 -->
<g id="edge22" class="edge">
<title>coords_54&#45;&gt;origin_55</title>
<path fill="none" stroke="black" d="M299.86,-531.76C304.81,-535.56 309.96,-539.78 314.48,-544 332.21,-560.55 332.29,-568.97 350.48,-585 353.73,-587.86 357.3,-590.67 360.93,-593.33"/>
<polygon fill="black" stroke="black" points="359.16,-596.37 369.37,-599.22 363.17,-590.63 359.16,-596.37"/>
</g>
<!-- x_arrow_56 -->
<g id="node24" class="node">
<title>x_arrow_56</title>
<g id="a_node24"><a xlink:href="javascript:s=&quot;\(&quot;&#x27;top&#x27;,\ &quot;,\ &#x27;coords&#x27;,\ &#x27;x_arrow&#x27;\)\nArrow&quot;; console.log(s); alert(s);" xlink:title="Arrow">
<ellipse fill="none" stroke="black" cx="391.43" cy="-558" rx="40.89" ry="18"/>
<text text-anchor="middle" x="391.43" y="-554.3" font-family="Times New Roman,serif" font-size="14.00">x_arrow</text>
</a>
</g>
</g>
<!-- coords_54&#45;&gt;x_arrow_56 -->
<g id="edge23" class="edge">
<title>coords_54&#45;&gt;x_arrow_56</title>
<path fill="none" stroke="black" d="M307.76,-527.56C320.64,-532.3 336.06,-537.98 350.08,-543.14"/>
<polygon fill="black" stroke="black" points="348.92,-546.44 359.51,-546.61 351.33,-539.87 348.92,-546.44"/>
</g>
<!-- y_arrow_59 -->
<g id="node27" class="node">
<title>y_arrow_59</title>
<g id="a_node27"><a xlink:href="javascript:s=&quot;\(&quot;&#x27;top&#x27;,\ &quot;,\ &#x27;coords&#x27;,\ &#x27;y_arrow&#x27;\)\nArrow&quot;; console.log(s); alert(s);" xlink:title="Arrow">
<ellipse fill="none" stroke="black" cx="391.43" cy="-504" rx="40.89" ry="18"/>
<text text-anchor="middle" x="391.43" y="-500.3" font-family="Times New Roman,serif" font-size="14.00">y_arrow</text>
</a>
</g>
</g>
<!-- coords_54&#45;&gt;y_arrow_59 -->
<g id="edge26" class="edge">
<title>coords_54&#45;&gt;y_arrow_59</title>
<path fill="none" stroke="black" d="M313.71,-512.96C322.52,-511.93 332.16,-510.8 341.54,-509.71"/>
<polygon fill="black" stroke="black" points="342.03,-513.17 351.56,-508.54 341.22,-506.22 342.03,-513.17"/>
</g>
<!-- z_arrow_62 -->
<g id="node30" class="node">
<title>z_arrow_62</title>
<g id="a_node30"><a xlink:href="javascript:s=&quot;\(&quot;&#x27;top&#x27;,\ &quot;,\ &#x27;coords&#x27;,\ &#x27;z_arrow&#x27;\)\nArrow&quot;; console.log(s); alert(s);" xlink:title="Arrow">
<ellipse fill="none" stroke="black" cx="391.43" cy="-396" rx="40.09" ry="18"/>
<text text-anchor="middle" x="391.43" y="-392.3" font-family="Times New Roman,serif" font-size="14.00">z_arrow</text>
</a>
</g>
</g>
<!-- coords_54&#45;&gt;z_arrow_62 -->
<g id="edge29" class="edge">
<title>coords_54&#45;&gt;z_arrow_62</title>
<path fill="none" stroke="black" d="M299.99,-502.37C304.93,-498.56 310.05,-494.31 314.48,-490 336.36,-468.72 357.9,-441.27 372.42,-421.54"/>
<polygon fill="black" stroke="black" points="375.34,-423.48 378.38,-413.33 369.67,-419.36 375.34,-423.48"/>
</g>
<!-- stem_57 -->
<g id="node25" class="node">
<title>stem_57</title>
<g id="a_node25"><a xlink:href="javascript:s=&quot;\(&quot;&#x27;top&#x27;,\ &quot;,\ &#x27;coords&#x27;,\ &#x27;x_arrow&#x27;,\ &#x27;stem&#x27;\)\nCone&quot;; console.log(s); alert(s);" xlink:title="Cone">
<ellipse fill="none" stroke="black" cx="496.32" cy="-612" rx="27.9" ry="18"/>
<text text-anchor="middle" x="496.32" y="-608.3" font-family="Times New Roman,serif" font-size="14.00">stem</text>
</a>
</g>
</g>
<!-- x_arrow_56&#45;&gt;stem_57 -->
<g id="edge24" class="edge">
<title>x_arrow_56&#45;&gt;stem_57</title>
<path fill="none" stroke="black" d="M418.39,-571.63C432.56,-579.06 450.17,-588.3 464.96,-596.07"/>
<polygon fill="black" stroke="black" points="463.73,-599.37 474.21,-600.92 466.99,-593.18 463.73,-599.37"/>
</g>
<!-- head_58 -->
<g id="node26" class="node">
<title>head_58</title>
<g id="a_node26"><a xlink:href="javascript:s=&quot;\(&quot;&#x27;top&#x27;,\ &quot;,\ &#x27;coords&#x27;,\ &#x27;x_arrow&#x27;,\ &#x27;head&#x27;\)\nCone&quot;; console.log(s); alert(s);" xlink:title="Cone">
<ellipse fill="none" stroke="black" cx="496.32" cy="-558" rx="27.9" ry="18"/>
<text text-anchor="middle" x="496.32" y="-554.3" font-family="Times New Roman,serif" font-size="14.00">head</text>
</a>
</g>
</g>
<!-- x_arrow_56&#45;&gt;head_58 -->
<g id="edge25" class="edge">
<title>x_arrow_56&#45;&gt;head_58</title>
<path fill="none" stroke="black" d="M432.51,-558C440.92,-558 449.76,-558 458.06,-558"/>
<polygon fill="black" stroke="black" points="458.22,-561.5 468.22,-558 458.22,-554.5 458.22,-561.5"/>
</g>
<!-- stem_60 -->
<g id="node28" class="node">
<title>stem_60</title>
<g id="a_node28"><a xlink:href="javascript:s=&quot;\(&quot;&#x27;top&#x27;,\ &quot;,\ &#x27;coords&#x27;,\ &#x27;y_arrow&#x27;,\ &#x27;stem&#x27;\)\nCone&quot;; console.log(s); alert(s);" xlink:title="Cone">
<ellipse fill="none" stroke="black" cx="496.32" cy="-504" rx="27.9" ry="18"/>
<text text-anchor="middle" x="496.32" y="-500.3" font-family="Times New Roman,serif" font-size="14.00">stem</text>
</a>
</g>
</g>
<!-- y_arrow_59&#45;&gt;stem_60 -->
<g id="edge27" class="edge">
<title>y_arrow_59&#45;&gt;stem_60</title>
<path fill="none" stroke="black" d="M432.51,-504C440.92,-504 449.76,-504 458.06,-504"/>
<polygon fill="black" stroke="black" points="458.22,-507.5 468.22,-504 458.22,-500.5 458.22,-507.5"/>
</g>
<!-- head_61 -->
<g id="node29" class="node">
<title>head_61</title>
<g id="a_node29"><a xlink:href="javascript:s=&quot;\(&quot;&#x27;top&#x27;,\ &quot;,\ &#x27;coords&#x27;,\ &#x27;y_arrow&#x27;,\ &#x27;head&#x27;\)\nCone&quot;; console.log(s); alert(s);" xlink:title="Cone">
<ellipse fill="none" stroke="black" cx="496.32" cy="-450" rx="27.9" ry="18"/>
<text text-anchor="middle" x="496.32" y="-446.3" font-family="Times New Roman,serif" font-size="14.00">head</text>
</a>
</g>
</g>
<!-- y_arrow_59&#45;&gt;head_61 -->
<g id="edge28" class="edge">
<title>y_arrow_59&#45;&gt;head_61</title>
<path fill="none" stroke="black" d="M418.39,-490.37C432.56,-482.94 450.17,-473.7 464.96,-465.93"/>
<polygon fill="black" stroke="black" points="466.99,-468.82 474.21,-461.08 463.73,-462.63 466.99,-468.82"/>
</g>
<!-- stem_63 -->
<g id="node31" class="node">
<title>stem_63</title>
<g id="a_node31"><a xlink:href="javascript:s=&quot;\(&quot;&#x27;top&#x27;,\ &quot;,\ &#x27;coords&#x27;,\ &#x27;z_arrow&#x27;,\ &#x27;stem&#x27;\)\nCone&quot;; console.log(s); alert(s);" xlink:title="Cone">
<ellipse fill="none" stroke="black" cx="496.32" cy="-396" rx="27.9" ry="18"/>
<text text-anchor="middle" x="496.32" y="-392.3" font-family="Times New Roman,serif" font-size="14.00">stem</text>
</a>
</g>
</g>
<!-- z_arrow_62&#45;&gt;stem_63 -->
<g id="edge30" class="edge">
<title>z_arrow_62&#45;&gt;stem_63</title>
<path fill="none" stroke="black" d="M431.92,-396C440.54,-396 449.64,-396 458.16,-396"/>
<polygon fill="black" stroke="black" points="458.21,-399.5 468.21,-396 458.21,-392.5 458.21,-399.5"/>
</g>
<!-- head_64 -->
<g id="node32" class="node">
<title>head_64</title>
<g id="a_node32"><a xlink:href="javascript:s=&quot;\(&quot;&#x27;top&#x27;,\ &quot;,\ &#x27;coords&#x27;,\ &#x27;z_arrow&#x27;,\ &#x27;head&#x27;\)\nCone&quot;; console.log(s); alert(s);" xlink:title="Cone">
<ellipse fill="none" stroke="black" cx="496.32" cy="-342" rx="27.9" ry="18"/>
<text text-anchor="middle" x="496.32" y="-338.3" font-family="Times New Roman,serif" font-size="14.00">head</text>
</a>
</g>
</g>
<!-- z_arrow_62&#45;&gt;head_64 -->
<g id="edge31" class="edge">
<title>z_arrow_62&#45;&gt;head_64</title>
<path fill="none" stroke="black" d="M418.13,-382.51C432.42,-375.01 450.29,-365.63 465.24,-357.79"/>
<polygon fill="black" stroke="black" points="466.88,-360.88 474.11,-353.14 463.63,-354.68 466.88,-360.88"/>
</g>
<!-- coords_70 -->
<g id="node38" class="node">
<title>coords_70</title>
<g id="a_node38"><a xlink:href="javascript:s=&quot;\(&quot;&#x27;stem&#x27;,\ &#x27;top&#x27;,\ &quot;,\ &#x27;coords&#x27;\)\nCoordinates&quot;; console.log(s); alert(s);" xlink:title="Coordinates">
<ellipse fill="none" stroke="black" cx="278.09" cy="-234" rx="36.29" ry="18"/>
<text text-anchor="middle" x="278.09" y="-230.3" font-family="Times New Roman,serif" font-size="14.00">coords</text>
</a>
</g>
</g>
<!-- 69&#45;&gt;coords_70 -->
<g id="edge37" class="edge">
<title>69&#45;&gt;coords_70</title>
<path fill="none" stroke="black" d="M174.49,-169.2C195.17,-182.26 224.34,-200.68 246.29,-214.55"/>
<polygon fill="black" stroke="black" points="244.59,-217.61 254.91,-219.99 248.32,-211.69 244.59,-217.61"/>
</g>
<!-- x_81 -->
<g id="node49" class="node">
<title>x_81</title>
<g id="a_node49"><a xlink:href="javascript:s=&quot;\(&quot;&#x27;stem&#x27;,\ &#x27;top&#x27;,\ &quot;,\ &#x27;x&#x27;\)\nText&quot;; console.log(s); alert(s);" xlink:title="Text">
<ellipse fill="none" stroke="black" cx="278.09" cy="-180" rx="27" ry="18"/>
<text text-anchor="middle" x="278.09" y="-176.3" font-family="Times New Roman,serif" font-size="14.00">x</text>
</a>
</g>
</g>
<!-- 69&#45;&gt;x_81 -->
<g id="edge48" class="edge">
<title>69&#45;&gt;x_81</title>
<path fill="none" stroke="black" d="M196.23,-162.98C211.51,-166.19 228.14,-169.69 242.33,-172.68"/>
<polygon fill="black" stroke="black" points="241.66,-176.12 252.17,-174.75 243.11,-169.27 241.66,-176.12"/>
</g>
<!-- y_82 -->
<g id="node50" class="node">
<title>y_82</title>
<g id="a_node50"><a xlink:href="javascript:s=&quot;\(&quot;&#x27;stem&#x27;,\ &#x27;top&#x27;,\ &quot;,\ &#x27;y&#x27;\)\nText&quot;; console.log(s); alert(s);" xlink:title="Text">
<ellipse fill="none" stroke="black" cx="278.09" cy="-126" rx="27" ry="18"/>
<text text-anchor="middle" x="278.09" y="-122.3" font-family="Times New Roman,serif" font-size="14.00">y</text>
</a>
</g>
</g>
<!-- 69&#45;&gt;y_82 -->
<g id="edge49" class="edge">
<title>69&#45;&gt;y_82</title>
<path fill="none" stroke="black" d="M196.23,-143.02C211.51,-139.81 228.14,-136.31 242.33,-133.32"/>
<polygon fill="black" stroke="black" points="243.11,-136.73 252.17,-131.25 241.66,-129.88 243.11,-136.73"/>
</g>
<!-- z_83 -->
<g id="node51" class="node">
<title>z_83</title>
<g id="a_node51"><a xlink:href="javascript:s=&quot;\(&quot;&#x27;stem&#x27;,\ &#x27;top&#x27;,\ &quot;,\ &#x27;z&#x27;\)\nText&quot;; console.log(s); alert(s);" xlink:title="Text">
<ellipse fill="none" stroke="black" cx="278.09" cy="-72" rx="27" ry="18"/>
<text text-anchor="middle" x="278.09" y="-68.3" font-family="Times New Roman,serif" font-size="14.00">z</text>
</a>
</g>
</g>
<!-- 69&#45;&gt;z_83 -->
<g id="edge50" class="edge">
<title>69&#45;&gt;z_83</title>
<path fill="none" stroke="black" d="M174.49,-136.8C196.07,-123.17 226.89,-103.7 249.11,-89.67"/>
<polygon fill="black" stroke="black" points="251.17,-92.51 257.76,-84.21 247.43,-86.59 251.17,-92.51"/>
</g>
<!-- label_84 -->
<g id="node52" class="node">
<title>label_84</title>
<g id="a_node52"><a xlink:href="javascript:s=&quot;\(&quot;&#x27;stem&#x27;,\ &#x27;top&#x27;,\ &quot;,\ &#x27;label&#x27;\)\nText&quot;; console.log(s); alert(s);" xlink:title="Text">
<ellipse fill="none" stroke="black" cx="278.09" cy="-18" rx="27.1" ry="18"/>
<text text-anchor="middle" x="278.09" y="-14.3" font-family="Times New Roman,serif" font-size="14.00">label</text>
</a>
</g>
</g>
<!-- 69&#45;&gt;label_84 -->
<g id="edge51" class="edge">
<title>69&#45;&gt;label_84</title>
<path fill="none" stroke="black" d="M162.28,-135.17C179.47,-112.9 210.75,-74.18 241.69,-45 244.44,-42.41 247.43,-39.82 250.46,-37.33"/>
<polygon fill="black" stroke="black" points="252.78,-39.96 258.49,-31.04 248.46,-34.46 252.78,-39.96"/>
</g>
<!-- origin_71 -->
<g id="node39" class="node">
<title>origin_71</title>
<g id="a_node39"><a xlink:href="javascript:s=&quot;\(&quot;&#x27;stem&#x27;,\ &#x27;top&#x27;,\ &quot;,\ &#x27;coords&#x27;,\ &#x27;origin&#x27;\)\nCoordinatesCage&quot;; console.log(s); alert(s);" xlink:title="CoordinatesCage">
<ellipse fill="none" stroke="black" cx="391.43" cy="-288" rx="31.4" ry="18"/>
<text text-anchor="middle" x="391.43" y="-284.3" font-family="Times New Roman,serif" font-size="14.00">origin</text>
</a>
</g>
</g>
<!-- coords_70&#45;&gt;origin_71 -->
<g id="edge38" class="edge">
<title>coords_70&#45;&gt;origin_71</title>
<path fill="none" stroke="black" d="M304.63,-246.39C320.45,-254.06 340.91,-263.98 357.88,-272.22"/>
<polygon fill="black" stroke="black" points="356.38,-275.38 366.9,-276.59 359.43,-269.08 356.38,-275.38"/>
</g>
<!-- x_arrow_72 -->
<g id="node40" class="node">
<title>x_arrow_72</title>
<g id="a_node40"><a xlink:href="javascript:s=&quot;\(&quot;&#x27;stem&#x27;,\ &#x27;top&#x27;,\ &quot;,\ &#x27;coords&#x27;,\ &#x27;x_arrow&#x27;\)\nArrow&quot;; console.log(s); alert(s);" xlink:title="Arrow">
<ellipse fill="none" stroke="black" cx="391.43" cy="-234" rx="40.89" ry="18"/>
<text text-anchor="middle" x="391.43" y="-230.3" font-family="Times New Roman,serif" font-size="14.00">x_arrow</text>
</a>
</g>
</g>
<!-- coords_70&#45;&gt;x_arrow_72 -->
<g id="edge39" class="edge">
<title>coords_70&#45;&gt;x_arrow_72</title>
<path fill="none" stroke="black" d="M314.62,-234C322.68,-234 331.38,-234 339.92,-234"/>
<polygon fill="black" stroke="black" points="340.2,-237.5 350.2,-234 340.2,-230.5 340.2,-237.5"/>
</g>
<!-- y_arrow_75 -->
<g id="node43" class="node">
<title>y_arrow_75</title>
<g id="a_node43"><a xlink:href="javascript:s=&quot;\(&quot;&#x27;stem&#x27;,\ &#x27;top&#x27;,\ &quot;,\ &#x27;coords&#x27;,\ &#x27;y_arrow&#x27;\)\nArrow&quot;; console.log(s); alert(s);" xlink:title="Arrow">
<ellipse fill="none" stroke="black" cx="391.43" cy="-180" rx="40.89" ry="18"/>
<text text-anchor="middle" x="391.43" y="-176.3" font-family="Times New Roman,serif" font-size="14.00">y_arrow</text>
</a>
</g>
</g>
<!-- coords_70&#45;&gt;y_arrow_75 -->
<g id="edge42" class="edge">
<title>coords_70&#45;&gt;y_arrow_75</title>
<path fill="none" stroke="black" d="M304.63,-221.61C319.23,-214.53 337.78,-205.53 353.9,-197.72"/>
<polygon fill="black" stroke="black" points="355.59,-200.79 363.06,-193.27 352.53,-194.49 355.59,-200.79"/>
</g>
<!-- z_arrow_78 -->
<g id="node46" class="node">
<title>z_arrow_78</title>
<g id="a_node46"><a xlink:href="javascript:s=&quot;\(&quot;&#x27;stem&#x27;,\ &#x27;top&#x27;,\ &quot;,\ &#x27;coords&#x27;,\ &#x27;z_arrow&#x27;\)\nArrow&quot;; console.log(s); alert(s);" xlink:title="Arrow">
<ellipse fill="none" stroke="black" cx="391.43" cy="-72" rx="40.09" ry="18"/>
<text text-anchor="middle" x="391.43" y="-68.3" font-family="Times New Roman,serif" font-size="14.00">z_arrow</text>
</a>
</g>
</g>
<!-- coords_70&#45;&gt;z_arrow_78 -->
<g id="edge45" class="edge">
<title>coords_70&#45;&gt;z_arrow_78</title>
<path fill="none" stroke="black" d="M300.89,-219.59C305.7,-215.83 310.53,-211.55 314.48,-207 329.93,-189.24 359.76,-132.65 377.08,-98.64"/>
<polygon fill="black" stroke="black" points="380.22,-100.19 381.61,-89.69 373.97,-97.03 380.22,-100.19"/>
</g>
<!-- stem_73 -->
<g id="node41" class="node">
<title>stem_73</title>
<g id="a_node41"><a xlink:href="javascript:s=&quot;\(&quot;&#x27;stem&#x27;,\ &#x27;top&#x27;,\ &quot;,\ &#x27;coords&#x27;,\ &#x27;x_arrow&#x27;,\ &#x27;stem&#x27;\)\nCone&quot;; console.log(s); alert(s);" xlink:title="Cone">
<ellipse fill="none" stroke="black" cx="496.32" cy="-288" rx="27.9" ry="18"/>
<text text-anchor="middle" x="496.32" y="-284.3" font-family="Times New Roman,serif" font-size="14.00">stem</text>
</a>
</g>
</g>
<!-- x_arrow_72&#45;&gt;stem_73 -->
<g id="edge40" class="edge">
<title>x_arrow_72&#45;&gt;stem_73</title>
<path fill="none" stroke="black" d="M418.39,-247.63C432.56,-255.06 450.17,-264.3 464.96,-272.07"/>
<polygon fill="black" stroke="black" points="463.73,-275.37 474.21,-276.92 466.99,-269.18 463.73,-275.37"/>
</g>
<!-- head_74 -->
<g id="node42" class="node">
<title>head_74</title>
<g id="a_node42"><a xlink:href="javascript:s=&quot;\(&quot;&#x27;stem&#x27;,\ &#x27;top&#x27;,\ &quot;,\ &#x27;coords&#x27;,\ &#x27;x_arrow&#x27;,\ &#x27;head&#x27;\)\nCone&quot;; console.log(s); alert(s);" xlink:title="Cone">
<ellipse fill="none" stroke="black" cx="496.32" cy="-234" rx="27.9" ry="18"/>
<text text-anchor="middle" x="496.32" y="-230.3" font-family="Times New Roman,serif" font-size="14.00">head</text>
</a>
</g>
</g>
<!-- x_arrow_72&#45;&gt;head_74 -->
<g id="edge41" class="edge">
<title>x_arrow_72&#45;&gt;head_74</title>
<path fill="none" stroke="black" d="M432.51,-234C440.92,-234 449.76,-234 458.06,-234"/>
<polygon fill="black" stroke="black" points="458.22,-237.5 468.22,-234 458.22,-230.5 458.22,-237.5"/>
</g>
<!-- stem_76 -->
<g id="node44" class="node">
<title>stem_76</title>
<g id="a_node44"><a xlink:href="javascript:s=&quot;\(&quot;&#x27;stem&#x27;,\ &#x27;top&#x27;,\ &quot;,\ &#x27;coords&#x27;,\ &#x27;y_arrow&#x27;,\ &#x27;stem&#x27;\)\nCone&quot;; console.log(s); alert(s);" xlink:title="Cone">
<ellipse fill="none" stroke="black" cx="496.32" cy="-180" rx="27.9" ry="18"/>
<text text-anchor="middle" x="496.32" y="-176.3" font-family="Times New Roman,serif" font-size="14.00">stem</text>
</a>
</g>
</g>
<!-- y_arrow_75&#45;&gt;stem_76 -->
<g id="edge43" class="edge">
<title>y_arrow_75&#45;&gt;stem_76</title>
<path fill="none" stroke="black" d="M432.51,-180C440.92,-180 449.76,-180 458.06,-180"/>
<polygon fill="black" stroke="black" points="458.22,-183.5 468.22,-180 458.22,-176.5 458.22,-183.5"/>
</g>
<!-- head_77 -->
<g id="node45" class="node">
<title>head_77</title>
<g id="a_node45"><a xlink:href="javascript:s=&quot;\(&quot;&#x27;stem&#x27;,\ &#x27;top&#x27;,\ &quot;,\ &#x27;coords&#x27;,\ &#x27;y_arrow&#x27;,\ &#x27;head&#x27;\)\nCone&quot;; console.log(s); alert(s);" xlink:title="Cone">
<ellipse fill="none" stroke="black" cx="496.32" cy="-126" rx="27.9" ry="18"/>
<text text-anchor="middle" x="496.32" y="-122.3" font-family="Times New Roman,serif" font-size="14.00">head</text>
</a>
</g>
</g>
<!-- y_arrow_75&#45;&gt;head_77 -->
<g id="edge44" class="edge">
<title>y_arrow_75&#45;&gt;head_77</title>
<path fill="none" stroke="black" d="M418.39,-166.37C432.56,-158.94 450.17,-149.7 464.96,-141.93"/>
<polygon fill="black" stroke="black" points="466.99,-144.82 474.21,-137.08 463.73,-138.63 466.99,-144.82"/>
</g>
<!-- stem_79 -->
<g id="node47" class="node">
<title>stem_79</title>
<g id="a_node47"><a xlink:href="javascript:s=&quot;\(&quot;&#x27;stem&#x27;,\ &#x27;top&#x27;,\ &quot;,\ &#x27;coords&#x27;,\ &#x27;z_arrow&#x27;,\ &#x27;stem&#x27;\)\nCone&quot;; console.log(s); alert(s);" xlink:title="Cone">
<ellipse fill="none" stroke="black" cx="496.32" cy="-72" rx="27.9" ry="18"/>
<text text-anchor="middle" x="496.32" y="-68.3" font-family="Times New Roman,serif" font-size="14.00">stem</text>
</a>
</g>
</g>
<!-- z_arrow_78&#45;&gt;stem_79 -->
<g id="edge46" class="edge">
<title>z_arrow_78&#45;&gt;stem_79</title>
<path fill="none" stroke="black" d="M431.92,-72C440.54,-72 449.64,-72 458.16,-72"/>
<polygon fill="black" stroke="black" points="458.21,-75.5 468.21,-72 458.21,-68.5 458.21,-75.5"/>
</g>
<!-- head_80 -->
<g id="node48" class="node">
<title>head_80</title>
<g id="a_node48"><a xlink:href="javascript:s=&quot;\(&quot;&#x27;stem&#x27;,\ &#x27;top&#x27;,\ &quot;,\ &#x27;coords&#x27;,\ &#x27;z_arrow&#x27;,\ &#x27;head&#x27;\)\nCone&quot;; console.log(s); alert(s);" xlink:title="Cone">
<ellipse fill="none" stroke="black" cx="496.32" cy="-18" rx="27.9" ry="18"/>
<text text-anchor="middle" x="496.32" y="-14.3" font-family="Times New Roman,serif" font-size="14.00">head</text>
</a>
</g>
</g>
<!-- z_arrow_78&#45;&gt;head_80 -->
<g id="edge47" class="edge">
<title>z_arrow_78&#45;&gt;head_80</title>
<path fill="none" stroke="black" d="M418.13,-58.51C432.42,-51.01 450.29,-41.63 465.24,-33.79"/>
<polygon fill="black" stroke="black" points="466.88,-36.88 474.11,-29.14 463.63,-30.68 466.88,-36.88"/>
</g>
</g>
</svg>
