solid OpenSCAD_Model
  facet normal -0.9495244465830308 -0.30851919474947703 -0.05673827466819335
    outer loop
      vertex -5.481272745855605 -2.4404198584548014 0
      vertex -5.868885604402834 -1.247470144906556 0
      vertex -3.6541818305704035 -1.6269465723032008 -35
    endloop
  endfacet
  facet normal -0.9929198066933836 -0.10436007696265115 -0.05673827466819335
    outer loop
      vertex -5.868885604402834 -1.247470144906556 0
      vertex -6 0 0
      vertex -3.9125904029352228 -0.8316467632710374 -35
    endloop
  endfacet
  facet normal 0 0 1
    outer loop
      vertex -5.481272745855605 -2.4404198584548014 0
      vertex -5.868885604402834 1.247470144906556 0
      vertex -5.868885604402834 -1.247470144906556 0
    endloop
  endfacet
  facet normal 0 0 1
    outer loop
      vertex -4.854101966249685 -3.526711513754839 0
      vertex -5.481272745855605 2.4404198584548014 0
      vertex -5.481272745855605 -2.4404198584548014 0
    endloop
  endfacet
  facet normal -0.2075767630833497 -0.9765718896300034 -0.05673827466819334
    outer loop
      vertex -1.8541019662496843 -5.706339097770921 0
      vertex -1.2360679774997896 -3.804226065180614 -35
      vertex -0.6271707796059208 -5.967131372209639 0
    endloop
  endfacet
  facet normal 0 -0.9983890865728033 -0.056738274668193325
    outer loop
      vertex -0.6271707796059208 -5.967131372209639 0
      vertex -0.4181138530706139 -3.978087581473093 -35
      vertex 0.6271707796059208 -5.967131372209639 0
    endloop
  endfacet
  facet normal -0.586838381137247 -0.8077137380358788 -0.05673827466819335
    outer loop
      vertex -3 -5.196152422706632 0
      vertex -2.676522425435433 -2.972579301909577 -35
      vertex -2 -3.4641016151377544 -35
    endloop
  endfacet
  facet normal -0.7419476834996811 -0.6680526948805263 -0.05673827466819335
    outer loop
      vertex -4.854101966249685 -3.526711513754839 0
      vertex -3.23606797749979 -2.3511410091698925 -35
      vertex -2.676522425435433 -2.972579301909577 -35
    endloop
  endfacet
  facet normal -0.8646303118331891 -0.49919454328640134 -0.05673827466819335
    outer loop
      vertex -5.481272745855605 -2.4404198584548014 0
      vertex -3.6541818305704035 -1.6269465723032008 -35
      vertex -3.23606797749979 -2.3511410091698925 -35
    endloop
  endfacet
  facet normal -0.9495244465830307 -0.3085191947494772 -0.05673827466819334
    outer loop
      vertex -5.868885604402834 -1.247470144906556 0
      vertex -3.9125904029352228 -0.8316467632710374 -35
      vertex -3.6541818305704035 -1.6269465723032008 -35
    endloop
  endfacet
  facet normal -0.9929198066933835 -0.10436007696265114 -0.056738274668193346
    outer loop
      vertex -6 0 0
      vertex -4 0 -35
      vertex -3.9125904029352228 -0.8316467632710374 -35
    endloop
  endfacet
  facet normal -0.4060814255561365 -0.9120738149985299 -0.05673827466819333
    outer loop
      vertex -1.8541019662496843 -5.706339097770921 0
      vertex -2 -3.4641016151377544 -35
      vertex -1.2360679774997896 -3.804226065180614 -35
    endloop
  endfacet
  facet normal -0.20757676308335002 -0.9765718896300034 -0.05673827466819333
    outer loop
      vertex -0.6271707796059208 -5.967131372209639 0
      vertex -1.2360679774997896 -3.804226065180614 -35
      vertex -0.4181138530706139 -3.978087581473093 -35
    endloop
  endfacet
  facet normal -0.8646303118331888 -0.49919454328640167 -0.056738274668193346
    outer loop
      vertex -4.854101966249685 -3.526711513754839 0
      vertex -5.481272745855605 -2.4404198584548014 0
      vertex -3.23606797749979 -2.3511410091698925 -35
    endloop
  endfacet
  facet normal -0.7419476834996811 -0.6680526948805263 -0.056738274668193346
    outer loop
      vertex -4.854101966249685 -3.526711513754839 0
      vertex -2.676522425435433 -2.972579301909577 -35
      vertex -4.014783638153149 -4.458868952864366 0
    endloop
  endfacet
  facet normal -0.5868383811372467 -0.8077137380358788 -0.05673827466819335
    outer loop
      vertex -4.014783638153149 -4.458868952864366 0
      vertex -2.676522425435433 -2.972579301909577 -35
      vertex -3 -5.196152422706632 0
    endloop
  endfacet
  facet normal 0 0 1
    outer loop
      vertex -4.854101966249685 -3.526711513754839 0
      vertex -4.014783638153149 -4.458868952864366 0
      vertex -4.854101966249685 3.526711513754839 0
    endloop
  endfacet
  facet normal 0 0 1
    outer loop
      vertex -4.014783638153149 -4.458868952864366 0
      vertex -3 -5.196152422706632 0
      vertex -4.014783638153149 4.458868952864366 0
    endloop
  endfacet
  facet normal 0 0 1
    outer loop
      vertex -3 -5.196152422706632 0
      vertex -1.8541019662496843 -5.706339097770921 0
      vertex -3 5.196152422706632 0
    endloop
  endfacet
  facet normal -0.406081425556136 -0.9120738149985302 -0.05673827466819335
    outer loop
      vertex -3 -5.196152422706632 0
      vertex -2 -3.4641016151377544 -35
      vertex -1.8541019662496843 -5.706339097770921 0
    endloop
  endfacet
  facet normal 0 0 1
    outer loop
      vertex -1.8541019662496843 -5.706339097770921 0
      vertex -0.6271707796059208 -5.967131372209639 0
      vertex -1.8541019662496843 5.706339097770921 0
    endloop
  endfacet
  facet normal 0 0 1
    outer loop
      vertex -0.6271707796059208 -5.967131372209639 0
      vertex 0.6271707796059208 -5.967131372209639 0
      vertex -0.6271707796059208 5.967131372209639 0
    endloop
  endfacet
  facet normal -0.9929198066933836 0.10436007696265115 -0.05673827466819335
    outer loop
      vertex -6 0 0
      vertex -5.868885604402834 1.247470144906556 0
      vertex -3.9125904029352228 0.8316467632710374 -35
    endloop
  endfacet
  facet normal -0.9495244465830308 0.30851919474947703 -0.05673827466819335
    outer loop
      vertex -5.868885604402834 1.247470144906556 0
      vertex -5.481272745855605 2.4404198584548014 0
      vertex -3.6541818305704035 1.6269465723032008 -35
    endloop
  endfacet
  facet normal 0 0 1
    outer loop
      vertex -5.868885604402834 -1.247470144906556 0
      vertex -5.868885604402834 1.247470144906556 0
      vertex -6 0 0
    endloop
  endfacet
  facet normal 0 0 1
    outer loop
      vertex -5.481272745855605 -2.4404198584548014 0
      vertex -5.481272745855605 2.4404198584548014 0
      vertex -5.868885604402834 1.247470144906556 0
    endloop
  endfacet
  facet normal 0 0 1
    outer loop
      vertex -4.854101966249685 -3.526711513754839 0
      vertex -4.854101966249685 3.526711513754839 0
      vertex -5.481272745855605 2.4404198584548014 0
    endloop
  endfacet
  facet normal -0.9929198066933835 0.10436007696265114 -0.056738274668193346
    outer loop
      vertex -6 0 0
      vertex -3.9125904029352228 0.8316467632710374 -35
      vertex -4 0 -35
    endloop
  endfacet
  facet normal -0.9495244465830307 0.3085191947494772 -0.05673827466819334
    outer loop
      vertex -5.868885604402834 1.247470144906556 0
      vertex -3.6541818305704035 1.6269465723032008 -35
      vertex -3.9125904029352228 0.8316467632710374 -35
    endloop
  endfacet
  facet normal -0.8646303118331891 0.49919454328640134 -0.05673827466819335
    outer loop
      vertex -5.481272745855605 2.4404198584548014 0
      vertex -3.23606797749979 2.3511410091698925 -35
      vertex -3.6541818305704035 1.6269465723032008 -35
    endloop
  endfacet
  facet normal -0.7419476834996811 0.6680526948805263 -0.05673827466819335
    outer loop
      vertex -4.854101966249685 3.526711513754839 0
      vertex -2.676522425435433 2.972579301909577 -35
      vertex -3.23606797749979 2.3511410091698925 -35
    endloop
  endfacet
  facet normal -0.586838381137247 0.8077137380358788 -0.05673827466819335
    outer loop
      vertex -3 5.196152422706632 0
      vertex -2 3.4641016151377544 -35
      vertex -2.676522425435433 2.972579301909577 -35
    endloop
  endfacet
  facet normal -0.4060814255561365 0.9120738149985299 -0.05673827466819333
    outer loop
      vertex -1.8541019662496843 5.706339097770921 0
      vertex -1.2360679774997896 3.804226065180614 -35
      vertex -2 3.4641016151377544 -35
    endloop
  endfacet
  facet normal -0.20757676308335007 0.9765718896300034 -0.05673827466819334
    outer loop
      vertex -0.6271707796059208 5.967131372209639 0
      vertex -0.418113853070614 3.978087581473093 -35
      vertex -1.2360679774997896 3.804226065180614 -35
    endloop
  endfacet
  facet normal 0 0.9983890865728033 -0.05673827466819333
    outer loop
      vertex -0.6271707796059208 5.967131372209639 0
      vertex 0.4181138530706139 3.978087581473093 -35
      vertex -0.418113853070614 3.978087581473093 -35
    endloop
  endfacet
  facet normal 0 0 1
    outer loop
      vertex -4.014783638153149 -4.458868952864366 0
      vertex -4.014783638153149 4.458868952864366 0
      vertex -4.854101966249685 3.526711513754839 0
    endloop
  endfacet
  facet normal 0 0 1
    outer loop
      vertex -3 -5.196152422706632 0
      vertex -3 5.196152422706632 0
      vertex -4.014783638153149 4.458868952864366 0
    endloop
  endfacet
  facet normal -0.8646303118331888 0.49919454328640167 -0.056738274668193346
    outer loop
      vertex -5.481272745855605 2.4404198584548014 0
      vertex -4.854101966249685 3.526711513754839 0
      vertex -3.23606797749979 2.3511410091698925 -35
    endloop
  endfacet
  facet normal -0.7419476834996811 0.6680526948805263 -0.056738274668193346
    outer loop
      vertex -4.854101966249685 3.526711513754839 0
      vertex -4.014783638153149 4.458868952864366 0
      vertex -2.676522425435433 2.972579301909577 -35
    endloop
  endfacet
  facet normal -0.5868383811372467 0.8077137380358788 -0.05673827466819335
    outer loop
      vertex -4.014783638153149 4.458868952864366 0
      vertex -3 5.196152422706632 0
      vertex -2.676522425435433 2.972579301909577 -35
    endloop
  endfacet
  facet normal 0 0 1
    outer loop
      vertex -1.8541019662496843 -5.706339097770921 0
      vertex -1.8541019662496843 5.706339097770921 0
      vertex -3 5.196152422706632 0
    endloop
  endfacet
  facet normal 0 0 1
    outer loop
      vertex -0.6271707796059208 -5.967131372209639 0
      vertex -0.6271707796059208 5.967131372209639 0
      vertex -1.8541019662496843 5.706339097770921 0
    endloop
  endfacet
  facet normal -0.406081425556136 0.9120738149985302 -0.05673827466819335
    outer loop
      vertex -3 5.196152422706632 0
      vertex -1.8541019662496843 5.706339097770921 0
      vertex -2 3.4641016151377544 -35
    endloop
  endfacet
  facet normal -0.2075767630833497 0.9765718896300034 -0.05673827466819334
    outer loop
      vertex -1.8541019662496843 5.706339097770921 0
      vertex -0.6271707796059208 5.967131372209639 0
      vertex -1.2360679774997896 3.804226065180614 -35
    endloop
  endfacet
  facet normal 0.2075767630833497 -0.9765718896300034 -0.05673827466819333
    outer loop
      vertex 0.6271707796059208 -5.967131372209639 0
      vertex 1.2360679774997896 -3.804226065180614 -35
      vertex 1.8541019662496843 -5.706339097770921 0
    endloop
  endfacet
  facet normal 0 -0.9983890865728033 -0.05673827466819333
    outer loop
      vertex 0.6271707796059208 -5.967131372209639 0
      vertex -0.4181138530706139 -3.978087581473093 -35
      vertex 0.418113853070614 -3.978087581473093 -35
    endloop
  endfacet
  facet normal 0.20757676308335007 -0.9765718896300034 -0.05673827466819334
    outer loop
      vertex 0.6271707796059208 -5.967131372209639 0
      vertex 0.418113853070614 -3.978087581473093 -35
      vertex 1.2360679774997896 -3.804226065180614 -35
    endloop
  endfacet
  facet normal 0.4060814255561365 -0.9120738149985299 -0.05673827466819333
    outer loop
      vertex 1.8541019662496843 -5.706339097770921 0
      vertex 1.2360679774997896 -3.804226065180614 -35
      vertex 2 -3.4641016151377544 -35
    endloop
  endfacet
  facet normal 0.586838381137247 -0.8077137380358788 -0.05673827466819335
    outer loop
      vertex 3 -5.196152422706632 0
      vertex 2 -3.4641016151377544 -35
      vertex 2.676522425435433 -2.972579301909577 -35
    endloop
  endfacet
  facet normal 0.7419476834996811 -0.6680526948805263 -0.05673827466819335
    outer loop
      vertex 4.854101966249685 -3.526711513754839 0
      vertex 2.676522425435433 -2.972579301909577 -35
      vertex 3.23606797749979 -2.3511410091698925 -35
    endloop
  endfacet
  facet normal 0.8646303118331891 -0.49919454328640134 -0.05673827466819335
    outer loop
      vertex 5.481272745855605 -2.4404198584548014 0
      vertex 3.23606797749979 -2.3511410091698925 -35
      vertex 3.6541818305704035 -1.6269465723032008 -35
    endloop
  endfacet
  facet normal 0.9495244465830307 -0.3085191947494772 -0.05673827466819334
    outer loop
      vertex 5.868885604402834 -1.247470144906556 0
      vertex 3.6541818305704035 -1.6269465723032008 -35
      vertex 3.9125904029352228 -0.8316467632710374 -35
    endloop
  endfacet
  facet normal 0.9929198066933835 -0.10436007696265114 -0.056738274668193346
    outer loop
      vertex 6 0 0
      vertex 3.9125904029352228 -0.8316467632710374 -35
      vertex 4 0 -35
    endloop
  endfacet
  facet normal 0.406081425556136 -0.9120738149985302 -0.05673827466819335
    outer loop
      vertex 1.8541019662496843 -5.706339097770921 0
      vertex 2 -3.4641016151377544 -35
      vertex 3 -5.196152422706632 0
    endloop
  endfacet
  facet normal 0 0 1
    outer loop
      vertex 0.6271707796059208 -5.967131372209639 0
      vertex 1.8541019662496843 -5.706339097770921 0
      vertex 0.6271707796059208 5.967131372209639 0
    endloop
  endfacet
  facet normal 0 0 1
    outer loop
      vertex 1.8541019662496843 -5.706339097770921 0
      vertex 3 -5.196152422706632 0
      vertex 1.8541019662496843 5.706339097770921 0
    endloop
  endfacet
  facet normal 0.5868383811372467 -0.8077137380358788 -0.05673827466819335
    outer loop
      vertex 3 -5.196152422706632 0
      vertex 2.676522425435433 -2.972579301909577 -35
      vertex 4.014783638153149 -4.458868952864366 0
    endloop
  endfacet
  facet normal 0.7419476834996811 -0.6680526948805263 -0.056738274668193346
    outer loop
      vertex 4.014783638153149 -4.458868952864366 0
      vertex 2.676522425435433 -2.972579301909577 -35
      vertex 4.854101966249685 -3.526711513754839 0
    endloop
  endfacet
  facet normal 0.8646303118331888 -0.49919454328640167 -0.056738274668193346
    outer loop
      vertex 4.854101966249685 -3.526711513754839 0
      vertex 3.23606797749979 -2.3511410091698925 -35
      vertex 5.481272745855605 -2.4404198584548014 0
    endloop
  endfacet
  facet normal 0 0 1
    outer loop
      vertex 3 -5.196152422706632 0
      vertex 4.014783638153149 -4.458868952864366 0
      vertex 3 5.196152422706632 0
    endloop
  endfacet
  facet normal 0 0 1
    outer loop
      vertex 4.014783638153149 -4.458868952864366 0
      vertex 4.854101966249685 -3.526711513754839 0
      vertex 4.014783638153149 4.458868952864366 0
    endloop
  endfacet
  facet normal 0.9495244465830308 -0.30851919474947703 -0.05673827466819335
    outer loop
      vertex 5.481272745855605 -2.4404198584548014 0
      vertex 3.6541818305704035 -1.6269465723032008 -35
      vertex 5.868885604402834 -1.247470144906556 0
    endloop
  endfacet
  facet normal 0.9929198066933836 -0.10436007696265115 -0.05673827466819335
    outer loop
      vertex 5.868885604402834 -1.247470144906556 0
      vertex 3.9125904029352228 -0.8316467632710374 -35
      vertex 6 0 0
    endloop
  endfacet
  facet normal 0 0 1
    outer loop
      vertex 4.854101966249685 -3.526711513754839 0
      vertex 5.481272745855605 -2.4404198584548014 0
      vertex 4.854101966249685 3.526711513754839 0
    endloop
  endfacet
  facet normal 0 0 1
    outer loop
      vertex 5.481272745855605 -2.4404198584548014 0
      vertex 5.868885604402834 -1.247470144906556 0
      vertex 5.481272745855605 2.4404198584548014 0
    endloop
  endfacet
  facet normal 0.20757676308335002 0.9765718896300034 -0.05673827466819333
    outer loop
      vertex 0.6271707796059208 5.967131372209639 0
      vertex 1.2360679774997896 3.804226065180614 -35
      vertex 0.4181138530706139 3.978087581473093 -35
    endloop
  endfacet
  facet normal 0.4060814255561365 0.9120738149985299 -0.05673827466819333
    outer loop
      vertex 1.8541019662496843 5.706339097770921 0
      vertex 2 3.4641016151377544 -35
      vertex 1.2360679774997896 3.804226065180614 -35
    endloop
  endfacet
  facet normal 0.9929198066933835 0.10436007696265114 -0.056738274668193346
    outer loop
      vertex 6 0 0
      vertex 4 0 -35
      vertex 3.9125904029352228 0.8316467632710374 -35
    endloop
  endfacet
  facet normal 0.9495244465830307 0.3085191947494772 -0.05673827466819334
    outer loop
      vertex 5.868885604402834 1.247470144906556 0
      vertex 3.9125904029352228 0.8316467632710374 -35
      vertex 3.6541818305704035 1.6269465723032008 -35
    endloop
  endfacet
  facet normal 0.8646303118331891 0.49919454328640134 -0.05673827466819335
    outer loop
      vertex 5.481272745855605 2.4404198584548014 0
      vertex 3.6541818305704035 1.6269465723032008 -35
      vertex 3.23606797749979 2.3511410091698925 -35
    endloop
  endfacet
  facet normal 0.7419476834996811 0.6680526948805263 -0.05673827466819335
    outer loop
      vertex 4.854101966249685 3.526711513754839 0
      vertex 3.23606797749979 2.3511410091698925 -35
      vertex 2.676522425435433 2.972579301909577 -35
    endloop
  endfacet
  facet normal 0.586838381137247 0.8077137380358788 -0.05673827466819335
    outer loop
      vertex 3 5.196152422706632 0
      vertex 2.676522425435433 2.972579301909577 -35
      vertex 2 3.4641016151377544 -35
    endloop
  endfacet
  facet normal 0 0 1
    outer loop
      vertex -0.6271707796059208 5.967131372209639 0
      vertex 0.6271707796059208 -5.967131372209639 0
      vertex 0.6271707796059208 5.967131372209639 0
    endloop
  endfacet
  facet normal 0 0 1
    outer loop
      vertex 1.8541019662496843 -5.706339097770921 0
      vertex 1.8541019662496843 5.706339097770921 0
      vertex 0.6271707796059208 5.967131372209639 0
    endloop
  endfacet
  facet normal 0.406081425556136 0.9120738149985302 -0.05673827466819335
    outer loop
      vertex 1.8541019662496843 5.706339097770921 0
      vertex 3 5.196152422706632 0
      vertex 2 3.4641016151377544 -35
    endloop
  endfacet
  facet normal 0 0 1
    outer loop
      vertex 3 -5.196152422706632 0
      vertex 3 5.196152422706632 0
      vertex 1.8541019662496843 5.706339097770921 0
    endloop
  endfacet
  facet normal 0 0 1
    outer loop
      vertex 4.014783638153149 -4.458868952864366 0
      vertex 4.014783638153149 4.458868952864366 0
      vertex 3 5.196152422706632 0
    endloop
  endfacet
  facet normal 0 0 1
    outer loop
      vertex 4.854101966249685 -3.526711513754839 0
      vertex 4.854101966249685 3.526711513754839 0
      vertex 4.014783638153149 4.458868952864366 0
    endloop
  endfacet
  facet normal 0.5868383811372467 0.8077137380358788 -0.05673827466819335
    outer loop
      vertex 4.014783638153149 4.458868952864366 0
      vertex 2.676522425435433 2.972579301909577 -35
      vertex 3 5.196152422706632 0
    endloop
  endfacet
  facet normal 0.7419476834996811 0.6680526948805263 -0.056738274668193346
    outer loop
      vertex 4.014783638153149 4.458868952864366 0
      vertex 4.854101966249685 3.526711513754839 0
      vertex 2.676522425435433 2.972579301909577 -35
    endloop
  endfacet
  facet normal 0.8646303118331888 0.49919454328640167 -0.056738274668193346
    outer loop
      vertex 5.481272745855605 2.4404198584548014 0
      vertex 3.23606797749979 2.3511410091698925 -35
      vertex 4.854101966249685 3.526711513754839 0
    endloop
  endfacet
  facet normal 0 0.9983890865728033 -0.056738274668193325
    outer loop
      vertex -0.6271707796059208 5.967131372209639 0
      vertex 0.6271707796059208 5.967131372209639 0
      vertex 0.4181138530706139 3.978087581473093 -35
    endloop
  endfacet
  facet normal 0.2075767630833497 0.9765718896300034 -0.05673827466819333
    outer loop
      vertex 0.6271707796059208 5.967131372209639 0
      vertex 1.8541019662496843 5.706339097770921 0
      vertex 1.2360679774997896 3.804226065180614 -35
    endloop
  endfacet
  facet normal 0.9929198066933836 0.10436007696265115 -0.05673827466819335
    outer loop
      vertex 6 0 0
      vertex 3.9125904029352228 0.8316467632710374 -35
      vertex 5.868885604402834 1.247470144906556 0
    endloop
  endfacet
  facet normal 0.9495244465830308 0.30851919474947703 -0.05673827466819335
    outer loop
      vertex 5.868885604402834 1.247470144906556 0
      vertex 3.6541818305704035 1.6269465723032008 -35
      vertex 5.481272745855605 2.4404198584548014 0
    endloop
  endfacet
  facet normal 0 0 1
    outer loop
      vertex 5.481272745855605 -2.4404198584548014 0
      vertex 5.481272745855605 2.4404198584548014 0
      vertex 4.854101966249685 3.526711513754839 0
    endloop
  endfacet
  facet normal 0 0 1
    outer loop
      vertex 5.868885604402834 -1.247470144906556 0
      vertex 6 0 0
      vertex 5.868885604402834 1.247470144906556 0
    endloop
  endfacet
  facet normal 0 0 1
    outer loop
      vertex 5.868885604402834 -1.247470144906556 0
      vertex 5.868885604402834 1.247470144906556 0
      vertex 5.481272745855605 2.4404198584548014 0
    endloop
  endfacet
  facet normal -0.7754443986482055 -0.4477030323011285 -0.4452504682462419
    outer loop
      vertex -8.090169943749475 -5.877852522924732 -35
      vertex -9.135454576426008 -4.067366430758002 -35
      vertex 0 0 -55
    endloop
  endfacet
  facet normal -0.8515817724701762 -0.27669569082849005 -0.44525046824624187
    outer loop
      vertex -9.135454576426008 -4.067366430758002 -35
      vertex -9.781476007338057 -2.0791169081775935 -35
      vertex 0 0 -55
    endloop
  endfacet
  facet normal -0.8905009364924839 -0.09359541993341103 -0.4452504682462419
    outer loop
      vertex -9.781476007338057 -2.0791169081775935 -35
      vertex -10 0 -35
      vertex 0 0 -55
    endloop
  endfacet
  facet normal 0 0 1
    outer loop
      vertex -9.135454576426008 -4.067366430758002 -35
      vertex -9.781476007338057 2.0791169081775935 -35
      vertex -9.781476007338057 -2.0791169081775935 -35
    endloop
  endfacet
  facet normal 0 0 1
    outer loop
      vertex -8.090169943749475 -5.877852522924732 -35
      vertex -9.135454576426008 4.067366430758002 -35
      vertex -9.135454576426008 -4.067366430758002 -35
    endloop
  endfacet
  facet normal 0 0 1
    outer loop
      vertex -8.090169943749475 -5.877852522924732 -35
      vertex -6.691306063588582 -7.431448254773942 -35
      vertex -8.090169943749475 5.877852522924732 -35
    endloop
  endfacet
  facet normal 0 0 1
    outer loop
      vertex -6.691306063588582 -7.431448254773942 -35
      vertex -5 -8.660254037844386 -35
      vertex -6.691306063588582 7.431448254773942 -35
    endloop
  endfacet
  facet normal -0.5263064795864483 -0.7243987231296186 -0.4452504682462419
    outer loop
      vertex -6.691306063588582 -7.431448254773942 -35
      vertex 0 0 -55
      vertex -5 -8.660254037844386 -35
    endloop
  endfacet
  facet normal -0.3641944569060353 -0.8179941430630298 -0.4452504682462419
    outer loop
      vertex -5 -8.660254037844386 -35
      vertex 0 0 -55
      vertex -3.090169943749474 -9.510565162951535 -35
    endloop
  endfacet
  facet normal -0.1861653888599317 -0.8758392937731971 -0.44525046824624187
    outer loop
      vertex -3.090169943749474 -9.510565162951535 -35
      vertex 0 0 -55
      vertex -1.0452846326765348 -9.945218953682733 -35
    endloop
  endfacet
  facet normal 0 0 1
    outer loop
      vertex -3.090169943749474 -9.510565162951535 -35
      vertex -2 -3.4641016151377544 -35
      vertex -2.676522425435433 -2.972579301909577 -35
    endloop
  endfacet
  facet normal 0 0 1
    outer loop
      vertex -3.090169943749474 -9.510565162951535 -35
      vertex -1.0452846326765348 -9.945218953682733 -35
      vertex -1.2360679774997896 -3.804226065180614 -35
    endloop
  endfacet
  facet normal 0 0 1
    outer loop
      vertex -3.090169943749474 -9.510565162951535 -35
      vertex -1.2360679774997896 -3.804226065180614 -35
      vertex -2 -3.4641016151377544 -35
    endloop
  endfacet
  facet normal 0 0 1
    outer loop
      vertex -1.0452846326765348 -9.945218953682733 -35
      vertex -0.4181138530706139 -3.978087581473093 -35
      vertex -1.2360679774997896 -3.804226065180614 -35
    endloop
  endfacet
  facet normal 0 0 1
    outer loop
      vertex -1.0452846326765348 -9.945218953682733 -35
      vertex 0.418113853070614 -3.978087581473093 -35
      vertex -0.4181138530706139 -3.978087581473093 -35
    endloop
  endfacet
  facet normal -0.665416383610245 -0.5991436029447078 -0.4452504682462419
    outer loop
      vertex -8.090169943749475 -5.877852522924732 -35
      vertex 0 0 -55
      vertex -6.691306063588582 -7.431448254773942 -35
    endloop
  endfacet
  facet normal 0 0 1
    outer loop
      vertex -5 -8.660254037844386 -35
      vertex -3.090169943749474 -9.510565162951535 -35
      vertex -5 8.660254037844386 -35
    endloop
  endfacet
  facet normal 0 0 1
    outer loop
      vertex -3.090169943749474 -9.510565162951535 -35
      vertex -3.23606797749979 -2.3511410091698925 -35
      vertex -3.6541818305704035 -1.6269465723032008 -35
    endloop
  endfacet
  facet normal 0 0 1
    outer loop
      vertex -3.090169943749474 -9.510565162951535 -35
      vertex -3.6541818305704035 -1.6269465723032008 -35
      vertex -3.9125904029352228 -0.8316467632710374 -35
    endloop
  endfacet
  facet normal 0 0 1
    outer loop
      vertex -3.090169943749474 -9.510565162951535 -35
      vertex -2.676522425435433 -2.972579301909577 -35
      vertex -3.23606797749979 -2.3511410091698925 -35
    endloop
  endfacet
  facet normal 0 0 1
    outer loop
      vertex -3.090169943749474 -9.510565162951535 -35
      vertex -3.9125904029352228 -0.8316467632710374 -35
      vertex -5 8.660254037844386 -35
    endloop
  endfacet
  facet normal -0.8905009364924839 0.09359541993341103 -0.4452504682462419
    outer loop
      vertex -10 0 -35
      vertex -9.781476007338057 2.0791169081775935 -35
      vertex 0 0 -55
    endloop
  endfacet
  facet normal -0.8515817724701762 0.27669569082849005 -0.44525046824624187
    outer loop
      vertex -9.781476007338057 2.0791169081775935 -35
      vertex -9.135454576426008 4.067366430758002 -35
      vertex 0 0 -55
    endloop
  endfacet
  facet normal -0.7754443986482055 0.4477030323011285 -0.4452504682462419
    outer loop
      vertex -9.135454576426008 4.067366430758002 -35
      vertex -8.090169943749475 5.877852522924732 -35
      vertex 0 0 -55
    endloop
  endfacet
  facet normal 0 0 1
    outer loop
      vertex -9.781476007338057 -2.0791169081775935 -35
      vertex -9.781476007338057 2.0791169081775935 -35
      vertex -10 0 -35
    endloop
  endfacet
  facet normal 0 0 1
    outer loop
      vertex -9.135454576426008 -4.067366430758002 -35
      vertex -9.135454576426008 4.067366430758002 -35
      vertex -9.781476007338057 2.0791169081775935 -35
    endloop
  endfacet
  facet normal 0 0 1
    outer loop
      vertex -8.090169943749475 -5.877852522924732 -35
      vertex -8.090169943749475 5.877852522924732 -35
      vertex -9.135454576426008 4.067366430758002 -35
    endloop
  endfacet
  facet normal 0 0 1
    outer loop
      vertex -6.691306063588582 -7.431448254773942 -35
      vertex -6.691306063588582 7.431448254773942 -35
      vertex -8.090169943749475 5.877852522924732 -35
    endloop
  endfacet
  facet normal 0 0 1
    outer loop
      vertex -5 -8.660254037844386 -35
      vertex -5 8.660254037844386 -35
      vertex -6.691306063588582 7.431448254773942 -35
    endloop
  endfacet
  facet normal -0.665416383610245 0.5991436029447078 -0.4452504682462419
    outer loop
      vertex -8.090169943749475 5.877852522924732 -35
      vertex -6.691306063588582 7.431448254773942 -35
      vertex 0 0 -55
    endloop
  endfacet
  facet normal 0 0 1
    outer loop
      vertex -5 8.660254037844386 -35
      vertex -3.9125904029352228 -0.8316467632710374 -35
      vertex -4 0 -35
    endloop
  endfacet
  facet normal 0 0 1
    outer loop
      vertex -5 8.660254037844386 -35
      vertex -4 0 -35
      vertex -3.9125904029352228 0.8316467632710374 -35
    endloop
  endfacet
  facet normal 0 0 1
    outer loop
      vertex -5 8.660254037844386 -35
      vertex -3.9125904029352228 0.8316467632710374 -35
      vertex -3.6541818305704035 1.6269465723032008 -35
    endloop
  endfacet
  facet normal 0 0 1
    outer loop
      vertex -5 8.660254037844386 -35
      vertex -3.6541818305704035 1.6269465723032008 -35
      vertex -3.23606797749979 2.3511410091698925 -35
    endloop
  endfacet
  facet normal 0 0 1
    outer loop
      vertex -3.090169943749474 9.510565162951535 -35
      vertex -3.23606797749979 2.3511410091698925 -35
      vertex -2.676522425435433 2.972579301909577 -35
    endloop
  endfacet
  facet normal -0.5263064795864483 0.7243987231296186 -0.4452504682462419
    outer loop
      vertex -6.691306063588582 7.431448254773942 -35
      vertex -5 8.660254037844386 -35
      vertex 0 0 -55
    endloop
  endfacet
  facet normal -0.3641944569060353 0.8179941430630298 -0.4452504682462419
    outer loop
      vertex -5 8.660254037844386 -35
      vertex -3.090169943749474 9.510565162951535 -35
      vertex 0 0 -55
    endloop
  endfacet
  facet normal -0.1861653888599317 0.8758392937731971 -0.44525046824624187
    outer loop
      vertex -3.090169943749474 9.510565162951535 -35
      vertex -1.0452846326765348 9.945218953682733 -35
      vertex 0 0 -55
    endloop
  endfacet
  facet normal 0 0 1
    outer loop
      vertex -5 8.660254037844386 -35
      vertex -3.23606797749979 2.3511410091698925 -35
      vertex -3.090169943749474 9.510565162951535 -35
    endloop
  endfacet
  facet normal 0 0 1
    outer loop
      vertex -3.090169943749474 9.510565162951535 -35
      vertex -2.676522425435433 2.972579301909577 -35
      vertex -2 3.4641016151377544 -35
    endloop
  endfacet
  facet normal 0 0 1
    outer loop
      vertex -3.090169943749474 9.510565162951535 -35
      vertex -2 3.4641016151377544 -35
      vertex -1.2360679774997896 3.804226065180614 -35
    endloop
  endfacet
  facet normal 0 0 1
    outer loop
      vertex -1.0452846326765348 9.945218953682733 -35
      vertex -1.2360679774997896 3.804226065180614 -35
      vertex -0.418113853070614 3.978087581473093 -35
    endloop
  endfacet
  facet normal 0 0 1
    outer loop
      vertex -3.090169943749474 9.510565162951535 -35
      vertex -1.2360679774997896 3.804226065180614 -35
      vertex -1.0452846326765348 9.945218953682733 -35
    endloop
  endfacet
  facet normal 0 0 1
    outer loop
      vertex -1.0452846326765348 9.945218953682733 -35
      vertex -0.418113853070614 3.978087581473093 -35
      vertex 1.0452846326765348 9.945218953682733 -35
    endloop
  endfacet
  facet normal 0 -0.8954060646022577 -0.445250468246242
    outer loop
      vertex -1.0452846326765348 -9.945218953682733 -35
      vertex 0 0 -55
      vertex 1.0452846326765348 -9.945218953682733 -35
    endloop
  endfacet
  facet normal 0.1861653888599317 -0.8758392937731971 -0.44525046824624187
    outer loop
      vertex 1.0452846326765348 -9.945218953682733 -35
      vertex 0 0 -55
      vertex 3.090169943749474 -9.510565162951535 -35
    endloop
  endfacet
  facet normal 0.3641944569060353 -0.8179941430630298 -0.4452504682462419
    outer loop
      vertex 3.090169943749474 -9.510565162951535 -35
      vertex 0 0 -55
      vertex 5 -8.660254037844386 -35
    endloop
  endfacet
  facet normal 0.5263064795864483 -0.7243987231296186 -0.4452504682462419
    outer loop
      vertex 5 -8.660254037844386 -35
      vertex 0 0 -55
      vertex 6.691306063588582 -7.431448254773942 -35
    endloop
  endfacet
  facet normal 0 0 1
    outer loop
      vertex -1.0452846326765348 -9.945218953682733 -35
      vertex 1.0452846326765348 -9.945218953682733 -35
      vertex 0.418113853070614 -3.978087581473093 -35
    endloop
  endfacet
  facet normal 0 0 1
    outer loop
      vertex 1.0452846326765348 -9.945218953682733 -35
      vertex 3.090169943749474 -9.510565162951535 -35
      vertex 1.2360679774997896 -3.804226065180614 -35
    endloop
  endfacet
  facet normal 0 0 1
    outer loop
      vertex 1.0452846326765348 -9.945218953682733 -35
      vertex 1.2360679774997896 -3.804226065180614 -35
      vertex 0.418113853070614 -3.978087581473093 -35
    endloop
  endfacet
  facet normal 0 0 1
    outer loop
      vertex 3.090169943749474 -9.510565162951535 -35
      vertex 2 -3.4641016151377544 -35
      vertex 1.2360679774997896 -3.804226065180614 -35
    endloop
  endfacet
  facet normal 0 0 1
    outer loop
      vertex 3.090169943749474 -9.510565162951535 -35
      vertex 2.676522425435433 -2.972579301909577 -35
      vertex 2 -3.4641016151377544 -35
    endloop
  endfacet
  facet normal 0 0 1
    outer loop
      vertex 3.090169943749474 -9.510565162951535 -35
      vertex 5 -8.660254037844386 -35
      vertex 3.23606797749979 -2.3511410091698925 -35
    endloop
  endfacet
  facet normal 0.665416383610245 -0.5991436029447078 -0.4452504682462419
    outer loop
      vertex 6.691306063588582 -7.431448254773942 -35
      vertex 0 0 -55
      vertex 8.090169943749475 -5.877852522924732 -35
    endloop
  endfacet
  facet normal 0 0 1
    outer loop
      vertex 3.090169943749474 -9.510565162951535 -35
      vertex 3.23606797749979 -2.3511410091698925 -35
      vertex 2.676522425435433 -2.972579301909577 -35
    endloop
  endfacet
  facet normal 0 0 1
    outer loop
      vertex 5 -8.660254037844386 -35
      vertex 3.6541818305704035 -1.6269465723032008 -35
      vertex 3.23606797749979 -2.3511410091698925 -35
    endloop
  endfacet
  facet normal 0 0 1
    outer loop
      vertex 5 -8.660254037844386 -35
      vertex 3.9125904029352228 -0.8316467632710374 -35
      vertex 3.6541818305704035 -1.6269465723032008 -35
    endloop
  endfacet
  facet normal 0 0 1
    outer loop
      vertex 5 -8.660254037844386 -35
      vertex 4 0 -35
      vertex 3.9125904029352228 -0.8316467632710374 -35
    endloop
  endfacet
  facet normal 0 0 1
    outer loop
      vertex 5 -8.660254037844386 -35
      vertex 3.9125904029352228 0.8316467632710374 -35
      vertex 4 0 -35
    endloop
  endfacet
  facet normal 0.7754443986482055 -0.4477030323011285 -0.4452504682462419
    outer loop
      vertex 8.090169943749475 -5.877852522924732 -35
      vertex 0 0 -55
      vertex 9.135454576426008 -4.067366430758002 -35
    endloop
  endfacet
  facet normal 0.8515817724701762 -0.27669569082849005 -0.44525046824624187
    outer loop
      vertex 9.135454576426008 -4.067366430758002 -35
      vertex 0 0 -55
      vertex 9.781476007338057 -2.0791169081775935 -35
    endloop
  endfacet
  facet normal 0.8905009364924839 -0.09359541993341103 -0.4452504682462419
    outer loop
      vertex 9.781476007338057 -2.0791169081775935 -35
      vertex 0 0 -55
      vertex 10 0 -35
    endloop
  endfacet
  facet normal 0 0 1
    outer loop
      vertex 5 -8.660254037844386 -35
      vertex 6.691306063588582 -7.431448254773942 -35
      vertex 5 8.660254037844386 -35
    endloop
  endfacet
  facet normal 0 0 1
    outer loop
      vertex 6.691306063588582 -7.431448254773942 -35
      vertex 8.090169943749475 -5.877852522924732 -35
      vertex 6.691306063588582 7.431448254773942 -35
    endloop
  endfacet
  facet normal 0 0 1
    outer loop
      vertex 8.090169943749475 -5.877852522924732 -35
      vertex 9.135454576426008 -4.067366430758002 -35
      vertex 8.090169943749475 5.877852522924732 -35
    endloop
  endfacet
  facet normal 0 0 1
    outer loop
      vertex 9.135454576426008 -4.067366430758002 -35
      vertex 9.781476007338057 -2.0791169081775935 -35
      vertex 9.135454576426008 4.067366430758002 -35
    endloop
  endfacet
  facet normal 0.6654163836102449 0.5991436029447077 -0.4452504682462421
    outer loop
      vertex 0 0 -55
      vertex 6.691306063588582 7.431448254773942 -35
      vertex 8.090169943749475 5.877852522924732 -35
    endloop
  endfacet
  facet normal 0 0 1
    outer loop
      vertex 5 -8.660254037844386 -35
      vertex 3.090169943749474 9.510565162951535 -35
      vertex 3.9125904029352228 0.8316467632710374 -35
    endloop
  endfacet
  facet normal 0 0 1
    outer loop
      vertex 3.090169943749474 9.510565162951535 -35
      vertex 2.676522425435433 2.972579301909577 -35
      vertex 3.23606797749979 2.3511410091698925 -35
    endloop
  endfacet
  facet normal 0 0 1
    outer loop
      vertex 3.090169943749474 9.510565162951535 -35
      vertex 3.6541818305704035 1.6269465723032008 -35
      vertex 3.9125904029352228 0.8316467632710374 -35
    endloop
  endfacet
  facet normal 0 0 1
    outer loop
      vertex 3.090169943749474 9.510565162951535 -35
      vertex 3.23606797749979 2.3511410091698925 -35
      vertex 3.6541818305704035 1.6269465723032008 -35
    endloop
  endfacet
  facet normal 0 0 1
    outer loop
      vertex 5 -8.660254037844386 -35
      vertex 5 8.660254037844386 -35
      vertex 3.090169943749474 9.510565162951535 -35
    endloop
  endfacet
  facet normal 0 0.8954060646022577 -0.445250468246242
    outer loop
      vertex -1.0452846326765348 9.945218953682733 -35
      vertex 1.0452846326765348 9.945218953682733 -35
      vertex 0 0 -55
    endloop
  endfacet
  facet normal 0.18616538885993153 0.8758392937731974 -0.4452504682462419
    outer loop
      vertex 0 0 -55
      vertex 1.0452846326765348 9.945218953682733 -35
      vertex 3.090169943749474 9.510565162951535 -35
    endloop
  endfacet
  facet normal 0.3641944569060357 0.8179941430630295 -0.4452504682462418
    outer loop
      vertex 0 0 -55
      vertex 3.090169943749474 9.510565162951535 -35
      vertex 5 8.660254037844386 -35
    endloop
  endfacet
  facet normal 0.5263064795864482 0.7243987231296187 -0.4452504682462419
    outer loop
      vertex 0 0 -55
      vertex 5 8.660254037844386 -35
      vertex 6.691306063588582 7.431448254773942 -35
    endloop
  endfacet
  facet normal 0 0 1
    outer loop
      vertex 1.0452846326765348 9.945218953682733 -35
      vertex -0.418113853070614 3.978087581473093 -35
      vertex 0.4181138530706139 3.978087581473093 -35
    endloop
  endfacet
  facet normal 0 0 1
    outer loop
      vertex 1.0452846326765348 9.945218953682733 -35
      vertex 0.4181138530706139 3.978087581473093 -35
      vertex 1.2360679774997896 3.804226065180614 -35
    endloop
  endfacet
  facet normal 0 0 1
    outer loop
      vertex 3.090169943749474 9.510565162951535 -35
      vertex 1.2360679774997896 3.804226065180614 -35
      vertex 2 3.4641016151377544 -35
    endloop
  endfacet
  facet normal 0 0 1
    outer loop
      vertex 1.0452846326765348 9.945218953682733 -35
      vertex 1.2360679774997896 3.804226065180614 -35
      vertex 3.090169943749474 9.510565162951535 -35
    endloop
  endfacet
  facet normal 0 0 1
    outer loop
      vertex 3.090169943749474 9.510565162951535 -35
      vertex 2 3.4641016151377544 -35
      vertex 2.676522425435433 2.972579301909577 -35
    endloop
  endfacet
  facet normal 0.8905009364924839 0.09359541993341103 -0.4452504682462419
    outer loop
      vertex 0 0 -55
      vertex 9.781476007338057 2.0791169081775935 -35
      vertex 10 0 -35
    endloop
  endfacet
  facet normal 0.8515817724701763 0.27669569082849016 -0.4452504682462418
    outer loop
      vertex 0 0 -55
      vertex 9.135454576426008 4.067366430758002 -35
      vertex 9.781476007338057 2.0791169081775935 -35
    endloop
  endfacet
  facet normal 0.7754443986482055 0.4477030323011285 -0.4452504682462418
    outer loop
      vertex 0 0 -55
      vertex 8.090169943749475 5.877852522924732 -35
      vertex 9.135454576426008 4.067366430758002 -35
    endloop
  endfacet
  facet normal 0 0 1
    outer loop
      vertex 6.691306063588582 -7.431448254773942 -35
      vertex 6.691306063588582 7.431448254773942 -35
      vertex 5 8.660254037844386 -35
    endloop
  endfacet
  facet normal 0 0 1
    outer loop
      vertex 8.090169943749475 -5.877852522924732 -35
      vertex 8.090169943749475 5.877852522924732 -35
      vertex 6.691306063588582 7.431448254773942 -35
    endloop
  endfacet
  facet normal 0 0 1
    outer loop
      vertex 9.781476007338057 -2.0791169081775935 -35
      vertex 10 0 -35
      vertex 9.781476007338057 2.0791169081775935 -35
    endloop
  endfacet
  facet normal 0 0 1
    outer loop
      vertex 9.135454576426008 -4.067366430758002 -35
      vertex 9.135454576426008 4.067366430758002 -35
      vertex 8.090169943749475 5.877852522924732 -35
    endloop
  endfacet
  facet normal 0 0 1
    outer loop
      vertex 9.781476007338057 -2.0791169081775935 -35
      vertex 9.781476007338057 2.0791169081775935 -35
      vertex 9.135454576426008 4.067366430758002 -35
    endloop
  endfacet
endsolid OpenSCAD_Model
