solid OpenSCAD_Model
  facet normal 0 0 -1
    outer loop
      vertex 0 10 0
      vertex 3.826834323650898 9.238795325112868 0
      vertex 0 0 0
    endloop
  endfacet
  facet normal 0.13928132531715334 0.7002145072825531 -0.7002145072825531
    outer loop
      vertex 3.826834323650898 9.238795325112868 0
      vertex 0 20 10
      vertex 7.653668647301796 18.477590650225736 10
    endloop
  endfacet
  facet normal 0.13928132531715334 0.7002145072825531 -0.7002145072825531
    outer loop
      vertex 0 20 10
      vertex 3.826834323650898 9.238795325112868 0
      vertex 0 10 0
    endloop
  endfacet
  facet normal 0.13928132531715334 0.7002145072825531 0.7002145072825531
    outer loop
      vertex 0 20 10
      vertex 3.826834323650898 9.238795325112868 20
      vertex 7.653668647301796 18.477590650225736 10
    endloop
  endfacet
  facet normal 0.13928132531715334 0.7002145072825531 0.7002145072825531
    outer loop
      vertex 3.826834323650898 9.238795325112868 20
      vertex 0 20 10
      vertex 0 10 20
    endloop
  endfacet
  facet normal 0.13928132531715334 0.7002145072825531 -0.7002145072825531
    outer loop
      vertex 3.826834323650898 9.238795325112868 20
      vertex 0 20 30
      vertex 7.653668647301796 18.477590650225736 30
    endloop
  endfacet
  facet normal 0.13928132531715334 0.7002145072825531 -0.7002145072825531
    outer loop
      vertex 0 20 30
      vertex 3.826834323650898 9.238795325112868 20
      vertex 0 10 20
    endloop
  endfacet
  facet normal 0 0 1
    outer loop
      vertex 0 0 30
      vertex 7.653668647301796 18.477590650225736 30
      vertex 0 20 30
    endloop
  endfacet
  facet normal 0 0 -1
    outer loop
      vertex 3.826834323650898 9.238795325112868 0
      vertex 7.0710678118654755 7.0710678118654755 0
      vertex 0 0 0
    endloop
  endfacet
  facet normal 0.39663965676028173 0.5936131960090991 -0.7002145072825532
    outer loop
      vertex 7.0710678118654755 7.0710678118654755 0
      vertex 7.653668647301796 18.477590650225736 10
      vertex 14.142135623730951 14.142135623730951 10
    endloop
  endfacet
  facet normal 0.3966396567602817 0.5936131960090992 -0.7002145072825531
    outer loop
      vertex 7.653668647301796 18.477590650225736 10
      vertex 7.0710678118654755 7.0710678118654755 0
      vertex 3.826834323650898 9.238795325112868 0
    endloop
  endfacet
  facet normal 0.39663965676028173 0.5936131960090991 0.7002145072825532
    outer loop
      vertex 7.653668647301796 18.477590650225736 10
      vertex 7.0710678118654755 7.0710678118654755 20
      vertex 14.142135623730951 14.142135623730951 10
    endloop
  endfacet
  facet normal 0.39663965676028173 0.5936131960090991 0.7002145072825532
    outer loop
      vertex 7.0710678118654755 7.0710678118654755 20
      vertex 7.653668647301796 18.477590650225736 10
      vertex 3.826834323650898 9.238795325112868 20
    endloop
  endfacet
  facet normal 0.39663965676028173 0.5936131960090991 -0.7002145072825532
    outer loop
      vertex 7.0710678118654755 7.0710678118654755 20
      vertex 7.653668647301796 18.477590650225736 30
      vertex 14.142135623730951 14.142135623730951 30
    endloop
  endfacet
  facet normal 0.3966396567602817 0.5936131960090992 -0.7002145072825531
    outer loop
      vertex 7.653668647301796 18.477590650225736 30
      vertex 7.0710678118654755 7.0710678118654755 20
      vertex 3.826834323650898 9.238795325112868 20
    endloop
  endfacet
  facet normal 0 0 1
    outer loop
      vertex 0 0 30
      vertex 14.142135623730951 14.142135623730951 30
      vertex 7.653668647301796 18.477590650225736 30
    endloop
  endfacet
  facet normal 0 0 -1
    outer loop
      vertex 7.0710678118654755 7.0710678118654755 0
      vertex 9.238795325112868 3.8268343236508984 0
      vertex 0 0 0
    endloop
  endfacet
  facet normal 0.5936131960090991 0.39663965676028173 -0.7002145072825532
    outer loop
      vertex 9.238795325112868 3.8268343236508984 0
      vertex 14.142135623730951 14.142135623730951 10
      vertex 18.477590650225736 7.653668647301797 10
    endloop
  endfacet
  facet normal 0.5936131960090992 0.3966396567602818 -0.7002145072825532
    outer loop
      vertex 14.142135623730951 14.142135623730951 10
      vertex 9.238795325112868 3.8268343236508984 0
      vertex 7.0710678118654755 7.0710678118654755 0
    endloop
  endfacet
  facet normal 0.5936131960090992 0.3966396567602818 0.7002145072825532
    outer loop
      vertex 14.142135623730951 14.142135623730951 10
      vertex 9.238795325112868 3.8268343236508984 20
      vertex 18.477590650225736 7.653668647301797 10
    endloop
  endfacet
  facet normal 0.5936131960090992 0.3966396567602818 0.7002145072825532
    outer loop
      vertex 9.238795325112868 3.8268343236508984 20
      vertex 14.142135623730951 14.142135623730951 10
      vertex 7.0710678118654755 7.0710678118654755 20
    endloop
  endfacet
  facet normal 0.5936131960090991 0.39663965676028173 -0.7002145072825532
    outer loop
      vertex 9.238795325112868 3.8268343236508984 20
      vertex 14.142135623730951 14.142135623730951 30
      vertex 18.477590650225736 7.653668647301797 30
    endloop
  endfacet
  facet normal 0.5936131960090992 0.3966396567602818 -0.7002145072825532
    outer loop
      vertex 14.142135623730951 14.142135623730951 30
      vertex 9.238795325112868 3.8268343236508984 20
      vertex 7.0710678118654755 7.0710678118654755 20
    endloop
  endfacet
  facet normal 0 0 1
    outer loop
      vertex 0 0 30
      vertex 18.477590650225736 7.653668647301797 30
      vertex 14.142135623730951 14.142135623730951 30
    endloop
  endfacet
  facet normal 0 0 -1
    outer loop
      vertex 9.238795325112868 3.8268343236508984 0
      vertex 10 0 0
      vertex 0 0 0
    endloop
  endfacet
  facet normal 0.7002145072825531 0.13928132531715334 -0.7002145072825531
    outer loop
      vertex 20 0 10
      vertex 9.238795325112868 3.8268343236508984 0
      vertex 18.477590650225736 7.653668647301797 10
    endloop
  endfacet
  facet normal 0.7002145072825531 0.13928132531715334 -0.7002145072825531
    outer loop
      vertex 9.238795325112868 3.8268343236508984 0
      vertex 20 0 10
      vertex 10 0 0
    endloop
  endfacet
  facet normal 0.7002145072825531 0.13928132531715334 0.7002145072825531
    outer loop
      vertex 20 0 10
      vertex 9.238795325112868 3.8268343236508984 20
      vertex 10 0 20
    endloop
  endfacet
  facet normal 0.7002145072825531 0.13928132531715334 0.7002145072825531
    outer loop
      vertex 9.238795325112868 3.8268343236508984 20
      vertex 20 0 10
      vertex 18.477590650225736 7.653668647301797 10
    endloop
  endfacet
  facet normal 0.7002145072825531 0.13928132531715334 -0.7002145072825531
    outer loop
      vertex 20 0 30
      vertex 9.238795325112868 3.8268343236508984 20
      vertex 18.477590650225736 7.653668647301797 30
    endloop
  endfacet
  facet normal 0.7002145072825531 0.13928132531715334 -0.7002145072825531
    outer loop
      vertex 9.238795325112868 3.8268343236508984 20
      vertex 20 0 30
      vertex 10 0 20
    endloop
  endfacet
  facet normal 0 0 1
    outer loop
      vertex 0 0 30
      vertex 20 0 30
      vertex 18.477590650225736 7.653668647301797 30
    endloop
  endfacet
  facet normal 0 0 -1
    outer loop
      vertex 10 0 0
      vertex 9.238795325112868 -3.826834323650897 0
      vertex 0 0 0
    endloop
  endfacet
  facet normal 0.7002145072825531 -0.1392813253171534 -0.7002145072825531
    outer loop
      vertex 20 0 10
      vertex 9.238795325112868 -3.826834323650897 0
      vertex 10 0 0
    endloop
  endfacet
  facet normal 0.7002145072825531 -0.1392813253171534 -0.7002145072825531
    outer loop
      vertex 9.238795325112868 -3.826834323650897 0
      vertex 20 0 10
      vertex 18.477590650225736 -7.653668647301794 10
    endloop
  endfacet
  facet normal 0.7002145072825531 -0.1392813253171534 0.7002145072825531
    outer loop
      vertex 9.238795325112868 -3.826834323650897 20
      vertex 20 0 10
      vertex 10 0 20
    endloop
  endfacet
  facet normal 0.7002145072825531 -0.1392813253171534 0.7002145072825531
    outer loop
      vertex 20 0 10
      vertex 9.238795325112868 -3.826834323650897 20
      vertex 18.477590650225736 -7.653668647301794 10
    endloop
  endfacet
  facet normal 0.7002145072825531 -0.1392813253171534 -0.7002145072825531
    outer loop
      vertex 20 0 30
      vertex 9.238795325112868 -3.826834323650897 20
      vertex 10 0 20
    endloop
  endfacet
  facet normal 0.7002145072825531 -0.1392813253171534 -0.7002145072825531
    outer loop
      vertex 9.238795325112868 -3.826834323650897 20
      vertex 20 0 30
      vertex 18.477590650225736 -7.653668647301794 30
    endloop
  endfacet
  facet normal 0 0 1
    outer loop
      vertex 0 0 30
      vertex 18.477590650225736 -7.653668647301794 30
      vertex 20 0 30
    endloop
  endfacet
  facet normal 0 0 -1
    outer loop
      vertex 9.238795325112868 -3.826834323650897 0
      vertex 7.0710678118654755 -7.071067811865475 0
      vertex 0 0 0
    endloop
  endfacet
  facet normal 0.5936131960090992 -0.3966396567602818 -0.7002145072825532
    outer loop
      vertex 14.142135623730951 -14.14213562373095 10
      vertex 9.238795325112868 -3.826834323650897 0
      vertex 18.477590650225736 -7.653668647301794 10
    endloop
  endfacet
  facet normal 0.5936131960090992 -0.3966396567602818 -0.7002145072825532
    outer loop
      vertex 9.238795325112868 -3.826834323650897 0
      vertex 14.142135623730951 -14.14213562373095 10
      vertex 7.0710678118654755 -7.071067811865475 0
    endloop
  endfacet
  facet normal 0.5936131960090992 -0.3966396567602818 0.7002145072825532
    outer loop
      vertex 9.238795325112868 -3.826834323650897 20
      vertex 14.142135623730951 -14.14213562373095 10
      vertex 18.477590650225736 -7.653668647301794 10
    endloop
  endfacet
  facet normal 0.5936131960090992 -0.3966396567602818 0.7002145072825531
    outer loop
      vertex 14.142135623730951 -14.14213562373095 10
      vertex 9.238795325112868 -3.826834323650897 20
      vertex 7.0710678118654755 -7.071067811865475 20
    endloop
  endfacet
  facet normal 0.5936131960090992 -0.3966396567602818 -0.7002145072825532
    outer loop
      vertex 14.142135623730951 -14.14213562373095 30
      vertex 9.238795325112868 -3.826834323650897 20
      vertex 18.477590650225736 -7.653668647301794 30
    endloop
  endfacet
  facet normal 0.5936131960090992 -0.3966396567602818 -0.7002145072825532
    outer loop
      vertex 9.238795325112868 -3.826834323650897 20
      vertex 14.142135623730951 -14.14213562373095 30
      vertex 7.0710678118654755 -7.071067811865475 20
    endloop
  endfacet
  facet normal 0 0 1
    outer loop
      vertex 0 0 30
      vertex 14.142135623730951 -14.14213562373095 30
      vertex 18.477590650225736 -7.653668647301794 30
    endloop
  endfacet
  facet normal 0 0 -1
    outer loop
      vertex 7.0710678118654755 -7.071067811865475 0
      vertex 3.826834323650899 -9.238795325112868 0
      vertex 0 0 0
    endloop
  endfacet
  facet normal 0.3966396567602819 -0.5936131960090991 -0.7002145072825531
    outer loop
      vertex 7.653668647301798 -18.477590650225736 10
      vertex 7.0710678118654755 -7.071067811865475 0
      vertex 14.142135623730951 -14.14213562373095 10
    endloop
  endfacet
  facet normal 0.3966396567602819 -0.5936131960090991 -0.7002145072825531
    outer loop
      vertex 7.0710678118654755 -7.071067811865475 0
      vertex 7.653668647301798 -18.477590650225736 10
      vertex 3.826834323650899 -9.238795325112868 0
    endloop
  endfacet
  facet normal 0.3966396567602819 -0.5936131960090991 0.7002145072825532
    outer loop
      vertex 7.0710678118654755 -7.071067811865475 20
      vertex 7.653668647301798 -18.477590650225736 10
      vertex 14.142135623730951 -14.14213562373095 10
    endloop
  endfacet
  facet normal 0.3966396567602818 -0.5936131960090992 0.7002145072825531
    outer loop
      vertex 7.653668647301798 -18.477590650225736 10
      vertex 7.0710678118654755 -7.071067811865475 20
      vertex 3.826834323650899 -9.238795325112868 20
    endloop
  endfacet
  facet normal 0.3966396567602819 -0.5936131960090991 -0.7002145072825531
    outer loop
      vertex 7.653668647301798 -18.477590650225736 30
      vertex 7.0710678118654755 -7.071067811865475 20
      vertex 14.142135623730951 -14.14213562373095 30
    endloop
  endfacet
  facet normal 0.3966396567602819 -0.5936131960090991 -0.7002145072825531
    outer loop
      vertex 7.0710678118654755 -7.071067811865475 20
      vertex 7.653668647301798 -18.477590650225736 30
      vertex 3.826834323650899 -9.238795325112868 20
    endloop
  endfacet
  facet normal 0 0 1
    outer loop
      vertex 0 0 30
      vertex 7.653668647301798 -18.477590650225736 30
      vertex 14.142135623730951 -14.14213562373095 30
    endloop
  endfacet
  facet normal 0 0 -1
    outer loop
      vertex 3.826834323650899 -9.238795325112868 0
      vertex 0 -10 0
      vertex 0 0 0
    endloop
  endfacet
  facet normal 0.13928132531715331 -0.7002145072825531 -0.7002145072825531
    outer loop
      vertex 3.826834323650899 -9.238795325112868 0
      vertex 0 -20 10
      vertex 0 -10 0
    endloop
  endfacet
  facet normal 0.13928132531715331 -0.7002145072825531 -0.7002145072825531
    outer loop
      vertex 0 -20 10
      vertex 3.826834323650899 -9.238795325112868 0
      vertex 7.653668647301798 -18.477590650225736 10
    endloop
  endfacet
  facet normal 0.13928132531715331 -0.7002145072825531 0.7002145072825531
    outer loop
      vertex 0 -20 10
      vertex 3.826834323650899 -9.238795325112868 20
      vertex 0 -10 20
    endloop
  endfacet
  facet normal 0.13928132531715334 -0.7002145072825532 0.7002145072825531
    outer loop
      vertex 3.826834323650899 -9.238795325112868 20
      vertex 0 -20 10
      vertex 7.653668647301798 -18.477590650225736 10
    endloop
  endfacet
  facet normal 0.13928132531715331 -0.7002145072825531 -0.7002145072825531
    outer loop
      vertex 3.826834323650899 -9.238795325112868 20
      vertex 0 -20 30
      vertex 0 -10 20
    endloop
  endfacet
  facet normal 0.13928132531715331 -0.7002145072825531 -0.7002145072825531
    outer loop
      vertex 0 -20 30
      vertex 3.826834323650899 -9.238795325112868 20
      vertex 7.653668647301798 -18.477590650225736 30
    endloop
  endfacet
  facet normal 0 0 1
    outer loop
      vertex 0 0 30
      vertex 0 -20 30
      vertex 7.653668647301798 -18.477590650225736 30
    endloop
  endfacet
  facet normal 0 0 -1
    outer loop
      vertex 0 -10 0
      vertex -3.8268343236508966 -9.238795325112868 0
      vertex 0 0 0
    endloop
  endfacet
  facet normal -0.1392813253171534 -0.7002145072825531 -0.7002145072825531
    outer loop
      vertex -3.8268343236508966 -9.238795325112868 0
      vertex 0 -20 10
      vertex -7.653668647301793 -18.477590650225736 10
    endloop
  endfacet
  facet normal -0.1392813253171534 -0.7002145072825531 -0.7002145072825531
    outer loop
      vertex 0 -20 10
      vertex -3.8268343236508966 -9.238795325112868 0
      vertex 0 -10 0
    endloop
  endfacet
  facet normal -0.1392813253171534 -0.7002145072825531 0.7002145072825531
    outer loop
      vertex 0 -20 10
      vertex -3.8268343236508966 -9.238795325112868 20
      vertex -7.653668647301793 -18.477590650225736 10
    endloop
  endfacet
  facet normal -0.1392813253171534 -0.7002145072825531 0.7002145072825531
    outer loop
      vertex -3.8268343236508966 -9.238795325112868 20
      vertex 0 -20 10
      vertex 0 -10 20
    endloop
  endfacet
  facet normal -0.1392813253171534 -0.7002145072825531 -0.7002145072825531
    outer loop
      vertex -3.8268343236508966 -9.238795325112868 20
      vertex 0 -20 30
      vertex -7.653668647301793 -18.477590650225736 30
    endloop
  endfacet
  facet normal -0.1392813253171534 -0.7002145072825531 -0.7002145072825531
    outer loop
      vertex 0 -20 30
      vertex -3.8268343236508966 -9.238795325112868 20
      vertex 0 -10 20
    endloop
  endfacet
  facet normal 0 0 1
    outer loop
      vertex 0 0 30
      vertex -7.653668647301793 -18.477590650225736 30
      vertex 0 -20 30
    endloop
  endfacet
  facet normal 0 0 -1
    outer loop
      vertex -3.8268343236508966 -9.238795325112868 0
      vertex -7.071067811865475 -7.071067811865477 0
      vertex 0 0 0
    endloop
  endfacet
  facet normal -0.39663965676028146 -0.5936131960090995 -0.7002145072825531
    outer loop
      vertex -7.653668647301793 -18.477590650225736 10
      vertex -7.071067811865475 -7.071067811865477 0
      vertex -3.8268343236508966 -9.238795325112868 0
    endloop
  endfacet
  facet normal -0.3966396567602815 -0.5936131960090993 -0.7002145072825531
    outer loop
      vertex -7.071067811865475 -7.071067811865477 0
      vertex -7.653668647301793 -18.477590650225736 10
      vertex -14.14213562373095 -14.142135623730955 10
    endloop
  endfacet
  facet normal -0.39663965676028146 -0.5936131960090993 0.7002145072825532
    outer loop
      vertex -7.071067811865475 -7.071067811865477 20
      vertex -7.653668647301793 -18.477590650225736 10
      vertex -3.8268343236508966 -9.238795325112868 20
    endloop
  endfacet
  facet normal -0.39663965676028146 -0.5936131960090993 0.7002145072825532
    outer loop
      vertex -7.653668647301793 -18.477590650225736 10
      vertex -7.071067811865475 -7.071067811865477 20
      vertex -14.14213562373095 -14.142135623730955 10
    endloop
  endfacet
  facet normal -0.39663965676028146 -0.5936131960090995 -0.7002145072825531
    outer loop
      vertex -7.653668647301793 -18.477590650225736 30
      vertex -7.071067811865475 -7.071067811865477 20
      vertex -3.8268343236508966 -9.238795325112868 20
    endloop
  endfacet
  facet normal -0.3966396567602815 -0.5936131960090993 -0.7002145072825531
    outer loop
      vertex -7.071067811865475 -7.071067811865477 20
      vertex -7.653668647301793 -18.477590650225736 30
      vertex -14.14213562373095 -14.142135623730955 30
    endloop
  endfacet
  facet normal 0 0 1
    outer loop
      vertex 0 0 30
      vertex -14.14213562373095 -14.142135623730955 30
      vertex -7.653668647301793 -18.477590650225736 30
    endloop
  endfacet
  facet normal 0 0 -1
    outer loop
      vertex -7.071067811865475 -7.071067811865477 0
      vertex -9.238795325112864 -3.8268343236509033 0
      vertex 0 0 0
    endloop
  endfacet
  facet normal -0.5936131960090992 -0.3966396567602816 -0.7002145072825532
    outer loop
      vertex -14.14213562373095 -14.142135623730955 10
      vertex -9.238795325112864 -3.8268343236509033 0
      vertex -7.071067811865475 -7.071067811865477 0
    endloop
  endfacet
  facet normal -0.5936131960090992 -0.3966396567602816 -0.7002145072825531
    outer loop
      vertex -9.238795325112864 -3.8268343236509033 0
      vertex -14.14213562373095 -14.142135623730955 10
      vertex -18.47759065022573 -7.6536686473018065 10
    endloop
  endfacet
  facet normal -0.5936131960090992 -0.3966396567602816 0.7002145072825532
    outer loop
      vertex -9.238795325112864 -3.8268343236509033 20
      vertex -14.14213562373095 -14.142135623730955 10
      vertex -7.071067811865475 -7.071067811865477 20
    endloop
  endfacet
  facet normal -0.5936131960090992 -0.3966396567602816 0.7002145072825532
    outer loop
      vertex -14.14213562373095 -14.142135623730955 10
      vertex -9.238795325112864 -3.8268343236509033 20
      vertex -18.47759065022573 -7.6536686473018065 10
    endloop
  endfacet
  facet normal -0.5936131960090992 -0.3966396567602816 -0.7002145072825532
    outer loop
      vertex -14.14213562373095 -14.142135623730955 30
      vertex -9.238795325112864 -3.8268343236509033 20
      vertex -7.071067811865475 -7.071067811865477 20
    endloop
  endfacet
  facet normal -0.5936131960090992 -0.3966396567602816 -0.7002145072825531
    outer loop
      vertex -9.238795325112864 -3.8268343236509033 20
      vertex -14.14213562373095 -14.142135623730955 30
      vertex -18.47759065022573 -7.6536686473018065 30
    endloop
  endfacet
  facet normal 0 0 1
    outer loop
      vertex 0 0 30
      vertex -18.47759065022573 -7.6536686473018065 30
      vertex -14.14213562373095 -14.142135623730955 30
    endloop
  endfacet
  facet normal 0 0 -1
    outer loop
      vertex -9.238795325112864 -3.8268343236509033 0
      vertex -10 0 0
      vertex 0 0 0
    endloop
  endfacet
  facet normal -0.7002145072825531 -0.13928132531715381 -0.7002145072825531
    outer loop
      vertex -9.238795325112864 -3.8268343236509033 0
      vertex -20 0 10
      vertex -10 0 0
    endloop
  endfacet
  facet normal -0.7002145072825531 -0.13928132531715381 -0.7002145072825531
    outer loop
      vertex -20 0 10
      vertex -9.238795325112864 -3.8268343236509033 0
      vertex -18.47759065022573 -7.6536686473018065 10
    endloop
  endfacet
  facet normal -0.7002145072825531 -0.13928132531715393 0.7002145072825531
    outer loop
      vertex -20 0 10
      vertex -9.238795325112864 -3.8268343236509033 20
      vertex -10 0 20
    endloop
  endfacet
  facet normal -0.7002145072825531 -0.13928132531715393 0.7002145072825531
    outer loop
      vertex -9.238795325112864 -3.8268343236509033 20
      vertex -20 0 10
      vertex -18.47759065022573 -7.6536686473018065 10
    endloop
  endfacet
  facet normal -0.7002145072825531 -0.13928132531715381 -0.7002145072825531
    outer loop
      vertex -9.238795325112864 -3.8268343236509033 20
      vertex -20 0 30
      vertex -10 0 20
    endloop
  endfacet
  facet normal -0.7002145072825531 -0.13928132531715381 -0.7002145072825531
    outer loop
      vertex -20 0 30
      vertex -9.238795325112864 -3.8268343236509033 20
      vertex -18.47759065022573 -7.6536686473018065 30
    endloop
  endfacet
  facet normal 0 0 1
    outer loop
      vertex 0 0 30
      vertex -20 0 30
      vertex -18.47759065022573 -7.6536686473018065 30
    endloop
  endfacet
  facet normal 0 0 -1
    outer loop
      vertex -10 0 0
      vertex -9.238795325112866 3.8268343236509 0
      vertex 0 0 0
    endloop
  endfacet
  facet normal -0.7002145072825531 0.13928132531715354 -0.7002145072825531
    outer loop
      vertex -20 0 10
      vertex -9.238795325112866 3.8268343236509 0
      vertex -10 0 0
    endloop
  endfacet
  facet normal -0.7002145072825532 0.13928132531715354 -0.7002145072825531
    outer loop
      vertex -9.238795325112866 3.8268343236509 0
      vertex -20 0 10
      vertex -18.477590650225732 7.6536686473018 10
    endloop
  endfacet
  facet normal -0.7002145072825531 0.1392813253171536 0.7002145072825531
    outer loop
      vertex -20 0 10
      vertex -9.238795325112866 3.8268343236509 20
      vertex -18.477590650225732 7.6536686473018 10
    endloop
  endfacet
  facet normal -0.7002145072825531 0.1392813253171536 0.7002145072825531
    outer loop
      vertex -9.238795325112866 3.8268343236509 20
      vertex -20 0 10
      vertex -10 0 20
    endloop
  endfacet
  facet normal -0.7002145072825531 0.13928132531715354 -0.7002145072825531
    outer loop
      vertex -20 0 30
      vertex -9.238795325112866 3.8268343236509 20
      vertex -10 0 20
    endloop
  endfacet
  facet normal -0.7002145072825532 0.13928132531715354 -0.7002145072825531
    outer loop
      vertex -9.238795325112866 3.8268343236509 20
      vertex -20 0 30
      vertex -18.477590650225732 7.6536686473018 30
    endloop
  endfacet
  facet normal 0 0 1
    outer loop
      vertex 0 0 30
      vertex -18.477590650225732 7.6536686473018 30
      vertex -20 0 30
    endloop
  endfacet
  facet normal 0 0 -1
    outer loop
      vertex -9.238795325112866 3.8268343236509 0
      vertex -7.071067811865477 7.071067811865474 0
      vertex 0 0 0
    endloop
  endfacet
  facet normal -0.5936131960090993 0.3966396567602816 -0.7002145072825532
    outer loop
      vertex -9.238795325112866 3.8268343236509 0
      vertex -14.142135623730955 14.142135623730947 10
      vertex -7.071067811865477 7.071067811865474 0
    endloop
  endfacet
  facet normal -0.5936131960090993 0.3966396567602816 -0.7002145072825532
    outer loop
      vertex -14.142135623730955 14.142135623730947 10
      vertex -9.238795325112866 3.8268343236509 0
      vertex -18.477590650225732 7.6536686473018 10
    endloop
  endfacet
  facet normal -0.5936131960090995 0.39663965676028146 0.7002145072825532
    outer loop
      vertex -14.142135623730955 14.142135623730947 10
      vertex -9.238795325112866 3.8268343236509 20
      vertex -7.071067811865477 7.071067811865474 20
    endloop
  endfacet
  facet normal -0.5936131960090995 0.3966396567602816 0.7002145072825531
    outer loop
      vertex -9.238795325112866 3.8268343236509 20
      vertex -14.142135623730955 14.142135623730947 10
      vertex -18.477590650225732 7.6536686473018 10
    endloop
  endfacet
  facet normal -0.5936131960090993 0.3966396567602816 -0.7002145072825532
    outer loop
      vertex -9.238795325112866 3.8268343236509 20
      vertex -14.142135623730955 14.142135623730947 30
      vertex -7.071067811865477 7.071067811865474 20
    endloop
  endfacet
  facet normal -0.5936131960090993 0.3966396567602816 -0.7002145072825532
    outer loop
      vertex -14.142135623730955 14.142135623730947 30
      vertex -9.238795325112866 3.8268343236509 20
      vertex -18.477590650225732 7.6536686473018 30
    endloop
  endfacet
  facet normal 0 0 1
    outer loop
      vertex 0 0 30
      vertex -14.142135623730955 14.142135623730947 30
      vertex -18.477590650225732 7.6536686473018 30
    endloop
  endfacet
  facet normal 0 0 -1
    outer loop
      vertex -7.071067811865477 7.071067811865474 0
      vertex -3.826834323650904 9.238795325112864 0
      vertex 0 0 0
    endloop
  endfacet
  facet normal -0.3966396567602819 0.5936131960090991 -0.7002145072825532
    outer loop
      vertex -7.071067811865477 7.071067811865474 0
      vertex -7.653668647301808 18.47759065022573 10
      vertex -3.826834323650904 9.238795325112864 0
    endloop
  endfacet
  facet normal -0.3966396567602819 0.5936131960090991 -0.7002145072825532
    outer loop
      vertex -7.653668647301808 18.47759065022573 10
      vertex -7.071067811865477 7.071067811865474 0
      vertex -14.142135623730955 14.142135623730947 10
    endloop
  endfacet
  facet normal -0.396639656760282 0.5936131960090991 0.7002145072825532
    outer loop
      vertex -7.653668647301808 18.47759065022573 10
      vertex -7.071067811865477 7.071067811865474 20
      vertex -3.826834323650904 9.238795325112864 20
    endloop
  endfacet
  facet normal -0.39663965676028184 0.5936131960090991 0.7002145072825532
    outer loop
      vertex -7.071067811865477 7.071067811865474 20
      vertex -7.653668647301808 18.47759065022573 10
      vertex -14.142135623730955 14.142135623730947 10
    endloop
  endfacet
  facet normal -0.3966396567602819 0.5936131960090991 -0.7002145072825532
    outer loop
      vertex -7.071067811865477 7.071067811865474 20
      vertex -7.653668647301808 18.47759065022573 30
      vertex -3.826834323650904 9.238795325112864 20
    endloop
  endfacet
  facet normal -0.3966396567602819 0.5936131960090991 -0.7002145072825532
    outer loop
      vertex -7.653668647301808 18.47759065022573 30
      vertex -7.071067811865477 7.071067811865474 20
      vertex -14.142135623730955 14.142135623730947 30
    endloop
  endfacet
  facet normal 0 0 1
    outer loop
      vertex 0 0 30
      vertex -7.653668647301808 18.47759065022573 30
      vertex -14.142135623730955 14.142135623730947 30
    endloop
  endfacet
  facet normal 0 0 -1
    outer loop
      vertex -3.826834323650904 9.238795325112864 0
      vertex 0 10 0
      vertex 0 0 0
    endloop
  endfacet
  facet normal -0.1392813253171538 0.7002145072825531 -0.7002145072825531
    outer loop
      vertex -3.826834323650904 9.238795325112864 0
      vertex 0 20 10
      vertex 0 10 0
    endloop
  endfacet
  facet normal -0.1392813253171538 0.7002145072825531 -0.7002145072825531
    outer loop
      vertex 0 20 10
      vertex -3.826834323650904 9.238795325112864 0
      vertex -7.653668647301808 18.47759065022573 10
    endloop
  endfacet
  facet normal -0.13928132531715393 0.7002145072825531 0.7002145072825531
    outer loop
      vertex 0 20 10
      vertex -3.826834323650904 9.238795325112864 20
      vertex 0 10 20
    endloop
  endfacet
  facet normal -0.13928132531715393 0.7002145072825531 0.7002145072825531
    outer loop
      vertex -3.826834323650904 9.238795325112864 20
      vertex 0 20 10
      vertex -7.653668647301808 18.47759065022573 10
    endloop
  endfacet
  facet normal -0.1392813253171538 0.7002145072825531 -0.7002145072825531
    outer loop
      vertex -3.826834323650904 9.238795325112864 20
      vertex 0 20 30
      vertex 0 10 20
    endloop
  endfacet
  facet normal -0.1392813253171538 0.7002145072825531 -0.7002145072825531
    outer loop
      vertex 0 20 30
      vertex -3.826834323650904 9.238795325112864 20
      vertex -7.653668647301808 18.47759065022573 30
    endloop
  endfacet
  facet normal 0 0 1
    outer loop
      vertex 0 0 30
      vertex 0 20 30
      vertex -7.653668647301808 18.47759065022573 30
    endloop
  endfacet
endsolid OpenSCAD_Model
