<?xml version="1.0" encoding="UTF-8" standalone="no"?>
<!DOCTYPE svg PUBLIC "-//W3C//DTD SVG 1.1//EN"
 "http://www.w3.org/Graphics/SVG/1.1/DTD/svg11.dtd">
<!-- Generated by graphviz version 5.0.0 (20220707.1540)
 -->
<!-- Title: default Pages: 1 -->
<svg width="586pt" height="962pt"
 viewBox="0.00 0.00 585.57 962.00" xmlns="http://www.w3.org/2000/svg" xmlns:xlink="http://www.w3.org/1999/xlink">
<g id="graph0" class="graph" transform="scale(1 1) rotate(0) translate(4 958)">
<title>default</title>
<polygon fill="white" stroke="transparent" points="-4,4 -4,-958 581.57,-958 581.57,4 -4,4"/>
<!-- root_1 -->
<g id="node1" class="node">
<title>root_1</title>
<g id="a_node1"><a xlink:href="javascript:s=&quot;\(\)\nNone&quot;; console.log(s); alert(s);" xlink:title="root">
<ellipse fill="none" stroke="black" cx="27" cy="-544" rx="27" ry="18"/>
<text text-anchor="middle" x="27" y="-540.3" font-family="Times New Roman,serif" font-size="14.00">root</text>
</a>
</g>
</g>
<!-- default_2 -->
<g id="node2" class="node">
<title>default_2</title>
<g id="a_node2"><a xlink:href="javascript:s=&quot;\(&#x27;default&#x27;,\)\nPolyConical&quot;; console.log(s); alert(s);" xlink:title="PolyConical">
<ellipse fill="none" stroke="black" cx="161.49" cy="-773" rx="35.19" ry="18"/>
<text text-anchor="middle" x="161.49" y="-769.3" font-family="Times New Roman,serif" font-size="14.00">default</text>
</a>
</g>
</g>
<!-- root_1&#45;&gt;default_2 -->
<g id="edge1" class="edge">
<title>root_1&#45;&gt;default_2</title>
<path fill="none" stroke="black" d="M34.7,-561.64C45.01,-588.01 66.12,-638.89 90,-679 104.84,-703.93 124.95,-730.17 139.89,-748.57"/>
<polygon fill="black" stroke="black" points="137.3,-750.94 146.36,-756.44 142.71,-746.49 137.3,-750.94"/>
</g>
<!-- 4 -->
<g id="node4" class="node">
<title>4</title>
<g id="a_node4"><a xlink:href="javascript:s=&quot;\(&quot;&#x27;base&#x27;,\ &quot;,\)\nAnnotatedCoordinates&quot;; console.log(s); alert(s);" xlink:title="AnnotatedCoordinates">
<ellipse fill="none" stroke="black" cx="161.49" cy="-652" rx="36.29" ry="18"/>
<text text-anchor="middle" x="161.49" y="-648.3" font-family="Times New Roman,serif" font-size="14.00">&#39;base&#39;, </text>
</a>
</g>
</g>
<!-- root_1&#45;&gt;4 -->
<g id="edge3" class="edge">
<title>root_1&#45;&gt;4</title>
<path fill="none" stroke="black" d="M44.78,-557.68C67.25,-575.99 107.34,-608.68 133.93,-630.35"/>
<polygon fill="black" stroke="black" points="131.75,-633.09 141.72,-636.69 136.18,-627.66 131.75,-633.09"/>
</g>
<!-- 20 -->
<g id="node20" class="node">
<title>20</title>
<g id="a_node20"><a xlink:href="javascript:s=&quot;\(&quot;&#x27;top&#x27;,\ &quot;,\)\nAnnotatedCoordinates&quot;; console.log(s); alert(s);" xlink:title="AnnotatedCoordinates">
<ellipse fill="none" stroke="black" cx="161.49" cy="-436" rx="31.7" ry="18"/>
<text text-anchor="middle" x="161.49" y="-432.3" font-family="Times New Roman,serif" font-size="14.00">&#39;top&#39;, </text>
</a>
</g>
</g>
<!-- root_1&#45;&gt;20 -->
<g id="edge19" class="edge">
<title>root_1&#45;&gt;20</title>
<path fill="none" stroke="black" d="M44.78,-530.32C67.5,-511.8 108.25,-478.59 134.82,-456.92"/>
<polygon fill="black" stroke="black" points="137.04,-459.63 142.58,-450.6 132.62,-454.21 137.04,-459.63"/>
</g>
<!-- 36 -->
<g id="node36" class="node">
<title>36</title>
<g id="a_node36"><a xlink:href="javascript:s=&quot;\(&quot;&#x27;surface&#x27;,\ 2,\ 0\.5,\ &quot;,\)\nAnnotatedCoordinates&quot;; console.log(s); alert(s);" xlink:title="AnnotatedCoordinates">
<ellipse fill="none" stroke="black" cx="161.49" cy="-153" rx="71.49" ry="18"/>
<text text-anchor="middle" x="161.49" y="-149.3" font-family="Times New Roman,serif" font-size="14.00">&#39;surface&#39;, 2, 0.5, </text>
</a>
</g>
</g>
<!-- root_1&#45;&gt;36 -->
<g id="edge35" class="edge">
<title>root_1&#45;&gt;36</title>
<path fill="none" stroke="black" d="M33.95,-526.44C54.92,-464.56 125.48,-256.32 151.1,-180.72"/>
<polygon fill="black" stroke="black" points="154.51,-181.55 154.41,-170.96 147.88,-179.31 154.51,-181.55"/>
</g>
<!-- poly_cone_3 -->
<g id="node3" class="node">
<title>poly_cone_3</title>
<g id="a_node3"><a xlink:href="javascript:s=&quot;\(&#x27;default&#x27;,\ &#x27;poly_cone&#x27;\)\nRotateExtrude&quot;; console.log(s); alert(s);" xlink:title="RotateExtrude">
<ellipse fill="none" stroke="black" cx="318.38" cy="-841" rx="49.29" ry="18"/>
<text text-anchor="middle" x="318.38" y="-837.3" font-family="Times New Roman,serif" font-size="14.00">poly_cone</text>
</a>
</g>
</g>
<!-- default_2&#45;&gt;poly_cone_3 -->
<g id="edge2" class="edge">
<title>default_2&#45;&gt;poly_cone_3</title>
<path fill="none" stroke="black" d="M188.77,-784.54C212.86,-795.11 248.9,-810.93 276.71,-823.14"/>
<polygon fill="black" stroke="black" points="275.6,-826.48 286.17,-827.3 278.42,-820.07 275.6,-826.48"/>
</g>
<!-- coords_5 -->
<g id="node5" class="node">
<title>coords_5</title>
<g id="a_node5"><a xlink:href="javascript:s=&quot;\(&quot;&#x27;base&#x27;,\ &quot;,\ &#x27;coords&#x27;\)\nCoordinates&quot;; console.log(s); alert(s);" xlink:title="Coordinates">
<ellipse fill="none" stroke="black" cx="318.38" cy="-787" rx="36.29" ry="18"/>
<text text-anchor="middle" x="318.38" y="-783.3" font-family="Times New Roman,serif" font-size="14.00">coords</text>
</a>
</g>
</g>
<!-- 4&#45;&gt;coords_5 -->
<g id="edge4" class="edge">
<title>4&#45;&gt;coords_5</title>
<path fill="none" stroke="black" d="M176.39,-668.82C195.6,-691.41 232.11,-731.93 268.99,-760 273.39,-763.35 278.26,-766.56 283.15,-769.52"/>
<polygon fill="black" stroke="black" points="281.5,-772.61 291.92,-774.56 284.99,-766.54 281.5,-772.61"/>
</g>
<!-- x_16 -->
<g id="node16" class="node">
<title>x_16</title>
<g id="a_node16"><a xlink:href="javascript:s=&quot;\(&quot;&#x27;base&#x27;,\ &quot;,\ &#x27;x&#x27;\)\nText&quot;; console.log(s); alert(s);" xlink:title="Text">
<ellipse fill="none" stroke="black" cx="318.38" cy="-733" rx="27" ry="18"/>
<text text-anchor="middle" x="318.38" y="-729.3" font-family="Times New Roman,serif" font-size="14.00">x</text>
</a>
</g>
</g>
<!-- 4&#45;&gt;x_16 -->
<g id="edge15" class="edge">
<title>4&#45;&gt;x_16</title>
<path fill="none" stroke="black" d="M187.04,-664.83C214.28,-679.08 258.27,-702.09 287.5,-717.37"/>
<polygon fill="black" stroke="black" points="285.95,-720.51 296.43,-722.04 289.19,-714.31 285.95,-720.51"/>
</g>
<!-- y_17 -->
<g id="node17" class="node">
<title>y_17</title>
<g id="a_node17"><a xlink:href="javascript:s=&quot;\(&quot;&#x27;base&#x27;,\ &quot;,\ &#x27;y&#x27;\)\nText&quot;; console.log(s); alert(s);" xlink:title="Text">
<ellipse fill="none" stroke="black" cx="318.38" cy="-679" rx="27" ry="18"/>
<text text-anchor="middle" x="318.38" y="-675.3" font-family="Times New Roman,serif" font-size="14.00">y</text>
</a>
</g>
</g>
<!-- 4&#45;&gt;y_17 -->
<g id="edge16" class="edge">
<title>4&#45;&gt;y_17</title>
<path fill="none" stroke="black" d="M196.1,-657.86C221.44,-662.28 256.11,-668.32 281.89,-672.81"/>
<polygon fill="black" stroke="black" points="281.54,-676.31 292,-674.57 282.75,-669.41 281.54,-676.31"/>
</g>
<!-- z_18 -->
<g id="node18" class="node">
<title>z_18</title>
<g id="a_node18"><a xlink:href="javascript:s=&quot;\(&quot;&#x27;base&#x27;,\ &quot;,\ &#x27;z&#x27;\)\nText&quot;; console.log(s); alert(s);" xlink:title="Text">
<ellipse fill="none" stroke="black" cx="318.38" cy="-625" rx="27" ry="18"/>
<text text-anchor="middle" x="318.38" y="-621.3" font-family="Times New Roman,serif" font-size="14.00">z</text>
</a>
</g>
</g>
<!-- 4&#45;&gt;z_18 -->
<g id="edge17" class="edge">
<title>4&#45;&gt;z_18</title>
<path fill="none" stroke="black" d="M196.1,-646.14C221.44,-641.72 256.11,-635.68 281.89,-631.19"/>
<polygon fill="black" stroke="black" points="282.75,-634.59 292,-629.43 281.54,-627.69 282.75,-634.59"/>
</g>
<!-- label_19 -->
<g id="node19" class="node">
<title>label_19</title>
<g id="a_node19"><a xlink:href="javascript:s=&quot;\(&quot;&#x27;base&#x27;,\ &quot;,\ &#x27;label&#x27;\)\nText&quot;; console.log(s); alert(s);" xlink:title="Text">
<ellipse fill="none" stroke="black" cx="318.38" cy="-571" rx="27.1" ry="18"/>
<text text-anchor="middle" x="318.38" y="-567.3" font-family="Times New Roman,serif" font-size="14.00">label</text>
</a>
</g>
</g>
<!-- 4&#45;&gt;label_19 -->
<g id="edge18" class="edge">
<title>4&#45;&gt;label_19</title>
<path fill="none" stroke="black" d="M187.04,-639.17C214.28,-624.92 258.27,-601.91 287.5,-586.63"/>
<polygon fill="black" stroke="black" points="289.19,-589.69 296.43,-581.96 285.95,-583.49 289.19,-589.69"/>
</g>
<!-- origin_6 -->
<g id="node6" class="node">
<title>origin_6</title>
<g id="a_node6"><a xlink:href="javascript:s=&quot;\(&quot;&#x27;base&#x27;,\ &quot;,\ &#x27;coords&#x27;,\ &#x27;origin&#x27;\)\nCoordinatesCage&quot;; console.log(s); alert(s);" xlink:title="CoordinatesCage">
<ellipse fill="none" stroke="black" cx="444.72" cy="-922" rx="31.4" ry="18"/>
<text text-anchor="middle" x="444.72" y="-918.3" font-family="Times New Roman,serif" font-size="14.00">origin</text>
</a>
</g>
</g>
<!-- coords_5&#45;&gt;origin_6 -->
<g id="edge5" class="edge">
<title>coords_5&#45;&gt;origin_6</title>
<path fill="none" stroke="black" d="M346.93,-798.41C354.4,-802.49 362,-807.68 367.78,-814 394.34,-843.09 378.48,-864.8 403.78,-895 406.5,-898.25 409.71,-901.27 413.1,-904.02"/>
<polygon fill="black" stroke="black" points="411.08,-906.88 421.22,-909.95 415.21,-901.23 411.08,-906.88"/>
</g>
<!-- x_arrow_7 -->
<g id="node7" class="node">
<title>x_arrow_7</title>
<g id="a_node7"><a xlink:href="javascript:s=&quot;\(&quot;&#x27;base&#x27;,\ &quot;,\ &#x27;coords&#x27;,\ &#x27;x_arrow&#x27;\)\nArrow&quot;; console.log(s); alert(s);" xlink:title="Arrow">
<ellipse fill="none" stroke="black" cx="444.72" cy="-868" rx="40.89" ry="18"/>
<text text-anchor="middle" x="444.72" y="-864.3" font-family="Times New Roman,serif" font-size="14.00">x_arrow</text>
</a>
</g>
</g>
<!-- coords_5&#45;&gt;x_arrow_7 -->
<g id="edge6" class="edge">
<title>coords_5&#45;&gt;x_arrow_7</title>
<path fill="none" stroke="black" d="M343.81,-799.95C351.58,-804.25 360.13,-809.17 367.78,-814 383.75,-824.09 400.95,-836.21 414.94,-846.41"/>
<polygon fill="black" stroke="black" points="413.06,-849.37 423.19,-852.48 417.21,-843.73 413.06,-849.37"/>
</g>
<!-- y_arrow_10 -->
<g id="node10" class="node">
<title>y_arrow_10</title>
<g id="a_node10"><a xlink:href="javascript:s=&quot;\(&quot;&#x27;base&#x27;,\ &quot;,\ &#x27;coords&#x27;,\ &#x27;y_arrow&#x27;\)\nArrow&quot;; console.log(s); alert(s);" xlink:title="Arrow">
<ellipse fill="none" stroke="black" cx="444.72" cy="-787" rx="40.89" ry="18"/>
<text text-anchor="middle" x="444.72" y="-783.3" font-family="Times New Roman,serif" font-size="14.00">y_arrow</text>
</a>
</g>
</g>
<!-- coords_5&#45;&gt;y_arrow_10 -->
<g id="edge9" class="edge">
<title>coords_5&#45;&gt;y_arrow_10</title>
<path fill="none" stroke="black" d="M355.01,-787C367.02,-787 380.65,-787 393.56,-787"/>
<polygon fill="black" stroke="black" points="393.72,-790.5 403.72,-787 393.72,-783.5 393.72,-790.5"/>
</g>
<!-- z_arrow_13 -->
<g id="node13" class="node">
<title>z_arrow_13</title>
<g id="a_node13"><a xlink:href="javascript:s=&quot;\(&quot;&#x27;base&#x27;,\ &quot;,\ &#x27;coords&#x27;,\ &#x27;z_arrow&#x27;\)\nArrow&quot;; console.log(s); alert(s);" xlink:title="Arrow">
<ellipse fill="none" stroke="black" cx="444.72" cy="-720" rx="40.09" ry="18"/>
<text text-anchor="middle" x="444.72" y="-716.3" font-family="Times New Roman,serif" font-size="14.00">z_arrow</text>
</a>
</g>
</g>
<!-- coords_5&#45;&gt;z_arrow_13 -->
<g id="edge12" class="edge">
<title>coords_5&#45;&gt;z_arrow_13</title>
<path fill="none" stroke="black" d="M343.65,-773.92C362.37,-763.84 388.49,-749.76 409.36,-738.52"/>
<polygon fill="black" stroke="black" points="411.09,-741.56 418.23,-733.74 407.77,-735.4 411.09,-741.56"/>
</g>
<!-- stem_8 -->
<g id="node8" class="node">
<title>stem_8</title>
<g id="a_node8"><a xlink:href="javascript:s=&quot;\(&quot;&#x27;base&#x27;,\ &quot;,\ &#x27;coords&#x27;,\ &#x27;x_arrow&#x27;,\ &#x27;stem&#x27;\)\nCone&quot;; console.log(s); alert(s);" xlink:title="Cone">
<ellipse fill="none" stroke="black" cx="549.62" cy="-936" rx="27.9" ry="18"/>
<text text-anchor="middle" x="549.62" y="-932.3" font-family="Times New Roman,serif" font-size="14.00">stem</text>
</a>
</g>
</g>
<!-- x_arrow_7&#45;&gt;stem_8 -->
<g id="edge7" class="edge">
<title>x_arrow_7&#45;&gt;stem_8</title>
<path fill="none" stroke="black" d="M468.31,-882.92C483.78,-893.15 504.4,-906.78 520.88,-917.67"/>
<polygon fill="black" stroke="black" points="519.27,-920.8 529.54,-923.39 523.13,-914.96 519.27,-920.8"/>
</g>
<!-- head_9 -->
<g id="node9" class="node">
<title>head_9</title>
<g id="a_node9"><a xlink:href="javascript:s=&quot;\(&quot;&#x27;base&#x27;,\ &quot;,\ &#x27;coords&#x27;,\ &#x27;x_arrow&#x27;,\ &#x27;head&#x27;\)\nCone&quot;; console.log(s); alert(s);" xlink:title="Cone">
<ellipse fill="none" stroke="black" cx="549.62" cy="-882" rx="27.9" ry="18"/>
<text text-anchor="middle" x="549.62" y="-878.3" font-family="Times New Roman,serif" font-size="14.00">head</text>
</a>
</g>
</g>
<!-- x_arrow_7&#45;&gt;head_9 -->
<g id="edge8" class="edge">
<title>x_arrow_7&#45;&gt;head_9</title>
<path fill="none" stroke="black" d="M484.04,-873.21C493.25,-874.47 503.07,-875.8 512.2,-877.04"/>
<polygon fill="black" stroke="black" points="511.76,-880.52 522.14,-878.4 512.71,-873.58 511.76,-880.52"/>
</g>
<!-- stem_11 -->
<g id="node11" class="node">
<title>stem_11</title>
<g id="a_node11"><a xlink:href="javascript:s=&quot;\(&quot;&#x27;base&#x27;,\ &quot;,\ &#x27;coords&#x27;,\ &#x27;y_arrow&#x27;,\ &#x27;stem&#x27;\)\nCone&quot;; console.log(s); alert(s);" xlink:title="Cone">
<ellipse fill="none" stroke="black" cx="549.62" cy="-828" rx="27.9" ry="18"/>
<text text-anchor="middle" x="549.62" y="-824.3" font-family="Times New Roman,serif" font-size="14.00">stem</text>
</a>
</g>
</g>
<!-- y_arrow_10&#45;&gt;stem_11 -->
<g id="edge10" class="edge">
<title>y_arrow_10&#45;&gt;stem_11</title>
<path fill="none" stroke="black" d="M475.76,-798.97C488.34,-803.98 502.99,-809.82 515.84,-814.94"/>
<polygon fill="black" stroke="black" points="514.67,-818.24 525.25,-818.69 517.26,-811.74 514.67,-818.24"/>
</g>
<!-- head_12 -->
<g id="node12" class="node">
<title>head_12</title>
<g id="a_node12"><a xlink:href="javascript:s=&quot;\(&quot;&#x27;base&#x27;,\ &quot;,\ &#x27;coords&#x27;,\ &#x27;y_arrow&#x27;,\ &#x27;head&#x27;\)\nCone&quot;; console.log(s); alert(s);" xlink:title="Cone">
<ellipse fill="none" stroke="black" cx="549.62" cy="-774" rx="27.9" ry="18"/>
<text text-anchor="middle" x="549.62" y="-770.3" font-family="Times New Roman,serif" font-size="14.00">head</text>
</a>
</g>
</g>
<!-- y_arrow_10&#45;&gt;head_12 -->
<g id="edge11" class="edge">
<title>y_arrow_10&#45;&gt;head_12</title>
<path fill="none" stroke="black" d="M484.33,-782.12C493.35,-780.98 502.93,-779.77 511.86,-778.64"/>
<polygon fill="black" stroke="black" points="512.5,-782.09 521.98,-777.37 511.62,-775.15 512.5,-782.09"/>
</g>
<!-- stem_14 -->
<g id="node14" class="node">
<title>stem_14</title>
<g id="a_node14"><a xlink:href="javascript:s=&quot;\(&quot;&#x27;base&#x27;,\ &quot;,\ &#x27;coords&#x27;,\ &#x27;z_arrow&#x27;,\ &#x27;stem&#x27;\)\nCone&quot;; console.log(s); alert(s);" xlink:title="Cone">
<ellipse fill="none" stroke="black" cx="549.62" cy="-720" rx="27.9" ry="18"/>
<text text-anchor="middle" x="549.62" y="-716.3" font-family="Times New Roman,serif" font-size="14.00">stem</text>
</a>
</g>
</g>
<!-- z_arrow_13&#45;&gt;stem_14 -->
<g id="edge13" class="edge">
<title>z_arrow_13&#45;&gt;stem_14</title>
<path fill="none" stroke="black" d="M485.21,-720C493.83,-720 502.93,-720 511.46,-720"/>
<polygon fill="black" stroke="black" points="511.51,-723.5 521.51,-720 511.51,-716.5 511.51,-723.5"/>
</g>
<!-- head_15 -->
<g id="node15" class="node">
<title>head_15</title>
<g id="a_node15"><a xlink:href="javascript:s=&quot;\(&quot;&#x27;base&#x27;,\ &quot;,\ &#x27;coords&#x27;,\ &#x27;z_arrow&#x27;,\ &#x27;head&#x27;\)\nCone&quot;; console.log(s); alert(s);" xlink:title="Cone">
<ellipse fill="none" stroke="black" cx="549.62" cy="-666" rx="27.9" ry="18"/>
<text text-anchor="middle" x="549.62" y="-662.3" font-family="Times New Roman,serif" font-size="14.00">head</text>
</a>
</g>
</g>
<!-- z_arrow_13&#45;&gt;head_15 -->
<g id="edge14" class="edge">
<title>z_arrow_13&#45;&gt;head_15</title>
<path fill="none" stroke="black" d="M471.42,-706.51C485.72,-699.01 503.59,-689.63 518.53,-681.79"/>
<polygon fill="black" stroke="black" points="520.17,-684.88 527.4,-677.14 516.92,-678.68 520.17,-684.88"/>
</g>
<!-- coords_21 -->
<g id="node21" class="node">
<title>coords_21</title>
<g id="a_node21"><a xlink:href="javascript:s=&quot;\(&quot;&#x27;top&#x27;,\ &quot;,\ &#x27;coords&#x27;\)\nCoordinates&quot;; console.log(s); alert(s);" xlink:title="Coordinates">
<ellipse fill="none" stroke="black" cx="318.38" cy="-517" rx="36.29" ry="18"/>
<text text-anchor="middle" x="318.38" y="-513.3" font-family="Times New Roman,serif" font-size="14.00">coords</text>
</a>
</g>
</g>
<!-- 20&#45;&gt;coords_21 -->
<g id="edge20" class="edge">
<title>20&#45;&gt;coords_21</title>
<path fill="none" stroke="black" d="M185.35,-447.95C211.24,-461.49 253.7,-483.7 283.46,-499.26"/>
<polygon fill="black" stroke="black" points="282.16,-502.53 292.64,-504.06 285.4,-496.32 282.16,-502.53"/>
</g>
<!-- x_32 -->
<g id="node32" class="node">
<title>x_32</title>
<g id="a_node32"><a xlink:href="javascript:s=&quot;\(&quot;&#x27;top&#x27;,\ &quot;,\ &#x27;x&#x27;\)\nText&quot;; console.log(s); alert(s);" xlink:title="Text">
<ellipse fill="none" stroke="black" cx="318.38" cy="-463" rx="27" ry="18"/>
<text text-anchor="middle" x="318.38" y="-459.3" font-family="Times New Roman,serif" font-size="14.00">x</text>
</a>
</g>
</g>
<!-- 20&#45;&gt;x_32 -->
<g id="edge31" class="edge">
<title>20&#45;&gt;x_32</title>
<path fill="none" stroke="black" d="M192.36,-441.21C217.93,-445.66 254.79,-452.09 281.87,-456.81"/>
<polygon fill="black" stroke="black" points="281.27,-460.26 291.72,-458.53 282.47,-453.36 281.27,-460.26"/>
</g>
<!-- y_33 -->
<g id="node33" class="node">
<title>y_33</title>
<g id="a_node33"><a xlink:href="javascript:s=&quot;\(&quot;&#x27;top&#x27;,\ &quot;,\ &#x27;y&#x27;\)\nText&quot;; console.log(s); alert(s);" xlink:title="Text">
<ellipse fill="none" stroke="black" cx="318.38" cy="-409" rx="27" ry="18"/>
<text text-anchor="middle" x="318.38" y="-405.3" font-family="Times New Roman,serif" font-size="14.00">y</text>
</a>
</g>
</g>
<!-- 20&#45;&gt;y_33 -->
<g id="edge32" class="edge">
<title>20&#45;&gt;y_33</title>
<path fill="none" stroke="black" d="M192.36,-430.79C217.93,-426.34 254.79,-419.91 281.87,-415.19"/>
<polygon fill="black" stroke="black" points="282.47,-418.64 291.72,-413.47 281.27,-411.74 282.47,-418.64"/>
</g>
<!-- z_34 -->
<g id="node34" class="node">
<title>z_34</title>
<g id="a_node34"><a xlink:href="javascript:s=&quot;\(&quot;&#x27;top&#x27;,\ &quot;,\ &#x27;z&#x27;\)\nText&quot;; console.log(s); alert(s);" xlink:title="Text">
<ellipse fill="none" stroke="black" cx="318.38" cy="-355" rx="27" ry="18"/>
<text text-anchor="middle" x="318.38" y="-351.3" font-family="Times New Roman,serif" font-size="14.00">z</text>
</a>
</g>
</g>
<!-- 20&#45;&gt;z_34 -->
<g id="edge33" class="edge">
<title>20&#45;&gt;z_34</title>
<path fill="none" stroke="black" d="M185.35,-424.05C212.38,-409.91 257.47,-386.33 287.31,-370.73"/>
<polygon fill="black" stroke="black" points="289.18,-373.7 296.42,-365.96 285.94,-367.49 289.18,-373.7"/>
</g>
<!-- label_35 -->
<g id="node35" class="node">
<title>label_35</title>
<g id="a_node35"><a xlink:href="javascript:s=&quot;\(&quot;&#x27;top&#x27;,\ &quot;,\ &#x27;label&#x27;\)\nText&quot;; console.log(s); alert(s);" xlink:title="Text">
<ellipse fill="none" stroke="black" cx="318.38" cy="-301" rx="27.1" ry="18"/>
<text text-anchor="middle" x="318.38" y="-297.3" font-family="Times New Roman,serif" font-size="14.00">label</text>
</a>
</g>
</g>
<!-- 20&#45;&gt;label_35 -->
<g id="edge34" class="edge">
<title>20&#45;&gt;label_35</title>
<path fill="none" stroke="black" d="M176.06,-419.56C195.19,-397.05 231.9,-356.23 268.99,-328 274.54,-323.77 280.84,-319.77 287,-316.21"/>
<polygon fill="black" stroke="black" points="288.79,-319.22 295.85,-311.33 285.4,-313.09 288.79,-319.22"/>
</g>
<!-- origin_22 -->
<g id="node22" class="node">
<title>origin_22</title>
<g id="a_node22"><a xlink:href="javascript:s=&quot;\(&quot;&#x27;top&#x27;,\ &quot;,\ &#x27;coords&#x27;,\ &#x27;origin&#x27;\)\nCoordinatesCage&quot;; console.log(s); alert(s);" xlink:title="CoordinatesCage">
<ellipse fill="none" stroke="black" cx="444.72" cy="-612" rx="31.4" ry="18"/>
<text text-anchor="middle" x="444.72" y="-608.3" font-family="Times New Roman,serif" font-size="14.00">origin</text>
</a>
</g>
</g>
<!-- coords_21&#45;&gt;origin_22 -->
<g id="edge21" class="edge">
<title>coords_21&#45;&gt;origin_22</title>
<path fill="none" stroke="black" d="M345.29,-529.33C352.88,-533.5 360.97,-538.5 367.78,-544 386.64,-559.24 385.58,-568.97 403.78,-585 407.03,-587.86 410.6,-590.67 414.22,-593.33"/>
<polygon fill="black" stroke="black" points="412.46,-596.37 422.66,-599.22 416.46,-590.63 412.46,-596.37"/>
</g>
<!-- x_arrow_23 -->
<g id="node23" class="node">
<title>x_arrow_23</title>
<g id="a_node23"><a xlink:href="javascript:s=&quot;\(&quot;&#x27;top&#x27;,\ &quot;,\ &#x27;coords&#x27;,\ &#x27;x_arrow&#x27;\)\nArrow&quot;; console.log(s); alert(s);" xlink:title="Arrow">
<ellipse fill="none" stroke="black" cx="444.72" cy="-558" rx="40.89" ry="18"/>
<text text-anchor="middle" x="444.72" y="-554.3" font-family="Times New Roman,serif" font-size="14.00">x_arrow</text>
</a>
</g>
</g>
<!-- coords_21&#45;&gt;x_arrow_23 -->
<g id="edge22" class="edge">
<title>coords_21&#45;&gt;x_arrow_23</title>
<path fill="none" stroke="black" d="M349.17,-526.82C364.9,-532.01 384.48,-538.46 401.73,-544.15"/>
<polygon fill="black" stroke="black" points="400.98,-547.59 411.57,-547.4 403.17,-540.94 400.98,-547.59"/>
</g>
<!-- y_arrow_26 -->
<g id="node26" class="node">
<title>y_arrow_26</title>
<g id="a_node26"><a xlink:href="javascript:s=&quot;\(&quot;&#x27;top&#x27;,\ &quot;,\ &#x27;coords&#x27;,\ &#x27;y_arrow&#x27;\)\nArrow&quot;; console.log(s); alert(s);" xlink:title="Arrow">
<ellipse fill="none" stroke="black" cx="444.72" cy="-504" rx="40.89" ry="18"/>
<text text-anchor="middle" x="444.72" y="-500.3" font-family="Times New Roman,serif" font-size="14.00">y_arrow</text>
</a>
</g>
</g>
<!-- coords_21&#45;&gt;y_arrow_26 -->
<g id="edge25" class="edge">
<title>coords_21&#45;&gt;y_arrow_26</title>
<path fill="none" stroke="black" d="M354.35,-513.34C366.83,-512.04 381.13,-510.54 394.58,-509.14"/>
<polygon fill="black" stroke="black" points="395.07,-512.61 404.65,-508.09 394.34,-505.64 395.07,-512.61"/>
</g>
<!-- z_arrow_29 -->
<g id="node29" class="node">
<title>z_arrow_29</title>
<g id="a_node29"><a xlink:href="javascript:s=&quot;\(&quot;&#x27;top&#x27;,\ &quot;,\ &#x27;coords&#x27;,\ &#x27;z_arrow&#x27;\)\nArrow&quot;; console.log(s); alert(s);" xlink:title="Arrow">
<ellipse fill="none" stroke="black" cx="444.72" cy="-396" rx="40.09" ry="18"/>
<text text-anchor="middle" x="444.72" y="-392.3" font-family="Times New Roman,serif" font-size="14.00">z_arrow</text>
</a>
</g>
</g>
<!-- coords_21&#45;&gt;z_arrow_29 -->
<g id="edge28" class="edge">
<title>coords_21&#45;&gt;z_arrow_29</title>
<path fill="none" stroke="black" d="M345.44,-504.84C353.03,-500.68 361.08,-495.64 367.78,-490 391.4,-470.1 412.97,-442 427.03,-421.72"/>
<polygon fill="black" stroke="black" points="430.04,-423.51 432.77,-413.28 424.25,-419.58 430.04,-423.51"/>
</g>
<!-- stem_24 -->
<g id="node24" class="node">
<title>stem_24</title>
<g id="a_node24"><a xlink:href="javascript:s=&quot;\(&quot;&#x27;top&#x27;,\ &quot;,\ &#x27;coords&#x27;,\ &#x27;x_arrow&#x27;,\ &#x27;stem&#x27;\)\nCone&quot;; console.log(s); alert(s);" xlink:title="Cone">
<ellipse fill="none" stroke="black" cx="549.62" cy="-612" rx="27.9" ry="18"/>
<text text-anchor="middle" x="549.62" y="-608.3" font-family="Times New Roman,serif" font-size="14.00">stem</text>
</a>
</g>
</g>
<!-- x_arrow_23&#45;&gt;stem_24 -->
<g id="edge23" class="edge">
<title>x_arrow_23&#45;&gt;stem_24</title>
<path fill="none" stroke="black" d="M471.69,-571.63C485.85,-579.06 503.46,-588.3 518.26,-596.07"/>
<polygon fill="black" stroke="black" points="517.03,-599.37 527.51,-600.92 520.28,-593.18 517.03,-599.37"/>
</g>
<!-- head_25 -->
<g id="node25" class="node">
<title>head_25</title>
<g id="a_node25"><a xlink:href="javascript:s=&quot;\(&quot;&#x27;top&#x27;,\ &quot;,\ &#x27;coords&#x27;,\ &#x27;x_arrow&#x27;,\ &#x27;head&#x27;\)\nCone&quot;; console.log(s); alert(s);" xlink:title="Cone">
<ellipse fill="none" stroke="black" cx="549.62" cy="-558" rx="27.9" ry="18"/>
<text text-anchor="middle" x="549.62" y="-554.3" font-family="Times New Roman,serif" font-size="14.00">head</text>
</a>
</g>
</g>
<!-- x_arrow_23&#45;&gt;head_25 -->
<g id="edge24" class="edge">
<title>x_arrow_23&#45;&gt;head_25</title>
<path fill="none" stroke="black" d="M485.8,-558C494.21,-558 503.05,-558 511.35,-558"/>
<polygon fill="black" stroke="black" points="511.51,-561.5 521.51,-558 511.51,-554.5 511.51,-561.5"/>
</g>
<!-- stem_27 -->
<g id="node27" class="node">
<title>stem_27</title>
<g id="a_node27"><a xlink:href="javascript:s=&quot;\(&quot;&#x27;top&#x27;,\ &quot;,\ &#x27;coords&#x27;,\ &#x27;y_arrow&#x27;,\ &#x27;stem&#x27;\)\nCone&quot;; console.log(s); alert(s);" xlink:title="Cone">
<ellipse fill="none" stroke="black" cx="549.62" cy="-504" rx="27.9" ry="18"/>
<text text-anchor="middle" x="549.62" y="-500.3" font-family="Times New Roman,serif" font-size="14.00">stem</text>
</a>
</g>
</g>
<!-- y_arrow_26&#45;&gt;stem_27 -->
<g id="edge26" class="edge">
<title>y_arrow_26&#45;&gt;stem_27</title>
<path fill="none" stroke="black" d="M485.8,-504C494.21,-504 503.05,-504 511.35,-504"/>
<polygon fill="black" stroke="black" points="511.51,-507.5 521.51,-504 511.51,-500.5 511.51,-507.5"/>
</g>
<!-- head_28 -->
<g id="node28" class="node">
<title>head_28</title>
<g id="a_node28"><a xlink:href="javascript:s=&quot;\(&quot;&#x27;top&#x27;,\ &quot;,\ &#x27;coords&#x27;,\ &#x27;y_arrow&#x27;,\ &#x27;head&#x27;\)\nCone&quot;; console.log(s); alert(s);" xlink:title="Cone">
<ellipse fill="none" stroke="black" cx="549.62" cy="-450" rx="27.9" ry="18"/>
<text text-anchor="middle" x="549.62" y="-446.3" font-family="Times New Roman,serif" font-size="14.00">head</text>
</a>
</g>
</g>
<!-- y_arrow_26&#45;&gt;head_28 -->
<g id="edge27" class="edge">
<title>y_arrow_26&#45;&gt;head_28</title>
<path fill="none" stroke="black" d="M471.69,-490.37C485.85,-482.94 503.46,-473.7 518.26,-465.93"/>
<polygon fill="black" stroke="black" points="520.28,-468.82 527.51,-461.08 517.03,-462.63 520.28,-468.82"/>
</g>
<!-- stem_30 -->
<g id="node30" class="node">
<title>stem_30</title>
<g id="a_node30"><a xlink:href="javascript:s=&quot;\(&quot;&#x27;top&#x27;,\ &quot;,\ &#x27;coords&#x27;,\ &#x27;z_arrow&#x27;,\ &#x27;stem&#x27;\)\nCone&quot;; console.log(s); alert(s);" xlink:title="Cone">
<ellipse fill="none" stroke="black" cx="549.62" cy="-396" rx="27.9" ry="18"/>
<text text-anchor="middle" x="549.62" y="-392.3" font-family="Times New Roman,serif" font-size="14.00">stem</text>
</a>
</g>
</g>
<!-- z_arrow_29&#45;&gt;stem_30 -->
<g id="edge29" class="edge">
<title>z_arrow_29&#45;&gt;stem_30</title>
<path fill="none" stroke="black" d="M485.21,-396C493.83,-396 502.93,-396 511.46,-396"/>
<polygon fill="black" stroke="black" points="511.51,-399.5 521.51,-396 511.51,-392.5 511.51,-399.5"/>
</g>
<!-- head_31 -->
<g id="node31" class="node">
<title>head_31</title>
<g id="a_node31"><a xlink:href="javascript:s=&quot;\(&quot;&#x27;top&#x27;,\ &quot;,\ &#x27;coords&#x27;,\ &#x27;z_arrow&#x27;,\ &#x27;head&#x27;\)\nCone&quot;; console.log(s); alert(s);" xlink:title="Cone">
<ellipse fill="none" stroke="black" cx="549.62" cy="-342" rx="27.9" ry="18"/>
<text text-anchor="middle" x="549.62" y="-338.3" font-family="Times New Roman,serif" font-size="14.00">head</text>
</a>
</g>
</g>
<!-- z_arrow_29&#45;&gt;head_31 -->
<g id="edge30" class="edge">
<title>z_arrow_29&#45;&gt;head_31</title>
<path fill="none" stroke="black" d="M471.42,-382.51C485.72,-375.01 503.59,-365.63 518.53,-357.79"/>
<polygon fill="black" stroke="black" points="520.17,-360.88 527.4,-353.14 516.92,-354.68 520.17,-360.88"/>
</g>
<!-- coords_37 -->
<g id="node37" class="node">
<title>coords_37</title>
<g id="a_node37"><a xlink:href="javascript:s=&quot;\(&quot;&#x27;surface&#x27;,\ 2,\ 0\.5,\ &quot;,\ &#x27;coords&#x27;\)\nCoordinates&quot;; console.log(s); alert(s);" xlink:title="Coordinates">
<ellipse fill="none" stroke="black" cx="318.38" cy="-234" rx="36.29" ry="18"/>
<text text-anchor="middle" x="318.38" y="-230.3" font-family="Times New Roman,serif" font-size="14.00">coords</text>
</a>
</g>
</g>
<!-- 36&#45;&gt;coords_37 -->
<g id="edge36" class="edge">
<title>36&#45;&gt;coords_37</title>
<path fill="none" stroke="black" d="M193.47,-169.2C219.53,-182.83 256.73,-202.28 283.56,-216.31"/>
<polygon fill="black" stroke="black" points="282.1,-219.5 292.58,-221.03 285.35,-213.3 282.1,-219.5"/>
</g>
<!-- x_48 -->
<g id="node48" class="node">
<title>x_48</title>
<g id="a_node48"><a xlink:href="javascript:s=&quot;\(&quot;&#x27;surface&#x27;,\ 2,\ 0\.5,\ &quot;,\ &#x27;x&#x27;\)\nText&quot;; console.log(s); alert(s);" xlink:title="Text">
<ellipse fill="none" stroke="black" cx="318.38" cy="-180" rx="27" ry="18"/>
<text text-anchor="middle" x="318.38" y="-176.3" font-family="Times New Roman,serif" font-size="14.00">x</text>
</a>
</g>
</g>
<!-- 36&#45;&gt;x_48 -->
<g id="edge47" class="edge">
<title>36&#45;&gt;x_48</title>
<path fill="none" stroke="black" d="M220.61,-163.13C241.23,-166.72 263.8,-170.66 281.95,-173.82"/>
<polygon fill="black" stroke="black" points="281.36,-177.27 291.81,-175.54 282.56,-170.38 281.36,-177.27"/>
</g>
<!-- y_49 -->
<g id="node49" class="node">
<title>y_49</title>
<g id="a_node49"><a xlink:href="javascript:s=&quot;\(&quot;&#x27;surface&#x27;,\ 2,\ 0\.5,\ &quot;,\ &#x27;y&#x27;\)\nText&quot;; console.log(s); alert(s);" xlink:title="Text">
<ellipse fill="none" stroke="black" cx="318.38" cy="-126" rx="27" ry="18"/>
<text text-anchor="middle" x="318.38" y="-122.3" font-family="Times New Roman,serif" font-size="14.00">y</text>
</a>
</g>
</g>
<!-- 36&#45;&gt;y_49 -->
<g id="edge48" class="edge">
<title>36&#45;&gt;y_49</title>
<path fill="none" stroke="black" d="M220.61,-142.87C241.23,-139.28 263.8,-135.34 281.95,-132.18"/>
<polygon fill="black" stroke="black" points="282.56,-135.62 291.81,-130.46 281.36,-128.73 282.56,-135.62"/>
</g>
<!-- z_50 -->
<g id="node50" class="node">
<title>z_50</title>
<g id="a_node50"><a xlink:href="javascript:s=&quot;\(&quot;&#x27;surface&#x27;,\ 2,\ 0\.5,\ &quot;,\ &#x27;z&#x27;\)\nText&quot;; console.log(s); alert(s);" xlink:title="Text">
<ellipse fill="none" stroke="black" cx="318.38" cy="-72" rx="27" ry="18"/>
<text text-anchor="middle" x="318.38" y="-68.3" font-family="Times New Roman,serif" font-size="14.00">z</text>
</a>
</g>
</g>
<!-- 36&#45;&gt;z_50 -->
<g id="edge49" class="edge">
<title>36&#45;&gt;z_50</title>
<path fill="none" stroke="black" d="M193.47,-136.8C220.79,-122.51 260.36,-101.82 287.39,-87.69"/>
<polygon fill="black" stroke="black" points="289.14,-90.72 296.38,-82.98 285.9,-84.51 289.14,-90.72"/>
</g>
<!-- label_51 -->
<g id="node51" class="node">
<title>label_51</title>
<g id="a_node51"><a xlink:href="javascript:s=&quot;\(&quot;&#x27;surface&#x27;,\ 2,\ 0\.5,\ &quot;,\ &#x27;label&#x27;\)\nText&quot;; console.log(s); alert(s);" xlink:title="Text">
<ellipse fill="none" stroke="black" cx="318.38" cy="-18" rx="27.1" ry="18"/>
<text text-anchor="middle" x="318.38" y="-14.3" font-family="Times New Roman,serif" font-size="14.00">label</text>
</a>
</g>
</g>
<!-- 36&#45;&gt;label_51 -->
<g id="edge50" class="edge">
<title>36&#45;&gt;label_51</title>
<path fill="none" stroke="black" d="M177.05,-135.4C196.43,-112.67 232.53,-72.75 268.99,-45 274.54,-40.77 280.84,-36.77 287,-33.21"/>
<polygon fill="black" stroke="black" points="288.79,-36.22 295.85,-28.33 285.4,-30.09 288.79,-36.22"/>
</g>
<!-- origin_38 -->
<g id="node38" class="node">
<title>origin_38</title>
<g id="a_node38"><a xlink:href="javascript:s=&quot;\(&quot;&#x27;surface&#x27;,\ 2,\ 0\.5,\ &quot;,\ &#x27;coords&#x27;,\ &#x27;origin&#x27;\)\nCoordinatesCage&quot;; console.log(s); alert(s);" xlink:title="CoordinatesCage">
<ellipse fill="none" stroke="black" cx="444.72" cy="-288" rx="31.4" ry="18"/>
<text text-anchor="middle" x="444.72" y="-284.3" font-family="Times New Roman,serif" font-size="14.00">origin</text>
</a>
</g>
</g>
<!-- coords_37&#45;&gt;origin_38 -->
<g id="edge37" class="edge">
<title>coords_37&#45;&gt;origin_38</title>
<path fill="none" stroke="black" d="M346.36,-245.72C365.02,-253.82 389.99,-264.66 409.97,-273.34"/>
<polygon fill="black" stroke="black" points="408.76,-276.63 419.33,-277.4 411.55,-270.21 408.76,-276.63"/>
</g>
<!-- x_arrow_39 -->
<g id="node39" class="node">
<title>x_arrow_39</title>
<g id="a_node39"><a xlink:href="javascript:s=&quot;\(&quot;&#x27;surface&#x27;,\ 2,\ 0\.5,\ &quot;,\ &#x27;coords&#x27;,\ &#x27;x_arrow&#x27;\)\nArrow&quot;; console.log(s); alert(s);" xlink:title="Arrow">
<ellipse fill="none" stroke="black" cx="444.72" cy="-234" rx="40.89" ry="18"/>
<text text-anchor="middle" x="444.72" y="-230.3" font-family="Times New Roman,serif" font-size="14.00">x_arrow</text>
</a>
</g>
</g>
<!-- coords_37&#45;&gt;x_arrow_39 -->
<g id="edge38" class="edge">
<title>coords_37&#45;&gt;x_arrow_39</title>
<path fill="none" stroke="black" d="M355.01,-234C367.02,-234 380.65,-234 393.56,-234"/>
<polygon fill="black" stroke="black" points="393.72,-237.5 403.72,-234 393.72,-230.5 393.72,-237.5"/>
</g>
<!-- y_arrow_42 -->
<g id="node42" class="node">
<title>y_arrow_42</title>
<g id="a_node42"><a xlink:href="javascript:s=&quot;\(&quot;&#x27;surface&#x27;,\ 2,\ 0\.5,\ &quot;,\ &#x27;coords&#x27;,\ &#x27;y_arrow&#x27;\)\nArrow&quot;; console.log(s); alert(s);" xlink:title="Arrow">
<ellipse fill="none" stroke="black" cx="444.72" cy="-180" rx="40.89" ry="18"/>
<text text-anchor="middle" x="444.72" y="-176.3" font-family="Times New Roman,serif" font-size="14.00">y_arrow</text>
</a>
</g>
</g>
<!-- coords_37&#45;&gt;y_arrow_42 -->
<g id="edge41" class="edge">
<title>coords_37&#45;&gt;y_arrow_42</title>
<path fill="none" stroke="black" d="M346.36,-222.28C363.72,-214.75 386.52,-204.84 405.7,-196.51"/>
<polygon fill="black" stroke="black" points="407.29,-199.64 415.07,-192.45 404.5,-193.22 407.29,-199.64"/>
</g>
<!-- z_arrow_45 -->
<g id="node45" class="node">
<title>z_arrow_45</title>
<g id="a_node45"><a xlink:href="javascript:s=&quot;\(&quot;&#x27;surface&#x27;,\ 2,\ 0\.5,\ &quot;,\ &#x27;coords&#x27;,\ &#x27;z_arrow&#x27;\)\nArrow&quot;; console.log(s); alert(s);" xlink:title="Arrow">
<ellipse fill="none" stroke="black" cx="444.72" cy="-72" rx="40.09" ry="18"/>
<text text-anchor="middle" x="444.72" y="-68.3" font-family="Times New Roman,serif" font-size="14.00">z_arrow</text>
</a>
</g>
</g>
<!-- coords_37&#45;&gt;z_arrow_45 -->
<g id="edge44" class="edge">
<title>coords_37&#45;&gt;z_arrow_45</title>
<path fill="none" stroke="black" d="M346.3,-222.37C353.84,-218.26 361.64,-213.11 367.78,-207 384.49,-190.34 413.98,-133.08 430.88,-98.71"/>
<polygon fill="black" stroke="black" points="434.05,-100.2 435.29,-89.68 427.76,-97.13 434.05,-100.2"/>
</g>
<!-- stem_40 -->
<g id="node40" class="node">
<title>stem_40</title>
<g id="a_node40"><a xlink:href="javascript:s=&quot;\(&quot;&#x27;surface&#x27;,\ 2,\ 0\.5,\ &quot;,\ &#x27;coords&#x27;,\ &#x27;x_arrow&#x27;,\ &#x27;stem&#x27;\)\nCone&quot;; console.log(s); alert(s);" xlink:title="Cone">
<ellipse fill="none" stroke="black" cx="549.62" cy="-288" rx="27.9" ry="18"/>
<text text-anchor="middle" x="549.62" y="-284.3" font-family="Times New Roman,serif" font-size="14.00">stem</text>
</a>
</g>
</g>
<!-- x_arrow_39&#45;&gt;stem_40 -->
<g id="edge39" class="edge">
<title>x_arrow_39&#45;&gt;stem_40</title>
<path fill="none" stroke="black" d="M471.69,-247.63C485.85,-255.06 503.46,-264.3 518.26,-272.07"/>
<polygon fill="black" stroke="black" points="517.03,-275.37 527.51,-276.92 520.28,-269.18 517.03,-275.37"/>
</g>
<!-- head_41 -->
<g id="node41" class="node">
<title>head_41</title>
<g id="a_node41"><a xlink:href="javascript:s=&quot;\(&quot;&#x27;surface&#x27;,\ 2,\ 0\.5,\ &quot;,\ &#x27;coords&#x27;,\ &#x27;x_arrow&#x27;,\ &#x27;head&#x27;\)\nCone&quot;; console.log(s); alert(s);" xlink:title="Cone">
<ellipse fill="none" stroke="black" cx="549.62" cy="-234" rx="27.9" ry="18"/>
<text text-anchor="middle" x="549.62" y="-230.3" font-family="Times New Roman,serif" font-size="14.00">head</text>
</a>
</g>
</g>
<!-- x_arrow_39&#45;&gt;head_41 -->
<g id="edge40" class="edge">
<title>x_arrow_39&#45;&gt;head_41</title>
<path fill="none" stroke="black" d="M485.8,-234C494.21,-234 503.05,-234 511.35,-234"/>
<polygon fill="black" stroke="black" points="511.51,-237.5 521.51,-234 511.51,-230.5 511.51,-237.5"/>
</g>
<!-- stem_43 -->
<g id="node43" class="node">
<title>stem_43</title>
<g id="a_node43"><a xlink:href="javascript:s=&quot;\(&quot;&#x27;surface&#x27;,\ 2,\ 0\.5,\ &quot;,\ &#x27;coords&#x27;,\ &#x27;y_arrow&#x27;,\ &#x27;stem&#x27;\)\nCone&quot;; console.log(s); alert(s);" xlink:title="Cone">
<ellipse fill="none" stroke="black" cx="549.62" cy="-180" rx="27.9" ry="18"/>
<text text-anchor="middle" x="549.62" y="-176.3" font-family="Times New Roman,serif" font-size="14.00">stem</text>
</a>
</g>
</g>
<!-- y_arrow_42&#45;&gt;stem_43 -->
<g id="edge42" class="edge">
<title>y_arrow_42&#45;&gt;stem_43</title>
<path fill="none" stroke="black" d="M485.8,-180C494.21,-180 503.05,-180 511.35,-180"/>
<polygon fill="black" stroke="black" points="511.51,-183.5 521.51,-180 511.51,-176.5 511.51,-183.5"/>
</g>
<!-- head_44 -->
<g id="node44" class="node">
<title>head_44</title>
<g id="a_node44"><a xlink:href="javascript:s=&quot;\(&quot;&#x27;surface&#x27;,\ 2,\ 0\.5,\ &quot;,\ &#x27;coords&#x27;,\ &#x27;y_arrow&#x27;,\ &#x27;head&#x27;\)\nCone&quot;; console.log(s); alert(s);" xlink:title="Cone">
<ellipse fill="none" stroke="black" cx="549.62" cy="-126" rx="27.9" ry="18"/>
<text text-anchor="middle" x="549.62" y="-122.3" font-family="Times New Roman,serif" font-size="14.00">head</text>
</a>
</g>
</g>
<!-- y_arrow_42&#45;&gt;head_44 -->
<g id="edge43" class="edge">
<title>y_arrow_42&#45;&gt;head_44</title>
<path fill="none" stroke="black" d="M471.69,-166.37C485.85,-158.94 503.46,-149.7 518.26,-141.93"/>
<polygon fill="black" stroke="black" points="520.28,-144.82 527.51,-137.08 517.03,-138.63 520.28,-144.82"/>
</g>
<!-- stem_46 -->
<g id="node46" class="node">
<title>stem_46</title>
<g id="a_node46"><a xlink:href="javascript:s=&quot;\(&quot;&#x27;surface&#x27;,\ 2,\ 0\.5,\ &quot;,\ &#x27;coords&#x27;,\ &#x27;z_arrow&#x27;,\ &#x27;stem&#x27;\)\nCone&quot;; console.log(s); alert(s);" xlink:title="Cone">
<ellipse fill="none" stroke="black" cx="549.62" cy="-72" rx="27.9" ry="18"/>
<text text-anchor="middle" x="549.62" y="-68.3" font-family="Times New Roman,serif" font-size="14.00">stem</text>
</a>
</g>
</g>
<!-- z_arrow_45&#45;&gt;stem_46 -->
<g id="edge45" class="edge">
<title>z_arrow_45&#45;&gt;stem_46</title>
<path fill="none" stroke="black" d="M485.21,-72C493.83,-72 502.93,-72 511.46,-72"/>
<polygon fill="black" stroke="black" points="511.51,-75.5 521.51,-72 511.51,-68.5 511.51,-75.5"/>
</g>
<!-- head_47 -->
<g id="node47" class="node">
<title>head_47</title>
<g id="a_node47"><a xlink:href="javascript:s=&quot;\(&quot;&#x27;surface&#x27;,\ 2,\ 0\.5,\ &quot;,\ &#x27;coords&#x27;,\ &#x27;z_arrow&#x27;,\ &#x27;head&#x27;\)\nCone&quot;; console.log(s); alert(s);" xlink:title="Cone">
<ellipse fill="none" stroke="black" cx="549.62" cy="-18" rx="27.9" ry="18"/>
<text text-anchor="middle" x="549.62" y="-14.3" font-family="Times New Roman,serif" font-size="14.00">head</text>
</a>
</g>
</g>
<!-- z_arrow_45&#45;&gt;head_47 -->
<g id="edge46" class="edge">
<title>z_arrow_45&#45;&gt;head_47</title>
<path fill="none" stroke="black" d="M471.42,-58.51C485.72,-51.01 503.59,-41.63 518.53,-33.79"/>
<polygon fill="black" stroke="black" points="520.17,-36.88 527.4,-29.14 516.92,-30.68 520.17,-36.88"/>
</g>
</g>
</svg>
