<?xml version="1.0" encoding="UTF-8" standalone="no"?>
<!DOCTYPE svg PUBLIC "-//W3C//DTD SVG 1.1//EN"
 "http://www.w3.org/Graphics/SVG/1.1/DTD/svg11.dtd">
<!-- Generated by graphviz version 5.0.0 (20220707.1540)
 -->
<!-- Title: default Pages: 1 -->
<svg width="259pt" height="98pt"
 viewBox="0.00 0.00 258.79 98.00" xmlns="http://www.w3.org/2000/svg" xmlns:xlink="http://www.w3.org/1999/xlink">
<g id="graph0" class="graph" transform="scale(1 1) rotate(0) translate(4 94)">
<title>default</title>
<polygon fill="white" stroke="transparent" points="-4,4 -4,-94 254.79,-94 254.79,4 -4,4"/>
<!-- root_1275 -->
<g id="node1" class="node">
<title>root_1275</title>
<g id="a_node1"><a xlink:href="javascript:s=&quot;\(\)\nNone&quot;; console.log(s); alert(s);" xlink:title="root">
<ellipse fill="none" stroke="black" cx="27" cy="-45" rx="27" ry="18"/>
<text text-anchor="middle" x="27" y="-41.3" font-family="Times New Roman,serif" font-size="14.00">root</text>
</a>
</g>
</g>
<!-- default_1276 -->
<g id="node2" class="node">
<title>default_1276</title>
<g id="a_node2"><a xlink:href="javascript:s=&quot;\(&#x27;default&#x27;,\)\nBendySlit&quot;; console.log(s); alert(s);" xlink:title="BendySlit">
<ellipse fill="none" stroke="black" cx="125.1" cy="-45" rx="35.19" ry="18"/>
<text text-anchor="middle" x="125.1" y="-41.3" font-family="Times New Roman,serif" font-size="14.00">default</text>
</a>
</g>
</g>
<!-- root_1275&#45;&gt;default_1276 -->
<g id="edge1" class="edge">
<title>root_1275&#45;&gt;default_1276</title>
<path fill="none" stroke="black" d="M54.01,-45C61.92,-45 70.84,-45 79.61,-45"/>
<polygon fill="black" stroke="black" points="79.76,-48.5 89.76,-45 79.76,-41.5 79.76,-48.5"/>
</g>
<!-- cage_1277 -->
<g id="node3" class="node">
<title>cage_1277</title>
<g id="a_node3"><a xlink:href="javascript:s=&quot;\(&#x27;default&#x27;,\ &#x27;cage&#x27;\)\nBox&quot;; console.log(s); alert(s);" xlink:title="Box">
<ellipse fill="none" stroke="black" cx="223.49" cy="-72" rx="27.1" ry="18"/>
<text text-anchor="middle" x="223.49" y="-68.3" font-family="Times New Roman,serif" font-size="14.00">cage</text>
</a>
</g>
</g>
<!-- default_1276&#45;&gt;cage_1277 -->
<g id="edge2" class="edge">
<title>default_1276&#45;&gt;cage_1277</title>
<path fill="none" stroke="black" d="M156.33,-53.47C166.54,-56.33 178.01,-59.54 188.49,-62.48"/>
<polygon fill="black" stroke="black" points="187.59,-65.86 198.16,-65.19 189.48,-59.12 187.59,-65.86"/>
</g>
<!-- slit_1278 -->
<g id="node4" class="node">
<title>slit_1278</title>
<g id="a_node4"><a xlink:href="javascript:s=&quot;\(&#x27;default&#x27;,\ &#x27;slit&#x27;\)\nLinearExtrude&quot;; console.log(s); alert(s);" xlink:title="LinearExtrude">
<ellipse fill="none" stroke="black" cx="223.49" cy="-18" rx="27" ry="18"/>
<text text-anchor="middle" x="223.49" y="-14.3" font-family="Times New Roman,serif" font-size="14.00">slit</text>
</a>
</g>
</g>
<!-- default_1276&#45;&gt;slit_1278 -->
<g id="edge3" class="edge">
<title>default_1276&#45;&gt;slit_1278</title>
<path fill="none" stroke="black" d="M156.33,-36.53C166.54,-33.67 178.01,-30.46 188.49,-27.52"/>
<polygon fill="black" stroke="black" points="189.48,-30.88 198.16,-24.81 187.59,-24.14 189.48,-30.88"/>
</g>
</g>
</svg>
