<?xml version="1.0" encoding="UTF-8" standalone="no"?>
<!DOCTYPE svg PUBLIC "-//W3C//DTD SVG 1.1//EN"
 "http://www.w3.org/Graphics/SVG/1.1/DTD/svg11.dtd">
<!-- Generated by graphviz version 5.0.0 (20220707.1540)
 -->
<!-- Title: default Pages: 1 -->
<svg width="358pt" height="152pt"
 viewBox="0.00 0.00 357.58 152.00" xmlns="http://www.w3.org/2000/svg" xmlns:xlink="http://www.w3.org/1999/xlink">
<g id="graph0" class="graph" transform="scale(1 1) rotate(0) translate(4 148)">
<title>default</title>
<polygon fill="white" stroke="transparent" points="-4,4 -4,-148 353.58,-148 353.58,4 -4,4"/>
<!-- root_1 -->
<g id="node1" class="node">
<title>root_1</title>
<g id="a_node1"><a xlink:href="javascript:s=&quot;\(\)\nNone&quot;; console.log(s); alert(s);" xlink:title="root">
<ellipse fill="none" stroke="black" cx="27" cy="-72" rx="27" ry="18"/>
<text text-anchor="middle" x="27" y="-68.3" font-family="Times New Roman,serif" font-size="14.00">root</text>
</a>
</g>
</g>
<!-- default_2 -->
<g id="node2" class="node">
<title>default_2</title>
<g id="a_node2"><a xlink:href="javascript:s=&quot;\(&#x27;default&#x27;,\)\nCountersinkAccessHole&quot;; console.log(s); alert(s);" xlink:title="CountersinkAccessHole">
<ellipse fill="none" stroke="black" cx="125.1" cy="-72" rx="35.19" ry="18"/>
<text text-anchor="middle" x="125.1" y="-68.3" font-family="Times New Roman,serif" font-size="14.00">default</text>
</a>
</g>
</g>
<!-- root_1&#45;&gt;default_2 -->
<g id="edge1" class="edge">
<title>root_1&#45;&gt;default_2</title>
<path fill="none" stroke="black" d="M54.01,-72C61.92,-72 70.84,-72 79.61,-72"/>
<polygon fill="black" stroke="black" points="79.76,-75.5 89.76,-72 79.76,-68.5 79.76,-75.5"/>
</g>
<!-- access_hole_cage_3 -->
<g id="node3" class="node">
<title>access_hole_cage_3</title>
<g id="a_node3"><a xlink:href="javascript:s=&quot;\(&#x27;default&#x27;,\ &#x27;access_hole_cage&#x27;\)\nCylinder&quot;; console.log(s); alert(s);" xlink:title="Cylinder">
<ellipse fill="none" stroke="black" cx="272.89" cy="-126" rx="76.89" ry="18"/>
<text text-anchor="middle" x="272.89" y="-122.3" font-family="Times New Roman,serif" font-size="14.00">access_hole_cage</text>
</a>
</g>
</g>
<!-- default_2&#45;&gt;access_hole_cage_3 -->
<g id="edge2" class="edge">
<title>default_2&#45;&gt;access_hole_cage_3</title>
<path fill="none" stroke="black" d="M153.67,-82.8C166.56,-87.81 182.13,-93.78 196.19,-99 203.82,-101.83 211.9,-104.77 219.83,-107.62"/>
<polygon fill="black" stroke="black" points="218.79,-110.97 229.38,-111.05 221.15,-104.38 218.79,-110.97"/>
</g>
<!-- access_hole_4 -->
<g id="node4" class="node">
<title>access_hole_4</title>
<g id="a_node4"><a xlink:href="javascript:s=&quot;\(&#x27;default&#x27;,\ &#x27;access_hole&#x27;\)\nCylinder&quot;; console.log(s); alert(s);" xlink:title="Cylinder">
<ellipse fill="none" stroke="black" cx="272.89" cy="-72" rx="55.49" ry="18"/>
<text text-anchor="middle" x="272.89" y="-68.3" font-family="Times New Roman,serif" font-size="14.00">access_hole</text>
</a>
</g>
</g>
<!-- default_2&#45;&gt;access_hole_4 -->
<g id="edge3" class="edge">
<title>default_2&#45;&gt;access_hole_4</title>
<path fill="none" stroke="black" d="M160.28,-72C174.36,-72 191.15,-72 207.38,-72"/>
<polygon fill="black" stroke="black" points="207.38,-75.5 217.38,-72 207.38,-68.5 207.38,-75.5"/>
</g>
<!-- couter_sink_hole_5 -->
<g id="node5" class="node">
<title>couter_sink_hole_5</title>
<g id="a_node5"><a xlink:href="javascript:s=&quot;\(&#x27;default&#x27;,\ &#x27;couter_sink_hole&#x27;\)\nCone&quot;; console.log(s); alert(s);" xlink:title="Cone">
<ellipse fill="none" stroke="black" cx="272.89" cy="-18" rx="73.39" ry="18"/>
<text text-anchor="middle" x="272.89" y="-14.3" font-family="Times New Roman,serif" font-size="14.00">couter_sink_hole</text>
</a>
</g>
</g>
<!-- default_2&#45;&gt;couter_sink_hole_5 -->
<g id="edge4" class="edge">
<title>default_2&#45;&gt;couter_sink_hole_5</title>
<path fill="none" stroke="black" d="M153.67,-61.2C166.56,-56.19 182.13,-50.22 196.19,-45 204.09,-42.07 212.47,-39.02 220.67,-36.07"/>
<polygon fill="black" stroke="black" points="221.94,-39.34 230.18,-32.67 219.58,-32.75 221.94,-39.34"/>
</g>
</g>
</svg>
