<?xml version="1.0" encoding="UTF-8" standalone="no"?>
<!DOCTYPE svg PUBLIC "-//W3C//DTD SVG 1.1//EN"
 "http://www.w3.org/Graphics/SVG/1.1/DTD/svg11.dtd">
<!-- Generated by graphviz version 5.0.0 (20220707.1540)
 -->
<!-- Title: default Pages: 1 -->
<svg width="720pt" height="422pt"
 viewBox="0.00 0.00 720.36 422.00" xmlns="http://www.w3.org/2000/svg" xmlns:xlink="http://www.w3.org/1999/xlink">
<g id="graph0" class="graph" transform="scale(1 1) rotate(0) translate(4 418)">
<title>default</title>
<polygon fill="white" stroke="transparent" points="-4,4 -4,-418 716.36,-418 716.36,4 -4,4"/>
<!-- root_6 -->
<g id="node1" class="node">
<title>root_6</title>
<g id="a_node1"><a xlink:href="javascript:s=&quot;\(\)\nNone&quot;; console.log(s); alert(s);" xlink:title="root">
<ellipse fill="none" stroke="black" cx="27" cy="-139" rx="27" ry="18"/>
<text text-anchor="middle" x="27" y="-135.3" font-family="Times New Roman,serif" font-size="14.00">root</text>
</a>
</g>
</g>
<!-- default_7 -->
<g id="node2" class="node">
<title>default_7</title>
<g id="a_node2"><a xlink:href="javascript:s=&quot;\(&#x27;default&#x27;,\)\nCountersinkSelfTapHole&quot;; console.log(s); alert(s);" xlink:title="CountersinkSelfTapHole">
<ellipse fill="none" stroke="black" cx="125.1" cy="-139" rx="35.19" ry="18"/>
<text text-anchor="middle" x="125.1" y="-135.3" font-family="Times New Roman,serif" font-size="14.00">default</text>
</a>
</g>
</g>
<!-- root_6&#45;&gt;default_7 -->
<g id="edge1" class="edge">
<title>root_6&#45;&gt;default_7</title>
<path fill="none" stroke="black" d="M54.01,-139C61.92,-139 70.84,-139 79.61,-139"/>
<polygon fill="black" stroke="black" points="79.76,-142.5 89.76,-139 79.76,-135.5 79.76,-142.5"/>
</g>
<!-- screw_hole_8 -->
<g id="node3" class="node">
<title>screw_hole_8</title>
<g id="a_node3"><a xlink:href="javascript:s=&quot;\(&#x27;default&#x27;,\ &#x27;screw_hole&#x27;\)\nSelfTapHole&quot;; console.log(s); alert(s);" xlink:title="SelfTapHole">
<ellipse fill="none" stroke="black" cx="251.44" cy="-193" rx="51.99" ry="18"/>
<text text-anchor="middle" x="251.44" y="-189.3" font-family="Times New Roman,serif" font-size="14.00">screw_hole</text>
</a>
</g>
</g>
<!-- default_7&#45;&gt;screw_hole_8 -->
<g id="edge2" class="edge">
<title>default_7&#45;&gt;screw_hole_8</title>
<path fill="none" stroke="black" d="M152.47,-150.45C168.93,-157.6 190.48,-166.96 209.17,-175.08"/>
<polygon fill="black" stroke="black" points="207.8,-178.3 218.37,-179.07 210.59,-171.88 207.8,-178.3"/>
</g>
<!-- access_hole_24 -->
<g id="node19" class="node">
<title>access_hole_24</title>
<g id="a_node19"><a xlink:href="javascript:s=&quot;\(&#x27;default&#x27;,\ &#x27;access_hole&#x27;\)\nCountersinkAccessHole&quot;; console.log(s); alert(s);" xlink:title="CountersinkAccessHole">
<ellipse fill="none" stroke="black" cx="251.44" cy="-112" rx="55.49" ry="18"/>
<text text-anchor="middle" x="251.44" y="-108.3" font-family="Times New Roman,serif" font-size="14.00">access_hole</text>
</a>
</g>
</g>
<!-- default_7&#45;&gt;access_hole_24 -->
<g id="edge18" class="edge">
<title>default_7&#45;&gt;access_hole_24</title>
<path fill="none" stroke="black" d="M157.8,-132.12C169.04,-129.68 182.04,-126.85 194.69,-124.1"/>
<polygon fill="black" stroke="black" points="195.69,-127.47 204.72,-121.93 194.2,-120.63 195.69,-127.47"/>
</g>
<!-- pipe_9 -->
<g id="node4" class="node">
<title>pipe_9</title>
<g id="a_node4"><a xlink:href="javascript:s=&quot;\(&#x27;default&#x27;,\ &#x27;screw_hole&#x27;,\ &#x27;pipe&#x27;\)\nCylinder&quot;; console.log(s); alert(s);" xlink:title="Cylinder">
<ellipse fill="none" stroke="black" cx="419.38" cy="-288" rx="27" ry="18"/>
<text text-anchor="middle" x="419.38" y="-284.3" font-family="Times New Roman,serif" font-size="14.00">pipe</text>
</a>
</g>
</g>
<!-- screw_hole_8&#45;&gt;pipe_9 -->
<g id="edge3" class="edge">
<title>screw_hole_8&#45;&gt;pipe_9</title>
<path fill="none" stroke="black" d="M271.34,-209.96C288.83,-224.97 316.09,-246.67 342.68,-261 355.7,-268.01 370.91,-273.85 384.27,-278.28"/>
<polygon fill="black" stroke="black" points="383.47,-281.69 394.06,-281.39 385.59,-275.02 383.47,-281.69"/>
</g>
<!-- thru_10 -->
<g id="node5" class="node">
<title>thru_10</title>
<g id="a_node5"><a xlink:href="javascript:s=&quot;\(&#x27;default&#x27;,\ &#x27;screw_hole&#x27;,\ &#x27;thru&#x27;\)\nPipe&quot;; console.log(s); alert(s);" xlink:title="Pipe">
<ellipse fill="none" stroke="black" cx="419.38" cy="-234" rx="27" ry="18"/>
<text text-anchor="middle" x="419.38" y="-230.3" font-family="Times New Roman,serif" font-size="14.00">thru</text>
</a>
</g>
</g>
<!-- screw_hole_8&#45;&gt;thru_10 -->
<g id="edge4" class="edge">
<title>screw_hole_8&#45;&gt;thru_10</title>
<path fill="none" stroke="black" d="M294.31,-203.35C321.94,-210.17 357.71,-219.01 383.74,-225.44"/>
<polygon fill="black" stroke="black" points="383,-228.86 393.55,-227.86 384.68,-222.07 383,-228.86"/>
</g>
<!-- tap_17 -->
<g id="node12" class="node">
<title>tap_17</title>
<g id="a_node12"><a xlink:href="javascript:s=&quot;\(&#x27;default&#x27;,\ &#x27;screw_hole&#x27;,\ &#x27;tap&#x27;\)\nPipe&quot;; console.log(s); alert(s);" xlink:title="Pipe">
<ellipse fill="none" stroke="black" cx="419.38" cy="-180" rx="27" ry="18"/>
<text text-anchor="middle" x="419.38" y="-176.3" font-family="Times New Roman,serif" font-size="14.00">tap</text>
</a>
</g>
</g>
<!-- screw_hole_8&#45;&gt;tap_17 -->
<g id="edge11" class="edge">
<title>screw_hole_8&#45;&gt;tap_17</title>
<path fill="none" stroke="black" d="M302.23,-189.1C327.89,-187.09 358.62,-184.68 382.03,-182.85"/>
<polygon fill="black" stroke="black" points="382.53,-186.32 392.22,-182.05 381.98,-179.34 382.53,-186.32"/>
</g>
<!-- outer_11 -->
<g id="node6" class="node">
<title>outer_11</title>
<g id="a_node6"><a xlink:href="javascript:s=&quot;\(&#x27;default&#x27;,\ &#x27;screw_hole&#x27;,\ &#x27;thru&#x27;,\ &#x27;outer&#x27;\)\nPie&quot;; console.log(s); alert(s);" xlink:title="Pie">
<ellipse fill="none" stroke="black" cx="561.32" cy="-342" rx="29.5" ry="18"/>
<text text-anchor="middle" x="561.32" y="-338.3" font-family="Times New Roman,serif" font-size="14.00">outer</text>
</a>
</g>
</g>
<!-- thru_10&#45;&gt;outer_11 -->
<g id="edge5" class="edge">
<title>thru_10&#45;&gt;outer_11</title>
<path fill="none" stroke="black" d="M445.56,-239.23C461.14,-243.33 480.98,-250.2 496.07,-261 516.58,-275.68 533.93,-298.65 545.41,-316.38"/>
<polygon fill="black" stroke="black" points="542.59,-318.48 550.86,-325.11 548.53,-314.77 542.59,-318.48"/>
</g>
<!-- inner_14 -->
<g id="node9" class="node">
<title>inner_14</title>
<g id="a_node9"><a xlink:href="javascript:s=&quot;\(&#x27;default&#x27;,\ &#x27;screw_hole&#x27;,\ &#x27;thru&#x27;,\ &#x27;inner&#x27;\)\nPie&quot;; console.log(s); alert(s);" xlink:title="Pie">
<ellipse fill="none" stroke="black" cx="561.32" cy="-234" rx="28.7" ry="18"/>
<text text-anchor="middle" x="561.32" y="-230.3" font-family="Times New Roman,serif" font-size="14.00">inner</text>
</a>
</g>
</g>
<!-- thru_10&#45;&gt;inner_14 -->
<g id="edge8" class="edge">
<title>thru_10&#45;&gt;inner_14</title>
<path fill="none" stroke="black" d="M446.7,-234C468.08,-234 498.51,-234 522.5,-234"/>
<polygon fill="black" stroke="black" points="522.68,-237.5 532.68,-234 522.68,-230.5 522.68,-237.5"/>
</g>
<!-- pie_cage_12 -->
<g id="node7" class="node">
<title>pie_cage_12</title>
<g id="a_node7"><a xlink:href="javascript:s=&quot;\(&#x27;default&#x27;,\ &#x27;screw_hole&#x27;,\ &#x27;thru&#x27;,\ &#x27;outer&#x27;,\ &#x27;pie_cage&#x27;\)\nCylinder&quot;; console.log(s); alert(s);" xlink:title="Cylinder">
<ellipse fill="none" stroke="black" cx="669.46" cy="-396" rx="42.79" ry="18"/>
<text text-anchor="middle" x="669.46" y="-392.3" font-family="Times New Roman,serif" font-size="14.00">pie_cage</text>
</a>
</g>
</g>
<!-- outer_11&#45;&gt;pie_cage_12 -->
<g id="edge6" class="edge">
<title>outer_11&#45;&gt;pie_cage_12</title>
<path fill="none" stroke="black" d="M584.31,-353.19C598.12,-360.21 616.26,-369.44 632.16,-377.53"/>
<polygon fill="black" stroke="black" points="630.71,-380.72 641.21,-382.14 633.89,-374.48 630.71,-380.72"/>
</g>
<!-- pie_13 -->
<g id="node8" class="node">
<title>pie_13</title>
<g id="a_node8"><a xlink:href="javascript:s=&quot;\(&#x27;default&#x27;,\ &#x27;screw_hole&#x27;,\ &#x27;thru&#x27;,\ &#x27;outer&#x27;,\ &#x27;pie&#x27;\)\nRotateExtrude&quot;; console.log(s); alert(s);" xlink:title="RotateExtrude">
<ellipse fill="none" stroke="black" cx="669.46" cy="-342" rx="27" ry="18"/>
<text text-anchor="middle" x="669.46" y="-338.3" font-family="Times New Roman,serif" font-size="14.00">pie</text>
</a>
</g>
</g>
<!-- outer_11&#45;&gt;pie_13 -->
<g id="edge7" class="edge">
<title>outer_11&#45;&gt;pie_13</title>
<path fill="none" stroke="black" d="M590.76,-342C603.36,-342 618.34,-342 631.76,-342"/>
<polygon fill="black" stroke="black" points="632.13,-345.5 642.13,-342 632.13,-338.5 632.13,-345.5"/>
</g>
<!-- pie_cage_15 -->
<g id="node10" class="node">
<title>pie_cage_15</title>
<g id="a_node10"><a xlink:href="javascript:s=&quot;\(&#x27;default&#x27;,\ &#x27;screw_hole&#x27;,\ &#x27;thru&#x27;,\ &#x27;inner&#x27;,\ &#x27;pie_cage&#x27;\)\nCylinder&quot;; console.log(s); alert(s);" xlink:title="Cylinder">
<ellipse fill="none" stroke="black" cx="669.46" cy="-288" rx="42.79" ry="18"/>
<text text-anchor="middle" x="669.46" y="-284.3" font-family="Times New Roman,serif" font-size="14.00">pie_cage</text>
</a>
</g>
</g>
<!-- inner_14&#45;&gt;pie_cage_15 -->
<g id="edge9" class="edge">
<title>inner_14&#45;&gt;pie_cage_15</title>
<path fill="none" stroke="black" d="M584.05,-245.06C597.95,-252.13 616.3,-261.46 632.35,-269.63"/>
<polygon fill="black" stroke="black" points="630.97,-272.86 641.47,-274.27 634.15,-266.62 630.97,-272.86"/>
</g>
<!-- pie_16 -->
<g id="node11" class="node">
<title>pie_16</title>
<g id="a_node11"><a xlink:href="javascript:s=&quot;\(&#x27;default&#x27;,\ &#x27;screw_hole&#x27;,\ &#x27;thru&#x27;,\ &#x27;inner&#x27;,\ &#x27;pie&#x27;\)\nRotateExtrude&quot;; console.log(s); alert(s);" xlink:title="RotateExtrude">
<ellipse fill="none" stroke="black" cx="669.46" cy="-234" rx="27" ry="18"/>
<text text-anchor="middle" x="669.46" y="-230.3" font-family="Times New Roman,serif" font-size="14.00">pie</text>
</a>
</g>
</g>
<!-- inner_14&#45;&gt;pie_16 -->
<g id="edge10" class="edge">
<title>inner_14&#45;&gt;pie_16</title>
<path fill="none" stroke="black" d="M589.93,-234C602.85,-234 618.41,-234 632.26,-234"/>
<polygon fill="black" stroke="black" points="632.45,-237.5 642.45,-234 632.45,-230.5 632.45,-237.5"/>
</g>
<!-- outer_18 -->
<g id="node13" class="node">
<title>outer_18</title>
<g id="a_node13"><a xlink:href="javascript:s=&quot;\(&#x27;default&#x27;,\ &#x27;screw_hole&#x27;,\ &#x27;tap&#x27;,\ &#x27;outer&#x27;\)\nPie&quot;; console.log(s); alert(s);" xlink:title="Pie">
<ellipse fill="none" stroke="black" cx="561.32" cy="-180" rx="29.5" ry="18"/>
<text text-anchor="middle" x="561.32" y="-176.3" font-family="Times New Roman,serif" font-size="14.00">outer</text>
</a>
</g>
</g>
<!-- tap_17&#45;&gt;outer_18 -->
<g id="edge12" class="edge">
<title>tap_17&#45;&gt;outer_18</title>
<path fill="none" stroke="black" d="M446.7,-180C467.8,-180 497.73,-180 521.57,-180"/>
<polygon fill="black" stroke="black" points="521.71,-183.5 531.71,-180 521.71,-176.5 521.71,-183.5"/>
</g>
<!-- inner_21 -->
<g id="node16" class="node">
<title>inner_21</title>
<g id="a_node16"><a xlink:href="javascript:s=&quot;\(&#x27;default&#x27;,\ &#x27;screw_hole&#x27;,\ &#x27;tap&#x27;,\ &#x27;inner&#x27;\)\nPie&quot;; console.log(s); alert(s);" xlink:title="Pie">
<ellipse fill="none" stroke="black" cx="561.32" cy="-72" rx="28.7" ry="18"/>
<text text-anchor="middle" x="561.32" y="-68.3" font-family="Times New Roman,serif" font-size="14.00">inner</text>
</a>
</g>
</g>
<!-- tap_17&#45;&gt;inner_21 -->
<g id="edge15" class="edge">
<title>tap_17&#45;&gt;inner_21</title>
<path fill="none" stroke="black" d="M445.56,-174.77C461.14,-170.67 480.98,-163.8 496.07,-153 516.58,-138.32 533.93,-115.35 545.41,-97.62"/>
<polygon fill="black" stroke="black" points="548.53,-99.23 550.86,-88.89 542.59,-95.52 548.53,-99.23"/>
</g>
<!-- pie_cage_19 -->
<g id="node14" class="node">
<title>pie_cage_19</title>
<g id="a_node14"><a xlink:href="javascript:s=&quot;\(&#x27;default&#x27;,\ &#x27;screw_hole&#x27;,\ &#x27;tap&#x27;,\ &#x27;outer&#x27;,\ &#x27;pie_cage&#x27;\)\nCylinder&quot;; console.log(s); alert(s);" xlink:title="Cylinder">
<ellipse fill="none" stroke="black" cx="669.46" cy="-180" rx="42.79" ry="18"/>
<text text-anchor="middle" x="669.46" y="-176.3" font-family="Times New Roman,serif" font-size="14.00">pie_cage</text>
</a>
</g>
</g>
<!-- outer_18&#45;&gt;pie_cage_19 -->
<g id="edge13" class="edge">
<title>outer_18&#45;&gt;pie_cage_19</title>
<path fill="none" stroke="black" d="M590.76,-180C598.62,-180 607.4,-180 616.15,-180"/>
<polygon fill="black" stroke="black" points="616.36,-183.5 626.36,-180 616.36,-176.5 616.36,-183.5"/>
</g>
<!-- pie_20 -->
<g id="node15" class="node">
<title>pie_20</title>
<g id="a_node15"><a xlink:href="javascript:s=&quot;\(&#x27;default&#x27;,\ &#x27;screw_hole&#x27;,\ &#x27;tap&#x27;,\ &#x27;outer&#x27;,\ &#x27;pie&#x27;\)\nRotateExtrude&quot;; console.log(s); alert(s);" xlink:title="RotateExtrude">
<ellipse fill="none" stroke="black" cx="669.46" cy="-126" rx="27" ry="18"/>
<text text-anchor="middle" x="669.46" y="-122.3" font-family="Times New Roman,serif" font-size="14.00">pie</text>
</a>
</g>
</g>
<!-- outer_18&#45;&gt;pie_20 -->
<g id="edge14" class="edge">
<title>outer_18&#45;&gt;pie_20</title>
<path fill="none" stroke="black" d="M584.31,-168.81C599.99,-160.84 621.25,-150.02 638.48,-141.25"/>
<polygon fill="black" stroke="black" points="640.25,-144.28 647.58,-136.62 637.08,-138.04 640.25,-144.28"/>
</g>
<!-- pie_cage_22 -->
<g id="node17" class="node">
<title>pie_cage_22</title>
<g id="a_node17"><a xlink:href="javascript:s=&quot;\(&#x27;default&#x27;,\ &#x27;screw_hole&#x27;,\ &#x27;tap&#x27;,\ &#x27;inner&#x27;,\ &#x27;pie_cage&#x27;\)\nCylinder&quot;; console.log(s); alert(s);" xlink:title="Cylinder">
<ellipse fill="none" stroke="black" cx="669.46" cy="-72" rx="42.79" ry="18"/>
<text text-anchor="middle" x="669.46" y="-68.3" font-family="Times New Roman,serif" font-size="14.00">pie_cage</text>
</a>
</g>
</g>
<!-- inner_21&#45;&gt;pie_cage_22 -->
<g id="edge16" class="edge">
<title>inner_21&#45;&gt;pie_cage_22</title>
<path fill="none" stroke="black" d="M589.93,-72C597.96,-72 607.02,-72 616.04,-72"/>
<polygon fill="black" stroke="black" points="616.17,-75.5 626.17,-72 616.17,-68.5 616.17,-75.5"/>
</g>
<!-- pie_23 -->
<g id="node18" class="node">
<title>pie_23</title>
<g id="a_node18"><a xlink:href="javascript:s=&quot;\(&#x27;default&#x27;,\ &#x27;screw_hole&#x27;,\ &#x27;tap&#x27;,\ &#x27;inner&#x27;,\ &#x27;pie&#x27;\)\nRotateExtrude&quot;; console.log(s); alert(s);" xlink:title="RotateExtrude">
<ellipse fill="none" stroke="black" cx="669.46" cy="-18" rx="27" ry="18"/>
<text text-anchor="middle" x="669.46" y="-14.3" font-family="Times New Roman,serif" font-size="14.00">pie</text>
</a>
</g>
</g>
<!-- inner_21&#45;&gt;pie_23 -->
<g id="edge17" class="edge">
<title>inner_21&#45;&gt;pie_23</title>
<path fill="none" stroke="black" d="M584.05,-60.94C599.71,-52.98 621.04,-42.12 638.34,-33.32"/>
<polygon fill="black" stroke="black" points="640.15,-36.33 647.48,-28.68 636.98,-30.09 640.15,-36.33"/>
</g>
<!-- access_hole_cage_25 -->
<g id="node20" class="node">
<title>access_hole_cage_25</title>
<g id="a_node20"><a xlink:href="javascript:s=&quot;\(&#x27;default&#x27;,\ &#x27;access_hole&#x27;,\ &#x27;access_hole_cage&#x27;\)\nCylinder&quot;; console.log(s); alert(s);" xlink:title="Cylinder">
<ellipse fill="none" stroke="black" cx="419.38" cy="-126" rx="76.89" ry="18"/>
<text text-anchor="middle" x="419.38" y="-122.3" font-family="Times New Roman,serif" font-size="14.00">access_hole_cage</text>
</a>
</g>
</g>
<!-- access_hole_24&#45;&gt;access_hole_cage_25 -->
<g id="edge19" class="edge">
<title>access_hole_24&#45;&gt;access_hole_cage_25</title>
<path fill="none" stroke="black" d="M305.4,-116.47C315.39,-117.31 326.05,-118.21 336.69,-119.11"/>
<polygon fill="black" stroke="black" points="336.59,-122.61 346.85,-119.97 337.18,-115.64 336.59,-122.61"/>
</g>
<!-- access_hole_26 -->
<g id="node21" class="node">
<title>access_hole_26</title>
<g id="a_node21"><a xlink:href="javascript:s=&quot;\(&#x27;default&#x27;,\ &#x27;access_hole&#x27;,\ &#x27;access_hole&#x27;\)\nCylinder&quot;; console.log(s); alert(s);" xlink:title="Cylinder">
<ellipse fill="none" stroke="black" cx="419.38" cy="-72" rx="55.49" ry="18"/>
<text text-anchor="middle" x="419.38" y="-68.3" font-family="Times New Roman,serif" font-size="14.00">access_hole</text>
</a>
</g>
</g>
<!-- access_hole_24&#45;&gt;access_hole_26 -->
<g id="edge20" class="edge">
<title>access_hole_24&#45;&gt;access_hole_26</title>
<path fill="none" stroke="black" d="M296.47,-101.39C317.37,-96.35 342.53,-90.28 364.56,-84.97"/>
<polygon fill="black" stroke="black" points="365.53,-88.34 374.43,-82.59 363.89,-81.54 365.53,-88.34"/>
</g>
<!-- couter_sink_hole_27 -->
<g id="node22" class="node">
<title>couter_sink_hole_27</title>
<g id="a_node22"><a xlink:href="javascript:s=&quot;\(&#x27;default&#x27;,\ &#x27;access_hole&#x27;,\ &#x27;couter_sink_hole&#x27;\)\nCone&quot;; console.log(s); alert(s);" xlink:title="Cone">
<ellipse fill="none" stroke="black" cx="419.38" cy="-18" rx="73.39" ry="18"/>
<text text-anchor="middle" x="419.38" y="-14.3" font-family="Times New Roman,serif" font-size="14.00">couter_sink_hole</text>
</a>
</g>
</g>
<!-- access_hole_24&#45;&gt;couter_sink_hole_27 -->
<g id="edge21" class="edge">
<title>access_hole_24&#45;&gt;couter_sink_hole_27</title>
<path fill="none" stroke="black" d="M271.72,-95.02C289.26,-80.25 316.35,-59.07 342.68,-45 349.03,-41.61 355.89,-38.49 362.8,-35.67"/>
<polygon fill="black" stroke="black" points="364.16,-38.9 372.21,-32.01 361.62,-32.37 364.16,-38.9"/>
</g>
</g>
</svg>
