<?xml version="1.0" encoding="UTF-8" standalone="no"?>
<!DOCTYPE svg PUBLIC "-//W3C//DTD SVG 1.1//EN"
 "http://www.w3.org/Graphics/SVG/1.1/DTD/svg11.dtd">
<!-- Generated by graphviz version 5.0.0 (20220707.1540)
 -->
<!-- Title: default Pages: 1 -->
<svg width="539pt" height="1070pt"
 viewBox="0.00 0.00 538.77 1070.00" xmlns="http://www.w3.org/2000/svg" xmlns:xlink="http://www.w3.org/1999/xlink">
<g id="graph0" class="graph" transform="scale(1 1) rotate(0) translate(4 1066)">
<title>default</title>
<polygon fill="white" stroke="transparent" points="-4,4 -4,-1066 534.77,-1066 534.77,4 -4,4"/>
<!-- root_28 -->
<g id="node1" class="node">
<title>root_28</title>
<g id="a_node1"><a xlink:href="javascript:s=&quot;\(\)\nNone&quot;; console.log(s); alert(s);" xlink:title="root">
<ellipse fill="none" stroke="black" cx="27" cy="-423" rx="27" ry="18"/>
<text text-anchor="middle" x="27" y="-419.3" font-family="Times New Roman,serif" font-size="14.00">root</text>
</a>
</g>
</g>
<!-- default_29 -->
<g id="node2" class="node">
<title>default_29</title>
<g id="a_node2"><a xlink:href="javascript:s=&quot;\(&#x27;default&#x27;,\)\nSelfTapHole&quot;; console.log(s); alert(s);" xlink:title="SelfTapHole">
<ellipse fill="none" stroke="black" cx="136.15" cy="-834" rx="35.19" ry="18"/>
<text text-anchor="middle" x="136.15" y="-830.3" font-family="Times New Roman,serif" font-size="14.00">default</text>
</a>
</g>
</g>
<!-- root_28&#45;&gt;default_29 -->
<g id="edge1" class="edge">
<title>root_28&#45;&gt;default_29</title>
<path fill="none" stroke="black" d="M32.6,-440.66C49.39,-505.07 107.42,-727.66 127.91,-806.26"/>
<polygon fill="black" stroke="black" points="124.53,-807.15 130.44,-815.94 131.3,-805.38 124.53,-807.15"/>
</g>
<!-- 45 -->
<g id="node18" class="node">
<title>45</title>
<g id="a_node18"><a xlink:href="javascript:s=&quot;\(&quot;&#x27;start&#x27;,\ &quot;,\)\nAnnotatedCoordinates&quot;; console.log(s); alert(s);" xlink:title="AnnotatedCoordinates">
<ellipse fill="none" stroke="black" cx="136.15" cy="-423" rx="35.19" ry="18"/>
<text text-anchor="middle" x="136.15" y="-419.3" font-family="Times New Roman,serif" font-size="14.00">&#39;start&#39;, </text>
</a>
</g>
</g>
<!-- root_28&#45;&gt;45 -->
<g id="edge17" class="edge">
<title>root_28&#45;&gt;45</title>
<path fill="none" stroke="black" d="M54.21,-423C65.15,-423 78.17,-423 90.53,-423"/>
<polygon fill="black" stroke="black" points="90.7,-426.5 100.7,-423 90.7,-419.5 90.7,-426.5"/>
</g>
<!-- 61 -->
<g id="node34" class="node">
<title>61</title>
<g id="a_node34"><a xlink:href="javascript:s=&quot;\(&quot;&#x27;bottom&#x27;,\ &quot;,\)\nAnnotatedCoordinates&quot;; console.log(s); alert(s);" xlink:title="AnnotatedCoordinates">
<ellipse fill="none" stroke="black" cx="136.15" cy="-153" rx="46.29" ry="18"/>
<text text-anchor="middle" x="136.15" y="-149.3" font-family="Times New Roman,serif" font-size="14.00">&#39;bottom&#39;, </text>
</a>
</g>
</g>
<!-- root_28&#45;&gt;61 -->
<g id="edge33" class="edge">
<title>root_28&#45;&gt;61</title>
<path fill="none" stroke="black" d="M34.87,-405.7C53,-360.01 102.28,-235.83 124.28,-180.38"/>
<polygon fill="black" stroke="black" points="127.62,-181.44 128.06,-170.86 121.12,-178.86 127.62,-181.44"/>
</g>
<!-- pipe_30 -->
<g id="node3" class="node">
<title>pipe_30</title>
<g id="a_node3"><a xlink:href="javascript:s=&quot;\(&#x27;default&#x27;,\ &#x27;pipe&#x27;\)\nCylinder&quot;; console.log(s); alert(s);" xlink:title="Cylinder">
<ellipse fill="none" stroke="black" cx="254.69" cy="-922" rx="27" ry="18"/>
<text text-anchor="middle" x="254.69" y="-918.3" font-family="Times New Roman,serif" font-size="14.00">pipe</text>
</a>
</g>
</g>
<!-- default_29&#45;&gt;pipe_30 -->
<g id="edge2" class="edge">
<title>default_29&#45;&gt;pipe_30</title>
<path fill="none" stroke="black" d="M156.65,-848.73C176.22,-863.5 206.45,-886.33 227.97,-902.58"/>
<polygon fill="black" stroke="black" points="225.94,-905.43 236.03,-908.67 230.16,-899.85 225.94,-905.43"/>
</g>
<!-- thru_31 -->
<g id="node4" class="node">
<title>thru_31</title>
<g id="a_node4"><a xlink:href="javascript:s=&quot;\(&#x27;default&#x27;,\ &#x27;thru&#x27;\)\nPipe&quot;; console.log(s); alert(s);" xlink:title="Pipe">
<ellipse fill="none" stroke="black" cx="254.69" cy="-868" rx="27" ry="18"/>
<text text-anchor="middle" x="254.69" y="-864.3" font-family="Times New Roman,serif" font-size="14.00">thru</text>
</a>
</g>
</g>
<!-- default_29&#45;&gt;thru_31 -->
<g id="edge3" class="edge">
<title>default_29&#45;&gt;thru_31</title>
<path fill="none" stroke="black" d="M167.16,-842.76C183.24,-847.45 203.12,-853.25 219.76,-858.1"/>
<polygon fill="black" stroke="black" points="219.07,-861.55 229.65,-860.99 221.03,-854.83 219.07,-861.55"/>
</g>
<!-- tap_38 -->
<g id="node11" class="node">
<title>tap_38</title>
<g id="a_node11"><a xlink:href="javascript:s=&quot;\(&#x27;default&#x27;,\ &#x27;tap&#x27;\)\nPipe&quot;; console.log(s); alert(s);" xlink:title="Pipe">
<ellipse fill="none" stroke="black" cx="254.69" cy="-801" rx="27" ry="18"/>
<text text-anchor="middle" x="254.69" y="-797.3" font-family="Times New Roman,serif" font-size="14.00">tap</text>
</a>
</g>
</g>
<!-- default_29&#45;&gt;tap_38 -->
<g id="edge10" class="edge">
<title>default_29&#45;&gt;tap_38</title>
<path fill="none" stroke="black" d="M167.16,-825.5C183.24,-820.95 203.12,-815.32 219.76,-810.61"/>
<polygon fill="black" stroke="black" points="220.98,-813.9 229.65,-807.81 219.07,-807.16 220.98,-813.9"/>
</g>
<!-- outer_32 -->
<g id="node5" class="node">
<title>outer_32</title>
<g id="a_node5"><a xlink:href="javascript:s=&quot;\(&#x27;default&#x27;,\ &#x27;thru&#x27;,\ &#x27;outer&#x27;\)\nPie&quot;; console.log(s); alert(s);" xlink:title="Pie">
<ellipse fill="none" stroke="black" cx="368.03" cy="-990" rx="29.5" ry="18"/>
<text text-anchor="middle" x="368.03" y="-986.3" font-family="Times New Roman,serif" font-size="14.00">outer</text>
</a>
</g>
</g>
<!-- thru_31&#45;&gt;outer_32 -->
<g id="edge4" class="edge">
<title>thru_31&#45;&gt;outer_32</title>
<path fill="none" stroke="black" d="M274.03,-880.65C279.74,-884.93 285.89,-889.92 291.09,-895 313.45,-916.86 335.35,-945.22 349.84,-965.24"/>
<polygon fill="black" stroke="black" points="347.11,-967.43 355.77,-973.54 352.8,-963.36 347.11,-967.43"/>
</g>
<!-- inner_35 -->
<g id="node8" class="node">
<title>inner_35</title>
<g id="a_node8"><a xlink:href="javascript:s=&quot;\(&#x27;default&#x27;,\ &#x27;thru&#x27;,\ &#x27;inner&#x27;\)\nPie&quot;; console.log(s); alert(s);" xlink:title="Pie">
<ellipse fill="none" stroke="black" cx="368.03" cy="-882" rx="28.7" ry="18"/>
<text text-anchor="middle" x="368.03" y="-878.3" font-family="Times New Roman,serif" font-size="14.00">inner</text>
</a>
</g>
</g>
<!-- thru_31&#45;&gt;inner_35 -->
<g id="edge7" class="edge">
<title>thru_31&#45;&gt;inner_35</title>
<path fill="none" stroke="black" d="M281.51,-871.25C295.85,-873.05 313.93,-875.32 329.77,-877.31"/>
<polygon fill="black" stroke="black" points="329.44,-880.8 339.79,-878.58 330.31,-873.85 329.44,-880.8"/>
</g>
<!-- pie_cage_33 -->
<g id="node6" class="node">
<title>pie_cage_33</title>
<g id="a_node6"><a xlink:href="javascript:s=&quot;\(&#x27;default&#x27;,\ &#x27;thru&#x27;,\ &#x27;outer&#x27;,\ &#x27;pie_cage&#x27;\)\nCylinder&quot;; console.log(s); alert(s);" xlink:title="Cylinder">
<ellipse fill="none" stroke="black" cx="487.87" cy="-1044" rx="42.79" ry="18"/>
<text text-anchor="middle" x="487.87" y="-1040.3" font-family="Times New Roman,serif" font-size="14.00">pie_cage</text>
</a>
</g>
</g>
<!-- outer_32&#45;&gt;pie_cage_33 -->
<g id="edge5" class="edge">
<title>outer_32&#45;&gt;pie_cage_33</title>
<path fill="none" stroke="black" d="M392.03,-1000.54C408.19,-1007.94 430.18,-1018.02 448.91,-1026.61"/>
<polygon fill="black" stroke="black" points="447.54,-1029.82 458.09,-1030.81 450.46,-1023.46 447.54,-1029.82"/>
</g>
<!-- pie_34 -->
<g id="node7" class="node">
<title>pie_34</title>
<g id="a_node7"><a xlink:href="javascript:s=&quot;\(&#x27;default&#x27;,\ &#x27;thru&#x27;,\ &#x27;outer&#x27;,\ &#x27;pie&#x27;\)\nRotateExtrude&quot;; console.log(s); alert(s);" xlink:title="RotateExtrude">
<ellipse fill="none" stroke="black" cx="487.87" cy="-990" rx="27" ry="18"/>
<text text-anchor="middle" x="487.87" y="-986.3" font-family="Times New Roman,serif" font-size="14.00">pie</text>
</a>
</g>
</g>
<!-- outer_32&#45;&gt;pie_34 -->
<g id="edge6" class="edge">
<title>outer_32&#45;&gt;pie_34</title>
<path fill="none" stroke="black" d="M397.56,-990C413.47,-990 433.44,-990 450.47,-990"/>
<polygon fill="black" stroke="black" points="450.63,-993.5 460.63,-990 450.63,-986.5 450.63,-993.5"/>
</g>
<!-- pie_cage_36 -->
<g id="node9" class="node">
<title>pie_cage_36</title>
<g id="a_node9"><a xlink:href="javascript:s=&quot;\(&#x27;default&#x27;,\ &#x27;thru&#x27;,\ &#x27;inner&#x27;,\ &#x27;pie_cage&#x27;\)\nCylinder&quot;; console.log(s); alert(s);" xlink:title="Cylinder">
<ellipse fill="none" stroke="black" cx="487.87" cy="-936" rx="42.79" ry="18"/>
<text text-anchor="middle" x="487.87" y="-932.3" font-family="Times New Roman,serif" font-size="14.00">pie_cage</text>
</a>
</g>
</g>
<!-- inner_35&#45;&gt;pie_cage_36 -->
<g id="edge8" class="edge">
<title>inner_35&#45;&gt;pie_cage_36</title>
<path fill="none" stroke="black" d="M391.75,-892.41C407.89,-899.81 429.94,-909.91 448.74,-918.53"/>
<polygon fill="black" stroke="black" points="447.4,-921.76 457.95,-922.75 450.32,-915.4 447.4,-921.76"/>
</g>
<!-- pie_37 -->
<g id="node10" class="node">
<title>pie_37</title>
<g id="a_node10"><a xlink:href="javascript:s=&quot;\(&#x27;default&#x27;,\ &#x27;thru&#x27;,\ &#x27;inner&#x27;,\ &#x27;pie&#x27;\)\nRotateExtrude&quot;; console.log(s); alert(s);" xlink:title="RotateExtrude">
<ellipse fill="none" stroke="black" cx="487.87" cy="-882" rx="27" ry="18"/>
<text text-anchor="middle" x="487.87" y="-878.3" font-family="Times New Roman,serif" font-size="14.00">pie</text>
</a>
</g>
</g>
<!-- inner_35&#45;&gt;pie_37 -->
<g id="edge9" class="edge">
<title>inner_35&#45;&gt;pie_37</title>
<path fill="none" stroke="black" d="M396.66,-882C412.66,-882 433,-882 450.31,-882"/>
<polygon fill="black" stroke="black" points="450.63,-885.5 460.63,-882 450.63,-878.5 450.63,-885.5"/>
</g>
<!-- outer_39 -->
<g id="node12" class="node">
<title>outer_39</title>
<g id="a_node12"><a xlink:href="javascript:s=&quot;\(&#x27;default&#x27;,\ &#x27;tap&#x27;,\ &#x27;outer&#x27;\)\nPie&quot;; console.log(s); alert(s);" xlink:title="Pie">
<ellipse fill="none" stroke="black" cx="368.03" cy="-801" rx="29.5" ry="18"/>
<text text-anchor="middle" x="368.03" y="-797.3" font-family="Times New Roman,serif" font-size="14.00">outer</text>
</a>
</g>
</g>
<!-- tap_38&#45;&gt;outer_39 -->
<g id="edge11" class="edge">
<title>tap_38&#45;&gt;outer_39</title>
<path fill="none" stroke="black" d="M281.79,-801C295.69,-801 313.04,-801 328.45,-801"/>
<polygon fill="black" stroke="black" points="328.75,-804.5 338.75,-801 328.75,-797.5 328.75,-804.5"/>
</g>
<!-- inner_42 -->
<g id="node15" class="node">
<title>inner_42</title>
<g id="a_node15"><a xlink:href="javascript:s=&quot;\(&#x27;default&#x27;,\ &#x27;tap&#x27;,\ &#x27;inner&#x27;\)\nPie&quot;; console.log(s); alert(s);" xlink:title="Pie">
<ellipse fill="none" stroke="black" cx="368.03" cy="-720" rx="28.7" ry="18"/>
<text text-anchor="middle" x="368.03" y="-716.3" font-family="Times New Roman,serif" font-size="14.00">inner</text>
</a>
</g>
</g>
<!-- tap_38&#45;&gt;inner_42 -->
<g id="edge14" class="edge">
<title>tap_38&#45;&gt;inner_42</title>
<path fill="none" stroke="black" d="M273.58,-787.99C291.54,-774.92 319.45,-754.62 340.09,-739.6"/>
<polygon fill="black" stroke="black" points="342.42,-742.24 348.44,-733.52 338.3,-736.57 342.42,-742.24"/>
</g>
<!-- pie_cage_40 -->
<g id="node13" class="node">
<title>pie_cage_40</title>
<g id="a_node13"><a xlink:href="javascript:s=&quot;\(&#x27;default&#x27;,\ &#x27;tap&#x27;,\ &#x27;outer&#x27;,\ &#x27;pie_cage&#x27;\)\nCylinder&quot;; console.log(s); alert(s);" xlink:title="Cylinder">
<ellipse fill="none" stroke="black" cx="487.87" cy="-828" rx="42.79" ry="18"/>
<text text-anchor="middle" x="487.87" y="-824.3" font-family="Times New Roman,serif" font-size="14.00">pie_cage</text>
</a>
</g>
</g>
<!-- outer_39&#45;&gt;pie_cage_40 -->
<g id="edge12" class="edge">
<title>outer_39&#45;&gt;pie_cage_40</title>
<path fill="none" stroke="black" d="M395.77,-807.13C408.79,-810.11 424.84,-813.79 439.82,-817.22"/>
<polygon fill="black" stroke="black" points="439.44,-820.72 449.97,-819.54 441,-813.9 439.44,-820.72"/>
</g>
<!-- pie_41 -->
<g id="node14" class="node">
<title>pie_41</title>
<g id="a_node14"><a xlink:href="javascript:s=&quot;\(&#x27;default&#x27;,\ &#x27;tap&#x27;,\ &#x27;outer&#x27;,\ &#x27;pie&#x27;\)\nRotateExtrude&quot;; console.log(s); alert(s);" xlink:title="RotateExtrude">
<ellipse fill="none" stroke="black" cx="487.87" cy="-774" rx="27" ry="18"/>
<text text-anchor="middle" x="487.87" y="-770.3" font-family="Times New Roman,serif" font-size="14.00">pie</text>
</a>
</g>
</g>
<!-- outer_39&#45;&gt;pie_41 -->
<g id="edge13" class="edge">
<title>outer_39&#45;&gt;pie_41</title>
<path fill="none" stroke="black" d="M395.77,-794.87C412.43,-791.06 434.03,-786.11 452.01,-781.99"/>
<polygon fill="black" stroke="black" points="452.89,-785.38 461.85,-779.73 451.32,-778.56 452.89,-785.38"/>
</g>
<!-- pie_cage_43 -->
<g id="node16" class="node">
<title>pie_cage_43</title>
<g id="a_node16"><a xlink:href="javascript:s=&quot;\(&#x27;default&#x27;,\ &#x27;tap&#x27;,\ &#x27;inner&#x27;,\ &#x27;pie_cage&#x27;\)\nCylinder&quot;; console.log(s); alert(s);" xlink:title="Cylinder">
<ellipse fill="none" stroke="black" cx="487.87" cy="-720" rx="42.79" ry="18"/>
<text text-anchor="middle" x="487.87" y="-716.3" font-family="Times New Roman,serif" font-size="14.00">pie_cage</text>
</a>
</g>
</g>
<!-- inner_42&#45;&gt;pie_cage_43 -->
<g id="edge15" class="edge">
<title>inner_42&#45;&gt;pie_cage_43</title>
<path fill="none" stroke="black" d="M396.66,-720C407.93,-720 421.36,-720 434.36,-720"/>
<polygon fill="black" stroke="black" points="434.65,-723.5 444.65,-720 434.65,-716.5 434.65,-723.5"/>
</g>
<!-- pie_44 -->
<g id="node17" class="node">
<title>pie_44</title>
<g id="a_node17"><a xlink:href="javascript:s=&quot;\(&#x27;default&#x27;,\ &#x27;tap&#x27;,\ &#x27;inner&#x27;,\ &#x27;pie&#x27;\)\nRotateExtrude&quot;; console.log(s); alert(s);" xlink:title="RotateExtrude">
<ellipse fill="none" stroke="black" cx="487.87" cy="-666" rx="27" ry="18"/>
<text text-anchor="middle" x="487.87" y="-662.3" font-family="Times New Roman,serif" font-size="14.00">pie</text>
</a>
</g>
</g>
<!-- inner_42&#45;&gt;pie_44 -->
<g id="edge16" class="edge">
<title>inner_42&#45;&gt;pie_44</title>
<path fill="none" stroke="black" d="M391.75,-709.59C409.92,-701.27 435.57,-689.51 455.66,-680.3"/>
<polygon fill="black" stroke="black" points="457.39,-683.36 465.02,-676.01 454.47,-677 457.39,-683.36"/>
</g>
<!-- coords_46 -->
<g id="node19" class="node">
<title>coords_46</title>
<g id="a_node19"><a xlink:href="javascript:s=&quot;\(&quot;&#x27;start&#x27;,\ &quot;,\ &#x27;coords&#x27;\)\nCoordinates&quot;; console.log(s); alert(s);" xlink:title="Coordinates">
<ellipse fill="none" stroke="black" cx="254.69" cy="-531" rx="36.29" ry="18"/>
<text text-anchor="middle" x="254.69" y="-527.3" font-family="Times New Roman,serif" font-size="14.00">coords</text>
</a>
</g>
</g>
<!-- 45&#45;&gt;coords_46 -->
<g id="edge18" class="edge">
<title>45&#45;&gt;coords_46</title>
<path fill="none" stroke="black" d="M152.11,-439.16C167.96,-455.98 194.01,-482.78 218.29,-504 220.53,-505.95 222.89,-507.93 225.29,-509.88"/>
<polygon fill="black" stroke="black" points="223.45,-512.88 233.48,-516.31 227.78,-507.38 223.45,-512.88"/>
</g>
<!-- x_57 -->
<g id="node30" class="node">
<title>x_57</title>
<g id="a_node30"><a xlink:href="javascript:s=&quot;\(&quot;&#x27;start&#x27;,\ &quot;,\ &#x27;x&#x27;\)\nText&quot;; console.log(s); alert(s);" xlink:title="Text">
<ellipse fill="none" stroke="black" cx="254.69" cy="-477" rx="27" ry="18"/>
<text text-anchor="middle" x="254.69" y="-473.3" font-family="Times New Roman,serif" font-size="14.00">x</text>
</a>
</g>
</g>
<!-- 45&#45;&gt;x_57 -->
<g id="edge29" class="edge">
<title>45&#45;&gt;x_57</title>
<path fill="none" stroke="black" d="M162.72,-434.85C180.41,-443.05 204.04,-454 222.78,-462.68"/>
<polygon fill="black" stroke="black" points="221.54,-465.96 232.08,-466.99 224.48,-459.61 221.54,-465.96"/>
</g>
<!-- y_58 -->
<g id="node31" class="node">
<title>y_58</title>
<g id="a_node31"><a xlink:href="javascript:s=&quot;\(&quot;&#x27;start&#x27;,\ &quot;,\ &#x27;y&#x27;\)\nText&quot;; console.log(s); alert(s);" xlink:title="Text">
<ellipse fill="none" stroke="black" cx="254.69" cy="-423" rx="27" ry="18"/>
<text text-anchor="middle" x="254.69" y="-419.3" font-family="Times New Roman,serif" font-size="14.00">y</text>
</a>
</g>
</g>
<!-- 45&#45;&gt;y_58 -->
<g id="edge30" class="edge">
<title>45&#45;&gt;y_58</title>
<path fill="none" stroke="black" d="M171.48,-423C185.85,-423 202.58,-423 217.17,-423"/>
<polygon fill="black" stroke="black" points="217.36,-426.5 227.36,-423 217.36,-419.5 217.36,-426.5"/>
</g>
<!-- z_59 -->
<g id="node32" class="node">
<title>z_59</title>
<g id="a_node32"><a xlink:href="javascript:s=&quot;\(&quot;&#x27;start&#x27;,\ &quot;,\ &#x27;z&#x27;\)\nText&quot;; console.log(s); alert(s);" xlink:title="Text">
<ellipse fill="none" stroke="black" cx="254.69" cy="-369" rx="27" ry="18"/>
<text text-anchor="middle" x="254.69" y="-365.3" font-family="Times New Roman,serif" font-size="14.00">z</text>
</a>
</g>
</g>
<!-- 45&#45;&gt;z_59 -->
<g id="edge31" class="edge">
<title>45&#45;&gt;z_59</title>
<path fill="none" stroke="black" d="M162.72,-411.15C180.41,-402.95 204.04,-392 222.78,-383.32"/>
<polygon fill="black" stroke="black" points="224.48,-386.39 232.08,-379.01 221.54,-380.04 224.48,-386.39"/>
</g>
<!-- label_60 -->
<g id="node33" class="node">
<title>label_60</title>
<g id="a_node33"><a xlink:href="javascript:s=&quot;\(&quot;&#x27;start&#x27;,\ &quot;,\ &#x27;label&#x27;\)\nText&quot;; console.log(s); alert(s);" xlink:title="Text">
<ellipse fill="none" stroke="black" cx="254.69" cy="-315" rx="27.1" ry="18"/>
<text text-anchor="middle" x="254.69" y="-311.3" font-family="Times New Roman,serif" font-size="14.00">label</text>
</a>
</g>
</g>
<!-- 45&#45;&gt;label_60 -->
<g id="edge32" class="edge">
<title>45&#45;&gt;label_60</title>
<path fill="none" stroke="black" d="M152.11,-406.84C167.96,-390.02 194.01,-363.22 218.29,-342 221.28,-339.39 224.5,-336.73 227.73,-334.16"/>
<polygon fill="black" stroke="black" points="229.91,-336.9 235.68,-328.01 225.63,-331.37 229.91,-336.9"/>
</g>
<!-- origin_47 -->
<g id="node20" class="node">
<title>origin_47</title>
<g id="a_node20"><a xlink:href="javascript:s=&quot;\(&quot;&#x27;start&#x27;,\ &quot;,\ &#x27;coords&#x27;,\ &#x27;origin&#x27;\)\nCoordinatesCage&quot;; console.log(s); alert(s);" xlink:title="CoordinatesCage">
<ellipse fill="none" stroke="black" cx="368.03" cy="-612" rx="31.4" ry="18"/>
<text text-anchor="middle" x="368.03" y="-608.3" font-family="Times New Roman,serif" font-size="14.00">origin</text>
</a>
</g>
</g>
<!-- coords_46&#45;&gt;origin_47 -->
<g id="edge19" class="edge">
<title>coords_46&#45;&gt;origin_47</title>
<path fill="none" stroke="black" d="M275.18,-546.18C289.41,-557.16 309.26,-572.25 327.09,-585 330.61,-587.52 334.34,-590.13 338.05,-592.68"/>
<polygon fill="black" stroke="black" points="336.33,-595.74 346.57,-598.47 340.27,-589.95 336.33,-595.74"/>
</g>
<!-- x_arrow_48 -->
<g id="node21" class="node">
<title>x_arrow_48</title>
<g id="a_node21"><a xlink:href="javascript:s=&quot;\(&quot;&#x27;start&#x27;,\ &quot;,\ &#x27;coords&#x27;,\ &#x27;x_arrow&#x27;\)\nArrow&quot;; console.log(s); alert(s);" xlink:title="Arrow">
<ellipse fill="none" stroke="black" cx="368.03" cy="-558" rx="40.89" ry="18"/>
<text text-anchor="middle" x="368.03" y="-554.3" font-family="Times New Roman,serif" font-size="14.00">x_arrow</text>
</a>
</g>
</g>
<!-- coords_46&#45;&gt;x_arrow_48 -->
<g id="edge20" class="edge">
<title>coords_46&#45;&gt;x_arrow_48</title>
<path fill="none" stroke="black" d="M287.6,-538.74C298.23,-541.32 310.29,-544.24 321.75,-547.02"/>
<polygon fill="black" stroke="black" points="321.06,-550.45 331.6,-549.41 322.71,-543.65 321.06,-550.45"/>
</g>
<!-- y_arrow_51 -->
<g id="node24" class="node">
<title>y_arrow_51</title>
<g id="a_node24"><a xlink:href="javascript:s=&quot;\(&quot;&#x27;start&#x27;,\ &quot;,\ &#x27;coords&#x27;,\ &#x27;y_arrow&#x27;\)\nArrow&quot;; console.log(s); alert(s);" xlink:title="Arrow">
<ellipse fill="none" stroke="black" cx="368.03" cy="-504" rx="40.89" ry="18"/>
<text text-anchor="middle" x="368.03" y="-500.3" font-family="Times New Roman,serif" font-size="14.00">y_arrow</text>
</a>
</g>
</g>
<!-- coords_46&#45;&gt;y_arrow_51 -->
<g id="edge23" class="edge">
<title>coords_46&#45;&gt;y_arrow_51</title>
<path fill="none" stroke="black" d="M287.6,-523.26C298.23,-520.68 310.29,-517.76 321.75,-514.98"/>
<polygon fill="black" stroke="black" points="322.71,-518.35 331.6,-512.59 321.06,-511.55 322.71,-518.35"/>
</g>
<!-- z_arrow_54 -->
<g id="node27" class="node">
<title>z_arrow_54</title>
<g id="a_node27"><a xlink:href="javascript:s=&quot;\(&quot;&#x27;start&#x27;,\ &quot;,\ &#x27;coords&#x27;,\ &#x27;z_arrow&#x27;\)\nArrow&quot;; console.log(s); alert(s);" xlink:title="Arrow">
<ellipse fill="none" stroke="black" cx="368.03" cy="-396" rx="40.09" ry="18"/>
<text text-anchor="middle" x="368.03" y="-392.3" font-family="Times New Roman,serif" font-size="14.00">z_arrow</text>
</a>
</g>
</g>
<!-- coords_46&#45;&gt;z_arrow_54 -->
<g id="edge26" class="edge">
<title>coords_46&#45;&gt;z_arrow_54</title>
<path fill="none" stroke="black" d="M276.8,-516.58C281.73,-512.76 286.8,-508.46 291.09,-504 315.25,-478.88 337.5,-445.5 351.59,-422.54"/>
<polygon fill="black" stroke="black" points="354.76,-424.05 356.93,-413.68 348.76,-420.44 354.76,-424.05"/>
</g>
<!-- stem_49 -->
<g id="node22" class="node">
<title>stem_49</title>
<g id="a_node22"><a xlink:href="javascript:s=&quot;\(&quot;&#x27;start&#x27;,\ &quot;,\ &#x27;coords&#x27;,\ &#x27;x_arrow&#x27;,\ &#x27;stem&#x27;\)\nCone&quot;; console.log(s); alert(s);" xlink:title="Cone">
<ellipse fill="none" stroke="black" cx="487.87" cy="-612" rx="27.9" ry="18"/>
<text text-anchor="middle" x="487.87" y="-608.3" font-family="Times New Roman,serif" font-size="14.00">stem</text>
</a>
</g>
</g>
<!-- x_arrow_48&#45;&gt;stem_49 -->
<g id="edge21" class="edge">
<title>x_arrow_48&#45;&gt;stem_49</title>
<path fill="none" stroke="black" d="M396.96,-570.8C414.5,-578.83 437.16,-589.22 455.34,-597.55"/>
<polygon fill="black" stroke="black" points="454.11,-600.84 464.66,-601.82 457.02,-594.47 454.11,-600.84"/>
</g>
<!-- head_50 -->
<g id="node23" class="node">
<title>head_50</title>
<g id="a_node23"><a xlink:href="javascript:s=&quot;\(&quot;&#x27;start&#x27;,\ &quot;,\ &#x27;coords&#x27;,\ &#x27;x_arrow&#x27;,\ &#x27;head&#x27;\)\nCone&quot;; console.log(s); alert(s);" xlink:title="Cone">
<ellipse fill="none" stroke="black" cx="487.87" cy="-558" rx="27.9" ry="18"/>
<text text-anchor="middle" x="487.87" y="-554.3" font-family="Times New Roman,serif" font-size="14.00">head</text>
</a>
</g>
</g>
<!-- x_arrow_48&#45;&gt;head_50 -->
<g id="edge22" class="edge">
<title>x_arrow_48&#45;&gt;head_50</title>
<path fill="none" stroke="black" d="M409.26,-558C422.28,-558 436.66,-558 449.47,-558"/>
<polygon fill="black" stroke="black" points="449.8,-561.5 459.8,-558 449.8,-554.5 449.8,-561.5"/>
</g>
<!-- stem_52 -->
<g id="node25" class="node">
<title>stem_52</title>
<g id="a_node25"><a xlink:href="javascript:s=&quot;\(&quot;&#x27;start&#x27;,\ &quot;,\ &#x27;coords&#x27;,\ &#x27;y_arrow&#x27;,\ &#x27;stem&#x27;\)\nCone&quot;; console.log(s); alert(s);" xlink:title="Cone">
<ellipse fill="none" stroke="black" cx="487.87" cy="-504" rx="27.9" ry="18"/>
<text text-anchor="middle" x="487.87" y="-500.3" font-family="Times New Roman,serif" font-size="14.00">stem</text>
</a>
</g>
</g>
<!-- y_arrow_51&#45;&gt;stem_52 -->
<g id="edge24" class="edge">
<title>y_arrow_51&#45;&gt;stem_52</title>
<path fill="none" stroke="black" d="M409.26,-504C422.28,-504 436.66,-504 449.47,-504"/>
<polygon fill="black" stroke="black" points="449.8,-507.5 459.8,-504 449.8,-500.5 449.8,-507.5"/>
</g>
<!-- head_53 -->
<g id="node26" class="node">
<title>head_53</title>
<g id="a_node26"><a xlink:href="javascript:s=&quot;\(&quot;&#x27;start&#x27;,\ &quot;,\ &#x27;coords&#x27;,\ &#x27;y_arrow&#x27;,\ &#x27;head&#x27;\)\nCone&quot;; console.log(s); alert(s);" xlink:title="Cone">
<ellipse fill="none" stroke="black" cx="487.87" cy="-450" rx="27.9" ry="18"/>
<text text-anchor="middle" x="487.87" y="-446.3" font-family="Times New Roman,serif" font-size="14.00">head</text>
</a>
</g>
</g>
<!-- y_arrow_51&#45;&gt;head_53 -->
<g id="edge25" class="edge">
<title>y_arrow_51&#45;&gt;head_53</title>
<path fill="none" stroke="black" d="M396.96,-491.2C414.5,-483.17 437.16,-472.78 455.34,-464.45"/>
<polygon fill="black" stroke="black" points="457.02,-467.53 464.66,-460.18 454.11,-461.16 457.02,-467.53"/>
</g>
<!-- stem_55 -->
<g id="node28" class="node">
<title>stem_55</title>
<g id="a_node28"><a xlink:href="javascript:s=&quot;\(&quot;&#x27;start&#x27;,\ &quot;,\ &#x27;coords&#x27;,\ &#x27;z_arrow&#x27;,\ &#x27;stem&#x27;\)\nCone&quot;; console.log(s); alert(s);" xlink:title="Cone">
<ellipse fill="none" stroke="black" cx="487.87" cy="-396" rx="27.9" ry="18"/>
<text text-anchor="middle" x="487.87" y="-392.3" font-family="Times New Roman,serif" font-size="14.00">stem</text>
</a>
</g>
</g>
<!-- z_arrow_54&#45;&gt;stem_55 -->
<g id="edge27" class="edge">
<title>z_arrow_54&#45;&gt;stem_55</title>
<path fill="none" stroke="black" d="M408.6,-396C421.89,-396 436.67,-396 449.77,-396"/>
<polygon fill="black" stroke="black" points="449.86,-399.5 459.85,-396 449.85,-392.5 449.86,-399.5"/>
</g>
<!-- head_56 -->
<g id="node29" class="node">
<title>head_56</title>
<g id="a_node29"><a xlink:href="javascript:s=&quot;\(&quot;&#x27;start&#x27;,\ &quot;,\ &#x27;coords&#x27;,\ &#x27;z_arrow&#x27;,\ &#x27;head&#x27;\)\nCone&quot;; console.log(s); alert(s);" xlink:title="Cone">
<ellipse fill="none" stroke="black" cx="487.87" cy="-342" rx="27.9" ry="18"/>
<text text-anchor="middle" x="487.87" y="-338.3" font-family="Times New Roman,serif" font-size="14.00">head</text>
</a>
</g>
</g>
<!-- z_arrow_54&#45;&gt;head_56 -->
<g id="edge28" class="edge">
<title>z_arrow_54&#45;&gt;head_56</title>
<path fill="none" stroke="black" d="M396.96,-383.2C414.5,-375.17 437.16,-364.78 455.34,-356.45"/>
<polygon fill="black" stroke="black" points="457.02,-359.53 464.66,-352.18 454.11,-353.16 457.02,-359.53"/>
</g>
<!-- coords_62 -->
<g id="node35" class="node">
<title>coords_62</title>
<g id="a_node35"><a xlink:href="javascript:s=&quot;\(&quot;&#x27;bottom&#x27;,\ &quot;,\ &#x27;coords&#x27;\)\nCoordinates&quot;; console.log(s); alert(s);" xlink:title="Coordinates">
<ellipse fill="none" stroke="black" cx="254.69" cy="-234" rx="36.29" ry="18"/>
<text text-anchor="middle" x="254.69" y="-230.3" font-family="Times New Roman,serif" font-size="14.00">coords</text>
</a>
</g>
</g>
<!-- 61&#45;&gt;coords_62 -->
<g id="edge34" class="edge">
<title>61&#45;&gt;coords_62</title>
<path fill="none" stroke="black" d="M159.62,-168.62C178.05,-181.43 204.3,-199.67 224.39,-213.63"/>
<polygon fill="black" stroke="black" points="222.64,-216.69 232.85,-219.52 226.64,-210.94 222.64,-216.69"/>
</g>
<!-- x_73 -->
<g id="node46" class="node">
<title>x_73</title>
<g id="a_node46"><a xlink:href="javascript:s=&quot;\(&quot;&#x27;bottom&#x27;,\ &quot;,\ &#x27;x&#x27;\)\nText&quot;; console.log(s); alert(s);" xlink:title="Text">
<ellipse fill="none" stroke="black" cx="254.69" cy="-180" rx="27" ry="18"/>
<text text-anchor="middle" x="254.69" y="-176.3" font-family="Times New Roman,serif" font-size="14.00">x</text>
</a>
</g>
</g>
<!-- 61&#45;&gt;x_73 -->
<g id="edge45" class="edge">
<title>61&#45;&gt;x_73</title>
<path fill="none" stroke="black" d="M176.28,-162.07C190.08,-165.26 205.5,-168.84 218.92,-171.95"/>
<polygon fill="black" stroke="black" points="218.2,-175.37 228.74,-174.22 219.78,-168.55 218.2,-175.37"/>
</g>
<!-- y_74 -->
<g id="node47" class="node">
<title>y_74</title>
<g id="a_node47"><a xlink:href="javascript:s=&quot;\(&quot;&#x27;bottom&#x27;,\ &quot;,\ &#x27;y&#x27;\)\nText&quot;; console.log(s); alert(s);" xlink:title="Text">
<ellipse fill="none" stroke="black" cx="254.69" cy="-126" rx="27" ry="18"/>
<text text-anchor="middle" x="254.69" y="-122.3" font-family="Times New Roman,serif" font-size="14.00">y</text>
</a>
</g>
</g>
<!-- 61&#45;&gt;y_74 -->
<g id="edge46" class="edge">
<title>61&#45;&gt;y_74</title>
<path fill="none" stroke="black" d="M176.28,-143.93C190.08,-140.74 205.5,-137.16 218.92,-134.05"/>
<polygon fill="black" stroke="black" points="219.78,-137.45 228.74,-131.78 218.2,-130.63 219.78,-137.45"/>
</g>
<!-- z_75 -->
<g id="node48" class="node">
<title>z_75</title>
<g id="a_node48"><a xlink:href="javascript:s=&quot;\(&quot;&#x27;bottom&#x27;,\ &quot;,\ &#x27;z&#x27;\)\nText&quot;; console.log(s); alert(s);" xlink:title="Text">
<ellipse fill="none" stroke="black" cx="254.69" cy="-72" rx="27" ry="18"/>
<text text-anchor="middle" x="254.69" y="-68.3" font-family="Times New Roman,serif" font-size="14.00">z</text>
</a>
</g>
</g>
<!-- 61&#45;&gt;z_75 -->
<g id="edge47" class="edge">
<title>61&#45;&gt;z_75</title>
<path fill="none" stroke="black" d="M159.62,-137.38C178.83,-124.03 206.53,-104.78 226.89,-90.62"/>
<polygon fill="black" stroke="black" points="228.91,-93.48 235.13,-84.9 224.92,-87.74 228.91,-93.48"/>
</g>
<!-- label_76 -->
<g id="node49" class="node">
<title>label_76</title>
<g id="a_node49"><a xlink:href="javascript:s=&quot;\(&quot;&#x27;bottom&#x27;,\ &quot;,\ &#x27;label&#x27;\)\nText&quot;; console.log(s); alert(s);" xlink:title="Text">
<ellipse fill="none" stroke="black" cx="254.69" cy="-18" rx="27.1" ry="18"/>
<text text-anchor="middle" x="254.69" y="-14.3" font-family="Times New Roman,serif" font-size="14.00">label</text>
</a>
</g>
</g>
<!-- 61&#45;&gt;label_76 -->
<g id="edge48" class="edge">
<title>61&#45;&gt;label_76</title>
<path fill="none" stroke="black" d="M148.19,-135.38C162.7,-112.99 189.71,-73.79 218.29,-45 220.95,-42.32 223.89,-39.68 226.9,-37.16"/>
<polygon fill="black" stroke="black" points="229.22,-39.78 234.89,-30.83 224.88,-34.29 229.22,-39.78"/>
</g>
<!-- origin_63 -->
<g id="node36" class="node">
<title>origin_63</title>
<g id="a_node36"><a xlink:href="javascript:s=&quot;\(&quot;&#x27;bottom&#x27;,\ &quot;,\ &#x27;coords&#x27;,\ &#x27;origin&#x27;\)\nCoordinatesCage&quot;; console.log(s); alert(s);" xlink:title="CoordinatesCage">
<ellipse fill="none" stroke="black" cx="368.03" cy="-288" rx="31.4" ry="18"/>
<text text-anchor="middle" x="368.03" y="-284.3" font-family="Times New Roman,serif" font-size="14.00">origin</text>
</a>
</g>
</g>
<!-- coords_62&#45;&gt;origin_63 -->
<g id="edge35" class="edge">
<title>coords_62&#45;&gt;origin_63</title>
<path fill="none" stroke="black" d="M281.23,-246.39C297.05,-254.06 317.51,-263.98 334.49,-272.22"/>
<polygon fill="black" stroke="black" points="332.98,-275.38 343.51,-276.59 336.04,-269.08 332.98,-275.38"/>
</g>
<!-- x_arrow_64 -->
<g id="node37" class="node">
<title>x_arrow_64</title>
<g id="a_node37"><a xlink:href="javascript:s=&quot;\(&quot;&#x27;bottom&#x27;,\ &quot;,\ &#x27;coords&#x27;,\ &#x27;x_arrow&#x27;\)\nArrow&quot;; console.log(s); alert(s);" xlink:title="Arrow">
<ellipse fill="none" stroke="black" cx="368.03" cy="-234" rx="40.89" ry="18"/>
<text text-anchor="middle" x="368.03" y="-230.3" font-family="Times New Roman,serif" font-size="14.00">x_arrow</text>
</a>
</g>
</g>
<!-- coords_62&#45;&gt;x_arrow_64 -->
<g id="edge36" class="edge">
<title>coords_62&#45;&gt;x_arrow_64</title>
<path fill="none" stroke="black" d="M291.22,-234C299.28,-234 307.98,-234 316.52,-234"/>
<polygon fill="black" stroke="black" points="316.8,-237.5 326.8,-234 316.8,-230.5 316.8,-237.5"/>
</g>
<!-- y_arrow_67 -->
<g id="node40" class="node">
<title>y_arrow_67</title>
<g id="a_node40"><a xlink:href="javascript:s=&quot;\(&quot;&#x27;bottom&#x27;,\ &quot;,\ &#x27;coords&#x27;,\ &#x27;y_arrow&#x27;\)\nArrow&quot;; console.log(s); alert(s);" xlink:title="Arrow">
<ellipse fill="none" stroke="black" cx="368.03" cy="-180" rx="40.89" ry="18"/>
<text text-anchor="middle" x="368.03" y="-176.3" font-family="Times New Roman,serif" font-size="14.00">y_arrow</text>
</a>
</g>
</g>
<!-- coords_62&#45;&gt;y_arrow_67 -->
<g id="edge39" class="edge">
<title>coords_62&#45;&gt;y_arrow_67</title>
<path fill="none" stroke="black" d="M281.23,-221.61C295.83,-214.53 314.38,-205.53 330.5,-197.72"/>
<polygon fill="black" stroke="black" points="332.19,-200.79 339.66,-193.27 329.14,-194.49 332.19,-200.79"/>
</g>
<!-- z_arrow_70 -->
<g id="node43" class="node">
<title>z_arrow_70</title>
<g id="a_node43"><a xlink:href="javascript:s=&quot;\(&quot;&#x27;bottom&#x27;,\ &quot;,\ &#x27;coords&#x27;,\ &#x27;z_arrow&#x27;\)\nArrow&quot;; console.log(s); alert(s);" xlink:title="Arrow">
<ellipse fill="none" stroke="black" cx="368.03" cy="-72" rx="40.09" ry="18"/>
<text text-anchor="middle" x="368.03" y="-68.3" font-family="Times New Roman,serif" font-size="14.00">z_arrow</text>
</a>
</g>
</g>
<!-- coords_62&#45;&gt;z_arrow_70 -->
<g id="edge42" class="edge">
<title>coords_62&#45;&gt;z_arrow_70</title>
<path fill="none" stroke="black" d="M277.49,-219.59C282.3,-215.83 287.13,-211.55 291.09,-207 306.53,-189.24 336.36,-132.65 353.68,-98.64"/>
<polygon fill="black" stroke="black" points="356.82,-100.19 358.22,-89.69 350.57,-97.03 356.82,-100.19"/>
</g>
<!-- stem_65 -->
<g id="node38" class="node">
<title>stem_65</title>
<g id="a_node38"><a xlink:href="javascript:s=&quot;\(&quot;&#x27;bottom&#x27;,\ &quot;,\ &#x27;coords&#x27;,\ &#x27;x_arrow&#x27;,\ &#x27;stem&#x27;\)\nCone&quot;; console.log(s); alert(s);" xlink:title="Cone">
<ellipse fill="none" stroke="black" cx="487.87" cy="-288" rx="27.9" ry="18"/>
<text text-anchor="middle" x="487.87" y="-284.3" font-family="Times New Roman,serif" font-size="14.00">stem</text>
</a>
</g>
</g>
<!-- x_arrow_64&#45;&gt;stem_65 -->
<g id="edge37" class="edge">
<title>x_arrow_64&#45;&gt;stem_65</title>
<path fill="none" stroke="black" d="M396.96,-246.8C414.5,-254.83 437.16,-265.22 455.34,-273.55"/>
<polygon fill="black" stroke="black" points="454.11,-276.84 464.66,-277.82 457.02,-270.47 454.11,-276.84"/>
</g>
<!-- head_66 -->
<g id="node39" class="node">
<title>head_66</title>
<g id="a_node39"><a xlink:href="javascript:s=&quot;\(&quot;&#x27;bottom&#x27;,\ &quot;,\ &#x27;coords&#x27;,\ &#x27;x_arrow&#x27;,\ &#x27;head&#x27;\)\nCone&quot;; console.log(s); alert(s);" xlink:title="Cone">
<ellipse fill="none" stroke="black" cx="487.87" cy="-234" rx="27.9" ry="18"/>
<text text-anchor="middle" x="487.87" y="-230.3" font-family="Times New Roman,serif" font-size="14.00">head</text>
</a>
</g>
</g>
<!-- x_arrow_64&#45;&gt;head_66 -->
<g id="edge38" class="edge">
<title>x_arrow_64&#45;&gt;head_66</title>
<path fill="none" stroke="black" d="M409.26,-234C422.28,-234 436.66,-234 449.47,-234"/>
<polygon fill="black" stroke="black" points="449.8,-237.5 459.8,-234 449.8,-230.5 449.8,-237.5"/>
</g>
<!-- stem_68 -->
<g id="node41" class="node">
<title>stem_68</title>
<g id="a_node41"><a xlink:href="javascript:s=&quot;\(&quot;&#x27;bottom&#x27;,\ &quot;,\ &#x27;coords&#x27;,\ &#x27;y_arrow&#x27;,\ &#x27;stem&#x27;\)\nCone&quot;; console.log(s); alert(s);" xlink:title="Cone">
<ellipse fill="none" stroke="black" cx="487.87" cy="-180" rx="27.9" ry="18"/>
<text text-anchor="middle" x="487.87" y="-176.3" font-family="Times New Roman,serif" font-size="14.00">stem</text>
</a>
</g>
</g>
<!-- y_arrow_67&#45;&gt;stem_68 -->
<g id="edge40" class="edge">
<title>y_arrow_67&#45;&gt;stem_68</title>
<path fill="none" stroke="black" d="M409.26,-180C422.28,-180 436.66,-180 449.47,-180"/>
<polygon fill="black" stroke="black" points="449.8,-183.5 459.8,-180 449.8,-176.5 449.8,-183.5"/>
</g>
<!-- head_69 -->
<g id="node42" class="node">
<title>head_69</title>
<g id="a_node42"><a xlink:href="javascript:s=&quot;\(&quot;&#x27;bottom&#x27;,\ &quot;,\ &#x27;coords&#x27;,\ &#x27;y_arrow&#x27;,\ &#x27;head&#x27;\)\nCone&quot;; console.log(s); alert(s);" xlink:title="Cone">
<ellipse fill="none" stroke="black" cx="487.87" cy="-126" rx="27.9" ry="18"/>
<text text-anchor="middle" x="487.87" y="-122.3" font-family="Times New Roman,serif" font-size="14.00">head</text>
</a>
</g>
</g>
<!-- y_arrow_67&#45;&gt;head_69 -->
<g id="edge41" class="edge">
<title>y_arrow_67&#45;&gt;head_69</title>
<path fill="none" stroke="black" d="M396.96,-167.2C414.5,-159.17 437.16,-148.78 455.34,-140.45"/>
<polygon fill="black" stroke="black" points="457.02,-143.53 464.66,-136.18 454.11,-137.16 457.02,-143.53"/>
</g>
<!-- stem_71 -->
<g id="node44" class="node">
<title>stem_71</title>
<g id="a_node44"><a xlink:href="javascript:s=&quot;\(&quot;&#x27;bottom&#x27;,\ &quot;,\ &#x27;coords&#x27;,\ &#x27;z_arrow&#x27;,\ &#x27;stem&#x27;\)\nCone&quot;; console.log(s); alert(s);" xlink:title="Cone">
<ellipse fill="none" stroke="black" cx="487.87" cy="-72" rx="27.9" ry="18"/>
<text text-anchor="middle" x="487.87" y="-68.3" font-family="Times New Roman,serif" font-size="14.00">stem</text>
</a>
</g>
</g>
<!-- z_arrow_70&#45;&gt;stem_71 -->
<g id="edge43" class="edge">
<title>z_arrow_70&#45;&gt;stem_71</title>
<path fill="none" stroke="black" d="M408.6,-72C421.89,-72 436.67,-72 449.77,-72"/>
<polygon fill="black" stroke="black" points="449.86,-75.5 459.85,-72 449.85,-68.5 449.86,-75.5"/>
</g>
<!-- head_72 -->
<g id="node45" class="node">
<title>head_72</title>
<g id="a_node45"><a xlink:href="javascript:s=&quot;\(&quot;&#x27;bottom&#x27;,\ &quot;,\ &#x27;coords&#x27;,\ &#x27;z_arrow&#x27;,\ &#x27;head&#x27;\)\nCone&quot;; console.log(s); alert(s);" xlink:title="Cone">
<ellipse fill="none" stroke="black" cx="487.87" cy="-18" rx="27.9" ry="18"/>
<text text-anchor="middle" x="487.87" y="-14.3" font-family="Times New Roman,serif" font-size="14.00">head</text>
</a>
</g>
</g>
<!-- z_arrow_70&#45;&gt;head_72 -->
<g id="edge44" class="edge">
<title>z_arrow_70&#45;&gt;head_72</title>
<path fill="none" stroke="black" d="M396.96,-59.2C414.5,-51.17 437.16,-40.78 455.34,-32.45"/>
<polygon fill="black" stroke="black" points="457.02,-35.53 464.66,-28.18 454.11,-29.16 457.02,-35.53"/>
</g>
</g>
</svg>
