solid OpenSCAD_Model
  facet normal -0.9876883405951378 -0.1564344650402307 0
    outer loop
      vertex -4.184648671698676 -1.3596747752497682 -16.009999999999998
      vertex -4.4 0 -15.969999999999997
      vertex -4.4 0 -16.009999999999998
    endloop
  endfacet
  facet normal -0.7071067811865478 -0.7071067811865471 0
    outer loop
      vertex -3.559674775249769 -2.5862551100868814 -16.009999999999998
      vertex -2.5862551100868827 -3.5596747752497686 -16.009999999999998
      vertex -3.559674775249769 -2.5862551100868814 0.009999999999999787
    endloop
  endfacet
  facet normal -0.7071067811865478 -0.7071067811865471 0
    outer loop
      vertex -2.5862551100868827 -3.5596747752497686 -16.009999999999998
      vertex -2.5862551100868827 -3.5596747752497686 0.009999999999999787
      vertex -3.559674775249769 -2.5862551100868814 0.009999999999999787
    endloop
  endfacet
  facet normal 0 0 1
    outer loop
      vertex -3.559674775249769 -2.5862551100868814 0.009999999999999787
      vertex -2.5862551100868827 -3.5596747752497686 0.009999999999999787
      vertex -0.8228993532094625 -1.1326237921249263 0.009999999999999787
    endloop
  endfacet
  facet normal -0.8910065241883678 -0.453990499739547 0
    outer loop
      vertex -3.559674775249769 -2.5862551100868814 -16.009999999999998
      vertex -4.184648671698676 -1.3596747752497682 0.009999999999999787
      vertex -4.184648671698676 -1.3596747752497682 -16.009999999999998
    endloop
  endfacet
  facet normal -0.9876883405951378 -0.1564344650402307 0
    outer loop
      vertex -4.184648671698676 -1.3596747752497682 -16.009999999999998
      vertex -4.4 0 0.009999999999999787
      vertex -4.4 0 -15.969999999999997
    endloop
  endfacet
  facet normal -0.8910065241883678 -0.453990499739547 0
    outer loop
      vertex -3.559674775249769 -2.5862551100868814 -16.009999999999998
      vertex -3.559674775249769 -2.5862551100868814 0.009999999999999787
      vertex -4.184648671698676 -1.3596747752497682 0.009999999999999787
    endloop
  endfacet
  facet normal -0.9876883405951378 -0.1564344650402307 0
    outer loop
      vertex -4.184648671698676 -1.3596747752497682 -16.009999999999998
      vertex -4.184648671698676 -1.3596747752497682 0.009999999999999787
      vertex -4.4 0 0.009999999999999787
    endloop
  endfacet
  facet normal 0 0 1
    outer loop
      vertex -4.184648671698676 -1.3596747752497682 0.009999999999999787
      vertex -1.331479122813215 -0.4326237921249262 0.009999999999999787
      vertex -4.4 0 0.009999999999999787
    endloop
  endfacet
  facet normal 0 0 1
    outer loop
      vertex -3.559674775249769 -2.5862551100868814 0.009999999999999787
      vertex -1.331479122813215 -0.4326237921249262 0.009999999999999787
      vertex -4.184648671698676 -1.3596747752497682 0.009999999999999787
    endloop
  endfacet
  facet normal 0 0 1
    outer loop
      vertex -4.4 0 0.009999999999999787
      vertex -1.331479122813215 -0.4326237921249262 0.009999999999999787
      vertex -1.4 0 0.009999999999999787
    endloop
  endfacet
  facet normal -0.4539904997395467 -0.891006524188368 0
    outer loop
      vertex -2.5862551100868827 -3.5596747752497686 -16.009999999999998
      vertex -1.3596747752497693 -4.1846486716986755 -16.009999999999998
      vertex -1.3596747752497693 -4.1846486716986755 0.009999999999999787
    endloop
  endfacet
  facet normal -0.1564344650402312 -0.9876883405951377 0
    outer loop
      vertex -1.3596747752497693 -4.1846486716986755 -16.009999999999998
      vertex 0 -4.4 -16.009999999999998
      vertex 0 -4.4 0.009999999999999787
    endloop
  endfacet
  facet normal -0.4539904997395467 -0.891006524188368 0
    outer loop
      vertex -2.5862551100868827 -3.5596747752497686 -16.009999999999998
      vertex -1.3596747752497693 -4.1846486716986755 0.009999999999999787
      vertex -2.5862551100868827 -3.5596747752497686 0.009999999999999787
    endloop
  endfacet
  facet normal 0 0 1
    outer loop
      vertex -2.5862551100868827 -3.5596747752497686 0.009999999999999787
      vertex -1.3596747752497693 -4.1846486716986755 0.009999999999999787
      vertex -0.8228993532094625 -1.1326237921249263 0.009999999999999787
    endloop
  endfacet
  facet normal -0.1564344650402312 -0.9876883405951377 0
    outer loop
      vertex -1.3596747752497693 -4.1846486716986755 -16.009999999999998
      vertex 0 -4.4 0.009999999999999787
      vertex -1.3596747752497693 -4.1846486716986755 0.009999999999999787
    endloop
  endfacet
  facet normal 0 0 1
    outer loop
      vertex -1.3596747752497693 -4.1846486716986755 0.009999999999999787
      vertex 0 -4.4 0.009999999999999787
      vertex 0 -1.4 0.009999999999999787
    endloop
  endfacet
  facet normal 0 0 1
    outer loop
      vertex -1.3596747752497693 -4.1846486716986755 0.009999999999999787
      vertex -0.4326237921249266 -1.3314791228132148 0.009999999999999787
      vertex -0.8228993532094625 -1.1326237921249263 0.009999999999999787
    endloop
  endfacet
  facet normal 0 0 1
    outer loop
      vertex -1.3596747752497693 -4.1846486716986755 0.009999999999999787
      vertex 0 -1.4 0.009999999999999787
      vertex -0.4326237921249266 -1.3314791228132148 0.009999999999999787
    endloop
  endfacet
  facet normal 0 0 1
    outer loop
      vertex -3.559674775249769 -2.5862551100868814 0.009999999999999787
      vertex -1.1326237921249263 -0.8228993532094621 0.009999999999999787
      vertex -1.331479122813215 -0.4326237921249262 0.009999999999999787
    endloop
  endfacet
  facet normal 0 0 1
    outer loop
      vertex -3.559674775249769 -2.5862551100868814 0.009999999999999787
      vertex -0.8228993532094625 -1.1326237921249263 0.009999999999999787
      vertex -1.1326237921249263 -0.8228993532094621 0.009999999999999787
    endloop
  endfacet
  facet normal -0.9876883405951378 0.15643446504023123 0
    outer loop
      vertex -4.4 0 -16.009999999999998
      vertex -4.4 0 -15.969999999999997
      vertex -4.1846486716986755 1.359674775249769 0.009999999999999787
    endloop
  endfacet
  facet normal -0.9876883405951377 0.15643446504023123 0
    outer loop
      vertex -4.4 0 -16.009999999999998
      vertex -4.1846486716986755 1.359674775249769 0.009999999999999787
      vertex -4.1846486716986755 1.359674775249769 -16.009999999999998
    endloop
  endfacet
  facet normal -0.891006524188368 0.45399049973954664 0
    outer loop
      vertex -4.1846486716986755 1.359674775249769 -16.009999999999998
      vertex -3.5596747752497686 2.5862551100868827 0.009999999999999787
      vertex -3.5596747752497686 2.5862551100868827 -16.009999999999998
    endloop
  endfacet
  facet normal -0.9876883405951375 0.15643446504023123 0
    outer loop
      vertex -4.4 0 -15.969999999999997
      vertex -4.4 0 0.009999999999999787
      vertex -4.1846486716986755 1.359674775249769 0.009999999999999787
    endloop
  endfacet
  facet normal 0 0 1
    outer loop
      vertex -4.4 0 0.009999999999999787
      vertex -1.4 0 0.009999999999999787
      vertex -4.1846486716986755 1.359674775249769 0.009999999999999787
    endloop
  endfacet
  facet normal -0.891006524188368 0.45399049973954664 0
    outer loop
      vertex -4.1846486716986755 1.359674775249769 -16.009999999999998
      vertex -4.1846486716986755 1.359674775249769 0.009999999999999787
      vertex -3.5596747752497686 2.5862551100868827 0.009999999999999787
    endloop
  endfacet
  facet normal 0 0 1
    outer loop
      vertex -4.1846486716986755 1.359674775249769 0.009999999999999787
      vertex -1.4 0 0.009999999999999787
      vertex -1.3314791228132148 0.43262379212492647 0.009999999999999787
    endloop
  endfacet
  facet normal 0 0 1
    outer loop
      vertex -4.1846486716986755 1.359674775249769 0.009999999999999787
      vertex -1.3314791228132148 0.43262379212492647 0.009999999999999787
      vertex -1.1326237921249263 0.8228993532094625 0.009999999999999787
    endloop
  endfacet
  facet normal 0 0 1
    outer loop
      vertex -4.1846486716986755 1.359674775249769 0.009999999999999787
      vertex -1.1326237921249263 0.8228993532094625 0.009999999999999787
      vertex -3.5596747752497686 2.5862551100868827 0.009999999999999787
    endloop
  endfacet
  facet normal -0.7071067811865471 0.7071067811865478 0
    outer loop
      vertex -3.5596747752497686 2.5862551100868827 -16.009999999999998
      vertex -2.5862551100868814 3.559674775249769 0.009999999999999787
      vertex -2.5862551100868814 3.559674775249769 -16.009999999999998
    endloop
  endfacet
  facet normal -0.7071067811865471 0.7071067811865478 0
    outer loop
      vertex -3.5596747752497686 2.5862551100868827 -16.009999999999998
      vertex -3.5596747752497686 2.5862551100868827 0.009999999999999787
      vertex -2.5862551100868814 3.559674775249769 0.009999999999999787
    endloop
  endfacet
  facet normal 0 0 1
    outer loop
      vertex -3.5596747752497686 2.5862551100868827 0.009999999999999787
      vertex -1.1326237921249263 0.8228993532094625 0.009999999999999787
      vertex -2.5862551100868814 3.559674775249769 0.009999999999999787
    endloop
  endfacet
  facet normal 0 0 1
    outer loop
      vertex -2.5862551100868814 3.559674775249769 0.009999999999999787
      vertex -1.1326237921249263 0.8228993532094625 0.009999999999999787
      vertex -0.8228993532094621 1.1326237921249263 0.009999999999999787
    endloop
  endfacet
  facet normal 0 0 1
    outer loop
      vertex -2.5862551100868814 3.559674775249769 0.009999999999999787
      vertex -0.8228993532094621 1.1326237921249263 0.009999999999999787
      vertex -0.43262379212492624 1.331479122813215 0.009999999999999787
    endloop
  endfacet
  facet normal -0.453990499739547 0.8910065241883677 0
    outer loop
      vertex -2.5862551100868814 3.559674775249769 -16.009999999999998
      vertex -2.5862551100868814 3.559674775249769 0.009999999999999787
      vertex -1.3596747752497684 4.184648671698676 -16.009999999999998
    endloop
  endfacet
  facet normal -0.1564344650402307 0.9876883405951378 0
    outer loop
      vertex -1.3596747752497684 4.184648671698676 -16.009999999999998
      vertex -1.3596747752497684 4.184648671698676 0.009999999999999787
      vertex 0 4.4 -16.009999999999998
    endloop
  endfacet
  facet normal 0 0 1
    outer loop
      vertex -2.5862551100868814 3.559674775249769 0.009999999999999787
      vertex -0.43262379212492624 1.331479122813215 0.009999999999999787
      vertex -1.3596747752497684 4.184648671698676 0.009999999999999787
    endloop
  endfacet
  facet normal -0.453990499739547 0.8910065241883677 0
    outer loop
      vertex -1.3596747752497684 4.184648671698676 -16.009999999999998
      vertex -2.5862551100868814 3.559674775249769 0.009999999999999787
      vertex -1.3596747752497684 4.184648671698676 0.009999999999999787
    endloop
  endfacet
  facet normal 0 0 1
    outer loop
      vertex 0 4.4 0.009999999999999787
      vertex -0.43262379212492624 1.331479122813215 0.009999999999999787
      vertex 0 1.4 0.009999999999999787
    endloop
  endfacet
  facet normal -0.1564344650402307 0.9876883405951378 0
    outer loop
      vertex -1.3596747752497684 4.184648671698676 0.009999999999999787
      vertex 0 4.4 0.009999999999999787
      vertex 0 4.4 -16.009999999999998
    endloop
  endfacet
  facet normal 0 0 1
    outer loop
      vertex -1.3596747752497684 4.184648671698676 0.009999999999999787
      vertex -0.43262379212492624 1.331479122813215 0.009999999999999787
      vertex 0 4.4 0.009999999999999787
    endloop
  endfacet
  facet normal 0.15643446504023073 -0.9876883405951378 0
    outer loop
      vertex 0 -4.4 -16.009999999999998
      vertex 1.359674775249768 -4.184648671698676 -16.009999999999998
      vertex 1.359674775249768 -4.184648671698676 0.009999999999999787
    endloop
  endfacet
  facet normal 0.45399049973954675 -0.8910065241883678 0
    outer loop
      vertex 1.359674775249768 -4.184648671698676 -16.009999999999998
      vertex 2.586255110086881 -3.5596747752497695 -16.009999999999998
      vertex 2.586255110086881 -3.5596747752497695 0.009999999999999787
    endloop
  endfacet
  facet normal 0.15643446504023073 -0.9876883405951378 0
    outer loop
      vertex 0 -4.4 -16.009999999999998
      vertex 1.359674775249768 -4.184648671698676 0.009999999999999787
      vertex 0 -4.4 0.009999999999999787
    endloop
  endfacet
  facet normal 0 0 1
    outer loop
      vertex 0 -4.4 0.009999999999999787
      vertex 1.359674775249768 -4.184648671698676 0.009999999999999787
      vertex 0.4326237921249261 -1.331479122813215 0.009999999999999787
    endloop
  endfacet
  facet normal 0 0 1
    outer loop
      vertex 0 -4.4 0.009999999999999787
      vertex 0.4326237921249261 -1.331479122813215 0.009999999999999787
      vertex 0 -1.4 0.009999999999999787
    endloop
  endfacet
  facet normal 0.45399049973954675 -0.8910065241883678 0
    outer loop
      vertex 1.359674775249768 -4.184648671698676 -16.009999999999998
      vertex 2.586255110086881 -3.5596747752497695 0.009999999999999787
      vertex 1.359674775249768 -4.184648671698676 0.009999999999999787
    endloop
  endfacet
  facet normal 0 0 1
    outer loop
      vertex 1.359674775249768 -4.184648671698676 0.009999999999999787
      vertex 2.586255110086881 -3.5596747752497695 0.009999999999999787
      vertex 0.4326237921249261 -1.331479122813215 0.009999999999999787
    endloop
  endfacet
  facet normal 0 0 1
    outer loop
      vertex 2.586255110086881 -3.5596747752497695 0.009999999999999787
      vertex 0.822899353209462 -1.1326237921249265 0.009999999999999787
      vertex 0.4326237921249261 -1.331479122813215 0.009999999999999787
    endloop
  endfacet
  facet normal 0 0 1
    outer loop
      vertex 2.586255110086881 -3.5596747752497695 0.009999999999999787
      vertex 1.1326237921249263 -0.8228993532094626 0.009999999999999787
      vertex 0.822899353209462 -1.1326237921249265 0.009999999999999787
    endloop
  endfacet
  facet normal 0.707106781186547 -0.707106781186548 0
    outer loop
      vertex 2.586255110086881 -3.5596747752497695 -16.009999999999998
      vertex 3.5596747752497686 -2.586255110086883 -16.009999999999998
      vertex 2.586255110086881 -3.5596747752497695 0.009999999999999787
    endloop
  endfacet
  facet normal 0.707106781186547 -0.707106781186548 0
    outer loop
      vertex 3.5596747752497686 -2.586255110086883 -16.009999999999998
      vertex 3.5596747752497686 -2.586255110086883 0.009999999999999787
      vertex 2.586255110086881 -3.5596747752497695 0.009999999999999787
    endloop
  endfacet
  facet normal 0 0 1
    outer loop
      vertex 2.586255110086881 -3.5596747752497695 0.009999999999999787
      vertex 3.5596747752497686 -2.586255110086883 0.009999999999999787
      vertex 1.1326237921249263 -0.8228993532094626 0.009999999999999787
    endloop
  endfacet
  facet normal 0.891006524188368 -0.4539904997395467 0
    outer loop
      vertex 3.5596747752497686 -2.586255110086883 -16.009999999999998
      vertex 4.1846486716986755 -1.3596747752497698 -16.009999999999998
      vertex 3.5596747752497686 -2.586255110086883 0.009999999999999787
    endloop
  endfacet
  facet normal 0.9876883405951377 -0.15643446504023115 0
    outer loop
      vertex 4.1846486716986755 -1.3596747752497698 -16.009999999999998
      vertex 4.4 0 -16.009999999999998
      vertex 4.1846486716986755 -1.3596747752497698 0.009999999999999787
    endloop
  endfacet
  facet normal 0 0 1
    outer loop
      vertex 3.5596747752497686 -2.586255110086883 0.009999999999999787
      vertex 4.1846486716986755 -1.3596747752497698 0.009999999999999787
      vertex 1.1326237921249263 -0.8228993532094626 0.009999999999999787
    endloop
  endfacet
  facet normal 0 0 1
    outer loop
      vertex 4.1846486716986755 -1.3596747752497698 0.009999999999999787
      vertex 1.3314791228132148 -0.43262379212492674 0.009999999999999787
      vertex 1.1326237921249263 -0.8228993532094626 0.009999999999999787
    endloop
  endfacet
  facet normal 0 0 1
    outer loop
      vertex 4.1846486716986755 -1.3596747752497698 0.009999999999999787
      vertex 1.4 0 0.009999999999999787
      vertex 1.3314791228132148 -0.43262379212492674 0.009999999999999787
    endloop
  endfacet
  facet normal 0.891006524188368 -0.4539904997395467 0
    outer loop
      vertex 4.1846486716986755 -1.3596747752497698 -16.009999999999998
      vertex 4.1846486716986755 -1.3596747752497698 0.009999999999999787
      vertex 3.5596747752497686 -2.586255110086883 0.009999999999999787
    endloop
  endfacet
  facet normal 0.9876883405951377 -0.15643446504023115 0
    outer loop
      vertex 4.1846486716986755 -1.3596747752497698 0.009999999999999787
      vertex 4.4 0 -16.009999999999998
      vertex 4.4 0 0.009999999999999787
    endloop
  endfacet
  facet normal 0 0 1
    outer loop
      vertex 4.1846486716986755 -1.3596747752497698 0.009999999999999787
      vertex 4.4 0 0.009999999999999787
      vertex 1.4 0 0.009999999999999787
    endloop
  endfacet
  facet normal 0 0 1
    outer loop
      vertex 2.586255110086882 3.559674775249769 0.009999999999999787
      vertex 0.43262379212492647 1.3314791228132148 0.009999999999999787
      vertex 0.8228993532094624 1.1326237921249263 0.009999999999999787
    endloop
  endfacet
  facet normal 0 0 1
    outer loop
      vertex 3.559674775249769 2.586255110086882 0.009999999999999787
      vertex 0.8228993532094624 1.1326237921249263 0.009999999999999787
      vertex 1.1326237921249263 0.8228993532094623 0.009999999999999787
    endloop
  endfacet
  facet normal 0 0 1
    outer loop
      vertex 3.559674775249769 2.586255110086882 0.009999999999999787
      vertex 1.1326237921249263 0.8228993532094623 0.009999999999999787
      vertex 1.3314791228132148 0.4326237921249263 0.009999999999999787
    endloop
  endfacet
  facet normal 0.15643446504023126 0.9876883405951377 0
    outer loop
      vertex 0 4.4 -16.009999999999998
      vertex 0 4.4 0.009999999999999787
      vertex 1.3596747752497689 4.1846486716986755 -16.009999999999998
    endloop
  endfacet
  facet normal 0.4539904997395465 0.891006524188368 0
    outer loop
      vertex 1.3596747752497689 4.1846486716986755 -16.009999999999998
      vertex 1.3596747752497689 4.1846486716986755 0.009999999999999787
      vertex 2.586255110086882 3.559674775249769 -16.009999999999998
    endloop
  endfacet
  facet normal 0 0 1
    outer loop
      vertex 1.3596747752497689 4.1846486716986755 0.009999999999999787
      vertex 0 1.4 0.009999999999999787
      vertex 0.43262379212492647 1.3314791228132148 0.009999999999999787
    endloop
  endfacet
  facet normal 0.15643446504023126 0.9876883405951377 0
    outer loop
      vertex 1.3596747752497689 4.1846486716986755 -16.009999999999998
      vertex 0 4.4 0.009999999999999787
      vertex 1.3596747752497689 4.1846486716986755 0.009999999999999787
    endloop
  endfacet
  facet normal 0 0 1
    outer loop
      vertex 0 4.4 0.009999999999999787
      vertex 0 1.4 0.009999999999999787
      vertex 1.3596747752497689 4.1846486716986755 0.009999999999999787
    endloop
  endfacet
  facet normal 0 0 1
    outer loop
      vertex 1.3596747752497689 4.1846486716986755 0.009999999999999787
      vertex 0.43262379212492647 1.3314791228132148 0.009999999999999787
      vertex 2.586255110086882 3.559674775249769 0.009999999999999787
    endloop
  endfacet
  facet normal 0.4539904997395465 0.891006524188368 0
    outer loop
      vertex 2.586255110086882 3.559674775249769 -16.009999999999998
      vertex 1.3596747752497689 4.1846486716986755 0.009999999999999787
      vertex 2.586255110086882 3.559674775249769 0.009999999999999787
    endloop
  endfacet
  facet normal 0.9876883405951377 0.15643446504023129 0
    outer loop
      vertex 4.4 0 -16.009999999999998
      vertex 4.1846486716986755 1.3596747752497687 -16.009999999999998
      vertex 4.4 0 0.009999999999999787
    endloop
  endfacet
  facet normal 0.891006524188368 0.4539904997395464 0
    outer loop
      vertex 4.1846486716986755 1.3596747752497687 -16.009999999999998
      vertex 3.559674775249769 2.586255110086882 -16.009999999999998
      vertex 4.1846486716986755 1.3596747752497687 0.009999999999999787
    endloop
  endfacet
  facet normal 0 0 1
    outer loop
      vertex 4.1846486716986755 1.3596747752497687 0.009999999999999787
      vertex 1.3314791228132148 0.4326237921249263 0.009999999999999787
      vertex 1.4 0 0.009999999999999787
    endloop
  endfacet
  facet normal 0 0 1
    outer loop
      vertex 4.1846486716986755 1.3596747752497687 0.009999999999999787
      vertex 3.559674775249769 2.586255110086882 0.009999999999999787
      vertex 1.3314791228132148 0.4326237921249263 0.009999999999999787
    endloop
  endfacet
  facet normal 0.9876883405951377 0.15643446504023129 0
    outer loop
      vertex 4.1846486716986755 1.3596747752497687 -16.009999999999998
      vertex 4.1846486716986755 1.3596747752497687 0.009999999999999787
      vertex 4.4 0 0.009999999999999787
    endloop
  endfacet
  facet normal 0 0 1
    outer loop
      vertex 4.4 0 0.009999999999999787
      vertex 4.1846486716986755 1.3596747752497687 0.009999999999999787
      vertex 1.4 0 0.009999999999999787
    endloop
  endfacet
  facet normal 0.891006524188368 0.4539904997395464 0
    outer loop
      vertex 3.559674775249769 2.586255110086882 -16.009999999999998
      vertex 3.559674775249769 2.586255110086882 0.009999999999999787
      vertex 4.1846486716986755 1.3596747752497687 0.009999999999999787
    endloop
  endfacet
  facet normal 0.7071067811865476 0.7071067811865476 0
    outer loop
      vertex 2.586255110086882 3.559674775249769 -16.009999999999998
      vertex 3.559674775249769 2.586255110086882 0.009999999999999787
      vertex 3.559674775249769 2.586255110086882 -16.009999999999998
    endloop
  endfacet
  facet normal 0.7071067811865476 0.7071067811865476 0
    outer loop
      vertex 2.586255110086882 3.559674775249769 -16.009999999999998
      vertex 2.586255110086882 3.559674775249769 0.009999999999999787
      vertex 3.559674775249769 2.586255110086882 0.009999999999999787
    endloop
  endfacet
  facet normal 0 0 1
    outer loop
      vertex 2.586255110086882 3.559674775249769 0.009999999999999787
      vertex 0.8228993532094624 1.1326237921249263 0.009999999999999787
      vertex 3.559674775249769 2.586255110086882 0.009999999999999787
    endloop
  endfacet
  facet normal -0.7071067811865479 -0.7071067811865472 0
    outer loop
      vertex -3.559674775249769 -2.5862551100868814 -23.989999999999995
      vertex -2.5862551100868827 -3.5596747752497686 -23.989999999999995
      vertex -2.5862551100868827 -3.5596747752497686 -16.009999999999998
    endloop
  endfacet
  facet normal 0 0 -1
    outer loop
      vertex -3.559674775249769 -2.5862551100868814 -23.989999999999995
      vertex -1.0800376874905548 -0.7846933118104515 -23.989999999999995
      vertex -2.5862551100868827 -3.5596747752497686 -23.989999999999995
    endloop
  endfacet
  facet normal -0.7071067811865479 -0.7071067811865472 0
    outer loop
      vertex -3.559674775249769 -2.5862551100868814 -23.989999999999995
      vertex -2.5862551100868827 -3.5596747752497686 -16.009999999999998
      vertex -3.559674775249769 -2.5862551100868814 -16.009999999999998
    endloop
  endfacet
  facet normal -0.8910065241883678 -0.4539904997395469 0
    outer loop
      vertex -3.559674775249769 -2.5862551100868814 -23.989999999999995
      vertex -3.559674775249769 -2.5862551100868814 -16.009999999999998
      vertex -4.184648671698676 -1.3596747752497682 -23.989999999999995
    endloop
  endfacet
  facet normal -0.8910065241883678 -0.4539904997395469 0
    outer loop
      vertex -3.559674775249769 -2.5862551100868814 -16.009999999999998
      vertex -4.184648671698676 -1.3596747752497682 -16.009999999999998
      vertex -4.184648671698676 -1.3596747752497682 -23.989999999999995
    endloop
  endfacet
  facet normal -0.9876883405951378 -0.1564344650402307 0
    outer loop
      vertex -4.184648671698676 -1.3596747752497682 -23.989999999999995
      vertex -4.184648671698676 -1.3596747752497682 -16.009999999999998
      vertex -4.4 0 -23.989999999999995
    endloop
  endfacet
  facet normal 0 0 -1
    outer loop
      vertex -4.184648671698676 -1.3596747752497682 -23.989999999999995
      vertex -4.4 0 -23.989999999999995
      vertex -1.335 0 -23.989999999999995
    endloop
  endfacet
  facet normal -0.9876883405951378 -0.1564344650402307 0
    outer loop
      vertex -4.184648671698676 -1.3596747752497682 -16.009999999999998
      vertex -4.4 0 -16.009999999999998
      vertex -4.4 0 -23.989999999999995
    endloop
  endfacet
  facet normal 0 0 -1
    outer loop
      vertex -3.559674775249769 -2.5862551100868814 -23.989999999999995
      vertex -4.184648671698676 -1.3596747752497682 -23.989999999999995
      vertex -1.0800376874905548 -0.7846933118104515 -23.989999999999995
    endloop
  endfacet
  facet normal 0 0 -1
    outer loop
      vertex -4.184648671698676 -1.3596747752497682 -23.989999999999995
      vertex -1.335 0 -23.989999999999995
      vertex -1.26966044925403 -0.41253768749055464 -23.989999999999995
    endloop
  endfacet
  facet normal -0.4539904997395466 -0.8910065241883679 0
    outer loop
      vertex -2.5862551100868827 -3.5596747752497686 -23.989999999999995
      vertex -1.3596747752497693 -4.1846486716986755 -23.989999999999995
      vertex -1.3596747752497693 -4.1846486716986755 -16.009999999999998
    endloop
  endfacet
  facet normal -0.4539904997395466 -0.8910065241883679 0
    outer loop
      vertex -2.5862551100868827 -3.5596747752497686 -23.989999999999995
      vertex -1.3596747752497693 -4.1846486716986755 -16.009999999999998
      vertex -2.5862551100868827 -3.5596747752497686 -16.009999999999998
    endloop
  endfacet
  facet normal 0 0 -1
    outer loop
      vertex -2.5862551100868827 -3.5596747752497686 -23.989999999999995
      vertex -0.41253768749055497 -1.26966044925403 -23.989999999999995
      vertex -1.3596747752497693 -4.1846486716986755 -23.989999999999995
    endloop
  endfacet
  facet normal -0.15643446504023117 -0.9876883405951375 0
    outer loop
      vertex -1.3596747752497693 -4.1846486716986755 -23.989999999999995
      vertex 0 -4.4 -23.989999999999995
      vertex 0 -4.4 -16.009999999999998
    endloop
  endfacet
  facet normal -0.15643446504023117 -0.9876883405951375 0
    outer loop
      vertex -1.3596747752497693 -4.1846486716986755 -23.989999999999995
      vertex 0 -4.4 -16.009999999999998
      vertex -1.3596747752497693 -4.1846486716986755 -16.009999999999998
    endloop
  endfacet
  facet normal 0 0 -1
    outer loop
      vertex -1.3596747752497693 -4.1846486716986755 -23.989999999999995
      vertex -0.41253768749055497 -1.26966044925403 -23.989999999999995
      vertex 0 -4.4 -23.989999999999995
    endloop
  endfacet
  facet normal 0 0 -1
    outer loop
      vertex 0 -4.4 -23.989999999999995
      vertex -0.41253768749055497 -1.26966044925403 -23.989999999999995
      vertex 0 -1.335 -23.989999999999995
    endloop
  endfacet
  facet normal 0 0 -1
    outer loop
      vertex -2.5862551100868827 -3.5596747752497686 -23.989999999999995
      vertex -1.0800376874905548 -0.7846933118104515 -23.989999999999995
      vertex -0.7846933118104518 -1.0800376874905546 -23.989999999999995
    endloop
  endfacet
  facet normal 0 0 -1
    outer loop
      vertex -2.5862551100868827 -3.5596747752497686 -23.989999999999995
      vertex -0.7846933118104518 -1.0800376874905546 -23.989999999999995
      vertex -0.41253768749055497 -1.26966044925403 -23.989999999999995
    endloop
  endfacet
  facet normal 0 0 -1
    outer loop
      vertex -4.184648671698676 -1.3596747752497682 -23.989999999999995
      vertex -1.26966044925403 -0.41253768749055464 -23.989999999999995
      vertex -1.0800376874905548 -0.7846933118104515 -23.989999999999995
    endloop
  endfacet
  facet normal -0.9876883405951375 0.1564344650402312 0
    outer loop
      vertex -4.4 0 -23.989999999999995
      vertex -4.4 0 -16.009999999999998
      vertex -4.1846486716986755 1.359674775249769 -23.989999999999995
    endloop
  endfacet
  facet normal -0.9876883405951375 0.1564344650402312 0
    outer loop
      vertex -4.1846486716986755 1.359674775249769 -23.989999999999995
      vertex -4.4 0 -16.009999999999998
      vertex -4.1846486716986755 1.359674775249769 -16.009999999999998
    endloop
  endfacet
  facet normal -0.891006524188368 0.4539904997395465 0
    outer loop
      vertex -4.1846486716986755 1.359674775249769 -23.989999999999995
      vertex -4.1846486716986755 1.359674775249769 -16.009999999999998
      vertex -3.5596747752497686 2.5862551100868827 -23.989999999999995
    endloop
  endfacet
  facet normal -0.891006524188368 0.4539904997395465 0
    outer loop
      vertex -4.1846486716986755 1.359674775249769 -16.009999999999998
      vertex -3.5596747752497686 2.5862551100868827 -16.009999999999998
      vertex -3.5596747752497686 2.5862551100868827 -23.989999999999995
    endloop
  endfacet
  facet normal 0 0 -1
    outer loop
      vertex -4.4 0 -23.989999999999995
      vertex -4.1846486716986755 1.359674775249769 -23.989999999999995
      vertex -1.26966044925403 0.4125376874905549 -23.989999999999995
    endloop
  endfacet
  facet normal 0 0 -1
    outer loop
      vertex -4.4 0 -23.989999999999995
      vertex -1.26966044925403 0.4125376874905549 -23.989999999999995
      vertex -1.335 0 -23.989999999999995
    endloop
  endfacet
  facet normal 0 0 -1
    outer loop
      vertex -4.1846486716986755 1.359674775249769 -23.989999999999995
      vertex -3.5596747752497686 2.5862551100868827 -23.989999999999995
      vertex -1.26966044925403 0.4125376874905549 -23.989999999999995
    endloop
  endfacet
  facet normal -0.7071067811865472 0.7071067811865479 0
    outer loop
      vertex -3.5596747752497686 2.5862551100868827 -23.989999999999995
      vertex -3.5596747752497686 2.5862551100868827 -16.009999999999998
      vertex -2.5862551100868814 3.559674775249769 -23.989999999999995
    endloop
  endfacet
  facet normal 0 0 -1
    outer loop
      vertex -3.5596747752497686 2.5862551100868827 -23.989999999999995
      vertex -2.5862551100868814 3.559674775249769 -23.989999999999995
      vertex -1.0800376874905546 0.7846933118104518 -23.989999999999995
    endloop
  endfacet
  facet normal -0.7071067811865472 0.7071067811865479 0
    outer loop
      vertex -2.5862551100868814 3.559674775249769 -23.989999999999995
      vertex -3.5596747752497686 2.5862551100868827 -16.009999999999998
      vertex -2.5862551100868814 3.559674775249769 -16.009999999999998
    endloop
  endfacet
  facet normal 0 0 -1
    outer loop
      vertex -3.5596747752497686 2.5862551100868827 -23.989999999999995
      vertex -1.0800376874905546 0.7846933118104518 -23.989999999999995
      vertex -1.26966044925403 0.4125376874905549 -23.989999999999995
    endloop
  endfacet
  facet normal 0 0 -1
    outer loop
      vertex -2.5862551100868814 3.559674775249769 -23.989999999999995
      vertex -0.7846933118104514 1.0800376874905548 -23.989999999999995
      vertex -1.0800376874905546 0.7846933118104518 -23.989999999999995
    endloop
  endfacet
  facet normal 0 0 -1
    outer loop
      vertex -1.3596747752497684 4.184648671698676 -23.989999999999995
      vertex -0.4125376874905547 1.26966044925403 -23.989999999999995
      vertex -0.7846933118104514 1.0800376874905548 -23.989999999999995
    endloop
  endfacet
  facet normal 0 0 -1
    outer loop
      vertex -2.5862551100868814 3.559674775249769 -23.989999999999995
      vertex -1.3596747752497684 4.184648671698676 -23.989999999999995
      vertex -0.7846933118104514 1.0800376874905548 -23.989999999999995
    endloop
  endfacet
  facet normal -0.453990499739547 0.8910065241883678 0
    outer loop
      vertex -2.5862551100868814 3.559674775249769 -23.989999999999995
      vertex -2.5862551100868814 3.559674775249769 -16.009999999999998
      vertex -1.3596747752497684 4.184648671698676 -23.989999999999995
    endloop
  endfacet
  facet normal -0.453990499739547 0.8910065241883678 0
    outer loop
      vertex -2.5862551100868814 3.559674775249769 -16.009999999999998
      vertex -1.3596747752497684 4.184648671698676 -16.009999999999998
      vertex -1.3596747752497684 4.184648671698676 -23.989999999999995
    endloop
  endfacet
  facet normal 0 0 -1
    outer loop
      vertex -1.3596747752497684 4.184648671698676 -23.989999999999995
      vertex 0 1.335 -23.989999999999995
      vertex -0.4125376874905547 1.26966044925403 -23.989999999999995
    endloop
  endfacet
  facet normal -0.15643446504023067 0.9876883405951378 0
    outer loop
      vertex -1.3596747752497684 4.184648671698676 -23.989999999999995
      vertex -1.3596747752497684 4.184648671698676 -16.009999999999998
      vertex 0 4.4 -23.989999999999995
    endloop
  endfacet
  facet normal 0 0 -1
    outer loop
      vertex -1.3596747752497684 4.184648671698676 -23.989999999999995
      vertex 0 4.4 -23.989999999999995
      vertex 0 1.335 -23.989999999999995
    endloop
  endfacet
  facet normal -0.15643446504023067 0.9876883405951378 0
    outer loop
      vertex -1.3596747752497684 4.184648671698676 -16.009999999999998
      vertex 0 4.4 -16.009999999999998
      vertex 0 4.4 -23.989999999999995
    endloop
  endfacet
  facet normal 0 0 -1
    outer loop
      vertex 0 -4.4 -23.989999999999995
      vertex 0 -1.335 -23.989999999999995
      vertex 1.359674775249768 -4.184648671698676 -23.989999999999995
    endloop
  endfacet
  facet normal 0.1564344650402307 -0.9876883405951378 0
    outer loop
      vertex 0 -4.4 -23.989999999999995
      vertex 1.359674775249768 -4.184648671698676 -23.989999999999995
      vertex 1.359674775249768 -4.184648671698676 -16.009999999999998
    endloop
  endfacet
  facet normal 0.1564344650402307 -0.9876883405951378 0
    outer loop
      vertex 0 -4.4 -23.989999999999995
      vertex 1.359674775249768 -4.184648671698676 -16.009999999999998
      vertex 0 -4.4 -16.009999999999998
    endloop
  endfacet
  facet normal 0 0 -1
    outer loop
      vertex 1.359674775249768 -4.184648671698676 -23.989999999999995
      vertex 0 -1.335 -23.989999999999995
      vertex 0.4125376874905545 -1.26966044925403 -23.989999999999995
    endloop
  endfacet
  facet normal 0.45399049973954675 -0.8910065241883679 0
    outer loop
      vertex 1.359674775249768 -4.184648671698676 -23.989999999999995
      vertex 2.586255110086881 -3.5596747752497695 -23.989999999999995
      vertex 2.586255110086881 -3.5596747752497695 -16.009999999999998
    endloop
  endfacet
  facet normal 0.45399049973954675 -0.8910065241883679 0
    outer loop
      vertex 1.359674775249768 -4.184648671698676 -23.989999999999995
      vertex 2.586255110086881 -3.5596747752497695 -16.009999999999998
      vertex 1.359674775249768 -4.184648671698676 -16.009999999999998
    endloop
  endfacet
  facet normal 0 0 -1
    outer loop
      vertex 1.359674775249768 -4.184648671698676 -23.989999999999995
      vertex 0.7846933118104513 -1.080037687490555 -23.989999999999995
      vertex 2.586255110086881 -3.5596747752497695 -23.989999999999995
    endloop
  endfacet
  facet normal 0 0 -1
    outer loop
      vertex 1.359674775249768 -4.184648671698676 -23.989999999999995
      vertex 0.4125376874905545 -1.26966044925403 -23.989999999999995
      vertex 0.7846933118104513 -1.080037687490555 -23.989999999999995
    endloop
  endfacet
  facet normal 0 0 -1
    outer loop
      vertex 2.586255110086881 -3.5596747752497695 -23.989999999999995
      vertex 0.7846933118104513 -1.080037687490555 -23.989999999999995
      vertex 1.0800376874905546 -0.7846933118104519 -23.989999999999995
    endloop
  endfacet
  facet normal 0 0 -1
    outer loop
      vertex 3.5596747752497686 -2.586255110086883 -23.989999999999995
      vertex 1.0800376874905546 -0.7846933118104519 -23.989999999999995
      vertex 1.26966044925403 -0.41253768749055514 -23.989999999999995
    endloop
  endfacet
  facet normal 0 0 -1
    outer loop
      vertex 2.586255110086881 -3.5596747752497695 -23.989999999999995
      vertex 1.0800376874905546 -0.7846933118104519 -23.989999999999995
      vertex 3.5596747752497686 -2.586255110086883 -23.989999999999995
    endloop
  endfacet
  facet normal 0.707106781186547 -0.707106781186548 0
    outer loop
      vertex 2.586255110086881 -3.5596747752497695 -23.989999999999995
      vertex 3.5596747752497686 -2.586255110086883 -23.989999999999995
      vertex 3.5596747752497686 -2.586255110086883 -16.009999999999998
    endloop
  endfacet
  facet normal 0.707106781186547 -0.707106781186548 0
    outer loop
      vertex 2.586255110086881 -3.5596747752497695 -23.989999999999995
      vertex 3.5596747752497686 -2.586255110086883 -16.009999999999998
      vertex 2.586255110086881 -3.5596747752497695 -16.009999999999998
    endloop
  endfacet
  facet normal 0 0 -1
    outer loop
      vertex 3.5596747752497686 -2.586255110086883 -23.989999999999995
      vertex 1.26966044925403 -0.41253768749055514 -23.989999999999995
      vertex 4.1846486716986755 -1.3596747752497698 -23.989999999999995
    endloop
  endfacet
  facet normal 0 0 -1
    outer loop
      vertex 4.4 0 -23.989999999999995
      vertex 1.26966044925403 -0.41253768749055514 -23.989999999999995
      vertex 1.335 0 -23.989999999999995
    endloop
  endfacet
  facet normal 0 0 -1
    outer loop
      vertex 4.1846486716986755 -1.3596747752497698 -23.989999999999995
      vertex 1.26966044925403 -0.41253768749055514 -23.989999999999995
      vertex 4.4 0 -23.989999999999995
    endloop
  endfacet
  facet normal 0.8910065241883679 -0.4539904997395466 0
    outer loop
      vertex 3.5596747752497686 -2.586255110086883 -23.989999999999995
      vertex 4.1846486716986755 -1.3596747752497698 -23.989999999999995
      vertex 4.1846486716986755 -1.3596747752497698 -16.009999999999998
    endloop
  endfacet
  facet normal 0.8910065241883679 -0.4539904997395466 0
    outer loop
      vertex 3.5596747752497686 -2.586255110086883 -23.989999999999995
      vertex 4.1846486716986755 -1.3596747752497698 -16.009999999999998
      vertex 3.5596747752497686 -2.586255110086883 -16.009999999999998
    endloop
  endfacet
  facet normal 0.9876883405951378 -0.15643446504023115 0
    outer loop
      vertex 4.1846486716986755 -1.3596747752497698 -23.989999999999995
      vertex 4.4 0 -23.989999999999995
      vertex 4.4 0 -16.009999999999998
    endloop
  endfacet
  facet normal 0.9876883405951378 -0.15643446504023115 0
    outer loop
      vertex 4.1846486716986755 -1.3596747752497698 -23.989999999999995
      vertex 4.4 0 -16.009999999999998
      vertex 4.1846486716986755 -1.3596747752497698 -16.009999999999998
    endloop
  endfacet
  facet normal 0 0 -1
    outer loop
      vertex 1.3596747752497689 4.1846486716986755 -23.989999999999995
      vertex 0.7846933118104517 1.0800376874905548 -23.989999999999995
      vertex 0.41253768749055486 1.26966044925403 -23.989999999999995
    endloop
  endfacet
  facet normal 0 0 -1
    outer loop
      vertex 4.1846486716986755 1.3596747752497687 -23.989999999999995
      vertex 1.26966044925403 0.4125376874905548 -23.989999999999995
      vertex 1.0800376874905548 0.7846933118104517 -23.989999999999995
    endloop
  endfacet
  facet normal 0 0 -1
    outer loop
      vertex 3.559674775249769 2.586255110086882 -23.989999999999995
      vertex 1.0800376874905548 0.7846933118104517 -23.989999999999995
      vertex 0.7846933118104517 1.0800376874905548 -23.989999999999995
    endloop
  endfacet
  facet normal 0 0 -1
    outer loop
      vertex 1.3596747752497689 4.1846486716986755 -23.989999999999995
      vertex 0.41253768749055486 1.26966044925403 -23.989999999999995
      vertex 0 1.335 -23.989999999999995
    endloop
  endfacet
  facet normal 0 0 -1
    outer loop
      vertex 0 4.4 -23.989999999999995
      vertex 1.3596747752497689 4.1846486716986755 -23.989999999999995
      vertex 0 1.335 -23.989999999999995
    endloop
  endfacet
  facet normal 0.15643446504023123 0.9876883405951375 0
    outer loop
      vertex 0 4.4 -23.989999999999995
      vertex 0 4.4 -16.009999999999998
      vertex 1.3596747752497689 4.1846486716986755 -23.989999999999995
    endloop
  endfacet
  facet normal 0.15643446504023123 0.9876883405951375 0
    outer loop
      vertex 1.3596747752497689 4.1846486716986755 -23.989999999999995
      vertex 0 4.4 -16.009999999999998
      vertex 1.3596747752497689 4.1846486716986755 -16.009999999999998
    endloop
  endfacet
  facet normal 0 0 -1
    outer loop
      vertex 1.3596747752497689 4.1846486716986755 -23.989999999999995
      vertex 2.586255110086882 3.559674775249769 -23.989999999999995
      vertex 0.7846933118104517 1.0800376874905548 -23.989999999999995
    endloop
  endfacet
  facet normal 0.4539904997395465 0.891006524188368 0
    outer loop
      vertex 1.3596747752497689 4.1846486716986755 -23.989999999999995
      vertex 1.3596747752497689 4.1846486716986755 -16.009999999999998
      vertex 2.586255110086882 3.559674775249769 -23.989999999999995
    endloop
  endfacet
  facet normal 0.4539904997395465 0.891006524188368 0
    outer loop
      vertex 1.3596747752497689 4.1846486716986755 -16.009999999999998
      vertex 2.586255110086882 3.559674775249769 -16.009999999999998
      vertex 2.586255110086882 3.559674775249769 -23.989999999999995
    endloop
  endfacet
  facet normal 0 0 -1
    outer loop
      vertex 4.4 0 -23.989999999999995
      vertex 1.335 0 -23.989999999999995
      vertex 1.26966044925403 0.4125376874905548 -23.989999999999995
    endloop
  endfacet
  facet normal 0 0 -1
    outer loop
      vertex 4.4 0 -23.989999999999995
      vertex 1.26966044925403 0.4125376874905548 -23.989999999999995
      vertex 4.1846486716986755 1.3596747752497687 -23.989999999999995
    endloop
  endfacet
  facet normal 0 0 -1
    outer loop
      vertex 4.1846486716986755 1.3596747752497687 -23.989999999999995
      vertex 1.0800376874905548 0.7846933118104517 -23.989999999999995
      vertex 3.559674775249769 2.586255110086882 -23.989999999999995
    endloop
  endfacet
  facet normal 0.9876883405951375 0.15643446504023126 0
    outer loop
      vertex 4.4 0 -23.989999999999995
      vertex 4.1846486716986755 1.3596747752497687 -23.989999999999995
      vertex 4.1846486716986755 1.3596747752497687 -16.009999999999998
    endloop
  endfacet
  facet normal 0.9876883405951375 0.15643446504023126 0
    outer loop
      vertex 4.4 0 -23.989999999999995
      vertex 4.1846486716986755 1.3596747752497687 -16.009999999999998
      vertex 4.4 0 -16.009999999999998
    endloop
  endfacet
  facet normal 0.891006524188368 0.4539904997395464 0
    outer loop
      vertex 4.1846486716986755 1.3596747752497687 -23.989999999999995
      vertex 3.559674775249769 2.586255110086882 -23.989999999999995
      vertex 3.559674775249769 2.586255110086882 -16.009999999999998
    endloop
  endfacet
  facet normal 0.891006524188368 0.4539904997395464 0
    outer loop
      vertex 4.1846486716986755 1.3596747752497687 -23.989999999999995
      vertex 3.559674775249769 2.586255110086882 -16.009999999999998
      vertex 4.1846486716986755 1.3596747752497687 -16.009999999999998
    endloop
  endfacet
  facet normal 0 0 -1
    outer loop
      vertex 2.586255110086882 3.559674775249769 -23.989999999999995
      vertex 3.559674775249769 2.586255110086882 -23.989999999999995
      vertex 0.7846933118104517 1.0800376874905548 -23.989999999999995
    endloop
  endfacet
  facet normal 0.7071067811865476 0.7071067811865476 0
    outer loop
      vertex 2.586255110086882 3.559674775249769 -23.989999999999995
      vertex 2.586255110086882 3.559674775249769 -16.009999999999998
      vertex 3.559674775249769 2.586255110086882 -23.989999999999995
    endloop
  endfacet
  facet normal 0.7071067811865476 0.7071067811865476 0
    outer loop
      vertex 3.559674775249769 2.586255110086882 -23.989999999999995
      vertex 2.586255110086882 3.559674775249769 -16.009999999999998
      vertex 3.559674775249769 2.586255110086882 -16.009999999999998
    endloop
  endfacet
  facet normal 0 0 1
    outer loop
      vertex -1.1326237921249263 -0.8228993532094622 -16.015
      vertex -1.26966044925403 -0.4125376874905546 -16.015
      vertex -1.331479122813215 -0.4326237921249262 -16.015
    endloop
  endfacet
  facet normal 0 0 1
    outer loop
      vertex -1.1326237921249263 -0.8228993532094622 -16.015
      vertex -1.0800376874905548 -0.7846933118104514 -16.015
      vertex -1.26966044925403 -0.4125376874905546 -16.015
    endloop
  endfacet
  facet normal 0 0 1
    outer loop
      vertex -1.331479122813215 -0.4326237921249262 -16.015
      vertex -1.26966044925403 -0.4125376874905546 -16.015
      vertex -1.335 0 -16.015
    endloop
  endfacet
  facet normal 0 0 1
    outer loop
      vertex -1.331479122813215 -0.4326237921249262 -16.015
      vertex -1.335 0 -16.015
      vertex -1.4 0 -16.015
    endloop
  endfacet
  facet normal 0 0 1
    outer loop
      vertex -0.8228993532094625 -1.1326237921249263 -16.015
      vertex -0.4326237921249266 -1.3314791228132148 -16.015
      vertex -0.412537687490555 -1.26966044925403 -16.015
    endloop
  endfacet
  facet normal 0 0 1
    outer loop
      vertex -0.8228993532094625 -1.1326237921249263 -16.015
      vertex -0.412537687490555 -1.26966044925403 -16.015
      vertex -0.7846933118104518 -1.0800376874905546 -16.015
    endloop
  endfacet
  facet normal 0 0 1
    outer loop
      vertex -0.4326237921249266 -1.3314791228132148 -16.015
      vertex 0 -1.335 -16.015
      vertex -0.412537687490555 -1.26966044925403 -16.015
    endloop
  endfacet
  facet normal 0 0 1
    outer loop
      vertex -0.4326237921249266 -1.3314791228132148 -16.015
      vertex 0 -1.4 -16.015
      vertex 0 -1.335 -16.015
    endloop
  endfacet
  facet normal 0 0 1
    outer loop
      vertex -1.1326237921249263 -0.8228993532094622 -16.015
      vertex -0.8228993532094625 -1.1326237921249263 -16.015
      vertex -1.0800376874905548 -0.7846933118104514 -16.015
    endloop
  endfacet
  facet normal 0 0 1
    outer loop
      vertex -1.0800376874905548 -0.7846933118104514 -16.015
      vertex -0.8228993532094625 -1.1326237921249263 -16.015
      vertex -0.7846933118104518 -1.0800376874905546 -16.015
    endloop
  endfacet
  facet normal 0.8910065241883677 0.4539904997395471 0
    outer loop
      vertex -1.1326237921249263 -0.8228993532094622 -16.015
      vertex -1.331479122813215 -0.4326237921249262 -16.015
      vertex -1.331479122813215 -0.4326237921249262 0.009999999999999787
    endloop
  endfacet
  facet normal 0.9876883405951378 0.15643446504023073 0
    outer loop
      vertex -1.331479122813215 -0.4326237921249262 -16.015
      vertex -1.4 0 -16.015
      vertex -1.4 0 0.009999999999999787
    endloop
  endfacet
  facet normal 0.45399049973954675 0.8910065241883679 0
    outer loop
      vertex -0.8228993532094625 -1.1326237921249263 -16.015
      vertex -0.8228993532094625 -1.1326237921249263 0.009999999999999787
      vertex -0.4326237921249266 -1.3314791228132148 -16.015
    endloop
  endfacet
  facet normal 0.15643446504023106 0.9876883405951377 0
    outer loop
      vertex -0.4326237921249266 -1.3314791228132148 -16.015
      vertex -0.4326237921249266 -1.3314791228132148 0.009999999999999787
      vertex 0 -1.4 -16.015
    endloop
  endfacet
  facet normal 0.7071067811865479 0.7071067811865471 -4.8988844264704345e-18
    outer loop
      vertex -1.1326237921249263 -0.8228993532094622 -16.015
      vertex -1.1326237921249263 -0.8228993532094621 0.009999999999999787
      vertex -0.8228993532094625 -1.1326237921249263 -16.015
    endloop
  endfacet
  facet normal 0.8910065241883677 0.4539904997395472 -3.1452774151134255e-18
    outer loop
      vertex -1.1326237921249263 -0.8228993532094622 -16.015
      vertex -1.331479122813215 -0.4326237921249262 0.009999999999999787
      vertex -1.1326237921249263 -0.8228993532094621 0.009999999999999787
    endloop
  endfacet
  facet normal 0.9876883405951378 0.15643446504023073 0
    outer loop
      vertex -1.331479122813215 -0.4326237921249262 -16.015
      vertex -1.4 0 0.009999999999999787
      vertex -1.331479122813215 -0.4326237921249262 0.009999999999999787
    endloop
  endfacet
  facet normal 0.45399049973954675 0.8910065241883679 0
    outer loop
      vertex -0.4326237921249266 -1.3314791228132148 -16.015
      vertex -0.8228993532094625 -1.1326237921249263 0.009999999999999787
      vertex -0.4326237921249266 -1.3314791228132148 0.009999999999999787
    endloop
  endfacet
  facet normal 0.15643446504023106 0.9876883405951377 0
    outer loop
      vertex 0 -1.4 -16.015
      vertex -0.4326237921249266 -1.3314791228132148 0.009999999999999787
      vertex 0 -1.4 0.009999999999999787
    endloop
  endfacet
  facet normal 0.707106781186548 0.707106781186547 0
    outer loop
      vertex -0.8228993532094625 -1.1326237921249263 -16.015
      vertex -1.1326237921249263 -0.8228993532094621 0.009999999999999787
      vertex -0.8228993532094625 -1.1326237921249263 0.009999999999999787
    endloop
  endfacet
  facet normal 0 0 1
    outer loop
      vertex -1.4 0 -16.015
      vertex -1.335 0 -16.015
      vertex -1.26966044925403 0.4125376874905549 -16.015
    endloop
  endfacet
  facet normal 0 0 1
    outer loop
      vertex -1.4 0 -16.015
      vertex -1.26966044925403 0.4125376874905549 -16.015
      vertex -1.3314791228132148 0.43262379212492647 -16.015
    endloop
  endfacet
  facet normal 0 0 1
    outer loop
      vertex -1.3314791228132148 0.43262379212492647 -16.015
      vertex -1.26966044925403 0.4125376874905549 -16.015
      vertex -1.0800376874905546 0.7846933118104518 -16.015
    endloop
  endfacet
  facet normal 0 0 1
    outer loop
      vertex -1.3314791228132148 0.43262379212492647 -16.015
      vertex -1.0800376874905546 0.7846933118104518 -16.015
      vertex -1.1326237921249263 0.8228993532094625 -16.015
    endloop
  endfacet
  facet normal 0 0 1
    outer loop
      vertex -1.0800376874905546 0.7846933118104518 -16.015
      vertex -0.7846933118104514 1.0800376874905548 -16.015
      vertex -1.1326237921249263 0.8228993532094625 -16.015
    endloop
  endfacet
  facet normal 0 0 1
    outer loop
      vertex -1.1326237921249263 0.8228993532094625 -16.015
      vertex -0.7846933118104514 1.0800376874905548 -16.015
      vertex -0.8228993532094622 1.1326237921249263 -16.015
    endloop
  endfacet
  facet normal 0 0 1
    outer loop
      vertex -0.8228993532094622 1.1326237921249263 -16.015
      vertex -0.7846933118104514 1.0800376874905548 -16.015
      vertex -0.43262379212492624 1.331479122813215 -16.015
    endloop
  endfacet
  facet normal 0 0 1
    outer loop
      vertex -0.7846933118104514 1.0800376874905548 -16.015
      vertex -0.41253768749055464 1.26966044925403 -16.015
      vertex -0.43262379212492624 1.331479122813215 -16.015
    endloop
  endfacet
  facet normal 0 0 1
    outer loop
      vertex -0.41253768749055464 1.26966044925403 -16.015
      vertex 0 1.4 -16.015
      vertex -0.43262379212492624 1.331479122813215 -16.015
    endloop
  endfacet
  facet normal 0 0 1
    outer loop
      vertex -0.41253768749055464 1.26966044925403 -16.015
      vertex 0 1.335 -16.015
      vertex 0 1.4 -16.015
    endloop
  endfacet
  facet normal 0.9876883405951377 -0.15643446504023112 0
    outer loop
      vertex -1.4 0 -16.015
      vertex -1.3314791228132148 0.43262379212492647 -16.015
      vertex -1.3314791228132148 0.43262379212492647 0.009999999999999787
    endloop
  endfacet
  facet normal 0.8910065241883679 -0.45399049973954664 0
    outer loop
      vertex -1.3314791228132148 0.43262379212492647 -16.015
      vertex -1.1326237921249263 0.8228993532094625 -16.015
      vertex -1.1326237921249263 0.8228993532094625 0.009999999999999787
    endloop
  endfacet
  facet normal 0.7071067811865471 -0.7071067811865479 -5.931342280767926e-18
    outer loop
      vertex -1.1326237921249263 0.8228993532094625 -16.015
      vertex -0.8228993532094622 1.1326237921249263 -16.015
      vertex -0.8228993532094621 1.1326237921249263 0.009999999999999787
    endloop
  endfacet
  facet normal 0.45399049973954714 -0.8910065241883677 0
    outer loop
      vertex -0.8228993532094622 1.1326237921249263 -16.015
      vertex -0.43262379212492624 1.331479122813215 -16.015
      vertex -0.43262379212492624 1.331479122813215 0.009999999999999787
    endloop
  endfacet
  facet normal 0.1564344650402307 -0.9876883405951377 0
    outer loop
      vertex -0.43262379212492624 1.331479122813215 -16.015
      vertex 0 1.4 -16.015
      vertex 0 1.4 0.009999999999999787
    endloop
  endfacet
  facet normal 0.9876883405951377 -0.15643446504023112 0
    outer loop
      vertex -1.4 0 -16.015
      vertex -1.3314791228132148 0.43262379212492647 0.009999999999999787
      vertex -1.4 0 0.009999999999999787
    endloop
  endfacet
  facet normal 0.8910065241883679 -0.45399049973954664 0
    outer loop
      vertex -1.3314791228132148 0.43262379212492647 -16.015
      vertex -1.1326237921249263 0.8228993532094625 0.009999999999999787
      vertex -1.3314791228132148 0.43262379212492647 0.009999999999999787
    endloop
  endfacet
  facet normal 0.707106781186547 -0.707106781186548 0
    outer loop
      vertex -1.1326237921249263 0.8228993532094625 -16.015
      vertex -0.8228993532094621 1.1326237921249263 0.009999999999999787
      vertex -1.1326237921249263 0.8228993532094625 0.009999999999999787
    endloop
  endfacet
  facet normal 0.45399049973954725 -0.8910065241883677 -3.145277415113426e-18
    outer loop
      vertex -0.8228993532094622 1.1326237921249263 -16.015
      vertex -0.43262379212492624 1.331479122813215 0.009999999999999787
      vertex -0.8228993532094621 1.1326237921249263 0.009999999999999787
    endloop
  endfacet
  facet normal 0.1564344650402307 -0.9876883405951377 0
    outer loop
      vertex -0.43262379212492624 1.331479122813215 -16.015
      vertex 0 1.4 0.009999999999999787
      vertex -0.43262379212492624 1.331479122813215 0.009999999999999787
    endloop
  endfacet
  facet normal 0 0 1
    outer loop
      vertex 0 -1.4 -16.015
      vertex 0.4125376874905545 -1.26966044925403 -16.015
      vertex 0 -1.335 -16.015
    endloop
  endfacet
  facet normal 0 0 1
    outer loop
      vertex 0 -1.4 -16.015
      vertex 0.4326237921249261 -1.331479122813215 -16.015
      vertex 0.4125376874905545 -1.26966044925403 -16.015
    endloop
  endfacet
  facet normal 0 0 1
    outer loop
      vertex 0.4326237921249261 -1.331479122813215 -16.015
      vertex 0.7846933118104513 -1.080037687490555 -16.015
      vertex 0.4125376874905545 -1.26966044925403 -16.015
    endloop
  endfacet
  facet normal 0 0 1
    outer loop
      vertex 0.4326237921249261 -1.331479122813215 -16.015
      vertex 0.8228993532094621 -1.1326237921249265 -16.015
      vertex 0.7846933118104513 -1.080037687490555 -16.015
    endloop
  endfacet
  facet normal 0 0 1
    outer loop
      vertex 0.7846933118104513 -1.080037687490555 -16.015
      vertex 0.8228993532094621 -1.1326237921249265 -16.015
      vertex 1.1326237921249263 -0.8228993532094626 -16.015
    endloop
  endfacet
  facet normal 0 0 1
    outer loop
      vertex 0.7846933118104513 -1.080037687490555 -16.015
      vertex 1.1326237921249263 -0.8228993532094626 -16.015
      vertex 1.0800376874905546 -0.7846933118104519 -16.015
    endloop
  endfacet
  facet normal 0 0 1
    outer loop
      vertex 1.1326237921249263 -0.8228993532094626 -16.015
      vertex 1.3314791228132148 -0.43262379212492674 -16.015
      vertex 1.0800376874905546 -0.7846933118104519 -16.015
    endloop
  endfacet
  facet normal 0 0 1
    outer loop
      vertex 1.0800376874905546 -0.7846933118104519 -16.015
      vertex 1.3314791228132148 -0.43262379212492674 -16.015
      vertex 1.26966044925403 -0.4125376874905552 -16.015
    endloop
  endfacet
  facet normal 0 0 1
    outer loop
      vertex 1.26966044925403 -0.4125376874905552 -16.015
      vertex 1.3314791228132148 -0.43262379212492674 -16.015
      vertex 1.4 0 -16.015
    endloop
  endfacet
  facet normal 0 0 1
    outer loop
      vertex 1.26966044925403 -0.4125376874905552 -16.015
      vertex 1.4 0 -16.015
      vertex 1.335 0 -16.015
    endloop
  endfacet
  facet normal -0.15643446504023076 0.9876883405951378 0
    outer loop
      vertex 0 -1.4 -16.015
      vertex 0 -1.4 0.009999999999999787
      vertex 0.4326237921249261 -1.331479122813215 -16.015
    endloop
  endfacet
  facet normal -0.4539904997395467 0.8910065241883679 0
    outer loop
      vertex 0.4326237921249261 -1.331479122813215 -16.015
      vertex 0.4326237921249261 -1.331479122813215 0.009999999999999787
      vertex 0.8228993532094621 -1.1326237921249265 -16.015
    endloop
  endfacet
  facet normal -0.7071067811865472 0.7071067811865479 -4.8988844264704345e-18
    outer loop
      vertex 0.8228993532094621 -1.1326237921249265 -16.015
      vertex 0.822899353209462 -1.1326237921249265 0.009999999999999787
      vertex 1.1326237921249263 -0.8228993532094626 -16.015
    endloop
  endfacet
  facet normal -0.8910065241883679 0.4539904997395468 0
    outer loop
      vertex 1.1326237921249263 -0.8228993532094626 -16.015
      vertex 1.1326237921249263 -0.8228993532094626 0.009999999999999787
      vertex 1.3314791228132148 -0.43262379212492674 -16.015
    endloop
  endfacet
  facet normal -0.9876883405951377 0.156434465040231 0
    outer loop
      vertex 1.3314791228132148 -0.43262379212492674 -16.015
      vertex 1.3314791228132148 -0.43262379212492674 0.009999999999999787
      vertex 1.4 0 -16.015
    endloop
  endfacet
  facet normal -0.15643446504023076 0.9876883405951378 0
    outer loop
      vertex 0.4326237921249261 -1.331479122813215 -16.015
      vertex 0 -1.4 0.009999999999999787
      vertex 0.4326237921249261 -1.331479122813215 0.009999999999999787
    endloop
  endfacet
  facet normal -0.4539904997395468 0.8910065241883679 -3.1452774151134228e-18
    outer loop
      vertex 0.8228993532094621 -1.1326237921249265 -16.015
      vertex 0.4326237921249261 -1.331479122813215 0.009999999999999787
      vertex 0.822899353209462 -1.1326237921249265 0.009999999999999787
    endloop
  endfacet
  facet normal -0.707106781186547 0.707106781186548 0
    outer loop
      vertex 1.1326237921249263 -0.8228993532094626 -16.015
      vertex 0.822899353209462 -1.1326237921249265 0.009999999999999787
      vertex 1.1326237921249263 -0.8228993532094626 0.009999999999999787
    endloop
  endfacet
  facet normal -0.8910065241883679 0.4539904997395468 0
    outer loop
      vertex 1.3314791228132148 -0.43262379212492674 -16.015
      vertex 1.1326237921249263 -0.8228993532094626 0.009999999999999787
      vertex 1.3314791228132148 -0.43262379212492674 0.009999999999999787
    endloop
  endfacet
  facet normal -0.9876883405951377 0.156434465040231 0
    outer loop
      vertex 1.4 0 -16.015
      vertex 1.3314791228132148 -0.43262379212492674 0.009999999999999787
      vertex 1.4 0 0.009999999999999787
    endloop
  endfacet
  facet normal 0 0 1
    outer loop
      vertex 0.7846933118104518 1.0800376874905548 -16.015
      vertex 1.0800376874905548 0.7846933118104517 -16.015
      vertex 0.8228993532094624 1.1326237921249263 -16.015
    endloop
  endfacet
  facet normal 0 0 1
    outer loop
      vertex 0.8228993532094624 1.1326237921249263 -16.015
      vertex 1.0800376874905548 0.7846933118104517 -16.015
      vertex 1.1326237921249263 0.8228993532094624 -16.015
    endloop
  endfacet
  facet normal 0 0 1
    outer loop
      vertex 0 1.335 -16.015
      vertex 0.4326237921249264 1.3314791228132148 -16.015
      vertex 0 1.4 -16.015
    endloop
  endfacet
  facet normal 0 0 1
    outer loop
      vertex 0 1.335 -16.015
      vertex 0.41253768749055486 1.26966044925403 -16.015
      vertex 0.4326237921249264 1.3314791228132148 -16.015
    endloop
  endfacet
  facet normal 0 0 1
    outer loop
      vertex 0.41253768749055486 1.26966044925403 -16.015
      vertex 0.7846933118104518 1.0800376874905548 -16.015
      vertex 0.8228993532094624 1.1326237921249263 -16.015
    endloop
  endfacet
  facet normal 0 0 1
    outer loop
      vertex 0.41253768749055486 1.26966044925403 -16.015
      vertex 0.8228993532094624 1.1326237921249263 -16.015
      vertex 0.4326237921249264 1.3314791228132148 -16.015
    endloop
  endfacet
  facet normal 0 0 1
    outer loop
      vertex 1.335 0 -16.015
      vertex 1.4 0 -16.015
      vertex 1.3314791228132148 0.43262379212492635 -16.015
    endloop
  endfacet
  facet normal 0 0 1
    outer loop
      vertex 1.335 0 -16.015
      vertex 1.3314791228132148 0.43262379212492635 -16.015
      vertex 1.26966044925403 0.41253768749055475 -16.015
    endloop
  endfacet
  facet normal 0 0 1
    outer loop
      vertex 1.26966044925403 0.41253768749055475 -16.015
      vertex 1.1326237921249263 0.8228993532094624 -16.015
      vertex 1.0800376874905548 0.7846933118104517 -16.015
    endloop
  endfacet
  facet normal 0 0 1
    outer loop
      vertex 1.26966044925403 0.41253768749055475 -16.015
      vertex 1.3314791228132148 0.43262379212492635 -16.015
      vertex 1.1326237921249263 0.8228993532094624 -16.015
    endloop
  endfacet
  facet normal -0.7071067811865476 -0.7071067811865476 -3.954228187178618e-18
    outer loop
      vertex 0.8228993532094624 1.1326237921249263 -16.015
      vertex 1.1326237921249263 0.8228993532094624 -16.015
      vertex 1.1326237921249263 0.8228993532094623 0.009999999999999787
    endloop
  endfacet
  facet normal -0.15643446504023115 -0.9876883405951377 4.94278523397327e-19
    outer loop
      vertex 0 1.4 -16.015
      vertex 0.4326237921249264 1.3314791228132148 -16.015
      vertex 0.43262379212492647 1.3314791228132148 0.009999999999999787
    endloop
  endfacet
  facet normal -0.4539904997395467 -0.8910065241883679 0
    outer loop
      vertex 0.4326237921249264 1.3314791228132148 -16.015
      vertex 0.8228993532094624 1.1326237921249263 -16.015
      vertex 0.8228993532094624 1.1326237921249263 0.009999999999999787
    endloop
  endfacet
  facet normal -0.9876883405951377 -0.15643446504023115 0
    outer loop
      vertex 1.4 0 -16.015
      vertex 1.4 0 0.009999999999999787
      vertex 1.3314791228132148 0.43262379212492635 -16.015
    endloop
  endfacet
  facet normal -0.8910065241883679 -0.45399049973954664 -1.5726387075567108e-18
    outer loop
      vertex 1.3314791228132148 0.43262379212492635 -16.015
      vertex 1.3314791228132148 0.4326237921249263 0.009999999999999787
      vertex 1.1326237921249263 0.8228993532094624 -16.015
    endloop
  endfacet
  facet normal -0.7071067811865476 -0.7071067811865474 0
    outer loop
      vertex 0.8228993532094624 1.1326237921249263 -16.015
      vertex 1.1326237921249263 0.8228993532094623 0.009999999999999787
      vertex 0.8228993532094624 1.1326237921249263 0.009999999999999787
    endloop
  endfacet
  facet normal -0.15643446504023112 -0.9876883405951377 0
    outer loop
      vertex 0 1.4 -16.015
      vertex 0.43262379212492647 1.3314791228132148 0.009999999999999787
      vertex 0 1.4 0.009999999999999787
    endloop
  endfacet
  facet normal -0.45399049973954675 -0.8910065241883679 1.5726387075567112e-18
    outer loop
      vertex 0.4326237921249264 1.3314791228132148 -16.015
      vertex 0.8228993532094624 1.1326237921249263 0.009999999999999787
      vertex 0.43262379212492647 1.3314791228132148 0.009999999999999787
    endloop
  endfacet
  facet normal -0.9876883405951377 -0.15643446504023117 -5.4189436796438e-19
    outer loop
      vertex 1.3314791228132148 0.43262379212492635 -16.015
      vertex 1.4 0 0.009999999999999787
      vertex 1.3314791228132148 0.4326237921249263 0.009999999999999787
    endloop
  endfacet
  facet normal -0.8910065241883679 -0.4539904997395467 -3.145277415113422e-18
    outer loop
      vertex 1.1326237921249263 0.8228993532094624 -16.015
      vertex 1.3314791228132148 0.4326237921249263 0.009999999999999787
      vertex 1.1326237921249263 0.8228993532094623 0.009999999999999787
    endloop
  endfacet
  facet normal 0.891006524188368 0.4539904997395466 -3.160067120827123e-18
    outer loop
      vertex -1.26966044925403 -0.4125376874905546 -16.015
      vertex -1.0800376874905548 -0.7846933118104515 -23.989999999999995
      vertex -1.26966044925403 -0.41253768749055464 -23.989999999999995
    endloop
  endfacet
  facet normal 0.9876883405951377 0.15643446504023092 0
    outer loop
      vertex -1.335 0 -16.015
      vertex -1.26966044925403 -0.41253768749055464 -23.989999999999995
      vertex -1.335 0 -23.989999999999995
    endloop
  endfacet
  facet normal 0.891006524188368 0.45399049973954664 -6.320134241654247e-18
    outer loop
      vertex -1.0800376874905548 -0.7846933118104514 -16.015
      vertex -1.0800376874905548 -0.7846933118104515 -23.989999999999995
      vertex -1.26966044925403 -0.4125376874905546 -16.015
    endloop
  endfacet
  facet normal 0.9876883405951379 0.15643446504023095 -1.0888849212074211e-18
    outer loop
      vertex -1.26966044925403 -0.4125376874905546 -16.015
      vertex -1.26966044925403 -0.41253768749055464 -23.989999999999995
      vertex -1.335 0 -16.015
    endloop
  endfacet
  facet normal 0.4539904997395471 0.8910065241883678 0
    outer loop
      vertex -0.7846933118104518 -1.0800376874905546 -16.015
      vertex -0.41253768749055497 -1.26966044925403 -23.989999999999995
      vertex -0.7846933118104518 -1.0800376874905546 -23.989999999999995
    endloop
  endfacet
  facet normal 0.15643446504023079 0.9876883405951377 1.08888492120742e-18
    outer loop
      vertex -0.412537687490555 -1.26966044925403 -16.015
      vertex 0 -1.335 -23.989999999999995
      vertex -0.41253768749055497 -1.26966044925403 -23.989999999999995
    endloop
  endfacet
  facet normal 0.4539904997395472 0.8910065241883678 4.166255004724611e-18
    outer loop
      vertex -0.7846933118104518 -1.0800376874905546 -16.015
      vertex -0.412537687490555 -1.26966044925403 -16.015
      vertex -0.41253768749055497 -1.26966044925403 -23.989999999999995
    endloop
  endfacet
  facet normal 0.15643446504023079 0.9876883405951379 0
    outer loop
      vertex -0.412537687490555 -1.26966044925403 -16.015
      vertex 0 -1.335 -16.015
      vertex 0 -1.335 -23.989999999999995
    endloop
  endfacet
  facet normal 0.7071067811865476 0.7071067811865476 -9.843839866355964e-18
    outer loop
      vertex -1.0800376874905548 -0.7846933118104514 -16.015
      vertex -0.7846933118104518 -1.0800376874905546 -23.989999999999995
      vertex -1.0800376874905548 -0.7846933118104515 -23.989999999999995
    endloop
  endfacet
  facet normal 0.7071067811865477 0.7071067811865474 0
    outer loop
      vertex -1.0800376874905548 -0.7846933118104514 -16.015
      vertex -0.7846933118104518 -1.0800376874905546 -16.015
      vertex -0.7846933118104518 -1.0800376874905546 -23.989999999999995
    endloop
  endfacet
  facet normal 0.9876883405951379 -0.15643446504023084 0
    outer loop
      vertex -1.26966044925403 0.4125376874905549 -16.015
      vertex -1.335 0 -23.989999999999995
      vertex -1.26966044925403 0.4125376874905549 -23.989999999999995
    endloop
  endfacet
  facet normal 0.8910065241883678 -0.453990499739547 0
    outer loop
      vertex -1.0800376874905546 0.7846933118104518 -16.015
      vertex -1.26966044925403 0.4125376874905549 -23.989999999999995
      vertex -1.0800376874905546 0.7846933118104518 -23.989999999999995
    endloop
  endfacet
  facet normal 0.9876883405951379 -0.15643446504023084 0
    outer loop
      vertex -1.335 0 -16.015
      vertex -1.335 0 -23.989999999999995
      vertex -1.26966044925403 0.4125376874905549 -16.015
    endloop
  endfacet
  facet normal 0.8910065241883678 -0.453990499739547 0
    outer loop
      vertex -1.26966044925403 0.4125376874905549 -16.015
      vertex -1.26966044925403 0.4125376874905549 -23.989999999999995
      vertex -1.0800376874905546 0.7846933118104518 -16.015
    endloop
  endfacet
  facet normal 0.7071067811865474 -0.7071067811865477 0
    outer loop
      vertex -0.7846933118104514 1.0800376874905548 -16.015
      vertex -1.0800376874905546 0.7846933118104518 -23.989999999999995
      vertex -0.7846933118104514 1.0800376874905548 -23.989999999999995
    endloop
  endfacet
  facet normal 0.7071067811865474 -0.7071067811865477 0
    outer loop
      vertex -1.0800376874905546 0.7846933118104518 -16.015
      vertex -1.0800376874905546 0.7846933118104518 -23.989999999999995
      vertex -0.7846933118104514 1.0800376874905548 -16.015
    endloop
  endfacet
  facet normal 0.45399049973954675 -0.891006524188368 -3.1600671208271245e-18
    outer loop
      vertex -0.41253768749055464 1.26966044925403 -16.015
      vertex -0.7846933118104514 1.0800376874905548 -23.989999999999995
      vertex -0.4125376874905547 1.26966044925403 -23.989999999999995
    endloop
  endfacet
  facet normal 0.1564344650402309 -0.9876883405951377 0
    outer loop
      vertex 0 1.335 -16.015
      vertex -0.4125376874905547 1.26966044925403 -23.989999999999995
      vertex 0 1.335 -23.989999999999995
    endloop
  endfacet
  facet normal 0.45399049973954664 -0.8910065241883679 0
    outer loop
      vertex -0.7846933118104514 1.0800376874905548 -16.015
      vertex -0.7846933118104514 1.0800376874905548 -23.989999999999995
      vertex -0.41253768749055464 1.26966044925403 -16.015
    endloop
  endfacet
  facet normal 0.15643446504023092 -0.9876883405951377 -1.0888849212074207e-18
    outer loop
      vertex -0.41253768749055464 1.26966044925403 -16.015
      vertex -0.4125376874905547 1.26966044925403 -23.989999999999995
      vertex 0 1.335 -16.015
    endloop
  endfacet
  facet normal -0.15643446504023095 0.9876883405951377 0
    outer loop
      vertex 0 -1.335 -16.015
      vertex 0.4125376874905545 -1.26966044925403 -23.989999999999995
      vertex 0 -1.335 -23.989999999999995
    endloop
  endfacet
  facet normal -0.45399049973954625 0.8910065241883681 0
    outer loop
      vertex 0.4125376874905545 -1.26966044925403 -16.015
      vertex 0.7846933118104513 -1.080037687490555 -23.989999999999995
      vertex 0.4125376874905545 -1.26966044925403 -23.989999999999995
    endloop
  endfacet
  facet normal -0.15643446504023095 0.9876883405951377 0
    outer loop
      vertex 0 -1.335 -16.015
      vertex 0.4125376874905545 -1.26966044925403 -16.015
      vertex 0.4125376874905545 -1.26966044925403 -23.989999999999995
    endloop
  endfacet
  facet normal -0.45399049973954625 0.8910065241883681 0
    outer loop
      vertex 0.4125376874905545 -1.26966044925403 -16.015
      vertex 0.7846933118104513 -1.080037687490555 -16.015
      vertex 0.7846933118104513 -1.080037687490555 -23.989999999999995
    endloop
  endfacet
  facet normal -0.7071067811865475 0.7071067811865477 0
    outer loop
      vertex 0.7846933118104513 -1.080037687490555 -16.015
      vertex 1.0800376874905546 -0.7846933118104519 -23.989999999999995
      vertex 0.7846933118104513 -1.080037687490555 -23.989999999999995
    endloop
  endfacet
  facet normal -0.7071067811865475 0.7071067811865477 0
    outer loop
      vertex 0.7846933118104513 -1.080037687490555 -16.015
      vertex 1.0800376874905546 -0.7846933118104519 -16.015
      vertex 1.0800376874905546 -0.7846933118104519 -23.989999999999995
    endloop
  endfacet
  facet normal -0.8910065241883678 0.4539904997395472 0
    outer loop
      vertex 1.0800376874905546 -0.7846933118104519 -16.015
      vertex 1.26966044925403 -0.41253768749055514 -23.989999999999995
      vertex 1.0800376874905546 -0.7846933118104519 -23.989999999999995
    endloop
  endfacet
  facet normal -0.9876883405951377 0.15643446504023073 1.0888849212074194e-18
    outer loop
      vertex 1.26966044925403 -0.4125376874905552 -16.015
      vertex 1.335 0 -23.989999999999995
      vertex 1.26966044925403 -0.41253768749055514 -23.989999999999995
    endloop
  endfacet
  facet normal -0.8910065241883676 0.4539904997395472 4.166255004724611e-18
    outer loop
      vertex 1.0800376874905546 -0.7846933118104519 -16.015
      vertex 1.26966044925403 -0.4125376874905552 -16.015
      vertex 1.26966044925403 -0.41253768749055514 -23.989999999999995
    endloop
  endfacet
  facet normal -0.9876883405951379 0.15643446504023073 0
    outer loop
      vertex 1.26966044925403 -0.4125376874905552 -16.015
      vertex 1.335 0 -16.015
      vertex 1.335 0 -23.989999999999995
    endloop
  endfacet
  facet normal -0.7071067811865476 -0.7071067811865476 0
    outer loop
      vertex 1.0800376874905548 0.7846933118104517 -16.015
      vertex 0.7846933118104517 1.0800376874905548 -23.989999999999995
      vertex 1.0800376874905548 0.7846933118104517 -23.989999999999995
    endloop
  endfacet
  facet normal -0.7071067811865477 -0.7071067811865474 9.843839866355965e-18
    outer loop
      vertex 0.7846933118104518 1.0800376874905548 -16.015
      vertex 0.7846933118104517 1.0800376874905548 -23.989999999999995
      vertex 1.0800376874905548 0.7846933118104517 -16.015
    endloop
  endfacet
  facet normal -0.15643446504023084 -0.9876883405951379 0
    outer loop
      vertex 0.41253768749055486 1.26966044925403 -16.015
      vertex 0 1.335 -23.989999999999995
      vertex 0.41253768749055486 1.26966044925403 -23.989999999999995
    endloop
  endfacet
  facet normal -0.45399049973954664 -0.8910065241883679 6.320134241654247e-18
    outer loop
      vertex 0.7846933118104518 1.0800376874905548 -16.015
      vertex 0.41253768749055486 1.26966044925403 -23.989999999999995
      vertex 0.7846933118104517 1.0800376874905548 -23.989999999999995
    endloop
  endfacet
  facet normal -0.15643446504023084 -0.9876883405951379 0
    outer loop
      vertex 0 1.335 -16.015
      vertex 0 1.335 -23.989999999999995
      vertex 0.41253768749055486 1.26966044925403 -16.015
    endloop
  endfacet
  facet normal -0.4539904997395466 -0.891006524188368 0
    outer loop
      vertex 0.41253768749055486 1.26966044925403 -16.015
      vertex 0.41253768749055486 1.26966044925403 -23.989999999999995
      vertex 0.7846933118104518 1.0800376874905548 -16.015
    endloop
  endfacet
  facet normal -0.9876883405951377 -0.15643446504023084 0
    outer loop
      vertex 1.335 0 -16.015
      vertex 1.26966044925403 0.4125376874905548 -23.989999999999995
      vertex 1.335 0 -23.989999999999995
    endloop
  endfacet
  facet normal -0.891006524188368 -0.45399049973954664 -3.1600671208271233e-18
    outer loop
      vertex 1.26966044925403 0.41253768749055475 -16.015
      vertex 1.0800376874905548 0.7846933118104517 -23.989999999999995
      vertex 1.26966044925403 0.4125376874905548 -23.989999999999995
    endloop
  endfacet
  facet normal -0.9876883405951379 -0.1564344650402309 -1.0415637511811529e-18
    outer loop
      vertex 1.335 0 -16.015
      vertex 1.26966044925403 0.41253768749055475 -16.015
      vertex 1.26966044925403 0.4125376874905548 -23.989999999999995
    endloop
  endfacet
  facet normal -0.891006524188368 -0.4539904997395466 0
    outer loop
      vertex 1.26966044925403 0.41253768749055475 -16.015
      vertex 1.0800376874905548 0.7846933118104517 -16.015
      vertex 1.0800376874905548 0.7846933118104517 -23.989999999999995
    endloop
  endfacet
endsolid OpenSCAD_Model
