solid OpenSCAD_Model
  facet normal -0.8487587805699526 0.5287802307248325 0
    outer loop
      vertex 7.212024473438147 -6.927243535095993 -5
      vertex 9.396926207859085 -3.420201433256687 0
      vertex 9.396926207859085 -3.420201433256687 -5
    endloop
  endfacet
  facet normal -0.8487587805699526 0.5287802307248325 0
    outer loop
      vertex 9.396926207859085 -3.420201433256687 0
      vertex 7.212024473438147 -6.927243535095993 -5
      vertex 7.212024473438147 -6.927243535095993 0
    endloop
  endfacet
  facet normal 0 0 -1
    outer loop
      vertex 10.81803671015722 -10.390865302643991 -5
      vertex 9.396926207859085 -3.420201433256687 -5
      vertex 14.095389311788626 -5.130302149885031 -5
    endloop
  endfacet
  facet normal 0 0 -1
    outer loop
      vertex 9.396926207859085 -3.420201433256687 -5
      vertex 10.81803671015722 -10.390865302643991 -5
      vertex 7.212024473438147 -6.927243535095993 -5
    endloop
  endfacet
  facet normal 0.8487587805699527 -0.5287802307248323 0
    outer loop
      vertex 10.81803671015722 -10.390865302643991 5
      vertex 14.095389311788626 -5.130302149885031 -5
      vertex 14.095389311788626 -5.130302149885031 5
    endloop
  endfacet
  facet normal 0.8487587805699527 -0.5287802307248323 0
    outer loop
      vertex 14.095389311788626 -5.130302149885031 -5
      vertex 10.81803671015722 -10.390865302643991 5
      vertex 10.81803671015722 -10.390865302643991 -5
    endloop
  endfacet
  facet normal 0 0 1
    outer loop
      vertex 9.396926207859085 -3.420201433256687 5
      vertex 10.81803671015722 -10.390865302643991 5
      vertex 14.095389311788626 -5.130302149885031 5
    endloop
  endfacet
  facet normal 0 0 1
    outer loop
      vertex 10.81803671015722 -10.390865302643991 5
      vertex 9.396926207859085 -3.420201433256687 5
      vertex 7.212024473438147 -6.927243535095993 5
    endloop
  endfacet
  facet normal -0.8487587805699526 0.5287802307248325 0
    outer loop
      vertex 7.212024473438147 -6.927243535095993 0
      vertex 9.396926207859085 -3.420201433256687 5
      vertex 9.396926207859085 -3.420201433256687 0
    endloop
  endfacet
  facet normal -0.8487587805699526 0.5287802307248325 0
    outer loop
      vertex 9.396926207859085 -3.420201433256687 5
      vertex 7.212024473438147 -6.927243535095993 0
      vertex 7.212024473438147 -6.927243535095993 5
    endloop
  endfacet
  facet normal -0.5625274592166469 0.8267786025456052 0
    outer loop
      vertex 7.212024473438147 -6.927243535095993 -5
      vertex 3.7958037115389645 -9.251587657449235 0
      vertex 7.212024473438147 -6.927243535095993 0
    endloop
  endfacet
  facet normal -0.5625274592166469 0.8267786025456052 0
    outer loop
      vertex 3.7958037115389645 -9.251587657449235 0
      vertex 7.212024473438147 -6.927243535095993 -5
      vertex 3.7958037115389645 -9.251587657449235 -5
    endloop
  endfacet
  facet normal 0 0 -1
    outer loop
      vertex 5.693705567308447 -13.877381486173853 -5
      vertex 7.212024473438147 -6.927243535095993 -5
      vertex 10.81803671015722 -10.390865302643991 -5
    endloop
  endfacet
  facet normal 0 0 -1
    outer loop
      vertex 7.212024473438147 -6.927243535095993 -5
      vertex 5.693705567308447 -13.877381486173853 -5
      vertex 3.7958037115389645 -9.251587657449235 -5
    endloop
  endfacet
  facet normal 0.5625274592166467 -0.8267786025456052 0
    outer loop
      vertex 5.693705567308447 -13.877381486173853 -5
      vertex 10.81803671015722 -10.390865302643991 5
      vertex 5.693705567308447 -13.877381486173853 5
    endloop
  endfacet
  facet normal 0.5625274592166467 -0.8267786025456052 0
    outer loop
      vertex 10.81803671015722 -10.390865302643991 5
      vertex 5.693705567308447 -13.877381486173853 -5
      vertex 10.81803671015722 -10.390865302643991 -5
    endloop
  endfacet
  facet normal 0 0 1
    outer loop
      vertex 7.212024473438147 -6.927243535095993 5
      vertex 5.693705567308447 -13.877381486173853 5
      vertex 10.81803671015722 -10.390865302643991 5
    endloop
  endfacet
  facet normal 0 0 1
    outer loop
      vertex 5.693705567308447 -13.877381486173853 5
      vertex 7.212024473438147 -6.927243535095993 5
      vertex 3.7958037115389645 -9.251587657449235 5
    endloop
  endfacet
  facet normal -0.5625274592166469 0.8267786025456052 0
    outer loop
      vertex 7.212024473438147 -6.927243535095993 0
      vertex 3.7958037115389645 -9.251587657449235 5
      vertex 7.212024473438147 -6.927243535095993 5
    endloop
  endfacet
  facet normal -0.5625274592166469 0.8267786025456052 0
    outer loop
      vertex 3.7958037115389645 -9.251587657449235 5
      vertex 7.212024473438147 -6.927243535095993 0
      vertex 3.7958037115389645 -9.251587657449235 0
    endloop
  endfacet
  facet normal -0.18025503781390587 0.9836199069471435 0
    outer loop
      vertex 3.7958037115389645 -9.251587657449235 -5
      vertex -0.2684799281006094 -9.996395276708855 0
      vertex 3.7958037115389645 -9.251587657449235 0
    endloop
  endfacet
  facet normal -0.18025503781390587 0.9836199069471435 0
    outer loop
      vertex -0.2684799281006094 -9.996395276708855 0
      vertex 3.7958037115389645 -9.251587657449235 -5
      vertex -0.2684799281006094 -9.996395276708855 -5
    endloop
  endfacet
  facet normal 0 0 -1
    outer loop
      vertex 5.693705567308447 -13.877381486173853 -5
      vertex -0.2684799281006094 -9.996395276708855 -5
      vertex 3.7958037115389645 -9.251587657449235 -5
    endloop
  endfacet
  facet normal 0 0 -1
    outer loop
      vertex -0.2684799281006094 -9.996395276708855 -5
      vertex 5.693705567308447 -13.877381486173853 -5
      vertex -0.4027198921509134 -14.994592915063281 -5
    endloop
  endfacet
  facet normal 0.18025503781390573 -0.9836199069471435 0
    outer loop
      vertex -0.4027198921509134 -14.994592915063281 -5
      vertex 5.693705567308447 -13.877381486173853 5
      vertex -0.4027198921509134 -14.994592915063281 5
    endloop
  endfacet
  facet normal 0.18025503781390573 -0.9836199069471435 0
    outer loop
      vertex 5.693705567308447 -13.877381486173853 5
      vertex -0.4027198921509134 -14.994592915063281 -5
      vertex 5.693705567308447 -13.877381486173853 -5
    endloop
  endfacet
  facet normal 0 0 1
    outer loop
      vertex -0.2684799281006094 -9.996395276708855 5
      vertex 5.693705567308447 -13.877381486173853 5
      vertex 3.7958037115389645 -9.251587657449235 5
    endloop
  endfacet
  facet normal 0 0 1
    outer loop
      vertex 5.693705567308447 -13.877381486173853 5
      vertex -0.2684799281006094 -9.996395276708855 5
      vertex -0.4027198921509134 -14.994592915063281 5
    endloop
  endfacet
  facet normal -0.18025503781390587 0.9836199069471435 0
    outer loop
      vertex 3.7958037115389645 -9.251587657449235 0
      vertex -0.2684799281006094 -9.996395276708855 5
      vertex 3.7958037115389645 -9.251587657449235 5
    endloop
  endfacet
  facet normal -0.18025503781390587 0.9836199069471435 0
    outer loop
      vertex -0.2684799281006094 -9.996395276708855 5
      vertex 3.7958037115389645 -9.251587657449235 0
      vertex -0.2684799281006094 -9.996395276708855 0
    endloop
  endfacet
  facet normal 0.23279257835925218 0.9725264086187332 0
    outer loop
      vertex -0.2684799281006094 -9.996395276708855 -5
      vertex -4.28692561403054 -9.034504346103823 0
      vertex -0.2684799281006094 -9.996395276708855 0
    endloop
  endfacet
  facet normal 0.23279257835925218 0.9725264086187332 0
    outer loop
      vertex -4.28692561403054 -9.034504346103823 0
      vertex -0.2684799281006094 -9.996395276708855 -5
      vertex -4.28692561403054 -9.034504346103823 -5
    endloop
  endfacet
  facet normal 0 0 -1
    outer loop
      vertex -0.4027198921509134 -14.994592915063281 -5
      vertex -4.28692561403054 -9.034504346103823 -5
      vertex -0.2684799281006094 -9.996395276708855 -5
    endloop
  endfacet
  facet normal 0 0 -1
    outer loop
      vertex -4.28692561403054 -9.034504346103823 -5
      vertex -0.4027198921509134 -14.994592915063281 -5
      vertex -6.430388421045811 -13.551756519155736 -5
    endloop
  endfacet
  facet normal -0.23279257835925177 -0.9725264086187334 0
    outer loop
      vertex -6.430388421045811 -13.551756519155736 -5
      vertex -0.4027198921509134 -14.994592915063281 5
      vertex -6.430388421045811 -13.551756519155736 5
    endloop
  endfacet
  facet normal -0.23279257835925177 -0.9725264086187334 0
    outer loop
      vertex -0.4027198921509134 -14.994592915063281 5
      vertex -6.430388421045811 -13.551756519155736 -5
      vertex -0.4027198921509134 -14.994592915063281 -5
    endloop
  endfacet
  facet normal 0 0 1
    outer loop
      vertex -4.28692561403054 -9.034504346103823 5
      vertex -0.4027198921509134 -14.994592915063281 5
      vertex -0.2684799281006094 -9.996395276708855 5
    endloop
  endfacet
  facet normal 0 0 1
    outer loop
      vertex -0.4027198921509134 -14.994592915063281 5
      vertex -4.28692561403054 -9.034504346103823 5
      vertex -6.430388421045811 -13.551756519155736 5
    endloop
  endfacet
  facet normal 0.23279257835925218 0.9725264086187332 0
    outer loop
      vertex -0.2684799281006094 -9.996395276708855 0
      vertex -4.28692561403054 -9.034504346103823 5
      vertex -0.2684799281006094 -9.996395276708855 5
    endloop
  endfacet
  facet normal 0.23279257835925218 0.9725264086187332 0
    outer loop
      vertex -4.28692561403054 -9.034504346103823 5
      vertex -0.2684799281006094 -9.996395276708855 0
      vertex -4.28692561403054 -9.034504346103823 0
    endloop
  endfacet
  facet normal 0.6060951919682659 0.7953921160490284 0
    outer loop
      vertex -4.28692561403054 -9.034504346103823 -5
      vertex -7.573458492761796 -6.530139849835854 0
      vertex -4.28692561403054 -9.034504346103823 0
    endloop
  endfacet
  facet normal 0.6060951919682659 0.7953921160490284 0
    outer loop
      vertex -7.573458492761796 -6.530139849835854 0
      vertex -4.28692561403054 -9.034504346103823 -5
      vertex -7.573458492761796 -6.530139849835854 -5
    endloop
  endfacet
  facet normal 0 0 -1
    outer loop
      vertex -6.430388421045811 -13.551756519155736 -5
      vertex -7.573458492761796 -6.530139849835854 -5
      vertex -4.28692561403054 -9.034504346103823 -5
    endloop
  endfacet
  facet normal 0 0 -1
    outer loop
      vertex -7.573458492761796 -6.530139849835854 -5
      vertex -6.430388421045811 -13.551756519155736 -5
      vertex -11.360187739142695 -9.795209774753781 -5
    endloop
  endfacet
  facet normal -0.6060951919682662 -0.795392116049028 0
    outer loop
      vertex -11.360187739142695 -9.795209774753781 -5
      vertex -6.430388421045811 -13.551756519155736 5
      vertex -11.360187739142695 -9.795209774753781 5
    endloop
  endfacet
  facet normal -0.6060951919682662 -0.795392116049028 0
    outer loop
      vertex -6.430388421045811 -13.551756519155736 5
      vertex -11.360187739142695 -9.795209774753781 -5
      vertex -6.430388421045811 -13.551756519155736 -5
    endloop
  endfacet
  facet normal 0 0 1
    outer loop
      vertex -7.573458492761796 -6.530139849835854 5
      vertex -6.430388421045811 -13.551756519155736 5
      vertex -4.28692561403054 -9.034504346103823 5
    endloop
  endfacet
  facet normal 0 0 1
    outer loop
      vertex -6.430388421045811 -13.551756519155736 5
      vertex -7.573458492761796 -6.530139849835854 5
      vertex -11.360187739142695 -9.795209774753781 5
    endloop
  endfacet
  facet normal 0.6060951919682659 0.7953921160490284 0
    outer loop
      vertex -4.28692561403054 -9.034504346103823 0
      vertex -7.573458492761796 -6.530139849835854 5
      vertex -4.28692561403054 -9.034504346103823 5
    endloop
  endfacet
  facet normal 0.6060951919682659 0.7953921160490284 0
    outer loop
      vertex -7.573458492761796 -6.530139849835854 5
      vertex -4.28692561403054 -9.034504346103823 0
      vertex -7.573458492761796 -6.530139849835854 0
    endloop
  endfacet
  facet normal 0.8759183255668879 0.48245941480719334 0
    outer loop
      vertex -7.573458492761796 -6.530139849835854 0
      vertex -9.56696420827425 -2.910875441787133 -5
      vertex -9.56696420827425 -2.910875441787133 0
    endloop
  endfacet
  facet normal 0.8759183255668879 0.48245941480719334 0
    outer loop
      vertex -9.56696420827425 -2.910875441787133 -5
      vertex -7.573458492761796 -6.530139849835854 0
      vertex -7.573458492761796 -6.530139849835854 -5
    endloop
  endfacet
  facet normal 0 0 -1
    outer loop
      vertex -11.360187739142695 -9.795209774753781 -5
      vertex -9.56696420827425 -2.910875441787133 -5
      vertex -7.573458492761796 -6.530139849835854 -5
    endloop
  endfacet
  facet normal 0 0 -1
    outer loop
      vertex -9.56696420827425 -2.910875441787133 -5
      vertex -11.360187739142695 -9.795209774753781 -5
      vertex -14.350446312411377 -4.366313162680698 -5
    endloop
  endfacet
  facet normal -0.8759183255668879 -0.4824594148071934 0
    outer loop
      vertex -11.360187739142695 -9.795209774753781 -5
      vertex -14.350446312411377 -4.366313162680698 5
      vertex -14.350446312411377 -4.366313162680698 -5
    endloop
  endfacet
  facet normal -0.8759183255668879 -0.4824594148071934 0
    outer loop
      vertex -14.350446312411377 -4.366313162680698 5
      vertex -11.360187739142695 -9.795209774753781 -5
      vertex -11.360187739142695 -9.795209774753781 5
    endloop
  endfacet
  facet normal 0 0 1
    outer loop
      vertex -9.56696420827425 -2.910875441787133 5
      vertex -11.360187739142695 -9.795209774753781 5
      vertex -7.573458492761796 -6.530139849835854 5
    endloop
  endfacet
  facet normal 0 0 1
    outer loop
      vertex -11.360187739142695 -9.795209774753781 5
      vertex -9.56696420827425 -2.910875441787133 5
      vertex -14.350446312411377 -4.366313162680698 5
    endloop
  endfacet
  facet normal 0.8759183255668879 0.48245941480719334 0
    outer loop
      vertex -7.573458492761796 -6.530139849835854 5
      vertex -9.56696420827425 -2.910875441787133 0
      vertex -9.56696420827425 -2.910875441787133 5
    endloop
  endfacet
  facet normal 0.8759183255668879 0.48245941480719334 0
    outer loop
      vertex -9.56696420827425 -2.910875441787133 0
      vertex -7.573458492761796 -6.530139849835854 5
      vertex -7.573458492761796 -6.530139849835854 0
    endloop
  endfacet
  facet normal 0.9961946980917454 0.08715574274765917 0
    outer loop
      vertex -9.56696420827425 -2.910875441787133 0
      vertex -9.927088740980542 1.2053668025532276 -5
      vertex -9.927088740980542 1.2053668025532276 0
    endloop
  endfacet
  facet normal 0.9961946980917454 0.08715574274765917 0
    outer loop
      vertex -9.927088740980542 1.2053668025532276 -5
      vertex -9.56696420827425 -2.910875441787133 0
      vertex -9.56696420827425 -2.910875441787133 -5
    endloop
  endfacet
  facet normal 0 0 -1
    outer loop
      vertex -14.350446312411377 -4.366313162680698 -5
      vertex -9.927088740980542 1.2053668025532276 -5
      vertex -9.56696420827425 -2.910875441787133 -5
    endloop
  endfacet
  facet normal 0 0 -1
    outer loop
      vertex -9.927088740980542 1.2053668025532276 -5
      vertex -14.350446312411377 -4.366313162680698 -5
      vertex -14.890633111470812 1.808050203829842 -5
    endloop
  endfacet
  facet normal -0.9961946980917454 -0.08715574274765876 0
    outer loop
      vertex -14.350446312411377 -4.366313162680698 -5
      vertex -14.890633111470812 1.808050203829842 5
      vertex -14.890633111470812 1.808050203829842 -5
    endloop
  endfacet
  facet normal -0.9961946980917454 -0.08715574274765876 0
    outer loop
      vertex -14.890633111470812 1.808050203829842 5
      vertex -14.350446312411377 -4.366313162680698 -5
      vertex -14.350446312411377 -4.366313162680698 5
    endloop
  endfacet
  facet normal 0 0 1
    outer loop
      vertex -9.927088740980542 1.2053668025532276 5
      vertex -14.350446312411377 -4.366313162680698 5
      vertex -9.56696420827425 -2.910875441787133 5
    endloop
  endfacet
  facet normal 0 0 1
    outer loop
      vertex -14.350446312411377 -4.366313162680698 5
      vertex -9.927088740980542 1.2053668025532276 5
      vertex -14.890633111470812 1.808050203829842 5
    endloop
  endfacet
  facet normal 0.9961946980917454 0.08715574274765917 0
    outer loop
      vertex -9.56696420827425 -2.910875441787133 5
      vertex -9.927088740980542 1.2053668025532276 0
      vertex -9.927088740980542 1.2053668025532276 5
    endloop
  endfacet
  facet normal 0.9961946980917454 0.08715574274765917 0
    outer loop
      vertex -9.927088740980542 1.2053668025532276 0
      vertex -9.56696420827425 -2.910875441787133 5
      vertex -9.56696420827425 -2.910875441787133 0
    endloop
  endfacet
  facet normal 0.9463893562032654 -0.32302815119609785 0
    outer loop
      vertex -9.927088740980542 1.2053668025532276 0
      vertex -8.59234752562217 5.115815086468097 -5
      vertex -8.59234752562217 5.115815086468097 0
    endloop
  endfacet
  facet normal 0.9463893562032654 -0.32302815119609785 0
    outer loop
      vertex -8.59234752562217 5.115815086468097 -5
      vertex -9.927088740980542 1.2053668025532276 0
      vertex -9.927088740980542 1.2053668025532276 -5
    endloop
  endfacet
  facet normal 0 0 -1
    outer loop
      vertex -9.927088740980542 1.2053668025532276 -5
      vertex -12.888521288433255 7.673722629702146 -5
      vertex -8.59234752562217 5.115815086468097 -5
    endloop
  endfacet
  facet normal 0 0 -1
    outer loop
      vertex -12.888521288433255 7.673722629702146 -5
      vertex -9.927088740980542 1.2053668025532276 -5
      vertex -14.890633111470812 1.808050203829842 -5
    endloop
  endfacet
  facet normal -0.9463893562032653 0.3230281511960977 0
    outer loop
      vertex -14.890633111470812 1.808050203829842 -5
      vertex -12.888521288433255 7.673722629702146 5
      vertex -12.888521288433255 7.673722629702146 -5
    endloop
  endfacet
  facet normal -0.9463893562032653 0.3230281511960977 0
    outer loop
      vertex -12.888521288433255 7.673722629702146 5
      vertex -14.890633111470812 1.808050203829842 -5
      vertex -14.890633111470812 1.808050203829842 5
    endloop
  endfacet
  facet normal 0 0 1
    outer loop
      vertex -12.888521288433255 7.673722629702146 5
      vertex -9.927088740980542 1.2053668025532276 5
      vertex -8.59234752562217 5.115815086468097 5
    endloop
  endfacet
  facet normal 0 0 1
    outer loop
      vertex -9.927088740980542 1.2053668025532276 5
      vertex -12.888521288433255 7.673722629702146 5
      vertex -14.890633111470812 1.808050203829842 5
    endloop
  endfacet
  facet normal 0.9463893562032654 -0.32302815119609785 0
    outer loop
      vertex -9.927088740980542 1.2053668025532276 5
      vertex -8.59234752562217 5.115815086468097 0
      vertex -8.59234752562217 5.115815086468097 5
    endloop
  endfacet
  facet normal 0.9463893562032654 -0.32302815119609785 0
    outer loop
      vertex -8.59234752562217 5.115815086468097 0
      vertex -9.927088740980542 1.2053668025532276 5
      vertex -9.927088740980542 1.2053668025532276 0
    endloop
  endfacet
  facet normal 0.7350056355963287 -0.6780609969918907 0
    outer loop
      vertex -8.59234752562217 5.115815086468097 0
      vertex -5.790622797108791 8.152833103995443 -5
      vertex -5.790622797108791 8.152833103995443 0
    endloop
  endfacet
  facet normal 0.7350056355963287 -0.6780609969918907 0
    outer loop
      vertex -5.790622797108791 8.152833103995443 -5
      vertex -8.59234752562217 5.115815086468097 0
      vertex -8.59234752562217 5.115815086468097 -5
    endloop
  endfacet
  facet normal 0 0 -1
    outer loop
      vertex -8.59234752562217 5.115815086468097 -5
      vertex -8.685934195663188 12.229249655993165 -5
      vertex -5.790622797108791 8.152833103995443 -5
    endloop
  endfacet
  facet normal 0 0 -1
    outer loop
      vertex -8.685934195663188 12.229249655993165 -5
      vertex -8.59234752562217 5.115815086468097 -5
      vertex -12.888521288433255 7.673722629702146 -5
    endloop
  endfacet
  facet normal -0.7350056355963289 0.6780609969918906 0
    outer loop
      vertex -12.888521288433255 7.673722629702146 -5
      vertex -8.685934195663188 12.229249655993165 5
      vertex -8.685934195663188 12.229249655993165 -5
    endloop
  endfacet
  facet normal -0.7350056355963289 0.6780609969918906 0
    outer loop
      vertex -8.685934195663188 12.229249655993165 5
      vertex -12.888521288433255 7.673722629702146 -5
      vertex -12.888521288433255 7.673722629702146 5
    endloop
  endfacet
  facet normal 0 0 1
    outer loop
      vertex -8.685934195663188 12.229249655993165 5
      vertex -8.59234752562217 5.115815086468097 5
      vertex -5.790622797108791 8.152833103995443 5
    endloop
  endfacet
  facet normal 0 0 1
    outer loop
      vertex -8.59234752562217 5.115815086468097 5
      vertex -8.685934195663188 12.229249655993165 5
      vertex -12.888521288433255 7.673722629702146 5
    endloop
  endfacet
  facet normal 0.7350056355963287 -0.6780609969918907 0
    outer loop
      vertex -8.59234752562217 5.115815086468097 5
      vertex -5.790622797108791 8.152833103995443 0
      vertex -5.790622797108791 8.152833103995443 5
    endloop
  endfacet
  facet normal 0.7350056355963287 -0.6780609969918907 0
    outer loop
      vertex -5.790622797108791 8.152833103995443 0
      vertex -8.59234752562217 5.115815086468097 5
      vertex -8.59234752562217 5.115815086468097 0
    endloop
  endfacet
  facet normal 0.3981333746015016 -0.9173275402103768 0
    outer loop
      vertex -5.790622797108791 8.152833103995443 -5
      vertex -2.0002569377604504 9.797906520422677 0
      vertex -5.790622797108791 8.152833103995443 0
    endloop
  endfacet
  facet normal 0.3981333746015016 -0.9173275402103768 0
    outer loop
      vertex -2.0002569377604504 9.797906520422677 0
      vertex -5.790622797108791 8.152833103995443 -5
      vertex -2.0002569377604504 9.797906520422677 -5
    endloop
  endfacet
  facet normal 0 0 -1
    outer loop
      vertex -5.790622797108791 8.152833103995443 -5
      vertex -3.0003854066406763 14.696859780634016 -5
      vertex -2.0002569377604504 9.797906520422677 -5
    endloop
  endfacet
  facet normal 0 0 -1
    outer loop
      vertex -3.0003854066406763 14.696859780634016 -5
      vertex -5.790622797108791 8.152833103995443 -5
      vertex -8.685934195663188 12.229249655993165 -5
    endloop
  endfacet
  facet normal -0.3981333746015015 0.9173275402103768 0
    outer loop
      vertex -3.0003854066406763 14.696859780634016 -5
      vertex -8.685934195663188 12.229249655993165 5
      vertex -3.0003854066406763 14.696859780634016 5
    endloop
  endfacet
  facet normal -0.3981333746015015 0.9173275402103768 0
    outer loop
      vertex -8.685934195663188 12.229249655993165 5
      vertex -3.0003854066406763 14.696859780634016 -5
      vertex -8.685934195663188 12.229249655993165 -5
    endloop
  endfacet
  facet normal 0 0 1
    outer loop
      vertex -3.0003854066406763 14.696859780634016 5
      vertex -5.790622797108791 8.152833103995443 5
      vertex -2.0002569377604504 9.797906520422677 5
    endloop
  endfacet
  facet normal 0 0 1
    outer loop
      vertex -5.790622797108791 8.152833103995443 5
      vertex -3.0003854066406763 14.696859780634016 5
      vertex -8.685934195663188 12.229249655993165 5
    endloop
  endfacet
  facet normal 0.3981333746015016 -0.9173275402103768 0
    outer loop
      vertex -5.790622797108791 8.152833103995443 0
      vertex -2.0002569377604504 9.797906520422677 5
      vertex -5.790622797108791 8.152833103995443 5
    endloop
  endfacet
  facet normal 0.3981333746015016 -0.9173275402103768 0
    outer loop
      vertex -2.0002569377604504 9.797906520422677 5
      vertex -5.790622797108791 8.152833103995443 0
      vertex -2.0002569377604504 9.797906520422677 0
    endloop
  endfacet
  facet normal -0.006712754400356088 -0.999977469210362 0
    outer loop
      vertex -2.0002569377604504 9.797906520422677 -5
      vertex 2.1316155867941595 9.77016965001817 0
      vertex -2.0002569377604504 9.797906520422677 0
    endloop
  endfacet
  facet normal -0.006712754400356088 -0.999977469210362 0
    outer loop
      vertex 2.1316155867941595 9.77016965001817 0
      vertex -2.0002569377604504 9.797906520422677 -5
      vertex 2.1316155867941595 9.77016965001817 -5
    endloop
  endfacet
  facet normal 0 0 -1
    outer loop
      vertex -2.0002569377604504 9.797906520422677 -5
      vertex 3.19742338019124 14.655254475027258 -5
      vertex 2.1316155867941595 9.77016965001817 -5
    endloop
  endfacet
  facet normal 0 0 -1
    outer loop
      vertex 3.19742338019124 14.655254475027258 -5
      vertex -2.0002569377604504 9.797906520422677 -5
      vertex -3.0003854066406763 14.696859780634016 -5
    endloop
  endfacet
  facet normal 0.006712754400355799 0.999977469210362 0
    outer loop
      vertex 3.19742338019124 14.655254475027258 -5
      vertex -3.0003854066406763 14.696859780634016 5
      vertex 3.19742338019124 14.655254475027258 5
    endloop
  endfacet
  facet normal 0.006712754400355799 0.999977469210362 0
    outer loop
      vertex -3.0003854066406763 14.696859780634016 5
      vertex 3.19742338019124 14.655254475027258 -5
      vertex -3.0003854066406763 14.696859780634016 -5
    endloop
  endfacet
  facet normal 0 0 1
    outer loop
      vertex 3.19742338019124 14.655254475027258 5
      vertex -2.0002569377604504 9.797906520422677 5
      vertex 2.1316155867941595 9.77016965001817 5
    endloop
  endfacet
  facet normal 0 0 1
    outer loop
      vertex -2.0002569377604504 9.797906520422677 5
      vertex 3.19742338019124 14.655254475027258 5
      vertex -3.0003854066406763 14.696859780634016 5
    endloop
  endfacet
  facet normal -0.006712754400356088 -0.999977469210362 0
    outer loop
      vertex -2.0002569377604504 9.797906520422677 0
      vertex 2.1316155867941595 9.77016965001817 5
      vertex -2.0002569377604504 9.797906520422677 5
    endloop
  endfacet
  facet normal -0.006712754400356088 -0.999977469210362 0
    outer loop
      vertex 2.1316155867941595 9.77016965001817 5
      vertex -2.0002569377604504 9.797906520422677 0
      vertex 2.1316155867941595 9.77016965001817 0
    endloop
  endfacet
  facet normal -0.410412805452756 -0.9118998459920905 0
    outer loop
      vertex 2.1316155867941595 9.77016965001817 -5
      vertex 5.899554400231224 8.074358047468072 0
      vertex 2.1316155867941595 9.77016965001817 0
    endloop
  endfacet
  facet normal -0.410412805452756 -0.9118998459920905 0
    outer loop
      vertex 5.899554400231224 8.074358047468072 0
      vertex 2.1316155867941595 9.77016965001817 -5
      vertex 5.899554400231224 8.074358047468072 -5
    endloop
  endfacet
  facet normal 0 0 -1
    outer loop
      vertex 5.899554400231224 8.074358047468072 -5
      vertex 3.19742338019124 14.655254475027258 -5
      vertex 8.849331600346837 12.111537071202108 -5
    endloop
  endfacet
  facet normal 0 0 -1
    outer loop
      vertex 3.19742338019124 14.655254475027258 -5
      vertex 5.899554400231224 8.074358047468072 -5
      vertex 2.1316155867941595 9.77016965001817 -5
    endloop
  endfacet
  facet normal 0.4104128054527565 0.9118998459920903 0
    outer loop
      vertex 8.849331600346837 12.111537071202108 -5
      vertex 3.19742338019124 14.655254475027258 5
      vertex 8.849331600346837 12.111537071202108 5
    endloop
  endfacet
  facet normal 0.4104128054527565 0.9118998459920903 0
    outer loop
      vertex 3.19742338019124 14.655254475027258 5
      vertex 8.849331600346837 12.111537071202108 -5
      vertex 3.19742338019124 14.655254475027258 -5
    endloop
  endfacet
  facet normal 0 0 1
    outer loop
      vertex 3.19742338019124 14.655254475027258 5
      vertex 5.899554400231224 8.074358047468072 5
      vertex 8.849331600346837 12.111537071202108 5
    endloop
  endfacet
  facet normal 0 0 1
    outer loop
      vertex 5.899554400231224 8.074358047468072 5
      vertex 3.19742338019124 14.655254475027258 5
      vertex 2.1316155867941595 9.77016965001817 5
    endloop
  endfacet
  facet normal -0.410412805452756 -0.9118998459920905 0
    outer loop
      vertex 2.1316155867941595 9.77016965001817 0
      vertex 5.899554400231224 8.074358047468072 5
      vertex 2.1316155867941595 9.77016965001817 5
    endloop
  endfacet
  facet normal -0.410412805452756 -0.9118998459920905 0
    outer loop
      vertex 5.899554400231224 8.074358047468072 5
      vertex 2.1316155867941595 9.77016965001817 0
      vertex 5.899554400231224 8.074358047468072 0
    endloop
  endfacet
  facet normal -0.7440425040908105 -0.6681322863821776 0
    outer loop
      vertex 8.660254037844386 5.000000000000001 -5
      vertex 5.899554400231224 8.074358047468072 0
      vertex 5.899554400231224 8.074358047468072 -5
    endloop
  endfacet
  facet normal -0.7440425040908105 -0.6681322863821776 0
    outer loop
      vertex 5.899554400231224 8.074358047468072 0
      vertex 8.660254037844386 5.000000000000001 -5
      vertex 8.660254037844386 5.000000000000001 0
    endloop
  endfacet
  facet normal 0 0 -1
    outer loop
      vertex 8.660254037844386 5.000000000000001 -5
      vertex 8.849331600346837 12.111537071202108 -5
      vertex 12.99038105676658 7.500000000000003 -5
    endloop
  endfacet
  facet normal 0 0 -1
    outer loop
      vertex 8.849331600346837 12.111537071202108 -5
      vertex 8.660254037844386 5.000000000000001 -5
      vertex 5.899554400231224 8.074358047468072 -5
    endloop
  endfacet
  facet normal 0.7440425040908102 0.6681322863821779 0
    outer loop
      vertex 12.99038105676658 7.500000000000003 5
      vertex 8.849331600346837 12.111537071202108 -5
      vertex 8.849331600346837 12.111537071202108 5
    endloop
  endfacet
  facet normal 0.7440425040908102 0.6681322863821779 0
    outer loop
      vertex 8.849331600346837 12.111537071202108 -5
      vertex 12.99038105676658 7.500000000000003 5
      vertex 12.99038105676658 7.500000000000003 -5
    endloop
  endfacet
  facet normal 0 0 1
    outer loop
      vertex 8.849331600346837 12.111537071202108 5
      vertex 8.660254037844386 5.000000000000001 5
      vertex 12.99038105676658 7.500000000000003 5
    endloop
  endfacet
  facet normal 0 0 1
    outer loop
      vertex 8.660254037844386 5.000000000000001 5
      vertex 8.849331600346837 12.111537071202108 5
      vertex 5.899554400231224 8.074358047468072 5
    endloop
  endfacet
  facet normal -0.7440425040908105 -0.6681322863821776 0
    outer loop
      vertex 8.660254037844386 5.000000000000001 0
      vertex 5.899554400231224 8.074358047468072 5
      vertex 5.899554400231224 8.074358047468072 0
    endloop
  endfacet
  facet normal -0.7440425040908105 -0.6681322863821776 0
    outer loop
      vertex 5.899554400231224 8.074358047468072 5
      vertex 8.660254037844386 5.000000000000001 0
      vertex 8.660254037844386 5.000000000000001 5
    endloop
  endfacet
  facet normal 0.3420201433256688 0.9396926207859083 0
    outer loop
      vertex 14.095389311788626 -5.130302149885031 5
      vertex 9.396926207859085 -3.420201433256687 0
      vertex 9.396926207859085 -3.420201433256687 5
    endloop
  endfacet
  facet normal 0.3420201433256688 0.9396926207859083 0
    outer loop
      vertex 14.095389311788626 -5.130302149885031 -5
      vertex 9.396926207859085 -3.420201433256687 0
      vertex 14.095389311788626 -5.130302149885031 5
    endloop
  endfacet
  facet normal 0.3420201433256688 0.9396926207859083 0
    outer loop
      vertex 9.396926207859085 -3.420201433256687 0
      vertex 14.095389311788626 -5.130302149885031 -5
      vertex 9.396926207859085 -3.420201433256687 -5
    endloop
  endfacet
  facet normal 0.5000000000000001 -0.8660254037844385 0
    outer loop
      vertex 8.660254037844386 5.000000000000001 0
      vertex 12.99038105676658 7.500000000000003 5
      vertex 8.660254037844386 5.000000000000001 5
    endloop
  endfacet
  facet normal 0.5000000000000001 -0.8660254037844385 0
    outer loop
      vertex 12.99038105676658 7.500000000000003 -5
      vertex 8.660254037844386 5.000000000000001 0
      vertex 8.660254037844386 5.000000000000001 -5
    endloop
  endfacet
  facet normal 0.5000000000000001 -0.8660254037844385 0
    outer loop
      vertex 8.660254037844386 5.000000000000001 0
      vertex 12.99038105676658 7.500000000000003 -5
      vertex 12.99038105676658 7.500000000000003 5
    endloop
  endfacet
endsolid OpenSCAD_Model
