<?xml version="1.0" encoding="UTF-8" standalone="no"?>
<!DOCTYPE svg PUBLIC "-//W3C//DTD SVG 1.1//EN"
 "http://www.w3.org/Graphics/SVG/1.1/DTD/svg11.dtd">
<!-- Generated by graphviz version 5.0.0 (20220707.1540)
 -->
<!-- Title: default Pages: 1 -->
<svg width="571pt" height="692pt"
 viewBox="0.00 0.00 571.27 692.00" xmlns="http://www.w3.org/2000/svg" xmlns:xlink="http://www.w3.org/1999/xlink">
<g id="graph0" class="graph" transform="scale(1 1) rotate(0) translate(4 688)">
<title>default</title>
<polygon fill="white" stroke="transparent" points="-4,4 -4,-688 567.27,-688 567.27,4 -4,4"/>
<!-- root_38 -->
<g id="node1" class="node">
<title>root_38</title>
<g id="a_node1"><a xlink:href="javascript:s=&quot;\(\)\nNone&quot;; console.log(s); alert(s);" xlink:title="root">
<ellipse fill="none" stroke="black" cx="27" cy="-396" rx="27" ry="18"/>
<text text-anchor="middle" x="27" y="-392.3" font-family="Times New Roman,serif" font-size="14.00">root</text>
</a>
</g>
</g>
<!-- default_39 -->
<g id="node2" class="node">
<title>default_39</title>
<g id="a_node2"><a xlink:href="javascript:s=&quot;\(&#x27;default&#x27;,\)\nSleeveAndKeyway&quot;; console.log(s); alert(s);" xlink:title="SleeveAndKeyway">
<ellipse fill="none" stroke="black" cx="167.34" cy="-585" rx="35.19" ry="18"/>
<text text-anchor="middle" x="167.34" y="-581.3" font-family="Times New Roman,serif" font-size="14.00">default</text>
</a>
</g>
</g>
<!-- root_38&#45;&gt;default_39 -->
<g id="edge1" class="edge">
<title>root_38&#45;&gt;default_39</title>
<path fill="none" stroke="black" d="M39.8,-412.11C63.91,-445.06 119.02,-520.35 147.91,-559.81"/>
<polygon fill="black" stroke="black" points="145.25,-562.11 153.98,-568.12 150.9,-557.98 145.25,-562.11"/>
</g>
<!-- 43 -->
<g id="node6" class="node">
<title>43</title>
<g id="a_node6"><a xlink:href="javascript:s=&quot;\(&quot;&#x27;surface&#x27;,\ 0,\ &quot;,\)\nAnnotatedCoordinates&quot;; console.log(s); alert(s);" xlink:title="AnnotatedCoordinates">
<ellipse fill="none" stroke="black" cx="167.34" cy="-396" rx="55.49" ry="18"/>
<text text-anchor="middle" x="167.34" y="-392.3" font-family="Times New Roman,serif" font-size="14.00">&#39;surface&#39;, 0, </text>
</a>
</g>
</g>
<!-- root_38&#45;&gt;43 -->
<g id="edge5" class="edge">
<title>root_38&#45;&gt;43</title>
<path fill="none" stroke="black" d="M54.02,-396C67.57,-396 84.79,-396 101.66,-396"/>
<polygon fill="black" stroke="black" points="102.08,-399.5 112.08,-396 102.08,-392.5 102.08,-399.5"/>
</g>
<!-- 59 -->
<g id="node22" class="node">
<title>59</title>
<g id="a_node22"><a xlink:href="javascript:s=&quot;\(&quot;&#x27;inner_surface&#x27;,\ 0,\ &quot;,\)\nAnnotatedCoordinates&quot;; console.log(s); alert(s);" xlink:title="AnnotatedCoordinates">
<ellipse fill="none" stroke="black" cx="167.34" cy="-153" rx="77.19" ry="18"/>
<text text-anchor="middle" x="167.34" y="-149.3" font-family="Times New Roman,serif" font-size="14.00">&#39;inner_surface&#39;, 0, </text>
</a>
</g>
</g>
<!-- root_38&#45;&gt;59 -->
<g id="edge21" class="edge">
<title>root_38&#45;&gt;59</title>
<path fill="none" stroke="black" d="M37.51,-379.3C61.07,-337.91 122.33,-230.32 151.05,-179.86"/>
<polygon fill="black" stroke="black" points="154.11,-181.55 156.02,-171.13 148.03,-178.09 154.11,-181.55"/>
</g>
<!-- outer_40 -->
<g id="node3" class="node">
<title>outer_40</title>
<g id="a_node3"><a xlink:href="javascript:s=&quot;\(&#x27;default&#x27;,\ &#x27;outer&#x27;\)\nCylinder&quot;; console.log(s); alert(s);" xlink:title="Cylinder">
<ellipse fill="none" stroke="black" cx="317.08" cy="-666" rx="29.5" ry="18"/>
<text text-anchor="middle" x="317.08" y="-662.3" font-family="Times New Roman,serif" font-size="14.00">outer</text>
</a>
</g>
</g>
<!-- default_39&#45;&gt;outer_40 -->
<g id="edge2" class="edge">
<title>default_39&#45;&gt;outer_40</title>
<path fill="none" stroke="black" d="M192.08,-598.01C217.58,-612 258.18,-634.25 285.93,-649.47"/>
<polygon fill="black" stroke="black" points="284.35,-652.59 294.8,-654.33 287.72,-646.46 284.35,-652.59"/>
</g>
<!-- inner_41 -->
<g id="node4" class="node">
<title>inner_41</title>
<g id="a_node4"><a xlink:href="javascript:s=&quot;\(&#x27;default&#x27;,\ &#x27;inner&#x27;\)\nCylinder&quot;; console.log(s); alert(s);" xlink:title="Cylinder">
<ellipse fill="none" stroke="black" cx="317.08" cy="-612" rx="28.7" ry="18"/>
<text text-anchor="middle" x="317.08" y="-608.3" font-family="Times New Roman,serif" font-size="14.00">inner</text>
</a>
</g>
</g>
<!-- default_39&#45;&gt;inner_41 -->
<g id="edge3" class="edge">
<title>default_39&#45;&gt;inner_41</title>
<path fill="none" stroke="black" d="M200.77,-590.93C223.95,-595.16 255.2,-600.87 279.32,-605.28"/>
<polygon fill="black" stroke="black" points="278.71,-608.73 289.17,-607.08 279.97,-601.84 278.71,-608.73"/>
</g>
<!-- sleeve_42 -->
<g id="node5" class="node">
<title>sleeve_42</title>
<g id="a_node5"><a xlink:href="javascript:s=&quot;\(&#x27;default&#x27;,\ &#x27;sleeve&#x27;\)\nLinearExtrude&quot;; console.log(s); alert(s);" xlink:title="LinearExtrude">
<ellipse fill="none" stroke="black" cx="317.08" cy="-558" rx="32.49" ry="18"/>
<text text-anchor="middle" x="317.08" y="-554.3" font-family="Times New Roman,serif" font-size="14.00">sleeve</text>
</a>
</g>
</g>
<!-- default_39&#45;&gt;sleeve_42 -->
<g id="edge4" class="edge">
<title>default_39&#45;&gt;sleeve_42</title>
<path fill="none" stroke="black" d="M200.77,-579.07C222.81,-575.05 252.15,-569.68 275.71,-565.38"/>
<polygon fill="black" stroke="black" points="276.54,-568.78 285.75,-563.54 275.29,-561.9 276.54,-568.78"/>
</g>
<!-- coords_44 -->
<g id="node7" class="node">
<title>coords_44</title>
<g id="a_node7"><a xlink:href="javascript:s=&quot;\(&quot;&#x27;surface&#x27;,\ 0,\ &quot;,\ &#x27;coords&#x27;\)\nCoordinates&quot;; console.log(s); alert(s);" xlink:title="Coordinates">
<ellipse fill="none" stroke="black" cx="317.08" cy="-504" rx="36.29" ry="18"/>
<text text-anchor="middle" x="317.08" y="-500.3" font-family="Times New Roman,serif" font-size="14.00">coords</text>
</a>
</g>
</g>
<!-- 43&#45;&gt;coords_44 -->
<g id="edge6" class="edge">
<title>43&#45;&gt;coords_44</title>
<path fill="none" stroke="black" d="M190.78,-412.4C216.68,-431.33 259.32,-462.5 287.55,-483.14"/>
<polygon fill="black" stroke="black" points="285.68,-486.11 295.81,-489.18 289.81,-480.46 285.68,-486.11"/>
</g>
<!-- x_55 -->
<g id="node18" class="node">
<title>x_55</title>
<g id="a_node18"><a xlink:href="javascript:s=&quot;\(&quot;&#x27;surface&#x27;,\ 0,\ &quot;,\ &#x27;x&#x27;\)\nText&quot;; console.log(s); alert(s);" xlink:title="Text">
<ellipse fill="none" stroke="black" cx="317.08" cy="-450" rx="27" ry="18"/>
<text text-anchor="middle" x="317.08" y="-446.3" font-family="Times New Roman,serif" font-size="14.00">x</text>
</a>
</g>
</g>
<!-- 43&#45;&gt;x_55 -->
<g id="edge17" class="edge">
<title>43&#45;&gt;x_55</title>
<path fill="none" stroke="black" d="M204.86,-409.35C228.94,-418.15 260.2,-429.57 283.44,-438.07"/>
<polygon fill="black" stroke="black" points="282.28,-441.37 292.87,-441.52 284.68,-434.79 282.28,-441.37"/>
</g>
<!-- y_56 -->
<g id="node19" class="node">
<title>y_56</title>
<g id="a_node19"><a xlink:href="javascript:s=&quot;\(&quot;&#x27;surface&#x27;,\ 0,\ &quot;,\ &#x27;y&#x27;\)\nText&quot;; console.log(s); alert(s);" xlink:title="Text">
<ellipse fill="none" stroke="black" cx="317.08" cy="-396" rx="27" ry="18"/>
<text text-anchor="middle" x="317.08" y="-392.3" font-family="Times New Roman,serif" font-size="14.00">y</text>
</a>
</g>
</g>
<!-- 43&#45;&gt;y_56 -->
<g id="edge18" class="edge">
<title>43&#45;&gt;y_56</title>
<path fill="none" stroke="black" d="M222.94,-396C241.86,-396 262.6,-396 279.69,-396"/>
<polygon fill="black" stroke="black" points="279.82,-399.5 289.82,-396 279.82,-392.5 279.82,-399.5"/>
</g>
<!-- z_57 -->
<g id="node20" class="node">
<title>z_57</title>
<g id="a_node20"><a xlink:href="javascript:s=&quot;\(&quot;&#x27;surface&#x27;,\ 0,\ &quot;,\ &#x27;z&#x27;\)\nText&quot;; console.log(s); alert(s);" xlink:title="Text">
<ellipse fill="none" stroke="black" cx="317.08" cy="-342" rx="27" ry="18"/>
<text text-anchor="middle" x="317.08" y="-338.3" font-family="Times New Roman,serif" font-size="14.00">z</text>
</a>
</g>
</g>
<!-- 43&#45;&gt;z_57 -->
<g id="edge19" class="edge">
<title>43&#45;&gt;z_57</title>
<path fill="none" stroke="black" d="M204.86,-382.65C228.94,-373.85 260.2,-362.43 283.44,-353.93"/>
<polygon fill="black" stroke="black" points="284.68,-357.21 292.87,-350.48 282.28,-350.63 284.68,-357.21"/>
</g>
<!-- label_58 -->
<g id="node21" class="node">
<title>label_58</title>
<g id="a_node21"><a xlink:href="javascript:s=&quot;\(&quot;&#x27;surface&#x27;,\ 0,\ &quot;,\ &#x27;label&#x27;\)\nText&quot;; console.log(s); alert(s);" xlink:title="Text">
<ellipse fill="none" stroke="black" cx="317.08" cy="-288" rx="27.1" ry="18"/>
<text text-anchor="middle" x="317.08" y="-284.3" font-family="Times New Roman,serif" font-size="14.00">label</text>
</a>
</g>
</g>
<!-- 43&#45;&gt;label_58 -->
<g id="edge20" class="edge">
<title>43&#45;&gt;label_58</title>
<path fill="none" stroke="black" d="M190.78,-379.6C217.41,-360.13 261.74,-327.73 289.91,-307.14"/>
<polygon fill="black" stroke="black" points="292.08,-309.88 298.09,-301.15 287.95,-304.23 292.08,-309.88"/>
</g>
<!-- origin_45 -->
<g id="node8" class="node">
<title>origin_45</title>
<g id="a_node8"><a xlink:href="javascript:s=&quot;\(&quot;&#x27;surface&#x27;,\ 0,\ &quot;,\ &#x27;coords&#x27;,\ &#x27;origin&#x27;\)\nCoordinatesCage&quot;; console.log(s); alert(s);" xlink:title="CoordinatesCage">
<ellipse fill="none" stroke="black" cx="430.43" cy="-612" rx="31.4" ry="18"/>
<text text-anchor="middle" x="430.43" y="-608.3" font-family="Times New Roman,serif" font-size="14.00">origin</text>
</a>
</g>
</g>
<!-- coords_44&#45;&gt;origin_45 -->
<g id="edge7" class="edge">
<title>coords_44&#45;&gt;origin_45</title>
<path fill="none" stroke="black" d="M339.27,-518.34C344.21,-522.16 349.25,-526.49 353.48,-531 373.22,-552.03 369.15,-564.54 389.48,-585 392.47,-588.01 395.83,-590.88 399.32,-593.55"/>
<polygon fill="black" stroke="black" points="397.34,-596.45 407.52,-599.41 401.41,-590.75 397.34,-596.45"/>
</g>
<!-- x_arrow_46 -->
<g id="node9" class="node">
<title>x_arrow_46</title>
<g id="a_node9"><a xlink:href="javascript:s=&quot;\(&quot;&#x27;surface&#x27;,\ 0,\ &quot;,\ &#x27;coords&#x27;,\ &#x27;x_arrow&#x27;\)\nArrow&quot;; console.log(s); alert(s);" xlink:title="Arrow">
<ellipse fill="none" stroke="black" cx="430.43" cy="-558" rx="40.89" ry="18"/>
<text text-anchor="middle" x="430.43" y="-554.3" font-family="Times New Roman,serif" font-size="14.00">x_arrow</text>
</a>
</g>
</g>
<!-- coords_44&#45;&gt;x_arrow_46 -->
<g id="edge8" class="edge">
<title>coords_44&#45;&gt;x_arrow_46</title>
<path fill="none" stroke="black" d="M343.63,-516.39C358.23,-523.47 376.78,-532.47 392.9,-540.28"/>
<polygon fill="black" stroke="black" points="391.53,-543.51 402.05,-544.73 394.58,-537.21 391.53,-543.51"/>
</g>
<!-- y_arrow_49 -->
<g id="node12" class="node">
<title>y_arrow_49</title>
<g id="a_node12"><a xlink:href="javascript:s=&quot;\(&quot;&#x27;surface&#x27;,\ 0,\ &quot;,\ &#x27;coords&#x27;,\ &#x27;y_arrow&#x27;\)\nArrow&quot;; console.log(s); alert(s);" xlink:title="Arrow">
<ellipse fill="none" stroke="black" cx="430.43" cy="-504" rx="40.89" ry="18"/>
<text text-anchor="middle" x="430.43" y="-500.3" font-family="Times New Roman,serif" font-size="14.00">y_arrow</text>
</a>
</g>
</g>
<!-- coords_44&#45;&gt;y_arrow_49 -->
<g id="edge11" class="edge">
<title>coords_44&#45;&gt;y_arrow_49</title>
<path fill="none" stroke="black" d="M353.62,-504C361.67,-504 370.38,-504 378.92,-504"/>
<polygon fill="black" stroke="black" points="379.2,-507.5 389.2,-504 379.2,-500.5 379.2,-507.5"/>
</g>
<!-- z_arrow_52 -->
<g id="node15" class="node">
<title>z_arrow_52</title>
<g id="a_node15"><a xlink:href="javascript:s=&quot;\(&quot;&#x27;surface&#x27;,\ 0,\ &quot;,\ &#x27;coords&#x27;,\ &#x27;z_arrow&#x27;\)\nArrow&quot;; console.log(s); alert(s);" xlink:title="Arrow">
<ellipse fill="none" stroke="black" cx="430.43" cy="-396" rx="40.09" ry="18"/>
<text text-anchor="middle" x="430.43" y="-392.3" font-family="Times New Roman,serif" font-size="14.00">z_arrow</text>
</a>
</g>
</g>
<!-- coords_44&#45;&gt;z_arrow_52 -->
<g id="edge14" class="edge">
<title>coords_44&#45;&gt;z_arrow_52</title>
<path fill="none" stroke="black" d="M338.76,-489.14C343.71,-485.34 348.89,-481.14 353.48,-477 373.15,-459.23 393.6,-437.18 408.32,-420.58"/>
<polygon fill="black" stroke="black" points="411.08,-422.73 415.05,-412.91 405.82,-418.11 411.08,-422.73"/>
</g>
<!-- stem_47 -->
<g id="node10" class="node">
<title>stem_47</title>
<g id="a_node10"><a xlink:href="javascript:s=&quot;\(&quot;&#x27;surface&#x27;,\ 0,\ &quot;,\ &#x27;coords&#x27;,\ &#x27;x_arrow&#x27;,\ &#x27;stem&#x27;\)\nCone&quot;; console.log(s); alert(s);" xlink:title="Cone">
<ellipse fill="none" stroke="black" cx="535.32" cy="-612" rx="27.9" ry="18"/>
<text text-anchor="middle" x="535.32" y="-608.3" font-family="Times New Roman,serif" font-size="14.00">stem</text>
</a>
</g>
</g>
<!-- x_arrow_46&#45;&gt;stem_47 -->
<g id="edge9" class="edge">
<title>x_arrow_46&#45;&gt;stem_47</title>
<path fill="none" stroke="black" d="M457.39,-571.63C471.55,-579.06 489.16,-588.3 503.96,-596.07"/>
<polygon fill="black" stroke="black" points="502.73,-599.37 513.21,-600.92 505.98,-593.18 502.73,-599.37"/>
</g>
<!-- head_48 -->
<g id="node11" class="node">
<title>head_48</title>
<g id="a_node11"><a xlink:href="javascript:s=&quot;\(&quot;&#x27;surface&#x27;,\ 0,\ &quot;,\ &#x27;coords&#x27;,\ &#x27;x_arrow&#x27;,\ &#x27;head&#x27;\)\nCone&quot;; console.log(s); alert(s);" xlink:title="Cone">
<ellipse fill="none" stroke="black" cx="535.32" cy="-558" rx="27.9" ry="18"/>
<text text-anchor="middle" x="535.32" y="-554.3" font-family="Times New Roman,serif" font-size="14.00">head</text>
</a>
</g>
</g>
<!-- x_arrow_46&#45;&gt;head_48 -->
<g id="edge10" class="edge">
<title>x_arrow_46&#45;&gt;head_48</title>
<path fill="none" stroke="black" d="M471.5,-558C479.91,-558 488.75,-558 497.06,-558"/>
<polygon fill="black" stroke="black" points="497.21,-561.5 507.21,-558 497.21,-554.5 497.21,-561.5"/>
</g>
<!-- stem_50 -->
<g id="node13" class="node">
<title>stem_50</title>
<g id="a_node13"><a xlink:href="javascript:s=&quot;\(&quot;&#x27;surface&#x27;,\ 0,\ &quot;,\ &#x27;coords&#x27;,\ &#x27;y_arrow&#x27;,\ &#x27;stem&#x27;\)\nCone&quot;; console.log(s); alert(s);" xlink:title="Cone">
<ellipse fill="none" stroke="black" cx="535.32" cy="-504" rx="27.9" ry="18"/>
<text text-anchor="middle" x="535.32" y="-500.3" font-family="Times New Roman,serif" font-size="14.00">stem</text>
</a>
</g>
</g>
<!-- y_arrow_49&#45;&gt;stem_50 -->
<g id="edge12" class="edge">
<title>y_arrow_49&#45;&gt;stem_50</title>
<path fill="none" stroke="black" d="M471.5,-504C479.91,-504 488.75,-504 497.06,-504"/>
<polygon fill="black" stroke="black" points="497.21,-507.5 507.21,-504 497.21,-500.5 497.21,-507.5"/>
</g>
<!-- head_51 -->
<g id="node14" class="node">
<title>head_51</title>
<g id="a_node14"><a xlink:href="javascript:s=&quot;\(&quot;&#x27;surface&#x27;,\ 0,\ &quot;,\ &#x27;coords&#x27;,\ &#x27;y_arrow&#x27;,\ &#x27;head&#x27;\)\nCone&quot;; console.log(s); alert(s);" xlink:title="Cone">
<ellipse fill="none" stroke="black" cx="535.32" cy="-450" rx="27.9" ry="18"/>
<text text-anchor="middle" x="535.32" y="-446.3" font-family="Times New Roman,serif" font-size="14.00">head</text>
</a>
</g>
</g>
<!-- y_arrow_49&#45;&gt;head_51 -->
<g id="edge13" class="edge">
<title>y_arrow_49&#45;&gt;head_51</title>
<path fill="none" stroke="black" d="M457.39,-490.37C471.55,-482.94 489.16,-473.7 503.96,-465.93"/>
<polygon fill="black" stroke="black" points="505.98,-468.82 513.21,-461.08 502.73,-462.63 505.98,-468.82"/>
</g>
<!-- stem_53 -->
<g id="node16" class="node">
<title>stem_53</title>
<g id="a_node16"><a xlink:href="javascript:s=&quot;\(&quot;&#x27;surface&#x27;,\ 0,\ &quot;,\ &#x27;coords&#x27;,\ &#x27;z_arrow&#x27;,\ &#x27;stem&#x27;\)\nCone&quot;; console.log(s); alert(s);" xlink:title="Cone">
<ellipse fill="none" stroke="black" cx="535.32" cy="-396" rx="27.9" ry="18"/>
<text text-anchor="middle" x="535.32" y="-392.3" font-family="Times New Roman,serif" font-size="14.00">stem</text>
</a>
</g>
</g>
<!-- z_arrow_52&#45;&gt;stem_53 -->
<g id="edge15" class="edge">
<title>z_arrow_52&#45;&gt;stem_53</title>
<path fill="none" stroke="black" d="M470.91,-396C479.54,-396 488.63,-396 497.16,-396"/>
<polygon fill="black" stroke="black" points="497.21,-399.5 507.21,-396 497.21,-392.5 497.21,-399.5"/>
</g>
<!-- head_54 -->
<g id="node17" class="node">
<title>head_54</title>
<g id="a_node17"><a xlink:href="javascript:s=&quot;\(&quot;&#x27;surface&#x27;,\ 0,\ &quot;,\ &#x27;coords&#x27;,\ &#x27;z_arrow&#x27;,\ &#x27;head&#x27;\)\nCone&quot;; console.log(s); alert(s);" xlink:title="Cone">
<ellipse fill="none" stroke="black" cx="535.32" cy="-342" rx="27.9" ry="18"/>
<text text-anchor="middle" x="535.32" y="-338.3" font-family="Times New Roman,serif" font-size="14.00">head</text>
</a>
</g>
</g>
<!-- z_arrow_52&#45;&gt;head_54 -->
<g id="edge16" class="edge">
<title>z_arrow_52&#45;&gt;head_54</title>
<path fill="none" stroke="black" d="M457.13,-382.51C471.42,-375.01 489.29,-365.63 504.23,-357.79"/>
<polygon fill="black" stroke="black" points="505.87,-360.88 513.1,-353.14 502.62,-354.68 505.87,-360.88"/>
</g>
<!-- coords_60 -->
<g id="node23" class="node">
<title>coords_60</title>
<g id="a_node23"><a xlink:href="javascript:s=&quot;\(&quot;&#x27;inner_surface&#x27;,\ 0,\ &quot;,\ &#x27;coords&#x27;\)\nCoordinates&quot;; console.log(s); alert(s);" xlink:title="Coordinates">
<ellipse fill="none" stroke="black" cx="317.08" cy="-234" rx="36.29" ry="18"/>
<text text-anchor="middle" x="317.08" y="-230.3" font-family="Times New Roman,serif" font-size="14.00">coords</text>
</a>
</g>
</g>
<!-- 59&#45;&gt;coords_60 -->
<g id="edge22" class="edge">
<title>59&#45;&gt;coords_60</title>
<path fill="none" stroke="black" d="M198.6,-169.59C223.11,-183.03 257.6,-201.94 282.87,-215.79"/>
<polygon fill="black" stroke="black" points="281.28,-218.91 291.73,-220.65 284.64,-212.77 281.28,-218.91"/>
</g>
<!-- x_71 -->
<g id="node34" class="node">
<title>x_71</title>
<g id="a_node34"><a xlink:href="javascript:s=&quot;\(&quot;&#x27;inner_surface&#x27;,\ 0,\ &quot;,\ &#x27;x&#x27;\)\nText&quot;; console.log(s); alert(s);" xlink:title="Text">
<ellipse fill="none" stroke="black" cx="317.08" cy="-180" rx="27" ry="18"/>
<text text-anchor="middle" x="317.08" y="-176.3" font-family="Times New Roman,serif" font-size="14.00">x</text>
</a>
</g>
</g>
<!-- 59&#45;&gt;x_71 -->
<g id="edge33" class="edge">
<title>59&#45;&gt;x_71</title>
<path fill="none" stroke="black" d="M228.86,-164.06C246.47,-167.28 265.13,-170.69 280.65,-173.52"/>
<polygon fill="black" stroke="black" points="280.38,-177.03 290.84,-175.39 281.64,-170.15 280.38,-177.03"/>
</g>
<!-- y_72 -->
<g id="node35" class="node">
<title>y_72</title>
<g id="a_node35"><a xlink:href="javascript:s=&quot;\(&quot;&#x27;inner_surface&#x27;,\ 0,\ &quot;,\ &#x27;y&#x27;\)\nText&quot;; console.log(s); alert(s);" xlink:title="Text">
<ellipse fill="none" stroke="black" cx="317.08" cy="-126" rx="27" ry="18"/>
<text text-anchor="middle" x="317.08" y="-122.3" font-family="Times New Roman,serif" font-size="14.00">y</text>
</a>
</g>
</g>
<!-- 59&#45;&gt;y_72 -->
<g id="edge34" class="edge">
<title>59&#45;&gt;y_72</title>
<path fill="none" stroke="black" d="M228.86,-141.94C246.47,-138.72 265.13,-135.31 280.65,-132.48"/>
<polygon fill="black" stroke="black" points="281.64,-135.85 290.84,-130.61 280.38,-128.97 281.64,-135.85"/>
</g>
<!-- z_73 -->
<g id="node36" class="node">
<title>z_73</title>
<g id="a_node36"><a xlink:href="javascript:s=&quot;\(&quot;&#x27;inner_surface&#x27;,\ 0,\ &quot;,\ &#x27;z&#x27;\)\nText&quot;; console.log(s); alert(s);" xlink:title="Text">
<ellipse fill="none" stroke="black" cx="317.08" cy="-72" rx="27" ry="18"/>
<text text-anchor="middle" x="317.08" y="-68.3" font-family="Times New Roman,serif" font-size="14.00">z</text>
</a>
</g>
</g>
<!-- 59&#45;&gt;z_73 -->
<g id="edge35" class="edge">
<title>59&#45;&gt;z_73</title>
<path fill="none" stroke="black" d="M198.6,-136.41C224.46,-122.23 261.44,-101.96 286.97,-87.96"/>
<polygon fill="black" stroke="black" points="288.73,-90.99 295.82,-83.11 285.37,-84.85 288.73,-90.99"/>
</g>
<!-- label_74 -->
<g id="node37" class="node">
<title>label_74</title>
<g id="a_node37"><a xlink:href="javascript:s=&quot;\(&quot;&#x27;inner_surface&#x27;,\ 0,\ &quot;,\ &#x27;label&#x27;\)\nText&quot;; console.log(s); alert(s);" xlink:title="Text">
<ellipse fill="none" stroke="black" cx="317.08" cy="-18" rx="27.1" ry="18"/>
<text text-anchor="middle" x="317.08" y="-14.3" font-family="Times New Roman,serif" font-size="14.00">label</text>
</a>
</g>
</g>
<!-- 59&#45;&gt;label_74 -->
<g id="edge36" class="edge">
<title>59&#45;&gt;label_74</title>
<path fill="none" stroke="black" d="M185.66,-135.15C207.24,-113.18 245.56,-75.11 280.69,-45 283.7,-42.41 286.94,-39.78 290.18,-37.22"/>
<polygon fill="black" stroke="black" points="292.35,-39.96 298.13,-31.07 288.07,-34.42 292.35,-39.96"/>
</g>
<!-- origin_61 -->
<g id="node24" class="node">
<title>origin_61</title>
<g id="a_node24"><a xlink:href="javascript:s=&quot;\(&quot;&#x27;inner_surface&#x27;,\ 0,\ &quot;,\ &#x27;coords&#x27;,\ &#x27;origin&#x27;\)\nCoordinatesCage&quot;; console.log(s); alert(s);" xlink:title="CoordinatesCage">
<ellipse fill="none" stroke="black" cx="430.43" cy="-288" rx="31.4" ry="18"/>
<text text-anchor="middle" x="430.43" y="-284.3" font-family="Times New Roman,serif" font-size="14.00">origin</text>
</a>
</g>
</g>
<!-- coords_60&#45;&gt;origin_61 -->
<g id="edge23" class="edge">
<title>coords_60&#45;&gt;origin_61</title>
<path fill="none" stroke="black" d="M343.63,-246.39C359.45,-254.06 379.91,-263.98 396.88,-272.22"/>
<polygon fill="black" stroke="black" points="395.38,-275.38 405.9,-276.59 398.43,-269.08 395.38,-275.38"/>
</g>
<!-- x_arrow_62 -->
<g id="node25" class="node">
<title>x_arrow_62</title>
<g id="a_node25"><a xlink:href="javascript:s=&quot;\(&quot;&#x27;inner_surface&#x27;,\ 0,\ &quot;,\ &#x27;coords&#x27;,\ &#x27;x_arrow&#x27;\)\nArrow&quot;; console.log(s); alert(s);" xlink:title="Arrow">
<ellipse fill="none" stroke="black" cx="430.43" cy="-234" rx="40.89" ry="18"/>
<text text-anchor="middle" x="430.43" y="-230.3" font-family="Times New Roman,serif" font-size="14.00">x_arrow</text>
</a>
</g>
</g>
<!-- coords_60&#45;&gt;x_arrow_62 -->
<g id="edge24" class="edge">
<title>coords_60&#45;&gt;x_arrow_62</title>
<path fill="none" stroke="black" d="M353.62,-234C361.67,-234 370.38,-234 378.92,-234"/>
<polygon fill="black" stroke="black" points="379.2,-237.5 389.2,-234 379.2,-230.5 379.2,-237.5"/>
</g>
<!-- y_arrow_65 -->
<g id="node28" class="node">
<title>y_arrow_65</title>
<g id="a_node28"><a xlink:href="javascript:s=&quot;\(&quot;&#x27;inner_surface&#x27;,\ 0,\ &quot;,\ &#x27;coords&#x27;,\ &#x27;y_arrow&#x27;\)\nArrow&quot;; console.log(s); alert(s);" xlink:title="Arrow">
<ellipse fill="none" stroke="black" cx="430.43" cy="-180" rx="40.89" ry="18"/>
<text text-anchor="middle" x="430.43" y="-176.3" font-family="Times New Roman,serif" font-size="14.00">y_arrow</text>
</a>
</g>
</g>
<!-- coords_60&#45;&gt;y_arrow_65 -->
<g id="edge27" class="edge">
<title>coords_60&#45;&gt;y_arrow_65</title>
<path fill="none" stroke="black" d="M343.63,-221.61C358.23,-214.53 376.78,-205.53 392.9,-197.72"/>
<polygon fill="black" stroke="black" points="394.58,-200.79 402.05,-193.27 391.53,-194.49 394.58,-200.79"/>
</g>
<!-- z_arrow_68 -->
<g id="node31" class="node">
<title>z_arrow_68</title>
<g id="a_node31"><a xlink:href="javascript:s=&quot;\(&quot;&#x27;inner_surface&#x27;,\ 0,\ &quot;,\ &#x27;coords&#x27;,\ &#x27;z_arrow&#x27;\)\nArrow&quot;; console.log(s); alert(s);" xlink:title="Arrow">
<ellipse fill="none" stroke="black" cx="430.43" cy="-72" rx="40.09" ry="18"/>
<text text-anchor="middle" x="430.43" y="-68.3" font-family="Times New Roman,serif" font-size="14.00">z_arrow</text>
</a>
</g>
</g>
<!-- coords_60&#45;&gt;z_arrow_68 -->
<g id="edge30" class="edge">
<title>coords_60&#45;&gt;z_arrow_68</title>
<path fill="none" stroke="black" d="M339.89,-219.59C344.69,-215.83 349.52,-211.55 353.48,-207 368.92,-189.24 398.76,-132.65 416.08,-98.64"/>
<polygon fill="black" stroke="black" points="419.21,-100.19 420.61,-89.69 412.97,-97.03 419.21,-100.19"/>
</g>
<!-- stem_63 -->
<g id="node26" class="node">
<title>stem_63</title>
<g id="a_node26"><a xlink:href="javascript:s=&quot;\(&quot;&#x27;inner_surface&#x27;,\ 0,\ &quot;,\ &#x27;coords&#x27;,\ &#x27;x_arrow&#x27;,\ &#x27;stem&#x27;\)\nCone&quot;; console.log(s); alert(s);" xlink:title="Cone">
<ellipse fill="none" stroke="black" cx="535.32" cy="-288" rx="27.9" ry="18"/>
<text text-anchor="middle" x="535.32" y="-284.3" font-family="Times New Roman,serif" font-size="14.00">stem</text>
</a>
</g>
</g>
<!-- x_arrow_62&#45;&gt;stem_63 -->
<g id="edge25" class="edge">
<title>x_arrow_62&#45;&gt;stem_63</title>
<path fill="none" stroke="black" d="M457.39,-247.63C471.55,-255.06 489.16,-264.3 503.96,-272.07"/>
<polygon fill="black" stroke="black" points="502.73,-275.37 513.21,-276.92 505.98,-269.18 502.73,-275.37"/>
</g>
<!-- head_64 -->
<g id="node27" class="node">
<title>head_64</title>
<g id="a_node27"><a xlink:href="javascript:s=&quot;\(&quot;&#x27;inner_surface&#x27;,\ 0,\ &quot;,\ &#x27;coords&#x27;,\ &#x27;x_arrow&#x27;,\ &#x27;head&#x27;\)\nCone&quot;; console.log(s); alert(s);" xlink:title="Cone">
<ellipse fill="none" stroke="black" cx="535.32" cy="-234" rx="27.9" ry="18"/>
<text text-anchor="middle" x="535.32" y="-230.3" font-family="Times New Roman,serif" font-size="14.00">head</text>
</a>
</g>
</g>
<!-- x_arrow_62&#45;&gt;head_64 -->
<g id="edge26" class="edge">
<title>x_arrow_62&#45;&gt;head_64</title>
<path fill="none" stroke="black" d="M471.5,-234C479.91,-234 488.75,-234 497.06,-234"/>
<polygon fill="black" stroke="black" points="497.21,-237.5 507.21,-234 497.21,-230.5 497.21,-237.5"/>
</g>
<!-- stem_66 -->
<g id="node29" class="node">
<title>stem_66</title>
<g id="a_node29"><a xlink:href="javascript:s=&quot;\(&quot;&#x27;inner_surface&#x27;,\ 0,\ &quot;,\ &#x27;coords&#x27;,\ &#x27;y_arrow&#x27;,\ &#x27;stem&#x27;\)\nCone&quot;; console.log(s); alert(s);" xlink:title="Cone">
<ellipse fill="none" stroke="black" cx="535.32" cy="-180" rx="27.9" ry="18"/>
<text text-anchor="middle" x="535.32" y="-176.3" font-family="Times New Roman,serif" font-size="14.00">stem</text>
</a>
</g>
</g>
<!-- y_arrow_65&#45;&gt;stem_66 -->
<g id="edge28" class="edge">
<title>y_arrow_65&#45;&gt;stem_66</title>
<path fill="none" stroke="black" d="M471.5,-180C479.91,-180 488.75,-180 497.06,-180"/>
<polygon fill="black" stroke="black" points="497.21,-183.5 507.21,-180 497.21,-176.5 497.21,-183.5"/>
</g>
<!-- head_67 -->
<g id="node30" class="node">
<title>head_67</title>
<g id="a_node30"><a xlink:href="javascript:s=&quot;\(&quot;&#x27;inner_surface&#x27;,\ 0,\ &quot;,\ &#x27;coords&#x27;,\ &#x27;y_arrow&#x27;,\ &#x27;head&#x27;\)\nCone&quot;; console.log(s); alert(s);" xlink:title="Cone">
<ellipse fill="none" stroke="black" cx="535.32" cy="-126" rx="27.9" ry="18"/>
<text text-anchor="middle" x="535.32" y="-122.3" font-family="Times New Roman,serif" font-size="14.00">head</text>
</a>
</g>
</g>
<!-- y_arrow_65&#45;&gt;head_67 -->
<g id="edge29" class="edge">
<title>y_arrow_65&#45;&gt;head_67</title>
<path fill="none" stroke="black" d="M457.39,-166.37C471.55,-158.94 489.16,-149.7 503.96,-141.93"/>
<polygon fill="black" stroke="black" points="505.98,-144.82 513.21,-137.08 502.73,-138.63 505.98,-144.82"/>
</g>
<!-- stem_69 -->
<g id="node32" class="node">
<title>stem_69</title>
<g id="a_node32"><a xlink:href="javascript:s=&quot;\(&quot;&#x27;inner_surface&#x27;,\ 0,\ &quot;,\ &#x27;coords&#x27;,\ &#x27;z_arrow&#x27;,\ &#x27;stem&#x27;\)\nCone&quot;; console.log(s); alert(s);" xlink:title="Cone">
<ellipse fill="none" stroke="black" cx="535.32" cy="-72" rx="27.9" ry="18"/>
<text text-anchor="middle" x="535.32" y="-68.3" font-family="Times New Roman,serif" font-size="14.00">stem</text>
</a>
</g>
</g>
<!-- z_arrow_68&#45;&gt;stem_69 -->
<g id="edge31" class="edge">
<title>z_arrow_68&#45;&gt;stem_69</title>
<path fill="none" stroke="black" d="M470.91,-72C479.54,-72 488.63,-72 497.16,-72"/>
<polygon fill="black" stroke="black" points="497.21,-75.5 507.21,-72 497.21,-68.5 497.21,-75.5"/>
</g>
<!-- head_70 -->
<g id="node33" class="node">
<title>head_70</title>
<g id="a_node33"><a xlink:href="javascript:s=&quot;\(&quot;&#x27;inner_surface&#x27;,\ 0,\ &quot;,\ &#x27;coords&#x27;,\ &#x27;z_arrow&#x27;,\ &#x27;head&#x27;\)\nCone&quot;; console.log(s); alert(s);" xlink:title="Cone">
<ellipse fill="none" stroke="black" cx="535.32" cy="-18" rx="27.9" ry="18"/>
<text text-anchor="middle" x="535.32" y="-14.3" font-family="Times New Roman,serif" font-size="14.00">head</text>
</a>
</g>
</g>
<!-- z_arrow_68&#45;&gt;head_70 -->
<g id="edge32" class="edge">
<title>z_arrow_68&#45;&gt;head_70</title>
<path fill="none" stroke="black" d="M457.13,-58.51C471.42,-51.01 489.29,-41.63 504.23,-33.79"/>
<polygon fill="black" stroke="black" points="505.87,-36.88 513.1,-29.14 502.62,-30.68 505.87,-36.88"/>
</g>
</g>
</svg>
