solid OpenSCAD_Model
  facet normal 0.17901686154053947 -0.983846005879058 0
    outer loop
      vertex 5.130302146043046 -14.095389314062716 -5
      vertex 0.1636213729759426 -14.999107577851156 -2.5
      vertex 0.1636213729759426 -14.999107577851156 -5
    endloop
  endfacet
  facet normal 0.17901686154053947 -0.983846005879058 0
    outer loop
      vertex 5.130302146043046 -14.095389314062716 -5
      vertex 5.130302146043046 -14.095389314062716 -2.5
      vertex 0.1636213729759426 -14.999107577851156 -2.5
    endloop
  endfacet
  facet normal 0.9396926212554374 0.34202014203564857 0
    outer loop
      vertex 3.420201436212283 -9.396926208740224 -5
      vertex 5.130302146043046 -14.095389314062716 -2.5
      vertex 5.130302146043046 -14.095389314062716 -5
    endloop
  endfacet
  facet normal 0.9396926212554374 0.34202014203564857 0
    outer loop
      vertex 3.420201436212283 -9.396926208740224 -5
      vertex 3.420201436212283 -9.396926208740224 -2.5
      vertex 5.130302146043046 -14.095389314062716 -2.5
    endloop
  endfacet
  facet normal -0.21111155229173298 0.9774619749580926 0
    outer loop
      vertex 0.7628397470986421 -9.970861323928121 -5
      vertex 3.420201436212283 -9.396926208740224 -2.5
      vertex 3.420201436212283 -9.396926208740224 -5
    endloop
  endfacet
  facet normal -0.21111155229173298 0.9774619749580926 0
    outer loop
      vertex 0.7628397470986421 -9.970861323928121 -5
      vertex 0.7628397470986421 -9.970861323928121 -2.5
      vertex 3.420201436212283 -9.396926208740224 -2.5
    endloop
  endfacet
  facet normal 0.05995970672497678 0.9982007982212069 0
    outer loop
      vertex -1.950903218636329 -9.807852806360918 -5
      vertex 0.7628397470986421 -9.970861323928121 -2.5
      vertex 0.7628397470986421 -9.970861323928121 -5
    endloop
  endfacet
  facet normal 0.05995970672497678 0.9982007982212069 0
    outer loop
      vertex -1.950903218636329 -9.807852806360918 -5
      vertex -1.950903218636329 -9.807852806360918 -2.5
      vertex 0.7628397470986421 -9.970861323928121 -2.5
    endloop
  endfacet
  facet normal 0.32659936299108316 0.9451628727863884 0
    outer loop
      vertex -4.520455457303435 -8.91994856415667 -5
      vertex -1.950903218636329 -9.807852806360918 -2.5
      vertex -1.950903218636329 -9.807852806360918 -5
    endloop
  endfacet
  facet normal 0.32659936299108316 0.9451628727863884 0
    outer loop
      vertex -4.520455457303435 -8.91994856415667 -5
      vertex -4.520455457303435 -8.91994856415667 -2.5
      vertex -1.950903218636329 -9.807852806360918 -2.5
    endloop
  endfacet
  facet normal 0.5691001448665015 0.8222682196904652 0
    outer loop
      vertex -6.755902073702409 -7.372773369044676 -5
      vertex -4.520455457303435 -8.91994856415667 -2.5
      vertex -4.520455457303435 -8.91994856415667 -5
    endloop
  endfacet
  facet normal 0.5691001448665015 0.8222682196904652 0
    outer loop
      vertex -6.755902073702409 -7.372773369044676 -5
      vertex -6.755902073702409 -7.372773369044676 -2.5
      vertex -4.520455457303435 -8.91994856415667 -2.5
    endloop
  endfacet
  facet normal 0.7695388933115124 0.6385999465086829 0
    outer loop
      vertex -8.492021818281136 -5.280678507146322 -5
      vertex -6.755902073702409 -7.372773369044676 -2.5
      vertex -6.755902073702409 -7.372773369044676 -5
    endloop
  endfacet
  facet normal 0.7695388933115124 0.6385999465086829 0
    outer loop
      vertex -8.492021818281136 -5.280678507146322 -5
      vertex -8.492021818281136 -5.280678507146322 -2.5
      vertex -6.755902073702409 -7.372773369044676 -2.5
    endloop
  endfacet
  facet normal 0.9131012345271242 0.4077329217821905 0
    outer loop
      vertex -9.600498539654854 -2.7982901380471787 -5
      vertex -8.492021818281136 -5.280678507146322 -2.5
      vertex -8.492021818281136 -5.280678507146322 -5
    endloop
  endfacet
  facet normal 0.9131012345271242 0.4077329217821905 0
    outer loop
      vertex -9.600498539654854 -2.7982901380471787 -5
      vertex -9.600498539654854 -2.7982901380471787 -2.5
      vertex -8.492021818281136 -5.280678507146322 -2.5
    endloop
  endfacet
  facet normal 0.9891765097997215 0.14673047556810284 0
    outer loop
      vertex -9.999405048717604 -0.10908091383295782 -5
      vertex -9.600498539654854 -2.7982901380471787 -2.5
      vertex -9.600498539654854 -2.7982901380471787 -5
    endloop
  endfacet
  facet normal 0.9891765097997215 0.14673047556810284 0
    outer loop
      vertex -9.999405048717604 -0.10908091383295782 -5
      vertex -9.999405048717604 -0.10908091383295782 -2.5
      vertex -9.600498539654854 -2.7982901380471787 -2.5
    endloop
  endfacet
  facet normal 0.9921420211670935 -0.12511678478315652 0
    outer loop
      vertex -9.659258261913074 2.5881904485875546 -5
      vertex -9.999405048717604 -0.10908091383295782 -2.5
      vertex -9.999405048717604 -0.10908091383295782 -5
    endloop
  endfacet
  facet normal 0.9921420211670935 -0.12511678478315652 0
    outer loop
      vertex -9.659258261913074 2.5881904485875546 -5
      vertex -9.659258261913074 2.5881904485875546 -2.5
      vertex -9.999405048717604 -0.10908091383295782 -2.5
    endloop
  endfacet
  facet normal 0.92177858678199 -0.38771669676478626 0
    outer loop
      vertex -8.605198334983356 5.094169370661791 -5
      vertex -9.659258261913074 2.5881904485875546 -2.5
      vertex -9.659258261913074 2.5881904485875546 -5
    endloop
  endfacet
  facet normal 0.92177858678199 -0.38771669676478626 0
    outer loop
      vertex -8.605198334983356 5.094169370661791 -5
      vertex -8.605198334983356 5.094169370661791 -2.5
      vertex -9.659258261913074 2.5881904485875546 -2.5
    endloop
  endfacet
  facet normal 0.783286749860271 -0.621660572574241 0
    outer loop
      vertex -6.915130560210143 7.223639619778478 -5
      vertex -8.605198334983356 5.094169370661791 -2.5
      vertex -8.605198334983356 5.094169370661791 -5
    endloop
  endfacet
  facet normal 0.783286749860271 -0.621660572574241 0
    outer loop
      vertex -6.915130560210143 7.223639619778478 -5
      vertex -6.915130560210143 7.223639619778478 -2.5
      vertex -8.605198334983356 5.094169370661791 -2.5
    endloop
  endfacet
  facet normal 0.5869024017996681 -0.8096576873974464 0
    outer loop
      vertex -4.713967370475155 8.819212641460082 -5
      vertex -6.915130560210143 7.223639619778478 -2.5
      vertex -6.915130560210143 7.223639619778478 -5
    endloop
  endfacet
  facet normal 0.5869024017996681 -0.8096576873974464 0
    outer loop
      vertex -4.713967370475155 8.819212641460082 -5
      vertex -4.713967370475155 8.819212641460082 -2.5
      vertex -6.915130560210143 7.223639619778478 -2.5
    endloop
  endfacet
  facet normal 0.34714026009056315 -0.9378132222485756 0
    outer loop
      vertex -2.164396139526478 9.762960073500818 -5
      vertex -4.713967370475155 8.819212641460082 -2.5
      vertex -4.713967370475155 8.819212641460082 -5
    endloop
  endfacet
  facet normal 0.34714026009056315 -0.9378132222485756 0
    outer loop
      vertex -2.164396139526478 9.762960073500818 -5
      vertex -2.164396139526478 9.762960073500818 -2.5
      vertex -4.713967370475155 8.819212641460082 -2.5
    endloop
  endfacet
  facet normal 0.08172107397014007 -0.9966552393225889 0
    outer loop
      vertex 0.5451450133457594 9.98512979101468 -5
      vertex -2.164396139526478 9.762960073500818 -2.5
      vertex -2.164396139526478 9.762960073500818 -5
    endloop
  endfacet
  facet normal 0.08172107397014007 -0.9966552393225889 0
    outer loop
      vertex 0.5451450133457594 9.98512979101468 -5
      vertex 0.5451450133457594 9.98512979101468 -2.5
      vertex -2.164396139526478 9.762960073500818 -2.5
    endloop
  endfacet
  facet normal -0.18973809371550202 -0.981834739553051 0
    outer loop
      vertex 3.214394653055194 9.469301293726218 -5
      vertex 0.5451450133457594 9.98512979101468 -2.5
      vertex 0.5451450133457594 9.98512979101468 -5
    endloop
  endfacet
  facet normal -0.18973809371550202 -0.981834739553051 0
    outer loop
      vertex 3.214394653055194 9.469301293726218 -5
      vertex 3.214394653055194 9.469301293726218 -2.5
      vertex 0.5451450133457594 9.98512979101468 -2.5
    endloop
  endfacet
  facet normal -0.4471737702303643 -0.8944471025264497 0
    outer loop
      vertex 5.646069258124837 8.253599327616636 -5
      vertex 3.214394653055194 9.469301293726218 -2.5
      vertex 3.214394653055194 9.469301293726218 -5
    endloop
  endfacet
  facet normal -0.4471737702303643 -0.8944471025264497 0
    outer loop
      vertex 5.646069258124837 8.253599327616636 -5
      vertex 5.646069258124837 8.253599327616636 -2.5
      vertex 3.214394653055194 9.469301293726218 -2.5
    endloop
  endfacet
  facet normal -0.6715589536392526 -0.7409511264496143 0
    outer loop
      vertex 7.660444431540677 6.4278760978294684 -5
      vertex 5.646069258124837 8.253599327616636 -2.5
      vertex 5.646069258124837 8.253599327616636 -5
    endloop
  endfacet
  facet normal -0.6715589536392526 -0.7409511264496143 0
    outer loop
      vertex 7.660444431540677 6.4278760978294684 -5
      vertex 7.660444431540677 6.4278760978294684 -2.5
      vertex 5.646069258124837 8.253599327616636 -2.5
    endloop
  endfacet
  facet normal -0.9848077530211158 -0.17364817761641205 0
    outer loop
      vertex 9.396926207859083 -3.4202014332566875 -5
      vertex 7.660444431540677 6.4278760978294684 -2.5
      vertex 7.660444431540677 6.4278760978294684 -5
    endloop
  endfacet
  facet normal -0.9848077530211158 -0.17364817761641205 0
    outer loop
      vertex 9.396926207859083 -3.4202014332566875 -5
      vertex 9.396926207859083 -3.4202014332566875 -2.5
      vertex 7.660444431540677 6.4278760978294684 -2.5
    endloop
  endfacet
  facet normal -0.34202014332566893 -0.9396926207859083 0
    outer loop
      vertex 14.095389311788624 -5.130302149885032 -5
      vertex 9.396926207859083 -3.4202014332566875 -2.5
      vertex 9.396926207859083 -3.4202014332566875 -5
    endloop
  endfacet
  facet normal -0.34202014332566893 -0.9396926207859083 0
    outer loop
      vertex 14.095389311788624 -5.130302149885032 -5
      vertex 14.095389311788624 -5.130302149885032 -2.5
      vertex 9.396926207859083 -3.4202014332566875 -2.5
    endloop
  endfacet
  facet normal 0.9838460060421662 -0.17901686064412448 0
    outer loop
      vertex 14.999107571383872 -0.16362137416926092 -5
      vertex 14.095389311788624 -5.130302149885032 -2.5
      vertex 14.095389311788624 -5.130302149885032 -5
    endloop
  endfacet
  facet normal 0.9838460060421662 -0.17901686064412448 0
    outer loop
      vertex 14.999107571383872 -0.16362137416926092 -5
      vertex 14.999107571383872 -0.16362137416926092 -2.5
      vertex 14.095389311788624 -5.130302149885032 -2.5
    endloop
  endfacet
  facet normal 0.9875171095089826 0.1575117723442409 0
    outer loop
      vertex 14.20395193979788 4.821591979899753 -5
      vertex 14.999107571383872 -0.16362137416926092 -2.5
      vertex 14.999107571383872 -0.16362137416926092 -5
    endloop
  endfacet
  facet normal 0.9875171095089826 0.1575117723442409 0
    outer loop
      vertex 14.20395193979788 4.821591979899753 -5
      vertex 14.20395193979788 4.821591979899753 -2.5
      vertex 14.999107571383872 -0.16362137416926092 -2.5
    endloop
  endfacet
  facet normal 0.879337089156655 0.4761998358184313 0
    outer loop
      vertex 11.799985713739613 9.260687722173355 -5
      vertex 14.20395193979788 4.821591979899753 -2.5
      vertex 14.20395193979788 4.821591979899753 -5
    endloop
  endfacet
  facet normal 0.879337089156655 0.4761998358184313 0
    outer loop
      vertex 11.799985713739613 9.260687722173355 -5
      vertex 11.799985713739613 9.260687722173355 -2.5
      vertex 14.20395193979788 4.821591979899753 -2.5
    endloop
  endfacet
  facet normal 0.6715589550100292 0.7409511252072148 0
    outer loop
      vertex 8.059494121929994 12.650871688648838 -5
      vertex 11.799985713739613 9.260687722173355 -2.5
      vertex 11.799985713739613 9.260687722173355 -5
    endloop
  endfacet
  facet normal 0.6715589550100292 0.7409511252072148 0
    outer loop
      vertex 8.059494121929994 12.650871688648838 -5
      vertex 8.059494121929994 12.650871688648838 -2.5
      vertex 11.799985713739613 9.260687722173355 -2.5
    endloop
  endfacet
  facet normal 0.3877166970320045 0.9217785866695933 0
    outer loop
      vertex 3.406143944517485 14.608154692410315 -5
      vertex 8.059494121929994 12.650871688648838 -2.5
      vertex 8.059494121929994 12.650871688648838 -5
    endloop
  endfacet
  facet normal 0.3877166970320045 0.9217785866695933 0
    outer loop
      vertex 3.406143944517485 14.608154692410315 -5
      vertex 3.406143944517485 14.608154692410315 -2.5
      vertex 8.059494121929994 12.650871688648838 -2.5
    endloop
  endfacet
  facet normal 0.05995970656467395 0.998200798230836 0
    outer loop
      vertex -1.6330031243111023 14.91084507306189 -5
      vertex 3.406143944517485 14.608154692410315 -2.5
      vertex 3.406143944517485 14.608154692410315 -5
    endloop
  endfacet
  facet normal 0.05995970656467395 0.998200798230836 0
    outer loop
      vertex -1.6330031243111023 14.91084507306189 -5
      vertex -1.6330031243111023 14.91084507306189 -2.5
      vertex 3.406143944517485 14.608154692410315 -2.5
    endloop
  endfacet
  facet normal -0.2745886185137961 0.9615617975890498 0
    outer loop
      vertex -6.487188094978867 13.524658612193624 -5
      vertex -1.6330031243111023 14.91084507306189 -2.5
      vertex -1.6330031243111023 14.91084507306189 -5
    endloop
  endfacet
  facet normal -0.2745886185137961 0.9615617975890498 0
    outer loop
      vertex -6.487188094978867 13.524658612193624 -5
      vertex -6.487188094978867 13.524658612193624 -2.5
      vertex -1.6330031243111023 14.91084507306189 -2.5
    endloop
  endfacet
  facet normal -0.5780356633716945 0.8160115022905284 0
    outer loop
      vertex -10.606601718905992 10.60660172191056 -5
      vertex -6.487188094978867 13.524658612193624 -2.5
      vertex -6.487188094978867 13.524658612193624 -5
    endloop
  endfacet
  facet normal -0.5780356633716945 0.8160115022905284 0
    outer loop
      vertex -10.606601718905992 10.60660172191056 -5
      vertex -10.606601718905992 10.60660172191056 -2.5
      vertex -6.487188094978867 13.524658612193624 -2.5
    endloop
  endfacet
  facet normal -0.8160115023607417 0.5780356632725748 0
    outer loop
      vertex -13.524658612149423 6.487188092743456 -5
      vertex -10.606601718905992 10.60660172191056 -2.5
      vertex -10.606601718905992 10.60660172191056 -5
    endloop
  endfacet
  facet normal -0.8160115023607417 0.5780356632725748 0
    outer loop
      vertex -13.524658612149423 6.487188092743456 -5
      vertex -13.524658612149423 6.487188092743456 -2.5
      vertex -10.606601718905992 10.60660172191056 -2.5
    endloop
  endfacet
  facet normal -0.9615617974790566 0.27458861889897396 0
    outer loop
      vertex -14.910845075416434 1.63300312104016 -5
      vertex -13.524658612149423 6.487188092743456 -2.5
      vertex -13.524658612149423 6.487188092743456 -5
    endloop
  endfacet
  facet normal -0.9615617974790566 0.27458861889897396 0
    outer loop
      vertex -14.910845075416434 1.63300312104016 -5
      vertex -14.910845075416434 1.63300312104016 -2.5
      vertex -13.524658612149423 6.487188092743456 -2.5
    endloop
  endfacet
  facet normal -0.998200798147014 -0.05995970796013003 0
    outer loop
      vertex -14.608154687690536 -3.4061439478603566 -5
      vertex -14.910845075416434 1.63300312104016 -2.5
      vertex -14.910845075416434 1.63300312104016 -5
    endloop
  endfacet
  facet normal -0.998200798147014 -0.05995970796013003 0
    outer loop
      vertex -14.608154687690536 -3.4061439478603566 -5
      vertex -14.608154687690536 -3.4061439478603566 -2.5
      vertex -14.910845075416434 1.63300312104016 -2.5
    endloop
  endfacet
  facet normal -0.9217785869006391 -0.3877166964827037 0
    outer loop
      vertex -12.650871685363025 -8.059494129622722 -5
      vertex -14.608154687690536 -3.4061439478603566 -2.5
      vertex -14.608154687690536 -3.4061439478603566 -5
    endloop
  endfacet
  facet normal -0.9217785869006391 -0.3877166964827037 0
    outer loop
      vertex -12.650871685363025 -8.059494129622722 -5
      vertex -12.650871685363025 -8.059494129622722 -2.5
      vertex -14.608154687690536 -3.4061439478603566 -2.5
    endloop
  endfacet
  facet normal -0.7409511251612454 -0.6715589550607486 0
    outer loop
      vertex -9.260687725157656 -11.799985713999773 -5
      vertex -12.650871685363025 -8.059494129622722 -2.5
      vertex -12.650871685363025 -8.059494129622722 -5
    endloop
  endfacet
  facet normal -0.7409511251612454 -0.6715589550607486 0
    outer loop
      vertex -9.260687725157656 -11.799985713999773 -5
      vertex -9.260687725157656 -11.799985713999773 -2.5
      vertex -12.650871685363025 -8.059494129622722 -2.5
    endloop
  endfacet
  facet normal -0.47619983553076123 -0.8793370893124411 0
    outer loop
      vertex -4.821591976082162 -14.203951941863446 -5
      vertex -9.260687725157656 -11.799985713999773 -2.5
      vertex -9.260687725157656 -11.799985713999773 -5
    endloop
  endfacet
  facet normal -0.47619983553076123 -0.8793370893124411 0
    outer loop
      vertex -4.821591976082162 -14.203951941863446 -5
      vertex -4.821591976082162 -14.203951941863446 -2.5
      vertex -9.260687725157656 -11.799985713999773 -2.5
    endloop
  endfacet
  facet normal -0.1575117733489369 -0.9875171093487309 0
    outer loop
      vertex 0.1636213729759426 -14.999107577851156 -5
      vertex -4.821591976082162 -14.203951941863446 -2.5
      vertex -4.821591976082162 -14.203951941863446 -5
    endloop
  endfacet
  facet normal -0.1575117733489369 -0.9875171093487309 0
    outer loop
      vertex 0.1636213729759426 -14.999107577851156 -5
      vertex 0.1636213729759426 -14.999107577851156 -2.5
      vertex -4.821591976082162 -14.203951941863446 -2.5
    endloop
  endfacet
  facet normal 0.17901686154053947 -0.983846005879058 0
    outer loop
      vertex 5.130302146043046 -14.095389314062716 -2.5
      vertex 0.1636213729759426 -14.999107577851156 0
      vertex 0.1636213729759426 -14.999107577851156 -2.5
    endloop
  endfacet
  facet normal 0.17901686154053947 -0.983846005879058 0
    outer loop
      vertex 5.130302146043046 -14.095389314062716 -2.5
      vertex 5.130302146043046 -14.095389314062716 0
      vertex 0.1636213729759426 -14.999107577851156 0
    endloop
  endfacet
  facet normal 0.9396926212554374 0.34202014203564857 0
    outer loop
      vertex 3.420201436212283 -9.396926208740224 -2.5
      vertex 5.130302146043046 -14.095389314062716 0
      vertex 5.130302146043046 -14.095389314062716 -2.5
    endloop
  endfacet
  facet normal 0.9396926212554374 0.34202014203564857 0
    outer loop
      vertex 3.420201436212283 -9.396926208740224 -2.5
      vertex 3.420201436212283 -9.396926208740224 0
      vertex 5.130302146043046 -14.095389314062716 0
    endloop
  endfacet
  facet normal -0.21111155229173298 0.9774619749580926 0
    outer loop
      vertex 0.7628397470986421 -9.970861323928121 -2.5
      vertex 3.420201436212283 -9.396926208740224 0
      vertex 3.420201436212283 -9.396926208740224 -2.5
    endloop
  endfacet
  facet normal -0.21111155229173298 0.9774619749580926 0
    outer loop
      vertex 0.7628397470986421 -9.970861323928121 -2.5
      vertex 0.7628397470986421 -9.970861323928121 0
      vertex 3.420201436212283 -9.396926208740224 0
    endloop
  endfacet
  facet normal 0.05995970672497678 0.9982007982212069 0
    outer loop
      vertex -1.950903218636329 -9.807852806360918 -2.5
      vertex 0.7628397470986421 -9.970861323928121 0
      vertex 0.7628397470986421 -9.970861323928121 -2.5
    endloop
  endfacet
  facet normal 0.05995970672497678 0.9982007982212069 0
    outer loop
      vertex -1.950903218636329 -9.807852806360918 -2.5
      vertex -1.950903218636329 -9.807852806360918 0
      vertex 0.7628397470986421 -9.970861323928121 0
    endloop
  endfacet
  facet normal 0.32659936299108316 0.9451628727863884 0
    outer loop
      vertex -4.520455457303435 -8.91994856415667 -2.5
      vertex -1.950903218636329 -9.807852806360918 0
      vertex -1.950903218636329 -9.807852806360918 -2.5
    endloop
  endfacet
  facet normal 0.32659936299108316 0.9451628727863884 0
    outer loop
      vertex -4.520455457303435 -8.91994856415667 -2.5
      vertex -4.520455457303435 -8.91994856415667 0
      vertex -1.950903218636329 -9.807852806360918 0
    endloop
  endfacet
  facet normal 0.5691001448665015 0.8222682196904652 0
    outer loop
      vertex -6.755902073702409 -7.372773369044676 -2.5
      vertex -4.520455457303435 -8.91994856415667 0
      vertex -4.520455457303435 -8.91994856415667 -2.5
    endloop
  endfacet
  facet normal 0.5691001448665015 0.8222682196904652 0
    outer loop
      vertex -6.755902073702409 -7.372773369044676 -2.5
      vertex -6.755902073702409 -7.372773369044676 0
      vertex -4.520455457303435 -8.91994856415667 0
    endloop
  endfacet
  facet normal 0.7695388933115124 0.6385999465086829 0
    outer loop
      vertex -8.492021818281136 -5.280678507146322 -2.5
      vertex -6.755902073702409 -7.372773369044676 0
      vertex -6.755902073702409 -7.372773369044676 -2.5
    endloop
  endfacet
  facet normal 0.7695388933115124 0.6385999465086829 0
    outer loop
      vertex -8.492021818281136 -5.280678507146322 -2.5
      vertex -8.492021818281136 -5.280678507146322 0
      vertex -6.755902073702409 -7.372773369044676 0
    endloop
  endfacet
  facet normal 0.9131012345271242 0.4077329217821905 0
    outer loop
      vertex -9.600498539654854 -2.7982901380471787 -2.5
      vertex -8.492021818281136 -5.280678507146322 0
      vertex -8.492021818281136 -5.280678507146322 -2.5
    endloop
  endfacet
  facet normal 0.9131012345271242 0.4077329217821905 0
    outer loop
      vertex -9.600498539654854 -2.7982901380471787 -2.5
      vertex -9.600498539654854 -2.7982901380471787 0
      vertex -8.492021818281136 -5.280678507146322 0
    endloop
  endfacet
  facet normal 0.9891765097997215 0.14673047556810284 0
    outer loop
      vertex -9.999405048717604 -0.10908091383295782 -2.5
      vertex -9.600498539654854 -2.7982901380471787 0
      vertex -9.600498539654854 -2.7982901380471787 -2.5
    endloop
  endfacet
  facet normal 0.9891765097997215 0.14673047556810284 0
    outer loop
      vertex -9.999405048717604 -0.10908091383295782 -2.5
      vertex -9.999405048717604 -0.10908091383295782 0
      vertex -9.600498539654854 -2.7982901380471787 0
    endloop
  endfacet
  facet normal 0.9921420211670935 -0.12511678478315652 0
    outer loop
      vertex -9.659258261913074 2.5881904485875546 -2.5
      vertex -9.999405048717604 -0.10908091383295782 0
      vertex -9.999405048717604 -0.10908091383295782 -2.5
    endloop
  endfacet
  facet normal 0.9921420211670935 -0.12511678478315652 0
    outer loop
      vertex -9.659258261913074 2.5881904485875546 -2.5
      vertex -9.659258261913074 2.5881904485875546 0
      vertex -9.999405048717604 -0.10908091383295782 0
    endloop
  endfacet
  facet normal 0.92177858678199 -0.38771669676478626 0
    outer loop
      vertex -8.605198334983356 5.094169370661791 -2.5
      vertex -9.659258261913074 2.5881904485875546 0
      vertex -9.659258261913074 2.5881904485875546 -2.5
    endloop
  endfacet
  facet normal 0.92177858678199 -0.38771669676478626 0
    outer loop
      vertex -8.605198334983356 5.094169370661791 -2.5
      vertex -8.605198334983356 5.094169370661791 0
      vertex -9.659258261913074 2.5881904485875546 0
    endloop
  endfacet
  facet normal 0.783286749860271 -0.621660572574241 0
    outer loop
      vertex -6.915130560210143 7.223639619778478 -2.5
      vertex -8.605198334983356 5.094169370661791 0
      vertex -8.605198334983356 5.094169370661791 -2.5
    endloop
  endfacet
  facet normal 0.783286749860271 -0.621660572574241 0
    outer loop
      vertex -6.915130560210143 7.223639619778478 -2.5
      vertex -6.915130560210143 7.223639619778478 0
      vertex -8.605198334983356 5.094169370661791 0
    endloop
  endfacet
  facet normal 0.5869024017996681 -0.8096576873974464 0
    outer loop
      vertex -4.713967370475155 8.819212641460082 -2.5
      vertex -6.915130560210143 7.223639619778478 0
      vertex -6.915130560210143 7.223639619778478 -2.5
    endloop
  endfacet
  facet normal 0.5869024017996681 -0.8096576873974464 0
    outer loop
      vertex -4.713967370475155 8.819212641460082 -2.5
      vertex -4.713967370475155 8.819212641460082 0
      vertex -6.915130560210143 7.223639619778478 0
    endloop
  endfacet
  facet normal 0.34714026009056315 -0.9378132222485756 0
    outer loop
      vertex -2.164396139526478 9.762960073500818 -2.5
      vertex -4.713967370475155 8.819212641460082 0
      vertex -4.713967370475155 8.819212641460082 -2.5
    endloop
  endfacet
  facet normal 0.34714026009056315 -0.9378132222485756 0
    outer loop
      vertex -2.164396139526478 9.762960073500818 -2.5
      vertex -2.164396139526478 9.762960073500818 0
      vertex -4.713967370475155 8.819212641460082 0
    endloop
  endfacet
  facet normal 0.08172107397014007 -0.9966552393225889 0
    outer loop
      vertex 0.5451450133457594 9.98512979101468 -2.5
      vertex -2.164396139526478 9.762960073500818 0
      vertex -2.164396139526478 9.762960073500818 -2.5
    endloop
  endfacet
  facet normal 0.08172107397014007 -0.9966552393225889 0
    outer loop
      vertex 0.5451450133457594 9.98512979101468 -2.5
      vertex 0.5451450133457594 9.98512979101468 0
      vertex -2.164396139526478 9.762960073500818 0
    endloop
  endfacet
  facet normal -0.18973809371550202 -0.981834739553051 0
    outer loop
      vertex 3.214394653055194 9.469301293726218 -2.5
      vertex 0.5451450133457594 9.98512979101468 0
      vertex 0.5451450133457594 9.98512979101468 -2.5
    endloop
  endfacet
  facet normal -0.18973809371550202 -0.981834739553051 0
    outer loop
      vertex 3.214394653055194 9.469301293726218 -2.5
      vertex 3.214394653055194 9.469301293726218 0
      vertex 0.5451450133457594 9.98512979101468 0
    endloop
  endfacet
  facet normal -0.4471737702303643 -0.8944471025264497 0
    outer loop
      vertex 5.646069258124837 8.253599327616636 -2.5
      vertex 3.214394653055194 9.469301293726218 0
      vertex 3.214394653055194 9.469301293726218 -2.5
    endloop
  endfacet
  facet normal -0.4471737702303643 -0.8944471025264497 0
    outer loop
      vertex 5.646069258124837 8.253599327616636 -2.5
      vertex 5.646069258124837 8.253599327616636 0
      vertex 3.214394653055194 9.469301293726218 0
    endloop
  endfacet
  facet normal -0.6715589536392526 -0.7409511264496143 0
    outer loop
      vertex 7.660444431540677 6.4278760978294684 -2.5
      vertex 5.646069258124837 8.253599327616636 0
      vertex 5.646069258124837 8.253599327616636 -2.5
    endloop
  endfacet
  facet normal -0.6715589536392526 -0.7409511264496143 0
    outer loop
      vertex 7.660444431540677 6.4278760978294684 -2.5
      vertex 7.660444431540677 6.4278760978294684 0
      vertex 5.646069258124837 8.253599327616636 0
    endloop
  endfacet
  facet normal -0.9848077530211158 -0.17364817761641205 0
    outer loop
      vertex 9.396926207859083 -3.4202014332566875 -2.5
      vertex 7.660444431540677 6.4278760978294684 0
      vertex 7.660444431540677 6.4278760978294684 -2.5
    endloop
  endfacet
  facet normal -0.9848077530211158 -0.17364817761641205 0
    outer loop
      vertex 9.396926207859083 -3.4202014332566875 -2.5
      vertex 9.396926207859083 -3.4202014332566875 0
      vertex 7.660444431540677 6.4278760978294684 0
    endloop
  endfacet
  facet normal -0.34202014332566893 -0.9396926207859083 0
    outer loop
      vertex 14.095389311788624 -5.130302149885032 -2.5
      vertex 9.396926207859083 -3.4202014332566875 0
      vertex 9.396926207859083 -3.4202014332566875 -2.5
    endloop
  endfacet
  facet normal -0.34202014332566893 -0.9396926207859083 0
    outer loop
      vertex 14.095389311788624 -5.130302149885032 -2.5
      vertex 14.095389311788624 -5.130302149885032 0
      vertex 9.396926207859083 -3.4202014332566875 0
    endloop
  endfacet
  facet normal 0.9838460060421662 -0.17901686064412448 0
    outer loop
      vertex 14.999107571383872 -0.16362137416926092 -2.5
      vertex 14.095389311788624 -5.130302149885032 0
      vertex 14.095389311788624 -5.130302149885032 -2.5
    endloop
  endfacet
  facet normal 0.9838460060421662 -0.17901686064412448 0
    outer loop
      vertex 14.999107571383872 -0.16362137416926092 -2.5
      vertex 14.999107571383872 -0.16362137416926092 0
      vertex 14.095389311788624 -5.130302149885032 0
    endloop
  endfacet
  facet normal 0.9875171095089826 0.1575117723442409 0
    outer loop
      vertex 14.20395193979788 4.821591979899753 -2.5
      vertex 14.999107571383872 -0.16362137416926092 0
      vertex 14.999107571383872 -0.16362137416926092 -2.5
    endloop
  endfacet
  facet normal 0.9875171095089826 0.1575117723442409 0
    outer loop
      vertex 14.20395193979788 4.821591979899753 -2.5
      vertex 14.20395193979788 4.821591979899753 0
      vertex 14.999107571383872 -0.16362137416926092 0
    endloop
  endfacet
  facet normal 0.879337089156655 0.4761998358184313 0
    outer loop
      vertex 11.799985713739613 9.260687722173355 -2.5
      vertex 14.20395193979788 4.821591979899753 0
      vertex 14.20395193979788 4.821591979899753 -2.5
    endloop
  endfacet
  facet normal 0.879337089156655 0.4761998358184313 0
    outer loop
      vertex 11.799985713739613 9.260687722173355 -2.5
      vertex 11.799985713739613 9.260687722173355 0
      vertex 14.20395193979788 4.821591979899753 0
    endloop
  endfacet
  facet normal 0.6715589550100292 0.7409511252072148 0
    outer loop
      vertex 8.059494121929994 12.650871688648838 -2.5
      vertex 11.799985713739613 9.260687722173355 0
      vertex 11.799985713739613 9.260687722173355 -2.5
    endloop
  endfacet
  facet normal 0.6715589550100292 0.7409511252072148 0
    outer loop
      vertex 8.059494121929994 12.650871688648838 -2.5
      vertex 8.059494121929994 12.650871688648838 0
      vertex 11.799985713739613 9.260687722173355 0
    endloop
  endfacet
  facet normal 0.3877166970320045 0.9217785866695933 0
    outer loop
      vertex 3.406143944517485 14.608154692410315 -2.5
      vertex 8.059494121929994 12.650871688648838 0
      vertex 8.059494121929994 12.650871688648838 -2.5
    endloop
  endfacet
  facet normal 0.3877166970320045 0.9217785866695933 0
    outer loop
      vertex 3.406143944517485 14.608154692410315 -2.5
      vertex 3.406143944517485 14.608154692410315 0
      vertex 8.059494121929994 12.650871688648838 0
    endloop
  endfacet
  facet normal 0.05995970656467395 0.998200798230836 0
    outer loop
      vertex -1.6330031243111023 14.91084507306189 -2.5
      vertex 3.406143944517485 14.608154692410315 0
      vertex 3.406143944517485 14.608154692410315 -2.5
    endloop
  endfacet
  facet normal 0.05995970656467395 0.998200798230836 0
    outer loop
      vertex -1.6330031243111023 14.91084507306189 -2.5
      vertex -1.6330031243111023 14.91084507306189 0
      vertex 3.406143944517485 14.608154692410315 0
    endloop
  endfacet
  facet normal -0.2745886185137961 0.9615617975890498 0
    outer loop
      vertex -6.487188094978867 13.524658612193624 -2.5
      vertex -1.6330031243111023 14.91084507306189 0
      vertex -1.6330031243111023 14.91084507306189 -2.5
    endloop
  endfacet
  facet normal -0.2745886185137961 0.9615617975890498 0
    outer loop
      vertex -6.487188094978867 13.524658612193624 -2.5
      vertex -6.487188094978867 13.524658612193624 0
      vertex -1.6330031243111023 14.91084507306189 0
    endloop
  endfacet
  facet normal -0.5780356633716945 0.8160115022905284 0
    outer loop
      vertex -10.606601718905992 10.60660172191056 -2.5
      vertex -6.487188094978867 13.524658612193624 0
      vertex -6.487188094978867 13.524658612193624 -2.5
    endloop
  endfacet
  facet normal -0.5780356633716945 0.8160115022905284 0
    outer loop
      vertex -10.606601718905992 10.60660172191056 -2.5
      vertex -10.606601718905992 10.60660172191056 0
      vertex -6.487188094978867 13.524658612193624 0
    endloop
  endfacet
  facet normal -0.8160115023607417 0.5780356632725748 0
    outer loop
      vertex -13.524658612149423 6.487188092743456 -2.5
      vertex -10.606601718905992 10.60660172191056 0
      vertex -10.606601718905992 10.60660172191056 -2.5
    endloop
  endfacet
  facet normal -0.8160115023607417 0.5780356632725748 0
    outer loop
      vertex -13.524658612149423 6.487188092743456 -2.5
      vertex -13.524658612149423 6.487188092743456 0
      vertex -10.606601718905992 10.60660172191056 0
    endloop
  endfacet
  facet normal -0.9615617974790566 0.27458861889897396 0
    outer loop
      vertex -14.910845075416434 1.63300312104016 -2.5
      vertex -13.524658612149423 6.487188092743456 0
      vertex -13.524658612149423 6.487188092743456 -2.5
    endloop
  endfacet
  facet normal -0.9615617974790566 0.27458861889897396 0
    outer loop
      vertex -14.910845075416434 1.63300312104016 -2.5
      vertex -14.910845075416434 1.63300312104016 0
      vertex -13.524658612149423 6.487188092743456 0
    endloop
  endfacet
  facet normal -0.998200798147014 -0.05995970796013003 0
    outer loop
      vertex -14.608154687690536 -3.4061439478603566 -2.5
      vertex -14.910845075416434 1.63300312104016 0
      vertex -14.910845075416434 1.63300312104016 -2.5
    endloop
  endfacet
  facet normal -0.998200798147014 -0.05995970796013003 0
    outer loop
      vertex -14.608154687690536 -3.4061439478603566 -2.5
      vertex -14.608154687690536 -3.4061439478603566 0
      vertex -14.910845075416434 1.63300312104016 0
    endloop
  endfacet
  facet normal -0.9217785869006391 -0.3877166964827037 0
    outer loop
      vertex -12.650871685363025 -8.059494129622722 -2.5
      vertex -14.608154687690536 -3.4061439478603566 0
      vertex -14.608154687690536 -3.4061439478603566 -2.5
    endloop
  endfacet
  facet normal -0.9217785869006391 -0.3877166964827037 0
    outer loop
      vertex -12.650871685363025 -8.059494129622722 -2.5
      vertex -12.650871685363025 -8.059494129622722 0
      vertex -14.608154687690536 -3.4061439478603566 0
    endloop
  endfacet
  facet normal -0.7409511251612454 -0.6715589550607486 0
    outer loop
      vertex -9.260687725157656 -11.799985713999773 -2.5
      vertex -12.650871685363025 -8.059494129622722 0
      vertex -12.650871685363025 -8.059494129622722 -2.5
    endloop
  endfacet
  facet normal -0.7409511251612454 -0.6715589550607486 0
    outer loop
      vertex -9.260687725157656 -11.799985713999773 -2.5
      vertex -9.260687725157656 -11.799985713999773 0
      vertex -12.650871685363025 -8.059494129622722 0
    endloop
  endfacet
  facet normal -0.47619983553076123 -0.8793370893124411 0
    outer loop
      vertex -4.821591976082162 -14.203951941863446 -2.5
      vertex -9.260687725157656 -11.799985713999773 0
      vertex -9.260687725157656 -11.799985713999773 -2.5
    endloop
  endfacet
  facet normal -0.47619983553076123 -0.8793370893124411 0
    outer loop
      vertex -4.821591976082162 -14.203951941863446 -2.5
      vertex -4.821591976082162 -14.203951941863446 0
      vertex -9.260687725157656 -11.799985713999773 0
    endloop
  endfacet
  facet normal -0.1575117733489369 -0.9875171093487309 0
    outer loop
      vertex 0.1636213729759426 -14.999107577851156 -2.5
      vertex -4.821591976082162 -14.203951941863446 0
      vertex -4.821591976082162 -14.203951941863446 -2.5
    endloop
  endfacet
  facet normal -0.1575117733489369 -0.9875171093487309 0
    outer loop
      vertex 0.1636213729759426 -14.999107577851156 -2.5
      vertex 0.1636213729759426 -14.999107577851156 0
      vertex -4.821591976082162 -14.203951941863446 0
    endloop
  endfacet
  facet normal 0.17901686154053947 -0.983846005879058 0
    outer loop
      vertex 5.130302146043046 -14.095389314062716 0
      vertex 0.1636213729759426 -14.999107577851156 2.5
      vertex 0.1636213729759426 -14.999107577851156 0
    endloop
  endfacet
  facet normal 0.17901686154053947 -0.983846005879058 0
    outer loop
      vertex 5.130302146043046 -14.095389314062716 0
      vertex 5.130302146043046 -14.095389314062716 2.5
      vertex 0.1636213729759426 -14.999107577851156 2.5
    endloop
  endfacet
  facet normal 0.9396926212554374 0.34202014203564857 0
    outer loop
      vertex 3.420201436212283 -9.396926208740224 0
      vertex 5.130302146043046 -14.095389314062716 2.5
      vertex 5.130302146043046 -14.095389314062716 0
    endloop
  endfacet
  facet normal 0.9396926212554374 0.34202014203564857 0
    outer loop
      vertex 3.420201436212283 -9.396926208740224 0
      vertex 3.420201436212283 -9.396926208740224 2.5
      vertex 5.130302146043046 -14.095389314062716 2.5
    endloop
  endfacet
  facet normal -0.21111155229173298 0.9774619749580926 0
    outer loop
      vertex 0.7628397470986421 -9.970861323928121 0
      vertex 3.420201436212283 -9.396926208740224 2.5
      vertex 3.420201436212283 -9.396926208740224 0
    endloop
  endfacet
  facet normal -0.21111155229173298 0.9774619749580926 0
    outer loop
      vertex 0.7628397470986421 -9.970861323928121 0
      vertex 0.7628397470986421 -9.970861323928121 2.5
      vertex 3.420201436212283 -9.396926208740224 2.5
    endloop
  endfacet
  facet normal 0.05995970672497678 0.9982007982212069 0
    outer loop
      vertex -1.950903218636329 -9.807852806360918 0
      vertex 0.7628397470986421 -9.970861323928121 2.5
      vertex 0.7628397470986421 -9.970861323928121 0
    endloop
  endfacet
  facet normal 0.05995970672497678 0.9982007982212069 0
    outer loop
      vertex -1.950903218636329 -9.807852806360918 0
      vertex -1.950903218636329 -9.807852806360918 2.5
      vertex 0.7628397470986421 -9.970861323928121 2.5
    endloop
  endfacet
  facet normal 0.32659936299108316 0.9451628727863884 0
    outer loop
      vertex -4.520455457303435 -8.91994856415667 0
      vertex -1.950903218636329 -9.807852806360918 2.5
      vertex -1.950903218636329 -9.807852806360918 0
    endloop
  endfacet
  facet normal 0.32659936299108316 0.9451628727863884 0
    outer loop
      vertex -4.520455457303435 -8.91994856415667 0
      vertex -4.520455457303435 -8.91994856415667 2.5
      vertex -1.950903218636329 -9.807852806360918 2.5
    endloop
  endfacet
  facet normal 0.5691001448665015 0.8222682196904652 0
    outer loop
      vertex -6.755902073702409 -7.372773369044676 0
      vertex -4.520455457303435 -8.91994856415667 2.5
      vertex -4.520455457303435 -8.91994856415667 0
    endloop
  endfacet
  facet normal 0.5691001448665015 0.8222682196904652 0
    outer loop
      vertex -6.755902073702409 -7.372773369044676 0
      vertex -6.755902073702409 -7.372773369044676 2.5
      vertex -4.520455457303435 -8.91994856415667 2.5
    endloop
  endfacet
  facet normal 0.7695388933115124 0.6385999465086829 0
    outer loop
      vertex -8.492021818281136 -5.280678507146322 0
      vertex -6.755902073702409 -7.372773369044676 2.5
      vertex -6.755902073702409 -7.372773369044676 0
    endloop
  endfacet
  facet normal 0.7695388933115124 0.6385999465086829 0
    outer loop
      vertex -8.492021818281136 -5.280678507146322 0
      vertex -8.492021818281136 -5.280678507146322 2.5
      vertex -6.755902073702409 -7.372773369044676 2.5
    endloop
  endfacet
  facet normal 0.9131012345271242 0.4077329217821905 0
    outer loop
      vertex -9.600498539654854 -2.7982901380471787 0
      vertex -8.492021818281136 -5.280678507146322 2.5
      vertex -8.492021818281136 -5.280678507146322 0
    endloop
  endfacet
  facet normal 0.9131012345271242 0.4077329217821905 0
    outer loop
      vertex -9.600498539654854 -2.7982901380471787 0
      vertex -9.600498539654854 -2.7982901380471787 2.5
      vertex -8.492021818281136 -5.280678507146322 2.5
    endloop
  endfacet
  facet normal 0.9891765097997215 0.14673047556810284 0
    outer loop
      vertex -9.999405048717604 -0.10908091383295782 0
      vertex -9.600498539654854 -2.7982901380471787 2.5
      vertex -9.600498539654854 -2.7982901380471787 0
    endloop
  endfacet
  facet normal 0.9891765097997215 0.14673047556810284 0
    outer loop
      vertex -9.999405048717604 -0.10908091383295782 0
      vertex -9.999405048717604 -0.10908091383295782 2.5
      vertex -9.600498539654854 -2.7982901380471787 2.5
    endloop
  endfacet
  facet normal 0.9921420211670935 -0.12511678478315652 0
    outer loop
      vertex -9.659258261913074 2.5881904485875546 0
      vertex -9.999405048717604 -0.10908091383295782 2.5
      vertex -9.999405048717604 -0.10908091383295782 0
    endloop
  endfacet
  facet normal 0.9921420211670935 -0.12511678478315652 0
    outer loop
      vertex -9.659258261913074 2.5881904485875546 0
      vertex -9.659258261913074 2.5881904485875546 2.5
      vertex -9.999405048717604 -0.10908091383295782 2.5
    endloop
  endfacet
  facet normal 0.92177858678199 -0.38771669676478626 0
    outer loop
      vertex -8.605198334983356 5.094169370661791 0
      vertex -9.659258261913074 2.5881904485875546 2.5
      vertex -9.659258261913074 2.5881904485875546 0
    endloop
  endfacet
  facet normal 0.92177858678199 -0.38771669676478626 0
    outer loop
      vertex -8.605198334983356 5.094169370661791 0
      vertex -8.605198334983356 5.094169370661791 2.5
      vertex -9.659258261913074 2.5881904485875546 2.5
    endloop
  endfacet
  facet normal 0.783286749860271 -0.621660572574241 0
    outer loop
      vertex -6.915130560210143 7.223639619778478 0
      vertex -8.605198334983356 5.094169370661791 2.5
      vertex -8.605198334983356 5.094169370661791 0
    endloop
  endfacet
  facet normal 0.783286749860271 -0.621660572574241 0
    outer loop
      vertex -6.915130560210143 7.223639619778478 0
      vertex -6.915130560210143 7.223639619778478 2.5
      vertex -8.605198334983356 5.094169370661791 2.5
    endloop
  endfacet
  facet normal 0.5869024017996681 -0.8096576873974464 0
    outer loop
      vertex -4.713967370475155 8.819212641460082 0
      vertex -6.915130560210143 7.223639619778478 2.5
      vertex -6.915130560210143 7.223639619778478 0
    endloop
  endfacet
  facet normal 0.5869024017996681 -0.8096576873974464 0
    outer loop
      vertex -4.713967370475155 8.819212641460082 0
      vertex -4.713967370475155 8.819212641460082 2.5
      vertex -6.915130560210143 7.223639619778478 2.5
    endloop
  endfacet
  facet normal 0.34714026009056315 -0.9378132222485756 0
    outer loop
      vertex -2.164396139526478 9.762960073500818 0
      vertex -4.713967370475155 8.819212641460082 2.5
      vertex -4.713967370475155 8.819212641460082 0
    endloop
  endfacet
  facet normal 0.34714026009056315 -0.9378132222485756 0
    outer loop
      vertex -2.164396139526478 9.762960073500818 0
      vertex -2.164396139526478 9.762960073500818 2.5
      vertex -4.713967370475155 8.819212641460082 2.5
    endloop
  endfacet
  facet normal 0.08172107397014007 -0.9966552393225889 0
    outer loop
      vertex 0.5451450133457594 9.98512979101468 0
      vertex -2.164396139526478 9.762960073500818 2.5
      vertex -2.164396139526478 9.762960073500818 0
    endloop
  endfacet
  facet normal 0.08172107397014007 -0.9966552393225889 0
    outer loop
      vertex 0.5451450133457594 9.98512979101468 0
      vertex 0.5451450133457594 9.98512979101468 2.5
      vertex -2.164396139526478 9.762960073500818 2.5
    endloop
  endfacet
  facet normal -0.18973809371550202 -0.981834739553051 0
    outer loop
      vertex 3.214394653055194 9.469301293726218 0
      vertex 0.5451450133457594 9.98512979101468 2.5
      vertex 0.5451450133457594 9.98512979101468 0
    endloop
  endfacet
  facet normal -0.18973809371550202 -0.981834739553051 0
    outer loop
      vertex 3.214394653055194 9.469301293726218 0
      vertex 3.214394653055194 9.469301293726218 2.5
      vertex 0.5451450133457594 9.98512979101468 2.5
    endloop
  endfacet
  facet normal -0.4471737702303643 -0.8944471025264497 0
    outer loop
      vertex 5.646069258124837 8.253599327616636 0
      vertex 3.214394653055194 9.469301293726218 2.5
      vertex 3.214394653055194 9.469301293726218 0
    endloop
  endfacet
  facet normal -0.4471737702303643 -0.8944471025264497 0
    outer loop
      vertex 5.646069258124837 8.253599327616636 0
      vertex 5.646069258124837 8.253599327616636 2.5
      vertex 3.214394653055194 9.469301293726218 2.5
    endloop
  endfacet
  facet normal -0.6715589536392526 -0.7409511264496143 0
    outer loop
      vertex 7.660444431540677 6.4278760978294684 0
      vertex 5.646069258124837 8.253599327616636 2.5
      vertex 5.646069258124837 8.253599327616636 0
    endloop
  endfacet
  facet normal -0.6715589536392526 -0.7409511264496143 0
    outer loop
      vertex 7.660444431540677 6.4278760978294684 0
      vertex 7.660444431540677 6.4278760978294684 2.5
      vertex 5.646069258124837 8.253599327616636 2.5
    endloop
  endfacet
  facet normal -0.9848077530211158 -0.17364817761641205 0
    outer loop
      vertex 9.396926207859083 -3.4202014332566875 0
      vertex 7.660444431540677 6.4278760978294684 2.5
      vertex 7.660444431540677 6.4278760978294684 0
    endloop
  endfacet
  facet normal -0.9848077530211158 -0.17364817761641205 0
    outer loop
      vertex 9.396926207859083 -3.4202014332566875 0
      vertex 9.396926207859083 -3.4202014332566875 2.5
      vertex 7.660444431540677 6.4278760978294684 2.5
    endloop
  endfacet
  facet normal -0.34202014332566893 -0.9396926207859083 0
    outer loop
      vertex 14.095389311788624 -5.130302149885032 0
      vertex 9.396926207859083 -3.4202014332566875 2.5
      vertex 9.396926207859083 -3.4202014332566875 0
    endloop
  endfacet
  facet normal -0.34202014332566893 -0.9396926207859083 0
    outer loop
      vertex 14.095389311788624 -5.130302149885032 0
      vertex 14.095389311788624 -5.130302149885032 2.5
      vertex 9.396926207859083 -3.4202014332566875 2.5
    endloop
  endfacet
  facet normal 0.9838460060421662 -0.17901686064412448 0
    outer loop
      vertex 14.999107571383872 -0.16362137416926092 0
      vertex 14.095389311788624 -5.130302149885032 2.5
      vertex 14.095389311788624 -5.130302149885032 0
    endloop
  endfacet
  facet normal 0.9838460060421662 -0.17901686064412448 0
    outer loop
      vertex 14.999107571383872 -0.16362137416926092 0
      vertex 14.999107571383872 -0.16362137416926092 2.5
      vertex 14.095389311788624 -5.130302149885032 2.5
    endloop
  endfacet
  facet normal 0.9875171095089826 0.1575117723442409 0
    outer loop
      vertex 14.20395193979788 4.821591979899753 0
      vertex 14.999107571383872 -0.16362137416926092 2.5
      vertex 14.999107571383872 -0.16362137416926092 0
    endloop
  endfacet
  facet normal 0.9875171095089826 0.1575117723442409 0
    outer loop
      vertex 14.20395193979788 4.821591979899753 0
      vertex 14.20395193979788 4.821591979899753 2.5
      vertex 14.999107571383872 -0.16362137416926092 2.5
    endloop
  endfacet
  facet normal 0.879337089156655 0.4761998358184313 0
    outer loop
      vertex 11.799985713739613 9.260687722173355 0
      vertex 14.20395193979788 4.821591979899753 2.5
      vertex 14.20395193979788 4.821591979899753 0
    endloop
  endfacet
  facet normal 0.879337089156655 0.4761998358184313 0
    outer loop
      vertex 11.799985713739613 9.260687722173355 0
      vertex 11.799985713739613 9.260687722173355 2.5
      vertex 14.20395193979788 4.821591979899753 2.5
    endloop
  endfacet
  facet normal 0.6715589550100292 0.7409511252072148 0
    outer loop
      vertex 8.059494121929994 12.650871688648838 0
      vertex 11.799985713739613 9.260687722173355 2.5
      vertex 11.799985713739613 9.260687722173355 0
    endloop
  endfacet
  facet normal 0.6715589550100292 0.7409511252072148 0
    outer loop
      vertex 8.059494121929994 12.650871688648838 0
      vertex 8.059494121929994 12.650871688648838 2.5
      vertex 11.799985713739613 9.260687722173355 2.5
    endloop
  endfacet
  facet normal 0.3877166970320045 0.9217785866695933 0
    outer loop
      vertex 3.406143944517485 14.608154692410315 0
      vertex 8.059494121929994 12.650871688648838 2.5
      vertex 8.059494121929994 12.650871688648838 0
    endloop
  endfacet
  facet normal 0.3877166970320045 0.9217785866695933 0
    outer loop
      vertex 3.406143944517485 14.608154692410315 0
      vertex 3.406143944517485 14.608154692410315 2.5
      vertex 8.059494121929994 12.650871688648838 2.5
    endloop
  endfacet
  facet normal 0.05995970656467395 0.998200798230836 0
    outer loop
      vertex -1.6330031243111023 14.91084507306189 0
      vertex 3.406143944517485 14.608154692410315 2.5
      vertex 3.406143944517485 14.608154692410315 0
    endloop
  endfacet
  facet normal 0.05995970656467395 0.998200798230836 0
    outer loop
      vertex -1.6330031243111023 14.91084507306189 0
      vertex -1.6330031243111023 14.91084507306189 2.5
      vertex 3.406143944517485 14.608154692410315 2.5
    endloop
  endfacet
  facet normal -0.2745886185137961 0.9615617975890498 0
    outer loop
      vertex -6.487188094978867 13.524658612193624 0
      vertex -1.6330031243111023 14.91084507306189 2.5
      vertex -1.6330031243111023 14.91084507306189 0
    endloop
  endfacet
  facet normal -0.2745886185137961 0.9615617975890498 0
    outer loop
      vertex -6.487188094978867 13.524658612193624 0
      vertex -6.487188094978867 13.524658612193624 2.5
      vertex -1.6330031243111023 14.91084507306189 2.5
    endloop
  endfacet
  facet normal -0.5780356633716945 0.8160115022905284 0
    outer loop
      vertex -10.606601718905992 10.60660172191056 0
      vertex -6.487188094978867 13.524658612193624 2.5
      vertex -6.487188094978867 13.524658612193624 0
    endloop
  endfacet
  facet normal -0.5780356633716945 0.8160115022905284 0
    outer loop
      vertex -10.606601718905992 10.60660172191056 0
      vertex -10.606601718905992 10.60660172191056 2.5
      vertex -6.487188094978867 13.524658612193624 2.5
    endloop
  endfacet
  facet normal -0.8160115023607417 0.5780356632725748 0
    outer loop
      vertex -13.524658612149423 6.487188092743456 0
      vertex -10.606601718905992 10.60660172191056 2.5
      vertex -10.606601718905992 10.60660172191056 0
    endloop
  endfacet
  facet normal -0.8160115023607417 0.5780356632725748 0
    outer loop
      vertex -13.524658612149423 6.487188092743456 0
      vertex -13.524658612149423 6.487188092743456 2.5
      vertex -10.606601718905992 10.60660172191056 2.5
    endloop
  endfacet
  facet normal -0.9615617974790566 0.27458861889897396 0
    outer loop
      vertex -14.910845075416434 1.63300312104016 0
      vertex -13.524658612149423 6.487188092743456 2.5
      vertex -13.524658612149423 6.487188092743456 0
    endloop
  endfacet
  facet normal -0.9615617974790566 0.27458861889897396 0
    outer loop
      vertex -14.910845075416434 1.63300312104016 0
      vertex -14.910845075416434 1.63300312104016 2.5
      vertex -13.524658612149423 6.487188092743456 2.5
    endloop
  endfacet
  facet normal -0.998200798147014 -0.05995970796013003 0
    outer loop
      vertex -14.608154687690536 -3.4061439478603566 0
      vertex -14.910845075416434 1.63300312104016 2.5
      vertex -14.910845075416434 1.63300312104016 0
    endloop
  endfacet
  facet normal -0.998200798147014 -0.05995970796013003 0
    outer loop
      vertex -14.608154687690536 -3.4061439478603566 0
      vertex -14.608154687690536 -3.4061439478603566 2.5
      vertex -14.910845075416434 1.63300312104016 2.5
    endloop
  endfacet
  facet normal -0.9217785869006391 -0.3877166964827037 0
    outer loop
      vertex -12.650871685363025 -8.059494129622722 0
      vertex -14.608154687690536 -3.4061439478603566 2.5
      vertex -14.608154687690536 -3.4061439478603566 0
    endloop
  endfacet
  facet normal -0.9217785869006391 -0.3877166964827037 0
    outer loop
      vertex -12.650871685363025 -8.059494129622722 0
      vertex -12.650871685363025 -8.059494129622722 2.5
      vertex -14.608154687690536 -3.4061439478603566 2.5
    endloop
  endfacet
  facet normal -0.7409511251612454 -0.6715589550607486 0
    outer loop
      vertex -9.260687725157656 -11.799985713999773 0
      vertex -12.650871685363025 -8.059494129622722 2.5
      vertex -12.650871685363025 -8.059494129622722 0
    endloop
  endfacet
  facet normal -0.7409511251612454 -0.6715589550607486 0
    outer loop
      vertex -9.260687725157656 -11.799985713999773 0
      vertex -9.260687725157656 -11.799985713999773 2.5
      vertex -12.650871685363025 -8.059494129622722 2.5
    endloop
  endfacet
  facet normal -0.47619983553076123 -0.8793370893124411 0
    outer loop
      vertex -4.821591976082162 -14.203951941863446 0
      vertex -9.260687725157656 -11.799985713999773 2.5
      vertex -9.260687725157656 -11.799985713999773 0
    endloop
  endfacet
  facet normal -0.47619983553076123 -0.8793370893124411 0
    outer loop
      vertex -4.821591976082162 -14.203951941863446 0
      vertex -4.821591976082162 -14.203951941863446 2.5
      vertex -9.260687725157656 -11.799985713999773 2.5
    endloop
  endfacet
  facet normal -0.1575117733489369 -0.9875171093487309 0
    outer loop
      vertex 0.1636213729759426 -14.999107577851156 0
      vertex -4.821591976082162 -14.203951941863446 2.5
      vertex -4.821591976082162 -14.203951941863446 0
    endloop
  endfacet
  facet normal -0.1575117733489369 -0.9875171093487309 0
    outer loop
      vertex 0.1636213729759426 -14.999107577851156 0
      vertex 0.1636213729759426 -14.999107577851156 2.5
      vertex -4.821591976082162 -14.203951941863446 2.5
    endloop
  endfacet
  facet normal 0.17901686154053947 -0.983846005879058 0
    outer loop
      vertex 5.130302146043046 -14.095389314062716 2.5
      vertex 0.1636213729759426 -14.999107577851156 5
      vertex 0.1636213729759426 -14.999107577851156 2.5
    endloop
  endfacet
  facet normal 0.17901686154053947 -0.983846005879058 0
    outer loop
      vertex 5.130302146043046 -14.095389314062716 2.5
      vertex 5.130302146043046 -14.095389314062716 5
      vertex 0.1636213729759426 -14.999107577851156 5
    endloop
  endfacet
  facet normal 0.9396926212554374 0.34202014203564857 0
    outer loop
      vertex 3.420201436212283 -9.396926208740224 2.5
      vertex 5.130302146043046 -14.095389314062716 5
      vertex 5.130302146043046 -14.095389314062716 2.5
    endloop
  endfacet
  facet normal 0.9396926212554374 0.34202014203564857 0
    outer loop
      vertex 3.420201436212283 -9.396926208740224 2.5
      vertex 3.420201436212283 -9.396926208740224 5
      vertex 5.130302146043046 -14.095389314062716 5
    endloop
  endfacet
  facet normal -0.21111155229173298 0.9774619749580926 0
    outer loop
      vertex 0.7628397470986421 -9.970861323928121 2.5
      vertex 3.420201436212283 -9.396926208740224 5
      vertex 3.420201436212283 -9.396926208740224 2.5
    endloop
  endfacet
  facet normal -0.21111155229173298 0.9774619749580926 0
    outer loop
      vertex 0.7628397470986421 -9.970861323928121 2.5
      vertex 0.7628397470986421 -9.970861323928121 5
      vertex 3.420201436212283 -9.396926208740224 5
    endloop
  endfacet
  facet normal 0.05995970672497678 0.9982007982212069 0
    outer loop
      vertex -1.950903218636329 -9.807852806360918 2.5
      vertex 0.7628397470986421 -9.970861323928121 5
      vertex 0.7628397470986421 -9.970861323928121 2.5
    endloop
  endfacet
  facet normal 0.05995970672497678 0.9982007982212069 0
    outer loop
      vertex -1.950903218636329 -9.807852806360918 2.5
      vertex -1.950903218636329 -9.807852806360918 5
      vertex 0.7628397470986421 -9.970861323928121 5
    endloop
  endfacet
  facet normal 0.32659936299108316 0.9451628727863884 0
    outer loop
      vertex -4.520455457303435 -8.91994856415667 2.5
      vertex -1.950903218636329 -9.807852806360918 5
      vertex -1.950903218636329 -9.807852806360918 2.5
    endloop
  endfacet
  facet normal 0.32659936299108316 0.9451628727863884 0
    outer loop
      vertex -4.520455457303435 -8.91994856415667 2.5
      vertex -4.520455457303435 -8.91994856415667 5
      vertex -1.950903218636329 -9.807852806360918 5
    endloop
  endfacet
  facet normal 0.5691001448665015 0.8222682196904652 0
    outer loop
      vertex -6.755902073702409 -7.372773369044676 2.5
      vertex -4.520455457303435 -8.91994856415667 5
      vertex -4.520455457303435 -8.91994856415667 2.5
    endloop
  endfacet
  facet normal 0.5691001448665015 0.8222682196904652 0
    outer loop
      vertex -6.755902073702409 -7.372773369044676 2.5
      vertex -6.755902073702409 -7.372773369044676 5
      vertex -4.520455457303435 -8.91994856415667 5
    endloop
  endfacet
  facet normal 0.7695388933115124 0.6385999465086829 0
    outer loop
      vertex -8.492021818281136 -5.280678507146322 2.5
      vertex -6.755902073702409 -7.372773369044676 5
      vertex -6.755902073702409 -7.372773369044676 2.5
    endloop
  endfacet
  facet normal 0.7695388933115124 0.6385999465086829 0
    outer loop
      vertex -8.492021818281136 -5.280678507146322 2.5
      vertex -8.492021818281136 -5.280678507146322 5
      vertex -6.755902073702409 -7.372773369044676 5
    endloop
  endfacet
  facet normal 0.9131012345271242 0.4077329217821905 0
    outer loop
      vertex -9.600498539654854 -2.7982901380471787 2.5
      vertex -8.492021818281136 -5.280678507146322 5
      vertex -8.492021818281136 -5.280678507146322 2.5
    endloop
  endfacet
  facet normal 0.9131012345271242 0.4077329217821905 0
    outer loop
      vertex -9.600498539654854 -2.7982901380471787 2.5
      vertex -9.600498539654854 -2.7982901380471787 5
      vertex -8.492021818281136 -5.280678507146322 5
    endloop
  endfacet
  facet normal 0.9891765097997215 0.14673047556810284 0
    outer loop
      vertex -9.999405048717604 -0.10908091383295782 2.5
      vertex -9.600498539654854 -2.7982901380471787 5
      vertex -9.600498539654854 -2.7982901380471787 2.5
    endloop
  endfacet
  facet normal 0.9891765097997215 0.14673047556810284 0
    outer loop
      vertex -9.999405048717604 -0.10908091383295782 2.5
      vertex -9.999405048717604 -0.10908091383295782 5
      vertex -9.600498539654854 -2.7982901380471787 5
    endloop
  endfacet
  facet normal 0.9921420211670935 -0.12511678478315652 0
    outer loop
      vertex -9.659258261913074 2.5881904485875546 2.5
      vertex -9.999405048717604 -0.10908091383295782 5
      vertex -9.999405048717604 -0.10908091383295782 2.5
    endloop
  endfacet
  facet normal 0.9921420211670935 -0.12511678478315652 0
    outer loop
      vertex -9.659258261913074 2.5881904485875546 2.5
      vertex -9.659258261913074 2.5881904485875546 5
      vertex -9.999405048717604 -0.10908091383295782 5
    endloop
  endfacet
  facet normal 0.92177858678199 -0.38771669676478626 0
    outer loop
      vertex -8.605198334983356 5.094169370661791 2.5
      vertex -9.659258261913074 2.5881904485875546 5
      vertex -9.659258261913074 2.5881904485875546 2.5
    endloop
  endfacet
  facet normal 0.92177858678199 -0.38771669676478626 0
    outer loop
      vertex -8.605198334983356 5.094169370661791 2.5
      vertex -8.605198334983356 5.094169370661791 5
      vertex -9.659258261913074 2.5881904485875546 5
    endloop
  endfacet
  facet normal 0.783286749860271 -0.621660572574241 0
    outer loop
      vertex -6.915130560210143 7.223639619778478 2.5
      vertex -8.605198334983356 5.094169370661791 5
      vertex -8.605198334983356 5.094169370661791 2.5
    endloop
  endfacet
  facet normal 0.783286749860271 -0.621660572574241 0
    outer loop
      vertex -6.915130560210143 7.223639619778478 2.5
      vertex -6.915130560210143 7.223639619778478 5
      vertex -8.605198334983356 5.094169370661791 5
    endloop
  endfacet
  facet normal 0.5869024017996681 -0.8096576873974464 0
    outer loop
      vertex -4.713967370475155 8.819212641460082 2.5
      vertex -6.915130560210143 7.223639619778478 5
      vertex -6.915130560210143 7.223639619778478 2.5
    endloop
  endfacet
  facet normal 0.5869024017996681 -0.8096576873974464 0
    outer loop
      vertex -4.713967370475155 8.819212641460082 2.5
      vertex -4.713967370475155 8.819212641460082 5
      vertex -6.915130560210143 7.223639619778478 5
    endloop
  endfacet
  facet normal 0.34714026009056315 -0.9378132222485756 0
    outer loop
      vertex -2.164396139526478 9.762960073500818 2.5
      vertex -4.713967370475155 8.819212641460082 5
      vertex -4.713967370475155 8.819212641460082 2.5
    endloop
  endfacet
  facet normal 0.34714026009056315 -0.9378132222485756 0
    outer loop
      vertex -2.164396139526478 9.762960073500818 2.5
      vertex -2.164396139526478 9.762960073500818 5
      vertex -4.713967370475155 8.819212641460082 5
    endloop
  endfacet
  facet normal 0.08172107397014007 -0.9966552393225889 0
    outer loop
      vertex 0.5451450133457594 9.98512979101468 2.5
      vertex -2.164396139526478 9.762960073500818 5
      vertex -2.164396139526478 9.762960073500818 2.5
    endloop
  endfacet
  facet normal 0.08172107397014007 -0.9966552393225889 0
    outer loop
      vertex 0.5451450133457594 9.98512979101468 2.5
      vertex 0.5451450133457594 9.98512979101468 5
      vertex -2.164396139526478 9.762960073500818 5
    endloop
  endfacet
  facet normal -0.18973809371550202 -0.981834739553051 0
    outer loop
      vertex 3.214394653055194 9.469301293726218 2.5
      vertex 0.5451450133457594 9.98512979101468 5
      vertex 0.5451450133457594 9.98512979101468 2.5
    endloop
  endfacet
  facet normal -0.18973809371550202 -0.981834739553051 0
    outer loop
      vertex 3.214394653055194 9.469301293726218 2.5
      vertex 3.214394653055194 9.469301293726218 5
      vertex 0.5451450133457594 9.98512979101468 5
    endloop
  endfacet
  facet normal -0.4471737702303643 -0.8944471025264497 0
    outer loop
      vertex 5.646069258124837 8.253599327616636 2.5
      vertex 3.214394653055194 9.469301293726218 5
      vertex 3.214394653055194 9.469301293726218 2.5
    endloop
  endfacet
  facet normal -0.4471737702303643 -0.8944471025264497 0
    outer loop
      vertex 5.646069258124837 8.253599327616636 2.5
      vertex 5.646069258124837 8.253599327616636 5
      vertex 3.214394653055194 9.469301293726218 5
    endloop
  endfacet
  facet normal -0.6715589536392526 -0.7409511264496143 0
    outer loop
      vertex 7.660444431540677 6.4278760978294684 2.5
      vertex 5.646069258124837 8.253599327616636 5
      vertex 5.646069258124837 8.253599327616636 2.5
    endloop
  endfacet
  facet normal -0.6715589536392526 -0.7409511264496143 0
    outer loop
      vertex 7.660444431540677 6.4278760978294684 2.5
      vertex 7.660444431540677 6.4278760978294684 5
      vertex 5.646069258124837 8.253599327616636 5
    endloop
  endfacet
  facet normal -0.9848077530211158 -0.17364817761641205 0
    outer loop
      vertex 9.396926207859083 -3.4202014332566875 2.5
      vertex 7.660444431540677 6.4278760978294684 5
      vertex 7.660444431540677 6.4278760978294684 2.5
    endloop
  endfacet
  facet normal -0.9848077530211158 -0.17364817761641205 0
    outer loop
      vertex 9.396926207859083 -3.4202014332566875 2.5
      vertex 9.396926207859083 -3.4202014332566875 5
      vertex 7.660444431540677 6.4278760978294684 5
    endloop
  endfacet
  facet normal -0.34202014332566893 -0.9396926207859083 0
    outer loop
      vertex 14.095389311788624 -5.130302149885032 2.5
      vertex 9.396926207859083 -3.4202014332566875 5
      vertex 9.396926207859083 -3.4202014332566875 2.5
    endloop
  endfacet
  facet normal -0.34202014332566893 -0.9396926207859083 0
    outer loop
      vertex 14.095389311788624 -5.130302149885032 2.5
      vertex 14.095389311788624 -5.130302149885032 5
      vertex 9.396926207859083 -3.4202014332566875 5
    endloop
  endfacet
  facet normal 0.9838460060421662 -0.17901686064412448 0
    outer loop
      vertex 14.999107571383872 -0.16362137416926092 2.5
      vertex 14.095389311788624 -5.130302149885032 5
      vertex 14.095389311788624 -5.130302149885032 2.5
    endloop
  endfacet
  facet normal 0.9838460060421662 -0.17901686064412448 0
    outer loop
      vertex 14.999107571383872 -0.16362137416926092 2.5
      vertex 14.999107571383872 -0.16362137416926092 5
      vertex 14.095389311788624 -5.130302149885032 5
    endloop
  endfacet
  facet normal 0.9875171095089826 0.1575117723442409 0
    outer loop
      vertex 14.20395193979788 4.821591979899753 2.5
      vertex 14.999107571383872 -0.16362137416926092 5
      vertex 14.999107571383872 -0.16362137416926092 2.5
    endloop
  endfacet
  facet normal 0.9875171095089826 0.1575117723442409 0
    outer loop
      vertex 14.20395193979788 4.821591979899753 2.5
      vertex 14.20395193979788 4.821591979899753 5
      vertex 14.999107571383872 -0.16362137416926092 5
    endloop
  endfacet
  facet normal 0.879337089156655 0.4761998358184313 0
    outer loop
      vertex 11.799985713739613 9.260687722173355 2.5
      vertex 14.20395193979788 4.821591979899753 5
      vertex 14.20395193979788 4.821591979899753 2.5
    endloop
  endfacet
  facet normal 0.879337089156655 0.4761998358184313 0
    outer loop
      vertex 11.799985713739613 9.260687722173355 2.5
      vertex 11.799985713739613 9.260687722173355 5
      vertex 14.20395193979788 4.821591979899753 5
    endloop
  endfacet
  facet normal 0.6715589550100292 0.7409511252072148 0
    outer loop
      vertex 8.059494121929994 12.650871688648838 2.5
      vertex 11.799985713739613 9.260687722173355 5
      vertex 11.799985713739613 9.260687722173355 2.5
    endloop
  endfacet
  facet normal 0.6715589550100292 0.7409511252072148 0
    outer loop
      vertex 8.059494121929994 12.650871688648838 2.5
      vertex 8.059494121929994 12.650871688648838 5
      vertex 11.799985713739613 9.260687722173355 5
    endloop
  endfacet
  facet normal 0.3877166970320045 0.9217785866695933 0
    outer loop
      vertex 3.406143944517485 14.608154692410315 2.5
      vertex 8.059494121929994 12.650871688648838 5
      vertex 8.059494121929994 12.650871688648838 2.5
    endloop
  endfacet
  facet normal 0.3877166970320045 0.9217785866695933 0
    outer loop
      vertex 3.406143944517485 14.608154692410315 2.5
      vertex 3.406143944517485 14.608154692410315 5
      vertex 8.059494121929994 12.650871688648838 5
    endloop
  endfacet
  facet normal 0.05995970656467395 0.998200798230836 0
    outer loop
      vertex -1.6330031243111023 14.91084507306189 2.5
      vertex 3.406143944517485 14.608154692410315 5
      vertex 3.406143944517485 14.608154692410315 2.5
    endloop
  endfacet
  facet normal 0.05995970656467395 0.998200798230836 0
    outer loop
      vertex -1.6330031243111023 14.91084507306189 2.5
      vertex -1.6330031243111023 14.91084507306189 5
      vertex 3.406143944517485 14.608154692410315 5
    endloop
  endfacet
  facet normal -0.2745886185137961 0.9615617975890498 0
    outer loop
      vertex -6.487188094978867 13.524658612193624 2.5
      vertex -1.6330031243111023 14.91084507306189 5
      vertex -1.6330031243111023 14.91084507306189 2.5
    endloop
  endfacet
  facet normal -0.2745886185137961 0.9615617975890498 0
    outer loop
      vertex -6.487188094978867 13.524658612193624 2.5
      vertex -6.487188094978867 13.524658612193624 5
      vertex -1.6330031243111023 14.91084507306189 5
    endloop
  endfacet
  facet normal -0.5780356633716945 0.8160115022905284 0
    outer loop
      vertex -10.606601718905992 10.60660172191056 2.5
      vertex -6.487188094978867 13.524658612193624 5
      vertex -6.487188094978867 13.524658612193624 2.5
    endloop
  endfacet
  facet normal -0.5780356633716945 0.8160115022905284 0
    outer loop
      vertex -10.606601718905992 10.60660172191056 2.5
      vertex -10.606601718905992 10.60660172191056 5
      vertex -6.487188094978867 13.524658612193624 5
    endloop
  endfacet
  facet normal -0.8160115023607417 0.5780356632725748 0
    outer loop
      vertex -13.524658612149423 6.487188092743456 2.5
      vertex -10.606601718905992 10.60660172191056 5
      vertex -10.606601718905992 10.60660172191056 2.5
    endloop
  endfacet
  facet normal -0.8160115023607417 0.5780356632725748 0
    outer loop
      vertex -13.524658612149423 6.487188092743456 2.5
      vertex -13.524658612149423 6.487188092743456 5
      vertex -10.606601718905992 10.60660172191056 5
    endloop
  endfacet
  facet normal -0.9615617974790566 0.27458861889897396 0
    outer loop
      vertex -14.910845075416434 1.63300312104016 2.5
      vertex -13.524658612149423 6.487188092743456 5
      vertex -13.524658612149423 6.487188092743456 2.5
    endloop
  endfacet
  facet normal -0.9615617974790566 0.27458861889897396 0
    outer loop
      vertex -14.910845075416434 1.63300312104016 2.5
      vertex -14.910845075416434 1.63300312104016 5
      vertex -13.524658612149423 6.487188092743456 5
    endloop
  endfacet
  facet normal -0.998200798147014 -0.05995970796013003 0
    outer loop
      vertex -14.608154687690536 -3.4061439478603566 2.5
      vertex -14.910845075416434 1.63300312104016 5
      vertex -14.910845075416434 1.63300312104016 2.5
    endloop
  endfacet
  facet normal -0.998200798147014 -0.05995970796013003 0
    outer loop
      vertex -14.608154687690536 -3.4061439478603566 2.5
      vertex -14.608154687690536 -3.4061439478603566 5
      vertex -14.910845075416434 1.63300312104016 5
    endloop
  endfacet
  facet normal -0.9217785869006391 -0.3877166964827037 0
    outer loop
      vertex -12.650871685363025 -8.059494129622722 2.5
      vertex -14.608154687690536 -3.4061439478603566 5
      vertex -14.608154687690536 -3.4061439478603566 2.5
    endloop
  endfacet
  facet normal -0.9217785869006391 -0.3877166964827037 0
    outer loop
      vertex -12.650871685363025 -8.059494129622722 2.5
      vertex -12.650871685363025 -8.059494129622722 5
      vertex -14.608154687690536 -3.4061439478603566 5
    endloop
  endfacet
  facet normal -0.7409511251612454 -0.6715589550607486 0
    outer loop
      vertex -9.260687725157656 -11.799985713999773 2.5
      vertex -12.650871685363025 -8.059494129622722 5
      vertex -12.650871685363025 -8.059494129622722 2.5
    endloop
  endfacet
  facet normal -0.7409511251612454 -0.6715589550607486 0
    outer loop
      vertex -9.260687725157656 -11.799985713999773 2.5
      vertex -9.260687725157656 -11.799985713999773 5
      vertex -12.650871685363025 -8.059494129622722 5
    endloop
  endfacet
  facet normal -0.47619983553076123 -0.8793370893124411 0
    outer loop
      vertex -4.821591976082162 -14.203951941863446 2.5
      vertex -9.260687725157656 -11.799985713999773 5
      vertex -9.260687725157656 -11.799985713999773 2.5
    endloop
  endfacet
  facet normal -0.47619983553076123 -0.8793370893124411 0
    outer loop
      vertex -4.821591976082162 -14.203951941863446 2.5
      vertex -4.821591976082162 -14.203951941863446 5
      vertex -9.260687725157656 -11.799985713999773 5
    endloop
  endfacet
  facet normal -0.1575117733489369 -0.9875171093487309 0
    outer loop
      vertex 0.1636213729759426 -14.999107577851156 2.5
      vertex -4.821591976082162 -14.203951941863446 5
      vertex -4.821591976082162 -14.203951941863446 2.5
    endloop
  endfacet
  facet normal -0.1575117733489369 -0.9875171093487309 0
    outer loop
      vertex 0.1636213729759426 -14.999107577851156 2.5
      vertex 0.1636213729759426 -14.999107577851156 5
      vertex -4.821591976082162 -14.203951941863446 5
    endloop
  endfacet
  facet normal 0 0 -1
    outer loop
      vertex 14.999107571383872 -0.16362137416926092 -5
      vertex 14.095389311788624 -5.130302149885032 -5
      vertex 9.396926207859083 -3.4202014332566875 -5
    endloop
  endfacet
  facet normal 0 0 -1
    outer loop
      vertex 0.7628397470986421 -9.970861323928121 -5
      vertex 3.420201436212283 -9.396926208740224 -5
      vertex 5.130302146043046 -14.095389314062716 -5
    endloop
  endfacet
  facet normal 0 0 -1
    outer loop
      vertex 0.7628397470986421 -9.970861323928121 -5
      vertex 5.130302146043046 -14.095389314062716 -5
      vertex 0.1636213729759426 -14.999107577851156 -5
    endloop
  endfacet
  facet normal 0 0 -1
    outer loop
      vertex -1.950903218636329 -9.807852806360918 -5
      vertex 0.7628397470986421 -9.970861323928121 -5
      vertex 0.1636213729759426 -14.999107577851156 -5
    endloop
  endfacet
  facet normal 0 0 -1
    outer loop
      vertex -1.950903218636329 -9.807852806360918 -5
      vertex 0.1636213729759426 -14.999107577851156 -5
      vertex -4.821591976082162 -14.203951941863446 -5
    endloop
  endfacet
  facet normal 0 0 -1
    outer loop
      vertex -4.520455457303435 -8.91994856415667 -5
      vertex -1.950903218636329 -9.807852806360918 -5
      vertex -4.821591976082162 -14.203951941863446 -5
    endloop
  endfacet
  facet normal 0 0 -1
    outer loop
      vertex -4.520455457303435 -8.91994856415667 -5
      vertex -4.821591976082162 -14.203951941863446 -5
      vertex -9.260687725157656 -11.799985713999773 -5
    endloop
  endfacet
  facet normal 0 0 -1
    outer loop
      vertex -6.755902073702409 -7.372773369044676 -5
      vertex -4.520455457303435 -8.91994856415667 -5
      vertex -9.260687725157656 -11.799985713999773 -5
    endloop
  endfacet
  facet normal 0 0 -1
    outer loop
      vertex -6.755902073702409 -7.372773369044676 -5
      vertex -9.260687725157656 -11.799985713999773 -5
      vertex -12.650871685363025 -8.059494129622722 -5
    endloop
  endfacet
  facet normal 0 0 -1
    outer loop
      vertex -8.492021818281136 -5.280678507146322 -5
      vertex -6.755902073702409 -7.372773369044676 -5
      vertex -12.650871685363025 -8.059494129622722 -5
    endloop
  endfacet
  facet normal 0 0 -1
    outer loop
      vertex -9.600498539654854 -2.7982901380471787 -5
      vertex -8.492021818281136 -5.280678507146322 -5
      vertex -12.650871685363025 -8.059494129622722 -5
    endloop
  endfacet
  facet normal 0 0 -1
    outer loop
      vertex -9.600498539654854 -2.7982901380471787 -5
      vertex -12.650871685363025 -8.059494129622722 -5
      vertex -14.608154687690536 -3.4061439478603566 -5
    endloop
  endfacet
  facet normal 0 0 -1
    outer loop
      vertex -9.999405048717604 -0.10908091383295782 -5
      vertex -9.600498539654854 -2.7982901380471787 -5
      vertex -14.608154687690536 -3.4061439478603566 -5
    endloop
  endfacet
  facet normal 0 0 -1
    outer loop
      vertex -9.999405048717604 -0.10908091383295782 -5
      vertex -14.608154687690536 -3.4061439478603566 -5
      vertex -14.910845075416434 1.63300312104016 -5
    endloop
  endfacet
  facet normal 0 0 -1
    outer loop
      vertex -9.659258261913074 2.5881904485875546 -5
      vertex -9.999405048717604 -0.10908091383295782 -5
      vertex -14.910845075416434 1.63300312104016 -5
    endloop
  endfacet
  facet normal 0 0 -1
    outer loop
      vertex -9.659258261913074 2.5881904485875546 -5
      vertex -14.910845075416434 1.63300312104016 -5
      vertex -13.524658612149423 6.487188092743456 -5
    endloop
  endfacet
  facet normal 0 0 -1
    outer loop
      vertex -8.605198334983356 5.094169370661791 -5
      vertex -9.659258261913074 2.5881904485875546 -5
      vertex -13.524658612149423 6.487188092743456 -5
    endloop
  endfacet
  facet normal 0 0 -1
    outer loop
      vertex -8.605198334983356 5.094169370661791 -5
      vertex -13.524658612149423 6.487188092743456 -5
      vertex -10.606601718905992 10.60660172191056 -5
    endloop
  endfacet
  facet normal 0 0 -1
    outer loop
      vertex -6.915130560210143 7.223639619778478 -5
      vertex -8.605198334983356 5.094169370661791 -5
      vertex -10.606601718905992 10.60660172191056 -5
    endloop
  endfacet
  facet normal 0 0 -1
    outer loop
      vertex -4.713967370475155 8.819212641460082 -5
      vertex -6.915130560210143 7.223639619778478 -5
      vertex -10.606601718905992 10.60660172191056 -5
    endloop
  endfacet
  facet normal 0 0 -1
    outer loop
      vertex -4.713967370475155 8.819212641460082 -5
      vertex -10.606601718905992 10.60660172191056 -5
      vertex -6.487188094978867 13.524658612193624 -5
    endloop
  endfacet
  facet normal 0 0 -1
    outer loop
      vertex -2.164396139526478 9.762960073500818 -5
      vertex -4.713967370475155 8.819212641460082 -5
      vertex -6.487188094978867 13.524658612193624 -5
    endloop
  endfacet
  facet normal 0 0 -1
    outer loop
      vertex -2.164396139526478 9.762960073500818 -5
      vertex -6.487188094978867 13.524658612193624 -5
      vertex -1.6330031243111023 14.91084507306189 -5
    endloop
  endfacet
  facet normal 0 0 -1
    outer loop
      vertex 0.5451450133457594 9.98512979101468 -5
      vertex -2.164396139526478 9.762960073500818 -5
      vertex -1.6330031243111023 14.91084507306189 -5
    endloop
  endfacet
  facet normal 0 0 -1
    outer loop
      vertex 0.5451450133457594 9.98512979101468 -5
      vertex -1.6330031243111023 14.91084507306189 -5
      vertex 3.406143944517485 14.608154692410315 -5
    endloop
  endfacet
  facet normal 0 0 -1
    outer loop
      vertex 3.214394653055194 9.469301293726218 -5
      vertex 0.5451450133457594 9.98512979101468 -5
      vertex 3.406143944517485 14.608154692410315 -5
    endloop
  endfacet
  facet normal 0 0 -1
    outer loop
      vertex 3.214394653055194 9.469301293726218 -5
      vertex 3.406143944517485 14.608154692410315 -5
      vertex 8.059494121929994 12.650871688648838 -5
    endloop
  endfacet
  facet normal 0 0 -1
    outer loop
      vertex 5.646069258124837 8.253599327616636 -5
      vertex 3.214394653055194 9.469301293726218 -5
      vertex 8.059494121929994 12.650871688648838 -5
    endloop
  endfacet
  facet normal 0 0 -1
    outer loop
      vertex 7.660444431540677 6.4278760978294684 -5
      vertex 5.646069258124837 8.253599327616636 -5
      vertex 8.059494121929994 12.650871688648838 -5
    endloop
  endfacet
  facet normal 0 0 -1
    outer loop
      vertex 7.660444431540677 6.4278760978294684 -5
      vertex 8.059494121929994 12.650871688648838 -5
      vertex 11.799985713739613 9.260687722173355 -5
    endloop
  endfacet
  facet normal 0 0 -1
    outer loop
      vertex 7.660444431540677 6.4278760978294684 -5
      vertex 11.799985713739613 9.260687722173355 -5
      vertex 14.20395193979788 4.821591979899753 -5
    endloop
  endfacet
  facet normal 0 0 -1
    outer loop
      vertex 14.20395193979788 4.821591979899753 -5
      vertex 14.999107571383872 -0.16362137416926092 -5
      vertex 9.396926207859083 -3.4202014332566875 -5
    endloop
  endfacet
  facet normal 0 0 -1
    outer loop
      vertex 14.20395193979788 4.821591979899753 -5
      vertex 9.396926207859083 -3.4202014332566875 -5
      vertex 7.660444431540677 6.4278760978294684 -5
    endloop
  endfacet
  facet normal 0 0 1
    outer loop
      vertex 9.396926207859083 -3.4202014332566875 5
      vertex 14.095389311788624 -5.130302149885032 5
      vertex 14.999107571383872 -0.16362137416926092 5
    endloop
  endfacet
  facet normal 0 0 1
    outer loop
      vertex 5.130302146043046 -14.095389314062716 5
      vertex 3.420201436212283 -9.396926208740224 5
      vertex 0.7628397470986421 -9.970861323928121 5
    endloop
  endfacet
  facet normal 0 0 1
    outer loop
      vertex 0.1636213729759426 -14.999107577851156 5
      vertex 5.130302146043046 -14.095389314062716 5
      vertex 0.7628397470986421 -9.970861323928121 5
    endloop
  endfacet
  facet normal 0 0 1
    outer loop
      vertex 0.1636213729759426 -14.999107577851156 5
      vertex 0.7628397470986421 -9.970861323928121 5
      vertex -1.950903218636329 -9.807852806360918 5
    endloop
  endfacet
  facet normal 0 0 1
    outer loop
      vertex -4.821591976082162 -14.203951941863446 5
      vertex 0.1636213729759426 -14.999107577851156 5
      vertex -1.950903218636329 -9.807852806360918 5
    endloop
  endfacet
  facet normal 0 0 1
    outer loop
      vertex -4.821591976082162 -14.203951941863446 5
      vertex -1.950903218636329 -9.807852806360918 5
      vertex -4.520455457303435 -8.91994856415667 5
    endloop
  endfacet
  facet normal 0 0 1
    outer loop
      vertex -9.260687725157656 -11.799985713999773 5
      vertex -4.821591976082162 -14.203951941863446 5
      vertex -4.520455457303435 -8.91994856415667 5
    endloop
  endfacet
  facet normal 0 0 1
    outer loop
      vertex -9.260687725157656 -11.799985713999773 5
      vertex -4.520455457303435 -8.91994856415667 5
      vertex -6.755902073702409 -7.372773369044676 5
    endloop
  endfacet
  facet normal 0 0 1
    outer loop
      vertex -12.650871685363025 -8.059494129622722 5
      vertex -9.260687725157656 -11.799985713999773 5
      vertex -6.755902073702409 -7.372773369044676 5
    endloop
  endfacet
  facet normal 0 0 1
    outer loop
      vertex -12.650871685363025 -8.059494129622722 5
      vertex -6.755902073702409 -7.372773369044676 5
      vertex -8.492021818281136 -5.280678507146322 5
    endloop
  endfacet
  facet normal 0 0 1
    outer loop
      vertex -12.650871685363025 -8.059494129622722 5
      vertex -8.492021818281136 -5.280678507146322 5
      vertex -9.600498539654854 -2.7982901380471787 5
    endloop
  endfacet
  facet normal 0 0 1
    outer loop
      vertex -14.608154687690536 -3.4061439478603566 5
      vertex -12.650871685363025 -8.059494129622722 5
      vertex -9.600498539654854 -2.7982901380471787 5
    endloop
  endfacet
  facet normal 0 0 1
    outer loop
      vertex -14.608154687690536 -3.4061439478603566 5
      vertex -9.600498539654854 -2.7982901380471787 5
      vertex -9.999405048717604 -0.10908091383295782 5
    endloop
  endfacet
  facet normal 0 0 1
    outer loop
      vertex -14.910845075416434 1.63300312104016 5
      vertex -14.608154687690536 -3.4061439478603566 5
      vertex -9.999405048717604 -0.10908091383295782 5
    endloop
  endfacet
  facet normal 0 0 1
    outer loop
      vertex -14.910845075416434 1.63300312104016 5
      vertex -9.999405048717604 -0.10908091383295782 5
      vertex -9.659258261913074 2.5881904485875546 5
    endloop
  endfacet
  facet normal 0 0 1
    outer loop
      vertex -13.524658612149423 6.487188092743456 5
      vertex -14.910845075416434 1.63300312104016 5
      vertex -9.659258261913074 2.5881904485875546 5
    endloop
  endfacet
  facet normal 0 0 1
    outer loop
      vertex -13.524658612149423 6.487188092743456 5
      vertex -9.659258261913074 2.5881904485875546 5
      vertex -8.605198334983356 5.094169370661791 5
    endloop
  endfacet
  facet normal 0 0 1
    outer loop
      vertex -10.606601718905992 10.60660172191056 5
      vertex -13.524658612149423 6.487188092743456 5
      vertex -8.605198334983356 5.094169370661791 5
    endloop
  endfacet
  facet normal 0 0 1
    outer loop
      vertex -10.606601718905992 10.60660172191056 5
      vertex -8.605198334983356 5.094169370661791 5
      vertex -6.915130560210143 7.223639619778478 5
    endloop
  endfacet
  facet normal 0 0 1
    outer loop
      vertex -10.606601718905992 10.60660172191056 5
      vertex -6.915130560210143 7.223639619778478 5
      vertex -4.713967370475155 8.819212641460082 5
    endloop
  endfacet
  facet normal 0 0 1
    outer loop
      vertex -6.487188094978867 13.524658612193624 5
      vertex -10.606601718905992 10.60660172191056 5
      vertex -4.713967370475155 8.819212641460082 5
    endloop
  endfacet
  facet normal 0 0 1
    outer loop
      vertex -6.487188094978867 13.524658612193624 5
      vertex -4.713967370475155 8.819212641460082 5
      vertex -2.164396139526478 9.762960073500818 5
    endloop
  endfacet
  facet normal 0 0 1
    outer loop
      vertex -1.6330031243111023 14.91084507306189 5
      vertex -6.487188094978867 13.524658612193624 5
      vertex -2.164396139526478 9.762960073500818 5
    endloop
  endfacet
  facet normal 0 0 1
    outer loop
      vertex -1.6330031243111023 14.91084507306189 5
      vertex -2.164396139526478 9.762960073500818 5
      vertex 0.5451450133457594 9.98512979101468 5
    endloop
  endfacet
  facet normal 0 0 1
    outer loop
      vertex 3.406143944517485 14.608154692410315 5
      vertex -1.6330031243111023 14.91084507306189 5
      vertex 0.5451450133457594 9.98512979101468 5
    endloop
  endfacet
  facet normal 0 0 1
    outer loop
      vertex 3.406143944517485 14.608154692410315 5
      vertex 0.5451450133457594 9.98512979101468 5
      vertex 3.214394653055194 9.469301293726218 5
    endloop
  endfacet
  facet normal 0 0 1
    outer loop
      vertex 8.059494121929994 12.650871688648838 5
      vertex 3.406143944517485 14.608154692410315 5
      vertex 3.214394653055194 9.469301293726218 5
    endloop
  endfacet
  facet normal 0 0 1
    outer loop
      vertex 8.059494121929994 12.650871688648838 5
      vertex 3.214394653055194 9.469301293726218 5
      vertex 5.646069258124837 8.253599327616636 5
    endloop
  endfacet
  facet normal 0 0 1
    outer loop
      vertex 8.059494121929994 12.650871688648838 5
      vertex 5.646069258124837 8.253599327616636 5
      vertex 7.660444431540677 6.4278760978294684 5
    endloop
  endfacet
  facet normal 0 0 1
    outer loop
      vertex 11.799985713739613 9.260687722173355 5
      vertex 8.059494121929994 12.650871688648838 5
      vertex 7.660444431540677 6.4278760978294684 5
    endloop
  endfacet
  facet normal 0 0 1
    outer loop
      vertex 14.20395193979788 4.821591979899753 5
      vertex 11.799985713739613 9.260687722173355 5
      vertex 7.660444431540677 6.4278760978294684 5
    endloop
  endfacet
  facet normal 0 0 1
    outer loop
      vertex 9.396926207859083 -3.4202014332566875 5
      vertex 14.999107571383872 -0.16362137416926092 5
      vertex 14.20395193979788 4.821591979899753 5
    endloop
  endfacet
  facet normal 0 0 1
    outer loop
      vertex 7.660444431540677 6.4278760978294684 5
      vertex 9.396926207859083 -3.4202014332566875 5
      vertex 14.20395193979788 4.821591979899753 5
    endloop
  endfacet
endsolid OpenSCAD_Model
