solid OpenSCAD_Model
  facet normal 0.1794364800524414 -0.9837695612420573 0
    outer loop
      vertex -3.5249052196741104 0.008637987077236176 0
      vertex -3.5603809282183647 0.00216732919216156 0.175
      vertex -3.5603809282183647 0.00216732919216156 0
    endloop
  endfacet
  facet normal 0.1794364800524414 -0.9837695612420573 0
    outer loop
      vertex -3.5249052196741104 0.008637987077236176 0
      vertex -3.5249052196741104 0.008637987077236176 0.175
      vertex -3.5603809282183647 0.00216732919216156 0.175
    endloop
  endfacet
  facet normal 0.29617885261633425 -0.9551324972289822 0
    outer loop
      vertex -3.490462191402912 0.019318491220474243 0
      vertex -3.5249052196741104 0.008637987077236176 0.175
      vertex -3.5249052196741104 0.008637987077236176 0
    endloop
  endfacet
  facet normal 0.29617885261633425 -0.9551324972289822 0
    outer loop
      vertex -3.490462191402912 0.019318491220474243 0
      vertex -3.490462191402912 0.019318491220474243 0.175
      vertex -3.5249052196741104 0.008637987077236176 0.175
    endloop
  endfacet
  facet normal 0.40864162166177787 -0.9126949244110173 0
    outer loop
      vertex -3.457549497485161 0.03405451774597168 0
      vertex -3.490462191402912 0.019318491220474243 0.175
      vertex -3.490462191402912 0.019318491220474243 0
    endloop
  endfacet
  facet normal 0.40864162166177787 -0.9126949244110173 0
    outer loop
      vertex -3.457549497485161 0.03405451774597168 0
      vertex -3.457549497485161 0.03405451774597168 0.175
      vertex -3.490462191402912 0.019318491220474243 0.175
    endloop
  endfacet
  facet normal 0.5152001842544823 -0.8570698747150942 0
    outer loop
      vertex -3.4266427010297775 0.05263315141201019 0
      vertex -3.457549497485161 0.03405451774597168 0.175
      vertex -3.457549497485161 0.03405451774597168 0
    endloop
  endfacet
  facet normal 0.5152001842544823 -0.8570698747150942 0
    outer loop
      vertex -3.4266427010297775 0.05263315141201019 0
      vertex -3.4266427010297775 0.05263315141201019 0.175
      vertex -3.457549497485161 0.03405451774597168 0.175
    endloop
  endfacet
  facet normal 0.6143145890582205 -0.7890612052751229 0
    outer loop
      vertex -3.398188367486 0.07478594779968262 0
      vertex -3.4266427010297775 0.05263315141201019 0.175
      vertex -3.4266427010297775 0.05263315141201019 0
    endloop
  endfacet
  facet normal 0.6143145890582205 -0.7890612052751229 0
    outer loop
      vertex -3.398188367486 0.07478594779968262 0
      vertex -3.398188367486 0.07478594779968262 0.175
      vertex -3.4266427010297775 0.05263315141201019 0.175
    endloop
  endfacet
  facet normal 0.6606278928746211 -0.7507135186980705 0
    outer loop
      vertex -2.148188367486 1.1747859418392181 0
      vertex -3.398188367486 0.07478594779968262 0.175
      vertex -3.398188367486 0.07478594779968262 0
    endloop
  endfacet
  facet normal 0.6606278928746211 -0.7507135186980705 0
    outer loop
      vertex -2.148188367486 1.1747859418392181 0
      vertex -2.148188367486 1.1747859418392181 0.175
      vertex -3.398188367486 0.07478594779968262 0.175
    endloop
  endfacet
  facet normal -0.6606278928746211 -0.7507135186980705 0
    outer loop
      vertex -0.8981883674860001 0.07478594779968262 0
      vertex -2.148188367486 1.1747859418392181 0.175
      vertex -2.148188367486 1.1747859418392181 0
    endloop
  endfacet
  facet normal -0.6606278928746211 -0.7507135186980705 0
    outer loop
      vertex -0.8981883674860001 0.07478594779968262 0
      vertex -0.8981883674860001 0.07478594779968262 0.175
      vertex -2.148188367486 1.1747859418392181 0.175
    endloop
  endfacet
  facet normal -0.6143145890582205 -0.7890612052751229 0
    outer loop
      vertex -0.8697340339422226 0.05263315141201019 0
      vertex -0.8981883674860001 0.07478594779968262 0.175
      vertex -0.8981883674860001 0.07478594779968262 0
    endloop
  endfacet
  facet normal -0.6143145890582205 -0.7890612052751229 0
    outer loop
      vertex -0.8697340339422226 0.05263315141201019 0
      vertex -0.8697340339422226 0.05263315141201019 0.175
      vertex -0.8981883674860001 0.07478594779968262 0.175
    endloop
  endfacet
  facet normal -0.5152001842544823 -0.8570698747150942 0
    outer loop
      vertex -0.8388272374868393 0.03405451774597168 0
      vertex -0.8697340339422226 0.05263315141201019 0.175
      vertex -0.8697340339422226 0.05263315141201019 0
    endloop
  endfacet
  facet normal -0.5152001842544823 -0.8570698747150942 0
    outer loop
      vertex -0.8388272374868393 0.03405451774597168 0
      vertex -0.8388272374868393 0.03405451774597168 0.175
      vertex -0.8697340339422226 0.05263315141201019 0.175
    endloop
  endfacet
  facet normal -0.4086416987202918 -0.9126948899095438 0
    outer loop
      vertex -0.8059145510196686 0.019318491220474243 0
      vertex -0.8388272374868393 0.03405451774597168 0.175
      vertex -0.8388272374868393 0.03405451774597168 0
    endloop
  endfacet
  facet normal -0.4086416987202918 -0.9126948899095438 0
    outer loop
      vertex -0.8059145510196686 0.019318491220474243 0
      vertex -0.8059145510196686 0.019318491220474243 0.175
      vertex -0.8388272374868393 0.03405451774597168 0.175
    endloop
  endfacet
  facet normal -0.29617879416828824 -0.9551325153532461 0
    outer loop
      vertex -0.7714715152978897 0.008637987077236176 0
      vertex -0.8059145510196686 0.019318491220474243 0.175
      vertex -0.8059145510196686 0.019318491220474243 0
    endloop
  endfacet
  facet normal -0.29617879416828824 -0.9551325153532461 0
    outer loop
      vertex -0.7714715152978897 0.008637987077236176 0
      vertex -0.7714715152978897 0.008637987077236176 0.175
      vertex -0.8059145510196686 0.019318491220474243 0.175
    endloop
  endfacet
  facet normal -0.1794364800524414 -0.9837695612420573 0
    outer loop
      vertex -0.7359958067536354 0.00216732919216156 0
      vertex -0.7714715152978897 0.008637987077236176 0.175
      vertex -0.7714715152978897 0.008637987077236176 0
    endloop
  endfacet
  facet normal -0.1794364800524414 -0.9837695612420573 0
    outer loop
      vertex -0.7359958067536354 0.00216732919216156 0
      vertex -0.7359958067536354 0.00216732919216156 0.175
      vertex -0.7714715152978897 0.008637987077236176 0.175
    endloop
  endfacet
  facet normal -0.06010176151692493 -0.9981922551605792 0
    outer loop
      vertex -0.7000000029802322 0 0
      vertex -0.7359958067536354 0.00216732919216156 0.175
      vertex -0.7359958067536354 0.00216732919216156 0
    endloop
  endfacet
  facet normal -0.06010176151692493 -0.9981922551605792 0
    outer loop
      vertex -0.7000000029802322 0 0
      vertex -0.7000000029802322 0 0.175
      vertex -0.7359958067536354 0.00216732919216156 0.175
    endloop
  endfacet
  facet normal 0 -1 0
    outer loop
      vertex 1.2999999970197678 0 0
      vertex -0.7000000029802322 0 0.175
      vertex -0.7000000029802322 0 0
    endloop
  endfacet
  facet normal 0 -1 0
    outer loop
      vertex 1.2999999970197678 0 0
      vertex 1.2999999970197678 0 0.175
      vertex -0.7000000029802322 0 0.175
    endloop
  endfacet
  facet normal 1 0 0
    outer loop
      vertex 1.2999999970197678 0.29999999701976776 0
      vertex 1.2999999970197678 0 0.175
      vertex 1.2999999970197678 0 0
    endloop
  endfacet
  facet normal 1 0 0
    outer loop
      vertex 1.2999999970197678 0.29999999701976776 0
      vertex 1.2999999970197678 0.29999999701976776 0.175
      vertex 1.2999999970197678 0 0.175
    endloop
  endfacet
  facet normal 0 1 0
    outer loop
      vertex -0.7000000029802322 0.29999999701976776 0
      vertex 1.2999999970197678 0.29999999701976776 0.175
      vertex 1.2999999970197678 0.29999999701976776 0
    endloop
  endfacet
  facet normal 0 1 0
    outer loop
      vertex -0.7000000029802322 0.29999999701976776 0
      vertex -0.7000000029802322 0.29999999701976776 0.175
      vertex 1.2999999970197678 0.29999999701976776 0.175
    endloop
  endfacet
  facet normal 0.6606278953963756 0.7507135164789266 0
    outer loop
      vertex -1.9500000029802322 1.3999999985098839 0
      vertex -0.7000000029802322 0.29999999701976776 0.175
      vertex -0.7000000029802322 0.29999999701976776 0
    endloop
  endfacet
  facet normal 0.6606278953963756 0.7507135164789266 0
    outer loop
      vertex -1.9500000029802322 1.3999999985098839 0
      vertex -1.9500000029802322 1.3999999985098839 0.175
      vertex -0.7000000029802322 0.29999999701976776 0.175
    endloop
  endfacet
  facet normal 0.565780097445122 0.8245561723345403 0
    outer loop
      vertex -2.009361132979393 1.4407314211130142 0
      vertex -1.9500000029802322 1.3999999985098839 0.175
      vertex -1.9500000029802322 1.3999999985098839 0
    endloop
  endfacet
  facet normal 0.565780097445122 0.8245561723345403 0
    outer loop
      vertex -2.009361132979393 1.4407314211130142 0
      vertex -2.009361132979393 1.4407314211130142 0.175
      vertex -1.9500000029802322 1.3999999985098839 0.175
    endloop
  endfacet
  facet normal 0.3530485863467774 0.9356049891265769 0
    outer loop
      vertex -2.076716847717762 1.4661479592323303 0
      vertex -2.009361132979393 1.4407314211130142 0.175
      vertex -2.009361132979393 1.4407314211130142 0
    endloop
  endfacet
  facet normal 0.3530485863467774 0.9356049891265769 0
    outer loop
      vertex -2.076716847717762 1.4661479592323303 0
      vertex -2.076716847717762 1.4661479592323303 0.175
      vertex -2.009361132979393 1.4407314211130142 0.175
    endloop
  endfacet
  facet normal 0.11998601230925217 0.9927755823196519 0
    outer loop
      vertex -2.148188367486 1.4747859463095665 0
      vertex -2.076716847717762 1.4661479592323303 0.175
      vertex -2.076716847717762 1.4661479592323303 0
    endloop
  endfacet
  facet normal 0.11998601230925217 0.9927755823196519 0
    outer loop
      vertex -2.148188367486 1.4747859463095665 0
      vertex -2.148188367486 1.4747859463095665 0.175
      vertex -2.076716847717762 1.4661479592323303 0.175
    endloop
  endfacet
  facet normal -0.11998601230925217 0.9927755823196519 0
    outer loop
      vertex -2.219659887254238 1.4661479592323303 0
      vertex -2.148188367486 1.4747859463095665 0.175
      vertex -2.148188367486 1.4747859463095665 0
    endloop
  endfacet
  facet normal -0.11998601230925217 0.9927755823196519 0
    outer loop
      vertex -2.219659887254238 1.4661479592323303 0
      vertex -2.219659887254238 1.4661479592323303 0.175
      vertex -2.148188367486 1.4747859463095665 0.175
    endloop
  endfacet
  facet normal -0.3530485863467774 0.9356049891265769 0
    outer loop
      vertex -2.287015601992607 1.4407314211130142 0
      vertex -2.219659887254238 1.4661479592323303 0.175
      vertex -2.219659887254238 1.4661479592323303 0
    endloop
  endfacet
  facet normal -0.3530485863467774 0.9356049891265769 0
    outer loop
      vertex -2.287015601992607 1.4407314211130142 0
      vertex -2.287015601992607 1.4407314211130142 0.175
      vertex -2.219659887254238 1.4661479592323303 0.175
    endloop
  endfacet
  facet normal -0.5657800491641406 0.8245562054631708 0
    outer loop
      vertex -2.3463767394423485 1.3999999985098839 0
      vertex -2.287015601992607 1.4407314211130142 0.175
      vertex -2.287015601992607 1.4407314211130142 0
    endloop
  endfacet
  facet normal -0.5657800491641406 0.8245562054631708 0
    outer loop
      vertex -2.3463767394423485 1.3999999985098839 0
      vertex -2.3463767394423485 1.3999999985098839 0.175
      vertex -2.287015601992607 1.4407314211130142 0.175
    endloop
  endfacet
  facet normal -0.6606278953963756 0.7507135164789266 0
    outer loop
      vertex -3.5963767394423485 0.29999999701976776 0
      vertex -2.3463767394423485 1.3999999985098839 0.175
      vertex -2.3463767394423485 1.3999999985098839 0
    endloop
  endfacet
  facet normal -0.6606278953963756 0.7507135164789266 0
    outer loop
      vertex -3.5963767394423485 0.29999999701976776 0
      vertex -3.5963767394423485 0.29999999701976776 0.175
      vertex -2.3463767394423485 1.3999999985098839 0.175
    endloop
  endfacet
  facet normal 0 1 0
    outer loop
      vertex -4.0963767394423485 0.29999999701976776 0
      vertex -3.5963767394423485 0.29999999701976776 0.175
      vertex -3.5963767394423485 0.29999999701976776 0
    endloop
  endfacet
  facet normal 0 1 0
    outer loop
      vertex -4.0963767394423485 0.29999999701976776 0
      vertex -4.0963767394423485 0.29999999701976776 0.175
      vertex -3.5963767394423485 0.29999999701976776 0.175
    endloop
  endfacet
  facet normal -1 0 0
    outer loop
      vertex -4.0963767394423485 0 0
      vertex -4.0963767394423485 0.29999999701976776 0.175
      vertex -4.0963767394423485 0.29999999701976776 0
    endloop
  endfacet
  facet normal -1 0 0
    outer loop
      vertex -4.0963767394423485 0 0
      vertex -4.0963767394423485 0 0.175
      vertex -4.0963767394423485 0.29999999701976776 0.175
    endloop
  endfacet
  facet normal 0 -1 0
    outer loop
      vertex -3.5963767394423485 0 0
      vertex -4.0963767394423485 0 0.175
      vertex -4.0963767394423485 0 0
    endloop
  endfacet
  facet normal 0 -1 0
    outer loop
      vertex -3.5963767394423485 0 0
      vertex -3.5963767394423485 0 0.175
      vertex -4.0963767394423485 0 0.175
    endloop
  endfacet
  facet normal 0.060101749121719054 -0.9981922559069019 0
    outer loop
      vertex -3.5603809282183647 0.00216732919216156 0
      vertex -3.5963767394423485 0 0.175
      vertex -3.5963767394423485 0 0
    endloop
  endfacet
  facet normal 0.060101749121719054 -0.9981922559069019 0
    outer loop
      vertex -3.5603809282183647 0.00216732919216156 0
      vertex -3.5603809282183647 0.00216732919216156 0.175
      vertex -3.5963767394423485 0 0.175
    endloop
  endfacet
  facet normal 0.1794364800524414 -0.9837695612420573 0
    outer loop
      vertex -3.5249052196741104 0.008637987077236176 0.175
      vertex -3.5603809282183647 0.00216732919216156 0.35
      vertex -3.5603809282183647 0.00216732919216156 0.175
    endloop
  endfacet
  facet normal 0.1794364800524414 -0.9837695612420573 0
    outer loop
      vertex -3.5249052196741104 0.008637987077236176 0.175
      vertex -3.5249052196741104 0.008637987077236176 0.35
      vertex -3.5603809282183647 0.00216732919216156 0.35
    endloop
  endfacet
  facet normal 0.29617885261633425 -0.9551324972289822 0
    outer loop
      vertex -3.490462191402912 0.019318491220474243 0.175
      vertex -3.5249052196741104 0.008637987077236176 0.35
      vertex -3.5249052196741104 0.008637987077236176 0.175
    endloop
  endfacet
  facet normal 0.29617885261633425 -0.9551324972289822 0
    outer loop
      vertex -3.490462191402912 0.019318491220474243 0.175
      vertex -3.490462191402912 0.019318491220474243 0.35
      vertex -3.5249052196741104 0.008637987077236176 0.35
    endloop
  endfacet
  facet normal 0.40864162166177787 -0.9126949244110173 0
    outer loop
      vertex -3.457549497485161 0.03405451774597168 0.175
      vertex -3.490462191402912 0.019318491220474243 0.35
      vertex -3.490462191402912 0.019318491220474243 0.175
    endloop
  endfacet
  facet normal 0.40864162166177787 -0.9126949244110173 0
    outer loop
      vertex -3.457549497485161 0.03405451774597168 0.175
      vertex -3.457549497485161 0.03405451774597168 0.35
      vertex -3.490462191402912 0.019318491220474243 0.35
    endloop
  endfacet
  facet normal 0.5152001842544823 -0.8570698747150942 0
    outer loop
      vertex -3.4266427010297775 0.05263315141201019 0.175
      vertex -3.457549497485161 0.03405451774597168 0.35
      vertex -3.457549497485161 0.03405451774597168 0.175
    endloop
  endfacet
  facet normal 0.5152001842544823 -0.8570698747150942 0
    outer loop
      vertex -3.4266427010297775 0.05263315141201019 0.175
      vertex -3.4266427010297775 0.05263315141201019 0.35
      vertex -3.457549497485161 0.03405451774597168 0.35
    endloop
  endfacet
  facet normal 0.6143145890582205 -0.7890612052751229 0
    outer loop
      vertex -3.398188367486 0.07478594779968262 0.175
      vertex -3.4266427010297775 0.05263315141201019 0.35
      vertex -3.4266427010297775 0.05263315141201019 0.175
    endloop
  endfacet
  facet normal 0.6143145890582205 -0.7890612052751229 0
    outer loop
      vertex -3.398188367486 0.07478594779968262 0.175
      vertex -3.398188367486 0.07478594779968262 0.35
      vertex -3.4266427010297775 0.05263315141201019 0.35
    endloop
  endfacet
  facet normal 0.6606278928746211 -0.7507135186980705 0
    outer loop
      vertex -2.148188367486 1.1747859418392181 0.175
      vertex -3.398188367486 0.07478594779968262 0.35
      vertex -3.398188367486 0.07478594779968262 0.175
    endloop
  endfacet
  facet normal 0.6606278928746211 -0.7507135186980705 0
    outer loop
      vertex -2.148188367486 1.1747859418392181 0.175
      vertex -2.148188367486 1.1747859418392181 0.35
      vertex -3.398188367486 0.07478594779968262 0.35
    endloop
  endfacet
  facet normal -0.6606278928746211 -0.7507135186980705 0
    outer loop
      vertex -0.8981883674860001 0.07478594779968262 0.175
      vertex -2.148188367486 1.1747859418392181 0.35
      vertex -2.148188367486 1.1747859418392181 0.175
    endloop
  endfacet
  facet normal -0.6606278928746211 -0.7507135186980705 0
    outer loop
      vertex -0.8981883674860001 0.07478594779968262 0.175
      vertex -0.8981883674860001 0.07478594779968262 0.35
      vertex -2.148188367486 1.1747859418392181 0.35
    endloop
  endfacet
  facet normal -0.6143145890582205 -0.7890612052751229 0
    outer loop
      vertex -0.8697340339422226 0.05263315141201019 0.175
      vertex -0.8981883674860001 0.07478594779968262 0.35
      vertex -0.8981883674860001 0.07478594779968262 0.175
    endloop
  endfacet
  facet normal -0.6143145890582205 -0.7890612052751229 0
    outer loop
      vertex -0.8697340339422226 0.05263315141201019 0.175
      vertex -0.8697340339422226 0.05263315141201019 0.35
      vertex -0.8981883674860001 0.07478594779968262 0.35
    endloop
  endfacet
  facet normal -0.5152001842544823 -0.8570698747150942 0
    outer loop
      vertex -0.8388272374868393 0.03405451774597168 0.175
      vertex -0.8697340339422226 0.05263315141201019 0.35
      vertex -0.8697340339422226 0.05263315141201019 0.175
    endloop
  endfacet
  facet normal -0.5152001842544823 -0.8570698747150942 0
    outer loop
      vertex -0.8388272374868393 0.03405451774597168 0.175
      vertex -0.8388272374868393 0.03405451774597168 0.35
      vertex -0.8697340339422226 0.05263315141201019 0.35
    endloop
  endfacet
  facet normal -0.4086416987202918 -0.9126948899095438 0
    outer loop
      vertex -0.8059145510196686 0.019318491220474243 0.175
      vertex -0.8388272374868393 0.03405451774597168 0.35
      vertex -0.8388272374868393 0.03405451774597168 0.175
    endloop
  endfacet
  facet normal -0.4086416987202918 -0.9126948899095438 0
    outer loop
      vertex -0.8059145510196686 0.019318491220474243 0.175
      vertex -0.8059145510196686 0.019318491220474243 0.35
      vertex -0.8388272374868393 0.03405451774597168 0.35
    endloop
  endfacet
  facet normal -0.29617879416828824 -0.9551325153532461 0
    outer loop
      vertex -0.7714715152978897 0.008637987077236176 0.175
      vertex -0.8059145510196686 0.019318491220474243 0.35
      vertex -0.8059145510196686 0.019318491220474243 0.175
    endloop
  endfacet
  facet normal -0.29617879416828824 -0.9551325153532461 0
    outer loop
      vertex -0.7714715152978897 0.008637987077236176 0.175
      vertex -0.7714715152978897 0.008637987077236176 0.35
      vertex -0.8059145510196686 0.019318491220474243 0.35
    endloop
  endfacet
  facet normal -0.1794364800524414 -0.9837695612420573 0
    outer loop
      vertex -0.7359958067536354 0.00216732919216156 0.175
      vertex -0.7714715152978897 0.008637987077236176 0.35
      vertex -0.7714715152978897 0.008637987077236176 0.175
    endloop
  endfacet
  facet normal -0.1794364800524414 -0.9837695612420573 0
    outer loop
      vertex -0.7359958067536354 0.00216732919216156 0.175
      vertex -0.7359958067536354 0.00216732919216156 0.35
      vertex -0.7714715152978897 0.008637987077236176 0.35
    endloop
  endfacet
  facet normal -0.06010176151692493 -0.9981922551605792 0
    outer loop
      vertex -0.7000000029802322 0 0.175
      vertex -0.7359958067536354 0.00216732919216156 0.35
      vertex -0.7359958067536354 0.00216732919216156 0.175
    endloop
  endfacet
  facet normal -0.06010176151692493 -0.9981922551605792 0
    outer loop
      vertex -0.7000000029802322 0 0.175
      vertex -0.7000000029802322 0 0.35
      vertex -0.7359958067536354 0.00216732919216156 0.35
    endloop
  endfacet
  facet normal 0 -1 0
    outer loop
      vertex 1.2999999970197678 0 0.175
      vertex -0.7000000029802322 0 0.35
      vertex -0.7000000029802322 0 0.175
    endloop
  endfacet
  facet normal 0 -1 0
    outer loop
      vertex 1.2999999970197678 0 0.175
      vertex 1.2999999970197678 0 0.35
      vertex -0.7000000029802322 0 0.35
    endloop
  endfacet
  facet normal 1 0 0
    outer loop
      vertex 1.2999999970197678 0.29999999701976776 0.175
      vertex 1.2999999970197678 0 0.35
      vertex 1.2999999970197678 0 0.175
    endloop
  endfacet
  facet normal 1 0 0
    outer loop
      vertex 1.2999999970197678 0.29999999701976776 0.175
      vertex 1.2999999970197678 0.29999999701976776 0.35
      vertex 1.2999999970197678 0 0.35
    endloop
  endfacet
  facet normal 0 1 0
    outer loop
      vertex -0.7000000029802322 0.29999999701976776 0.175
      vertex 1.2999999970197678 0.29999999701976776 0.35
      vertex 1.2999999970197678 0.29999999701976776 0.175
    endloop
  endfacet
  facet normal 0 1 0
    outer loop
      vertex -0.7000000029802322 0.29999999701976776 0.175
      vertex -0.7000000029802322 0.29999999701976776 0.35
      vertex 1.2999999970197678 0.29999999701976776 0.35
    endloop
  endfacet
  facet normal 0.6606278953963756 0.7507135164789266 0
    outer loop
      vertex -1.9500000029802322 1.3999999985098839 0.175
      vertex -0.7000000029802322 0.29999999701976776 0.35
      vertex -0.7000000029802322 0.29999999701976776 0.175
    endloop
  endfacet
  facet normal 0.6606278953963756 0.7507135164789266 0
    outer loop
      vertex -1.9500000029802322 1.3999999985098839 0.175
      vertex -1.9500000029802322 1.3999999985098839 0.35
      vertex -0.7000000029802322 0.29999999701976776 0.35
    endloop
  endfacet
  facet normal 0.565780097445122 0.8245561723345403 0
    outer loop
      vertex -2.009361132979393 1.4407314211130142 0.175
      vertex -1.9500000029802322 1.3999999985098839 0.35
      vertex -1.9500000029802322 1.3999999985098839 0.175
    endloop
  endfacet
  facet normal 0.565780097445122 0.8245561723345403 0
    outer loop
      vertex -2.009361132979393 1.4407314211130142 0.175
      vertex -2.009361132979393 1.4407314211130142 0.35
      vertex -1.9500000029802322 1.3999999985098839 0.35
    endloop
  endfacet
  facet normal 0.3530485863467774 0.9356049891265769 0
    outer loop
      vertex -2.076716847717762 1.4661479592323303 0.175
      vertex -2.009361132979393 1.4407314211130142 0.35
      vertex -2.009361132979393 1.4407314211130142 0.175
    endloop
  endfacet
  facet normal 0.3530485863467774 0.9356049891265769 0
    outer loop
      vertex -2.076716847717762 1.4661479592323303 0.175
      vertex -2.076716847717762 1.4661479592323303 0.35
      vertex -2.009361132979393 1.4407314211130142 0.35
    endloop
  endfacet
  facet normal 0.11998601230925217 0.9927755823196519 0
    outer loop
      vertex -2.148188367486 1.4747859463095665 0.175
      vertex -2.076716847717762 1.4661479592323303 0.35
      vertex -2.076716847717762 1.4661479592323303 0.175
    endloop
  endfacet
  facet normal 0.11998601230925217 0.9927755823196519 0
    outer loop
      vertex -2.148188367486 1.4747859463095665 0.175
      vertex -2.148188367486 1.4747859463095665 0.35
      vertex -2.076716847717762 1.4661479592323303 0.35
    endloop
  endfacet
  facet normal -0.11998601230925217 0.9927755823196519 0
    outer loop
      vertex -2.219659887254238 1.4661479592323303 0.175
      vertex -2.148188367486 1.4747859463095665 0.35
      vertex -2.148188367486 1.4747859463095665 0.175
    endloop
  endfacet
  facet normal -0.11998601230925217 0.9927755823196519 0
    outer loop
      vertex -2.219659887254238 1.4661479592323303 0.175
      vertex -2.219659887254238 1.4661479592323303 0.35
      vertex -2.148188367486 1.4747859463095665 0.35
    endloop
  endfacet
  facet normal -0.3530485863467774 0.9356049891265769 0
    outer loop
      vertex -2.287015601992607 1.4407314211130142 0.175
      vertex -2.219659887254238 1.4661479592323303 0.35
      vertex -2.219659887254238 1.4661479592323303 0.175
    endloop
  endfacet
  facet normal -0.3530485863467774 0.9356049891265769 0
    outer loop
      vertex -2.287015601992607 1.4407314211130142 0.175
      vertex -2.287015601992607 1.4407314211130142 0.35
      vertex -2.219659887254238 1.4661479592323303 0.35
    endloop
  endfacet
  facet normal -0.5657800491641406 0.8245562054631708 0
    outer loop
      vertex -2.3463767394423485 1.3999999985098839 0.175
      vertex -2.287015601992607 1.4407314211130142 0.35
      vertex -2.287015601992607 1.4407314211130142 0.175
    endloop
  endfacet
  facet normal -0.5657800491641406 0.8245562054631708 0
    outer loop
      vertex -2.3463767394423485 1.3999999985098839 0.175
      vertex -2.3463767394423485 1.3999999985098839 0.35
      vertex -2.287015601992607 1.4407314211130142 0.35
    endloop
  endfacet
  facet normal -0.6606278953963756 0.7507135164789266 0
    outer loop
      vertex -3.5963767394423485 0.29999999701976776 0.175
      vertex -2.3463767394423485 1.3999999985098839 0.35
      vertex -2.3463767394423485 1.3999999985098839 0.175
    endloop
  endfacet
  facet normal -0.6606278953963756 0.7507135164789266 0
    outer loop
      vertex -3.5963767394423485 0.29999999701976776 0.175
      vertex -3.5963767394423485 0.29999999701976776 0.35
      vertex -2.3463767394423485 1.3999999985098839 0.35
    endloop
  endfacet
  facet normal 0 1 0
    outer loop
      vertex -4.0963767394423485 0.29999999701976776 0.175
      vertex -3.5963767394423485 0.29999999701976776 0.35
      vertex -3.5963767394423485 0.29999999701976776 0.175
    endloop
  endfacet
  facet normal 0 1 0
    outer loop
      vertex -4.0963767394423485 0.29999999701976776 0.175
      vertex -4.0963767394423485 0.29999999701976776 0.35
      vertex -3.5963767394423485 0.29999999701976776 0.35
    endloop
  endfacet
  facet normal -1 0 0
    outer loop
      vertex -4.0963767394423485 0 0.175
      vertex -4.0963767394423485 0.29999999701976776 0.35
      vertex -4.0963767394423485 0.29999999701976776 0.175
    endloop
  endfacet
  facet normal -1 0 0
    outer loop
      vertex -4.0963767394423485 0 0.175
      vertex -4.0963767394423485 0 0.35
      vertex -4.0963767394423485 0.29999999701976776 0.35
    endloop
  endfacet
  facet normal 0 -1 0
    outer loop
      vertex -3.5963767394423485 0 0.175
      vertex -4.0963767394423485 0 0.35
      vertex -4.0963767394423485 0 0.175
    endloop
  endfacet
  facet normal 0 -1 0
    outer loop
      vertex -3.5963767394423485 0 0.175
      vertex -3.5963767394423485 0 0.35
      vertex -4.0963767394423485 0 0.35
    endloop
  endfacet
  facet normal 0.060101749121719054 -0.9981922559069019 0
    outer loop
      vertex -3.5603809282183647 0.00216732919216156 0.175
      vertex -3.5963767394423485 0 0.35
      vertex -3.5963767394423485 0 0.175
    endloop
  endfacet
  facet normal 0.060101749121719054 -0.9981922559069019 0
    outer loop
      vertex -3.5603809282183647 0.00216732919216156 0.175
      vertex -3.5603809282183647 0.00216732919216156 0.35
      vertex -3.5963767394423485 0 0.35
    endloop
  endfacet
  facet normal 0.1794364800524414 -0.9837695612420573 0
    outer loop
      vertex -3.5249052196741104 0.008637987077236176 0.35
      vertex -3.5603809282183647 0.00216732919216156 0.5249999999999999
      vertex -3.5603809282183647 0.00216732919216156 0.35
    endloop
  endfacet
  facet normal 0.1794364800524414 -0.9837695612420573 0
    outer loop
      vertex -3.5249052196741104 0.008637987077236176 0.35
      vertex -3.5249052196741104 0.008637987077236176 0.5249999999999999
      vertex -3.5603809282183647 0.00216732919216156 0.5249999999999999
    endloop
  endfacet
  facet normal 0.2961788526163343 -0.9551324972289823 0
    outer loop
      vertex -3.490462191402912 0.019318491220474243 0.35
      vertex -3.5249052196741104 0.008637987077236176 0.5249999999999999
      vertex -3.5249052196741104 0.008637987077236176 0.35
    endloop
  endfacet
  facet normal 0.2961788526163343 -0.9551324972289823 0
    outer loop
      vertex -3.490462191402912 0.019318491220474243 0.35
      vertex -3.490462191402912 0.019318491220474243 0.5249999999999999
      vertex -3.5249052196741104 0.008637987077236176 0.5249999999999999
    endloop
  endfacet
  facet normal 0.4086416216617778 -0.9126949244110173 0
    outer loop
      vertex -3.457549497485161 0.03405451774597168 0.35
      vertex -3.490462191402912 0.019318491220474243 0.5249999999999999
      vertex -3.490462191402912 0.019318491220474243 0.35
    endloop
  endfacet
  facet normal 0.4086416216617778 -0.9126949244110173 0
    outer loop
      vertex -3.457549497485161 0.03405451774597168 0.35
      vertex -3.457549497485161 0.03405451774597168 0.5249999999999999
      vertex -3.490462191402912 0.019318491220474243 0.5249999999999999
    endloop
  endfacet
  facet normal 0.5152001842544824 -0.8570698747150943 0
    outer loop
      vertex -3.4266427010297775 0.05263315141201019 0.35
      vertex -3.457549497485161 0.03405451774597168 0.5249999999999999
      vertex -3.457549497485161 0.03405451774597168 0.35
    endloop
  endfacet
  facet normal 0.5152001842544824 -0.8570698747150943 0
    outer loop
      vertex -3.4266427010297775 0.05263315141201019 0.35
      vertex -3.4266427010297775 0.05263315141201019 0.5249999999999999
      vertex -3.457549497485161 0.03405451774597168 0.5249999999999999
    endloop
  endfacet
  facet normal 0.6143145890582206 -0.7890612052751229 0
    outer loop
      vertex -3.398188367486 0.07478594779968262 0.35
      vertex -3.4266427010297775 0.05263315141201019 0.5249999999999999
      vertex -3.4266427010297775 0.05263315141201019 0.35
    endloop
  endfacet
  facet normal 0.6143145890582206 -0.7890612052751229 0
    outer loop
      vertex -3.398188367486 0.07478594779968262 0.35
      vertex -3.398188367486 0.07478594779968262 0.5249999999999999
      vertex -3.4266427010297775 0.05263315141201019 0.5249999999999999
    endloop
  endfacet
  facet normal 0.660627892874621 -0.7507135186980705 0
    outer loop
      vertex -2.148188367486 1.1747859418392181 0.35
      vertex -3.398188367486 0.07478594779968262 0.5249999999999999
      vertex -3.398188367486 0.07478594779968262 0.35
    endloop
  endfacet
  facet normal 0.660627892874621 -0.7507135186980705 0
    outer loop
      vertex -2.148188367486 1.1747859418392181 0.35
      vertex -2.148188367486 1.1747859418392181 0.5249999999999999
      vertex -3.398188367486 0.07478594779968262 0.5249999999999999
    endloop
  endfacet
  facet normal -0.660627892874621 -0.7507135186980705 0
    outer loop
      vertex -0.8981883674860001 0.07478594779968262 0.35
      vertex -2.148188367486 1.1747859418392181 0.5249999999999999
      vertex -2.148188367486 1.1747859418392181 0.35
    endloop
  endfacet
  facet normal -0.660627892874621 -0.7507135186980705 0
    outer loop
      vertex -0.8981883674860001 0.07478594779968262 0.35
      vertex -0.8981883674860001 0.07478594779968262 0.5249999999999999
      vertex -2.148188367486 1.1747859418392181 0.5249999999999999
    endloop
  endfacet
  facet normal -0.6143145890582206 -0.7890612052751229 0
    outer loop
      vertex -0.8697340339422226 0.05263315141201019 0.35
      vertex -0.8981883674860001 0.07478594779968262 0.5249999999999999
      vertex -0.8981883674860001 0.07478594779968262 0.35
    endloop
  endfacet
  facet normal -0.6143145890582206 -0.7890612052751229 0
    outer loop
      vertex -0.8697340339422226 0.05263315141201019 0.35
      vertex -0.8697340339422226 0.05263315141201019 0.5249999999999999
      vertex -0.8981883674860001 0.07478594779968262 0.5249999999999999
    endloop
  endfacet
  facet normal -0.5152001842544824 -0.8570698747150943 0
    outer loop
      vertex -0.8388272374868393 0.03405451774597168 0.35
      vertex -0.8697340339422226 0.05263315141201019 0.5249999999999999
      vertex -0.8697340339422226 0.05263315141201019 0.35
    endloop
  endfacet
  facet normal -0.5152001842544824 -0.8570698747150943 0
    outer loop
      vertex -0.8388272374868393 0.03405451774597168 0.35
      vertex -0.8388272374868393 0.03405451774597168 0.5249999999999999
      vertex -0.8697340339422226 0.05263315141201019 0.5249999999999999
    endloop
  endfacet
  facet normal -0.40864169872029177 -0.9126948899095437 0
    outer loop
      vertex -0.8059145510196686 0.019318491220474243 0.35
      vertex -0.8388272374868393 0.03405451774597168 0.5249999999999999
      vertex -0.8388272374868393 0.03405451774597168 0.35
    endloop
  endfacet
  facet normal -0.40864169872029177 -0.9126948899095437 0
    outer loop
      vertex -0.8059145510196686 0.019318491220474243 0.35
      vertex -0.8059145510196686 0.019318491220474243 0.5249999999999999
      vertex -0.8388272374868393 0.03405451774597168 0.5249999999999999
    endloop
  endfacet
  facet normal -0.2961787941682882 -0.9551325153532461 0
    outer loop
      vertex -0.7714715152978897 0.008637987077236176 0.35
      vertex -0.8059145510196686 0.019318491220474243 0.5249999999999999
      vertex -0.8059145510196686 0.019318491220474243 0.35
    endloop
  endfacet
  facet normal -0.2961787941682882 -0.9551325153532461 0
    outer loop
      vertex -0.7714715152978897 0.008637987077236176 0.35
      vertex -0.7714715152978897 0.008637987077236176 0.5249999999999999
      vertex -0.8059145510196686 0.019318491220474243 0.5249999999999999
    endloop
  endfacet
  facet normal -0.1794364800524414 -0.9837695612420573 0
    outer loop
      vertex -0.7359958067536354 0.00216732919216156 0.35
      vertex -0.7714715152978897 0.008637987077236176 0.5249999999999999
      vertex -0.7714715152978897 0.008637987077236176 0.35
    endloop
  endfacet
  facet normal -0.1794364800524414 -0.9837695612420573 0
    outer loop
      vertex -0.7359958067536354 0.00216732919216156 0.35
      vertex -0.7359958067536354 0.00216732919216156 0.5249999999999999
      vertex -0.7714715152978897 0.008637987077236176 0.5249999999999999
    endloop
  endfacet
  facet normal -0.06010176151692494 -0.9981922551605792 0
    outer loop
      vertex -0.7000000029802322 0 0.35
      vertex -0.7359958067536354 0.00216732919216156 0.5249999999999999
      vertex -0.7359958067536354 0.00216732919216156 0.35
    endloop
  endfacet
  facet normal -0.06010176151692494 -0.9981922551605792 0
    outer loop
      vertex -0.7000000029802322 0 0.35
      vertex -0.7000000029802322 0 0.5249999999999999
      vertex -0.7359958067536354 0.00216732919216156 0.5249999999999999
    endloop
  endfacet
  facet normal 0 -1 0
    outer loop
      vertex 1.2999999970197678 0 0.35
      vertex -0.7000000029802322 0 0.5249999999999999
      vertex -0.7000000029802322 0 0.35
    endloop
  endfacet
  facet normal 0 -1 0
    outer loop
      vertex 1.2999999970197678 0 0.35
      vertex 1.2999999970197678 0 0.5249999999999999
      vertex -0.7000000029802322 0 0.5249999999999999
    endloop
  endfacet
  facet normal 1 0 0
    outer loop
      vertex 1.2999999970197678 0.29999999701976776 0.35
      vertex 1.2999999970197678 0 0.5249999999999999
      vertex 1.2999999970197678 0 0.35
    endloop
  endfacet
  facet normal 1 0 0
    outer loop
      vertex 1.2999999970197678 0.29999999701976776 0.35
      vertex 1.2999999970197678 0.29999999701976776 0.5249999999999999
      vertex 1.2999999970197678 0 0.5249999999999999
    endloop
  endfacet
  facet normal 0 1 0
    outer loop
      vertex -0.7000000029802322 0.29999999701976776 0.35
      vertex 1.2999999970197678 0.29999999701976776 0.5249999999999999
      vertex 1.2999999970197678 0.29999999701976776 0.35
    endloop
  endfacet
  facet normal 0 1 0
    outer loop
      vertex -0.7000000029802322 0.29999999701976776 0.35
      vertex -0.7000000029802322 0.29999999701976776 0.5249999999999999
      vertex 1.2999999970197678 0.29999999701976776 0.5249999999999999
    endloop
  endfacet
  facet normal 0.6606278953963756 0.7507135164789265 0
    outer loop
      vertex -1.9500000029802322 1.3999999985098839 0.35
      vertex -0.7000000029802322 0.29999999701976776 0.5249999999999999
      vertex -0.7000000029802322 0.29999999701976776 0.35
    endloop
  endfacet
  facet normal 0.6606278953963756 0.7507135164789265 0
    outer loop
      vertex -1.9500000029802322 1.3999999985098839 0.35
      vertex -1.9500000029802322 1.3999999985098839 0.5249999999999999
      vertex -0.7000000029802322 0.29999999701976776 0.5249999999999999
    endloop
  endfacet
  facet normal 0.5657800974451219 0.8245561723345404 0
    outer loop
      vertex -2.009361132979393 1.4407314211130142 0.35
      vertex -1.9500000029802322 1.3999999985098839 0.5249999999999999
      vertex -1.9500000029802322 1.3999999985098839 0.35
    endloop
  endfacet
  facet normal 0.5657800974451219 0.8245561723345404 0
    outer loop
      vertex -2.009361132979393 1.4407314211130142 0.35
      vertex -2.009361132979393 1.4407314211130142 0.5249999999999999
      vertex -1.9500000029802322 1.3999999985098839 0.5249999999999999
    endloop
  endfacet
  facet normal 0.3530485863467774 0.935604989126577 0
    outer loop
      vertex -2.076716847717762 1.4661479592323303 0.35
      vertex -2.009361132979393 1.4407314211130142 0.5249999999999999
      vertex -2.009361132979393 1.4407314211130142 0.35
    endloop
  endfacet
  facet normal 0.3530485863467774 0.935604989126577 0
    outer loop
      vertex -2.076716847717762 1.4661479592323303 0.35
      vertex -2.076716847717762 1.4661479592323303 0.5249999999999999
      vertex -2.009361132979393 1.4407314211130142 0.5249999999999999
    endloop
  endfacet
  facet normal 0.11998601230925218 0.9927755823196519 0
    outer loop
      vertex -2.148188367486 1.4747859463095665 0.35
      vertex -2.076716847717762 1.4661479592323303 0.5249999999999999
      vertex -2.076716847717762 1.4661479592323303 0.35
    endloop
  endfacet
  facet normal 0.11998601230925218 0.9927755823196519 0
    outer loop
      vertex -2.148188367486 1.4747859463095665 0.35
      vertex -2.148188367486 1.4747859463095665 0.5249999999999999
      vertex -2.076716847717762 1.4661479592323303 0.5249999999999999
    endloop
  endfacet
  facet normal -0.11998601230925218 0.9927755823196519 0
    outer loop
      vertex -2.219659887254238 1.4661479592323303 0.35
      vertex -2.148188367486 1.4747859463095665 0.5249999999999999
      vertex -2.148188367486 1.4747859463095665 0.35
    endloop
  endfacet
  facet normal -0.11998601230925218 0.9927755823196519 0
    outer loop
      vertex -2.219659887254238 1.4661479592323303 0.35
      vertex -2.219659887254238 1.4661479592323303 0.5249999999999999
      vertex -2.148188367486 1.4747859463095665 0.5249999999999999
    endloop
  endfacet
  facet normal -0.3530485863467774 0.935604989126577 0
    outer loop
      vertex -2.287015601992607 1.4407314211130142 0.35
      vertex -2.219659887254238 1.4661479592323303 0.5249999999999999
      vertex -2.219659887254238 1.4661479592323303 0.35
    endloop
  endfacet
  facet normal -0.3530485863467774 0.935604989126577 0
    outer loop
      vertex -2.287015601992607 1.4407314211130142 0.35
      vertex -2.287015601992607 1.4407314211130142 0.5249999999999999
      vertex -2.219659887254238 1.4661479592323303 0.5249999999999999
    endloop
  endfacet
  facet normal -0.5657800491641407 0.8245562054631708 0
    outer loop
      vertex -2.3463767394423485 1.3999999985098839 0.35
      vertex -2.287015601992607 1.4407314211130142 0.5249999999999999
      vertex -2.287015601992607 1.4407314211130142 0.35
    endloop
  endfacet
  facet normal -0.5657800491641407 0.8245562054631708 0
    outer loop
      vertex -2.3463767394423485 1.3999999985098839 0.35
      vertex -2.3463767394423485 1.3999999985098839 0.5249999999999999
      vertex -2.287015601992607 1.4407314211130142 0.5249999999999999
    endloop
  endfacet
  facet normal -0.6606278953963756 0.7507135164789265 0
    outer loop
      vertex -3.5963767394423485 0.29999999701976776 0.35
      vertex -2.3463767394423485 1.3999999985098839 0.5249999999999999
      vertex -2.3463767394423485 1.3999999985098839 0.35
    endloop
  endfacet
  facet normal -0.6606278953963756 0.7507135164789265 0
    outer loop
      vertex -3.5963767394423485 0.29999999701976776 0.35
      vertex -3.5963767394423485 0.29999999701976776 0.5249999999999999
      vertex -2.3463767394423485 1.3999999985098839 0.5249999999999999
    endloop
  endfacet
  facet normal 0 1 0
    outer loop
      vertex -4.0963767394423485 0.29999999701976776 0.35
      vertex -3.5963767394423485 0.29999999701976776 0.5249999999999999
      vertex -3.5963767394423485 0.29999999701976776 0.35
    endloop
  endfacet
  facet normal 0 1 0
    outer loop
      vertex -4.0963767394423485 0.29999999701976776 0.35
      vertex -4.0963767394423485 0.29999999701976776 0.5249999999999999
      vertex -3.5963767394423485 0.29999999701976776 0.5249999999999999
    endloop
  endfacet
  facet normal -1 0 0
    outer loop
      vertex -4.0963767394423485 0 0.35
      vertex -4.0963767394423485 0.29999999701976776 0.5249999999999999
      vertex -4.0963767394423485 0.29999999701976776 0.35
    endloop
  endfacet
  facet normal -1 0 0
    outer loop
      vertex -4.0963767394423485 0 0.35
      vertex -4.0963767394423485 0 0.5249999999999999
      vertex -4.0963767394423485 0.29999999701976776 0.5249999999999999
    endloop
  endfacet
  facet normal 0 -1 0
    outer loop
      vertex -3.5963767394423485 0 0.35
      vertex -4.0963767394423485 0 0.5249999999999999
      vertex -4.0963767394423485 0 0.35
    endloop
  endfacet
  facet normal 0 -1 0
    outer loop
      vertex -3.5963767394423485 0 0.35
      vertex -3.5963767394423485 0 0.5249999999999999
      vertex -4.0963767394423485 0 0.5249999999999999
    endloop
  endfacet
  facet normal 0.06010174912171905 -0.9981922559069019 0
    outer loop
      vertex -3.5603809282183647 0.00216732919216156 0.35
      vertex -3.5963767394423485 0 0.5249999999999999
      vertex -3.5963767394423485 0 0.35
    endloop
  endfacet
  facet normal 0.06010174912171905 -0.9981922559069019 0
    outer loop
      vertex -3.5603809282183647 0.00216732919216156 0.35
      vertex -3.5603809282183647 0.00216732919216156 0.5249999999999999
      vertex -3.5963767394423485 0 0.5249999999999999
    endloop
  endfacet
  facet normal 0.17943648005244142 -0.9837695612420573 0
    outer loop
      vertex -3.5249052196741104 0.008637987077236176 0.5249999999999999
      vertex -3.5603809282183647 0.00216732919216156 0.7
      vertex -3.5603809282183647 0.00216732919216156 0.5249999999999999
    endloop
  endfacet
  facet normal 0.17943648005244142 -0.9837695612420573 0
    outer loop
      vertex -3.5249052196741104 0.008637987077236176 0.5249999999999999
      vertex -3.5249052196741104 0.008637987077236176 0.7
      vertex -3.5603809282183647 0.00216732919216156 0.7
    endloop
  endfacet
  facet normal 0.2961788526163342 -0.9551324972289822 0
    outer loop
      vertex -3.490462191402912 0.019318491220474243 0.5249999999999999
      vertex -3.5249052196741104 0.008637987077236176 0.7
      vertex -3.5249052196741104 0.008637987077236176 0.5249999999999999
    endloop
  endfacet
  facet normal 0.2961788526163342 -0.9551324972289822 0
    outer loop
      vertex -3.490462191402912 0.019318491220474243 0.5249999999999999
      vertex -3.490462191402912 0.019318491220474243 0.7
      vertex -3.5249052196741104 0.008637987077236176 0.7
    endloop
  endfacet
  facet normal 0.4086416216617778 -0.9126949244110172 0
    outer loop
      vertex -3.457549497485161 0.03405451774597168 0.5249999999999999
      vertex -3.490462191402912 0.019318491220474243 0.7
      vertex -3.490462191402912 0.019318491220474243 0.5249999999999999
    endloop
  endfacet
  facet normal 0.4086416216617778 -0.9126949244110172 0
    outer loop
      vertex -3.457549497485161 0.03405451774597168 0.5249999999999999
      vertex -3.457549497485161 0.03405451774597168 0.7
      vertex -3.490462191402912 0.019318491220474243 0.7
    endloop
  endfacet
  facet normal 0.5152001842544823 -0.8570698747150943 0
    outer loop
      vertex -3.4266427010297775 0.05263315141201019 0.5249999999999999
      vertex -3.457549497485161 0.03405451774597168 0.7
      vertex -3.457549497485161 0.03405451774597168 0.5249999999999999
    endloop
  endfacet
  facet normal 0.5152001842544823 -0.8570698747150943 0
    outer loop
      vertex -3.4266427010297775 0.05263315141201019 0.5249999999999999
      vertex -3.4266427010297775 0.05263315141201019 0.7
      vertex -3.457549497485161 0.03405451774597168 0.7
    endloop
  endfacet
  facet normal 0.6143145890582206 -0.7890612052751229 0
    outer loop
      vertex -3.398188367486 0.07478594779968262 0.5249999999999999
      vertex -3.4266427010297775 0.05263315141201019 0.7
      vertex -3.4266427010297775 0.05263315141201019 0.5249999999999999
    endloop
  endfacet
  facet normal 0.6143145890582206 -0.7890612052751229 0
    outer loop
      vertex -3.398188367486 0.07478594779968262 0.5249999999999999
      vertex -3.398188367486 0.07478594779968262 0.7
      vertex -3.4266427010297775 0.05263315141201019 0.7
    endloop
  endfacet
  facet normal 0.6606278928746211 -0.7507135186980706 0
    outer loop
      vertex -2.148188367486 1.1747859418392181 0.5249999999999999
      vertex -3.398188367486 0.07478594779968262 0.7
      vertex -3.398188367486 0.07478594779968262 0.5249999999999999
    endloop
  endfacet
  facet normal 0.6606278928746211 -0.7507135186980706 0
    outer loop
      vertex -2.148188367486 1.1747859418392181 0.5249999999999999
      vertex -2.148188367486 1.1747859418392181 0.7
      vertex -3.398188367486 0.07478594779968262 0.7
    endloop
  endfacet
  facet normal -0.6606278928746211 -0.7507135186980706 0
    outer loop
      vertex -0.8981883674860001 0.07478594779968262 0.5249999999999999
      vertex -2.148188367486 1.1747859418392181 0.7
      vertex -2.148188367486 1.1747859418392181 0.5249999999999999
    endloop
  endfacet
  facet normal -0.6606278928746211 -0.7507135186980706 0
    outer loop
      vertex -0.8981883674860001 0.07478594779968262 0.5249999999999999
      vertex -0.8981883674860001 0.07478594779968262 0.7
      vertex -2.148188367486 1.1747859418392181 0.7
    endloop
  endfacet
  facet normal -0.6143145890582206 -0.7890612052751229 0
    outer loop
      vertex -0.8697340339422226 0.05263315141201019 0.5249999999999999
      vertex -0.8981883674860001 0.07478594779968262 0.7
      vertex -0.8981883674860001 0.07478594779968262 0.5249999999999999
    endloop
  endfacet
  facet normal -0.6143145890582206 -0.7890612052751229 0
    outer loop
      vertex -0.8697340339422226 0.05263315141201019 0.5249999999999999
      vertex -0.8697340339422226 0.05263315141201019 0.7
      vertex -0.8981883674860001 0.07478594779968262 0.7
    endloop
  endfacet
  facet normal -0.5152001842544823 -0.8570698747150943 0
    outer loop
      vertex -0.8388272374868393 0.03405451774597168 0.5249999999999999
      vertex -0.8697340339422226 0.05263315141201019 0.7
      vertex -0.8697340339422226 0.05263315141201019 0.5249999999999999
    endloop
  endfacet
  facet normal -0.5152001842544823 -0.8570698747150943 0
    outer loop
      vertex -0.8388272374868393 0.03405451774597168 0.5249999999999999
      vertex -0.8388272374868393 0.03405451774597168 0.7
      vertex -0.8697340339422226 0.05263315141201019 0.7
    endloop
  endfacet
  facet normal -0.4086416987202918 -0.9126948899095438 0
    outer loop
      vertex -0.8059145510196686 0.019318491220474243 0.5249999999999999
      vertex -0.8388272374868393 0.03405451774597168 0.7
      vertex -0.8388272374868393 0.03405451774597168 0.5249999999999999
    endloop
  endfacet
  facet normal -0.4086416987202918 -0.9126948899095438 0
    outer loop
      vertex -0.8059145510196686 0.019318491220474243 0.5249999999999999
      vertex -0.8059145510196686 0.019318491220474243 0.7
      vertex -0.8388272374868393 0.03405451774597168 0.7
    endloop
  endfacet
  facet normal -0.29617879416828824 -0.9551325153532461 0
    outer loop
      vertex -0.7714715152978897 0.008637987077236176 0.5249999999999999
      vertex -0.8059145510196686 0.019318491220474243 0.7
      vertex -0.8059145510196686 0.019318491220474243 0.5249999999999999
    endloop
  endfacet
  facet normal -0.29617879416828824 -0.9551325153532461 0
    outer loop
      vertex -0.7714715152978897 0.008637987077236176 0.5249999999999999
      vertex -0.7714715152978897 0.008637987077236176 0.7
      vertex -0.8059145510196686 0.019318491220474243 0.7
    endloop
  endfacet
  facet normal -0.17943648005244142 -0.9837695612420573 0
    outer loop
      vertex -0.7359958067536354 0.00216732919216156 0.5249999999999999
      vertex -0.7714715152978897 0.008637987077236176 0.7
      vertex -0.7714715152978897 0.008637987077236176 0.5249999999999999
    endloop
  endfacet
  facet normal -0.17943648005244142 -0.9837695612420573 0
    outer loop
      vertex -0.7359958067536354 0.00216732919216156 0.5249999999999999
      vertex -0.7359958067536354 0.00216732919216156 0.7
      vertex -0.7714715152978897 0.008637987077236176 0.7
    endloop
  endfacet
  facet normal -0.06010176151692493 -0.9981922551605792 0
    outer loop
      vertex -0.7000000029802322 0 0.5249999999999999
      vertex -0.7359958067536354 0.00216732919216156 0.7
      vertex -0.7359958067536354 0.00216732919216156 0.5249999999999999
    endloop
  endfacet
  facet normal -0.06010176151692493 -0.9981922551605792 0
    outer loop
      vertex -0.7000000029802322 0 0.5249999999999999
      vertex -0.7000000029802322 0 0.7
      vertex -0.7359958067536354 0.00216732919216156 0.7
    endloop
  endfacet
  facet normal 0 -1 0
    outer loop
      vertex 1.2999999970197678 0 0.5249999999999999
      vertex -0.7000000029802322 0 0.7
      vertex -0.7000000029802322 0 0.5249999999999999
    endloop
  endfacet
  facet normal 0 -1 0
    outer loop
      vertex 1.2999999970197678 0 0.5249999999999999
      vertex 1.2999999970197678 0 0.7
      vertex -0.7000000029802322 0 0.7
    endloop
  endfacet
  facet normal 1 0 0
    outer loop
      vertex 1.2999999970197678 0.29999999701976776 0.5249999999999999
      vertex 1.2999999970197678 0 0.7
      vertex 1.2999999970197678 0 0.5249999999999999
    endloop
  endfacet
  facet normal 1 0 0
    outer loop
      vertex 1.2999999970197678 0.29999999701976776 0.5249999999999999
      vertex 1.2999999970197678 0.29999999701976776 0.7
      vertex 1.2999999970197678 0 0.7
    endloop
  endfacet
  facet normal 0 1 0
    outer loop
      vertex -0.7000000029802322 0.29999999701976776 0.5249999999999999
      vertex 1.2999999970197678 0.29999999701976776 0.7
      vertex 1.2999999970197678 0.29999999701976776 0.5249999999999999
    endloop
  endfacet
  facet normal 0 1 0
    outer loop
      vertex -0.7000000029802322 0.29999999701976776 0.5249999999999999
      vertex -0.7000000029802322 0.29999999701976776 0.7
      vertex 1.2999999970197678 0.29999999701976776 0.7
    endloop
  endfacet
  facet normal 0.6606278953963756 0.7507135164789265 0
    outer loop
      vertex -1.9500000029802322 1.3999999985098839 0.5249999999999999
      vertex -0.7000000029802322 0.29999999701976776 0.7
      vertex -0.7000000029802322 0.29999999701976776 0.5249999999999999
    endloop
  endfacet
  facet normal 0.6606278953963756 0.7507135164789265 0
    outer loop
      vertex -1.9500000029802322 1.3999999985098839 0.5249999999999999
      vertex -1.9500000029802322 1.3999999985098839 0.7
      vertex -0.7000000029802322 0.29999999701976776 0.7
    endloop
  endfacet
  facet normal 0.565780097445122 0.8245561723345404 0
    outer loop
      vertex -2.009361132979393 1.4407314211130142 0.5249999999999999
      vertex -1.9500000029802322 1.3999999985098839 0.7
      vertex -1.9500000029802322 1.3999999985098839 0.5249999999999999
    endloop
  endfacet
  facet normal 0.565780097445122 0.8245561723345404 0
    outer loop
      vertex -2.009361132979393 1.4407314211130142 0.5249999999999999
      vertex -2.009361132979393 1.4407314211130142 0.7
      vertex -1.9500000029802322 1.3999999985098839 0.7
    endloop
  endfacet
  facet normal 0.3530485863467773 0.935604989126577 0
    outer loop
      vertex -2.076716847717762 1.4661479592323303 0.5249999999999999
      vertex -2.009361132979393 1.4407314211130142 0.7
      vertex -2.009361132979393 1.4407314211130142 0.5249999999999999
    endloop
  endfacet
  facet normal 0.3530485863467773 0.935604989126577 0
    outer loop
      vertex -2.076716847717762 1.4661479592323303 0.5249999999999999
      vertex -2.076716847717762 1.4661479592323303 0.7
      vertex -2.009361132979393 1.4407314211130142 0.7
    endloop
  endfacet
  facet normal 0.11998601230925217 0.9927755823196519 0
    outer loop
      vertex -2.148188367486 1.4747859463095665 0.5249999999999999
      vertex -2.076716847717762 1.4661479592323303 0.7
      vertex -2.076716847717762 1.4661479592323303 0.5249999999999999
    endloop
  endfacet
  facet normal 0.11998601230925217 0.9927755823196519 0
    outer loop
      vertex -2.148188367486 1.4747859463095665 0.5249999999999999
      vertex -2.148188367486 1.4747859463095665 0.7
      vertex -2.076716847717762 1.4661479592323303 0.7
    endloop
  endfacet
  facet normal -0.11998601230925217 0.9927755823196519 0
    outer loop
      vertex -2.219659887254238 1.4661479592323303 0.5249999999999999
      vertex -2.148188367486 1.4747859463095665 0.7
      vertex -2.148188367486 1.4747859463095665 0.5249999999999999
    endloop
  endfacet
  facet normal -0.11998601230925217 0.9927755823196519 0
    outer loop
      vertex -2.219659887254238 1.4661479592323303 0.5249999999999999
      vertex -2.219659887254238 1.4661479592323303 0.7
      vertex -2.148188367486 1.4747859463095665 0.7
    endloop
  endfacet
  facet normal -0.3530485863467773 0.935604989126577 0
    outer loop
      vertex -2.287015601992607 1.4407314211130142 0.5249999999999999
      vertex -2.219659887254238 1.4661479592323303 0.7
      vertex -2.219659887254238 1.4661479592323303 0.5249999999999999
    endloop
  endfacet
  facet normal -0.3530485863467773 0.935604989126577 0
    outer loop
      vertex -2.287015601992607 1.4407314211130142 0.5249999999999999
      vertex -2.287015601992607 1.4407314211130142 0.7
      vertex -2.219659887254238 1.4661479592323303 0.7
    endloop
  endfacet
  facet normal -0.5657800491641406 0.8245562054631708 0
    outer loop
      vertex -2.3463767394423485 1.3999999985098839 0.5249999999999999
      vertex -2.287015601992607 1.4407314211130142 0.7
      vertex -2.287015601992607 1.4407314211130142 0.5249999999999999
    endloop
  endfacet
  facet normal -0.5657800491641406 0.8245562054631708 0
    outer loop
      vertex -2.3463767394423485 1.3999999985098839 0.5249999999999999
      vertex -2.3463767394423485 1.3999999985098839 0.7
      vertex -2.287015601992607 1.4407314211130142 0.7
    endloop
  endfacet
  facet normal -0.6606278953963756 0.7507135164789265 0
    outer loop
      vertex -3.5963767394423485 0.29999999701976776 0.5249999999999999
      vertex -2.3463767394423485 1.3999999985098839 0.7
      vertex -2.3463767394423485 1.3999999985098839 0.5249999999999999
    endloop
  endfacet
  facet normal -0.6606278953963756 0.7507135164789265 0
    outer loop
      vertex -3.5963767394423485 0.29999999701976776 0.5249999999999999
      vertex -3.5963767394423485 0.29999999701976776 0.7
      vertex -2.3463767394423485 1.3999999985098839 0.7
    endloop
  endfacet
  facet normal 0 1 0
    outer loop
      vertex -4.0963767394423485 0.29999999701976776 0.5249999999999999
      vertex -3.5963767394423485 0.29999999701976776 0.7
      vertex -3.5963767394423485 0.29999999701976776 0.5249999999999999
    endloop
  endfacet
  facet normal 0 1 0
    outer loop
      vertex -4.0963767394423485 0.29999999701976776 0.5249999999999999
      vertex -4.0963767394423485 0.29999999701976776 0.7
      vertex -3.5963767394423485 0.29999999701976776 0.7
    endloop
  endfacet
  facet normal -1 0 0
    outer loop
      vertex -4.0963767394423485 0 0.5249999999999999
      vertex -4.0963767394423485 0.29999999701976776 0.7
      vertex -4.0963767394423485 0.29999999701976776 0.5249999999999999
    endloop
  endfacet
  facet normal -1 0 0
    outer loop
      vertex -4.0963767394423485 0 0.5249999999999999
      vertex -4.0963767394423485 0 0.7
      vertex -4.0963767394423485 0.29999999701976776 0.7
    endloop
  endfacet
  facet normal 0 -1 0
    outer loop
      vertex -3.5963767394423485 0 0.5249999999999999
      vertex -4.0963767394423485 0 0.7
      vertex -4.0963767394423485 0 0.5249999999999999
    endloop
  endfacet
  facet normal 0 -1 0
    outer loop
      vertex -3.5963767394423485 0 0.5249999999999999
      vertex -3.5963767394423485 0 0.7
      vertex -4.0963767394423485 0 0.7
    endloop
  endfacet
  facet normal 0.060101749121719054 -0.9981922559069019 0
    outer loop
      vertex -3.5603809282183647 0.00216732919216156 0.5249999999999999
      vertex -3.5963767394423485 0 0.7
      vertex -3.5963767394423485 0 0.5249999999999999
    endloop
  endfacet
  facet normal 0.060101749121719054 -0.9981922559069019 0
    outer loop
      vertex -3.5603809282183647 0.00216732919216156 0.5249999999999999
      vertex -3.5603809282183647 0.00216732919216156 0.7
      vertex -3.5963767394423485 0 0.7
    endloop
  endfacet
  facet normal 0 0 -1
    outer loop
      vertex 1.2999999970197678 0.29999999701976776 0
      vertex 1.2999999970197678 0 0
      vertex -0.7000000029802322 0 0
    endloop
  endfacet
  facet normal 0 0 -1
    outer loop
      vertex -0.7000000029802322 0.29999999701976776 0
      vertex 1.2999999970197678 0.29999999701976776 0
      vertex -0.7000000029802322 0 0
    endloop
  endfacet
  facet normal 0 0 -1
    outer loop
      vertex -0.7000000029802322 0.29999999701976776 0
      vertex -0.7000000029802322 0 0
      vertex -0.7359958067536354 0.00216732919216156 0
    endloop
  endfacet
  facet normal 0 0 -1
    outer loop
      vertex -0.7000000029802322 0.29999999701976776 0
      vertex -0.7359958067536354 0.00216732919216156 0
      vertex -0.7714715152978897 0.008637987077236176 0
    endloop
  endfacet
  facet normal 0 0 -1
    outer loop
      vertex -0.7000000029802322 0.29999999701976776 0
      vertex -0.7714715152978897 0.008637987077236176 0
      vertex -0.8059145510196686 0.019318491220474243 0
    endloop
  endfacet
  facet normal 0 0 -1
    outer loop
      vertex -0.7000000029802322 0.29999999701976776 0
      vertex -0.8059145510196686 0.019318491220474243 0
      vertex -0.8388272374868393 0.03405451774597168 0
    endloop
  endfacet
  facet normal 0 0 -1
    outer loop
      vertex -0.7000000029802322 0.29999999701976776 0
      vertex -0.8388272374868393 0.03405451774597168 0
      vertex -0.8697340339422226 0.05263315141201019 0
    endloop
  endfacet
  facet normal 0 0 -1
    outer loop
      vertex -0.7000000029802322 0.29999999701976776 0
      vertex -0.8697340339422226 0.05263315141201019 0
      vertex -0.8981883674860001 0.07478594779968262 0
    endloop
  endfacet
  facet normal 0 0 -1
    outer loop
      vertex -4.0963767394423485 0 0
      vertex -4.0963767394423485 0.29999999701976776 0
      vertex -3.5963767394423485 0.29999999701976776 0
    endloop
  endfacet
  facet normal 0 0 -1
    outer loop
      vertex -3.5963767394423485 0 0
      vertex -4.0963767394423485 0 0
      vertex -3.5963767394423485 0.29999999701976776 0
    endloop
  endfacet
  facet normal 0 0 -1
    outer loop
      vertex -3.5603809282183647 0.00216732919216156 0
      vertex -3.5963767394423485 0 0
      vertex -3.5963767394423485 0.29999999701976776 0
    endloop
  endfacet
  facet normal 0 0 -1
    outer loop
      vertex -3.5249052196741104 0.008637987077236176 0
      vertex -3.5603809282183647 0.00216732919216156 0
      vertex -3.5963767394423485 0.29999999701976776 0
    endloop
  endfacet
  facet normal 0 0 -1
    outer loop
      vertex -3.490462191402912 0.019318491220474243 0
      vertex -3.5249052196741104 0.008637987077236176 0
      vertex -3.5963767394423485 0.29999999701976776 0
    endloop
  endfacet
  facet normal 0 0 -1
    outer loop
      vertex -3.457549497485161 0.03405451774597168 0
      vertex -3.490462191402912 0.019318491220474243 0
      vertex -3.5963767394423485 0.29999999701976776 0
    endloop
  endfacet
  facet normal 0 0 -1
    outer loop
      vertex -3.4266427010297775 0.05263315141201019 0
      vertex -3.457549497485161 0.03405451774597168 0
      vertex -3.5963767394423485 0.29999999701976776 0
    endloop
  endfacet
  facet normal 0 0 -1
    outer loop
      vertex -3.398188367486 0.07478594779968262 0
      vertex -3.4266427010297775 0.05263315141201019 0
      vertex -3.5963767394423485 0.29999999701976776 0
    endloop
  endfacet
  facet normal 0 0 -1
    outer loop
      vertex -3.398188367486 0.07478594779968262 0
      vertex -3.5963767394423485 0.29999999701976776 0
      vertex -2.3463767394423485 1.3999999985098839 0
    endloop
  endfacet
  facet normal 0 0 -1
    outer loop
      vertex -2.148188367486 1.1747859418392181 0
      vertex -3.398188367486 0.07478594779968262 0
      vertex -2.3463767394423485 1.3999999985098839 0
    endloop
  endfacet
  facet normal 0 0 -1
    outer loop
      vertex -2.148188367486 1.1747859418392181 0
      vertex -2.3463767394423485 1.3999999985098839 0
      vertex -2.287015601992607 1.4407314211130142 0
    endloop
  endfacet
  facet normal 0 0 -1
    outer loop
      vertex -2.148188367486 1.1747859418392181 0
      vertex -2.287015601992607 1.4407314211130142 0
      vertex -2.219659887254238 1.4661479592323303 0
    endloop
  endfacet
  facet normal 0 0 -1
    outer loop
      vertex -2.148188367486 1.1747859418392181 0
      vertex -2.219659887254238 1.4661479592323303 0
      vertex -2.148188367486 1.4747859463095665 0
    endloop
  endfacet
  facet normal 0 0 -1
    outer loop
      vertex -2.148188367486 1.1747859418392181 0
      vertex -2.148188367486 1.4747859463095665 0
      vertex -2.076716847717762 1.4661479592323303 0
    endloop
  endfacet
  facet normal 0 0 -1
    outer loop
      vertex -2.148188367486 1.1747859418392181 0
      vertex -2.076716847717762 1.4661479592323303 0
      vertex -2.009361132979393 1.4407314211130142 0
    endloop
  endfacet
  facet normal 0 0 -1
    outer loop
      vertex -2.148188367486 1.1747859418392181 0
      vertex -2.009361132979393 1.4407314211130142 0
      vertex -1.9500000029802322 1.3999999985098839 0
    endloop
  endfacet
  facet normal 0 0 -1
    outer loop
      vertex -2.148188367486 1.1747859418392181 0
      vertex -1.9500000029802322 1.3999999985098839 0
      vertex -0.7000000029802322 0.29999999701976776 0
    endloop
  endfacet
  facet normal 0 0 -1
    outer loop
      vertex -0.8981883674860001 0.07478594779968262 0
      vertex -2.148188367486 1.1747859418392181 0
      vertex -0.7000000029802322 0.29999999701976776 0
    endloop
  endfacet
  facet normal 0 0 1
    outer loop
      vertex -0.7000000029802322 0 0.7
      vertex 1.2999999970197678 0 0.7
      vertex 1.2999999970197678 0.29999999701976776 0.7
    endloop
  endfacet
  facet normal 0 0 1
    outer loop
      vertex -0.7000000029802322 0 0.7
      vertex 1.2999999970197678 0.29999999701976776 0.7
      vertex -0.7000000029802322 0.29999999701976776 0.7
    endloop
  endfacet
  facet normal 0 0 1
    outer loop
      vertex -0.7359958067536354 0.00216732919216156 0.7
      vertex -0.7000000029802322 0 0.7
      vertex -0.7000000029802322 0.29999999701976776 0.7
    endloop
  endfacet
  facet normal 0 0 1
    outer loop
      vertex -0.7714715152978897 0.008637987077236176 0.7
      vertex -0.7359958067536354 0.00216732919216156 0.7
      vertex -0.7000000029802322 0.29999999701976776 0.7
    endloop
  endfacet
  facet normal 0 0 1
    outer loop
      vertex -0.8059145510196686 0.019318491220474243 0.7
      vertex -0.7714715152978897 0.008637987077236176 0.7
      vertex -0.7000000029802322 0.29999999701976776 0.7
    endloop
  endfacet
  facet normal 0 0 1
    outer loop
      vertex -0.8388272374868393 0.03405451774597168 0.7
      vertex -0.8059145510196686 0.019318491220474243 0.7
      vertex -0.7000000029802322 0.29999999701976776 0.7
    endloop
  endfacet
  facet normal 0 0 1
    outer loop
      vertex -0.8697340339422226 0.05263315141201019 0.7
      vertex -0.8388272374868393 0.03405451774597168 0.7
      vertex -0.7000000029802322 0.29999999701976776 0.7
    endloop
  endfacet
  facet normal 0 0 1
    outer loop
      vertex -0.8981883674860001 0.07478594779968262 0.7
      vertex -0.8697340339422226 0.05263315141201019 0.7
      vertex -0.7000000029802322 0.29999999701976776 0.7
    endloop
  endfacet
  facet normal 0 0 1
    outer loop
      vertex -3.5963767394423485 0.29999999701976776 0.7
      vertex -4.0963767394423485 0.29999999701976776 0.7
      vertex -4.0963767394423485 0 0.7
    endloop
  endfacet
  facet normal 0 0 1
    outer loop
      vertex -3.5963767394423485 0.29999999701976776 0.7
      vertex -4.0963767394423485 0 0.7
      vertex -3.5963767394423485 0 0.7
    endloop
  endfacet
  facet normal 0 0 1
    outer loop
      vertex -3.5963767394423485 0.29999999701976776 0.7
      vertex -3.5963767394423485 0 0.7
      vertex -3.5603809282183647 0.00216732919216156 0.7
    endloop
  endfacet
  facet normal 0 0 1
    outer loop
      vertex -3.5963767394423485 0.29999999701976776 0.7
      vertex -3.5603809282183647 0.00216732919216156 0.7
      vertex -3.5249052196741104 0.008637987077236176 0.7
    endloop
  endfacet
  facet normal 0 0 1
    outer loop
      vertex -3.5963767394423485 0.29999999701976776 0.7
      vertex -3.5249052196741104 0.008637987077236176 0.7
      vertex -3.490462191402912 0.019318491220474243 0.7
    endloop
  endfacet
  facet normal 0 0 1
    outer loop
      vertex -3.5963767394423485 0.29999999701976776 0.7
      vertex -3.490462191402912 0.019318491220474243 0.7
      vertex -3.457549497485161 0.03405451774597168 0.7
    endloop
  endfacet
  facet normal 0 0 1
    outer loop
      vertex -3.5963767394423485 0.29999999701976776 0.7
      vertex -3.457549497485161 0.03405451774597168 0.7
      vertex -3.4266427010297775 0.05263315141201019 0.7
    endloop
  endfacet
  facet normal 0 0 1
    outer loop
      vertex -3.5963767394423485 0.29999999701976776 0.7
      vertex -3.4266427010297775 0.05263315141201019 0.7
      vertex -3.398188367486 0.07478594779968262 0.7
    endloop
  endfacet
  facet normal 0 0 1
    outer loop
      vertex -2.3463767394423485 1.3999999985098839 0.7
      vertex -3.5963767394423485 0.29999999701976776 0.7
      vertex -3.398188367486 0.07478594779968262 0.7
    endloop
  endfacet
  facet normal 0 0 1
    outer loop
      vertex -2.3463767394423485 1.3999999985098839 0.7
      vertex -3.398188367486 0.07478594779968262 0.7
      vertex -2.148188367486 1.1747859418392181 0.7
    endloop
  endfacet
  facet normal 0 0 1
    outer loop
      vertex -2.287015601992607 1.4407314211130142 0.7
      vertex -2.3463767394423485 1.3999999985098839 0.7
      vertex -2.148188367486 1.1747859418392181 0.7
    endloop
  endfacet
  facet normal 0 0 1
    outer loop
      vertex -2.219659887254238 1.4661479592323303 0.7
      vertex -2.287015601992607 1.4407314211130142 0.7
      vertex -2.148188367486 1.1747859418392181 0.7
    endloop
  endfacet
  facet normal 0 0 1
    outer loop
      vertex -2.148188367486 1.4747859463095665 0.7
      vertex -2.219659887254238 1.4661479592323303 0.7
      vertex -2.148188367486 1.1747859418392181 0.7
    endloop
  endfacet
  facet normal 0 0 1
    outer loop
      vertex -2.076716847717762 1.4661479592323303 0.7
      vertex -2.148188367486 1.4747859463095665 0.7
      vertex -2.148188367486 1.1747859418392181 0.7
    endloop
  endfacet
  facet normal 0 0 1
    outer loop
      vertex -2.009361132979393 1.4407314211130142 0.7
      vertex -2.076716847717762 1.4661479592323303 0.7
      vertex -2.148188367486 1.1747859418392181 0.7
    endloop
  endfacet
  facet normal 0 0 1
    outer loop
      vertex -1.9500000029802322 1.3999999985098839 0.7
      vertex -2.009361132979393 1.4407314211130142 0.7
      vertex -2.148188367486 1.1747859418392181 0.7
    endloop
  endfacet
  facet normal 0 0 1
    outer loop
      vertex -0.7000000029802322 0.29999999701976776 0.7
      vertex -1.9500000029802322 1.3999999985098839 0.7
      vertex -2.148188367486 1.1747859418392181 0.7
    endloop
  endfacet
  facet normal 0 0 1
    outer loop
      vertex -0.7000000029802322 0.29999999701976776 0.7
      vertex -2.148188367486 1.1747859418392181 0.7
      vertex -0.8981883674860001 0.07478594779968262 0.7
    endloop
  endfacet
endsolid OpenSCAD_Model
