<?xml version="1.0" encoding="UTF-8" standalone="no"?>
<!DOCTYPE svg PUBLIC "-//W3C//DTD SVG 1.1//EN"
 "http://www.w3.org/Graphics/SVG/1.1/DTD/svg11.dtd">
<!-- Generated by graphviz version 5.0.0 (20220707.1540)
 -->
<!-- Title: default Pages: 1 -->
<svg width="614pt" height="638pt"
 viewBox="0.00 0.00 614.16 638.00" xmlns="http://www.w3.org/2000/svg" xmlns:xlink="http://www.w3.org/1999/xlink">
<g id="graph0" class="graph" transform="scale(1 1) rotate(0) translate(4 634)">
<title>default</title>
<polygon fill="white" stroke="transparent" points="-4,4 -4,-634 610.16,-634 610.16,4 -4,4"/>
<!-- root_139 -->
<g id="node1" class="node">
<title>root_139</title>
<g id="a_node1"><a xlink:href="javascript:s=&quot;\(\)\nNone&quot;; console.log(s); alert(s);" xlink:title="root">
<ellipse fill="none" stroke="black" cx="27" cy="-396" rx="27" ry="18"/>
<text text-anchor="middle" x="27" y="-392.3" font-family="Times New Roman,serif" font-size="14.00">root</text>
</a>
</g>
</g>
<!-- default_140 -->
<g id="node2" class="node">
<title>default_140</title>
<g id="a_node2"><a xlink:href="javascript:s=&quot;\(&#x27;default&#x27;,\)\nTactileSwitchTL1105Lead&quot;; console.log(s); alert(s);" xlink:title="TactileSwitchTL1105Lead">
<ellipse fill="none" stroke="black" cx="186.19" cy="-558" rx="35.19" ry="18"/>
<text text-anchor="middle" x="186.19" y="-554.3" font-family="Times New Roman,serif" font-size="14.00">default</text>
</a>
</g>
</g>
<!-- root_139&#45;&gt;default_140 -->
<g id="edge1" class="edge">
<title>root_139&#45;&gt;default_140</title>
<path fill="none" stroke="black" d="M42.51,-410.95C69.92,-439.2 129.53,-500.64 162.36,-534.47"/>
<polygon fill="black" stroke="black" points="159.85,-536.91 169.33,-541.65 164.88,-532.04 159.85,-536.91"/>
</g>
<!-- 143 -->
<g id="node5" class="node">
<title>143</title>
<g id="a_node5"><a xlink:href="javascript:s=&quot;\(&quot;&#x27;body_edge&#x27;,\ &quot;,\)\nAnnotatedCoordinates&quot;; console.log(s); alert(s);" xlink:title="AnnotatedCoordinates">
<ellipse fill="none" stroke="black" cx="186.19" cy="-396" rx="60.39" ry="18"/>
<text text-anchor="middle" x="186.19" y="-392.3" font-family="Times New Roman,serif" font-size="14.00">&#39;body_edge&#39;, </text>
</a>
</g>
</g>
<!-- root_139&#45;&gt;143 -->
<g id="edge4" class="edge">
<title>root_139&#45;&gt;143</title>
<path fill="none" stroke="black" d="M54.31,-396C71.06,-396 93.61,-396 115.27,-396"/>
<polygon fill="black" stroke="black" points="115.46,-399.5 125.46,-396 115.46,-392.5 115.46,-399.5"/>
</g>
<!-- 159 -->
<g id="node21" class="node">
<title>159</title>
<g id="a_node21"><a xlink:href="javascript:s=&quot;\(&quot;&#x27;cage&#x27;,\ &#x27;face_centre&#x27;,\ 5,\ &quot;,\)\nAnnotatedCoordinates&quot;; console.log(s); alert(s);" xlink:title="AnnotatedCoordinates">
<ellipse fill="none" stroke="black" cx="186.19" cy="-153" rx="96.38" ry="18"/>
<text text-anchor="middle" x="186.19" y="-149.3" font-family="Times New Roman,serif" font-size="14.00">&#39;cage&#39;, &#39;face_centre&#39;, 5, </text>
</a>
</g>
</g>
<!-- root_139&#45;&gt;159 -->
<g id="edge20" class="edge">
<title>root_139&#45;&gt;159</title>
<path fill="none" stroke="black" d="M38.56,-379.68C65.25,-338.42 135.6,-229.66 168.18,-179.29"/>
<polygon fill="black" stroke="black" points="171.13,-181.17 173.63,-170.88 165.26,-177.37 171.13,-181.17"/>
</g>
<!-- terminal_141 -->
<g id="node3" class="node">
<title>terminal_141</title>
<g id="a_node3"><a xlink:href="javascript:s=&quot;\(&#x27;default&#x27;,\ &#x27;terminal&#x27;\)\nLinearExtrude&quot;; console.log(s); alert(s);" xlink:title="LinearExtrude">
<ellipse fill="none" stroke="black" cx="357.38" cy="-612" rx="38.99" ry="18"/>
<text text-anchor="middle" x="357.38" y="-608.3" font-family="Times New Roman,serif" font-size="14.00">terminal</text>
</a>
</g>
</g>
<!-- default_140&#45;&gt;terminal_141 -->
<g id="edge2" class="edge">
<title>default_140&#45;&gt;terminal_141</title>
<path fill="none" stroke="black" d="M216.28,-567.28C243.56,-575.99 284.63,-589.1 315.26,-598.87"/>
<polygon fill="black" stroke="black" points="314.21,-602.22 324.8,-601.92 316.34,-595.55 314.21,-602.22"/>
</g>
<!-- cage_142 -->
<g id="node4" class="node">
<title>cage_142</title>
<g id="a_node4"><a xlink:href="javascript:s=&quot;\(&#x27;default&#x27;,\ &#x27;cage&#x27;\)\nBox&quot;; console.log(s); alert(s);" xlink:title="Box">
<ellipse fill="none" stroke="black" cx="357.38" cy="-558" rx="27.1" ry="18"/>
<text text-anchor="middle" x="357.38" y="-554.3" font-family="Times New Roman,serif" font-size="14.00">cage</text>
</a>
</g>
</g>
<!-- default_140&#45;&gt;cage_142 -->
<g id="edge3" class="edge">
<title>default_140&#45;&gt;cage_142</title>
<path fill="none" stroke="black" d="M221.43,-558C249.98,-558 290.56,-558 319.76,-558"/>
<polygon fill="black" stroke="black" points="319.96,-561.5 329.96,-558 319.96,-554.5 319.96,-561.5"/>
</g>
<!-- coords_144 -->
<g id="node6" class="node">
<title>coords_144</title>
<g id="a_node6"><a xlink:href="javascript:s=&quot;\(&quot;&#x27;body_edge&#x27;,\ &quot;,\ &#x27;coords&#x27;\)\nCoordinates&quot;; console.log(s); alert(s);" xlink:title="Coordinates">
<ellipse fill="none" stroke="black" cx="357.38" cy="-504" rx="36.29" ry="18"/>
<text text-anchor="middle" x="357.38" y="-500.3" font-family="Times New Roman,serif" font-size="14.00">coords</text>
</a>
</g>
</g>
<!-- 143&#45;&gt;coords_144 -->
<g id="edge5" class="edge">
<title>143&#45;&gt;coords_144</title>
<path fill="none" stroke="black" d="M212.89,-412.4C243.14,-431.71 293.33,-463.76 325.62,-484.37"/>
<polygon fill="black" stroke="black" points="323.91,-487.43 334.23,-489.86 327.68,-481.53 323.91,-487.43"/>
</g>
<!-- x_155 -->
<g id="node17" class="node">
<title>x_155</title>
<g id="a_node17"><a xlink:href="javascript:s=&quot;\(&quot;&#x27;body_edge&#x27;,\ &quot;,\ &#x27;x&#x27;\)\nText&quot;; console.log(s); alert(s);" xlink:title="Text">
<ellipse fill="none" stroke="black" cx="357.38" cy="-450" rx="27" ry="18"/>
<text text-anchor="middle" x="357.38" y="-446.3" font-family="Times New Roman,serif" font-size="14.00">x</text>
</a>
</g>
</g>
<!-- 143&#45;&gt;x_155 -->
<g id="edge16" class="edge">
<title>143&#45;&gt;x_155</title>
<path fill="none" stroke="black" d="M228.15,-409.07C257.11,-418.32 295.47,-430.56 322.67,-439.24"/>
<polygon fill="black" stroke="black" points="321.91,-442.67 332.5,-442.38 324.04,-436 321.91,-442.67"/>
</g>
<!-- y_156 -->
<g id="node18" class="node">
<title>y_156</title>
<g id="a_node18"><a xlink:href="javascript:s=&quot;\(&quot;&#x27;body_edge&#x27;,\ &quot;,\ &#x27;y&#x27;\)\nText&quot;; console.log(s); alert(s);" xlink:title="Text">
<ellipse fill="none" stroke="black" cx="357.38" cy="-396" rx="27" ry="18"/>
<text text-anchor="middle" x="357.38" y="-392.3" font-family="Times New Roman,serif" font-size="14.00">y</text>
</a>
</g>
</g>
<!-- 143&#45;&gt;y_156 -->
<g id="edge17" class="edge">
<title>143&#45;&gt;y_156</title>
<path fill="none" stroke="black" d="M246.84,-396C271.26,-396 298.72,-396 320.04,-396"/>
<polygon fill="black" stroke="black" points="320.27,-399.5 330.27,-396 320.27,-392.5 320.27,-399.5"/>
</g>
<!-- z_157 -->
<g id="node19" class="node">
<title>z_157</title>
<g id="a_node19"><a xlink:href="javascript:s=&quot;\(&quot;&#x27;body_edge&#x27;,\ &quot;,\ &#x27;z&#x27;\)\nText&quot;; console.log(s); alert(s);" xlink:title="Text">
<ellipse fill="none" stroke="black" cx="357.38" cy="-342" rx="27" ry="18"/>
<text text-anchor="middle" x="357.38" y="-338.3" font-family="Times New Roman,serif" font-size="14.00">z</text>
</a>
</g>
</g>
<!-- 143&#45;&gt;z_157 -->
<g id="edge18" class="edge">
<title>143&#45;&gt;z_157</title>
<path fill="none" stroke="black" d="M228.15,-382.93C257.11,-373.68 295.47,-361.44 322.67,-352.76"/>
<polygon fill="black" stroke="black" points="324.04,-356 332.5,-349.62 321.91,-349.33 324.04,-356"/>
</g>
<!-- label_158 -->
<g id="node20" class="node">
<title>label_158</title>
<g id="a_node20"><a xlink:href="javascript:s=&quot;\(&quot;&#x27;body_edge&#x27;,\ &quot;,\ &#x27;label&#x27;\)\nText&quot;; console.log(s); alert(s);" xlink:title="Text">
<ellipse fill="none" stroke="black" cx="357.38" cy="-288" rx="27.1" ry="18"/>
<text text-anchor="middle" x="357.38" y="-284.3" font-family="Times New Roman,serif" font-size="14.00">label</text>
</a>
</g>
</g>
<!-- 143&#45;&gt;label_158 -->
<g id="edge19" class="edge">
<title>143&#45;&gt;label_158</title>
<path fill="none" stroke="black" d="M212.89,-379.6C244.15,-359.64 296.72,-326.08 328.81,-305.6"/>
<polygon fill="black" stroke="black" points="330.74,-308.52 337.28,-300.19 326.97,-302.62 330.74,-308.52"/>
</g>
<!-- origin_145 -->
<g id="node7" class="node">
<title>origin_145</title>
<g id="a_node7"><a xlink:href="javascript:s=&quot;\(&quot;&#x27;body_edge&#x27;,\ &quot;,\ &#x27;coords&#x27;,\ &#x27;origin&#x27;\)\nCoordinatesCage&quot;; console.log(s); alert(s);" xlink:title="CoordinatesCage">
<ellipse fill="none" stroke="black" cx="473.32" cy="-612" rx="31.4" ry="18"/>
<text text-anchor="middle" x="473.32" y="-608.3" font-family="Times New Roman,serif" font-size="14.00">origin</text>
</a>
</g>
</g>
<!-- coords_144&#45;&gt;origin_145 -->
<g id="edge6" class="edge">
<title>coords_144&#45;&gt;origin_145</title>
<path fill="none" stroke="black" d="M380.77,-517.86C386.19,-521.76 391.75,-526.24 396.38,-531 416.47,-551.7 412.04,-564.54 432.38,-585 435.36,-588.01 438.73,-590.88 442.21,-593.55"/>
<polygon fill="black" stroke="black" points="440.24,-596.45 450.41,-599.41 444.31,-590.75 440.24,-596.45"/>
</g>
<!-- x_arrow_146 -->
<g id="node8" class="node">
<title>x_arrow_146</title>
<g id="a_node8"><a xlink:href="javascript:s=&quot;\(&quot;&#x27;body_edge&#x27;,\ &quot;,\ &#x27;coords&#x27;,\ &#x27;x_arrow&#x27;\)\nArrow&quot;; console.log(s); alert(s);" xlink:title="Arrow">
<ellipse fill="none" stroke="black" cx="473.32" cy="-558" rx="40.89" ry="18"/>
<text text-anchor="middle" x="473.32" y="-554.3" font-family="Times New Roman,serif" font-size="14.00">x_arrow</text>
</a>
</g>
</g>
<!-- coords_144&#45;&gt;x_arrow_146 -->
<g id="edge7" class="edge">
<title>coords_144&#45;&gt;x_arrow_146</title>
<path fill="none" stroke="black" d="M384.23,-516.25C399.27,-523.38 418.49,-532.49 435.13,-540.37"/>
<polygon fill="black" stroke="black" points="434.04,-543.73 444.58,-544.85 437.04,-537.41 434.04,-543.73"/>
</g>
<!-- y_arrow_149 -->
<g id="node11" class="node">
<title>y_arrow_149</title>
<g id="a_node11"><a xlink:href="javascript:s=&quot;\(&quot;&#x27;body_edge&#x27;,\ &quot;,\ &#x27;coords&#x27;,\ &#x27;y_arrow&#x27;\)\nArrow&quot;; console.log(s); alert(s);" xlink:title="Arrow">
<ellipse fill="none" stroke="black" cx="473.32" cy="-504" rx="40.89" ry="18"/>
<text text-anchor="middle" x="473.32" y="-500.3" font-family="Times New Roman,serif" font-size="14.00">y_arrow</text>
</a>
</g>
</g>
<!-- coords_144&#45;&gt;y_arrow_149 -->
<g id="edge10" class="edge">
<title>coords_144&#45;&gt;y_arrow_149</title>
<path fill="none" stroke="black" d="M393.81,-504C402.73,-504 412.48,-504 421.98,-504"/>
<polygon fill="black" stroke="black" points="422.14,-507.5 432.14,-504 422.14,-500.5 422.14,-507.5"/>
</g>
<!-- z_arrow_152 -->
<g id="node14" class="node">
<title>z_arrow_152</title>
<g id="a_node14"><a xlink:href="javascript:s=&quot;\(&quot;&#x27;body_edge&#x27;,\ &quot;,\ &#x27;coords&#x27;,\ &#x27;z_arrow&#x27;\)\nArrow&quot;; console.log(s); alert(s);" xlink:title="Arrow">
<ellipse fill="none" stroke="black" cx="473.32" cy="-396" rx="40.09" ry="18"/>
<text text-anchor="middle" x="473.32" y="-392.3" font-family="Times New Roman,serif" font-size="14.00">z_arrow</text>
</a>
</g>
</g>
<!-- coords_144&#45;&gt;z_arrow_152 -->
<g id="edge13" class="edge">
<title>coords_144&#45;&gt;z_arrow_152</title>
<path fill="none" stroke="black" d="M380.25,-489.58C385.68,-485.7 391.38,-481.36 396.38,-477 416.47,-459.46 437.03,-437.22 451.68,-420.48"/>
<polygon fill="black" stroke="black" points="454.47,-422.6 458.37,-412.75 449.18,-418.02 454.47,-422.6"/>
</g>
<!-- stem_147 -->
<g id="node9" class="node">
<title>stem_147</title>
<g id="a_node9"><a xlink:href="javascript:s=&quot;\(&quot;&#x27;body_edge&#x27;,\ &quot;,\ &#x27;coords&#x27;,\ &#x27;x_arrow&#x27;,\ &#x27;stem&#x27;\)\nCone&quot;; console.log(s); alert(s);" xlink:title="Cone">
<ellipse fill="none" stroke="black" cx="578.22" cy="-612" rx="27.9" ry="18"/>
<text text-anchor="middle" x="578.22" y="-608.3" font-family="Times New Roman,serif" font-size="14.00">stem</text>
</a>
</g>
</g>
<!-- x_arrow_146&#45;&gt;stem_147 -->
<g id="edge8" class="edge">
<title>x_arrow_146&#45;&gt;stem_147</title>
<path fill="none" stroke="black" d="M500.29,-571.63C514.45,-579.06 532.06,-588.3 546.85,-596.07"/>
<polygon fill="black" stroke="black" points="545.63,-599.37 556.11,-600.92 548.88,-593.18 545.63,-599.37"/>
</g>
<!-- head_148 -->
<g id="node10" class="node">
<title>head_148</title>
<g id="a_node10"><a xlink:href="javascript:s=&quot;\(&quot;&#x27;body_edge&#x27;,\ &quot;,\ &#x27;coords&#x27;,\ &#x27;x_arrow&#x27;,\ &#x27;head&#x27;\)\nCone&quot;; console.log(s); alert(s);" xlink:title="Cone">
<ellipse fill="none" stroke="black" cx="578.22" cy="-558" rx="27.9" ry="18"/>
<text text-anchor="middle" x="578.22" y="-554.3" font-family="Times New Roman,serif" font-size="14.00">head</text>
</a>
</g>
</g>
<!-- x_arrow_146&#45;&gt;head_148 -->
<g id="edge9" class="edge">
<title>x_arrow_146&#45;&gt;head_148</title>
<path fill="none" stroke="black" d="M514.4,-558C522.81,-558 531.65,-558 539.95,-558"/>
<polygon fill="black" stroke="black" points="540.11,-561.5 550.11,-558 540.11,-554.5 540.11,-561.5"/>
</g>
<!-- stem_150 -->
<g id="node12" class="node">
<title>stem_150</title>
<g id="a_node12"><a xlink:href="javascript:s=&quot;\(&quot;&#x27;body_edge&#x27;,\ &quot;,\ &#x27;coords&#x27;,\ &#x27;y_arrow&#x27;,\ &#x27;stem&#x27;\)\nCone&quot;; console.log(s); alert(s);" xlink:title="Cone">
<ellipse fill="none" stroke="black" cx="578.22" cy="-504" rx="27.9" ry="18"/>
<text text-anchor="middle" x="578.22" y="-500.3" font-family="Times New Roman,serif" font-size="14.00">stem</text>
</a>
</g>
</g>
<!-- y_arrow_149&#45;&gt;stem_150 -->
<g id="edge11" class="edge">
<title>y_arrow_149&#45;&gt;stem_150</title>
<path fill="none" stroke="black" d="M514.4,-504C522.81,-504 531.65,-504 539.95,-504"/>
<polygon fill="black" stroke="black" points="540.11,-507.5 550.11,-504 540.11,-500.5 540.11,-507.5"/>
</g>
<!-- head_151 -->
<g id="node13" class="node">
<title>head_151</title>
<g id="a_node13"><a xlink:href="javascript:s=&quot;\(&quot;&#x27;body_edge&#x27;,\ &quot;,\ &#x27;coords&#x27;,\ &#x27;y_arrow&#x27;,\ &#x27;head&#x27;\)\nCone&quot;; console.log(s); alert(s);" xlink:title="Cone">
<ellipse fill="none" stroke="black" cx="578.22" cy="-450" rx="27.9" ry="18"/>
<text text-anchor="middle" x="578.22" y="-446.3" font-family="Times New Roman,serif" font-size="14.00">head</text>
</a>
</g>
</g>
<!-- y_arrow_149&#45;&gt;head_151 -->
<g id="edge12" class="edge">
<title>y_arrow_149&#45;&gt;head_151</title>
<path fill="none" stroke="black" d="M500.29,-490.37C514.45,-482.94 532.06,-473.7 546.85,-465.93"/>
<polygon fill="black" stroke="black" points="548.88,-468.82 556.11,-461.08 545.63,-462.63 548.88,-468.82"/>
</g>
<!-- stem_153 -->
<g id="node15" class="node">
<title>stem_153</title>
<g id="a_node15"><a xlink:href="javascript:s=&quot;\(&quot;&#x27;body_edge&#x27;,\ &quot;,\ &#x27;coords&#x27;,\ &#x27;z_arrow&#x27;,\ &#x27;stem&#x27;\)\nCone&quot;; console.log(s); alert(s);" xlink:title="Cone">
<ellipse fill="none" stroke="black" cx="578.22" cy="-396" rx="27.9" ry="18"/>
<text text-anchor="middle" x="578.22" y="-392.3" font-family="Times New Roman,serif" font-size="14.00">stem</text>
</a>
</g>
</g>
<!-- z_arrow_152&#45;&gt;stem_153 -->
<g id="edge14" class="edge">
<title>z_arrow_152&#45;&gt;stem_153</title>
<path fill="none" stroke="black" d="M513.81,-396C522.43,-396 531.53,-396 540.06,-396"/>
<polygon fill="black" stroke="black" points="540.11,-399.5 550.11,-396 540.11,-392.5 540.11,-399.5"/>
</g>
<!-- head_154 -->
<g id="node16" class="node">
<title>head_154</title>
<g id="a_node16"><a xlink:href="javascript:s=&quot;\(&quot;&#x27;body_edge&#x27;,\ &quot;,\ &#x27;coords&#x27;,\ &#x27;z_arrow&#x27;,\ &#x27;head&#x27;\)\nCone&quot;; console.log(s); alert(s);" xlink:title="Cone">
<ellipse fill="none" stroke="black" cx="578.22" cy="-342" rx="27.9" ry="18"/>
<text text-anchor="middle" x="578.22" y="-338.3" font-family="Times New Roman,serif" font-size="14.00">head</text>
</a>
</g>
</g>
<!-- z_arrow_152&#45;&gt;head_154 -->
<g id="edge15" class="edge">
<title>z_arrow_152&#45;&gt;head_154</title>
<path fill="none" stroke="black" d="M500.02,-382.51C514.32,-375.01 532.19,-365.63 547.13,-357.79"/>
<polygon fill="black" stroke="black" points="548.77,-360.88 556,-353.14 545.52,-354.68 548.77,-360.88"/>
</g>
<!-- coords_160 -->
<g id="node22" class="node">
<title>coords_160</title>
<g id="a_node22"><a xlink:href="javascript:s=&quot;\(&quot;&#x27;cage&#x27;,\ &#x27;face_centre&#x27;,\ 5,\ &quot;,\ &#x27;coords&#x27;\)\nCoordinates&quot;; console.log(s); alert(s);" xlink:title="Coordinates">
<ellipse fill="none" stroke="black" cx="357.38" cy="-234" rx="36.29" ry="18"/>
<text text-anchor="middle" x="357.38" y="-230.3" font-family="Times New Roman,serif" font-size="14.00">coords</text>
</a>
</g>
</g>
<!-- 159&#45;&gt;coords_160 -->
<g id="edge21" class="edge">
<title>159&#45;&gt;coords_160</title>
<path fill="none" stroke="black" d="M222.25,-169.78C251.29,-183.69 292.37,-203.35 321.39,-217.25"/>
<polygon fill="black" stroke="black" points="320.21,-220.56 330.74,-221.72 323.23,-214.25 320.21,-220.56"/>
</g>
<!-- x_171 -->
<g id="node33" class="node">
<title>x_171</title>
<g id="a_node33"><a xlink:href="javascript:s=&quot;\(&quot;&#x27;cage&#x27;,\ &#x27;face_centre&#x27;,\ 5,\ &quot;,\ &#x27;x&#x27;\)\nText&quot;; console.log(s); alert(s);" xlink:title="Text">
<ellipse fill="none" stroke="black" cx="357.38" cy="-180" rx="27" ry="18"/>
<text text-anchor="middle" x="357.38" y="-176.3" font-family="Times New Roman,serif" font-size="14.00">x</text>
</a>
</g>
</g>
<!-- 159&#45;&gt;x_171 -->
<g id="edge32" class="edge">
<title>159&#45;&gt;x_171</title>
<path fill="none" stroke="black" d="M259.92,-164.61C281.04,-167.98 303.16,-171.51 320.88,-174.33"/>
<polygon fill="black" stroke="black" points="320.34,-177.79 330.76,-175.91 321.44,-170.88 320.34,-177.79"/>
</g>
<!-- y_172 -->
<g id="node34" class="node">
<title>y_172</title>
<g id="a_node34"><a xlink:href="javascript:s=&quot;\(&quot;&#x27;cage&#x27;,\ &#x27;face_centre&#x27;,\ 5,\ &quot;,\ &#x27;y&#x27;\)\nText&quot;; console.log(s); alert(s);" xlink:title="Text">
<ellipse fill="none" stroke="black" cx="357.38" cy="-126" rx="27" ry="18"/>
<text text-anchor="middle" x="357.38" y="-122.3" font-family="Times New Roman,serif" font-size="14.00">y</text>
</a>
</g>
</g>
<!-- 159&#45;&gt;y_172 -->
<g id="edge33" class="edge">
<title>159&#45;&gt;y_172</title>
<path fill="none" stroke="black" d="M259.92,-141.39C281.04,-138.02 303.16,-134.49 320.88,-131.67"/>
<polygon fill="black" stroke="black" points="321.44,-135.12 330.76,-130.09 320.34,-128.21 321.44,-135.12"/>
</g>
<!-- z_173 -->
<g id="node35" class="node">
<title>z_173</title>
<g id="a_node35"><a xlink:href="javascript:s=&quot;\(&quot;&#x27;cage&#x27;,\ &#x27;face_centre&#x27;,\ 5,\ &quot;,\ &#x27;z&#x27;\)\nText&quot;; console.log(s); alert(s);" xlink:title="Text">
<ellipse fill="none" stroke="black" cx="357.38" cy="-72" rx="27" ry="18"/>
<text text-anchor="middle" x="357.38" y="-68.3" font-family="Times New Roman,serif" font-size="14.00">z</text>
</a>
</g>
</g>
<!-- 159&#45;&gt;z_173 -->
<g id="edge34" class="edge">
<title>159&#45;&gt;z_173</title>
<path fill="none" stroke="black" d="M222.25,-136.22C252.68,-121.65 296.33,-100.75 325.48,-86.79"/>
<polygon fill="black" stroke="black" points="327.26,-89.82 334.77,-82.35 324.24,-83.51 327.26,-89.82"/>
</g>
<!-- label_174 -->
<g id="node36" class="node">
<title>label_174</title>
<g id="a_node36"><a xlink:href="javascript:s=&quot;\(&quot;&#x27;cage&#x27;,\ &#x27;face_centre&#x27;,\ 5,\ &quot;,\ &#x27;label&#x27;\)\nText&quot;; console.log(s); alert(s);" xlink:title="Text">
<ellipse fill="none" stroke="black" cx="357.38" cy="-18" rx="27.1" ry="18"/>
<text text-anchor="middle" x="357.38" y="-14.3" font-family="Times New Roman,serif" font-size="14.00">label</text>
</a>
</g>
</g>
<!-- 159&#45;&gt;label_174 -->
<g id="edge35" class="edge">
<title>159&#45;&gt;label_174</title>
<path fill="none" stroke="black" d="M207.73,-135.33C233.25,-113.55 278.32,-75.66 318.38,-45 321.85,-42.34 325.55,-39.61 329.22,-36.94"/>
<polygon fill="black" stroke="black" points="331.54,-39.59 337.63,-30.92 327.47,-33.9 331.54,-39.59"/>
</g>
<!-- origin_161 -->
<g id="node23" class="node">
<title>origin_161</title>
<g id="a_node23"><a xlink:href="javascript:s=&quot;\(&quot;&#x27;cage&#x27;,\ &#x27;face_centre&#x27;,\ 5,\ &quot;,\ &#x27;coords&#x27;,\ &#x27;origin&#x27;\)\nCoordinatesCage&quot;; console.log(s); alert(s);" xlink:title="CoordinatesCage">
<ellipse fill="none" stroke="black" cx="473.32" cy="-288" rx="31.4" ry="18"/>
<text text-anchor="middle" x="473.32" y="-284.3" font-family="Times New Roman,serif" font-size="14.00">origin</text>
</a>
</g>
</g>
<!-- coords_160&#45;&gt;origin_161 -->
<g id="edge22" class="edge">
<title>coords_160&#45;&gt;origin_161</title>
<path fill="none" stroke="black" d="M384.23,-246.25C400.52,-253.97 421.71,-264.01 439.22,-272.31"/>
<polygon fill="black" stroke="black" points="437.98,-275.6 448.51,-276.72 440.97,-269.27 437.98,-275.6"/>
</g>
<!-- x_arrow_162 -->
<g id="node24" class="node">
<title>x_arrow_162</title>
<g id="a_node24"><a xlink:href="javascript:s=&quot;\(&quot;&#x27;cage&#x27;,\ &#x27;face_centre&#x27;,\ 5,\ &quot;,\ &#x27;coords&#x27;,\ &#x27;x_arrow&#x27;\)\nArrow&quot;; console.log(s); alert(s);" xlink:title="Arrow">
<ellipse fill="none" stroke="black" cx="473.32" cy="-234" rx="40.89" ry="18"/>
<text text-anchor="middle" x="473.32" y="-230.3" font-family="Times New Roman,serif" font-size="14.00">x_arrow</text>
</a>
</g>
</g>
<!-- coords_160&#45;&gt;x_arrow_162 -->
<g id="edge23" class="edge">
<title>coords_160&#45;&gt;x_arrow_162</title>
<path fill="none" stroke="black" d="M393.81,-234C402.73,-234 412.48,-234 421.98,-234"/>
<polygon fill="black" stroke="black" points="422.14,-237.5 432.14,-234 422.14,-230.5 422.14,-237.5"/>
</g>
<!-- y_arrow_165 -->
<g id="node27" class="node">
<title>y_arrow_165</title>
<g id="a_node27"><a xlink:href="javascript:s=&quot;\(&quot;&#x27;cage&#x27;,\ &#x27;face_centre&#x27;,\ 5,\ &quot;,\ &#x27;coords&#x27;,\ &#x27;y_arrow&#x27;\)\nArrow&quot;; console.log(s); alert(s);" xlink:title="Arrow">
<ellipse fill="none" stroke="black" cx="473.32" cy="-180" rx="40.89" ry="18"/>
<text text-anchor="middle" x="473.32" y="-176.3" font-family="Times New Roman,serif" font-size="14.00">y_arrow</text>
</a>
</g>
</g>
<!-- coords_160&#45;&gt;y_arrow_165 -->
<g id="edge26" class="edge">
<title>coords_160&#45;&gt;y_arrow_165</title>
<path fill="none" stroke="black" d="M384.23,-221.75C399.27,-214.62 418.49,-205.51 435.13,-197.63"/>
<polygon fill="black" stroke="black" points="437.04,-200.59 444.58,-193.15 434.04,-194.27 437.04,-200.59"/>
</g>
<!-- z_arrow_168 -->
<g id="node30" class="node">
<title>z_arrow_168</title>
<g id="a_node30"><a xlink:href="javascript:s=&quot;\(&quot;&#x27;cage&#x27;,\ &#x27;face_centre&#x27;,\ 5,\ &quot;,\ &#x27;coords&#x27;,\ &#x27;z_arrow&#x27;\)\nArrow&quot;; console.log(s); alert(s);" xlink:title="Arrow">
<ellipse fill="none" stroke="black" cx="473.32" cy="-72" rx="40.09" ry="18"/>
<text text-anchor="middle" x="473.32" y="-68.3" font-family="Times New Roman,serif" font-size="14.00">z_arrow</text>
</a>
</g>
</g>
<!-- coords_160&#45;&gt;z_arrow_168 -->
<g id="edge29" class="edge">
<title>coords_160&#45;&gt;z_arrow_168</title>
<path fill="none" stroke="black" d="M381.42,-220.09C386.71,-216.25 392.05,-211.81 396.38,-207 412.16,-189.46 442,-132.52 459.2,-98.45"/>
<polygon fill="black" stroke="black" points="462.33,-100 463.69,-89.5 456.08,-96.86 462.33,-100"/>
</g>
<!-- stem_163 -->
<g id="node25" class="node">
<title>stem_163</title>
<g id="a_node25"><a xlink:href="javascript:s=&quot;\(&quot;&#x27;cage&#x27;,\ &#x27;face_centre&#x27;,\ 5,\ &quot;,\ &#x27;coords&#x27;,\ &#x27;x_arrow&#x27;,\ &#x27;stem&#x27;\)\nCone&quot;; console.log(s); alert(s);" xlink:title="Cone">
<ellipse fill="none" stroke="black" cx="578.22" cy="-288" rx="27.9" ry="18"/>
<text text-anchor="middle" x="578.22" y="-284.3" font-family="Times New Roman,serif" font-size="14.00">stem</text>
</a>
</g>
</g>
<!-- x_arrow_162&#45;&gt;stem_163 -->
<g id="edge24" class="edge">
<title>x_arrow_162&#45;&gt;stem_163</title>
<path fill="none" stroke="black" d="M500.29,-247.63C514.45,-255.06 532.06,-264.3 546.85,-272.07"/>
<polygon fill="black" stroke="black" points="545.63,-275.37 556.11,-276.92 548.88,-269.18 545.63,-275.37"/>
</g>
<!-- head_164 -->
<g id="node26" class="node">
<title>head_164</title>
<g id="a_node26"><a xlink:href="javascript:s=&quot;\(&quot;&#x27;cage&#x27;,\ &#x27;face_centre&#x27;,\ 5,\ &quot;,\ &#x27;coords&#x27;,\ &#x27;x_arrow&#x27;,\ &#x27;head&#x27;\)\nCone&quot;; console.log(s); alert(s);" xlink:title="Cone">
<ellipse fill="none" stroke="black" cx="578.22" cy="-234" rx="27.9" ry="18"/>
<text text-anchor="middle" x="578.22" y="-230.3" font-family="Times New Roman,serif" font-size="14.00">head</text>
</a>
</g>
</g>
<!-- x_arrow_162&#45;&gt;head_164 -->
<g id="edge25" class="edge">
<title>x_arrow_162&#45;&gt;head_164</title>
<path fill="none" stroke="black" d="M514.4,-234C522.81,-234 531.65,-234 539.95,-234"/>
<polygon fill="black" stroke="black" points="540.11,-237.5 550.11,-234 540.11,-230.5 540.11,-237.5"/>
</g>
<!-- stem_166 -->
<g id="node28" class="node">
<title>stem_166</title>
<g id="a_node28"><a xlink:href="javascript:s=&quot;\(&quot;&#x27;cage&#x27;,\ &#x27;face_centre&#x27;,\ 5,\ &quot;,\ &#x27;coords&#x27;,\ &#x27;y_arrow&#x27;,\ &#x27;stem&#x27;\)\nCone&quot;; console.log(s); alert(s);" xlink:title="Cone">
<ellipse fill="none" stroke="black" cx="578.22" cy="-180" rx="27.9" ry="18"/>
<text text-anchor="middle" x="578.22" y="-176.3" font-family="Times New Roman,serif" font-size="14.00">stem</text>
</a>
</g>
</g>
<!-- y_arrow_165&#45;&gt;stem_166 -->
<g id="edge27" class="edge">
<title>y_arrow_165&#45;&gt;stem_166</title>
<path fill="none" stroke="black" d="M514.4,-180C522.81,-180 531.65,-180 539.95,-180"/>
<polygon fill="black" stroke="black" points="540.11,-183.5 550.11,-180 540.11,-176.5 540.11,-183.5"/>
</g>
<!-- head_167 -->
<g id="node29" class="node">
<title>head_167</title>
<g id="a_node29"><a xlink:href="javascript:s=&quot;\(&quot;&#x27;cage&#x27;,\ &#x27;face_centre&#x27;,\ 5,\ &quot;,\ &#x27;coords&#x27;,\ &#x27;y_arrow&#x27;,\ &#x27;head&#x27;\)\nCone&quot;; console.log(s); alert(s);" xlink:title="Cone">
<ellipse fill="none" stroke="black" cx="578.22" cy="-126" rx="27.9" ry="18"/>
<text text-anchor="middle" x="578.22" y="-122.3" font-family="Times New Roman,serif" font-size="14.00">head</text>
</a>
</g>
</g>
<!-- y_arrow_165&#45;&gt;head_167 -->
<g id="edge28" class="edge">
<title>y_arrow_165&#45;&gt;head_167</title>
<path fill="none" stroke="black" d="M500.29,-166.37C514.45,-158.94 532.06,-149.7 546.85,-141.93"/>
<polygon fill="black" stroke="black" points="548.88,-144.82 556.11,-137.08 545.63,-138.63 548.88,-144.82"/>
</g>
<!-- stem_169 -->
<g id="node31" class="node">
<title>stem_169</title>
<g id="a_node31"><a xlink:href="javascript:s=&quot;\(&quot;&#x27;cage&#x27;,\ &#x27;face_centre&#x27;,\ 5,\ &quot;,\ &#x27;coords&#x27;,\ &#x27;z_arrow&#x27;,\ &#x27;stem&#x27;\)\nCone&quot;; console.log(s); alert(s);" xlink:title="Cone">
<ellipse fill="none" stroke="black" cx="578.22" cy="-72" rx="27.9" ry="18"/>
<text text-anchor="middle" x="578.22" y="-68.3" font-family="Times New Roman,serif" font-size="14.00">stem</text>
</a>
</g>
</g>
<!-- z_arrow_168&#45;&gt;stem_169 -->
<g id="edge30" class="edge">
<title>z_arrow_168&#45;&gt;stem_169</title>
<path fill="none" stroke="black" d="M513.81,-72C522.43,-72 531.53,-72 540.06,-72"/>
<polygon fill="black" stroke="black" points="540.11,-75.5 550.11,-72 540.11,-68.5 540.11,-75.5"/>
</g>
<!-- head_170 -->
<g id="node32" class="node">
<title>head_170</title>
<g id="a_node32"><a xlink:href="javascript:s=&quot;\(&quot;&#x27;cage&#x27;,\ &#x27;face_centre&#x27;,\ 5,\ &quot;,\ &#x27;coords&#x27;,\ &#x27;z_arrow&#x27;,\ &#x27;head&#x27;\)\nCone&quot;; console.log(s); alert(s);" xlink:title="Cone">
<ellipse fill="none" stroke="black" cx="578.22" cy="-18" rx="27.9" ry="18"/>
<text text-anchor="middle" x="578.22" y="-14.3" font-family="Times New Roman,serif" font-size="14.00">head</text>
</a>
</g>
</g>
<!-- z_arrow_168&#45;&gt;head_170 -->
<g id="edge31" class="edge">
<title>z_arrow_168&#45;&gt;head_170</title>
<path fill="none" stroke="black" d="M500.02,-58.51C514.32,-51.01 532.19,-41.63 547.13,-33.79"/>
<polygon fill="black" stroke="black" points="548.77,-36.88 556,-29.14 545.52,-30.68 548.77,-36.88"/>
</g>
</g>
</svg>
