<?xml version="1.0" encoding="UTF-8" standalone="no"?>
<!DOCTYPE svg PUBLIC "-//W3C//DTD SVG 1.1//EN"
 "http://www.w3.org/Graphics/SVG/1.1/DTD/svg11.dtd">
<!-- Generated by graphviz version 5.0.0 (20220707.1540)
 -->
<!-- Title: default Pages: 1 -->
<svg width="734pt" height="894pt"
 viewBox="0.00 0.00 733.75 894.00" xmlns="http://www.w3.org/2000/svg" xmlns:xlink="http://www.w3.org/1999/xlink">
<g id="graph0" class="graph" transform="scale(1 1) rotate(0) translate(4 890)">
<title>default</title>
<polygon fill="white" stroke="transparent" points="-4,4 -4,-890 729.75,-890 729.75,4 -4,4"/>
<!-- root_175 -->
<g id="node1" class="node">
<title>root_175</title>
<g id="a_node1"><a xlink:href="javascript:s=&quot;\(\)\nNone&quot;; console.log(s); alert(s);" xlink:title="root">
<ellipse fill="none" stroke="black" cx="27" cy="-409" rx="27" ry="18"/>
<text text-anchor="middle" x="27" y="-405.3" font-family="Times New Roman,serif" font-size="14.00">root</text>
</a>
</g>
</g>
<!-- default_176 -->
<g id="node2" class="node">
<title>default_176</title>
<g id="a_node2"><a xlink:href="javascript:s=&quot;\(&#x27;default&#x27;,\)\nTactileSwitchTL59&quot;; console.log(s); alert(s);" xlink:title="TactileSwitchTL59">
<ellipse fill="none" stroke="black" cx="200.49" cy="-733" rx="35.19" ry="18"/>
<text text-anchor="middle" x="200.49" y="-729.3" font-family="Times New Roman,serif" font-size="14.00">default</text>
</a>
</g>
</g>
<!-- root_175&#45;&gt;default_176 -->
<g id="edge1" class="edge">
<title>root_175&#45;&gt;default_176</title>
<path fill="none" stroke="black" d="M36.98,-425.96C65.03,-478.97 151.22,-641.8 185.35,-706.29"/>
<polygon fill="black" stroke="black" points="182.41,-708.22 190.18,-715.42 188.6,-704.94 182.41,-708.22"/>
</g>
<!-- 184 -->
<g id="node10" class="node">
<title>184</title>
<g id="a_node10"><a xlink:href="javascript:s=&quot;\(&quot;&#x27;lead_hole&#x27;,\ 1,\ at_end=True&quot;,\)\nAnnotatedCoordinates&quot;; console.log(s); alert(s);" xlink:title="AnnotatedCoordinates">
<ellipse fill="none" stroke="black" cx="200.49" cy="-409" rx="110.48" ry="18"/>
<text text-anchor="middle" x="200.49" y="-405.3" font-family="Times New Roman,serif" font-size="14.00">&#39;lead_hole&#39;, 1, at_end=True</text>
</a>
</g>
</g>
<!-- root_175&#45;&gt;184 -->
<g id="edge9" class="edge">
<title>root_175&#45;&gt;184</title>
<path fill="none" stroke="black" d="M54.05,-409C61.63,-409 70.44,-409 79.91,-409"/>
<polygon fill="black" stroke="black" points="80,-412.5 90,-409 80,-405.5 80,-412.5"/>
</g>
<!-- 200 -->
<g id="node26" class="node">
<title>200</title>
<g id="a_node26"><a xlink:href="javascript:s=&quot;\(&quot;&#x27;lead_hole&#x27;,\ 2,\ at_end=True&quot;,\)\nAnnotatedCoordinates&quot;; console.log(s); alert(s);" xlink:title="AnnotatedCoordinates">
<ellipse fill="none" stroke="black" cx="200.49" cy="-153" rx="110.48" ry="18"/>
<text text-anchor="middle" x="200.49" y="-149.3" font-family="Times New Roman,serif" font-size="14.00">&#39;lead_hole&#39;, 2, at_end=True</text>
</a>
</g>
</g>
<!-- root_175&#45;&gt;200 -->
<g id="edge25" class="edge">
<title>root_175&#45;&gt;200</title>
<path fill="none" stroke="black" d="M38.99,-392.6C67.92,-349.41 146.4,-232.26 181.78,-179.44"/>
<polygon fill="black" stroke="black" points="184.81,-181.21 187.46,-170.95 178.99,-177.31 184.81,-181.21"/>
</g>
<!-- body_177 -->
<g id="node3" class="node">
<title>body_177</title>
<g id="a_node3"><a xlink:href="javascript:s=&quot;\(&#x27;default&#x27;,\ &#x27;body&#x27;\)\nBox&quot;; console.log(s); alert(s);" xlink:title="Box">
<ellipse fill="none" stroke="black" cx="431.47" cy="-868" rx="29.8" ry="18"/>
<text text-anchor="middle" x="431.47" y="-864.3" font-family="Times New Roman,serif" font-size="14.00">body</text>
</a>
</g>
</g>
<!-- default_176&#45;&gt;body_177 -->
<g id="edge2" class="edge">
<title>default_176&#45;&gt;body_177</title>
<path fill="none" stroke="black" d="M218.6,-748.66C244.59,-771.73 296.36,-814.93 346.98,-841 361.51,-848.48 378.51,-854.43 393.38,-858.82"/>
<polygon fill="black" stroke="black" points="392.69,-862.27 403.27,-861.61 394.59,-855.53 392.69,-862.27"/>
</g>
<!-- shaft_178 -->
<g id="node4" class="node">
<title>shaft_178</title>
<g id="a_node4"><a xlink:href="javascript:s=&quot;\(&#x27;default&#x27;,\ &#x27;shaft&#x27;\)\nCone&quot;; console.log(s); alert(s);" xlink:title="Cone">
<ellipse fill="none" stroke="black" cx="431.47" cy="-814" rx="28.7" ry="18"/>
<text text-anchor="middle" x="431.47" y="-810.3" font-family="Times New Roman,serif" font-size="14.00">shaft</text>
</a>
</g>
</g>
<!-- default_176&#45;&gt;shaft_178 -->
<g id="edge3" class="edge">
<title>default_176&#45;&gt;shaft_178</title>
<path fill="none" stroke="black" d="M228.98,-743.6C258.15,-754.76 305.62,-772.64 346.98,-787 362.88,-792.52 380.61,-798.31 395.63,-803.1"/>
<polygon fill="black" stroke="black" points="394.95,-806.55 405.54,-806.24 397.06,-799.88 394.95,-806.55"/>
</g>
<!-- lead_pos_cage_179 -->
<g id="node5" class="node">
<title>lead_pos_cage_179</title>
<g id="a_node5"><a xlink:href="javascript:s=&quot;\(&#x27;default&#x27;,\ \(&#x27;lead_pos_cage&#x27;,\ 0\)\)\nBox&quot;; console.log(s); alert(s);" xlink:title="Box">
<ellipse fill="none" stroke="black" cx="431.47" cy="-760" rx="84.49" ry="18"/>
<text text-anchor="middle" x="431.47" y="-756.3" font-family="Times New Roman,serif" font-size="14.00">(&#39;lead_pos_cage&#39;, 0)</text>
</a>
</g>
</g>
<!-- default_176&#45;&gt;lead_pos_cage_179 -->
<g id="edge4" class="edge">
<title>default_176&#45;&gt;lead_pos_cage_179</title>
<path fill="none" stroke="black" d="M234.79,-736.93C264.05,-740.38 307.89,-745.55 346.67,-750.12"/>
<polygon fill="black" stroke="black" points="346.58,-753.63 356.92,-751.33 347.4,-746.68 346.58,-753.63"/>
</g>
<!-- lead_180 -->
<g id="node6" class="node">
<title>lead_180</title>
<g id="a_node6"><a xlink:href="javascript:s=&quot;\(&#x27;default&#x27;,\ \(&#x27;lead&#x27;,\ 1\)\)\nTactileSwitchTL59Lead&quot;; console.log(s); alert(s);" xlink:title="TactileSwitchTL59Lead">
<ellipse fill="none" stroke="black" cx="431.47" cy="-706" rx="44.39" ry="18"/>
<text text-anchor="middle" x="431.47" y="-702.3" font-family="Times New Roman,serif" font-size="14.00">(&#39;lead&#39;, 1)</text>
</a>
</g>
</g>
<!-- default_176&#45;&gt;lead_180 -->
<g id="edge5" class="edge">
<title>default_176&#45;&gt;lead_180</title>
<path fill="none" stroke="black" d="M234.79,-729.07C272.53,-724.62 334.53,-717.31 378.62,-712.11"/>
<polygon fill="black" stroke="black" points="379.06,-715.59 388.58,-710.94 378.24,-708.63 379.06,-715.59"/>
</g>
<!-- lead_182 -->
<g id="node8" class="node">
<title>lead_182</title>
<g id="a_node8"><a xlink:href="javascript:s=&quot;\(&#x27;default&#x27;,\ \(&#x27;lead&#x27;,\ 2\)\)\nTactileSwitchTL59Lead&quot;; console.log(s); alert(s);" xlink:title="TactileSwitchTL59Lead">
<ellipse fill="none" stroke="black" cx="431.47" cy="-652" rx="44.39" ry="18"/>
<text text-anchor="middle" x="431.47" y="-648.3" font-family="Times New Roman,serif" font-size="14.00">(&#39;lead&#39;, 2)</text>
</a>
</g>
</g>
<!-- default_176&#45;&gt;lead_182 -->
<g id="edge7" class="edge">
<title>default_176&#45;&gt;lead_182</title>
<path fill="none" stroke="black" d="M228.98,-722.4C258.15,-711.24 305.62,-693.36 346.98,-679 359.59,-674.62 373.34,-670.08 385.98,-666"/>
<polygon fill="black" stroke="black" points="387.38,-669.23 395.83,-662.84 385.24,-662.56 387.38,-669.23"/>
</g>
<!-- terminal_181 -->
<g id="node7" class="node">
<title>terminal_181</title>
<g id="a_node7"><a xlink:href="javascript:s=&quot;\(&#x27;default&#x27;,\ \(&#x27;lead&#x27;,\ 1\),\ &#x27;terminal&#x27;\)\nBox&quot;; console.log(s); alert(s);" xlink:title="Box">
<ellipse fill="none" stroke="black" cx="592.91" cy="-706" rx="38.99" ry="18"/>
<text text-anchor="middle" x="592.91" y="-702.3" font-family="Times New Roman,serif" font-size="14.00">terminal</text>
</a>
</g>
</g>
<!-- lead_180&#45;&gt;terminal_181 -->
<g id="edge6" class="edge">
<title>lead_180&#45;&gt;terminal_181</title>
<path fill="none" stroke="black" d="M476.04,-706C496.96,-706 522.09,-706 543.59,-706"/>
<polygon fill="black" stroke="black" points="543.82,-709.5 553.82,-706 543.82,-702.5 543.82,-709.5"/>
</g>
<!-- terminal_183 -->
<g id="node9" class="node">
<title>terminal_183</title>
<g id="a_node9"><a xlink:href="javascript:s=&quot;\(&#x27;default&#x27;,\ \(&#x27;lead&#x27;,\ 2\),\ &#x27;terminal&#x27;\)\nBox&quot;; console.log(s); alert(s);" xlink:title="Box">
<ellipse fill="none" stroke="black" cx="592.91" cy="-652" rx="38.99" ry="18"/>
<text text-anchor="middle" x="592.91" y="-648.3" font-family="Times New Roman,serif" font-size="14.00">terminal</text>
</a>
</g>
</g>
<!-- lead_182&#45;&gt;terminal_183 -->
<g id="edge8" class="edge">
<title>lead_182&#45;&gt;terminal_183</title>
<path fill="none" stroke="black" d="M476.04,-652C496.96,-652 522.09,-652 543.59,-652"/>
<polygon fill="black" stroke="black" points="543.82,-655.5 553.82,-652 543.82,-648.5 543.82,-655.5"/>
</g>
<!-- coords_185 -->
<g id="node11" class="node">
<title>coords_185</title>
<g id="a_node11"><a xlink:href="javascript:s=&quot;\(&quot;&#x27;lead_hole&#x27;,\ 1,\ at_end=True&quot;,\ &#x27;coords&#x27;\)\nCoordinates&quot;; console.log(s); alert(s);" xlink:title="Coordinates">
<ellipse fill="none" stroke="black" cx="431.47" cy="-517" rx="36.29" ry="18"/>
<text text-anchor="middle" x="431.47" y="-513.3" font-family="Times New Roman,serif" font-size="14.00">coords</text>
</a>
</g>
</g>
<!-- 184&#45;&gt;coords_185 -->
<g id="edge10" class="edge">
<title>184&#45;&gt;coords_185</title>
<path fill="none" stroke="black" d="M229.09,-426.51C257.76,-444.18 304.3,-471.43 346.98,-490 360.47,-495.87 375.66,-501.15 389.35,-505.46"/>
<polygon fill="black" stroke="black" points="388.42,-508.83 399.01,-508.41 390.47,-502.14 388.42,-508.83"/>
</g>
<!-- x_196 -->
<g id="node22" class="node">
<title>x_196</title>
<g id="a_node22"><a xlink:href="javascript:s=&quot;\(&quot;&#x27;lead_hole&#x27;,\ 1,\ at_end=True&quot;,\ &#x27;x&#x27;\)\nText&quot;; console.log(s); alert(s);" xlink:title="Text">
<ellipse fill="none" stroke="black" cx="431.47" cy="-463" rx="27" ry="18"/>
<text text-anchor="middle" x="431.47" y="-459.3" font-family="Times New Roman,serif" font-size="14.00">x</text>
</a>
</g>
</g>
<!-- 184&#45;&gt;x_196 -->
<g id="edge21" class="edge">
<title>184&#45;&gt;x_196</title>
<path fill="none" stroke="black" d="M264.06,-423.76C306.42,-433.75 360.81,-446.57 395.66,-454.79"/>
<polygon fill="black" stroke="black" points="395.28,-458.3 405.82,-457.19 396.89,-451.48 395.28,-458.3"/>
</g>
<!-- y_197 -->
<g id="node23" class="node">
<title>y_197</title>
<g id="a_node23"><a xlink:href="javascript:s=&quot;\(&quot;&#x27;lead_hole&#x27;,\ 1,\ at_end=True&quot;,\ &#x27;y&#x27;\)\nText&quot;; console.log(s); alert(s);" xlink:title="Text">
<ellipse fill="none" stroke="black" cx="431.47" cy="-409" rx="27" ry="18"/>
<text text-anchor="middle" x="431.47" y="-405.3" font-family="Times New Roman,serif" font-size="14.00">y</text>
</a>
</g>
</g>
<!-- 184&#45;&gt;y_197 -->
<g id="edge22" class="edge">
<title>184&#45;&gt;y_197</title>
<path fill="none" stroke="black" d="M311.29,-409C341.21,-409 371.56,-409 394.15,-409"/>
<polygon fill="black" stroke="black" points="394.26,-412.5 404.26,-409 394.26,-405.5 394.26,-412.5"/>
</g>
<!-- z_198 -->
<g id="node24" class="node">
<title>z_198</title>
<g id="a_node24"><a xlink:href="javascript:s=&quot;\(&quot;&#x27;lead_hole&#x27;,\ 1,\ at_end=True&quot;,\ &#x27;z&#x27;\)\nText&quot;; console.log(s); alert(s);" xlink:title="Text">
<ellipse fill="none" stroke="black" cx="431.47" cy="-355" rx="27" ry="18"/>
<text text-anchor="middle" x="431.47" y="-351.3" font-family="Times New Roman,serif" font-size="14.00">z</text>
</a>
</g>
</g>
<!-- 184&#45;&gt;z_198 -->
<g id="edge23" class="edge">
<title>184&#45;&gt;z_198</title>
<path fill="none" stroke="black" d="M264.06,-394.24C306.42,-384.25 360.81,-371.43 395.66,-363.21"/>
<polygon fill="black" stroke="black" points="396.89,-366.52 405.82,-360.81 395.28,-359.7 396.89,-366.52"/>
</g>
<!-- label_199 -->
<g id="node25" class="node">
<title>label_199</title>
<g id="a_node25"><a xlink:href="javascript:s=&quot;\(&quot;&#x27;lead_hole&#x27;,\ 1,\ at_end=True&quot;,\ &#x27;label&#x27;\)\nText&quot;; console.log(s); alert(s);" xlink:title="Text">
<ellipse fill="none" stroke="black" cx="431.47" cy="-301" rx="27.1" ry="18"/>
<text text-anchor="middle" x="431.47" y="-297.3" font-family="Times New Roman,serif" font-size="14.00">label</text>
</a>
</g>
</g>
<!-- 184&#45;&gt;label_199 -->
<g id="edge24" class="edge">
<title>184&#45;&gt;label_199</title>
<path fill="none" stroke="black" d="M229.09,-391.49C257.76,-373.82 304.3,-346.57 346.98,-328 362.79,-321.12 380.95,-315.04 396.28,-310.41"/>
<polygon fill="black" stroke="black" points="397.29,-313.76 405.9,-307.58 395.31,-307.04 397.29,-313.76"/>
</g>
<!-- origin_186 -->
<g id="node12" class="node">
<title>origin_186</title>
<g id="a_node12"><a xlink:href="javascript:s=&quot;\(&quot;&#x27;lead_hole&#x27;,\ 1,\ at_end=True&quot;,\ &#x27;coords&#x27;,\ &#x27;origin&#x27;\)\nCoordinatesCage&quot;; console.log(s); alert(s);" xlink:title="CoordinatesCage">
<ellipse fill="none" stroke="black" cx="592.91" cy="-598" rx="31.4" ry="18"/>
<text text-anchor="middle" x="592.91" y="-594.3" font-family="Times New Roman,serif" font-size="14.00">origin</text>
</a>
</g>
</g>
<!-- coords_185&#45;&gt;origin_186 -->
<g id="edge11" class="edge">
<title>coords_185&#45;&gt;origin_186</title>
<path fill="none" stroke="black" d="M457.39,-529.66C484.97,-543.67 529.51,-566.3 559.72,-581.65"/>
<polygon fill="black" stroke="black" points="558.48,-584.94 568.98,-586.35 561.65,-578.7 558.48,-584.94"/>
</g>
<!-- x_arrow_187 -->
<g id="node13" class="node">
<title>x_arrow_187</title>
<g id="a_node13"><a xlink:href="javascript:s=&quot;\(&quot;&#x27;lead_hole&#x27;,\ 1,\ at_end=True&quot;,\ &#x27;coords&#x27;,\ &#x27;x_arrow&#x27;\)\nArrow&quot;; console.log(s); alert(s);" xlink:title="Arrow">
<ellipse fill="none" stroke="black" cx="592.91" cy="-544" rx="40.89" ry="18"/>
<text text-anchor="middle" x="592.91" y="-540.3" font-family="Times New Roman,serif" font-size="14.00">x_arrow</text>
</a>
</g>
</g>
<!-- coords_185&#45;&gt;x_arrow_187 -->
<g id="edge12" class="edge">
<title>coords_185&#45;&gt;x_arrow_187</title>
<path fill="none" stroke="black" d="M466.29,-522.73C489.02,-526.58 519.32,-531.71 544.46,-535.96"/>
<polygon fill="black" stroke="black" points="544.08,-539.45 554.52,-537.67 545.25,-532.55 544.08,-539.45"/>
</g>
<!-- y_arrow_190 -->
<g id="node16" class="node">
<title>y_arrow_190</title>
<g id="a_node16"><a xlink:href="javascript:s=&quot;\(&quot;&#x27;lead_hole&#x27;,\ 1,\ at_end=True&quot;,\ &#x27;coords&#x27;,\ &#x27;y_arrow&#x27;\)\nArrow&quot;; console.log(s); alert(s);" xlink:title="Arrow">
<ellipse fill="none" stroke="black" cx="592.91" cy="-490" rx="40.89" ry="18"/>
<text text-anchor="middle" x="592.91" y="-486.3" font-family="Times New Roman,serif" font-size="14.00">y_arrow</text>
</a>
</g>
</g>
<!-- coords_185&#45;&gt;y_arrow_190 -->
<g id="edge15" class="edge">
<title>coords_185&#45;&gt;y_arrow_190</title>
<path fill="none" stroke="black" d="M466.29,-511.27C489.02,-507.42 519.32,-502.29 544.46,-498.04"/>
<polygon fill="black" stroke="black" points="545.25,-501.45 554.52,-496.33 544.08,-494.55 545.25,-501.45"/>
</g>
<!-- z_arrow_193 -->
<g id="node19" class="node">
<title>z_arrow_193</title>
<g id="a_node19"><a xlink:href="javascript:s=&quot;\(&quot;&#x27;lead_hole&#x27;,\ 1,\ at_end=True&quot;,\ &#x27;coords&#x27;,\ &#x27;z_arrow&#x27;\)\nArrow&quot;; console.log(s); alert(s);" xlink:title="Arrow">
<ellipse fill="none" stroke="black" cx="592.91" cy="-396" rx="40.09" ry="18"/>
<text text-anchor="middle" x="592.91" y="-392.3" font-family="Times New Roman,serif" font-size="14.00">z_arrow</text>
</a>
</g>
</g>
<!-- coords_185&#45;&gt;z_arrow_193 -->
<g id="edge18" class="edge">
<title>coords_185&#45;&gt;z_arrow_193</title>
<path fill="none" stroke="black" d="M465.78,-510.9C481.93,-506.82 501.02,-500.27 515.97,-490 541.84,-472.22 563.41,-443.12 576.87,-421.99"/>
<polygon fill="black" stroke="black" points="579.85,-423.83 582.13,-413.49 573.9,-420.15 579.85,-423.83"/>
</g>
<!-- stem_188 -->
<g id="node14" class="node">
<title>stem_188</title>
<g id="a_node14"><a xlink:href="javascript:s=&quot;\(&quot;&#x27;lead_hole&#x27;,\ 1,\ at_end=True&quot;,\ &#x27;coords&#x27;,\ &#x27;x_arrow&#x27;,\ &#x27;stem&#x27;\)\nCone&quot;; console.log(s); alert(s);" xlink:title="Cone">
<ellipse fill="none" stroke="black" cx="697.81" cy="-612" rx="27.9" ry="18"/>
<text text-anchor="middle" x="697.81" y="-608.3" font-family="Times New Roman,serif" font-size="14.00">stem</text>
</a>
</g>
</g>
<!-- x_arrow_187&#45;&gt;stem_188 -->
<g id="edge13" class="edge">
<title>x_arrow_187&#45;&gt;stem_188</title>
<path fill="none" stroke="black" d="M616.49,-558.92C631.97,-569.15 652.59,-582.78 669.06,-593.67"/>
<polygon fill="black" stroke="black" points="667.46,-596.8 677.73,-599.39 671.32,-590.96 667.46,-596.8"/>
</g>
<!-- head_189 -->
<g id="node15" class="node">
<title>head_189</title>
<g id="a_node15"><a xlink:href="javascript:s=&quot;\(&quot;&#x27;lead_hole&#x27;,\ 1,\ at_end=True&quot;,\ &#x27;coords&#x27;,\ &#x27;x_arrow&#x27;,\ &#x27;head&#x27;\)\nCone&quot;; console.log(s); alert(s);" xlink:title="Cone">
<ellipse fill="none" stroke="black" cx="697.81" cy="-558" rx="27.9" ry="18"/>
<text text-anchor="middle" x="697.81" y="-554.3" font-family="Times New Roman,serif" font-size="14.00">head</text>
</a>
</g>
</g>
<!-- x_arrow_187&#45;&gt;head_189 -->
<g id="edge14" class="edge">
<title>x_arrow_187&#45;&gt;head_189</title>
<path fill="none" stroke="black" d="M632.23,-549.21C641.44,-550.47 651.26,-551.8 660.39,-553.04"/>
<polygon fill="black" stroke="black" points="659.95,-556.52 670.33,-554.4 660.89,-549.58 659.95,-556.52"/>
</g>
<!-- stem_191 -->
<g id="node17" class="node">
<title>stem_191</title>
<g id="a_node17"><a xlink:href="javascript:s=&quot;\(&quot;&#x27;lead_hole&#x27;,\ 1,\ at_end=True&quot;,\ &#x27;coords&#x27;,\ &#x27;y_arrow&#x27;,\ &#x27;stem&#x27;\)\nCone&quot;; console.log(s); alert(s);" xlink:title="Cone">
<ellipse fill="none" stroke="black" cx="697.81" cy="-504" rx="27.9" ry="18"/>
<text text-anchor="middle" x="697.81" y="-500.3" font-family="Times New Roman,serif" font-size="14.00">stem</text>
</a>
</g>
</g>
<!-- y_arrow_190&#45;&gt;stem_191 -->
<g id="edge16" class="edge">
<title>y_arrow_190&#45;&gt;stem_191</title>
<path fill="none" stroke="black" d="M632.23,-495.21C641.44,-496.47 651.26,-497.8 660.39,-499.04"/>
<polygon fill="black" stroke="black" points="659.95,-502.52 670.33,-500.4 660.89,-495.58 659.95,-502.52"/>
</g>
<!-- head_192 -->
<g id="node18" class="node">
<title>head_192</title>
<g id="a_node18"><a xlink:href="javascript:s=&quot;\(&quot;&#x27;lead_hole&#x27;,\ 1,\ at_end=True&quot;,\ &#x27;coords&#x27;,\ &#x27;y_arrow&#x27;,\ &#x27;head&#x27;\)\nCone&quot;; console.log(s); alert(s);" xlink:title="Cone">
<ellipse fill="none" stroke="black" cx="697.81" cy="-450" rx="27.9" ry="18"/>
<text text-anchor="middle" x="697.81" y="-446.3" font-family="Times New Roman,serif" font-size="14.00">head</text>
</a>
</g>
</g>
<!-- y_arrow_190&#45;&gt;head_192 -->
<g id="edge17" class="edge">
<title>y_arrow_190&#45;&gt;head_192</title>
<path fill="none" stroke="black" d="M624.23,-478.22C636.79,-473.33 651.39,-467.65 664.19,-462.68"/>
<polygon fill="black" stroke="black" points="665.51,-465.92 673.56,-459.04 662.97,-459.4 665.51,-465.92"/>
</g>
<!-- stem_194 -->
<g id="node20" class="node">
<title>stem_194</title>
<g id="a_node20"><a xlink:href="javascript:s=&quot;\(&quot;&#x27;lead_hole&#x27;,\ 1,\ at_end=True&quot;,\ &#x27;coords&#x27;,\ &#x27;z_arrow&#x27;,\ &#x27;stem&#x27;\)\nCone&quot;; console.log(s); alert(s);" xlink:title="Cone">
<ellipse fill="none" stroke="black" cx="697.81" cy="-396" rx="27.9" ry="18"/>
<text text-anchor="middle" x="697.81" y="-392.3" font-family="Times New Roman,serif" font-size="14.00">stem</text>
</a>
</g>
</g>
<!-- z_arrow_193&#45;&gt;stem_194 -->
<g id="edge19" class="edge">
<title>z_arrow_193&#45;&gt;stem_194</title>
<path fill="none" stroke="black" d="M633.4,-396C642.02,-396 651.12,-396 659.65,-396"/>
<polygon fill="black" stroke="black" points="659.7,-399.5 669.7,-396 659.7,-392.5 659.7,-399.5"/>
</g>
<!-- head_195 -->
<g id="node21" class="node">
<title>head_195</title>
<g id="a_node21"><a xlink:href="javascript:s=&quot;\(&quot;&#x27;lead_hole&#x27;,\ 1,\ at_end=True&quot;,\ &#x27;coords&#x27;,\ &#x27;z_arrow&#x27;,\ &#x27;head&#x27;\)\nCone&quot;; console.log(s); alert(s);" xlink:title="Cone">
<ellipse fill="none" stroke="black" cx="697.81" cy="-342" rx="27.9" ry="18"/>
<text text-anchor="middle" x="697.81" y="-338.3" font-family="Times New Roman,serif" font-size="14.00">head</text>
</a>
</g>
</g>
<!-- z_arrow_193&#45;&gt;head_195 -->
<g id="edge20" class="edge">
<title>z_arrow_193&#45;&gt;head_195</title>
<path fill="none" stroke="black" d="M619.61,-382.51C633.91,-375.01 651.77,-365.63 666.72,-357.79"/>
<polygon fill="black" stroke="black" points="668.36,-360.88 675.59,-353.14 665.11,-354.68 668.36,-360.88"/>
</g>
<!-- coords_201 -->
<g id="node27" class="node">
<title>coords_201</title>
<g id="a_node27"><a xlink:href="javascript:s=&quot;\(&quot;&#x27;lead_hole&#x27;,\ 2,\ at_end=True&quot;,\ &#x27;coords&#x27;\)\nCoordinates&quot;; console.log(s); alert(s);" xlink:title="Coordinates">
<ellipse fill="none" stroke="black" cx="431.47" cy="-234" rx="36.29" ry="18"/>
<text text-anchor="middle" x="431.47" y="-230.3" font-family="Times New Roman,serif" font-size="14.00">coords</text>
</a>
</g>
</g>
<!-- 200&#45;&gt;coords_201 -->
<g id="edge26" class="edge">
<title>200&#45;&gt;coords_201</title>
<path fill="none" stroke="black" d="M244.61,-169.55C273.47,-180.5 312.36,-194.99 346.98,-207 361.11,-211.9 376.68,-217.02 390.51,-221.46"/>
<polygon fill="black" stroke="black" points="389.63,-224.85 400.23,-224.56 391.76,-218.18 389.63,-224.85"/>
</g>
<!-- x_212 -->
<g id="node38" class="node">
<title>x_212</title>
<g id="a_node38"><a xlink:href="javascript:s=&quot;\(&quot;&#x27;lead_hole&#x27;,\ 2,\ at_end=True&quot;,\ &#x27;x&#x27;\)\nText&quot;; console.log(s); alert(s);" xlink:title="Text">
<ellipse fill="none" stroke="black" cx="431.47" cy="-180" rx="27" ry="18"/>
<text text-anchor="middle" x="431.47" y="-176.3" font-family="Times New Roman,serif" font-size="14.00">x</text>
</a>
</g>
</g>
<!-- 200&#45;&gt;x_212 -->
<g id="edge37" class="edge">
<title>200&#45;&gt;x_212</title>
<path fill="none" stroke="black" d="M290.35,-163.48C326.69,-167.76 366.66,-172.48 394.58,-175.77"/>
<polygon fill="black" stroke="black" points="394.32,-179.26 404.66,-176.96 395.14,-172.31 394.32,-179.26"/>
</g>
<!-- y_213 -->
<g id="node39" class="node">
<title>y_213</title>
<g id="a_node39"><a xlink:href="javascript:s=&quot;\(&quot;&#x27;lead_hole&#x27;,\ 2,\ at_end=True&quot;,\ &#x27;y&#x27;\)\nText&quot;; console.log(s); alert(s);" xlink:title="Text">
<ellipse fill="none" stroke="black" cx="431.47" cy="-126" rx="27" ry="18"/>
<text text-anchor="middle" x="431.47" y="-122.3" font-family="Times New Roman,serif" font-size="14.00">y</text>
</a>
</g>
</g>
<!-- 200&#45;&gt;y_213 -->
<g id="edge38" class="edge">
<title>200&#45;&gt;y_213</title>
<path fill="none" stroke="black" d="M290.35,-142.52C326.69,-138.24 366.66,-133.52 394.58,-130.23"/>
<polygon fill="black" stroke="black" points="395.14,-133.69 404.66,-129.04 394.32,-126.74 395.14,-133.69"/>
</g>
<!-- z_214 -->
<g id="node40" class="node">
<title>z_214</title>
<g id="a_node40"><a xlink:href="javascript:s=&quot;\(&quot;&#x27;lead_hole&#x27;,\ 2,\ at_end=True&quot;,\ &#x27;z&#x27;\)\nText&quot;; console.log(s); alert(s);" xlink:title="Text">
<ellipse fill="none" stroke="black" cx="431.47" cy="-72" rx="27" ry="18"/>
<text text-anchor="middle" x="431.47" y="-68.3" font-family="Times New Roman,serif" font-size="14.00">z</text>
</a>
</g>
</g>
<!-- 200&#45;&gt;z_214 -->
<g id="edge39" class="edge">
<title>200&#45;&gt;z_214</title>
<path fill="none" stroke="black" d="M244.61,-136.45C273.47,-125.5 312.36,-111.01 346.98,-99 363.39,-93.3 381.75,-87.33 397.06,-82.45"/>
<polygon fill="black" stroke="black" points="398.16,-85.77 406.63,-79.41 396.04,-79.1 398.16,-85.77"/>
</g>
<!-- label_215 -->
<g id="node41" class="node">
<title>label_215</title>
<g id="a_node41"><a xlink:href="javascript:s=&quot;\(&quot;&#x27;lead_hole&#x27;,\ 2,\ at_end=True&quot;,\ &#x27;label&#x27;\)\nText&quot;; console.log(s); alert(s);" xlink:title="Text">
<ellipse fill="none" stroke="black" cx="431.47" cy="-18" rx="27.1" ry="18"/>
<text text-anchor="middle" x="431.47" y="-14.3" font-family="Times New Roman,serif" font-size="14.00">label</text>
</a>
</g>
</g>
<!-- 200&#45;&gt;label_215 -->
<g id="edge40" class="edge">
<title>200&#45;&gt;label_215</title>
<path fill="none" stroke="black" d="M221.27,-134.98C248.02,-111.42 298.04,-70.21 346.98,-45 362.31,-37.1 380.41,-30.91 395.83,-26.46"/>
<polygon fill="black" stroke="black" points="396.81,-29.82 405.52,-23.78 394.95,-23.07 396.81,-29.82"/>
</g>
<!-- origin_202 -->
<g id="node28" class="node">
<title>origin_202</title>
<g id="a_node28"><a xlink:href="javascript:s=&quot;\(&quot;&#x27;lead_hole&#x27;,\ 2,\ at_end=True&quot;,\ &#x27;coords&#x27;,\ &#x27;origin&#x27;\)\nCoordinatesCage&quot;; console.log(s); alert(s);" xlink:title="CoordinatesCage">
<ellipse fill="none" stroke="black" cx="592.91" cy="-288" rx="31.4" ry="18"/>
<text text-anchor="middle" x="592.91" y="-284.3" font-family="Times New Roman,serif" font-size="14.00">origin</text>
</a>
</g>
</g>
<!-- coords_201&#45;&gt;origin_202 -->
<g id="edge27" class="edge">
<title>coords_201&#45;&gt;origin_202</title>
<path fill="none" stroke="black" d="M462.09,-244.03C488.67,-253.03 527.76,-266.27 556.09,-275.87"/>
<polygon fill="black" stroke="black" points="555.03,-279.2 565.63,-279.1 557.28,-272.57 555.03,-279.2"/>
</g>
<!-- x_arrow_203 -->
<g id="node29" class="node">
<title>x_arrow_203</title>
<g id="a_node29"><a xlink:href="javascript:s=&quot;\(&quot;&#x27;lead_hole&#x27;,\ 2,\ at_end=True&quot;,\ &#x27;coords&#x27;,\ &#x27;x_arrow&#x27;\)\nArrow&quot;; console.log(s); alert(s);" xlink:title="Arrow">
<ellipse fill="none" stroke="black" cx="592.91" cy="-234" rx="40.89" ry="18"/>
<text text-anchor="middle" x="592.91" y="-230.3" font-family="Times New Roman,serif" font-size="14.00">x_arrow</text>
</a>
</g>
</g>
<!-- coords_201&#45;&gt;x_arrow_203 -->
<g id="edge28" class="edge">
<title>coords_201&#45;&gt;x_arrow_203</title>
<path fill="none" stroke="black" d="M468.25,-234C489.85,-234 517.7,-234 541.5,-234"/>
<polygon fill="black" stroke="black" points="541.76,-237.5 551.76,-234 541.76,-230.5 541.76,-237.5"/>
</g>
<!-- y_arrow_206 -->
<g id="node32" class="node">
<title>y_arrow_206</title>
<g id="a_node32"><a xlink:href="javascript:s=&quot;\(&quot;&#x27;lead_hole&#x27;,\ 2,\ at_end=True&quot;,\ &#x27;coords&#x27;,\ &#x27;y_arrow&#x27;\)\nArrow&quot;; console.log(s); alert(s);" xlink:title="Arrow">
<ellipse fill="none" stroke="black" cx="592.91" cy="-180" rx="40.89" ry="18"/>
<text text-anchor="middle" x="592.91" y="-176.3" font-family="Times New Roman,serif" font-size="14.00">y_arrow</text>
</a>
</g>
</g>
<!-- coords_201&#45;&gt;y_arrow_206 -->
<g id="edge31" class="edge">
<title>coords_201&#45;&gt;y_arrow_206</title>
<path fill="none" stroke="black" d="M462.69,-224.46C478.58,-219.38 498.37,-212.97 515.97,-207 527.34,-203.14 539.63,-198.83 550.94,-194.81"/>
<polygon fill="black" stroke="black" points="552.33,-198.03 560.57,-191.37 549.98,-191.44 552.33,-198.03"/>
</g>
<!-- z_arrow_209 -->
<g id="node35" class="node">
<title>z_arrow_209</title>
<g id="a_node35"><a xlink:href="javascript:s=&quot;\(&quot;&#x27;lead_hole&#x27;,\ 2,\ at_end=True&quot;,\ &#x27;coords&#x27;,\ &#x27;z_arrow&#x27;\)\nArrow&quot;; console.log(s); alert(s);" xlink:title="Arrow">
<ellipse fill="none" stroke="black" cx="592.91" cy="-72" rx="40.09" ry="18"/>
<text text-anchor="middle" x="592.91" y="-68.3" font-family="Times New Roman,serif" font-size="14.00">z_arrow</text>
</a>
</g>
</g>
<!-- coords_201&#45;&gt;z_arrow_209 -->
<g id="edge34" class="edge">
<title>coords_201&#45;&gt;z_arrow_209</title>
<path fill="none" stroke="black" d="M466.56,-228.94C482.9,-225.12 501.93,-218.48 515.97,-207 525.3,-199.36 558.87,-136.09 578.11,-98.94"/>
<polygon fill="black" stroke="black" points="581.42,-100.15 582.9,-89.66 575.2,-96.94 581.42,-100.15"/>
</g>
<!-- stem_204 -->
<g id="node30" class="node">
<title>stem_204</title>
<g id="a_node30"><a xlink:href="javascript:s=&quot;\(&quot;&#x27;lead_hole&#x27;,\ 2,\ at_end=True&quot;,\ &#x27;coords&#x27;,\ &#x27;x_arrow&#x27;,\ &#x27;stem&#x27;\)\nCone&quot;; console.log(s); alert(s);" xlink:title="Cone">
<ellipse fill="none" stroke="black" cx="697.81" cy="-288" rx="27.9" ry="18"/>
<text text-anchor="middle" x="697.81" y="-284.3" font-family="Times New Roman,serif" font-size="14.00">stem</text>
</a>
</g>
</g>
<!-- x_arrow_203&#45;&gt;stem_204 -->
<g id="edge29" class="edge">
<title>x_arrow_203&#45;&gt;stem_204</title>
<path fill="none" stroke="black" d="M619.88,-247.63C634.04,-255.06 651.65,-264.3 666.44,-272.07"/>
<polygon fill="black" stroke="black" points="665.22,-275.37 675.7,-276.92 668.47,-269.18 665.22,-275.37"/>
</g>
<!-- head_205 -->
<g id="node31" class="node">
<title>head_205</title>
<g id="a_node31"><a xlink:href="javascript:s=&quot;\(&quot;&#x27;lead_hole&#x27;,\ 2,\ at_end=True&quot;,\ &#x27;coords&#x27;,\ &#x27;x_arrow&#x27;,\ &#x27;head&#x27;\)\nCone&quot;; console.log(s); alert(s);" xlink:title="Cone">
<ellipse fill="none" stroke="black" cx="697.81" cy="-234" rx="27.9" ry="18"/>
<text text-anchor="middle" x="697.81" y="-230.3" font-family="Times New Roman,serif" font-size="14.00">head</text>
</a>
</g>
</g>
<!-- x_arrow_203&#45;&gt;head_205 -->
<g id="edge30" class="edge">
<title>x_arrow_203&#45;&gt;head_205</title>
<path fill="none" stroke="black" d="M633.99,-234C642.4,-234 651.24,-234 659.54,-234"/>
<polygon fill="black" stroke="black" points="659.7,-237.5 669.7,-234 659.7,-230.5 659.7,-237.5"/>
</g>
<!-- stem_207 -->
<g id="node33" class="node">
<title>stem_207</title>
<g id="a_node33"><a xlink:href="javascript:s=&quot;\(&quot;&#x27;lead_hole&#x27;,\ 2,\ at_end=True&quot;,\ &#x27;coords&#x27;,\ &#x27;y_arrow&#x27;,\ &#x27;stem&#x27;\)\nCone&quot;; console.log(s); alert(s);" xlink:title="Cone">
<ellipse fill="none" stroke="black" cx="697.81" cy="-180" rx="27.9" ry="18"/>
<text text-anchor="middle" x="697.81" y="-176.3" font-family="Times New Roman,serif" font-size="14.00">stem</text>
</a>
</g>
</g>
<!-- y_arrow_206&#45;&gt;stem_207 -->
<g id="edge32" class="edge">
<title>y_arrow_206&#45;&gt;stem_207</title>
<path fill="none" stroke="black" d="M633.99,-180C642.4,-180 651.24,-180 659.54,-180"/>
<polygon fill="black" stroke="black" points="659.7,-183.5 669.7,-180 659.7,-176.5 659.7,-183.5"/>
</g>
<!-- head_208 -->
<g id="node34" class="node">
<title>head_208</title>
<g id="a_node34"><a xlink:href="javascript:s=&quot;\(&quot;&#x27;lead_hole&#x27;,\ 2,\ at_end=True&quot;,\ &#x27;coords&#x27;,\ &#x27;y_arrow&#x27;,\ &#x27;head&#x27;\)\nCone&quot;; console.log(s); alert(s);" xlink:title="Cone">
<ellipse fill="none" stroke="black" cx="697.81" cy="-126" rx="27.9" ry="18"/>
<text text-anchor="middle" x="697.81" y="-122.3" font-family="Times New Roman,serif" font-size="14.00">head</text>
</a>
</g>
</g>
<!-- y_arrow_206&#45;&gt;head_208 -->
<g id="edge33" class="edge">
<title>y_arrow_206&#45;&gt;head_208</title>
<path fill="none" stroke="black" d="M619.88,-166.37C634.04,-158.94 651.65,-149.7 666.44,-141.93"/>
<polygon fill="black" stroke="black" points="668.47,-144.82 675.7,-137.08 665.22,-138.63 668.47,-144.82"/>
</g>
<!-- stem_210 -->
<g id="node36" class="node">
<title>stem_210</title>
<g id="a_node36"><a xlink:href="javascript:s=&quot;\(&quot;&#x27;lead_hole&#x27;,\ 2,\ at_end=True&quot;,\ &#x27;coords&#x27;,\ &#x27;z_arrow&#x27;,\ &#x27;stem&#x27;\)\nCone&quot;; console.log(s); alert(s);" xlink:title="Cone">
<ellipse fill="none" stroke="black" cx="697.81" cy="-72" rx="27.9" ry="18"/>
<text text-anchor="middle" x="697.81" y="-68.3" font-family="Times New Roman,serif" font-size="14.00">stem</text>
</a>
</g>
</g>
<!-- z_arrow_209&#45;&gt;stem_210 -->
<g id="edge35" class="edge">
<title>z_arrow_209&#45;&gt;stem_210</title>
<path fill="none" stroke="black" d="M633.4,-72C642.02,-72 651.12,-72 659.65,-72"/>
<polygon fill="black" stroke="black" points="659.7,-75.5 669.7,-72 659.7,-68.5 659.7,-75.5"/>
</g>
<!-- head_211 -->
<g id="node37" class="node">
<title>head_211</title>
<g id="a_node37"><a xlink:href="javascript:s=&quot;\(&quot;&#x27;lead_hole&#x27;,\ 2,\ at_end=True&quot;,\ &#x27;coords&#x27;,\ &#x27;z_arrow&#x27;,\ &#x27;head&#x27;\)\nCone&quot;; console.log(s); alert(s);" xlink:title="Cone">
<ellipse fill="none" stroke="black" cx="697.81" cy="-18" rx="27.9" ry="18"/>
<text text-anchor="middle" x="697.81" y="-14.3" font-family="Times New Roman,serif" font-size="14.00">head</text>
</a>
</g>
</g>
<!-- z_arrow_209&#45;&gt;head_211 -->
<g id="edge36" class="edge">
<title>z_arrow_209&#45;&gt;head_211</title>
<path fill="none" stroke="black" d="M619.61,-58.51C633.91,-51.01 651.77,-41.63 666.72,-33.79"/>
<polygon fill="black" stroke="black" points="668.36,-36.88 675.59,-29.14 665.11,-30.68 668.36,-36.88"/>
</g>
</g>
</svg>
