<?xml version="1.0" encoding="UTF-8" standalone="no"?>
<!DOCTYPE svg PUBLIC "-//W3C//DTD SVG 1.1//EN"
 "http://www.w3.org/Graphics/SVG/1.1/DTD/svg11.dtd">
<!-- Generated by graphviz version 5.0.0 (20220707.1540)
 -->
<!-- Title: default Pages: 1 -->
<svg width="855pt" height="1151pt"
 viewBox="0.00 0.00 854.64 1151.00" xmlns="http://www.w3.org/2000/svg" xmlns:xlink="http://www.w3.org/1999/xlink">
<g id="graph0" class="graph" transform="scale(1 1) rotate(0) translate(4 1147)">
<title>default</title>
<polygon fill="white" stroke="transparent" points="-4,4 -4,-1147 850.64,-1147 850.64,4 -4,4"/>
<!-- root_1 -->
<g id="node1" class="node">
<title>root_1</title>
<g id="a_node1"><a xlink:href="javascript:s=&quot;\(\)\nNone&quot;; console.log(s); alert(s);" xlink:title="root">
<ellipse fill="none" stroke="black" cx="27" cy="-416" rx="27" ry="18"/>
<text text-anchor="middle" x="27" y="-412.3" font-family="Times New Roman,serif" font-size="14.00">root</text>
</a>
</g>
</g>
<!-- default_2 -->
<g id="node2" class="node">
<title>default_2</title>
<g id="a_node2"><a xlink:href="javascript:s=&quot;\(&#x27;default&#x27;,\)\nTactileSwitchOutline&quot;; console.log(s); alert(s);" xlink:title="TactileSwitchOutline">
<ellipse fill="none" stroke="black" cx="200.49" cy="-726" rx="35.19" ry="18"/>
<text text-anchor="middle" x="200.49" y="-722.3" font-family="Times New Roman,serif" font-size="14.00">default</text>
</a>
</g>
</g>
<!-- root_1&#45;&gt;default_2 -->
<g id="edge1" class="edge">
<title>root_1&#45;&gt;default_2</title>
<path fill="none" stroke="black" d="M37.22,-432.67C65.41,-483.63 150.61,-637.65 184.93,-699.69"/>
<polygon fill="black" stroke="black" points="181.9,-701.43 189.8,-708.49 188.02,-698.04 181.9,-701.43"/>
</g>
<!-- 25 -->
<g id="node25" class="node">
<title>25</title>
<g id="a_node25"><a xlink:href="javascript:s=&quot;\(&quot;&#x27;lead_hole&#x27;,\ 1,\ at_end=True&quot;,\)\nAnnotatedCoordinates&quot;; console.log(s); alert(s);" xlink:title="AnnotatedCoordinates">
<ellipse fill="none" stroke="black" cx="200.49" cy="-416" rx="110.48" ry="18"/>
<text text-anchor="middle" x="200.49" y="-412.3" font-family="Times New Roman,serif" font-size="14.00">&#39;lead_hole&#39;, 1, at_end=True</text>
</a>
</g>
</g>
<!-- root_1&#45;&gt;25 -->
<g id="edge24" class="edge">
<title>root_1&#45;&gt;25</title>
<path fill="none" stroke="black" d="M54.05,-416C61.63,-416 70.44,-416 79.91,-416"/>
<polygon fill="black" stroke="black" points="80,-419.5 90,-416 80,-412.5 80,-419.5"/>
</g>
<!-- 41 -->
<g id="node41" class="node">
<title>41</title>
<g id="a_node41"><a xlink:href="javascript:s=&quot;\(&quot;&#x27;lead_hole&#x27;,\ 2,\ at_end=True&quot;,\)\nAnnotatedCoordinates&quot;; console.log(s); alert(s);" xlink:title="AnnotatedCoordinates">
<ellipse fill="none" stroke="black" cx="200.49" cy="-153" rx="110.48" ry="18"/>
<text text-anchor="middle" x="200.49" y="-149.3" font-family="Times New Roman,serif" font-size="14.00">&#39;lead_hole&#39;, 2, at_end=True</text>
</a>
</g>
</g>
<!-- root_1&#45;&gt;41 -->
<g id="edge40" class="edge">
<title>root_1&#45;&gt;41</title>
<path fill="none" stroke="black" d="M38.73,-399.55C67.55,-355.34 146.89,-233.67 182.18,-179.55"/>
<polygon fill="black" stroke="black" points="185.11,-181.46 187.64,-171.17 179.25,-177.63 185.11,-181.46"/>
</g>
<!-- switch_3 -->
<g id="node3" class="node">
<title>switch_3</title>
<g id="a_node3"><a xlink:href="javascript:s=&quot;\(&#x27;default&#x27;,\ &#x27;switch&#x27;\)\nTactileSwitchTL1105&quot;; console.log(s); alert(s);" xlink:title="TactileSwitchTL1105">
<ellipse fill="none" stroke="black" cx="437.32" cy="-909" rx="34.39" ry="18"/>
<text text-anchor="middle" x="437.32" y="-905.3" font-family="Times New Roman,serif" font-size="14.00">switch</text>
</a>
</g>
</g>
<!-- default_2&#45;&gt;switch_3 -->
<g id="edge2" class="edge">
<title>default_2&#45;&gt;switch_3</title>
<path fill="none" stroke="black" d="M216.48,-742.4C241.66,-769.35 294.84,-823.73 346.98,-861 364.02,-873.18 384.52,-884.41 401.58,-892.93"/>
<polygon fill="black" stroke="black" points="400.14,-896.13 410.66,-897.38 403.22,-889.84 400.14,-896.13"/>
</g>
<!-- lead_hole_shape_20 -->
<g id="node20" class="node">
<title>lead_hole_shape_20</title>
<g id="a_node20"><a xlink:href="javascript:s=&quot;\(&#x27;default&#x27;,\ \(&#x27;lead_hole_shape&#x27;,\ 0\)\)\nCylinder&quot;; console.log(s); alert(s);" xlink:title="Cylinder">
<ellipse fill="none" stroke="black" cx="437.32" cy="-834" rx="90.18" ry="18"/>
<text text-anchor="middle" x="437.32" y="-830.3" font-family="Times New Roman,serif" font-size="14.00">(&#39;lead_hole_shape&#39;, 0)</text>
</a>
</g>
</g>
<!-- default_2&#45;&gt;lead_hole_shape_20 -->
<g id="edge19" class="edge">
<title>default_2&#45;&gt;lead_hole_shape_20</title>
<path fill="none" stroke="black" d="M222.93,-739.87C250.68,-757.36 300.93,-787.49 346.98,-807 355.11,-810.44 363.83,-813.65 372.51,-816.55"/>
<polygon fill="black" stroke="black" points="371.68,-819.96 382.27,-819.7 373.83,-813.3 371.68,-819.96"/>
</g>
<!-- lead_hole_shape_21 -->
<g id="node21" class="node">
<title>lead_hole_shape_21</title>
<g id="a_node21"><a xlink:href="javascript:s=&quot;\(&#x27;default&#x27;,\ \(&#x27;lead_hole_shape&#x27;,\ 1\)\)\nCylinder&quot;; console.log(s); alert(s);" xlink:title="Cylinder">
<ellipse fill="none" stroke="black" cx="437.32" cy="-780" rx="90.18" ry="18"/>
<text text-anchor="middle" x="437.32" y="-776.3" font-family="Times New Roman,serif" font-size="14.00">(&#39;lead_hole_shape&#39;, 1)</text>
</a>
</g>
</g>
<!-- default_2&#45;&gt;lead_hole_shape_21 -->
<g id="edge20" class="edge">
<title>default_2&#45;&gt;lead_hole_shape_21</title>
<path fill="none" stroke="black" d="M233.16,-733.28C267.38,-741.15 322.96,-753.93 367.35,-764.14"/>
<polygon fill="black" stroke="black" points="366.68,-767.58 377.21,-766.41 368.25,-760.76 366.68,-767.58"/>
</g>
<!-- lead_hole_shape_22 -->
<g id="node22" class="node">
<title>lead_hole_shape_22</title>
<g id="a_node22"><a xlink:href="javascript:s=&quot;\(&#x27;default&#x27;,\ \(&#x27;lead_hole_shape&#x27;,\ 2\)\)\nCylinder&quot;; console.log(s); alert(s);" xlink:title="Cylinder">
<ellipse fill="none" stroke="black" cx="437.32" cy="-726" rx="90.18" ry="18"/>
<text text-anchor="middle" x="437.32" y="-722.3" font-family="Times New Roman,serif" font-size="14.00">(&#39;lead_hole_shape&#39;, 2)</text>
</a>
</g>
</g>
<!-- default_2&#45;&gt;lead_hole_shape_22 -->
<g id="edge21" class="edge">
<title>default_2&#45;&gt;lead_hole_shape_22</title>
<path fill="none" stroke="black" d="M235.64,-726C262.26,-726 300.66,-726 336.76,-726"/>
<polygon fill="black" stroke="black" points="336.86,-729.5 346.86,-726 336.86,-722.5 336.86,-729.5"/>
</g>
<!-- lead_hole_shape_23 -->
<g id="node23" class="node">
<title>lead_hole_shape_23</title>
<g id="a_node23"><a xlink:href="javascript:s=&quot;\(&#x27;default&#x27;,\ \(&#x27;lead_hole_shape&#x27;,\ 3\)\)\nCylinder&quot;; console.log(s); alert(s);" xlink:title="Cylinder">
<ellipse fill="none" stroke="black" cx="437.32" cy="-672" rx="90.18" ry="18"/>
<text text-anchor="middle" x="437.32" y="-668.3" font-family="Times New Roman,serif" font-size="14.00">(&#39;lead_hole_shape&#39;, 3)</text>
</a>
</g>
</g>
<!-- default_2&#45;&gt;lead_hole_shape_23 -->
<g id="edge22" class="edge">
<title>default_2&#45;&gt;lead_hole_shape_23</title>
<path fill="none" stroke="black" d="M233.16,-718.72C267.38,-710.85 322.96,-698.07 367.35,-687.86"/>
<polygon fill="black" stroke="black" points="368.25,-691.24 377.21,-685.59 366.68,-684.42 368.25,-691.24"/>
</g>
<!-- push_hole_shape_24 -->
<g id="node24" class="node">
<title>push_hole_shape_24</title>
<g id="a_node24"><a xlink:href="javascript:s=&quot;\(&#x27;default&#x27;,\ &#x27;push_hole_shape&#x27;\)\nCylinder&quot;; console.log(s); alert(s);" xlink:title="Cylinder">
<ellipse fill="none" stroke="black" cx="437.32" cy="-618" rx="74.19" ry="18"/>
<text text-anchor="middle" x="437.32" y="-614.3" font-family="Times New Roman,serif" font-size="14.00">push_hole_shape</text>
</a>
</g>
</g>
<!-- default_2&#45;&gt;push_hole_shape_24 -->
<g id="edge23" class="edge">
<title>default_2&#45;&gt;push_hole_shape_24</title>
<path fill="none" stroke="black" d="M222.93,-712.13C250.68,-694.64 300.93,-664.51 346.98,-645 356.27,-641.07 366.32,-637.45 376.22,-634.23"/>
<polygon fill="black" stroke="black" points="377.54,-637.48 386.03,-631.14 375.44,-630.8 377.54,-637.48"/>
</g>
<!-- body_4 -->
<g id="node4" class="node">
<title>body_4</title>
<g id="a_node4"><a xlink:href="javascript:s=&quot;\(&#x27;default&#x27;,\ &#x27;switch&#x27;,\ &#x27;body&#x27;\)\nBox&quot;; console.log(s); alert(s);" xlink:title="Box">
<ellipse fill="none" stroke="black" cx="648.16" cy="-1125" rx="29.8" ry="18"/>
<text text-anchor="middle" x="648.16" y="-1121.3" font-family="Times New Roman,serif" font-size="14.00">body</text>
</a>
</g>
</g>
<!-- switch_3&#45;&gt;body_4 -->
<g id="edge3" class="edge">
<title>switch_3&#45;&gt;body_4</title>
<path fill="none" stroke="black" d="M445.26,-926.74C460.75,-964.03 501.71,-1051 563.66,-1098 576.78,-1107.95 593.7,-1114.31 608.88,-1118.34"/>
<polygon fill="black" stroke="black" points="608.49,-1121.85 619.03,-1120.77 610.12,-1115.04 608.49,-1121.85"/>
</g>
<!-- shaft_5 -->
<g id="node5" class="node">
<title>shaft_5</title>
<g id="a_node5"><a xlink:href="javascript:s=&quot;\(&#x27;default&#x27;,\ &#x27;switch&#x27;,\ &#x27;shaft&#x27;\)\nCone&quot;; console.log(s); alert(s);" xlink:title="Cone">
<ellipse fill="none" stroke="black" cx="648.16" cy="-1071" rx="28.7" ry="18"/>
<text text-anchor="middle" x="648.16" y="-1067.3" font-family="Times New Roman,serif" font-size="14.00">shaft</text>
</a>
</g>
</g>
<!-- switch_3&#45;&gt;shaft_5 -->
<g id="edge4" class="edge">
<title>switch_3&#45;&gt;shaft_5</title>
<path fill="none" stroke="black" d="M449.74,-926.13C469.6,-954.63 513.24,-1011.85 563.66,-1044 577.89,-1053.07 595.43,-1059.35 610.76,-1063.55"/>
<polygon fill="black" stroke="black" points="609.9,-1066.94 620.45,-1066.02 611.63,-1060.16 609.9,-1066.94"/>
</g>
<!-- lead_pos_cage_6 -->
<g id="node6" class="node">
<title>lead_pos_cage_6</title>
<g id="a_node6"><a xlink:href="javascript:s=&quot;\(&#x27;default&#x27;,\ &#x27;switch&#x27;,\ \(&#x27;lead_pos_cage&#x27;,\ 0\)\)\nBox&quot;; console.log(s); alert(s);" xlink:title="Box">
<ellipse fill="none" stroke="black" cx="648.16" cy="-1017" rx="84.49" ry="18"/>
<text text-anchor="middle" x="648.16" y="-1013.3" font-family="Times New Roman,serif" font-size="14.00">(&#39;lead_pos_cage&#39;, 0)</text>
</a>
</g>
</g>
<!-- switch_3&#45;&gt;lead_pos_cage_6 -->
<g id="edge5" class="edge">
<title>switch_3&#45;&gt;lead_pos_cage_6</title>
<path fill="none" stroke="black" d="M457.78,-923.89C481.66,-941.59 523.88,-971.11 563.66,-990 570.9,-993.44 578.7,-996.6 586.5,-999.46"/>
<polygon fill="black" stroke="black" points="585.41,-1002.79 596,-1002.79 587.73,-996.18 585.41,-1002.79"/>
</g>
<!-- lead_7 -->
<g id="node7" class="node">
<title>lead_7</title>
<g id="a_node7"><a xlink:href="javascript:s=&quot;\(&#x27;default&#x27;,\ &#x27;switch&#x27;,\ \(&#x27;lead&#x27;,\ 3\)\)\nTactileSwitchTL1105Lead&quot;; console.log(s); alert(s);" xlink:title="TactileSwitchTL1105Lead">
<ellipse fill="none" stroke="black" cx="648.16" cy="-963" rx="44.39" ry="18"/>
<text text-anchor="middle" x="648.16" y="-959.3" font-family="Times New Roman,serif" font-size="14.00">(&#39;lead&#39;, 3)</text>
</a>
</g>
</g>
<!-- switch_3&#45;&gt;lead_7 -->
<g id="edge6" class="edge">
<title>switch_3&#45;&gt;lead_7</title>
<path fill="none" stroke="black" d="M468.69,-916.85C503.31,-925.8 560.31,-940.54 600.57,-950.95"/>
<polygon fill="black" stroke="black" points="599.86,-954.39 610.42,-953.5 601.61,-947.61 599.86,-954.39"/>
</g>
<!-- lead_10 -->
<g id="node10" class="node">
<title>lead_10</title>
<g id="a_node10"><a xlink:href="javascript:s=&quot;\(&#x27;default&#x27;,\ &#x27;switch&#x27;,\ \(&#x27;lead&#x27;,\ 1\)\)\nTactileSwitchTL1105Lead&quot;; console.log(s); alert(s);" xlink:title="TactileSwitchTL1105Lead">
<ellipse fill="none" stroke="black" cx="648.16" cy="-909" rx="44.39" ry="18"/>
<text text-anchor="middle" x="648.16" y="-905.3" font-family="Times New Roman,serif" font-size="14.00">(&#39;lead&#39;, 1)</text>
</a>
</g>
</g>
<!-- switch_3&#45;&gt;lead_10 -->
<g id="edge9" class="edge">
<title>switch_3&#45;&gt;lead_10</title>
<path fill="none" stroke="black" d="M471.88,-909C504.65,-909 555.07,-909 593.43,-909"/>
<polygon fill="black" stroke="black" points="593.9,-912.5 603.9,-909 593.9,-905.5 593.9,-912.5"/>
</g>
<!-- lead_pos_cage_13 -->
<g id="node13" class="node">
<title>lead_pos_cage_13</title>
<g id="a_node13"><a xlink:href="javascript:s=&quot;\(&#x27;default&#x27;,\ &#x27;switch&#x27;,\ \(&#x27;lead_pos_cage&#x27;,\ 1\)\)\nBox&quot;; console.log(s); alert(s);" xlink:title="Box">
<ellipse fill="none" stroke="black" cx="648.16" cy="-855" rx="84.49" ry="18"/>
<text text-anchor="middle" x="648.16" y="-851.3" font-family="Times New Roman,serif" font-size="14.00">(&#39;lead_pos_cage&#39;, 1)</text>
</a>
</g>
</g>
<!-- switch_3&#45;&gt;lead_pos_cage_13 -->
<g id="edge12" class="edge">
<title>switch_3&#45;&gt;lead_pos_cage_13</title>
<path fill="none" stroke="black" d="M468.69,-901.15C498.7,-893.39 545.53,-881.28 583.68,-871.41"/>
<polygon fill="black" stroke="black" points="584.88,-874.72 593.69,-868.83 583.13,-867.94 584.88,-874.72"/>
</g>
<!-- lead_14 -->
<g id="node14" class="node">
<title>lead_14</title>
<g id="a_node14"><a xlink:href="javascript:s=&quot;\(&#x27;default&#x27;,\ &#x27;switch&#x27;,\ \(&#x27;lead&#x27;,\ 2\)\)\nTactileSwitchTL1105Lead&quot;; console.log(s); alert(s);" xlink:title="TactileSwitchTL1105Lead">
<ellipse fill="none" stroke="black" cx="648.16" cy="-801" rx="44.39" ry="18"/>
<text text-anchor="middle" x="648.16" y="-797.3" font-family="Times New Roman,serif" font-size="14.00">(&#39;lead&#39;, 2)</text>
</a>
</g>
</g>
<!-- switch_3&#45;&gt;lead_14 -->
<g id="edge13" class="edge">
<title>switch_3&#45;&gt;lead_14</title>
<path fill="none" stroke="black" d="M463.96,-897.35C482.38,-888.48 507.42,-875.37 527.66,-861 545.36,-848.43 544.91,-838.92 563.66,-828 574.68,-821.59 587.4,-816.48 599.55,-812.52"/>
<polygon fill="black" stroke="black" points="600.59,-815.86 609.13,-809.58 598.54,-809.17 600.59,-815.86"/>
</g>
<!-- lead_17 -->
<g id="node17" class="node">
<title>lead_17</title>
<g id="a_node17"><a xlink:href="javascript:s=&quot;\(&#x27;default&#x27;,\ &#x27;switch&#x27;,\ \(&#x27;lead&#x27;,\ 4\)\)\nTactileSwitchTL1105Lead&quot;; console.log(s); alert(s);" xlink:title="TactileSwitchTL1105Lead">
<ellipse fill="none" stroke="black" cx="648.16" cy="-720" rx="44.39" ry="18"/>
<text text-anchor="middle" x="648.16" y="-716.3" font-family="Times New Roman,serif" font-size="14.00">(&#39;lead&#39;, 4)</text>
</a>
</g>
</g>
<!-- switch_3&#45;&gt;lead_17 -->
<g id="edge16" class="edge">
<title>switch_3&#45;&gt;lead_17</title>
<path fill="none" stroke="black" d="M466.96,-899.46C486.32,-891.75 511.25,-879.15 527.66,-861 555.73,-829.96 536.88,-806.15 563.66,-774 575.95,-759.25 593.31,-747.13 609.02,-738.13"/>
<polygon fill="black" stroke="black" points="610.94,-741.07 618.03,-733.2 607.58,-734.93 610.94,-741.07"/>
</g>
<!-- terminal_8 -->
<g id="node8" class="node">
<title>terminal_8</title>
<g id="a_node8"><a xlink:href="javascript:s=&quot;\(&#x27;default&#x27;,\ &#x27;switch&#x27;,\ \(&#x27;lead&#x27;,\ 3\),\ &#x27;terminal&#x27;\)\nLinearExtrude&quot;; console.log(s); alert(s);" xlink:title="LinearExtrude">
<ellipse fill="none" stroke="black" cx="807.65" cy="-1044" rx="38.99" ry="18"/>
<text text-anchor="middle" x="807.65" y="-1040.3" font-family="Times New Roman,serif" font-size="14.00">terminal</text>
</a>
</g>
</g>
<!-- lead_7&#45;&gt;terminal_8 -->
<g id="edge7" class="edge">
<title>lead_7&#45;&gt;terminal_8</title>
<path fill="none" stroke="black" d="M686.38,-972.17C701.22,-976.55 718.18,-982.5 732.65,-990 750.41,-999.2 752.5,-1005.21 768.65,-1017 771.33,-1018.96 774.13,-1020.98 776.93,-1023"/>
<polygon fill="black" stroke="black" points="775.1,-1025.99 785.27,-1028.96 779.17,-1020.3 775.1,-1025.99"/>
</g>
<!-- cage_9 -->
<g id="node9" class="node">
<title>cage_9</title>
<g id="a_node9"><a xlink:href="javascript:s=&quot;\(&#x27;default&#x27;,\ &#x27;switch&#x27;,\ \(&#x27;lead&#x27;,\ 3\),\ &#x27;cage&#x27;\)\nBox&quot;; console.log(s); alert(s);" xlink:title="Box">
<ellipse fill="none" stroke="black" cx="807.65" cy="-990" rx="27.1" ry="18"/>
<text text-anchor="middle" x="807.65" y="-986.3" font-family="Times New Roman,serif" font-size="14.00">cage</text>
</a>
</g>
</g>
<!-- lead_7&#45;&gt;cage_9 -->
<g id="edge8" class="edge">
<title>lead_7&#45;&gt;cage_9</title>
<path fill="none" stroke="black" d="M689.31,-969.88C714.5,-974.2 746.71,-979.72 771,-983.89"/>
<polygon fill="black" stroke="black" points="770.44,-987.34 780.88,-985.58 771.62,-980.44 770.44,-987.34"/>
</g>
<!-- terminal_11 -->
<g id="node11" class="node">
<title>terminal_11</title>
<g id="a_node11"><a xlink:href="javascript:s=&quot;\(&#x27;default&#x27;,\ &#x27;switch&#x27;,\ \(&#x27;lead&#x27;,\ 1\),\ &#x27;terminal&#x27;\)\nLinearExtrude&quot;; console.log(s); alert(s);" xlink:title="LinearExtrude">
<ellipse fill="none" stroke="black" cx="807.65" cy="-936" rx="38.99" ry="18"/>
<text text-anchor="middle" x="807.65" y="-932.3" font-family="Times New Roman,serif" font-size="14.00">terminal</text>
</a>
</g>
</g>
<!-- lead_10&#45;&gt;terminal_11 -->
<g id="edge10" class="edge">
<title>lead_10&#45;&gt;terminal_11</title>
<path fill="none" stroke="black" d="M689.31,-915.88C711.12,-919.62 738.18,-924.26 760.81,-928.14"/>
<polygon fill="black" stroke="black" points="760.42,-931.63 770.87,-929.87 761.6,-924.73 760.42,-931.63"/>
</g>
<!-- cage_12 -->
<g id="node12" class="node">
<title>cage_12</title>
<g id="a_node12"><a xlink:href="javascript:s=&quot;\(&#x27;default&#x27;,\ &#x27;switch&#x27;,\ \(&#x27;lead&#x27;,\ 1\),\ &#x27;cage&#x27;\)\nBox&quot;; console.log(s); alert(s);" xlink:title="Box">
<ellipse fill="none" stroke="black" cx="807.65" cy="-882" rx="27.1" ry="18"/>
<text text-anchor="middle" x="807.65" y="-878.3" font-family="Times New Roman,serif" font-size="14.00">cage</text>
</a>
</g>
</g>
<!-- lead_10&#45;&gt;cage_12 -->
<g id="edge11" class="edge">
<title>lead_10&#45;&gt;cage_12</title>
<path fill="none" stroke="black" d="M689.31,-902.12C714.5,-897.8 746.71,-892.28 771,-888.11"/>
<polygon fill="black" stroke="black" points="771.62,-891.56 780.88,-886.42 770.44,-884.66 771.62,-891.56"/>
</g>
<!-- terminal_15 -->
<g id="node15" class="node">
<title>terminal_15</title>
<g id="a_node15"><a xlink:href="javascript:s=&quot;\(&#x27;default&#x27;,\ &#x27;switch&#x27;,\ \(&#x27;lead&#x27;,\ 2\),\ &#x27;terminal&#x27;\)\nLinearExtrude&quot;; console.log(s); alert(s);" xlink:title="LinearExtrude">
<ellipse fill="none" stroke="black" cx="807.65" cy="-828" rx="38.99" ry="18"/>
<text text-anchor="middle" x="807.65" y="-824.3" font-family="Times New Roman,serif" font-size="14.00">terminal</text>
</a>
</g>
</g>
<!-- lead_14&#45;&gt;terminal_15 -->
<g id="edge14" class="edge">
<title>lead_14&#45;&gt;terminal_15</title>
<path fill="none" stroke="black" d="M689.31,-807.88C711.12,-811.62 738.18,-816.26 760.81,-820.14"/>
<polygon fill="black" stroke="black" points="760.42,-823.63 770.87,-821.87 761.6,-816.73 760.42,-823.63"/>
</g>
<!-- cage_16 -->
<g id="node16" class="node">
<title>cage_16</title>
<g id="a_node16"><a xlink:href="javascript:s=&quot;\(&#x27;default&#x27;,\ &#x27;switch&#x27;,\ \(&#x27;lead&#x27;,\ 2\),\ &#x27;cage&#x27;\)\nBox&quot;; console.log(s); alert(s);" xlink:title="Box">
<ellipse fill="none" stroke="black" cx="807.65" cy="-774" rx="27.1" ry="18"/>
<text text-anchor="middle" x="807.65" y="-770.3" font-family="Times New Roman,serif" font-size="14.00">cage</text>
</a>
</g>
</g>
<!-- lead_14&#45;&gt;cage_16 -->
<g id="edge15" class="edge">
<title>lead_14&#45;&gt;cage_16</title>
<path fill="none" stroke="black" d="M689.31,-794.12C714.5,-789.8 746.71,-784.28 771,-780.11"/>
<polygon fill="black" stroke="black" points="771.62,-783.56 780.88,-778.42 770.44,-776.66 771.62,-783.56"/>
</g>
<!-- terminal_18 -->
<g id="node18" class="node">
<title>terminal_18</title>
<g id="a_node18"><a xlink:href="javascript:s=&quot;\(&#x27;default&#x27;,\ &#x27;switch&#x27;,\ \(&#x27;lead&#x27;,\ 4\),\ &#x27;terminal&#x27;\)\nLinearExtrude&quot;; console.log(s); alert(s);" xlink:title="LinearExtrude">
<ellipse fill="none" stroke="black" cx="807.65" cy="-720" rx="38.99" ry="18"/>
<text text-anchor="middle" x="807.65" y="-716.3" font-family="Times New Roman,serif" font-size="14.00">terminal</text>
</a>
</g>
</g>
<!-- lead_17&#45;&gt;terminal_18 -->
<g id="edge17" class="edge">
<title>lead_17&#45;&gt;terminal_18</title>
<path fill="none" stroke="black" d="M692.61,-720C712.94,-720 737.22,-720 758.15,-720"/>
<polygon fill="black" stroke="black" points="758.43,-723.5 768.43,-720 758.43,-716.5 758.43,-723.5"/>
</g>
<!-- cage_19 -->
<g id="node19" class="node">
<title>cage_19</title>
<g id="a_node19"><a xlink:href="javascript:s=&quot;\(&#x27;default&#x27;,\ &#x27;switch&#x27;,\ \(&#x27;lead&#x27;,\ 4\),\ &#x27;cage&#x27;\)\nBox&quot;; console.log(s); alert(s);" xlink:title="Box">
<ellipse fill="none" stroke="black" cx="807.65" cy="-666" rx="27.1" ry="18"/>
<text text-anchor="middle" x="807.65" y="-662.3" font-family="Times New Roman,serif" font-size="14.00">cage</text>
</a>
</g>
</g>
<!-- lead_17&#45;&gt;cage_19 -->
<g id="edge18" class="edge">
<title>lead_17&#45;&gt;cage_19</title>
<path fill="none" stroke="black" d="M682.56,-708.55C709.3,-699.38 746.62,-686.58 773.34,-677.42"/>
<polygon fill="black" stroke="black" points="774.69,-680.66 783.01,-674.1 772.42,-674.04 774.69,-680.66"/>
</g>
<!-- coords_26 -->
<g id="node26" class="node">
<title>coords_26</title>
<g id="a_node26"><a xlink:href="javascript:s=&quot;\(&quot;&#x27;lead_hole&#x27;,\ 1,\ at_end=True&quot;,\ &#x27;coords&#x27;\)\nCoordinates&quot;; console.log(s); alert(s);" xlink:title="Coordinates">
<ellipse fill="none" stroke="black" cx="437.32" cy="-524" rx="36.29" ry="18"/>
<text text-anchor="middle" x="437.32" y="-520.3" font-family="Times New Roman,serif" font-size="14.00">coords</text>
</a>
</g>
</g>
<!-- 25&#45;&gt;coords_26 -->
<g id="edge25" class="edge">
<title>25&#45;&gt;coords_26</title>
<path fill="none" stroke="black" d="M228.76,-433.52C257.34,-451.32 303.99,-478.79 346.98,-497 362.16,-503.43 379.38,-509.01 394.62,-513.41"/>
<polygon fill="black" stroke="black" points="393.74,-516.79 404.31,-516.12 395.63,-510.05 393.74,-516.79"/>
</g>
<!-- x_37 -->
<g id="node37" class="node">
<title>x_37</title>
<g id="a_node37"><a xlink:href="javascript:s=&quot;\(&quot;&#x27;lead_hole&#x27;,\ 1,\ at_end=True&quot;,\ &#x27;x&#x27;\)\nText&quot;; console.log(s); alert(s);" xlink:title="Text">
<ellipse fill="none" stroke="black" cx="437.32" cy="-470" rx="27" ry="18"/>
<text text-anchor="middle" x="437.32" y="-466.3" font-family="Times New Roman,serif" font-size="14.00">x</text>
</a>
</g>
</g>
<!-- 25&#45;&gt;x_37 -->
<g id="edge36" class="edge">
<title>25&#45;&gt;x_37</title>
<path fill="none" stroke="black" d="M265.04,-430.61C308.93,-440.71 365.64,-453.75 401.5,-461.99"/>
<polygon fill="black" stroke="black" points="400.96,-465.46 411.49,-464.29 402.52,-458.64 400.96,-465.46"/>
</g>
<!-- y_38 -->
<g id="node38" class="node">
<title>y_38</title>
<g id="a_node38"><a xlink:href="javascript:s=&quot;\(&quot;&#x27;lead_hole&#x27;,\ 1,\ at_end=True&quot;,\ &#x27;y&#x27;\)\nText&quot;; console.log(s); alert(s);" xlink:title="Text">
<ellipse fill="none" stroke="black" cx="437.32" cy="-416" rx="27" ry="18"/>
<text text-anchor="middle" x="437.32" y="-412.3" font-family="Times New Roman,serif" font-size="14.00">y</text>
</a>
</g>
</g>
<!-- 25&#45;&gt;y_38 -->
<g id="edge37" class="edge">
<title>25&#45;&gt;y_38</title>
<path fill="none" stroke="black" d="M311,-416C343.08,-416 375.95,-416 399.98,-416"/>
<polygon fill="black" stroke="black" points="400.03,-419.5 410.03,-416 400.03,-412.5 400.03,-419.5"/>
</g>
<!-- z_39 -->
<g id="node39" class="node">
<title>z_39</title>
<g id="a_node39"><a xlink:href="javascript:s=&quot;\(&quot;&#x27;lead_hole&#x27;,\ 1,\ at_end=True&quot;,\ &#x27;z&#x27;\)\nText&quot;; console.log(s); alert(s);" xlink:title="Text">
<ellipse fill="none" stroke="black" cx="437.32" cy="-362" rx="27" ry="18"/>
<text text-anchor="middle" x="437.32" y="-358.3" font-family="Times New Roman,serif" font-size="14.00">z</text>
</a>
</g>
</g>
<!-- 25&#45;&gt;z_39 -->
<g id="edge38" class="edge">
<title>25&#45;&gt;z_39</title>
<path fill="none" stroke="black" d="M265.04,-401.39C308.93,-391.29 365.64,-378.25 401.5,-370.01"/>
<polygon fill="black" stroke="black" points="402.52,-373.36 411.49,-367.71 400.96,-366.54 402.52,-373.36"/>
</g>
<!-- label_40 -->
<g id="node40" class="node">
<title>label_40</title>
<g id="a_node40"><a xlink:href="javascript:s=&quot;\(&quot;&#x27;lead_hole&#x27;,\ 1,\ at_end=True&quot;,\ &#x27;label&#x27;\)\nText&quot;; console.log(s); alert(s);" xlink:title="Text">
<ellipse fill="none" stroke="black" cx="437.32" cy="-308" rx="27.1" ry="18"/>
<text text-anchor="middle" x="437.32" y="-304.3" font-family="Times New Roman,serif" font-size="14.00">label</text>
</a>
</g>
</g>
<!-- 25&#45;&gt;label_40 -->
<g id="edge39" class="edge">
<title>25&#45;&gt;label_40</title>
<path fill="none" stroke="black" d="M228.76,-398.48C257.34,-380.68 303.99,-353.21 346.98,-335 364.53,-327.57 384.8,-321.27 401.6,-316.62"/>
<polygon fill="black" stroke="black" points="402.8,-319.93 411.55,-313.95 400.99,-313.16 402.8,-319.93"/>
</g>
<!-- origin_27 -->
<g id="node27" class="node">
<title>origin_27</title>
<g id="a_node27"><a xlink:href="javascript:s=&quot;\(&quot;&#x27;lead_hole&#x27;,\ 1,\ at_end=True&quot;,\ &#x27;coords&#x27;,\ &#x27;origin&#x27;\)\nCoordinatesCage&quot;; console.log(s); alert(s);" xlink:title="CoordinatesCage">
<ellipse fill="none" stroke="black" cx="648.16" cy="-612" rx="31.4" ry="18"/>
<text text-anchor="middle" x="648.16" y="-608.3" font-family="Times New Roman,serif" font-size="14.00">origin</text>
</a>
</g>
</g>
<!-- coords_26&#45;&gt;origin_27 -->
<g id="edge26" class="edge">
<title>coords_26&#45;&gt;origin_27</title>
<path fill="none" stroke="black" d="M462.83,-537.2C487.76,-550.32 527.75,-570.54 563.66,-585 578.59,-591.01 595.41,-596.66 610.03,-601.22"/>
<polygon fill="black" stroke="black" points="609.15,-604.61 619.74,-604.19 611.2,-597.92 609.15,-604.61"/>
</g>
<!-- x_arrow_28 -->
<g id="node28" class="node">
<title>x_arrow_28</title>
<g id="a_node28"><a xlink:href="javascript:s=&quot;\(&quot;&#x27;lead_hole&#x27;,\ 1,\ at_end=True&quot;,\ &#x27;coords&#x27;,\ &#x27;x_arrow&#x27;\)\nArrow&quot;; console.log(s); alert(s);" xlink:title="Arrow">
<ellipse fill="none" stroke="black" cx="648.16" cy="-558" rx="40.89" ry="18"/>
<text text-anchor="middle" x="648.16" y="-554.3" font-family="Times New Roman,serif" font-size="14.00">x_arrow</text>
</a>
</g>
</g>
<!-- coords_26&#45;&gt;x_arrow_28 -->
<g id="edge27" class="edge">
<title>coords_26&#45;&gt;x_arrow_28</title>
<path fill="none" stroke="black" d="M472.34,-529.54C506.93,-535.17 560.81,-543.94 599.61,-550.26"/>
<polygon fill="black" stroke="black" points="599.19,-553.74 609.62,-551.89 600.32,-546.83 599.19,-553.74"/>
</g>
<!-- y_arrow_31 -->
<g id="node31" class="node">
<title>y_arrow_31</title>
<g id="a_node31"><a xlink:href="javascript:s=&quot;\(&quot;&#x27;lead_hole&#x27;,\ 1,\ at_end=True&quot;,\ &#x27;coords&#x27;,\ &#x27;y_arrow&#x27;\)\nArrow&quot;; console.log(s); alert(s);" xlink:title="Arrow">
<ellipse fill="none" stroke="black" cx="648.16" cy="-504" rx="40.89" ry="18"/>
<text text-anchor="middle" x="648.16" y="-500.3" font-family="Times New Roman,serif" font-size="14.00">y_arrow</text>
</a>
</g>
</g>
<!-- coords_26&#45;&gt;y_arrow_31 -->
<g id="edge30" class="edge">
<title>coords_26&#45;&gt;y_arrow_31</title>
<path fill="none" stroke="black" d="M473.28,-520.65C507.24,-517.4 559.15,-512.43 597.41,-508.76"/>
<polygon fill="black" stroke="black" points="598.19,-512.21 607.82,-507.77 597.53,-505.24 598.19,-512.21"/>
</g>
<!-- z_arrow_34 -->
<g id="node34" class="node">
<title>z_arrow_34</title>
<g id="a_node34"><a xlink:href="javascript:s=&quot;\(&quot;&#x27;lead_hole&#x27;,\ 1,\ at_end=True&quot;,\ &#x27;coords&#x27;,\ &#x27;z_arrow&#x27;\)\nArrow&quot;; console.log(s); alert(s);" xlink:title="Arrow">
<ellipse fill="none" stroke="black" cx="648.16" cy="-396" rx="40.09" ry="18"/>
<text text-anchor="middle" x="648.16" y="-392.3" font-family="Times New Roman,serif" font-size="14.00">z_arrow</text>
</a>
</g>
</g>
<!-- coords_26&#45;&gt;z_arrow_34 -->
<g id="edge33" class="edge">
<title>coords_26&#45;&gt;z_arrow_34</title>
<path fill="none" stroke="black" d="M471.43,-517.41C488.84,-513.12 510.15,-506.51 527.66,-497 565.41,-476.5 602.11,-442.79 624.66,-420.01"/>
<polygon fill="black" stroke="black" points="627.28,-422.34 631.75,-412.74 622.26,-417.46 627.28,-422.34"/>
</g>
<!-- stem_29 -->
<g id="node29" class="node">
<title>stem_29</title>
<g id="a_node29"><a xlink:href="javascript:s=&quot;\(&quot;&#x27;lead_hole&#x27;,\ 1,\ at_end=True&quot;,\ &#x27;coords&#x27;,\ &#x27;x_arrow&#x27;,\ &#x27;stem&#x27;\)\nCone&quot;; console.log(s); alert(s);" xlink:title="Cone">
<ellipse fill="none" stroke="black" cx="807.65" cy="-612" rx="27.9" ry="18"/>
<text text-anchor="middle" x="807.65" y="-608.3" font-family="Times New Roman,serif" font-size="14.00">stem</text>
</a>
</g>
</g>
<!-- x_arrow_28&#45;&gt;stem_29 -->
<g id="edge28" class="edge">
<title>x_arrow_28&#45;&gt;stem_29</title>
<path fill="none" stroke="black" d="M682.16,-568.36C697.55,-573.27 716.08,-579.3 732.65,-585 746.02,-589.6 760.65,-594.89 773.35,-599.55"/>
<polygon fill="black" stroke="black" points="772.47,-602.96 783.06,-603.14 774.9,-596.39 772.47,-602.96"/>
</g>
<!-- head_30 -->
<g id="node30" class="node">
<title>head_30</title>
<g id="a_node30"><a xlink:href="javascript:s=&quot;\(&quot;&#x27;lead_hole&#x27;,\ 1,\ at_end=True&quot;,\ &#x27;coords&#x27;,\ &#x27;x_arrow&#x27;,\ &#x27;head&#x27;\)\nCone&quot;; console.log(s); alert(s);" xlink:title="Cone">
<ellipse fill="none" stroke="black" cx="807.65" cy="-558" rx="27.9" ry="18"/>
<text text-anchor="middle" x="807.65" y="-554.3" font-family="Times New Roman,serif" font-size="14.00">head</text>
</a>
</g>
</g>
<!-- x_arrow_28&#45;&gt;head_30 -->
<g id="edge29" class="edge">
<title>x_arrow_28&#45;&gt;head_30</title>
<path fill="none" stroke="black" d="M689.31,-558C713.91,-558 745.21,-558 769.29,-558"/>
<polygon fill="black" stroke="black" points="769.46,-561.5 779.46,-558 769.46,-554.5 769.46,-561.5"/>
</g>
<!-- stem_32 -->
<g id="node32" class="node">
<title>stem_32</title>
<g id="a_node32"><a xlink:href="javascript:s=&quot;\(&quot;&#x27;lead_hole&#x27;,\ 1,\ at_end=True&quot;,\ &#x27;coords&#x27;,\ &#x27;y_arrow&#x27;,\ &#x27;stem&#x27;\)\nCone&quot;; console.log(s); alert(s);" xlink:title="Cone">
<ellipse fill="none" stroke="black" cx="807.65" cy="-504" rx="27.9" ry="18"/>
<text text-anchor="middle" x="807.65" y="-500.3" font-family="Times New Roman,serif" font-size="14.00">stem</text>
</a>
</g>
</g>
<!-- y_arrow_31&#45;&gt;stem_32 -->
<g id="edge31" class="edge">
<title>y_arrow_31&#45;&gt;stem_32</title>
<path fill="none" stroke="black" d="M689.31,-504C713.91,-504 745.21,-504 769.29,-504"/>
<polygon fill="black" stroke="black" points="769.46,-507.5 779.46,-504 769.46,-500.5 769.46,-507.5"/>
</g>
<!-- head_33 -->
<g id="node33" class="node">
<title>head_33</title>
<g id="a_node33"><a xlink:href="javascript:s=&quot;\(&quot;&#x27;lead_hole&#x27;,\ 1,\ at_end=True&quot;,\ &#x27;coords&#x27;,\ &#x27;y_arrow&#x27;,\ &#x27;head&#x27;\)\nCone&quot;; console.log(s); alert(s);" xlink:title="Cone">
<ellipse fill="none" stroke="black" cx="807.65" cy="-450" rx="27.9" ry="18"/>
<text text-anchor="middle" x="807.65" y="-446.3" font-family="Times New Roman,serif" font-size="14.00">head</text>
</a>
</g>
</g>
<!-- y_arrow_31&#45;&gt;head_33 -->
<g id="edge32" class="edge">
<title>y_arrow_31&#45;&gt;head_33</title>
<path fill="none" stroke="black" d="M681.03,-493.07C707.76,-483.9 745.84,-470.85 773.05,-461.52"/>
<polygon fill="black" stroke="black" points="774.22,-464.82 782.54,-458.27 771.94,-458.2 774.22,-464.82"/>
</g>
<!-- stem_35 -->
<g id="node35" class="node">
<title>stem_35</title>
<g id="a_node35"><a xlink:href="javascript:s=&quot;\(&quot;&#x27;lead_hole&#x27;,\ 1,\ at_end=True&quot;,\ &#x27;coords&#x27;,\ &#x27;z_arrow&#x27;,\ &#x27;stem&#x27;\)\nCone&quot;; console.log(s); alert(s);" xlink:title="Cone">
<ellipse fill="none" stroke="black" cx="807.65" cy="-396" rx="27.9" ry="18"/>
<text text-anchor="middle" x="807.65" y="-392.3" font-family="Times New Roman,serif" font-size="14.00">stem</text>
</a>
</g>
</g>
<!-- z_arrow_34&#45;&gt;stem_35 -->
<g id="edge34" class="edge">
<title>z_arrow_34&#45;&gt;stem_35</title>
<path fill="none" stroke="black" d="M688.49,-396C713.25,-396 745.02,-396 769.38,-396"/>
<polygon fill="black" stroke="black" points="769.66,-399.5 779.66,-396 769.66,-392.5 769.66,-399.5"/>
</g>
<!-- head_36 -->
<g id="node36" class="node">
<title>head_36</title>
<g id="a_node36"><a xlink:href="javascript:s=&quot;\(&quot;&#x27;lead_hole&#x27;,\ 1,\ at_end=True&quot;,\ &#x27;coords&#x27;,\ &#x27;z_arrow&#x27;,\ &#x27;head&#x27;\)\nCone&quot;; console.log(s); alert(s);" xlink:title="Cone">
<ellipse fill="none" stroke="black" cx="807.65" cy="-342" rx="27.9" ry="18"/>
<text text-anchor="middle" x="807.65" y="-338.3" font-family="Times New Roman,serif" font-size="14.00">head</text>
</a>
</g>
</g>
<!-- z_arrow_34&#45;&gt;head_36 -->
<g id="edge35" class="edge">
<title>z_arrow_34&#45;&gt;head_36</title>
<path fill="none" stroke="black" d="M680.65,-385.2C707.35,-376.05 745.56,-362.95 772.88,-353.58"/>
<polygon fill="black" stroke="black" points="774.1,-356.86 782.42,-350.31 771.83,-350.24 774.1,-356.86"/>
</g>
<!-- coords_42 -->
<g id="node42" class="node">
<title>coords_42</title>
<g id="a_node42"><a xlink:href="javascript:s=&quot;\(&quot;&#x27;lead_hole&#x27;,\ 2,\ at_end=True&quot;,\ &#x27;coords&#x27;\)\nCoordinates&quot;; console.log(s); alert(s);" xlink:title="Coordinates">
<ellipse fill="none" stroke="black" cx="437.32" cy="-234" rx="36.29" ry="18"/>
<text text-anchor="middle" x="437.32" y="-230.3" font-family="Times New Roman,serif" font-size="14.00">coords</text>
</a>
</g>
</g>
<!-- 41&#45;&gt;coords_42 -->
<g id="edge41" class="edge">
<title>41&#45;&gt;coords_42</title>
<path fill="none" stroke="black" d="M244.21,-169.65C273.07,-180.7 312.12,-195.28 346.98,-207 362.73,-212.3 380.19,-217.68 395.48,-222.24"/>
<polygon fill="black" stroke="black" points="394.58,-225.62 405.16,-225.1 396.56,-218.91 394.58,-225.62"/>
</g>
<!-- x_53 -->
<g id="node53" class="node">
<title>x_53</title>
<g id="a_node53"><a xlink:href="javascript:s=&quot;\(&quot;&#x27;lead_hole&#x27;,\ 2,\ at_end=True&quot;,\ &#x27;x&#x27;\)\nText&quot;; console.log(s); alert(s);" xlink:title="Text">
<ellipse fill="none" stroke="black" cx="437.32" cy="-180" rx="27" ry="18"/>
<text text-anchor="middle" x="437.32" y="-176.3" font-family="Times New Roman,serif" font-size="14.00">x</text>
</a>
</g>
</g>
<!-- 41&#45;&gt;x_53 -->
<g id="edge52" class="edge">
<title>41&#45;&gt;x_53</title>
<path fill="none" stroke="black" d="M291.28,-163.32C329.33,-167.7 371.49,-172.55 400.5,-175.88"/>
<polygon fill="black" stroke="black" points="400.23,-179.37 410.57,-177.04 401.03,-172.42 400.23,-179.37"/>
</g>
<!-- y_54 -->
<g id="node54" class="node">
<title>y_54</title>
<g id="a_node54"><a xlink:href="javascript:s=&quot;\(&quot;&#x27;lead_hole&#x27;,\ 2,\ at_end=True&quot;,\ &#x27;y&#x27;\)\nText&quot;; console.log(s); alert(s);" xlink:title="Text">
<ellipse fill="none" stroke="black" cx="437.32" cy="-126" rx="27" ry="18"/>
<text text-anchor="middle" x="437.32" y="-122.3" font-family="Times New Roman,serif" font-size="14.00">y</text>
</a>
</g>
</g>
<!-- 41&#45;&gt;y_54 -->
<g id="edge53" class="edge">
<title>41&#45;&gt;y_54</title>
<path fill="none" stroke="black" d="M291.28,-142.68C329.33,-138.3 371.49,-133.45 400.5,-130.12"/>
<polygon fill="black" stroke="black" points="401.03,-133.58 410.57,-128.96 400.23,-126.63 401.03,-133.58"/>
</g>
<!-- z_55 -->
<g id="node55" class="node">
<title>z_55</title>
<g id="a_node55"><a xlink:href="javascript:s=&quot;\(&quot;&#x27;lead_hole&#x27;,\ 2,\ at_end=True&quot;,\ &#x27;z&#x27;\)\nText&quot;; console.log(s); alert(s);" xlink:title="Text">
<ellipse fill="none" stroke="black" cx="437.32" cy="-72" rx="27" ry="18"/>
<text text-anchor="middle" x="437.32" y="-68.3" font-family="Times New Roman,serif" font-size="14.00">z</text>
</a>
</g>
</g>
<!-- 41&#45;&gt;z_55 -->
<g id="edge54" class="edge">
<title>41&#45;&gt;z_55</title>
<path fill="none" stroke="black" d="M244.21,-136.35C273.07,-125.3 312.12,-110.72 346.98,-99 365.17,-92.88 385.65,-86.65 402.41,-81.71"/>
<polygon fill="black" stroke="black" points="403.69,-84.98 412.31,-78.82 401.72,-78.27 403.69,-84.98"/>
</g>
<!-- label_56 -->
<g id="node56" class="node">
<title>label_56</title>
<g id="a_node56"><a xlink:href="javascript:s=&quot;\(&quot;&#x27;lead_hole&#x27;,\ 2,\ at_end=True&quot;,\ &#x27;label&#x27;\)\nText&quot;; console.log(s); alert(s);" xlink:title="Text">
<ellipse fill="none" stroke="black" cx="437.32" cy="-18" rx="27.1" ry="18"/>
<text text-anchor="middle" x="437.32" y="-14.3" font-family="Times New Roman,serif" font-size="14.00">label</text>
</a>
</g>
</g>
<!-- 41&#45;&gt;label_56 -->
<g id="edge55" class="edge">
<title>41&#45;&gt;label_56</title>
<path fill="none" stroke="black" d="M220.74,-135.24C247.3,-111.6 297.52,-69.88 346.98,-45 363.88,-36.5 383.95,-30.14 400.79,-25.73"/>
<polygon fill="black" stroke="black" points="401.93,-29.05 410.79,-23.24 400.24,-22.26 401.93,-29.05"/>
</g>
<!-- origin_43 -->
<g id="node43" class="node">
<title>origin_43</title>
<g id="a_node43"><a xlink:href="javascript:s=&quot;\(&quot;&#x27;lead_hole&#x27;,\ 2,\ at_end=True&quot;,\ &#x27;coords&#x27;,\ &#x27;origin&#x27;\)\nCoordinatesCage&quot;; console.log(s); alert(s);" xlink:title="CoordinatesCage">
<ellipse fill="none" stroke="black" cx="648.16" cy="-288" rx="31.4" ry="18"/>
<text text-anchor="middle" x="648.16" y="-284.3" font-family="Times New Roman,serif" font-size="14.00">origin</text>
</a>
</g>
</g>
<!-- coords_42&#45;&gt;origin_43 -->
<g id="edge42" class="edge">
<title>coords_42&#45;&gt;origin_43</title>
<path fill="none" stroke="black" d="M470.04,-242.2C507.51,-251.89 569.78,-267.99 609.62,-278.29"/>
<polygon fill="black" stroke="black" points="608.93,-281.73 619.49,-280.85 610.68,-274.95 608.93,-281.73"/>
</g>
<!-- x_arrow_44 -->
<g id="node44" class="node">
<title>x_arrow_44</title>
<g id="a_node44"><a xlink:href="javascript:s=&quot;\(&quot;&#x27;lead_hole&#x27;,\ 2,\ at_end=True&quot;,\ &#x27;coords&#x27;,\ &#x27;x_arrow&#x27;\)\nArrow&quot;; console.log(s); alert(s);" xlink:title="Arrow">
<ellipse fill="none" stroke="black" cx="648.16" cy="-234" rx="40.89" ry="18"/>
<text text-anchor="middle" x="648.16" y="-230.3" font-family="Times New Roman,serif" font-size="14.00">x_arrow</text>
</a>
</g>
</g>
<!-- coords_42&#45;&gt;x_arrow_44 -->
<g id="edge43" class="edge">
<title>coords_42&#45;&gt;x_arrow_44</title>
<path fill="none" stroke="black" d="M473.75,-234C507.47,-234 558.56,-234 596.56,-234"/>
<polygon fill="black" stroke="black" points="596.91,-237.5 606.91,-234 596.91,-230.5 596.91,-237.5"/>
</g>
<!-- y_arrow_47 -->
<g id="node47" class="node">
<title>y_arrow_47</title>
<g id="a_node47"><a xlink:href="javascript:s=&quot;\(&quot;&#x27;lead_hole&#x27;,\ 2,\ at_end=True&quot;,\ &#x27;coords&#x27;,\ &#x27;y_arrow&#x27;\)\nArrow&quot;; console.log(s); alert(s);" xlink:title="Arrow">
<ellipse fill="none" stroke="black" cx="648.16" cy="-180" rx="40.89" ry="18"/>
<text text-anchor="middle" x="648.16" y="-176.3" font-family="Times New Roman,serif" font-size="14.00">y_arrow</text>
</a>
</g>
</g>
<!-- coords_42&#45;&gt;y_arrow_47 -->
<g id="edge46" class="edge">
<title>coords_42&#45;&gt;y_arrow_47</title>
<path fill="none" stroke="black" d="M470.04,-225.8C505.38,-216.66 562.79,-201.82 602.62,-191.52"/>
<polygon fill="black" stroke="black" points="603.54,-194.89 612.35,-189 601.79,-188.12 603.54,-194.89"/>
</g>
<!-- z_arrow_50 -->
<g id="node50" class="node">
<title>z_arrow_50</title>
<g id="a_node50"><a xlink:href="javascript:s=&quot;\(&quot;&#x27;lead_hole&#x27;,\ 2,\ at_end=True&quot;,\ &#x27;coords&#x27;,\ &#x27;z_arrow&#x27;\)\nArrow&quot;; console.log(s); alert(s);" xlink:title="Arrow">
<ellipse fill="none" stroke="black" cx="648.16" cy="-72" rx="40.09" ry="18"/>
<text text-anchor="middle" x="648.16" y="-68.3" font-family="Times New Roman,serif" font-size="14.00">z_arrow</text>
</a>
</g>
</g>
<!-- coords_42&#45;&gt;z_arrow_50 -->
<g id="edge49" class="edge">
<title>coords_42&#45;&gt;z_arrow_50</title>
<path fill="none" stroke="black" d="M472.65,-229.32C490.41,-225.57 511.66,-218.87 527.66,-207 550.83,-189.82 545.21,-175.17 563.66,-153 581.26,-131.87 603.75,-110.3 620.96,-94.74"/>
<polygon fill="black" stroke="black" points="623.34,-97.31 628.46,-88.04 618.67,-92.1 623.34,-97.31"/>
</g>
<!-- stem_45 -->
<g id="node45" class="node">
<title>stem_45</title>
<g id="a_node45"><a xlink:href="javascript:s=&quot;\(&quot;&#x27;lead_hole&#x27;,\ 2,\ at_end=True&quot;,\ &#x27;coords&#x27;,\ &#x27;x_arrow&#x27;,\ &#x27;stem&#x27;\)\nCone&quot;; console.log(s); alert(s);" xlink:title="Cone">
<ellipse fill="none" stroke="black" cx="807.65" cy="-288" rx="27.9" ry="18"/>
<text text-anchor="middle" x="807.65" y="-284.3" font-family="Times New Roman,serif" font-size="14.00">stem</text>
</a>
</g>
</g>
<!-- x_arrow_44&#45;&gt;stem_45 -->
<g id="edge44" class="edge">
<title>x_arrow_44&#45;&gt;stem_45</title>
<path fill="none" stroke="black" d="M682.16,-244.36C697.55,-249.27 716.08,-255.3 732.65,-261 746.02,-265.6 760.65,-270.89 773.35,-275.55"/>
<polygon fill="black" stroke="black" points="772.47,-278.96 783.06,-279.14 774.9,-272.39 772.47,-278.96"/>
</g>
<!-- head_46 -->
<g id="node46" class="node">
<title>head_46</title>
<g id="a_node46"><a xlink:href="javascript:s=&quot;\(&quot;&#x27;lead_hole&#x27;,\ 2,\ at_end=True&quot;,\ &#x27;coords&#x27;,\ &#x27;x_arrow&#x27;,\ &#x27;head&#x27;\)\nCone&quot;; console.log(s); alert(s);" xlink:title="Cone">
<ellipse fill="none" stroke="black" cx="807.65" cy="-234" rx="27.9" ry="18"/>
<text text-anchor="middle" x="807.65" y="-230.3" font-family="Times New Roman,serif" font-size="14.00">head</text>
</a>
</g>
</g>
<!-- x_arrow_44&#45;&gt;head_46 -->
<g id="edge45" class="edge">
<title>x_arrow_44&#45;&gt;head_46</title>
<path fill="none" stroke="black" d="M689.31,-234C713.91,-234 745.21,-234 769.29,-234"/>
<polygon fill="black" stroke="black" points="769.46,-237.5 779.46,-234 769.46,-230.5 769.46,-237.5"/>
</g>
<!-- stem_48 -->
<g id="node48" class="node">
<title>stem_48</title>
<g id="a_node48"><a xlink:href="javascript:s=&quot;\(&quot;&#x27;lead_hole&#x27;,\ 2,\ at_end=True&quot;,\ &#x27;coords&#x27;,\ &#x27;y_arrow&#x27;,\ &#x27;stem&#x27;\)\nCone&quot;; console.log(s); alert(s);" xlink:title="Cone">
<ellipse fill="none" stroke="black" cx="807.65" cy="-180" rx="27.9" ry="18"/>
<text text-anchor="middle" x="807.65" y="-176.3" font-family="Times New Roman,serif" font-size="14.00">stem</text>
</a>
</g>
</g>
<!-- y_arrow_47&#45;&gt;stem_48 -->
<g id="edge47" class="edge">
<title>y_arrow_47&#45;&gt;stem_48</title>
<path fill="none" stroke="black" d="M689.31,-180C713.91,-180 745.21,-180 769.29,-180"/>
<polygon fill="black" stroke="black" points="769.46,-183.5 779.46,-180 769.46,-176.5 769.46,-183.5"/>
</g>
<!-- head_49 -->
<g id="node49" class="node">
<title>head_49</title>
<g id="a_node49"><a xlink:href="javascript:s=&quot;\(&quot;&#x27;lead_hole&#x27;,\ 2,\ at_end=True&quot;,\ &#x27;coords&#x27;,\ &#x27;y_arrow&#x27;,\ &#x27;head&#x27;\)\nCone&quot;; console.log(s); alert(s);" xlink:title="Cone">
<ellipse fill="none" stroke="black" cx="807.65" cy="-126" rx="27.9" ry="18"/>
<text text-anchor="middle" x="807.65" y="-122.3" font-family="Times New Roman,serif" font-size="14.00">head</text>
</a>
</g>
</g>
<!-- y_arrow_47&#45;&gt;head_49 -->
<g id="edge48" class="edge">
<title>y_arrow_47&#45;&gt;head_49</title>
<path fill="none" stroke="black" d="M681.03,-169.07C707.76,-159.9 745.84,-146.85 773.05,-137.52"/>
<polygon fill="black" stroke="black" points="774.22,-140.82 782.54,-134.27 771.94,-134.2 774.22,-140.82"/>
</g>
<!-- stem_51 -->
<g id="node51" class="node">
<title>stem_51</title>
<g id="a_node51"><a xlink:href="javascript:s=&quot;\(&quot;&#x27;lead_hole&#x27;,\ 2,\ at_end=True&quot;,\ &#x27;coords&#x27;,\ &#x27;z_arrow&#x27;,\ &#x27;stem&#x27;\)\nCone&quot;; console.log(s); alert(s);" xlink:title="Cone">
<ellipse fill="none" stroke="black" cx="807.65" cy="-72" rx="27.9" ry="18"/>
<text text-anchor="middle" x="807.65" y="-68.3" font-family="Times New Roman,serif" font-size="14.00">stem</text>
</a>
</g>
</g>
<!-- z_arrow_50&#45;&gt;stem_51 -->
<g id="edge50" class="edge">
<title>z_arrow_50&#45;&gt;stem_51</title>
<path fill="none" stroke="black" d="M688.49,-72C713.25,-72 745.02,-72 769.38,-72"/>
<polygon fill="black" stroke="black" points="769.66,-75.5 779.66,-72 769.66,-68.5 769.66,-75.5"/>
</g>
<!-- head_52 -->
<g id="node52" class="node">
<title>head_52</title>
<g id="a_node52"><a xlink:href="javascript:s=&quot;\(&quot;&#x27;lead_hole&#x27;,\ 2,\ at_end=True&quot;,\ &#x27;coords&#x27;,\ &#x27;z_arrow&#x27;,\ &#x27;head&#x27;\)\nCone&quot;; console.log(s); alert(s);" xlink:title="Cone">
<ellipse fill="none" stroke="black" cx="807.65" cy="-18" rx="27.9" ry="18"/>
<text text-anchor="middle" x="807.65" y="-14.3" font-family="Times New Roman,serif" font-size="14.00">head</text>
</a>
</g>
</g>
<!-- z_arrow_50&#45;&gt;head_52 -->
<g id="edge51" class="edge">
<title>z_arrow_50&#45;&gt;head_52</title>
<path fill="none" stroke="black" d="M680.65,-61.2C707.35,-52.05 745.56,-38.95 772.88,-29.58"/>
<polygon fill="black" stroke="black" points="774.1,-32.86 782.42,-26.31 771.83,-26.24 774.1,-32.86"/>
</g>
</g>
</svg>
