<?xml version="1.0" encoding="UTF-8" standalone="no"?>
<!DOCTYPE svg PUBLIC "-//W3C//DTD SVG 1.1//EN"
 "http://www.w3.org/Graphics/SVG/1.1/DTD/svg11.dtd">
<!-- Generated by graphviz version 5.0.0 (20220707.1540)
 -->
<!-- Title: default Pages: 1 -->
<svg width="469pt" height="584pt"
 viewBox="0.00 0.00 468.97 584.00" xmlns="http://www.w3.org/2000/svg" xmlns:xlink="http://www.w3.org/1999/xlink">
<g id="graph0" class="graph" transform="scale(1 1) rotate(0) translate(4 580)">
<title>default</title>
<polygon fill="white" stroke="transparent" points="-4,4 -4,-580 464.97,-580 464.97,4 -4,4"/>
<!-- root_1 -->
<g id="node1" class="node">
<title>root_1</title>
<g id="a_node1"><a xlink:href="javascript:s=&quot;\(\)\nNone&quot;; console.log(s); alert(s);" xlink:title="root">
<ellipse fill="none" stroke="black" cx="27" cy="-369" rx="27" ry="18"/>
<text text-anchor="middle" x="27" y="-365.3" font-family="Times New Roman,serif" font-size="14.00">root</text>
</a>
</g>
</g>
<!-- default_2 -->
<g id="node2" class="node">
<title>default_2</title>
<g id="a_node2"><a xlink:href="javascript:s=&quot;\(&#x27;default&#x27;,\)\nHoleGauge&quot;; console.log(s); alert(s);" xlink:title="HoleGauge">
<ellipse fill="none" stroke="black" cx="125.1" cy="-369" rx="35.19" ry="18"/>
<text text-anchor="middle" x="125.1" y="-365.3" font-family="Times New Roman,serif" font-size="14.00">default</text>
</a>
</g>
</g>
<!-- root_1&#45;&gt;default_2 -->
<g id="edge1" class="edge">
<title>root_1&#45;&gt;default_2</title>
<path fill="none" stroke="black" d="M54.01,-369C61.92,-369 70.84,-369 79.61,-369"/>
<polygon fill="black" stroke="black" points="79.76,-372.5 89.76,-369 79.76,-365.5 79.76,-372.5"/>
</g>
<!-- plate_3 -->
<g id="node3" class="node">
<title>plate_3</title>
<g id="a_node3"><a xlink:href="javascript:s=&quot;\(&#x27;default&#x27;,\ &#x27;plate&#x27;\)\nBox&quot;; console.log(s); alert(s);" xlink:title="Box">
<ellipse fill="none" stroke="black" cx="265.74" cy="-423" rx="27.9" ry="18"/>
<text text-anchor="middle" x="265.74" y="-419.3" font-family="Times New Roman,serif" font-size="14.00">plate</text>
</a>
</g>
</g>
<!-- default_2&#45;&gt;plate_3 -->
<g id="edge2" class="edge">
<title>default_2&#45;&gt;plate_3</title>
<path fill="none" stroke="black" d="M153.49,-379.67C176.1,-388.48 208.24,-401 232.17,-410.31"/>
<polygon fill="black" stroke="black" points="230.96,-413.6 241.54,-413.97 233.5,-407.08 230.96,-413.6"/>
</g>
<!-- inner_plate_4 -->
<g id="node4" class="node">
<title>inner_plate_4</title>
<g id="a_node4"><a xlink:href="javascript:s=&quot;\(&#x27;default&#x27;,\ \(&#x27;inner_plate&#x27;,\ 0\)\)\nSingleHoleGauge&quot;; console.log(s); alert(s);" xlink:title="SingleHoleGauge">
<ellipse fill="none" stroke="black" cx="265.74" cy="-369" rx="69.59" ry="18"/>
<text text-anchor="middle" x="265.74" y="-365.3" font-family="Times New Roman,serif" font-size="14.00">(&#39;inner_plate&#39;, 0)</text>
</a>
</g>
</g>
<!-- default_2&#45;&gt;inner_plate_4 -->
<g id="edge3" class="edge">
<title>default_2&#45;&gt;inner_plate_4</title>
<path fill="none" stroke="black" d="M160.37,-369C168.29,-369 177.04,-369 186.01,-369"/>
<polygon fill="black" stroke="black" points="186.19,-372.5 196.19,-369 186.19,-365.5 186.19,-372.5"/>
</g>
<!-- inner_plate_12 -->
<g id="node12" class="node">
<title>inner_plate_12</title>
<g id="a_node12"><a xlink:href="javascript:s=&quot;\(&#x27;default&#x27;,\ \(&#x27;inner_plate&#x27;,\ 1\)\)\nSingleHoleGauge&quot;; console.log(s); alert(s);" xlink:title="SingleHoleGauge">
<ellipse fill="none" stroke="black" cx="265.74" cy="-126" rx="69.59" ry="18"/>
<text text-anchor="middle" x="265.74" y="-122.3" font-family="Times New Roman,serif" font-size="14.00">(&#39;inner_plate&#39;, 1)</text>
</a>
</g>
</g>
<!-- default_2&#45;&gt;inner_plate_12 -->
<g id="edge11" class="edge">
<title>default_2&#45;&gt;inner_plate_12</title>
<path fill="none" stroke="black" d="M136.07,-351.52C159.98,-309.61 220.74,-203.12 249.37,-152.94"/>
<polygon fill="black" stroke="black" points="252.57,-154.39 254.48,-143.97 246.49,-150.92 252.57,-154.39"/>
</g>
<!-- plate_5 -->
<g id="node5" class="node">
<title>plate_5</title>
<g id="a_node5"><a xlink:href="javascript:s=&quot;\(&#x27;default&#x27;,\ \(&#x27;inner_plate&#x27;,\ 0\),\ &#x27;plate&#x27;\)\nBox&quot;; console.log(s); alert(s);" xlink:title="Box">
<ellipse fill="none" stroke="black" cx="416.13" cy="-558" rx="27.9" ry="18"/>
<text text-anchor="middle" x="416.13" y="-554.3" font-family="Times New Roman,serif" font-size="14.00">plate</text>
</a>
</g>
</g>
<!-- inner_plate_4&#45;&gt;plate_5 -->
<g id="edge4" class="edge">
<title>inner_plate_4&#45;&gt;plate_5</title>
<path fill="none" stroke="black" d="M315.73,-381.64C323.05,-385.3 329.92,-389.99 335.28,-396 376.6,-442.35 334.21,-481.18 371.28,-531 374.62,-535.48 378.94,-539.39 383.56,-542.72"/>
<polygon fill="black" stroke="black" points="381.75,-545.72 392.07,-548.13 385.51,-539.81 381.75,-545.72"/>
</g>
<!-- hole_6 -->
<g id="node6" class="node">
<title>hole_6</title>
<g id="a_node6"><a xlink:href="javascript:s=&quot;\(&#x27;default&#x27;,\ \(&#x27;inner_plate&#x27;,\ 0\),\ \(&#x27;hole&#x27;,\ 0\)\)\nCylinder&quot;; console.log(s); alert(s);" xlink:title="Cylinder">
<ellipse fill="none" stroke="black" cx="416.13" cy="-504" rx="44.69" ry="18"/>
<text text-anchor="middle" x="416.13" y="-500.3" font-family="Times New Roman,serif" font-size="14.00">(&#39;hole&#39;, 0)</text>
</a>
</g>
</g>
<!-- inner_plate_4&#45;&gt;hole_6 -->
<g id="edge5" class="edge">
<title>inner_plate_4&#45;&gt;hole_6</title>
<path fill="none" stroke="black" d="M314.24,-382.06C321.9,-385.68 329.28,-390.25 335.28,-396 363.73,-423.25 345.35,-447.34 371.28,-477 373.46,-479.49 375.92,-481.82 378.54,-484"/>
<polygon fill="black" stroke="black" points="376.62,-486.93 386.76,-490.01 380.76,-481.28 376.62,-486.93"/>
</g>
<!-- hole_7 -->
<g id="node7" class="node">
<title>hole_7</title>
<g id="a_node7"><a xlink:href="javascript:s=&quot;\(&#x27;default&#x27;,\ \(&#x27;inner_plate&#x27;,\ 0\),\ \(&#x27;hole&#x27;,\ 1\)\)\nCylinder&quot;; console.log(s); alert(s);" xlink:title="Cylinder">
<ellipse fill="none" stroke="black" cx="416.13" cy="-450" rx="44.69" ry="18"/>
<text text-anchor="middle" x="416.13" y="-446.3" font-family="Times New Roman,serif" font-size="14.00">(&#39;hole&#39;, 1)</text>
</a>
</g>
</g>
<!-- inner_plate_4&#45;&gt;hole_7 -->
<g id="edge6" class="edge">
<title>inner_plate_4&#45;&gt;hole_7</title>
<path fill="none" stroke="black" d="M308.52,-383.39C317.56,-387.07 326.91,-391.32 335.28,-396 352.74,-405.75 354.75,-411.74 371.28,-423 374.6,-425.26 378.09,-427.55 381.61,-429.8"/>
<polygon fill="black" stroke="black" points="379.96,-432.9 390.29,-435.25 383.69,-426.97 379.96,-432.9"/>
</g>
<!-- hole_8 -->
<g id="node8" class="node">
<title>hole_8</title>
<g id="a_node8"><a xlink:href="javascript:s=&quot;\(&#x27;default&#x27;,\ \(&#x27;inner_plate&#x27;,\ 0\),\ \(&#x27;hole&#x27;,\ 2\)\)\nCylinder&quot;; console.log(s); alert(s);" xlink:title="Cylinder">
<ellipse fill="none" stroke="black" cx="416.13" cy="-396" rx="44.69" ry="18"/>
<text text-anchor="middle" x="416.13" y="-392.3" font-family="Times New Roman,serif" font-size="14.00">(&#39;hole&#39;, 2)</text>
</a>
</g>
</g>
<!-- inner_plate_4&#45;&gt;hole_8 -->
<g id="edge7" class="edge">
<title>inner_plate_4&#45;&gt;hole_8</title>
<path fill="none" stroke="black" d="M323.26,-379.28C336.97,-381.78 351.53,-384.43 364.92,-386.86"/>
<polygon fill="black" stroke="black" points="364.43,-390.33 374.9,-388.68 365.69,-383.45 364.43,-390.33"/>
</g>
<!-- hole_9 -->
<g id="node9" class="node">
<title>hole_9</title>
<g id="a_node9"><a xlink:href="javascript:s=&quot;\(&#x27;default&#x27;,\ \(&#x27;inner_plate&#x27;,\ 0\),\ \(&#x27;hole&#x27;,\ 3\)\)\nCylinder&quot;; console.log(s); alert(s);" xlink:title="Cylinder">
<ellipse fill="none" stroke="black" cx="416.13" cy="-342" rx="44.69" ry="18"/>
<text text-anchor="middle" x="416.13" y="-338.3" font-family="Times New Roman,serif" font-size="14.00">(&#39;hole&#39;, 3)</text>
</a>
</g>
</g>
<!-- inner_plate_4&#45;&gt;hole_9 -->
<g id="edge8" class="edge">
<title>inner_plate_4&#45;&gt;hole_9</title>
<path fill="none" stroke="black" d="M323.26,-358.72C336.97,-356.22 351.53,-353.57 364.92,-351.14"/>
<polygon fill="black" stroke="black" points="365.69,-354.55 374.9,-349.32 364.43,-347.67 365.69,-354.55"/>
</g>
<!-- hole_10 -->
<g id="node10" class="node">
<title>hole_10</title>
<g id="a_node10"><a xlink:href="javascript:s=&quot;\(&#x27;default&#x27;,\ \(&#x27;inner_plate&#x27;,\ 0\),\ \(&#x27;hole&#x27;,\ 4\)\)\nCylinder&quot;; console.log(s); alert(s);" xlink:title="Cylinder">
<ellipse fill="none" stroke="black" cx="416.13" cy="-288" rx="44.69" ry="18"/>
<text text-anchor="middle" x="416.13" y="-284.3" font-family="Times New Roman,serif" font-size="14.00">(&#39;hole&#39;, 4)</text>
</a>
</g>
</g>
<!-- inner_plate_4&#45;&gt;hole_10 -->
<g id="edge9" class="edge">
<title>inner_plate_4&#45;&gt;hole_10</title>
<path fill="none" stroke="black" d="M296.41,-352.8C320.36,-339.73 354.14,-321.29 379.55,-307.42"/>
<polygon fill="black" stroke="black" points="381.39,-310.4 388.5,-302.54 378.04,-304.26 381.39,-310.4"/>
</g>
<!-- hole_11 -->
<g id="node11" class="node">
<title>hole_11</title>
<g id="a_node11"><a xlink:href="javascript:s=&quot;\(&#x27;default&#x27;,\ \(&#x27;inner_plate&#x27;,\ 0\),\ \(&#x27;hole&#x27;,\ 5\)\)\nCylinder&quot;; console.log(s); alert(s);" xlink:title="Cylinder">
<ellipse fill="none" stroke="black" cx="416.13" cy="-234" rx="44.69" ry="18"/>
<text text-anchor="middle" x="416.13" y="-230.3" font-family="Times New Roman,serif" font-size="14.00">(&#39;hole&#39;, 5)</text>
</a>
</g>
</g>
<!-- inner_plate_4&#45;&gt;hole_11 -->
<g id="edge10" class="edge">
<title>inner_plate_4&#45;&gt;hole_11</title>
<path fill="none" stroke="black" d="M281.48,-351.22C300.72,-328.66 336.09,-289.27 371.28,-261 374.17,-258.68 377.27,-256.4 380.44,-254.22"/>
<polygon fill="black" stroke="black" points="382.45,-257.08 388.9,-248.67 378.61,-251.23 382.45,-257.08"/>
</g>
<!-- plate_13 -->
<g id="node13" class="node">
<title>plate_13</title>
<g id="a_node13"><a xlink:href="javascript:s=&quot;\(&#x27;default&#x27;,\ \(&#x27;inner_plate&#x27;,\ 1\),\ &#x27;plate&#x27;\)\nBox&quot;; console.log(s); alert(s);" xlink:title="Box">
<ellipse fill="none" stroke="black" cx="416.13" cy="-180" rx="27.9" ry="18"/>
<text text-anchor="middle" x="416.13" y="-176.3" font-family="Times New Roman,serif" font-size="14.00">plate</text>
</a>
</g>
</g>
<!-- inner_plate_12&#45;&gt;plate_13 -->
<g id="edge12" class="edge">
<title>inner_plate_12&#45;&gt;plate_13</title>
<path fill="none" stroke="black" d="M306.89,-140.61C330.27,-149.12 359.39,-159.72 381.54,-167.78"/>
<polygon fill="black" stroke="black" points="380.59,-171.15 391.18,-171.29 382.98,-164.58 380.59,-171.15"/>
</g>
<!-- hole_14 -->
<g id="node14" class="node">
<title>hole_14</title>
<g id="a_node14"><a xlink:href="javascript:s=&quot;\(&#x27;default&#x27;,\ \(&#x27;inner_plate&#x27;,\ 1\),\ \(&#x27;hole&#x27;,\ 0\)\)\nCylinder&quot;; console.log(s); alert(s);" xlink:title="Cylinder">
<ellipse fill="none" stroke="black" cx="416.13" cy="-126" rx="44.69" ry="18"/>
<text text-anchor="middle" x="416.13" y="-122.3" font-family="Times New Roman,serif" font-size="14.00">(&#39;hole&#39;, 0)</text>
</a>
</g>
</g>
<!-- inner_plate_12&#45;&gt;hole_14 -->
<g id="edge13" class="edge">
<title>inner_plate_12&#45;&gt;hole_14</title>
<path fill="none" stroke="black" d="M335.29,-126C343.83,-126 352.47,-126 360.76,-126"/>
<polygon fill="black" stroke="black" points="361.03,-129.5 371.03,-126 361.03,-122.5 361.03,-129.5"/>
</g>
<!-- hole_15 -->
<g id="node15" class="node">
<title>hole_15</title>
<g id="a_node15"><a xlink:href="javascript:s=&quot;\(&#x27;default&#x27;,\ \(&#x27;inner_plate&#x27;,\ 1\),\ \(&#x27;hole&#x27;,\ 1\)\)\nCylinder&quot;; console.log(s); alert(s);" xlink:title="Cylinder">
<ellipse fill="none" stroke="black" cx="416.13" cy="-72" rx="44.69" ry="18"/>
<text text-anchor="middle" x="416.13" y="-68.3" font-family="Times New Roman,serif" font-size="14.00">(&#39;hole&#39;, 1)</text>
</a>
</g>
</g>
<!-- inner_plate_12&#45;&gt;hole_15 -->
<g id="edge14" class="edge">
<title>inner_plate_12&#45;&gt;hole_15</title>
<path fill="none" stroke="black" d="M306.89,-111.39C327.34,-103.94 352.2,-94.9 372.93,-87.35"/>
<polygon fill="black" stroke="black" points="374.24,-90.6 382.44,-83.9 371.85,-84.03 374.24,-90.6"/>
</g>
<!-- hole_16 -->
<g id="node16" class="node">
<title>hole_16</title>
<g id="a_node16"><a xlink:href="javascript:s=&quot;\(&#x27;default&#x27;,\ \(&#x27;inner_plate&#x27;,\ 1\),\ \(&#x27;hole&#x27;,\ 2\)\)\nCylinder&quot;; console.log(s); alert(s);" xlink:title="Cylinder">
<ellipse fill="none" stroke="black" cx="416.13" cy="-18" rx="44.69" ry="18"/>
<text text-anchor="middle" x="416.13" y="-14.3" font-family="Times New Roman,serif" font-size="14.00">(&#39;hole&#39;, 2)</text>
</a>
</g>
</g>
<!-- inner_plate_12&#45;&gt;hole_16 -->
<g id="edge15" class="edge">
<title>inner_plate_12&#45;&gt;hole_16</title>
<path fill="none" stroke="black" d="M287.46,-108.88C308.21,-91.99 341.27,-65.78 371.28,-45 374.5,-42.77 377.89,-40.52 381.32,-38.31"/>
<polygon fill="black" stroke="black" points="383.2,-41.26 389.79,-32.97 379.46,-35.34 383.2,-41.26"/>
</g>
</g>
</svg>
