<?xml version="1.0" encoding="UTF-8" standalone="no"?>
<!DOCTYPE svg PUBLIC "-//W3C//DTD SVG 1.1//EN"
 "http://www.w3.org/Graphics/SVG/1.1/DTD/svg11.dtd">
<!-- Generated by graphviz version 5.0.0 (20220707.1540)
 -->
<!-- Title: default Pages: 1 -->
<svg width="294pt" height="314pt"
 viewBox="0.00 0.00 293.89 314.00" xmlns="http://www.w3.org/2000/svg" xmlns:xlink="http://www.w3.org/1999/xlink">
<g id="graph0" class="graph" transform="scale(1 1) rotate(0) translate(4 310)">
<title>default</title>
<polygon fill="white" stroke="transparent" points="-4,4 -4,-310 289.89,-310 289.89,4 -4,4"/>
<!-- root_17 -->
<g id="node1" class="node">
<title>root_17</title>
<g id="a_node1"><a xlink:href="javascript:s=&quot;\(\)\nNone&quot;; console.log(s); alert(s);" xlink:title="root">
<ellipse fill="none" stroke="black" cx="27" cy="-153" rx="27" ry="18"/>
<text text-anchor="middle" x="27" y="-149.3" font-family="Times New Roman,serif" font-size="14.00">root</text>
</a>
</g>
</g>
<!-- default_18 -->
<g id="node2" class="node">
<title>default_18</title>
<g id="a_node2"><a xlink:href="javascript:s=&quot;\(&#x27;default&#x27;,\)\nSingleHoleGauge&quot;; console.log(s); alert(s);" xlink:title="SingleHoleGauge">
<ellipse fill="none" stroke="black" cx="125.1" cy="-153" rx="35.19" ry="18"/>
<text text-anchor="middle" x="125.1" y="-149.3" font-family="Times New Roman,serif" font-size="14.00">default</text>
</a>
</g>
</g>
<!-- root_17&#45;&gt;default_18 -->
<g id="edge1" class="edge">
<title>root_17&#45;&gt;default_18</title>
<path fill="none" stroke="black" d="M54.01,-153C61.92,-153 70.84,-153 79.61,-153"/>
<polygon fill="black" stroke="black" points="79.76,-156.5 89.76,-153 79.76,-149.5 79.76,-156.5"/>
</g>
<!-- plate_19 -->
<g id="node3" class="node">
<title>plate_19</title>
<g id="a_node3"><a xlink:href="javascript:s=&quot;\(&#x27;default&#x27;,\ &#x27;plate&#x27;\)\nBox&quot;; console.log(s); alert(s);" xlink:title="Box">
<ellipse fill="none" stroke="black" cx="241.04" cy="-288" rx="27.9" ry="18"/>
<text text-anchor="middle" x="241.04" y="-284.3" font-family="Times New Roman,serif" font-size="14.00">plate</text>
</a>
</g>
</g>
<!-- default_18&#45;&gt;plate_19 -->
<g id="edge2" class="edge">
<title>default_18&#45;&gt;plate_19</title>
<path fill="none" stroke="black" d="M134.3,-170.39C145.73,-193.24 168.21,-233.67 196.19,-261 200.19,-264.9 204.85,-268.51 209.61,-271.73"/>
<polygon fill="black" stroke="black" points="207.83,-274.75 218.16,-277.1 211.55,-268.82 207.83,-274.75"/>
</g>
<!-- hole_20 -->
<g id="node4" class="node">
<title>hole_20</title>
<g id="a_node4"><a xlink:href="javascript:s=&quot;\(&#x27;default&#x27;,\ \(&#x27;hole&#x27;,\ 0\)\)\nCylinder&quot;; console.log(s); alert(s);" xlink:title="Cylinder">
<ellipse fill="none" stroke="black" cx="241.04" cy="-234" rx="44.69" ry="18"/>
<text text-anchor="middle" x="241.04" y="-230.3" font-family="Times New Roman,serif" font-size="14.00">(&#39;hole&#39;, 0)</text>
</a>
</g>
</g>
<!-- default_18&#45;&gt;hole_20 -->
<g id="edge3" class="edge">
<title>default_18&#45;&gt;hole_20</title>
<path fill="none" stroke="black" d="M144.74,-168.22C158.64,-179.35 178.24,-194.61 196.19,-207 199.41,-209.22 202.81,-211.47 206.24,-213.68"/>
<polygon fill="black" stroke="black" points="204.38,-216.65 214.71,-219.02 208.12,-210.73 204.38,-216.65"/>
</g>
<!-- hole_21 -->
<g id="node5" class="node">
<title>hole_21</title>
<g id="a_node5"><a xlink:href="javascript:s=&quot;\(&#x27;default&#x27;,\ \(&#x27;hole&#x27;,\ 1\)\)\nCylinder&quot;; console.log(s); alert(s);" xlink:title="Cylinder">
<ellipse fill="none" stroke="black" cx="241.04" cy="-180" rx="44.69" ry="18"/>
<text text-anchor="middle" x="241.04" y="-176.3" font-family="Times New Roman,serif" font-size="14.00">(&#39;hole&#39;, 1)</text>
</a>
</g>
</g>
<!-- default_18&#45;&gt;hole_21 -->
<g id="edge4" class="edge">
<title>default_18&#45;&gt;hole_21</title>
<path fill="none" stroke="black" d="M157.23,-160.38C168.04,-162.94 180.43,-165.87 192.27,-168.68"/>
<polygon fill="black" stroke="black" points="191.5,-172.1 202.04,-171 193.12,-165.28 191.5,-172.1"/>
</g>
<!-- hole_22 -->
<g id="node6" class="node">
<title>hole_22</title>
<g id="a_node6"><a xlink:href="javascript:s=&quot;\(&#x27;default&#x27;,\ \(&#x27;hole&#x27;,\ 2\)\)\nCylinder&quot;; console.log(s); alert(s);" xlink:title="Cylinder">
<ellipse fill="none" stroke="black" cx="241.04" cy="-126" rx="44.69" ry="18"/>
<text text-anchor="middle" x="241.04" y="-122.3" font-family="Times New Roman,serif" font-size="14.00">(&#39;hole&#39;, 2)</text>
</a>
</g>
</g>
<!-- default_18&#45;&gt;hole_22 -->
<g id="edge5" class="edge">
<title>default_18&#45;&gt;hole_22</title>
<path fill="none" stroke="black" d="M157.23,-145.62C168.04,-143.06 180.43,-140.13 192.27,-137.32"/>
<polygon fill="black" stroke="black" points="193.12,-140.72 202.04,-135 191.5,-133.9 193.12,-140.72"/>
</g>
<!-- hole_23 -->
<g id="node7" class="node">
<title>hole_23</title>
<g id="a_node7"><a xlink:href="javascript:s=&quot;\(&#x27;default&#x27;,\ \(&#x27;hole&#x27;,\ 3\)\)\nCylinder&quot;; console.log(s); alert(s);" xlink:title="Cylinder">
<ellipse fill="none" stroke="black" cx="241.04" cy="-72" rx="44.69" ry="18"/>
<text text-anchor="middle" x="241.04" y="-68.3" font-family="Times New Roman,serif" font-size="14.00">(&#39;hole&#39;, 3)</text>
</a>
</g>
</g>
<!-- default_18&#45;&gt;hole_23 -->
<g id="edge6" class="edge">
<title>default_18&#45;&gt;hole_23</title>
<path fill="none" stroke="black" d="M144.74,-137.78C158.64,-126.65 178.24,-111.39 196.19,-99 199.41,-96.78 202.81,-94.53 206.24,-92.32"/>
<polygon fill="black" stroke="black" points="208.12,-95.27 214.71,-86.98 204.38,-89.35 208.12,-95.27"/>
</g>
<!-- hole_24 -->
<g id="node8" class="node">
<title>hole_24</title>
<g id="a_node8"><a xlink:href="javascript:s=&quot;\(&#x27;default&#x27;,\ \(&#x27;hole&#x27;,\ 4\)\)\nCylinder&quot;; console.log(s); alert(s);" xlink:title="Cylinder">
<ellipse fill="none" stroke="black" cx="241.04" cy="-18" rx="44.69" ry="18"/>
<text text-anchor="middle" x="241.04" y="-14.3" font-family="Times New Roman,serif" font-size="14.00">(&#39;hole&#39;, 4)</text>
</a>
</g>
</g>
<!-- default_18&#45;&gt;hole_24 -->
<g id="edge7" class="edge">
<title>default_18&#45;&gt;hole_24</title>
<path fill="none" stroke="black" d="M134.3,-135.61C145.73,-112.76 168.21,-72.33 196.19,-45 198.7,-42.55 201.47,-40.22 204.35,-38.03"/>
<polygon fill="black" stroke="black" points="206.48,-40.81 212.7,-32.23 202.49,-35.06 206.48,-40.81"/>
</g>
</g>
</svg>
