<?xml version="1.0" encoding="UTF-8" standalone="no"?>
<!DOCTYPE svg PUBLIC "-//W3C//DTD SVG 1.1//EN"
 "http://www.w3.org/Graphics/SVG/1.1/DTD/svg11.dtd">
<!-- Generated by graphviz version 5.0.0 (20220707.1540)
 -->
<!-- Title: default Pages: 1 -->
<svg width="298pt" height="260pt"
 viewBox="0.00 0.00 297.79 260.00" xmlns="http://www.w3.org/2000/svg" xmlns:xlink="http://www.w3.org/1999/xlink">
<g id="graph0" class="graph" transform="scale(1 1) rotate(0) translate(4 256)">
<title>default</title>
<polygon fill="white" stroke="transparent" points="-4,4 -4,-256 293.79,-256 293.79,4 -4,4"/>
<!-- root_44 -->
<g id="node1" class="node">
<title>root_44</title>
<g id="a_node1"><a xlink:href="javascript:s=&quot;\(\)\nNone&quot;; console.log(s); alert(s);" xlink:title="root">
<ellipse fill="none" stroke="black" cx="27" cy="-126" rx="27" ry="18"/>
<text text-anchor="middle" x="27" y="-122.3" font-family="Times New Roman,serif" font-size="14.00">root</text>
</a>
</g>
</g>
<!-- default_45 -->
<g id="node2" class="node">
<title>default_45</title>
<g id="a_node2"><a xlink:href="javascript:s=&quot;\(&#x27;default&#x27;,\)\nButtonWings&quot;; console.log(s); alert(s);" xlink:title="ButtonWings">
<ellipse fill="none" stroke="black" cx="125.1" cy="-126" rx="35.19" ry="18"/>
<text text-anchor="middle" x="125.1" y="-122.3" font-family="Times New Roman,serif" font-size="14.00">default</text>
</a>
</g>
</g>
<!-- root_44&#45;&gt;default_45 -->
<g id="edge1" class="edge">
<title>root_44&#45;&gt;default_45</title>
<path fill="none" stroke="black" d="M54.01,-126C61.92,-126 70.84,-126 79.61,-126"/>
<polygon fill="black" stroke="black" points="79.76,-129.5 89.76,-126 79.76,-122.5 79.76,-129.5"/>
</g>
<!-- cage_46 -->
<g id="node3" class="node">
<title>cage_46</title>
<g id="a_node3"><a xlink:href="javascript:s=&quot;\(&#x27;default&#x27;,\ &#x27;cage&#x27;\)\nCylinder&quot;; console.log(s); alert(s);" xlink:title="Cylinder">
<ellipse fill="none" stroke="black" cx="242.99" cy="-234" rx="27.1" ry="18"/>
<text text-anchor="middle" x="242.99" y="-230.3" font-family="Times New Roman,serif" font-size="14.00">cage</text>
</a>
</g>
</g>
<!-- default_45&#45;&gt;cage_46 -->
<g id="edge2" class="edge">
<title>default_45&#45;&gt;cage_46</title>
<path fill="none" stroke="black" d="M138.15,-142.94C151.13,-160.39 173.06,-187.71 196.19,-207 200.92,-210.94 206.28,-214.66 211.64,-218"/>
<polygon fill="black" stroke="black" points="210.13,-221.18 220.52,-223.25 213.69,-215.15 210.13,-221.18"/>
</g>
<!-- wing_47 -->
<g id="node4" class="node">
<title>wing_47</title>
<g id="a_node4"><a xlink:href="javascript:s=&quot;\(&#x27;default&#x27;,\ \(&#x27;wing&#x27;,\ 0\)\)\nRotateExtrude&quot;; console.log(s); alert(s);" xlink:title="RotateExtrude">
<ellipse fill="none" stroke="black" cx="242.99" cy="-180" rx="46.59" ry="18"/>
<text text-anchor="middle" x="242.99" y="-176.3" font-family="Times New Roman,serif" font-size="14.00">(&#39;wing&#39;, 0)</text>
</a>
</g>
</g>
<!-- default_45&#45;&gt;wing_47 -->
<g id="edge3" class="edge">
<title>default_45&#45;&gt;wing_47</title>
<path fill="none" stroke="black" d="M151.53,-137.85C166.71,-144.92 186.29,-154.05 203.35,-162"/>
<polygon fill="black" stroke="black" points="201.98,-165.22 212.52,-166.27 204.94,-158.87 201.98,-165.22"/>
</g>
<!-- wing_48 -->
<g id="node5" class="node">
<title>wing_48</title>
<g id="a_node5"><a xlink:href="javascript:s=&quot;\(&#x27;default&#x27;,\ \(&#x27;wing&#x27;,\ 1\)\)\nRotateExtrude&quot;; console.log(s); alert(s);" xlink:title="RotateExtrude">
<ellipse fill="none" stroke="black" cx="242.99" cy="-126" rx="46.59" ry="18"/>
<text text-anchor="middle" x="242.99" y="-122.3" font-family="Times New Roman,serif" font-size="14.00">(&#39;wing&#39;, 1)</text>
</a>
</g>
</g>
<!-- default_45&#45;&gt;wing_48 -->
<g id="edge4" class="edge">
<title>default_45&#45;&gt;wing_48</title>
<path fill="none" stroke="black" d="M160.24,-126C168.3,-126 177.11,-126 185.86,-126"/>
<polygon fill="black" stroke="black" points="186.06,-129.5 196.06,-126 186.06,-122.5 186.06,-129.5"/>
</g>
<!-- wing_49 -->
<g id="node6" class="node">
<title>wing_49</title>
<g id="a_node6"><a xlink:href="javascript:s=&quot;\(&#x27;default&#x27;,\ \(&#x27;wing&#x27;,\ 2\)\)\nRotateExtrude&quot;; console.log(s); alert(s);" xlink:title="RotateExtrude">
<ellipse fill="none" stroke="black" cx="242.99" cy="-72" rx="46.59" ry="18"/>
<text text-anchor="middle" x="242.99" y="-68.3" font-family="Times New Roman,serif" font-size="14.00">(&#39;wing&#39;, 2)</text>
</a>
</g>
</g>
<!-- default_45&#45;&gt;wing_49 -->
<g id="edge5" class="edge">
<title>default_45&#45;&gt;wing_49</title>
<path fill="none" stroke="black" d="M151.53,-114.15C166.71,-107.08 186.29,-97.95 203.35,-90"/>
<polygon fill="black" stroke="black" points="204.94,-93.13 212.52,-85.73 201.98,-86.78 204.94,-93.13"/>
</g>
<!-- wing_50 -->
<g id="node7" class="node">
<title>wing_50</title>
<g id="a_node7"><a xlink:href="javascript:s=&quot;\(&#x27;default&#x27;,\ \(&#x27;wing&#x27;,\ 3\)\)\nRotateExtrude&quot;; console.log(s); alert(s);" xlink:title="RotateExtrude">
<ellipse fill="none" stroke="black" cx="242.99" cy="-18" rx="46.59" ry="18"/>
<text text-anchor="middle" x="242.99" y="-14.3" font-family="Times New Roman,serif" font-size="14.00">(&#39;wing&#39;, 3)</text>
</a>
</g>
</g>
<!-- default_45&#45;&gt;wing_50 -->
<g id="edge6" class="edge">
<title>default_45&#45;&gt;wing_50</title>
<path fill="none" stroke="black" d="M138.15,-109.06C151.13,-91.61 173.06,-64.29 196.19,-45 199.22,-42.48 202.5,-40.05 205.88,-37.75"/>
<polygon fill="black" stroke="black" points="207.83,-40.65 214.38,-32.32 204.07,-34.76 207.83,-40.65"/>
</g>
</g>
</svg>
