<?xml version="1.0" encoding="UTF-8" standalone="no"?>
<!DOCTYPE svg PUBLIC "-//W3C//DTD SVG 1.1//EN"
 "http://www.w3.org/Graphics/SVG/1.1/DTD/svg11.dtd">
<!-- Generated by graphviz version 5.0.0 (20220707.1540)
 -->
<!-- Title: default Pages: 1 -->
<svg width="748pt" height="422pt"
 viewBox="0.00 0.00 747.66 422.00" xmlns="http://www.w3.org/2000/svg" xmlns:xlink="http://www.w3.org/1999/xlink">
<g id="graph0" class="graph" transform="scale(1 1) rotate(0) translate(4 418)">
<title>default</title>
<polygon fill="white" stroke="transparent" points="-4,4 -4,-418 743.66,-418 743.66,4 -4,4"/>
<!-- root_51 -->
<g id="node1" class="node">
<title>root_51</title>
<g id="a_node1"><a xlink:href="javascript:s=&quot;\(\)\nNone&quot;; console.log(s); alert(s);" xlink:title="root">
<ellipse fill="none" stroke="black" cx="27" cy="-234" rx="27" ry="18"/>
<text text-anchor="middle" x="27" y="-230.3" font-family="Times New Roman,serif" font-size="14.00">root</text>
</a>
</g>
</g>
<!-- default_52 -->
<g id="node2" class="node">
<title>default_52</title>
<g id="a_node2"><a xlink:href="javascript:s=&quot;\(&#x27;default&#x27;,\)\nEngravedButtonCap&quot;; console.log(s); alert(s);" xlink:title="EngravedButtonCap">
<ellipse fill="none" stroke="black" cx="125.1" cy="-234" rx="35.19" ry="18"/>
<text text-anchor="middle" x="125.1" y="-230.3" font-family="Times New Roman,serif" font-size="14.00">default</text>
</a>
</g>
</g>
<!-- root_51&#45;&gt;default_52 -->
<g id="edge1" class="edge">
<title>root_51&#45;&gt;default_52</title>
<path fill="none" stroke="black" d="M54.01,-234C61.92,-234 70.84,-234 79.61,-234"/>
<polygon fill="black" stroke="black" points="79.76,-237.5 89.76,-234 79.76,-230.5 79.76,-237.5"/>
</g>
<!-- outer_engraved_53 -->
<g id="node3" class="node">
<title>outer_engraved_53</title>
<g id="a_node3"><a xlink:href="javascript:s=&quot;\(&#x27;default&#x27;,\ &#x27;outer_engraved&#x27;\)\nMaker&quot;; console.log(s); alert(s);" xlink:title="Maker">
<ellipse fill="none" stroke="black" cx="263.14" cy="-288" rx="66.89" ry="18"/>
<text text-anchor="middle" x="263.14" y="-284.3" font-family="Times New Roman,serif" font-size="14.00">outer_engraved</text>
</a>
</g>
</g>
<!-- default_52&#45;&gt;outer_engraved_53 -->
<g id="edge2" class="edge">
<title>default_52&#45;&gt;outer_engraved_53</title>
<path fill="none" stroke="black" d="M153.3,-244.8C170.97,-251.81 194.48,-261.14 215.12,-269.34"/>
<polygon fill="black" stroke="black" points="214.09,-272.69 224.68,-273.13 216.67,-266.19 214.09,-272.69"/>
</g>
<!-- inner_cap_64 -->
<g id="node14" class="node">
<title>inner_cap_64</title>
<g id="a_node14"><a xlink:href="javascript:s=&quot;\(&#x27;default&#x27;,\ &#x27;inner_cap&#x27;\)\nButtonCap&quot;; console.log(s); alert(s);" xlink:title="ButtonCap">
<ellipse fill="none" stroke="black" cx="263.14" cy="-207" rx="46.29" ry="18"/>
<text text-anchor="middle" x="263.14" y="-203.3" font-family="Times New Roman,serif" font-size="14.00">inner_cap</text>
</a>
</g>
</g>
<!-- default_52&#45;&gt;inner_cap_64 -->
<g id="edge13" class="edge">
<title>default_52&#45;&gt;inner_cap_64</title>
<path fill="none" stroke="black" d="M157.99,-227.67C173.95,-224.5 193.65,-220.59 211.61,-217.03"/>
<polygon fill="black" stroke="black" points="212.53,-220.41 221.65,-215.03 211.16,-213.55 212.53,-220.41"/>
</g>
<!-- outer_cap_54 -->
<g id="node4" class="node">
<title>outer_cap_54</title>
<g id="a_node4"><a xlink:href="javascript:s=&quot;\(&#x27;default&#x27;,\ &#x27;outer_engraved&#x27;,\ &#x27;outer_cap&#x27;\)\nButtonCap&quot;; console.log(s); alert(s);" xlink:title="ButtonCap">
<ellipse fill="none" stroke="black" cx="418.08" cy="-342" rx="47.39" ry="18"/>
<text text-anchor="middle" x="418.08" y="-338.3" font-family="Times New Roman,serif" font-size="14.00">outer_cap</text>
</a>
</g>
</g>
<!-- outer_engraved_53&#45;&gt;outer_cap_54 -->
<g id="edge3" class="edge">
<title>outer_engraved_53&#45;&gt;outer_cap_54</title>
<path fill="none" stroke="black" d="M304.72,-302.33C325.83,-309.78 351.64,-318.9 373.21,-326.51"/>
<polygon fill="black" stroke="black" points="372.19,-329.86 382.79,-329.89 374.52,-323.26 372.19,-329.86"/>
</g>
<!-- engraving_63 -->
<g id="node13" class="node">
<title>engraving_63</title>
<g id="a_node13"><a xlink:href="javascript:s=&quot;\(&#x27;default&#x27;,\ &#x27;outer_engraved&#x27;,\ &#x27;engraving&#x27;\)\nText&quot;; console.log(s); alert(s);" xlink:title="Text">
<ellipse fill="none" stroke="black" cx="418.08" cy="-288" rx="45.49" ry="18"/>
<text text-anchor="middle" x="418.08" y="-284.3" font-family="Times New Roman,serif" font-size="14.00">engraving</text>
</a>
</g>
</g>
<!-- outer_engraved_53&#45;&gt;engraving_63 -->
<g id="edge12" class="edge">
<title>outer_engraved_53&#45;&gt;engraving_63</title>
<path fill="none" stroke="black" d="M330.33,-288C340.99,-288 351.91,-288 362.26,-288"/>
<polygon fill="black" stroke="black" points="362.39,-291.5 372.39,-288 362.39,-284.5 362.39,-291.5"/>
</g>
<!-- cage_55 -->
<g id="node5" class="node">
<title>cage_55</title>
<g id="a_node5"><a xlink:href="javascript:s=&quot;\(&#x27;default&#x27;,\ &#x27;outer_engraved&#x27;,\ &#x27;outer_cap&#x27;,\ &#x27;cage&#x27;\)\nCylinder&quot;; console.log(s); alert(s);" xlink:title="Cylinder">
<ellipse fill="none" stroke="black" cx="558.07" cy="-396" rx="27.1" ry="18"/>
<text text-anchor="middle" x="558.07" y="-392.3" font-family="Times New Roman,serif" font-size="14.00">cage</text>
</a>
</g>
</g>
<!-- outer_cap_54&#45;&gt;cage_55 -->
<g id="edge4" class="edge">
<title>outer_cap_54&#45;&gt;cage_55</title>
<path fill="none" stroke="black" d="M451.78,-354.8C473.76,-363.4 502.6,-374.69 524.54,-383.27"/>
<polygon fill="black" stroke="black" points="523.5,-386.62 534.09,-387.01 526.05,-380.1 523.5,-386.62"/>
</g>
<!-- button_cap_56 -->
<g id="node6" class="node">
<title>button_cap_56</title>
<g id="a_node6"><a xlink:href="javascript:s=&quot;\(&#x27;default&#x27;,\ &#x27;outer_engraved&#x27;,\ &#x27;outer_cap&#x27;,\ &#x27;button_cap&#x27;\)\nRotateExtrude&quot;; console.log(s); alert(s);" xlink:title="RotateExtrude">
<ellipse fill="none" stroke="black" cx="558.07" cy="-342" rx="51.99" ry="18"/>
<text text-anchor="middle" x="558.07" y="-338.3" font-family="Times New Roman,serif" font-size="14.00">button_cap</text>
</a>
</g>
</g>
<!-- outer_cap_54&#45;&gt;button_cap_56 -->
<g id="edge5" class="edge">
<title>outer_cap_54&#45;&gt;button_cap_56</title>
<path fill="none" stroke="black" d="M465.79,-342C475.31,-342 485.46,-342 495.41,-342"/>
<polygon fill="black" stroke="black" points="495.66,-345.5 505.66,-342 495.66,-338.5 495.66,-345.5"/>
</g>
<!-- cap_wings_57 -->
<g id="node7" class="node">
<title>cap_wings_57</title>
<g id="a_node7"><a xlink:href="javascript:s=&quot;\(&#x27;default&#x27;,\ &#x27;outer_engraved&#x27;,\ &#x27;outer_cap&#x27;,\ &#x27;cap_wings&#x27;\)\nButtonWings&quot;; console.log(s); alert(s);" xlink:title="ButtonWings">
<ellipse fill="none" stroke="black" cx="558.07" cy="-288" rx="50.09" ry="18"/>
<text text-anchor="middle" x="558.07" y="-284.3" font-family="Times New Roman,serif" font-size="14.00">cap_wings</text>
</a>
</g>
</g>
<!-- outer_cap_54&#45;&gt;cap_wings_57 -->
<g id="edge6" class="edge">
<title>outer_cap_54&#45;&gt;cap_wings_57</title>
<path fill="none" stroke="black" d="M451.78,-329.2C470.41,-321.91 493.97,-312.69 514.08,-304.82"/>
<polygon fill="black" stroke="black" points="515.61,-307.98 523.64,-301.08 513.05,-301.47 515.61,-307.98"/>
</g>
<!-- cage_58 -->
<g id="node8" class="node">
<title>cage_58</title>
<g id="a_node8"><a xlink:href="javascript:s=&quot;\(&#x27;default&#x27;,\ &#x27;outer_engraved&#x27;,\ &#x27;outer_cap&#x27;,\ &#x27;cap_wings&#x27;,\ &#x27;cage&#x27;\)\nCylinder&quot;; console.log(s); alert(s);" xlink:title="Cylinder">
<ellipse fill="none" stroke="black" cx="692.86" cy="-396" rx="27.1" ry="18"/>
<text text-anchor="middle" x="692.86" y="-392.3" font-family="Times New Roman,serif" font-size="14.00">cage</text>
</a>
</g>
</g>
<!-- cap_wings_57&#45;&gt;cage_58 -->
<g id="edge7" class="edge">
<title>cap_wings_57&#45;&gt;cage_58</title>
<path fill="none" stroke="black" d="M590.87,-301.7C597.63,-305.44 604.41,-309.9 610.06,-315 631.46,-334.34 625.11,-349.18 646.06,-369 650.53,-373.23 655.77,-377.08 661.09,-380.47"/>
<polygon fill="black" stroke="black" points="659.58,-383.65 669.97,-385.72 663.14,-377.62 659.58,-383.65"/>
</g>
<!-- wing_59 -->
<g id="node9" class="node">
<title>wing_59</title>
<g id="a_node9"><a xlink:href="javascript:s=&quot;\(&#x27;default&#x27;,\ &#x27;outer_engraved&#x27;,\ &#x27;outer_cap&#x27;,\ &#x27;cap_wings&#x27;,\ \(&#x27;wing&#x27;,\ 0\)\)\nRotateExtrude&quot;; console.log(s); alert(s);" xlink:title="RotateExtrude">
<ellipse fill="none" stroke="black" cx="692.86" cy="-342" rx="46.59" ry="18"/>
<text text-anchor="middle" x="692.86" y="-338.3" font-family="Times New Roman,serif" font-size="14.00">(&#39;wing&#39;, 0)</text>
</a>
</g>
</g>
<!-- cap_wings_57&#45;&gt;wing_59 -->
<g id="edge8" class="edge">
<title>cap_wings_57&#45;&gt;wing_59</title>
<path fill="none" stroke="black" d="M591.89,-301.35C609.63,-308.56 631.71,-317.54 650.6,-325.22"/>
<polygon fill="black" stroke="black" points="649.29,-328.47 659.87,-328.99 651.93,-321.98 649.29,-328.47"/>
</g>
<!-- wing_60 -->
<g id="node10" class="node">
<title>wing_60</title>
<g id="a_node10"><a xlink:href="javascript:s=&quot;\(&#x27;default&#x27;,\ &#x27;outer_engraved&#x27;,\ &#x27;outer_cap&#x27;,\ &#x27;cap_wings&#x27;,\ \(&#x27;wing&#x27;,\ 1\)\)\nRotateExtrude&quot;; console.log(s); alert(s);" xlink:title="RotateExtrude">
<ellipse fill="none" stroke="black" cx="692.86" cy="-288" rx="46.59" ry="18"/>
<text text-anchor="middle" x="692.86" y="-284.3" font-family="Times New Roman,serif" font-size="14.00">(&#39;wing&#39;, 1)</text>
</a>
</g>
</g>
<!-- cap_wings_57&#45;&gt;wing_60 -->
<g id="edge9" class="edge">
<title>cap_wings_57&#45;&gt;wing_60</title>
<path fill="none" stroke="black" d="M608.14,-288C617.05,-288 626.41,-288 635.51,-288"/>
<polygon fill="black" stroke="black" points="635.64,-291.5 645.64,-288 635.64,-284.5 635.64,-291.5"/>
</g>
<!-- wing_61 -->
<g id="node11" class="node">
<title>wing_61</title>
<g id="a_node11"><a xlink:href="javascript:s=&quot;\(&#x27;default&#x27;,\ &#x27;outer_engraved&#x27;,\ &#x27;outer_cap&#x27;,\ &#x27;cap_wings&#x27;,\ \(&#x27;wing&#x27;,\ 2\)\)\nRotateExtrude&quot;; console.log(s); alert(s);" xlink:title="RotateExtrude">
<ellipse fill="none" stroke="black" cx="692.86" cy="-234" rx="46.59" ry="18"/>
<text text-anchor="middle" x="692.86" y="-230.3" font-family="Times New Roman,serif" font-size="14.00">(&#39;wing&#39;, 2)</text>
</a>
</g>
</g>
<!-- cap_wings_57&#45;&gt;wing_61 -->
<g id="edge10" class="edge">
<title>cap_wings_57&#45;&gt;wing_61</title>
<path fill="none" stroke="black" d="M591.89,-274.65C609.63,-267.44 631.71,-258.46 650.6,-250.78"/>
<polygon fill="black" stroke="black" points="651.93,-254.02 659.87,-247.01 649.29,-247.53 651.93,-254.02"/>
</g>
<!-- wing_62 -->
<g id="node12" class="node">
<title>wing_62</title>
<g id="a_node12"><a xlink:href="javascript:s=&quot;\(&#x27;default&#x27;,\ &#x27;outer_engraved&#x27;,\ &#x27;outer_cap&#x27;,\ &#x27;cap_wings&#x27;,\ \(&#x27;wing&#x27;,\ 3\)\)\nRotateExtrude&quot;; console.log(s); alert(s);" xlink:title="RotateExtrude">
<ellipse fill="none" stroke="black" cx="692.86" cy="-180" rx="46.59" ry="18"/>
<text text-anchor="middle" x="692.86" y="-176.3" font-family="Times New Roman,serif" font-size="14.00">(&#39;wing&#39;, 3)</text>
</a>
</g>
</g>
<!-- cap_wings_57&#45;&gt;wing_62 -->
<g id="edge11" class="edge">
<title>cap_wings_57&#45;&gt;wing_62</title>
<path fill="none" stroke="black" d="M590.87,-274.3C597.63,-270.56 604.41,-266.1 610.06,-261 631.46,-241.66 625.11,-226.82 646.06,-207 648.77,-204.44 651.76,-202.01 654.88,-199.75"/>
<polygon fill="black" stroke="black" points="656.95,-202.58 663.33,-194.12 653.07,-196.75 656.95,-202.58"/>
</g>
<!-- cage_65 -->
<g id="node15" class="node">
<title>cage_65</title>
<g id="a_node15"><a xlink:href="javascript:s=&quot;\(&#x27;default&#x27;,\ &#x27;inner_cap&#x27;,\ &#x27;cage&#x27;\)\nCylinder&quot;; console.log(s); alert(s);" xlink:title="Cylinder">
<ellipse fill="none" stroke="black" cx="418.08" cy="-234" rx="27.1" ry="18"/>
<text text-anchor="middle" x="418.08" y="-230.3" font-family="Times New Roman,serif" font-size="14.00">cage</text>
</a>
</g>
</g>
<!-- inner_cap_64&#45;&gt;cage_65 -->
<g id="edge14" class="edge">
<title>inner_cap_64&#45;&gt;cage_65</title>
<path fill="none" stroke="black" d="M305.53,-214.31C329.31,-218.51 358.87,-223.72 381.58,-227.73"/>
<polygon fill="black" stroke="black" points="381.04,-231.19 391.49,-229.48 382.25,-224.3 381.04,-231.19"/>
</g>
<!-- button_cap_66 -->
<g id="node16" class="node">
<title>button_cap_66</title>
<g id="a_node16"><a xlink:href="javascript:s=&quot;\(&#x27;default&#x27;,\ &#x27;inner_cap&#x27;,\ &#x27;button_cap&#x27;\)\nRotateExtrude&quot;; console.log(s); alert(s);" xlink:title="RotateExtrude">
<ellipse fill="none" stroke="black" cx="418.08" cy="-180" rx="51.99" ry="18"/>
<text text-anchor="middle" x="418.08" y="-176.3" font-family="Times New Roman,serif" font-size="14.00">button_cap</text>
</a>
</g>
</g>
<!-- inner_cap_64&#45;&gt;button_cap_66 -->
<g id="edge15" class="edge">
<title>inner_cap_64&#45;&gt;button_cap_66</title>
<path fill="none" stroke="black" d="M305.53,-199.69C322.69,-196.66 342.87,-193.1 361.31,-189.84"/>
<polygon fill="black" stroke="black" points="362.11,-193.26 371.35,-188.07 360.89,-186.36 362.11,-193.26"/>
</g>
<!-- cap_wings_67 -->
<g id="node17" class="node">
<title>cap_wings_67</title>
<g id="a_node17"><a xlink:href="javascript:s=&quot;\(&#x27;default&#x27;,\ &#x27;inner_cap&#x27;,\ &#x27;cap_wings&#x27;\)\nButtonWings&quot;; console.log(s); alert(s);" xlink:title="ButtonWings">
<ellipse fill="none" stroke="black" cx="418.08" cy="-126" rx="50.09" ry="18"/>
<text text-anchor="middle" x="418.08" y="-122.3" font-family="Times New Roman,serif" font-size="14.00">cap_wings</text>
</a>
</g>
</g>
<!-- inner_cap_64&#45;&gt;cap_wings_67 -->
<g id="edge16" class="edge">
<title>inner_cap_64&#45;&gt;cap_wings_67</title>
<path fill="none" stroke="black" d="M291.48,-192.52C316.26,-179.4 352.97,-159.95 380.31,-145.47"/>
<polygon fill="black" stroke="black" points="382,-148.54 389.2,-140.77 378.72,-142.35 382,-148.54"/>
</g>
<!-- cage_68 -->
<g id="node18" class="node">
<title>cage_68</title>
<g id="a_node18"><a xlink:href="javascript:s=&quot;\(&#x27;default&#x27;,\ &#x27;inner_cap&#x27;,\ &#x27;cap_wings&#x27;,\ &#x27;cage&#x27;\)\nCylinder&quot;; console.log(s); alert(s);" xlink:title="Cylinder">
<ellipse fill="none" stroke="black" cx="558.07" cy="-234" rx="27.1" ry="18"/>
<text text-anchor="middle" x="558.07" y="-230.3" font-family="Times New Roman,serif" font-size="14.00">cage</text>
</a>
</g>
</g>
<!-- cap_wings_67&#45;&gt;cage_68 -->
<g id="edge17" class="edge">
<title>cap_wings_67&#45;&gt;cage_68</title>
<path fill="none" stroke="black" d="M450.88,-139.7C457.63,-143.44 464.42,-147.9 470.07,-153 491.47,-172.34 484.67,-187.66 506.07,-207 511.69,-212.08 518.44,-216.51 525.17,-220.24"/>
<polygon fill="black" stroke="black" points="523.71,-223.43 534.2,-224.88 526.91,-217.2 523.71,-223.43"/>
</g>
<!-- wing_69 -->
<g id="node19" class="node">
<title>wing_69</title>
<g id="a_node19"><a xlink:href="javascript:s=&quot;\(&#x27;default&#x27;,\ &#x27;inner_cap&#x27;,\ &#x27;cap_wings&#x27;,\ \(&#x27;wing&#x27;,\ 0\)\)\nRotateExtrude&quot;; console.log(s); alert(s);" xlink:title="RotateExtrude">
<ellipse fill="none" stroke="black" cx="558.07" cy="-180" rx="46.59" ry="18"/>
<text text-anchor="middle" x="558.07" y="-176.3" font-family="Times New Roman,serif" font-size="14.00">(&#39;wing&#39;, 0)</text>
</a>
</g>
</g>
<!-- cap_wings_67&#45;&gt;wing_69 -->
<g id="edge18" class="edge">
<title>cap_wings_67&#45;&gt;wing_69</title>
<path fill="none" stroke="black" d="M452.83,-139.21C471.62,-146.56 495.17,-155.78 515.14,-163.59"/>
<polygon fill="black" stroke="black" points="514.02,-166.91 524.61,-167.3 516.57,-160.39 514.02,-166.91"/>
</g>
<!-- wing_70 -->
<g id="node20" class="node">
<title>wing_70</title>
<g id="a_node20"><a xlink:href="javascript:s=&quot;\(&#x27;default&#x27;,\ &#x27;inner_cap&#x27;,\ &#x27;cap_wings&#x27;,\ \(&#x27;wing&#x27;,\ 1\)\)\nRotateExtrude&quot;; console.log(s); alert(s);" xlink:title="RotateExtrude">
<ellipse fill="none" stroke="black" cx="558.07" cy="-126" rx="46.59" ry="18"/>
<text text-anchor="middle" x="558.07" y="-122.3" font-family="Times New Roman,serif" font-size="14.00">(&#39;wing&#39;, 1)</text>
</a>
</g>
</g>
<!-- cap_wings_67&#45;&gt;wing_70 -->
<g id="edge19" class="edge">
<title>cap_wings_67&#45;&gt;wing_70</title>
<path fill="none" stroke="black" d="M468.51,-126C479.05,-126 490.27,-126 501.04,-126"/>
<polygon fill="black" stroke="black" points="501.21,-129.5 511.21,-126 501.21,-122.5 501.21,-129.5"/>
</g>
<!-- wing_71 -->
<g id="node21" class="node">
<title>wing_71</title>
<g id="a_node21"><a xlink:href="javascript:s=&quot;\(&#x27;default&#x27;,\ &#x27;inner_cap&#x27;,\ &#x27;cap_wings&#x27;,\ \(&#x27;wing&#x27;,\ 2\)\)\nRotateExtrude&quot;; console.log(s); alert(s);" xlink:title="RotateExtrude">
<ellipse fill="none" stroke="black" cx="558.07" cy="-72" rx="46.59" ry="18"/>
<text text-anchor="middle" x="558.07" y="-68.3" font-family="Times New Roman,serif" font-size="14.00">(&#39;wing&#39;, 2)</text>
</a>
</g>
</g>
<!-- cap_wings_67&#45;&gt;wing_71 -->
<g id="edge20" class="edge">
<title>cap_wings_67&#45;&gt;wing_71</title>
<path fill="none" stroke="black" d="M452.83,-112.79C471.62,-105.44 495.17,-96.22 515.14,-88.41"/>
<polygon fill="black" stroke="black" points="516.57,-91.61 524.61,-84.7 514.02,-85.09 516.57,-91.61"/>
</g>
<!-- wing_72 -->
<g id="node22" class="node">
<title>wing_72</title>
<g id="a_node22"><a xlink:href="javascript:s=&quot;\(&#x27;default&#x27;,\ &#x27;inner_cap&#x27;,\ &#x27;cap_wings&#x27;,\ \(&#x27;wing&#x27;,\ 3\)\)\nRotateExtrude&quot;; console.log(s); alert(s);" xlink:title="RotateExtrude">
<ellipse fill="none" stroke="black" cx="558.07" cy="-18" rx="46.59" ry="18"/>
<text text-anchor="middle" x="558.07" y="-14.3" font-family="Times New Roman,serif" font-size="14.00">(&#39;wing&#39;, 3)</text>
</a>
</g>
</g>
<!-- cap_wings_67&#45;&gt;wing_72 -->
<g id="edge21" class="edge">
<title>cap_wings_67&#45;&gt;wing_72</title>
<path fill="none" stroke="black" d="M434.94,-108.77C451.57,-91.33 479,-64.26 506.07,-45 510.05,-42.17 514.35,-39.44 518.72,-36.88"/>
<polygon fill="black" stroke="black" points="520.67,-39.8 527.69,-31.86 517.26,-33.69 520.67,-39.8"/>
</g>
</g>
</svg>
