<?xml version="1.0" encoding="UTF-8" standalone="no"?>
<!DOCTYPE svg PUBLIC "-//W3C//DTD SVG 1.1//EN"
 "http://www.w3.org/Graphics/SVG/1.1/DTD/svg11.dtd">
<!-- Generated by graphviz version 5.0.0 (20220707.1540)
 -->
<!-- Title: default Pages: 1 -->
<svg width="532pt" height="948pt"
 viewBox="0.00 0.00 532.27 948.00" xmlns="http://www.w3.org/2000/svg" xmlns:xlink="http://www.w3.org/1999/xlink">
<g id="graph0" class="graph" transform="scale(1 1) rotate(0) translate(4 944)">
<title>default</title>
<polygon fill="white" stroke="transparent" points="-4,4 -4,-944 528.27,-944 528.27,4 -4,4"/>
<!-- root_1 -->
<g id="node1" class="node">
<title>root_1</title>
<g id="a_node1"><a xlink:href="javascript:s=&quot;\(\)\nNone&quot;; console.log(s); alert(s);" xlink:title="root">
<ellipse fill="none" stroke="black" cx="27" cy="-409" rx="27" ry="18"/>
<text text-anchor="middle" x="27" y="-405.3" font-family="Times New Roman,serif" font-size="14.00">root</text>
</a>
</g>
</g>
<!-- default_2 -->
<g id="node2" class="node">
<title>default_2</title>
<g id="a_node2"><a xlink:href="javascript:s=&quot;\(&#x27;default&#x27;,\)\nButtonCap&quot;; console.log(s); alert(s);" xlink:title="ButtonCap">
<ellipse fill="none" stroke="black" cx="126.4" cy="-787" rx="35.19" ry="18"/>
<text text-anchor="middle" x="126.4" y="-783.3" font-family="Times New Roman,serif" font-size="14.00">default</text>
</a>
</g>
</g>
<!-- root_1&#45;&gt;default_2 -->
<g id="edge1" class="edge">
<title>root_1&#45;&gt;default_2</title>
<path fill="none" stroke="black" d="M32.57,-426.72C48.12,-487.1 99.14,-685.08 118.16,-758.91"/>
<polygon fill="black" stroke="black" points="114.84,-760.06 120.73,-768.87 121.62,-758.32 114.84,-760.06"/>
</g>
<!-- 12 -->
<g id="node12" class="node">
<title>12</title>
<g id="a_node12"><a xlink:href="javascript:s=&quot;\(&quot;&#x27;base&#x27;,\ &quot;,\)\nAnnotatedCoordinates&quot;; console.log(s); alert(s);" xlink:title="AnnotatedCoordinates">
<ellipse fill="none" stroke="black" cx="126.4" cy="-409" rx="36.29" ry="18"/>
<text text-anchor="middle" x="126.4" y="-405.3" font-family="Times New Roman,serif" font-size="14.00">&#39;base&#39;, </text>
</a>
</g>
</g>
<!-- root_1&#45;&gt;12 -->
<g id="edge11" class="edge">
<title>root_1&#45;&gt;12</title>
<path fill="none" stroke="black" d="M54.1,-409C61.96,-409 70.82,-409 79.56,-409"/>
<polygon fill="black" stroke="black" points="79.7,-412.5 89.7,-409 79.7,-405.5 79.7,-412.5"/>
</g>
<!-- 28 -->
<g id="node28" class="node">
<title>28</title>
<g id="a_node28"><a xlink:href="javascript:s=&quot;\(&quot;&#x27;top&#x27;,\ &quot;,\)\nAnnotatedCoordinates&quot;; console.log(s); alert(s);" xlink:title="AnnotatedCoordinates">
<ellipse fill="none" stroke="black" cx="126.4" cy="-153" rx="31.7" ry="18"/>
<text text-anchor="middle" x="126.4" y="-149.3" font-family="Times New Roman,serif" font-size="14.00">&#39;top&#39;, </text>
</a>
</g>
</g>
<!-- root_1&#45;&gt;28 -->
<g id="edge27" class="edge">
<title>root_1&#45;&gt;28</title>
<path fill="none" stroke="black" d="M34.69,-391.4C51.41,-347.47 95.07,-232.71 115.09,-180.08"/>
<polygon fill="black" stroke="black" points="118.37,-181.31 118.66,-170.72 111.83,-178.82 118.37,-181.31"/>
</g>
<!-- cage_3 -->
<g id="node3" class="node">
<title>cage_3</title>
<g id="a_node3"><a xlink:href="javascript:s=&quot;\(&#x27;default&#x27;,\ &#x27;cage&#x27;\)\nCylinder&quot;; console.log(s); alert(s);" xlink:title="Cylinder">
<ellipse fill="none" stroke="black" cx="250.79" cy="-868" rx="27.1" ry="18"/>
<text text-anchor="middle" x="250.79" y="-864.3" font-family="Times New Roman,serif" font-size="14.00">cage</text>
</a>
</g>
</g>
<!-- default_2&#45;&gt;cage_3 -->
<g id="edge2" class="edge">
<title>default_2&#45;&gt;cage_3</title>
<path fill="none" stroke="black" d="M145.89,-802.3C159.97,-813.61 180.05,-829.06 198.79,-841 205.24,-845.11 212.38,-849.17 219.22,-852.84"/>
<polygon fill="black" stroke="black" points="217.78,-856.04 228.27,-857.58 221.03,-849.84 217.78,-856.04"/>
</g>
<!-- button_cap_4 -->
<g id="node4" class="node">
<title>button_cap_4</title>
<g id="a_node4"><a xlink:href="javascript:s=&quot;\(&#x27;default&#x27;,\ &#x27;button_cap&#x27;\)\nRotateExtrude&quot;; console.log(s); alert(s);" xlink:title="RotateExtrude">
<ellipse fill="none" stroke="black" cx="250.79" cy="-814" rx="51.99" ry="18"/>
<text text-anchor="middle" x="250.79" y="-810.3" font-family="Times New Roman,serif" font-size="14.00">button_cap</text>
</a>
</g>
</g>
<!-- default_2&#45;&gt;button_cap_4 -->
<g id="edge3" class="edge">
<title>default_2&#45;&gt;button_cap_4</title>
<path fill="none" stroke="black" d="M158.92,-793.95C170.32,-796.47 183.53,-799.38 196.29,-802.2"/>
<polygon fill="black" stroke="black" points="195.87,-805.69 206.39,-804.42 197.37,-798.85 195.87,-805.69"/>
</g>
<!-- cap_wings_5 -->
<g id="node5" class="node">
<title>cap_wings_5</title>
<g id="a_node5"><a xlink:href="javascript:s=&quot;\(&#x27;default&#x27;,\ &#x27;cap_wings&#x27;\)\nButtonWings&quot;; console.log(s); alert(s);" xlink:title="ButtonWings">
<ellipse fill="none" stroke="black" cx="250.79" cy="-760" rx="50.09" ry="18"/>
<text text-anchor="middle" x="250.79" y="-756.3" font-family="Times New Roman,serif" font-size="14.00">cap_wings</text>
</a>
</g>
</g>
<!-- default_2&#45;&gt;cap_wings_5 -->
<g id="edge4" class="edge">
<title>default_2&#45;&gt;cap_wings_5</title>
<path fill="none" stroke="black" d="M158.92,-780.05C170.77,-777.43 184.58,-774.39 197.81,-771.47"/>
<polygon fill="black" stroke="black" points="198.75,-774.84 207.76,-769.27 197.24,-768.01 198.75,-774.84"/>
</g>
<!-- cage_6 -->
<g id="node6" class="node">
<title>cage_6</title>
<g id="a_node6"><a xlink:href="javascript:s=&quot;\(&#x27;default&#x27;,\ &#x27;cap_wings&#x27;,\ &#x27;cage&#x27;\)\nCylinder&quot;; console.log(s); alert(s);" xlink:title="Cylinder">
<ellipse fill="none" stroke="black" cx="385.58" cy="-922" rx="27.1" ry="18"/>
<text text-anchor="middle" x="385.58" y="-918.3" font-family="Times New Roman,serif" font-size="14.00">cage</text>
</a>
</g>
</g>
<!-- cap_wings_5&#45;&gt;cage_6 -->
<g id="edge5" class="edge">
<title>cap_wings_5&#45;&gt;cage_6</title>
<path fill="none" stroke="black" d="M285.46,-773.11C291.88,-776.83 298.06,-781.42 302.78,-787 335.49,-825.61 306.97,-855.65 338.78,-895 342.65,-899.78 347.61,-903.9 352.82,-907.38"/>
<polygon fill="black" stroke="black" points="351.31,-910.56 361.7,-912.64 354.88,-904.53 351.31,-910.56"/>
</g>
<!-- wing_7 -->
<g id="node7" class="node">
<title>wing_7</title>
<g id="a_node7"><a xlink:href="javascript:s=&quot;\(&#x27;default&#x27;,\ &#x27;cap_wings&#x27;,\ \(&#x27;wing&#x27;,\ 0\)\)\nRotateExtrude&quot;; console.log(s); alert(s);" xlink:title="RotateExtrude">
<ellipse fill="none" stroke="black" cx="385.58" cy="-868" rx="46.59" ry="18"/>
<text text-anchor="middle" x="385.58" y="-864.3" font-family="Times New Roman,serif" font-size="14.00">(&#39;wing&#39;, 0)</text>
</a>
</g>
</g>
<!-- cap_wings_5&#45;&gt;wing_7 -->
<g id="edge6" class="edge">
<title>cap_wings_5&#45;&gt;wing_7</title>
<path fill="none" stroke="black" d="M283.59,-773.7C290.35,-777.44 297.14,-781.9 302.78,-787 324.18,-806.34 317.83,-821.18 338.78,-841 341.49,-843.56 344.48,-845.99 347.6,-848.25"/>
<polygon fill="black" stroke="black" points="345.79,-851.25 356.05,-853.88 349.67,-845.42 345.79,-851.25"/>
</g>
<!-- wing_8 -->
<g id="node8" class="node">
<title>wing_8</title>
<g id="a_node8"><a xlink:href="javascript:s=&quot;\(&#x27;default&#x27;,\ &#x27;cap_wings&#x27;,\ \(&#x27;wing&#x27;,\ 1\)\)\nRotateExtrude&quot;; console.log(s); alert(s);" xlink:title="RotateExtrude">
<ellipse fill="none" stroke="black" cx="385.58" cy="-814" rx="46.59" ry="18"/>
<text text-anchor="middle" x="385.58" y="-810.3" font-family="Times New Roman,serif" font-size="14.00">(&#39;wing&#39;, 1)</text>
</a>
</g>
</g>
<!-- cap_wings_5&#45;&gt;wing_8 -->
<g id="edge7" class="edge">
<title>cap_wings_5&#45;&gt;wing_8</title>
<path fill="none" stroke="black" d="M284.61,-773.35C302.35,-780.56 324.43,-789.54 343.32,-797.22"/>
<polygon fill="black" stroke="black" points="342.01,-800.47 352.59,-800.99 344.65,-793.98 342.01,-800.47"/>
</g>
<!-- wing_9 -->
<g id="node9" class="node">
<title>wing_9</title>
<g id="a_node9"><a xlink:href="javascript:s=&quot;\(&#x27;default&#x27;,\ &#x27;cap_wings&#x27;,\ \(&#x27;wing&#x27;,\ 2\)\)\nRotateExtrude&quot;; console.log(s); alert(s);" xlink:title="RotateExtrude">
<ellipse fill="none" stroke="black" cx="385.58" cy="-760" rx="46.59" ry="18"/>
<text text-anchor="middle" x="385.58" y="-756.3" font-family="Times New Roman,serif" font-size="14.00">(&#39;wing&#39;, 2)</text>
</a>
</g>
</g>
<!-- cap_wings_5&#45;&gt;wing_9 -->
<g id="edge8" class="edge">
<title>cap_wings_5&#45;&gt;wing_9</title>
<path fill="none" stroke="black" d="M300.86,-760C309.77,-760 319.13,-760 328.23,-760"/>
<polygon fill="black" stroke="black" points="328.36,-763.5 338.36,-760 328.36,-756.5 328.36,-763.5"/>
</g>
<!-- wing_10 -->
<g id="node10" class="node">
<title>wing_10</title>
<g id="a_node10"><a xlink:href="javascript:s=&quot;\(&#x27;default&#x27;,\ &#x27;cap_wings&#x27;,\ \(&#x27;wing&#x27;,\ 3\)\)\nRotateExtrude&quot;; console.log(s); alert(s);" xlink:title="RotateExtrude">
<ellipse fill="none" stroke="black" cx="385.58" cy="-706" rx="46.59" ry="18"/>
<text text-anchor="middle" x="385.58" y="-702.3" font-family="Times New Roman,serif" font-size="14.00">(&#39;wing&#39;, 3)</text>
</a>
</g>
</g>
<!-- cap_wings_5&#45;&gt;wing_10 -->
<g id="edge9" class="edge">
<title>cap_wings_5&#45;&gt;wing_10</title>
<path fill="none" stroke="black" d="M284.61,-746.65C302.35,-739.44 324.43,-730.46 343.32,-722.78"/>
<polygon fill="black" stroke="black" points="344.65,-726.02 352.59,-719.01 342.01,-719.53 344.65,-726.02"/>
</g>
<!-- wing_11 -->
<g id="node11" class="node">
<title>wing_11</title>
<g id="a_node11"><a xlink:href="javascript:s=&quot;\(&#x27;default&#x27;,\ &#x27;cap_wings&#x27;,\ \(&#x27;wing&#x27;,\ 4\)\)\nRotateExtrude&quot;; console.log(s); alert(s);" xlink:title="RotateExtrude">
<ellipse fill="none" stroke="black" cx="385.58" cy="-652" rx="46.59" ry="18"/>
<text text-anchor="middle" x="385.58" y="-648.3" font-family="Times New Roman,serif" font-size="14.00">(&#39;wing&#39;, 4)</text>
</a>
</g>
</g>
<!-- cap_wings_5&#45;&gt;wing_11 -->
<g id="edge10" class="edge">
<title>cap_wings_5&#45;&gt;wing_11</title>
<path fill="none" stroke="black" d="M267.84,-743.03C284.61,-725.79 312.16,-698.87 338.78,-679 341.94,-676.64 345.31,-674.33 348.75,-672.09"/>
<polygon fill="black" stroke="black" points="350.67,-675.02 357.32,-666.76 346.98,-669.07 350.67,-675.02"/>
</g>
<!-- coords_13 -->
<g id="node13" class="node">
<title>coords_13</title>
<g id="a_node13"><a xlink:href="javascript:s=&quot;\(&quot;&#x27;base&#x27;,\ &quot;,\ &#x27;coords&#x27;\)\nCoordinates&quot;; console.log(s); alert(s);" xlink:title="Coordinates">
<ellipse fill="none" stroke="black" cx="250.79" cy="-517" rx="36.29" ry="18"/>
<text text-anchor="middle" x="250.79" y="-513.3" font-family="Times New Roman,serif" font-size="14.00">coords</text>
</a>
</g>
</g>
<!-- 12&#45;&gt;coords_13 -->
<g id="edge12" class="edge">
<title>12&#45;&gt;coords_13</title>
<path fill="none" stroke="black" d="M139.56,-426.14C152.69,-443.76 174.95,-471.2 198.79,-490 203.48,-493.7 208.75,-497.13 214.07,-500.23"/>
<polygon fill="black" stroke="black" points="212.54,-503.38 222.99,-505.12 215.9,-497.24 212.54,-503.38"/>
</g>
<!-- x_24 -->
<g id="node24" class="node">
<title>x_24</title>
<g id="a_node24"><a xlink:href="javascript:s=&quot;\(&quot;&#x27;base&#x27;,\ &quot;,\ &#x27;x&#x27;\)\nText&quot;; console.log(s); alert(s);" xlink:title="Text">
<ellipse fill="none" stroke="black" cx="250.79" cy="-463" rx="27" ry="18"/>
<text text-anchor="middle" x="250.79" y="-459.3" font-family="Times New Roman,serif" font-size="14.00">x</text>
</a>
</g>
</g>
<!-- 12&#45;&gt;x_24 -->
<g id="edge23" class="edge">
<title>12&#45;&gt;x_24</title>
<path fill="none" stroke="black" d="M154.26,-420.85C173.24,-429.23 198.75,-440.48 218.64,-449.26"/>
<polygon fill="black" stroke="black" points="217.33,-452.5 227.89,-453.34 220.15,-446.1 217.33,-452.5"/>
</g>
<!-- y_25 -->
<g id="node25" class="node">
<title>y_25</title>
<g id="a_node25"><a xlink:href="javascript:s=&quot;\(&quot;&#x27;base&#x27;,\ &quot;,\ &#x27;y&#x27;\)\nText&quot;; console.log(s); alert(s);" xlink:title="Text">
<ellipse fill="none" stroke="black" cx="250.79" cy="-409" rx="27" ry="18"/>
<text text-anchor="middle" x="250.79" y="-405.3" font-family="Times New Roman,serif" font-size="14.00">y</text>
</a>
</g>
</g>
<!-- 12&#45;&gt;y_25 -->
<g id="edge24" class="edge">
<title>12&#45;&gt;y_25</title>
<path fill="none" stroke="black" d="M162.8,-409C178.67,-409 197.37,-409 213.36,-409"/>
<polygon fill="black" stroke="black" points="213.41,-412.5 223.41,-409 213.41,-405.5 213.41,-412.5"/>
</g>
<!-- z_26 -->
<g id="node26" class="node">
<title>z_26</title>
<g id="a_node26"><a xlink:href="javascript:s=&quot;\(&quot;&#x27;base&#x27;,\ &quot;,\ &#x27;z&#x27;\)\nText&quot;; console.log(s); alert(s);" xlink:title="Text">
<ellipse fill="none" stroke="black" cx="250.79" cy="-355" rx="27" ry="18"/>
<text text-anchor="middle" x="250.79" y="-351.3" font-family="Times New Roman,serif" font-size="14.00">z</text>
</a>
</g>
</g>
<!-- 12&#45;&gt;z_26 -->
<g id="edge25" class="edge">
<title>12&#45;&gt;z_26</title>
<path fill="none" stroke="black" d="M154.26,-397.15C173.24,-388.77 198.75,-377.52 218.64,-368.74"/>
<polygon fill="black" stroke="black" points="220.15,-371.9 227.89,-364.66 217.33,-365.5 220.15,-371.9"/>
</g>
<!-- label_27 -->
<g id="node27" class="node">
<title>label_27</title>
<g id="a_node27"><a xlink:href="javascript:s=&quot;\(&quot;&#x27;base&#x27;,\ &quot;,\ &#x27;label&#x27;\)\nText&quot;; console.log(s); alert(s);" xlink:title="Text">
<ellipse fill="none" stroke="black" cx="250.79" cy="-301" rx="27.1" ry="18"/>
<text text-anchor="middle" x="250.79" y="-297.3" font-family="Times New Roman,serif" font-size="14.00">label</text>
</a>
</g>
</g>
<!-- 12&#45;&gt;label_27 -->
<g id="edge26" class="edge">
<title>12&#45;&gt;label_27</title>
<path fill="none" stroke="black" d="M139.56,-391.86C152.69,-374.24 174.95,-346.8 198.79,-328 204.8,-323.27 211.75,-318.96 218.56,-315.24"/>
<polygon fill="black" stroke="black" points="220.36,-318.24 227.65,-310.55 217.15,-312.02 220.36,-318.24"/>
</g>
<!-- origin_14 -->
<g id="node14" class="node">
<title>origin_14</title>
<g id="a_node14"><a xlink:href="javascript:s=&quot;\(&quot;&#x27;base&#x27;,\ &quot;,\ &#x27;coords&#x27;,\ &#x27;origin&#x27;\)\nCoordinatesCage&quot;; console.log(s); alert(s);" xlink:title="CoordinatesCage">
<ellipse fill="none" stroke="black" cx="385.58" cy="-598" rx="31.4" ry="18"/>
<text text-anchor="middle" x="385.58" y="-594.3" font-family="Times New Roman,serif" font-size="14.00">origin</text>
</a>
</g>
</g>
<!-- coords_13&#45;&gt;origin_14 -->
<g id="edge13" class="edge">
<title>coords_13&#45;&gt;origin_14</title>
<path fill="none" stroke="black" d="M274.23,-531.13C291.75,-542.1 316.73,-557.66 338.78,-571 343.72,-573.99 348.97,-577.12 354.1,-580.16"/>
<polygon fill="black" stroke="black" points="352.69,-583.4 363.09,-585.46 356.25,-577.37 352.69,-583.4"/>
</g>
<!-- x_arrow_15 -->
<g id="node15" class="node">
<title>x_arrow_15</title>
<g id="a_node15"><a xlink:href="javascript:s=&quot;\(&quot;&#x27;base&#x27;,\ &quot;,\ &#x27;coords&#x27;,\ &#x27;x_arrow&#x27;\)\nArrow&quot;; console.log(s); alert(s);" xlink:title="Arrow">
<ellipse fill="none" stroke="black" cx="385.58" cy="-544" rx="40.89" ry="18"/>
<text text-anchor="middle" x="385.58" y="-540.3" font-family="Times New Roman,serif" font-size="14.00">x_arrow</text>
</a>
</g>
</g>
<!-- coords_13&#45;&gt;x_arrow_15 -->
<g id="edge14" class="edge">
<title>coords_13&#45;&gt;x_arrow_15</title>
<path fill="none" stroke="black" d="M284.61,-523.67C300.66,-526.94 320.27,-530.92 337.85,-534.5"/>
<polygon fill="black" stroke="black" points="337.43,-537.98 347.92,-536.55 338.82,-531.12 337.43,-537.98"/>
</g>
<!-- y_arrow_18 -->
<g id="node18" class="node">
<title>y_arrow_18</title>
<g id="a_node18"><a xlink:href="javascript:s=&quot;\(&quot;&#x27;base&#x27;,\ &quot;,\ &#x27;coords&#x27;,\ &#x27;y_arrow&#x27;\)\nArrow&quot;; console.log(s); alert(s);" xlink:title="Arrow">
<ellipse fill="none" stroke="black" cx="385.58" cy="-490" rx="40.89" ry="18"/>
<text text-anchor="middle" x="385.58" y="-486.3" font-family="Times New Roman,serif" font-size="14.00">y_arrow</text>
</a>
</g>
</g>
<!-- coords_13&#45;&gt;y_arrow_18 -->
<g id="edge17" class="edge">
<title>coords_13&#45;&gt;y_arrow_18</title>
<path fill="none" stroke="black" d="M284.61,-510.33C300.66,-507.06 320.27,-503.08 337.85,-499.5"/>
<polygon fill="black" stroke="black" points="338.82,-502.88 347.92,-497.45 337.43,-496.02 338.82,-502.88"/>
</g>
<!-- z_arrow_21 -->
<g id="node21" class="node">
<title>z_arrow_21</title>
<g id="a_node21"><a xlink:href="javascript:s=&quot;\(&quot;&#x27;base&#x27;,\ &quot;,\ &#x27;coords&#x27;,\ &#x27;z_arrow&#x27;\)\nArrow&quot;; console.log(s); alert(s);" xlink:title="Arrow">
<ellipse fill="none" stroke="black" cx="385.58" cy="-396" rx="40.09" ry="18"/>
<text text-anchor="middle" x="385.58" y="-392.3" font-family="Times New Roman,serif" font-size="14.00">z_arrow</text>
</a>
</g>
</g>
<!-- coords_13&#45;&gt;z_arrow_21 -->
<g id="edge20" class="edge">
<title>coords_13&#45;&gt;z_arrow_21</title>
<path fill="none" stroke="black" d="M278.61,-505.14C286.76,-500.94 295.49,-495.79 302.78,-490 327.84,-470.11 351.24,-441.84 366.54,-421.5"/>
<polygon fill="black" stroke="black" points="369.46,-423.44 372.58,-413.32 363.83,-419.28 369.46,-423.44"/>
</g>
<!-- stem_16 -->
<g id="node16" class="node">
<title>stem_16</title>
<g id="a_node16"><a xlink:href="javascript:s=&quot;\(&quot;&#x27;base&#x27;,\ &quot;,\ &#x27;coords&#x27;,\ &#x27;x_arrow&#x27;,\ &#x27;stem&#x27;\)\nCone&quot;; console.log(s); alert(s);" xlink:title="Cone">
<ellipse fill="none" stroke="black" cx="496.32" cy="-612" rx="27.9" ry="18"/>
<text text-anchor="middle" x="496.32" y="-608.3" font-family="Times New Roman,serif" font-size="14.00">stem</text>
</a>
</g>
</g>
<!-- x_arrow_15&#45;&gt;stem_16 -->
<g id="edge15" class="edge">
<title>x_arrow_15&#45;&gt;stem_16</title>
<path fill="none" stroke="black" d="M411.42,-558.37C418.25,-562.4 425.63,-566.82 432.38,-571 443.98,-578.19 456.62,-586.36 467.51,-593.5"/>
<polygon fill="black" stroke="black" points="465.9,-596.64 476.18,-599.21 469.76,-590.79 465.9,-596.64"/>
</g>
<!-- head_17 -->
<g id="node17" class="node">
<title>head_17</title>
<g id="a_node17"><a xlink:href="javascript:s=&quot;\(&quot;&#x27;base&#x27;,\ &quot;,\ &#x27;coords&#x27;,\ &#x27;x_arrow&#x27;,\ &#x27;head&#x27;\)\nCone&quot;; console.log(s); alert(s);" xlink:title="Cone">
<ellipse fill="none" stroke="black" cx="496.32" cy="-558" rx="27.9" ry="18"/>
<text text-anchor="middle" x="496.32" y="-554.3" font-family="Times New Roman,serif" font-size="14.00">head</text>
</a>
</g>
</g>
<!-- x_arrow_15&#45;&gt;head_17 -->
<g id="edge16" class="edge">
<title>x_arrow_15&#45;&gt;head_17</title>
<path fill="none" stroke="black" d="M425.23,-548.98C436.14,-550.38 447.99,-551.91 458.78,-553.29"/>
<polygon fill="black" stroke="black" points="458.37,-556.77 468.73,-554.58 459.26,-549.83 458.37,-556.77"/>
</g>
<!-- stem_19 -->
<g id="node19" class="node">
<title>stem_19</title>
<g id="a_node19"><a xlink:href="javascript:s=&quot;\(&quot;&#x27;base&#x27;,\ &quot;,\ &#x27;coords&#x27;,\ &#x27;y_arrow&#x27;,\ &#x27;stem&#x27;\)\nCone&quot;; console.log(s); alert(s);" xlink:title="Cone">
<ellipse fill="none" stroke="black" cx="496.32" cy="-504" rx="27.9" ry="18"/>
<text text-anchor="middle" x="496.32" y="-500.3" font-family="Times New Roman,serif" font-size="14.00">stem</text>
</a>
</g>
</g>
<!-- y_arrow_18&#45;&gt;stem_19 -->
<g id="edge18" class="edge">
<title>y_arrow_18&#45;&gt;stem_19</title>
<path fill="none" stroke="black" d="M425.23,-494.98C436.14,-496.38 447.99,-497.91 458.78,-499.29"/>
<polygon fill="black" stroke="black" points="458.37,-502.77 468.73,-500.58 459.26,-495.83 458.37,-502.77"/>
</g>
<!-- head_20 -->
<g id="node20" class="node">
<title>head_20</title>
<g id="a_node20"><a xlink:href="javascript:s=&quot;\(&quot;&#x27;base&#x27;,\ &quot;,\ &#x27;coords&#x27;,\ &#x27;y_arrow&#x27;,\ &#x27;head&#x27;\)\nCone&quot;; console.log(s); alert(s);" xlink:title="Cone">
<ellipse fill="none" stroke="black" cx="496.32" cy="-450" rx="27.9" ry="18"/>
<text text-anchor="middle" x="496.32" y="-446.3" font-family="Times New Roman,serif" font-size="14.00">head</text>
</a>
</g>
</g>
<!-- y_arrow_18&#45;&gt;head_20 -->
<g id="edge19" class="edge">
<title>y_arrow_18&#45;&gt;head_20</title>
<path fill="none" stroke="black" d="M417.45,-478.64C431.43,-473.5 447.98,-467.42 462.21,-462.18"/>
<polygon fill="black" stroke="black" points="463.46,-465.45 471.64,-458.71 461.05,-458.88 463.46,-465.45"/>
</g>
<!-- stem_22 -->
<g id="node22" class="node">
<title>stem_22</title>
<g id="a_node22"><a xlink:href="javascript:s=&quot;\(&quot;&#x27;base&#x27;,\ &quot;,\ &#x27;coords&#x27;,\ &#x27;z_arrow&#x27;,\ &#x27;stem&#x27;\)\nCone&quot;; console.log(s); alert(s);" xlink:title="Cone">
<ellipse fill="none" stroke="black" cx="496.32" cy="-396" rx="27.9" ry="18"/>
<text text-anchor="middle" x="496.32" y="-392.3" font-family="Times New Roman,serif" font-size="14.00">stem</text>
</a>
</g>
</g>
<!-- z_arrow_21&#45;&gt;stem_22 -->
<g id="edge21" class="edge">
<title>z_arrow_21&#45;&gt;stem_22</title>
<path fill="none" stroke="black" d="M426.15,-396C436.51,-396 447.66,-396 457.91,-396"/>
<polygon fill="black" stroke="black" points="458.2,-399.5 468.2,-396 458.2,-392.5 458.2,-399.5"/>
</g>
<!-- head_23 -->
<g id="node23" class="node">
<title>head_23</title>
<g id="a_node23"><a xlink:href="javascript:s=&quot;\(&quot;&#x27;base&#x27;,\ &quot;,\ &#x27;coords&#x27;,\ &#x27;z_arrow&#x27;,\ &#x27;head&#x27;\)\nCone&quot;; console.log(s); alert(s);" xlink:title="Cone">
<ellipse fill="none" stroke="black" cx="496.32" cy="-342" rx="27.9" ry="18"/>
<text text-anchor="middle" x="496.32" y="-338.3" font-family="Times New Roman,serif" font-size="14.00">head</text>
</a>
</g>
</g>
<!-- z_arrow_21&#45;&gt;head_23 -->
<g id="edge22" class="edge">
<title>z_arrow_21&#45;&gt;head_23</title>
<path fill="none" stroke="black" d="M413.18,-382.79C428.74,-375.06 448.45,-365.28 464.66,-357.23"/>
<polygon fill="black" stroke="black" points="466.34,-360.3 473.74,-352.72 463.22,-354.03 466.34,-360.3"/>
</g>
<!-- coords_29 -->
<g id="node29" class="node">
<title>coords_29</title>
<g id="a_node29"><a xlink:href="javascript:s=&quot;\(&quot;&#x27;top&#x27;,\ &quot;,\ &#x27;coords&#x27;\)\nCoordinates&quot;; console.log(s); alert(s);" xlink:title="Coordinates">
<ellipse fill="none" stroke="black" cx="250.79" cy="-234" rx="36.29" ry="18"/>
<text text-anchor="middle" x="250.79" y="-230.3" font-family="Times New Roman,serif" font-size="14.00">coords</text>
</a>
</g>
</g>
<!-- 28&#45;&gt;coords_29 -->
<g id="edge28" class="edge">
<title>28&#45;&gt;coords_29</title>
<path fill="none" stroke="black" d="M145.31,-167.82C159.41,-179.18 179.79,-194.89 198.79,-207 203.94,-210.28 209.51,-213.52 215.03,-216.56"/>
<polygon fill="black" stroke="black" points="213.71,-219.82 224.17,-221.46 217.01,-213.65 213.71,-219.82"/>
</g>
<!-- x_40 -->
<g id="node40" class="node">
<title>x_40</title>
<g id="a_node40"><a xlink:href="javascript:s=&quot;\(&quot;&#x27;top&#x27;,\ &quot;,\ &#x27;x&#x27;\)\nText&quot;; console.log(s); alert(s);" xlink:title="Text">
<ellipse fill="none" stroke="black" cx="250.79" cy="-180" rx="27" ry="18"/>
<text text-anchor="middle" x="250.79" y="-176.3" font-family="Times New Roman,serif" font-size="14.00">x</text>
</a>
</g>
</g>
<!-- 28&#45;&gt;x_40 -->
<g id="edge39" class="edge">
<title>28&#45;&gt;x_40</title>
<path fill="none" stroke="black" d="M156.4,-159.4C173.94,-163.27 196.4,-168.22 214.9,-172.3"/>
<polygon fill="black" stroke="black" points="214.2,-175.73 224.72,-174.47 215.71,-168.9 214.2,-175.73"/>
</g>
<!-- y_41 -->
<g id="node41" class="node">
<title>y_41</title>
<g id="a_node41"><a xlink:href="javascript:s=&quot;\(&quot;&#x27;top&#x27;,\ &quot;,\ &#x27;y&#x27;\)\nText&quot;; console.log(s); alert(s);" xlink:title="Text">
<ellipse fill="none" stroke="black" cx="250.79" cy="-126" rx="27" ry="18"/>
<text text-anchor="middle" x="250.79" y="-122.3" font-family="Times New Roman,serif" font-size="14.00">y</text>
</a>
</g>
</g>
<!-- 28&#45;&gt;y_41 -->
<g id="edge40" class="edge">
<title>28&#45;&gt;y_41</title>
<path fill="none" stroke="black" d="M156.4,-146.6C173.94,-142.73 196.4,-137.78 214.9,-133.7"/>
<polygon fill="black" stroke="black" points="215.71,-137.1 224.72,-131.53 214.2,-130.27 215.71,-137.1"/>
</g>
<!-- z_42 -->
<g id="node42" class="node">
<title>z_42</title>
<g id="a_node42"><a xlink:href="javascript:s=&quot;\(&quot;&#x27;top&#x27;,\ &quot;,\ &#x27;z&#x27;\)\nText&quot;; console.log(s); alert(s);" xlink:title="Text">
<ellipse fill="none" stroke="black" cx="250.79" cy="-72" rx="27" ry="18"/>
<text text-anchor="middle" x="250.79" y="-68.3" font-family="Times New Roman,serif" font-size="14.00">z</text>
</a>
</g>
</g>
<!-- 28&#45;&gt;z_42 -->
<g id="edge41" class="edge">
<title>28&#45;&gt;z_42</title>
<path fill="none" stroke="black" d="M145.31,-138.18C159.41,-126.82 179.79,-111.11 198.79,-99 205.3,-94.86 212.5,-90.76 219.4,-87.06"/>
<polygon fill="black" stroke="black" points="221.28,-90.03 228.52,-82.3 218.03,-83.83 221.28,-90.03"/>
</g>
<!-- label_43 -->
<g id="node43" class="node">
<title>label_43</title>
<g id="a_node43"><a xlink:href="javascript:s=&quot;\(&quot;&#x27;top&#x27;,\ &quot;,\ &#x27;label&#x27;\)\nText&quot;; console.log(s); alert(s);" xlink:title="Text">
<ellipse fill="none" stroke="black" cx="250.79" cy="-18" rx="27.1" ry="18"/>
<text text-anchor="middle" x="250.79" y="-14.3" font-family="Times New Roman,serif" font-size="14.00">label</text>
</a>
</g>
</g>
<!-- 28&#45;&gt;label_43 -->
<g id="edge42" class="edge">
<title>28&#45;&gt;label_43</title>
<path fill="none" stroke="black" d="M135.57,-135.34C146.99,-112.19 169.66,-71.43 198.79,-45 204.4,-39.91 211.15,-35.47 217.87,-31.74"/>
<polygon fill="black" stroke="black" points="219.61,-34.78 226.91,-27.1 216.42,-28.55 219.61,-34.78"/>
</g>
<!-- origin_30 -->
<g id="node30" class="node">
<title>origin_30</title>
<g id="a_node30"><a xlink:href="javascript:s=&quot;\(&quot;&#x27;top&#x27;,\ &quot;,\ &#x27;coords&#x27;,\ &#x27;origin&#x27;\)\nCoordinatesCage&quot;; console.log(s); alert(s);" xlink:title="CoordinatesCage">
<ellipse fill="none" stroke="black" cx="385.58" cy="-288" rx="31.4" ry="18"/>
<text text-anchor="middle" x="385.58" y="-284.3" font-family="Times New Roman,serif" font-size="14.00">origin</text>
</a>
</g>
</g>
<!-- coords_29&#45;&gt;origin_30 -->
<g id="edge29" class="edge">
<title>coords_29&#45;&gt;origin_30</title>
<path fill="none" stroke="black" d="M279.3,-245.19C299.82,-253.53 327.98,-264.98 350.01,-273.94"/>
<polygon fill="black" stroke="black" points="348.77,-277.21 359.35,-277.74 351.4,-270.73 348.77,-277.21"/>
</g>
<!-- x_arrow_31 -->
<g id="node31" class="node">
<title>x_arrow_31</title>
<g id="a_node31"><a xlink:href="javascript:s=&quot;\(&quot;&#x27;top&#x27;,\ &quot;,\ &#x27;coords&#x27;,\ &#x27;x_arrow&#x27;\)\nArrow&quot;; console.log(s); alert(s);" xlink:title="Arrow">
<ellipse fill="none" stroke="black" cx="385.58" cy="-234" rx="40.89" ry="18"/>
<text text-anchor="middle" x="385.58" y="-230.3" font-family="Times New Roman,serif" font-size="14.00">x_arrow</text>
</a>
</g>
</g>
<!-- coords_29&#45;&gt;x_arrow_31 -->
<g id="edge30" class="edge">
<title>coords_29&#45;&gt;x_arrow_31</title>
<path fill="none" stroke="black" d="M287.37,-234C301.74,-234 318.59,-234 334.18,-234"/>
<polygon fill="black" stroke="black" points="334.2,-237.5 344.2,-234 334.2,-230.5 334.2,-237.5"/>
</g>
<!-- y_arrow_34 -->
<g id="node34" class="node">
<title>y_arrow_34</title>
<g id="a_node34"><a xlink:href="javascript:s=&quot;\(&quot;&#x27;top&#x27;,\ &quot;,\ &#x27;coords&#x27;,\ &#x27;y_arrow&#x27;\)\nArrow&quot;; console.log(s); alert(s);" xlink:title="Arrow">
<ellipse fill="none" stroke="black" cx="385.58" cy="-180" rx="40.89" ry="18"/>
<text text-anchor="middle" x="385.58" y="-176.3" font-family="Times New Roman,serif" font-size="14.00">y_arrow</text>
</a>
</g>
</g>
<!-- coords_29&#45;&gt;y_arrow_34 -->
<g id="edge33" class="edge">
<title>coords_29&#45;&gt;y_arrow_34</title>
<path fill="none" stroke="black" d="M279.3,-222.81C298.41,-215.04 324.14,-204.58 345.39,-195.94"/>
<polygon fill="black" stroke="black" points="346.85,-199.12 354.79,-192.11 344.21,-192.64 346.85,-199.12"/>
</g>
<!-- z_arrow_37 -->
<g id="node37" class="node">
<title>z_arrow_37</title>
<g id="a_node37"><a xlink:href="javascript:s=&quot;\(&quot;&#x27;top&#x27;,\ &quot;,\ &#x27;coords&#x27;,\ &#x27;z_arrow&#x27;\)\nArrow&quot;; console.log(s); alert(s);" xlink:title="Arrow">
<ellipse fill="none" stroke="black" cx="385.58" cy="-72" rx="40.09" ry="18"/>
<text text-anchor="middle" x="385.58" y="-68.3" font-family="Times New Roman,serif" font-size="14.00">z_arrow</text>
</a>
</g>
</g>
<!-- coords_29&#45;&gt;z_arrow_37 -->
<g id="edge36" class="edge">
<title>coords_29&#45;&gt;z_arrow_37</title>
<path fill="none" stroke="black" d="M279.51,-222.74C287.61,-218.59 296.08,-213.33 302.78,-207 311.76,-198.53 348.64,-135.07 369.68,-98.25"/>
<polygon fill="black" stroke="black" points="372.75,-99.94 374.67,-89.52 366.67,-96.47 372.75,-99.94"/>
</g>
<!-- stem_32 -->
<g id="node32" class="node">
<title>stem_32</title>
<g id="a_node32"><a xlink:href="javascript:s=&quot;\(&quot;&#x27;top&#x27;,\ &quot;,\ &#x27;coords&#x27;,\ &#x27;x_arrow&#x27;,\ &#x27;stem&#x27;\)\nCone&quot;; console.log(s); alert(s);" xlink:title="Cone">
<ellipse fill="none" stroke="black" cx="496.32" cy="-288" rx="27.9" ry="18"/>
<text text-anchor="middle" x="496.32" y="-284.3" font-family="Times New Roman,serif" font-size="14.00">stem</text>
</a>
</g>
</g>
<!-- x_arrow_31&#45;&gt;stem_32 -->
<g id="edge31" class="edge">
<title>x_arrow_31&#45;&gt;stem_32</title>
<path fill="none" stroke="black" d="M413.46,-247.35C428.92,-255.02 448.4,-264.7 464.48,-272.68"/>
<polygon fill="black" stroke="black" points="462.98,-275.85 473.5,-277.16 466.1,-269.58 462.98,-275.85"/>
</g>
<!-- head_33 -->
<g id="node33" class="node">
<title>head_33</title>
<g id="a_node33"><a xlink:href="javascript:s=&quot;\(&quot;&#x27;top&#x27;,\ &quot;,\ &#x27;coords&#x27;,\ &#x27;x_arrow&#x27;,\ &#x27;head&#x27;\)\nCone&quot;; console.log(s); alert(s);" xlink:title="Cone">
<ellipse fill="none" stroke="black" cx="496.32" cy="-234" rx="27.9" ry="18"/>
<text text-anchor="middle" x="496.32" y="-230.3" font-family="Times New Roman,serif" font-size="14.00">head</text>
</a>
</g>
</g>
<!-- x_arrow_31&#45;&gt;head_33 -->
<g id="edge32" class="edge">
<title>x_arrow_31&#45;&gt;head_33</title>
<path fill="none" stroke="black" d="M426.76,-234C437,-234 447.96,-234 458.05,-234"/>
<polygon fill="black" stroke="black" points="458.17,-237.5 468.17,-234 458.17,-230.5 458.17,-237.5"/>
</g>
<!-- stem_35 -->
<g id="node35" class="node">
<title>stem_35</title>
<g id="a_node35"><a xlink:href="javascript:s=&quot;\(&quot;&#x27;top&#x27;,\ &quot;,\ &#x27;coords&#x27;,\ &#x27;y_arrow&#x27;,\ &#x27;stem&#x27;\)\nCone&quot;; console.log(s); alert(s);" xlink:title="Cone">
<ellipse fill="none" stroke="black" cx="496.32" cy="-180" rx="27.9" ry="18"/>
<text text-anchor="middle" x="496.32" y="-176.3" font-family="Times New Roman,serif" font-size="14.00">stem</text>
</a>
</g>
</g>
<!-- y_arrow_34&#45;&gt;stem_35 -->
<g id="edge34" class="edge">
<title>y_arrow_34&#45;&gt;stem_35</title>
<path fill="none" stroke="black" d="M426.76,-180C437,-180 447.96,-180 458.05,-180"/>
<polygon fill="black" stroke="black" points="458.17,-183.5 468.17,-180 458.17,-176.5 458.17,-183.5"/>
</g>
<!-- head_36 -->
<g id="node36" class="node">
<title>head_36</title>
<g id="a_node36"><a xlink:href="javascript:s=&quot;\(&quot;&#x27;top&#x27;,\ &quot;,\ &#x27;coords&#x27;,\ &#x27;y_arrow&#x27;,\ &#x27;head&#x27;\)\nCone&quot;; console.log(s); alert(s);" xlink:title="Cone">
<ellipse fill="none" stroke="black" cx="496.32" cy="-126" rx="27.9" ry="18"/>
<text text-anchor="middle" x="496.32" y="-122.3" font-family="Times New Roman,serif" font-size="14.00">head</text>
</a>
</g>
</g>
<!-- y_arrow_34&#45;&gt;head_36 -->
<g id="edge35" class="edge">
<title>y_arrow_34&#45;&gt;head_36</title>
<path fill="none" stroke="black" d="M413.46,-166.65C428.92,-158.98 448.4,-149.3 464.48,-141.32"/>
<polygon fill="black" stroke="black" points="466.1,-144.42 473.5,-136.84 462.98,-138.15 466.1,-144.42"/>
</g>
<!-- stem_38 -->
<g id="node38" class="node">
<title>stem_38</title>
<g id="a_node38"><a xlink:href="javascript:s=&quot;\(&quot;&#x27;top&#x27;,\ &quot;,\ &#x27;coords&#x27;,\ &#x27;z_arrow&#x27;,\ &#x27;stem&#x27;\)\nCone&quot;; console.log(s); alert(s);" xlink:title="Cone">
<ellipse fill="none" stroke="black" cx="496.32" cy="-72" rx="27.9" ry="18"/>
<text text-anchor="middle" x="496.32" y="-68.3" font-family="Times New Roman,serif" font-size="14.00">stem</text>
</a>
</g>
</g>
<!-- z_arrow_37&#45;&gt;stem_38 -->
<g id="edge37" class="edge">
<title>z_arrow_37&#45;&gt;stem_38</title>
<path fill="none" stroke="black" d="M426.15,-72C436.51,-72 447.66,-72 457.91,-72"/>
<polygon fill="black" stroke="black" points="458.2,-75.5 468.2,-72 458.2,-68.5 458.2,-75.5"/>
</g>
<!-- head_39 -->
<g id="node39" class="node">
<title>head_39</title>
<g id="a_node39"><a xlink:href="javascript:s=&quot;\(&quot;&#x27;top&#x27;,\ &quot;,\ &#x27;coords&#x27;,\ &#x27;z_arrow&#x27;,\ &#x27;head&#x27;\)\nCone&quot;; console.log(s); alert(s);" xlink:title="Cone">
<ellipse fill="none" stroke="black" cx="496.32" cy="-18" rx="27.9" ry="18"/>
<text text-anchor="middle" x="496.32" y="-14.3" font-family="Times New Roman,serif" font-size="14.00">head</text>
</a>
</g>
</g>
<!-- z_arrow_37&#45;&gt;head_39 -->
<g id="edge38" class="edge">
<title>z_arrow_37&#45;&gt;head_39</title>
<path fill="none" stroke="black" d="M413.18,-58.79C428.74,-51.06 448.45,-41.28 464.66,-33.23"/>
<polygon fill="black" stroke="black" points="466.34,-36.3 473.74,-28.72 463.22,-30.03 466.34,-36.3"/>
</g>
</g>
</svg>
