solid OpenSCAD_Model
  facet normal 0 0 -1
    outer loop
      vertex 6.693623084598446 -0.29224989534775114 0
      vertex 9.663088571489931 -0.8454107046522842 0
      vertex 6.674504477214694 -0.5839434764093097 0
    endloop
  endfacet
  facet normal 0 0 -1
    outer loop
      vertex 6.699999999999999 1.1102230246251565e-16 0
      vertex 9.69076774934402 -0.42310805744375923 0
      vertex 6.693623084598446 -0.29224989534775114 0
    endloop
  endfacet
  facet normal 0 0 -1
    outer loop
      vertex 9.663088571489931 -0.8454107046522842 0
      vertex 6.693623084598446 -0.29224989534775114 0
      vertex 9.69076774934402 -0.42310805744375923 0
    endloop
  endfacet
  facet normal 0 0 -1
    outer loop
      vertex 9.69076774934402 -0.42310805744375923 0
      vertex 6.699999999999999 1.1102230246251565e-16 0
      vertex 9.7 0 0
    endloop
  endfacet
  facet normal -0.9978589232386036 0.06540312923014303 0
    outer loop
      vertex 6.674504477214694 -0.5839434764093097 0
      vertex 6.693623084598446 -0.29224989534775114 3
      vertex 6.693623084598446 -0.29224989534775114 0
    endloop
  endfacet
  facet normal -0.999762027079909 0.0218148850345617 0
    outer loop
      vertex 6.693623084598446 -0.29224989534775114 0
      vertex 6.699999999999999 1.1102230246251565e-16 3
      vertex 6.699999999999999 1.1102230246251565e-16 0
    endloop
  endfacet
  facet normal -0.08715574274765815 -0.9961946980917455 0
    outer loop
      vertex 9.663088571489931 -0.8454107046522842 3
      vertex 6.674504477214694 -0.5839434764093097 0
      vertex 9.663088571489931 -0.8454107046522842 0
    endloop
  endfacet
  facet normal 0.9978589232386034 -0.06540312923014557 0
    outer loop
      vertex 9.69076774934402 -0.42310805744375923 0
      vertex 9.663088571489931 -0.8454107046522842 3
      vertex 9.663088571489931 -0.8454107046522842 0
    endloop
  endfacet
  facet normal 0.9997620270799091 -0.021814885034558383 0
    outer loop
      vertex 9.7 0 0
      vertex 9.69076774934402 -0.42310805744375923 3
      vertex 9.69076774934402 -0.42310805744375923 0
    endloop
  endfacet
  facet normal -0.9978589232386036 0.06540312923014303 0
    outer loop
      vertex 6.693623084598446 -0.29224989534775114 3
      vertex 6.674504477214694 -0.5839434764093097 0
      vertex 6.674504477214694 -0.5839434764093097 3
    endloop
  endfacet
  facet normal -0.999762027079909 0.0218148850345617 0
    outer loop
      vertex 6.699999999999999 1.1102230246251565e-16 3
      vertex 6.693623084598446 -0.29224989534775114 0
      vertex 6.693623084598446 -0.29224989534775114 3
    endloop
  endfacet
  facet normal -0.08715574274765815 -0.9961946980917455 0
    outer loop
      vertex 6.674504477214694 -0.5839434764093097 0
      vertex 9.663088571489931 -0.8454107046522842 3
      vertex 6.674504477214694 -0.5839434764093097 3
    endloop
  endfacet
  facet normal 0.9978589232386034 -0.06540312923014557 0
    outer loop
      vertex 9.663088571489931 -0.8454107046522842 3
      vertex 9.69076774934402 -0.42310805744375923 0
      vertex 9.69076774934402 -0.42310805744375923 3
    endloop
  endfacet
  facet normal 0.9997620270799091 -0.021814885034558383 0
    outer loop
      vertex 9.69076774934402 -0.42310805744375923 3
      vertex 9.7 0 0
      vertex 9.7 0 3
    endloop
  endfacet
  facet normal 0 0 1
    outer loop
      vertex 9.663088571489931 -0.8454107046522842 3
      vertex 6.693623084598446 -0.29224989534775114 3
      vertex 6.674504477214694 -0.5839434764093097 3
    endloop
  endfacet
  facet normal 0 0 1
    outer loop
      vertex 9.69076774934402 -0.42310805744375923 3
      vertex 6.699999999999999 1.1102230246251565e-16 3
      vertex 6.693623084598446 -0.29224989534775114 3
    endloop
  endfacet
  facet normal 0 0 1
    outer loop
      vertex 6.693623084598446 -0.29224989534775114 3
      vertex 9.663088571489931 -0.8454107046522842 3
      vertex 9.69076774934402 -0.42310805744375923 3
    endloop
  endfacet
  facet normal 0 0 1
    outer loop
      vertex 6.699999999999999 1.1102230246251565e-16 3
      vertex 9.69076774934402 -0.42310805744375923 3
      vertex 9.7 0 3
    endloop
  endfacet
  facet normal 0 0 -1
    outer loop
      vertex 9.690767749344019 0.4231080574437589 0
      vertex 6.699999999999999 1.1102230246251565e-16 0
      vertex 6.693623084598446 0.29224989534775114 0
    endloop
  endfacet
  facet normal 0 0 -1
    outer loop
      vertex 9.66308857148993 0.8454107046522842 0
      vertex 6.693623084598446 0.29224989534775114 0
      vertex 6.674504477214694 0.5839434764093097 0
    endloop
  endfacet
  facet normal 0 0 -1
    outer loop
      vertex 6.699999999999999 1.1102230246251565e-16 0
      vertex 9.690767749344019 0.4231080574437589 0
      vertex 9.7 0 0
    endloop
  endfacet
  facet normal 0 0 -1
    outer loop
      vertex 6.693623084598446 0.29224989534775114 0
      vertex 9.66308857148993 0.8454107046522842 0
      vertex 9.690767749344019 0.4231080574437589 0
    endloop
  endfacet
  facet normal -0.9997620270799091 -0.02181488503456172 0
    outer loop
      vertex 6.699999999999999 1.1102230246251565e-16 0
      vertex 6.693623084598446 0.29224989534775114 3
      vertex 6.693623084598446 0.29224989534775114 0
    endloop
  endfacet
  facet normal -0.9978589232386036 -0.06540312923014303 0
    outer loop
      vertex 6.693623084598446 0.29224989534775114 0
      vertex 6.674504477214694 0.5839434764093097 3
      vertex 6.674504477214694 0.5839434764093097 0
    endloop
  endfacet
  facet normal -0.08715574274765822 0.9961946980917455 0
    outer loop
      vertex 6.674504477214694 0.5839434764093097 3
      vertex 9.66308857148993 0.8454107046522842 0
      vertex 6.674504477214694 0.5839434764093097 0
    endloop
  endfacet
  facet normal 0.9997620270799091 0.0218148850345626 0
    outer loop
      vertex 9.690767749344019 0.4231080574437589 0
      vertex 9.7 0 3
      vertex 9.7 0 0
    endloop
  endfacet
  facet normal 0.9978589232386033 0.0654031292301455 0
    outer loop
      vertex 9.66308857148993 0.8454107046522842 0
      vertex 9.690767749344019 0.4231080574437589 3
      vertex 9.690767749344019 0.4231080574437589 0
    endloop
  endfacet
  facet normal -0.9997620270799091 -0.02181488503456172 0
    outer loop
      vertex 6.693623084598446 0.29224989534775114 3
      vertex 6.699999999999999 1.1102230246251565e-16 0
      vertex 6.699999999999999 1.1102230246251565e-16 3
    endloop
  endfacet
  facet normal -0.9978589232386036 -0.06540312923014303 0
    outer loop
      vertex 6.674504477214694 0.5839434764093097 3
      vertex 6.693623084598446 0.29224989534775114 0
      vertex 6.693623084598446 0.29224989534775114 3
    endloop
  endfacet
  facet normal -0.08715574274765822 0.9961946980917455 0
    outer loop
      vertex 9.66308857148993 0.8454107046522842 0
      vertex 6.674504477214694 0.5839434764093097 3
      vertex 9.66308857148993 0.8454107046522842 3
    endloop
  endfacet
  facet normal 0.9997620270799091 0.0218148850345626 0
    outer loop
      vertex 9.7 0 3
      vertex 9.690767749344019 0.4231080574437589 0
      vertex 9.690767749344019 0.4231080574437589 3
    endloop
  endfacet
  facet normal 0.9978589232386033 0.0654031292301455 0
    outer loop
      vertex 9.690767749344019 0.4231080574437589 3
      vertex 9.66308857148993 0.8454107046522842 0
      vertex 9.66308857148993 0.8454107046522842 3
    endloop
  endfacet
  facet normal 0 0 1
    outer loop
      vertex 6.699999999999999 1.1102230246251565e-16 3
      vertex 9.690767749344019 0.4231080574437589 3
      vertex 6.693623084598446 0.29224989534775114 3
    endloop
  endfacet
  facet normal 0 0 1
    outer loop
      vertex 6.693623084598446 0.29224989534775114 3
      vertex 9.66308857148993 0.8454107046522842 3
      vertex 6.674504477214694 0.5839434764093097 3
    endloop
  endfacet
  facet normal 0 0 1
    outer loop
      vertex 9.690767749344019 0.4231080574437589 3
      vertex 6.699999999999999 1.1102230246251565e-16 3
      vertex 9.7 0 3
    endloop
  endfacet
  facet normal 0 0 1
    outer loop
      vertex 9.66308857148993 0.8454107046522842 3
      vertex 6.693623084598446 0.29224989534775114 3
      vertex 9.690767749344019 0.4231080574437589 3
    endloop
  endfacet
  facet normal 0 0 -1
    outer loop
      vertex -0.5839434764093098 6.674504477214694 0
      vertex -0.42310805744375923 9.690767749344019 0
      vertex -0.29224989534775137 6.693623084598446 0
    endloop
  endfacet
  facet normal 0 0 -1
    outer loop
      vertex -0.29224989534775137 6.693623084598446 0
      vertex -2.220446049250313e-16 9.7 0
      vertex -2.220446049250313e-16 6.699999999999999 0
    endloop
  endfacet
  facet normal 0 0 -1
    outer loop
      vertex -0.42310805744375923 9.690767749344019 0
      vertex -0.5839434764093098 6.674504477214694 0
      vertex -0.8454107046522844 9.66308857148993 0
    endloop
  endfacet
  facet normal 0 0 -1
    outer loop
      vertex -2.220446049250313e-16 9.7 0
      vertex -0.29224989534775137 6.693623084598446 0
      vertex -0.42310805744375923 9.690767749344019 0
    endloop
  endfacet
  facet normal 0.06540312923014306 -0.9978589232386036 0
    outer loop
      vertex -0.29224989534775137 6.693623084598446 3
      vertex -0.5839434764093098 6.674504477214694 0
      vertex -0.29224989534775137 6.693623084598446 0
    endloop
  endfacet
  facet normal 0.02181488503456171 -0.9997620270799091 0
    outer loop
      vertex -2.220446049250313e-16 6.699999999999999 3
      vertex -0.29224989534775137 6.693623084598446 0
      vertex -2.220446049250313e-16 6.699999999999999 0
    endloop
  endfacet
  facet normal -0.9961946980917455 -0.08715574274765826 0
    outer loop
      vertex -0.5839434764093098 6.674504477214694 0
      vertex -0.8454107046522844 9.66308857148993 3
      vertex -0.8454107046522844 9.66308857148993 0
    endloop
  endfacet
  facet normal -0.06540312923014553 0.9978589232386033 0
    outer loop
      vertex -0.8454107046522844 9.66308857148993 3
      vertex -0.42310805744375923 9.690767749344019 0
      vertex -0.8454107046522844 9.66308857148993 0
    endloop
  endfacet
  facet normal -0.021814885034562595 0.9997620270799091 0
    outer loop
      vertex -0.42310805744375923 9.690767749344019 3
      vertex -2.220446049250313e-16 9.7 0
      vertex -0.42310805744375923 9.690767749344019 0
    endloop
  endfacet
  facet normal 0.06540312923014306 -0.9978589232386036 0
    outer loop
      vertex -0.5839434764093098 6.674504477214694 0
      vertex -0.29224989534775137 6.693623084598446 3
      vertex -0.5839434764093098 6.674504477214694 3
    endloop
  endfacet
  facet normal 0.02181488503456171 -0.9997620270799091 0
    outer loop
      vertex -0.29224989534775137 6.693623084598446 0
      vertex -2.220446049250313e-16 6.699999999999999 3
      vertex -0.29224989534775137 6.693623084598446 3
    endloop
  endfacet
  facet normal -0.9961946980917455 -0.08715574274765826 0
    outer loop
      vertex -0.8454107046522844 9.66308857148993 3
      vertex -0.5839434764093098 6.674504477214694 0
      vertex -0.5839434764093098 6.674504477214694 3
    endloop
  endfacet
  facet normal -0.06540312923014553 0.9978589232386033 0
    outer loop
      vertex -0.42310805744375923 9.690767749344019 0
      vertex -0.8454107046522844 9.66308857148993 3
      vertex -0.42310805744375923 9.690767749344019 3
    endloop
  endfacet
  facet normal -0.021814885034562595 0.9997620270799091 0
    outer loop
      vertex -2.220446049250313e-16 9.7 0
      vertex -0.42310805744375923 9.690767749344019 3
      vertex -2.220446049250313e-16 9.7 3
    endloop
  endfacet
  facet normal 0 0 1
    outer loop
      vertex -0.42310805744375923 9.690767749344019 3
      vertex -0.5839434764093098 6.674504477214694 3
      vertex -0.29224989534775137 6.693623084598446 3
    endloop
  endfacet
  facet normal 0 0 1
    outer loop
      vertex -2.220446049250313e-16 9.7 3
      vertex -0.29224989534775137 6.693623084598446 3
      vertex -2.220446049250313e-16 6.699999999999999 3
    endloop
  endfacet
  facet normal 0 0 1
    outer loop
      vertex -0.5839434764093098 6.674504477214694 3
      vertex -0.42310805744375923 9.690767749344019 3
      vertex -0.8454107046522844 9.66308857148993 3
    endloop
  endfacet
  facet normal 0 0 1
    outer loop
      vertex -0.29224989534775137 6.693623084598446 3
      vertex -2.220446049250313e-16 9.7 3
      vertex -0.42310805744375923 9.690767749344019 3
    endloop
  endfacet
  facet normal 0 0 -1
    outer loop
      vertex -2.220446049250313e-16 6.699999999999999 0
      vertex 0.4231080574437589 9.69076774934402 0
      vertex 0.2922498953477509 6.693623084598446 0
    endloop
  endfacet
  facet normal 0 0 -1
    outer loop
      vertex 0.4231080574437589 9.69076774934402 0
      vertex 0.5839434764093094 6.674504477214694 0
      vertex 0.2922498953477509 6.693623084598446 0
    endloop
  endfacet
  facet normal 0 0 -1
    outer loop
      vertex 0.4231080574437589 9.69076774934402 0
      vertex -2.220446049250313e-16 6.699999999999999 0
      vertex -2.220446049250313e-16 9.7 0
    endloop
  endfacet
  facet normal 0 0 -1
    outer loop
      vertex 0.5839434764093094 6.674504477214694 0
      vertex 0.4231080574437589 9.69076774934402 0
      vertex 0.8454107046522839 9.663088571489931 0
    endloop
  endfacet
  facet normal -0.02181488503456171 -0.9997620270799091 0
    outer loop
      vertex 0.2922498953477509 6.693623084598446 3
      vertex -2.220446049250313e-16 6.699999999999999 0
      vertex 0.2922498953477509 6.693623084598446 0
    endloop
  endfacet
  facet normal -0.06540312923014303 -0.9978589232386036 0
    outer loop
      vertex 0.5839434764093094 6.674504477214694 3
      vertex 0.2922498953477509 6.693623084598446 0
      vertex 0.5839434764093094 6.674504477214694 0
    endloop
  endfacet
  facet normal 0.9961946980917455 -0.08715574274765812 0
    outer loop
      vertex 0.8454107046522839 9.663088571489931 0
      vertex 0.5839434764093094 6.674504477214694 3
      vertex 0.5839434764093094 6.674504477214694 0
    endloop
  endfacet
  facet normal 0.02181488503455839 0.9997620270799091 0
    outer loop
      vertex -2.220446049250313e-16 9.7 3
      vertex 0.4231080574437589 9.69076774934402 0
      vertex -2.220446049250313e-16 9.7 0
    endloop
  endfacet
  facet normal 0.06540312923014557 0.9978589232386034 0
    outer loop
      vertex 0.4231080574437589 9.69076774934402 3
      vertex 0.8454107046522839 9.663088571489931 0
      vertex 0.4231080574437589 9.69076774934402 0
    endloop
  endfacet
  facet normal -0.02181488503456171 -0.9997620270799091 0
    outer loop
      vertex -2.220446049250313e-16 6.699999999999999 0
      vertex 0.2922498953477509 6.693623084598446 3
      vertex -2.220446049250313e-16 6.699999999999999 3
    endloop
  endfacet
  facet normal -0.06540312923014303 -0.9978589232386036 0
    outer loop
      vertex 0.2922498953477509 6.693623084598446 0
      vertex 0.5839434764093094 6.674504477214694 3
      vertex 0.2922498953477509 6.693623084598446 3
    endloop
  endfacet
  facet normal 0.02181488503455839 0.9997620270799091 0
    outer loop
      vertex 0.4231080574437589 9.69076774934402 0
      vertex -2.220446049250313e-16 9.7 3
      vertex 0.4231080574437589 9.69076774934402 3
    endloop
  endfacet
  facet normal 0.9961946980917455 -0.08715574274765812 0
    outer loop
      vertex 0.5839434764093094 6.674504477214694 3
      vertex 0.8454107046522839 9.663088571489931 0
      vertex 0.8454107046522839 9.663088571489931 3
    endloop
  endfacet
  facet normal 0.06540312923014557 0.9978589232386034 0
    outer loop
      vertex 0.8454107046522839 9.663088571489931 0
      vertex 0.4231080574437589 9.69076774934402 3
      vertex 0.8454107046522839 9.663088571489931 3
    endloop
  endfacet
  facet normal 0 0 1
    outer loop
      vertex 0.2922498953477509 6.693623084598446 3
      vertex -2.220446049250313e-16 9.7 3
      vertex -2.220446049250313e-16 6.699999999999999 3
    endloop
  endfacet
  facet normal 0 0 1
    outer loop
      vertex 0.5839434764093094 6.674504477214694 3
      vertex 0.4231080574437589 9.69076774934402 3
      vertex 0.2922498953477509 6.693623084598446 3
    endloop
  endfacet
  facet normal 0 0 1
    outer loop
      vertex -2.220446049250313e-16 9.7 3
      vertex 0.2922498953477509 6.693623084598446 3
      vertex 0.4231080574437589 9.69076774934402 3
    endloop
  endfacet
  facet normal 0 0 1
    outer loop
      vertex 0.4231080574437589 9.69076774934402 3
      vertex 0.5839434764093094 6.674504477214694 3
      vertex 0.8454107046522839 9.663088571489931 3
    endloop
  endfacet
  facet normal 0 0 -1
    outer loop
      vertex -6.693623084598446 -0.29224989534774803 0
      vertex -9.663088571489931 -0.8454107046522796 0
      vertex -9.69076774934402 -0.42310805744375435 0
    endloop
  endfacet
  facet normal 0 0 -1
    outer loop
      vertex -6.699999999999999 3.1086244689504383e-15 0
      vertex -9.69076774934402 -0.42310805744375435 0
      vertex -9.700000000000001 4.551914400963142e-15 0
    endloop
  endfacet
  facet normal 0 0 -1
    outer loop
      vertex -9.663088571489931 -0.8454107046522796 0
      vertex -6.693623084598446 -0.29224989534774803 0
      vertex -6.674504477214694 -0.5839434764093065 0
    endloop
  endfacet
  facet normal 0 0 -1
    outer loop
      vertex -9.69076774934402 -0.42310805744375435 0
      vertex -6.699999999999999 3.1086244689504383e-15 0
      vertex -6.693623084598446 -0.29224989534774803 0
    endloop
  endfacet
  facet normal -0.9978589232386033 -0.0654031292301455 0
    outer loop
      vertex -9.663088571489931 -0.8454107046522796 0
      vertex -9.69076774934402 -0.42310805744375435 3
      vertex -9.69076774934402 -0.42310805744375435 0
    endloop
  endfacet
  facet normal -0.9997620270799091 -0.0218148850345626 0
    outer loop
      vertex -9.69076774934402 -0.42310805744375435 0
      vertex -9.700000000000001 4.551914400963142e-15 3
      vertex -9.700000000000001 4.551914400963142e-15 0
    endloop
  endfacet
  facet normal 0.0871557427476577 -0.9961946980917458 0
    outer loop
      vertex -6.674504477214694 -0.5839434764093065 3
      vertex -9.663088571489931 -0.8454107046522796 0
      vertex -6.674504477214694 -0.5839434764093065 0
    endloop
  endfacet
  facet normal 0.9978589232386036 0.06540312923014303 0
    outer loop
      vertex -6.693623084598446 -0.29224989534774803 0
      vertex -6.674504477214694 -0.5839434764093065 3
      vertex -6.674504477214694 -0.5839434764093065 0
    endloop
  endfacet
  facet normal 0.9997620270799091 0.02181488503456171 0
    outer loop
      vertex -6.699999999999999 3.1086244689504383e-15 0
      vertex -6.693623084598446 -0.29224989534774803 3
      vertex -6.693623084598446 -0.29224989534774803 0
    endloop
  endfacet
  facet normal -0.9978589232386033 -0.0654031292301455 0
    outer loop
      vertex -9.69076774934402 -0.42310805744375435 3
      vertex -9.663088571489931 -0.8454107046522796 0
      vertex -9.663088571489931 -0.8454107046522796 3
    endloop
  endfacet
  facet normal -0.9997620270799091 -0.0218148850345626 0
    outer loop
      vertex -9.700000000000001 4.551914400963142e-15 3
      vertex -9.69076774934402 -0.42310805744375435 0
      vertex -9.69076774934402 -0.42310805744375435 3
    endloop
  endfacet
  facet normal 0.0871557427476577 -0.9961946980917458 0
    outer loop
      vertex -9.663088571489931 -0.8454107046522796 0
      vertex -6.674504477214694 -0.5839434764093065 3
      vertex -9.663088571489931 -0.8454107046522796 3
    endloop
  endfacet
  facet normal 0.9978589232386036 0.06540312923014303 0
    outer loop
      vertex -6.674504477214694 -0.5839434764093065 3
      vertex -6.693623084598446 -0.29224989534774803 0
      vertex -6.693623084598446 -0.29224989534774803 3
    endloop
  endfacet
  facet normal 0.9997620270799091 0.02181488503456171 0
    outer loop
      vertex -6.693623084598446 -0.29224989534774803 3
      vertex -6.699999999999999 3.1086244689504383e-15 0
      vertex -6.699999999999999 3.1086244689504383e-15 3
    endloop
  endfacet
  facet normal 0 0 1
    outer loop
      vertex -9.663088571489931 -0.8454107046522796 3
      vertex -6.693623084598446 -0.29224989534774803 3
      vertex -9.69076774934402 -0.42310805744375435 3
    endloop
  endfacet
  facet normal 0 0 1
    outer loop
      vertex -9.69076774934402 -0.42310805744375435 3
      vertex -6.699999999999999 3.1086244689504383e-15 3
      vertex -9.700000000000001 4.551914400963142e-15 3
    endloop
  endfacet
  facet normal 0 0 1
    outer loop
      vertex -6.693623084598446 -0.29224989534774803 3
      vertex -9.663088571489931 -0.8454107046522796 3
      vertex -6.674504477214694 -0.5839434764093065 3
    endloop
  endfacet
  facet normal 0 0 1
    outer loop
      vertex -6.699999999999999 3.1086244689504383e-15 3
      vertex -9.69076774934402 -0.42310805744375435 3
      vertex -6.693623084598446 -0.29224989534774803 3
    endloop
  endfacet
  facet normal 0 0 -1
    outer loop
      vertex -9.69076774934402 0.4231080574437638 0
      vertex -6.699999999999999 3.1086244689504383e-15 0
      vertex -9.700000000000001 4.551914400963142e-15 0
    endloop
  endfacet
  facet normal 0 0 -1
    outer loop
      vertex -9.663088571489931 0.8454107046522887 0
      vertex -6.693623084598446 0.29224989534775425 0
      vertex -9.69076774934402 0.4231080574437638 0
    endloop
  endfacet
  facet normal 0 0 -1
    outer loop
      vertex -6.699999999999999 3.1086244689504383e-15 0
      vertex -9.69076774934402 0.4231080574437638 0
      vertex -6.693623084598446 0.29224989534775425 0
    endloop
  endfacet
  facet normal 0 0 -1
    outer loop
      vertex -6.693623084598446 0.29224989534775425 0
      vertex -9.663088571489931 0.8454107046522887 0
      vertex -6.674504477214694 0.5839434764093128 0
    endloop
  endfacet
  facet normal -0.9997620270799091 0.02181488503456258 0
    outer loop
      vertex -9.700000000000001 4.551914400963142e-15 0
      vertex -9.69076774934402 0.4231080574437638 3
      vertex -9.69076774934402 0.4231080574437638 0
    endloop
  endfacet
  facet normal -0.9978589232386034 0.06540312923014557 0
    outer loop
      vertex -9.69076774934402 0.4231080574437638 0
      vertex -9.663088571489931 0.8454107046522887 3
      vertex -9.663088571489931 0.8454107046522887 0
    endloop
  endfacet
  facet normal 0.08715574274765864 0.9961946980917455 0
    outer loop
      vertex -9.663088571489931 0.8454107046522887 3
      vertex -6.674504477214694 0.5839434764093128 0
      vertex -9.663088571489931 0.8454107046522887 0
    endloop
  endfacet
  facet normal 0.9997620270799091 -0.02181488503456171 0
    outer loop
      vertex -6.693623084598446 0.29224989534775425 0
      vertex -6.699999999999999 3.1086244689504383e-15 3
      vertex -6.699999999999999 3.1086244689504383e-15 0
    endloop
  endfacet
  facet normal 0.9978589232386036 -0.06540312923014303 0
    outer loop
      vertex -6.674504477214694 0.5839434764093128 0
      vertex -6.693623084598446 0.29224989534775425 3
      vertex -6.693623084598446 0.29224989534775425 0
    endloop
  endfacet
  facet normal -0.9997620270799091 0.02181488503456258 0
    outer loop
      vertex -9.69076774934402 0.4231080574437638 3
      vertex -9.700000000000001 4.551914400963142e-15 0
      vertex -9.700000000000001 4.551914400963142e-15 3
    endloop
  endfacet
  facet normal -0.9978589232386034 0.06540312923014557 0
    outer loop
      vertex -9.663088571489931 0.8454107046522887 3
      vertex -9.69076774934402 0.4231080574437638 0
      vertex -9.69076774934402 0.4231080574437638 3
    endloop
  endfacet
  facet normal 0.08715574274765864 0.9961946980917455 0
    outer loop
      vertex -6.674504477214694 0.5839434764093128 0
      vertex -9.663088571489931 0.8454107046522887 3
      vertex -6.674504477214694 0.5839434764093128 3
    endloop
  endfacet
  facet normal 0.9997620270799091 -0.02181488503456171 0
    outer loop
      vertex -6.699999999999999 3.1086244689504383e-15 3
      vertex -6.693623084598446 0.29224989534775425 0
      vertex -6.693623084598446 0.29224989534775425 3
    endloop
  endfacet
  facet normal 0.9978589232386036 -0.06540312923014303 0
    outer loop
      vertex -6.693623084598446 0.29224989534775425 3
      vertex -6.674504477214694 0.5839434764093128 0
      vertex -6.674504477214694 0.5839434764093128 3
    endloop
  endfacet
  facet normal 0 0 1
    outer loop
      vertex -6.699999999999999 3.1086244689504383e-15 3
      vertex -9.69076774934402 0.4231080574437638 3
      vertex -9.700000000000001 4.551914400963142e-15 3
    endloop
  endfacet
  facet normal 0 0 1
    outer loop
      vertex -6.693623084598446 0.29224989534775425 3
      vertex -9.663088571489931 0.8454107046522887 3
      vertex -9.69076774934402 0.4231080574437638 3
    endloop
  endfacet
  facet normal 0 0 1
    outer loop
      vertex -9.69076774934402 0.4231080574437638 3
      vertex -6.699999999999999 3.1086244689504383e-15 3
      vertex -6.693623084598446 0.29224989534775425 3
    endloop
  endfacet
  facet normal 0 0 1
    outer loop
      vertex -9.663088571489931 0.8454107046522887 3
      vertex -6.693623084598446 0.29224989534775425 3
      vertex -6.674504477214694 0.5839434764093128 3
    endloop
  endfacet
  facet normal 0 0 -1
    outer loop
      vertex -0.5839434764093102 -6.674504477214694 0
      vertex -0.42310805744376 -9.69076774934402 0
      vertex -0.845410704652285 -9.663088571489931 0
    endloop
  endfacet
  facet normal 0 0 -1
    outer loop
      vertex -0.2922498953477517 -6.693623084598446 0
      vertex -7.771561172376096e-16 -9.7 0
      vertex -0.42310805744376 -9.69076774934402 0
    endloop
  endfacet
  facet normal 0 0 -1
    outer loop
      vertex -0.42310805744376 -9.69076774934402 0
      vertex -0.5839434764093102 -6.674504477214694 0
      vertex -0.2922498953477517 -6.693623084598446 0
    endloop
  endfacet
  facet normal 0 0 -1
    outer loop
      vertex -7.771561172376096e-16 -9.7 0
      vertex -0.2922498953477517 -6.693623084598446 0
      vertex -4.440892098500626e-16 -6.699999999999999 0
    endloop
  endfacet
  facet normal -0.06540312923014557 -0.9978589232386034 0
    outer loop
      vertex -0.42310805744376 -9.69076774934402 3
      vertex -0.845410704652285 -9.663088571489931 0
      vertex -0.42310805744376 -9.69076774934402 0
    endloop
  endfacet
  facet normal -0.021814885034558383 -0.9997620270799091 0
    outer loop
      vertex -7.771561172376096e-16 -9.7 3
      vertex -0.42310805744376 -9.69076774934402 0
      vertex -7.771561172376096e-16 -9.7 0
    endloop
  endfacet
  facet normal -0.9961946980917455 0.08715574274765824 0
    outer loop
      vertex -0.845410704652285 -9.663088571489931 0
      vertex -0.5839434764093102 -6.674504477214694 3
      vertex -0.5839434764093102 -6.674504477214694 0
    endloop
  endfacet
  facet normal 0.06540312923014303 0.9978589232386036 0
    outer loop
      vertex -0.5839434764093102 -6.674504477214694 3
      vertex -0.2922498953477517 -6.693623084598446 0
      vertex -0.5839434764093102 -6.674504477214694 0
    endloop
  endfacet
  facet normal 0.0218148850345617 0.999762027079909 0
    outer loop
      vertex -0.2922498953477517 -6.693623084598446 3
      vertex -4.440892098500626e-16 -6.699999999999999 0
      vertex -0.2922498953477517 -6.693623084598446 0
    endloop
  endfacet
  facet normal -0.06540312923014557 -0.9978589232386034 0
    outer loop
      vertex -0.845410704652285 -9.663088571489931 0
      vertex -0.42310805744376 -9.69076774934402 3
      vertex -0.845410704652285 -9.663088571489931 3
    endloop
  endfacet
  facet normal -0.9961946980917455 0.08715574274765824 0
    outer loop
      vertex -0.5839434764093102 -6.674504477214694 3
      vertex -0.845410704652285 -9.663088571489931 0
      vertex -0.845410704652285 -9.663088571489931 3
    endloop
  endfacet
  facet normal -0.021814885034558383 -0.9997620270799091 0
    outer loop
      vertex -0.42310805744376 -9.69076774934402 0
      vertex -7.771561172376096e-16 -9.7 3
      vertex -0.42310805744376 -9.69076774934402 3
    endloop
  endfacet
  facet normal 0.06540312923014303 0.9978589232386036 0
    outer loop
      vertex -0.2922498953477517 -6.693623084598446 0
      vertex -0.5839434764093102 -6.674504477214694 3
      vertex -0.2922498953477517 -6.693623084598446 3
    endloop
  endfacet
  facet normal 0.0218148850345617 0.999762027079909 0
    outer loop
      vertex -4.440892098500626e-16 -6.699999999999999 0
      vertex -0.2922498953477517 -6.693623084598446 3
      vertex -4.440892098500626e-16 -6.699999999999999 3
    endloop
  endfacet
  facet normal 0 0 1
    outer loop
      vertex -0.42310805744376 -9.69076774934402 3
      vertex -0.5839434764093102 -6.674504477214694 3
      vertex -0.845410704652285 -9.663088571489931 3
    endloop
  endfacet
  facet normal 0 0 1
    outer loop
      vertex -7.771561172376096e-16 -9.7 3
      vertex -0.2922498953477517 -6.693623084598446 3
      vertex -0.42310805744376 -9.69076774934402 3
    endloop
  endfacet
  facet normal 0 0 1
    outer loop
      vertex -0.5839434764093102 -6.674504477214694 3
      vertex -0.42310805744376 -9.69076774934402 3
      vertex -0.2922498953477517 -6.693623084598446 3
    endloop
  endfacet
  facet normal 0 0 1
    outer loop
      vertex -0.2922498953477517 -6.693623084598446 3
      vertex -7.771561172376096e-16 -9.7 3
      vertex -4.440892098500626e-16 -6.699999999999999 3
    endloop
  endfacet
  facet normal 0 0 -1
    outer loop
      vertex -4.440892098500626e-16 -6.699999999999999 0
      vertex 0.4231080574437581 -9.690767749344019 0
      vertex -7.771561172376096e-16 -9.7 0
    endloop
  endfacet
  facet normal 0 0 -1
    outer loop
      vertex 0.4231080574437581 -9.690767749344019 0
      vertex 0.5839434764093091 -6.674504477214694 0
      vertex 0.8454107046522834 -9.66308857148993 0
    endloop
  endfacet
  facet normal 0 0 -1
    outer loop
      vertex 0.4231080574437581 -9.690767749344019 0
      vertex -4.440892098500626e-16 -6.699999999999999 0
      vertex 0.2922498953477506 -6.693623084598446 0
    endloop
  endfacet
  facet normal 0 0 -1
    outer loop
      vertex 0.5839434764093091 -6.674504477214694 0
      vertex 0.4231080574437581 -9.690767749344019 0
      vertex 0.2922498953477506 -6.693623084598446 0
    endloop
  endfacet
  facet normal 0.0218148850345626 -0.9997620270799091 0
    outer loop
      vertex 0.4231080574437581 -9.690767749344019 3
      vertex -7.771561172376096e-16 -9.7 0
      vertex 0.4231080574437581 -9.690767749344019 0
    endloop
  endfacet
  facet normal 0.0654031292301455 -0.9978589232386033 0
    outer loop
      vertex 0.8454107046522834 -9.66308857148993 3
      vertex 0.4231080574437581 -9.690767749344019 0
      vertex 0.8454107046522834 -9.66308857148993 0
    endloop
  endfacet
  facet normal 0.9961946980917455 0.08715574274765815 0
    outer loop
      vertex 0.5839434764093091 -6.674504477214694 0
      vertex 0.8454107046522834 -9.66308857148993 3
      vertex 0.8454107046522834 -9.66308857148993 0
    endloop
  endfacet
  facet normal -0.02181488503456172 0.9997620270799091 0
    outer loop
      vertex -4.440892098500626e-16 -6.699999999999999 3
      vertex 0.2922498953477506 -6.693623084598446 0
      vertex -4.440892098500626e-16 -6.699999999999999 0
    endloop
  endfacet
  facet normal -0.06540312923014303 0.9978589232386036 0
    outer loop
      vertex 0.2922498953477506 -6.693623084598446 3
      vertex 0.5839434764093091 -6.674504477214694 0
      vertex 0.2922498953477506 -6.693623084598446 0
    endloop
  endfacet
  facet normal 0.0218148850345626 -0.9997620270799091 0
    outer loop
      vertex -7.771561172376096e-16 -9.7 0
      vertex 0.4231080574437581 -9.690767749344019 3
      vertex -7.771561172376096e-16 -9.7 3
    endloop
  endfacet
  facet normal 0.0654031292301455 -0.9978589232386033 0
    outer loop
      vertex 0.4231080574437581 -9.690767749344019 0
      vertex 0.8454107046522834 -9.66308857148993 3
      vertex 0.4231080574437581 -9.690767749344019 3
    endloop
  endfacet
  facet normal 0.9961946980917455 0.08715574274765815 0
    outer loop
      vertex 0.8454107046522834 -9.66308857148993 3
      vertex 0.5839434764093091 -6.674504477214694 0
      vertex 0.5839434764093091 -6.674504477214694 3
    endloop
  endfacet
  facet normal -0.02181488503456172 0.9997620270799091 0
    outer loop
      vertex 0.2922498953477506 -6.693623084598446 0
      vertex -4.440892098500626e-16 -6.699999999999999 3
      vertex 0.2922498953477506 -6.693623084598446 3
    endloop
  endfacet
  facet normal -0.06540312923014303 0.9978589232386036 0
    outer loop
      vertex 0.5839434764093091 -6.674504477214694 0
      vertex 0.2922498953477506 -6.693623084598446 3
      vertex 0.5839434764093091 -6.674504477214694 3
    endloop
  endfacet
  facet normal 0 0 1
    outer loop
      vertex 0.4231080574437581 -9.690767749344019 3
      vertex -4.440892098500626e-16 -6.699999999999999 3
      vertex -7.771561172376096e-16 -9.7 3
    endloop
  endfacet
  facet normal 0 0 1
    outer loop
      vertex 0.5839434764093091 -6.674504477214694 3
      vertex 0.4231080574437581 -9.690767749344019 3
      vertex 0.8454107046522834 -9.66308857148993 3
    endloop
  endfacet
  facet normal 0 0 1
    outer loop
      vertex -4.440892098500626e-16 -6.699999999999999 3
      vertex 0.4231080574437581 -9.690767749344019 3
      vertex 0.2922498953477506 -6.693623084598446 3
    endloop
  endfacet
  facet normal 0 0 1
    outer loop
      vertex 0.4231080574437581 -9.690767749344019 3
      vertex 0.5839434764093091 -6.674504477214694 3
      vertex 0.2922498953477506 -6.693623084598446 3
    endloop
  endfacet
endsolid OpenSCAD_Model
