<?xml version="1.0" encoding="UTF-8" standalone="no"?>
<!DOCTYPE svg PUBLIC "-//W3C//DTD SVG 1.1//EN"
 "http://www.w3.org/Graphics/SVG/1.1/DTD/svg11.dtd">
<!-- Generated by graphviz version 5.0.0 (20220707.1540)
 -->
<!-- Title: default Pages: 1 -->
<svg width="460pt" height="341pt"
 viewBox="0.00 0.00 459.87 341.00" xmlns="http://www.w3.org/2000/svg" xmlns:xlink="http://www.w3.org/1999/xlink">
<g id="graph0" class="graph" transform="scale(1 1) rotate(0) translate(4 337)">
<title>default</title>
<polygon fill="white" stroke="transparent" points="-4,4 -4,-337 455.87,-337 455.87,4 -4,4"/>
<!-- root_1 -->
<g id="node1" class="node">
<title>root_1</title>
<g id="a_node1"><a xlink:href="javascript:s=&quot;\(\)\nNone&quot;; console.log(s); alert(s);" xlink:title="root">
<ellipse fill="none" stroke="black" cx="27" cy="-180" rx="27" ry="18"/>
<text text-anchor="middle" x="27" y="-176.3" font-family="Times New Roman,serif" font-size="14.00">root</text>
</a>
</g>
</g>
<!-- default_2 -->
<g id="node2" class="node">
<title>default_2</title>
<g id="a_node2"><a xlink:href="javascript:s=&quot;\(&#x27;default&#x27;,\)\nModuleBuckLm2586Hw411&quot;; console.log(s); alert(s);" xlink:title="ModuleBuckLm2586Hw411">
<ellipse fill="none" stroke="black" cx="125.1" cy="-180" rx="35.19" ry="18"/>
<text text-anchor="middle" x="125.1" y="-176.3" font-family="Times New Roman,serif" font-size="14.00">default</text>
</a>
</g>
</g>
<!-- root_1&#45;&gt;default_2 -->
<g id="edge1" class="edge">
<title>root_1&#45;&gt;default_2</title>
<path fill="none" stroke="black" d="M54.01,-180C61.92,-180 70.84,-180 79.61,-180"/>
<polygon fill="black" stroke="black" points="79.76,-183.5 89.76,-180 79.76,-176.5 79.76,-183.5"/>
</g>
<!-- pcb_3 -->
<g id="node3" class="node">
<title>pcb_3</title>
<g id="a_node3"><a xlink:href="javascript:s=&quot;\(&#x27;default&#x27;,\ &#x27;pcb&#x27;\)\nBox&quot;; console.log(s); alert(s);" xlink:title="Box">
<ellipse fill="none" stroke="black" cx="268.99" cy="-315" rx="27" ry="18"/>
<text text-anchor="middle" x="268.99" y="-311.3" font-family="Times New Roman,serif" font-size="14.00">pcb</text>
</a>
</g>
</g>
<!-- default_2&#45;&gt;pcb_3 -->
<g id="edge2" class="edge">
<title>default_2&#45;&gt;pcb_3</title>
<path fill="none" stroke="black" d="M133.37,-197.82C143.9,-221.54 165.54,-263.34 196.19,-288 206.92,-296.63 220.69,-302.69 233.29,-306.85"/>
<polygon fill="black" stroke="black" points="232.49,-310.26 243.07,-309.79 234.51,-303.56 232.49,-310.26"/>
</g>
<!-- cap_in_4 -->
<g id="node4" class="node">
<title>cap_in_4</title>
<g id="a_node4"><a xlink:href="javascript:s=&quot;\(&#x27;default&#x27;,\ &#x27;cap_in&#x27;\)\nCylinder&quot;; console.log(s); alert(s);" xlink:title="Cylinder">
<ellipse fill="none" stroke="black" cx="268.99" cy="-261" rx="35.19" ry="18"/>
<text text-anchor="middle" x="268.99" y="-257.3" font-family="Times New Roman,serif" font-size="14.00">cap_in</text>
</a>
</g>
</g>
<!-- default_2&#45;&gt;cap_in_4 -->
<g id="edge3" class="edge">
<title>default_2&#45;&gt;cap_in_4</title>
<path fill="none" stroke="black" d="M143.23,-195.54C156.83,-207.28 176.73,-223.16 196.19,-234 206.35,-239.65 217.92,-244.59 228.77,-248.64"/>
<polygon fill="black" stroke="black" points="227.87,-252.04 238.47,-252.11 230.23,-245.45 227.87,-252.04"/>
</g>
<!-- cap_out_5 -->
<g id="node5" class="node">
<title>cap_out_5</title>
<g id="a_node5"><a xlink:href="javascript:s=&quot;\(&#x27;default&#x27;,\ &#x27;cap_out&#x27;\)\nCylinder&quot;; console.log(s); alert(s);" xlink:title="Cylinder">
<ellipse fill="none" stroke="black" cx="268.99" cy="-207" rx="40.09" ry="18"/>
<text text-anchor="middle" x="268.99" y="-203.3" font-family="Times New Roman,serif" font-size="14.00">cap_out</text>
</a>
</g>
</g>
<!-- default_2&#45;&gt;cap_out_5 -->
<g id="edge4" class="edge">
<title>default_2&#45;&gt;cap_out_5</title>
<path fill="none" stroke="black" d="M158.29,-186.13C177.06,-189.7 201.03,-194.26 221.78,-198.21"/>
<polygon fill="black" stroke="black" points="221.19,-201.66 231.67,-200.09 222.5,-194.78 221.19,-201.66"/>
</g>
<!-- mount_hole_6 -->
<g id="node6" class="node">
<title>mount_hole_6</title>
<g id="a_node6"><a xlink:href="javascript:s=&quot;\(&#x27;default&#x27;,\ \(&#x27;mount_hole&#x27;,\ 0\)\)\nCylinder&quot;; console.log(s); alert(s);" xlink:title="Cylinder">
<ellipse fill="none" stroke="black" cx="268.99" cy="-153" rx="72.59" ry="18"/>
<text text-anchor="middle" x="268.99" y="-149.3" font-family="Times New Roman,serif" font-size="14.00">(&#39;mount_hole&#39;, 0)</text>
</a>
</g>
</g>
<!-- default_2&#45;&gt;mount_hole_6 -->
<g id="edge5" class="edge">
<title>default_2&#45;&gt;mount_hole_6</title>
<path fill="none" stroke="black" d="M158.29,-173.87C170.92,-171.47 185.9,-168.62 200.67,-165.81"/>
<polygon fill="black" stroke="black" points="201.66,-169.18 210.83,-163.88 200.36,-162.31 201.66,-169.18"/>
</g>
<!-- mount_hole_7 -->
<g id="node7" class="node">
<title>mount_hole_7</title>
<g id="a_node7"><a xlink:href="javascript:s=&quot;\(&#x27;default&#x27;,\ \(&#x27;mount_hole&#x27;,\ 1\)\)\nCylinder&quot;; console.log(s); alert(s);" xlink:title="Cylinder">
<ellipse fill="none" stroke="black" cx="268.99" cy="-99" rx="72.59" ry="18"/>
<text text-anchor="middle" x="268.99" y="-95.3" font-family="Times New Roman,serif" font-size="14.00">(&#39;mount_hole&#39;, 1)</text>
</a>
</g>
</g>
<!-- default_2&#45;&gt;mount_hole_7 -->
<g id="edge6" class="edge">
<title>default_2&#45;&gt;mount_hole_7</title>
<path fill="none" stroke="black" d="M143.23,-164.46C156.83,-152.72 176.73,-136.84 196.19,-126 201.84,-122.85 207.93,-119.93 214.09,-117.26"/>
<polygon fill="black" stroke="black" points="215.86,-120.31 223.78,-113.27 213.2,-113.84 215.86,-120.31"/>
</g>
<!-- trimpot_8 -->
<g id="node8" class="node">
<title>trimpot_8</title>
<g id="a_node8"><a xlink:href="javascript:s=&quot;\(&#x27;default&#x27;,\ &#x27;trimpot&#x27;\)\nBourns3296&quot;; console.log(s); alert(s);" xlink:title="Bourns3296">
<ellipse fill="none" stroke="black" cx="268.99" cy="-45" rx="37.09" ry="18"/>
<text text-anchor="middle" x="268.99" y="-41.3" font-family="Times New Roman,serif" font-size="14.00">trimpot</text>
</a>
</g>
</g>
<!-- default_2&#45;&gt;trimpot_8 -->
<g id="edge7" class="edge">
<title>default_2&#45;&gt;trimpot_8</title>
<path fill="none" stroke="black" d="M133.37,-162.18C143.9,-138.46 165.54,-96.66 196.19,-72 204.69,-65.17 215.09,-59.95 225.31,-56"/>
<polygon fill="black" stroke="black" points="226.71,-59.22 234.98,-52.6 224.39,-52.61 226.71,-59.22"/>
</g>
<!-- trimpot_9 -->
<g id="node9" class="node">
<title>trimpot_9</title>
<g id="a_node9"><a xlink:href="javascript:s=&quot;\(&#x27;default&#x27;,\ &#x27;trimpot&#x27;,\ &#x27;trimpot&#x27;\)\nLinearExtrude&quot;; console.log(s); alert(s);" xlink:title="LinearExtrude">
<ellipse fill="none" stroke="black" cx="414.83" cy="-72" rx="37.09" ry="18"/>
<text text-anchor="middle" x="414.83" y="-68.3" font-family="Times New Roman,serif" font-size="14.00">trimpot</text>
</a>
</g>
</g>
<!-- trimpot_8&#45;&gt;trimpot_9 -->
<g id="edge8" class="edge">
<title>trimpot_8&#45;&gt;trimpot_9</title>
<path fill="none" stroke="black" d="M303.71,-51.33C323.41,-55.03 348.49,-59.73 369.73,-63.72"/>
<polygon fill="black" stroke="black" points="369.34,-67.21 379.82,-65.62 370.63,-60.33 369.34,-67.21"/>
</g>
<!-- adj_10 -->
<g id="node10" class="node">
<title>adj_10</title>
<g id="a_node10"><a xlink:href="javascript:s=&quot;\(&#x27;default&#x27;,\ &#x27;trimpot&#x27;,\ &#x27;adj&#x27;\)\nCylinder&quot;; console.log(s); alert(s);" xlink:title="Cylinder">
<ellipse fill="none" stroke="black" cx="414.83" cy="-18" rx="27" ry="18"/>
<text text-anchor="middle" x="414.83" y="-14.3" font-family="Times New Roman,serif" font-size="14.00">adj</text>
</a>
</g>
</g>
<!-- trimpot_8&#45;&gt;adj_10 -->
<g id="edge9" class="edge">
<title>trimpot_8&#45;&gt;adj_10</title>
<path fill="none" stroke="black" d="M303.71,-38.67C326.18,-34.45 355.65,-28.92 378.45,-24.64"/>
<polygon fill="black" stroke="black" points="379.22,-28.06 388.41,-22.77 377.93,-21.18 379.22,-28.06"/>
</g>
</g>
</svg>
