<?xml version="1.0" encoding="UTF-8" standalone="no"?>
<!DOCTYPE svg PUBLIC "-//W3C//DTD SVG 1.1//EN"
 "http://www.w3.org/Graphics/SVG/1.1/DTD/svg11.dtd">
<!-- Generated by graphviz version 5.0.0 (20220707.1540)
 -->
<!-- Title: default Pages: 1 -->
<svg width="781pt" height="1178pt"
 viewBox="0.00 0.00 780.55 1178.00" xmlns="http://www.w3.org/2000/svg" xmlns:xlink="http://www.w3.org/1999/xlink">
<g id="graph0" class="graph" transform="scale(1 1) rotate(0) translate(4 1174)">
<title>default</title>
<polygon fill="white" stroke="transparent" points="-4,4 -4,-1174 776.55,-1174 776.55,4 -4,4"/>
<!-- root_11 -->
<g id="node1" class="node">
<title>root_11</title>
<g id="a_node1"><a xlink:href="javascript:s=&quot;\(\)\nNone&quot;; console.log(s); alert(s);" xlink:title="root">
<ellipse fill="none" stroke="black" cx="27" cy="-423" rx="27" ry="18"/>
<text text-anchor="middle" x="27" y="-419.3" font-family="Times New Roman,serif" font-size="14.00">root</text>
</a>
</g>
</g>
<!-- default_12 -->
<g id="node2" class="node">
<title>default_12</title>
<g id="a_node2"><a xlink:href="javascript:s=&quot;\(&#x27;default&#x27;,\)\nModuleBuckLm2586Hw411MountPad&quot;; console.log(s); alert(s);" xlink:title="ModuleBuckLm2586Hw411MountPad">
<ellipse fill="none" stroke="black" cx="177.09" cy="-720" rx="35.19" ry="18"/>
<text text-anchor="middle" x="177.09" y="-716.3" font-family="Times New Roman,serif" font-size="14.00">default</text>
</a>
</g>
</g>
<!-- root_11&#45;&gt;default_12 -->
<g id="edge1" class="edge">
<title>root_11&#45;&gt;default_12</title>
<path fill="none" stroke="black" d="M36.6,-440.25C61.34,-489.86 132.79,-633.16 162.69,-693.12"/>
<polygon fill="black" stroke="black" points="159.69,-694.94 167.28,-702.33 165.95,-691.82 159.69,-694.94"/>
</g>
<!-- 35 -->
<g id="node25" class="node">
<title>35</title>
<g id="a_node25"><a xlink:href="javascript:s=&quot;\(&quot;&#x27;face_centre&#x27;,\ &#x27;base&#x27;,\ &quot;,\)\nAnnotatedCoordinates&quot;; console.log(s); alert(s);" xlink:title="AnnotatedCoordinates">
<ellipse fill="none" stroke="black" cx="177.09" cy="-153" rx="87.18" ry="18"/>
<text text-anchor="middle" x="177.09" y="-149.3" font-family="Times New Roman,serif" font-size="14.00">&#39;face_centre&#39;, &#39;base&#39;, </text>
</a>
</g>
</g>
<!-- root_11&#45;&gt;35 -->
<g id="edge24" class="edge">
<title>root_11&#45;&gt;35</title>
<path fill="none" stroke="black" d="M37.26,-406.11C62.23,-360.6 131.04,-235.13 161.39,-179.81"/>
<polygon fill="black" stroke="black" points="164.51,-181.39 166.25,-170.94 158.38,-178.02 164.51,-181.39"/>
</g>
<!-- pad_box_13 -->
<g id="node3" class="node">
<title>pad_box_13</title>
<g id="a_node3"><a xlink:href="javascript:s=&quot;\(&#x27;default&#x27;,\ &#x27;pad_box&#x27;\)\nBox&quot;; console.log(s); alert(s);" xlink:title="Box">
<ellipse fill="none" stroke="black" cx="390.53" cy="-1017" rx="43.59" ry="18"/>
<text text-anchor="middle" x="390.53" y="-1013.3" font-family="Times New Roman,serif" font-size="14.00">pad_box</text>
</a>
</g>
</g>
<!-- default_12&#45;&gt;pad_box_13 -->
<g id="edge2" class="edge">
<title>default_12&#45;&gt;pad_box_13</title>
<path fill="none" stroke="black" d="M181,-738.17C189.7,-786.59 220.11,-919.8 300.18,-990 310.97,-999.46 324.98,-1005.6 338.69,-1009.59"/>
<polygon fill="black" stroke="black" points="338.02,-1013.03 348.57,-1012.14 339.76,-1006.25 338.02,-1013.03"/>
</g>
<!-- mock_board_14 -->
<g id="node4" class="node">
<title>mock_board_14</title>
<g id="a_node4"><a xlink:href="javascript:s=&quot;\(&#x27;default&#x27;,\ &#x27;mock_board&#x27;\)\nModuleBuckLm2586Hw411&quot;; console.log(s); alert(s);" xlink:title="ModuleBuckLm2586Hw411">
<ellipse fill="none" stroke="black" cx="390.53" cy="-963" rx="57.69" ry="18"/>
<text text-anchor="middle" x="390.53" y="-959.3" font-family="Times New Roman,serif" font-size="14.00">mock_board</text>
</a>
</g>
</g>
<!-- default_12&#45;&gt;mock_board_14 -->
<g id="edge3" class="edge">
<title>default_12&#45;&gt;mock_board_14</title>
<path fill="none" stroke="black" d="M192.29,-736.32C228.43,-777.85 324.07,-887.78 367.51,-937.7"/>
<polygon fill="black" stroke="black" points="365.06,-940.21 374.26,-945.45 370.34,-935.61 365.06,-940.21"/>
</g>
<!-- pcb_screw_hole_23 -->
<g id="node13" class="node">
<title>pcb_screw_hole_23</title>
<g id="a_node13"><a xlink:href="javascript:s=&quot;\(&#x27;default&#x27;,\ \(&#x27;pcb_screw_hole&#x27;,\ 0\)\)\nFlatHeadScrew&quot;; console.log(s); alert(s);" xlink:title="FlatHeadScrew">
<ellipse fill="none" stroke="black" cx="390.53" cy="-720" rx="90.18" ry="18"/>
<text text-anchor="middle" x="390.53" y="-716.3" font-family="Times New Roman,serif" font-size="14.00">(&#39;pcb_screw_hole&#39;, 0)</text>
</a>
</g>
</g>
<!-- default_12&#45;&gt;pcb_screw_hole_23 -->
<g id="edge12" class="edge">
<title>default_12&#45;&gt;pcb_screw_hole_23</title>
<path fill="none" stroke="black" d="M212.53,-720C233.69,-720 261.97,-720 289.72,-720"/>
<polygon fill="black" stroke="black" points="289.9,-723.5 299.9,-720 289.9,-716.5 289.9,-723.5"/>
</g>
<!-- pcb_screw_hole_29 -->
<g id="node19" class="node">
<title>pcb_screw_hole_29</title>
<g id="a_node19"><a xlink:href="javascript:s=&quot;\(&#x27;default&#x27;,\ \(&#x27;pcb_screw_hole&#x27;,\ 1\)\)\nFlatHeadScrew&quot;; console.log(s); alert(s);" xlink:title="FlatHeadScrew">
<ellipse fill="none" stroke="black" cx="390.53" cy="-477" rx="90.18" ry="18"/>
<text text-anchor="middle" x="390.53" y="-473.3" font-family="Times New Roman,serif" font-size="14.00">(&#39;pcb_screw_hole&#39;, 1)</text>
</a>
</g>
</g>
<!-- default_12&#45;&gt;pcb_screw_hole_29 -->
<g id="edge18" class="edge">
<title>default_12&#45;&gt;pcb_screw_hole_29</title>
<path fill="none" stroke="black" d="M192.29,-703.68C228.34,-662.25 323.61,-552.76 367.19,-502.67"/>
<polygon fill="black" stroke="black" points="370.05,-504.72 373.97,-494.88 364.77,-500.12 370.05,-504.72"/>
</g>
<!-- pcb_15 -->
<g id="node5" class="node">
<title>pcb_15</title>
<g id="a_node5"><a xlink:href="javascript:s=&quot;\(&#x27;default&#x27;,\ &#x27;mock_board&#x27;,\ &#x27;pcb&#x27;\)\nBox&quot;; console.log(s); alert(s);" xlink:title="Box">
<ellipse fill="none" stroke="black" cx="589.66" cy="-1152" rx="27" ry="18"/>
<text text-anchor="middle" x="589.66" y="-1148.3" font-family="Times New Roman,serif" font-size="14.00">pcb</text>
</a>
</g>
</g>
<!-- mock_board_14&#45;&gt;pcb_15 -->
<g id="edge4" class="edge">
<title>mock_board_14&#45;&gt;pcb_15</title>
<path fill="none" stroke="black" d="M444.58,-969.66C457.92,-973.65 471.18,-979.99 480.87,-990 524.05,-1034.62 475.19,-1078.97 516.87,-1125 526.34,-1135.46 540.28,-1141.89 553.35,-1145.83"/>
<polygon fill="black" stroke="black" points="552.54,-1149.23 563.1,-1148.38 554.31,-1142.46 552.54,-1149.23"/>
</g>
<!-- cap_in_16 -->
<g id="node6" class="node">
<title>cap_in_16</title>
<g id="a_node6"><a xlink:href="javascript:s=&quot;\(&#x27;default&#x27;,\ &#x27;mock_board&#x27;,\ &#x27;cap_in&#x27;\)\nCylinder&quot;; console.log(s); alert(s);" xlink:title="Cylinder">
<ellipse fill="none" stroke="black" cx="589.66" cy="-1098" rx="35.19" ry="18"/>
<text text-anchor="middle" x="589.66" y="-1094.3" font-family="Times New Roman,serif" font-size="14.00">cap_in</text>
</a>
</g>
</g>
<!-- mock_board_14&#45;&gt;cap_in_16 -->
<g id="edge5" class="edge">
<title>mock_board_14&#45;&gt;cap_in_16</title>
<path fill="none" stroke="black" d="M443.11,-970.57C456.59,-974.57 470.3,-980.67 480.87,-990 510.41,-1016.07 488.21,-1043.97 516.87,-1071 525.18,-1078.83 535.97,-1084.45 546.66,-1088.45"/>
<polygon fill="black" stroke="black" points="545.78,-1091.85 556.37,-1091.7 547.99,-1085.21 545.78,-1091.85"/>
</g>
<!-- cap_out_17 -->
<g id="node7" class="node">
<title>cap_out_17</title>
<g id="a_node7"><a xlink:href="javascript:s=&quot;\(&#x27;default&#x27;,\ &#x27;mock_board&#x27;,\ &#x27;cap_out&#x27;\)\nCylinder&quot;; console.log(s); alert(s);" xlink:title="Cylinder">
<ellipse fill="none" stroke="black" cx="589.66" cy="-1044" rx="40.09" ry="18"/>
<text text-anchor="middle" x="589.66" y="-1040.3" font-family="Times New Roman,serif" font-size="14.00">cap_out</text>
</a>
</g>
</g>
<!-- mock_board_14&#45;&gt;cap_out_17 -->
<g id="edge6" class="edge">
<title>mock_board_14&#45;&gt;cap_out_17</title>
<path fill="none" stroke="black" d="M437.71,-973.62C451.96,-977.77 467.42,-983.2 480.87,-990 498.71,-999.03 499.33,-1007.38 516.87,-1017 526.16,-1022.09 536.61,-1026.63 546.6,-1030.46"/>
<polygon fill="black" stroke="black" points="545.4,-1033.75 555.99,-1033.92 547.81,-1027.18 545.4,-1033.75"/>
</g>
<!-- mount_hole_18 -->
<g id="node8" class="node">
<title>mount_hole_18</title>
<g id="a_node8"><a xlink:href="javascript:s=&quot;\(&#x27;default&#x27;,\ &#x27;mock_board&#x27;,\ \(&#x27;mount_hole&#x27;,\ 0\)\)\nCylinder&quot;; console.log(s); alert(s);" xlink:title="Cylinder">
<ellipse fill="none" stroke="black" cx="589.66" cy="-990" rx="72.59" ry="18"/>
<text text-anchor="middle" x="589.66" y="-986.3" font-family="Times New Roman,serif" font-size="14.00">(&#39;mount_hole&#39;, 0)</text>
</a>
</g>
</g>
<!-- mock_board_14&#45;&gt;mount_hole_18 -->
<g id="edge7" class="edge">
<title>mock_board_14&#45;&gt;mount_hole_18</title>
<path fill="none" stroke="black" d="M443.84,-970.16C465.8,-973.17 491.71,-976.72 515.51,-979.98"/>
<polygon fill="black" stroke="black" points="515.18,-983.47 525.56,-981.36 516.13,-976.53 515.18,-983.47"/>
</g>
<!-- mount_hole_19 -->
<g id="node9" class="node">
<title>mount_hole_19</title>
<g id="a_node9"><a xlink:href="javascript:s=&quot;\(&#x27;default&#x27;,\ &#x27;mock_board&#x27;,\ \(&#x27;mount_hole&#x27;,\ 1\)\)\nCylinder&quot;; console.log(s); alert(s);" xlink:title="Cylinder">
<ellipse fill="none" stroke="black" cx="589.66" cy="-936" rx="72.59" ry="18"/>
<text text-anchor="middle" x="589.66" y="-932.3" font-family="Times New Roman,serif" font-size="14.00">(&#39;mount_hole&#39;, 1)</text>
</a>
</g>
</g>
<!-- mock_board_14&#45;&gt;mount_hole_19 -->
<g id="edge8" class="edge">
<title>mock_board_14&#45;&gt;mount_hole_19</title>
<path fill="none" stroke="black" d="M443.84,-955.84C465.8,-952.83 491.71,-949.28 515.51,-946.02"/>
<polygon fill="black" stroke="black" points="516.13,-949.47 525.56,-944.64 515.18,-942.53 516.13,-949.47"/>
</g>
<!-- trimpot_20 -->
<g id="node10" class="node">
<title>trimpot_20</title>
<g id="a_node10"><a xlink:href="javascript:s=&quot;\(&#x27;default&#x27;,\ &#x27;mock_board&#x27;,\ &#x27;trimpot&#x27;\)\nBourns3296&quot;; console.log(s); alert(s);" xlink:title="Bourns3296">
<ellipse fill="none" stroke="black" cx="589.66" cy="-882" rx="37.09" ry="18"/>
<text text-anchor="middle" x="589.66" y="-878.3" font-family="Times New Roman,serif" font-size="14.00">trimpot</text>
</a>
</g>
</g>
<!-- mock_board_14&#45;&gt;trimpot_20 -->
<g id="edge9" class="edge">
<title>mock_board_14&#45;&gt;trimpot_20</title>
<path fill="none" stroke="black" d="M424.34,-948.36C449.52,-937.25 485.22,-921.76 516.87,-909 527.55,-904.69 539.22,-900.21 549.98,-896.17"/>
<polygon fill="black" stroke="black" points="551.4,-899.37 559.55,-892.59 548.96,-892.81 551.4,-899.37"/>
</g>
<!-- trimpot_21 -->
<g id="node11" class="node">
<title>trimpot_21</title>
<g id="a_node11"><a xlink:href="javascript:s=&quot;\(&#x27;default&#x27;,\ &#x27;mock_board&#x27;,\ &#x27;trimpot&#x27;,\ &#x27;trimpot&#x27;\)\nLinearExtrude&quot;; console.log(s); alert(s);" xlink:title="LinearExtrude">
<ellipse fill="none" stroke="black" cx="735.5" cy="-909" rx="37.09" ry="18"/>
<text text-anchor="middle" x="735.5" y="-905.3" font-family="Times New Roman,serif" font-size="14.00">trimpot</text>
</a>
</g>
</g>
<!-- trimpot_20&#45;&gt;trimpot_21 -->
<g id="edge10" class="edge">
<title>trimpot_20&#45;&gt;trimpot_21</title>
<path fill="none" stroke="black" d="M624.39,-888.33C644.08,-892.03 669.16,-896.73 690.41,-900.72"/>
<polygon fill="black" stroke="black" points="690.02,-904.21 700.49,-902.62 691.31,-897.33 690.02,-904.21"/>
</g>
<!-- adj_22 -->
<g id="node12" class="node">
<title>adj_22</title>
<g id="a_node12"><a xlink:href="javascript:s=&quot;\(&#x27;default&#x27;,\ &#x27;mock_board&#x27;,\ &#x27;trimpot&#x27;,\ &#x27;adj&#x27;\)\nCylinder&quot;; console.log(s); alert(s);" xlink:title="Cylinder">
<ellipse fill="none" stroke="black" cx="735.5" cy="-855" rx="27" ry="18"/>
<text text-anchor="middle" x="735.5" y="-851.3" font-family="Times New Roman,serif" font-size="14.00">adj</text>
</a>
</g>
</g>
<!-- trimpot_20&#45;&gt;adj_22 -->
<g id="edge11" class="edge">
<title>trimpot_20&#45;&gt;adj_22</title>
<path fill="none" stroke="black" d="M624.39,-875.67C646.85,-871.45 676.32,-865.92 699.12,-861.64"/>
<polygon fill="black" stroke="black" points="699.9,-865.06 709.08,-859.77 698.61,-858.18 699.9,-865.06"/>
</g>
<!-- screw_cage_24 -->
<g id="node14" class="node">
<title>screw_cage_24</title>
<g id="a_node14"><a xlink:href="javascript:s=&quot;\(&#x27;default&#x27;,\ \(&#x27;pcb_screw_hole&#x27;,\ 0\),\ &#x27;screw_cage&#x27;\)\nCone&quot;; console.log(s); alert(s);" xlink:title="Cone">
<ellipse fill="none" stroke="black" cx="589.66" cy="-828" rx="53.89" ry="18"/>
<text text-anchor="middle" x="589.66" y="-824.3" font-family="Times New Roman,serif" font-size="14.00">screw_cage</text>
</a>
</g>
</g>
<!-- pcb_screw_hole_23&#45;&gt;screw_cage_24 -->
<g id="edge13" class="edge">
<title>pcb_screw_hole_23&#45;&gt;screw_cage_24</title>
<path fill="none" stroke="black" d="M415.11,-737.43C439.64,-755.03 479.62,-782.23 516.87,-801 524.56,-804.88 532.95,-808.52 541.19,-811.79"/>
<polygon fill="black" stroke="black" points="540.16,-815.15 550.75,-815.47 542.67,-808.61 540.16,-815.15"/>
</g>
<!-- tap_shaft_25 -->
<g id="node15" class="node">
<title>tap_shaft_25</title>
<g id="a_node15"><a xlink:href="javascript:s=&quot;\(&#x27;default&#x27;,\ \(&#x27;pcb_screw_hole&#x27;,\ 0\),\ &#x27;tap_shaft&#x27;\)\nCone&quot;; console.log(s); alert(s);" xlink:title="Cone">
<ellipse fill="none" stroke="black" cx="589.66" cy="-774" rx="44.39" ry="18"/>
<text text-anchor="middle" x="589.66" y="-770.3" font-family="Times New Roman,serif" font-size="14.00">tap_shaft</text>
</a>
</g>
</g>
<!-- pcb_screw_hole_23&#45;&gt;tap_shaft_25 -->
<g id="edge14" class="edge">
<title>pcb_screw_hole_23&#45;&gt;tap_shaft_25</title>
<path fill="none" stroke="black" d="M444.36,-734.47C474.96,-742.85 513.13,-753.31 542.52,-761.36"/>
<polygon fill="black" stroke="black" points="541.96,-764.84 552.53,-764.1 543.81,-758.08 541.96,-764.84"/>
</g>
<!-- thru_shaft_26 -->
<g id="node16" class="node">
<title>thru_shaft_26</title>
<g id="a_node16"><a xlink:href="javascript:s=&quot;\(&#x27;default&#x27;,\ \(&#x27;pcb_screw_hole&#x27;,\ 0\),\ &#x27;thru_shaft&#x27;\)\nCone&quot;; console.log(s); alert(s);" xlink:title="Cone">
<ellipse fill="none" stroke="black" cx="589.66" cy="-720" rx="47.39" ry="18"/>
<text text-anchor="middle" x="589.66" y="-716.3" font-family="Times New Roman,serif" font-size="14.00">thru_shaft</text>
</a>
</g>
</g>
<!-- pcb_screw_hole_23&#45;&gt;thru_shaft_26 -->
<g id="edge15" class="edge">
<title>pcb_screw_hole_23&#45;&gt;thru_shaft_26</title>
<path fill="none" stroke="black" d="M481.15,-720C498.42,-720 516.06,-720 531.93,-720"/>
<polygon fill="black" stroke="black" points="532.08,-723.5 542.08,-720 532.08,-716.5 532.08,-723.5"/>
</g>
<!-- access_hole_27 -->
<g id="node17" class="node">
<title>access_hole_27</title>
<g id="a_node17"><a xlink:href="javascript:s=&quot;\(&#x27;default&#x27;,\ \(&#x27;pcb_screw_hole&#x27;,\ 0\),\ &#x27;access_hole&#x27;\)\nCone&quot;; console.log(s); alert(s);" xlink:title="Cone">
<ellipse fill="none" stroke="black" cx="589.66" cy="-666" rx="55.49" ry="18"/>
<text text-anchor="middle" x="589.66" y="-662.3" font-family="Times New Roman,serif" font-size="14.00">access_hole</text>
</a>
</g>
</g>
<!-- pcb_screw_hole_23&#45;&gt;access_hole_27 -->
<g id="edge16" class="edge">
<title>pcb_screw_hole_23&#45;&gt;access_hole_27</title>
<path fill="none" stroke="black" d="M444.36,-705.53C473.13,-697.65 508.58,-687.94 537.14,-680.11"/>
<polygon fill="black" stroke="black" points="538.21,-683.45 546.93,-677.43 536.36,-676.7 538.21,-683.45"/>
</g>
<!-- screw_hole_28 -->
<g id="node18" class="node">
<title>screw_hole_28</title>
<g id="a_node18"><a xlink:href="javascript:s=&quot;\(&#x27;default&#x27;,\ \(&#x27;pcb_screw_hole&#x27;,\ 0\),\ &#x27;screw_hole&#x27;\)\nRotateExtrude&quot;; console.log(s); alert(s);" xlink:title="RotateExtrude">
<ellipse fill="none" stroke="black" cx="589.66" cy="-612" rx="51.99" ry="18"/>
<text text-anchor="middle" x="589.66" y="-608.3" font-family="Times New Roman,serif" font-size="14.00">screw_hole</text>
</a>
</g>
</g>
<!-- pcb_screw_hole_23&#45;&gt;screw_hole_28 -->
<g id="edge17" class="edge">
<title>pcb_screw_hole_23&#45;&gt;screw_hole_28</title>
<path fill="none" stroke="black" d="M415.11,-702.57C439.64,-684.97 479.62,-657.77 516.87,-639 524.82,-634.99 533.51,-631.24 542.02,-627.88"/>
<polygon fill="black" stroke="black" points="543.4,-631.1 551.49,-624.26 540.9,-624.56 543.4,-631.1"/>
</g>
<!-- screw_cage_30 -->
<g id="node20" class="node">
<title>screw_cage_30</title>
<g id="a_node20"><a xlink:href="javascript:s=&quot;\(&#x27;default&#x27;,\ \(&#x27;pcb_screw_hole&#x27;,\ 1\),\ &#x27;screw_cage&#x27;\)\nCone&quot;; console.log(s); alert(s);" xlink:title="Cone">
<ellipse fill="none" stroke="black" cx="589.66" cy="-558" rx="53.89" ry="18"/>
<text text-anchor="middle" x="589.66" y="-554.3" font-family="Times New Roman,serif" font-size="14.00">screw_cage</text>
</a>
</g>
</g>
<!-- pcb_screw_hole_29&#45;&gt;screw_cage_30 -->
<g id="edge19" class="edge">
<title>pcb_screw_hole_29&#45;&gt;screw_cage_30</title>
<path fill="none" stroke="black" d="M428.36,-493.41C453.23,-504.36 486.87,-518.91 516.87,-531 525.39,-534.44 534.54,-537.98 543.36,-541.33"/>
<polygon fill="black" stroke="black" points="542.15,-544.62 552.75,-544.87 544.62,-538.07 542.15,-544.62"/>
</g>
<!-- tap_shaft_31 -->
<g id="node21" class="node">
<title>tap_shaft_31</title>
<g id="a_node21"><a xlink:href="javascript:s=&quot;\(&#x27;default&#x27;,\ \(&#x27;pcb_screw_hole&#x27;,\ 1\),\ &#x27;tap_shaft&#x27;\)\nCone&quot;; console.log(s); alert(s);" xlink:title="Cone">
<ellipse fill="none" stroke="black" cx="589.66" cy="-504" rx="44.39" ry="18"/>
<text text-anchor="middle" x="589.66" y="-500.3" font-family="Times New Roman,serif" font-size="14.00">tap_shaft</text>
</a>
</g>
</g>
<!-- pcb_screw_hole_29&#45;&gt;tap_shaft_31 -->
<g id="edge20" class="edge">
<title>pcb_screw_hole_29&#45;&gt;tap_shaft_31</title>
<path fill="none" stroke="black" d="M465.49,-487.13C489.45,-490.41 515.48,-493.98 537.41,-496.98"/>
<polygon fill="black" stroke="black" points="537.11,-500.47 547.5,-498.36 538.06,-493.54 537.11,-500.47"/>
</g>
<!-- thru_shaft_32 -->
<g id="node22" class="node">
<title>thru_shaft_32</title>
<g id="a_node22"><a xlink:href="javascript:s=&quot;\(&#x27;default&#x27;,\ \(&#x27;pcb_screw_hole&#x27;,\ 1\),\ &#x27;thru_shaft&#x27;\)\nCone&quot;; console.log(s); alert(s);" xlink:title="Cone">
<ellipse fill="none" stroke="black" cx="589.66" cy="-450" rx="47.39" ry="18"/>
<text text-anchor="middle" x="589.66" y="-446.3" font-family="Times New Roman,serif" font-size="14.00">thru_shaft</text>
</a>
</g>
</g>
<!-- pcb_screw_hole_29&#45;&gt;thru_shaft_32 -->
<g id="edge21" class="edge">
<title>pcb_screw_hole_29&#45;&gt;thru_shaft_32</title>
<path fill="none" stroke="black" d="M465.49,-466.87C488.4,-463.73 513.21,-460.33 534.51,-457.42"/>
<polygon fill="black" stroke="black" points="535.23,-460.85 544.66,-456.03 534.28,-453.92 535.23,-460.85"/>
</g>
<!-- access_hole_33 -->
<g id="node23" class="node">
<title>access_hole_33</title>
<g id="a_node23"><a xlink:href="javascript:s=&quot;\(&#x27;default&#x27;,\ \(&#x27;pcb_screw_hole&#x27;,\ 1\),\ &#x27;access_hole&#x27;\)\nCone&quot;; console.log(s); alert(s);" xlink:title="Cone">
<ellipse fill="none" stroke="black" cx="589.66" cy="-396" rx="55.49" ry="18"/>
<text text-anchor="middle" x="589.66" y="-392.3" font-family="Times New Roman,serif" font-size="14.00">access_hole</text>
</a>
</g>
</g>
<!-- pcb_screw_hole_29&#45;&gt;access_hole_33 -->
<g id="edge22" class="edge">
<title>pcb_screw_hole_29&#45;&gt;access_hole_33</title>
<path fill="none" stroke="black" d="M428.36,-460.59C453.23,-449.64 486.87,-435.09 516.87,-423 525.12,-419.67 533.96,-416.24 542.52,-412.99"/>
<polygon fill="black" stroke="black" points="543.89,-416.21 552.01,-409.4 541.42,-409.66 543.89,-416.21"/>
</g>
<!-- screw_hole_34 -->
<g id="node24" class="node">
<title>screw_hole_34</title>
<g id="a_node24"><a xlink:href="javascript:s=&quot;\(&#x27;default&#x27;,\ \(&#x27;pcb_screw_hole&#x27;,\ 1\),\ &#x27;screw_hole&#x27;\)\nRotateExtrude&quot;; console.log(s); alert(s);" xlink:title="RotateExtrude">
<ellipse fill="none" stroke="black" cx="589.66" cy="-342" rx="51.99" ry="18"/>
<text text-anchor="middle" x="589.66" y="-338.3" font-family="Times New Roman,serif" font-size="14.00">screw_hole</text>
</a>
</g>
</g>
<!-- pcb_screw_hole_29&#45;&gt;screw_hole_34 -->
<g id="edge23" class="edge">
<title>pcb_screw_hole_29&#45;&gt;screw_hole_34</title>
<path fill="none" stroke="black" d="M408.25,-459.11C430.94,-435.7 473.64,-394.65 516.87,-369 524.19,-364.65 532.34,-360.79 540.44,-357.45"/>
<polygon fill="black" stroke="black" points="541.84,-360.66 549.88,-353.76 539.29,-354.14 541.84,-360.66"/>
</g>
<!-- coords_36 -->
<g id="node26" class="node">
<title>coords_36</title>
<g id="a_node26"><a xlink:href="javascript:s=&quot;\(&quot;&#x27;face_centre&#x27;,\ &#x27;base&#x27;,\ &quot;,\ &#x27;coords&#x27;\)\nCoordinates&quot;; console.log(s); alert(s);" xlink:title="Coordinates">
<ellipse fill="none" stroke="black" cx="390.53" cy="-234" rx="36.29" ry="18"/>
<text text-anchor="middle" x="390.53" y="-230.3" font-family="Times New Roman,serif" font-size="14.00">coords</text>
</a>
</g>
</g>
<!-- 35&#45;&gt;coords_36 -->
<g id="edge25" class="edge">
<title>35&#45;&gt;coords_36</title>
<path fill="none" stroke="black" d="M212.36,-169.51C236.58,-180.85 269.98,-195.8 300.18,-207 315.76,-212.77 333.2,-218.25 348.5,-222.75"/>
<polygon fill="black" stroke="black" points="347.63,-226.14 358.2,-225.56 349.57,-219.42 347.63,-226.14"/>
</g>
<!-- x_47 -->
<g id="node37" class="node">
<title>x_47</title>
<g id="a_node37"><a xlink:href="javascript:s=&quot;\(&quot;&#x27;face_centre&#x27;,\ &#x27;base&#x27;,\ &quot;,\ &#x27;x&#x27;\)\nText&quot;; console.log(s); alert(s);" xlink:title="Text">
<ellipse fill="none" stroke="black" cx="390.53" cy="-180" rx="27" ry="18"/>
<text text-anchor="middle" x="390.53" y="-176.3" font-family="Times New Roman,serif" font-size="14.00">x</text>
</a>
</g>
</g>
<!-- 35&#45;&gt;x_47 -->
<g id="edge36" class="edge">
<title>35&#45;&gt;x_47</title>
<path fill="none" stroke="black" d="M251.74,-162.41C286.3,-166.82 325.91,-171.88 353.76,-175.43"/>
<polygon fill="black" stroke="black" points="353.46,-178.92 363.82,-176.72 354.35,-171.98 353.46,-178.92"/>
</g>
<!-- y_48 -->
<g id="node38" class="node">
<title>y_48</title>
<g id="a_node38"><a xlink:href="javascript:s=&quot;\(&quot;&#x27;face_centre&#x27;,\ &#x27;base&#x27;,\ &quot;,\ &#x27;y&#x27;\)\nText&quot;; console.log(s); alert(s);" xlink:title="Text">
<ellipse fill="none" stroke="black" cx="390.53" cy="-126" rx="27" ry="18"/>
<text text-anchor="middle" x="390.53" y="-122.3" font-family="Times New Roman,serif" font-size="14.00">y</text>
</a>
</g>
</g>
<!-- 35&#45;&gt;y_48 -->
<g id="edge37" class="edge">
<title>35&#45;&gt;y_48</title>
<path fill="none" stroke="black" d="M251.74,-143.59C286.3,-139.18 325.91,-134.12 353.76,-130.57"/>
<polygon fill="black" stroke="black" points="354.35,-134.02 363.82,-129.28 353.46,-127.08 354.35,-134.02"/>
</g>
<!-- z_49 -->
<g id="node39" class="node">
<title>z_49</title>
<g id="a_node39"><a xlink:href="javascript:s=&quot;\(&quot;&#x27;face_centre&#x27;,\ &#x27;base&#x27;,\ &quot;,\ &#x27;z&#x27;\)\nText&quot;; console.log(s); alert(s);" xlink:title="Text">
<ellipse fill="none" stroke="black" cx="390.53" cy="-72" rx="27" ry="18"/>
<text text-anchor="middle" x="390.53" y="-68.3" font-family="Times New Roman,serif" font-size="14.00">z</text>
</a>
</g>
</g>
<!-- 35&#45;&gt;z_49 -->
<g id="edge38" class="edge">
<title>35&#45;&gt;z_49</title>
<path fill="none" stroke="black" d="M212.36,-136.49C236.58,-125.15 269.98,-110.2 300.18,-99 318.05,-92.38 338.36,-86.14 355.09,-81.34"/>
<polygon fill="black" stroke="black" points="356.32,-84.62 364.99,-78.54 354.42,-77.89 356.32,-84.62"/>
</g>
<!-- label_50 -->
<g id="node40" class="node">
<title>label_50</title>
<g id="a_node40"><a xlink:href="javascript:s=&quot;\(&quot;&#x27;face_centre&#x27;,\ &#x27;base&#x27;,\ &quot;,\ &#x27;label&#x27;\)\nText&quot;; console.log(s); alert(s);" xlink:title="Text">
<ellipse fill="none" stroke="black" cx="390.53" cy="-18" rx="27.1" ry="18"/>
<text text-anchor="middle" x="390.53" y="-14.3" font-family="Times New Roman,serif" font-size="14.00">label</text>
</a>
</g>
</g>
<!-- 35&#45;&gt;label_50 -->
<g id="edge39" class="edge">
<title>35&#45;&gt;label_50</title>
<path fill="none" stroke="black" d="M193.67,-135.06C215.29,-111.21 256.69,-69.26 300.18,-45 316.82,-35.72 337.03,-29.27 354.01,-25"/>
<polygon fill="black" stroke="black" points="355.18,-28.32 364.11,-22.63 353.57,-21.51 355.18,-28.32"/>
</g>
<!-- origin_37 -->
<g id="node27" class="node">
<title>origin_37</title>
<g id="a_node27"><a xlink:href="javascript:s=&quot;\(&quot;&#x27;face_centre&#x27;,\ &#x27;base&#x27;,\ &quot;,\ &#x27;coords&#x27;,\ &#x27;origin&#x27;\)\nCoordinatesCage&quot;; console.log(s); alert(s);" xlink:title="CoordinatesCage">
<ellipse fill="none" stroke="black" cx="589.66" cy="-288" rx="31.4" ry="18"/>
<text text-anchor="middle" x="589.66" y="-284.3" font-family="Times New Roman,serif" font-size="14.00">origin</text>
</a>
</g>
</g>
<!-- coords_36&#45;&gt;origin_37 -->
<g id="edge26" class="edge">
<title>coords_36&#45;&gt;origin_37</title>
<path fill="none" stroke="black" d="M422.76,-242.56C457.6,-252.1 513.92,-267.53 551.12,-277.72"/>
<polygon fill="black" stroke="black" points="550.5,-281.18 561.07,-280.44 552.35,-274.42 550.5,-281.18"/>
</g>
<!-- x_arrow_38 -->
<g id="node28" class="node">
<title>x_arrow_38</title>
<g id="a_node28"><a xlink:href="javascript:s=&quot;\(&quot;&#x27;face_centre&#x27;,\ &#x27;base&#x27;,\ &quot;,\ &#x27;coords&#x27;,\ &#x27;x_arrow&#x27;\)\nArrow&quot;; console.log(s); alert(s);" xlink:title="Arrow">
<ellipse fill="none" stroke="black" cx="589.66" cy="-234" rx="40.89" ry="18"/>
<text text-anchor="middle" x="589.66" y="-230.3" font-family="Times New Roman,serif" font-size="14.00">x_arrow</text>
</a>
</g>
</g>
<!-- coords_36&#45;&gt;x_arrow_38 -->
<g id="edge27" class="edge">
<title>coords_36&#45;&gt;x_arrow_38</title>
<path fill="none" stroke="black" d="M427.23,-234C458.2,-234 503.38,-234 538.07,-234"/>
<polygon fill="black" stroke="black" points="538.48,-237.5 548.48,-234 538.48,-230.5 538.48,-237.5"/>
</g>
<!-- y_arrow_41 -->
<g id="node31" class="node">
<title>y_arrow_41</title>
<g id="a_node31"><a xlink:href="javascript:s=&quot;\(&quot;&#x27;face_centre&#x27;,\ &#x27;base&#x27;,\ &quot;,\ &#x27;coords&#x27;,\ &#x27;y_arrow&#x27;\)\nArrow&quot;; console.log(s); alert(s);" xlink:title="Arrow">
<ellipse fill="none" stroke="black" cx="589.66" cy="-180" rx="40.89" ry="18"/>
<text text-anchor="middle" x="589.66" y="-176.3" font-family="Times New Roman,serif" font-size="14.00">y_arrow</text>
</a>
</g>
</g>
<!-- coords_36&#45;&gt;y_arrow_41 -->
<g id="edge30" class="edge">
<title>coords_36&#45;&gt;y_arrow_41</title>
<path fill="none" stroke="black" d="M422.76,-225.44C455.61,-216.45 507.57,-202.21 544.58,-192.07"/>
<polygon fill="black" stroke="black" points="545.88,-195.35 554.6,-189.33 544.03,-188.6 545.88,-195.35"/>
</g>
<!-- z_arrow_44 -->
<g id="node34" class="node">
<title>z_arrow_44</title>
<g id="a_node34"><a xlink:href="javascript:s=&quot;\(&quot;&#x27;face_centre&#x27;,\ &#x27;base&#x27;,\ &quot;,\ &#x27;coords&#x27;,\ &#x27;z_arrow&#x27;\)\nArrow&quot;; console.log(s); alert(s);" xlink:title="Arrow">
<ellipse fill="none" stroke="black" cx="589.66" cy="-72" rx="40.09" ry="18"/>
<text text-anchor="middle" x="589.66" y="-68.3" font-family="Times New Roman,serif" font-size="14.00">z_arrow</text>
</a>
</g>
</g>
<!-- coords_36&#45;&gt;z_arrow_44 -->
<g id="edge33" class="edge">
<title>coords_36&#45;&gt;z_arrow_44</title>
<path fill="none" stroke="black" d="M425.85,-229.32C443.61,-225.57 464.86,-218.87 480.87,-207 504.04,-189.82 499.26,-175.85 516.87,-153 532.2,-133.1 551.1,-111.89 565.66,-96.17"/>
<polygon fill="black" stroke="black" points="568.57,-98.19 572.84,-88.49 563.45,-93.41 568.57,-98.19"/>
</g>
<!-- stem_39 -->
<g id="node29" class="node">
<title>stem_39</title>
<g id="a_node29"><a xlink:href="javascript:s=&quot;\(&quot;&#x27;face_centre&#x27;,\ &#x27;base&#x27;,\ &quot;,\ &#x27;coords&#x27;,\ &#x27;x_arrow&#x27;,\ &#x27;stem&#x27;\)\nCone&quot;; console.log(s); alert(s);" xlink:title="Cone">
<ellipse fill="none" stroke="black" cx="735.5" cy="-288" rx="27.9" ry="18"/>
<text text-anchor="middle" x="735.5" y="-284.3" font-family="Times New Roman,serif" font-size="14.00">stem</text>
</a>
</g>
</g>
<!-- x_arrow_38&#45;&gt;stem_39 -->
<g id="edge28" class="edge">
<title>x_arrow_38&#45;&gt;stem_39</title>
<path fill="none" stroke="black" d="M621.52,-245.58C645.03,-254.41 677.34,-266.54 701.38,-275.57"/>
<polygon fill="black" stroke="black" points="700.22,-278.87 710.81,-279.1 702.68,-272.31 700.22,-278.87"/>
</g>
<!-- head_40 -->
<g id="node30" class="node">
<title>head_40</title>
<g id="a_node30"><a xlink:href="javascript:s=&quot;\(&quot;&#x27;face_centre&#x27;,\ &#x27;base&#x27;,\ &quot;,\ &#x27;coords&#x27;,\ &#x27;x_arrow&#x27;,\ &#x27;head&#x27;\)\nCone&quot;; console.log(s); alert(s);" xlink:title="Cone">
<ellipse fill="none" stroke="black" cx="735.5" cy="-234" rx="27.9" ry="18"/>
<text text-anchor="middle" x="735.5" y="-230.3" font-family="Times New Roman,serif" font-size="14.00">head</text>
</a>
</g>
</g>
<!-- x_arrow_38&#45;&gt;head_40 -->
<g id="edge29" class="edge">
<title>x_arrow_38&#45;&gt;head_40</title>
<path fill="none" stroke="black" d="M630.73,-234C651.54,-234 676.81,-234 697.21,-234"/>
<polygon fill="black" stroke="black" points="697.38,-237.5 707.38,-234 697.38,-230.5 697.38,-237.5"/>
</g>
<!-- stem_42 -->
<g id="node32" class="node">
<title>stem_42</title>
<g id="a_node32"><a xlink:href="javascript:s=&quot;\(&quot;&#x27;face_centre&#x27;,\ &#x27;base&#x27;,\ &quot;,\ &#x27;coords&#x27;,\ &#x27;y_arrow&#x27;,\ &#x27;stem&#x27;\)\nCone&quot;; console.log(s); alert(s);" xlink:title="Cone">
<ellipse fill="none" stroke="black" cx="735.5" cy="-180" rx="27.9" ry="18"/>
<text text-anchor="middle" x="735.5" y="-176.3" font-family="Times New Roman,serif" font-size="14.00">stem</text>
</a>
</g>
</g>
<!-- y_arrow_41&#45;&gt;stem_42 -->
<g id="edge31" class="edge">
<title>y_arrow_41&#45;&gt;stem_42</title>
<path fill="none" stroke="black" d="M630.73,-180C651.54,-180 676.81,-180 697.21,-180"/>
<polygon fill="black" stroke="black" points="697.38,-183.5 707.38,-180 697.38,-176.5 697.38,-183.5"/>
</g>
<!-- head_43 -->
<g id="node33" class="node">
<title>head_43</title>
<g id="a_node33"><a xlink:href="javascript:s=&quot;\(&quot;&#x27;face_centre&#x27;,\ &#x27;base&#x27;,\ &quot;,\ &#x27;coords&#x27;,\ &#x27;y_arrow&#x27;,\ &#x27;head&#x27;\)\nCone&quot;; console.log(s); alert(s);" xlink:title="Cone">
<ellipse fill="none" stroke="black" cx="735.5" cy="-126" rx="27.9" ry="18"/>
<text text-anchor="middle" x="735.5" y="-122.3" font-family="Times New Roman,serif" font-size="14.00">head</text>
</a>
</g>
</g>
<!-- y_arrow_41&#45;&gt;head_43 -->
<g id="edge32" class="edge">
<title>y_arrow_41&#45;&gt;head_43</title>
<path fill="none" stroke="black" d="M621.52,-168.42C645.03,-159.59 677.34,-147.46 701.38,-138.43"/>
<polygon fill="black" stroke="black" points="702.68,-141.69 710.81,-134.9 700.22,-135.13 702.68,-141.69"/>
</g>
<!-- stem_45 -->
<g id="node35" class="node">
<title>stem_45</title>
<g id="a_node35"><a xlink:href="javascript:s=&quot;\(&quot;&#x27;face_centre&#x27;,\ &#x27;base&#x27;,\ &quot;,\ &#x27;coords&#x27;,\ &#x27;z_arrow&#x27;,\ &#x27;stem&#x27;\)\nCone&quot;; console.log(s); alert(s);" xlink:title="Cone">
<ellipse fill="none" stroke="black" cx="735.5" cy="-72" rx="27.9" ry="18"/>
<text text-anchor="middle" x="735.5" y="-68.3" font-family="Times New Roman,serif" font-size="14.00">stem</text>
</a>
</g>
</g>
<!-- z_arrow_44&#45;&gt;stem_45 -->
<g id="edge34" class="edge">
<title>z_arrow_44&#45;&gt;stem_45</title>
<path fill="none" stroke="black" d="M629.97,-72C651.03,-72 676.83,-72 697.53,-72"/>
<polygon fill="black" stroke="black" points="697.53,-75.5 707.53,-72 697.53,-68.5 697.53,-75.5"/>
</g>
<!-- head_46 -->
<g id="node36" class="node">
<title>head_46</title>
<g id="a_node36"><a xlink:href="javascript:s=&quot;\(&quot;&#x27;face_centre&#x27;,\ &#x27;base&#x27;,\ &quot;,\ &#x27;coords&#x27;,\ &#x27;z_arrow&#x27;,\ &#x27;head&#x27;\)\nCone&quot;; console.log(s); alert(s);" xlink:title="Cone">
<ellipse fill="none" stroke="black" cx="735.5" cy="-18" rx="27.9" ry="18"/>
<text text-anchor="middle" x="735.5" y="-14.3" font-family="Times New Roman,serif" font-size="14.00">head</text>
</a>
</g>
</g>
<!-- z_arrow_44&#45;&gt;head_46 -->
<g id="edge35" class="edge">
<title>z_arrow_44&#45;&gt;head_46</title>
<path fill="none" stroke="black" d="M621.17,-60.55C644.65,-51.73 677.07,-39.56 701.22,-30.49"/>
<polygon fill="black" stroke="black" points="702.56,-33.73 710.69,-26.94 700.1,-27.18 702.56,-33.73"/>
</g>
</g>
</svg>
