<?xml version="1.0" encoding="UTF-8" standalone="no"?>
<!DOCTYPE svg PUBLIC "-//W3C//DTD SVG 1.1//EN"
 "http://www.w3.org/Graphics/SVG/1.1/DTD/svg11.dtd">
<!-- Generated by graphviz version 5.0.0 (20220707.1540)
 -->
<!-- Title: default Pages: 1 -->
<svg width="429pt" height="476pt"
 viewBox="0.00 0.00 429.38 476.00" xmlns="http://www.w3.org/2000/svg" xmlns:xlink="http://www.w3.org/1999/xlink">
<g id="graph0" class="graph" transform="scale(1 1) rotate(0) translate(4 472)">
<title>default</title>
<polygon fill="white" stroke="transparent" points="-4,4 -4,-472 425.38,-472 425.38,4 -4,4"/>
<!-- root_43 -->
<g id="node1" class="node">
<title>root_43</title>
<g id="a_node1"><a xlink:href="javascript:s=&quot;\(\)\nNone&quot;; console.log(s); alert(s);" xlink:title="root">
<ellipse fill="none" stroke="black" cx="27" cy="-234" rx="27" ry="18"/>
<text text-anchor="middle" x="27" y="-230.3" font-family="Times New Roman,serif" font-size="14.00">root</text>
</a>
</g>
</g>
<!-- default_44 -->
<g id="node2" class="node">
<title>default_44</title>
<g id="a_node2"><a xlink:href="javascript:s=&quot;\(&#x27;default&#x27;,\)\nTnutM8&quot;; console.log(s); alert(s);" xlink:title="TnutM8">
<ellipse fill="none" stroke="black" cx="125.1" cy="-234" rx="35.19" ry="18"/>
<text text-anchor="middle" x="125.1" y="-230.3" font-family="Times New Roman,serif" font-size="14.00">default</text>
</a>
</g>
</g>
<!-- root_43&#45;&gt;default_44 -->
<g id="edge1" class="edge">
<title>root_43&#45;&gt;default_44</title>
<path fill="none" stroke="black" d="M54.01,-234C61.92,-234 70.84,-234 79.61,-234"/>
<polygon fill="black" stroke="black" points="79.76,-237.5 89.76,-234 79.76,-230.5 79.76,-237.5"/>
</g>
<!-- tnut_45 -->
<g id="node3" class="node">
<title>tnut_45</title>
<g id="a_node3"><a xlink:href="javascript:s=&quot;\(&#x27;default&#x27;,\ &#x27;tnut&#x27;\)\nTnut&quot;; console.log(s); alert(s);" xlink:title="Tnut">
<ellipse fill="none" stroke="black" cx="223.19" cy="-234" rx="27" ry="18"/>
<text text-anchor="middle" x="223.19" y="-230.3" font-family="Times New Roman,serif" font-size="14.00">tnut</text>
</a>
</g>
</g>
<!-- default_44&#45;&gt;tnut_45 -->
<g id="edge2" class="edge">
<title>default_44&#45;&gt;tnut_45</title>
<path fill="none" stroke="black" d="M160.25,-234C168.52,-234 177.39,-234 185.76,-234"/>
<polygon fill="black" stroke="black" points="186.01,-237.5 196.01,-234 186.01,-230.5 186.01,-237.5"/>
</g>
<!-- cage_46 -->
<g id="node4" class="node">
<title>cage_46</title>
<g id="a_node4"><a xlink:href="javascript:s=&quot;\(&#x27;default&#x27;,\ &#x27;tnut&#x27;,\ &#x27;cage&#x27;\)\nCylinder&quot;; console.log(s); alert(s);" xlink:title="Cylinder">
<ellipse fill="none" stroke="black" cx="353.79" cy="-450" rx="27.1" ry="18"/>
<text text-anchor="middle" x="353.79" y="-446.3" font-family="Times New Roman,serif" font-size="14.00">cage</text>
</a>
</g>
</g>
<!-- tnut_45&#45;&gt;cage_46 -->
<g id="edge3" class="edge">
<title>tnut_45&#45;&gt;cage_46</title>
<path fill="none" stroke="black" d="M225.2,-252.13C228.19,-289.03 239.99,-373.54 286.19,-423 294.56,-431.96 306.31,-438.01 317.61,-442.08"/>
<polygon fill="black" stroke="black" points="316.75,-445.48 327.34,-445.16 318.86,-438.8 316.75,-445.48"/>
</g>
<!-- flat_47 -->
<g id="node5" class="node">
<title>flat_47</title>
<g id="a_node5"><a xlink:href="javascript:s=&quot;\(&#x27;default&#x27;,\ &#x27;tnut&#x27;,\ &#x27;flat&#x27;\)\nCylinder&quot;; console.log(s); alert(s);" xlink:title="Cylinder">
<ellipse fill="none" stroke="black" cx="353.79" cy="-396" rx="27" ry="18"/>
<text text-anchor="middle" x="353.79" y="-392.3" font-family="Times New Roman,serif" font-size="14.00">flat</text>
</a>
</g>
</g>
<!-- tnut_45&#45;&gt;flat_47 -->
<g id="edge4" class="edge">
<title>tnut_45&#45;&gt;flat_47</title>
<path fill="none" stroke="black" d="M227.9,-251.79C234.68,-280.21 251.7,-336.03 286.19,-369 295.05,-377.47 306.92,-383.41 318.18,-387.52"/>
<polygon fill="black" stroke="black" points="317.23,-390.9 327.83,-390.68 319.41,-384.24 317.23,-390.9"/>
</g>
<!-- bevel_48 -->
<g id="node6" class="node">
<title>bevel_48</title>
<g id="a_node6"><a xlink:href="javascript:s=&quot;\(&#x27;default&#x27;,\ &#x27;tnut&#x27;,\ &#x27;bevel&#x27;\)\nCone&quot;; console.log(s); alert(s);" xlink:title="Cone">
<ellipse fill="none" stroke="black" cx="353.79" cy="-342" rx="29.8" ry="18"/>
<text text-anchor="middle" x="353.79" y="-338.3" font-family="Times New Roman,serif" font-size="14.00">bevel</text>
</a>
</g>
</g>
<!-- tnut_45&#45;&gt;bevel_48 -->
<g id="edge5" class="edge">
<title>tnut_45&#45;&gt;bevel_48</title>
<path fill="none" stroke="black" d="M233.32,-250.71C243.92,-268.76 262.96,-297.29 286.19,-315 295.14,-321.82 306.05,-327.19 316.42,-331.28"/>
<polygon fill="black" stroke="black" points="315.53,-334.68 326.13,-334.81 317.93,-328.1 315.53,-334.68"/>
</g>
<!-- shaft_49 -->
<g id="node7" class="node">
<title>shaft_49</title>
<g id="a_node7"><a xlink:href="javascript:s=&quot;\(&#x27;default&#x27;,\ &#x27;tnut&#x27;,\ &#x27;shaft&#x27;\)\nCylinder&quot;; console.log(s); alert(s);" xlink:title="Cylinder">
<ellipse fill="none" stroke="black" cx="353.79" cy="-288" rx="28.7" ry="18"/>
<text text-anchor="middle" x="353.79" y="-284.3" font-family="Times New Roman,serif" font-size="14.00">shaft</text>
</a>
</g>
</g>
<!-- tnut_45&#45;&gt;shaft_49 -->
<g id="edge6" class="edge">
<title>tnut_45&#45;&gt;shaft_49</title>
<path fill="none" stroke="black" d="M246.23,-243.76C258.05,-248.95 272.88,-255.4 286.19,-261 297.11,-265.59 309.09,-270.49 319.84,-274.84"/>
<polygon fill="black" stroke="black" points="318.72,-278.16 329.31,-278.65 321.34,-271.67 318.72,-278.16"/>
</g>
<!-- shaft_extension_50 -->
<g id="node8" class="node">
<title>shaft_extension_50</title>
<g id="a_node8"><a xlink:href="javascript:s=&quot;\(&#x27;default&#x27;,\ &#x27;tnut&#x27;,\ &#x27;shaft_extension&#x27;\)\nCylinder&quot;; console.log(s); alert(s);" xlink:title="Cylinder">
<ellipse fill="none" stroke="black" cx="353.79" cy="-234" rx="67.69" ry="18"/>
<text text-anchor="middle" x="353.79" y="-230.3" font-family="Times New Roman,serif" font-size="14.00">shaft_extension</text>
</a>
</g>
</g>
<!-- tnut_45&#45;&gt;shaft_extension_50 -->
<g id="edge7" class="edge">
<title>tnut_45&#45;&gt;shaft_extension_50</title>
<path fill="none" stroke="black" d="M250.22,-234C257.92,-234 266.78,-234 276,-234"/>
<polygon fill="black" stroke="black" points="276.1,-237.5 286.1,-234 276.1,-230.5 276.1,-237.5"/>
</g>
<!-- wing_51 -->
<g id="node9" class="node">
<title>wing_51</title>
<g id="a_node9"><a xlink:href="javascript:s=&quot;\(&#x27;default&#x27;,\ &#x27;tnut&#x27;,\ \(&#x27;wing&#x27;,\ 0\)\)\nBox&quot;; console.log(s); alert(s);" xlink:title="Box">
<ellipse fill="none" stroke="black" cx="353.79" cy="-180" rx="46.59" ry="18"/>
<text text-anchor="middle" x="353.79" y="-176.3" font-family="Times New Roman,serif" font-size="14.00">(&#39;wing&#39;, 0)</text>
</a>
</g>
</g>
<!-- tnut_45&#45;&gt;wing_51 -->
<g id="edge8" class="edge">
<title>tnut_45&#45;&gt;wing_51</title>
<path fill="none" stroke="black" d="M246.23,-224.24C258.05,-219.05 272.88,-212.6 286.19,-207 294.21,-203.63 302.8,-200.09 311.06,-196.73"/>
<polygon fill="black" stroke="black" points="312.59,-199.88 320.54,-192.88 309.96,-193.4 312.59,-199.88"/>
</g>
<!-- wing_52 -->
<g id="node10" class="node">
<title>wing_52</title>
<g id="a_node10"><a xlink:href="javascript:s=&quot;\(&#x27;default&#x27;,\ &#x27;tnut&#x27;,\ \(&#x27;wing&#x27;,\ 1\)\)\nBox&quot;; console.log(s); alert(s);" xlink:title="Box">
<ellipse fill="none" stroke="black" cx="353.79" cy="-126" rx="46.59" ry="18"/>
<text text-anchor="middle" x="353.79" y="-122.3" font-family="Times New Roman,serif" font-size="14.00">(&#39;wing&#39;, 1)</text>
</a>
</g>
</g>
<!-- tnut_45&#45;&gt;wing_52 -->
<g id="edge9" class="edge">
<title>tnut_45&#45;&gt;wing_52</title>
<path fill="none" stroke="black" d="M233.32,-217.29C243.92,-199.24 262.96,-170.71 286.19,-153 292.4,-148.27 299.55,-144.23 306.82,-140.84"/>
<polygon fill="black" stroke="black" points="308.21,-144.05 316.02,-136.89 305.45,-137.62 308.21,-144.05"/>
</g>
<!-- wing_53 -->
<g id="node11" class="node">
<title>wing_53</title>
<g id="a_node11"><a xlink:href="javascript:s=&quot;\(&#x27;default&#x27;,\ &#x27;tnut&#x27;,\ \(&#x27;wing&#x27;,\ 2\)\)\nBox&quot;; console.log(s); alert(s);" xlink:title="Box">
<ellipse fill="none" stroke="black" cx="353.79" cy="-72" rx="46.59" ry="18"/>
<text text-anchor="middle" x="353.79" y="-68.3" font-family="Times New Roman,serif" font-size="14.00">(&#39;wing&#39;, 2)</text>
</a>
</g>
</g>
<!-- tnut_45&#45;&gt;wing_53 -->
<g id="edge10" class="edge">
<title>tnut_45&#45;&gt;wing_53</title>
<path fill="none" stroke="black" d="M227.9,-216.21C234.68,-187.79 251.7,-131.97 286.19,-99 291.59,-93.84 298.1,-89.62 304.91,-86.18"/>
<polygon fill="black" stroke="black" points="306.61,-89.25 314.3,-81.96 303.74,-82.87 306.61,-89.25"/>
</g>
<!-- wing_54 -->
<g id="node12" class="node">
<title>wing_54</title>
<g id="a_node12"><a xlink:href="javascript:s=&quot;\(&#x27;default&#x27;,\ &#x27;tnut&#x27;,\ \(&#x27;wing&#x27;,\ 3\)\)\nBox&quot;; console.log(s); alert(s);" xlink:title="Box">
<ellipse fill="none" stroke="black" cx="353.79" cy="-18" rx="46.59" ry="18"/>
<text text-anchor="middle" x="353.79" y="-14.3" font-family="Times New Roman,serif" font-size="14.00">(&#39;wing&#39;, 3)</text>
</a>
</g>
</g>
<!-- tnut_45&#45;&gt;wing_54 -->
<g id="edge11" class="edge">
<title>tnut_45&#45;&gt;wing_54</title>
<path fill="none" stroke="black" d="M225.2,-215.87C228.19,-178.97 239.99,-94.46 286.19,-45 291.29,-39.55 297.64,-35.17 304.38,-31.66"/>
<polygon fill="black" stroke="black" points="306.08,-34.73 313.73,-27.39 303.18,-28.36 306.08,-34.73"/>
</g>
</g>
</svg>
