<?xml version="1.0" encoding="UTF-8" standalone="no"?>
<!DOCTYPE svg PUBLIC "-//W3C//DTD SVG 1.1//EN"
 "http://www.w3.org/Graphics/SVG/1.1/DTD/svg11.dtd">
<!-- Generated by graphviz version 5.0.0 (20220707.1540)
 -->
<!-- Title: M8 Pages: 1 -->
<svg width="515pt" height="476pt"
 viewBox="0.00 0.00 515.48 476.00" xmlns="http://www.w3.org/2000/svg" xmlns:xlink="http://www.w3.org/1999/xlink">
<g id="graph0" class="graph" transform="scale(1 1) rotate(0) translate(4 472)">
<title>M8</title>
<polygon fill="white" stroke="transparent" points="-4,4 -4,-472 511.48,-472 511.48,4 -4,4"/>
<!-- root_27 -->
<g id="node1" class="node">
<title>root_27</title>
<g id="a_node1"><a xlink:href="javascript:s=&quot;\(\)\nNone&quot;; console.log(s); alert(s);" xlink:title="root">
<ellipse fill="none" stroke="black" cx="27" cy="-261" rx="27" ry="18"/>
<text text-anchor="middle" x="27" y="-257.3" font-family="Times New Roman,serif" font-size="14.00">root</text>
</a>
</g>
</g>
<!-- M8_28 -->
<g id="node2" class="node">
<title>M8_28</title>
<g id="a_node2"><a xlink:href="javascript:s=&quot;\(&#x27;M8&#x27;,\)\nTnutExample&quot;; console.log(s); alert(s);" xlink:title="TnutExample">
<ellipse fill="none" stroke="black" cx="117" cy="-261" rx="27" ry="18"/>
<text text-anchor="middle" x="117" y="-257.3" font-family="Times New Roman,serif" font-size="14.00">M8</text>
</a>
</g>
</g>
<!-- root_27&#45;&gt;M8_28 -->
<g id="edge1" class="edge">
<title>root_27&#45;&gt;M8_28</title>
<path fill="none" stroke="black" d="M54.4,-261C62.39,-261 71.31,-261 79.82,-261"/>
<polygon fill="black" stroke="black" points="79.92,-264.5 89.92,-261 79.92,-257.5 79.92,-264.5"/>
</g>
<!-- model_29 -->
<g id="node3" class="node">
<title>model_29</title>
<g id="a_node3"><a xlink:href="javascript:s=&quot;\(&#x27;M8&#x27;,\ &#x27;model&#x27;\)\nBoxSideBevels&quot;; console.log(s); alert(s);" xlink:title="BoxSideBevels">
<ellipse fill="none" stroke="black" cx="213.15" cy="-288" rx="33.29" ry="18"/>
<text text-anchor="middle" x="213.15" y="-284.3" font-family="Times New Roman,serif" font-size="14.00">model</text>
</a>
</g>
</g>
<!-- M8_28&#45;&gt;model_29 -->
<g id="edge2" class="edge">
<title>M8_28&#45;&gt;model_29</title>
<path fill="none" stroke="black" d="M142.25,-267.95C151.74,-270.68 162.87,-273.87 173.43,-276.9"/>
<polygon fill="black" stroke="black" points="172.72,-280.33 183.29,-279.73 174.65,-273.6 172.72,-280.33"/>
</g>
<!-- tnut_32 -->
<g id="node6" class="node">
<title>tnut_32</title>
<g id="a_node6"><a xlink:href="javascript:s=&quot;\(&#x27;M8&#x27;,\ &#x27;tnut&#x27;\)\nTnutM8&quot;; console.log(s); alert(s);" xlink:title="TnutM8">
<ellipse fill="none" stroke="black" cx="213.15" cy="-234" rx="27" ry="18"/>
<text text-anchor="middle" x="213.15" y="-230.3" font-family="Times New Roman,serif" font-size="14.00">tnut</text>
</a>
</g>
</g>
<!-- M8_28&#45;&gt;tnut_32 -->
<g id="edge5" class="edge">
<title>M8_28&#45;&gt;tnut_32</title>
<path fill="none" stroke="black" d="M142.25,-254.05C153.23,-250.9 166.4,-247.12 178.33,-243.7"/>
<polygon fill="black" stroke="black" points="179.34,-247.05 187.98,-240.93 177.41,-240.32 179.34,-247.05"/>
</g>
<!-- shell_30 -->
<g id="node4" class="node">
<title>shell_30</title>
<g id="a_node4"><a xlink:href="javascript:s=&quot;\(&#x27;M8&#x27;,\ &#x27;model&#x27;,\ &#x27;shell&#x27;\)\nBox&quot;; console.log(s); alert(s);" xlink:title="Box">
<ellipse fill="none" stroke="black" cx="309.29" cy="-342" rx="27" ry="18"/>
<text text-anchor="middle" x="309.29" y="-338.3" font-family="Times New Roman,serif" font-size="14.00">shell</text>
</a>
</g>
</g>
<!-- model_29&#45;&gt;shell_30 -->
<g id="edge3" class="edge">
<title>model_29&#45;&gt;shell_30</title>
<path fill="none" stroke="black" d="M236.46,-300.8C249.39,-308.22 265.82,-317.64 279.69,-325.6"/>
<polygon fill="black" stroke="black" points="277.97,-328.64 288.38,-330.58 281.45,-322.57 277.97,-328.64"/>
</g>
<!-- hull_31 -->
<g id="node5" class="node">
<title>hull_31</title>
<g id="a_node5"><a xlink:href="javascript:s=&quot;\(&#x27;M8&#x27;,\ &#x27;model&#x27;,\ &#x27;hull&#x27;\)\nLinearExtrude&quot;; console.log(s); alert(s);" xlink:title="LinearExtrude">
<ellipse fill="none" stroke="black" cx="309.29" cy="-288" rx="27" ry="18"/>
<text text-anchor="middle" x="309.29" y="-284.3" font-family="Times New Roman,serif" font-size="14.00">hull</text>
</a>
</g>
</g>
<!-- model_29&#45;&gt;hull_31 -->
<g id="edge4" class="edge">
<title>model_29&#45;&gt;hull_31</title>
<path fill="none" stroke="black" d="M246.55,-288C254.7,-288 263.51,-288 271.84,-288"/>
<polygon fill="black" stroke="black" points="272.07,-291.5 282.07,-288 272.07,-284.5 272.07,-291.5"/>
</g>
<!-- tnut_33 -->
<g id="node7" class="node">
<title>tnut_33</title>
<g id="a_node7"><a xlink:href="javascript:s=&quot;\(&#x27;M8&#x27;,\ &#x27;tnut&#x27;,\ &#x27;tnut&#x27;\)\nTnut&quot;; console.log(s); alert(s);" xlink:title="Tnut">
<ellipse fill="none" stroke="black" cx="309.29" cy="-234" rx="27" ry="18"/>
<text text-anchor="middle" x="309.29" y="-230.3" font-family="Times New Roman,serif" font-size="14.00">tnut</text>
</a>
</g>
</g>
<!-- tnut_32&#45;&gt;tnut_33 -->
<g id="edge6" class="edge">
<title>tnut_32&#45;&gt;tnut_33</title>
<path fill="none" stroke="black" d="M240.37,-234C250.17,-234 261.47,-234 272.01,-234"/>
<polygon fill="black" stroke="black" points="272.21,-237.5 282.21,-234 272.21,-230.5 272.21,-237.5"/>
</g>
<!-- cage_34 -->
<g id="node8" class="node">
<title>cage_34</title>
<g id="a_node8"><a xlink:href="javascript:s=&quot;\(&#x27;M8&#x27;,\ &#x27;tnut&#x27;,\ &#x27;tnut&#x27;,\ &#x27;cage&#x27;\)\nCylinder&quot;; console.log(s); alert(s);" xlink:title="Cylinder">
<ellipse fill="none" stroke="black" cx="439.89" cy="-450" rx="27.1" ry="18"/>
<text text-anchor="middle" x="439.89" y="-446.3" font-family="Times New Roman,serif" font-size="14.00">cage</text>
</a>
</g>
</g>
<!-- tnut_33&#45;&gt;cage_34 -->
<g id="edge7" class="edge">
<title>tnut_33&#45;&gt;cage_34</title>
<path fill="none" stroke="black" d="M326.5,-247.95C330.2,-251.84 333.77,-256.3 336.29,-261 371.17,-325.99 324.66,-366.69 372.29,-423 380.27,-432.43 392.04,-438.6 403.47,-442.63"/>
<polygon fill="black" stroke="black" points="402.74,-446.07 413.33,-445.64 404.79,-439.37 402.74,-446.07"/>
</g>
<!-- flat_35 -->
<g id="node9" class="node">
<title>flat_35</title>
<g id="a_node9"><a xlink:href="javascript:s=&quot;\(&#x27;M8&#x27;,\ &#x27;tnut&#x27;,\ &#x27;tnut&#x27;,\ &#x27;flat&#x27;\)\nCylinder&quot;; console.log(s); alert(s);" xlink:title="Cylinder">
<ellipse fill="none" stroke="black" cx="439.89" cy="-396" rx="27" ry="18"/>
<text text-anchor="middle" x="439.89" y="-392.3" font-family="Times New Roman,serif" font-size="14.00">flat</text>
</a>
</g>
</g>
<!-- tnut_33&#45;&gt;flat_35 -->
<g id="edge8" class="edge">
<title>tnut_33&#45;&gt;flat_35</title>
<path fill="none" stroke="black" d="M326.17,-248.14C329.87,-252.02 333.53,-256.43 336.29,-261 362.49,-304.29 337.67,-332.11 372.29,-369 380.75,-378.01 392.62,-384.08 404.01,-388.15"/>
<polygon fill="black" stroke="black" points="403.2,-391.57 413.79,-391.23 405.3,-384.89 403.2,-391.57"/>
</g>
<!-- bevel_36 -->
<g id="node10" class="node">
<title>bevel_36</title>
<g id="a_node10"><a xlink:href="javascript:s=&quot;\(&#x27;M8&#x27;,\ &#x27;tnut&#x27;,\ &#x27;tnut&#x27;,\ &#x27;bevel&#x27;\)\nCone&quot;; console.log(s); alert(s);" xlink:title="Cone">
<ellipse fill="none" stroke="black" cx="439.89" cy="-342" rx="29.8" ry="18"/>
<text text-anchor="middle" x="439.89" y="-338.3" font-family="Times New Roman,serif" font-size="14.00">bevel</text>
</a>
</g>
</g>
<!-- tnut_33&#45;&gt;bevel_36 -->
<g id="edge9" class="edge">
<title>tnut_33&#45;&gt;bevel_36</title>
<path fill="none" stroke="black" d="M325.37,-248.7C329.08,-252.58 332.95,-256.84 336.29,-261 354.37,-283.48 349.94,-296.77 372.29,-315 381.01,-322.11 391.85,-327.56 402.24,-331.64"/>
<polygon fill="black" stroke="black" points="401.38,-335.05 411.97,-335.14 403.75,-328.46 401.38,-335.05"/>
</g>
<!-- shaft_37 -->
<g id="node11" class="node">
<title>shaft_37</title>
<g id="a_node11"><a xlink:href="javascript:s=&quot;\(&#x27;M8&#x27;,\ &#x27;tnut&#x27;,\ &#x27;tnut&#x27;,\ &#x27;shaft&#x27;\)\nCylinder&quot;; console.log(s); alert(s);" xlink:title="Cylinder">
<ellipse fill="none" stroke="black" cx="439.89" cy="-288" rx="28.7" ry="18"/>
<text text-anchor="middle" x="439.89" y="-284.3" font-family="Times New Roman,serif" font-size="14.00">shaft</text>
</a>
</g>
</g>
<!-- tnut_33&#45;&gt;shaft_37 -->
<g id="edge10" class="edge">
<title>tnut_33&#45;&gt;shaft_37</title>
<path fill="none" stroke="black" d="M332.33,-243.76C344.15,-248.95 358.98,-255.4 372.29,-261 383.21,-265.59 395.19,-270.49 405.94,-274.84"/>
<polygon fill="black" stroke="black" points="404.82,-278.16 415.41,-278.65 407.44,-271.67 404.82,-278.16"/>
</g>
<!-- shaft_extension_38 -->
<g id="node12" class="node">
<title>shaft_extension_38</title>
<g id="a_node12"><a xlink:href="javascript:s=&quot;\(&#x27;M8&#x27;,\ &#x27;tnut&#x27;,\ &#x27;tnut&#x27;,\ &#x27;shaft_extension&#x27;\)\nCylinder&quot;; console.log(s); alert(s);" xlink:title="Cylinder">
<ellipse fill="none" stroke="black" cx="439.89" cy="-234" rx="67.69" ry="18"/>
<text text-anchor="middle" x="439.89" y="-230.3" font-family="Times New Roman,serif" font-size="14.00">shaft_extension</text>
</a>
</g>
</g>
<!-- tnut_33&#45;&gt;shaft_extension_38 -->
<g id="edge11" class="edge">
<title>tnut_33&#45;&gt;shaft_extension_38</title>
<path fill="none" stroke="black" d="M336.32,-234C344.02,-234 352.88,-234 362.1,-234"/>
<polygon fill="black" stroke="black" points="362.2,-237.5 372.2,-234 362.2,-230.5 362.2,-237.5"/>
</g>
<!-- wing_39 -->
<g id="node13" class="node">
<title>wing_39</title>
<g id="a_node13"><a xlink:href="javascript:s=&quot;\(&#x27;M8&#x27;,\ &#x27;tnut&#x27;,\ &#x27;tnut&#x27;,\ \(&#x27;wing&#x27;,\ 0\)\)\nBox&quot;; console.log(s); alert(s);" xlink:title="Box">
<ellipse fill="none" stroke="black" cx="439.89" cy="-180" rx="46.59" ry="18"/>
<text text-anchor="middle" x="439.89" y="-176.3" font-family="Times New Roman,serif" font-size="14.00">(&#39;wing&#39;, 0)</text>
</a>
</g>
</g>
<!-- tnut_33&#45;&gt;wing_39 -->
<g id="edge12" class="edge">
<title>tnut_33&#45;&gt;wing_39</title>
<path fill="none" stroke="black" d="M332.33,-224.24C344.15,-219.05 358.98,-212.6 372.29,-207 380.31,-203.63 388.9,-200.09 397.16,-196.73"/>
<polygon fill="black" stroke="black" points="398.69,-199.88 406.64,-192.88 396.06,-193.4 398.69,-199.88"/>
</g>
<!-- wing_40 -->
<g id="node14" class="node">
<title>wing_40</title>
<g id="a_node14"><a xlink:href="javascript:s=&quot;\(&#x27;M8&#x27;,\ &#x27;tnut&#x27;,\ &#x27;tnut&#x27;,\ \(&#x27;wing&#x27;,\ 1\)\)\nBox&quot;; console.log(s); alert(s);" xlink:title="Box">
<ellipse fill="none" stroke="black" cx="439.89" cy="-126" rx="46.59" ry="18"/>
<text text-anchor="middle" x="439.89" y="-122.3" font-family="Times New Roman,serif" font-size="14.00">(&#39;wing&#39;, 1)</text>
</a>
</g>
</g>
<!-- tnut_33&#45;&gt;wing_40 -->
<g id="edge13" class="edge">
<title>tnut_33&#45;&gt;wing_40</title>
<path fill="none" stroke="black" d="M319.42,-217.29C330.02,-199.24 349.06,-170.71 372.29,-153 378.5,-148.27 385.66,-144.23 392.92,-140.84"/>
<polygon fill="black" stroke="black" points="394.31,-144.05 402.12,-136.89 391.55,-137.62 394.31,-144.05"/>
</g>
<!-- wing_41 -->
<g id="node15" class="node">
<title>wing_41</title>
<g id="a_node15"><a xlink:href="javascript:s=&quot;\(&#x27;M8&#x27;,\ &#x27;tnut&#x27;,\ &#x27;tnut&#x27;,\ \(&#x27;wing&#x27;,\ 2\)\)\nBox&quot;; console.log(s); alert(s);" xlink:title="Box">
<ellipse fill="none" stroke="black" cx="439.89" cy="-72" rx="46.59" ry="18"/>
<text text-anchor="middle" x="439.89" y="-68.3" font-family="Times New Roman,serif" font-size="14.00">(&#39;wing&#39;, 2)</text>
</a>
</g>
</g>
<!-- tnut_33&#45;&gt;wing_41 -->
<g id="edge14" class="edge">
<title>tnut_33&#45;&gt;wing_41</title>
<path fill="none" stroke="black" d="M314,-216.21C320.78,-187.79 337.8,-131.97 372.29,-99 377.69,-93.84 384.2,-89.62 391.01,-86.18"/>
<polygon fill="black" stroke="black" points="392.71,-89.25 400.4,-81.96 389.84,-82.87 392.71,-89.25"/>
</g>
<!-- wing_42 -->
<g id="node16" class="node">
<title>wing_42</title>
<g id="a_node16"><a xlink:href="javascript:s=&quot;\(&#x27;M8&#x27;,\ &#x27;tnut&#x27;,\ &#x27;tnut&#x27;,\ \(&#x27;wing&#x27;,\ 3\)\)\nBox&quot;; console.log(s); alert(s);" xlink:title="Box">
<ellipse fill="none" stroke="black" cx="439.89" cy="-18" rx="46.59" ry="18"/>
<text text-anchor="middle" x="439.89" y="-14.3" font-family="Times New Roman,serif" font-size="14.00">(&#39;wing&#39;, 3)</text>
</a>
</g>
</g>
<!-- tnut_33&#45;&gt;wing_42 -->
<g id="edge15" class="edge">
<title>tnut_33&#45;&gt;wing_42</title>
<path fill="none" stroke="black" d="M311.3,-215.87C314.29,-178.97 326.09,-94.46 372.29,-45 377.39,-39.55 383.74,-35.17 390.48,-31.66"/>
<polygon fill="black" stroke="black" points="392.18,-34.73 399.83,-27.39 389.28,-28.36 392.18,-34.73"/>
</g>
</g>
</svg>
