<?xml version="1.0" encoding="UTF-8" standalone="no"?>
<!DOCTYPE svg PUBLIC "-//W3C//DTD SVG 1.1//EN"
 "http://www.w3.org/Graphics/SVG/1.1/DTD/svg11.dtd">
<!-- Generated by graphviz version 5.0.0 (20220707.1540)
 -->
<!-- Title: default Pages: 1 -->
<svg width="339pt" height="476pt"
 viewBox="0.00 0.00 339.38 476.00" xmlns="http://www.w3.org/2000/svg" xmlns:xlink="http://www.w3.org/1999/xlink">
<g id="graph0" class="graph" transform="scale(1 1) rotate(0) translate(4 472)">
<title>default</title>
<polygon fill="white" stroke="transparent" points="-4,4 -4,-472 335.38,-472 335.38,4 -4,4"/>
<!-- root_1 -->
<g id="node1" class="node">
<title>root_1</title>
<g id="a_node1"><a xlink:href="javascript:s=&quot;\(\)\nNone&quot;; console.log(s); alert(s);" xlink:title="root">
<ellipse fill="none" stroke="black" cx="27" cy="-234" rx="27" ry="18"/>
<text text-anchor="middle" x="27" y="-230.3" font-family="Times New Roman,serif" font-size="14.00">root</text>
</a>
</g>
</g>
<!-- default_2 -->
<g id="node2" class="node">
<title>default_2</title>
<g id="a_node2"><a xlink:href="javascript:s=&quot;\(&#x27;default&#x27;,\)\nTnut&quot;; console.log(s); alert(s);" xlink:title="Tnut">
<ellipse fill="none" stroke="black" cx="125.1" cy="-234" rx="35.19" ry="18"/>
<text text-anchor="middle" x="125.1" y="-230.3" font-family="Times New Roman,serif" font-size="14.00">default</text>
</a>
</g>
</g>
<!-- root_1&#45;&gt;default_2 -->
<g id="edge1" class="edge">
<title>root_1&#45;&gt;default_2</title>
<path fill="none" stroke="black" d="M54.01,-234C61.92,-234 70.84,-234 79.61,-234"/>
<polygon fill="black" stroke="black" points="79.76,-237.5 89.76,-234 79.76,-230.5 79.76,-237.5"/>
</g>
<!-- cage_3 -->
<g id="node3" class="node">
<title>cage_3</title>
<g id="a_node3"><a xlink:href="javascript:s=&quot;\(&#x27;default&#x27;,\ &#x27;cage&#x27;\)\nCylinder&quot;; console.log(s); alert(s);" xlink:title="Cylinder">
<ellipse fill="none" stroke="black" cx="263.79" cy="-450" rx="27.1" ry="18"/>
<text text-anchor="middle" x="263.79" y="-446.3" font-family="Times New Roman,serif" font-size="14.00">cage</text>
</a>
</g>
</g>
<!-- default_2&#45;&gt;cage_3 -->
<g id="edge2" class="edge">
<title>default_2&#45;&gt;cage_3</title>
<path fill="none" stroke="black" d="M127.97,-252.17C132.71,-289.14 148.42,-373.77 196.19,-423 204.73,-431.79 216.52,-437.81 227.81,-441.9"/>
<polygon fill="black" stroke="black" points="226.91,-445.28 237.51,-445 229.05,-438.62 226.91,-445.28"/>
</g>
<!-- flat_4 -->
<g id="node4" class="node">
<title>flat_4</title>
<g id="a_node4"><a xlink:href="javascript:s=&quot;\(&#x27;default&#x27;,\ &#x27;flat&#x27;\)\nCylinder&quot;; console.log(s); alert(s);" xlink:title="Cylinder">
<ellipse fill="none" stroke="black" cx="263.79" cy="-396" rx="27" ry="18"/>
<text text-anchor="middle" x="263.79" y="-392.3" font-family="Times New Roman,serif" font-size="14.00">flat</text>
</a>
</g>
</g>
<!-- default_2&#45;&gt;flat_4 -->
<g id="edge3" class="edge">
<title>default_2&#45;&gt;flat_4</title>
<path fill="none" stroke="black" d="M130.94,-251.8C139.55,-280.25 160.07,-336.11 196.19,-369 205.26,-377.25 217.17,-383.14 228.41,-387.28"/>
<polygon fill="black" stroke="black" points="227.43,-390.64 238.03,-390.47 229.64,-384 227.43,-390.64"/>
</g>
<!-- bevel_5 -->
<g id="node5" class="node">
<title>bevel_5</title>
<g id="a_node5"><a xlink:href="javascript:s=&quot;\(&#x27;default&#x27;,\ &#x27;bevel&#x27;\)\nCone&quot;; console.log(s); alert(s);" xlink:title="Cone">
<ellipse fill="none" stroke="black" cx="263.79" cy="-342" rx="29.8" ry="18"/>
<text text-anchor="middle" x="263.79" y="-338.3" font-family="Times New Roman,serif" font-size="14.00">bevel</text>
</a>
</g>
</g>
<!-- default_2&#45;&gt;bevel_5 -->
<g id="edge4" class="edge">
<title>default_2&#45;&gt;bevel_5</title>
<path fill="none" stroke="black" d="M137.14,-250.99C149.6,-269 171.39,-297.25 196.19,-315 205.34,-321.55 216.31,-326.83 226.68,-330.93"/>
<polygon fill="black" stroke="black" points="225.76,-334.33 236.36,-334.5 228.19,-327.76 225.76,-334.33"/>
</g>
<!-- shaft_6 -->
<g id="node6" class="node">
<title>shaft_6</title>
<g id="a_node6"><a xlink:href="javascript:s=&quot;\(&#x27;default&#x27;,\ &#x27;shaft&#x27;\)\nCylinder&quot;; console.log(s); alert(s);" xlink:title="Cylinder">
<ellipse fill="none" stroke="black" cx="263.79" cy="-288" rx="28.7" ry="18"/>
<text text-anchor="middle" x="263.79" y="-284.3" font-family="Times New Roman,serif" font-size="14.00">shaft</text>
</a>
</g>
</g>
<!-- default_2&#45;&gt;shaft_6 -->
<g id="edge5" class="edge">
<title>default_2&#45;&gt;shaft_6</title>
<path fill="none" stroke="black" d="M153.43,-244.8C175.38,-253.47 206.29,-265.68 229.65,-274.91"/>
<polygon fill="black" stroke="black" points="228.56,-278.24 239.15,-278.66 231.14,-271.73 228.56,-278.24"/>
</g>
<!-- shaft_extension_7 -->
<g id="node7" class="node">
<title>shaft_extension_7</title>
<g id="a_node7"><a xlink:href="javascript:s=&quot;\(&#x27;default&#x27;,\ &#x27;shaft_extension&#x27;\)\nCylinder&quot;; console.log(s); alert(s);" xlink:title="Cylinder">
<ellipse fill="none" stroke="black" cx="263.79" cy="-234" rx="67.69" ry="18"/>
<text text-anchor="middle" x="263.79" y="-230.3" font-family="Times New Roman,serif" font-size="14.00">shaft_extension</text>
</a>
</g>
</g>
<!-- default_2&#45;&gt;shaft_extension_7 -->
<g id="edge6" class="edge">
<title>default_2&#45;&gt;shaft_extension_7</title>
<path fill="none" stroke="black" d="M160.24,-234C168.17,-234 176.92,-234 185.88,-234"/>
<polygon fill="black" stroke="black" points="186.04,-237.5 196.04,-234 186.04,-230.5 186.04,-237.5"/>
</g>
<!-- wing_8 -->
<g id="node8" class="node">
<title>wing_8</title>
<g id="a_node8"><a xlink:href="javascript:s=&quot;\(&#x27;default&#x27;,\ \(&#x27;wing&#x27;,\ 0\)\)\nBox&quot;; console.log(s); alert(s);" xlink:title="Box">
<ellipse fill="none" stroke="black" cx="263.79" cy="-180" rx="46.59" ry="18"/>
<text text-anchor="middle" x="263.79" y="-176.3" font-family="Times New Roman,serif" font-size="14.00">(&#39;wing&#39;, 0)</text>
</a>
</g>
</g>
<!-- default_2&#45;&gt;wing_8 -->
<g id="edge7" class="edge">
<title>default_2&#45;&gt;wing_8</title>
<path fill="none" stroke="black" d="M153.43,-223.2C172.7,-215.59 198.88,-205.25 220.8,-196.59"/>
<polygon fill="black" stroke="black" points="222.19,-199.8 230.21,-192.87 219.62,-193.29 222.19,-199.8"/>
</g>
<!-- wing_9 -->
<g id="node9" class="node">
<title>wing_9</title>
<g id="a_node9"><a xlink:href="javascript:s=&quot;\(&#x27;default&#x27;,\ \(&#x27;wing&#x27;,\ 1\)\)\nBox&quot;; console.log(s); alert(s);" xlink:title="Box">
<ellipse fill="none" stroke="black" cx="263.79" cy="-126" rx="46.59" ry="18"/>
<text text-anchor="middle" x="263.79" y="-122.3" font-family="Times New Roman,serif" font-size="14.00">(&#39;wing&#39;, 1)</text>
</a>
</g>
</g>
<!-- default_2&#45;&gt;wing_9 -->
<g id="edge8" class="edge">
<title>default_2&#45;&gt;wing_9</title>
<path fill="none" stroke="black" d="M137.14,-217.01C149.6,-199 171.39,-170.75 196.19,-153 202.61,-148.4 209.93,-144.43 217.3,-141.05"/>
<polygon fill="black" stroke="black" points="218.78,-144.23 226.62,-137.09 216.04,-137.79 218.78,-144.23"/>
</g>
<!-- wing_10 -->
<g id="node10" class="node">
<title>wing_10</title>
<g id="a_node10"><a xlink:href="javascript:s=&quot;\(&#x27;default&#x27;,\ \(&#x27;wing&#x27;,\ 2\)\)\nBox&quot;; console.log(s); alert(s);" xlink:title="Box">
<ellipse fill="none" stroke="black" cx="263.79" cy="-72" rx="46.59" ry="18"/>
<text text-anchor="middle" x="263.79" y="-68.3" font-family="Times New Roman,serif" font-size="14.00">(&#39;wing&#39;, 2)</text>
</a>
</g>
</g>
<!-- default_2&#45;&gt;wing_10 -->
<g id="edge9" class="edge">
<title>default_2&#45;&gt;wing_10</title>
<path fill="none" stroke="black" d="M130.94,-216.2C139.55,-187.75 160.07,-131.89 196.19,-99 201.77,-93.92 208.44,-89.73 215.36,-86.3"/>
<polygon fill="black" stroke="black" points="217.16,-89.33 224.88,-82.07 214.32,-82.93 217.16,-89.33"/>
</g>
<!-- wing_11 -->
<g id="node11" class="node">
<title>wing_11</title>
<g id="a_node11"><a xlink:href="javascript:s=&quot;\(&#x27;default&#x27;,\ \(&#x27;wing&#x27;,\ 3\)\)\nBox&quot;; console.log(s); alert(s);" xlink:title="Box">
<ellipse fill="none" stroke="black" cx="263.79" cy="-18" rx="46.59" ry="18"/>
<text text-anchor="middle" x="263.79" y="-14.3" font-family="Times New Roman,serif" font-size="14.00">(&#39;wing&#39;, 3)</text>
</a>
</g>
</g>
<!-- default_2&#45;&gt;wing_11 -->
<g id="edge10" class="edge">
<title>default_2&#45;&gt;wing_11</title>
<path fill="none" stroke="black" d="M127.97,-215.83C132.71,-178.86 148.42,-94.23 196.19,-45 201.39,-39.64 207.79,-35.32 214.56,-31.83"/>
<polygon fill="black" stroke="black" points="216.26,-34.9 223.92,-27.58 213.37,-28.53 216.26,-34.9"/>
</g>
</g>
</svg>
