<?xml version="1.0" encoding="UTF-8" standalone="no"?>
<!DOCTYPE svg PUBLIC "-//W3C//DTD SVG 1.1//EN"
 "http://www.w3.org/Graphics/SVG/1.1/DTD/svg11.dtd">
<!-- Generated by graphviz version 5.0.0 (20220707.1540)
 -->
<!-- Title: default Pages: 1 -->
<svg width="442pt" height="584pt"
 viewBox="0.00 0.00 441.68 584.00" xmlns="http://www.w3.org/2000/svg" xmlns:xlink="http://www.w3.org/1999/xlink">
<g id="graph0" class="graph" transform="scale(1 1) rotate(0) translate(4 580)">
<title>default</title>
<polygon fill="white" stroke="transparent" points="-4,4 -4,-580 437.68,-580 437.68,4 -4,4"/>
<!-- root_12 -->
<g id="node1" class="node">
<title>root_12</title>
<g id="a_node1"><a xlink:href="javascript:s=&quot;\(\)\nNone&quot;; console.log(s); alert(s);" xlink:title="root">
<ellipse fill="none" stroke="black" cx="27" cy="-369" rx="27" ry="18"/>
<text text-anchor="middle" x="27" y="-365.3" font-family="Times New Roman,serif" font-size="14.00">root</text>
</a>
</g>
</g>
<!-- default_13 -->
<g id="node2" class="node">
<title>default_13</title>
<g id="a_node2"><a xlink:href="javascript:s=&quot;\(&#x27;default&#x27;,\)\nTnutExample&quot;; console.log(s); alert(s);" xlink:title="TnutExample">
<ellipse fill="none" stroke="black" cx="125.1" cy="-369" rx="35.19" ry="18"/>
<text text-anchor="middle" x="125.1" y="-365.3" font-family="Times New Roman,serif" font-size="14.00">default</text>
</a>
</g>
</g>
<!-- root_12&#45;&gt;default_13 -->
<g id="edge1" class="edge">
<title>root_12&#45;&gt;default_13</title>
<path fill="none" stroke="black" d="M54.01,-369C61.92,-369 70.84,-369 79.61,-369"/>
<polygon fill="black" stroke="black" points="79.76,-372.5 89.76,-369 79.76,-365.5 79.76,-372.5"/>
</g>
<!-- model_14 -->
<g id="node3" class="node">
<title>model_14</title>
<g id="a_node3"><a xlink:href="javascript:s=&quot;\(&#x27;default&#x27;,\ &#x27;model&#x27;\)\nBoxSideBevels&quot;; console.log(s); alert(s);" xlink:title="BoxSideBevels">
<ellipse fill="none" stroke="black" cx="229.34" cy="-504" rx="33.29" ry="18"/>
<text text-anchor="middle" x="229.34" y="-500.3" font-family="Times New Roman,serif" font-size="14.00">model</text>
</a>
</g>
</g>
<!-- default_13&#45;&gt;model_14 -->
<g id="edge2" class="edge">
<title>default_13&#45;&gt;model_14</title>
<path fill="none" stroke="black" d="M138.84,-385.82C156.62,-409.3 188.98,-452.03 209.53,-479.17"/>
<polygon fill="black" stroke="black" points="206.93,-481.53 215.76,-487.39 212.51,-477.3 206.93,-481.53"/>
</g>
<!-- tnut_17 -->
<g id="node6" class="node">
<title>tnut_17</title>
<g id="a_node6"><a xlink:href="javascript:s=&quot;\(&#x27;default&#x27;,\ &#x27;tnut&#x27;\)\nTnut&quot;; console.log(s); alert(s);" xlink:title="Tnut">
<ellipse fill="none" stroke="black" cx="229.34" cy="-261" rx="27" ry="18"/>
<text text-anchor="middle" x="229.34" y="-257.3" font-family="Times New Roman,serif" font-size="14.00">tnut</text>
</a>
</g>
</g>
<!-- default_13&#45;&gt;tnut_17 -->
<g id="edge5" class="edge">
<title>default_13&#45;&gt;tnut_17</title>
<path fill="none" stroke="black" d="M141.63,-352.6C159.06,-334.18 187.47,-304.18 206.99,-283.56"/>
<polygon fill="black" stroke="black" points="209.66,-285.83 213.99,-276.16 204.57,-281.01 209.66,-285.83"/>
</g>
<!-- shell_15 -->
<g id="node4" class="node">
<title>shell_15</title>
<g id="a_node4"><a xlink:href="javascript:s=&quot;\(&#x27;default&#x27;,\ &#x27;model&#x27;,\ &#x27;shell&#x27;\)\nBox&quot;; console.log(s); alert(s);" xlink:title="Box">
<ellipse fill="none" stroke="black" cx="366.08" cy="-558" rx="27" ry="18"/>
<text text-anchor="middle" x="366.08" y="-554.3" font-family="Times New Roman,serif" font-size="14.00">shell</text>
</a>
</g>
</g>
<!-- model_14&#45;&gt;shell_15 -->
<g id="edge3" class="edge">
<title>model_14&#45;&gt;shell_15</title>
<path fill="none" stroke="black" d="M256.64,-514.54C278.49,-523.3 309.65,-535.78 332.97,-545.13"/>
<polygon fill="black" stroke="black" points="331.85,-548.45 342.43,-548.92 334.45,-541.95 331.85,-548.45"/>
</g>
<!-- hull_16 -->
<g id="node5" class="node">
<title>hull_16</title>
<g id="a_node5"><a xlink:href="javascript:s=&quot;\(&#x27;default&#x27;,\ &#x27;model&#x27;,\ &#x27;hull&#x27;\)\nLinearExtrude&quot;; console.log(s); alert(s);" xlink:title="LinearExtrude">
<ellipse fill="none" stroke="black" cx="366.08" cy="-504" rx="27" ry="18"/>
<text text-anchor="middle" x="366.08" y="-500.3" font-family="Times New Roman,serif" font-size="14.00">hull</text>
</a>
</g>
</g>
<!-- model_14&#45;&gt;hull_16 -->
<g id="edge4" class="edge">
<title>model_14&#45;&gt;hull_16</title>
<path fill="none" stroke="black" d="M262.61,-504C282.5,-504 308.06,-504 328.67,-504"/>
<polygon fill="black" stroke="black" points="328.94,-507.5 338.94,-504 328.94,-500.5 328.94,-507.5"/>
</g>
<!-- cage_18 -->
<g id="node7" class="node">
<title>cage_18</title>
<g id="a_node7"><a xlink:href="javascript:s=&quot;\(&#x27;default&#x27;,\ &#x27;tnut&#x27;,\ &#x27;cage&#x27;\)\nCylinder&quot;; console.log(s); alert(s);" xlink:title="Cylinder">
<ellipse fill="none" stroke="black" cx="366.08" cy="-450" rx="27.1" ry="18"/>
<text text-anchor="middle" x="366.08" y="-446.3" font-family="Times New Roman,serif" font-size="14.00">cage</text>
</a>
</g>
</g>
<!-- tnut_17&#45;&gt;cage_18 -->
<g id="edge6" class="edge">
<title>tnut_17&#45;&gt;cage_18</title>
<path fill="none" stroke="black" d="M233.22,-278.85C239.4,-311.66 256.9,-381.95 298.49,-423 307.14,-431.54 318.86,-437.49 330.05,-441.59"/>
<polygon fill="black" stroke="black" points="329.07,-444.95 339.66,-444.73 331.24,-438.29 329.07,-444.95"/>
</g>
<!-- flat_19 -->
<g id="node8" class="node">
<title>flat_19</title>
<g id="a_node8"><a xlink:href="javascript:s=&quot;\(&#x27;default&#x27;,\ &#x27;tnut&#x27;,\ &#x27;flat&#x27;\)\nCylinder&quot;; console.log(s); alert(s);" xlink:title="Cylinder">
<ellipse fill="none" stroke="black" cx="366.08" cy="-396" rx="27" ry="18"/>
<text text-anchor="middle" x="366.08" y="-392.3" font-family="Times New Roman,serif" font-size="14.00">flat</text>
</a>
</g>
</g>
<!-- tnut_17&#45;&gt;flat_19 -->
<g id="edge7" class="edge">
<title>tnut_17&#45;&gt;flat_19</title>
<path fill="none" stroke="black" d="M237.2,-278.31C247.33,-301.83 268.39,-343.82 298.49,-369 307.81,-376.8 319.69,-382.57 330.82,-386.73"/>
<polygon fill="black" stroke="black" points="329.74,-390.06 340.33,-389.99 332,-383.44 329.74,-390.06"/>
</g>
<!-- bevel_20 -->
<g id="node9" class="node">
<title>bevel_20</title>
<g id="a_node9"><a xlink:href="javascript:s=&quot;\(&#x27;default&#x27;,\ &#x27;tnut&#x27;,\ &#x27;bevel&#x27;\)\nCone&quot;; console.log(s); alert(s);" xlink:title="Cone">
<ellipse fill="none" stroke="black" cx="366.08" cy="-342" rx="29.8" ry="18"/>
<text text-anchor="middle" x="366.08" y="-338.3" font-family="Times New Roman,serif" font-size="14.00">bevel</text>
</a>
</g>
</g>
<!-- tnut_17&#45;&gt;bevel_20 -->
<g id="edge8" class="edge">
<title>tnut_17&#45;&gt;bevel_20</title>
<path fill="none" stroke="black" d="M245.92,-275.48C259.16,-287.24 279.05,-303.68 298.49,-315 308.39,-320.77 319.76,-325.88 330.27,-330.05"/>
<polygon fill="black" stroke="black" points="329.03,-333.32 339.62,-333.62 331.52,-326.78 329.03,-333.32"/>
</g>
<!-- shaft_21 -->
<g id="node10" class="node">
<title>shaft_21</title>
<g id="a_node10"><a xlink:href="javascript:s=&quot;\(&#x27;default&#x27;,\ &#x27;tnut&#x27;,\ &#x27;shaft&#x27;\)\nCylinder&quot;; console.log(s); alert(s);" xlink:title="Cylinder">
<ellipse fill="none" stroke="black" cx="366.08" cy="-288" rx="28.7" ry="18"/>
<text text-anchor="middle" x="366.08" y="-284.3" font-family="Times New Roman,serif" font-size="14.00">shaft</text>
</a>
</g>
</g>
<!-- tnut_17&#45;&gt;shaft_21 -->
<g id="edge9" class="edge">
<title>tnut_17&#45;&gt;shaft_21</title>
<path fill="none" stroke="black" d="M255.37,-266.02C275.92,-270.13 305.31,-276.02 328.5,-280.67"/>
<polygon fill="black" stroke="black" points="327.85,-284.11 338.34,-282.64 329.22,-277.25 327.85,-284.11"/>
</g>
<!-- shaft_extension_22 -->
<g id="node11" class="node">
<title>shaft_extension_22</title>
<g id="a_node11"><a xlink:href="javascript:s=&quot;\(&#x27;default&#x27;,\ &#x27;tnut&#x27;,\ &#x27;shaft_extension&#x27;\)\nCylinder&quot;; console.log(s); alert(s);" xlink:title="Cylinder">
<ellipse fill="none" stroke="black" cx="366.08" cy="-234" rx="67.69" ry="18"/>
<text text-anchor="middle" x="366.08" y="-230.3" font-family="Times New Roman,serif" font-size="14.00">shaft_extension</text>
</a>
</g>
</g>
<!-- tnut_17&#45;&gt;shaft_extension_22 -->
<g id="edge10" class="edge">
<title>tnut_17&#45;&gt;shaft_extension_22</title>
<path fill="none" stroke="black" d="M255.37,-255.98C268.41,-253.37 285.02,-250.04 301.35,-246.77"/>
<polygon fill="black" stroke="black" points="302.32,-250.15 311.44,-244.75 300.95,-243.28 302.32,-250.15"/>
</g>
<!-- wing_23 -->
<g id="node12" class="node">
<title>wing_23</title>
<g id="a_node12"><a xlink:href="javascript:s=&quot;\(&#x27;default&#x27;,\ &#x27;tnut&#x27;,\ \(&#x27;wing&#x27;,\ 0\)\)\nBox&quot;; console.log(s); alert(s);" xlink:title="Box">
<ellipse fill="none" stroke="black" cx="366.08" cy="-180" rx="46.59" ry="18"/>
<text text-anchor="middle" x="366.08" y="-176.3" font-family="Times New Roman,serif" font-size="14.00">(&#39;wing&#39;, 0)</text>
</a>
</g>
</g>
<!-- tnut_17&#45;&gt;wing_23 -->
<g id="edge11" class="edge">
<title>tnut_17&#45;&gt;wing_23</title>
<path fill="none" stroke="black" d="M245.92,-246.52C259.16,-234.76 279.05,-218.32 298.49,-207 305.61,-202.85 313.5,-199.04 321.28,-195.67"/>
<polygon fill="black" stroke="black" points="322.76,-198.85 330.66,-191.79 320.08,-192.38 322.76,-198.85"/>
</g>
<!-- wing_24 -->
<g id="node13" class="node">
<title>wing_24</title>
<g id="a_node13"><a xlink:href="javascript:s=&quot;\(&#x27;default&#x27;,\ &#x27;tnut&#x27;,\ \(&#x27;wing&#x27;,\ 1\)\)\nBox&quot;; console.log(s); alert(s);" xlink:title="Box">
<ellipse fill="none" stroke="black" cx="366.08" cy="-126" rx="46.59" ry="18"/>
<text text-anchor="middle" x="366.08" y="-122.3" font-family="Times New Roman,serif" font-size="14.00">(&#39;wing&#39;, 1)</text>
</a>
</g>
</g>
<!-- tnut_17&#45;&gt;wing_24 -->
<g id="edge12" class="edge">
<title>tnut_17&#45;&gt;wing_24</title>
<path fill="none" stroke="black" d="M237.2,-243.69C247.33,-220.17 268.39,-178.18 298.49,-153 304.28,-148.16 311.05,-144.1 318.02,-140.72"/>
<polygon fill="black" stroke="black" points="319.82,-143.75 327.57,-136.52 317,-137.34 319.82,-143.75"/>
</g>
<!-- wing_25 -->
<g id="node14" class="node">
<title>wing_25</title>
<g id="a_node14"><a xlink:href="javascript:s=&quot;\(&#x27;default&#x27;,\ &#x27;tnut&#x27;,\ \(&#x27;wing&#x27;,\ 2\)\)\nBox&quot;; console.log(s); alert(s);" xlink:title="Box">
<ellipse fill="none" stroke="black" cx="366.08" cy="-72" rx="46.59" ry="18"/>
<text text-anchor="middle" x="366.08" y="-68.3" font-family="Times New Roman,serif" font-size="14.00">(&#39;wing&#39;, 2)</text>
</a>
</g>
</g>
<!-- tnut_17&#45;&gt;wing_25 -->
<g id="edge13" class="edge">
<title>tnut_17&#45;&gt;wing_25</title>
<path fill="none" stroke="black" d="M233.22,-243.15C239.4,-210.34 256.9,-140.05 298.49,-99 303.8,-93.76 310.26,-89.49 317.05,-86.03"/>
<polygon fill="black" stroke="black" points="318.76,-89.1 326.43,-81.8 315.88,-82.72 318.76,-89.1"/>
</g>
<!-- wing_26 -->
<g id="node15" class="node">
<title>wing_26</title>
<g id="a_node15"><a xlink:href="javascript:s=&quot;\(&#x27;default&#x27;,\ &#x27;tnut&#x27;,\ \(&#x27;wing&#x27;,\ 3\)\)\nBox&quot;; console.log(s); alert(s);" xlink:title="Box">
<ellipse fill="none" stroke="black" cx="366.08" cy="-18" rx="46.59" ry="18"/>
<text text-anchor="middle" x="366.08" y="-14.3" font-family="Times New Roman,serif" font-size="14.00">(&#39;wing&#39;, 3)</text>
</a>
</g>
</g>
<!-- tnut_17&#45;&gt;wing_26 -->
<g id="edge14" class="edge">
<title>tnut_17&#45;&gt;wing_26</title>
<path fill="none" stroke="black" d="M231.04,-242.81C233.55,-202.11 245.13,-102.78 298.49,-45 303.55,-39.52 309.88,-35.12 316.61,-31.61"/>
<polygon fill="black" stroke="black" points="318.32,-34.68 325.96,-27.34 315.41,-28.31 318.32,-34.68"/>
</g>
</g>
</svg>
