<?xml version="1.0" encoding="UTF-8" standalone="no"?>
<!DOCTYPE svg PUBLIC "-//W3C//DTD SVG 1.1//EN"
 "http://www.w3.org/Graphics/SVG/1.1/DTD/svg11.dtd">
<!-- Generated by graphviz version 5.0.0 (20220707.1540)
 -->
<!-- Title: default Pages: 1 -->
<svg width="582pt" height="1758pt"
 viewBox="0.00 0.00 581.67 1758.00" xmlns="http://www.w3.org/2000/svg" xmlns:xlink="http://www.w3.org/1999/xlink">
<g id="graph0" class="graph" transform="scale(1 1) rotate(0) translate(4 1754)">
<title>default</title>
<polygon fill="white" stroke="transparent" points="-4,4 -4,-1754 577.67,-1754 577.67,4 -4,4"/>
<!-- root_1 -->
<g id="node1" class="node">
<title>root_1</title>
<g id="a_node1"><a xlink:href="javascript:s=&quot;\(\)\nNone&quot;; console.log(s); alert(s);" xlink:title="root">
<ellipse fill="none" stroke="black" cx="27" cy="-1367" rx="27" ry="18"/>
<text text-anchor="middle" x="27" y="-1363.3" font-family="Times New Roman,serif" font-size="14.00">root</text>
</a>
</g>
</g>
<!-- default_2 -->
<g id="node2" class="node">
<title>default_2</title>
<g id="a_node2"><a xlink:href="javascript:s=&quot;\(&#x27;default&#x27;,\)\nFanVent&quot;; console.log(s); alert(s);" xlink:title="FanVent">
<ellipse fill="none" stroke="black" cx="125.1" cy="-1367" rx="35.19" ry="18"/>
<text text-anchor="middle" x="125.1" y="-1363.3" font-family="Times New Roman,serif" font-size="14.00">default</text>
</a>
</g>
</g>
<!-- root_1&#45;&gt;default_2 -->
<g id="edge1" class="edge">
<title>root_1&#45;&gt;default_2</title>
<path fill="none" stroke="black" d="M54.01,-1367C61.92,-1367 70.84,-1367 79.61,-1367"/>
<polygon fill="black" stroke="black" points="79.76,-1370.5 89.76,-1367 79.76,-1363.5 79.76,-1370.5"/>
</g>
<!-- fan_3 -->
<g id="node3" class="node">
<title>fan_3</title>
<g id="a_node3"><a xlink:href="javascript:s=&quot;\(&#x27;default&#x27;,\ &#x27;fan&#x27;\)\nBox&quot;; console.log(s); alert(s);" xlink:title="Box">
<ellipse fill="none" stroke="black" cx="250.14" cy="-1529" rx="27" ry="18"/>
<text text-anchor="middle" x="250.14" y="-1525.3" font-family="Times New Roman,serif" font-size="14.00">fan</text>
</a>
</g>
</g>
<!-- default_2&#45;&gt;fan_3 -->
<g id="edge2" class="edge">
<title>default_2&#45;&gt;fan_3</title>
<path fill="none" stroke="black" d="M131.43,-1384.91C140.58,-1413 161.71,-1467.77 196.19,-1502 202.01,-1507.78 209.32,-1512.57 216.63,-1516.43"/>
<polygon fill="black" stroke="black" points="215.25,-1519.65 225.78,-1520.83 218.28,-1513.34 215.25,-1519.65"/>
</g>
<!-- screw_cage_4 -->
<g id="node4" class="node">
<title>screw_cage_4</title>
<g id="a_node4"><a xlink:href="javascript:s=&quot;\(&#x27;default&#x27;,\ &#x27;screw_cage&#x27;\)\nBox&quot;; console.log(s); alert(s);" xlink:title="Box">
<ellipse fill="none" stroke="black" cx="250.14" cy="-1475" rx="53.89" ry="18"/>
<text text-anchor="middle" x="250.14" y="-1471.3" font-family="Times New Roman,serif" font-size="14.00">screw_cage</text>
</a>
</g>
</g>
<!-- default_2&#45;&gt;screw_cage_4 -->
<g id="edge3" class="edge">
<title>default_2&#45;&gt;screw_cage_4</title>
<path fill="none" stroke="black" d="M137.68,-1383.9C150.44,-1401.58 172.33,-1429.31 196.19,-1448 199.76,-1450.8 203.67,-1453.43 207.68,-1455.87"/>
<polygon fill="black" stroke="black" points="206.15,-1459.02 216.58,-1460.9 209.6,-1452.93 206.15,-1459.02"/>
</g>
<!-- mount_5 -->
<g id="node5" class="node">
<title>mount_5</title>
<g id="a_node5"><a xlink:href="javascript:s=&quot;\(&#x27;default&#x27;,\ \(&#x27;mount&#x27;,\ 0\)\)\nPipe&quot;; console.log(s); alert(s);" xlink:title="Pipe">
<ellipse fill="none" stroke="black" cx="250.14" cy="-1421" rx="52.79" ry="18"/>
<text text-anchor="middle" x="250.14" y="-1417.3" font-family="Times New Roman,serif" font-size="14.00">(&#39;mount&#39;, 0)</text>
</a>
</g>
</g>
<!-- default_2&#45;&gt;mount_5 -->
<g id="edge4" class="edge">
<title>default_2&#45;&gt;mount_5</title>
<path fill="none" stroke="black" d="M152.19,-1378.45C168.29,-1385.52 189.3,-1394.74 207.64,-1402.79"/>
<polygon fill="black" stroke="black" points="206.39,-1406.06 216.95,-1406.87 209.2,-1399.65 206.39,-1406.06"/>
</g>
<!-- mount_12 -->
<g id="node12" class="node">
<title>mount_12</title>
<g id="a_node12"><a xlink:href="javascript:s=&quot;\(&#x27;default&#x27;,\ \(&#x27;mount&#x27;,\ 1\)\)\nPipe&quot;; console.log(s); alert(s);" xlink:title="Pipe">
<ellipse fill="none" stroke="black" cx="250.14" cy="-1367" rx="52.79" ry="18"/>
<text text-anchor="middle" x="250.14" y="-1363.3" font-family="Times New Roman,serif" font-size="14.00">(&#39;mount&#39;, 1)</text>
</a>
</g>
</g>
<!-- default_2&#45;&gt;mount_12 -->
<g id="edge11" class="edge">
<title>default_2&#45;&gt;mount_12</title>
<path fill="none" stroke="black" d="M160.37,-1367C168.64,-1367 177.73,-1367 186.84,-1367"/>
<polygon fill="black" stroke="black" points="187.09,-1370.5 197.09,-1367 187.09,-1363.5 187.09,-1370.5"/>
</g>
<!-- mount_19 -->
<g id="node19" class="node">
<title>mount_19</title>
<g id="a_node19"><a xlink:href="javascript:s=&quot;\(&#x27;default&#x27;,\ \(&#x27;mount&#x27;,\ 2\)\)\nPipe&quot;; console.log(s); alert(s);" xlink:title="Pipe">
<ellipse fill="none" stroke="black" cx="250.14" cy="-1286" rx="52.79" ry="18"/>
<text text-anchor="middle" x="250.14" y="-1282.3" font-family="Times New Roman,serif" font-size="14.00">(&#39;mount&#39;, 2)</text>
</a>
</g>
</g>
<!-- default_2&#45;&gt;mount_19 -->
<g id="edge18" class="edge">
<title>default_2&#45;&gt;mount_19</title>
<path fill="none" stroke="black" d="M147.53,-1352.89C166.53,-1340.38 194.57,-1321.92 216.38,-1307.56"/>
<polygon fill="black" stroke="black" points="218.58,-1310.31 225,-1301.89 214.73,-1304.46 218.58,-1310.31"/>
</g>
<!-- mount_26 -->
<g id="node26" class="node">
<title>mount_26</title>
<g id="a_node26"><a xlink:href="javascript:s=&quot;\(&#x27;default&#x27;,\ \(&#x27;mount&#x27;,\ 3\)\)\nPipe&quot;; console.log(s); alert(s);" xlink:title="Pipe">
<ellipse fill="none" stroke="black" cx="250.14" cy="-1071" rx="52.79" ry="18"/>
<text text-anchor="middle" x="250.14" y="-1067.3" font-family="Times New Roman,serif" font-size="14.00">(&#39;mount&#39;, 3)</text>
</a>
</g>
</g>
<!-- default_2&#45;&gt;mount_26 -->
<g id="edge25" class="edge">
<title>default_2&#45;&gt;mount_26</title>
<path fill="none" stroke="black" d="M133.43,-1349.37C154.06,-1299.72 212.79,-1158.45 237.72,-1098.47"/>
<polygon fill="black" stroke="black" points="241.09,-1099.49 241.69,-1088.91 234.62,-1096.8 241.09,-1099.49"/>
</g>
<!-- grille_33 -->
<g id="node33" class="node">
<title>grille_33</title>
<g id="a_node33"><a xlink:href="javascript:s=&quot;\(&#x27;default&#x27;,\ &#x27;grille&#x27;\)\nCurlySpokes&quot;; console.log(s); alert(s);" xlink:title="CurlySpokes">
<ellipse fill="none" stroke="black" cx="250.14" cy="-504" rx="27.9" ry="18"/>
<text text-anchor="middle" x="250.14" y="-500.3" font-family="Times New Roman,serif" font-size="14.00">grille</text>
</a>
</g>
</g>
<!-- default_2&#45;&gt;grille_33 -->
<g id="edge32" class="edge">
<title>default_2&#45;&gt;grille_33</title>
<path fill="none" stroke="black" d="M128.67,-1348.98C144.24,-1239.73 225.96,-666.54 245.12,-532.2"/>
<polygon fill="black" stroke="black" points="248.64,-532.32 246.58,-521.93 241.71,-531.33 248.64,-532.32"/>
</g>
<!-- outer_6 -->
<g id="node6" class="node">
<title>outer_6</title>
<g id="a_node6"><a xlink:href="javascript:s=&quot;\(&#x27;default&#x27;,\ \(&#x27;mount&#x27;,\ 0\),\ &#x27;outer&#x27;\)\nPie&quot;; console.log(s); alert(s);" xlink:title="Pie">
<ellipse fill="none" stroke="black" cx="395.98" cy="-1678" rx="29.5" ry="18"/>
<text text-anchor="middle" x="395.98" y="-1674.3" font-family="Times New Roman,serif" font-size="14.00">outer</text>
</a>
</g>
</g>
<!-- mount_5&#45;&gt;outer_6 -->
<g id="edge5" class="edge">
<title>mount_5&#45;&gt;outer_6</title>
<path fill="none" stroke="black" d="M287.02,-1433.91C293.45,-1437.61 299.55,-1442.25 304.08,-1448 346.29,-1501.48 312.53,-1534.69 340.08,-1597 349.18,-1617.58 363.57,-1638.55 375.33,-1654"/>
<polygon fill="black" stroke="black" points="372.63,-1656.23 381.54,-1661.97 378.15,-1651.93 372.63,-1656.23"/>
</g>
<!-- inner_9 -->
<g id="node9" class="node">
<title>inner_9</title>
<g id="a_node9"><a xlink:href="javascript:s=&quot;\(&#x27;default&#x27;,\ \(&#x27;mount&#x27;,\ 0\),\ &#x27;inner&#x27;\)\nPie&quot;; console.log(s); alert(s);" xlink:title="Pie">
<ellipse fill="none" stroke="black" cx="395.98" cy="-1570" rx="28.7" ry="18"/>
<text text-anchor="middle" x="395.98" y="-1566.3" font-family="Times New Roman,serif" font-size="14.00">inner</text>
</a>
</g>
</g>
<!-- mount_5&#45;&gt;inner_9 -->
<g id="edge8" class="edge">
<title>mount_5&#45;&gt;inner_9</title>
<path fill="none" stroke="black" d="M284.25,-1434.92C291.18,-1438.62 298.17,-1443.01 304.08,-1448 321.63,-1462.81 357.26,-1513.76 378.32,-1544.94"/>
<polygon fill="black" stroke="black" points="375.62,-1547.2 384.1,-1553.55 381.43,-1543.29 375.62,-1547.2"/>
</g>
<!-- pie_cage_7 -->
<g id="node7" class="node">
<title>pie_cage_7</title>
<g id="a_node7"><a xlink:href="javascript:s=&quot;\(&#x27;default&#x27;,\ \(&#x27;mount&#x27;,\ 0\),\ &#x27;outer&#x27;,\ &#x27;pie_cage&#x27;\)\nCylinder&quot;; console.log(s); alert(s);" xlink:title="Cylinder">
<ellipse fill="none" stroke="black" cx="530.77" cy="-1732" rx="42.79" ry="18"/>
<text text-anchor="middle" x="530.77" y="-1728.3" font-family="Times New Roman,serif" font-size="14.00">pie_cage</text>
</a>
</g>
</g>
<!-- outer_6&#45;&gt;pie_cage_7 -->
<g id="edge6" class="edge">
<title>outer_6&#45;&gt;pie_cage_7</title>
<path fill="none" stroke="black" d="M420.72,-1687.65C439.91,-1695.46 467.35,-1706.62 489.9,-1715.79"/>
<polygon fill="black" stroke="black" points="488.64,-1719.05 499.22,-1719.58 491.28,-1712.57 488.64,-1719.05"/>
</g>
<!-- pie_8 -->
<g id="node8" class="node">
<title>pie_8</title>
<g id="a_node8"><a xlink:href="javascript:s=&quot;\(&#x27;default&#x27;,\ \(&#x27;mount&#x27;,\ 0\),\ &#x27;outer&#x27;,\ &#x27;pie&#x27;\)\nRotateExtrude&quot;; console.log(s); alert(s);" xlink:title="RotateExtrude">
<ellipse fill="none" stroke="black" cx="530.77" cy="-1678" rx="27" ry="18"/>
<text text-anchor="middle" x="530.77" y="-1674.3" font-family="Times New Roman,serif" font-size="14.00">pie</text>
</a>
</g>
</g>
<!-- outer_6&#45;&gt;pie_8 -->
<g id="edge7" class="edge">
<title>outer_6&#45;&gt;pie_8</title>
<path fill="none" stroke="black" d="M425.47,-1678C445.38,-1678 472.12,-1678 493.55,-1678"/>
<polygon fill="black" stroke="black" points="493.58,-1681.5 503.58,-1678 493.58,-1674.5 493.58,-1681.5"/>
</g>
<!-- pie_cage_10 -->
<g id="node10" class="node">
<title>pie_cage_10</title>
<g id="a_node10"><a xlink:href="javascript:s=&quot;\(&#x27;default&#x27;,\ \(&#x27;mount&#x27;,\ 0\),\ &#x27;inner&#x27;,\ &#x27;pie_cage&#x27;\)\nCylinder&quot;; console.log(s); alert(s);" xlink:title="Cylinder">
<ellipse fill="none" stroke="black" cx="530.77" cy="-1624" rx="42.79" ry="18"/>
<text text-anchor="middle" x="530.77" y="-1620.3" font-family="Times New Roman,serif" font-size="14.00">pie_cage</text>
</a>
</g>
</g>
<!-- inner_9&#45;&gt;pie_cage_10 -->
<g id="edge9" class="edge">
<title>inner_9&#45;&gt;pie_cage_10</title>
<path fill="none" stroke="black" d="M420.41,-1579.53C439.57,-1587.32 467.08,-1598.51 489.72,-1607.71"/>
<polygon fill="black" stroke="black" points="488.5,-1611 499.08,-1611.52 491.14,-1604.51 488.5,-1611"/>
</g>
<!-- pie_11 -->
<g id="node11" class="node">
<title>pie_11</title>
<g id="a_node11"><a xlink:href="javascript:s=&quot;\(&#x27;default&#x27;,\ \(&#x27;mount&#x27;,\ 0\),\ &#x27;inner&#x27;,\ &#x27;pie&#x27;\)\nRotateExtrude&quot;; console.log(s); alert(s);" xlink:title="RotateExtrude">
<ellipse fill="none" stroke="black" cx="530.77" cy="-1570" rx="27" ry="18"/>
<text text-anchor="middle" x="530.77" y="-1566.3" font-family="Times New Roman,serif" font-size="14.00">pie</text>
</a>
</g>
</g>
<!-- inner_9&#45;&gt;pie_11 -->
<g id="edge10" class="edge">
<title>inner_9&#45;&gt;pie_11</title>
<path fill="none" stroke="black" d="M424.82,-1570C444.69,-1570 471.6,-1570 493.2,-1570"/>
<polygon fill="black" stroke="black" points="493.33,-1573.5 503.33,-1570 493.33,-1566.5 493.33,-1573.5"/>
</g>
<!-- outer_13 -->
<g id="node13" class="node">
<title>outer_13</title>
<g id="a_node13"><a xlink:href="javascript:s=&quot;\(&#x27;default&#x27;,\ \(&#x27;mount&#x27;,\ 1\),\ &#x27;outer&#x27;\)\nPie&quot;; console.log(s); alert(s);" xlink:title="Pie">
<ellipse fill="none" stroke="black" cx="395.98" cy="-1462" rx="29.5" ry="18"/>
<text text-anchor="middle" x="395.98" y="-1458.3" font-family="Times New Roman,serif" font-size="14.00">outer</text>
</a>
</g>
</g>
<!-- mount_12&#45;&gt;outer_13 -->
<g id="edge12" class="edge">
<title>mount_12&#45;&gt;outer_13</title>
<path fill="none" stroke="black" d="M281.87,-1381.55C289.28,-1385.36 297.08,-1389.64 304.08,-1394 327.23,-1408.41 351.91,-1427.11 369.7,-1441.25"/>
<polygon fill="black" stroke="black" points="367.86,-1444.26 377.85,-1447.79 372.24,-1438.8 367.86,-1444.26"/>
</g>
<!-- inner_16 -->
<g id="node16" class="node">
<title>inner_16</title>
<g id="a_node16"><a xlink:href="javascript:s=&quot;\(&#x27;default&#x27;,\ \(&#x27;mount&#x27;,\ 1\),\ &#x27;inner&#x27;\)\nPie&quot;; console.log(s); alert(s);" xlink:title="Pie">
<ellipse fill="none" stroke="black" cx="395.98" cy="-1367" rx="28.7" ry="18"/>
<text text-anchor="middle" x="395.98" y="-1363.3" font-family="Times New Roman,serif" font-size="14.00">inner</text>
</a>
</g>
</g>
<!-- mount_12&#45;&gt;inner_16 -->
<g id="edge15" class="edge">
<title>mount_12&#45;&gt;inner_16</title>
<path fill="none" stroke="black" d="M303.07,-1367C320.89,-1367 340.49,-1367 357,-1367"/>
<polygon fill="black" stroke="black" points="357.35,-1370.5 367.35,-1367 357.35,-1363.5 357.35,-1370.5"/>
</g>
<!-- pie_cage_14 -->
<g id="node14" class="node">
<title>pie_cage_14</title>
<g id="a_node14"><a xlink:href="javascript:s=&quot;\(&#x27;default&#x27;,\ \(&#x27;mount&#x27;,\ 1\),\ &#x27;outer&#x27;,\ &#x27;pie_cage&#x27;\)\nCylinder&quot;; console.log(s); alert(s);" xlink:title="Cylinder">
<ellipse fill="none" stroke="black" cx="530.77" cy="-1516" rx="42.79" ry="18"/>
<text text-anchor="middle" x="530.77" y="-1512.3" font-family="Times New Roman,serif" font-size="14.00">pie_cage</text>
</a>
</g>
</g>
<!-- outer_13&#45;&gt;pie_cage_14 -->
<g id="edge13" class="edge">
<title>outer_13&#45;&gt;pie_cage_14</title>
<path fill="none" stroke="black" d="M420.72,-1471.65C439.91,-1479.46 467.35,-1490.62 489.9,-1499.79"/>
<polygon fill="black" stroke="black" points="488.64,-1503.05 499.22,-1503.58 491.28,-1496.57 488.64,-1503.05"/>
</g>
<!-- pie_15 -->
<g id="node15" class="node">
<title>pie_15</title>
<g id="a_node15"><a xlink:href="javascript:s=&quot;\(&#x27;default&#x27;,\ \(&#x27;mount&#x27;,\ 1\),\ &#x27;outer&#x27;,\ &#x27;pie&#x27;\)\nRotateExtrude&quot;; console.log(s); alert(s);" xlink:title="RotateExtrude">
<ellipse fill="none" stroke="black" cx="530.77" cy="-1462" rx="27" ry="18"/>
<text text-anchor="middle" x="530.77" y="-1458.3" font-family="Times New Roman,serif" font-size="14.00">pie</text>
</a>
</g>
</g>
<!-- outer_13&#45;&gt;pie_15 -->
<g id="edge14" class="edge">
<title>outer_13&#45;&gt;pie_15</title>
<path fill="none" stroke="black" d="M425.47,-1462C445.38,-1462 472.12,-1462 493.55,-1462"/>
<polygon fill="black" stroke="black" points="493.58,-1465.5 503.58,-1462 493.58,-1458.5 493.58,-1465.5"/>
</g>
<!-- pie_cage_17 -->
<g id="node17" class="node">
<title>pie_cage_17</title>
<g id="a_node17"><a xlink:href="javascript:s=&quot;\(&#x27;default&#x27;,\ \(&#x27;mount&#x27;,\ 1\),\ &#x27;inner&#x27;,\ &#x27;pie_cage&#x27;\)\nCylinder&quot;; console.log(s); alert(s);" xlink:title="Cylinder">
<ellipse fill="none" stroke="black" cx="530.77" cy="-1408" rx="42.79" ry="18"/>
<text text-anchor="middle" x="530.77" y="-1404.3" font-family="Times New Roman,serif" font-size="14.00">pie_cage</text>
</a>
</g>
</g>
<!-- inner_16&#45;&gt;pie_cage_17 -->
<g id="edge16" class="edge">
<title>inner_16&#45;&gt;pie_cage_17</title>
<path fill="none" stroke="black" d="M421.96,-1374.71C439.86,-1380.24 464.45,-1387.83 485.62,-1394.37"/>
<polygon fill="black" stroke="black" points="484.8,-1397.78 495.38,-1397.38 486.86,-1391.09 484.8,-1397.78"/>
</g>
<!-- pie_18 -->
<g id="node18" class="node">
<title>pie_18</title>
<g id="a_node18"><a xlink:href="javascript:s=&quot;\(&#x27;default&#x27;,\ \(&#x27;mount&#x27;,\ 1\),\ &#x27;inner&#x27;,\ &#x27;pie&#x27;\)\nRotateExtrude&quot;; console.log(s); alert(s);" xlink:title="RotateExtrude">
<ellipse fill="none" stroke="black" cx="530.77" cy="-1354" rx="27" ry="18"/>
<text text-anchor="middle" x="530.77" y="-1350.3" font-family="Times New Roman,serif" font-size="14.00">pie</text>
</a>
</g>
</g>
<!-- inner_16&#45;&gt;pie_18 -->
<g id="edge17" class="edge">
<title>inner_16&#45;&gt;pie_18</title>
<path fill="none" stroke="black" d="M424.49,-1364.31C444.47,-1362.35 471.7,-1359.69 493.46,-1357.55"/>
<polygon fill="black" stroke="black" points="494.04,-1361.02 503.65,-1356.56 493.35,-1354.05 494.04,-1361.02"/>
</g>
<!-- outer_20 -->
<g id="node20" class="node">
<title>outer_20</title>
<g id="a_node20"><a xlink:href="javascript:s=&quot;\(&#x27;default&#x27;,\ \(&#x27;mount&#x27;,\ 2\),\ &#x27;outer&#x27;\)\nPie&quot;; console.log(s); alert(s);" xlink:title="Pie">
<ellipse fill="none" stroke="black" cx="395.98" cy="-1286" rx="29.5" ry="18"/>
<text text-anchor="middle" x="395.98" y="-1282.3" font-family="Times New Roman,serif" font-size="14.00">outer</text>
</a>
</g>
</g>
<!-- mount_19&#45;&gt;outer_20 -->
<g id="edge19" class="edge">
<title>mount_19&#45;&gt;outer_20</title>
<path fill="none" stroke="black" d="M303.07,-1286C320.63,-1286 339.91,-1286 356.27,-1286"/>
<polygon fill="black" stroke="black" points="356.54,-1289.5 366.54,-1286 356.54,-1282.5 356.54,-1289.5"/>
</g>
<!-- inner_23 -->
<g id="node23" class="node">
<title>inner_23</title>
<g id="a_node23"><a xlink:href="javascript:s=&quot;\(&#x27;default&#x27;,\ \(&#x27;mount&#x27;,\ 2\),\ &#x27;inner&#x27;\)\nPie&quot;; console.log(s); alert(s);" xlink:title="Pie">
<ellipse fill="none" stroke="black" cx="395.98" cy="-1192" rx="28.7" ry="18"/>
<text text-anchor="middle" x="395.98" y="-1188.3" font-family="Times New Roman,serif" font-size="14.00">inner</text>
</a>
</g>
</g>
<!-- mount_19&#45;&gt;inner_23 -->
<g id="edge22" class="edge">
<title>mount_19&#45;&gt;inner_23</title>
<path fill="none" stroke="black" d="M275.54,-1270.05C300.89,-1253.49 340.49,-1227.61 367.07,-1210.24"/>
<polygon fill="black" stroke="black" points="369.09,-1213.1 375.54,-1204.7 365.26,-1207.24 369.09,-1213.1"/>
</g>
<!-- pie_cage_21 -->
<g id="node21" class="node">
<title>pie_cage_21</title>
<g id="a_node21"><a xlink:href="javascript:s=&quot;\(&#x27;default&#x27;,\ \(&#x27;mount&#x27;,\ 2\),\ &#x27;outer&#x27;,\ &#x27;pie_cage&#x27;\)\nCylinder&quot;; console.log(s); alert(s);" xlink:title="Cylinder">
<ellipse fill="none" stroke="black" cx="530.77" cy="-1300" rx="42.79" ry="18"/>
<text text-anchor="middle" x="530.77" y="-1296.3" font-family="Times New Roman,serif" font-size="14.00">pie_cage</text>
</a>
</g>
</g>
<!-- outer_20&#45;&gt;pie_cage_21 -->
<g id="edge20" class="edge">
<title>outer_20&#45;&gt;pie_cage_21</title>
<path fill="none" stroke="black" d="M425.14,-1288.97C440.81,-1290.62 460.8,-1292.73 479.1,-1294.66"/>
<polygon fill="black" stroke="black" points="478.74,-1298.14 489.05,-1295.71 479.47,-1291.18 478.74,-1298.14"/>
</g>
<!-- pie_22 -->
<g id="node22" class="node">
<title>pie_22</title>
<g id="a_node22"><a xlink:href="javascript:s=&quot;\(&#x27;default&#x27;,\ \(&#x27;mount&#x27;,\ 2\),\ &#x27;outer&#x27;,\ &#x27;pie&#x27;\)\nRotateExtrude&quot;; console.log(s); alert(s);" xlink:title="RotateExtrude">
<ellipse fill="none" stroke="black" cx="530.77" cy="-1246" rx="27" ry="18"/>
<text text-anchor="middle" x="530.77" y="-1242.3" font-family="Times New Roman,serif" font-size="14.00">pie</text>
</a>
</g>
</g>
<!-- outer_20&#45;&gt;pie_22 -->
<g id="edge21" class="edge">
<title>outer_20&#45;&gt;pie_22</title>
<path fill="none" stroke="black" d="M422.58,-1278.29C443.46,-1272 473.12,-1263.06 495.95,-1256.19"/>
<polygon fill="black" stroke="black" points="497.02,-1259.52 505.59,-1253.28 495,-1252.82 497.02,-1259.52"/>
</g>
<!-- pie_cage_24 -->
<g id="node24" class="node">
<title>pie_cage_24</title>
<g id="a_node24"><a xlink:href="javascript:s=&quot;\(&#x27;default&#x27;,\ \(&#x27;mount&#x27;,\ 2\),\ &#x27;inner&#x27;,\ &#x27;pie_cage&#x27;\)\nCylinder&quot;; console.log(s); alert(s);" xlink:title="Cylinder">
<ellipse fill="none" stroke="black" cx="530.77" cy="-1192" rx="42.79" ry="18"/>
<text text-anchor="middle" x="530.77" y="-1188.3" font-family="Times New Roman,serif" font-size="14.00">pie_cage</text>
</a>
</g>
</g>
<!-- inner_23&#45;&gt;pie_cage_24 -->
<g id="edge23" class="edge">
<title>inner_23&#45;&gt;pie_cage_24</title>
<path fill="none" stroke="black" d="M424.82,-1192C440.15,-1192 459.67,-1192 477.71,-1192"/>
<polygon fill="black" stroke="black" points="477.83,-1195.5 487.83,-1192 477.83,-1188.5 477.83,-1195.5"/>
</g>
<!-- pie_25 -->
<g id="node25" class="node">
<title>pie_25</title>
<g id="a_node25"><a xlink:href="javascript:s=&quot;\(&#x27;default&#x27;,\ \(&#x27;mount&#x27;,\ 2\),\ &#x27;inner&#x27;,\ &#x27;pie&#x27;\)\nRotateExtrude&quot;; console.log(s); alert(s);" xlink:title="RotateExtrude">
<ellipse fill="none" stroke="black" cx="530.77" cy="-1138" rx="27" ry="18"/>
<text text-anchor="middle" x="530.77" y="-1134.3" font-family="Times New Roman,serif" font-size="14.00">pie</text>
</a>
</g>
</g>
<!-- inner_23&#45;&gt;pie_25 -->
<g id="edge24" class="edge">
<title>inner_23&#45;&gt;pie_25</title>
<path fill="none" stroke="black" d="M420.41,-1182.47C441.88,-1173.74 473.84,-1160.74 497.67,-1151.05"/>
<polygon fill="black" stroke="black" points="499.07,-1154.26 507.01,-1147.25 496.43,-1147.78 499.07,-1154.26"/>
</g>
<!-- outer_27 -->
<g id="node27" class="node">
<title>outer_27</title>
<g id="a_node27"><a xlink:href="javascript:s=&quot;\(&#x27;default&#x27;,\ \(&#x27;mount&#x27;,\ 3\),\ &#x27;outer&#x27;\)\nPie&quot;; console.log(s); alert(s);" xlink:title="Pie">
<ellipse fill="none" stroke="black" cx="395.98" cy="-1071" rx="29.5" ry="18"/>
<text text-anchor="middle" x="395.98" y="-1067.3" font-family="Times New Roman,serif" font-size="14.00">outer</text>
</a>
</g>
</g>
<!-- mount_26&#45;&gt;outer_27 -->
<g id="edge26" class="edge">
<title>mount_26&#45;&gt;outer_27</title>
<path fill="none" stroke="black" d="M303.07,-1071C320.63,-1071 339.91,-1071 356.27,-1071"/>
<polygon fill="black" stroke="black" points="356.54,-1074.5 366.54,-1071 356.54,-1067.5 356.54,-1074.5"/>
</g>
<!-- inner_30 -->
<g id="node30" class="node">
<title>inner_30</title>
<g id="a_node30"><a xlink:href="javascript:s=&quot;\(&#x27;default&#x27;,\ \(&#x27;mount&#x27;,\ 3\),\ &#x27;inner&#x27;\)\nPie&quot;; console.log(s); alert(s);" xlink:title="Pie">
<ellipse fill="none" stroke="black" cx="395.98" cy="-990" rx="28.7" ry="18"/>
<text text-anchor="middle" x="395.98" y="-986.3" font-family="Times New Roman,serif" font-size="14.00">inner</text>
</a>
</g>
</g>
<!-- mount_26&#45;&gt;inner_30 -->
<g id="edge29" class="edge">
<title>mount_26&#45;&gt;inner_30</title>
<path fill="none" stroke="black" d="M278.19,-1055.76C302.98,-1041.81 339.61,-1021.18 365.22,-1006.76"/>
<polygon fill="black" stroke="black" points="367.11,-1009.71 374.11,-1001.75 363.68,-1003.61 367.11,-1009.71"/>
</g>
<!-- pie_cage_28 -->
<g id="node28" class="node">
<title>pie_cage_28</title>
<g id="a_node28"><a xlink:href="javascript:s=&quot;\(&#x27;default&#x27;,\ \(&#x27;mount&#x27;,\ 3\),\ &#x27;outer&#x27;,\ &#x27;pie_cage&#x27;\)\nCylinder&quot;; console.log(s); alert(s);" xlink:title="Cylinder">
<ellipse fill="none" stroke="black" cx="530.77" cy="-1084" rx="42.79" ry="18"/>
<text text-anchor="middle" x="530.77" y="-1080.3" font-family="Times New Roman,serif" font-size="14.00">pie_cage</text>
</a>
</g>
</g>
<!-- outer_27&#45;&gt;pie_cage_28 -->
<g id="edge27" class="edge">
<title>outer_27&#45;&gt;pie_cage_28</title>
<path fill="none" stroke="black" d="M425.14,-1073.76C440.68,-1075.28 460.45,-1077.21 478.62,-1078.99"/>
<polygon fill="black" stroke="black" points="478.5,-1082.5 488.79,-1079.99 479.18,-1075.53 478.5,-1082.5"/>
</g>
<!-- pie_29 -->
<g id="node29" class="node">
<title>pie_29</title>
<g id="a_node29"><a xlink:href="javascript:s=&quot;\(&#x27;default&#x27;,\ \(&#x27;mount&#x27;,\ 3\),\ &#x27;outer&#x27;,\ &#x27;pie&#x27;\)\nRotateExtrude&quot;; console.log(s); alert(s);" xlink:title="RotateExtrude">
<ellipse fill="none" stroke="black" cx="530.77" cy="-1030" rx="27" ry="18"/>
<text text-anchor="middle" x="530.77" y="-1026.3" font-family="Times New Roman,serif" font-size="14.00">pie</text>
</a>
</g>
</g>
<!-- outer_27&#45;&gt;pie_29 -->
<g id="edge28" class="edge">
<title>outer_27&#45;&gt;pie_29</title>
<path fill="none" stroke="black" d="M422.58,-1063.09C443.59,-1056.61 473.5,-1047.38 496.38,-1040.31"/>
<polygon fill="black" stroke="black" points="497.51,-1043.62 506.03,-1037.33 495.44,-1036.94 497.51,-1043.62"/>
</g>
<!-- pie_cage_31 -->
<g id="node31" class="node">
<title>pie_cage_31</title>
<g id="a_node31"><a xlink:href="javascript:s=&quot;\(&#x27;default&#x27;,\ \(&#x27;mount&#x27;,\ 3\),\ &#x27;inner&#x27;,\ &#x27;pie_cage&#x27;\)\nCylinder&quot;; console.log(s); alert(s);" xlink:title="Cylinder">
<ellipse fill="none" stroke="black" cx="530.77" cy="-976" rx="42.79" ry="18"/>
<text text-anchor="middle" x="530.77" y="-972.3" font-family="Times New Roman,serif" font-size="14.00">pie_cage</text>
</a>
</g>
</g>
<!-- inner_30&#45;&gt;pie_cage_31 -->
<g id="edge30" class="edge">
<title>inner_30&#45;&gt;pie_cage_31</title>
<path fill="none" stroke="black" d="M424.49,-987.1C440.2,-985.44 460.38,-983.32 478.87,-981.37"/>
<polygon fill="black" stroke="black" points="479.35,-984.84 488.93,-980.31 478.61,-977.87 479.35,-984.84"/>
</g>
<!-- pie_32 -->
<g id="node32" class="node">
<title>pie_32</title>
<g id="a_node32"><a xlink:href="javascript:s=&quot;\(&#x27;default&#x27;,\ \(&#x27;mount&#x27;,\ 3\),\ &#x27;inner&#x27;,\ &#x27;pie&#x27;\)\nRotateExtrude&quot;; console.log(s); alert(s);" xlink:title="RotateExtrude">
<ellipse fill="none" stroke="black" cx="530.77" cy="-922" rx="27" ry="18"/>
<text text-anchor="middle" x="530.77" y="-918.3" font-family="Times New Roman,serif" font-size="14.00">pie</text>
</a>
</g>
</g>
<!-- inner_30&#45;&gt;pie_32 -->
<g id="edge31" class="edge">
<title>inner_30&#45;&gt;pie_32</title>
<path fill="none" stroke="black" d="M419.22,-979.23C429.23,-974.34 441.18,-968.44 451.87,-963 467.85,-954.87 485.54,-945.58 500.02,-937.9"/>
<polygon fill="black" stroke="black" points="501.83,-940.9 509.02,-933.12 498.55,-934.72 501.83,-940.9"/>
</g>
<!-- cage_34 -->
<g id="node34" class="node">
<title>cage_34</title>
<g id="a_node34"><a xlink:href="javascript:s=&quot;\(&#x27;default&#x27;,\ &#x27;grille&#x27;,\ &#x27;cage&#x27;\)\nCylinder&quot;; console.log(s); alert(s);" xlink:title="Cylinder">
<ellipse fill="none" stroke="black" cx="395.98" cy="-936" rx="27.1" ry="18"/>
<text text-anchor="middle" x="395.98" y="-932.3" font-family="Times New Roman,serif" font-size="14.00">cage</text>
</a>
</g>
</g>
<!-- grille_33&#45;&gt;cage_34 -->
<g id="edge33" class="edge">
<title>grille_33&#45;&gt;cage_34</title>
<path fill="none" stroke="black" d="M253.02,-522.08C260.65,-592.37 291.22,-846.68 340.08,-909 345.55,-915.97 353.28,-921.26 361.21,-925.23"/>
<polygon fill="black" stroke="black" points="359.94,-928.5 370.5,-929.31 362.75,-922.08 359.94,-928.5"/>
</g>
<!-- spoke_35 -->
<g id="node35" class="node">
<title>spoke_35</title>
<g id="a_node35"><a xlink:href="javascript:s=&quot;\(&#x27;default&#x27;,\ &#x27;grille&#x27;,\ \(&#x27;spoke&#x27;,\ 0\)\)\nLinearExtrude&quot;; console.log(s); alert(s);" xlink:title="LinearExtrude">
<ellipse fill="none" stroke="black" cx="395.98" cy="-882" rx="51.99" ry="18"/>
<text text-anchor="middle" x="395.98" y="-878.3" font-family="Times New Roman,serif" font-size="14.00">(&#39;spoke&#39;, 0)</text>
</a>
</g>
</g>
<!-- grille_33&#45;&gt;spoke_35 -->
<g id="edge34" class="edge">
<title>grille_33&#45;&gt;spoke_35</title>
<path fill="none" stroke="black" d="M250.68,-522.37C250.25,-578.69 256.19,-751.45 340.08,-855 342.79,-858.34 346.02,-861.3 349.53,-863.92"/>
<polygon fill="black" stroke="black" points="347.82,-866.98 358.13,-869.41 351.59,-861.08 347.82,-866.98"/>
</g>
<!-- spoke_36 -->
<g id="node36" class="node">
<title>spoke_36</title>
<g id="a_node36"><a xlink:href="javascript:s=&quot;\(&#x27;default&#x27;,\ &#x27;grille&#x27;,\ \(&#x27;spoke&#x27;,\ 1\)\)\nLinearExtrude&quot;; console.log(s); alert(s);" xlink:title="LinearExtrude">
<ellipse fill="none" stroke="black" cx="395.98" cy="-828" rx="51.99" ry="18"/>
<text text-anchor="middle" x="395.98" y="-824.3" font-family="Times New Roman,serif" font-size="14.00">(&#39;spoke&#39;, 1)</text>
</a>
</g>
</g>
<!-- grille_33&#45;&gt;spoke_36 -->
<g id="edge35" class="edge">
<title>grille_33&#45;&gt;spoke_36</title>
<path fill="none" stroke="black" d="M251.7,-522.03C254.18,-572.2 267.59,-715.33 340.08,-801 342.9,-804.33 346.23,-807.28 349.83,-809.9"/>
<polygon fill="black" stroke="black" points="348.28,-813.06 358.61,-815.41 351.99,-807.13 348.28,-813.06"/>
</g>
<!-- spoke_37 -->
<g id="node37" class="node">
<title>spoke_37</title>
<g id="a_node37"><a xlink:href="javascript:s=&quot;\(&#x27;default&#x27;,\ &#x27;grille&#x27;,\ \(&#x27;spoke&#x27;,\ 2\)\)\nLinearExtrude&quot;; console.log(s); alert(s);" xlink:title="LinearExtrude">
<ellipse fill="none" stroke="black" cx="395.98" cy="-774" rx="51.99" ry="18"/>
<text text-anchor="middle" x="395.98" y="-770.3" font-family="Times New Roman,serif" font-size="14.00">(&#39;spoke&#39;, 2)</text>
</a>
</g>
</g>
<!-- grille_33&#45;&gt;spoke_37 -->
<g id="edge36" class="edge">
<title>grille_33&#45;&gt;spoke_37</title>
<path fill="none" stroke="black" d="M253.16,-522.21C258.91,-566.12 279.11,-679.18 340.08,-747 343.08,-750.33 346.58,-753.3 350.34,-755.93"/>
<polygon fill="black" stroke="black" points="348.52,-758.93 358.88,-761.17 352.18,-752.96 348.52,-758.93"/>
</g>
<!-- spoke_38 -->
<g id="node38" class="node">
<title>spoke_38</title>
<g id="a_node38"><a xlink:href="javascript:s=&quot;\(&#x27;default&#x27;,\ &#x27;grille&#x27;,\ \(&#x27;spoke&#x27;,\ 3\)\)\nLinearExtrude&quot;; console.log(s); alert(s);" xlink:title="LinearExtrude">
<ellipse fill="none" stroke="black" cx="395.98" cy="-720" rx="51.99" ry="18"/>
<text text-anchor="middle" x="395.98" y="-716.3" font-family="Times New Roman,serif" font-size="14.00">(&#39;spoke&#39;, 3)</text>
</a>
</g>
</g>
<!-- grille_33&#45;&gt;spoke_38 -->
<g id="edge37" class="edge">
<title>grille_33&#45;&gt;spoke_38</title>
<path fill="none" stroke="black" d="M255.3,-521.93C264.59,-558.45 290.26,-642.31 340.08,-693 343.27,-696.24 346.92,-699.15 350.8,-701.75"/>
<polygon fill="black" stroke="black" points="349.16,-704.85 359.55,-706.96 352.75,-698.84 349.16,-704.85"/>
</g>
<!-- spoke_39 -->
<g id="node39" class="node">
<title>spoke_39</title>
<g id="a_node39"><a xlink:href="javascript:s=&quot;\(&#x27;default&#x27;,\ &#x27;grille&#x27;,\ \(&#x27;spoke&#x27;,\ 4\)\)\nLinearExtrude&quot;; console.log(s); alert(s);" xlink:title="LinearExtrude">
<ellipse fill="none" stroke="black" cx="395.98" cy="-666" rx="51.99" ry="18"/>
<text text-anchor="middle" x="395.98" y="-662.3" font-family="Times New Roman,serif" font-size="14.00">(&#39;spoke&#39;, 4)</text>
</a>
</g>
</g>
<!-- grille_33&#45;&gt;spoke_39 -->
<g id="edge38" class="edge">
<title>grille_33&#45;&gt;spoke_39</title>
<path fill="none" stroke="black" d="M258.88,-521.47C272.03,-549.45 301.14,-604.66 340.08,-639 343.68,-642.17 347.71,-645.06 351.92,-647.67"/>
<polygon fill="black" stroke="black" points="350.28,-650.77 360.71,-652.64 353.72,-644.67 350.28,-650.77"/>
</g>
<!-- spoke_40 -->
<g id="node40" class="node">
<title>spoke_40</title>
<g id="a_node40"><a xlink:href="javascript:s=&quot;\(&#x27;default&#x27;,\ &#x27;grille&#x27;,\ \(&#x27;spoke&#x27;,\ 5\)\)\nLinearExtrude&quot;; console.log(s); alert(s);" xlink:title="LinearExtrude">
<ellipse fill="none" stroke="black" cx="395.98" cy="-612" rx="51.99" ry="18"/>
<text text-anchor="middle" x="395.98" y="-608.3" font-family="Times New Roman,serif" font-size="14.00">(&#39;spoke&#39;, 5)</text>
</a>
</g>
</g>
<!-- grille_33&#45;&gt;spoke_40 -->
<g id="edge39" class="edge">
<title>grille_33&#45;&gt;spoke_40</title>
<path fill="none" stroke="black" d="M265.46,-519.44C282.19,-536.88 311.26,-565.37 340.08,-585 344.36,-587.91 349,-590.7 353.71,-593.29"/>
<polygon fill="black" stroke="black" points="352.29,-596.5 362.77,-598.04 355.54,-590.3 352.29,-596.5"/>
</g>
<!-- spoke_41 -->
<g id="node41" class="node">
<title>spoke_41</title>
<g id="a_node41"><a xlink:href="javascript:s=&quot;\(&#x27;default&#x27;,\ &#x27;grille&#x27;,\ \(&#x27;spoke&#x27;,\ 6\)\)\nLinearExtrude&quot;; console.log(s); alert(s);" xlink:title="LinearExtrude">
<ellipse fill="none" stroke="black" cx="395.98" cy="-558" rx="51.99" ry="18"/>
<text text-anchor="middle" x="395.98" y="-554.3" font-family="Times New Roman,serif" font-size="14.00">(&#39;spoke&#39;, 6)</text>
</a>
</g>
</g>
<!-- grille_33&#45;&gt;spoke_41 -->
<g id="edge40" class="edge">
<title>grille_33&#45;&gt;spoke_41</title>
<path fill="none" stroke="black" d="M274.57,-512.8C295.02,-520.47 325.26,-531.83 350.32,-541.23"/>
<polygon fill="black" stroke="black" points="349.4,-544.63 359.99,-544.87 351.86,-538.07 349.4,-544.63"/>
</g>
<!-- spoke_42 -->
<g id="node42" class="node">
<title>spoke_42</title>
<g id="a_node42"><a xlink:href="javascript:s=&quot;\(&#x27;default&#x27;,\ &#x27;grille&#x27;,\ \(&#x27;spoke&#x27;,\ 7\)\)\nLinearExtrude&quot;; console.log(s); alert(s);" xlink:title="LinearExtrude">
<ellipse fill="none" stroke="black" cx="395.98" cy="-504" rx="51.99" ry="18"/>
<text text-anchor="middle" x="395.98" y="-500.3" font-family="Times New Roman,serif" font-size="14.00">(&#39;spoke&#39;, 7)</text>
</a>
</g>
</g>
<!-- grille_33&#45;&gt;spoke_42 -->
<g id="edge41" class="edge">
<title>grille_33&#45;&gt;spoke_42</title>
<path fill="none" stroke="black" d="M278.19,-504C293.93,-504 314.43,-504 333.85,-504"/>
<polygon fill="black" stroke="black" points="333.88,-507.5 343.88,-504 333.88,-500.5 333.88,-507.5"/>
</g>
<!-- spoke_43 -->
<g id="node43" class="node">
<title>spoke_43</title>
<g id="a_node43"><a xlink:href="javascript:s=&quot;\(&#x27;default&#x27;,\ &#x27;grille&#x27;,\ \(&#x27;spoke&#x27;,\ 8\)\)\nLinearExtrude&quot;; console.log(s); alert(s);" xlink:title="LinearExtrude">
<ellipse fill="none" stroke="black" cx="395.98" cy="-450" rx="51.99" ry="18"/>
<text text-anchor="middle" x="395.98" y="-446.3" font-family="Times New Roman,serif" font-size="14.00">(&#39;spoke&#39;, 8)</text>
</a>
</g>
</g>
<!-- grille_33&#45;&gt;spoke_43 -->
<g id="edge42" class="edge">
<title>grille_33&#45;&gt;spoke_43</title>
<path fill="none" stroke="black" d="M274.57,-495.2C295.02,-487.53 325.26,-476.17 350.32,-466.77"/>
<polygon fill="black" stroke="black" points="351.86,-469.93 359.99,-463.13 349.4,-463.37 351.86,-469.93"/>
</g>
<!-- spoke_44 -->
<g id="node44" class="node">
<title>spoke_44</title>
<g id="a_node44"><a xlink:href="javascript:s=&quot;\(&#x27;default&#x27;,\ &#x27;grille&#x27;,\ \(&#x27;spoke&#x27;,\ 9\)\)\nLinearExtrude&quot;; console.log(s); alert(s);" xlink:title="LinearExtrude">
<ellipse fill="none" stroke="black" cx="395.98" cy="-396" rx="51.99" ry="18"/>
<text text-anchor="middle" x="395.98" y="-392.3" font-family="Times New Roman,serif" font-size="14.00">(&#39;spoke&#39;, 9)</text>
</a>
</g>
</g>
<!-- grille_33&#45;&gt;spoke_44 -->
<g id="edge43" class="edge">
<title>grille_33&#45;&gt;spoke_44</title>
<path fill="none" stroke="black" d="M265.46,-488.56C282.19,-471.12 311.26,-442.63 340.08,-423 344.36,-420.09 349,-417.3 353.71,-414.71"/>
<polygon fill="black" stroke="black" points="355.54,-417.7 362.77,-409.96 352.29,-411.5 355.54,-417.7"/>
</g>
<!-- spoke_45 -->
<g id="node45" class="node">
<title>spoke_45</title>
<g id="a_node45"><a xlink:href="javascript:s=&quot;\(&#x27;default&#x27;,\ &#x27;grille&#x27;,\ \(&#x27;spoke&#x27;,\ 10\)\)\nLinearExtrude&quot;; console.log(s); alert(s);" xlink:title="LinearExtrude">
<ellipse fill="none" stroke="black" cx="395.98" cy="-342" rx="55.79" ry="18"/>
<text text-anchor="middle" x="395.98" y="-338.3" font-family="Times New Roman,serif" font-size="14.00">(&#39;spoke&#39;, 10)</text>
</a>
</g>
</g>
<!-- grille_33&#45;&gt;spoke_45 -->
<g id="edge44" class="edge">
<title>grille_33&#45;&gt;spoke_45</title>
<path fill="none" stroke="black" d="M258.88,-486.53C272.03,-458.55 301.14,-403.34 340.08,-369 343.45,-366.04 347.19,-363.31 351.1,-360.84"/>
<polygon fill="black" stroke="black" points="352.92,-363.83 359.84,-355.8 349.43,-357.76 352.92,-363.83"/>
</g>
<!-- spoke_46 -->
<g id="node46" class="node">
<title>spoke_46</title>
<g id="a_node46"><a xlink:href="javascript:s=&quot;\(&#x27;default&#x27;,\ &#x27;grille&#x27;,\ \(&#x27;spoke&#x27;,\ 11\)\)\nLinearExtrude&quot;; console.log(s); alert(s);" xlink:title="LinearExtrude">
<ellipse fill="none" stroke="black" cx="395.98" cy="-288" rx="55.79" ry="18"/>
<text text-anchor="middle" x="395.98" y="-284.3" font-family="Times New Roman,serif" font-size="14.00">(&#39;spoke&#39;, 11)</text>
</a>
</g>
</g>
<!-- grille_33&#45;&gt;spoke_46 -->
<g id="edge45" class="edge">
<title>grille_33&#45;&gt;spoke_46</title>
<path fill="none" stroke="black" d="M255.3,-486.07C264.59,-449.55 290.26,-365.69 340.08,-315 343.06,-311.97 346.44,-309.24 350.03,-306.77"/>
<polygon fill="black" stroke="black" points="351.97,-309.69 358.69,-301.5 348.33,-303.71 351.97,-309.69"/>
</g>
<!-- spoke_47 -->
<g id="node47" class="node">
<title>spoke_47</title>
<g id="a_node47"><a xlink:href="javascript:s=&quot;\(&#x27;default&#x27;,\ &#x27;grille&#x27;,\ \(&#x27;spoke&#x27;,\ 12\)\)\nLinearExtrude&quot;; console.log(s); alert(s);" xlink:title="LinearExtrude">
<ellipse fill="none" stroke="black" cx="395.98" cy="-234" rx="55.79" ry="18"/>
<text text-anchor="middle" x="395.98" y="-230.3" font-family="Times New Roman,serif" font-size="14.00">(&#39;spoke&#39;, 12)</text>
</a>
</g>
</g>
<!-- grille_33&#45;&gt;spoke_47 -->
<g id="edge46" class="edge">
<title>grille_33&#45;&gt;spoke_47</title>
<path fill="none" stroke="black" d="M253.16,-485.79C258.91,-441.88 279.11,-328.82 340.08,-261 342.8,-257.98 345.94,-255.25 349.3,-252.81"/>
<polygon fill="black" stroke="black" points="351.44,-255.59 358.02,-247.29 347.7,-249.68 351.44,-255.59"/>
</g>
<!-- spoke_48 -->
<g id="node48" class="node">
<title>spoke_48</title>
<g id="a_node48"><a xlink:href="javascript:s=&quot;\(&#x27;default&#x27;,\ &#x27;grille&#x27;,\ \(&#x27;spoke&#x27;,\ 13\)\)\nLinearExtrude&quot;; console.log(s); alert(s);" xlink:title="LinearExtrude">
<ellipse fill="none" stroke="black" cx="395.98" cy="-180" rx="55.79" ry="18"/>
<text text-anchor="middle" x="395.98" y="-176.3" font-family="Times New Roman,serif" font-size="14.00">(&#39;spoke&#39;, 13)</text>
</a>
</g>
</g>
<!-- grille_33&#45;&gt;spoke_48 -->
<g id="edge47" class="edge">
<title>grille_33&#45;&gt;spoke_48</title>
<path fill="none" stroke="black" d="M251.7,-485.97C254.18,-435.8 267.59,-292.67 340.08,-207 342.67,-203.94 345.69,-201.2 348.96,-198.74"/>
<polygon fill="black" stroke="black" points="350.99,-201.59 357.48,-193.22 347.18,-195.72 350.99,-201.59"/>
</g>
<!-- spoke_49 -->
<g id="node49" class="node">
<title>spoke_49</title>
<g id="a_node49"><a xlink:href="javascript:s=&quot;\(&#x27;default&#x27;,\ &#x27;grille&#x27;,\ \(&#x27;spoke&#x27;,\ 14\)\)\nLinearExtrude&quot;; console.log(s); alert(s);" xlink:title="LinearExtrude">
<ellipse fill="none" stroke="black" cx="395.98" cy="-126" rx="55.79" ry="18"/>
<text text-anchor="middle" x="395.98" y="-122.3" font-family="Times New Roman,serif" font-size="14.00">(&#39;spoke&#39;, 14)</text>
</a>
</g>
</g>
<!-- grille_33&#45;&gt;spoke_49 -->
<g id="edge48" class="edge">
<title>grille_33&#45;&gt;spoke_49</title>
<path fill="none" stroke="black" d="M250.68,-485.63C250.25,-429.31 256.19,-256.55 340.08,-153 342.61,-149.89 345.58,-147.1 348.81,-144.62"/>
<polygon fill="black" stroke="black" points="350.85,-147.47 357.28,-139.06 347,-141.62 350.85,-147.47"/>
</g>
<!-- spoke_50 -->
<g id="node50" class="node">
<title>spoke_50</title>
<g id="a_node50"><a xlink:href="javascript:s=&quot;\(&#x27;default&#x27;,\ &#x27;grille&#x27;,\ \(&#x27;spoke&#x27;,\ 15\)\)\nLinearExtrude&quot;; console.log(s); alert(s);" xlink:title="LinearExtrude">
<ellipse fill="none" stroke="black" cx="395.98" cy="-72" rx="55.79" ry="18"/>
<text text-anchor="middle" x="395.98" y="-68.3" font-family="Times New Roman,serif" font-size="14.00">(&#39;spoke&#39;, 15)</text>
</a>
</g>
</g>
<!-- grille_33&#45;&gt;spoke_50 -->
<g id="edge49" class="edge">
<title>grille_33&#45;&gt;spoke_50</title>
<path fill="none" stroke="black" d="M253.02,-485.92C260.65,-415.63 291.22,-161.32 340.08,-99 342.45,-95.98 345.24,-93.28 348.29,-90.86"/>
<polygon fill="black" stroke="black" points="350.51,-93.59 356.86,-85.1 346.6,-87.78 350.51,-93.59"/>
</g>
<!-- inner_core_51 -->
<g id="node51" class="node">
<title>inner_core_51</title>
<g id="a_node51"><a xlink:href="javascript:s=&quot;\(&#x27;default&#x27;,\ &#x27;grille&#x27;,\ &#x27;inner_core&#x27;\)\nCylinder&quot;; console.log(s); alert(s);" xlink:title="Cylinder">
<ellipse fill="none" stroke="black" cx="395.98" cy="-18" rx="49.29" ry="18"/>
<text text-anchor="middle" x="395.98" y="-14.3" font-family="Times New Roman,serif" font-size="14.00">inner_core</text>
</a>
</g>
</g>
<!-- grille_33&#45;&gt;inner_core_51 -->
<g id="edge50" class="edge">
<title>grille_33&#45;&gt;inner_core_51</title>
<path fill="none" stroke="black" d="M252.51,-485.91C258.6,-409.85 285.31,-116.67 340.08,-45 342.88,-41.34 346.3,-38.15 350.06,-35.37"/>
<polygon fill="black" stroke="black" points="352.12,-38.21 358.71,-29.91 348.39,-32.29 352.12,-38.21"/>
</g>
</g>
</svg>
