<?xml version="1.0" encoding="UTF-8" standalone="no"?>
<!DOCTYPE svg PUBLIC "-//W3C//DTD SVG 1.1//EN"
 "http://www.w3.org/Graphics/SVG/1.1/DTD/svg11.dtd">
<!-- Generated by graphviz version 5.0.0 (20220707.1540)
 -->
<!-- Title: siddament Pages: 1 -->
<svg width="470pt" height="368pt"
 viewBox="0.00 0.00 470.27 368.00" xmlns="http://www.w3.org/2000/svg" xmlns:xlink="http://www.w3.org/1999/xlink">
<g id="graph0" class="graph" transform="scale(1 1) rotate(0) translate(4 364)">
<title>siddament</title>
<polygon fill="white" stroke="transparent" points="-4,4 -4,-364 466.27,-364 466.27,4 -4,4"/>
<!-- root_27 -->
<g id="node1" class="node">
<title>root_27</title>
<g id="a_node1"><a xlink:href="javascript:s=&quot;\(\)\nNone&quot;; console.log(s); alert(s);" xlink:title="root">
<ellipse fill="none" stroke="black" cx="27" cy="-207" rx="27" ry="18"/>
<text text-anchor="middle" x="27" y="-203.3" font-family="Times New Roman,serif" font-size="14.00">root</text>
</a>
</g>
</g>
<!-- siddament_28 -->
<g id="node2" class="node">
<title>siddament_28</title>
<g id="a_node2"><a xlink:href="javascript:s=&quot;\(&#x27;siddament&#x27;,\)\nSpoolAdaptor&quot;; console.log(s); alert(s);" xlink:title="SpoolAdaptor">
<ellipse fill="none" stroke="black" cx="138.1" cy="-207" rx="48.19" ry="18"/>
<text text-anchor="middle" x="138.1" y="-203.3" font-family="Times New Roman,serif" font-size="14.00">siddament</text>
</a>
</g>
</g>
<!-- root_27&#45;&gt;siddament_28 -->
<g id="edge1" class="edge">
<title>root_27&#45;&gt;siddament_28</title>
<path fill="none" stroke="black" d="M54.13,-207C61.92,-207 70.77,-207 79.73,-207"/>
<polygon fill="black" stroke="black" points="79.84,-210.5 89.84,-207 79.84,-203.5 79.84,-210.5"/>
</g>
<!-- spool_adaptor_29 -->
<g id="node3" class="node">
<title>spool_adaptor_29</title>
<g id="a_node3"><a xlink:href="javascript:s=&quot;\(&#x27;siddament&#x27;,\ &#x27;spool_adaptor&#x27;\)\nSpoolAdaptorRing&quot;; console.log(s); alert(s);" xlink:title="SpoolAdaptorRing">
<ellipse fill="none" stroke="black" cx="285.89" cy="-315" rx="63.89" ry="18"/>
<text text-anchor="middle" x="285.89" y="-311.3" font-family="Times New Roman,serif" font-size="14.00">spool_adaptor</text>
</a>
</g>
</g>
<!-- siddament_28&#45;&gt;spool_adaptor_29 -->
<g id="edge2" class="edge">
<title>siddament_28&#45;&gt;spool_adaptor_29</title>
<path fill="none" stroke="black" d="M160.61,-222.94C185.16,-241.12 225.53,-271.03 253.57,-291.8"/>
<polygon fill="black" stroke="black" points="251.72,-294.79 261.84,-297.93 255.89,-289.16 251.72,-294.79"/>
</g>
<!-- rib_31 -->
<g id="node5" class="node">
<title>rib_31</title>
<g id="a_node5"><a xlink:href="javascript:s=&quot;\(&#x27;siddament&#x27;,\ \(&#x27;rib&#x27;,\ 0\)\)\nTriangularPrism&quot;; console.log(s); alert(s);" xlink:title="TriangularPrism">
<ellipse fill="none" stroke="black" cx="285.89" cy="-234" rx="39.79" ry="18"/>
<text text-anchor="middle" x="285.89" y="-230.3" font-family="Times New Roman,serif" font-size="14.00">(&#39;rib&#39;, 0)</text>
</a>
</g>
</g>
<!-- siddament_28&#45;&gt;rib_31 -->
<g id="edge4" class="edge">
<title>siddament_28&#45;&gt;rib_31</title>
<path fill="none" stroke="black" d="M181.66,-214.88C199.67,-218.22 220.69,-222.11 239.04,-225.51"/>
<polygon fill="black" stroke="black" points="238.46,-228.96 248.93,-227.34 239.73,-222.08 238.46,-228.96"/>
</g>
<!-- rib_34 -->
<g id="node8" class="node">
<title>rib_34</title>
<g id="a_node8"><a xlink:href="javascript:s=&quot;\(&#x27;siddament&#x27;,\ \(&#x27;rib&#x27;,\ 1\)\)\nTriangularPrism&quot;; console.log(s); alert(s);" xlink:title="TriangularPrism">
<ellipse fill="none" stroke="black" cx="285.89" cy="-180" rx="39.79" ry="18"/>
<text text-anchor="middle" x="285.89" y="-176.3" font-family="Times New Roman,serif" font-size="14.00">(&#39;rib&#39;, 1)</text>
</a>
</g>
</g>
<!-- siddament_28&#45;&gt;rib_34 -->
<g id="edge7" class="edge">
<title>siddament_28&#45;&gt;rib_34</title>
<path fill="none" stroke="black" d="M181.66,-199.12C199.67,-195.78 220.69,-191.89 239.04,-188.49"/>
<polygon fill="black" stroke="black" points="239.73,-191.92 248.93,-186.66 238.46,-185.04 239.73,-191.92"/>
</g>
<!-- rib_37 -->
<g id="node11" class="node">
<title>rib_37</title>
<g id="a_node11"><a xlink:href="javascript:s=&quot;\(&#x27;siddament&#x27;,\ \(&#x27;rib&#x27;,\ 2\)\)\nTriangularPrism&quot;; console.log(s); alert(s);" xlink:title="TriangularPrism">
<ellipse fill="none" stroke="black" cx="285.89" cy="-72" rx="39.79" ry="18"/>
<text text-anchor="middle" x="285.89" y="-68.3" font-family="Times New Roman,serif" font-size="14.00">(&#39;rib&#39;, 2)</text>
</a>
</g>
</g>
<!-- siddament_28&#45;&gt;rib_37 -->
<g id="edge10" class="edge">
<title>siddament_28&#45;&gt;rib_37</title>
<path fill="none" stroke="black" d="M157.27,-190.18C183.19,-166.17 230.88,-122.01 260.05,-95"/>
<polygon fill="black" stroke="black" points="262.44,-97.56 267.4,-88.19 257.68,-92.42 262.44,-97.56"/>
</g>
<!-- adaptor_30 -->
<g id="node4" class="node">
<title>adaptor_30</title>
<g id="a_node4"><a xlink:href="javascript:s=&quot;\(&#x27;siddament&#x27;,\ &#x27;spool_adaptor&#x27;,\ &#x27;adaptor&#x27;\)\nRotateExtrude&quot;; console.log(s); alert(s);" xlink:title="RotateExtrude">
<ellipse fill="none" stroke="black" cx="423.93" cy="-342" rx="38.19" ry="18"/>
<text text-anchor="middle" x="423.93" y="-338.3" font-family="Times New Roman,serif" font-size="14.00">adaptor</text>
</a>
</g>
</g>
<!-- spool_adaptor_29&#45;&gt;adaptor_30 -->
<g id="edge3" class="edge">
<title>spool_adaptor_29&#45;&gt;adaptor_30</title>
<path fill="none" stroke="black" d="M338.71,-325.28C351.74,-327.87 365.62,-330.63 378.27,-333.14"/>
<polygon fill="black" stroke="black" points="377.62,-336.58 388.11,-335.09 378.98,-329.71 377.62,-336.58"/>
</g>
<!-- cage_32 -->
<g id="node6" class="node">
<title>cage_32</title>
<g id="a_node6"><a xlink:href="javascript:s=&quot;\(&#x27;siddament&#x27;,\ \(&#x27;rib&#x27;,\ 0\),\ &#x27;cage&#x27;\)\nBox&quot;; console.log(s); alert(s);" xlink:title="Box">
<ellipse fill="none" stroke="black" cx="423.93" cy="-288" rx="27.1" ry="18"/>
<text text-anchor="middle" x="423.93" y="-284.3" font-family="Times New Roman,serif" font-size="14.00">cage</text>
</a>
</g>
</g>
<!-- rib_31&#45;&gt;cage_32 -->
<g id="edge5" class="edge">
<title>rib_31&#45;&gt;cage_32</title>
<path fill="none" stroke="black" d="M316.4,-245.72C338.32,-254.42 368.2,-266.28 390.73,-275.22"/>
<polygon fill="black" stroke="black" points="389.62,-278.54 400.2,-278.98 392.2,-272.04 389.62,-278.54"/>
</g>
<!-- prism_33 -->
<g id="node7" class="node">
<title>prism_33</title>
<g id="a_node7"><a xlink:href="javascript:s=&quot;\(&#x27;siddament&#x27;,\ \(&#x27;rib&#x27;,\ 0\),\ &#x27;prism&#x27;\)\nLinearExtrude&quot;; console.log(s); alert(s);" xlink:title="LinearExtrude">
<ellipse fill="none" stroke="black" cx="423.93" cy="-234" rx="31.4" ry="18"/>
<text text-anchor="middle" x="423.93" y="-230.3" font-family="Times New Roman,serif" font-size="14.00">prism</text>
</a>
</g>
</g>
<!-- rib_31&#45;&gt;prism_33 -->
<g id="edge6" class="edge">
<title>rib_31&#45;&gt;prism_33</title>
<path fill="none" stroke="black" d="M325.87,-234C343.59,-234 364.55,-234 382.45,-234"/>
<polygon fill="black" stroke="black" points="382.58,-237.5 392.58,-234 382.58,-230.5 382.58,-237.5"/>
</g>
<!-- cage_35 -->
<g id="node9" class="node">
<title>cage_35</title>
<g id="a_node9"><a xlink:href="javascript:s=&quot;\(&#x27;siddament&#x27;,\ \(&#x27;rib&#x27;,\ 1\),\ &#x27;cage&#x27;\)\nBox&quot;; console.log(s); alert(s);" xlink:title="Box">
<ellipse fill="none" stroke="black" cx="423.93" cy="-180" rx="27.1" ry="18"/>
<text text-anchor="middle" x="423.93" y="-176.3" font-family="Times New Roman,serif" font-size="14.00">cage</text>
</a>
</g>
</g>
<!-- rib_34&#45;&gt;cage_35 -->
<g id="edge8" class="edge">
<title>rib_34&#45;&gt;cage_35</title>
<path fill="none" stroke="black" d="M325.87,-180C344.86,-180 367.57,-180 386.24,-180"/>
<polygon fill="black" stroke="black" points="386.43,-183.5 396.43,-180 386.43,-176.5 386.43,-183.5"/>
</g>
<!-- prism_36 -->
<g id="node10" class="node">
<title>prism_36</title>
<g id="a_node10"><a xlink:href="javascript:s=&quot;\(&#x27;siddament&#x27;,\ \(&#x27;rib&#x27;,\ 1\),\ &#x27;prism&#x27;\)\nLinearExtrude&quot;; console.log(s); alert(s);" xlink:title="LinearExtrude">
<ellipse fill="none" stroke="black" cx="423.93" cy="-126" rx="31.4" ry="18"/>
<text text-anchor="middle" x="423.93" y="-122.3" font-family="Times New Roman,serif" font-size="14.00">prism</text>
</a>
</g>
</g>
<!-- rib_34&#45;&gt;prism_36 -->
<g id="edge9" class="edge">
<title>rib_34&#45;&gt;prism_36</title>
<path fill="none" stroke="black" d="M316.4,-168.28C337.51,-159.91 365.98,-148.6 388.18,-139.79"/>
<polygon fill="black" stroke="black" points="389.58,-143 397.58,-136.06 386.99,-136.5 389.58,-143"/>
</g>
<!-- cage_38 -->
<g id="node12" class="node">
<title>cage_38</title>
<g id="a_node12"><a xlink:href="javascript:s=&quot;\(&#x27;siddament&#x27;,\ \(&#x27;rib&#x27;,\ 2\),\ &#x27;cage&#x27;\)\nBox&quot;; console.log(s); alert(s);" xlink:title="Box">
<ellipse fill="none" stroke="black" cx="423.93" cy="-72" rx="27.1" ry="18"/>
<text text-anchor="middle" x="423.93" y="-68.3" font-family="Times New Roman,serif" font-size="14.00">cage</text>
</a>
</g>
</g>
<!-- rib_37&#45;&gt;cage_38 -->
<g id="edge11" class="edge">
<title>rib_37&#45;&gt;cage_38</title>
<path fill="none" stroke="black" d="M325.87,-72C344.86,-72 367.57,-72 386.24,-72"/>
<polygon fill="black" stroke="black" points="386.43,-75.5 396.43,-72 386.43,-68.5 386.43,-75.5"/>
</g>
<!-- prism_39 -->
<g id="node13" class="node">
<title>prism_39</title>
<g id="a_node13"><a xlink:href="javascript:s=&quot;\(&#x27;siddament&#x27;,\ \(&#x27;rib&#x27;,\ 2\),\ &#x27;prism&#x27;\)\nLinearExtrude&quot;; console.log(s); alert(s);" xlink:title="LinearExtrude">
<ellipse fill="none" stroke="black" cx="423.93" cy="-18" rx="31.4" ry="18"/>
<text text-anchor="middle" x="423.93" y="-14.3" font-family="Times New Roman,serif" font-size="14.00">prism</text>
</a>
</g>
</g>
<!-- rib_37&#45;&gt;prism_39 -->
<g id="edge12" class="edge">
<title>rib_37&#45;&gt;prism_39</title>
<path fill="none" stroke="black" d="M316.4,-60.28C337.51,-51.91 365.98,-40.6 388.18,-31.79"/>
<polygon fill="black" stroke="black" points="389.58,-35 397.58,-28.06 386.99,-28.5 389.58,-35"/>
</g>
</g>
</svg>
