<?xml version="1.0" encoding="UTF-8" standalone="no"?>
<!DOCTYPE svg PUBLIC "-//W3C//DTD SVG 1.1//EN"
 "http://www.w3.org/Graphics/SVG/1.1/DTD/svg11.dtd">
<!-- Generated by graphviz version 5.0.0 (20220707.1540)
 -->
<!-- Title: default Pages: 1 -->
<svg width="444pt" height="368pt"
 viewBox="0.00 0.00 444.28 368.00" xmlns="http://www.w3.org/2000/svg" xmlns:xlink="http://www.w3.org/1999/xlink">
<g id="graph0" class="graph" transform="scale(1 1) rotate(0) translate(4 364)">
<title>default</title>
<polygon fill="white" stroke="transparent" points="-4,4 -4,-364 440.28,-364 440.28,4 -4,4"/>
<!-- root_1 -->
<g id="node1" class="node">
<title>root_1</title>
<g id="a_node1"><a xlink:href="javascript:s=&quot;\(\)\nNone&quot;; console.log(s); alert(s);" xlink:title="root">
<ellipse fill="none" stroke="black" cx="27" cy="-207" rx="27" ry="18"/>
<text text-anchor="middle" x="27" y="-203.3" font-family="Times New Roman,serif" font-size="14.00">root</text>
</a>
</g>
</g>
<!-- default_2 -->
<g id="node2" class="node">
<title>default_2</title>
<g id="a_node2"><a xlink:href="javascript:s=&quot;\(&#x27;default&#x27;,\)\nSpoolAdaptor&quot;; console.log(s); alert(s);" xlink:title="SpoolAdaptor">
<ellipse fill="none" stroke="black" cx="125.1" cy="-207" rx="35.19" ry="18"/>
<text text-anchor="middle" x="125.1" y="-203.3" font-family="Times New Roman,serif" font-size="14.00">default</text>
</a>
</g>
</g>
<!-- root_1&#45;&gt;default_2 -->
<g id="edge1" class="edge">
<title>root_1&#45;&gt;default_2</title>
<path fill="none" stroke="black" d="M54.01,-207C61.92,-207 70.84,-207 79.61,-207"/>
<polygon fill="black" stroke="black" points="79.76,-210.5 89.76,-207 79.76,-203.5 79.76,-210.5"/>
</g>
<!-- spool_adaptor_3 -->
<g id="node3" class="node">
<title>spool_adaptor_3</title>
<g id="a_node3"><a xlink:href="javascript:s=&quot;\(&#x27;default&#x27;,\ &#x27;spool_adaptor&#x27;\)\nSpoolAdaptorRing&quot;; console.log(s); alert(s);" xlink:title="SpoolAdaptorRing">
<ellipse fill="none" stroke="black" cx="259.89" cy="-315" rx="63.89" ry="18"/>
<text text-anchor="middle" x="259.89" y="-311.3" font-family="Times New Roman,serif" font-size="14.00">spool_adaptor</text>
</a>
</g>
</g>
<!-- default_2&#45;&gt;spool_adaptor_3 -->
<g id="edge2" class="edge">
<title>default_2&#45;&gt;spool_adaptor_3</title>
<path fill="none" stroke="black" d="M144.56,-222.02C166.68,-240.01 204,-270.36 229.96,-291.47"/>
<polygon fill="black" stroke="black" points="227.99,-294.38 237.96,-297.98 232.41,-288.95 227.99,-294.38"/>
</g>
<!-- rib_5 -->
<g id="node5" class="node">
<title>rib_5</title>
<g id="a_node5"><a xlink:href="javascript:s=&quot;\(&#x27;default&#x27;,\ \(&#x27;rib&#x27;,\ 0\)\)\nTriangularPrism&quot;; console.log(s); alert(s);" xlink:title="TriangularPrism">
<ellipse fill="none" stroke="black" cx="259.89" cy="-234" rx="39.79" ry="18"/>
<text text-anchor="middle" x="259.89" y="-230.3" font-family="Times New Roman,serif" font-size="14.00">(&#39;rib&#39;, 0)</text>
</a>
</g>
</g>
<!-- default_2&#45;&gt;rib_5 -->
<g id="edge4" class="edge">
<title>default_2&#45;&gt;rib_5</title>
<path fill="none" stroke="black" d="M157.9,-213.47C174.48,-216.84 195.04,-221.02 213.28,-224.73"/>
<polygon fill="black" stroke="black" points="212.63,-228.17 223.13,-226.73 214.03,-221.31 212.63,-228.17"/>
</g>
<!-- rib_8 -->
<g id="node8" class="node">
<title>rib_8</title>
<g id="a_node8"><a xlink:href="javascript:s=&quot;\(&#x27;default&#x27;,\ \(&#x27;rib&#x27;,\ 1\)\)\nTriangularPrism&quot;; console.log(s); alert(s);" xlink:title="TriangularPrism">
<ellipse fill="none" stroke="black" cx="259.89" cy="-180" rx="39.79" ry="18"/>
<text text-anchor="middle" x="259.89" y="-176.3" font-family="Times New Roman,serif" font-size="14.00">(&#39;rib&#39;, 1)</text>
</a>
</g>
</g>
<!-- default_2&#45;&gt;rib_8 -->
<g id="edge7" class="edge">
<title>default_2&#45;&gt;rib_8</title>
<path fill="none" stroke="black" d="M157.9,-200.53C174.48,-197.16 195.04,-192.98 213.28,-189.27"/>
<polygon fill="black" stroke="black" points="214.03,-192.69 223.13,-187.27 212.63,-185.83 214.03,-192.69"/>
</g>
<!-- rib_11 -->
<g id="node11" class="node">
<title>rib_11</title>
<g id="a_node11"><a xlink:href="javascript:s=&quot;\(&#x27;default&#x27;,\ \(&#x27;rib&#x27;,\ 2\)\)\nTriangularPrism&quot;; console.log(s); alert(s);" xlink:title="TriangularPrism">
<ellipse fill="none" stroke="black" cx="259.89" cy="-72" rx="39.79" ry="18"/>
<text text-anchor="middle" x="259.89" y="-68.3" font-family="Times New Roman,serif" font-size="14.00">(&#39;rib&#39;, 2)</text>
</a>
</g>
</g>
<!-- default_2&#45;&gt;rib_11 -->
<g id="edge10" class="edge">
<title>default_2&#45;&gt;rib_11</title>
<path fill="none" stroke="black" d="M141.85,-190.98C165.09,-167.36 208.69,-123.03 235.62,-95.66"/>
<polygon fill="black" stroke="black" points="238.22,-98 242.74,-88.42 233.23,-93.09 238.22,-98"/>
</g>
<!-- adaptor_4 -->
<g id="node4" class="node">
<title>adaptor_4</title>
<g id="a_node4"><a xlink:href="javascript:s=&quot;\(&#x27;default&#x27;,\ &#x27;spool_adaptor&#x27;,\ &#x27;adaptor&#x27;\)\nRotateExtrude&quot;; console.log(s); alert(s);" xlink:title="RotateExtrude">
<ellipse fill="none" stroke="black" cx="397.93" cy="-342" rx="38.19" ry="18"/>
<text text-anchor="middle" x="397.93" y="-338.3" font-family="Times New Roman,serif" font-size="14.00">adaptor</text>
</a>
</g>
</g>
<!-- spool_adaptor_3&#45;&gt;adaptor_4 -->
<g id="edge3" class="edge">
<title>spool_adaptor_3&#45;&gt;adaptor_4</title>
<path fill="none" stroke="black" d="M312.71,-325.28C325.74,-327.87 339.62,-330.63 352.27,-333.14"/>
<polygon fill="black" stroke="black" points="351.62,-336.58 362.11,-335.09 352.99,-329.71 351.62,-336.58"/>
</g>
<!-- cage_6 -->
<g id="node6" class="node">
<title>cage_6</title>
<g id="a_node6"><a xlink:href="javascript:s=&quot;\(&#x27;default&#x27;,\ \(&#x27;rib&#x27;,\ 0\),\ &#x27;cage&#x27;\)\nBox&quot;; console.log(s); alert(s);" xlink:title="Box">
<ellipse fill="none" stroke="black" cx="397.93" cy="-288" rx="27.1" ry="18"/>
<text text-anchor="middle" x="397.93" y="-284.3" font-family="Times New Roman,serif" font-size="14.00">cage</text>
</a>
</g>
</g>
<!-- rib_5&#45;&gt;cage_6 -->
<g id="edge5" class="edge">
<title>rib_5&#45;&gt;cage_6</title>
<path fill="none" stroke="black" d="M290.41,-245.72C312.33,-254.42 342.2,-266.28 364.73,-275.22"/>
<polygon fill="black" stroke="black" points="363.62,-278.54 374.2,-278.98 366.2,-272.04 363.62,-278.54"/>
</g>
<!-- prism_7 -->
<g id="node7" class="node">
<title>prism_7</title>
<g id="a_node7"><a xlink:href="javascript:s=&quot;\(&#x27;default&#x27;,\ \(&#x27;rib&#x27;,\ 0\),\ &#x27;prism&#x27;\)\nLinearExtrude&quot;; console.log(s); alert(s);" xlink:title="LinearExtrude">
<ellipse fill="none" stroke="black" cx="397.93" cy="-234" rx="31.4" ry="18"/>
<text text-anchor="middle" x="397.93" y="-230.3" font-family="Times New Roman,serif" font-size="14.00">prism</text>
</a>
</g>
</g>
<!-- rib_5&#45;&gt;prism_7 -->
<g id="edge6" class="edge">
<title>rib_5&#45;&gt;prism_7</title>
<path fill="none" stroke="black" d="M299.87,-234C317.59,-234 338.55,-234 356.45,-234"/>
<polygon fill="black" stroke="black" points="356.59,-237.5 366.59,-234 356.59,-230.5 356.59,-237.5"/>
</g>
<!-- cage_9 -->
<g id="node9" class="node">
<title>cage_9</title>
<g id="a_node9"><a xlink:href="javascript:s=&quot;\(&#x27;default&#x27;,\ \(&#x27;rib&#x27;,\ 1\),\ &#x27;cage&#x27;\)\nBox&quot;; console.log(s); alert(s);" xlink:title="Box">
<ellipse fill="none" stroke="black" cx="397.93" cy="-180" rx="27.1" ry="18"/>
<text text-anchor="middle" x="397.93" y="-176.3" font-family="Times New Roman,serif" font-size="14.00">cage</text>
</a>
</g>
</g>
<!-- rib_8&#45;&gt;cage_9 -->
<g id="edge8" class="edge">
<title>rib_8&#45;&gt;cage_9</title>
<path fill="none" stroke="black" d="M299.87,-180C318.86,-180 341.57,-180 360.25,-180"/>
<polygon fill="black" stroke="black" points="360.44,-183.5 370.44,-180 360.44,-176.5 360.44,-183.5"/>
</g>
<!-- prism_10 -->
<g id="node10" class="node">
<title>prism_10</title>
<g id="a_node10"><a xlink:href="javascript:s=&quot;\(&#x27;default&#x27;,\ \(&#x27;rib&#x27;,\ 1\),\ &#x27;prism&#x27;\)\nLinearExtrude&quot;; console.log(s); alert(s);" xlink:title="LinearExtrude">
<ellipse fill="none" stroke="black" cx="397.93" cy="-126" rx="31.4" ry="18"/>
<text text-anchor="middle" x="397.93" y="-122.3" font-family="Times New Roman,serif" font-size="14.00">prism</text>
</a>
</g>
</g>
<!-- rib_8&#45;&gt;prism_10 -->
<g id="edge9" class="edge">
<title>rib_8&#45;&gt;prism_10</title>
<path fill="none" stroke="black" d="M290.41,-168.28C311.51,-159.91 339.98,-148.6 362.18,-139.79"/>
<polygon fill="black" stroke="black" points="363.58,-143 371.58,-136.06 361,-136.5 363.58,-143"/>
</g>
<!-- cage_12 -->
<g id="node12" class="node">
<title>cage_12</title>
<g id="a_node12"><a xlink:href="javascript:s=&quot;\(&#x27;default&#x27;,\ \(&#x27;rib&#x27;,\ 2\),\ &#x27;cage&#x27;\)\nBox&quot;; console.log(s); alert(s);" xlink:title="Box">
<ellipse fill="none" stroke="black" cx="397.93" cy="-72" rx="27.1" ry="18"/>
<text text-anchor="middle" x="397.93" y="-68.3" font-family="Times New Roman,serif" font-size="14.00">cage</text>
</a>
</g>
</g>
<!-- rib_11&#45;&gt;cage_12 -->
<g id="edge11" class="edge">
<title>rib_11&#45;&gt;cage_12</title>
<path fill="none" stroke="black" d="M299.87,-72C318.86,-72 341.57,-72 360.25,-72"/>
<polygon fill="black" stroke="black" points="360.44,-75.5 370.44,-72 360.44,-68.5 360.44,-75.5"/>
</g>
<!-- prism_13 -->
<g id="node13" class="node">
<title>prism_13</title>
<g id="a_node13"><a xlink:href="javascript:s=&quot;\(&#x27;default&#x27;,\ \(&#x27;rib&#x27;,\ 2\),\ &#x27;prism&#x27;\)\nLinearExtrude&quot;; console.log(s); alert(s);" xlink:title="LinearExtrude">
<ellipse fill="none" stroke="black" cx="397.93" cy="-18" rx="31.4" ry="18"/>
<text text-anchor="middle" x="397.93" y="-14.3" font-family="Times New Roman,serif" font-size="14.00">prism</text>
</a>
</g>
</g>
<!-- rib_11&#45;&gt;prism_13 -->
<g id="edge12" class="edge">
<title>rib_11&#45;&gt;prism_13</title>
<path fill="none" stroke="black" d="M290.41,-60.28C311.51,-51.91 339.98,-40.6 362.18,-31.79"/>
<polygon fill="black" stroke="black" points="363.58,-35 371.58,-28.06 361,-28.5 363.58,-35"/>
</g>
</g>
</svg>
