<?xml version="1.0" encoding="UTF-8" standalone="no"?>
<!DOCTYPE svg PUBLIC "-//W3C//DTD SVG 1.1//EN"
 "http://www.w3.org/Graphics/SVG/1.1/DTD/svg11.dtd">
<!-- Generated by graphviz version 5.0.0 (20220707.1540)
 -->
<!-- Title: creality Pages: 1 -->
<svg width="447pt" height="368pt"
 viewBox="0.00 0.00 446.88 368.00" xmlns="http://www.w3.org/2000/svg" xmlns:xlink="http://www.w3.org/1999/xlink">
<g id="graph0" class="graph" transform="scale(1 1) rotate(0) translate(4 364)">
<title>creality</title>
<polygon fill="white" stroke="transparent" points="-4,4 -4,-364 442.88,-364 442.88,4 -4,4"/>
<!-- root_14 -->
<g id="node1" class="node">
<title>root_14</title>
<g id="a_node1"><a xlink:href="javascript:s=&quot;\(\)\nNone&quot;; console.log(s); alert(s);" xlink:title="root">
<ellipse fill="none" stroke="black" cx="27" cy="-207" rx="27" ry="18"/>
<text text-anchor="middle" x="27" y="-203.3" font-family="Times New Roman,serif" font-size="14.00">root</text>
</a>
</g>
</g>
<!-- creality_15 -->
<g id="node2" class="node">
<title>creality_15</title>
<g id="a_node2"><a xlink:href="javascript:s=&quot;\(&#x27;creality&#x27;,\)\nSpoolAdaptor&quot;; console.log(s); alert(s);" xlink:title="SpoolAdaptor">
<ellipse fill="none" stroke="black" cx="126.4" cy="-207" rx="36.29" ry="18"/>
<text text-anchor="middle" x="126.4" y="-203.3" font-family="Times New Roman,serif" font-size="14.00">creality</text>
</a>
</g>
</g>
<!-- root_14&#45;&gt;creality_15 -->
<g id="edge1" class="edge">
<title>root_14&#45;&gt;creality_15</title>
<path fill="none" stroke="black" d="M54.1,-207C61.96,-207 70.82,-207 79.56,-207"/>
<polygon fill="black" stroke="black" points="79.7,-210.5 89.7,-207 79.7,-203.5 79.7,-210.5"/>
</g>
<!-- spool_adaptor_16 -->
<g id="node3" class="node">
<title>spool_adaptor_16</title>
<g id="a_node3"><a xlink:href="javascript:s=&quot;\(&#x27;creality&#x27;,\ &#x27;spool_adaptor&#x27;\)\nSpoolAdaptorRing&quot;; console.log(s); alert(s);" xlink:title="SpoolAdaptorRing">
<ellipse fill="none" stroke="black" cx="262.49" cy="-315" rx="63.89" ry="18"/>
<text text-anchor="middle" x="262.49" y="-311.3" font-family="Times New Roman,serif" font-size="14.00">spool_adaptor</text>
</a>
</g>
</g>
<!-- creality_15&#45;&gt;spool_adaptor_16 -->
<g id="edge2" class="edge">
<title>creality_15&#45;&gt;spool_adaptor_16</title>
<path fill="none" stroke="black" d="M146.32,-222.24C168.73,-240.29 206.3,-270.55 232.41,-291.58"/>
<polygon fill="black" stroke="black" points="230.47,-294.51 240.45,-298.05 234.86,-289.06 230.47,-294.51"/>
</g>
<!-- rib_18 -->
<g id="node5" class="node">
<title>rib_18</title>
<g id="a_node5"><a xlink:href="javascript:s=&quot;\(&#x27;creality&#x27;,\ \(&#x27;rib&#x27;,\ 0\)\)\nTriangularPrism&quot;; console.log(s); alert(s);" xlink:title="TriangularPrism">
<ellipse fill="none" stroke="black" cx="262.49" cy="-234" rx="39.79" ry="18"/>
<text text-anchor="middle" x="262.49" y="-230.3" font-family="Times New Roman,serif" font-size="14.00">(&#39;rib&#39;, 0)</text>
</a>
</g>
</g>
<!-- creality_15&#45;&gt;rib_18 -->
<g id="edge4" class="edge">
<title>creality_15&#45;&gt;rib_18</title>
<path fill="none" stroke="black" d="M160.54,-213.67C177.29,-217.05 197.88,-221.19 216.08,-224.86"/>
<polygon fill="black" stroke="black" points="215.41,-228.29 225.91,-226.84 216.79,-221.43 215.41,-228.29"/>
</g>
<!-- rib_21 -->
<g id="node8" class="node">
<title>rib_21</title>
<g id="a_node8"><a xlink:href="javascript:s=&quot;\(&#x27;creality&#x27;,\ \(&#x27;rib&#x27;,\ 1\)\)\nTriangularPrism&quot;; console.log(s); alert(s);" xlink:title="TriangularPrism">
<ellipse fill="none" stroke="black" cx="262.49" cy="-180" rx="39.79" ry="18"/>
<text text-anchor="middle" x="262.49" y="-176.3" font-family="Times New Roman,serif" font-size="14.00">(&#39;rib&#39;, 1)</text>
</a>
</g>
</g>
<!-- creality_15&#45;&gt;rib_21 -->
<g id="edge7" class="edge">
<title>creality_15&#45;&gt;rib_21</title>
<path fill="none" stroke="black" d="M160.54,-200.33C177.29,-196.95 197.88,-192.81 216.08,-189.14"/>
<polygon fill="black" stroke="black" points="216.79,-192.57 225.91,-187.16 215.41,-185.71 216.79,-192.57"/>
</g>
<!-- rib_24 -->
<g id="node11" class="node">
<title>rib_24</title>
<g id="a_node11"><a xlink:href="javascript:s=&quot;\(&#x27;creality&#x27;,\ \(&#x27;rib&#x27;,\ 2\)\)\nTriangularPrism&quot;; console.log(s); alert(s);" xlink:title="TriangularPrism">
<ellipse fill="none" stroke="black" cx="262.49" cy="-72" rx="39.79" ry="18"/>
<text text-anchor="middle" x="262.49" y="-68.3" font-family="Times New Roman,serif" font-size="14.00">(&#39;rib&#39;, 2)</text>
</a>
</g>
</g>
<!-- creality_15&#45;&gt;rib_24 -->
<g id="edge10" class="edge">
<title>creality_15&#45;&gt;rib_24</title>
<path fill="none" stroke="black" d="M143.31,-190.98C166.77,-167.36 210.8,-123.03 237.99,-95.66"/>
<polygon fill="black" stroke="black" points="240.62,-97.98 245.18,-88.42 235.65,-93.05 240.62,-97.98"/>
</g>
<!-- adaptor_17 -->
<g id="node4" class="node">
<title>adaptor_17</title>
<g id="a_node4"><a xlink:href="javascript:s=&quot;\(&#x27;creality&#x27;,\ &#x27;spool_adaptor&#x27;,\ &#x27;adaptor&#x27;\)\nRotateExtrude&quot;; console.log(s); alert(s);" xlink:title="RotateExtrude">
<ellipse fill="none" stroke="black" cx="400.53" cy="-342" rx="38.19" ry="18"/>
<text text-anchor="middle" x="400.53" y="-338.3" font-family="Times New Roman,serif" font-size="14.00">adaptor</text>
</a>
</g>
</g>
<!-- spool_adaptor_16&#45;&gt;adaptor_17 -->
<g id="edge3" class="edge">
<title>spool_adaptor_16&#45;&gt;adaptor_17</title>
<path fill="none" stroke="black" d="M315.31,-325.28C328.34,-327.87 342.22,-330.63 354.87,-333.14"/>
<polygon fill="black" stroke="black" points="354.22,-336.58 364.71,-335.09 355.59,-329.71 354.22,-336.58"/>
</g>
<!-- cage_19 -->
<g id="node6" class="node">
<title>cage_19</title>
<g id="a_node6"><a xlink:href="javascript:s=&quot;\(&#x27;creality&#x27;,\ \(&#x27;rib&#x27;,\ 0\),\ &#x27;cage&#x27;\)\nBox&quot;; console.log(s); alert(s);" xlink:title="Box">
<ellipse fill="none" stroke="black" cx="400.53" cy="-288" rx="27.1" ry="18"/>
<text text-anchor="middle" x="400.53" y="-284.3" font-family="Times New Roman,serif" font-size="14.00">cage</text>
</a>
</g>
</g>
<!-- rib_18&#45;&gt;cage_19 -->
<g id="edge5" class="edge">
<title>rib_18&#45;&gt;cage_19</title>
<path fill="none" stroke="black" d="M293.01,-245.72C314.93,-254.42 344.8,-266.28 367.33,-275.22"/>
<polygon fill="black" stroke="black" points="366.22,-278.54 376.8,-278.98 368.8,-272.04 366.22,-278.54"/>
</g>
<!-- prism_20 -->
<g id="node7" class="node">
<title>prism_20</title>
<g id="a_node7"><a xlink:href="javascript:s=&quot;\(&#x27;creality&#x27;,\ \(&#x27;rib&#x27;,\ 0\),\ &#x27;prism&#x27;\)\nLinearExtrude&quot;; console.log(s); alert(s);" xlink:title="LinearExtrude">
<ellipse fill="none" stroke="black" cx="400.53" cy="-234" rx="31.4" ry="18"/>
<text text-anchor="middle" x="400.53" y="-230.3" font-family="Times New Roman,serif" font-size="14.00">prism</text>
</a>
</g>
</g>
<!-- rib_18&#45;&gt;prism_20 -->
<g id="edge6" class="edge">
<title>rib_18&#45;&gt;prism_20</title>
<path fill="none" stroke="black" d="M302.47,-234C320.19,-234 341.15,-234 359.05,-234"/>
<polygon fill="black" stroke="black" points="359.19,-237.5 369.19,-234 359.19,-230.5 359.19,-237.5"/>
</g>
<!-- cage_22 -->
<g id="node9" class="node">
<title>cage_22</title>
<g id="a_node9"><a xlink:href="javascript:s=&quot;\(&#x27;creality&#x27;,\ \(&#x27;rib&#x27;,\ 1\),\ &#x27;cage&#x27;\)\nBox&quot;; console.log(s); alert(s);" xlink:title="Box">
<ellipse fill="none" stroke="black" cx="400.53" cy="-180" rx="27.1" ry="18"/>
<text text-anchor="middle" x="400.53" y="-176.3" font-family="Times New Roman,serif" font-size="14.00">cage</text>
</a>
</g>
</g>
<!-- rib_21&#45;&gt;cage_22 -->
<g id="edge8" class="edge">
<title>rib_21&#45;&gt;cage_22</title>
<path fill="none" stroke="black" d="M302.47,-180C321.46,-180 344.17,-180 362.85,-180"/>
<polygon fill="black" stroke="black" points="363.04,-183.5 373.04,-180 363.04,-176.5 363.04,-183.5"/>
</g>
<!-- prism_23 -->
<g id="node10" class="node">
<title>prism_23</title>
<g id="a_node10"><a xlink:href="javascript:s=&quot;\(&#x27;creality&#x27;,\ \(&#x27;rib&#x27;,\ 1\),\ &#x27;prism&#x27;\)\nLinearExtrude&quot;; console.log(s); alert(s);" xlink:title="LinearExtrude">
<ellipse fill="none" stroke="black" cx="400.53" cy="-126" rx="31.4" ry="18"/>
<text text-anchor="middle" x="400.53" y="-122.3" font-family="Times New Roman,serif" font-size="14.00">prism</text>
</a>
</g>
</g>
<!-- rib_21&#45;&gt;prism_23 -->
<g id="edge9" class="edge">
<title>rib_21&#45;&gt;prism_23</title>
<path fill="none" stroke="black" d="M293.01,-168.28C314.11,-159.91 342.58,-148.6 364.78,-139.79"/>
<polygon fill="black" stroke="black" points="366.18,-143 374.18,-136.06 363.6,-136.5 366.18,-143"/>
</g>
<!-- cage_25 -->
<g id="node12" class="node">
<title>cage_25</title>
<g id="a_node12"><a xlink:href="javascript:s=&quot;\(&#x27;creality&#x27;,\ \(&#x27;rib&#x27;,\ 2\),\ &#x27;cage&#x27;\)\nBox&quot;; console.log(s); alert(s);" xlink:title="Box">
<ellipse fill="none" stroke="black" cx="400.53" cy="-72" rx="27.1" ry="18"/>
<text text-anchor="middle" x="400.53" y="-68.3" font-family="Times New Roman,serif" font-size="14.00">cage</text>
</a>
</g>
</g>
<!-- rib_24&#45;&gt;cage_25 -->
<g id="edge11" class="edge">
<title>rib_24&#45;&gt;cage_25</title>
<path fill="none" stroke="black" d="M302.47,-72C321.46,-72 344.17,-72 362.85,-72"/>
<polygon fill="black" stroke="black" points="363.04,-75.5 373.04,-72 363.04,-68.5 363.04,-75.5"/>
</g>
<!-- prism_26 -->
<g id="node13" class="node">
<title>prism_26</title>
<g id="a_node13"><a xlink:href="javascript:s=&quot;\(&#x27;creality&#x27;,\ \(&#x27;rib&#x27;,\ 2\),\ &#x27;prism&#x27;\)\nLinearExtrude&quot;; console.log(s); alert(s);" xlink:title="LinearExtrude">
<ellipse fill="none" stroke="black" cx="400.53" cy="-18" rx="31.4" ry="18"/>
<text text-anchor="middle" x="400.53" y="-14.3" font-family="Times New Roman,serif" font-size="14.00">prism</text>
</a>
</g>
</g>
<!-- rib_24&#45;&gt;prism_26 -->
<g id="edge12" class="edge">
<title>rib_24&#45;&gt;prism_26</title>
<path fill="none" stroke="black" d="M293.01,-60.28C314.11,-51.91 342.58,-40.6 364.78,-31.79"/>
<polygon fill="black" stroke="black" points="366.18,-35 374.18,-28.06 363.6,-28.5 366.18,-35"/>
</g>
</g>
</svg>
