solid OpenSCAD_Model
  facet normal -0.9987954563607844 0 0.049067671159865246
    outer loop
      vertex 0.024076364934444427 0 -4.509914301335812
      vertex 0 7.5 -5
      vertex 0 0 -5
    endloop
  endfacet
  facet normal -0.9987954563607844 0 0.049067671159865246
    outer loop
      vertex 0.024076364934444427 0 -4.509914301335812
      vertex 0.024076364934444427 7.5 -4.509914301335812
      vertex 0 7.5 -5
    endloop
  endfacet
  facet normal -0.989176509724005 0 0.14673047607854153
    outer loop
      vertex 0.09607359766960144 0 -4.024548389017582
      vertex 0.024076364934444427 7.5 -4.509914301335812
      vertex 0.024076364934444427 0 -4.509914301335812
    endloop
  endfacet
  facet normal -0.989176509724005 0 0.14673047607854153
    outer loop
      vertex 0.09607359766960144 0 -4.024548389017582
      vertex 0.09607359766960144 7.5 -4.024548389017582
      vertex 0.024076364934444427 7.5 -4.509914301335812
    endloop
  endfacet
  facet normal -0.9700312510179107 0 0.24298018859287096
    outer loop
      vertex 0.21529832482337952 0 -3.5485766157507896
      vertex 0.09607359766960144 7.5 -4.024548389017582
      vertex 0.09607359766960144 0 -4.024548389017582
    endloop
  endfacet
  facet normal -0.9700312510179107 0 0.24298018859287096
    outer loop
      vertex 0.21529832482337952 0 -3.5485766157507896
      vertex 0.21529832482337952 7.5 -3.5485766157507896
      vertex 0.09607359766960144 7.5 -4.024548389017582
    endloop
  endfacet
  facet normal -0.941544067614677 0 0.33688984659619614
    outer loop
      vertex 0.3806023374199867 0 -3.086582839488983
      vertex 0.21529832482337952 7.5 -3.5485766157507896
      vertex 0.21529832482337952 0 -3.5485766157507896
    endloop
  endfacet
  facet normal -0.941544067614677 0 0.33688984659619614
    outer loop
      vertex 0.3806023374199867 0 -3.086582839488983
      vertex 0.3806023374199867 7.5 -3.086582839488983
      vertex 0.21529832482337952 7.5 -3.5485766157507896
    endloop
  endfacet
  facet normal -0.9039892942597552 0 0.4275550910277525
    outer loop
      vertex 0.590393677353859 0 -2.643016315996647
      vertex 0.3806023374199867 7.5 -3.086582839488983
      vertex 0.3806023374199867 0 -3.086582839488983
    endloop
  endfacet
  facet normal -0.9039892942597552 0 0.4275550910277525
    outer loop
      vertex 0.590393677353859 0 -2.643016315996647
      vertex 0.590393677353859 7.5 -2.643016315996647
      vertex 0.3806023374199867 7.5 -3.086582839488983
    endloop
  endfacet
  facet normal -0.8577286066956991 0 0.5141027497065687
    outer loop
      vertex 0.842651940882206 0 -2.222148835659027
      vertex 0.590393677353859 7.5 -2.643016315996647
      vertex 0.590393677353859 0 -2.643016315996647
    endloop
  endfacet
  facet normal -0.8577286066956991 0 0.5141027497065687
    outer loop
      vertex 0.842651940882206 0 -2.222148835659027
      vertex 0.842651940882206 7.5 -2.222148835659027
      vertex 0.590393677353859 7.5 -2.643016315996647
    endloop
  endfacet
  facet normal -0.8032075338446832 0 0.5956993013048966
    outer loop
      vertex 1.13494773209095 0 -1.8280335813760757
      vertex 0.842651940882206 7.5 -2.222148835659027
      vertex 0.842651940882206 0 -2.222148835659027
    endloop
  endfacet
  facet normal -0.8032075338446832 0 0.5956993013048966
    outer loop
      vertex 1.13494773209095 0 -1.8280335813760757
      vertex 1.13494773209095 7.5 -1.8280335813760757
      vertex 0.842651940882206 7.5 -2.222148835659027
    endloop
  endfacet
  facet normal -0.740951124514441 0 0.6715589557743871
    outer loop
      vertex 1.4644660949707031 0 -1.4644660949707031
      vertex 1.13494773209095 7.5 -1.8280335813760757
      vertex 1.13494773209095 0 -1.8280335813760757
    endloop
  endfacet
  facet normal -0.740951124514441 0 0.6715589557743871
    outer loop
      vertex 1.4644660949707031 0 -1.4644660949707031
      vertex 1.4644660949707031 7.5 -1.4644660949707031
      vertex 1.13494773209095 7.5 -1.8280335813760757
    endloop
  endfacet
  facet normal -0.6715589557743871 0 0.740951124514441
    outer loop
      vertex 1.8280335813760757 0 -1.13494773209095
      vertex 1.4644660949707031 7.5 -1.4644660949707031
      vertex 1.4644660949707031 0 -1.4644660949707031
    endloop
  endfacet
  facet normal -0.6715589557743871 0 0.740951124514441
    outer loop
      vertex 1.8280335813760757 0 -1.13494773209095
      vertex 1.8280335813760757 7.5 -1.13494773209095
      vertex 1.4644660949707031 7.5 -1.4644660949707031
    endloop
  endfacet
  facet normal -0.5956993013048966 0 0.8032075338446832
    outer loop
      vertex 2.222148835659027 0 -0.842651940882206
      vertex 1.8280335813760757 7.5 -1.13494773209095
      vertex 1.8280335813760757 0 -1.13494773209095
    endloop
  endfacet
  facet normal -0.5956993013048966 0 0.8032075338446832
    outer loop
      vertex 2.222148835659027 0 -0.842651940882206
      vertex 2.222148835659027 7.5 -0.842651940882206
      vertex 1.8280335813760757 7.5 -1.13494773209095
    endloop
  endfacet
  facet normal -0.5141027497065687 0 0.8577286066956991
    outer loop
      vertex 2.643016315996647 0 -0.590393677353859
      vertex 2.222148835659027 7.5 -0.842651940882206
      vertex 2.222148835659027 0 -0.842651940882206
    endloop
  endfacet
  facet normal -0.5141027497065687 0 0.8577286066956991
    outer loop
      vertex 2.643016315996647 0 -0.590393677353859
      vertex 2.643016315996647 7.5 -0.590393677353859
      vertex 2.222148835659027 7.5 -0.842651940882206
    endloop
  endfacet
  facet normal -0.4275550910277525 0 0.9039892942597552
    outer loop
      vertex 3.086582839488983 0 -0.3806023374199867
      vertex 2.643016315996647 7.5 -0.590393677353859
      vertex 2.643016315996647 0 -0.590393677353859
    endloop
  endfacet
  facet normal -0.4275550910277525 0 0.9039892942597552
    outer loop
      vertex 3.086582839488983 0 -0.3806023374199867
      vertex 3.086582839488983 7.5 -0.3806023374199867
      vertex 2.643016315996647 7.5 -0.590393677353859
    endloop
  endfacet
  facet normal -0.33688984659619614 0 0.941544067614677
    outer loop
      vertex 3.5485766157507896 0 -0.21529832482337952
      vertex 3.086582839488983 7.5 -0.3806023374199867
      vertex 3.086582839488983 0 -0.3806023374199867
    endloop
  endfacet
  facet normal -0.33688984659619614 0 0.941544067614677
    outer loop
      vertex 3.5485766157507896 0 -0.21529832482337952
      vertex 3.5485766157507896 7.5 -0.21529832482337952
      vertex 3.086582839488983 7.5 -0.3806023374199867
    endloop
  endfacet
  facet normal -0.24298018859287096 0 0.9700312510179107
    outer loop
      vertex 4.024548389017582 0 -0.09607359766960144
      vertex 3.5485766157507896 7.5 -0.21529832482337952
      vertex 3.5485766157507896 0 -0.21529832482337952
    endloop
  endfacet
  facet normal -0.24298018859287096 0 0.9700312510179107
    outer loop
      vertex 4.024548389017582 0 -0.09607359766960144
      vertex 4.024548389017582 7.5 -0.09607359766960144
      vertex 3.5485766157507896 7.5 -0.21529832482337952
    endloop
  endfacet
  facet normal -0.14673047607854153 0 0.989176509724005
    outer loop
      vertex 4.509914301335812 0 -0.024076364934444427
      vertex 4.024548389017582 7.5 -0.09607359766960144
      vertex 4.024548389017582 0 -0.09607359766960144
    endloop
  endfacet
  facet normal -0.14673047607854153 0 0.989176509724005
    outer loop
      vertex 4.509914301335812 0 -0.024076364934444427
      vertex 4.509914301335812 7.5 -0.024076364934444427
      vertex 4.024548389017582 7.5 -0.09607359766960144
    endloop
  endfacet
  facet normal -0.049067671159865246 0 0.9987954563607844
    outer loop
      vertex 5 0 0
      vertex 4.509914301335812 7.5 -0.024076364934444427
      vertex 4.509914301335812 0 -0.024076364934444427
    endloop
  endfacet
  facet normal -0.049067671159865246 0 0.9987954563607844
    outer loop
      vertex 5 0 0
      vertex 5 7.5 0
      vertex 4.509914301335812 7.5 -0.024076364934444427
    endloop
  endfacet
  facet normal 0.049067671159865246 0 0.9987954563607844
    outer loop
      vertex 5.490085698664188 0 -0.024076364934444427
      vertex 5 7.5 0
      vertex 5 0 0
    endloop
  endfacet
  facet normal 0.049067671159865246 0 0.9987954563607844
    outer loop
      vertex 5.490085698664188 0 -0.024076364934444427
      vertex 5.490085698664188 7.5 -0.024076364934444427
      vertex 5 7.5 0
    endloop
  endfacet
  facet normal 0.14673047607854153 0 0.989176509724005
    outer loop
      vertex 5.975451610982418 0 -0.09607359766960144
      vertex 5.490085698664188 7.5 -0.024076364934444427
      vertex 5.490085698664188 0 -0.024076364934444427
    endloop
  endfacet
  facet normal 0.14673047607854153 0 0.989176509724005
    outer loop
      vertex 5.975451610982418 0 -0.09607359766960144
      vertex 5.975451610982418 7.5 -0.09607359766960144
      vertex 5.490085698664188 7.5 -0.024076364934444427
    endloop
  endfacet
  facet normal 0.24298018859287096 0 0.9700312510179107
    outer loop
      vertex 6.45142338424921 0 -0.21529832482337952
      vertex 5.975451610982418 7.5 -0.09607359766960144
      vertex 5.975451610982418 0 -0.09607359766960144
    endloop
  endfacet
  facet normal 0.24298018859287096 0 0.9700312510179107
    outer loop
      vertex 6.45142338424921 0 -0.21529832482337952
      vertex 6.45142338424921 7.5 -0.21529832482337952
      vertex 5.975451610982418 7.5 -0.09607359766960144
    endloop
  endfacet
  facet normal 0.33688984659619614 0 0.941544067614677
    outer loop
      vertex 6.913417160511017 0 -0.3806023374199867
      vertex 6.45142338424921 7.5 -0.21529832482337952
      vertex 6.45142338424921 0 -0.21529832482337952
    endloop
  endfacet
  facet normal 0.33688984659619614 0 0.941544067614677
    outer loop
      vertex 6.913417160511017 0 -0.3806023374199867
      vertex 6.913417160511017 7.5 -0.3806023374199867
      vertex 6.45142338424921 7.5 -0.21529832482337952
    endloop
  endfacet
  facet normal 0.4275550910277525 0 0.9039892942597552
    outer loop
      vertex 7.356983684003353 0 -0.590393677353859
      vertex 6.913417160511017 7.5 -0.3806023374199867
      vertex 6.913417160511017 0 -0.3806023374199867
    endloop
  endfacet
  facet normal 0.4275550910277525 0 0.9039892942597552
    outer loop
      vertex 7.356983684003353 0 -0.590393677353859
      vertex 7.356983684003353 7.5 -0.590393677353859
      vertex 6.913417160511017 7.5 -0.3806023374199867
    endloop
  endfacet
  facet normal 0.5141027497065687 0 0.8577286066956991
    outer loop
      vertex 7.777851164340973 0 -0.842651940882206
      vertex 7.356983684003353 7.5 -0.590393677353859
      vertex 7.356983684003353 0 -0.590393677353859
    endloop
  endfacet
  facet normal 0.5141027497065687 0 0.8577286066956991
    outer loop
      vertex 7.777851164340973 0 -0.842651940882206
      vertex 7.777851164340973 7.5 -0.842651940882206
      vertex 7.356983684003353 7.5 -0.590393677353859
    endloop
  endfacet
  facet normal 0.5956993013048966 0 0.8032075338446832
    outer loop
      vertex 8.171966418623924 0 -1.13494773209095
      vertex 7.777851164340973 7.5 -0.842651940882206
      vertex 7.777851164340973 0 -0.842651940882206
    endloop
  endfacet
  facet normal 0.5956993013048966 0 0.8032075338446832
    outer loop
      vertex 8.171966418623924 0 -1.13494773209095
      vertex 8.171966418623924 7.5 -1.13494773209095
      vertex 7.777851164340973 7.5 -0.842651940882206
    endloop
  endfacet
  facet normal 0.6715589557743871 0 0.740951124514441
    outer loop
      vertex 8.535533905029297 0 -1.4644660949707031
      vertex 8.171966418623924 7.5 -1.13494773209095
      vertex 8.171966418623924 0 -1.13494773209095
    endloop
  endfacet
  facet normal 0.6715589557743871 0 0.740951124514441
    outer loop
      vertex 8.535533905029297 0 -1.4644660949707031
      vertex 8.535533905029297 7.5 -1.4644660949707031
      vertex 8.171966418623924 7.5 -1.13494773209095
    endloop
  endfacet
  facet normal 0.740951124514441 0 0.6715589557743871
    outer loop
      vertex 8.86505226790905 0 -1.8280335813760757
      vertex 8.535533905029297 7.5 -1.4644660949707031
      vertex 8.535533905029297 0 -1.4644660949707031
    endloop
  endfacet
  facet normal 0.740951124514441 0 0.6715589557743871
    outer loop
      vertex 8.86505226790905 0 -1.8280335813760757
      vertex 8.86505226790905 7.5 -1.8280335813760757
      vertex 8.535533905029297 7.5 -1.4644660949707031
    endloop
  endfacet
  facet normal 0.8032075338446832 0 0.5956993013048966
    outer loop
      vertex 9.157348059117794 0 -2.222148835659027
      vertex 8.86505226790905 7.5 -1.8280335813760757
      vertex 8.86505226790905 0 -1.8280335813760757
    endloop
  endfacet
  facet normal 0.8032075338446832 0 0.5956993013048966
    outer loop
      vertex 9.157348059117794 0 -2.222148835659027
      vertex 9.157348059117794 7.5 -2.222148835659027
      vertex 8.86505226790905 7.5 -1.8280335813760757
    endloop
  endfacet
  facet normal 0.8577286066956991 0 0.5141027497065687
    outer loop
      vertex 9.409606322646141 0 -2.643016315996647
      vertex 9.157348059117794 7.5 -2.222148835659027
      vertex 9.157348059117794 0 -2.222148835659027
    endloop
  endfacet
  facet normal 0.8577286066956991 0 0.5141027497065687
    outer loop
      vertex 9.409606322646141 0 -2.643016315996647
      vertex 9.409606322646141 7.5 -2.643016315996647
      vertex 9.157348059117794 7.5 -2.222148835659027
    endloop
  endfacet
  facet normal 0.9039892942597552 0 0.4275550910277525
    outer loop
      vertex 9.619397662580013 0 -3.086582839488983
      vertex 9.409606322646141 7.5 -2.643016315996647
      vertex 9.409606322646141 0 -2.643016315996647
    endloop
  endfacet
  facet normal 0.9039892942597552 0 0.4275550910277525
    outer loop
      vertex 9.619397662580013 0 -3.086582839488983
      vertex 9.619397662580013 7.5 -3.086582839488983
      vertex 9.409606322646141 7.5 -2.643016315996647
    endloop
  endfacet
  facet normal 0.941544067614677 0 0.33688984659619614
    outer loop
      vertex 9.78470167517662 0 -3.5485766157507896
      vertex 9.619397662580013 7.5 -3.086582839488983
      vertex 9.619397662580013 0 -3.086582839488983
    endloop
  endfacet
  facet normal 0.941544067614677 0 0.33688984659619614
    outer loop
      vertex 9.78470167517662 0 -3.5485766157507896
      vertex 9.78470167517662 7.5 -3.5485766157507896
      vertex 9.619397662580013 7.5 -3.086582839488983
    endloop
  endfacet
  facet normal 0.9700312510179107 0 0.24298018859287096
    outer loop
      vertex 9.903926402330399 0 -4.024548389017582
      vertex 9.78470167517662 7.5 -3.5485766157507896
      vertex 9.78470167517662 0 -3.5485766157507896
    endloop
  endfacet
  facet normal 0.9700312510179107 0 0.24298018859287096
    outer loop
      vertex 9.903926402330399 0 -4.024548389017582
      vertex 9.903926402330399 7.5 -4.024548389017582
      vertex 9.78470167517662 7.5 -3.5485766157507896
    endloop
  endfacet
  facet normal 0.989176509724005 0 0.14673047607854153
    outer loop
      vertex 9.975923635065556 0 -4.509914301335812
      vertex 9.903926402330399 7.5 -4.024548389017582
      vertex 9.903926402330399 0 -4.024548389017582
    endloop
  endfacet
  facet normal 0.989176509724005 0 0.14673047607854153
    outer loop
      vertex 9.975923635065556 0 -4.509914301335812
      vertex 9.975923635065556 7.5 -4.509914301335812
      vertex 9.903926402330399 7.5 -4.024548389017582
    endloop
  endfacet
  facet normal 0.9987954563607844 0 0.049067671159865246
    outer loop
      vertex 10 0 -5
      vertex 9.975923635065556 7.5 -4.509914301335812
      vertex 9.975923635065556 0 -4.509914301335812
    endloop
  endfacet
  facet normal 0.9987954563607844 0 0.049067671159865246
    outer loop
      vertex 10 0 -5
      vertex 10 7.5 -5
      vertex 9.975923635065556 7.5 -4.509914301335812
    endloop
  endfacet
  facet normal 1 0 0
    outer loop
      vertex 10 0 -25
      vertex 10 7.5 -5
      vertex 10 0 -5
    endloop
  endfacet
  facet normal 1 0 0
    outer loop
      vertex 10 0 -25
      vertex 10 7.5 -25
      vertex 10 7.5 -5
    endloop
  endfacet
  facet normal 0 0 -1
    outer loop
      vertex 0 0 -25
      vertex 10 7.5 -25
      vertex 10 0 -25
    endloop
  endfacet
  facet normal 0 0 -1
    outer loop
      vertex 0 0 -25
      vertex 0 7.5 -25
      vertex 10 7.5 -25
    endloop
  endfacet
  facet normal -1 0 0
    outer loop
      vertex 0 0 -5
      vertex 0 7.5 -25
      vertex 0 0 -25
    endloop
  endfacet
  facet normal -1 0 0
    outer loop
      vertex 0 0 -5
      vertex 0 7.5 -5
      vertex 0 7.5 -25
    endloop
  endfacet
  facet normal -0.9987954563607844 0 0.049067671159865246
    outer loop
      vertex 0.024076364934444427 7.5 -4.509914301335812
      vertex 0 15 -5
      vertex 0 7.5 -5
    endloop
  endfacet
  facet normal -0.9987954563607844 0 0.049067671159865246
    outer loop
      vertex 0.024076364934444427 7.5 -4.509914301335812
      vertex 0.024076364934444427 15 -4.509914301335812
      vertex 0 15 -5
    endloop
  endfacet
  facet normal -0.989176509724005 0 0.14673047607854153
    outer loop
      vertex 0.09607359766960144 7.5 -4.024548389017582
      vertex 0.024076364934444427 15 -4.509914301335812
      vertex 0.024076364934444427 7.5 -4.509914301335812
    endloop
  endfacet
  facet normal -0.989176509724005 0 0.14673047607854153
    outer loop
      vertex 0.09607359766960144 7.5 -4.024548389017582
      vertex 0.09607359766960144 15 -4.024548389017582
      vertex 0.024076364934444427 15 -4.509914301335812
    endloop
  endfacet
  facet normal -0.9700312510179107 0 0.24298018859287096
    outer loop
      vertex 0.21529832482337952 7.5 -3.5485766157507896
      vertex 0.09607359766960144 15 -4.024548389017582
      vertex 0.09607359766960144 7.5 -4.024548389017582
    endloop
  endfacet
  facet normal -0.9700312510179107 0 0.24298018859287096
    outer loop
      vertex 0.21529832482337952 7.5 -3.5485766157507896
      vertex 0.21529832482337952 15 -3.5485766157507896
      vertex 0.09607359766960144 15 -4.024548389017582
    endloop
  endfacet
  facet normal -0.941544067614677 0 0.33688984659619614
    outer loop
      vertex 0.3806023374199867 7.5 -3.086582839488983
      vertex 0.21529832482337952 15 -3.5485766157507896
      vertex 0.21529832482337952 7.5 -3.5485766157507896
    endloop
  endfacet
  facet normal -0.941544067614677 0 0.33688984659619614
    outer loop
      vertex 0.3806023374199867 7.5 -3.086582839488983
      vertex 0.3806023374199867 15 -3.086582839488983
      vertex 0.21529832482337952 15 -3.5485766157507896
    endloop
  endfacet
  facet normal -0.9039892942597552 0 0.4275550910277525
    outer loop
      vertex 0.590393677353859 7.5 -2.643016315996647
      vertex 0.3806023374199867 15 -3.086582839488983
      vertex 0.3806023374199867 7.5 -3.086582839488983
    endloop
  endfacet
  facet normal -0.9039892942597552 0 0.4275550910277525
    outer loop
      vertex 0.590393677353859 7.5 -2.643016315996647
      vertex 0.590393677353859 15 -2.643016315996647
      vertex 0.3806023374199867 15 -3.086582839488983
    endloop
  endfacet
  facet normal -0.8577286066956991 0 0.5141027497065687
    outer loop
      vertex 0.842651940882206 7.5 -2.222148835659027
      vertex 0.590393677353859 15 -2.643016315996647
      vertex 0.590393677353859 7.5 -2.643016315996647
    endloop
  endfacet
  facet normal -0.8577286066956991 0 0.5141027497065687
    outer loop
      vertex 0.842651940882206 7.5 -2.222148835659027
      vertex 0.842651940882206 15 -2.222148835659027
      vertex 0.590393677353859 15 -2.643016315996647
    endloop
  endfacet
  facet normal -0.8032075338446832 0 0.5956993013048966
    outer loop
      vertex 1.13494773209095 7.5 -1.8280335813760757
      vertex 0.842651940882206 15 -2.222148835659027
      vertex 0.842651940882206 7.5 -2.222148835659027
    endloop
  endfacet
  facet normal -0.8032075338446832 0 0.5956993013048966
    outer loop
      vertex 1.13494773209095 7.5 -1.8280335813760757
      vertex 1.13494773209095 15 -1.8280335813760757
      vertex 0.842651940882206 15 -2.222148835659027
    endloop
  endfacet
  facet normal -0.740951124514441 0 0.6715589557743871
    outer loop
      vertex 1.4644660949707031 7.5 -1.4644660949707031
      vertex 1.13494773209095 15 -1.8280335813760757
      vertex 1.13494773209095 7.5 -1.8280335813760757
    endloop
  endfacet
  facet normal -0.740951124514441 0 0.6715589557743871
    outer loop
      vertex 1.4644660949707031 7.5 -1.4644660949707031
      vertex 1.4644660949707031 15 -1.4644660949707031
      vertex 1.13494773209095 15 -1.8280335813760757
    endloop
  endfacet
  facet normal -0.6715589557743871 0 0.740951124514441
    outer loop
      vertex 1.8280335813760757 7.5 -1.13494773209095
      vertex 1.4644660949707031 15 -1.4644660949707031
      vertex 1.4644660949707031 7.5 -1.4644660949707031
    endloop
  endfacet
  facet normal -0.6715589557743871 0 0.740951124514441
    outer loop
      vertex 1.8280335813760757 7.5 -1.13494773209095
      vertex 1.8280335813760757 15 -1.13494773209095
      vertex 1.4644660949707031 15 -1.4644660949707031
    endloop
  endfacet
  facet normal -0.5956993013048966 0 0.8032075338446832
    outer loop
      vertex 2.222148835659027 7.5 -0.842651940882206
      vertex 1.8280335813760757 15 -1.13494773209095
      vertex 1.8280335813760757 7.5 -1.13494773209095
    endloop
  endfacet
  facet normal -0.5956993013048966 0 0.8032075338446832
    outer loop
      vertex 2.222148835659027 7.5 -0.842651940882206
      vertex 2.222148835659027 15 -0.842651940882206
      vertex 1.8280335813760757 15 -1.13494773209095
    endloop
  endfacet
  facet normal -0.5141027497065687 0 0.8577286066956991
    outer loop
      vertex 2.643016315996647 7.5 -0.590393677353859
      vertex 2.222148835659027 15 -0.842651940882206
      vertex 2.222148835659027 7.5 -0.842651940882206
    endloop
  endfacet
  facet normal -0.5141027497065687 0 0.8577286066956991
    outer loop
      vertex 2.643016315996647 7.5 -0.590393677353859
      vertex 2.643016315996647 15 -0.590393677353859
      vertex 2.222148835659027 15 -0.842651940882206
    endloop
  endfacet
  facet normal -0.4275550910277525 0 0.9039892942597552
    outer loop
      vertex 3.086582839488983 7.5 -0.3806023374199867
      vertex 2.643016315996647 15 -0.590393677353859
      vertex 2.643016315996647 7.5 -0.590393677353859
    endloop
  endfacet
  facet normal -0.4275550910277525 0 0.9039892942597552
    outer loop
      vertex 3.086582839488983 7.5 -0.3806023374199867
      vertex 3.086582839488983 15 -0.3806023374199867
      vertex 2.643016315996647 15 -0.590393677353859
    endloop
  endfacet
  facet normal -0.33688984659619614 0 0.941544067614677
    outer loop
      vertex 3.5485766157507896 7.5 -0.21529832482337952
      vertex 3.086582839488983 15 -0.3806023374199867
      vertex 3.086582839488983 7.5 -0.3806023374199867
    endloop
  endfacet
  facet normal -0.33688984659619614 0 0.941544067614677
    outer loop
      vertex 3.5485766157507896 7.5 -0.21529832482337952
      vertex 3.5485766157507896 15 -0.21529832482337952
      vertex 3.086582839488983 15 -0.3806023374199867
    endloop
  endfacet
  facet normal -0.24298018859287096 0 0.9700312510179107
    outer loop
      vertex 4.024548389017582 7.5 -0.09607359766960144
      vertex 3.5485766157507896 15 -0.21529832482337952
      vertex 3.5485766157507896 7.5 -0.21529832482337952
    endloop
  endfacet
  facet normal -0.24298018859287096 0 0.9700312510179107
    outer loop
      vertex 4.024548389017582 7.5 -0.09607359766960144
      vertex 4.024548389017582 15 -0.09607359766960144
      vertex 3.5485766157507896 15 -0.21529832482337952
    endloop
  endfacet
  facet normal -0.14673047607854153 0 0.989176509724005
    outer loop
      vertex 4.509914301335812 7.5 -0.024076364934444427
      vertex 4.024548389017582 15 -0.09607359766960144
      vertex 4.024548389017582 7.5 -0.09607359766960144
    endloop
  endfacet
  facet normal -0.14673047607854153 0 0.989176509724005
    outer loop
      vertex 4.509914301335812 7.5 -0.024076364934444427
      vertex 4.509914301335812 15 -0.024076364934444427
      vertex 4.024548389017582 15 -0.09607359766960144
    endloop
  endfacet
  facet normal -0.049067671159865246 0 0.9987954563607844
    outer loop
      vertex 5 7.5 0
      vertex 4.509914301335812 15 -0.024076364934444427
      vertex 4.509914301335812 7.5 -0.024076364934444427
    endloop
  endfacet
  facet normal -0.049067671159865246 0 0.9987954563607844
    outer loop
      vertex 5 7.5 0
      vertex 5 15 0
      vertex 4.509914301335812 15 -0.024076364934444427
    endloop
  endfacet
  facet normal 0.049067671159865246 0 0.9987954563607844
    outer loop
      vertex 5.490085698664188 7.5 -0.024076364934444427
      vertex 5 15 0
      vertex 5 7.5 0
    endloop
  endfacet
  facet normal 0.049067671159865246 0 0.9987954563607844
    outer loop
      vertex 5.490085698664188 7.5 -0.024076364934444427
      vertex 5.490085698664188 15 -0.024076364934444427
      vertex 5 15 0
    endloop
  endfacet
  facet normal 0.14673047607854153 0 0.989176509724005
    outer loop
      vertex 5.975451610982418 7.5 -0.09607359766960144
      vertex 5.490085698664188 15 -0.024076364934444427
      vertex 5.490085698664188 7.5 -0.024076364934444427
    endloop
  endfacet
  facet normal 0.14673047607854153 0 0.989176509724005
    outer loop
      vertex 5.975451610982418 7.5 -0.09607359766960144
      vertex 5.975451610982418 15 -0.09607359766960144
      vertex 5.490085698664188 15 -0.024076364934444427
    endloop
  endfacet
  facet normal 0.24298018859287096 0 0.9700312510179107
    outer loop
      vertex 6.45142338424921 7.5 -0.21529832482337952
      vertex 5.975451610982418 15 -0.09607359766960144
      vertex 5.975451610982418 7.5 -0.09607359766960144
    endloop
  endfacet
  facet normal 0.24298018859287096 0 0.9700312510179107
    outer loop
      vertex 6.45142338424921 7.5 -0.21529832482337952
      vertex 6.45142338424921 15 -0.21529832482337952
      vertex 5.975451610982418 15 -0.09607359766960144
    endloop
  endfacet
  facet normal 0.33688984659619614 0 0.941544067614677
    outer loop
      vertex 6.913417160511017 7.5 -0.3806023374199867
      vertex 6.45142338424921 15 -0.21529832482337952
      vertex 6.45142338424921 7.5 -0.21529832482337952
    endloop
  endfacet
  facet normal 0.33688984659619614 0 0.941544067614677
    outer loop
      vertex 6.913417160511017 7.5 -0.3806023374199867
      vertex 6.913417160511017 15 -0.3806023374199867
      vertex 6.45142338424921 15 -0.21529832482337952
    endloop
  endfacet
  facet normal 0.4275550910277525 0 0.9039892942597552
    outer loop
      vertex 7.356983684003353 7.5 -0.590393677353859
      vertex 6.913417160511017 15 -0.3806023374199867
      vertex 6.913417160511017 7.5 -0.3806023374199867
    endloop
  endfacet
  facet normal 0.4275550910277525 0 0.9039892942597552
    outer loop
      vertex 7.356983684003353 7.5 -0.590393677353859
      vertex 7.356983684003353 15 -0.590393677353859
      vertex 6.913417160511017 15 -0.3806023374199867
    endloop
  endfacet
  facet normal 0.5141027497065687 0 0.8577286066956991
    outer loop
      vertex 7.777851164340973 7.5 -0.842651940882206
      vertex 7.356983684003353 15 -0.590393677353859
      vertex 7.356983684003353 7.5 -0.590393677353859
    endloop
  endfacet
  facet normal 0.5141027497065687 0 0.8577286066956991
    outer loop
      vertex 7.777851164340973 7.5 -0.842651940882206
      vertex 7.777851164340973 15 -0.842651940882206
      vertex 7.356983684003353 15 -0.590393677353859
    endloop
  endfacet
  facet normal 0.5956993013048966 0 0.8032075338446832
    outer loop
      vertex 8.171966418623924 7.5 -1.13494773209095
      vertex 7.777851164340973 15 -0.842651940882206
      vertex 7.777851164340973 7.5 -0.842651940882206
    endloop
  endfacet
  facet normal 0.5956993013048966 0 0.8032075338446832
    outer loop
      vertex 8.171966418623924 7.5 -1.13494773209095
      vertex 8.171966418623924 15 -1.13494773209095
      vertex 7.777851164340973 15 -0.842651940882206
    endloop
  endfacet
  facet normal 0.6715589557743871 0 0.740951124514441
    outer loop
      vertex 8.535533905029297 7.5 -1.4644660949707031
      vertex 8.171966418623924 15 -1.13494773209095
      vertex 8.171966418623924 7.5 -1.13494773209095
    endloop
  endfacet
  facet normal 0.6715589557743871 0 0.740951124514441
    outer loop
      vertex 8.535533905029297 7.5 -1.4644660949707031
      vertex 8.535533905029297 15 -1.4644660949707031
      vertex 8.171966418623924 15 -1.13494773209095
    endloop
  endfacet
  facet normal 0.740951124514441 0 0.6715589557743871
    outer loop
      vertex 8.86505226790905 7.5 -1.8280335813760757
      vertex 8.535533905029297 15 -1.4644660949707031
      vertex 8.535533905029297 7.5 -1.4644660949707031
    endloop
  endfacet
  facet normal 0.740951124514441 0 0.6715589557743871
    outer loop
      vertex 8.86505226790905 7.5 -1.8280335813760757
      vertex 8.86505226790905 15 -1.8280335813760757
      vertex 8.535533905029297 15 -1.4644660949707031
    endloop
  endfacet
  facet normal 0.8032075338446832 0 0.5956993013048966
    outer loop
      vertex 9.157348059117794 7.5 -2.222148835659027
      vertex 8.86505226790905 15 -1.8280335813760757
      vertex 8.86505226790905 7.5 -1.8280335813760757
    endloop
  endfacet
  facet normal 0.8032075338446832 0 0.5956993013048966
    outer loop
      vertex 9.157348059117794 7.5 -2.222148835659027
      vertex 9.157348059117794 15 -2.222148835659027
      vertex 8.86505226790905 15 -1.8280335813760757
    endloop
  endfacet
  facet normal 0.8577286066956991 0 0.5141027497065687
    outer loop
      vertex 9.409606322646141 7.5 -2.643016315996647
      vertex 9.157348059117794 15 -2.222148835659027
      vertex 9.157348059117794 7.5 -2.222148835659027
    endloop
  endfacet
  facet normal 0.8577286066956991 0 0.5141027497065687
    outer loop
      vertex 9.409606322646141 7.5 -2.643016315996647
      vertex 9.409606322646141 15 -2.643016315996647
      vertex 9.157348059117794 15 -2.222148835659027
    endloop
  endfacet
  facet normal 0.9039892942597552 0 0.4275550910277525
    outer loop
      vertex 9.619397662580013 7.5 -3.086582839488983
      vertex 9.409606322646141 15 -2.643016315996647
      vertex 9.409606322646141 7.5 -2.643016315996647
    endloop
  endfacet
  facet normal 0.9039892942597552 0 0.4275550910277525
    outer loop
      vertex 9.619397662580013 7.5 -3.086582839488983
      vertex 9.619397662580013 15 -3.086582839488983
      vertex 9.409606322646141 15 -2.643016315996647
    endloop
  endfacet
  facet normal 0.941544067614677 0 0.33688984659619614
    outer loop
      vertex 9.78470167517662 7.5 -3.5485766157507896
      vertex 9.619397662580013 15 -3.086582839488983
      vertex 9.619397662580013 7.5 -3.086582839488983
    endloop
  endfacet
  facet normal 0.941544067614677 0 0.33688984659619614
    outer loop
      vertex 9.78470167517662 7.5 -3.5485766157507896
      vertex 9.78470167517662 15 -3.5485766157507896
      vertex 9.619397662580013 15 -3.086582839488983
    endloop
  endfacet
  facet normal 0.9700312510179107 0 0.24298018859287096
    outer loop
      vertex 9.903926402330399 7.5 -4.024548389017582
      vertex 9.78470167517662 15 -3.5485766157507896
      vertex 9.78470167517662 7.5 -3.5485766157507896
    endloop
  endfacet
  facet normal 0.9700312510179107 0 0.24298018859287096
    outer loop
      vertex 9.903926402330399 7.5 -4.024548389017582
      vertex 9.903926402330399 15 -4.024548389017582
      vertex 9.78470167517662 15 -3.5485766157507896
    endloop
  endfacet
  facet normal 0.989176509724005 0 0.14673047607854153
    outer loop
      vertex 9.975923635065556 7.5 -4.509914301335812
      vertex 9.903926402330399 15 -4.024548389017582
      vertex 9.903926402330399 7.5 -4.024548389017582
    endloop
  endfacet
  facet normal 0.989176509724005 0 0.14673047607854153
    outer loop
      vertex 9.975923635065556 7.5 -4.509914301335812
      vertex 9.975923635065556 15 -4.509914301335812
      vertex 9.903926402330399 15 -4.024548389017582
    endloop
  endfacet
  facet normal 0.9987954563607844 0 0.049067671159865246
    outer loop
      vertex 10 7.5 -5
      vertex 9.975923635065556 15 -4.509914301335812
      vertex 9.975923635065556 7.5 -4.509914301335812
    endloop
  endfacet
  facet normal 0.9987954563607844 0 0.049067671159865246
    outer loop
      vertex 10 7.5 -5
      vertex 10 15 -5
      vertex 9.975923635065556 15 -4.509914301335812
    endloop
  endfacet
  facet normal 1 0 0
    outer loop
      vertex 10 7.5 -25
      vertex 10 15 -5
      vertex 10 7.5 -5
    endloop
  endfacet
  facet normal 1 0 0
    outer loop
      vertex 10 7.5 -25
      vertex 10 15 -25
      vertex 10 15 -5
    endloop
  endfacet
  facet normal 0 0 -1
    outer loop
      vertex 0 7.5 -25
      vertex 10 15 -25
      vertex 10 7.5 -25
    endloop
  endfacet
  facet normal 0 0 -1
    outer loop
      vertex 0 7.5 -25
      vertex 0 15 -25
      vertex 10 15 -25
    endloop
  endfacet
  facet normal -1 0 0
    outer loop
      vertex 0 7.5 -5
      vertex 0 15 -25
      vertex 0 7.5 -25
    endloop
  endfacet
  facet normal -1 0 0
    outer loop
      vertex 0 7.5 -5
      vertex 0 15 -5
      vertex 0 15 -25
    endloop
  endfacet
  facet normal -0.9987954563607844 0 0.049067671159865246
    outer loop
      vertex 0.024076364934444427 15 -4.509914301335812
      vertex 0 22.5 -5
      vertex 0 15 -5
    endloop
  endfacet
  facet normal -0.9987954563607844 0 0.049067671159865246
    outer loop
      vertex 0.024076364934444427 15 -4.509914301335812
      vertex 0.024076364934444427 22.5 -4.509914301335812
      vertex 0 22.5 -5
    endloop
  endfacet
  facet normal -0.989176509724005 0 0.14673047607854153
    outer loop
      vertex 0.09607359766960144 15 -4.024548389017582
      vertex 0.024076364934444427 22.5 -4.509914301335812
      vertex 0.024076364934444427 15 -4.509914301335812
    endloop
  endfacet
  facet normal -0.989176509724005 0 0.14673047607854153
    outer loop
      vertex 0.09607359766960144 15 -4.024548389017582
      vertex 0.09607359766960144 22.5 -4.024548389017582
      vertex 0.024076364934444427 22.5 -4.509914301335812
    endloop
  endfacet
  facet normal -0.9700312510179107 0 0.24298018859287096
    outer loop
      vertex 0.21529832482337952 15 -3.5485766157507896
      vertex 0.09607359766960144 22.5 -4.024548389017582
      vertex 0.09607359766960144 15 -4.024548389017582
    endloop
  endfacet
  facet normal -0.9700312510179107 0 0.24298018859287096
    outer loop
      vertex 0.21529832482337952 15 -3.5485766157507896
      vertex 0.21529832482337952 22.5 -3.5485766157507896
      vertex 0.09607359766960144 22.5 -4.024548389017582
    endloop
  endfacet
  facet normal -0.941544067614677 0 0.33688984659619614
    outer loop
      vertex 0.3806023374199867 15 -3.086582839488983
      vertex 0.21529832482337952 22.5 -3.5485766157507896
      vertex 0.21529832482337952 15 -3.5485766157507896
    endloop
  endfacet
  facet normal -0.941544067614677 0 0.33688984659619614
    outer loop
      vertex 0.3806023374199867 15 -3.086582839488983
      vertex 0.3806023374199867 22.5 -3.086582839488983
      vertex 0.21529832482337952 22.5 -3.5485766157507896
    endloop
  endfacet
  facet normal -0.9039892942597552 0 0.4275550910277525
    outer loop
      vertex 0.590393677353859 15 -2.643016315996647
      vertex 0.3806023374199867 22.5 -3.086582839488983
      vertex 0.3806023374199867 15 -3.086582839488983
    endloop
  endfacet
  facet normal -0.9039892942597552 0 0.4275550910277525
    outer loop
      vertex 0.590393677353859 15 -2.643016315996647
      vertex 0.590393677353859 22.5 -2.643016315996647
      vertex 0.3806023374199867 22.5 -3.086582839488983
    endloop
  endfacet
  facet normal -0.8577286066956991 0 0.5141027497065687
    outer loop
      vertex 0.842651940882206 15 -2.222148835659027
      vertex 0.590393677353859 22.5 -2.643016315996647
      vertex 0.590393677353859 15 -2.643016315996647
    endloop
  endfacet
  facet normal -0.8577286066956991 0 0.5141027497065687
    outer loop
      vertex 0.842651940882206 15 -2.222148835659027
      vertex 0.842651940882206 22.5 -2.222148835659027
      vertex 0.590393677353859 22.5 -2.643016315996647
    endloop
  endfacet
  facet normal -0.8032075338446832 0 0.5956993013048966
    outer loop
      vertex 1.13494773209095 15 -1.8280335813760757
      vertex 0.842651940882206 22.5 -2.222148835659027
      vertex 0.842651940882206 15 -2.222148835659027
    endloop
  endfacet
  facet normal -0.8032075338446832 0 0.5956993013048966
    outer loop
      vertex 1.13494773209095 15 -1.8280335813760757
      vertex 1.13494773209095 22.5 -1.8280335813760757
      vertex 0.842651940882206 22.5 -2.222148835659027
    endloop
  endfacet
  facet normal -0.740951124514441 0 0.6715589557743871
    outer loop
      vertex 1.4644660949707031 15 -1.4644660949707031
      vertex 1.13494773209095 22.5 -1.8280335813760757
      vertex 1.13494773209095 15 -1.8280335813760757
    endloop
  endfacet
  facet normal -0.740951124514441 0 0.6715589557743871
    outer loop
      vertex 1.4644660949707031 15 -1.4644660949707031
      vertex 1.4644660949707031 22.5 -1.4644660949707031
      vertex 1.13494773209095 22.5 -1.8280335813760757
    endloop
  endfacet
  facet normal -0.6715589557743871 0 0.740951124514441
    outer loop
      vertex 1.8280335813760757 15 -1.13494773209095
      vertex 1.4644660949707031 22.5 -1.4644660949707031
      vertex 1.4644660949707031 15 -1.4644660949707031
    endloop
  endfacet
  facet normal -0.6715589557743871 0 0.740951124514441
    outer loop
      vertex 1.8280335813760757 15 -1.13494773209095
      vertex 1.8280335813760757 22.5 -1.13494773209095
      vertex 1.4644660949707031 22.5 -1.4644660949707031
    endloop
  endfacet
  facet normal -0.5956993013048966 0 0.8032075338446832
    outer loop
      vertex 2.222148835659027 15 -0.842651940882206
      vertex 1.8280335813760757 22.5 -1.13494773209095
      vertex 1.8280335813760757 15 -1.13494773209095
    endloop
  endfacet
  facet normal -0.5956993013048966 0 0.8032075338446832
    outer loop
      vertex 2.222148835659027 15 -0.842651940882206
      vertex 2.222148835659027 22.5 -0.842651940882206
      vertex 1.8280335813760757 22.5 -1.13494773209095
    endloop
  endfacet
  facet normal -0.5141027497065687 0 0.8577286066956991
    outer loop
      vertex 2.643016315996647 15 -0.590393677353859
      vertex 2.222148835659027 22.5 -0.842651940882206
      vertex 2.222148835659027 15 -0.842651940882206
    endloop
  endfacet
  facet normal -0.5141027497065687 0 0.8577286066956991
    outer loop
      vertex 2.643016315996647 15 -0.590393677353859
      vertex 2.643016315996647 22.5 -0.590393677353859
      vertex 2.222148835659027 22.5 -0.842651940882206
    endloop
  endfacet
  facet normal -0.4275550910277525 0 0.9039892942597552
    outer loop
      vertex 3.086582839488983 15 -0.3806023374199867
      vertex 2.643016315996647 22.5 -0.590393677353859
      vertex 2.643016315996647 15 -0.590393677353859
    endloop
  endfacet
  facet normal -0.4275550910277525 0 0.9039892942597552
    outer loop
      vertex 3.086582839488983 15 -0.3806023374199867
      vertex 3.086582839488983 22.5 -0.3806023374199867
      vertex 2.643016315996647 22.5 -0.590393677353859
    endloop
  endfacet
  facet normal -0.33688984659619614 0 0.941544067614677
    outer loop
      vertex 3.5485766157507896 15 -0.21529832482337952
      vertex 3.086582839488983 22.5 -0.3806023374199867
      vertex 3.086582839488983 15 -0.3806023374199867
    endloop
  endfacet
  facet normal -0.33688984659619614 0 0.941544067614677
    outer loop
      vertex 3.5485766157507896 15 -0.21529832482337952
      vertex 3.5485766157507896 22.5 -0.21529832482337952
      vertex 3.086582839488983 22.5 -0.3806023374199867
    endloop
  endfacet
  facet normal -0.24298018859287096 0 0.9700312510179107
    outer loop
      vertex 4.024548389017582 15 -0.09607359766960144
      vertex 3.5485766157507896 22.5 -0.21529832482337952
      vertex 3.5485766157507896 15 -0.21529832482337952
    endloop
  endfacet
  facet normal -0.24298018859287096 0 0.9700312510179107
    outer loop
      vertex 4.024548389017582 15 -0.09607359766960144
      vertex 4.024548389017582 22.5 -0.09607359766960144
      vertex 3.5485766157507896 22.5 -0.21529832482337952
    endloop
  endfacet
  facet normal -0.14673047607854153 0 0.989176509724005
    outer loop
      vertex 4.509914301335812 15 -0.024076364934444427
      vertex 4.024548389017582 22.5 -0.09607359766960144
      vertex 4.024548389017582 15 -0.09607359766960144
    endloop
  endfacet
  facet normal -0.14673047607854153 0 0.989176509724005
    outer loop
      vertex 4.509914301335812 15 -0.024076364934444427
      vertex 4.509914301335812 22.5 -0.024076364934444427
      vertex 4.024548389017582 22.5 -0.09607359766960144
    endloop
  endfacet
  facet normal -0.049067671159865246 0 0.9987954563607844
    outer loop
      vertex 5 15 0
      vertex 4.509914301335812 22.5 -0.024076364934444427
      vertex 4.509914301335812 15 -0.024076364934444427
    endloop
  endfacet
  facet normal -0.049067671159865246 0 0.9987954563607844
    outer loop
      vertex 5 15 0
      vertex 5 22.5 0
      vertex 4.509914301335812 22.5 -0.024076364934444427
    endloop
  endfacet
  facet normal 0.049067671159865246 0 0.9987954563607844
    outer loop
      vertex 5.490085698664188 15 -0.024076364934444427
      vertex 5 22.5 0
      vertex 5 15 0
    endloop
  endfacet
  facet normal 0.049067671159865246 0 0.9987954563607844
    outer loop
      vertex 5.490085698664188 15 -0.024076364934444427
      vertex 5.490085698664188 22.5 -0.024076364934444427
      vertex 5 22.5 0
    endloop
  endfacet
  facet normal 0.14673047607854153 0 0.989176509724005
    outer loop
      vertex 5.975451610982418 15 -0.09607359766960144
      vertex 5.490085698664188 22.5 -0.024076364934444427
      vertex 5.490085698664188 15 -0.024076364934444427
    endloop
  endfacet
  facet normal 0.14673047607854153 0 0.989176509724005
    outer loop
      vertex 5.975451610982418 15 -0.09607359766960144
      vertex 5.975451610982418 22.5 -0.09607359766960144
      vertex 5.490085698664188 22.5 -0.024076364934444427
    endloop
  endfacet
  facet normal 0.24298018859287096 0 0.9700312510179107
    outer loop
      vertex 6.45142338424921 15 -0.21529832482337952
      vertex 5.975451610982418 22.5 -0.09607359766960144
      vertex 5.975451610982418 15 -0.09607359766960144
    endloop
  endfacet
  facet normal 0.24298018859287096 0 0.9700312510179107
    outer loop
      vertex 6.45142338424921 15 -0.21529832482337952
      vertex 6.45142338424921 22.5 -0.21529832482337952
      vertex 5.975451610982418 22.5 -0.09607359766960144
    endloop
  endfacet
  facet normal 0.33688984659619614 0 0.941544067614677
    outer loop
      vertex 6.913417160511017 15 -0.3806023374199867
      vertex 6.45142338424921 22.5 -0.21529832482337952
      vertex 6.45142338424921 15 -0.21529832482337952
    endloop
  endfacet
  facet normal 0.33688984659619614 0 0.941544067614677
    outer loop
      vertex 6.913417160511017 15 -0.3806023374199867
      vertex 6.913417160511017 22.5 -0.3806023374199867
      vertex 6.45142338424921 22.5 -0.21529832482337952
    endloop
  endfacet
  facet normal 0.4275550910277525 0 0.9039892942597552
    outer loop
      vertex 7.356983684003353 15 -0.590393677353859
      vertex 6.913417160511017 22.5 -0.3806023374199867
      vertex 6.913417160511017 15 -0.3806023374199867
    endloop
  endfacet
  facet normal 0.4275550910277525 0 0.9039892942597552
    outer loop
      vertex 7.356983684003353 15 -0.590393677353859
      vertex 7.356983684003353 22.5 -0.590393677353859
      vertex 6.913417160511017 22.5 -0.3806023374199867
    endloop
  endfacet
  facet normal 0.5141027497065687 0 0.8577286066956991
    outer loop
      vertex 7.777851164340973 15 -0.842651940882206
      vertex 7.356983684003353 22.5 -0.590393677353859
      vertex 7.356983684003353 15 -0.590393677353859
    endloop
  endfacet
  facet normal 0.5141027497065687 0 0.8577286066956991
    outer loop
      vertex 7.777851164340973 15 -0.842651940882206
      vertex 7.777851164340973 22.5 -0.842651940882206
      vertex 7.356983684003353 22.5 -0.590393677353859
    endloop
  endfacet
  facet normal 0.5956993013048966 0 0.8032075338446832
    outer loop
      vertex 8.171966418623924 15 -1.13494773209095
      vertex 7.777851164340973 22.5 -0.842651940882206
      vertex 7.777851164340973 15 -0.842651940882206
    endloop
  endfacet
  facet normal 0.5956993013048966 0 0.8032075338446832
    outer loop
      vertex 8.171966418623924 15 -1.13494773209095
      vertex 8.171966418623924 22.5 -1.13494773209095
      vertex 7.777851164340973 22.5 -0.842651940882206
    endloop
  endfacet
  facet normal 0.6715589557743871 0 0.740951124514441
    outer loop
      vertex 8.535533905029297 15 -1.4644660949707031
      vertex 8.171966418623924 22.5 -1.13494773209095
      vertex 8.171966418623924 15 -1.13494773209095
    endloop
  endfacet
  facet normal 0.6715589557743871 0 0.740951124514441
    outer loop
      vertex 8.535533905029297 15 -1.4644660949707031
      vertex 8.535533905029297 22.5 -1.4644660949707031
      vertex 8.171966418623924 22.5 -1.13494773209095
    endloop
  endfacet
  facet normal 0.740951124514441 0 0.6715589557743871
    outer loop
      vertex 8.86505226790905 15 -1.8280335813760757
      vertex 8.535533905029297 22.5 -1.4644660949707031
      vertex 8.535533905029297 15 -1.4644660949707031
    endloop
  endfacet
  facet normal 0.740951124514441 0 0.6715589557743871
    outer loop
      vertex 8.86505226790905 15 -1.8280335813760757
      vertex 8.86505226790905 22.5 -1.8280335813760757
      vertex 8.535533905029297 22.5 -1.4644660949707031
    endloop
  endfacet
  facet normal 0.8032075338446832 0 0.5956993013048966
    outer loop
      vertex 9.157348059117794 15 -2.222148835659027
      vertex 8.86505226790905 22.5 -1.8280335813760757
      vertex 8.86505226790905 15 -1.8280335813760757
    endloop
  endfacet
  facet normal 0.8032075338446832 0 0.5956993013048966
    outer loop
      vertex 9.157348059117794 15 -2.222148835659027
      vertex 9.157348059117794 22.5 -2.222148835659027
      vertex 8.86505226790905 22.5 -1.8280335813760757
    endloop
  endfacet
  facet normal 0.8577286066956991 0 0.5141027497065687
    outer loop
      vertex 9.409606322646141 15 -2.643016315996647
      vertex 9.157348059117794 22.5 -2.222148835659027
      vertex 9.157348059117794 15 -2.222148835659027
    endloop
  endfacet
  facet normal 0.8577286066956991 0 0.5141027497065687
    outer loop
      vertex 9.409606322646141 15 -2.643016315996647
      vertex 9.409606322646141 22.5 -2.643016315996647
      vertex 9.157348059117794 22.5 -2.222148835659027
    endloop
  endfacet
  facet normal 0.9039892942597552 0 0.4275550910277525
    outer loop
      vertex 9.619397662580013 15 -3.086582839488983
      vertex 9.409606322646141 22.5 -2.643016315996647
      vertex 9.409606322646141 15 -2.643016315996647
    endloop
  endfacet
  facet normal 0.9039892942597552 0 0.4275550910277525
    outer loop
      vertex 9.619397662580013 15 -3.086582839488983
      vertex 9.619397662580013 22.5 -3.086582839488983
      vertex 9.409606322646141 22.5 -2.643016315996647
    endloop
  endfacet
  facet normal 0.941544067614677 0 0.33688984659619614
    outer loop
      vertex 9.78470167517662 15 -3.5485766157507896
      vertex 9.619397662580013 22.5 -3.086582839488983
      vertex 9.619397662580013 15 -3.086582839488983
    endloop
  endfacet
  facet normal 0.941544067614677 0 0.33688984659619614
    outer loop
      vertex 9.78470167517662 15 -3.5485766157507896
      vertex 9.78470167517662 22.5 -3.5485766157507896
      vertex 9.619397662580013 22.5 -3.086582839488983
    endloop
  endfacet
  facet normal 0.9700312510179107 0 0.24298018859287096
    outer loop
      vertex 9.903926402330399 15 -4.024548389017582
      vertex 9.78470167517662 22.5 -3.5485766157507896
      vertex 9.78470167517662 15 -3.5485766157507896
    endloop
  endfacet
  facet normal 0.9700312510179107 0 0.24298018859287096
    outer loop
      vertex 9.903926402330399 15 -4.024548389017582
      vertex 9.903926402330399 22.5 -4.024548389017582
      vertex 9.78470167517662 22.5 -3.5485766157507896
    endloop
  endfacet
  facet normal 0.989176509724005 0 0.14673047607854153
    outer loop
      vertex 9.975923635065556 15 -4.509914301335812
      vertex 9.903926402330399 22.5 -4.024548389017582
      vertex 9.903926402330399 15 -4.024548389017582
    endloop
  endfacet
  facet normal 0.989176509724005 0 0.14673047607854153
    outer loop
      vertex 9.975923635065556 15 -4.509914301335812
      vertex 9.975923635065556 22.5 -4.509914301335812
      vertex 9.903926402330399 22.5 -4.024548389017582
    endloop
  endfacet
  facet normal 0.9987954563607844 0 0.049067671159865246
    outer loop
      vertex 10 15 -5
      vertex 9.975923635065556 22.5 -4.509914301335812
      vertex 9.975923635065556 15 -4.509914301335812
    endloop
  endfacet
  facet normal 0.9987954563607844 0 0.049067671159865246
    outer loop
      vertex 10 15 -5
      vertex 10 22.5 -5
      vertex 9.975923635065556 22.5 -4.509914301335812
    endloop
  endfacet
  facet normal 1 0 0
    outer loop
      vertex 10 15 -25
      vertex 10 22.5 -5
      vertex 10 15 -5
    endloop
  endfacet
  facet normal 1 0 0
    outer loop
      vertex 10 15 -25
      vertex 10 22.5 -25
      vertex 10 22.5 -5
    endloop
  endfacet
  facet normal 0 0 -1
    outer loop
      vertex 0 15 -25
      vertex 10 22.5 -25
      vertex 10 15 -25
    endloop
  endfacet
  facet normal 0 0 -1
    outer loop
      vertex 0 15 -25
      vertex 0 22.5 -25
      vertex 10 22.5 -25
    endloop
  endfacet
  facet normal -1 0 0
    outer loop
      vertex 0 15 -5
      vertex 0 22.5 -25
      vertex 0 15 -25
    endloop
  endfacet
  facet normal -1 0 0
    outer loop
      vertex 0 15 -5
      vertex 0 22.5 -5
      vertex 0 22.5 -25
    endloop
  endfacet
  facet normal -0.9987954563607844 0 0.049067671159865246
    outer loop
      vertex 0.024076364934444427 22.5 -4.509914301335812
      vertex 0 30 -5
      vertex 0 22.5 -5
    endloop
  endfacet
  facet normal -0.9987954563607844 0 0.049067671159865246
    outer loop
      vertex 0.024076364934444427 22.5 -4.509914301335812
      vertex 0.024076364934444427 30 -4.509914301335812
      vertex 0 30 -5
    endloop
  endfacet
  facet normal -0.989176509724005 0 0.14673047607854153
    outer loop
      vertex 0.09607359766960144 22.5 -4.024548389017582
      vertex 0.024076364934444427 30 -4.509914301335812
      vertex 0.024076364934444427 22.5 -4.509914301335812
    endloop
  endfacet
  facet normal -0.989176509724005 0 0.14673047607854153
    outer loop
      vertex 0.09607359766960144 22.5 -4.024548389017582
      vertex 0.09607359766960144 30 -4.024548389017582
      vertex 0.024076364934444427 30 -4.509914301335812
    endloop
  endfacet
  facet normal -0.9700312510179107 0 0.24298018859287096
    outer loop
      vertex 0.21529832482337952 22.5 -3.5485766157507896
      vertex 0.09607359766960144 30 -4.024548389017582
      vertex 0.09607359766960144 22.5 -4.024548389017582
    endloop
  endfacet
  facet normal -0.9700312510179107 0 0.24298018859287096
    outer loop
      vertex 0.21529832482337952 22.5 -3.5485766157507896
      vertex 0.21529832482337952 30 -3.5485766157507896
      vertex 0.09607359766960144 30 -4.024548389017582
    endloop
  endfacet
  facet normal -0.941544067614677 0 0.33688984659619614
    outer loop
      vertex 0.3806023374199867 22.5 -3.086582839488983
      vertex 0.21529832482337952 30 -3.5485766157507896
      vertex 0.21529832482337952 22.5 -3.5485766157507896
    endloop
  endfacet
  facet normal -0.941544067614677 0 0.33688984659619614
    outer loop
      vertex 0.3806023374199867 22.5 -3.086582839488983
      vertex 0.3806023374199867 30 -3.086582839488983
      vertex 0.21529832482337952 30 -3.5485766157507896
    endloop
  endfacet
  facet normal -0.9039892942597552 0 0.4275550910277525
    outer loop
      vertex 0.590393677353859 22.5 -2.643016315996647
      vertex 0.3806023374199867 30 -3.086582839488983
      vertex 0.3806023374199867 22.5 -3.086582839488983
    endloop
  endfacet
  facet normal -0.9039892942597552 0 0.4275550910277525
    outer loop
      vertex 0.590393677353859 22.5 -2.643016315996647
      vertex 0.590393677353859 30 -2.643016315996647
      vertex 0.3806023374199867 30 -3.086582839488983
    endloop
  endfacet
  facet normal -0.8577286066956991 0 0.5141027497065687
    outer loop
      vertex 0.842651940882206 22.5 -2.222148835659027
      vertex 0.590393677353859 30 -2.643016315996647
      vertex 0.590393677353859 22.5 -2.643016315996647
    endloop
  endfacet
  facet normal -0.8577286066956991 0 0.5141027497065687
    outer loop
      vertex 0.842651940882206 22.5 -2.222148835659027
      vertex 0.842651940882206 30 -2.222148835659027
      vertex 0.590393677353859 30 -2.643016315996647
    endloop
  endfacet
  facet normal -0.8032075338446832 0 0.5956993013048966
    outer loop
      vertex 1.13494773209095 22.5 -1.8280335813760757
      vertex 0.842651940882206 30 -2.222148835659027
      vertex 0.842651940882206 22.5 -2.222148835659027
    endloop
  endfacet
  facet normal -0.8032075338446832 0 0.5956993013048966
    outer loop
      vertex 1.13494773209095 22.5 -1.8280335813760757
      vertex 1.13494773209095 30 -1.8280335813760757
      vertex 0.842651940882206 30 -2.222148835659027
    endloop
  endfacet
  facet normal -0.740951124514441 0 0.6715589557743871
    outer loop
      vertex 1.4644660949707031 22.5 -1.4644660949707031
      vertex 1.13494773209095 30 -1.8280335813760757
      vertex 1.13494773209095 22.5 -1.8280335813760757
    endloop
  endfacet
  facet normal -0.740951124514441 0 0.6715589557743871
    outer loop
      vertex 1.4644660949707031 22.5 -1.4644660949707031
      vertex 1.4644660949707031 30 -1.4644660949707031
      vertex 1.13494773209095 30 -1.8280335813760757
    endloop
  endfacet
  facet normal -0.6715589557743871 0 0.740951124514441
    outer loop
      vertex 1.8280335813760757 22.5 -1.13494773209095
      vertex 1.4644660949707031 30 -1.4644660949707031
      vertex 1.4644660949707031 22.5 -1.4644660949707031
    endloop
  endfacet
  facet normal -0.6715589557743871 0 0.740951124514441
    outer loop
      vertex 1.8280335813760757 22.5 -1.13494773209095
      vertex 1.8280335813760757 30 -1.13494773209095
      vertex 1.4644660949707031 30 -1.4644660949707031
    endloop
  endfacet
  facet normal -0.5956993013048966 0 0.8032075338446832
    outer loop
      vertex 2.222148835659027 22.5 -0.842651940882206
      vertex 1.8280335813760757 30 -1.13494773209095
      vertex 1.8280335813760757 22.5 -1.13494773209095
    endloop
  endfacet
  facet normal -0.5956993013048966 0 0.8032075338446832
    outer loop
      vertex 2.222148835659027 22.5 -0.842651940882206
      vertex 2.222148835659027 30 -0.842651940882206
      vertex 1.8280335813760757 30 -1.13494773209095
    endloop
  endfacet
  facet normal -0.5141027497065687 0 0.8577286066956991
    outer loop
      vertex 2.643016315996647 22.5 -0.590393677353859
      vertex 2.222148835659027 30 -0.842651940882206
      vertex 2.222148835659027 22.5 -0.842651940882206
    endloop
  endfacet
  facet normal -0.5141027497065687 0 0.8577286066956991
    outer loop
      vertex 2.643016315996647 22.5 -0.590393677353859
      vertex 2.643016315996647 30 -0.590393677353859
      vertex 2.222148835659027 30 -0.842651940882206
    endloop
  endfacet
  facet normal -0.4275550910277525 0 0.9039892942597552
    outer loop
      vertex 3.086582839488983 22.5 -0.3806023374199867
      vertex 2.643016315996647 30 -0.590393677353859
      vertex 2.643016315996647 22.5 -0.590393677353859
    endloop
  endfacet
  facet normal -0.4275550910277525 0 0.9039892942597552
    outer loop
      vertex 3.086582839488983 22.5 -0.3806023374199867
      vertex 3.086582839488983 30 -0.3806023374199867
      vertex 2.643016315996647 30 -0.590393677353859
    endloop
  endfacet
  facet normal -0.33688984659619614 0 0.941544067614677
    outer loop
      vertex 3.5485766157507896 22.5 -0.21529832482337952
      vertex 3.086582839488983 30 -0.3806023374199867
      vertex 3.086582839488983 22.5 -0.3806023374199867
    endloop
  endfacet
  facet normal -0.33688984659619614 0 0.941544067614677
    outer loop
      vertex 3.5485766157507896 22.5 -0.21529832482337952
      vertex 3.5485766157507896 30 -0.21529832482337952
      vertex 3.086582839488983 30 -0.3806023374199867
    endloop
  endfacet
  facet normal -0.24298018859287096 0 0.9700312510179107
    outer loop
      vertex 4.024548389017582 22.5 -0.09607359766960144
      vertex 3.5485766157507896 30 -0.21529832482337952
      vertex 3.5485766157507896 22.5 -0.21529832482337952
    endloop
  endfacet
  facet normal -0.24298018859287096 0 0.9700312510179107
    outer loop
      vertex 4.024548389017582 22.5 -0.09607359766960144
      vertex 4.024548389017582 30 -0.09607359766960144
      vertex 3.5485766157507896 30 -0.21529832482337952
    endloop
  endfacet
  facet normal -0.14673047607854153 0 0.989176509724005
    outer loop
      vertex 4.509914301335812 22.5 -0.024076364934444427
      vertex 4.024548389017582 30 -0.09607359766960144
      vertex 4.024548389017582 22.5 -0.09607359766960144
    endloop
  endfacet
  facet normal -0.14673047607854153 0 0.989176509724005
    outer loop
      vertex 4.509914301335812 22.5 -0.024076364934444427
      vertex 4.509914301335812 30 -0.024076364934444427
      vertex 4.024548389017582 30 -0.09607359766960144
    endloop
  endfacet
  facet normal -0.049067671159865246 0 0.9987954563607844
    outer loop
      vertex 5 22.5 0
      vertex 4.509914301335812 30 -0.024076364934444427
      vertex 4.509914301335812 22.5 -0.024076364934444427
    endloop
  endfacet
  facet normal -0.049067671159865246 0 0.9987954563607844
    outer loop
      vertex 5 22.5 0
      vertex 5 30 0
      vertex 4.509914301335812 30 -0.024076364934444427
    endloop
  endfacet
  facet normal 0.049067671159865246 0 0.9987954563607844
    outer loop
      vertex 5.490085698664188 22.5 -0.024076364934444427
      vertex 5 30 0
      vertex 5 22.5 0
    endloop
  endfacet
  facet normal 0.049067671159865246 0 0.9987954563607844
    outer loop
      vertex 5.490085698664188 22.5 -0.024076364934444427
      vertex 5.490085698664188 30 -0.024076364934444427
      vertex 5 30 0
    endloop
  endfacet
  facet normal 0.14673047607854153 0 0.989176509724005
    outer loop
      vertex 5.975451610982418 22.5 -0.09607359766960144
      vertex 5.490085698664188 30 -0.024076364934444427
      vertex 5.490085698664188 22.5 -0.024076364934444427
    endloop
  endfacet
  facet normal 0.14673047607854153 0 0.989176509724005
    outer loop
      vertex 5.975451610982418 22.5 -0.09607359766960144
      vertex 5.975451610982418 30 -0.09607359766960144
      vertex 5.490085698664188 30 -0.024076364934444427
    endloop
  endfacet
  facet normal 0.24298018859287096 0 0.9700312510179107
    outer loop
      vertex 6.45142338424921 22.5 -0.21529832482337952
      vertex 5.975451610982418 30 -0.09607359766960144
      vertex 5.975451610982418 22.5 -0.09607359766960144
    endloop
  endfacet
  facet normal 0.24298018859287096 0 0.9700312510179107
    outer loop
      vertex 6.45142338424921 22.5 -0.21529832482337952
      vertex 6.45142338424921 30 -0.21529832482337952
      vertex 5.975451610982418 30 -0.09607359766960144
    endloop
  endfacet
  facet normal 0.33688984659619614 0 0.941544067614677
    outer loop
      vertex 6.913417160511017 22.5 -0.3806023374199867
      vertex 6.45142338424921 30 -0.21529832482337952
      vertex 6.45142338424921 22.5 -0.21529832482337952
    endloop
  endfacet
  facet normal 0.33688984659619614 0 0.941544067614677
    outer loop
      vertex 6.913417160511017 22.5 -0.3806023374199867
      vertex 6.913417160511017 30 -0.3806023374199867
      vertex 6.45142338424921 30 -0.21529832482337952
    endloop
  endfacet
  facet normal 0.4275550910277525 0 0.9039892942597552
    outer loop
      vertex 7.356983684003353 22.5 -0.590393677353859
      vertex 6.913417160511017 30 -0.3806023374199867
      vertex 6.913417160511017 22.5 -0.3806023374199867
    endloop
  endfacet
  facet normal 0.4275550910277525 0 0.9039892942597552
    outer loop
      vertex 7.356983684003353 22.5 -0.590393677353859
      vertex 7.356983684003353 30 -0.590393677353859
      vertex 6.913417160511017 30 -0.3806023374199867
    endloop
  endfacet
  facet normal 0.5141027497065687 0 0.8577286066956991
    outer loop
      vertex 7.777851164340973 22.5 -0.842651940882206
      vertex 7.356983684003353 30 -0.590393677353859
      vertex 7.356983684003353 22.5 -0.590393677353859
    endloop
  endfacet
  facet normal 0.5141027497065687 0 0.8577286066956991
    outer loop
      vertex 7.777851164340973 22.5 -0.842651940882206
      vertex 7.777851164340973 30 -0.842651940882206
      vertex 7.356983684003353 30 -0.590393677353859
    endloop
  endfacet
  facet normal 0.5956993013048966 0 0.8032075338446832
    outer loop
      vertex 8.171966418623924 22.5 -1.13494773209095
      vertex 7.777851164340973 30 -0.842651940882206
      vertex 7.777851164340973 22.5 -0.842651940882206
    endloop
  endfacet
  facet normal 0.5956993013048966 0 0.8032075338446832
    outer loop
      vertex 8.171966418623924 22.5 -1.13494773209095
      vertex 8.171966418623924 30 -1.13494773209095
      vertex 7.777851164340973 30 -0.842651940882206
    endloop
  endfacet
  facet normal 0.6715589557743871 0 0.740951124514441
    outer loop
      vertex 8.535533905029297 22.5 -1.4644660949707031
      vertex 8.171966418623924 30 -1.13494773209095
      vertex 8.171966418623924 22.5 -1.13494773209095
    endloop
  endfacet
  facet normal 0.6715589557743871 0 0.740951124514441
    outer loop
      vertex 8.535533905029297 22.5 -1.4644660949707031
      vertex 8.535533905029297 30 -1.4644660949707031
      vertex 8.171966418623924 30 -1.13494773209095
    endloop
  endfacet
  facet normal 0.740951124514441 0 0.6715589557743871
    outer loop
      vertex 8.86505226790905 22.5 -1.8280335813760757
      vertex 8.535533905029297 30 -1.4644660949707031
      vertex 8.535533905029297 22.5 -1.4644660949707031
    endloop
  endfacet
  facet normal 0.740951124514441 0 0.6715589557743871
    outer loop
      vertex 8.86505226790905 22.5 -1.8280335813760757
      vertex 8.86505226790905 30 -1.8280335813760757
      vertex 8.535533905029297 30 -1.4644660949707031
    endloop
  endfacet
  facet normal 0.8032075338446832 0 0.5956993013048966
    outer loop
      vertex 9.157348059117794 22.5 -2.222148835659027
      vertex 8.86505226790905 30 -1.8280335813760757
      vertex 8.86505226790905 22.5 -1.8280335813760757
    endloop
  endfacet
  facet normal 0.8032075338446832 0 0.5956993013048966
    outer loop
      vertex 9.157348059117794 22.5 -2.222148835659027
      vertex 9.157348059117794 30 -2.222148835659027
      vertex 8.86505226790905 30 -1.8280335813760757
    endloop
  endfacet
  facet normal 0.8577286066956991 0 0.5141027497065687
    outer loop
      vertex 9.409606322646141 22.5 -2.643016315996647
      vertex 9.157348059117794 30 -2.222148835659027
      vertex 9.157348059117794 22.5 -2.222148835659027
    endloop
  endfacet
  facet normal 0.8577286066956991 0 0.5141027497065687
    outer loop
      vertex 9.409606322646141 22.5 -2.643016315996647
      vertex 9.409606322646141 30 -2.643016315996647
      vertex 9.157348059117794 30 -2.222148835659027
    endloop
  endfacet
  facet normal 0.9039892942597552 0 0.4275550910277525
    outer loop
      vertex 9.619397662580013 22.5 -3.086582839488983
      vertex 9.409606322646141 30 -2.643016315996647
      vertex 9.409606322646141 22.5 -2.643016315996647
    endloop
  endfacet
  facet normal 0.9039892942597552 0 0.4275550910277525
    outer loop
      vertex 9.619397662580013 22.5 -3.086582839488983
      vertex 9.619397662580013 30 -3.086582839488983
      vertex 9.409606322646141 30 -2.643016315996647
    endloop
  endfacet
  facet normal 0.941544067614677 0 0.33688984659619614
    outer loop
      vertex 9.78470167517662 22.5 -3.5485766157507896
      vertex 9.619397662580013 30 -3.086582839488983
      vertex 9.619397662580013 22.5 -3.086582839488983
    endloop
  endfacet
  facet normal 0.941544067614677 0 0.33688984659619614
    outer loop
      vertex 9.78470167517662 22.5 -3.5485766157507896
      vertex 9.78470167517662 30 -3.5485766157507896
      vertex 9.619397662580013 30 -3.086582839488983
    endloop
  endfacet
  facet normal 0.9700312510179107 0 0.24298018859287096
    outer loop
      vertex 9.903926402330399 22.5 -4.024548389017582
      vertex 9.78470167517662 30 -3.5485766157507896
      vertex 9.78470167517662 22.5 -3.5485766157507896
    endloop
  endfacet
  facet normal 0.9700312510179107 0 0.24298018859287096
    outer loop
      vertex 9.903926402330399 22.5 -4.024548389017582
      vertex 9.903926402330399 30 -4.024548389017582
      vertex 9.78470167517662 30 -3.5485766157507896
    endloop
  endfacet
  facet normal 0.989176509724005 0 0.14673047607854153
    outer loop
      vertex 9.975923635065556 22.5 -4.509914301335812
      vertex 9.903926402330399 30 -4.024548389017582
      vertex 9.903926402330399 22.5 -4.024548389017582
    endloop
  endfacet
  facet normal 0.989176509724005 0 0.14673047607854153
    outer loop
      vertex 9.975923635065556 22.5 -4.509914301335812
      vertex 9.975923635065556 30 -4.509914301335812
      vertex 9.903926402330399 30 -4.024548389017582
    endloop
  endfacet
  facet normal 0.9987954563607844 0 0.049067671159865246
    outer loop
      vertex 10 22.5 -5
      vertex 9.975923635065556 30 -4.509914301335812
      vertex 9.975923635065556 22.5 -4.509914301335812
    endloop
  endfacet
  facet normal 0.9987954563607844 0 0.049067671159865246
    outer loop
      vertex 10 22.5 -5
      vertex 10 30 -5
      vertex 9.975923635065556 30 -4.509914301335812
    endloop
  endfacet
  facet normal 1 0 0
    outer loop
      vertex 10 22.5 -25
      vertex 10 30 -5
      vertex 10 22.5 -5
    endloop
  endfacet
  facet normal 1 0 0
    outer loop
      vertex 10 22.5 -25
      vertex 10 30 -25
      vertex 10 30 -5
    endloop
  endfacet
  facet normal 0 0 -1
    outer loop
      vertex 0 22.5 -25
      vertex 10 30 -25
      vertex 10 22.5 -25
    endloop
  endfacet
  facet normal 0 0 -1
    outer loop
      vertex 0 22.5 -25
      vertex 0 30 -25
      vertex 10 30 -25
    endloop
  endfacet
  facet normal -1 0 0
    outer loop
      vertex 0 22.5 -5
      vertex 0 30 -25
      vertex 0 22.5 -25
    endloop
  endfacet
  facet normal -1 0 0
    outer loop
      vertex 0 22.5 -5
      vertex 0 30 -5
      vertex 0 30 -25
    endloop
  endfacet
  facet normal 0 -1 0
    outer loop
      vertex 0 0 -25
      vertex 0.024076364934444427 0 -4.509914301335812
      vertex 0 0 -5
    endloop
  endfacet
  facet normal 0 -1 0
    outer loop
      vertex 0 0 -25
      vertex 10 0 -25
      vertex 0.024076364934444427 0 -4.509914301335812
    endloop
  endfacet
  facet normal 0 -1 0
    outer loop
      vertex 10 0 -25
      vertex 0.09607359766960144 0 -4.024548389017582
      vertex 0.024076364934444427 0 -4.509914301335812
    endloop
  endfacet
  facet normal 0 -1 0
    outer loop
      vertex 10 0 -25
      vertex 10 0 -5
      vertex 0.09607359766960144 0 -4.024548389017582
    endloop
  endfacet
  facet normal 0 -1 0
    outer loop
      vertex 10 0 -5
      vertex 0.21529832482337952 0 -3.5485766157507896
      vertex 0.09607359766960144 0 -4.024548389017582
    endloop
  endfacet
  facet normal 0 -1 0
    outer loop
      vertex 10 0 -5
      vertex 9.975923635065556 0 -4.509914301335812
      vertex 0.21529832482337952 0 -3.5485766157507896
    endloop
  endfacet
  facet normal 0 -1 0
    outer loop
      vertex 9.975923635065556 0 -4.509914301335812
      vertex 0.3806023374199867 0 -3.086582839488983
      vertex 0.21529832482337952 0 -3.5485766157507896
    endloop
  endfacet
  facet normal 0 -1 0
    outer loop
      vertex 9.975923635065556 0 -4.509914301335812
      vertex 9.903926402330399 0 -4.024548389017582
      vertex 0.3806023374199867 0 -3.086582839488983
    endloop
  endfacet
  facet normal 0 -1 0
    outer loop
      vertex 9.903926402330399 0 -4.024548389017582
      vertex 0.590393677353859 0 -2.643016315996647
      vertex 0.3806023374199867 0 -3.086582839488983
    endloop
  endfacet
  facet normal 0 -1 0
    outer loop
      vertex 9.903926402330399 0 -4.024548389017582
      vertex 9.78470167517662 0 -3.5485766157507896
      vertex 0.590393677353859 0 -2.643016315996647
    endloop
  endfacet
  facet normal 0 -1 0
    outer loop
      vertex 9.78470167517662 0 -3.5485766157507896
      vertex 0.842651940882206 0 -2.222148835659027
      vertex 0.590393677353859 0 -2.643016315996647
    endloop
  endfacet
  facet normal 0 -1 0
    outer loop
      vertex 9.78470167517662 0 -3.5485766157507896
      vertex 9.619397662580013 0 -3.086582839488983
      vertex 0.842651940882206 0 -2.222148835659027
    endloop
  endfacet
  facet normal 0 -1 0
    outer loop
      vertex 9.619397662580013 0 -3.086582839488983
      vertex 1.13494773209095 0 -1.8280335813760757
      vertex 0.842651940882206 0 -2.222148835659027
    endloop
  endfacet
  facet normal 0 -1 0
    outer loop
      vertex 9.619397662580013 0 -3.086582839488983
      vertex 9.409606322646141 0 -2.643016315996647
      vertex 1.13494773209095 0 -1.8280335813760757
    endloop
  endfacet
  facet normal 0 -1 0
    outer loop
      vertex 9.409606322646141 0 -2.643016315996647
      vertex 1.4644660949707031 0 -1.4644660949707031
      vertex 1.13494773209095 0 -1.8280335813760757
    endloop
  endfacet
  facet normal 0 -1 0
    outer loop
      vertex 9.409606322646141 0 -2.643016315996647
      vertex 9.157348059117794 0 -2.222148835659027
      vertex 1.4644660949707031 0 -1.4644660949707031
    endloop
  endfacet
  facet normal 0 -1 0
    outer loop
      vertex 9.157348059117794 0 -2.222148835659027
      vertex 1.8280335813760757 0 -1.13494773209095
      vertex 1.4644660949707031 0 -1.4644660949707031
    endloop
  endfacet
  facet normal 0 -1 0
    outer loop
      vertex 9.157348059117794 0 -2.222148835659027
      vertex 8.86505226790905 0 -1.8280335813760757
      vertex 1.8280335813760757 0 -1.13494773209095
    endloop
  endfacet
  facet normal 0 -1 0
    outer loop
      vertex 8.86505226790905 0 -1.8280335813760757
      vertex 2.222148835659027 0 -0.842651940882206
      vertex 1.8280335813760757 0 -1.13494773209095
    endloop
  endfacet
  facet normal 0 -1 0
    outer loop
      vertex 8.86505226790905 0 -1.8280335813760757
      vertex 8.535533905029297 0 -1.4644660949707031
      vertex 2.222148835659027 0 -0.842651940882206
    endloop
  endfacet
  facet normal 0 -1 0
    outer loop
      vertex 8.535533905029297 0 -1.4644660949707031
      vertex 2.643016315996647 0 -0.590393677353859
      vertex 2.222148835659027 0 -0.842651940882206
    endloop
  endfacet
  facet normal 0 -1 0
    outer loop
      vertex 8.535533905029297 0 -1.4644660949707031
      vertex 8.171966418623924 0 -1.13494773209095
      vertex 2.643016315996647 0 -0.590393677353859
    endloop
  endfacet
  facet normal 0 -1 0
    outer loop
      vertex 8.171966418623924 0 -1.13494773209095
      vertex 3.086582839488983 0 -0.3806023374199867
      vertex 2.643016315996647 0 -0.590393677353859
    endloop
  endfacet
  facet normal 0 -1 0
    outer loop
      vertex 8.171966418623924 0 -1.13494773209095
      vertex 7.777851164340973 0 -0.842651940882206
      vertex 3.086582839488983 0 -0.3806023374199867
    endloop
  endfacet
  facet normal 0 -1 0
    outer loop
      vertex 7.777851164340973 0 -0.842651940882206
      vertex 3.5485766157507896 0 -0.21529832482337952
      vertex 3.086582839488983 0 -0.3806023374199867
    endloop
  endfacet
  facet normal 0 -1 0
    outer loop
      vertex 7.777851164340973 0 -0.842651940882206
      vertex 7.356983684003353 0 -0.590393677353859
      vertex 3.5485766157507896 0 -0.21529832482337952
    endloop
  endfacet
  facet normal 0 -1 0
    outer loop
      vertex 7.356983684003353 0 -0.590393677353859
      vertex 4.024548389017582 0 -0.09607359766960144
      vertex 3.5485766157507896 0 -0.21529832482337952
    endloop
  endfacet
  facet normal 0 -1 0
    outer loop
      vertex 7.356983684003353 0 -0.590393677353859
      vertex 6.913417160511017 0 -0.3806023374199867
      vertex 4.024548389017582 0 -0.09607359766960144
    endloop
  endfacet
  facet normal 0 -1 0
    outer loop
      vertex 6.913417160511017 0 -0.3806023374199867
      vertex 4.509914301335812 0 -0.024076364934444427
      vertex 4.024548389017582 0 -0.09607359766960144
    endloop
  endfacet
  facet normal 0 -1 0
    outer loop
      vertex 6.913417160511017 0 -0.3806023374199867
      vertex 6.45142338424921 0 -0.21529832482337952
      vertex 4.509914301335812 0 -0.024076364934444427
    endloop
  endfacet
  facet normal 0 -1 0
    outer loop
      vertex 6.45142338424921 0 -0.21529832482337952
      vertex 5 0 0
      vertex 4.509914301335812 0 -0.024076364934444427
    endloop
  endfacet
  facet normal 0 -1 0
    outer loop
      vertex 6.45142338424921 0 -0.21529832482337952
      vertex 5.975451610982418 0 -0.09607359766960144
      vertex 5 0 0
    endloop
  endfacet
  facet normal 0 -1 0
    outer loop
      vertex 5.975451610982418 0 -0.09607359766960144
      vertex 5.490085698664188 0 -0.024076364934444427
      vertex 5 0 0
    endloop
  endfacet
  facet normal 0 1 0
    outer loop
      vertex 0 30 -5
      vertex 0.024076364934444427 30 -4.509914301335812
      vertex 0 30 -25
    endloop
  endfacet
  facet normal 0 1 0
    outer loop
      vertex 0.024076364934444427 30 -4.509914301335812
      vertex 10 30 -25
      vertex 0 30 -25
    endloop
  endfacet
  facet normal 0 1 0
    outer loop
      vertex 0.024076364934444427 30 -4.509914301335812
      vertex 0.09607359766960144 30 -4.024548389017582
      vertex 10 30 -25
    endloop
  endfacet
  facet normal 0 1 0
    outer loop
      vertex 0.09607359766960144 30 -4.024548389017582
      vertex 10 30 -5
      vertex 10 30 -25
    endloop
  endfacet
  facet normal 0 1 0
    outer loop
      vertex 0.09607359766960144 30 -4.024548389017582
      vertex 0.21529832482337952 30 -3.5485766157507896
      vertex 10 30 -5
    endloop
  endfacet
  facet normal 0 1 0
    outer loop
      vertex 0.21529832482337952 30 -3.5485766157507896
      vertex 9.975923635065556 30 -4.509914301335812
      vertex 10 30 -5
    endloop
  endfacet
  facet normal 0 1 0
    outer loop
      vertex 0.21529832482337952 30 -3.5485766157507896
      vertex 0.3806023374199867 30 -3.086582839488983
      vertex 9.975923635065556 30 -4.509914301335812
    endloop
  endfacet
  facet normal 0 1 0
    outer loop
      vertex 0.3806023374199867 30 -3.086582839488983
      vertex 9.903926402330399 30 -4.024548389017582
      vertex 9.975923635065556 30 -4.509914301335812
    endloop
  endfacet
  facet normal 0 1 0
    outer loop
      vertex 0.3806023374199867 30 -3.086582839488983
      vertex 0.590393677353859 30 -2.643016315996647
      vertex 9.903926402330399 30 -4.024548389017582
    endloop
  endfacet
  facet normal 0 1 0
    outer loop
      vertex 0.590393677353859 30 -2.643016315996647
      vertex 9.78470167517662 30 -3.5485766157507896
      vertex 9.903926402330399 30 -4.024548389017582
    endloop
  endfacet
  facet normal 0 1 0
    outer loop
      vertex 0.590393677353859 30 -2.643016315996647
      vertex 0.842651940882206 30 -2.222148835659027
      vertex 9.78470167517662 30 -3.5485766157507896
    endloop
  endfacet
  facet normal 0 1 0
    outer loop
      vertex 0.842651940882206 30 -2.222148835659027
      vertex 9.619397662580013 30 -3.086582839488983
      vertex 9.78470167517662 30 -3.5485766157507896
    endloop
  endfacet
  facet normal 0 1 0
    outer loop
      vertex 0.842651940882206 30 -2.222148835659027
      vertex 1.13494773209095 30 -1.8280335813760757
      vertex 9.619397662580013 30 -3.086582839488983
    endloop
  endfacet
  facet normal 0 1 0
    outer loop
      vertex 1.13494773209095 30 -1.8280335813760757
      vertex 9.409606322646141 30 -2.643016315996647
      vertex 9.619397662580013 30 -3.086582839488983
    endloop
  endfacet
  facet normal 0 1 0
    outer loop
      vertex 1.13494773209095 30 -1.8280335813760757
      vertex 1.4644660949707031 30 -1.4644660949707031
      vertex 9.409606322646141 30 -2.643016315996647
    endloop
  endfacet
  facet normal 0 1 0
    outer loop
      vertex 1.4644660949707031 30 -1.4644660949707031
      vertex 9.157348059117794 30 -2.222148835659027
      vertex 9.409606322646141 30 -2.643016315996647
    endloop
  endfacet
  facet normal 0 1 0
    outer loop
      vertex 1.4644660949707031 30 -1.4644660949707031
      vertex 1.8280335813760757 30 -1.13494773209095
      vertex 9.157348059117794 30 -2.222148835659027
    endloop
  endfacet
  facet normal 0 1 0
    outer loop
      vertex 1.8280335813760757 30 -1.13494773209095
      vertex 8.86505226790905 30 -1.8280335813760757
      vertex 9.157348059117794 30 -2.222148835659027
    endloop
  endfacet
  facet normal 0 1 0
    outer loop
      vertex 1.8280335813760757 30 -1.13494773209095
      vertex 2.222148835659027 30 -0.842651940882206
      vertex 8.86505226790905 30 -1.8280335813760757
    endloop
  endfacet
  facet normal 0 1 0
    outer loop
      vertex 2.222148835659027 30 -0.842651940882206
      vertex 8.535533905029297 30 -1.4644660949707031
      vertex 8.86505226790905 30 -1.8280335813760757
    endloop
  endfacet
  facet normal 0 1 0
    outer loop
      vertex 2.222148835659027 30 -0.842651940882206
      vertex 2.643016315996647 30 -0.590393677353859
      vertex 8.535533905029297 30 -1.4644660949707031
    endloop
  endfacet
  facet normal 0 1 0
    outer loop
      vertex 2.643016315996647 30 -0.590393677353859
      vertex 8.171966418623924 30 -1.13494773209095
      vertex 8.535533905029297 30 -1.4644660949707031
    endloop
  endfacet
  facet normal 0 1 0
    outer loop
      vertex 2.643016315996647 30 -0.590393677353859
      vertex 3.086582839488983 30 -0.3806023374199867
      vertex 8.171966418623924 30 -1.13494773209095
    endloop
  endfacet
  facet normal 0 1 0
    outer loop
      vertex 3.086582839488983 30 -0.3806023374199867
      vertex 7.777851164340973 30 -0.842651940882206
      vertex 8.171966418623924 30 -1.13494773209095
    endloop
  endfacet
  facet normal 0 1 0
    outer loop
      vertex 3.086582839488983 30 -0.3806023374199867
      vertex 3.5485766157507896 30 -0.21529832482337952
      vertex 7.777851164340973 30 -0.842651940882206
    endloop
  endfacet
  facet normal 0 1 0
    outer loop
      vertex 3.5485766157507896 30 -0.21529832482337952
      vertex 7.356983684003353 30 -0.590393677353859
      vertex 7.777851164340973 30 -0.842651940882206
    endloop
  endfacet
  facet normal 0 1 0
    outer loop
      vertex 3.5485766157507896 30 -0.21529832482337952
      vertex 4.024548389017582 30 -0.09607359766960144
      vertex 7.356983684003353 30 -0.590393677353859
    endloop
  endfacet
  facet normal 0 1 0
    outer loop
      vertex 4.024548389017582 30 -0.09607359766960144
      vertex 6.913417160511017 30 -0.3806023374199867
      vertex 7.356983684003353 30 -0.590393677353859
    endloop
  endfacet
  facet normal 0 1 0
    outer loop
      vertex 4.024548389017582 30 -0.09607359766960144
      vertex 4.509914301335812 30 -0.024076364934444427
      vertex 6.913417160511017 30 -0.3806023374199867
    endloop
  endfacet
  facet normal 0 1 0
    outer loop
      vertex 4.509914301335812 30 -0.024076364934444427
      vertex 6.45142338424921 30 -0.21529832482337952
      vertex 6.913417160511017 30 -0.3806023374199867
    endloop
  endfacet
  facet normal 0 1 0
    outer loop
      vertex 4.509914301335812 30 -0.024076364934444427
      vertex 5 30 0
      vertex 6.45142338424921 30 -0.21529832482337952
    endloop
  endfacet
  facet normal 0 1 0
    outer loop
      vertex 5 30 0
      vertex 5.975451610982418 30 -0.09607359766960144
      vertex 6.45142338424921 30 -0.21529832482337952
    endloop
  endfacet
  facet normal 0 1 0
    outer loop
      vertex 5 30 0
      vertex 5.490085698664188 30 -0.024076364934444427
      vertex 5.975451610982418 30 -0.09607359766960144
    endloop
  endfacet
endsolid OpenSCAD_Model
