<?xml version="1.0" encoding="UTF-8" standalone="no"?>
<!DOCTYPE svg PUBLIC "-//W3C//DTD SVG 1.1//EN"
 "http://www.w3.org/Graphics/SVG/1.1/DTD/svg11.dtd">
<!-- Generated by graphviz version 5.0.0 (20220707.1540)
 -->
<!-- Title: as_cutout Pages: 1 -->
<svg width="548pt" height="1232pt"
 viewBox="0.00 0.00 547.87 1232.00" xmlns="http://www.w3.org/2000/svg" xmlns:xlink="http://www.w3.org/1999/xlink">
<g id="graph0" class="graph" transform="scale(1 1) rotate(0) translate(4 1228)">
<title>as_cutout</title>
<polygon fill="white" stroke="transparent" points="-4,4 -4,-1228 543.87,-1228 543.87,4 -4,4"/>
<!-- root_22 -->
<g id="node1" class="node">
<title>root_22</title>
<g id="a_node1"><a xlink:href="javascript:s=&quot;\(\)\nNone&quot;; console.log(s); alert(s);" xlink:title="root">
<ellipse fill="none" stroke="black" cx="27" cy="-423" rx="27" ry="18"/>
<text text-anchor="middle" x="27" y="-419.3" font-family="Times New Roman,serif" font-size="14.00">root</text>
</a>
</g>
</g>
<!-- as_cutout_23 -->
<g id="node2" class="node">
<title>as_cutout_23</title>
<g id="a_node2"><a xlink:href="javascript:s=&quot;\(&#x27;as_cutout&#x27;,\)\nCurlySpokes&quot;; console.log(s); alert(s);" xlink:title="CurlySpokes">
<ellipse fill="none" stroke="black" cx="136.15" cy="-720" rx="46.29" ry="18"/>
<text text-anchor="middle" x="136.15" y="-716.3" font-family="Times New Roman,serif" font-size="14.00">as_cutout</text>
</a>
</g>
</g>
<!-- root_22&#45;&gt;as_cutout_23 -->
<g id="edge1" class="edge">
<title>root_22&#45;&gt;as_cutout_23</title>
<path fill="none" stroke="black" d="M34.38,-440.69C52.35,-490.51 103.49,-632.25 125.2,-692.44"/>
<polygon fill="black" stroke="black" points="121.98,-693.81 128.66,-702.03 128.56,-691.43 121.98,-693.81"/>
</g>
<!-- 42 -->
<g id="node21" class="node">
<title>42</title>
<g id="a_node21"><a xlink:href="javascript:s=&quot;\(&quot;&#x27;centre&#x27;,\ &quot;,\)\nAnnotatedCoordinates&quot;; console.log(s); alert(s);" xlink:title="AnnotatedCoordinates">
<ellipse fill="none" stroke="black" cx="136.15" cy="-153" rx="41.69" ry="18"/>
<text text-anchor="middle" x="136.15" y="-149.3" font-family="Times New Roman,serif" font-size="14.00">&#39;centre&#39;, </text>
</a>
</g>
</g>
<!-- root_22&#45;&gt;42 -->
<g id="edge20" class="edge">
<title>root_22&#45;&gt;42</title>
<path fill="none" stroke="black" d="M34.87,-405.7C53,-360.01 102.28,-235.83 124.28,-180.38"/>
<polygon fill="black" stroke="black" points="127.62,-181.44 128.06,-170.86 121.12,-178.86 127.62,-181.44"/>
</g>
<!-- cage_24 -->
<g id="node3" class="node">
<title>cage_24</title>
<g id="a_node3"><a xlink:href="javascript:s=&quot;\(&#x27;as_cutout&#x27;,\ &#x27;cage&#x27;\)\nCylinder&quot;; console.log(s); alert(s);" xlink:title="Cylinder">
<ellipse fill="none" stroke="black" cx="274.19" cy="-1206" rx="27.1" ry="18"/>
<text text-anchor="middle" x="274.19" y="-1202.3" font-family="Times New Roman,serif" font-size="14.00">cage</text>
</a>
</g>
</g>
<!-- as_cutout_23&#45;&gt;cage_24 -->
<g id="edge2" class="edge">
<title>as_cutout_23&#45;&gt;cage_24</title>
<path fill="none" stroke="black" d="M138.19,-738.08C142.89,-814.09 164.28,-1107.1 218.29,-1179 223.61,-1186.08 231.29,-1191.41 239.22,-1195.38"/>
<polygon fill="black" stroke="black" points="237.97,-1198.65 248.53,-1199.44 240.76,-1192.24 237.97,-1198.65"/>
</g>
<!-- spoke_25 -->
<g id="node4" class="node">
<title>spoke_25</title>
<g id="a_node4"><a xlink:href="javascript:s=&quot;\(&#x27;as_cutout&#x27;,\ \(&#x27;spoke&#x27;,\ 0\)\)\nLinearExtrude&quot;; console.log(s); alert(s);" xlink:title="LinearExtrude">
<ellipse fill="none" stroke="black" cx="274.19" cy="-1152" rx="51.99" ry="18"/>
<text text-anchor="middle" x="274.19" y="-1148.3" font-family="Times New Roman,serif" font-size="14.00">(&#39;spoke&#39;, 0)</text>
</a>
</g>
</g>
<!-- as_cutout_23&#45;&gt;spoke_25 -->
<g id="edge3" class="edge">
<title>as_cutout_23&#45;&gt;spoke_25</title>
<path fill="none" stroke="black" d="M138.66,-738.07C144.84,-808.31 170.2,-1062.48 218.29,-1125 220.91,-1128.41 224.08,-1131.42 227.55,-1134.06"/>
<polygon fill="black" stroke="black" points="225.81,-1137.1 236.1,-1139.6 229.61,-1131.22 225.81,-1137.1"/>
</g>
<!-- spoke_26 -->
<g id="node5" class="node">
<title>spoke_26</title>
<g id="a_node5"><a xlink:href="javascript:s=&quot;\(&#x27;as_cutout&#x27;,\ \(&#x27;spoke&#x27;,\ 1\)\)\nLinearExtrude&quot;; console.log(s); alert(s);" xlink:title="LinearExtrude">
<ellipse fill="none" stroke="black" cx="274.19" cy="-1098" rx="51.99" ry="18"/>
<text text-anchor="middle" x="274.19" y="-1094.3" font-family="Times New Roman,serif" font-size="14.00">(&#39;spoke&#39;, 1)</text>
</a>
</g>
</g>
<!-- as_cutout_23&#45;&gt;spoke_26 -->
<g id="edge4" class="edge">
<title>as_cutout_23&#45;&gt;spoke_26</title>
<path fill="none" stroke="black" d="M139.29,-738.25C147.14,-802.6 176.13,-1017.83 218.29,-1071 220.96,-1074.37 224.17,-1077.35 227.66,-1079.98"/>
<polygon fill="black" stroke="black" points="225.93,-1083.03 236.24,-1085.49 229.72,-1077.14 225.93,-1083.03"/>
</g>
<!-- spoke_27 -->
<g id="node6" class="node">
<title>spoke_27</title>
<g id="a_node6"><a xlink:href="javascript:s=&quot;\(&#x27;as_cutout&#x27;,\ \(&#x27;spoke&#x27;,\ 2\)\)\nLinearExtrude&quot;; console.log(s); alert(s);" xlink:title="LinearExtrude">
<ellipse fill="none" stroke="black" cx="274.19" cy="-1044" rx="51.99" ry="18"/>
<text text-anchor="middle" x="274.19" y="-1040.3" font-family="Times New Roman,serif" font-size="14.00">(&#39;spoke&#39;, 2)</text>
</a>
</g>
</g>
<!-- as_cutout_23&#45;&gt;spoke_27 -->
<g id="edge5" class="edge">
<title>as_cutout_23&#45;&gt;spoke_27</title>
<path fill="none" stroke="black" d="M137.16,-738C138.13,-788.1 147.33,-931.06 218.29,-1017 221.07,-1020.36 224.37,-1023.34 227.95,-1025.97"/>
<polygon fill="black" stroke="black" points="226.38,-1029.12 236.7,-1031.5 230.12,-1023.2 226.38,-1029.12"/>
</g>
<!-- spoke_28 -->
<g id="node7" class="node">
<title>spoke_28</title>
<g id="a_node7"><a xlink:href="javascript:s=&quot;\(&#x27;as_cutout&#x27;,\ \(&#x27;spoke&#x27;,\ 3\)\)\nLinearExtrude&quot;; console.log(s); alert(s);" xlink:title="LinearExtrude">
<ellipse fill="none" stroke="black" cx="274.19" cy="-990" rx="51.99" ry="18"/>
<text text-anchor="middle" x="274.19" y="-986.3" font-family="Times New Roman,serif" font-size="14.00">(&#39;spoke&#39;, 3)</text>
</a>
</g>
</g>
<!-- as_cutout_23&#45;&gt;spoke_28 -->
<g id="edge6" class="edge">
<title>as_cutout_23&#45;&gt;spoke_28</title>
<path fill="none" stroke="black" d="M138.5,-738.19C142.67,-782.05 158.89,-895 218.29,-963 221.24,-966.38 224.71,-969.37 228.45,-972.02"/>
<polygon fill="black" stroke="black" points="226.61,-975 236.96,-977.29 230.29,-969.05 226.61,-975"/>
</g>
<!-- spoke_29 -->
<g id="node8" class="node">
<title>spoke_29</title>
<g id="a_node8"><a xlink:href="javascript:s=&quot;\(&#x27;as_cutout&#x27;,\ \(&#x27;spoke&#x27;,\ 4\)\)\nLinearExtrude&quot;; console.log(s); alert(s);" xlink:title="LinearExtrude">
<ellipse fill="none" stroke="black" cx="274.19" cy="-936" rx="51.99" ry="18"/>
<text text-anchor="middle" x="274.19" y="-932.3" font-family="Times New Roman,serif" font-size="14.00">(&#39;spoke&#39;, 4)</text>
</a>
</g>
</g>
<!-- as_cutout_23&#45;&gt;spoke_29 -->
<g id="edge7" class="edge">
<title>as_cutout_23&#45;&gt;spoke_29</title>
<path fill="none" stroke="black" d="M140.54,-738.2C148.25,-774.85 170.22,-858.38 218.29,-909 221.42,-912.29 225.04,-915.24 228.89,-917.87"/>
<polygon fill="black" stroke="black" points="227.23,-920.95 237.61,-923.1 230.84,-914.95 227.23,-920.95"/>
</g>
<!-- spoke_30 -->
<g id="node9" class="node">
<title>spoke_30</title>
<g id="a_node9"><a xlink:href="javascript:s=&quot;\(&#x27;as_cutout&#x27;,\ \(&#x27;spoke&#x27;,\ 5\)\)\nLinearExtrude&quot;; console.log(s); alert(s);" xlink:title="LinearExtrude">
<ellipse fill="none" stroke="black" cx="274.19" cy="-882" rx="51.99" ry="18"/>
<text text-anchor="middle" x="274.19" y="-878.3" font-family="Times New Roman,serif" font-size="14.00">(&#39;spoke&#39;, 5)</text>
</a>
</g>
</g>
<!-- as_cutout_23&#45;&gt;spoke_30 -->
<g id="edge8" class="edge">
<title>as_cutout_23&#45;&gt;spoke_30</title>
<path fill="none" stroke="black" d="M144,-737.95C155.53,-766.1 181.25,-820.95 218.29,-855 221.82,-858.24 225.81,-861.18 229.99,-863.82"/>
<polygon fill="black" stroke="black" points="228.33,-866.91 238.75,-868.83 231.8,-860.83 228.33,-866.91"/>
</g>
<!-- spoke_31 -->
<g id="node10" class="node">
<title>spoke_31</title>
<g id="a_node10"><a xlink:href="javascript:s=&quot;\(&#x27;as_cutout&#x27;,\ \(&#x27;spoke&#x27;,\ 6\)\)\nLinearExtrude&quot;; console.log(s); alert(s);" xlink:title="LinearExtrude">
<ellipse fill="none" stroke="black" cx="274.19" cy="-828" rx="51.99" ry="18"/>
<text text-anchor="middle" x="274.19" y="-824.3" font-family="Times New Roman,serif" font-size="14.00">(&#39;spoke&#39;, 6)</text>
</a>
</g>
</g>
<!-- as_cutout_23&#45;&gt;spoke_31 -->
<g id="edge9" class="edge">
<title>as_cutout_23&#45;&gt;spoke_31</title>
<path fill="none" stroke="black" d="M151.32,-737.16C166.53,-754.79 192.06,-782.24 218.29,-801 222.45,-803.97 226.99,-806.78 231.61,-809.39"/>
<polygon fill="black" stroke="black" points="230.06,-812.53 240.54,-814.13 233.35,-806.35 230.06,-812.53"/>
</g>
<!-- spoke_32 -->
<g id="node11" class="node">
<title>spoke_32</title>
<g id="a_node11"><a xlink:href="javascript:s=&quot;\(&#x27;as_cutout&#x27;,\ \(&#x27;spoke&#x27;,\ 7\)\)\nLinearExtrude&quot;; console.log(s); alert(s);" xlink:title="LinearExtrude">
<ellipse fill="none" stroke="black" cx="274.19" cy="-774" rx="51.99" ry="18"/>
<text text-anchor="middle" x="274.19" y="-770.3" font-family="Times New Roman,serif" font-size="14.00">(&#39;spoke&#39;, 7)</text>
</a>
</g>
</g>
<!-- as_cutout_23&#45;&gt;spoke_32 -->
<g id="edge10" class="edge">
<title>as_cutout_23&#45;&gt;spoke_32</title>
<path fill="none" stroke="black" d="M169.04,-732.66C187.13,-739.84 210.02,-748.93 229.73,-756.75"/>
<polygon fill="black" stroke="black" points="228.53,-760.04 239.11,-760.47 231.11,-753.53 228.53,-760.04"/>
</g>
<!-- spoke_33 -->
<g id="node12" class="node">
<title>spoke_33</title>
<g id="a_node12"><a xlink:href="javascript:s=&quot;\(&#x27;as_cutout&#x27;,\ \(&#x27;spoke&#x27;,\ 8\)\)\nLinearExtrude&quot;; console.log(s); alert(s);" xlink:title="LinearExtrude">
<ellipse fill="none" stroke="black" cx="274.19" cy="-720" rx="51.99" ry="18"/>
<text text-anchor="middle" x="274.19" y="-716.3" font-family="Times New Roman,serif" font-size="14.00">(&#39;spoke&#39;, 8)</text>
</a>
</g>
</g>
<!-- as_cutout_23&#45;&gt;spoke_33 -->
<g id="edge11" class="edge">
<title>as_cutout_23&#45;&gt;spoke_33</title>
<path fill="none" stroke="black" d="M182.45,-720C191.85,-720 201.92,-720 211.79,-720"/>
<polygon fill="black" stroke="black" points="211.98,-723.5 221.98,-720 211.98,-716.5 211.98,-723.5"/>
</g>
<!-- spoke_34 -->
<g id="node13" class="node">
<title>spoke_34</title>
<g id="a_node13"><a xlink:href="javascript:s=&quot;\(&#x27;as_cutout&#x27;,\ \(&#x27;spoke&#x27;,\ 9\)\)\nLinearExtrude&quot;; console.log(s); alert(s);" xlink:title="LinearExtrude">
<ellipse fill="none" stroke="black" cx="274.19" cy="-666" rx="51.99" ry="18"/>
<text text-anchor="middle" x="274.19" y="-662.3" font-family="Times New Roman,serif" font-size="14.00">(&#39;spoke&#39;, 9)</text>
</a>
</g>
</g>
<!-- as_cutout_23&#45;&gt;spoke_34 -->
<g id="edge12" class="edge">
<title>as_cutout_23&#45;&gt;spoke_34</title>
<path fill="none" stroke="black" d="M169.04,-707.34C187.13,-700.16 210.02,-691.07 229.73,-683.25"/>
<polygon fill="black" stroke="black" points="231.11,-686.47 239.11,-679.53 228.53,-679.96 231.11,-686.47"/>
</g>
<!-- spoke_35 -->
<g id="node14" class="node">
<title>spoke_35</title>
<g id="a_node14"><a xlink:href="javascript:s=&quot;\(&#x27;as_cutout&#x27;,\ \(&#x27;spoke&#x27;,\ 10\)\)\nLinearExtrude&quot;; console.log(s); alert(s);" xlink:title="LinearExtrude">
<ellipse fill="none" stroke="black" cx="274.19" cy="-612" rx="55.79" ry="18"/>
<text text-anchor="middle" x="274.19" y="-608.3" font-family="Times New Roman,serif" font-size="14.00">(&#39;spoke&#39;, 10)</text>
</a>
</g>
</g>
<!-- as_cutout_23&#45;&gt;spoke_35 -->
<g id="edge13" class="edge">
<title>as_cutout_23&#45;&gt;spoke_35</title>
<path fill="none" stroke="black" d="M151.32,-702.84C166.53,-685.21 192.06,-657.76 218.29,-639 222.19,-636.21 226.42,-633.57 230.74,-631.1"/>
<polygon fill="black" stroke="black" points="232.52,-634.12 239.67,-626.31 229.21,-627.96 232.52,-634.12"/>
</g>
<!-- spoke_36 -->
<g id="node15" class="node">
<title>spoke_36</title>
<g id="a_node15"><a xlink:href="javascript:s=&quot;\(&#x27;as_cutout&#x27;,\ \(&#x27;spoke&#x27;,\ 11\)\)\nLinearExtrude&quot;; console.log(s); alert(s);" xlink:title="LinearExtrude">
<ellipse fill="none" stroke="black" cx="274.19" cy="-558" rx="55.79" ry="18"/>
<text text-anchor="middle" x="274.19" y="-554.3" font-family="Times New Roman,serif" font-size="14.00">(&#39;spoke&#39;, 11)</text>
</a>
</g>
</g>
<!-- as_cutout_23&#45;&gt;spoke_36 -->
<g id="edge14" class="edge">
<title>as_cutout_23&#45;&gt;spoke_36</title>
<path fill="none" stroke="black" d="M144,-702.05C155.53,-673.9 181.25,-619.05 218.29,-585 221.46,-582.09 225,-579.42 228.71,-577"/>
<polygon fill="black" stroke="black" points="230.75,-579.86 237.6,-571.77 227.21,-573.82 230.75,-579.86"/>
</g>
<!-- spoke_37 -->
<g id="node16" class="node">
<title>spoke_37</title>
<g id="a_node16"><a xlink:href="javascript:s=&quot;\(&#x27;as_cutout&#x27;,\ \(&#x27;spoke&#x27;,\ 12\)\)\nLinearExtrude&quot;; console.log(s); alert(s);" xlink:title="LinearExtrude">
<ellipse fill="none" stroke="black" cx="274.19" cy="-504" rx="55.79" ry="18"/>
<text text-anchor="middle" x="274.19" y="-500.3" font-family="Times New Roman,serif" font-size="14.00">(&#39;spoke&#39;, 12)</text>
</a>
</g>
</g>
<!-- as_cutout_23&#45;&gt;spoke_37 -->
<g id="edge15" class="edge">
<title>as_cutout_23&#45;&gt;spoke_37</title>
<path fill="none" stroke="black" d="M140.54,-701.8C148.25,-665.15 170.22,-581.62 218.29,-531 221.09,-528.05 224.28,-525.38 227.68,-522.97"/>
<polygon fill="black" stroke="black" points="229.82,-525.76 236.47,-517.51 226.13,-519.82 229.82,-525.76"/>
</g>
<!-- spoke_38 -->
<g id="node17" class="node">
<title>spoke_38</title>
<g id="a_node17"><a xlink:href="javascript:s=&quot;\(&#x27;as_cutout&#x27;,\ \(&#x27;spoke&#x27;,\ 13\)\)\nLinearExtrude&quot;; console.log(s); alert(s);" xlink:title="LinearExtrude">
<ellipse fill="none" stroke="black" cx="274.19" cy="-450" rx="55.79" ry="18"/>
<text text-anchor="middle" x="274.19" y="-446.3" font-family="Times New Roman,serif" font-size="14.00">(&#39;spoke&#39;, 13)</text>
</a>
</g>
</g>
<!-- as_cutout_23&#45;&gt;spoke_38 -->
<g id="edge16" class="edge">
<title>as_cutout_23&#45;&gt;spoke_38</title>
<path fill="none" stroke="black" d="M138.5,-701.81C142.67,-657.95 158.89,-545 218.29,-477 220.97,-473.94 224.07,-471.19 227.41,-468.73"/>
<polygon fill="black" stroke="black" points="229.56,-471.51 236.11,-463.18 225.79,-465.61 229.56,-471.51"/>
</g>
<!-- spoke_39 -->
<g id="node18" class="node">
<title>spoke_39</title>
<g id="a_node18"><a xlink:href="javascript:s=&quot;\(&#x27;as_cutout&#x27;,\ \(&#x27;spoke&#x27;,\ 14\)\)\nLinearExtrude&quot;; console.log(s); alert(s);" xlink:title="LinearExtrude">
<ellipse fill="none" stroke="black" cx="274.19" cy="-396" rx="55.79" ry="18"/>
<text text-anchor="middle" x="274.19" y="-392.3" font-family="Times New Roman,serif" font-size="14.00">(&#39;spoke&#39;, 14)</text>
</a>
</g>
</g>
<!-- as_cutout_23&#45;&gt;spoke_39 -->
<g id="edge17" class="edge">
<title>as_cutout_23&#45;&gt;spoke_39</title>
<path fill="none" stroke="black" d="M137.16,-702C138.13,-651.9 147.33,-508.94 218.29,-423 220.84,-419.91 223.84,-417.14 227.08,-414.67"/>
<polygon fill="black" stroke="black" points="229.12,-417.53 235.57,-409.13 225.29,-411.67 229.12,-417.53"/>
</g>
<!-- spoke_40 -->
<g id="node19" class="node">
<title>spoke_40</title>
<g id="a_node19"><a xlink:href="javascript:s=&quot;\(&#x27;as_cutout&#x27;,\ \(&#x27;spoke&#x27;,\ 15\)\)\nLinearExtrude&quot;; console.log(s); alert(s);" xlink:title="LinearExtrude">
<ellipse fill="none" stroke="black" cx="274.19" cy="-342" rx="55.79" ry="18"/>
<text text-anchor="middle" x="274.19" y="-338.3" font-family="Times New Roman,serif" font-size="14.00">(&#39;spoke&#39;, 15)</text>
</a>
</g>
</g>
<!-- as_cutout_23&#45;&gt;spoke_40 -->
<g id="edge18" class="edge">
<title>as_cutout_23&#45;&gt;spoke_40</title>
<path fill="none" stroke="black" d="M139.29,-701.75C147.14,-637.4 176.13,-422.17 218.29,-369 220.78,-365.86 223.73,-363.06 226.95,-360.56"/>
<polygon fill="black" stroke="black" points="228.98,-363.42 235.39,-354.98 225.12,-357.58 228.98,-363.42"/>
</g>
<!-- inner_core_41 -->
<g id="node20" class="node">
<title>inner_core_41</title>
<g id="a_node20"><a xlink:href="javascript:s=&quot;\(&#x27;as_cutout&#x27;,\ &#x27;inner_core&#x27;\)\nCylinder&quot;; console.log(s); alert(s);" xlink:title="Cylinder">
<ellipse fill="none" stroke="black" cx="274.19" cy="-288" rx="49.29" ry="18"/>
<text text-anchor="middle" x="274.19" y="-284.3" font-family="Times New Roman,serif" font-size="14.00">inner_core</text>
</a>
</g>
</g>
<!-- as_cutout_23&#45;&gt;inner_core_41 -->
<g id="edge19" class="edge">
<title>as_cutout_23&#45;&gt;inner_core_41</title>
<path fill="none" stroke="black" d="M138.66,-701.93C144.84,-631.69 170.2,-377.52 218.29,-315 221.1,-311.35 224.53,-308.16 228.29,-305.38"/>
<polygon fill="black" stroke="black" points="230.35,-308.23 236.95,-299.94 226.62,-302.3 230.35,-308.23"/>
</g>
<!-- coords_43 -->
<g id="node22" class="node">
<title>coords_43</title>
<g id="a_node22"><a xlink:href="javascript:s=&quot;\(&quot;&#x27;centre&#x27;,\ &quot;,\ &#x27;coords&#x27;\)\nCoordinates&quot;; console.log(s); alert(s);" xlink:title="Coordinates">
<ellipse fill="none" stroke="black" cx="274.19" cy="-234" rx="36.29" ry="18"/>
<text text-anchor="middle" x="274.19" y="-230.3" font-family="Times New Roman,serif" font-size="14.00">coords</text>
</a>
</g>
</g>
<!-- 42&#45;&gt;coords_43 -->
<g id="edge21" class="edge">
<title>42&#45;&gt;coords_43</title>
<path fill="none" stroke="black" d="M158.36,-168.22C174.46,-179.5 197.32,-194.93 218.29,-207 224.41,-210.52 231.06,-214.04 237.55,-217.31"/>
<polygon fill="black" stroke="black" points="236.34,-220.62 246.85,-221.91 239.44,-214.34 236.34,-220.62"/>
</g>
<!-- x_54 -->
<g id="node33" class="node">
<title>x_54</title>
<g id="a_node33"><a xlink:href="javascript:s=&quot;\(&quot;&#x27;centre&#x27;,\ &quot;,\ &#x27;x&#x27;\)\nText&quot;; console.log(s); alert(s);" xlink:title="Text">
<ellipse fill="none" stroke="black" cx="274.19" cy="-180" rx="27" ry="18"/>
<text text-anchor="middle" x="274.19" y="-176.3" font-family="Times New Roman,serif" font-size="14.00">x</text>
</a>
</g>
</g>
<!-- 42&#45;&gt;x_54 -->
<g id="edge32" class="edge">
<title>42&#45;&gt;x_54</title>
<path fill="none" stroke="black" d="M174.32,-160.38C194.19,-164.32 218.52,-169.15 238.07,-173.03"/>
<polygon fill="black" stroke="black" points="237.61,-176.51 248.1,-175.02 238.97,-169.64 237.61,-176.51"/>
</g>
<!-- y_55 -->
<g id="node34" class="node">
<title>y_55</title>
<g id="a_node34"><a xlink:href="javascript:s=&quot;\(&quot;&#x27;centre&#x27;,\ &quot;,\ &#x27;y&#x27;\)\nText&quot;; console.log(s); alert(s);" xlink:title="Text">
<ellipse fill="none" stroke="black" cx="274.19" cy="-126" rx="27" ry="18"/>
<text text-anchor="middle" x="274.19" y="-122.3" font-family="Times New Roman,serif" font-size="14.00">y</text>
</a>
</g>
</g>
<!-- 42&#45;&gt;y_55 -->
<g id="edge33" class="edge">
<title>42&#45;&gt;y_55</title>
<path fill="none" stroke="black" d="M174.32,-145.62C194.19,-141.68 218.52,-136.85 238.07,-132.97"/>
<polygon fill="black" stroke="black" points="238.97,-136.36 248.1,-130.98 237.61,-129.49 238.97,-136.36"/>
</g>
<!-- z_56 -->
<g id="node35" class="node">
<title>z_56</title>
<g id="a_node35"><a xlink:href="javascript:s=&quot;\(&quot;&#x27;centre&#x27;,\ &quot;,\ &#x27;z&#x27;\)\nText&quot;; console.log(s); alert(s);" xlink:title="Text">
<ellipse fill="none" stroke="black" cx="274.19" cy="-72" rx="27" ry="18"/>
<text text-anchor="middle" x="274.19" y="-68.3" font-family="Times New Roman,serif" font-size="14.00">z</text>
</a>
</g>
</g>
<!-- 42&#45;&gt;z_56 -->
<g id="edge34" class="edge">
<title>42&#45;&gt;z_56</title>
<path fill="none" stroke="black" d="M158.36,-137.78C174.46,-126.5 197.32,-111.07 218.29,-99 225.97,-94.58 234.47,-90.18 242.44,-86.25"/>
<polygon fill="black" stroke="black" points="243.99,-89.38 251.47,-81.88 240.95,-83.08 243.99,-89.38"/>
</g>
<!-- label_57 -->
<g id="node36" class="node">
<title>label_57</title>
<g id="a_node36"><a xlink:href="javascript:s=&quot;\(&quot;&#x27;centre&#x27;,\ &quot;,\ &#x27;label&#x27;\)\nText&quot;; console.log(s); alert(s);" xlink:title="Text">
<ellipse fill="none" stroke="black" cx="274.19" cy="-18" rx="27.1" ry="18"/>
<text text-anchor="middle" x="274.19" y="-14.3" font-family="Times New Roman,serif" font-size="14.00">label</text>
</a>
</g>
</g>
<!-- 42&#45;&gt;label_57 -->
<g id="edge35" class="edge">
<title>42&#45;&gt;label_57</title>
<path fill="none" stroke="black" d="M146.88,-135.27C160.37,-112.04 186.68,-71.18 218.29,-45 224.92,-39.51 232.85,-34.79 240.6,-30.9"/>
<polygon fill="black" stroke="black" points="242.28,-33.98 249.86,-26.58 239.32,-27.64 242.28,-33.98"/>
</g>
<!-- origin_44 -->
<g id="node23" class="node">
<title>origin_44</title>
<g id="a_node23"><a xlink:href="javascript:s=&quot;\(&quot;&#x27;centre&#x27;,\ &quot;,\ &#x27;coords&#x27;,\ &#x27;origin&#x27;\)\nCoordinatesCage&quot;; console.log(s); alert(s);" xlink:title="CoordinatesCage">
<ellipse fill="none" stroke="black" cx="407.03" cy="-315" rx="31.4" ry="18"/>
<text text-anchor="middle" x="407.03" y="-311.3" font-family="Times New Roman,serif" font-size="14.00">origin</text>
</a>
</g>
</g>
<!-- coords_43&#45;&gt;origin_44 -->
<g id="edge22" class="edge">
<title>coords_43&#45;&gt;origin_44</title>
<path fill="none" stroke="black" d="M301.69,-245.81C310.88,-250.22 321.12,-255.5 330.08,-261 347.13,-271.46 349.79,-276.4 366.08,-288 369.61,-290.51 373.34,-293.11 377.06,-295.66"/>
<polygon fill="black" stroke="black" points="375.34,-298.73 385.57,-301.46 379.27,-292.94 375.34,-298.73"/>
</g>
<!-- x_arrow_45 -->
<g id="node24" class="node">
<title>x_arrow_45</title>
<g id="a_node24"><a xlink:href="javascript:s=&quot;\(&quot;&#x27;centre&#x27;,\ &quot;,\ &#x27;coords&#x27;,\ &#x27;x_arrow&#x27;\)\nArrow&quot;; console.log(s); alert(s);" xlink:title="Arrow">
<ellipse fill="none" stroke="black" cx="407.03" cy="-261" rx="40.89" ry="18"/>
<text text-anchor="middle" x="407.03" y="-257.3" font-family="Times New Roman,serif" font-size="14.00">x_arrow</text>
</a>
</g>
</g>
<!-- coords_43&#45;&gt;x_arrow_45 -->
<g id="edge23" class="edge">
<title>coords_43&#45;&gt;x_arrow_45</title>
<path fill="none" stroke="black" d="M308.2,-240.81C323.63,-244 342.26,-247.84 359.11,-251.32"/>
<polygon fill="black" stroke="black" points="358.83,-254.83 369.33,-253.43 360.25,-247.98 358.83,-254.83"/>
</g>
<!-- y_arrow_48 -->
<g id="node27" class="node">
<title>y_arrow_48</title>
<g id="a_node27"><a xlink:href="javascript:s=&quot;\(&quot;&#x27;centre&#x27;,\ &quot;,\ &#x27;coords&#x27;,\ &#x27;y_arrow&#x27;\)\nArrow&quot;; console.log(s); alert(s);" xlink:title="Arrow">
<ellipse fill="none" stroke="black" cx="407.03" cy="-207" rx="40.89" ry="18"/>
<text text-anchor="middle" x="407.03" y="-203.3" font-family="Times New Roman,serif" font-size="14.00">y_arrow</text>
</a>
</g>
</g>
<!-- coords_43&#45;&gt;y_arrow_48 -->
<g id="edge26" class="edge">
<title>coords_43&#45;&gt;y_arrow_48</title>
<path fill="none" stroke="black" d="M308.2,-227.19C323.63,-224 342.26,-220.16 359.11,-216.68"/>
<polygon fill="black" stroke="black" points="360.25,-220.02 369.33,-214.57 358.83,-213.17 360.25,-220.02"/>
</g>
<!-- z_arrow_51 -->
<g id="node30" class="node">
<title>z_arrow_51</title>
<g id="a_node30"><a xlink:href="javascript:s=&quot;\(&quot;&#x27;centre&#x27;,\ &quot;,\ &#x27;coords&#x27;,\ &#x27;z_arrow&#x27;\)\nArrow&quot;; console.log(s); alert(s);" xlink:title="Arrow">
<ellipse fill="none" stroke="black" cx="407.03" cy="-99" rx="40.09" ry="18"/>
<text text-anchor="middle" x="407.03" y="-95.3" font-family="Times New Roman,serif" font-size="14.00">z_arrow</text>
</a>
</g>
</g>
<!-- coords_43&#45;&gt;z_arrow_51 -->
<g id="edge29" class="edge">
<title>coords_43&#45;&gt;z_arrow_51</title>
<path fill="none" stroke="black" d="M303.63,-223.31C312.68,-219.08 322.33,-213.63 330.08,-207 356.99,-183.98 379.08,-149.41 392.37,-125.62"/>
<polygon fill="black" stroke="black" points="395.48,-127.22 397.19,-116.76 389.33,-123.88 395.48,-127.22"/>
</g>
<!-- stem_46 -->
<g id="node25" class="node">
<title>stem_46</title>
<g id="a_node25"><a xlink:href="javascript:s=&quot;\(&quot;&#x27;centre&#x27;,\ &quot;,\ &#x27;coords&#x27;,\ &#x27;x_arrow&#x27;,\ &#x27;stem&#x27;\)\nCone&quot;; console.log(s); alert(s);" xlink:title="Cone">
<ellipse fill="none" stroke="black" cx="511.92" cy="-315" rx="27.9" ry="18"/>
<text text-anchor="middle" x="511.92" y="-311.3" font-family="Times New Roman,serif" font-size="14.00">stem</text>
</a>
</g>
</g>
<!-- x_arrow_45&#45;&gt;stem_46 -->
<g id="edge24" class="edge">
<title>x_arrow_45&#45;&gt;stem_46</title>
<path fill="none" stroke="black" d="M433.99,-274.63C448.16,-282.06 465.76,-291.3 480.56,-299.07"/>
<polygon fill="black" stroke="black" points="479.33,-302.37 489.81,-303.92 482.58,-296.18 479.33,-302.37"/>
</g>
<!-- head_47 -->
<g id="node26" class="node">
<title>head_47</title>
<g id="a_node26"><a xlink:href="javascript:s=&quot;\(&quot;&#x27;centre&#x27;,\ &quot;,\ &#x27;coords&#x27;,\ &#x27;x_arrow&#x27;,\ &#x27;head&#x27;\)\nCone&quot;; console.log(s); alert(s);" xlink:title="Cone">
<ellipse fill="none" stroke="black" cx="511.92" cy="-261" rx="27.9" ry="18"/>
<text text-anchor="middle" x="511.92" y="-257.3" font-family="Times New Roman,serif" font-size="14.00">head</text>
</a>
</g>
</g>
<!-- x_arrow_45&#45;&gt;head_47 -->
<g id="edge25" class="edge">
<title>x_arrow_45&#45;&gt;head_47</title>
<path fill="none" stroke="black" d="M448.1,-261C456.52,-261 465.35,-261 473.66,-261"/>
<polygon fill="black" stroke="black" points="473.82,-264.5 483.82,-261 473.82,-257.5 473.82,-264.5"/>
</g>
<!-- stem_49 -->
<g id="node28" class="node">
<title>stem_49</title>
<g id="a_node28"><a xlink:href="javascript:s=&quot;\(&quot;&#x27;centre&#x27;,\ &quot;,\ &#x27;coords&#x27;,\ &#x27;y_arrow&#x27;,\ &#x27;stem&#x27;\)\nCone&quot;; console.log(s); alert(s);" xlink:title="Cone">
<ellipse fill="none" stroke="black" cx="511.92" cy="-207" rx="27.9" ry="18"/>
<text text-anchor="middle" x="511.92" y="-203.3" font-family="Times New Roman,serif" font-size="14.00">stem</text>
</a>
</g>
</g>
<!-- y_arrow_48&#45;&gt;stem_49 -->
<g id="edge27" class="edge">
<title>y_arrow_48&#45;&gt;stem_49</title>
<path fill="none" stroke="black" d="M448.1,-207C456.52,-207 465.35,-207 473.66,-207"/>
<polygon fill="black" stroke="black" points="473.82,-210.5 483.82,-207 473.82,-203.5 473.82,-210.5"/>
</g>
<!-- head_50 -->
<g id="node29" class="node">
<title>head_50</title>
<g id="a_node29"><a xlink:href="javascript:s=&quot;\(&quot;&#x27;centre&#x27;,\ &quot;,\ &#x27;coords&#x27;,\ &#x27;y_arrow&#x27;,\ &#x27;head&#x27;\)\nCone&quot;; console.log(s); alert(s);" xlink:title="Cone">
<ellipse fill="none" stroke="black" cx="511.92" cy="-153" rx="27.9" ry="18"/>
<text text-anchor="middle" x="511.92" y="-149.3" font-family="Times New Roman,serif" font-size="14.00">head</text>
</a>
</g>
</g>
<!-- y_arrow_48&#45;&gt;head_50 -->
<g id="edge28" class="edge">
<title>y_arrow_48&#45;&gt;head_50</title>
<path fill="none" stroke="black" d="M433.99,-193.37C448.16,-185.94 465.76,-176.7 480.56,-168.93"/>
<polygon fill="black" stroke="black" points="482.58,-171.82 489.81,-164.08 479.33,-165.63 482.58,-171.82"/>
</g>
<!-- stem_52 -->
<g id="node31" class="node">
<title>stem_52</title>
<g id="a_node31"><a xlink:href="javascript:s=&quot;\(&quot;&#x27;centre&#x27;,\ &quot;,\ &#x27;coords&#x27;,\ &#x27;z_arrow&#x27;,\ &#x27;stem&#x27;\)\nCone&quot;; console.log(s); alert(s);" xlink:title="Cone">
<ellipse fill="none" stroke="black" cx="511.92" cy="-99" rx="27.9" ry="18"/>
<text text-anchor="middle" x="511.92" y="-95.3" font-family="Times New Roman,serif" font-size="14.00">stem</text>
</a>
</g>
</g>
<!-- z_arrow_51&#45;&gt;stem_52 -->
<g id="edge30" class="edge">
<title>z_arrow_51&#45;&gt;stem_52</title>
<path fill="none" stroke="black" d="M447.52,-99C456.14,-99 465.23,-99 473.76,-99"/>
<polygon fill="black" stroke="black" points="473.81,-102.5 483.81,-99 473.81,-95.5 473.81,-102.5"/>
</g>
<!-- head_53 -->
<g id="node32" class="node">
<title>head_53</title>
<g id="a_node32"><a xlink:href="javascript:s=&quot;\(&quot;&#x27;centre&#x27;,\ &quot;,\ &#x27;coords&#x27;,\ &#x27;z_arrow&#x27;,\ &#x27;head&#x27;\)\nCone&quot;; console.log(s); alert(s);" xlink:title="Cone">
<ellipse fill="none" stroke="black" cx="511.92" cy="-45" rx="27.9" ry="18"/>
<text text-anchor="middle" x="511.92" y="-41.3" font-family="Times New Roman,serif" font-size="14.00">head</text>
</a>
</g>
</g>
<!-- z_arrow_51&#45;&gt;head_53 -->
<g id="edge31" class="edge">
<title>z_arrow_51&#45;&gt;head_53</title>
<path fill="none" stroke="black" d="M433.73,-85.51C448.02,-78.01 465.89,-68.63 480.84,-60.79"/>
<polygon fill="black" stroke="black" points="482.48,-63.88 489.7,-56.14 479.22,-57.68 482.48,-63.88"/>
</g>
</g>
</svg>
