<?xml version="1.0" encoding="UTF-8" standalone="no"?>
<!DOCTYPE svg PUBLIC "-//W3C//DTD SVG 1.1//EN"
 "http://www.w3.org/Graphics/SVG/1.1/DTD/svg11.dtd">
<!-- Generated by graphviz version 5.0.0 (20220707.1540)
 -->
<!-- Title: as_solid Pages: 1 -->
<svg width="539pt" height="1232pt"
 viewBox="0.00 0.00 538.77 1232.00" xmlns="http://www.w3.org/2000/svg" xmlns:xlink="http://www.w3.org/1999/xlink">
<g id="graph0" class="graph" transform="scale(1 1) rotate(0) translate(4 1228)">
<title>as_solid</title>
<polygon fill="white" stroke="transparent" points="-4,4 -4,-1228 534.77,-1228 534.77,4 -4,4"/>
<!-- root_58 -->
<g id="node1" class="node">
<title>root_58</title>
<g id="a_node1"><a xlink:href="javascript:s=&quot;\(\)\nNone&quot;; console.log(s); alert(s);" xlink:title="root">
<ellipse fill="none" stroke="black" cx="27" cy="-423" rx="27" ry="18"/>
<text text-anchor="middle" x="27" y="-419.3" font-family="Times New Roman,serif" font-size="14.00">root</text>
</a>
</g>
</g>
<!-- as_solid_59 -->
<g id="node2" class="node">
<title>as_solid_59</title>
<g id="a_node2"><a xlink:href="javascript:s=&quot;\(&#x27;as_solid&#x27;,\)\nCurlySpokes&quot;; console.log(s); alert(s);" xlink:title="CurlySpokes">
<ellipse fill="none" stroke="black" cx="131.6" cy="-720" rx="40.89" ry="18"/>
<text text-anchor="middle" x="131.6" y="-716.3" font-family="Times New Roman,serif" font-size="14.00">as_solid</text>
</a>
</g>
</g>
<!-- root_58&#45;&gt;as_solid_59 -->
<g id="edge1" class="edge">
<title>root_58&#45;&gt;as_solid_59</title>
<path fill="none" stroke="black" d="M34.11,-440.69C51.32,-490.51 100.29,-632.25 121.07,-692.44"/>
<polygon fill="black" stroke="black" points="117.81,-693.72 124.39,-702.03 124.43,-691.43 117.81,-693.72"/>
</g>
<!-- 78 -->
<g id="node21" class="node">
<title>78</title>
<g id="a_node21"><a xlink:href="javascript:s=&quot;\(&quot;&#x27;centre&#x27;,\ &quot;,\)\nAnnotatedCoordinates&quot;; console.log(s); alert(s);" xlink:title="AnnotatedCoordinates">
<ellipse fill="none" stroke="black" cx="131.6" cy="-153" rx="41.69" ry="18"/>
<text text-anchor="middle" x="131.6" y="-149.3" font-family="Times New Roman,serif" font-size="14.00">&#39;centre&#39;, </text>
</a>
</g>
</g>
<!-- root_58&#45;&gt;78 -->
<g id="edge20" class="edge">
<title>root_58&#45;&gt;78</title>
<path fill="none" stroke="black" d="M34.57,-405.7C51.94,-360.01 99.12,-235.83 120.19,-180.38"/>
<polygon fill="black" stroke="black" points="123.53,-181.45 123.81,-170.86 116.99,-178.96 123.53,-181.45"/>
</g>
<!-- cage_60 -->
<g id="node3" class="node">
<title>cage_60</title>
<g id="a_node3"><a xlink:href="javascript:s=&quot;\(&#x27;as_solid&#x27;,\ &#x27;cage&#x27;\)\nCylinder&quot;; console.log(s); alert(s);" xlink:title="Cylinder">
<ellipse fill="none" stroke="black" cx="265.09" cy="-1206" rx="27.1" ry="18"/>
<text text-anchor="middle" x="265.09" y="-1202.3" font-family="Times New Roman,serif" font-size="14.00">cage</text>
</a>
</g>
</g>
<!-- as_solid_59&#45;&gt;cage_60 -->
<g id="edge2" class="edge">
<title>as_solid_59&#45;&gt;cage_60</title>
<path fill="none" stroke="black" d="M133.45,-738.07C137.33,-814.05 155.61,-1106.96 209.19,-1179 214.48,-1186.11 222.14,-1191.45 230.08,-1195.42"/>
<polygon fill="black" stroke="black" points="228.82,-1198.69 239.39,-1199.48 231.62,-1192.27 228.82,-1198.69"/>
</g>
<!-- spoke_61 -->
<g id="node4" class="node">
<title>spoke_61</title>
<g id="a_node4"><a xlink:href="javascript:s=&quot;\(&#x27;as_solid&#x27;,\ \(&#x27;spoke&#x27;,\ 0\)\)\nLinearExtrude&quot;; console.log(s); alert(s);" xlink:title="LinearExtrude">
<ellipse fill="none" stroke="black" cx="265.09" cy="-1152" rx="51.99" ry="18"/>
<text text-anchor="middle" x="265.09" y="-1148.3" font-family="Times New Roman,serif" font-size="14.00">(&#39;spoke&#39;, 0)</text>
</a>
</g>
</g>
<!-- as_solid_59&#45;&gt;spoke_61 -->
<g id="edge3" class="edge">
<title>as_solid_59&#45;&gt;spoke_61</title>
<path fill="none" stroke="black" d="M133.89,-738.06C139.22,-808.28 161.54,-1062.35 209.19,-1125 211.8,-1128.42 214.95,-1131.44 218.42,-1134.09"/>
<polygon fill="black" stroke="black" points="216.66,-1137.12 226.95,-1139.64 220.47,-1131.25 216.66,-1137.12"/>
</g>
<!-- spoke_62 -->
<g id="node5" class="node">
<title>spoke_62</title>
<g id="a_node5"><a xlink:href="javascript:s=&quot;\(&#x27;as_solid&#x27;,\ \(&#x27;spoke&#x27;,\ 1\)\)\nLinearExtrude&quot;; console.log(s); alert(s);" xlink:title="LinearExtrude">
<ellipse fill="none" stroke="black" cx="265.09" cy="-1098" rx="51.99" ry="18"/>
<text text-anchor="middle" x="265.09" y="-1094.3" font-family="Times New Roman,serif" font-size="14.00">(&#39;spoke&#39;, 1)</text>
</a>
</g>
</g>
<!-- as_solid_59&#45;&gt;spoke_62 -->
<g id="edge4" class="edge">
<title>as_solid_59&#45;&gt;spoke_62</title>
<path fill="none" stroke="black" d="M134.48,-738.25C141.45,-802.56 167.47,-1017.72 209.19,-1071 211.84,-1074.39 215.03,-1077.38 218.52,-1080.01"/>
<polygon fill="black" stroke="black" points="216.78,-1083.06 227.08,-1085.54 220.58,-1077.18 216.78,-1083.06"/>
</g>
<!-- spoke_63 -->
<g id="node6" class="node">
<title>spoke_63</title>
<g id="a_node6"><a xlink:href="javascript:s=&quot;\(&#x27;as_solid&#x27;,\ \(&#x27;spoke&#x27;,\ 2\)\)\nLinearExtrude&quot;; console.log(s); alert(s);" xlink:title="LinearExtrude">
<ellipse fill="none" stroke="black" cx="265.09" cy="-1044" rx="51.99" ry="18"/>
<text text-anchor="middle" x="265.09" y="-1040.3" font-family="Times New Roman,serif" font-size="14.00">(&#39;spoke&#39;, 2)</text>
</a>
</g>
</g>
<!-- as_solid_59&#45;&gt;spoke_63 -->
<g id="edge5" class="edge">
<title>as_solid_59&#45;&gt;spoke_63</title>
<path fill="none" stroke="black" d="M132.29,-738.35C132.41,-788.72 139.29,-931.09 209.19,-1017 211.91,-1020.34 215.14,-1023.29 218.65,-1025.91"/>
<polygon fill="black" stroke="black" points="216.94,-1028.97 227.26,-1031.4 220.71,-1023.07 216.94,-1028.97"/>
</g>
<!-- spoke_64 -->
<g id="node7" class="node">
<title>spoke_64</title>
<g id="a_node7"><a xlink:href="javascript:s=&quot;\(&#x27;as_solid&#x27;,\ \(&#x27;spoke&#x27;,\ 3\)\)\nLinearExtrude&quot;; console.log(s); alert(s);" xlink:title="LinearExtrude">
<ellipse fill="none" stroke="black" cx="265.09" cy="-990" rx="51.99" ry="18"/>
<text text-anchor="middle" x="265.09" y="-986.3" font-family="Times New Roman,serif" font-size="14.00">(&#39;spoke&#39;, 3)</text>
</a>
</g>
</g>
<!-- as_solid_59&#45;&gt;spoke_64 -->
<g id="edge6" class="edge">
<title>as_solid_59&#45;&gt;spoke_64</title>
<path fill="none" stroke="black" d="M133.56,-738.17C136.81,-781.99 150.69,-894.88 209.19,-963 212.11,-966.4 215.56,-969.41 219.29,-972.07"/>
<polygon fill="black" stroke="black" points="217.44,-975.05 227.78,-977.35 221.13,-969.1 217.44,-975.05"/>
</g>
<!-- spoke_65 -->
<g id="node8" class="node">
<title>spoke_65</title>
<g id="a_node8"><a xlink:href="javascript:s=&quot;\(&#x27;as_solid&#x27;,\ \(&#x27;spoke&#x27;,\ 4\)\)\nLinearExtrude&quot;; console.log(s); alert(s);" xlink:title="LinearExtrude">
<ellipse fill="none" stroke="black" cx="265.09" cy="-936" rx="51.99" ry="18"/>
<text text-anchor="middle" x="265.09" y="-932.3" font-family="Times New Roman,serif" font-size="14.00">(&#39;spoke&#39;, 4)</text>
</a>
</g>
</g>
<!-- as_solid_59&#45;&gt;spoke_65 -->
<g id="edge7" class="edge">
<title>as_solid_59&#45;&gt;spoke_65</title>
<path fill="none" stroke="black" d="M135.51,-738.19C142.24,-774.82 162.04,-858.33 209.19,-909 212.29,-912.33 215.88,-915.3 219.72,-917.93"/>
<polygon fill="black" stroke="black" points="218.05,-921.01 228.42,-923.19 221.67,-915.02 218.05,-921.01"/>
</g>
<!-- spoke_66 -->
<g id="node9" class="node">
<title>spoke_66</title>
<g id="a_node9"><a xlink:href="javascript:s=&quot;\(&#x27;as_solid&#x27;,\ \(&#x27;spoke&#x27;,\ 5\)\)\nLinearExtrude&quot;; console.log(s); alert(s);" xlink:title="LinearExtrude">
<ellipse fill="none" stroke="black" cx="265.09" cy="-882" rx="51.99" ry="18"/>
<text text-anchor="middle" x="265.09" y="-878.3" font-family="Times New Roman,serif" font-size="14.00">(&#39;spoke&#39;, 5)</text>
</a>
</g>
</g>
<!-- as_solid_59&#45;&gt;spoke_66 -->
<g id="edge8" class="edge">
<title>as_solid_59&#45;&gt;spoke_66</title>
<path fill="none" stroke="black" d="M138.8,-737.96C149.33,-766.13 173.11,-820.99 209.19,-855 212.54,-858.16 216.33,-861.02 220.32,-863.6"/>
<polygon fill="black" stroke="black" points="218.85,-866.8 229.26,-868.79 222.37,-860.74 218.85,-866.8"/>
</g>
<!-- spoke_67 -->
<g id="node10" class="node">
<title>spoke_67</title>
<g id="a_node10"><a xlink:href="javascript:s=&quot;\(&#x27;as_solid&#x27;,\ \(&#x27;spoke&#x27;,\ 6\)\)\nLinearExtrude&quot;; console.log(s); alert(s);" xlink:title="LinearExtrude">
<ellipse fill="none" stroke="black" cx="265.09" cy="-828" rx="51.99" ry="18"/>
<text text-anchor="middle" x="265.09" y="-824.3" font-family="Times New Roman,serif" font-size="14.00">(&#39;spoke&#39;, 6)</text>
</a>
</g>
</g>
<!-- as_solid_59&#45;&gt;spoke_67 -->
<g id="edge9" class="edge">
<title>as_solid_59&#45;&gt;spoke_67</title>
<path fill="none" stroke="black" d="M145.79,-737.22C159.99,-754.9 183.95,-782.4 209.19,-801 213.31,-804.03 217.82,-806.88 222.43,-809.51"/>
<polygon fill="black" stroke="black" points="220.87,-812.64 231.33,-814.27 224.17,-806.47 220.87,-812.64"/>
</g>
<!-- spoke_68 -->
<g id="node11" class="node">
<title>spoke_68</title>
<g id="a_node11"><a xlink:href="javascript:s=&quot;\(&#x27;as_solid&#x27;,\ \(&#x27;spoke&#x27;,\ 7\)\)\nLinearExtrude&quot;; console.log(s); alert(s);" xlink:title="LinearExtrude">
<ellipse fill="none" stroke="black" cx="265.09" cy="-774" rx="51.99" ry="18"/>
<text text-anchor="middle" x="265.09" y="-770.3" font-family="Times New Roman,serif" font-size="14.00">(&#39;spoke&#39;, 7)</text>
</a>
</g>
</g>
<!-- as_solid_59&#45;&gt;spoke_68 -->
<g id="edge10" class="edge">
<title>as_solid_59&#45;&gt;spoke_68</title>
<path fill="none" stroke="black" d="M162.11,-732.12C179.67,-739.33 202.26,-748.61 221.72,-756.6"/>
<polygon fill="black" stroke="black" points="220.4,-759.84 230.98,-760.4 223.06,-753.37 220.4,-759.84"/>
</g>
<!-- spoke_69 -->
<g id="node12" class="node">
<title>spoke_69</title>
<g id="a_node12"><a xlink:href="javascript:s=&quot;\(&#x27;as_solid&#x27;,\ \(&#x27;spoke&#x27;,\ 8\)\)\nLinearExtrude&quot;; console.log(s); alert(s);" xlink:title="LinearExtrude">
<ellipse fill="none" stroke="black" cx="265.09" cy="-720" rx="51.99" ry="18"/>
<text text-anchor="middle" x="265.09" y="-716.3" font-family="Times New Roman,serif" font-size="14.00">(&#39;spoke&#39;, 8)</text>
</a>
</g>
</g>
<!-- as_solid_59&#45;&gt;spoke_69 -->
<g id="edge11" class="edge">
<title>as_solid_59&#45;&gt;spoke_69</title>
<path fill="none" stroke="black" d="M172.76,-720C182.28,-720 192.64,-720 202.86,-720"/>
<polygon fill="black" stroke="black" points="202.99,-723.5 212.99,-720 202.99,-716.5 202.99,-723.5"/>
</g>
<!-- spoke_70 -->
<g id="node13" class="node">
<title>spoke_70</title>
<g id="a_node13"><a xlink:href="javascript:s=&quot;\(&#x27;as_solid&#x27;,\ \(&#x27;spoke&#x27;,\ 9\)\)\nLinearExtrude&quot;; console.log(s); alert(s);" xlink:title="LinearExtrude">
<ellipse fill="none" stroke="black" cx="265.09" cy="-666" rx="51.99" ry="18"/>
<text text-anchor="middle" x="265.09" y="-662.3" font-family="Times New Roman,serif" font-size="14.00">(&#39;spoke&#39;, 9)</text>
</a>
</g>
</g>
<!-- as_solid_59&#45;&gt;spoke_70 -->
<g id="edge12" class="edge">
<title>as_solid_59&#45;&gt;spoke_70</title>
<path fill="none" stroke="black" d="M162.11,-707.88C179.67,-700.67 202.26,-691.39 221.72,-683.4"/>
<polygon fill="black" stroke="black" points="223.06,-686.63 230.98,-679.6 220.4,-680.16 223.06,-686.63"/>
</g>
<!-- spoke_71 -->
<g id="node14" class="node">
<title>spoke_71</title>
<g id="a_node14"><a xlink:href="javascript:s=&quot;\(&#x27;as_solid&#x27;,\ \(&#x27;spoke&#x27;,\ 10\)\)\nLinearExtrude&quot;; console.log(s); alert(s);" xlink:title="LinearExtrude">
<ellipse fill="none" stroke="black" cx="265.09" cy="-612" rx="55.79" ry="18"/>
<text text-anchor="middle" x="265.09" y="-608.3" font-family="Times New Roman,serif" font-size="14.00">(&#39;spoke&#39;, 10)</text>
</a>
</g>
</g>
<!-- as_solid_59&#45;&gt;spoke_71 -->
<g id="edge13" class="edge">
<title>as_solid_59&#45;&gt;spoke_71</title>
<path fill="none" stroke="black" d="M145.79,-702.78C159.99,-685.1 183.95,-657.6 209.19,-639 213.05,-636.16 217.25,-633.48 221.56,-630.99"/>
<polygon fill="black" stroke="black" points="223.34,-634.01 230.47,-626.17 220.01,-627.85 223.34,-634.01"/>
</g>
<!-- spoke_72 -->
<g id="node15" class="node">
<title>spoke_72</title>
<g id="a_node15"><a xlink:href="javascript:s=&quot;\(&#x27;as_solid&#x27;,\ \(&#x27;spoke&#x27;,\ 11\)\)\nLinearExtrude&quot;; console.log(s); alert(s);" xlink:title="LinearExtrude">
<ellipse fill="none" stroke="black" cx="265.09" cy="-558" rx="55.79" ry="18"/>
<text text-anchor="middle" x="265.09" y="-554.3" font-family="Times New Roman,serif" font-size="14.00">(&#39;spoke&#39;, 11)</text>
</a>
</g>
</g>
<!-- as_solid_59&#45;&gt;spoke_72 -->
<g id="edge14" class="edge">
<title>as_solid_59&#45;&gt;spoke_72</title>
<path fill="none" stroke="black" d="M138.8,-702.04C149.33,-673.87 173.11,-619.01 209.19,-585 212.32,-582.05 215.84,-579.36 219.53,-576.91"/>
<polygon fill="black" stroke="black" points="221.58,-579.77 228.4,-571.66 218.01,-573.75 221.58,-579.77"/>
</g>
<!-- spoke_73 -->
<g id="node16" class="node">
<title>spoke_73</title>
<g id="a_node16"><a xlink:href="javascript:s=&quot;\(&#x27;as_solid&#x27;,\ \(&#x27;spoke&#x27;,\ 12\)\)\nLinearExtrude&quot;; console.log(s); alert(s);" xlink:title="LinearExtrude">
<ellipse fill="none" stroke="black" cx="265.09" cy="-504" rx="55.79" ry="18"/>
<text text-anchor="middle" x="265.09" y="-500.3" font-family="Times New Roman,serif" font-size="14.00">(&#39;spoke&#39;, 12)</text>
</a>
</g>
</g>
<!-- as_solid_59&#45;&gt;spoke_73 -->
<g id="edge15" class="edge">
<title>as_solid_59&#45;&gt;spoke_73</title>
<path fill="none" stroke="black" d="M135.51,-701.81C142.24,-665.18 162.04,-581.67 209.19,-531 211.96,-528.02 215.13,-525.33 218.52,-522.91"/>
<polygon fill="black" stroke="black" points="220.66,-525.7 227.28,-517.43 216.95,-519.76 220.66,-525.7"/>
</g>
<!-- spoke_74 -->
<g id="node17" class="node">
<title>spoke_74</title>
<g id="a_node17"><a xlink:href="javascript:s=&quot;\(&#x27;as_solid&#x27;,\ \(&#x27;spoke&#x27;,\ 13\)\)\nLinearExtrude&quot;; console.log(s); alert(s);" xlink:title="LinearExtrude">
<ellipse fill="none" stroke="black" cx="265.09" cy="-450" rx="55.79" ry="18"/>
<text text-anchor="middle" x="265.09" y="-446.3" font-family="Times New Roman,serif" font-size="14.00">(&#39;spoke&#39;, 13)</text>
</a>
</g>
</g>
<!-- as_solid_59&#45;&gt;spoke_74 -->
<g id="edge16" class="edge">
<title>as_solid_59&#45;&gt;spoke_74</title>
<path fill="none" stroke="black" d="M133.56,-701.83C136.81,-658.01 150.69,-545.12 209.19,-477 211.8,-473.96 214.84,-471.23 218.11,-468.78"/>
<polygon fill="black" stroke="black" points="220.14,-471.64 226.65,-463.27 216.35,-465.76 220.14,-471.64"/>
</g>
<!-- spoke_75 -->
<g id="node18" class="node">
<title>spoke_75</title>
<g id="a_node18"><a xlink:href="javascript:s=&quot;\(&#x27;as_solid&#x27;,\ \(&#x27;spoke&#x27;,\ 14\)\)\nLinearExtrude&quot;; console.log(s); alert(s);" xlink:title="LinearExtrude">
<ellipse fill="none" stroke="black" cx="265.09" cy="-396" rx="55.79" ry="18"/>
<text text-anchor="middle" x="265.09" y="-392.3" font-family="Times New Roman,serif" font-size="14.00">(&#39;spoke&#39;, 14)</text>
</a>
</g>
</g>
<!-- as_solid_59&#45;&gt;spoke_75 -->
<g id="edge17" class="edge">
<title>as_solid_59&#45;&gt;spoke_75</title>
<path fill="none" stroke="black" d="M132.29,-701.65C132.41,-651.28 139.29,-508.91 209.19,-423 211.72,-419.89 214.7,-417.11 217.94,-414.63"/>
<polygon fill="black" stroke="black" points="219.97,-417.49 226.41,-409.07 216.13,-411.63 219.97,-417.49"/>
</g>
<!-- spoke_76 -->
<g id="node19" class="node">
<title>spoke_76</title>
<g id="a_node19"><a xlink:href="javascript:s=&quot;\(&#x27;as_solid&#x27;,\ \(&#x27;spoke&#x27;,\ 15\)\)\nLinearExtrude&quot;; console.log(s); alert(s);" xlink:title="LinearExtrude">
<ellipse fill="none" stroke="black" cx="265.09" cy="-342" rx="55.79" ry="18"/>
<text text-anchor="middle" x="265.09" y="-338.3" font-family="Times New Roman,serif" font-size="14.00">(&#39;spoke&#39;, 15)</text>
</a>
</g>
</g>
<!-- as_solid_59&#45;&gt;spoke_76 -->
<g id="edge18" class="edge">
<title>as_solid_59&#45;&gt;spoke_76</title>
<path fill="none" stroke="black" d="M134.48,-701.75C141.45,-637.44 167.47,-422.28 209.19,-369 211.56,-365.98 214.35,-363.27 217.4,-360.85"/>
<polygon fill="black" stroke="black" points="219.61,-363.58 225.96,-355.1 215.71,-357.77 219.61,-363.58"/>
</g>
<!-- inner_core_77 -->
<g id="node20" class="node">
<title>inner_core_77</title>
<g id="a_node20"><a xlink:href="javascript:s=&quot;\(&#x27;as_solid&#x27;,\ &#x27;inner_core&#x27;\)\nCylinder&quot;; console.log(s); alert(s);" xlink:title="Cylinder">
<ellipse fill="none" stroke="black" cx="265.09" cy="-288" rx="49.29" ry="18"/>
<text text-anchor="middle" x="265.09" y="-284.3" font-family="Times New Roman,serif" font-size="14.00">inner_core</text>
</a>
</g>
</g>
<!-- as_solid_59&#45;&gt;inner_core_77 -->
<g id="edge19" class="edge">
<title>as_solid_59&#45;&gt;inner_core_77</title>
<path fill="none" stroke="black" d="M133.89,-701.94C139.22,-631.72 161.54,-377.65 209.19,-315 211.98,-311.33 215.4,-308.14 219.15,-305.35"/>
<polygon fill="black" stroke="black" points="221.21,-308.19 227.8,-299.9 217.47,-302.27 221.21,-308.19"/>
</g>
<!-- coords_79 -->
<g id="node22" class="node">
<title>coords_79</title>
<g id="a_node22"><a xlink:href="javascript:s=&quot;\(&quot;&#x27;centre&#x27;,\ &quot;,\ &#x27;coords&#x27;\)\nCoordinates&quot;; console.log(s); alert(s);" xlink:title="Coordinates">
<ellipse fill="none" stroke="black" cx="265.09" cy="-234" rx="36.29" ry="18"/>
<text text-anchor="middle" x="265.09" y="-230.3" font-family="Times New Roman,serif" font-size="14.00">coords</text>
</a>
</g>
</g>
<!-- 78&#45;&gt;coords_79 -->
<g id="edge21" class="edge">
<title>78&#45;&gt;coords_79</title>
<path fill="none" stroke="black" d="M152.82,-168.57C167.93,-179.88 189.32,-195.21 209.19,-207 215.27,-210.61 221.89,-214.16 228.37,-217.45"/>
<polygon fill="black" stroke="black" points="227.16,-220.75 237.67,-222.05 230.26,-214.48 227.16,-220.75"/>
</g>
<!-- x_90 -->
<g id="node33" class="node">
<title>x_90</title>
<g id="a_node33"><a xlink:href="javascript:s=&quot;\(&quot;&#x27;centre&#x27;,\ &quot;,\ &#x27;x&#x27;\)\nText&quot;; console.log(s); alert(s);" xlink:title="Text">
<ellipse fill="none" stroke="black" cx="265.09" cy="-180" rx="27" ry="18"/>
<text text-anchor="middle" x="265.09" y="-176.3" font-family="Times New Roman,serif" font-size="14.00">x</text>
</a>
</g>
</g>
<!-- 78&#45;&gt;x_90 -->
<g id="edge32" class="edge">
<title>78&#45;&gt;x_90</title>
<path fill="none" stroke="black" d="M169.57,-160.59C188.2,-164.42 210.67,-169.03 229.02,-172.8"/>
<polygon fill="black" stroke="black" points="228.52,-176.27 239.02,-174.85 229.93,-169.41 228.52,-176.27"/>
</g>
<!-- y_91 -->
<g id="node34" class="node">
<title>y_91</title>
<g id="a_node34"><a xlink:href="javascript:s=&quot;\(&quot;&#x27;centre&#x27;,\ &quot;,\ &#x27;y&#x27;\)\nText&quot;; console.log(s); alert(s);" xlink:title="Text">
<ellipse fill="none" stroke="black" cx="265.09" cy="-126" rx="27" ry="18"/>
<text text-anchor="middle" x="265.09" y="-122.3" font-family="Times New Roman,serif" font-size="14.00">y</text>
</a>
</g>
</g>
<!-- 78&#45;&gt;y_91 -->
<g id="edge33" class="edge">
<title>78&#45;&gt;y_91</title>
<path fill="none" stroke="black" d="M169.57,-145.41C188.2,-141.58 210.67,-136.97 229.02,-133.2"/>
<polygon fill="black" stroke="black" points="229.93,-136.59 239.02,-131.15 228.52,-129.73 229.93,-136.59"/>
</g>
<!-- z_92 -->
<g id="node35" class="node">
<title>z_92</title>
<g id="a_node35"><a xlink:href="javascript:s=&quot;\(&quot;&#x27;centre&#x27;,\ &quot;,\ &#x27;z&#x27;\)\nText&quot;; console.log(s); alert(s);" xlink:title="Text">
<ellipse fill="none" stroke="black" cx="265.09" cy="-72" rx="27" ry="18"/>
<text text-anchor="middle" x="265.09" y="-68.3" font-family="Times New Roman,serif" font-size="14.00">z</text>
</a>
</g>
</g>
<!-- 78&#45;&gt;z_92 -->
<g id="edge34" class="edge">
<title>78&#45;&gt;z_92</title>
<path fill="none" stroke="black" d="M152.82,-137.43C167.93,-126.12 189.32,-110.79 209.19,-99 216.81,-94.48 225.29,-90.04 233.26,-86.11"/>
<polygon fill="black" stroke="black" points="234.81,-89.25 242.3,-81.75 231.77,-82.94 234.81,-89.25"/>
</g>
<!-- label_93 -->
<g id="node36" class="node">
<title>label_93</title>
<g id="a_node36"><a xlink:href="javascript:s=&quot;\(&quot;&#x27;centre&#x27;,\ &quot;,\ &#x27;label&#x27;\)\nText&quot;; console.log(s); alert(s);" xlink:title="Text">
<ellipse fill="none" stroke="black" cx="265.09" cy="-18" rx="27.1" ry="18"/>
<text text-anchor="middle" x="265.09" y="-14.3" font-family="Times New Roman,serif" font-size="14.00">label</text>
</a>
</g>
</g>
<!-- 78&#45;&gt;label_93 -->
<g id="edge35" class="edge">
<title>78&#45;&gt;label_93</title>
<path fill="none" stroke="black" d="M141.55,-135.24C154.02,-111.97 178.57,-71.08 209.19,-45 215.75,-39.42 223.65,-34.66 231.4,-30.77"/>
<polygon fill="black" stroke="black" points="233.08,-33.85 240.66,-26.46 230.12,-27.51 233.08,-33.85"/>
</g>
<!-- origin_80 -->
<g id="node23" class="node">
<title>origin_80</title>
<g id="a_node23"><a xlink:href="javascript:s=&quot;\(&quot;&#x27;centre&#x27;,\ &quot;,\ &#x27;coords&#x27;,\ &#x27;origin&#x27;\)\nCoordinatesCage&quot;; console.log(s); alert(s);" xlink:title="CoordinatesCage">
<ellipse fill="none" stroke="black" cx="397.93" cy="-315" rx="31.4" ry="18"/>
<text text-anchor="middle" x="397.93" y="-311.3" font-family="Times New Roman,serif" font-size="14.00">origin</text>
</a>
</g>
</g>
<!-- coords_79&#45;&gt;origin_80 -->
<g id="edge22" class="edge">
<title>coords_79&#45;&gt;origin_80</title>
<path fill="none" stroke="black" d="M292.59,-245.81C301.78,-250.22 312.02,-255.5 320.98,-261 338.03,-271.46 340.69,-276.4 356.98,-288 360.51,-290.51 364.25,-293.11 367.96,-295.66"/>
<polygon fill="black" stroke="black" points="366.24,-298.73 376.47,-301.46 370.17,-292.94 366.24,-298.73"/>
</g>
<!-- x_arrow_81 -->
<g id="node24" class="node">
<title>x_arrow_81</title>
<g id="a_node24"><a xlink:href="javascript:s=&quot;\(&quot;&#x27;centre&#x27;,\ &quot;,\ &#x27;coords&#x27;,\ &#x27;x_arrow&#x27;\)\nArrow&quot;; console.log(s); alert(s);" xlink:title="Arrow">
<ellipse fill="none" stroke="black" cx="397.93" cy="-261" rx="40.89" ry="18"/>
<text text-anchor="middle" x="397.93" y="-257.3" font-family="Times New Roman,serif" font-size="14.00">x_arrow</text>
</a>
</g>
</g>
<!-- coords_79&#45;&gt;x_arrow_81 -->
<g id="edge23" class="edge">
<title>coords_79&#45;&gt;x_arrow_81</title>
<path fill="none" stroke="black" d="M299.1,-240.81C314.53,-244 333.16,-247.84 350.02,-251.32"/>
<polygon fill="black" stroke="black" points="349.73,-254.83 360.23,-253.43 351.15,-247.98 349.73,-254.83"/>
</g>
<!-- y_arrow_84 -->
<g id="node27" class="node">
<title>y_arrow_84</title>
<g id="a_node27"><a xlink:href="javascript:s=&quot;\(&quot;&#x27;centre&#x27;,\ &quot;,\ &#x27;coords&#x27;,\ &#x27;y_arrow&#x27;\)\nArrow&quot;; console.log(s); alert(s);" xlink:title="Arrow">
<ellipse fill="none" stroke="black" cx="397.93" cy="-207" rx="40.89" ry="18"/>
<text text-anchor="middle" x="397.93" y="-203.3" font-family="Times New Roman,serif" font-size="14.00">y_arrow</text>
</a>
</g>
</g>
<!-- coords_79&#45;&gt;y_arrow_84 -->
<g id="edge26" class="edge">
<title>coords_79&#45;&gt;y_arrow_84</title>
<path fill="none" stroke="black" d="M299.1,-227.19C314.53,-224 333.16,-220.16 350.02,-216.68"/>
<polygon fill="black" stroke="black" points="351.15,-220.02 360.23,-214.57 349.73,-213.17 351.15,-220.02"/>
</g>
<!-- z_arrow_87 -->
<g id="node30" class="node">
<title>z_arrow_87</title>
<g id="a_node30"><a xlink:href="javascript:s=&quot;\(&quot;&#x27;centre&#x27;,\ &quot;,\ &#x27;coords&#x27;,\ &#x27;z_arrow&#x27;\)\nArrow&quot;; console.log(s); alert(s);" xlink:title="Arrow">
<ellipse fill="none" stroke="black" cx="397.93" cy="-99" rx="40.09" ry="18"/>
<text text-anchor="middle" x="397.93" y="-95.3" font-family="Times New Roman,serif" font-size="14.00">z_arrow</text>
</a>
</g>
</g>
<!-- coords_79&#45;&gt;z_arrow_87 -->
<g id="edge29" class="edge">
<title>coords_79&#45;&gt;z_arrow_87</title>
<path fill="none" stroke="black" d="M294.53,-223.31C303.58,-219.08 313.23,-213.63 320.98,-207 347.9,-183.98 369.98,-149.41 383.27,-125.62"/>
<polygon fill="black" stroke="black" points="386.38,-127.22 388.09,-116.76 380.23,-123.88 386.38,-127.22"/>
</g>
<!-- stem_82 -->
<g id="node25" class="node">
<title>stem_82</title>
<g id="a_node25"><a xlink:href="javascript:s=&quot;\(&quot;&#x27;centre&#x27;,\ &quot;,\ &#x27;coords&#x27;,\ &#x27;x_arrow&#x27;,\ &#x27;stem&#x27;\)\nCone&quot;; console.log(s); alert(s);" xlink:title="Cone">
<ellipse fill="none" stroke="black" cx="502.82" cy="-315" rx="27.9" ry="18"/>
<text text-anchor="middle" x="502.82" y="-311.3" font-family="Times New Roman,serif" font-size="14.00">stem</text>
</a>
</g>
</g>
<!-- x_arrow_81&#45;&gt;stem_82 -->
<g id="edge24" class="edge">
<title>x_arrow_81&#45;&gt;stem_82</title>
<path fill="none" stroke="black" d="M424.89,-274.63C439.06,-282.06 456.67,-291.3 471.46,-299.07"/>
<polygon fill="black" stroke="black" points="470.23,-302.37 480.71,-303.92 473.49,-296.18 470.23,-302.37"/>
</g>
<!-- head_83 -->
<g id="node26" class="node">
<title>head_83</title>
<g id="a_node26"><a xlink:href="javascript:s=&quot;\(&quot;&#x27;centre&#x27;,\ &quot;,\ &#x27;coords&#x27;,\ &#x27;x_arrow&#x27;,\ &#x27;head&#x27;\)\nCone&quot;; console.log(s); alert(s);" xlink:title="Cone">
<ellipse fill="none" stroke="black" cx="502.82" cy="-261" rx="27.9" ry="18"/>
<text text-anchor="middle" x="502.82" y="-257.3" font-family="Times New Roman,serif" font-size="14.00">head</text>
</a>
</g>
</g>
<!-- x_arrow_81&#45;&gt;head_83 -->
<g id="edge25" class="edge">
<title>x_arrow_81&#45;&gt;head_83</title>
<path fill="none" stroke="black" d="M439.01,-261C447.42,-261 456.25,-261 464.56,-261"/>
<polygon fill="black" stroke="black" points="464.72,-264.5 474.72,-261 464.72,-257.5 464.72,-264.5"/>
</g>
<!-- stem_85 -->
<g id="node28" class="node">
<title>stem_85</title>
<g id="a_node28"><a xlink:href="javascript:s=&quot;\(&quot;&#x27;centre&#x27;,\ &quot;,\ &#x27;coords&#x27;,\ &#x27;y_arrow&#x27;,\ &#x27;stem&#x27;\)\nCone&quot;; console.log(s); alert(s);" xlink:title="Cone">
<ellipse fill="none" stroke="black" cx="502.82" cy="-207" rx="27.9" ry="18"/>
<text text-anchor="middle" x="502.82" y="-203.3" font-family="Times New Roman,serif" font-size="14.00">stem</text>
</a>
</g>
</g>
<!-- y_arrow_84&#45;&gt;stem_85 -->
<g id="edge27" class="edge">
<title>y_arrow_84&#45;&gt;stem_85</title>
<path fill="none" stroke="black" d="M439.01,-207C447.42,-207 456.25,-207 464.56,-207"/>
<polygon fill="black" stroke="black" points="464.72,-210.5 474.72,-207 464.72,-203.5 464.72,-210.5"/>
</g>
<!-- head_86 -->
<g id="node29" class="node">
<title>head_86</title>
<g id="a_node29"><a xlink:href="javascript:s=&quot;\(&quot;&#x27;centre&#x27;,\ &quot;,\ &#x27;coords&#x27;,\ &#x27;y_arrow&#x27;,\ &#x27;head&#x27;\)\nCone&quot;; console.log(s); alert(s);" xlink:title="Cone">
<ellipse fill="none" stroke="black" cx="502.82" cy="-153" rx="27.9" ry="18"/>
<text text-anchor="middle" x="502.82" y="-149.3" font-family="Times New Roman,serif" font-size="14.00">head</text>
</a>
</g>
</g>
<!-- y_arrow_84&#45;&gt;head_86 -->
<g id="edge28" class="edge">
<title>y_arrow_84&#45;&gt;head_86</title>
<path fill="none" stroke="black" d="M424.89,-193.37C439.06,-185.94 456.67,-176.7 471.46,-168.93"/>
<polygon fill="black" stroke="black" points="473.49,-171.82 480.71,-164.08 470.23,-165.63 473.49,-171.82"/>
</g>
<!-- stem_88 -->
<g id="node31" class="node">
<title>stem_88</title>
<g id="a_node31"><a xlink:href="javascript:s=&quot;\(&quot;&#x27;centre&#x27;,\ &quot;,\ &#x27;coords&#x27;,\ &#x27;z_arrow&#x27;,\ &#x27;stem&#x27;\)\nCone&quot;; console.log(s); alert(s);" xlink:title="Cone">
<ellipse fill="none" stroke="black" cx="502.82" cy="-99" rx="27.9" ry="18"/>
<text text-anchor="middle" x="502.82" y="-95.3" font-family="Times New Roman,serif" font-size="14.00">stem</text>
</a>
</g>
</g>
<!-- z_arrow_87&#45;&gt;stem_88 -->
<g id="edge30" class="edge">
<title>z_arrow_87&#45;&gt;stem_88</title>
<path fill="none" stroke="black" d="M438.42,-99C447.04,-99 456.14,-99 464.66,-99"/>
<polygon fill="black" stroke="black" points="464.71,-102.5 474.71,-99 464.71,-95.5 464.71,-102.5"/>
</g>
<!-- head_89 -->
<g id="node32" class="node">
<title>head_89</title>
<g id="a_node32"><a xlink:href="javascript:s=&quot;\(&quot;&#x27;centre&#x27;,\ &quot;,\ &#x27;coords&#x27;,\ &#x27;z_arrow&#x27;,\ &#x27;head&#x27;\)\nCone&quot;; console.log(s); alert(s);" xlink:title="Cone">
<ellipse fill="none" stroke="black" cx="502.82" cy="-45" rx="27.9" ry="18"/>
<text text-anchor="middle" x="502.82" y="-41.3" font-family="Times New Roman,serif" font-size="14.00">head</text>
</a>
</g>
</g>
<!-- z_arrow_87&#45;&gt;head_89 -->
<g id="edge31" class="edge">
<title>z_arrow_87&#45;&gt;head_89</title>
<path fill="none" stroke="black" d="M424.63,-85.51C438.92,-78.01 456.79,-68.63 471.74,-60.79"/>
<polygon fill="black" stroke="black" points="473.38,-63.88 480.61,-56.14 470.12,-57.68 473.38,-63.88"/>
</g>
</g>
</svg>
