<?xml version="1.0" encoding="UTF-8" standalone="no"?>
<!DOCTYPE svg PUBLIC "-//W3C//DTD SVG 1.1//EN"
 "http://www.w3.org/Graphics/SVG/1.1/DTD/svg11.dtd">
<!-- Generated by graphviz version 5.0.0 (20220707.1540)
 -->
<!-- Title: default Pages: 1 -->
<svg width="316pt" height="1016pt"
 viewBox="0.00 0.00 315.98 1016.00" xmlns="http://www.w3.org/2000/svg" xmlns:xlink="http://www.w3.org/1999/xlink">
<g id="graph0" class="graph" transform="scale(1 1) rotate(0) translate(4 1012)">
<title>default</title>
<polygon fill="white" stroke="transparent" points="-4,4 -4,-1012 311.98,-1012 311.98,4 -4,4"/>
<!-- root_1 -->
<g id="node1" class="node">
<title>root_1</title>
<g id="a_node1"><a xlink:href="javascript:s=&quot;\(\)\nNone&quot;; console.log(s); alert(s);" xlink:title="root">
<ellipse fill="none" stroke="black" cx="27" cy="-504" rx="27" ry="18"/>
<text text-anchor="middle" x="27" y="-500.3" font-family="Times New Roman,serif" font-size="14.00">root</text>
</a>
</g>
</g>
<!-- default_2 -->
<g id="node2" class="node">
<title>default_2</title>
<g id="a_node2"><a xlink:href="javascript:s=&quot;\(&#x27;default&#x27;,\)\nCurlySpokes&quot;; console.log(s); alert(s);" xlink:title="CurlySpokes">
<ellipse fill="none" stroke="black" cx="125.1" cy="-504" rx="35.19" ry="18"/>
<text text-anchor="middle" x="125.1" y="-500.3" font-family="Times New Roman,serif" font-size="14.00">default</text>
</a>
</g>
</g>
<!-- root_1&#45;&gt;default_2 -->
<g id="edge1" class="edge">
<title>root_1&#45;&gt;default_2</title>
<path fill="none" stroke="black" d="M54.01,-504C61.92,-504 70.84,-504 79.61,-504"/>
<polygon fill="black" stroke="black" points="79.76,-507.5 89.76,-504 79.76,-500.5 79.76,-507.5"/>
</g>
<!-- cage_3 -->
<g id="node3" class="node">
<title>cage_3</title>
<g id="a_node3"><a xlink:href="javascript:s=&quot;\(&#x27;default&#x27;,\ &#x27;cage&#x27;\)\nCylinder&quot;; console.log(s); alert(s);" xlink:title="Cylinder">
<ellipse fill="none" stroke="black" cx="252.09" cy="-990" rx="27.1" ry="18"/>
<text text-anchor="middle" x="252.09" y="-986.3" font-family="Times New Roman,serif" font-size="14.00">cage</text>
</a>
</g>
</g>
<!-- default_2&#45;&gt;cage_3 -->
<g id="edge2" class="edge">
<title>default_2&#45;&gt;cage_3</title>
<path fill="none" stroke="black" d="M126.67,-522.06C129.4,-598 143.23,-890.76 196.19,-963 201.43,-970.14 209.08,-975.5 217.01,-979.47"/>
<polygon fill="black" stroke="black" points="215.76,-982.74 226.33,-983.52 218.56,-976.32 215.76,-982.74"/>
</g>
<!-- core_4 -->
<g id="node4" class="node">
<title>core_4</title>
<g id="a_node4"><a xlink:href="javascript:s=&quot;\(&#x27;default&#x27;,\ &#x27;core&#x27;\)\nCylinder&quot;; console.log(s); alert(s);" xlink:title="Cylinder">
<ellipse fill="none" stroke="black" cx="252.09" cy="-936" rx="27" ry="18"/>
<text text-anchor="middle" x="252.09" y="-932.3" font-family="Times New Roman,serif" font-size="14.00">core</text>
</a>
</g>
</g>
<!-- default_2&#45;&gt;core_4 -->
<g id="edge3" class="edge">
<title>default_2&#45;&gt;core_4</title>
<path fill="none" stroke="black" d="M127.08,-522.05C131.2,-592.22 149.16,-846.16 196.19,-909 201.55,-916.15 209.31,-921.52 217.31,-925.5"/>
<polygon fill="black" stroke="black" points="216.13,-928.8 226.7,-929.56 218.91,-922.38 216.13,-928.8"/>
</g>
<!-- spoke_5 -->
<g id="node5" class="node">
<title>spoke_5</title>
<g id="a_node5"><a xlink:href="javascript:s=&quot;\(&#x27;default&#x27;,\ \(&#x27;spoke&#x27;,\ 0\)\)\nLinearExtrude&quot;; console.log(s); alert(s);" xlink:title="LinearExtrude">
<ellipse fill="none" stroke="black" cx="252.09" cy="-882" rx="51.99" ry="18"/>
<text text-anchor="middle" x="252.09" y="-878.3" font-family="Times New Roman,serif" font-size="14.00">(&#39;spoke&#39;, 0)</text>
</a>
</g>
</g>
<!-- default_2&#45;&gt;spoke_5 -->
<g id="edge4" class="edge">
<title>default_2&#45;&gt;spoke_5</title>
<path fill="none" stroke="black" d="M127.62,-522.23C133.31,-586.51 155.1,-801.55 196.19,-855 198.82,-858.41 201.98,-861.42 205.45,-864.06"/>
<polygon fill="black" stroke="black" points="203.71,-867.1 214,-869.6 207.51,-861.23 203.71,-867.1"/>
</g>
<!-- spoke_6 -->
<g id="node6" class="node">
<title>spoke_6</title>
<g id="a_node6"><a xlink:href="javascript:s=&quot;\(&#x27;default&#x27;,\ \(&#x27;spoke&#x27;,\ 1\)\)\nLinearExtrude&quot;; console.log(s); alert(s);" xlink:title="LinearExtrude">
<ellipse fill="none" stroke="black" cx="252.09" cy="-828" rx="51.99" ry="18"/>
<text text-anchor="middle" x="252.09" y="-824.3" font-family="Times New Roman,serif" font-size="14.00">(&#39;spoke&#39;, 1)</text>
</a>
</g>
</g>
<!-- default_2&#45;&gt;spoke_6 -->
<g id="edge5" class="edge">
<title>default_2&#45;&gt;spoke_6</title>
<path fill="none" stroke="black" d="M125.32,-522.32C124.17,-572.61 127.53,-714.81 196.19,-801 198.87,-804.36 202.08,-807.34 205.58,-809.97"/>
<polygon fill="black" stroke="black" points="203.86,-813.02 214.16,-815.48 207.64,-807.13 203.86,-813.02"/>
</g>
<!-- spoke_7 -->
<g id="node7" class="node">
<title>spoke_7</title>
<g id="a_node7"><a xlink:href="javascript:s=&quot;\(&#x27;default&#x27;,\ \(&#x27;spoke&#x27;,\ 2\)\)\nLinearExtrude&quot;; console.log(s); alert(s);" xlink:title="LinearExtrude">
<ellipse fill="none" stroke="black" cx="252.09" cy="-774" rx="51.99" ry="18"/>
<text text-anchor="middle" x="252.09" y="-770.3" font-family="Times New Roman,serif" font-size="14.00">(&#39;spoke&#39;, 2)</text>
</a>
</g>
</g>
<!-- default_2&#45;&gt;spoke_7 -->
<g id="edge6" class="edge">
<title>default_2&#45;&gt;spoke_7</title>
<path fill="none" stroke="black" d="M126.51,-522.15C128.42,-565.91 138.96,-678.67 196.19,-747 198.99,-750.34 202.31,-753.31 205.9,-755.93"/>
<polygon fill="black" stroke="black" points="204.34,-759.09 214.67,-761.45 208.07,-753.16 204.34,-759.09"/>
</g>
<!-- spoke_8 -->
<g id="node8" class="node">
<title>spoke_8</title>
<g id="a_node8"><a xlink:href="javascript:s=&quot;\(&#x27;default&#x27;,\ \(&#x27;spoke&#x27;,\ 3\)\)\nLinearExtrude&quot;; console.log(s); alert(s);" xlink:title="LinearExtrude">
<ellipse fill="none" stroke="black" cx="252.09" cy="-720" rx="51.99" ry="18"/>
<text text-anchor="middle" x="252.09" y="-716.3" font-family="Times New Roman,serif" font-size="14.00">(&#39;spoke&#39;, 3)</text>
</a>
</g>
</g>
<!-- default_2&#45;&gt;spoke_8 -->
<g id="edge7" class="edge">
<title>default_2&#45;&gt;spoke_8</title>
<path fill="none" stroke="black" d="M128.31,-522.17C133.64,-558.77 150.34,-642.22 196.19,-693 199.2,-696.33 202.7,-699.29 206.46,-701.92"/>
<polygon fill="black" stroke="black" points="204.65,-704.91 215,-707.16 208.31,-698.95 204.65,-704.91"/>
</g>
<!-- spoke_9 -->
<g id="node9" class="node">
<title>spoke_9</title>
<g id="a_node9"><a xlink:href="javascript:s=&quot;\(&#x27;default&#x27;,\ \(&#x27;spoke&#x27;,\ 4\)\)\nLinearExtrude&quot;; console.log(s); alert(s);" xlink:title="LinearExtrude">
<ellipse fill="none" stroke="black" cx="252.09" cy="-666" rx="51.99" ry="18"/>
<text text-anchor="middle" x="252.09" y="-662.3" font-family="Times New Roman,serif" font-size="14.00">(&#39;spoke&#39;, 4)</text>
</a>
</g>
</g>
<!-- default_2&#45;&gt;spoke_9 -->
<g id="edge8" class="edge">
<title>default_2&#45;&gt;spoke_9</title>
<path fill="none" stroke="black" d="M131.37,-521.97C140.44,-550.14 161.46,-605.02 196.19,-639 199.49,-642.22 203.24,-645.12 207.2,-647.73"/>
<polygon fill="black" stroke="black" points="205.71,-650.91 216.11,-652.95 209.25,-644.87 205.71,-650.91"/>
</g>
<!-- spoke_10 -->
<g id="node10" class="node">
<title>spoke_10</title>
<g id="a_node10"><a xlink:href="javascript:s=&quot;\(&#x27;default&#x27;,\ \(&#x27;spoke&#x27;,\ 5\)\)\nLinearExtrude&quot;; console.log(s); alert(s);" xlink:title="LinearExtrude">
<ellipse fill="none" stroke="black" cx="252.09" cy="-612" rx="51.99" ry="18"/>
<text text-anchor="middle" x="252.09" y="-608.3" font-family="Times New Roman,serif" font-size="14.00">(&#39;spoke&#39;, 5)</text>
</a>
</g>
</g>
<!-- default_2&#45;&gt;spoke_10 -->
<g id="edge9" class="edge">
<title>default_2&#45;&gt;spoke_10</title>
<path fill="none" stroke="black" d="M137.63,-520.97C150.34,-538.71 172.2,-566.48 196.19,-585 200.09,-588.01 204.37,-590.81 208.77,-593.38"/>
<polygon fill="black" stroke="black" points="207.43,-596.63 217.89,-598.33 210.77,-590.48 207.43,-596.63"/>
</g>
<!-- spoke_11 -->
<g id="node11" class="node">
<title>spoke_11</title>
<g id="a_node11"><a xlink:href="javascript:s=&quot;\(&#x27;default&#x27;,\ \(&#x27;spoke&#x27;,\ 6\)\)\nLinearExtrude&quot;; console.log(s); alert(s);" xlink:title="LinearExtrude">
<ellipse fill="none" stroke="black" cx="252.09" cy="-558" rx="51.99" ry="18"/>
<text text-anchor="middle" x="252.09" y="-554.3" font-family="Times New Roman,serif" font-size="14.00">(&#39;spoke&#39;, 6)</text>
</a>
</g>
</g>
<!-- default_2&#45;&gt;spoke_11 -->
<g id="edge10" class="edge">
<title>default_2&#45;&gt;spoke_11</title>
<path fill="none" stroke="black" d="M152.6,-515.45C169.16,-522.6 190.82,-531.96 209.61,-540.08"/>
<polygon fill="black" stroke="black" points="208.28,-543.32 218.85,-544.07 211.06,-536.89 208.28,-543.32"/>
</g>
<!-- spoke_12 -->
<g id="node12" class="node">
<title>spoke_12</title>
<g id="a_node12"><a xlink:href="javascript:s=&quot;\(&#x27;default&#x27;,\ \(&#x27;spoke&#x27;,\ 7\)\)\nLinearExtrude&quot;; console.log(s); alert(s);" xlink:title="LinearExtrude">
<ellipse fill="none" stroke="black" cx="252.09" cy="-504" rx="51.99" ry="18"/>
<text text-anchor="middle" x="252.09" y="-500.3" font-family="Times New Roman,serif" font-size="14.00">(&#39;spoke&#39;, 7)</text>
</a>
</g>
</g>
<!-- default_2&#45;&gt;spoke_12 -->
<g id="edge11" class="edge">
<title>default_2&#45;&gt;spoke_12</title>
<path fill="none" stroke="black" d="M160.25,-504C169.47,-504 179.73,-504 189.94,-504"/>
<polygon fill="black" stroke="black" points="190.09,-507.5 200.09,-504 190.09,-500.5 190.09,-507.5"/>
</g>
<!-- spoke_13 -->
<g id="node13" class="node">
<title>spoke_13</title>
<g id="a_node13"><a xlink:href="javascript:s=&quot;\(&#x27;default&#x27;,\ \(&#x27;spoke&#x27;,\ 8\)\)\nLinearExtrude&quot;; console.log(s); alert(s);" xlink:title="LinearExtrude">
<ellipse fill="none" stroke="black" cx="252.09" cy="-450" rx="51.99" ry="18"/>
<text text-anchor="middle" x="252.09" y="-446.3" font-family="Times New Roman,serif" font-size="14.00">(&#39;spoke&#39;, 8)</text>
</a>
</g>
</g>
<!-- default_2&#45;&gt;spoke_13 -->
<g id="edge12" class="edge">
<title>default_2&#45;&gt;spoke_13</title>
<path fill="none" stroke="black" d="M152.6,-492.55C169.16,-485.4 190.82,-476.04 209.61,-467.92"/>
<polygon fill="black" stroke="black" points="211.06,-471.11 218.85,-463.93 208.28,-464.68 211.06,-471.11"/>
</g>
<!-- spoke_14 -->
<g id="node14" class="node">
<title>spoke_14</title>
<g id="a_node14"><a xlink:href="javascript:s=&quot;\(&#x27;default&#x27;,\ \(&#x27;spoke&#x27;,\ 9\)\)\nLinearExtrude&quot;; console.log(s); alert(s);" xlink:title="LinearExtrude">
<ellipse fill="none" stroke="black" cx="252.09" cy="-396" rx="51.99" ry="18"/>
<text text-anchor="middle" x="252.09" y="-392.3" font-family="Times New Roman,serif" font-size="14.00">(&#39;spoke&#39;, 9)</text>
</a>
</g>
</g>
<!-- default_2&#45;&gt;spoke_14 -->
<g id="edge13" class="edge">
<title>default_2&#45;&gt;spoke_14</title>
<path fill="none" stroke="black" d="M137.63,-487.03C150.34,-469.29 172.2,-441.52 196.19,-423 200.09,-419.99 204.37,-417.19 208.77,-414.62"/>
<polygon fill="black" stroke="black" points="210.77,-417.52 217.89,-409.67 207.43,-411.37 210.77,-417.52"/>
</g>
<!-- spoke_15 -->
<g id="node15" class="node">
<title>spoke_15</title>
<g id="a_node15"><a xlink:href="javascript:s=&quot;\(&#x27;default&#x27;,\ \(&#x27;spoke&#x27;,\ 10\)\)\nLinearExtrude&quot;; console.log(s); alert(s);" xlink:title="LinearExtrude">
<ellipse fill="none" stroke="black" cx="252.09" cy="-342" rx="55.79" ry="18"/>
<text text-anchor="middle" x="252.09" y="-338.3" font-family="Times New Roman,serif" font-size="14.00">(&#39;spoke&#39;, 10)</text>
</a>
</g>
</g>
<!-- default_2&#45;&gt;spoke_15 -->
<g id="edge14" class="edge">
<title>default_2&#45;&gt;spoke_15</title>
<path fill="none" stroke="black" d="M131.37,-486.03C140.44,-457.86 161.46,-402.98 196.19,-369 199.23,-366.03 202.65,-363.34 206.26,-360.89"/>
<polygon fill="black" stroke="black" points="208.2,-363.81 214.96,-355.66 204.59,-357.82 208.2,-363.81"/>
</g>
<!-- spoke_16 -->
<g id="node16" class="node">
<title>spoke_16</title>
<g id="a_node16"><a xlink:href="javascript:s=&quot;\(&#x27;default&#x27;,\ \(&#x27;spoke&#x27;,\ 11\)\)\nLinearExtrude&quot;; console.log(s); alert(s);" xlink:title="LinearExtrude">
<ellipse fill="none" stroke="black" cx="252.09" cy="-288" rx="55.79" ry="18"/>
<text text-anchor="middle" x="252.09" y="-284.3" font-family="Times New Roman,serif" font-size="14.00">(&#39;spoke&#39;, 11)</text>
</a>
</g>
</g>
<!-- default_2&#45;&gt;spoke_16 -->
<g id="edge15" class="edge">
<title>default_2&#45;&gt;spoke_16</title>
<path fill="none" stroke="black" d="M128.31,-485.83C133.64,-449.23 150.34,-365.78 196.19,-315 198.92,-311.98 202.06,-309.26 205.42,-306.82"/>
<polygon fill="black" stroke="black" points="207.57,-309.61 214.15,-301.31 203.83,-303.69 207.57,-309.61"/>
</g>
<!-- spoke_17 -->
<g id="node17" class="node">
<title>spoke_17</title>
<g id="a_node17"><a xlink:href="javascript:s=&quot;\(&#x27;default&#x27;,\ \(&#x27;spoke&#x27;,\ 12\)\)\nLinearExtrude&quot;; console.log(s); alert(s);" xlink:title="LinearExtrude">
<ellipse fill="none" stroke="black" cx="252.09" cy="-234" rx="55.79" ry="18"/>
<text text-anchor="middle" x="252.09" y="-230.3" font-family="Times New Roman,serif" font-size="14.00">(&#39;spoke&#39;, 12)</text>
</a>
</g>
</g>
<!-- default_2&#45;&gt;spoke_17 -->
<g id="edge16" class="edge">
<title>default_2&#45;&gt;spoke_17</title>
<path fill="none" stroke="black" d="M126.51,-485.85C128.42,-442.09 138.96,-329.33 196.19,-261 198.77,-257.93 201.77,-255.17 205.03,-252.71"/>
<polygon fill="black" stroke="black" points="207.07,-255.57 213.54,-247.18 203.25,-249.7 207.07,-255.57"/>
</g>
<!-- spoke_18 -->
<g id="node18" class="node">
<title>spoke_18</title>
<g id="a_node18"><a xlink:href="javascript:s=&quot;\(&#x27;default&#x27;,\ \(&#x27;spoke&#x27;,\ 13\)\)\nLinearExtrude&quot;; console.log(s); alert(s);" xlink:title="LinearExtrude">
<ellipse fill="none" stroke="black" cx="252.09" cy="-180" rx="55.79" ry="18"/>
<text text-anchor="middle" x="252.09" y="-176.3" font-family="Times New Roman,serif" font-size="14.00">(&#39;spoke&#39;, 13)</text>
</a>
</g>
</g>
<!-- default_2&#45;&gt;spoke_18 -->
<g id="edge17" class="edge">
<title>default_2&#45;&gt;spoke_18</title>
<path fill="none" stroke="black" d="M125.32,-485.68C124.17,-435.39 127.53,-293.19 196.19,-207 198.69,-203.87 201.64,-201.07 204.87,-198.58"/>
<polygon fill="black" stroke="black" points="206.9,-201.43 213.32,-193 203.04,-195.59 206.9,-201.43"/>
</g>
<!-- spoke_19 -->
<g id="node19" class="node">
<title>spoke_19</title>
<g id="a_node19"><a xlink:href="javascript:s=&quot;\(&#x27;default&#x27;,\ \(&#x27;spoke&#x27;,\ 14\)\)\nLinearExtrude&quot;; console.log(s); alert(s);" xlink:title="LinearExtrude">
<ellipse fill="none" stroke="black" cx="252.09" cy="-126" rx="55.79" ry="18"/>
<text text-anchor="middle" x="252.09" y="-122.3" font-family="Times New Roman,serif" font-size="14.00">(&#39;spoke&#39;, 14)</text>
</a>
</g>
</g>
<!-- default_2&#45;&gt;spoke_19 -->
<g id="edge18" class="edge">
<title>default_2&#45;&gt;spoke_19</title>
<path fill="none" stroke="black" d="M127.62,-485.77C133.31,-421.49 155.1,-206.45 196.19,-153 198.53,-149.96 201.3,-147.24 204.34,-144.81"/>
<polygon fill="black" stroke="black" points="206.55,-147.53 212.88,-139.03 202.63,-141.74 206.55,-147.53"/>
</g>
<!-- spoke_20 -->
<g id="node20" class="node">
<title>spoke_20</title>
<g id="a_node20"><a xlink:href="javascript:s=&quot;\(&#x27;default&#x27;,\ \(&#x27;spoke&#x27;,\ 15\)\)\nLinearExtrude&quot;; console.log(s); alert(s);" xlink:title="LinearExtrude">
<ellipse fill="none" stroke="black" cx="252.09" cy="-72" rx="55.79" ry="18"/>
<text text-anchor="middle" x="252.09" y="-68.3" font-family="Times New Roman,serif" font-size="14.00">(&#39;spoke&#39;, 15)</text>
</a>
</g>
</g>
<!-- default_2&#45;&gt;spoke_20 -->
<g id="edge19" class="edge">
<title>default_2&#45;&gt;spoke_20</title>
<path fill="none" stroke="black" d="M127.08,-485.95C131.2,-415.78 149.16,-161.84 196.19,-99 198.49,-95.93 201.24,-93.19 204.25,-90.74"/>
<polygon fill="black" stroke="black" points="206.47,-93.47 212.76,-84.94 202.52,-87.68 206.47,-93.47"/>
</g>
<!-- inner_core_21 -->
<g id="node21" class="node">
<title>inner_core_21</title>
<g id="a_node21"><a xlink:href="javascript:s=&quot;\(&#x27;default&#x27;,\ &#x27;inner_core&#x27;\)\nCylinder&quot;; console.log(s); alert(s);" xlink:title="Cylinder">
<ellipse fill="none" stroke="black" cx="252.09" cy="-18" rx="49.29" ry="18"/>
<text text-anchor="middle" x="252.09" y="-14.3" font-family="Times New Roman,serif" font-size="14.00">inner_core</text>
</a>
</g>
</g>
<!-- default_2&#45;&gt;inner_core_21 -->
<g id="edge20" class="edge">
<title>default_2&#45;&gt;inner_core_21</title>
<path fill="none" stroke="black" d="M126.67,-485.94C129.4,-410 143.23,-117.24 196.19,-45 198.92,-41.29 202.29,-38.06 206.02,-35.25"/>
<polygon fill="black" stroke="black" points="208.07,-38.09 214.63,-29.77 204.32,-32.19 208.07,-38.09"/>
</g>
</g>
</svg>
