<?xml version="1.0" encoding="UTF-8" standalone="no"?>
<!DOCTYPE svg PUBLIC "-//W3C//DTD SVG 1.1//EN"
 "http://www.w3.org/Graphics/SVG/1.1/DTD/svg11.dtd">
<!-- Generated by graphviz version 5.0.0 (20220707.1540)
 -->
<!-- Title: example2 Pages: 1 -->
<svg width="372pt" height="98pt"
 viewBox="0.00 0.00 372.19 98.00" xmlns="http://www.w3.org/2000/svg" xmlns:xlink="http://www.w3.org/1999/xlink">
<g id="graph0" class="graph" transform="scale(1 1) rotate(0) translate(4 94)">
<title>example2</title>
<polygon fill="white" stroke="transparent" points="-4,4 -4,-94 368.19,-94 368.19,4 -4,4"/>
<!-- root_6 -->
<g id="node1" class="node">
<title>root_6</title>
<g id="a_node1"><a xlink:href="javascript:s=&quot;\(\)\nNone&quot;; console.log(s); alert(s);" xlink:title="root">
<ellipse fill="none" stroke="black" cx="27" cy="-45" rx="27" ry="18"/>
<text text-anchor="middle" x="27" y="-41.3" font-family="Times New Roman,serif" font-size="14.00">root</text>
</a>
</g>
</g>
<!-- example2_7 -->
<g id="node2" class="node">
<title>example2_7</title>
<g id="a_node2"><a xlink:href="javascript:s=&quot;\(&#x27;example2&#x27;,\)\nCircularBelt&quot;; console.log(s); alert(s);" xlink:title="CircularBelt">
<ellipse fill="none" stroke="black" cx="134.85" cy="-45" rx="44.69" ry="18"/>
<text text-anchor="middle" x="134.85" y="-41.3" font-family="Times New Roman,serif" font-size="14.00">example2</text>
</a>
</g>
</g>
<!-- root_6&#45;&gt;example2_7 -->
<g id="edge1" class="edge">
<title>root_6&#45;&gt;example2_7</title>
<path fill="none" stroke="black" d="M54.16,-45C61.99,-45 70.88,-45 79.81,-45"/>
<polygon fill="black" stroke="black" points="79.86,-48.5 89.86,-45 79.86,-41.5 79.86,-48.5"/>
</g>
<!-- belt_8 -->
<g id="node3" class="node">
<title>belt_8</title>
<g id="a_node3"><a xlink:href="javascript:s=&quot;\(&#x27;example2&#x27;,\ &#x27;belt&#x27;\)\nTorus&quot;; console.log(s); alert(s);" xlink:title="Torus">
<ellipse fill="none" stroke="black" cx="242.69" cy="-45" rx="27" ry="18"/>
<text text-anchor="middle" x="242.69" y="-41.3" font-family="Times New Roman,serif" font-size="14.00">belt</text>
</a>
</g>
</g>
<!-- example2_7&#45;&gt;belt_8 -->
<g id="edge2" class="edge">
<title>example2_7&#45;&gt;belt_8</title>
<path fill="none" stroke="black" d="M179.81,-45C188.36,-45 197.23,-45 205.49,-45"/>
<polygon fill="black" stroke="black" points="205.56,-48.5 215.56,-45 205.56,-41.5 205.56,-48.5"/>
</g>
<!-- torus_9 -->
<g id="node4" class="node">
<title>torus_9</title>
<g id="a_node4"><a xlink:href="javascript:s=&quot;\(&#x27;example2&#x27;,\ &#x27;belt&#x27;,\ &#x27;torus&#x27;\)\nRotateExtrude&quot;; console.log(s); alert(s);" xlink:title="RotateExtrude">
<ellipse fill="none" stroke="black" cx="334.94" cy="-72" rx="29.5" ry="18"/>
<text text-anchor="middle" x="334.94" y="-68.3" font-family="Times New Roman,serif" font-size="14.00">torus</text>
</a>
</g>
</g>
<!-- belt_8&#45;&gt;torus_9 -->
<g id="edge3" class="edge">
<title>belt_8&#45;&gt;torus_9</title>
<path fill="none" stroke="black" d="M267.88,-52.24C277.37,-55.08 288.46,-58.39 298.81,-61.49"/>
<polygon fill="black" stroke="black" points="297.84,-64.85 308.42,-64.37 299.85,-58.15 297.84,-64.85"/>
</g>
<!-- cage_10 -->
<g id="node5" class="node">
<title>cage_10</title>
<g id="a_node5"><a xlink:href="javascript:s=&quot;\(&#x27;example2&#x27;,\ &#x27;belt&#x27;,\ &#x27;cage&#x27;\)\nRotateExtrude&quot;; console.log(s); alert(s);" xlink:title="RotateExtrude">
<ellipse fill="none" stroke="black" cx="334.94" cy="-18" rx="27.1" ry="18"/>
<text text-anchor="middle" x="334.94" y="-14.3" font-family="Times New Roman,serif" font-size="14.00">cage</text>
</a>
</g>
</g>
<!-- belt_8&#45;&gt;cage_10 -->
<g id="edge4" class="edge">
<title>belt_8&#45;&gt;cage_10</title>
<path fill="none" stroke="black" d="M267.88,-37.76C277.69,-34.83 289.2,-31.39 299.84,-28.2"/>
<polygon fill="black" stroke="black" points="301.11,-31.47 309.69,-25.26 299.1,-24.77 301.11,-31.47"/>
</g>
</g>
</svg>
