<?xml version="1.0" encoding="UTF-8" standalone="no"?>
<!DOCTYPE svg PUBLIC "-//W3C//DTD SVG 1.1//EN"
 "http://www.w3.org/Graphics/SVG/1.1/DTD/svg11.dtd">
<!-- Generated by graphviz version 5.0.0 (20220707.1540)
 -->
<!-- Title: default Pages: 1 -->
<svg width="353pt" height="98pt"
 viewBox="0.00 0.00 352.69 98.00" xmlns="http://www.w3.org/2000/svg" xmlns:xlink="http://www.w3.org/1999/xlink">
<g id="graph0" class="graph" transform="scale(1 1) rotate(0) translate(4 94)">
<title>default</title>
<polygon fill="white" stroke="transparent" points="-4,4 -4,-94 348.69,-94 348.69,4 -4,4"/>
<!-- root_1 -->
<g id="node1" class="node">
<title>root_1</title>
<g id="a_node1"><a xlink:href="javascript:s=&quot;\(\)\nNone&quot;; console.log(s); alert(s);" xlink:title="root">
<ellipse fill="none" stroke="black" cx="27" cy="-45" rx="27" ry="18"/>
<text text-anchor="middle" x="27" y="-41.3" font-family="Times New Roman,serif" font-size="14.00">root</text>
</a>
</g>
</g>
<!-- default_2 -->
<g id="node2" class="node">
<title>default_2</title>
<g id="a_node2"><a xlink:href="javascript:s=&quot;\(&#x27;default&#x27;,\)\nCircularBelt&quot;; console.log(s); alert(s);" xlink:title="CircularBelt">
<ellipse fill="none" stroke="black" cx="125.1" cy="-45" rx="35.19" ry="18"/>
<text text-anchor="middle" x="125.1" y="-41.3" font-family="Times New Roman,serif" font-size="14.00">default</text>
</a>
</g>
</g>
<!-- root_1&#45;&gt;default_2 -->
<g id="edge1" class="edge">
<title>root_1&#45;&gt;default_2</title>
<path fill="none" stroke="black" d="M54.01,-45C61.92,-45 70.84,-45 79.61,-45"/>
<polygon fill="black" stroke="black" points="79.76,-48.5 89.76,-45 79.76,-41.5 79.76,-48.5"/>
</g>
<!-- belt_3 -->
<g id="node3" class="node">
<title>belt_3</title>
<g id="a_node3"><a xlink:href="javascript:s=&quot;\(&#x27;default&#x27;,\ &#x27;belt&#x27;\)\nTorus&quot;; console.log(s); alert(s);" xlink:title="Torus">
<ellipse fill="none" stroke="black" cx="223.19" cy="-45" rx="27" ry="18"/>
<text text-anchor="middle" x="223.19" y="-41.3" font-family="Times New Roman,serif" font-size="14.00">belt</text>
</a>
</g>
</g>
<!-- default_2&#45;&gt;belt_3 -->
<g id="edge2" class="edge">
<title>default_2&#45;&gt;belt_3</title>
<path fill="none" stroke="black" d="M160.25,-45C168.52,-45 177.39,-45 185.76,-45"/>
<polygon fill="black" stroke="black" points="186.01,-48.5 196.01,-45 186.01,-41.5 186.01,-48.5"/>
</g>
<!-- torus_4 -->
<g id="node4" class="node">
<title>torus_4</title>
<g id="a_node4"><a xlink:href="javascript:s=&quot;\(&#x27;default&#x27;,\ &#x27;belt&#x27;,\ &#x27;torus&#x27;\)\nRotateExtrude&quot;; console.log(s); alert(s);" xlink:title="RotateExtrude">
<ellipse fill="none" stroke="black" cx="315.44" cy="-72" rx="29.5" ry="18"/>
<text text-anchor="middle" x="315.44" y="-68.3" font-family="Times New Roman,serif" font-size="14.00">torus</text>
</a>
</g>
</g>
<!-- belt_3&#45;&gt;torus_4 -->
<g id="edge3" class="edge">
<title>belt_3&#45;&gt;torus_4</title>
<path fill="none" stroke="black" d="M248.38,-52.24C257.87,-55.08 268.96,-58.39 279.31,-61.49"/>
<polygon fill="black" stroke="black" points="278.34,-64.85 288.93,-64.37 280.35,-58.15 278.34,-64.85"/>
</g>
<!-- cage_5 -->
<g id="node5" class="node">
<title>cage_5</title>
<g id="a_node5"><a xlink:href="javascript:s=&quot;\(&#x27;default&#x27;,\ &#x27;belt&#x27;,\ &#x27;cage&#x27;\)\nRotateExtrude&quot;; console.log(s); alert(s);" xlink:title="RotateExtrude">
<ellipse fill="none" stroke="black" cx="315.44" cy="-18" rx="27.1" ry="18"/>
<text text-anchor="middle" x="315.44" y="-14.3" font-family="Times New Roman,serif" font-size="14.00">cage</text>
</a>
</g>
</g>
<!-- belt_3&#45;&gt;cage_5 -->
<g id="edge4" class="edge">
<title>belt_3&#45;&gt;cage_5</title>
<path fill="none" stroke="black" d="M248.38,-37.76C258.19,-34.83 269.7,-31.39 280.34,-28.2"/>
<polygon fill="black" stroke="black" points="281.61,-31.47 290.19,-25.26 279.61,-24.77 281.61,-31.47"/>
</g>
</g>
</svg>
