<?xml version="1.0" encoding="UTF-8" standalone="no"?>
<!DOCTYPE svg PUBLIC "-//W3C//DTD SVG 1.1//EN"
 "http://www.w3.org/Graphics/SVG/1.1/DTD/svg11.dtd">
<!-- Generated by graphviz version 5.0.0 (20220707.1540)
 -->
<!-- Title: default Pages: 1 -->
<svg width="258pt" height="44pt"
 viewBox="0.00 0.00 258.19 44.00" xmlns="http://www.w3.org/2000/svg" xmlns:xlink="http://www.w3.org/1999/xlink">
<g id="graph0" class="graph" transform="scale(1 1) rotate(0) translate(4 40)">
<title>default</title>
<polygon fill="white" stroke="transparent" points="-4,4 -4,-40 254.19,-40 254.19,4 -4,4"/>
<!-- root_1 -->
<g id="node1" class="node">
<title>root_1</title>
<g id="a_node1"><a xlink:href="javascript:s=&quot;\(\)\nNone&quot;; console.log(s); alert(s);" xlink:title="root">
<ellipse fill="none" stroke="black" cx="27" cy="-18" rx="27" ry="18"/>
<text text-anchor="middle" x="27" y="-14.3" font-family="Times New Roman,serif" font-size="14.00">root</text>
</a>
</g>
</g>
<!-- default_2 -->
<g id="node2" class="node">
<title>default_2</title>
<g id="a_node2"><a xlink:href="javascript:s=&quot;\(&#x27;default&#x27;,\)\nBevelProfileShapeTest&quot;; console.log(s); alert(s);" xlink:title="BevelProfileShapeTest">
<ellipse fill="none" stroke="black" cx="125.1" cy="-18" rx="35.19" ry="18"/>
<text text-anchor="middle" x="125.1" y="-14.3" font-family="Times New Roman,serif" font-size="14.00">default</text>
</a>
</g>
</g>
<!-- root_1&#45;&gt;default_2 -->
<g id="edge1" class="edge">
<title>root_1&#45;&gt;default_2</title>
<path fill="none" stroke="black" d="M54.01,-18C61.92,-18 70.84,-18 79.61,-18"/>
<polygon fill="black" stroke="black" points="79.76,-21.5 89.76,-18 79.76,-14.5 79.76,-21.5"/>
</g>
<!-- test_3 -->
<g id="node3" class="node">
<title>test_3</title>
<g id="a_node3"><a xlink:href="javascript:s=&quot;\(&#x27;default&#x27;,\ &#x27;test&#x27;\)\nLinearExtrude&quot;; console.log(s); alert(s);" xlink:title="LinearExtrude">
<ellipse fill="none" stroke="black" cx="223.19" cy="-18" rx="27" ry="18"/>
<text text-anchor="middle" x="223.19" y="-14.3" font-family="Times New Roman,serif" font-size="14.00">test</text>
</a>
</g>
</g>
<!-- default_2&#45;&gt;test_3 -->
<g id="edge2" class="edge">
<title>default_2&#45;&gt;test_3</title>
<path fill="none" stroke="black" d="M160.25,-18C168.52,-18 177.39,-18 185.76,-18"/>
<polygon fill="black" stroke="black" points="186.01,-21.5 196.01,-18 186.01,-14.5 186.01,-21.5"/>
</g>
</g>
</svg>
