solid OpenSCAD_Model
  facet normal 1 0 0
    outer loop
      vertex 0 90 0
      vertex 0 20 25
      vertex 0 20 0
    endloop
  endfacet
  facet normal 1 0 0
    outer loop
      vertex 0 90 0
      vertex 0 90 25
      vertex 0 20 25
    endloop
  endfacet
  facet normal 0.996917333565691 0.07845909785533142 0
    outer loop
      vertex -0.12311659753322601 91.56434465199709 0
      vertex 0 90 25
      vertex 0 90 0
    endloop
  endfacet
  facet normal 0.996917333565691 0.07845909785533142 0
    outer loop
      vertex -0.12311659753322601 91.56434465199709 0
      vertex -0.12311659753322601 91.56434465199709 25
      vertex 0 90 25
    endloop
  endfacet
  facet normal 0.9723699206702034 0.23344536272074937 0
    outer loop
      vertex -0.4894348382949829 93.09016994386911 0
      vertex -0.12311659753322601 91.56434465199709 25
      vertex -0.12311659753322601 91.56434465199709 0
    endloop
  endfacet
  facet normal 0.9723699206702034 0.23344536272074937 0
    outer loop
      vertex -0.4894348382949829 93.09016994386911 0
      vertex -0.4894348382949829 93.09016994386911 25
      vertex -0.12311659753322601 91.56434465199709 25
    endloop
  endfacet
  facet normal 0.9238795325574901 0.382683432253545 0
    outer loop
      vertex -1.0899347588419914 94.53990499675274 0
      vertex -0.4894348382949829 93.09016994386911 25
      vertex -0.4894348382949829 93.09016994386911 0
    endloop
  endfacet
  facet normal 0.9238795325574901 0.382683432253545 0
    outer loop
      vertex -1.0899347588419914 94.53990499675274 0
      vertex -1.0899347588419914 94.53990499675274 25
      vertex -0.4894348382949829 93.09016994386911 25
    endloop
  endfacet
  facet normal 0.8526401645166191 0.522498564450729 0
    outer loop
      vertex -1.909830056130886 95.87785252183676 0
      vertex -1.0899347588419914 94.53990499675274 25
      vertex -1.0899347588419914 94.53990499675274 0
    endloop
  endfacet
  facet normal 0.8526401645166191 0.522498564450729 0
    outer loop
      vertex -1.909830056130886 95.87785252183676 0
      vertex -1.909830056130886 95.87785252183676 25
      vertex -1.0899347588419914 94.53990499675274 25
    endloop
  endfacet
  facet normal 0.7604059648004906 0.6494480492663252 0
    outer loop
      vertex -2.9289321899414062 97.0710678100586 0
      vertex -1.909830056130886 95.87785252183676 25
      vertex -1.909830056130886 95.87785252183676 0
    endloop
  endfacet
  facet normal 0.7604059648004906 0.6494480492663252 0
    outer loop
      vertex -2.9289321899414062 97.0710678100586 0
      vertex -2.9289321899414062 97.0710678100586 25
      vertex -1.909830056130886 95.87785252183676 25
    endloop
  endfacet
  facet normal 0.6494480492663252 0.7604059648004906 0
    outer loop
      vertex -4.122147478163242 98.09016994386911 0
      vertex -2.9289321899414062 97.0710678100586 25
      vertex -2.9289321899414062 97.0710678100586 0
    endloop
  endfacet
  facet normal 0.6494480492663252 0.7604059648004906 0
    outer loop
      vertex -4.122147478163242 98.09016994386911 0
      vertex -4.122147478163242 98.09016994386911 25
      vertex -2.9289321899414062 97.0710678100586 25
    endloop
  endfacet
  facet normal 0.522498564450729 0.8526401645166191 0
    outer loop
      vertex -5.460095003247261 98.91006524115801 0
      vertex -4.122147478163242 98.09016994386911 25
      vertex -4.122147478163242 98.09016994386911 0
    endloop
  endfacet
  facet normal 0.522498564450729 0.8526401645166191 0
    outer loop
      vertex -5.460095003247261 98.91006524115801 0
      vertex -5.460095003247261 98.91006524115801 25
      vertex -4.122147478163242 98.09016994386911 25
    endloop
  endfacet
  facet normal 0.382683432253545 0.9238795325574901 0
    outer loop
      vertex -6.909830056130886 99.51056516170502 0
      vertex -5.460095003247261 98.91006524115801 25
      vertex -5.460095003247261 98.91006524115801 0
    endloop
  endfacet
  facet normal 0.382683432253545 0.9238795325574901 0
    outer loop
      vertex -6.909830056130886 99.51056516170502 0
      vertex -6.909830056130886 99.51056516170502 25
      vertex -5.460095003247261 98.91006524115801 25
    endloop
  endfacet
  facet normal 0.23344536272074937 0.9723699206702034 0
    outer loop
      vertex -8.43565534800291 99.87688340246677 0
      vertex -6.909830056130886 99.51056516170502 25
      vertex -6.909830056130886 99.51056516170502 0
    endloop
  endfacet
  facet normal 0.23344536272074937 0.9723699206702034 0
    outer loop
      vertex -8.43565534800291 99.87688340246677 0
      vertex -8.43565534800291 99.87688340246677 25
      vertex -6.909830056130886 99.51056516170502 25
    endloop
  endfacet
  facet normal 0.07845909785533142 0.996917333565691 0
    outer loop
      vertex -10 100 0
      vertex -8.43565534800291 99.87688340246677 25
      vertex -8.43565534800291 99.87688340246677 0
    endloop
  endfacet
  facet normal 0.07845909785533142 0.996917333565691 0
    outer loop
      vertex -10 100 0
      vertex -10 100 25
      vertex -8.43565534800291 99.87688340246677 25
    endloop
  endfacet
  facet normal -0.995037190209989 0.0995037190209989 0
    outer loop
      vertex -20 0 0
      vertex -10 100 25
      vertex -10 100 0
    endloop
  endfacet
  facet normal -0.995037190209989 0.0995037190209989 0
    outer loop
      vertex -20 0 0
      vertex -20 0 25
      vertex -10 100 25
    endloop
  endfacet
  facet normal 0.7071067811865475 -0.7071067811865475 0
    outer loop
      vertex 0 20 0
      vertex -20 0 25
      vertex -20 0 0
    endloop
  endfacet
  facet normal 0.7071067811865475 -0.7071067811865475 0
    outer loop
      vertex 0 20 0
      vertex 0 20 25
      vertex -20 0 25
    endloop
  endfacet
  facet normal 1 0 0
    outer loop
      vertex 0 90 25
      vertex 0 20 50
      vertex 0 20 25
    endloop
  endfacet
  facet normal 1 0 0
    outer loop
      vertex 0 90 25
      vertex 0 90 50
      vertex 0 20 50
    endloop
  endfacet
  facet normal 0.996917333565691 0.07845909785533142 0
    outer loop
      vertex -0.12311659753322601 91.56434465199709 25
      vertex 0 90 50
      vertex 0 90 25
    endloop
  endfacet
  facet normal 0.996917333565691 0.07845909785533142 0
    outer loop
      vertex -0.12311659753322601 91.56434465199709 25
      vertex -0.12311659753322601 91.56434465199709 50
      vertex 0 90 50
    endloop
  endfacet
  facet normal 0.9723699206702034 0.23344536272074937 0
    outer loop
      vertex -0.4894348382949829 93.09016994386911 25
      vertex -0.12311659753322601 91.56434465199709 50
      vertex -0.12311659753322601 91.56434465199709 25
    endloop
  endfacet
  facet normal 0.9723699206702034 0.23344536272074937 0
    outer loop
      vertex -0.4894348382949829 93.09016994386911 25
      vertex -0.4894348382949829 93.09016994386911 50
      vertex -0.12311659753322601 91.56434465199709 50
    endloop
  endfacet
  facet normal 0.9238795325574901 0.382683432253545 0
    outer loop
      vertex -1.0899347588419914 94.53990499675274 25
      vertex -0.4894348382949829 93.09016994386911 50
      vertex -0.4894348382949829 93.09016994386911 25
    endloop
  endfacet
  facet normal 0.9238795325574901 0.382683432253545 0
    outer loop
      vertex -1.0899347588419914 94.53990499675274 25
      vertex -1.0899347588419914 94.53990499675274 50
      vertex -0.4894348382949829 93.09016994386911 50
    endloop
  endfacet
  facet normal 0.8526401645166191 0.522498564450729 0
    outer loop
      vertex -1.909830056130886 95.87785252183676 25
      vertex -1.0899347588419914 94.53990499675274 50
      vertex -1.0899347588419914 94.53990499675274 25
    endloop
  endfacet
  facet normal 0.8526401645166191 0.522498564450729 0
    outer loop
      vertex -1.909830056130886 95.87785252183676 25
      vertex -1.909830056130886 95.87785252183676 50
      vertex -1.0899347588419914 94.53990499675274 50
    endloop
  endfacet
  facet normal 0.7604059648004906 0.6494480492663252 0
    outer loop
      vertex -2.9289321899414062 97.0710678100586 25
      vertex -1.909830056130886 95.87785252183676 50
      vertex -1.909830056130886 95.87785252183676 25
    endloop
  endfacet
  facet normal 0.7604059648004906 0.6494480492663252 0
    outer loop
      vertex -2.9289321899414062 97.0710678100586 25
      vertex -2.9289321899414062 97.0710678100586 50
      vertex -1.909830056130886 95.87785252183676 50
    endloop
  endfacet
  facet normal 0.6494480492663252 0.7604059648004906 0
    outer loop
      vertex -4.122147478163242 98.09016994386911 25
      vertex -2.9289321899414062 97.0710678100586 50
      vertex -2.9289321899414062 97.0710678100586 25
    endloop
  endfacet
  facet normal 0.6494480492663252 0.7604059648004906 0
    outer loop
      vertex -4.122147478163242 98.09016994386911 25
      vertex -4.122147478163242 98.09016994386911 50
      vertex -2.9289321899414062 97.0710678100586 50
    endloop
  endfacet
  facet normal 0.522498564450729 0.8526401645166191 0
    outer loop
      vertex -5.460095003247261 98.91006524115801 25
      vertex -4.122147478163242 98.09016994386911 50
      vertex -4.122147478163242 98.09016994386911 25
    endloop
  endfacet
  facet normal 0.522498564450729 0.8526401645166191 0
    outer loop
      vertex -5.460095003247261 98.91006524115801 25
      vertex -5.460095003247261 98.91006524115801 50
      vertex -4.122147478163242 98.09016994386911 50
    endloop
  endfacet
  facet normal 0.382683432253545 0.9238795325574901 0
    outer loop
      vertex -6.909830056130886 99.51056516170502 25
      vertex -5.460095003247261 98.91006524115801 50
      vertex -5.460095003247261 98.91006524115801 25
    endloop
  endfacet
  facet normal 0.382683432253545 0.9238795325574901 0
    outer loop
      vertex -6.909830056130886 99.51056516170502 25
      vertex -6.909830056130886 99.51056516170502 50
      vertex -5.460095003247261 98.91006524115801 50
    endloop
  endfacet
  facet normal 0.23344536272074937 0.9723699206702034 0
    outer loop
      vertex -8.43565534800291 99.87688340246677 25
      vertex -6.909830056130886 99.51056516170502 50
      vertex -6.909830056130886 99.51056516170502 25
    endloop
  endfacet
  facet normal 0.23344536272074937 0.9723699206702034 0
    outer loop
      vertex -8.43565534800291 99.87688340246677 25
      vertex -8.43565534800291 99.87688340246677 50
      vertex -6.909830056130886 99.51056516170502 50
    endloop
  endfacet
  facet normal 0.07845909785533142 0.996917333565691 0
    outer loop
      vertex -10 100 25
      vertex -8.43565534800291 99.87688340246677 50
      vertex -8.43565534800291 99.87688340246677 25
    endloop
  endfacet
  facet normal 0.07845909785533142 0.996917333565691 0
    outer loop
      vertex -10 100 25
      vertex -10 100 50
      vertex -8.43565534800291 99.87688340246677 50
    endloop
  endfacet
  facet normal -0.995037190209989 0.0995037190209989 0
    outer loop
      vertex -20 0 25
      vertex -10 100 50
      vertex -10 100 25
    endloop
  endfacet
  facet normal -0.995037190209989 0.0995037190209989 0
    outer loop
      vertex -20 0 25
      vertex -20 0 50
      vertex -10 100 50
    endloop
  endfacet
  facet normal 0.7071067811865475 -0.7071067811865475 0
    outer loop
      vertex 0 20 25
      vertex -20 0 50
      vertex -20 0 25
    endloop
  endfacet
  facet normal 0.7071067811865475 -0.7071067811865475 0
    outer loop
      vertex 0 20 25
      vertex 0 20 50
      vertex -20 0 50
    endloop
  endfacet
  facet normal 1 0 0
    outer loop
      vertex 0 90 50
      vertex 0 20 75
      vertex 0 20 50
    endloop
  endfacet
  facet normal 1 0 0
    outer loop
      vertex 0 90 50
      vertex 0 90 75
      vertex 0 20 75
    endloop
  endfacet
  facet normal 0.996917333565691 0.07845909785533142 0
    outer loop
      vertex -0.12311659753322601 91.56434465199709 50
      vertex 0 90 75
      vertex 0 90 50
    endloop
  endfacet
  facet normal 0.996917333565691 0.07845909785533142 0
    outer loop
      vertex -0.12311659753322601 91.56434465199709 50
      vertex -0.12311659753322601 91.56434465199709 75
      vertex 0 90 75
    endloop
  endfacet
  facet normal 0.9723699206702034 0.23344536272074937 0
    outer loop
      vertex -0.4894348382949829 93.09016994386911 50
      vertex -0.12311659753322601 91.56434465199709 75
      vertex -0.12311659753322601 91.56434465199709 50
    endloop
  endfacet
  facet normal 0.9723699206702034 0.23344536272074937 0
    outer loop
      vertex -0.4894348382949829 93.09016994386911 50
      vertex -0.4894348382949829 93.09016994386911 75
      vertex -0.12311659753322601 91.56434465199709 75
    endloop
  endfacet
  facet normal 0.9238795325574901 0.382683432253545 0
    outer loop
      vertex -1.0899347588419914 94.53990499675274 50
      vertex -0.4894348382949829 93.09016994386911 75
      vertex -0.4894348382949829 93.09016994386911 50
    endloop
  endfacet
  facet normal 0.9238795325574901 0.382683432253545 0
    outer loop
      vertex -1.0899347588419914 94.53990499675274 50
      vertex -1.0899347588419914 94.53990499675274 75
      vertex -0.4894348382949829 93.09016994386911 75
    endloop
  endfacet
  facet normal 0.8526401645166191 0.522498564450729 0
    outer loop
      vertex -1.909830056130886 95.87785252183676 50
      vertex -1.0899347588419914 94.53990499675274 75
      vertex -1.0899347588419914 94.53990499675274 50
    endloop
  endfacet
  facet normal 0.8526401645166191 0.522498564450729 0
    outer loop
      vertex -1.909830056130886 95.87785252183676 50
      vertex -1.909830056130886 95.87785252183676 75
      vertex -1.0899347588419914 94.53990499675274 75
    endloop
  endfacet
  facet normal 0.7604059648004906 0.6494480492663252 0
    outer loop
      vertex -2.9289321899414062 97.0710678100586 50
      vertex -1.909830056130886 95.87785252183676 75
      vertex -1.909830056130886 95.87785252183676 50
    endloop
  endfacet
  facet normal 0.7604059648004906 0.6494480492663252 0
    outer loop
      vertex -2.9289321899414062 97.0710678100586 50
      vertex -2.9289321899414062 97.0710678100586 75
      vertex -1.909830056130886 95.87785252183676 75
    endloop
  endfacet
  facet normal 0.6494480492663252 0.7604059648004906 0
    outer loop
      vertex -4.122147478163242 98.09016994386911 50
      vertex -2.9289321899414062 97.0710678100586 75
      vertex -2.9289321899414062 97.0710678100586 50
    endloop
  endfacet
  facet normal 0.6494480492663252 0.7604059648004906 0
    outer loop
      vertex -4.122147478163242 98.09016994386911 50
      vertex -4.122147478163242 98.09016994386911 75
      vertex -2.9289321899414062 97.0710678100586 75
    endloop
  endfacet
  facet normal 0.522498564450729 0.8526401645166191 0
    outer loop
      vertex -5.460095003247261 98.91006524115801 50
      vertex -4.122147478163242 98.09016994386911 75
      vertex -4.122147478163242 98.09016994386911 50
    endloop
  endfacet
  facet normal 0.522498564450729 0.8526401645166191 0
    outer loop
      vertex -5.460095003247261 98.91006524115801 50
      vertex -5.460095003247261 98.91006524115801 75
      vertex -4.122147478163242 98.09016994386911 75
    endloop
  endfacet
  facet normal 0.382683432253545 0.9238795325574901 0
    outer loop
      vertex -6.909830056130886 99.51056516170502 50
      vertex -5.460095003247261 98.91006524115801 75
      vertex -5.460095003247261 98.91006524115801 50
    endloop
  endfacet
  facet normal 0.382683432253545 0.9238795325574901 0
    outer loop
      vertex -6.909830056130886 99.51056516170502 50
      vertex -6.909830056130886 99.51056516170502 75
      vertex -5.460095003247261 98.91006524115801 75
    endloop
  endfacet
  facet normal 0.23344536272074937 0.9723699206702034 0
    outer loop
      vertex -8.43565534800291 99.87688340246677 50
      vertex -6.909830056130886 99.51056516170502 75
      vertex -6.909830056130886 99.51056516170502 50
    endloop
  endfacet
  facet normal 0.23344536272074937 0.9723699206702034 0
    outer loop
      vertex -8.43565534800291 99.87688340246677 50
      vertex -8.43565534800291 99.87688340246677 75
      vertex -6.909830056130886 99.51056516170502 75
    endloop
  endfacet
  facet normal 0.07845909785533142 0.996917333565691 0
    outer loop
      vertex -10 100 50
      vertex -8.43565534800291 99.87688340246677 75
      vertex -8.43565534800291 99.87688340246677 50
    endloop
  endfacet
  facet normal 0.07845909785533142 0.996917333565691 0
    outer loop
      vertex -10 100 50
      vertex -10 100 75
      vertex -8.43565534800291 99.87688340246677 75
    endloop
  endfacet
  facet normal -0.995037190209989 0.0995037190209989 0
    outer loop
      vertex -20 0 50
      vertex -10 100 75
      vertex -10 100 50
    endloop
  endfacet
  facet normal -0.995037190209989 0.0995037190209989 0
    outer loop
      vertex -20 0 50
      vertex -20 0 75
      vertex -10 100 75
    endloop
  endfacet
  facet normal 0.7071067811865475 -0.7071067811865475 0
    outer loop
      vertex 0 20 50
      vertex -20 0 75
      vertex -20 0 50
    endloop
  endfacet
  facet normal 0.7071067811865475 -0.7071067811865475 0
    outer loop
      vertex 0 20 50
      vertex 0 20 75
      vertex -20 0 75
    endloop
  endfacet
  facet normal 1 0 0
    outer loop
      vertex 0 90 75
      vertex 0 20 100
      vertex 0 20 75
    endloop
  endfacet
  facet normal 1 0 0
    outer loop
      vertex 0 90 75
      vertex 0 90 100
      vertex 0 20 100
    endloop
  endfacet
  facet normal 0.996917333565691 0.07845909785533142 0
    outer loop
      vertex -0.12311659753322601 91.56434465199709 75
      vertex 0 90 100
      vertex 0 90 75
    endloop
  endfacet
  facet normal 0.996917333565691 0.07845909785533142 0
    outer loop
      vertex -0.12311659753322601 91.56434465199709 75
      vertex -0.12311659753322601 91.56434465199709 100
      vertex 0 90 100
    endloop
  endfacet
  facet normal 0.9723699206702034 0.23344536272074937 0
    outer loop
      vertex -0.4894348382949829 93.09016994386911 75
      vertex -0.12311659753322601 91.56434465199709 100
      vertex -0.12311659753322601 91.56434465199709 75
    endloop
  endfacet
  facet normal 0.9723699206702034 0.23344536272074937 0
    outer loop
      vertex -0.4894348382949829 93.09016994386911 75
      vertex -0.4894348382949829 93.09016994386911 100
      vertex -0.12311659753322601 91.56434465199709 100
    endloop
  endfacet
  facet normal 0.9238795325574901 0.382683432253545 0
    outer loop
      vertex -1.0899347588419914 94.53990499675274 75
      vertex -0.4894348382949829 93.09016994386911 100
      vertex -0.4894348382949829 93.09016994386911 75
    endloop
  endfacet
  facet normal 0.9238795325574901 0.382683432253545 0
    outer loop
      vertex -1.0899347588419914 94.53990499675274 75
      vertex -1.0899347588419914 94.53990499675274 100
      vertex -0.4894348382949829 93.09016994386911 100
    endloop
  endfacet
  facet normal 0.8526401645166191 0.522498564450729 0
    outer loop
      vertex -1.909830056130886 95.87785252183676 75
      vertex -1.0899347588419914 94.53990499675274 100
      vertex -1.0899347588419914 94.53990499675274 75
    endloop
  endfacet
  facet normal 0.8526401645166191 0.522498564450729 0
    outer loop
      vertex -1.909830056130886 95.87785252183676 75
      vertex -1.909830056130886 95.87785252183676 100
      vertex -1.0899347588419914 94.53990499675274 100
    endloop
  endfacet
  facet normal 0.7604059648004906 0.6494480492663252 0
    outer loop
      vertex -2.9289321899414062 97.0710678100586 75
      vertex -1.909830056130886 95.87785252183676 100
      vertex -1.909830056130886 95.87785252183676 75
    endloop
  endfacet
  facet normal 0.7604059648004906 0.6494480492663252 0
    outer loop
      vertex -2.9289321899414062 97.0710678100586 75
      vertex -2.9289321899414062 97.0710678100586 100
      vertex -1.909830056130886 95.87785252183676 100
    endloop
  endfacet
  facet normal 0.6494480492663252 0.7604059648004906 0
    outer loop
      vertex -4.122147478163242 98.09016994386911 75
      vertex -2.9289321899414062 97.0710678100586 100
      vertex -2.9289321899414062 97.0710678100586 75
    endloop
  endfacet
  facet normal 0.6494480492663252 0.7604059648004906 0
    outer loop
      vertex -4.122147478163242 98.09016994386911 75
      vertex -4.122147478163242 98.09016994386911 100
      vertex -2.9289321899414062 97.0710678100586 100
    endloop
  endfacet
  facet normal 0.522498564450729 0.8526401645166191 0
    outer loop
      vertex -5.460095003247261 98.91006524115801 75
      vertex -4.122147478163242 98.09016994386911 100
      vertex -4.122147478163242 98.09016994386911 75
    endloop
  endfacet
  facet normal 0.522498564450729 0.8526401645166191 0
    outer loop
      vertex -5.460095003247261 98.91006524115801 75
      vertex -5.460095003247261 98.91006524115801 100
      vertex -4.122147478163242 98.09016994386911 100
    endloop
  endfacet
  facet normal 0.382683432253545 0.9238795325574901 0
    outer loop
      vertex -6.909830056130886 99.51056516170502 75
      vertex -5.460095003247261 98.91006524115801 100
      vertex -5.460095003247261 98.91006524115801 75
    endloop
  endfacet
  facet normal 0.382683432253545 0.9238795325574901 0
    outer loop
      vertex -6.909830056130886 99.51056516170502 75
      vertex -6.909830056130886 99.51056516170502 100
      vertex -5.460095003247261 98.91006524115801 100
    endloop
  endfacet
  facet normal 0.23344536272074937 0.9723699206702034 0
    outer loop
      vertex -8.43565534800291 99.87688340246677 75
      vertex -6.909830056130886 99.51056516170502 100
      vertex -6.909830056130886 99.51056516170502 75
    endloop
  endfacet
  facet normal 0.23344536272074937 0.9723699206702034 0
    outer loop
      vertex -8.43565534800291 99.87688340246677 75
      vertex -8.43565534800291 99.87688340246677 100
      vertex -6.909830056130886 99.51056516170502 100
    endloop
  endfacet
  facet normal 0.07845909785533142 0.996917333565691 0
    outer loop
      vertex -10 100 75
      vertex -8.43565534800291 99.87688340246677 100
      vertex -8.43565534800291 99.87688340246677 75
    endloop
  endfacet
  facet normal 0.07845909785533142 0.996917333565691 0
    outer loop
      vertex -10 100 75
      vertex -10 100 100
      vertex -8.43565534800291 99.87688340246677 100
    endloop
  endfacet
  facet normal -0.995037190209989 0.0995037190209989 0
    outer loop
      vertex -20 0 75
      vertex -10 100 100
      vertex -10 100 75
    endloop
  endfacet
  facet normal -0.995037190209989 0.0995037190209989 0
    outer loop
      vertex -20 0 75
      vertex -20 0 100
      vertex -10 100 100
    endloop
  endfacet
  facet normal 0.7071067811865475 -0.7071067811865475 0
    outer loop
      vertex 0 20 75
      vertex -20 0 100
      vertex -20 0 75
    endloop
  endfacet
  facet normal 0.7071067811865475 -0.7071067811865475 0
    outer loop
      vertex 0 20 75
      vertex 0 20 100
      vertex -20 0 100
    endloop
  endfacet
  facet normal 0 0 -1
    outer loop
      vertex -20 0 0
      vertex 0 90 0
      vertex 0 20 0
    endloop
  endfacet
  facet normal 0 0 -1
    outer loop
      vertex -20 0 0
      vertex -10 100 0
      vertex 0 90 0
    endloop
  endfacet
  facet normal 0 0 -1
    outer loop
      vertex -10 100 0
      vertex -0.12311659753322601 91.56434465199709 0
      vertex 0 90 0
    endloop
  endfacet
  facet normal 0 0 -1
    outer loop
      vertex -10 100 0
      vertex -8.43565534800291 99.87688340246677 0
      vertex -0.12311659753322601 91.56434465199709 0
    endloop
  endfacet
  facet normal 0 0 -1
    outer loop
      vertex -8.43565534800291 99.87688340246677 0
      vertex -0.4894348382949829 93.09016994386911 0
      vertex -0.12311659753322601 91.56434465199709 0
    endloop
  endfacet
  facet normal 0 0 -1
    outer loop
      vertex -8.43565534800291 99.87688340246677 0
      vertex -6.909830056130886 99.51056516170502 0
      vertex -0.4894348382949829 93.09016994386911 0
    endloop
  endfacet
  facet normal 0 0 -1
    outer loop
      vertex -6.909830056130886 99.51056516170502 0
      vertex -1.0899347588419914 94.53990499675274 0
      vertex -0.4894348382949829 93.09016994386911 0
    endloop
  endfacet
  facet normal 0 0 -1
    outer loop
      vertex -6.909830056130886 99.51056516170502 0
      vertex -5.460095003247261 98.91006524115801 0
      vertex -1.0899347588419914 94.53990499675274 0
    endloop
  endfacet
  facet normal 0 0 -1
    outer loop
      vertex -5.460095003247261 98.91006524115801 0
      vertex -1.909830056130886 95.87785252183676 0
      vertex -1.0899347588419914 94.53990499675274 0
    endloop
  endfacet
  facet normal 0 0 -1
    outer loop
      vertex -5.460095003247261 98.91006524115801 0
      vertex -4.122147478163242 98.09016994386911 0
      vertex -1.909830056130886 95.87785252183676 0
    endloop
  endfacet
  facet normal 0 0 -1
    outer loop
      vertex -4.122147478163242 98.09016994386911 0
      vertex -2.9289321899414062 97.0710678100586 0
      vertex -1.909830056130886 95.87785252183676 0
    endloop
  endfacet
  facet normal 0 0 1
    outer loop
      vertex 0 20 100
      vertex 0 90 100
      vertex -20 0 100
    endloop
  endfacet
  facet normal 0 0 1
    outer loop
      vertex 0 90 100
      vertex -10 100 100
      vertex -20 0 100
    endloop
  endfacet
  facet normal 0 0 1
    outer loop
      vertex 0 90 100
      vertex -0.12311659753322601 91.56434465199709 100
      vertex -10 100 100
    endloop
  endfacet
  facet normal 0 0 1
    outer loop
      vertex -0.12311659753322601 91.56434465199709 100
      vertex -8.43565534800291 99.87688340246677 100
      vertex -10 100 100
    endloop
  endfacet
  facet normal 0 0 1
    outer loop
      vertex -0.12311659753322601 91.56434465199709 100
      vertex -0.4894348382949829 93.09016994386911 100
      vertex -8.43565534800291 99.87688340246677 100
    endloop
  endfacet
  facet normal 0 0 1
    outer loop
      vertex -0.4894348382949829 93.09016994386911 100
      vertex -6.909830056130886 99.51056516170502 100
      vertex -8.43565534800291 99.87688340246677 100
    endloop
  endfacet
  facet normal 0 0 1
    outer loop
      vertex -0.4894348382949829 93.09016994386911 100
      vertex -1.0899347588419914 94.53990499675274 100
      vertex -6.909830056130886 99.51056516170502 100
    endloop
  endfacet
  facet normal 0 0 1
    outer loop
      vertex -1.0899347588419914 94.53990499675274 100
      vertex -5.460095003247261 98.91006524115801 100
      vertex -6.909830056130886 99.51056516170502 100
    endloop
  endfacet
  facet normal 0 0 1
    outer loop
      vertex -1.0899347588419914 94.53990499675274 100
      vertex -1.909830056130886 95.87785252183676 100
      vertex -5.460095003247261 98.91006524115801 100
    endloop
  endfacet
  facet normal 0 0 1
    outer loop
      vertex -1.909830056130886 95.87785252183676 100
      vertex -4.122147478163242 98.09016994386911 100
      vertex -5.460095003247261 98.91006524115801 100
    endloop
  endfacet
  facet normal 0 0 1
    outer loop
      vertex -1.909830056130886 95.87785252183676 100
      vertex -2.9289321899414062 97.0710678100586 100
      vertex -4.122147478163242 98.09016994386911 100
    endloop
  endfacet
endsolid OpenSCAD_Model
