solid OpenSCAD_Model
  facet normal 0 0 1
    outer loop
      vertex -74.9 -79.65 21.666666666666668
      vertex -72.5 -77.25000000000003 21.666666666666668
      vertex -72.5 -26.55000000000002 21.666666666666668
    endloop
  endfacet
  facet normal 0 0 1
    outer loop
      vertex -74.9 -79.65 21.666666666666668
      vertex -25.76666666666666 -77.25000000000003 21.666666666666668
      vertex -72.5 -77.25000000000003 21.666666666666668
    endloop
  endfacet
  facet normal 0 0 1
    outer loop
      vertex -74.9 -79.65 21.666666666666668
      vertex -72.5 -26.55000000000002 21.666666666666668
      vertex -72.5 -24.15000000000002 21.666666666666668
    endloop
  endfacet
  facet normal 0 0 1
    outer loop
      vertex -74.9 -79.65 21.666666666666668
      vertex -23.366666666666667 -77.25000000000003 21.666666666666668
      vertex -25.76666666666666 -77.25000000000003 21.666666666666668
    endloop
  endfacet
  facet normal -1 0 0
    outer loop
      vertex -74.9 -79.65 0
      vertex -74.9 -79.65 21.666666666666668
      vertex -74.9 79.65 21.666666666666668
    endloop
  endfacet
  facet normal 0 0 1
    outer loop
      vertex -72.5 -26.55000000000002 21.666666666666668
      vertex -25.76666666666666 -26.55000000000002 21.666666666666668
      vertex -72.5 -24.15000000000002 21.666666666666668
    endloop
  endfacet
  facet normal 0 0 1
    outer loop
      vertex -74.9 -79.65 21.666666666666668
      vertex -72.5 -24.15000000000002 21.666666666666668
      vertex -74.9 79.65 21.666666666666668
    endloop
  endfacet
  facet normal 0 0 1
    outer loop
      vertex -25.76666666666666 -24.15000000000002 21.666666666666668
      vertex -72.5 -24.15000000000002 21.666666666666668
      vertex -25.76666666666666 -26.55000000000002 21.666666666666668
    endloop
  endfacet
  facet normal 0 -1 0
    outer loop
      vertex -74.9 -79.65 0
      vertex 74.9 -79.65 21.666666666666668
      vertex -74.9 -79.65 21.666666666666668
    endloop
  endfacet
  facet normal 0 0 1
    outer loop
      vertex -25.76666666666666 -77.25000000000003 21.666666666666668
      vertex -23.366666666666667 -77.25000000000003 21.666666666666668
      vertex -23.366666666666667 -26.55000000000002 21.666666666666668
    endloop
  endfacet
  facet normal 0 0 1
    outer loop
      vertex -25.76666666666666 -77.25000000000003 21.666666666666668
      vertex -23.366666666666667 -26.55000000000002 21.666666666666668
      vertex -25.76666666666666 -26.55000000000002 21.666666666666668
    endloop
  endfacet
  facet normal 0 0 1
    outer loop
      vertex -74.9 -79.65 21.666666666666668
      vertex 74.9 -79.65 21.666666666666668
      vertex -23.366666666666667 -77.25000000000003 21.666666666666668
    endloop
  endfacet
  facet normal 0 0 1
    outer loop
      vertex -25.76666666666666 -24.15000000000002 21.666666666666668
      vertex -25.76666666666666 -26.55000000000002 21.666666666666668
      vertex -23.366666666666667 -24.15000000000002 21.666666666666668
    endloop
  endfacet
  facet normal 0 0 1
    outer loop
      vertex -23.366666666666667 -26.55000000000002 21.666666666666668
      vertex -23.366666666666667 -24.15000000000002 21.666666666666668
      vertex -25.76666666666666 -26.55000000000002 21.666666666666668
    endloop
  endfacet
  facet normal 0 0 1
    outer loop
      vertex 23.366666666666674 -26.55000000000002 21.666666666666668
      vertex -23.366666666666667 -24.15000000000002 21.666666666666668
      vertex -23.366666666666667 -26.55000000000002 21.666666666666668
    endloop
  endfacet
  facet normal -1 0 0
    outer loop
      vertex -74.9 -79.65 0
      vertex -74.9 79.65 21.666666666666668
      vertex -74.9 79.65 0
    endloop
  endfacet
  facet normal 0 0 -1
    outer loop
      vertex -74.9 -79.65 0
      vertex -74.9 79.65 0
      vertex 74.9 79.65 0
    endloop
  endfacet
  facet normal 0 1 0
    outer loop
      vertex -74.9 79.65 0
      vertex -74.9 79.65 21.666666666666668
      vertex 74.9 79.65 0
    endloop
  endfacet
  facet normal 0 0 1
    outer loop
      vertex -74.9 79.65 21.666666666666668
      vertex -72.5 -24.15000000000002 21.666666666666668
      vertex -72.5 77.25 21.666666666666668
    endloop
  endfacet
  facet normal 0 0 1
    outer loop
      vertex -74.9 79.65 21.666666666666668
      vertex -72.5 77.25 21.666666666666668
      vertex -25.76666666666666 77.25 21.666666666666668
    endloop
  endfacet
  facet normal 0 0 1
    outer loop
      vertex -74.9 79.65 21.666666666666668
      vertex -25.76666666666666 77.25 21.666666666666668
      vertex -23.366666666666667 77.25 21.666666666666668
    endloop
  endfacet
  facet normal 0 0 1
    outer loop
      vertex -23.366666666666667 77.25 21.666666666666668
      vertex -25.76666666666666 -24.15000000000002 21.666666666666668
      vertex -23.366666666666667 -24.15000000000002 21.666666666666668
    endloop
  endfacet
  facet normal 0 0 1
    outer loop
      vertex -25.76666666666666 -24.15000000000002 21.666666666666668
      vertex -23.366666666666667 77.25 21.666666666666668
      vertex -25.76666666666666 77.25 21.666666666666668
    endloop
  endfacet
  facet normal 0 0 1
    outer loop
      vertex -74.9 79.65 21.666666666666668
      vertex -23.366666666666667 77.25 21.666666666666668
      vertex 74.9 79.65 21.666666666666668
    endloop
  endfacet
  facet normal 0 -1 0
    outer loop
      vertex -74.9 -79.65 0
      vertex 74.9 -79.65 0
      vertex 74.9 -79.65 21.666666666666668
    endloop
  endfacet
  facet normal 0 0 -1
    outer loop
      vertex -74.9 -79.65 0
      vertex 74.9 79.65 0
      vertex 74.9 -79.65 0
    endloop
  endfacet
  facet normal 1 0 0
    outer loop
      vertex 74.9 -79.65 0
      vertex 74.9 79.65 0
      vertex 74.9 -79.65 21.666666666666668
    endloop
  endfacet
  facet normal 0 0 1
    outer loop
      vertex 74.9 -79.65 21.666666666666668
      vertex 23.366666666666674 -77.25000000000003 21.666666666666668
      vertex -23.366666666666667 -77.25000000000003 21.666666666666668
    endloop
  endfacet
  facet normal 0 0 1
    outer loop
      vertex 25.76666666666668 -26.55000000000002 21.666666666666668
      vertex 23.366666666666674 -77.25000000000003 21.666666666666668
      vertex 25.76666666666668 -77.25000000000003 21.666666666666668
    endloop
  endfacet
  facet normal 0 0 1
    outer loop
      vertex 25.76666666666668 -26.55000000000002 21.666666666666668
      vertex 23.366666666666674 -26.55000000000002 21.666666666666668
      vertex 23.366666666666674 -77.25000000000003 21.666666666666668
    endloop
  endfacet
  facet normal 0 0 1
    outer loop
      vertex 23.366666666666674 -24.15000000000002 21.666666666666668
      vertex -23.366666666666667 -24.15000000000002 21.666666666666668
      vertex 23.366666666666674 -26.55000000000002 21.666666666666668
    endloop
  endfacet
  facet normal 0 0 1
    outer loop
      vertex 23.366666666666674 -24.15000000000002 21.666666666666668
      vertex 23.366666666666674 -26.55000000000002 21.666666666666668
      vertex 25.76666666666668 -26.55000000000002 21.666666666666668
    endloop
  endfacet
  facet normal 0 0 1
    outer loop
      vertex 74.9 -79.65 21.666666666666668
      vertex 25.76666666666668 -77.25000000000003 21.666666666666668
      vertex 23.366666666666674 -77.25000000000003 21.666666666666668
    endloop
  endfacet
  facet normal 0 0 1
    outer loop
      vertex 74.9 -79.65 21.666666666666668
      vertex 72.50000000000003 -77.25000000000003 21.666666666666668
      vertex 25.76666666666668 -77.25000000000003 21.666666666666668
    endloop
  endfacet
  facet normal 0 0 1
    outer loop
      vertex 74.9 -79.65 21.666666666666668
      vertex 72.50000000000003 -26.55000000000002 21.666666666666668
      vertex 72.50000000000003 -77.25000000000003 21.666666666666668
    endloop
  endfacet
  facet normal 0 0 1
    outer loop
      vertex 74.9 -79.65 21.666666666666668
      vertex 72.50000000000003 -24.15000000000002 21.666666666666668
      vertex 72.50000000000003 -26.55000000000002 21.666666666666668
    endloop
  endfacet
  facet normal 0 0 1
    outer loop
      vertex 25.76666666666668 -26.55000000000002 21.666666666666668
      vertex 72.50000000000003 -26.55000000000002 21.666666666666668
      vertex 23.366666666666674 -24.15000000000002 21.666666666666668
    endloop
  endfacet
  facet normal 0 0 1
    outer loop
      vertex 72.50000000000003 -26.55000000000002 21.666666666666668
      vertex 25.76666666666668 -24.15000000000002 21.666666666666668
      vertex 23.366666666666674 -24.15000000000002 21.666666666666668
    endloop
  endfacet
  facet normal 0 0 1
    outer loop
      vertex 72.50000000000003 -26.55000000000002 21.666666666666668
      vertex 72.50000000000003 -24.15000000000002 21.666666666666668
      vertex 25.76666666666668 -24.15000000000002 21.666666666666668
    endloop
  endfacet
  facet normal 0 0 1
    outer loop
      vertex 74.9 -79.65 21.666666666666668
      vertex 74.9 79.65 21.666666666666668
      vertex 72.50000000000003 -24.15000000000002 21.666666666666668
    endloop
  endfacet
  facet normal 0 0 1
    outer loop
      vertex 25.76666666666668 77.25 21.666666666666668
      vertex 23.366666666666674 -24.15000000000002 21.666666666666668
      vertex 25.76666666666668 -24.15000000000002 21.666666666666668
    endloop
  endfacet
  facet normal 0 1 0
    outer loop
      vertex -74.9 79.65 21.666666666666668
      vertex 74.9 79.65 21.666666666666668
      vertex 74.9 79.65 0
    endloop
  endfacet
  facet normal 0 0 1
    outer loop
      vertex 25.76666666666668 77.25 21.666666666666668
      vertex 23.366666666666674 77.25 21.666666666666668
      vertex 23.366666666666674 -24.15000000000002 21.666666666666668
    endloop
  endfacet
  facet normal 0 0 1
    outer loop
      vertex 74.9 79.65 21.666666666666668
      vertex -23.366666666666667 77.25 21.666666666666668
      vertex 23.366666666666674 77.25 21.666666666666668
    endloop
  endfacet
  facet normal 1 0 0
    outer loop
      vertex 74.9 -79.65 21.666666666666668
      vertex 74.9 79.65 0
      vertex 74.9 79.65 21.666666666666668
    endloop
  endfacet
  facet normal 0 0 1
    outer loop
      vertex 74.9 79.65 21.666666666666668
      vertex 23.366666666666674 77.25 21.666666666666668
      vertex 25.76666666666668 77.25 21.666666666666668
    endloop
  endfacet
  facet normal 0 0 1
    outer loop
      vertex 74.9 79.65 21.666666666666668
      vertex 72.50000000000003 77.25 21.666666666666668
      vertex 72.50000000000003 -24.15000000000002 21.666666666666668
    endloop
  endfacet
  facet normal 0 0 1
    outer loop
      vertex 74.9 79.65 21.666666666666668
      vertex 25.76666666666668 77.25 21.666666666666668
      vertex 72.50000000000003 77.25 21.666666666666668
    endloop
  endfacet
  facet normal 0 1 0
    outer loop
      vertex -72.5 -24.15000000000002 1.6
      vertex -72.5 -24.15000000000002 21.666666666666668
      vertex -25.76666666666666 -24.15000000000002 1.6
    endloop
  endfacet
  facet normal 0 1 0
    outer loop
      vertex -25.76666666666666 -24.15000000000002 1.6
      vertex -72.5 -24.15000000000002 21.666666666666668
      vertex -25.76666666666666 -24.15000000000002 21.666666666666668
    endloop
  endfacet
  facet normal 0 0 1
    outer loop
      vertex -72.5 -24.15000000000002 1.6
      vertex -25.76666666666666 -24.15000000000002 1.6
      vertex -25.76666666666666 77.25 1.6
    endloop
  endfacet
  facet normal 0 0 1
    outer loop
      vertex -72.5 -24.15000000000002 1.6
      vertex -25.76666666666666 77.25 1.6
      vertex -72.5 77.25 1.6
    endloop
  endfacet
  facet normal 1 0 0
    outer loop
      vertex -72.5 -24.15000000000002 1.6
      vertex -72.5 77.25 1.6
      vertex -72.5 77.25 21.666666666666668
    endloop
  endfacet
  facet normal 0 -1 0
    outer loop
      vertex -72.5 77.25 1.6
      vertex -25.76666666666666 77.25 1.6
      vertex -25.76666666666666 77.25 21.666666666666668
    endloop
  endfacet
  facet normal -1 0 0
    outer loop
      vertex -25.76666666666666 -24.15000000000002 1.6
      vertex -25.76666666666666 -24.15000000000002 21.666666666666668
      vertex -25.76666666666666 77.25 1.6
    endloop
  endfacet
  facet normal 1 0 0
    outer loop
      vertex -72.5 -24.15000000000002 1.6
      vertex -72.5 77.25 21.666666666666668
      vertex -72.5 -24.15000000000002 21.666666666666668
    endloop
  endfacet
  facet normal 0 -1 0
    outer loop
      vertex -72.5 77.25 1.6
      vertex -25.76666666666666 77.25 21.666666666666668
      vertex -72.5 77.25 21.666666666666668
    endloop
  endfacet
  facet normal -1 0 0
    outer loop
      vertex -25.76666666666666 77.25 1.6
      vertex -25.76666666666666 -24.15000000000002 21.666666666666668
      vertex -25.76666666666666 77.25 21.666666666666668
    endloop
  endfacet
  facet normal 0 0 1
    outer loop
      vertex -72.5 -77.25000000000003 1.6
      vertex -25.76666666666666 -26.55000000000002 1.6
      vertex -72.5 -26.55000000000002 1.6
    endloop
  endfacet
  facet normal 0 0 1
    outer loop
      vertex -72.5 -77.25000000000003 1.6
      vertex -25.76666666666666 -77.25000000000003 1.6
      vertex -25.76666666666666 -26.55000000000002 1.6
    endloop
  endfacet
  facet normal 0 1 0
    outer loop
      vertex -72.5 -77.25000000000003 1.6
      vertex -72.5 -77.25000000000003 21.666666666666668
      vertex -25.76666666666666 -77.25000000000003 1.6
    endloop
  endfacet
  facet normal 1 0 0
    outer loop
      vertex -72.5 -77.25000000000003 1.6
      vertex -72.5 -26.55000000000002 1.6
      vertex -72.5 -26.55000000000002 21.666666666666668
    endloop
  endfacet
  facet normal 0 -1 0
    outer loop
      vertex -72.5 -26.55000000000002 1.6
      vertex -25.76666666666666 -26.55000000000002 1.6
      vertex -25.76666666666666 -26.55000000000002 21.666666666666668
    endloop
  endfacet
  facet normal -1 0 0
    outer loop
      vertex -25.76666666666666 -77.25000000000003 1.6
      vertex -25.76666666666666 -77.25000000000003 21.666666666666668
      vertex -25.76666666666666 -26.55000000000002 1.6
    endloop
  endfacet
  facet normal 1 0 0
    outer loop
      vertex -72.5 -77.25000000000003 1.6
      vertex -72.5 -26.55000000000002 21.666666666666668
      vertex -72.5 -77.25000000000003 21.666666666666668
    endloop
  endfacet
  facet normal 0 1 0
    outer loop
      vertex -25.76666666666666 -77.25000000000003 1.6
      vertex -72.5 -77.25000000000003 21.666666666666668
      vertex -25.76666666666666 -77.25000000000003 21.666666666666668
    endloop
  endfacet
  facet normal 0 -1 0
    outer loop
      vertex -72.5 -26.55000000000002 1.6
      vertex -25.76666666666666 -26.55000000000002 21.666666666666668
      vertex -72.5 -26.55000000000002 21.666666666666668
    endloop
  endfacet
  facet normal -1 0 0
    outer loop
      vertex -25.76666666666666 -26.55000000000002 1.6
      vertex -25.76666666666666 -77.25000000000003 21.666666666666668
      vertex -25.76666666666666 -26.55000000000002 21.666666666666668
    endloop
  endfacet
  facet normal 0 1 0
    outer loop
      vertex -23.366666666666667 -24.15000000000002 1.6
      vertex -23.366666666666667 -24.15000000000002 21.666666666666668
      vertex 23.366666666666674 -24.15000000000002 21.666666666666668
    endloop
  endfacet
  facet normal 0 0 1
    outer loop
      vertex -23.366666666666667 -24.15000000000002 1.6
      vertex 23.366666666666674 77.25 1.6
      vertex -23.366666666666667 77.25 1.6
    endloop
  endfacet
  facet normal 1 0 0
    outer loop
      vertex -23.366666666666667 -24.15000000000002 1.6
      vertex -23.366666666666667 77.25 1.6
      vertex -23.366666666666667 77.25 21.666666666666668
    endloop
  endfacet
  facet normal 1 0 0
    outer loop
      vertex -23.366666666666667 -24.15000000000002 1.6
      vertex -23.366666666666667 77.25 21.666666666666668
      vertex -23.366666666666667 -24.15000000000002 21.666666666666668
    endloop
  endfacet
  facet normal 0 -1 0
    outer loop
      vertex -23.366666666666667 77.25 1.6
      vertex 23.366666666666674 77.25 21.666666666666668
      vertex -23.366666666666667 77.25 21.666666666666668
    endloop
  endfacet
  facet normal 0 1 0
    outer loop
      vertex -23.366666666666667 -24.15000000000002 1.6
      vertex 23.366666666666674 -24.15000000000002 21.666666666666668
      vertex 23.366666666666674 -24.15000000000002 1.6
    endloop
  endfacet
  facet normal 0 0 1
    outer loop
      vertex -23.366666666666667 -24.15000000000002 1.6
      vertex 23.366666666666674 -24.15000000000002 1.6
      vertex 23.366666666666674 77.25 1.6
    endloop
  endfacet
  facet normal -1 0 0
    outer loop
      vertex 23.366666666666674 -24.15000000000002 1.6
      vertex 23.366666666666674 -24.15000000000002 21.666666666666668
      vertex 23.366666666666674 77.25 1.6
    endloop
  endfacet
  facet normal 0 -1 0
    outer loop
      vertex -23.366666666666667 77.25 1.6
      vertex 23.366666666666674 77.25 1.6
      vertex 23.366666666666674 77.25 21.666666666666668
    endloop
  endfacet
  facet normal -1 0 0
    outer loop
      vertex 23.366666666666674 77.25 1.6
      vertex 23.366666666666674 -24.15000000000002 21.666666666666668
      vertex 23.366666666666674 77.25 21.666666666666668
    endloop
  endfacet
  facet normal 0 0 1
    outer loop
      vertex -23.366666666666667 -77.25000000000003 1.6
      vertex 23.366666666666674 -26.55000000000002 1.6
      vertex -23.366666666666667 -26.55000000000002 1.6
    endloop
  endfacet
  facet normal 1 0 0
    outer loop
      vertex -23.366666666666667 -77.25000000000003 1.6
      vertex -23.366666666666667 -26.55000000000002 1.6
      vertex -23.366666666666667 -26.55000000000002 21.666666666666668
    endloop
  endfacet
  facet normal 0 1 0
    outer loop
      vertex -23.366666666666667 -77.25000000000003 1.6
      vertex -23.366666666666667 -77.25000000000003 21.666666666666668
      vertex 23.366666666666674 -77.25000000000003 1.6
    endloop
  endfacet
  facet normal 1 0 0
    outer loop
      vertex -23.366666666666667 -77.25000000000003 1.6
      vertex -23.366666666666667 -26.55000000000002 21.666666666666668
      vertex -23.366666666666667 -77.25000000000003 21.666666666666668
    endloop
  endfacet
  facet normal 0 -1 0
    outer loop
      vertex -23.366666666666667 -26.55000000000002 1.6
      vertex 23.366666666666674 -26.55000000000002 21.666666666666668
      vertex -23.366666666666667 -26.55000000000002 21.666666666666668
    endloop
  endfacet
  facet normal 0 0 1
    outer loop
      vertex -23.366666666666667 -77.25000000000003 1.6
      vertex 23.366666666666674 -77.25000000000003 1.6
      vertex 23.366666666666674 -26.55000000000002 1.6
    endloop
  endfacet
  facet normal -1 0 0
    outer loop
      vertex 23.366666666666674 -77.25000000000003 1.6
      vertex 23.366666666666674 -77.25000000000003 21.666666666666668
      vertex 23.366666666666674 -26.55000000000002 1.6
    endloop
  endfacet
  facet normal 0 -1 0
    outer loop
      vertex -23.366666666666667 -26.55000000000002 1.6
      vertex 23.366666666666674 -26.55000000000002 1.6
      vertex 23.366666666666674 -26.55000000000002 21.666666666666668
    endloop
  endfacet
  facet normal 0 1 0
    outer loop
      vertex 23.366666666666674 -77.25000000000003 1.6
      vertex -23.366666666666667 -77.25000000000003 21.666666666666668
      vertex 23.366666666666674 -77.25000000000003 21.666666666666668
    endloop
  endfacet
  facet normal -1 0 0
    outer loop
      vertex 23.366666666666674 -26.55000000000002 1.6
      vertex 23.366666666666674 -77.25000000000003 21.666666666666668
      vertex 23.366666666666674 -26.55000000000002 21.666666666666668
    endloop
  endfacet
  facet normal 0 1 0
    outer loop
      vertex 25.76666666666668 -24.15000000000002 1.6
      vertex 72.50000000000003 -24.15000000000002 21.666666666666668
      vertex 72.50000000000003 -24.15000000000002 1.6
    endloop
  endfacet
  facet normal 0 1 0
    outer loop
      vertex 25.76666666666668 -24.15000000000002 1.6
      vertex 25.76666666666668 -24.15000000000002 21.666666666666668
      vertex 72.50000000000003 -24.15000000000002 21.666666666666668
    endloop
  endfacet
  facet normal 1 0 0
    outer loop
      vertex 25.76666666666668 -24.15000000000002 1.6
      vertex 25.76666666666668 77.25 1.6
      vertex 25.76666666666668 77.25 21.666666666666668
    endloop
  endfacet
  facet normal 0 0 1
    outer loop
      vertex 25.76666666666668 -24.15000000000002 1.6
      vertex 72.50000000000003 -24.15000000000002 1.6
      vertex 72.50000000000003 77.25 1.6
    endloop
  endfacet
  facet normal -1 0 0
    outer loop
      vertex 72.50000000000003 -24.15000000000002 1.6
      vertex 72.50000000000003 -24.15000000000002 21.666666666666668
      vertex 72.50000000000003 77.25 1.6
    endloop
  endfacet
  facet normal 0 0 1
    outer loop
      vertex 25.76666666666668 -24.15000000000002 1.6
      vertex 72.50000000000003 77.25 1.6
      vertex 25.76666666666668 77.25 1.6
    endloop
  endfacet
  facet normal 0 -1 0
    outer loop
      vertex 25.76666666666668 77.25 1.6
      vertex 72.50000000000003 77.25 1.6
      vertex 72.50000000000003 77.25 21.666666666666668
    endloop
  endfacet
  facet normal 1 0 0
    outer loop
      vertex 25.76666666666668 -24.15000000000002 1.6
      vertex 25.76666666666668 77.25 21.666666666666668
      vertex 25.76666666666668 -24.15000000000002 21.666666666666668
    endloop
  endfacet
  facet normal 0 -1 0
    outer loop
      vertex 25.76666666666668 77.25 1.6
      vertex 72.50000000000003 77.25 21.666666666666668
      vertex 25.76666666666668 77.25 21.666666666666668
    endloop
  endfacet
  facet normal -1 0 0
    outer loop
      vertex 72.50000000000003 77.25 1.6
      vertex 72.50000000000003 -24.15000000000002 21.666666666666668
      vertex 72.50000000000003 77.25 21.666666666666668
    endloop
  endfacet
  facet normal 1 0 0
    outer loop
      vertex 25.76666666666668 -77.25000000000003 1.6
      vertex 25.76666666666668 -26.55000000000002 1.6
      vertex 25.76666666666668 -26.55000000000002 21.666666666666668
    endloop
  endfacet
  facet normal 0 0 1
    outer loop
      vertex 25.76666666666668 -77.25000000000003 1.6
      vertex 72.50000000000003 -26.55000000000002 1.6
      vertex 25.76666666666668 -26.55000000000002 1.6
    endloop
  endfacet
  facet normal 0 0 1
    outer loop
      vertex 25.76666666666668 -77.25000000000003 1.6
      vertex 72.50000000000003 -77.25000000000003 1.6
      vertex 72.50000000000003 -26.55000000000002 1.6
    endloop
  endfacet
  facet normal 0 1 0
    outer loop
      vertex 25.76666666666668 -77.25000000000003 1.6
      vertex 25.76666666666668 -77.25000000000003 21.666666666666668
      vertex 72.50000000000003 -77.25000000000003 1.6
    endloop
  endfacet
  facet normal -1 0 0
    outer loop
      vertex 72.50000000000003 -77.25000000000003 1.6
      vertex 72.50000000000003 -77.25000000000003 21.666666666666668
      vertex 72.50000000000003 -26.55000000000002 1.6
    endloop
  endfacet
  facet normal 0 -1 0
    outer loop
      vertex 25.76666666666668 -26.55000000000002 1.6
      vertex 72.50000000000003 -26.55000000000002 1.6
      vertex 72.50000000000003 -26.55000000000002 21.666666666666668
    endloop
  endfacet
  facet normal 1 0 0
    outer loop
      vertex 25.76666666666668 -77.25000000000003 1.6
      vertex 25.76666666666668 -26.55000000000002 21.666666666666668
      vertex 25.76666666666668 -77.25000000000003 21.666666666666668
    endloop
  endfacet
  facet normal 0 1 0
    outer loop
      vertex 72.50000000000003 -77.25000000000003 1.6
      vertex 25.76666666666668 -77.25000000000003 21.666666666666668
      vertex 72.50000000000003 -77.25000000000003 21.666666666666668
    endloop
  endfacet
  facet normal -1 0 0
    outer loop
      vertex 72.50000000000003 -26.55000000000002 1.6
      vertex 72.50000000000003 -77.25000000000003 21.666666666666668
      vertex 72.50000000000003 -26.55000000000002 21.666666666666668
    endloop
  endfacet
  facet normal 0 -1 0
    outer loop
      vertex 25.76666666666668 -26.55000000000002 1.6
      vertex 72.50000000000003 -26.55000000000002 21.666666666666668
      vertex 25.76666666666668 -26.55000000000002 21.666666666666668
    endloop
  endfacet
endsolid OpenSCAD_Model
