<?xml version="1.0" encoding="UTF-8" standalone="no"?>
<!DOCTYPE svg PUBLIC "-//W3C//DTD SVG 1.1//EN"
 "http://www.w3.org/Graphics/SVG/1.1/DTD/svg11.dtd">
<!-- Generated by graphviz version 5.0.0 (20220707.1540)
 -->
<!-- Title: B6x1 Pages: 1 -->
<svg width="302pt" height="368pt"
 viewBox="0.00 0.00 301.69 368.00" xmlns="http://www.w3.org/2000/svg" xmlns:xlink="http://www.w3.org/1999/xlink">
<g id="graph0" class="graph" transform="scale(1 1) rotate(0) translate(4 364)">
<title>B6x1</title>
<polygon fill="white" stroke="transparent" points="-4,4 -4,-364 297.69,-364 297.69,4 -4,4"/>
<!-- root_302 -->
<g id="node1" class="node">
<title>root_302</title>
<g id="a_node1"><a xlink:href="javascript:s=&quot;\(\)\nNone&quot;; console.log(s); alert(s);" xlink:title="root">
<ellipse fill="none" stroke="black" cx="27" cy="-180" rx="27" ry="18"/>
<text text-anchor="middle" x="27" y="-176.3" font-family="Times New Roman,serif" font-size="14.00">root</text>
</a>
</g>
</g>
<!-- B6x1_303 -->
<g id="node2" class="node">
<title>B6x1_303</title>
<g id="a_node2"><a xlink:href="javascript:s=&quot;\(&#x27;B6x1&#x27;,\)\nSimpleGridBox&quot;; console.log(s); alert(s);" xlink:title="SimpleGridBox">
<ellipse fill="none" stroke="black" cx="119.9" cy="-180" rx="29.8" ry="18"/>
<text text-anchor="middle" x="119.9" y="-176.3" font-family="Times New Roman,serif" font-size="14.00">B6x1</text>
</a>
</g>
</g>
<!-- root_302&#45;&gt;B6x1_303 -->
<g id="edge1" class="edge">
<title>root_302&#45;&gt;B6x1_303</title>
<path fill="none" stroke="black" d="M54.29,-180C62.19,-180 71.04,-180 79.59,-180"/>
<polygon fill="black" stroke="black" points="79.8,-183.5 89.8,-180 79.8,-176.5 79.8,-183.5"/>
</g>
<!-- box_304 -->
<g id="node3" class="node">
<title>box_304</title>
<g id="a_node3"><a xlink:href="javascript:s=&quot;\(&#x27;B6x1&#x27;,\ &#x27;box&#x27;\)\nBox&quot;; console.log(s); alert(s);" xlink:title="Box">
<ellipse fill="none" stroke="black" cx="239.74" cy="-342" rx="27" ry="18"/>
<text text-anchor="middle" x="239.74" y="-338.3" font-family="Times New Roman,serif" font-size="14.00">box</text>
</a>
</g>
</g>
<!-- B6x1_303&#45;&gt;box_304 -->
<g id="edge2" class="edge">
<title>B6x1_303&#45;&gt;box_304</title>
<path fill="none" stroke="black" d="M125.48,-197.91C133.46,-226 152.36,-280.77 185.79,-315 191.52,-320.86 198.8,-325.69 206.1,-329.56"/>
<polygon fill="black" stroke="black" points="204.73,-332.78 215.26,-333.95 207.76,-326.47 204.73,-332.78"/>
</g>
<!-- hole_305 -->
<g id="node4" class="node">
<title>hole_305</title>
<g id="a_node4"><a xlink:href="javascript:s=&quot;\(&#x27;B6x1&#x27;,\ \(&#x27;hole&#x27;,\ 0,\ 0\)\)\nBox&quot;; console.log(s); alert(s);" xlink:title="Box">
<ellipse fill="none" stroke="black" cx="239.74" cy="-288" rx="53.89" ry="18"/>
<text text-anchor="middle" x="239.74" y="-284.3" font-family="Times New Roman,serif" font-size="14.00">(&#39;hole&#39;, 0, 0)</text>
</a>
</g>
</g>
<!-- B6x1_303&#45;&gt;hole_305 -->
<g id="edge3" class="edge">
<title>B6x1_303&#45;&gt;hole_305</title>
<path fill="none" stroke="black" d="M131.35,-196.96C142.94,-214.69 163.02,-242.45 185.79,-261 189.26,-263.83 193.08,-266.47 197.02,-268.91"/>
<polygon fill="black" stroke="black" points="195.35,-271.99 205.76,-273.92 198.83,-265.91 195.35,-271.99"/>
</g>
<!-- hole_306 -->
<g id="node5" class="node">
<title>hole_306</title>
<g id="a_node5"><a xlink:href="javascript:s=&quot;\(&#x27;B6x1&#x27;,\ \(&#x27;hole&#x27;,\ 1,\ 0\)\)\nBox&quot;; console.log(s); alert(s);" xlink:title="Box">
<ellipse fill="none" stroke="black" cx="239.74" cy="-234" rx="53.89" ry="18"/>
<text text-anchor="middle" x="239.74" y="-230.3" font-family="Times New Roman,serif" font-size="14.00">(&#39;hole&#39;, 1, 0)</text>
</a>
</g>
</g>
<!-- B6x1_303&#45;&gt;hole_306 -->
<g id="edge4" class="edge">
<title>B6x1_303&#45;&gt;hole_306</title>
<path fill="none" stroke="black" d="M144.18,-190.67C159.49,-197.68 179.94,-207.05 197.9,-215.29"/>
<polygon fill="black" stroke="black" points="196.48,-218.49 207.03,-219.47 199.4,-212.12 196.48,-218.49"/>
</g>
<!-- hole_307 -->
<g id="node6" class="node">
<title>hole_307</title>
<g id="a_node6"><a xlink:href="javascript:s=&quot;\(&#x27;B6x1&#x27;,\ \(&#x27;hole&#x27;,\ 2,\ 0\)\)\nBox&quot;; console.log(s); alert(s);" xlink:title="Box">
<ellipse fill="none" stroke="black" cx="239.74" cy="-180" rx="53.89" ry="18"/>
<text text-anchor="middle" x="239.74" y="-176.3" font-family="Times New Roman,serif" font-size="14.00">(&#39;hole&#39;, 2, 0)</text>
</a>
</g>
</g>
<!-- B6x1_303&#45;&gt;hole_307 -->
<g id="edge5" class="edge">
<title>B6x1_303&#45;&gt;hole_307</title>
<path fill="none" stroke="black" d="M150.03,-180C157.85,-180 166.63,-180 175.53,-180"/>
<polygon fill="black" stroke="black" points="175.6,-183.5 185.6,-180 175.6,-176.5 175.6,-183.5"/>
</g>
<!-- hole_308 -->
<g id="node7" class="node">
<title>hole_308</title>
<g id="a_node7"><a xlink:href="javascript:s=&quot;\(&#x27;B6x1&#x27;,\ \(&#x27;hole&#x27;,\ 3,\ 0\)\)\nBox&quot;; console.log(s); alert(s);" xlink:title="Box">
<ellipse fill="none" stroke="black" cx="239.74" cy="-126" rx="53.89" ry="18"/>
<text text-anchor="middle" x="239.74" y="-122.3" font-family="Times New Roman,serif" font-size="14.00">(&#39;hole&#39;, 3, 0)</text>
</a>
</g>
</g>
<!-- B6x1_303&#45;&gt;hole_308 -->
<g id="edge6" class="edge">
<title>B6x1_303&#45;&gt;hole_308</title>
<path fill="none" stroke="black" d="M144.18,-169.33C159.49,-162.32 179.94,-152.95 197.9,-144.71"/>
<polygon fill="black" stroke="black" points="199.4,-147.88 207.03,-140.53 196.48,-141.51 199.4,-147.88"/>
</g>
<!-- hole_309 -->
<g id="node8" class="node">
<title>hole_309</title>
<g id="a_node8"><a xlink:href="javascript:s=&quot;\(&#x27;B6x1&#x27;,\ \(&#x27;hole&#x27;,\ 4,\ 0\)\)\nBox&quot;; console.log(s); alert(s);" xlink:title="Box">
<ellipse fill="none" stroke="black" cx="239.74" cy="-72" rx="53.89" ry="18"/>
<text text-anchor="middle" x="239.74" y="-68.3" font-family="Times New Roman,serif" font-size="14.00">(&#39;hole&#39;, 4, 0)</text>
</a>
</g>
</g>
<!-- B6x1_303&#45;&gt;hole_309 -->
<g id="edge7" class="edge">
<title>B6x1_303&#45;&gt;hole_309</title>
<path fill="none" stroke="black" d="M131.35,-163.04C142.94,-145.31 163.02,-117.55 185.79,-99 189.26,-96.17 193.08,-93.53 197.02,-91.09"/>
<polygon fill="black" stroke="black" points="198.83,-94.09 205.76,-86.08 195.35,-88.01 198.83,-94.09"/>
</g>
<!-- hole_310 -->
<g id="node9" class="node">
<title>hole_310</title>
<g id="a_node9"><a xlink:href="javascript:s=&quot;\(&#x27;B6x1&#x27;,\ \(&#x27;hole&#x27;,\ 5,\ 0\)\)\nBox&quot;; console.log(s); alert(s);" xlink:title="Box">
<ellipse fill="none" stroke="black" cx="239.74" cy="-18" rx="53.89" ry="18"/>
<text text-anchor="middle" x="239.74" y="-14.3" font-family="Times New Roman,serif" font-size="14.00">(&#39;hole&#39;, 5, 0)</text>
</a>
</g>
</g>
<!-- B6x1_303&#45;&gt;hole_310 -->
<g id="edge8" class="edge">
<title>B6x1_303&#45;&gt;hole_310</title>
<path fill="none" stroke="black" d="M125.48,-162.09C133.46,-134 152.36,-79.23 185.79,-45 188.63,-42.09 191.85,-39.44 195.27,-37.04"/>
<polygon fill="black" stroke="black" points="197.42,-39.82 204.05,-31.56 193.71,-33.88 197.42,-39.82"/>
</g>
</g>
</svg>
