solid OpenSCAD_Model
  facet normal 0 0 1
    outer loop
      vertex -80.025 -86.525 21.666666666666668
      vertex -77.625 -84.12500000000001 21.666666666666668
      vertex -77.625 -52.39500000000001 21.666666666666668
    endloop
  endfacet
  facet normal 0 0 1
    outer loop
      vertex -80.025 -86.525 21.666666666666668
      vertex -40.6125 -84.12500000000001 21.666666666666668
      vertex -77.625 -84.12500000000001 21.666666666666668
    endloop
  endfacet
  facet normal 0 0 1
    outer loop
      vertex -80.025 -86.525 21.666666666666668
      vertex -77.625 -52.39500000000001 21.666666666666668
      vertex -77.625 -49.99500000000002 21.666666666666668
    endloop
  endfacet
  facet normal 0 0 1
    outer loop
      vertex -80.025 -86.525 21.666666666666668
      vertex -77.625 -49.99500000000002 21.666666666666668
      vertex -77.625 -18.265000000000015 21.666666666666668
    endloop
  endfacet
  facet normal 0 0 1
    outer loop
      vertex -77.625 -52.39500000000001 21.666666666666668
      vertex -40.6125 -52.39500000000001 21.666666666666668
      vertex -77.625 -49.99500000000002 21.666666666666668
    endloop
  endfacet
  facet normal 0 0 1
    outer loop
      vertex -80.025 -86.525 21.666666666666668
      vertex -38.212500000000006 -84.12500000000001 21.666666666666668
      vertex -40.6125 -84.12500000000001 21.666666666666668
    endloop
  endfacet
  facet normal 0 0 1
    outer loop
      vertex -40.6125 -49.99500000000002 21.666666666666668
      vertex -77.625 -49.99500000000002 21.666666666666668
      vertex -40.6125 -52.39500000000001 21.666666666666668
    endloop
  endfacet
  facet normal -1 0 0
    outer loop
      vertex -80.025 -86.525 0
      vertex -80.025 -86.525 21.666666666666668
      vertex -80.025 86.525 21.666666666666668
    endloop
  endfacet
  facet normal 0 0 1
    outer loop
      vertex -80.025 -86.525 21.666666666666668
      vertex -77.625 -18.265000000000015 21.666666666666668
      vertex -77.625 -15.865000000000009 21.666666666666668
    endloop
  endfacet
  facet normal 0 0 1
    outer loop
      vertex -80.025 -86.525 21.666666666666668
      vertex -77.625 -15.865000000000009 21.666666666666668
      vertex -77.625 15.864999999999995 21.666666666666668
    endloop
  endfacet
  facet normal 0 0 1
    outer loop
      vertex -80.025 -86.525 21.666666666666668
      vertex -77.625 15.864999999999995 21.666666666666668
      vertex -77.625 18.265 21.666666666666668
    endloop
  endfacet
  facet normal 0 0 1
    outer loop
      vertex -77.625 -18.265000000000015 21.666666666666668
      vertex -40.6125 -18.265000000000015 21.666666666666668
      vertex -77.625 -15.865000000000009 21.666666666666668
    endloop
  endfacet
  facet normal 0 0 1
    outer loop
      vertex -40.6125 -15.865000000000009 21.666666666666668
      vertex -77.625 -15.865000000000009 21.666666666666668
      vertex -40.6125 -18.265000000000015 21.666666666666668
    endloop
  endfacet
  facet normal 0 -1 0
    outer loop
      vertex -80.025 -86.525 0
      vertex 80.025 -86.525 21.666666666666668
      vertex -80.025 -86.525 21.666666666666668
    endloop
  endfacet
  facet normal 0 0 1
    outer loop
      vertex -80.025 -86.525 21.666666666666668
      vertex -1.2000000000000028 -84.12500000000001 21.666666666666668
      vertex -38.212500000000006 -84.12500000000001 21.666666666666668
    endloop
  endfacet
  facet normal 0 0 1
    outer loop
      vertex -40.6125 -84.12500000000001 21.666666666666668
      vertex -38.212500000000006 -84.12500000000001 21.666666666666668
      vertex -38.212500000000006 -52.39500000000001 21.666666666666668
    endloop
  endfacet
  facet normal 0 0 1
    outer loop
      vertex -80.025 -86.525 21.666666666666668
      vertex 1.2000000000000028 -84.12500000000001 21.666666666666668
      vertex -1.2000000000000028 -84.12500000000001 21.666666666666668
    endloop
  endfacet
  facet normal 0 0 1
    outer loop
      vertex -40.6125 -84.12500000000001 21.666666666666668
      vertex -38.212500000000006 -52.39500000000001 21.666666666666668
      vertex -40.6125 -52.39500000000001 21.666666666666668
    endloop
  endfacet
  facet normal 0 0 1
    outer loop
      vertex -38.212500000000006 -52.39500000000001 21.666666666666668
      vertex -38.212500000000006 -49.99500000000002 21.666666666666668
      vertex -40.6125 -52.39500000000001 21.666666666666668
    endloop
  endfacet
  facet normal 0 0 1
    outer loop
      vertex -40.6125 -49.99500000000002 21.666666666666668
      vertex -40.6125 -52.39500000000001 21.666666666666668
      vertex -38.212500000000006 -49.99500000000002 21.666666666666668
    endloop
  endfacet
  facet normal 0 0 1
    outer loop
      vertex -38.212500000000006 -52.39500000000001 21.666666666666668
      vertex -1.2000000000000028 -52.39500000000001 21.666666666666668
      vertex -38.212500000000006 -49.99500000000002 21.666666666666668
    endloop
  endfacet
  facet normal 0 0 1
    outer loop
      vertex -80.025 -86.525 21.666666666666668
      vertex 38.212500000000006 -84.12500000000001 21.666666666666668
      vertex 1.2000000000000028 -84.12500000000001 21.666666666666668
    endloop
  endfacet
  facet normal 0 0 1
    outer loop
      vertex -80.025 -86.525 21.666666666666668
      vertex 40.61250000000001 -84.12500000000001 21.666666666666668
      vertex 38.212500000000006 -84.12500000000001 21.666666666666668
    endloop
  endfacet
  facet normal 0 0 1
    outer loop
      vertex -1.2000000000000028 -49.99500000000002 21.666666666666668
      vertex -38.212500000000006 -49.99500000000002 21.666666666666668
      vertex -1.2000000000000028 -52.39500000000001 21.666666666666668
    endloop
  endfacet
  facet normal 0 0 1
    outer loop
      vertex -1.2000000000000028 -84.12500000000001 21.666666666666668
      vertex 1.2000000000000028 -52.39500000000001 21.666666666666668
      vertex -1.2000000000000028 -52.39500000000001 21.666666666666668
    endloop
  endfacet
  facet normal 0 0 1
    outer loop
      vertex -1.2000000000000028 -49.99500000000002 21.666666666666668
      vertex -1.2000000000000028 -52.39500000000001 21.666666666666668
      vertex 1.2000000000000028 -49.99500000000002 21.666666666666668
    endloop
  endfacet
  facet normal 0 0 1
    outer loop
      vertex -40.6125 -49.99500000000002 21.666666666666668
      vertex -38.212500000000006 -49.99500000000002 21.666666666666668
      vertex -38.212500000000006 -18.265000000000015 21.666666666666668
    endloop
  endfacet
  facet normal 0 0 1
    outer loop
      vertex -40.6125 -49.99500000000002 21.666666666666668
      vertex -38.212500000000006 -18.265000000000015 21.666666666666668
      vertex -40.6125 -18.265000000000015 21.666666666666668
    endloop
  endfacet
  facet normal 0 0 1
    outer loop
      vertex -40.6125 -15.865000000000009 21.666666666666668
      vertex -40.6125 -18.265000000000015 21.666666666666668
      vertex -38.212500000000006 -15.865000000000009 21.666666666666668
    endloop
  endfacet
  facet normal 0 0 1
    outer loop
      vertex -38.212500000000006 -18.265000000000015 21.666666666666668
      vertex -38.212500000000006 -15.865000000000009 21.666666666666668
      vertex -40.6125 -18.265000000000015 21.666666666666668
    endloop
  endfacet
  facet normal 0 0 1
    outer loop
      vertex -38.212500000000006 -15.865000000000009 21.666666666666668
      vertex -38.212500000000006 15.864999999999995 21.666666666666668
      vertex -40.6125 -15.865000000000009 21.666666666666668
    endloop
  endfacet
  facet normal 0 0 1
    outer loop
      vertex -38.212500000000006 -18.265000000000015 21.666666666666668
      vertex -1.2000000000000028 -18.265000000000015 21.666666666666668
      vertex -38.212500000000006 -15.865000000000009 21.666666666666668
    endloop
  endfacet
  facet normal 0 0 1
    outer loop
      vertex -1.2000000000000028 -49.99500000000002 21.666666666666668
      vertex 1.2000000000000028 -18.265000000000015 21.666666666666668
      vertex -1.2000000000000028 -18.265000000000015 21.666666666666668
    endloop
  endfacet
  facet normal 0 0 1
    outer loop
      vertex -1.2000000000000028 -15.865000000000009 21.666666666666668
      vertex -38.212500000000006 -15.865000000000009 21.666666666666668
      vertex -1.2000000000000028 -18.265000000000015 21.666666666666668
    endloop
  endfacet
  facet normal 0 0 1
    outer loop
      vertex -1.2000000000000028 -15.865000000000009 21.666666666666668
      vertex -1.2000000000000028 -18.265000000000015 21.666666666666668
      vertex 1.2000000000000028 -18.265000000000015 21.666666666666668
    endloop
  endfacet
  facet normal -1 0 0
    outer loop
      vertex -80.025 -86.525 0
      vertex -80.025 86.525 21.666666666666668
      vertex -80.025 86.525 0
    endloop
  endfacet
  facet normal 0 0 -1
    outer loop
      vertex -80.025 -86.525 0
      vertex -80.025 86.525 0
      vertex 80.025 86.525 0
    endloop
  endfacet
  facet normal 0 1 0
    outer loop
      vertex -80.025 86.525 0
      vertex -80.025 86.525 21.666666666666668
      vertex 80.025 86.525 0
    endloop
  endfacet
  facet normal 0 0 1
    outer loop
      vertex -80.025 -86.525 21.666666666666668
      vertex -77.625 18.265 21.666666666666668
      vertex -80.025 86.525 21.666666666666668
    endloop
  endfacet
  facet normal 0 0 1
    outer loop
      vertex -77.625 15.864999999999995 21.666666666666668
      vertex -40.6125 15.864999999999995 21.666666666666668
      vertex -77.625 18.265 21.666666666666668
    endloop
  endfacet
  facet normal 0 0 1
    outer loop
      vertex -40.6125 18.265 21.666666666666668
      vertex -77.625 18.265 21.666666666666668
      vertex -40.6125 15.864999999999995 21.666666666666668
    endloop
  endfacet
  facet normal 0 0 1
    outer loop
      vertex -80.025 86.525 21.666666666666668
      vertex -77.625 18.265 21.666666666666668
      vertex -77.625 49.995000000000005 21.666666666666668
    endloop
  endfacet
  facet normal 0 0 1
    outer loop
      vertex -80.025 86.525 21.666666666666668
      vertex -77.625 49.995000000000005 21.666666666666668
      vertex -77.625 52.394999999999996 21.666666666666668
    endloop
  endfacet
  facet normal 0 0 1
    outer loop
      vertex -77.625 49.995000000000005 21.666666666666668
      vertex -40.6125 49.995000000000005 21.666666666666668
      vertex -77.625 52.394999999999996 21.666666666666668
    endloop
  endfacet
  facet normal 0 0 1
    outer loop
      vertex -80.025 86.525 21.666666666666668
      vertex -77.625 52.394999999999996 21.666666666666668
      vertex -77.625 84.125 21.666666666666668
    endloop
  endfacet
  facet normal 0 0 1
    outer loop
      vertex -80.025 86.525 21.666666666666668
      vertex -77.625 84.125 21.666666666666668
      vertex -40.6125 84.125 21.666666666666668
    endloop
  endfacet
  facet normal 0 0 1
    outer loop
      vertex -40.6125 52.394999999999996 21.666666666666668
      vertex -77.625 52.394999999999996 21.666666666666668
      vertex -40.6125 49.995000000000005 21.666666666666668
    endloop
  endfacet
  facet normal 0 0 1
    outer loop
      vertex -80.025 86.525 21.666666666666668
      vertex -40.6125 84.125 21.666666666666668
      vertex -38.212500000000006 84.125 21.666666666666668
    endloop
  endfacet
  facet normal 0 0 1
    outer loop
      vertex -38.212500000000006 15.864999999999995 21.666666666666668
      vertex -40.6125 15.864999999999995 21.666666666666668
      vertex -40.6125 -15.865000000000009 21.666666666666668
    endloop
  endfacet
  facet normal 0 0 1
    outer loop
      vertex -40.6125 18.265 21.666666666666668
      vertex -40.6125 15.864999999999995 21.666666666666668
      vertex -38.212500000000006 15.864999999999995 21.666666666666668
    endloop
  endfacet
  facet normal 0 0 1
    outer loop
      vertex -40.6125 18.265 21.666666666666668
      vertex -38.212500000000006 15.864999999999995 21.666666666666668
      vertex -38.212500000000006 18.265 21.666666666666668
    endloop
  endfacet
  facet normal 0 0 1
    outer loop
      vertex -38.212500000000006 15.864999999999995 21.666666666666668
      vertex -1.2000000000000028 15.864999999999995 21.666666666666668
      vertex -38.212500000000006 18.265 21.666666666666668
    endloop
  endfacet
  facet normal 0 0 1
    outer loop
      vertex -38.212500000000006 49.995000000000005 21.666666666666668
      vertex -40.6125 18.265 21.666666666666668
      vertex -38.212500000000006 18.265 21.666666666666668
    endloop
  endfacet
  facet normal 0 0 1
    outer loop
      vertex -40.6125 18.265 21.666666666666668
      vertex -38.212500000000006 49.995000000000005 21.666666666666668
      vertex -40.6125 49.995000000000005 21.666666666666668
    endloop
  endfacet
  facet normal 0 0 1
    outer loop
      vertex -1.2000000000000028 18.265 21.666666666666668
      vertex -38.212500000000006 18.265 21.666666666666668
      vertex -1.2000000000000028 15.864999999999995 21.666666666666668
    endloop
  endfacet
  facet normal 0 0 1
    outer loop
      vertex -1.2000000000000028 -15.865000000000009 21.666666666666668
      vertex 1.2000000000000028 15.864999999999995 21.666666666666668
      vertex -1.2000000000000028 15.864999999999995 21.666666666666668
    endloop
  endfacet
  facet normal 0 0 1
    outer loop
      vertex -1.2000000000000028 18.265 21.666666666666668
      vertex -1.2000000000000028 15.864999999999995 21.666666666666668
      vertex 1.2000000000000028 15.864999999999995 21.666666666666668
    endloop
  endfacet
  facet normal 0 0 1
    outer loop
      vertex -1.2000000000000028 18.265 21.666666666666668
      vertex 1.2000000000000028 15.864999999999995 21.666666666666668
      vertex -1.2000000000000028 49.995000000000005 21.666666666666668
    endloop
  endfacet
  facet normal 0 0 1
    outer loop
      vertex -1.2000000000000028 49.995000000000005 21.666666666666668
      vertex 1.2000000000000028 18.265 21.666666666666668
      vertex -1.2000000000000028 52.394999999999996 21.666666666666668
    endloop
  endfacet
  facet normal 0 0 1
    outer loop
      vertex -40.6125 52.394999999999996 21.666666666666668
      vertex -40.6125 49.995000000000005 21.666666666666668
      vertex -38.212500000000006 49.995000000000005 21.666666666666668
    endloop
  endfacet
  facet normal 0 0 1
    outer loop
      vertex -40.6125 52.394999999999996 21.666666666666668
      vertex -38.212500000000006 49.995000000000005 21.666666666666668
      vertex -40.6125 84.125 21.666666666666668
    endloop
  endfacet
  facet normal 0 0 1
    outer loop
      vertex -40.6125 84.125 21.666666666666668
      vertex -38.212500000000006 49.995000000000005 21.666666666666668
      vertex -38.212500000000006 52.394999999999996 21.666666666666668
    endloop
  endfacet
  facet normal 0 0 1
    outer loop
      vertex -38.212500000000006 52.394999999999996 21.666666666666668
      vertex -38.212500000000006 49.995000000000005 21.666666666666668
      vertex -1.2000000000000028 52.394999999999996 21.666666666666668
    endloop
  endfacet
  facet normal 0 0 1
    outer loop
      vertex -38.212500000000006 84.125 21.666666666666668
      vertex -40.6125 84.125 21.666666666666668
      vertex -38.212500000000006 52.394999999999996 21.666666666666668
    endloop
  endfacet
  facet normal 0 0 1
    outer loop
      vertex -80.025 86.525 21.666666666666668
      vertex -38.212500000000006 84.125 21.666666666666668
      vertex -1.2000000000000028 84.125 21.666666666666668
    endloop
  endfacet
  facet normal 0 0 1
    outer loop
      vertex -80.025 86.525 21.666666666666668
      vertex -1.2000000000000028 84.125 21.666666666666668
      vertex 1.2000000000000028 84.125 21.666666666666668
    endloop
  endfacet
  facet normal 0 0 1
    outer loop
      vertex -1.2000000000000028 49.995000000000005 21.666666666666668
      vertex -1.2000000000000028 52.394999999999996 21.666666666666668
      vertex -38.212500000000006 49.995000000000005 21.666666666666668
    endloop
  endfacet
  facet normal 0 0 1
    outer loop
      vertex -80.025 86.525 21.666666666666668
      vertex 1.2000000000000028 84.125 21.666666666666668
      vertex 38.212500000000006 84.125 21.666666666666668
    endloop
  endfacet
  facet normal 0 0 1
    outer loop
      vertex -1.2000000000000028 52.394999999999996 21.666666666666668
      vertex 1.2000000000000028 84.125 21.666666666666668
      vertex -1.2000000000000028 84.125 21.666666666666668
    endloop
  endfacet
  facet normal 0 0 1
    outer loop
      vertex -80.025 86.525 21.666666666666668
      vertex 38.212500000000006 84.125 21.666666666666668
      vertex 40.61250000000001 84.125 21.666666666666668
    endloop
  endfacet
  facet normal 0 -1 0
    outer loop
      vertex -80.025 -86.525 0
      vertex 80.025 -86.525 0
      vertex 80.025 -86.525 21.666666666666668
    endloop
  endfacet
  facet normal 0 0 -1
    outer loop
      vertex -80.025 -86.525 0
      vertex 80.025 86.525 0
      vertex 80.025 -86.525 0
    endloop
  endfacet
  facet normal 1 0 0
    outer loop
      vertex 80.025 -86.525 0
      vertex 80.025 86.525 0
      vertex 80.025 -86.525 21.666666666666668
    endloop
  endfacet
  facet normal 0 0 1
    outer loop
      vertex -1.2000000000000028 -84.12500000000001 21.666666666666668
      vertex 1.2000000000000028 -84.12500000000001 21.666666666666668
      vertex 1.2000000000000028 -52.39500000000001 21.666666666666668
    endloop
  endfacet
  facet normal 0 0 1
    outer loop
      vertex -80.025 -86.525 21.666666666666668
      vertex 80.025 -86.525 21.666666666666668
      vertex 40.61250000000001 -84.12500000000001 21.666666666666668
    endloop
  endfacet
  facet normal 0 0 1
    outer loop
      vertex -1.2000000000000028 -52.39500000000001 21.666666666666668
      vertex 1.2000000000000028 -52.39500000000001 21.666666666666668
      vertex 1.2000000000000028 -49.99500000000002 21.666666666666668
    endloop
  endfacet
  facet normal 0 0 1
    outer loop
      vertex 1.2000000000000028 -52.39500000000001 21.666666666666668
      vertex 38.212500000000006 -52.39500000000001 21.666666666666668
      vertex 1.2000000000000028 -49.99500000000002 21.666666666666668
    endloop
  endfacet
  facet normal 0 0 1
    outer loop
      vertex 38.212500000000006 -84.12500000000001 21.666666666666668
      vertex 40.61250000000001 -84.12500000000001 21.666666666666668
      vertex 40.61250000000001 -52.39500000000001 21.666666666666668
    endloop
  endfacet
  facet normal 0 0 1
    outer loop
      vertex 38.212500000000006 -49.99500000000002 21.666666666666668
      vertex 1.2000000000000028 -49.99500000000002 21.666666666666668
      vertex 38.212500000000006 -52.39500000000001 21.666666666666668
    endloop
  endfacet
  facet normal 0 0 1
    outer loop
      vertex 38.212500000000006 -84.12500000000001 21.666666666666668
      vertex 40.61250000000001 -52.39500000000001 21.666666666666668
      vertex 38.212500000000006 -52.39500000000001 21.666666666666668
    endloop
  endfacet
  facet normal 0 0 1
    outer loop
      vertex 40.61250000000001 -52.39500000000001 21.666666666666668
      vertex 40.61250000000001 -49.99500000000002 21.666666666666668
      vertex 38.212500000000006 -52.39500000000001 21.666666666666668
    endloop
  endfacet
  facet normal 0 0 1
    outer loop
      vertex 38.212500000000006 -49.99500000000002 21.666666666666668
      vertex 38.212500000000006 -52.39500000000001 21.666666666666668
      vertex 40.61250000000001 -49.99500000000002 21.666666666666668
    endloop
  endfacet
  facet normal 0 0 1
    outer loop
      vertex -1.2000000000000028 -49.99500000000002 21.666666666666668
      vertex 1.2000000000000028 -49.99500000000002 21.666666666666668
      vertex 1.2000000000000028 -18.265000000000015 21.666666666666668
    endloop
  endfacet
  facet normal 0 0 1
    outer loop
      vertex -1.2000000000000028 -15.865000000000009 21.666666666666668
      vertex 1.2000000000000028 -18.265000000000015 21.666666666666668
      vertex 1.2000000000000028 -15.865000000000009 21.666666666666668
    endloop
  endfacet
  facet normal 0 0 1
    outer loop
      vertex 1.2000000000000028 15.864999999999995 21.666666666666668
      vertex -1.2000000000000028 -15.865000000000009 21.666666666666668
      vertex 1.2000000000000028 -15.865000000000009 21.666666666666668
    endloop
  endfacet
  facet normal 0 0 1
    outer loop
      vertex 1.2000000000000028 -18.265000000000015 21.666666666666668
      vertex 38.212500000000006 -18.265000000000015 21.666666666666668
      vertex 1.2000000000000028 -15.865000000000009 21.666666666666668
    endloop
  endfacet
  facet normal 0 0 1
    outer loop
      vertex 40.61250000000001 -18.265000000000015 21.666666666666668
      vertex 38.212500000000006 -49.99500000000002 21.666666666666668
      vertex 40.61250000000001 -49.99500000000002 21.666666666666668
    endloop
  endfacet
  facet normal 0 0 1
    outer loop
      vertex 38.212500000000006 -49.99500000000002 21.666666666666668
      vertex 40.61250000000001 -18.265000000000015 21.666666666666668
      vertex 38.212500000000006 -18.265000000000015 21.666666666666668
    endloop
  endfacet
  facet normal 0 0 1
    outer loop
      vertex 38.212500000000006 -15.865000000000009 21.666666666666668
      vertex 1.2000000000000028 -15.865000000000009 21.666666666666668
      vertex 38.212500000000006 -18.265000000000015 21.666666666666668
    endloop
  endfacet
  facet normal 0 0 1
    outer loop
      vertex 38.212500000000006 -15.865000000000009 21.666666666666668
      vertex 38.212500000000006 -18.265000000000015 21.666666666666668
      vertex 40.61250000000001 -18.265000000000015 21.666666666666668
    endloop
  endfacet
  facet normal 0 0 1
    outer loop
      vertex 40.61250000000001 -18.265000000000015 21.666666666666668
      vertex 38.212500000000006 15.864999999999995 21.666666666666668
      vertex 38.212500000000006 -15.865000000000009 21.666666666666668
    endloop
  endfacet
  facet normal 0 0 1
    outer loop
      vertex 40.61250000000001 -15.865000000000009 21.666666666666668
      vertex 38.212500000000006 15.864999999999995 21.666666666666668
      vertex 40.61250000000001 -18.265000000000015 21.666666666666668
    endloop
  endfacet
  facet normal 0 0 1
    outer loop
      vertex 40.61250000000001 -52.39500000000001 21.666666666666668
      vertex 77.62500000000001 -52.39500000000001 21.666666666666668
      vertex 40.61250000000001 -49.99500000000002 21.666666666666668
    endloop
  endfacet
  facet normal 0 0 1
    outer loop
      vertex 80.025 -86.525 21.666666666666668
      vertex 77.62500000000001 -84.12500000000001 21.666666666666668
      vertex 40.61250000000001 -84.12500000000001 21.666666666666668
    endloop
  endfacet
  facet normal 0 0 1
    outer loop
      vertex 80.025 -86.525 21.666666666666668
      vertex 77.62500000000001 -52.39500000000001 21.666666666666668
      vertex 77.62500000000001 -84.12500000000001 21.666666666666668
    endloop
  endfacet
  facet normal 0 0 1
    outer loop
      vertex 77.62500000000001 -49.99500000000002 21.666666666666668
      vertex 40.61250000000001 -49.99500000000002 21.666666666666668
      vertex 77.62500000000001 -52.39500000000001 21.666666666666668
    endloop
  endfacet
  facet normal 0 0 1
    outer loop
      vertex 80.025 -86.525 21.666666666666668
      vertex 77.62500000000001 -49.99500000000002 21.666666666666668
      vertex 77.62500000000001 -52.39500000000001 21.666666666666668
    endloop
  endfacet
  facet normal 0 0 1
    outer loop
      vertex 80.025 -86.525 21.666666666666668
      vertex 77.62500000000001 -18.265000000000015 21.666666666666668
      vertex 77.62500000000001 -49.99500000000002 21.666666666666668
    endloop
  endfacet
  facet normal 0 0 1
    outer loop
      vertex 40.61250000000001 -15.865000000000009 21.666666666666668
      vertex 40.61250000000001 -18.265000000000015 21.666666666666668
      vertex 77.62500000000001 -15.865000000000009 21.666666666666668
    endloop
  endfacet
  facet normal 0 0 1
    outer loop
      vertex 80.025 -86.525 21.666666666666668
      vertex 77.62500000000001 -15.865000000000009 21.666666666666668
      vertex 77.62500000000001 -18.265000000000015 21.666666666666668
    endloop
  endfacet
  facet normal 0 0 1
    outer loop
      vertex 77.62500000000001 -15.865000000000009 21.666666666666668
      vertex 40.61250000000001 -18.265000000000015 21.666666666666668
      vertex 77.62500000000001 -18.265000000000015 21.666666666666668
    endloop
  endfacet
  facet normal 0 0 1
    outer loop
      vertex 80.025 -86.525 21.666666666666668
      vertex 80.025 86.525 21.666666666666668
      vertex 77.62500000000001 -15.865000000000009 21.666666666666668
    endloop
  endfacet
  facet normal 0 0 1
    outer loop
      vertex 1.2000000000000028 18.265 21.666666666666668
      vertex 1.2000000000000028 15.864999999999995 21.666666666666668
      vertex 38.212500000000006 15.864999999999995 21.666666666666668
    endloop
  endfacet
  facet normal 0 0 1
    outer loop
      vertex -1.2000000000000028 49.995000000000005 21.666666666666668
      vertex 1.2000000000000028 15.864999999999995 21.666666666666668
      vertex 1.2000000000000028 18.265 21.666666666666668
    endloop
  endfacet
  facet normal 0 0 1
    outer loop
      vertex -1.2000000000000028 52.394999999999996 21.666666666666668
      vertex 1.2000000000000028 18.265 21.666666666666668
      vertex 1.2000000000000028 49.995000000000005 21.666666666666668
    endloop
  endfacet
  facet normal 0 0 1
    outer loop
      vertex 38.212500000000006 18.265 21.666666666666668
      vertex 1.2000000000000028 18.265 21.666666666666668
      vertex 38.212500000000006 15.864999999999995 21.666666666666668
    endloop
  endfacet
  facet normal 0 0 1
    outer loop
      vertex 40.61250000000001 -15.865000000000009 21.666666666666668
      vertex 40.61250000000001 15.864999999999995 21.666666666666668
      vertex 38.212500000000006 15.864999999999995 21.666666666666668
    endloop
  endfacet
  facet normal 0 0 1
    outer loop
      vertex 38.212500000000006 18.265 21.666666666666668
      vertex 38.212500000000006 15.864999999999995 21.666666666666668
      vertex 40.61250000000001 18.265 21.666666666666668
    endloop
  endfacet
  facet normal 0 0 1
    outer loop
      vertex 40.61250000000001 15.864999999999995 21.666666666666668
      vertex 40.61250000000001 18.265 21.666666666666668
      vertex 38.212500000000006 15.864999999999995 21.666666666666668
    endloop
  endfacet
  facet normal 0 0 1
    outer loop
      vertex 38.212500000000006 18.265 21.666666666666668
      vertex 40.61250000000001 18.265 21.666666666666668
      vertex 40.61250000000001 49.995000000000005 21.666666666666668
    endloop
  endfacet
  facet normal 0 0 1
    outer loop
      vertex 38.212500000000006 18.265 21.666666666666668
      vertex 40.61250000000001 49.995000000000005 21.666666666666668
      vertex 38.212500000000006 49.995000000000005 21.666666666666668
    endloop
  endfacet
  facet normal 0 1 0
    outer loop
      vertex -80.025 86.525 21.666666666666668
      vertex 80.025 86.525 21.666666666666668
      vertex 80.025 86.525 0
    endloop
  endfacet
  facet normal 0 0 1
    outer loop
      vertex -1.2000000000000028 52.394999999999996 21.666666666666668
      vertex 1.2000000000000028 49.995000000000005 21.666666666666668
      vertex 1.2000000000000028 52.394999999999996 21.666666666666668
    endloop
  endfacet
  facet normal 0 0 1
    outer loop
      vertex -1.2000000000000028 52.394999999999996 21.666666666666668
      vertex 1.2000000000000028 52.394999999999996 21.666666666666668
      vertex 1.2000000000000028 84.125 21.666666666666668
    endloop
  endfacet
  facet normal 0 0 1
    outer loop
      vertex 1.2000000000000028 49.995000000000005 21.666666666666668
      vertex 38.212500000000006 49.995000000000005 21.666666666666668
      vertex 1.2000000000000028 52.394999999999996 21.666666666666668
    endloop
  endfacet
  facet normal 0 0 1
    outer loop
      vertex -80.025 86.525 21.666666666666668
      vertex 40.61250000000001 84.125 21.666666666666668
      vertex 77.62500000000001 84.125 21.666666666666668
    endloop
  endfacet
  facet normal 0 0 1
    outer loop
      vertex 38.212500000000006 52.394999999999996 21.666666666666668
      vertex 1.2000000000000028 52.394999999999996 21.666666666666668
      vertex 38.212500000000006 49.995000000000005 21.666666666666668
    endloop
  endfacet
  facet normal 0 0 1
    outer loop
      vertex 40.61250000000001 49.995000000000005 21.666666666666668
      vertex 40.61250000000001 52.394999999999996 21.666666666666668
      vertex 38.212500000000006 49.995000000000005 21.666666666666668
    endloop
  endfacet
  facet normal 0 0 1
    outer loop
      vertex 38.212500000000006 52.394999999999996 21.666666666666668
      vertex 38.212500000000006 49.995000000000005 21.666666666666668
      vertex 40.61250000000001 52.394999999999996 21.666666666666668
    endloop
  endfacet
  facet normal 0 0 1
    outer loop
      vertex 38.212500000000006 52.394999999999996 21.666666666666668
      vertex 40.61250000000001 52.394999999999996 21.666666666666668
      vertex 40.61250000000001 84.125 21.666666666666668
    endloop
  endfacet
  facet normal 0 0 1
    outer loop
      vertex -80.025 86.525 21.666666666666668
      vertex 77.62500000000001 84.125 21.666666666666668
      vertex 80.025 86.525 21.666666666666668
    endloop
  endfacet
  facet normal 0 0 1
    outer loop
      vertex 38.212500000000006 52.394999999999996 21.666666666666668
      vertex 40.61250000000001 84.125 21.666666666666668
      vertex 38.212500000000006 84.125 21.666666666666668
    endloop
  endfacet
  facet normal 1 0 0
    outer loop
      vertex 80.025 -86.525 21.666666666666668
      vertex 80.025 86.525 0
      vertex 80.025 86.525 21.666666666666668
    endloop
  endfacet
  facet normal 0 0 1
    outer loop
      vertex 40.61250000000001 15.864999999999995 21.666666666666668
      vertex 77.62500000000001 15.864999999999995 21.666666666666668
      vertex 40.61250000000001 18.265 21.666666666666668
    endloop
  endfacet
  facet normal 0 0 1
    outer loop
      vertex 77.62500000000001 18.265 21.666666666666668
      vertex 40.61250000000001 18.265 21.666666666666668
      vertex 77.62500000000001 15.864999999999995 21.666666666666668
    endloop
  endfacet
  facet normal 0 0 1
    outer loop
      vertex 80.025 86.525 21.666666666666668
      vertex 77.62500000000001 15.864999999999995 21.666666666666668
      vertex 77.62500000000001 -15.865000000000009 21.666666666666668
    endloop
  endfacet
  facet normal 0 0 1
    outer loop
      vertex 80.025 86.525 21.666666666666668
      vertex 77.62500000000001 18.265 21.666666666666668
      vertex 77.62500000000001 15.864999999999995 21.666666666666668
    endloop
  endfacet
  facet normal 0 0 1
    outer loop
      vertex 40.61250000000001 49.995000000000005 21.666666666666668
      vertex 77.62500000000001 49.995000000000005 21.666666666666668
      vertex 40.61250000000001 52.394999999999996 21.666666666666668
    endloop
  endfacet
  facet normal 0 0 1
    outer loop
      vertex 77.62500000000001 52.394999999999996 21.666666666666668
      vertex 40.61250000000001 52.394999999999996 21.666666666666668
      vertex 77.62500000000001 49.995000000000005 21.666666666666668
    endloop
  endfacet
  facet normal 0 0 1
    outer loop
      vertex 80.025 86.525 21.666666666666668
      vertex 77.62500000000001 49.995000000000005 21.666666666666668
      vertex 77.62500000000001 18.265 21.666666666666668
    endloop
  endfacet
  facet normal 0 0 1
    outer loop
      vertex 80.025 86.525 21.666666666666668
      vertex 77.62500000000001 52.394999999999996 21.666666666666668
      vertex 77.62500000000001 49.995000000000005 21.666666666666668
    endloop
  endfacet
  facet normal 0 0 1
    outer loop
      vertex 80.025 86.525 21.666666666666668
      vertex 77.62500000000001 84.125 21.666666666666668
      vertex 77.62500000000001 52.394999999999996 21.666666666666668
    endloop
  endfacet
  facet normal 0 0 1
    outer loop
      vertex -77.625 52.394999999999996 1.6
      vertex -40.6125 84.125 1.6
      vertex -77.625 84.125 1.6
    endloop
  endfacet
  facet normal 0 0 1
    outer loop
      vertex -77.625 52.394999999999996 1.6
      vertex -40.6125 52.394999999999996 1.6
      vertex -40.6125 84.125 1.6
    endloop
  endfacet
  facet normal 0 1 0
    outer loop
      vertex -77.625 52.394999999999996 1.6
      vertex -77.625 52.394999999999996 21.666666666666668
      vertex -40.6125 52.394999999999996 1.6
    endloop
  endfacet
  facet normal 1 0 0
    outer loop
      vertex -77.625 52.394999999999996 1.6
      vertex -77.625 84.125 1.6
      vertex -77.625 84.125 21.666666666666668
    endloop
  endfacet
  facet normal -1 0 0
    outer loop
      vertex -40.6125 52.394999999999996 1.6
      vertex -40.6125 52.394999999999996 21.666666666666668
      vertex -40.6125 84.125 1.6
    endloop
  endfacet
  facet normal 0 -1 0
    outer loop
      vertex -77.625 84.125 1.6
      vertex -40.6125 84.125 1.6
      vertex -40.6125 84.125 21.666666666666668
    endloop
  endfacet
  facet normal 1 0 0
    outer loop
      vertex -77.625 52.394999999999996 1.6
      vertex -77.625 84.125 21.666666666666668
      vertex -77.625 52.394999999999996 21.666666666666668
    endloop
  endfacet
  facet normal 0 -1 0
    outer loop
      vertex -77.625 84.125 1.6
      vertex -40.6125 84.125 21.666666666666668
      vertex -77.625 84.125 21.666666666666668
    endloop
  endfacet
  facet normal 0 1 0
    outer loop
      vertex -40.6125 52.394999999999996 1.6
      vertex -77.625 52.394999999999996 21.666666666666668
      vertex -40.6125 52.394999999999996 21.666666666666668
    endloop
  endfacet
  facet normal -1 0 0
    outer loop
      vertex -40.6125 84.125 1.6
      vertex -40.6125 52.394999999999996 21.666666666666668
      vertex -40.6125 84.125 21.666666666666668
    endloop
  endfacet
  facet normal 0 0 1
    outer loop
      vertex -77.625 18.265 1.6
      vertex -40.6125 49.995000000000005 1.6
      vertex -77.625 49.995000000000005 1.6
    endloop
  endfacet
  facet normal 0 0 1
    outer loop
      vertex -77.625 18.265 1.6
      vertex -40.6125 18.265 1.6
      vertex -40.6125 49.995000000000005 1.6
    endloop
  endfacet
  facet normal 0 1 0
    outer loop
      vertex -77.625 18.265 1.6
      vertex -77.625 18.265 21.666666666666668
      vertex -40.6125 18.265 1.6
    endloop
  endfacet
  facet normal 1 0 0
    outer loop
      vertex -77.625 18.265 1.6
      vertex -77.625 49.995000000000005 1.6
      vertex -77.625 49.995000000000005 21.666666666666668
    endloop
  endfacet
  facet normal -1 0 0
    outer loop
      vertex -40.6125 18.265 1.6
      vertex -40.6125 18.265 21.666666666666668
      vertex -40.6125 49.995000000000005 1.6
    endloop
  endfacet
  facet normal 0 -1 0
    outer loop
      vertex -77.625 49.995000000000005 1.6
      vertex -40.6125 49.995000000000005 1.6
      vertex -40.6125 49.995000000000005 21.666666666666668
    endloop
  endfacet
  facet normal 1 0 0
    outer loop
      vertex -77.625 18.265 1.6
      vertex -77.625 49.995000000000005 21.666666666666668
      vertex -77.625 18.265 21.666666666666668
    endloop
  endfacet
  facet normal 0 1 0
    outer loop
      vertex -40.6125 18.265 1.6
      vertex -77.625 18.265 21.666666666666668
      vertex -40.6125 18.265 21.666666666666668
    endloop
  endfacet
  facet normal -1 0 0
    outer loop
      vertex -40.6125 49.995000000000005 1.6
      vertex -40.6125 18.265 21.666666666666668
      vertex -40.6125 49.995000000000005 21.666666666666668
    endloop
  endfacet
  facet normal 0 -1 0
    outer loop
      vertex -77.625 49.995000000000005 1.6
      vertex -40.6125 49.995000000000005 21.666666666666668
      vertex -77.625 49.995000000000005 21.666666666666668
    endloop
  endfacet
  facet normal 0 0 1
    outer loop
      vertex -77.625 -15.865000000000009 1.6
      vertex -40.6125 -15.865000000000009 1.6
      vertex -40.6125 15.864999999999995 1.6
    endloop
  endfacet
  facet normal 0 1 0
    outer loop
      vertex -77.625 -15.865000000000009 1.6
      vertex -77.625 -15.865000000000009 21.666666666666668
      vertex -40.6125 -15.865000000000009 1.6
    endloop
  endfacet
  facet normal -1 0 0
    outer loop
      vertex -40.6125 -15.865000000000009 1.6
      vertex -40.6125 -15.865000000000009 21.666666666666668
      vertex -40.6125 15.864999999999995 1.6
    endloop
  endfacet
  facet normal 1 0 0
    outer loop
      vertex -77.625 -15.865000000000009 1.6
      vertex -77.625 15.864999999999995 21.666666666666668
      vertex -77.625 -15.865000000000009 21.666666666666668
    endloop
  endfacet
  facet normal 0 1 0
    outer loop
      vertex -40.6125 -15.865000000000009 1.6
      vertex -77.625 -15.865000000000009 21.666666666666668
      vertex -40.6125 -15.865000000000009 21.666666666666668
    endloop
  endfacet
  facet normal 0 0 1
    outer loop
      vertex -77.625 -15.865000000000009 1.6
      vertex -40.6125 15.864999999999995 1.6
      vertex -77.625 15.864999999999995 1.6
    endloop
  endfacet
  facet normal 1 0 0
    outer loop
      vertex -77.625 -15.865000000000009 1.6
      vertex -77.625 15.864999999999995 1.6
      vertex -77.625 15.864999999999995 21.666666666666668
    endloop
  endfacet
  facet normal 0 -1 0
    outer loop
      vertex -77.625 15.864999999999995 1.6
      vertex -40.6125 15.864999999999995 1.6
      vertex -40.6125 15.864999999999995 21.666666666666668
    endloop
  endfacet
  facet normal 0 -1 0
    outer loop
      vertex -77.625 15.864999999999995 1.6
      vertex -40.6125 15.864999999999995 21.666666666666668
      vertex -77.625 15.864999999999995 21.666666666666668
    endloop
  endfacet
  facet normal -1 0 0
    outer loop
      vertex -40.6125 15.864999999999995 1.6
      vertex -40.6125 -15.865000000000009 21.666666666666668
      vertex -40.6125 15.864999999999995 21.666666666666668
    endloop
  endfacet
  facet normal 0 1 0
    outer loop
      vertex -77.625 -49.99500000000002 1.6
      vertex -77.625 -49.99500000000002 21.666666666666668
      vertex -40.6125 -49.99500000000002 1.6
    endloop
  endfacet
  facet normal 0 0 1
    outer loop
      vertex -77.625 -49.99500000000002 1.6
      vertex -40.6125 -18.265000000000015 1.6
      vertex -77.625 -18.265000000000015 1.6
    endloop
  endfacet
  facet normal 0 0 1
    outer loop
      vertex -77.625 -49.99500000000002 1.6
      vertex -40.6125 -49.99500000000002 1.6
      vertex -40.6125 -18.265000000000015 1.6
    endloop
  endfacet
  facet normal 1 0 0
    outer loop
      vertex -77.625 -49.99500000000002 1.6
      vertex -77.625 -18.265000000000015 1.6
      vertex -77.625 -18.265000000000015 21.666666666666668
    endloop
  endfacet
  facet normal -1 0 0
    outer loop
      vertex -40.6125 -49.99500000000002 1.6
      vertex -40.6125 -49.99500000000002 21.666666666666668
      vertex -40.6125 -18.265000000000015 1.6
    endloop
  endfacet
  facet normal 0 -1 0
    outer loop
      vertex -77.625 -18.265000000000015 1.6
      vertex -40.6125 -18.265000000000015 1.6
      vertex -40.6125 -18.265000000000015 21.666666666666668
    endloop
  endfacet
  facet normal 0 1 0
    outer loop
      vertex -40.6125 -49.99500000000002 1.6
      vertex -77.625 -49.99500000000002 21.666666666666668
      vertex -40.6125 -49.99500000000002 21.666666666666668
    endloop
  endfacet
  facet normal 1 0 0
    outer loop
      vertex -77.625 -49.99500000000002 1.6
      vertex -77.625 -18.265000000000015 21.666666666666668
      vertex -77.625 -49.99500000000002 21.666666666666668
    endloop
  endfacet
  facet normal 0 -1 0
    outer loop
      vertex -77.625 -18.265000000000015 1.6
      vertex -40.6125 -18.265000000000015 21.666666666666668
      vertex -77.625 -18.265000000000015 21.666666666666668
    endloop
  endfacet
  facet normal -1 0 0
    outer loop
      vertex -40.6125 -18.265000000000015 1.6
      vertex -40.6125 -49.99500000000002 21.666666666666668
      vertex -40.6125 -18.265000000000015 21.666666666666668
    endloop
  endfacet
  facet normal 0 0 1
    outer loop
      vertex -77.625 -84.12500000000001 1.6
      vertex -40.6125 -52.39500000000001 1.6
      vertex -77.625 -52.39500000000001 1.6
    endloop
  endfacet
  facet normal 0 0 1
    outer loop
      vertex -77.625 -84.12500000000001 1.6
      vertex -40.6125 -84.12500000000001 1.6
      vertex -40.6125 -52.39500000000001 1.6
    endloop
  endfacet
  facet normal 0 1 0
    outer loop
      vertex -77.625 -84.12500000000001 1.6
      vertex -77.625 -84.12500000000001 21.666666666666668
      vertex -40.6125 -84.12500000000001 1.6
    endloop
  endfacet
  facet normal 1 0 0
    outer loop
      vertex -77.625 -84.12500000000001 1.6
      vertex -77.625 -52.39500000000001 1.6
      vertex -77.625 -52.39500000000001 21.666666666666668
    endloop
  endfacet
  facet normal -1 0 0
    outer loop
      vertex -40.6125 -84.12500000000001 1.6
      vertex -40.6125 -84.12500000000001 21.666666666666668
      vertex -40.6125 -52.39500000000001 1.6
    endloop
  endfacet
  facet normal 0 -1 0
    outer loop
      vertex -77.625 -52.39500000000001 1.6
      vertex -40.6125 -52.39500000000001 1.6
      vertex -40.6125 -52.39500000000001 21.666666666666668
    endloop
  endfacet
  facet normal 1 0 0
    outer loop
      vertex -77.625 -84.12500000000001 1.6
      vertex -77.625 -52.39500000000001 21.666666666666668
      vertex -77.625 -84.12500000000001 21.666666666666668
    endloop
  endfacet
  facet normal 0 -1 0
    outer loop
      vertex -77.625 -52.39500000000001 1.6
      vertex -40.6125 -52.39500000000001 21.666666666666668
      vertex -77.625 -52.39500000000001 21.666666666666668
    endloop
  endfacet
  facet normal 0 1 0
    outer loop
      vertex -40.6125 -84.12500000000001 1.6
      vertex -77.625 -84.12500000000001 21.666666666666668
      vertex -40.6125 -84.12500000000001 21.666666666666668
    endloop
  endfacet
  facet normal -1 0 0
    outer loop
      vertex -40.6125 -52.39500000000001 1.6
      vertex -40.6125 -84.12500000000001 21.666666666666668
      vertex -40.6125 -52.39500000000001 21.666666666666668
    endloop
  endfacet
  facet normal 0 0 1
    outer loop
      vertex -38.212500000000006 52.394999999999996 1.6
      vertex -1.2000000000000028 84.125 1.6
      vertex -38.212500000000006 84.125 1.6
    endloop
  endfacet
  facet normal 0 0 1
    outer loop
      vertex -38.212500000000006 52.394999999999996 1.6
      vertex -1.2000000000000028 52.394999999999996 1.6
      vertex -1.2000000000000028 84.125 1.6
    endloop
  endfacet
  facet normal 1 0 0
    outer loop
      vertex -38.212500000000006 52.394999999999996 1.6
      vertex -38.212500000000006 84.125 1.6
      vertex -38.212500000000006 84.125 21.666666666666668
    endloop
  endfacet
  facet normal 0 1 0
    outer loop
      vertex -38.212500000000006 52.394999999999996 1.6
      vertex -1.2000000000000028 52.394999999999996 21.666666666666668
      vertex -1.2000000000000028 52.394999999999996 1.6
    endloop
  endfacet
  facet normal -1 0 0
    outer loop
      vertex -1.2000000000000028 52.394999999999996 1.6
      vertex -1.2000000000000028 52.394999999999996 21.666666666666668
      vertex -1.2000000000000028 84.125 1.6
    endloop
  endfacet
  facet normal 0 -1 0
    outer loop
      vertex -38.212500000000006 84.125 1.6
      vertex -1.2000000000000028 84.125 1.6
      vertex -1.2000000000000028 84.125 21.666666666666668
    endloop
  endfacet
  facet normal 1 0 0
    outer loop
      vertex -38.212500000000006 52.394999999999996 1.6
      vertex -38.212500000000006 84.125 21.666666666666668
      vertex -38.212500000000006 52.394999999999996 21.666666666666668
    endloop
  endfacet
  facet normal 0 1 0
    outer loop
      vertex -38.212500000000006 52.394999999999996 1.6
      vertex -38.212500000000006 52.394999999999996 21.666666666666668
      vertex -1.2000000000000028 52.394999999999996 21.666666666666668
    endloop
  endfacet
  facet normal 0 -1 0
    outer loop
      vertex -38.212500000000006 84.125 1.6
      vertex -1.2000000000000028 84.125 21.666666666666668
      vertex -38.212500000000006 84.125 21.666666666666668
    endloop
  endfacet
  facet normal -1 0 0
    outer loop
      vertex -1.2000000000000028 84.125 1.6
      vertex -1.2000000000000028 52.394999999999996 21.666666666666668
      vertex -1.2000000000000028 84.125 21.666666666666668
    endloop
  endfacet
  facet normal 0 0 1
    outer loop
      vertex -38.212500000000006 18.265 1.6
      vertex -1.2000000000000028 49.995000000000005 1.6
      vertex -38.212500000000006 49.995000000000005 1.6
    endloop
  endfacet
  facet normal 0 0 1
    outer loop
      vertex -38.212500000000006 18.265 1.6
      vertex -1.2000000000000028 18.265 1.6
      vertex -1.2000000000000028 49.995000000000005 1.6
    endloop
  endfacet
  facet normal 0 1 0
    outer loop
      vertex -38.212500000000006 18.265 1.6
      vertex -38.212500000000006 18.265 21.666666666666668
      vertex -1.2000000000000028 18.265 1.6
    endloop
  endfacet
  facet normal 1 0 0
    outer loop
      vertex -38.212500000000006 18.265 1.6
      vertex -38.212500000000006 49.995000000000005 1.6
      vertex -38.212500000000006 49.995000000000005 21.666666666666668
    endloop
  endfacet
  facet normal -1 0 0
    outer loop
      vertex -1.2000000000000028 18.265 1.6
      vertex -1.2000000000000028 18.265 21.666666666666668
      vertex -1.2000000000000028 49.995000000000005 1.6
    endloop
  endfacet
  facet normal 0 -1 0
    outer loop
      vertex -38.212500000000006 49.995000000000005 1.6
      vertex -1.2000000000000028 49.995000000000005 1.6
      vertex -38.212500000000006 49.995000000000005 21.666666666666668
    endloop
  endfacet
  facet normal 1 0 0
    outer loop
      vertex -38.212500000000006 18.265 1.6
      vertex -38.212500000000006 49.995000000000005 21.666666666666668
      vertex -38.212500000000006 18.265 21.666666666666668
    endloop
  endfacet
  facet normal 0 1 0
    outer loop
      vertex -1.2000000000000028 18.265 1.6
      vertex -38.212500000000006 18.265 21.666666666666668
      vertex -1.2000000000000028 18.265 21.666666666666668
    endloop
  endfacet
  facet normal -1 0 0
    outer loop
      vertex -1.2000000000000028 49.995000000000005 1.6
      vertex -1.2000000000000028 18.265 21.666666666666668
      vertex -1.2000000000000028 49.995000000000005 21.666666666666668
    endloop
  endfacet
  facet normal 0 -1 0
    outer loop
      vertex -1.2000000000000028 49.995000000000005 1.6
      vertex -1.2000000000000028 49.995000000000005 21.666666666666668
      vertex -38.212500000000006 49.995000000000005 21.666666666666668
    endloop
  endfacet
  facet normal 0 0 1
    outer loop
      vertex -38.212500000000006 -15.865000000000009 1.6
      vertex -1.2000000000000028 -15.865000000000009 1.6
      vertex -1.2000000000000028 15.864999999999995 1.6
    endloop
  endfacet
  facet normal 0 1 0
    outer loop
      vertex -38.212500000000006 -15.865000000000009 1.6
      vertex -38.212500000000006 -15.865000000000009 21.666666666666668
      vertex -1.2000000000000028 -15.865000000000009 1.6
    endloop
  endfacet
  facet normal -1 0 0
    outer loop
      vertex -1.2000000000000028 -15.865000000000009 1.6
      vertex -1.2000000000000028 -15.865000000000009 21.666666666666668
      vertex -1.2000000000000028 15.864999999999995 1.6
    endloop
  endfacet
  facet normal 1 0 0
    outer loop
      vertex -38.212500000000006 -15.865000000000009 1.6
      vertex -38.212500000000006 15.864999999999995 21.666666666666668
      vertex -38.212500000000006 -15.865000000000009 21.666666666666668
    endloop
  endfacet
  facet normal 0 1 0
    outer loop
      vertex -1.2000000000000028 -15.865000000000009 1.6
      vertex -38.212500000000006 -15.865000000000009 21.666666666666668
      vertex -1.2000000000000028 -15.865000000000009 21.666666666666668
    endloop
  endfacet
  facet normal 0 0 1
    outer loop
      vertex -38.212500000000006 -15.865000000000009 1.6
      vertex -1.2000000000000028 15.864999999999995 1.6
      vertex -38.212500000000006 15.864999999999995 1.6
    endloop
  endfacet
  facet normal 1 0 0
    outer loop
      vertex -38.212500000000006 -15.865000000000009 1.6
      vertex -38.212500000000006 15.864999999999995 1.6
      vertex -38.212500000000006 15.864999999999995 21.666666666666668
    endloop
  endfacet
  facet normal 0 -1 0
    outer loop
      vertex -38.212500000000006 15.864999999999995 1.6
      vertex -1.2000000000000028 15.864999999999995 1.6
      vertex -1.2000000000000028 15.864999999999995 21.666666666666668
    endloop
  endfacet
  facet normal 0 -1 0
    outer loop
      vertex -38.212500000000006 15.864999999999995 1.6
      vertex -1.2000000000000028 15.864999999999995 21.666666666666668
      vertex -38.212500000000006 15.864999999999995 21.666666666666668
    endloop
  endfacet
  facet normal -1 0 0
    outer loop
      vertex -1.2000000000000028 15.864999999999995 1.6
      vertex -1.2000000000000028 -15.865000000000009 21.666666666666668
      vertex -1.2000000000000028 15.864999999999995 21.666666666666668
    endloop
  endfacet
  facet normal 0 1 0
    outer loop
      vertex -38.212500000000006 -49.99500000000002 1.6
      vertex -38.212500000000006 -49.99500000000002 21.666666666666668
      vertex -1.2000000000000028 -49.99500000000002 1.6
    endloop
  endfacet
  facet normal 0 0 1
    outer loop
      vertex -38.212500000000006 -49.99500000000002 1.6
      vertex -1.2000000000000028 -18.265000000000015 1.6
      vertex -38.212500000000006 -18.265000000000015 1.6
    endloop
  endfacet
  facet normal 0 0 1
    outer loop
      vertex -38.212500000000006 -49.99500000000002 1.6
      vertex -1.2000000000000028 -49.99500000000002 1.6
      vertex -1.2000000000000028 -18.265000000000015 1.6
    endloop
  endfacet
  facet normal 1 0 0
    outer loop
      vertex -38.212500000000006 -49.99500000000002 1.6
      vertex -38.212500000000006 -18.265000000000015 1.6
      vertex -38.212500000000006 -18.265000000000015 21.666666666666668
    endloop
  endfacet
  facet normal -1 0 0
    outer loop
      vertex -1.2000000000000028 -49.99500000000002 1.6
      vertex -1.2000000000000028 -49.99500000000002 21.666666666666668
      vertex -1.2000000000000028 -18.265000000000015 1.6
    endloop
  endfacet
  facet normal 0 -1 0
    outer loop
      vertex -38.212500000000006 -18.265000000000015 1.6
      vertex -1.2000000000000028 -18.265000000000015 1.6
      vertex -1.2000000000000028 -18.265000000000015 21.666666666666668
    endloop
  endfacet
  facet normal 0 1 0
    outer loop
      vertex -1.2000000000000028 -49.99500000000002 1.6
      vertex -38.212500000000006 -49.99500000000002 21.666666666666668
      vertex -1.2000000000000028 -49.99500000000002 21.666666666666668
    endloop
  endfacet
  facet normal 1 0 0
    outer loop
      vertex -38.212500000000006 -49.99500000000002 1.6
      vertex -38.212500000000006 -18.265000000000015 21.666666666666668
      vertex -38.212500000000006 -49.99500000000002 21.666666666666668
    endloop
  endfacet
  facet normal 0 -1 0
    outer loop
      vertex -38.212500000000006 -18.265000000000015 1.6
      vertex -1.2000000000000028 -18.265000000000015 21.666666666666668
      vertex -38.212500000000006 -18.265000000000015 21.666666666666668
    endloop
  endfacet
  facet normal -1 0 0
    outer loop
      vertex -1.2000000000000028 -18.265000000000015 1.6
      vertex -1.2000000000000028 -49.99500000000002 21.666666666666668
      vertex -1.2000000000000028 -18.265000000000015 21.666666666666668
    endloop
  endfacet
  facet normal 0 0 1
    outer loop
      vertex -38.212500000000006 -84.12500000000001 1.6
      vertex -1.2000000000000028 -52.39500000000001 1.6
      vertex -38.212500000000006 -52.39500000000001 1.6
    endloop
  endfacet
  facet normal 0 0 1
    outer loop
      vertex -38.212500000000006 -84.12500000000001 1.6
      vertex -1.2000000000000028 -84.12500000000001 1.6
      vertex -1.2000000000000028 -52.39500000000001 1.6
    endloop
  endfacet
  facet normal 0 1 0
    outer loop
      vertex -38.212500000000006 -84.12500000000001 1.6
      vertex -38.212500000000006 -84.12500000000001 21.666666666666668
      vertex -1.2000000000000028 -84.12500000000001 1.6
    endloop
  endfacet
  facet normal 1 0 0
    outer loop
      vertex -38.212500000000006 -84.12500000000001 1.6
      vertex -38.212500000000006 -52.39500000000001 1.6
      vertex -38.212500000000006 -52.39500000000001 21.666666666666668
    endloop
  endfacet
  facet normal -1 0 0
    outer loop
      vertex -1.2000000000000028 -84.12500000000001 1.6
      vertex -1.2000000000000028 -84.12500000000001 21.666666666666668
      vertex -1.2000000000000028 -52.39500000000001 1.6
    endloop
  endfacet
  facet normal 0 -1 0
    outer loop
      vertex -38.212500000000006 -52.39500000000001 1.6
      vertex -1.2000000000000028 -52.39500000000001 1.6
      vertex -1.2000000000000028 -52.39500000000001 21.666666666666668
    endloop
  endfacet
  facet normal 1 0 0
    outer loop
      vertex -38.212500000000006 -84.12500000000001 1.6
      vertex -38.212500000000006 -52.39500000000001 21.666666666666668
      vertex -38.212500000000006 -84.12500000000001 21.666666666666668
    endloop
  endfacet
  facet normal 0 -1 0
    outer loop
      vertex -38.212500000000006 -52.39500000000001 1.6
      vertex -1.2000000000000028 -52.39500000000001 21.666666666666668
      vertex -38.212500000000006 -52.39500000000001 21.666666666666668
    endloop
  endfacet
  facet normal 0 1 0
    outer loop
      vertex -1.2000000000000028 -84.12500000000001 1.6
      vertex -38.212500000000006 -84.12500000000001 21.666666666666668
      vertex -1.2000000000000028 -84.12500000000001 21.666666666666668
    endloop
  endfacet
  facet normal -1 0 0
    outer loop
      vertex -1.2000000000000028 -52.39500000000001 1.6
      vertex -1.2000000000000028 -84.12500000000001 21.666666666666668
      vertex -1.2000000000000028 -52.39500000000001 21.666666666666668
    endloop
  endfacet
  facet normal 0 0 1
    outer loop
      vertex 1.2000000000000028 52.394999999999996 1.6
      vertex 38.212500000000006 84.125 1.6
      vertex 1.2000000000000028 84.125 1.6
    endloop
  endfacet
  facet normal 0 0 1
    outer loop
      vertex 1.2000000000000028 52.394999999999996 1.6
      vertex 38.212500000000006 52.394999999999996 1.6
      vertex 38.212500000000006 84.125 1.6
    endloop
  endfacet
  facet normal 0 1 0
    outer loop
      vertex 1.2000000000000028 52.394999999999996 1.6
      vertex 1.2000000000000028 52.394999999999996 21.666666666666668
      vertex 38.212500000000006 52.394999999999996 1.6
    endloop
  endfacet
  facet normal 1 0 0
    outer loop
      vertex 1.2000000000000028 52.394999999999996 1.6
      vertex 1.2000000000000028 84.125 1.6
      vertex 1.2000000000000028 84.125 21.666666666666668
    endloop
  endfacet
  facet normal -1 0 0
    outer loop
      vertex 38.212500000000006 52.394999999999996 1.6
      vertex 38.212500000000006 52.394999999999996 21.666666666666668
      vertex 38.212500000000006 84.125 1.6
    endloop
  endfacet
  facet normal 0 -1 0
    outer loop
      vertex 1.2000000000000028 84.125 1.6
      vertex 38.212500000000006 84.125 1.6
      vertex 38.212500000000006 84.125 21.666666666666668
    endloop
  endfacet
  facet normal 1 0 0
    outer loop
      vertex 1.2000000000000028 52.394999999999996 1.6
      vertex 1.2000000000000028 84.125 21.666666666666668
      vertex 1.2000000000000028 52.394999999999996 21.666666666666668
    endloop
  endfacet
  facet normal 0 -1 0
    outer loop
      vertex 1.2000000000000028 84.125 1.6
      vertex 38.212500000000006 84.125 21.666666666666668
      vertex 1.2000000000000028 84.125 21.666666666666668
    endloop
  endfacet
  facet normal 0 1 0
    outer loop
      vertex 38.212500000000006 52.394999999999996 1.6
      vertex 1.2000000000000028 52.394999999999996 21.666666666666668
      vertex 38.212500000000006 52.394999999999996 21.666666666666668
    endloop
  endfacet
  facet normal -1 0 0
    outer loop
      vertex 38.212500000000006 84.125 1.6
      vertex 38.212500000000006 52.394999999999996 21.666666666666668
      vertex 38.212500000000006 84.125 21.666666666666668
    endloop
  endfacet
  facet normal 0 0 1
    outer loop
      vertex 1.2000000000000028 18.265 1.6
      vertex 38.212500000000006 49.995000000000005 1.6
      vertex 1.2000000000000028 49.995000000000005 1.6
    endloop
  endfacet
  facet normal 0 0 1
    outer loop
      vertex 1.2000000000000028 18.265 1.6
      vertex 38.212500000000006 18.265 1.6
      vertex 38.212500000000006 49.995000000000005 1.6
    endloop
  endfacet
  facet normal 0 1 0
    outer loop
      vertex 1.2000000000000028 18.265 1.6
      vertex 1.2000000000000028 18.265 21.666666666666668
      vertex 38.212500000000006 18.265 1.6
    endloop
  endfacet
  facet normal 1 0 0
    outer loop
      vertex 1.2000000000000028 18.265 1.6
      vertex 1.2000000000000028 49.995000000000005 1.6
      vertex 1.2000000000000028 49.995000000000005 21.666666666666668
    endloop
  endfacet
  facet normal -1 0 0
    outer loop
      vertex 38.212500000000006 18.265 1.6
      vertex 38.212500000000006 18.265 21.666666666666668
      vertex 38.212500000000006 49.995000000000005 1.6
    endloop
  endfacet
  facet normal 0 -1 0
    outer loop
      vertex 1.2000000000000028 49.995000000000005 1.6
      vertex 38.212500000000006 49.995000000000005 1.6
      vertex 38.212500000000006 49.995000000000005 21.666666666666668
    endloop
  endfacet
  facet normal 1 0 0
    outer loop
      vertex 1.2000000000000028 18.265 1.6
      vertex 1.2000000000000028 49.995000000000005 21.666666666666668
      vertex 1.2000000000000028 18.265 21.666666666666668
    endloop
  endfacet
  facet normal 0 1 0
    outer loop
      vertex 38.212500000000006 18.265 1.6
      vertex 1.2000000000000028 18.265 21.666666666666668
      vertex 38.212500000000006 18.265 21.666666666666668
    endloop
  endfacet
  facet normal -1 0 0
    outer loop
      vertex 38.212500000000006 49.995000000000005 1.6
      vertex 38.212500000000006 18.265 21.666666666666668
      vertex 38.212500000000006 49.995000000000005 21.666666666666668
    endloop
  endfacet
  facet normal 0 -1 0
    outer loop
      vertex 1.2000000000000028 49.995000000000005 1.6
      vertex 38.212500000000006 49.995000000000005 21.666666666666668
      vertex 1.2000000000000028 49.995000000000005 21.666666666666668
    endloop
  endfacet
  facet normal 0 0 1
    outer loop
      vertex 1.2000000000000028 -15.865000000000009 1.6
      vertex 38.212500000000006 -15.865000000000009 1.6
      vertex 38.212500000000006 15.864999999999995 1.6
    endloop
  endfacet
  facet normal 0 1 0
    outer loop
      vertex 1.2000000000000028 -15.865000000000009 1.6
      vertex 1.2000000000000028 -15.865000000000009 21.666666666666668
      vertex 38.212500000000006 -15.865000000000009 1.6
    endloop
  endfacet
  facet normal -1 0 0
    outer loop
      vertex 38.212500000000006 -15.865000000000009 1.6
      vertex 38.212500000000006 -15.865000000000009 21.666666666666668
      vertex 38.212500000000006 15.864999999999995 1.6
    endloop
  endfacet
  facet normal 1 0 0
    outer loop
      vertex 1.2000000000000028 -15.865000000000009 1.6
      vertex 1.2000000000000028 15.864999999999995 21.666666666666668
      vertex 1.2000000000000028 -15.865000000000009 21.666666666666668
    endloop
  endfacet
  facet normal 0 1 0
    outer loop
      vertex 38.212500000000006 -15.865000000000009 1.6
      vertex 1.2000000000000028 -15.865000000000009 21.666666666666668
      vertex 38.212500000000006 -15.865000000000009 21.666666666666668
    endloop
  endfacet
  facet normal 0 0 1
    outer loop
      vertex 1.2000000000000028 -15.865000000000009 1.6
      vertex 38.212500000000006 15.864999999999995 1.6
      vertex 1.2000000000000028 15.864999999999995 1.6
    endloop
  endfacet
  facet normal 1 0 0
    outer loop
      vertex 1.2000000000000028 -15.865000000000009 1.6
      vertex 1.2000000000000028 15.864999999999995 1.6
      vertex 1.2000000000000028 15.864999999999995 21.666666666666668
    endloop
  endfacet
  facet normal 0 -1 0
    outer loop
      vertex 1.2000000000000028 15.864999999999995 1.6
      vertex 38.212500000000006 15.864999999999995 1.6
      vertex 1.2000000000000028 15.864999999999995 21.666666666666668
    endloop
  endfacet
  facet normal 0 -1 0
    outer loop
      vertex 38.212500000000006 15.864999999999995 1.6
      vertex 38.212500000000006 15.864999999999995 21.666666666666668
      vertex 1.2000000000000028 15.864999999999995 21.666666666666668
    endloop
  endfacet
  facet normal -1 0 0
    outer loop
      vertex 38.212500000000006 15.864999999999995 1.6
      vertex 38.212500000000006 -15.865000000000009 21.666666666666668
      vertex 38.212500000000006 15.864999999999995 21.666666666666668
    endloop
  endfacet
  facet normal 0 1 0
    outer loop
      vertex 1.2000000000000028 -49.99500000000002 1.6
      vertex 1.2000000000000028 -49.99500000000002 21.666666666666668
      vertex 38.212500000000006 -49.99500000000002 1.6
    endloop
  endfacet
  facet normal 0 0 1
    outer loop
      vertex 1.2000000000000028 -49.99500000000002 1.6
      vertex 38.212500000000006 -18.265000000000015 1.6
      vertex 1.2000000000000028 -18.265000000000015 1.6
    endloop
  endfacet
  facet normal 0 0 1
    outer loop
      vertex 1.2000000000000028 -49.99500000000002 1.6
      vertex 38.212500000000006 -49.99500000000002 1.6
      vertex 38.212500000000006 -18.265000000000015 1.6
    endloop
  endfacet
  facet normal 1 0 0
    outer loop
      vertex 1.2000000000000028 -49.99500000000002 1.6
      vertex 1.2000000000000028 -18.265000000000015 1.6
      vertex 1.2000000000000028 -18.265000000000015 21.666666666666668
    endloop
  endfacet
  facet normal -1 0 0
    outer loop
      vertex 38.212500000000006 -49.99500000000002 1.6
      vertex 38.212500000000006 -49.99500000000002 21.666666666666668
      vertex 38.212500000000006 -18.265000000000015 1.6
    endloop
  endfacet
  facet normal 0 -1 0
    outer loop
      vertex 1.2000000000000028 -18.265000000000015 1.6
      vertex 38.212500000000006 -18.265000000000015 1.6
      vertex 38.212500000000006 -18.265000000000015 21.666666666666668
    endloop
  endfacet
  facet normal 0 1 0
    outer loop
      vertex 38.212500000000006 -49.99500000000002 1.6
      vertex 1.2000000000000028 -49.99500000000002 21.666666666666668
      vertex 38.212500000000006 -49.99500000000002 21.666666666666668
    endloop
  endfacet
  facet normal 1 0 0
    outer loop
      vertex 1.2000000000000028 -49.99500000000002 1.6
      vertex 1.2000000000000028 -18.265000000000015 21.666666666666668
      vertex 1.2000000000000028 -49.99500000000002 21.666666666666668
    endloop
  endfacet
  facet normal 0 -1 0
    outer loop
      vertex 1.2000000000000028 -18.265000000000015 1.6
      vertex 38.212500000000006 -18.265000000000015 21.666666666666668
      vertex 1.2000000000000028 -18.265000000000015 21.666666666666668
    endloop
  endfacet
  facet normal -1 0 0
    outer loop
      vertex 38.212500000000006 -18.265000000000015 1.6
      vertex 38.212500000000006 -49.99500000000002 21.666666666666668
      vertex 38.212500000000006 -18.265000000000015 21.666666666666668
    endloop
  endfacet
  facet normal 0 0 1
    outer loop
      vertex 1.2000000000000028 -84.12500000000001 1.6
      vertex 38.212500000000006 -52.39500000000001 1.6
      vertex 1.2000000000000028 -52.39500000000001 1.6
    endloop
  endfacet
  facet normal 0 0 1
    outer loop
      vertex 1.2000000000000028 -84.12500000000001 1.6
      vertex 38.212500000000006 -84.12500000000001 1.6
      vertex 38.212500000000006 -52.39500000000001 1.6
    endloop
  endfacet
  facet normal 0 1 0
    outer loop
      vertex 1.2000000000000028 -84.12500000000001 1.6
      vertex 1.2000000000000028 -84.12500000000001 21.666666666666668
      vertex 38.212500000000006 -84.12500000000001 1.6
    endloop
  endfacet
  facet normal 1 0 0
    outer loop
      vertex 1.2000000000000028 -84.12500000000001 1.6
      vertex 1.2000000000000028 -52.39500000000001 1.6
      vertex 1.2000000000000028 -52.39500000000001 21.666666666666668
    endloop
  endfacet
  facet normal -1 0 0
    outer loop
      vertex 38.212500000000006 -84.12500000000001 1.6
      vertex 38.212500000000006 -84.12500000000001 21.666666666666668
      vertex 38.212500000000006 -52.39500000000001 1.6
    endloop
  endfacet
  facet normal 0 -1 0
    outer loop
      vertex 1.2000000000000028 -52.39500000000001 1.6
      vertex 38.212500000000006 -52.39500000000001 1.6
      vertex 38.212500000000006 -52.39500000000001 21.666666666666668
    endloop
  endfacet
  facet normal 1 0 0
    outer loop
      vertex 1.2000000000000028 -84.12500000000001 1.6
      vertex 1.2000000000000028 -52.39500000000001 21.666666666666668
      vertex 1.2000000000000028 -84.12500000000001 21.666666666666668
    endloop
  endfacet
  facet normal 0 -1 0
    outer loop
      vertex 1.2000000000000028 -52.39500000000001 1.6
      vertex 38.212500000000006 -52.39500000000001 21.666666666666668
      vertex 1.2000000000000028 -52.39500000000001 21.666666666666668
    endloop
  endfacet
  facet normal 0 1 0
    outer loop
      vertex 38.212500000000006 -84.12500000000001 1.6
      vertex 1.2000000000000028 -84.12500000000001 21.666666666666668
      vertex 38.212500000000006 -84.12500000000001 21.666666666666668
    endloop
  endfacet
  facet normal -1 0 0
    outer loop
      vertex 38.212500000000006 -52.39500000000001 1.6
      vertex 38.212500000000006 -84.12500000000001 21.666666666666668
      vertex 38.212500000000006 -52.39500000000001 21.666666666666668
    endloop
  endfacet
  facet normal 0 0 1
    outer loop
      vertex 40.61250000000001 52.394999999999996 1.6
      vertex 77.62500000000001 84.125 1.6
      vertex 40.61250000000001 84.125 1.6
    endloop
  endfacet
  facet normal 0 0 1
    outer loop
      vertex 40.61250000000001 52.394999999999996 1.6
      vertex 77.62500000000001 52.394999999999996 1.6
      vertex 77.62500000000001 84.125 1.6
    endloop
  endfacet
  facet normal 0 1 0
    outer loop
      vertex 40.61250000000001 52.394999999999996 1.6
      vertex 40.61250000000001 52.394999999999996 21.666666666666668
      vertex 77.62500000000001 52.394999999999996 1.6
    endloop
  endfacet
  facet normal 1 0 0
    outer loop
      vertex 40.61250000000001 52.394999999999996 1.6
      vertex 40.61250000000001 84.125 1.6
      vertex 40.61250000000001 84.125 21.666666666666668
    endloop
  endfacet
  facet normal -1 0 0
    outer loop
      vertex 77.62500000000001 52.394999999999996 1.6
      vertex 77.62500000000001 52.394999999999996 21.666666666666668
      vertex 77.62500000000001 84.125 1.6
    endloop
  endfacet
  facet normal 0 -1 0
    outer loop
      vertex 40.61250000000001 84.125 1.6
      vertex 77.62500000000001 84.125 1.6
      vertex 77.62500000000001 84.125 21.666666666666668
    endloop
  endfacet
  facet normal 1 0 0
    outer loop
      vertex 40.61250000000001 52.394999999999996 1.6
      vertex 40.61250000000001 84.125 21.666666666666668
      vertex 40.61250000000001 52.394999999999996 21.666666666666668
    endloop
  endfacet
  facet normal 0 -1 0
    outer loop
      vertex 40.61250000000001 84.125 1.6
      vertex 77.62500000000001 84.125 21.666666666666668
      vertex 40.61250000000001 84.125 21.666666666666668
    endloop
  endfacet
  facet normal 0 1 0
    outer loop
      vertex 77.62500000000001 52.394999999999996 1.6
      vertex 40.61250000000001 52.394999999999996 21.666666666666668
      vertex 77.62500000000001 52.394999999999996 21.666666666666668
    endloop
  endfacet
  facet normal -1 0 0
    outer loop
      vertex 77.62500000000001 84.125 1.6
      vertex 77.62500000000001 52.394999999999996 21.666666666666668
      vertex 77.62500000000001 84.125 21.666666666666668
    endloop
  endfacet
  facet normal 0 0 1
    outer loop
      vertex 40.61250000000001 18.265 1.6
      vertex 77.62500000000001 49.995000000000005 1.6
      vertex 40.61250000000001 49.995000000000005 1.6
    endloop
  endfacet
  facet normal 0 0 1
    outer loop
      vertex 40.61250000000001 18.265 1.6
      vertex 77.62500000000001 18.265 1.6
      vertex 77.62500000000001 49.995000000000005 1.6
    endloop
  endfacet
  facet normal 0 1 0
    outer loop
      vertex 40.61250000000001 18.265 1.6
      vertex 40.61250000000001 18.265 21.666666666666668
      vertex 77.62500000000001 18.265 1.6
    endloop
  endfacet
  facet normal 1 0 0
    outer loop
      vertex 40.61250000000001 18.265 1.6
      vertex 40.61250000000001 49.995000000000005 1.6
      vertex 40.61250000000001 49.995000000000005 21.666666666666668
    endloop
  endfacet
  facet normal -1 0 0
    outer loop
      vertex 77.62500000000001 18.265 1.6
      vertex 77.62500000000001 18.265 21.666666666666668
      vertex 77.62500000000001 49.995000000000005 1.6
    endloop
  endfacet
  facet normal 0 -1 0
    outer loop
      vertex 40.61250000000001 49.995000000000005 1.6
      vertex 77.62500000000001 49.995000000000005 1.6
      vertex 77.62500000000001 49.995000000000005 21.666666666666668
    endloop
  endfacet
  facet normal 1 0 0
    outer loop
      vertex 40.61250000000001 18.265 1.6
      vertex 40.61250000000001 49.995000000000005 21.666666666666668
      vertex 40.61250000000001 18.265 21.666666666666668
    endloop
  endfacet
  facet normal 0 1 0
    outer loop
      vertex 77.62500000000001 18.265 1.6
      vertex 40.61250000000001 18.265 21.666666666666668
      vertex 77.62500000000001 18.265 21.666666666666668
    endloop
  endfacet
  facet normal -1 0 0
    outer loop
      vertex 77.62500000000001 49.995000000000005 1.6
      vertex 77.62500000000001 18.265 21.666666666666668
      vertex 77.62500000000001 49.995000000000005 21.666666666666668
    endloop
  endfacet
  facet normal 0 -1 0
    outer loop
      vertex 40.61250000000001 49.995000000000005 1.6
      vertex 77.62500000000001 49.995000000000005 21.666666666666668
      vertex 40.61250000000001 49.995000000000005 21.666666666666668
    endloop
  endfacet
  facet normal 0 0 1
    outer loop
      vertex 40.61250000000001 -15.865000000000009 1.6
      vertex 77.62500000000001 -15.865000000000009 1.6
      vertex 77.62500000000001 15.864999999999995 1.6
    endloop
  endfacet
  facet normal 0 1 0
    outer loop
      vertex 40.61250000000001 -15.865000000000009 1.6
      vertex 77.62500000000001 -15.865000000000009 21.666666666666668
      vertex 77.62500000000001 -15.865000000000009 1.6
    endloop
  endfacet
  facet normal -1 0 0
    outer loop
      vertex 77.62500000000001 -15.865000000000009 1.6
      vertex 77.62500000000001 -15.865000000000009 21.666666666666668
      vertex 77.62500000000001 15.864999999999995 1.6
    endloop
  endfacet
  facet normal 1 0 0
    outer loop
      vertex 40.61250000000001 -15.865000000000009 1.6
      vertex 40.61250000000001 15.864999999999995 21.666666666666668
      vertex 40.61250000000001 -15.865000000000009 21.666666666666668
    endloop
  endfacet
  facet normal 0 1 0
    outer loop
      vertex 40.61250000000001 -15.865000000000009 1.6
      vertex 40.61250000000001 -15.865000000000009 21.666666666666668
      vertex 77.62500000000001 -15.865000000000009 21.666666666666668
    endloop
  endfacet
  facet normal 0 0 1
    outer loop
      vertex 40.61250000000001 -15.865000000000009 1.6
      vertex 77.62500000000001 15.864999999999995 1.6
      vertex 40.61250000000001 15.864999999999995 1.6
    endloop
  endfacet
  facet normal 1 0 0
    outer loop
      vertex 40.61250000000001 -15.865000000000009 1.6
      vertex 40.61250000000001 15.864999999999995 1.6
      vertex 40.61250000000001 15.864999999999995 21.666666666666668
    endloop
  endfacet
  facet normal 0 -1 0
    outer loop
      vertex 40.61250000000001 15.864999999999995 1.6
      vertex 77.62500000000001 15.864999999999995 1.6
      vertex 77.62500000000001 15.864999999999995 21.666666666666668
    endloop
  endfacet
  facet normal 0 -1 0
    outer loop
      vertex 40.61250000000001 15.864999999999995 1.6
      vertex 77.62500000000001 15.864999999999995 21.666666666666668
      vertex 40.61250000000001 15.864999999999995 21.666666666666668
    endloop
  endfacet
  facet normal -1 0 0
    outer loop
      vertex 77.62500000000001 15.864999999999995 1.6
      vertex 77.62500000000001 -15.865000000000009 21.666666666666668
      vertex 77.62500000000001 15.864999999999995 21.666666666666668
    endloop
  endfacet
  facet normal 0 1 0
    outer loop
      vertex 40.61250000000001 -49.99500000000002 1.6
      vertex 40.61250000000001 -49.99500000000002 21.666666666666668
      vertex 77.62500000000001 -49.99500000000002 1.6
    endloop
  endfacet
  facet normal 0 0 1
    outer loop
      vertex 40.61250000000001 -49.99500000000002 1.6
      vertex 77.62500000000001 -18.265000000000015 1.6
      vertex 40.61250000000001 -18.265000000000015 1.6
    endloop
  endfacet
  facet normal 0 0 1
    outer loop
      vertex 40.61250000000001 -49.99500000000002 1.6
      vertex 77.62500000000001 -49.99500000000002 1.6
      vertex 77.62500000000001 -18.265000000000015 1.6
    endloop
  endfacet
  facet normal 1 0 0
    outer loop
      vertex 40.61250000000001 -49.99500000000002 1.6
      vertex 40.61250000000001 -18.265000000000015 1.6
      vertex 40.61250000000001 -18.265000000000015 21.666666666666668
    endloop
  endfacet
  facet normal 0 -1 0
    outer loop
      vertex 40.61250000000001 -18.265000000000015 1.6
      vertex 77.62500000000001 -18.265000000000015 1.6
      vertex 40.61250000000001 -18.265000000000015 21.666666666666668
    endloop
  endfacet
  facet normal -1 0 0
    outer loop
      vertex 77.62500000000001 -49.99500000000002 1.6
      vertex 77.62500000000001 -49.99500000000002 21.666666666666668
      vertex 77.62500000000001 -18.265000000000015 1.6
    endloop
  endfacet
  facet normal 0 1 0
    outer loop
      vertex 77.62500000000001 -49.99500000000002 1.6
      vertex 40.61250000000001 -49.99500000000002 21.666666666666668
      vertex 77.62500000000001 -49.99500000000002 21.666666666666668
    endloop
  endfacet
  facet normal 1 0 0
    outer loop
      vertex 40.61250000000001 -49.99500000000002 1.6
      vertex 40.61250000000001 -18.265000000000015 21.666666666666668
      vertex 40.61250000000001 -49.99500000000002 21.666666666666668
    endloop
  endfacet
  facet normal -1 0 0
    outer loop
      vertex 77.62500000000001 -18.265000000000015 1.6
      vertex 77.62500000000001 -49.99500000000002 21.666666666666668
      vertex 77.62500000000001 -18.265000000000015 21.666666666666668
    endloop
  endfacet
  facet normal 0 -1 0
    outer loop
      vertex 77.62500000000001 -18.265000000000015 1.6
      vertex 77.62500000000001 -18.265000000000015 21.666666666666668
      vertex 40.61250000000001 -18.265000000000015 21.666666666666668
    endloop
  endfacet
  facet normal 0 0 1
    outer loop
      vertex 40.61250000000001 -84.12500000000001 1.6
      vertex 77.62500000000001 -52.39500000000001 1.6
      vertex 40.61250000000001 -52.39500000000001 1.6
    endloop
  endfacet
  facet normal 0 0 1
    outer loop
      vertex 40.61250000000001 -84.12500000000001 1.6
      vertex 77.62500000000001 -84.12500000000001 1.6
      vertex 77.62500000000001 -52.39500000000001 1.6
    endloop
  endfacet
  facet normal 0 1 0
    outer loop
      vertex 40.61250000000001 -84.12500000000001 1.6
      vertex 40.61250000000001 -84.12500000000001 21.666666666666668
      vertex 77.62500000000001 -84.12500000000001 1.6
    endloop
  endfacet
  facet normal 1 0 0
    outer loop
      vertex 40.61250000000001 -84.12500000000001 1.6
      vertex 40.61250000000001 -52.39500000000001 1.6
      vertex 40.61250000000001 -52.39500000000001 21.666666666666668
    endloop
  endfacet
  facet normal -1 0 0
    outer loop
      vertex 77.62500000000001 -84.12500000000001 1.6
      vertex 77.62500000000001 -84.12500000000001 21.666666666666668
      vertex 77.62500000000001 -52.39500000000001 1.6
    endloop
  endfacet
  facet normal 0 -1 0
    outer loop
      vertex 40.61250000000001 -52.39500000000001 1.6
      vertex 77.62500000000001 -52.39500000000001 1.6
      vertex 77.62500000000001 -52.39500000000001 21.666666666666668
    endloop
  endfacet
  facet normal 1 0 0
    outer loop
      vertex 40.61250000000001 -84.12500000000001 1.6
      vertex 40.61250000000001 -52.39500000000001 21.666666666666668
      vertex 40.61250000000001 -84.12500000000001 21.666666666666668
    endloop
  endfacet
  facet normal 0 -1 0
    outer loop
      vertex 40.61250000000001 -52.39500000000001 1.6
      vertex 77.62500000000001 -52.39500000000001 21.666666666666668
      vertex 40.61250000000001 -52.39500000000001 21.666666666666668
    endloop
  endfacet
  facet normal 0 1 0
    outer loop
      vertex 77.62500000000001 -84.12500000000001 1.6
      vertex 40.61250000000001 -84.12500000000001 21.666666666666668
      vertex 77.62500000000001 -84.12500000000001 21.666666666666668
    endloop
  endfacet
  facet normal -1 0 0
    outer loop
      vertex 77.62500000000001 -52.39500000000001 1.6
      vertex 77.62500000000001 -84.12500000000001 21.666666666666668
      vertex 77.62500000000001 -52.39500000000001 21.666666666666668
    endloop
  endfacet
endsolid OpenSCAD_Model
