<?xml version="1.0" encoding="UTF-8" standalone="no"?>
<!DOCTYPE svg PUBLIC "-//W3C//DTD SVG 1.1//EN"
 "http://www.w3.org/Graphics/SVG/1.1/DTD/svg11.dtd">
<!-- Generated by graphviz version 5.0.0 (20220707.1540)
 -->
<!-- Title: default Pages: 1 -->
<svg width="312pt" height="368pt"
 viewBox="0.00 0.00 312.08 368.00" xmlns="http://www.w3.org/2000/svg" xmlns:xlink="http://www.w3.org/1999/xlink">
<g id="graph0" class="graph" transform="scale(1 1) rotate(0) translate(4 364)">
<title>default</title>
<polygon fill="white" stroke="transparent" points="-4,4 -4,-364 308.08,-364 308.08,4 -4,4"/>
<!-- root_1 -->
<g id="node1" class="node">
<title>root_1</title>
<g id="a_node1"><a xlink:href="javascript:s=&quot;\(\)\nNone&quot;; console.log(s); alert(s);" xlink:title="root">
<ellipse fill="none" stroke="black" cx="27" cy="-180" rx="27" ry="18"/>
<text text-anchor="middle" x="27" y="-176.3" font-family="Times New Roman,serif" font-size="14.00">root</text>
</a>
</g>
</g>
<!-- default_2 -->
<g id="node2" class="node">
<title>default_2</title>
<g id="a_node2"><a xlink:href="javascript:s=&quot;\(&#x27;default&#x27;,\)\nMixGridBox&quot;; console.log(s); alert(s);" xlink:title="MixGridBox">
<ellipse fill="none" stroke="black" cx="125.1" cy="-180" rx="35.19" ry="18"/>
<text text-anchor="middle" x="125.1" y="-176.3" font-family="Times New Roman,serif" font-size="14.00">default</text>
</a>
</g>
</g>
<!-- root_1&#45;&gt;default_2 -->
<g id="edge1" class="edge">
<title>root_1&#45;&gt;default_2</title>
<path fill="none" stroke="black" d="M54.01,-180C61.92,-180 70.84,-180 79.61,-180"/>
<polygon fill="black" stroke="black" points="79.76,-183.5 89.76,-180 79.76,-176.5 79.76,-183.5"/>
</g>
<!-- box_3 -->
<g id="node3" class="node">
<title>box_3</title>
<g id="a_node3"><a xlink:href="javascript:s=&quot;\(&#x27;default&#x27;,\ &#x27;box&#x27;\)\nBox&quot;; console.log(s); alert(s);" xlink:title="Box">
<ellipse fill="none" stroke="black" cx="250.14" cy="-342" rx="27" ry="18"/>
<text text-anchor="middle" x="250.14" y="-338.3" font-family="Times New Roman,serif" font-size="14.00">box</text>
</a>
</g>
</g>
<!-- default_2&#45;&gt;box_3 -->
<g id="edge2" class="edge">
<title>default_2&#45;&gt;box_3</title>
<path fill="none" stroke="black" d="M131.43,-197.91C140.58,-226 161.71,-280.77 196.19,-315 202.01,-320.78 209.32,-325.57 216.63,-329.43"/>
<polygon fill="black" stroke="black" points="215.25,-332.65 225.78,-333.83 218.28,-326.34 215.25,-332.65"/>
</g>
<!-- hole_4 -->
<g id="node4" class="node">
<title>hole_4</title>
<g id="a_node4"><a xlink:href="javascript:s=&quot;\(&#x27;default&#x27;,\ \(&#x27;hole&#x27;,\ 0,\ 0\)\)\nBox&quot;; console.log(s); alert(s);" xlink:title="Box">
<ellipse fill="none" stroke="black" cx="250.14" cy="-288" rx="53.89" ry="18"/>
<text text-anchor="middle" x="250.14" y="-284.3" font-family="Times New Roman,serif" font-size="14.00">(&#39;hole&#39;, 0, 0)</text>
</a>
</g>
</g>
<!-- default_2&#45;&gt;hole_4 -->
<g id="edge3" class="edge">
<title>default_2&#45;&gt;hole_4</title>
<path fill="none" stroke="black" d="M137.68,-196.9C150.44,-214.58 172.33,-242.31 196.19,-261 199.76,-263.8 203.67,-266.43 207.68,-268.87"/>
<polygon fill="black" stroke="black" points="206.15,-272.02 216.58,-273.9 209.6,-265.93 206.15,-272.02"/>
</g>
<!-- hole_5 -->
<g id="node5" class="node">
<title>hole_5</title>
<g id="a_node5"><a xlink:href="javascript:s=&quot;\(&#x27;default&#x27;,\ \(&#x27;hole&#x27;,\ 0,\ 1\)\)\nBox&quot;; console.log(s); alert(s);" xlink:title="Box">
<ellipse fill="none" stroke="black" cx="250.14" cy="-234" rx="53.89" ry="18"/>
<text text-anchor="middle" x="250.14" y="-230.3" font-family="Times New Roman,serif" font-size="14.00">(&#39;hole&#39;, 0, 1)</text>
</a>
</g>
</g>
<!-- default_2&#45;&gt;hole_5 -->
<g id="edge4" class="edge">
<title>default_2&#45;&gt;hole_5</title>
<path fill="none" stroke="black" d="M152.19,-191.45C168.17,-198.46 188.99,-207.6 207.23,-215.61"/>
<polygon fill="black" stroke="black" points="205.94,-218.86 216.5,-219.68 208.75,-212.45 205.94,-218.86"/>
</g>
<!-- hole_6 -->
<g id="node6" class="node">
<title>hole_6</title>
<g id="a_node6"><a xlink:href="javascript:s=&quot;\(&#x27;default&#x27;,\ \(&#x27;hole&#x27;,\ 1,\ 0\)\)\nBox&quot;; console.log(s); alert(s);" xlink:title="Box">
<ellipse fill="none" stroke="black" cx="250.14" cy="-180" rx="53.89" ry="18"/>
<text text-anchor="middle" x="250.14" y="-176.3" font-family="Times New Roman,serif" font-size="14.00">(&#39;hole&#39;, 1, 0)</text>
</a>
</g>
</g>
<!-- default_2&#45;&gt;hole_6 -->
<g id="edge5" class="edge">
<title>default_2&#45;&gt;hole_6</title>
<path fill="none" stroke="black" d="M160.37,-180C168.43,-180 177.27,-180 186.15,-180"/>
<polygon fill="black" stroke="black" points="186.16,-183.5 196.16,-180 186.16,-176.5 186.16,-183.5"/>
</g>
<!-- hole_7 -->
<g id="node7" class="node">
<title>hole_7</title>
<g id="a_node7"><a xlink:href="javascript:s=&quot;\(&#x27;default&#x27;,\ \(&#x27;hole&#x27;,\ 1,\ 1\)\)\nBox&quot;; console.log(s); alert(s);" xlink:title="Box">
<ellipse fill="none" stroke="black" cx="250.14" cy="-126" rx="53.89" ry="18"/>
<text text-anchor="middle" x="250.14" y="-122.3" font-family="Times New Roman,serif" font-size="14.00">(&#39;hole&#39;, 1, 1)</text>
</a>
</g>
</g>
<!-- default_2&#45;&gt;hole_7 -->
<g id="edge6" class="edge">
<title>default_2&#45;&gt;hole_7</title>
<path fill="none" stroke="black" d="M152.19,-168.55C168.17,-161.54 188.99,-152.4 207.23,-144.39"/>
<polygon fill="black" stroke="black" points="208.75,-147.55 216.5,-140.32 205.94,-141.14 208.75,-147.55"/>
</g>
<!-- hole_8 -->
<g id="node8" class="node">
<title>hole_8</title>
<g id="a_node8"><a xlink:href="javascript:s=&quot;\(&#x27;default&#x27;,\ \(&#x27;hole&#x27;,\ 2,\ 0\)\)\nBox&quot;; console.log(s); alert(s);" xlink:title="Box">
<ellipse fill="none" stroke="black" cx="250.14" cy="-72" rx="53.89" ry="18"/>
<text text-anchor="middle" x="250.14" y="-68.3" font-family="Times New Roman,serif" font-size="14.00">(&#39;hole&#39;, 2, 0)</text>
</a>
</g>
</g>
<!-- default_2&#45;&gt;hole_8 -->
<g id="edge7" class="edge">
<title>default_2&#45;&gt;hole_8</title>
<path fill="none" stroke="black" d="M137.68,-163.1C150.44,-145.42 172.33,-117.69 196.19,-99 199.76,-96.2 203.67,-93.57 207.68,-91.13"/>
<polygon fill="black" stroke="black" points="209.6,-94.07 216.58,-86.1 206.15,-87.98 209.6,-94.07"/>
</g>
<!-- hole_9 -->
<g id="node9" class="node">
<title>hole_9</title>
<g id="a_node9"><a xlink:href="javascript:s=&quot;\(&#x27;default&#x27;,\ \(&#x27;hole&#x27;,\ 2,\ 1\)\)\nBox&quot;; console.log(s); alert(s);" xlink:title="Box">
<ellipse fill="none" stroke="black" cx="250.14" cy="-18" rx="53.89" ry="18"/>
<text text-anchor="middle" x="250.14" y="-14.3" font-family="Times New Roman,serif" font-size="14.00">(&#39;hole&#39;, 2, 1)</text>
</a>
</g>
</g>
<!-- default_2&#45;&gt;hole_9 -->
<g id="edge8" class="edge">
<title>default_2&#45;&gt;hole_9</title>
<path fill="none" stroke="black" d="M131.43,-162.09C140.58,-134 161.71,-79.23 196.19,-45 199.16,-42.06 202.51,-39.37 206.05,-36.93"/>
<polygon fill="black" stroke="black" points="207.89,-39.91 214.57,-31.68 204.22,-33.95 207.89,-39.91"/>
</g>
</g>
</svg>
