<?xml version="1.0" encoding="UTF-8" standalone="no"?>
<!DOCTYPE svg PUBLIC "-//W3C//DTD SVG 1.1//EN"
 "http://www.w3.org/Graphics/SVG/1.1/DTD/svg11.dtd">
<!-- Generated by graphviz version 5.0.0 (20220707.1540)
 -->
<!-- Title: larger_holes Pages: 1 -->
<svg width="351pt" height="260pt"
 viewBox="0.00 0.00 351.08 260.00" xmlns="http://www.w3.org/2000/svg" xmlns:xlink="http://www.w3.org/1999/xlink">
<g id="graph0" class="graph" transform="scale(1 1) rotate(0) translate(4 256)">
<title>larger_holes</title>
<polygon fill="white" stroke="transparent" points="-4,4 -4,-256 347.08,-256 347.08,4 -4,4"/>
<!-- root_235 -->
<g id="node1" class="node">
<title>root_235</title>
<g id="a_node1"><a xlink:href="javascript:s=&quot;\(\)\nNone&quot;; console.log(s); alert(s);" xlink:title="root">
<ellipse fill="none" stroke="black" cx="27" cy="-126" rx="27" ry="18"/>
<text text-anchor="middle" x="27" y="-122.3" font-family="Times New Roman,serif" font-size="14.00">root</text>
</a>
</g>
</g>
<!-- larger_holes_236 -->
<g id="node2" class="node">
<title>larger_holes_236</title>
<g id="a_node2"><a xlink:href="javascript:s=&quot;\(&#x27;larger_holes&#x27;,\)\nSimpleGridBox&quot;; console.log(s); alert(s);" xlink:title="SimpleGridBox">
<ellipse fill="none" stroke="black" cx="144.6" cy="-126" rx="54.69" ry="18"/>
<text text-anchor="middle" x="144.6" y="-122.3" font-family="Times New Roman,serif" font-size="14.00">larger_holes</text>
</a>
</g>
</g>
<!-- root_235&#45;&gt;larger_holes_236 -->
<g id="edge1" class="edge">
<title>root_235&#45;&gt;larger_holes_236</title>
<path fill="none" stroke="black" d="M54.23,-126C61.88,-126 70.59,-126 79.5,-126"/>
<polygon fill="black" stroke="black" points="79.6,-129.5 89.6,-126 79.6,-122.5 79.6,-129.5"/>
</g>
<!-- box_237 -->
<g id="node3" class="node">
<title>box_237</title>
<g id="a_node3"><a xlink:href="javascript:s=&quot;\(&#x27;larger_holes&#x27;,\ &#x27;box&#x27;\)\nBox&quot;; console.log(s); alert(s);" xlink:title="Box">
<ellipse fill="none" stroke="black" cx="289.14" cy="-234" rx="27" ry="18"/>
<text text-anchor="middle" x="289.14" y="-230.3" font-family="Times New Roman,serif" font-size="14.00">box</text>
</a>
</g>
</g>
<!-- larger_holes_236&#45;&gt;box_237 -->
<g id="edge2" class="edge">
<title>larger_holes_236&#45;&gt;box_237</title>
<path fill="none" stroke="black" d="M161.97,-143.27C179.12,-160.75 207.39,-187.85 235.19,-207 241.94,-211.65 249.6,-216.02 256.96,-219.82"/>
<polygon fill="black" stroke="black" points="255.51,-223.01 266.02,-224.33 258.62,-216.74 255.51,-223.01"/>
</g>
<!-- hole_238 -->
<g id="node4" class="node">
<title>hole_238</title>
<g id="a_node4"><a xlink:href="javascript:s=&quot;\(&#x27;larger_holes&#x27;,\ \(&#x27;hole&#x27;,\ 0,\ 0\)\)\nBox&quot;; console.log(s); alert(s);" xlink:title="Box">
<ellipse fill="none" stroke="black" cx="289.14" cy="-180" rx="53.89" ry="18"/>
<text text-anchor="middle" x="289.14" y="-176.3" font-family="Times New Roman,serif" font-size="14.00">(&#39;hole&#39;, 0, 0)</text>
</a>
</g>
</g>
<!-- larger_holes_236&#45;&gt;hole_238 -->
<g id="edge3" class="edge">
<title>larger_holes_236&#45;&gt;hole_238</title>
<path fill="none" stroke="black" d="M181.2,-139.49C199.9,-146.57 223.03,-155.34 242.99,-162.9"/>
<polygon fill="black" stroke="black" points="241.9,-166.23 252.49,-166.5 244.38,-159.68 241.9,-166.23"/>
</g>
<!-- hole_239 -->
<g id="node5" class="node">
<title>hole_239</title>
<g id="a_node5"><a xlink:href="javascript:s=&quot;\(&#x27;larger_holes&#x27;,\ \(&#x27;hole&#x27;,\ 0,\ 1\)\)\nBox&quot;; console.log(s); alert(s);" xlink:title="Box">
<ellipse fill="none" stroke="black" cx="289.14" cy="-126" rx="53.89" ry="18"/>
<text text-anchor="middle" x="289.14" y="-122.3" font-family="Times New Roman,serif" font-size="14.00">(&#39;hole&#39;, 0, 1)</text>
</a>
</g>
</g>
<!-- larger_holes_236&#45;&gt;hole_239 -->
<g id="edge4" class="edge">
<title>larger_holes_236&#45;&gt;hole_239</title>
<path fill="none" stroke="black" d="M199.48,-126C207.78,-126 216.41,-126 224.89,-126"/>
<polygon fill="black" stroke="black" points="225.12,-129.5 235.12,-126 225.12,-122.5 225.12,-129.5"/>
</g>
<!-- hole_240 -->
<g id="node6" class="node">
<title>hole_240</title>
<g id="a_node6"><a xlink:href="javascript:s=&quot;\(&#x27;larger_holes&#x27;,\ \(&#x27;hole&#x27;,\ 1,\ 0\)\)\nBox&quot;; console.log(s); alert(s);" xlink:title="Box">
<ellipse fill="none" stroke="black" cx="289.14" cy="-72" rx="53.89" ry="18"/>
<text text-anchor="middle" x="289.14" y="-68.3" font-family="Times New Roman,serif" font-size="14.00">(&#39;hole&#39;, 1, 0)</text>
</a>
</g>
</g>
<!-- larger_holes_236&#45;&gt;hole_240 -->
<g id="edge5" class="edge">
<title>larger_holes_236&#45;&gt;hole_240</title>
<path fill="none" stroke="black" d="M181.2,-112.51C199.9,-105.43 223.03,-96.66 242.99,-89.1"/>
<polygon fill="black" stroke="black" points="244.38,-92.32 252.49,-85.5 241.9,-85.77 244.38,-92.32"/>
</g>
<!-- hole_241 -->
<g id="node7" class="node">
<title>hole_241</title>
<g id="a_node7"><a xlink:href="javascript:s=&quot;\(&#x27;larger_holes&#x27;,\ \(&#x27;hole&#x27;,\ 1,\ 1\)\)\nBox&quot;; console.log(s); alert(s);" xlink:title="Box">
<ellipse fill="none" stroke="black" cx="289.14" cy="-18" rx="53.89" ry="18"/>
<text text-anchor="middle" x="289.14" y="-14.3" font-family="Times New Roman,serif" font-size="14.00">(&#39;hole&#39;, 1, 1)</text>
</a>
</g>
</g>
<!-- larger_holes_236&#45;&gt;hole_241 -->
<g id="edge6" class="edge">
<title>larger_holes_236&#45;&gt;hole_241</title>
<path fill="none" stroke="black" d="M161.97,-108.73C179.12,-91.25 207.39,-64.15 235.19,-45 239.13,-42.29 243.37,-39.67 247.68,-37.21"/>
<polygon fill="black" stroke="black" points="249.44,-40.24 256.55,-32.38 246.1,-34.09 249.44,-40.24"/>
</g>
</g>
</svg>
