solid OpenSCAD_Model
  facet normal 0 0 1
    outer loop
      vertex -81.4 -79.65 21.666666666666668
      vertex -79 -77.25 21.666666666666668
      vertex -79 -1.2000000000000028 21.666666666666668
    endloop
  endfacet
  facet normal -1 0 0
    outer loop
      vertex -81.4 -79.65 0
      vertex -81.4 -79.65 21.666666666666668
      vertex -81.4 79.65 21.666666666666668
    endloop
  endfacet
  facet normal 0 0 1
    outer loop
      vertex -81.4 -79.65 21.666666666666668
      vertex -79 -1.2000000000000028 21.666666666666668
      vertex -79 1.2000000000000028 21.666666666666668
    endloop
  endfacet
  facet normal 0 0 1
    outer loop
      vertex -79 -1.2000000000000028 21.666666666666668
      vertex -41.3 -1.2000000000000028 21.666666666666668
      vertex -79 1.2000000000000028 21.666666666666668
    endloop
  endfacet
  facet normal 0 -1 0
    outer loop
      vertex -81.4 -79.65 0
      vertex 81.4 -79.65 21.666666666666668
      vertex -81.4 -79.65 21.666666666666668
    endloop
  endfacet
  facet normal 0 0 1
    outer loop
      vertex -81.4 -79.65 21.666666666666668
      vertex 81.4 -79.65 21.666666666666668
      vertex -79 -77.25 21.666666666666668
    endloop
  endfacet
  facet normal 0 0 1
    outer loop
      vertex -41.3 -77.25 21.666666666666668
      vertex -38.900000000000006 -77.25 21.666666666666668
      vertex -38.900000000000006 -1.2000000000000028 21.666666666666668
    endloop
  endfacet
  facet normal 0 0 1
    outer loop
      vertex 81.4 -79.65 21.666666666666668
      vertex -41.3 -77.25 21.666666666666668
      vertex -79 -77.25 21.666666666666668
    endloop
  endfacet
  facet normal 0 0 1
    outer loop
      vertex -41.3 -77.25 21.666666666666668
      vertex -38.900000000000006 -1.2000000000000028 21.666666666666668
      vertex -41.3 -1.2000000000000028 21.666666666666668
    endloop
  endfacet
  facet normal 0 0 1
    outer loop
      vertex -38.900000000000006 -1.2000000000000028 21.666666666666668
      vertex -38.900000000000006 1.2000000000000028 21.666666666666668
      vertex -41.3 -1.2000000000000028 21.666666666666668
    endloop
  endfacet
  facet normal 0 0 1
    outer loop
      vertex -38.900000000000006 -1.2000000000000028 21.666666666666668
      vertex -1.2000000000000028 -1.2000000000000028 21.666666666666668
      vertex -38.900000000000006 1.2000000000000028 21.666666666666668
    endloop
  endfacet
  facet normal 0 0 1
    outer loop
      vertex -1.2000000000000028 -77.25 21.666666666666668
      vertex 1.2000000000000028 -1.2000000000000028 21.666666666666668
      vertex -1.2000000000000028 -1.2000000000000028 21.666666666666668
    endloop
  endfacet
  facet normal 0 0 1
    outer loop
      vertex -38.900000000000006 1.2000000000000028 21.666666666666668
      vertex -1.2000000000000028 -1.2000000000000028 21.666666666666668
      vertex 1.2000000000000028 -1.2000000000000028 21.666666666666668
    endloop
  endfacet
  facet normal -1 0 0
    outer loop
      vertex -81.4 -79.65 0
      vertex -81.4 79.65 21.666666666666668
      vertex -81.4 79.65 0
    endloop
  endfacet
  facet normal 0 0 -1
    outer loop
      vertex -81.4 -79.65 0
      vertex -81.4 79.65 0
      vertex 81.4 79.65 0
    endloop
  endfacet
  facet normal 0 1 0
    outer loop
      vertex -81.4 79.65 0
      vertex -81.4 79.65 21.666666666666668
      vertex 81.4 79.65 0
    endloop
  endfacet
  facet normal 0 0 1
    outer loop
      vertex -81.4 -79.65 21.666666666666668
      vertex -79 1.2000000000000028 21.666666666666668
      vertex -81.4 79.65 21.666666666666668
    endloop
  endfacet
  facet normal 0 0 1
    outer loop
      vertex -41.3 -1.2000000000000028 21.666666666666668
      vertex -41.3 1.2000000000000028 21.666666666666668
      vertex -79 1.2000000000000028 21.666666666666668
    endloop
  endfacet
  facet normal 0 0 1
    outer loop
      vertex -81.4 79.65 21.666666666666668
      vertex -79 1.2000000000000028 21.666666666666668
      vertex -79 77.25 21.666666666666668
    endloop
  endfacet
  facet normal 0 0 1
    outer loop
      vertex -81.4 79.65 21.666666666666668
      vertex -79 77.25 21.666666666666668
      vertex -41.3 77.25 21.666666666666668
    endloop
  endfacet
  facet normal 0 0 1
    outer loop
      vertex -81.4 79.65 21.666666666666668
      vertex -41.3 77.25 21.666666666666668
      vertex -38.900000000000006 77.25 21.666666666666668
    endloop
  endfacet
  facet normal 0 0 1
    outer loop
      vertex -41.3 -1.2000000000000028 21.666666666666668
      vertex -38.900000000000006 1.2000000000000028 21.666666666666668
      vertex -41.3 1.2000000000000028 21.666666666666668
    endloop
  endfacet
  facet normal 0 0 1
    outer loop
      vertex -38.900000000000006 77.25 21.666666666666668
      vertex -41.3 1.2000000000000028 21.666666666666668
      vertex -38.900000000000006 1.2000000000000028 21.666666666666668
    endloop
  endfacet
  facet normal 0 0 1
    outer loop
      vertex 38.900000000000006 -1.2000000000000028 21.666666666666668
      vertex -1.2000000000000028 1.2000000000000028 21.666666666666668
      vertex -38.900000000000006 1.2000000000000028 21.666666666666668
    endloop
  endfacet
  facet normal 0 0 1
    outer loop
      vertex -41.3 1.2000000000000028 21.666666666666668
      vertex -38.900000000000006 77.25 21.666666666666668
      vertex -41.3 77.25 21.666666666666668
    endloop
  endfacet
  facet normal 0 0 1
    outer loop
      vertex -81.4 79.65 21.666666666666668
      vertex -38.900000000000006 77.25 21.666666666666668
      vertex -1.2000000000000028 77.25 21.666666666666668
    endloop
  endfacet
  facet normal 0 0 1
    outer loop
      vertex -81.4 79.65 21.666666666666668
      vertex -1.2000000000000028 77.25 21.666666666666668
      vertex 1.2000000000000028 77.25 21.666666666666668
    endloop
  endfacet
  facet normal 0 0 1
    outer loop
      vertex -1.2000000000000028 1.2000000000000028 21.666666666666668
      vertex 1.2000000000000028 77.25 21.666666666666668
      vertex -1.2000000000000028 77.25 21.666666666666668
    endloop
  endfacet
  facet normal 0 0 1
    outer loop
      vertex -81.4 79.65 21.666666666666668
      vertex 1.2000000000000028 77.25 21.666666666666668
      vertex 38.900000000000006 77.25 21.666666666666668
    endloop
  endfacet
  facet normal 0 0 1
    outer loop
      vertex -81.4 79.65 21.666666666666668
      vertex 38.900000000000006 77.25 21.666666666666668
      vertex 41.30000000000001 77.25 21.666666666666668
    endloop
  endfacet
  facet normal 0 -1 0
    outer loop
      vertex -81.4 -79.65 0
      vertex 81.4 -79.65 0
      vertex 81.4 -79.65 21.666666666666668
    endloop
  endfacet
  facet normal 0 0 -1
    outer loop
      vertex -81.4 -79.65 0
      vertex 81.4 79.65 0
      vertex 81.4 -79.65 0
    endloop
  endfacet
  facet normal 1 0 0
    outer loop
      vertex 81.4 -79.65 0
      vertex 81.4 79.65 0
      vertex 81.4 -79.65 21.666666666666668
    endloop
  endfacet
  facet normal 0 0 1
    outer loop
      vertex 81.4 -79.65 21.666666666666668
      vertex -38.900000000000006 -77.25 21.666666666666668
      vertex -41.3 -77.25 21.666666666666668
    endloop
  endfacet
  facet normal 0 0 1
    outer loop
      vertex 81.4 -79.65 21.666666666666668
      vertex -1.2000000000000028 -77.25 21.666666666666668
      vertex -38.900000000000006 -77.25 21.666666666666668
    endloop
  endfacet
  facet normal 0 0 1
    outer loop
      vertex -1.2000000000000028 -77.25 21.666666666666668
      vertex 1.2000000000000028 -77.25 21.666666666666668
      vertex 1.2000000000000028 -1.2000000000000028 21.666666666666668
    endloop
  endfacet
  facet normal 0 0 1
    outer loop
      vertex 81.4 -79.65 21.666666666666668
      vertex 1.2000000000000028 -77.25 21.666666666666668
      vertex -1.2000000000000028 -77.25 21.666666666666668
    endloop
  endfacet
  facet normal 0 0 1
    outer loop
      vertex 81.4 -79.65 21.666666666666668
      vertex 38.900000000000006 -77.25 21.666666666666668
      vertex 1.2000000000000028 -77.25 21.666666666666668
    endloop
  endfacet
  facet normal 0 0 1
    outer loop
      vertex 41.30000000000001 -1.2000000000000028 21.666666666666668
      vertex 38.900000000000006 -77.25 21.666666666666668
      vertex 41.30000000000001 -77.25 21.666666666666668
    endloop
  endfacet
  facet normal 0 0 1
    outer loop
      vertex -38.900000000000006 1.2000000000000028 21.666666666666668
      vertex 1.2000000000000028 -1.2000000000000028 21.666666666666668
      vertex 38.900000000000006 -1.2000000000000028 21.666666666666668
    endloop
  endfacet
  facet normal 0 0 1
    outer loop
      vertex 38.900000000000006 -77.25 21.666666666666668
      vertex 41.30000000000001 -1.2000000000000028 21.666666666666668
      vertex 38.900000000000006 -1.2000000000000028 21.666666666666668
    endloop
  endfacet
  facet normal 0 0 1
    outer loop
      vertex 41.30000000000001 -1.2000000000000028 21.666666666666668
      vertex 41.30000000000001 1.2000000000000028 21.666666666666668
      vertex 38.900000000000006 -1.2000000000000028 21.666666666666668
    endloop
  endfacet
  facet normal 0 0 1
    outer loop
      vertex 81.4 -79.65 21.666666666666668
      vertex 41.30000000000001 -77.25 21.666666666666668
      vertex 38.900000000000006 -77.25 21.666666666666668
    endloop
  endfacet
  facet normal 0 0 1
    outer loop
      vertex 81.4 -79.65 21.666666666666668
      vertex 79.00000000000001 -77.25 21.666666666666668
      vertex 41.30000000000001 -77.25 21.666666666666668
    endloop
  endfacet
  facet normal 0 0 1
    outer loop
      vertex 81.4 -79.65 21.666666666666668
      vertex 79.00000000000001 -1.2000000000000028 21.666666666666668
      vertex 79.00000000000001 -77.25 21.666666666666668
    endloop
  endfacet
  facet normal 0 0 1
    outer loop
      vertex 41.30000000000001 -1.2000000000000028 21.666666666666668
      vertex 79.00000000000001 -1.2000000000000028 21.666666666666668
      vertex 41.30000000000001 1.2000000000000028 21.666666666666668
    endloop
  endfacet
  facet normal 0 0 1
    outer loop
      vertex 81.4 -79.65 21.666666666666668
      vertex 79.00000000000001 1.2000000000000028 21.666666666666668
      vertex 79.00000000000001 -1.2000000000000028 21.666666666666668
    endloop
  endfacet
  facet normal 0 0 1
    outer loop
      vertex -1.2000000000000028 1.2000000000000028 21.666666666666668
      vertex 38.900000000000006 -1.2000000000000028 21.666666666666668
      vertex 1.2000000000000028 1.2000000000000028 21.666666666666668
    endloop
  endfacet
  facet normal 0 0 1
    outer loop
      vertex -1.2000000000000028 1.2000000000000028 21.666666666666668
      vertex 1.2000000000000028 1.2000000000000028 21.666666666666668
      vertex 1.2000000000000028 77.25 21.666666666666668
    endloop
  endfacet
  facet normal 0 0 1
    outer loop
      vertex 38.900000000000006 -1.2000000000000028 21.666666666666668
      vertex 38.900000000000006 1.2000000000000028 21.666666666666668
      vertex 1.2000000000000028 1.2000000000000028 21.666666666666668
    endloop
  endfacet
  facet normal 0 0 1
    outer loop
      vertex 38.900000000000006 -1.2000000000000028 21.666666666666668
      vertex 41.30000000000001 1.2000000000000028 21.666666666666668
      vertex 38.900000000000006 1.2000000000000028 21.666666666666668
    endloop
  endfacet
  facet normal 0 0 1
    outer loop
      vertex 38.900000000000006 1.2000000000000028 21.666666666666668
      vertex 41.30000000000001 1.2000000000000028 21.666666666666668
      vertex 41.30000000000001 77.25 21.666666666666668
    endloop
  endfacet
  facet normal 0 1 0
    outer loop
      vertex -81.4 79.65 21.666666666666668
      vertex 81.4 79.65 21.666666666666668
      vertex 81.4 79.65 0
    endloop
  endfacet
  facet normal 0 0 1
    outer loop
      vertex -81.4 79.65 21.666666666666668
      vertex 41.30000000000001 77.25 21.666666666666668
      vertex 79.00000000000001 77.25 21.666666666666668
    endloop
  endfacet
  facet normal 0 0 1
    outer loop
      vertex 38.900000000000006 1.2000000000000028 21.666666666666668
      vertex 41.30000000000001 77.25 21.666666666666668
      vertex 38.900000000000006 77.25 21.666666666666668
    endloop
  endfacet
  facet normal 0 0 1
    outer loop
      vertex -81.4 79.65 21.666666666666668
      vertex 79.00000000000001 77.25 21.666666666666668
      vertex 81.4 79.65 21.666666666666668
    endloop
  endfacet
  facet normal 1 0 0
    outer loop
      vertex 81.4 -79.65 21.666666666666668
      vertex 81.4 79.65 0
      vertex 81.4 79.65 21.666666666666668
    endloop
  endfacet
  facet normal 0 0 1
    outer loop
      vertex 79.00000000000001 -1.2000000000000028 21.666666666666668
      vertex 79.00000000000001 1.2000000000000028 21.666666666666668
      vertex 41.30000000000001 1.2000000000000028 21.666666666666668
    endloop
  endfacet
  facet normal 0 0 1
    outer loop
      vertex 81.4 -79.65 21.666666666666668
      vertex 81.4 79.65 21.666666666666668
      vertex 79.00000000000001 1.2000000000000028 21.666666666666668
    endloop
  endfacet
  facet normal 0 0 1
    outer loop
      vertex 81.4 79.65 21.666666666666668
      vertex 79.00000000000001 77.25 21.666666666666668
      vertex 79.00000000000001 1.2000000000000028 21.666666666666668
    endloop
  endfacet
  facet normal 0 0 1
    outer loop
      vertex -79 1.2000000000000028 1.6
      vertex -41.3 1.2000000000000028 1.6
      vertex -41.3 77.25 1.6
    endloop
  endfacet
  facet normal 0 1 0
    outer loop
      vertex -79 1.2000000000000028 1.6
      vertex -79 1.2000000000000028 21.666666666666668
      vertex -41.3 1.2000000000000028 1.6
    endloop
  endfacet
  facet normal -1 0 0
    outer loop
      vertex -41.3 1.2000000000000028 1.6
      vertex -41.3 1.2000000000000028 21.666666666666668
      vertex -41.3 77.25 1.6
    endloop
  endfacet
  facet normal 0 0 1
    outer loop
      vertex -79 1.2000000000000028 1.6
      vertex -41.3 77.25 1.6
      vertex -79 77.25 1.6
    endloop
  endfacet
  facet normal 1 0 0
    outer loop
      vertex -79 1.2000000000000028 1.6
      vertex -79 77.25 1.6
      vertex -79 77.25 21.666666666666668
    endloop
  endfacet
  facet normal 0 -1 0
    outer loop
      vertex -79 77.25 1.6
      vertex -41.3 77.25 1.6
      vertex -41.3 77.25 21.666666666666668
    endloop
  endfacet
  facet normal 1 0 0
    outer loop
      vertex -79 1.2000000000000028 1.6
      vertex -79 77.25 21.666666666666668
      vertex -79 1.2000000000000028 21.666666666666668
    endloop
  endfacet
  facet normal 0 1 0
    outer loop
      vertex -41.3 1.2000000000000028 1.6
      vertex -79 1.2000000000000028 21.666666666666668
      vertex -41.3 1.2000000000000028 21.666666666666668
    endloop
  endfacet
  facet normal 0 -1 0
    outer loop
      vertex -79 77.25 1.6
      vertex -41.3 77.25 21.666666666666668
      vertex -79 77.25 21.666666666666668
    endloop
  endfacet
  facet normal -1 0 0
    outer loop
      vertex -41.3 77.25 1.6
      vertex -41.3 1.2000000000000028 21.666666666666668
      vertex -41.3 77.25 21.666666666666668
    endloop
  endfacet
  facet normal 0 0 1
    outer loop
      vertex -79 -77.25 1.6
      vertex -41.3 -77.25 1.6
      vertex -41.3 -1.2000000000000028 1.6
    endloop
  endfacet
  facet normal 0 1 0
    outer loop
      vertex -79 -77.25 1.6
      vertex -79 -77.25 21.666666666666668
      vertex -41.3 -77.25 1.6
    endloop
  endfacet
  facet normal -1 0 0
    outer loop
      vertex -41.3 -77.25 1.6
      vertex -41.3 -77.25 21.666666666666668
      vertex -41.3 -1.2000000000000028 1.6
    endloop
  endfacet
  facet normal 0 0 1
    outer loop
      vertex -79 -77.25 1.6
      vertex -41.3 -1.2000000000000028 1.6
      vertex -79 -1.2000000000000028 1.6
    endloop
  endfacet
  facet normal 1 0 0
    outer loop
      vertex -79 -77.25 1.6
      vertex -79 -1.2000000000000028 1.6
      vertex -79 -1.2000000000000028 21.666666666666668
    endloop
  endfacet
  facet normal 0 -1 0
    outer loop
      vertex -79 -1.2000000000000028 1.6
      vertex -41.3 -1.2000000000000028 1.6
      vertex -41.3 -1.2000000000000028 21.666666666666668
    endloop
  endfacet
  facet normal 1 0 0
    outer loop
      vertex -79 -77.25 1.6
      vertex -79 -1.2000000000000028 21.666666666666668
      vertex -79 -77.25 21.666666666666668
    endloop
  endfacet
  facet normal 0 1 0
    outer loop
      vertex -41.3 -77.25 1.6
      vertex -79 -77.25 21.666666666666668
      vertex -41.3 -77.25 21.666666666666668
    endloop
  endfacet
  facet normal 0 -1 0
    outer loop
      vertex -79 -1.2000000000000028 1.6
      vertex -41.3 -1.2000000000000028 21.666666666666668
      vertex -79 -1.2000000000000028 21.666666666666668
    endloop
  endfacet
  facet normal -1 0 0
    outer loop
      vertex -41.3 -1.2000000000000028 1.6
      vertex -41.3 -77.25 21.666666666666668
      vertex -41.3 -1.2000000000000028 21.666666666666668
    endloop
  endfacet
  facet normal 0 0 1
    outer loop
      vertex -38.900000000000006 1.2000000000000028 1.6
      vertex -1.2000000000000028 1.2000000000000028 1.6
      vertex -1.2000000000000028 77.25 1.6
    endloop
  endfacet
  facet normal 0 1 0
    outer loop
      vertex -38.900000000000006 1.2000000000000028 1.6
      vertex -38.900000000000006 1.2000000000000028 21.666666666666668
      vertex -1.2000000000000028 1.2000000000000028 1.6
    endloop
  endfacet
  facet normal -1 0 0
    outer loop
      vertex -1.2000000000000028 1.2000000000000028 1.6
      vertex -1.2000000000000028 1.2000000000000028 21.666666666666668
      vertex -1.2000000000000028 77.25 1.6
    endloop
  endfacet
  facet normal 0 0 1
    outer loop
      vertex -38.900000000000006 1.2000000000000028 1.6
      vertex -1.2000000000000028 77.25 1.6
      vertex -38.900000000000006 77.25 1.6
    endloop
  endfacet
  facet normal 1 0 0
    outer loop
      vertex -38.900000000000006 1.2000000000000028 1.6
      vertex -38.900000000000006 77.25 1.6
      vertex -38.900000000000006 77.25 21.666666666666668
    endloop
  endfacet
  facet normal 0 -1 0
    outer loop
      vertex -38.900000000000006 77.25 1.6
      vertex -1.2000000000000028 77.25 1.6
      vertex -1.2000000000000028 77.25 21.666666666666668
    endloop
  endfacet
  facet normal 1 0 0
    outer loop
      vertex -38.900000000000006 1.2000000000000028 1.6
      vertex -38.900000000000006 77.25 21.666666666666668
      vertex -38.900000000000006 1.2000000000000028 21.666666666666668
    endloop
  endfacet
  facet normal 0 1 0
    outer loop
      vertex -1.2000000000000028 1.2000000000000028 1.6
      vertex -38.900000000000006 1.2000000000000028 21.666666666666668
      vertex -1.2000000000000028 1.2000000000000028 21.666666666666668
    endloop
  endfacet
  facet normal 0 -1 0
    outer loop
      vertex -38.900000000000006 77.25 1.6
      vertex -1.2000000000000028 77.25 21.666666666666668
      vertex -38.900000000000006 77.25 21.666666666666668
    endloop
  endfacet
  facet normal -1 0 0
    outer loop
      vertex -1.2000000000000028 77.25 1.6
      vertex -1.2000000000000028 1.2000000000000028 21.666666666666668
      vertex -1.2000000000000028 77.25 21.666666666666668
    endloop
  endfacet
  facet normal 0 0 1
    outer loop
      vertex -38.900000000000006 -77.25 1.6
      vertex -1.2000000000000028 -77.25 1.6
      vertex -1.2000000000000028 -1.2000000000000028 1.6
    endloop
  endfacet
  facet normal 0 1 0
    outer loop
      vertex -38.900000000000006 -77.25 1.6
      vertex -38.900000000000006 -77.25 21.666666666666668
      vertex -1.2000000000000028 -77.25 1.6
    endloop
  endfacet
  facet normal -1 0 0
    outer loop
      vertex -1.2000000000000028 -77.25 1.6
      vertex -1.2000000000000028 -77.25 21.666666666666668
      vertex -1.2000000000000028 -1.2000000000000028 1.6
    endloop
  endfacet
  facet normal 0 0 1
    outer loop
      vertex -38.900000000000006 -77.25 1.6
      vertex -1.2000000000000028 -1.2000000000000028 1.6
      vertex -38.900000000000006 -1.2000000000000028 1.6
    endloop
  endfacet
  facet normal 1 0 0
    outer loop
      vertex -38.900000000000006 -77.25 1.6
      vertex -38.900000000000006 -1.2000000000000028 1.6
      vertex -38.900000000000006 -1.2000000000000028 21.666666666666668
    endloop
  endfacet
  facet normal 0 -1 0
    outer loop
      vertex -38.900000000000006 -1.2000000000000028 1.6
      vertex -1.2000000000000028 -1.2000000000000028 1.6
      vertex -1.2000000000000028 -1.2000000000000028 21.666666666666668
    endloop
  endfacet
  facet normal 1 0 0
    outer loop
      vertex -38.900000000000006 -77.25 1.6
      vertex -38.900000000000006 -1.2000000000000028 21.666666666666668
      vertex -38.900000000000006 -77.25 21.666666666666668
    endloop
  endfacet
  facet normal 0 1 0
    outer loop
      vertex -1.2000000000000028 -77.25 1.6
      vertex -38.900000000000006 -77.25 21.666666666666668
      vertex -1.2000000000000028 -77.25 21.666666666666668
    endloop
  endfacet
  facet normal 0 -1 0
    outer loop
      vertex -38.900000000000006 -1.2000000000000028 1.6
      vertex -1.2000000000000028 -1.2000000000000028 21.666666666666668
      vertex -38.900000000000006 -1.2000000000000028 21.666666666666668
    endloop
  endfacet
  facet normal -1 0 0
    outer loop
      vertex -1.2000000000000028 -1.2000000000000028 1.6
      vertex -1.2000000000000028 -77.25 21.666666666666668
      vertex -1.2000000000000028 -1.2000000000000028 21.666666666666668
    endloop
  endfacet
  facet normal 0 0 1
    outer loop
      vertex 1.2000000000000028 1.2000000000000028 1.6
      vertex 38.900000000000006 1.2000000000000028 1.6
      vertex 38.900000000000006 77.25 1.6
    endloop
  endfacet
  facet normal 0 1 0
    outer loop
      vertex 1.2000000000000028 1.2000000000000028 1.6
      vertex 1.2000000000000028 1.2000000000000028 21.666666666666668
      vertex 38.900000000000006 1.2000000000000028 1.6
    endloop
  endfacet
  facet normal -1 0 0
    outer loop
      vertex 38.900000000000006 1.2000000000000028 1.6
      vertex 38.900000000000006 1.2000000000000028 21.666666666666668
      vertex 38.900000000000006 77.25 1.6
    endloop
  endfacet
  facet normal 0 0 1
    outer loop
      vertex 1.2000000000000028 1.2000000000000028 1.6
      vertex 38.900000000000006 77.25 1.6
      vertex 1.2000000000000028 77.25 1.6
    endloop
  endfacet
  facet normal 1 0 0
    outer loop
      vertex 1.2000000000000028 1.2000000000000028 1.6
      vertex 1.2000000000000028 77.25 1.6
      vertex 1.2000000000000028 77.25 21.666666666666668
    endloop
  endfacet
  facet normal 0 -1 0
    outer loop
      vertex 1.2000000000000028 77.25 1.6
      vertex 38.900000000000006 77.25 1.6
      vertex 38.900000000000006 77.25 21.666666666666668
    endloop
  endfacet
  facet normal 1 0 0
    outer loop
      vertex 1.2000000000000028 1.2000000000000028 1.6
      vertex 1.2000000000000028 77.25 21.666666666666668
      vertex 1.2000000000000028 1.2000000000000028 21.666666666666668
    endloop
  endfacet
  facet normal 0 1 0
    outer loop
      vertex 38.900000000000006 1.2000000000000028 1.6
      vertex 1.2000000000000028 1.2000000000000028 21.666666666666668
      vertex 38.900000000000006 1.2000000000000028 21.666666666666668
    endloop
  endfacet
  facet normal 0 -1 0
    outer loop
      vertex 1.2000000000000028 77.25 1.6
      vertex 38.900000000000006 77.25 21.666666666666668
      vertex 1.2000000000000028 77.25 21.666666666666668
    endloop
  endfacet
  facet normal -1 0 0
    outer loop
      vertex 38.900000000000006 77.25 1.6
      vertex 38.900000000000006 1.2000000000000028 21.666666666666668
      vertex 38.900000000000006 77.25 21.666666666666668
    endloop
  endfacet
  facet normal 0 0 1
    outer loop
      vertex 1.2000000000000028 -77.25 1.6
      vertex 38.900000000000006 -77.25 1.6
      vertex 38.900000000000006 -1.2000000000000028 1.6
    endloop
  endfacet
  facet normal 0 1 0
    outer loop
      vertex 1.2000000000000028 -77.25 1.6
      vertex 1.2000000000000028 -77.25 21.666666666666668
      vertex 38.900000000000006 -77.25 1.6
    endloop
  endfacet
  facet normal -1 0 0
    outer loop
      vertex 38.900000000000006 -77.25 1.6
      vertex 38.900000000000006 -77.25 21.666666666666668
      vertex 38.900000000000006 -1.2000000000000028 1.6
    endloop
  endfacet
  facet normal 0 0 1
    outer loop
      vertex 1.2000000000000028 -77.25 1.6
      vertex 38.900000000000006 -1.2000000000000028 1.6
      vertex 1.2000000000000028 -1.2000000000000028 1.6
    endloop
  endfacet
  facet normal 1 0 0
    outer loop
      vertex 1.2000000000000028 -77.25 1.6
      vertex 1.2000000000000028 -1.2000000000000028 1.6
      vertex 1.2000000000000028 -1.2000000000000028 21.666666666666668
    endloop
  endfacet
  facet normal 0 -1 0
    outer loop
      vertex 1.2000000000000028 -1.2000000000000028 1.6
      vertex 38.900000000000006 -1.2000000000000028 1.6
      vertex 38.900000000000006 -1.2000000000000028 21.666666666666668
    endloop
  endfacet
  facet normal 1 0 0
    outer loop
      vertex 1.2000000000000028 -77.25 1.6
      vertex 1.2000000000000028 -1.2000000000000028 21.666666666666668
      vertex 1.2000000000000028 -77.25 21.666666666666668
    endloop
  endfacet
  facet normal 0 1 0
    outer loop
      vertex 38.900000000000006 -77.25 1.6
      vertex 1.2000000000000028 -77.25 21.666666666666668
      vertex 38.900000000000006 -77.25 21.666666666666668
    endloop
  endfacet
  facet normal 0 -1 0
    outer loop
      vertex 1.2000000000000028 -1.2000000000000028 1.6
      vertex 38.900000000000006 -1.2000000000000028 21.666666666666668
      vertex 1.2000000000000028 -1.2000000000000028 21.666666666666668
    endloop
  endfacet
  facet normal -1 0 0
    outer loop
      vertex 38.900000000000006 -1.2000000000000028 1.6
      vertex 38.900000000000006 -77.25 21.666666666666668
      vertex 38.900000000000006 -1.2000000000000028 21.666666666666668
    endloop
  endfacet
  facet normal 0 0 1
    outer loop
      vertex 41.30000000000001 1.2000000000000028 1.6
      vertex 79.00000000000001 1.2000000000000028 1.6
      vertex 79.00000000000001 77.25 1.6
    endloop
  endfacet
  facet normal 0 1 0
    outer loop
      vertex 41.30000000000001 1.2000000000000028 1.6
      vertex 79.00000000000001 1.2000000000000028 21.666666666666668
      vertex 79.00000000000001 1.2000000000000028 1.6
    endloop
  endfacet
  facet normal -1 0 0
    outer loop
      vertex 79.00000000000001 1.2000000000000028 1.6
      vertex 79.00000000000001 1.2000000000000028 21.666666666666668
      vertex 79.00000000000001 77.25 1.6
    endloop
  endfacet
  facet normal 0 0 1
    outer loop
      vertex 41.30000000000001 1.2000000000000028 1.6
      vertex 79.00000000000001 77.25 1.6
      vertex 41.30000000000001 77.25 1.6
    endloop
  endfacet
  facet normal 1 0 0
    outer loop
      vertex 41.30000000000001 1.2000000000000028 1.6
      vertex 41.30000000000001 77.25 1.6
      vertex 41.30000000000001 77.25 21.666666666666668
    endloop
  endfacet
  facet normal 0 -1 0
    outer loop
      vertex 41.30000000000001 77.25 1.6
      vertex 79.00000000000001 77.25 1.6
      vertex 79.00000000000001 77.25 21.666666666666668
    endloop
  endfacet
  facet normal 0 1 0
    outer loop
      vertex 41.30000000000001 1.2000000000000028 1.6
      vertex 41.30000000000001 1.2000000000000028 21.666666666666668
      vertex 79.00000000000001 1.2000000000000028 21.666666666666668
    endloop
  endfacet
  facet normal 1 0 0
    outer loop
      vertex 41.30000000000001 1.2000000000000028 1.6
      vertex 41.30000000000001 77.25 21.666666666666668
      vertex 41.30000000000001 1.2000000000000028 21.666666666666668
    endloop
  endfacet
  facet normal 0 -1 0
    outer loop
      vertex 41.30000000000001 77.25 1.6
      vertex 79.00000000000001 77.25 21.666666666666668
      vertex 41.30000000000001 77.25 21.666666666666668
    endloop
  endfacet
  facet normal -1 0 0
    outer loop
      vertex 79.00000000000001 77.25 1.6
      vertex 79.00000000000001 1.2000000000000028 21.666666666666668
      vertex 79.00000000000001 77.25 21.666666666666668
    endloop
  endfacet
  facet normal 0 0 1
    outer loop
      vertex 41.30000000000001 -77.25 1.6
      vertex 79.00000000000001 -77.25 1.6
      vertex 79.00000000000001 -1.2000000000000028 1.6
    endloop
  endfacet
  facet normal 0 1 0
    outer loop
      vertex 41.30000000000001 -77.25 1.6
      vertex 41.30000000000001 -77.25 21.666666666666668
      vertex 79.00000000000001 -77.25 1.6
    endloop
  endfacet
  facet normal -1 0 0
    outer loop
      vertex 79.00000000000001 -77.25 1.6
      vertex 79.00000000000001 -77.25 21.666666666666668
      vertex 79.00000000000001 -1.2000000000000028 1.6
    endloop
  endfacet
  facet normal 0 0 1
    outer loop
      vertex 41.30000000000001 -77.25 1.6
      vertex 79.00000000000001 -1.2000000000000028 1.6
      vertex 41.30000000000001 -1.2000000000000028 1.6
    endloop
  endfacet
  facet normal 1 0 0
    outer loop
      vertex 41.30000000000001 -77.25 1.6
      vertex 41.30000000000001 -1.2000000000000028 1.6
      vertex 41.30000000000001 -1.2000000000000028 21.666666666666668
    endloop
  endfacet
  facet normal 0 -1 0
    outer loop
      vertex 41.30000000000001 -1.2000000000000028 1.6
      vertex 79.00000000000001 -1.2000000000000028 1.6
      vertex 79.00000000000001 -1.2000000000000028 21.666666666666668
    endloop
  endfacet
  facet normal 1 0 0
    outer loop
      vertex 41.30000000000001 -77.25 1.6
      vertex 41.30000000000001 -1.2000000000000028 21.666666666666668
      vertex 41.30000000000001 -77.25 21.666666666666668
    endloop
  endfacet
  facet normal 0 1 0
    outer loop
      vertex 79.00000000000001 -77.25 1.6
      vertex 41.30000000000001 -77.25 21.666666666666668
      vertex 79.00000000000001 -77.25 21.666666666666668
    endloop
  endfacet
  facet normal 0 -1 0
    outer loop
      vertex 41.30000000000001 -1.2000000000000028 1.6
      vertex 79.00000000000001 -1.2000000000000028 21.666666666666668
      vertex 41.30000000000001 -1.2000000000000028 21.666666666666668
    endloop
  endfacet
  facet normal -1 0 0
    outer loop
      vertex 79.00000000000001 -1.2000000000000028 1.6
      vertex 79.00000000000001 -77.25 21.666666666666668
      vertex 79.00000000000001 -1.2000000000000028 21.666666666666668
    endloop
  endfacet
endsolid OpenSCAD_Model
