<?xml version="1.0" encoding="UTF-8" standalone="no"?>
<!DOCTYPE svg PUBLIC "-//W3C//DTD SVG 1.1//EN"
 "http://www.w3.org/Graphics/SVG/1.1/DTD/svg11.dtd">
<!-- Generated by graphviz version 5.0.0 (20220707.1540)
 -->
<!-- Title: one_hole Pages: 1 -->
<svg width="330pt" height="98pt"
 viewBox="0.00 0.00 330.28 98.00" xmlns="http://www.w3.org/2000/svg" xmlns:xlink="http://www.w3.org/1999/xlink">
<g id="graph0" class="graph" transform="scale(1 1) rotate(0) translate(4 94)">
<title>one_hole</title>
<polygon fill="white" stroke="transparent" points="-4,4 -4,-94 326.28,-94 326.28,4 -4,4"/>
<!-- root_242 -->
<g id="node1" class="node">
<title>root_242</title>
<g id="a_node1"><a xlink:href="javascript:s=&quot;\(\)\nNone&quot;; console.log(s); alert(s);" xlink:title="root">
<ellipse fill="none" stroke="black" cx="27" cy="-45" rx="27" ry="18"/>
<text text-anchor="middle" x="27" y="-41.3" font-family="Times New Roman,serif" font-size="14.00">root</text>
</a>
</g>
</g>
<!-- one_hole_243 -->
<g id="node2" class="node">
<title>one_hole_243</title>
<g id="a_node2"><a xlink:href="javascript:s=&quot;\(&#x27;one_hole&#x27;,\)\nSimpleGridBox&quot;; console.log(s); alert(s);" xlink:title="SimpleGridBox">
<ellipse fill="none" stroke="black" cx="134.2" cy="-45" rx="44.39" ry="18"/>
<text text-anchor="middle" x="134.2" y="-41.3" font-family="Times New Roman,serif" font-size="14.00">one_hole</text>
</a>
</g>
</g>
<!-- root_242&#45;&gt;one_hole_243 -->
<g id="edge1" class="edge">
<title>root_242&#45;&gt;one_hole_243</title>
<path fill="none" stroke="black" d="M54,-45C61.87,-45 70.82,-45 79.8,-45"/>
<polygon fill="black" stroke="black" points="79.89,-48.5 89.89,-45 79.89,-41.5 79.89,-48.5"/>
</g>
<!-- box_244 -->
<g id="node3" class="node">
<title>box_244</title>
<g id="a_node3"><a xlink:href="javascript:s=&quot;\(&#x27;one_hole&#x27;,\ &#x27;box&#x27;\)\nBox&quot;; console.log(s); alert(s);" xlink:title="Box">
<ellipse fill="none" stroke="black" cx="268.34" cy="-72" rx="27" ry="18"/>
<text text-anchor="middle" x="268.34" y="-68.3" font-family="Times New Roman,serif" font-size="14.00">box</text>
</a>
</g>
</g>
<!-- one_hole_243&#45;&gt;box_244 -->
<g id="edge2" class="edge">
<title>one_hole_243&#45;&gt;box_244</title>
<path fill="none" stroke="black" d="M174.13,-52.95C192.58,-56.73 214.46,-61.2 232.38,-64.86"/>
<polygon fill="black" stroke="black" points="231.92,-68.33 242.41,-66.91 233.32,-61.48 231.92,-68.33"/>
</g>
<!-- hole_245 -->
<g id="node4" class="node">
<title>hole_245</title>
<g id="a_node4"><a xlink:href="javascript:s=&quot;\(&#x27;one_hole&#x27;,\ \(&#x27;hole&#x27;,\ 0,\ 0\)\)\nBox&quot;; console.log(s); alert(s);" xlink:title="Box">
<ellipse fill="none" stroke="black" cx="268.34" cy="-18" rx="53.89" ry="18"/>
<text text-anchor="middle" x="268.34" y="-14.3" font-family="Times New Roman,serif" font-size="14.00">(&#39;hole&#39;, 0, 0)</text>
</a>
</g>
</g>
<!-- one_hole_243&#45;&gt;hole_245 -->
<g id="edge3" class="edge">
<title>one_hole_243&#45;&gt;hole_245</title>
<path fill="none" stroke="black" d="M174.13,-37.05C185.9,-34.64 199.07,-31.95 211.71,-29.37"/>
<polygon fill="black" stroke="black" points="212.6,-32.76 221.7,-27.32 211.2,-25.9 212.6,-32.76"/>
</g>
</g>
</svg>
