<?xml version="1.0" encoding="UTF-8" standalone="no"?>
<!DOCTYPE svg PUBLIC "-//W3C//DTD SVG 1.1//EN"
 "http://www.w3.org/Graphics/SVG/1.1/DTD/svg11.dtd">
<!-- Generated by graphviz version 5.0.0 (20220707.1540)
 -->
<!-- Title: default Pages: 1 -->
<svg width="562pt" height="368pt"
 viewBox="0.00 0.00 561.57 368.00" xmlns="http://www.w3.org/2000/svg" xmlns:xlink="http://www.w3.org/1999/xlink">
<g id="graph0" class="graph" transform="scale(1 1) rotate(0) translate(4 364)">
<title>default</title>
<polygon fill="white" stroke="transparent" points="-4,4 -4,-364 557.57,-364 557.57,4 -4,4"/>
<!-- root_102 -->
<g id="node1" class="node">
<title>root_102</title>
<g id="a_node1"><a xlink:href="javascript:s=&quot;\(\)\nNone&quot;; console.log(s); alert(s);" xlink:title="root">
<ellipse fill="none" stroke="black" cx="27" cy="-153" rx="27" ry="18"/>
<text text-anchor="middle" x="27" y="-149.3" font-family="Times New Roman,serif" font-size="14.00">root</text>
</a>
</g>
</g>
<!-- default_103 -->
<g id="node2" class="node">
<title>default_103</title>
<g id="a_node2"><a xlink:href="javascript:s=&quot;\(&#x27;default&#x27;,\)\nMixGridBoxSeparators&quot;; console.log(s); alert(s);" xlink:title="MixGridBoxSeparators">
<ellipse fill="none" stroke="black" cx="125.1" cy="-153" rx="35.19" ry="18"/>
<text text-anchor="middle" x="125.1" y="-149.3" font-family="Times New Roman,serif" font-size="14.00">default</text>
</a>
</g>
</g>
<!-- root_102&#45;&gt;default_103 -->
<g id="edge1" class="edge">
<title>root_102&#45;&gt;default_103</title>
<path fill="none" stroke="black" d="M54.01,-153C61.92,-153 70.84,-153 79.61,-153"/>
<polygon fill="black" stroke="black" points="79.76,-156.5 89.76,-153 79.76,-149.5 79.76,-156.5"/>
</g>
<!-- cut_104 -->
<g id="node3" class="node">
<title>cut_104</title>
<g id="a_node3"><a xlink:href="javascript:s=&quot;\(&#x27;default&#x27;,\ &#x27;cut&#x27;\)\nMaker&quot;; console.log(s); alert(s);" xlink:title="Maker">
<ellipse fill="none" stroke="black" cx="223.19" cy="-153" rx="27" ry="18"/>
<text text-anchor="middle" x="223.19" y="-149.3" font-family="Times New Roman,serif" font-size="14.00">cut</text>
</a>
</g>
</g>
<!-- default_103&#45;&gt;cut_104 -->
<g id="edge2" class="edge">
<title>default_103&#45;&gt;cut_104</title>
<path fill="none" stroke="black" d="M160.25,-153C168.52,-153 177.39,-153 185.76,-153"/>
<polygon fill="black" stroke="black" points="186.01,-156.5 196.01,-153 186.01,-149.5 186.01,-156.5"/>
</g>
<!-- mix_grid_box_105 -->
<g id="node4" class="node">
<title>mix_grid_box_105</title>
<g id="a_node4"><a xlink:href="javascript:s=&quot;\(&#x27;default&#x27;,\ &#x27;cut&#x27;,\ &#x27;mix_grid_box&#x27;\)\nMixGridBox&quot;; console.log(s); alert(s);" xlink:title="MixGridBox">
<ellipse fill="none" stroke="black" cx="347.94" cy="-180" rx="61.99" ry="18"/>
<text text-anchor="middle" x="347.94" y="-176.3" font-family="Times New Roman,serif" font-size="14.00">mix_grid_box</text>
</a>
</g>
</g>
<!-- cut_104&#45;&gt;mix_grid_box_105 -->
<g id="edge3" class="edge">
<title>cut_104&#45;&gt;mix_grid_box_105</title>
<path fill="none" stroke="black" d="M249.03,-158.46C260.42,-160.97 274.44,-164.05 288.28,-167.1"/>
<polygon fill="black" stroke="black" points="287.77,-170.57 298.29,-169.3 289.27,-163.73 287.77,-170.57"/>
</g>
<!-- cut_113 -->
<g id="node12" class="node">
<title>cut_113</title>
<g id="a_node12"><a xlink:href="javascript:s=&quot;\(&#x27;default&#x27;,\ &#x27;cut&#x27;,\ &#x27;cut&#x27;\)\nBox&quot;; console.log(s); alert(s);" xlink:title="Box">
<ellipse fill="none" stroke="black" cx="347.94" cy="-126" rx="27" ry="18"/>
<text text-anchor="middle" x="347.94" y="-122.3" font-family="Times New Roman,serif" font-size="14.00">cut</text>
</a>
</g>
</g>
<!-- cut_104&#45;&gt;cut_113 -->
<g id="edge11" class="edge">
<title>cut_104&#45;&gt;cut_113</title>
<path fill="none" stroke="black" d="M249.03,-147.54C267.17,-143.55 291.99,-138.09 312.11,-133.66"/>
<polygon fill="black" stroke="black" points="313.12,-137.02 322.14,-131.46 311.62,-130.19 313.12,-137.02"/>
</g>
<!-- box_106 -->
<g id="node5" class="node">
<title>box_106</title>
<g id="a_node5"><a xlink:href="javascript:s=&quot;\(&#x27;default&#x27;,\ &#x27;cut&#x27;,\ &#x27;mix_grid_box&#x27;,\ &#x27;box&#x27;\)\nBox&quot;; console.log(s); alert(s);" xlink:title="Box">
<ellipse fill="none" stroke="black" cx="499.63" cy="-342" rx="27" ry="18"/>
<text text-anchor="middle" x="499.63" y="-338.3" font-family="Times New Roman,serif" font-size="14.00">box</text>
</a>
</g>
</g>
<!-- mix_grid_box_105&#45;&gt;box_106 -->
<g id="edge4" class="edge">
<title>mix_grid_box_105&#45;&gt;box_106</title>
<path fill="none" stroke="black" d="M358.05,-197.82C373.08,-225.8 405.46,-280.41 445.68,-315 451.9,-320.35 459.36,-324.97 466.69,-328.82"/>
<polygon fill="black" stroke="black" points="465.28,-332.02 475.8,-333.25 468.34,-325.73 465.28,-332.02"/>
</g>
<!-- hole_107 -->
<g id="node6" class="node">
<title>hole_107</title>
<g id="a_node6"><a xlink:href="javascript:s=&quot;\(&#x27;default&#x27;,\ &#x27;cut&#x27;,\ &#x27;mix_grid_box&#x27;,\ \(&#x27;hole&#x27;,\ 0,\ 0\)\)\nBox&quot;; console.log(s); alert(s);" xlink:title="Box">
<ellipse fill="none" stroke="black" cx="499.63" cy="-288" rx="53.89" ry="18"/>
<text text-anchor="middle" x="499.63" y="-284.3" font-family="Times New Roman,serif" font-size="14.00">(&#39;hole&#39;, 0, 0)</text>
</a>
</g>
</g>
<!-- mix_grid_box_105&#45;&gt;hole_107 -->
<g id="edge5" class="edge">
<title>mix_grid_box_105&#45;&gt;hole_107</title>
<path fill="none" stroke="black" d="M366.87,-197.15C385.59,-214.52 416.27,-241.55 445.68,-261 449.67,-263.64 453.94,-266.2 458.28,-268.64"/>
<polygon fill="black" stroke="black" points="456.71,-271.77 467.17,-273.43 460.03,-265.6 456.71,-271.77"/>
</g>
<!-- hole_108 -->
<g id="node7" class="node">
<title>hole_108</title>
<g id="a_node7"><a xlink:href="javascript:s=&quot;\(&#x27;default&#x27;,\ &#x27;cut&#x27;,\ &#x27;mix_grid_box&#x27;,\ \(&#x27;hole&#x27;,\ 0,\ 1\)\)\nBox&quot;; console.log(s); alert(s);" xlink:title="Box">
<ellipse fill="none" stroke="black" cx="499.63" cy="-234" rx="53.89" ry="18"/>
<text text-anchor="middle" x="499.63" y="-230.3" font-family="Times New Roman,serif" font-size="14.00">(&#39;hole&#39;, 0, 1)</text>
</a>
</g>
</g>
<!-- mix_grid_box_105&#45;&gt;hole_108 -->
<g id="edge6" class="edge">
<title>mix_grid_box_105&#45;&gt;hole_108</title>
<path fill="none" stroke="black" d="M387.49,-193.91C407.38,-201.08 431.78,-209.89 452.65,-217.41"/>
<polygon fill="black" stroke="black" points="451.68,-220.78 462.27,-220.88 454.05,-214.2 451.68,-220.78"/>
</g>
<!-- hole_109 -->
<g id="node8" class="node">
<title>hole_109</title>
<g id="a_node8"><a xlink:href="javascript:s=&quot;\(&#x27;default&#x27;,\ &#x27;cut&#x27;,\ &#x27;mix_grid_box&#x27;,\ \(&#x27;hole&#x27;,\ 1,\ 0\)\)\nBox&quot;; console.log(s); alert(s);" xlink:title="Box">
<ellipse fill="none" stroke="black" cx="499.63" cy="-180" rx="53.89" ry="18"/>
<text text-anchor="middle" x="499.63" y="-176.3" font-family="Times New Roman,serif" font-size="14.00">(&#39;hole&#39;, 1, 0)</text>
</a>
</g>
</g>
<!-- mix_grid_box_105&#45;&gt;hole_109 -->
<g id="edge7" class="edge">
<title>mix_grid_box_105&#45;&gt;hole_109</title>
<path fill="none" stroke="black" d="M409.82,-180C418.22,-180 426.87,-180 435.31,-180"/>
<polygon fill="black" stroke="black" points="435.48,-183.5 445.48,-180 435.48,-176.5 435.48,-183.5"/>
</g>
<!-- hole_110 -->
<g id="node9" class="node">
<title>hole_110</title>
<g id="a_node9"><a xlink:href="javascript:s=&quot;\(&#x27;default&#x27;,\ &#x27;cut&#x27;,\ &#x27;mix_grid_box&#x27;,\ \(&#x27;hole&#x27;,\ 1,\ 1\)\)\nBox&quot;; console.log(s); alert(s);" xlink:title="Box">
<ellipse fill="none" stroke="black" cx="499.63" cy="-126" rx="53.89" ry="18"/>
<text text-anchor="middle" x="499.63" y="-122.3" font-family="Times New Roman,serif" font-size="14.00">(&#39;hole&#39;, 1, 1)</text>
</a>
</g>
</g>
<!-- mix_grid_box_105&#45;&gt;hole_110 -->
<g id="edge8" class="edge">
<title>mix_grid_box_105&#45;&gt;hole_110</title>
<path fill="none" stroke="black" d="M387.49,-166.09C407.38,-158.92 431.78,-150.11 452.65,-142.59"/>
<polygon fill="black" stroke="black" points="454.05,-145.8 462.27,-139.12 451.68,-139.22 454.05,-145.8"/>
</g>
<!-- hole_111 -->
<g id="node10" class="node">
<title>hole_111</title>
<g id="a_node10"><a xlink:href="javascript:s=&quot;\(&#x27;default&#x27;,\ &#x27;cut&#x27;,\ &#x27;mix_grid_box&#x27;,\ \(&#x27;hole&#x27;,\ 2,\ 0\)\)\nBox&quot;; console.log(s); alert(s);" xlink:title="Box">
<ellipse fill="none" stroke="black" cx="499.63" cy="-72" rx="53.89" ry="18"/>
<text text-anchor="middle" x="499.63" y="-68.3" font-family="Times New Roman,serif" font-size="14.00">(&#39;hole&#39;, 2, 0)</text>
</a>
</g>
</g>
<!-- mix_grid_box_105&#45;&gt;hole_111 -->
<g id="edge9" class="edge">
<title>mix_grid_box_105&#45;&gt;hole_111</title>
<path fill="none" stroke="black" d="M388.44,-166.35C395.96,-162.71 403.42,-158.28 409.68,-153 431.73,-134.41 424.13,-118.17 445.68,-99 448.89,-96.14 452.46,-93.5 456.18,-91.08"/>
<polygon fill="black" stroke="black" points="458.22,-93.94 465.05,-85.84 454.66,-87.92 458.22,-93.94"/>
</g>
<!-- hole_112 -->
<g id="node11" class="node">
<title>hole_112</title>
<g id="a_node11"><a xlink:href="javascript:s=&quot;\(&#x27;default&#x27;,\ &#x27;cut&#x27;,\ &#x27;mix_grid_box&#x27;,\ \(&#x27;hole&#x27;,\ 2,\ 1\)\)\nBox&quot;; console.log(s); alert(s);" xlink:title="Box">
<ellipse fill="none" stroke="black" cx="499.63" cy="-18" rx="53.89" ry="18"/>
<text text-anchor="middle" x="499.63" y="-14.3" font-family="Times New Roman,serif" font-size="14.00">(&#39;hole&#39;, 2, 1)</text>
</a>
</g>
</g>
<!-- mix_grid_box_105&#45;&gt;hole_112 -->
<g id="edge10" class="edge">
<title>mix_grid_box_105&#45;&gt;hole_112</title>
<path fill="none" stroke="black" d="M390.88,-166.94C397.85,-163.3 404.49,-158.72 409.68,-153 443.69,-115.54 412.68,-83.35 445.68,-45 448.26,-42.01 451.25,-39.3 454.47,-36.87"/>
<polygon fill="black" stroke="black" points="456.41,-39.79 462.85,-31.38 452.57,-33.93 456.41,-39.79"/>
</g>
</g>
</svg>
