<?xml version="1.0" encoding="UTF-8" standalone="no"?>
<!DOCTYPE svg PUBLIC "-//W3C//DTD SVG 1.1//EN"
 "http://www.w3.org/Graphics/SVG/1.1/DTD/svg11.dtd">
<!-- Generated by graphviz version 5.0.0 (20220707.1540)
 -->
<!-- Title: rings Pages: 1 -->
<svg width="299pt" height="368pt"
 viewBox="0.00 0.00 299.09 368.00" xmlns="http://www.w3.org/2000/svg" xmlns:xlink="http://www.w3.org/1999/xlink">
<g id="graph0" class="graph" transform="scale(1 1) rotate(0) translate(4 364)">
<title>rings</title>
<polygon fill="white" stroke="transparent" points="-4,4 -4,-364 295.09,-364 295.09,4 -4,4"/>
<!-- root_10 -->
<g id="node1" class="node">
<title>root_10</title>
<g id="a_node1"><a xlink:href="javascript:s=&quot;\(\)\nNone&quot;; console.log(s); alert(s);" xlink:title="root">
<ellipse fill="none" stroke="black" cx="27" cy="-180" rx="27" ry="18"/>
<text text-anchor="middle" x="27" y="-176.3" font-family="Times New Roman,serif" font-size="14.00">root</text>
</a>
</g>
</g>
<!-- rings_11 -->
<g id="node2" class="node">
<title>rings_11</title>
<g id="a_node2"><a xlink:href="javascript:s=&quot;\(&#x27;rings&#x27;,\)\nMixGridBox&quot;; console.log(s); alert(s);" xlink:title="MixGridBox">
<ellipse fill="none" stroke="black" cx="118.6" cy="-180" rx="28.7" ry="18"/>
<text text-anchor="middle" x="118.6" y="-176.3" font-family="Times New Roman,serif" font-size="14.00">rings</text>
</a>
</g>
</g>
<!-- root_10&#45;&gt;rings_11 -->
<g id="edge1" class="edge">
<title>root_10&#45;&gt;rings_11</title>
<path fill="none" stroke="black" d="M54.4,-180C62.32,-180 71.18,-180 79.7,-180"/>
<polygon fill="black" stroke="black" points="79.83,-183.5 89.83,-180 79.83,-176.5 79.83,-183.5"/>
</g>
<!-- box_12 -->
<g id="node3" class="node">
<title>box_12</title>
<g id="a_node3"><a xlink:href="javascript:s=&quot;\(&#x27;rings&#x27;,\ &#x27;box&#x27;\)\nBox&quot;; console.log(s); alert(s);" xlink:title="Box">
<ellipse fill="none" stroke="black" cx="237.14" cy="-342" rx="27" ry="18"/>
<text text-anchor="middle" x="237.14" y="-338.3" font-family="Times New Roman,serif" font-size="14.00">box</text>
</a>
</g>
</g>
<!-- rings_11&#45;&gt;box_12 -->
<g id="edge2" class="edge">
<title>rings_11&#45;&gt;box_12</title>
<path fill="none" stroke="black" d="M123.99,-197.91C131.68,-226 150.02,-280.77 183.19,-315 188.9,-320.89 196.16,-325.72 203.47,-329.59"/>
<polygon fill="black" stroke="black" points="202.1,-332.81 212.63,-333.98 205.12,-326.5 202.1,-332.81"/>
</g>
<!-- hole_13 -->
<g id="node4" class="node">
<title>hole_13</title>
<g id="a_node4"><a xlink:href="javascript:s=&quot;\(&#x27;rings&#x27;,\ \(&#x27;hole&#x27;,\ 0,\ 0\)\)\nBox&quot;; console.log(s); alert(s);" xlink:title="Box">
<ellipse fill="none" stroke="black" cx="237.14" cy="-288" rx="53.89" ry="18"/>
<text text-anchor="middle" x="237.14" y="-284.3" font-family="Times New Roman,serif" font-size="14.00">(&#39;hole&#39;, 0, 0)</text>
</a>
</g>
</g>
<!-- rings_11&#45;&gt;hole_13 -->
<g id="edge3" class="edge">
<title>rings_11&#45;&gt;hole_13</title>
<path fill="none" stroke="black" d="M129.56,-196.65C140.82,-214.37 160.55,-242.37 183.19,-261 186.65,-263.84 190.45,-266.5 194.39,-268.94"/>
<polygon fill="black" stroke="black" points="192.71,-272.02 203.13,-273.97 196.2,-265.95 192.71,-272.02"/>
</g>
<!-- hole_14 -->
<g id="node5" class="node">
<title>hole_14</title>
<g id="a_node5"><a xlink:href="javascript:s=&quot;\(&#x27;rings&#x27;,\ \(&#x27;hole&#x27;,\ 0,\ 1\)\)\nBox&quot;; console.log(s); alert(s);" xlink:title="Box">
<ellipse fill="none" stroke="black" cx="237.14" cy="-234" rx="53.89" ry="18"/>
<text text-anchor="middle" x="237.14" y="-230.3" font-family="Times New Roman,serif" font-size="14.00">(&#39;hole&#39;, 0, 1)</text>
</a>
</g>
</g>
<!-- rings_11&#45;&gt;hole_14 -->
<g id="edge4" class="edge">
<title>rings_11&#45;&gt;hole_14</title>
<path fill="none" stroke="black" d="M142.07,-190.41C157.28,-197.46 177.8,-206.97 195.79,-215.3"/>
<polygon fill="black" stroke="black" points="194.38,-218.51 204.93,-219.54 197.33,-212.16 194.38,-218.51"/>
</g>
<!-- hole_15 -->
<g id="node6" class="node">
<title>hole_15</title>
<g id="a_node6"><a xlink:href="javascript:s=&quot;\(&#x27;rings&#x27;,\ \(&#x27;hole&#x27;,\ 1,\ 0\)\)\nBox&quot;; console.log(s); alert(s);" xlink:title="Box">
<ellipse fill="none" stroke="black" cx="237.14" cy="-180" rx="53.89" ry="18"/>
<text text-anchor="middle" x="237.14" y="-176.3" font-family="Times New Roman,serif" font-size="14.00">(&#39;hole&#39;, 1, 0)</text>
</a>
</g>
</g>
<!-- rings_11&#45;&gt;hole_15 -->
<g id="edge5" class="edge">
<title>rings_11&#45;&gt;hole_15</title>
<path fill="none" stroke="black" d="M147.22,-180C155.04,-180 163.9,-180 172.91,-180"/>
<polygon fill="black" stroke="black" points="173.11,-183.5 183.11,-180 173.11,-176.5 173.11,-183.5"/>
</g>
<!-- hole_16 -->
<g id="node7" class="node">
<title>hole_16</title>
<g id="a_node7"><a xlink:href="javascript:s=&quot;\(&#x27;rings&#x27;,\ \(&#x27;hole&#x27;,\ 1,\ 1\)\)\nBox&quot;; console.log(s); alert(s);" xlink:title="Box">
<ellipse fill="none" stroke="black" cx="237.14" cy="-126" rx="53.89" ry="18"/>
<text text-anchor="middle" x="237.14" y="-122.3" font-family="Times New Roman,serif" font-size="14.00">(&#39;hole&#39;, 1, 1)</text>
</a>
</g>
</g>
<!-- rings_11&#45;&gt;hole_16 -->
<g id="edge6" class="edge">
<title>rings_11&#45;&gt;hole_16</title>
<path fill="none" stroke="black" d="M142.07,-169.59C157.28,-162.54 177.8,-153.03 195.79,-144.7"/>
<polygon fill="black" stroke="black" points="197.33,-147.84 204.93,-140.46 194.38,-141.49 197.33,-147.84"/>
</g>
<!-- hole_17 -->
<g id="node8" class="node">
<title>hole_17</title>
<g id="a_node8"><a xlink:href="javascript:s=&quot;\(&#x27;rings&#x27;,\ \(&#x27;hole&#x27;,\ 2,\ 0\)\)\nBox&quot;; console.log(s); alert(s);" xlink:title="Box">
<ellipse fill="none" stroke="black" cx="237.14" cy="-72" rx="53.89" ry="18"/>
<text text-anchor="middle" x="237.14" y="-68.3" font-family="Times New Roman,serif" font-size="14.00">(&#39;hole&#39;, 2, 0)</text>
</a>
</g>
</g>
<!-- rings_11&#45;&gt;hole_17 -->
<g id="edge7" class="edge">
<title>rings_11&#45;&gt;hole_17</title>
<path fill="none" stroke="black" d="M129.56,-163.35C140.82,-145.63 160.55,-117.63 183.19,-99 186.65,-96.16 190.45,-93.5 194.39,-91.06"/>
<polygon fill="black" stroke="black" points="196.2,-94.05 203.13,-86.03 192.71,-87.98 196.2,-94.05"/>
</g>
<!-- hole_18 -->
<g id="node9" class="node">
<title>hole_18</title>
<g id="a_node9"><a xlink:href="javascript:s=&quot;\(&#x27;rings&#x27;,\ \(&#x27;hole&#x27;,\ 2,\ 1\)\)\nBox&quot;; console.log(s); alert(s);" xlink:title="Box">
<ellipse fill="none" stroke="black" cx="237.14" cy="-18" rx="53.89" ry="18"/>
<text text-anchor="middle" x="237.14" y="-14.3" font-family="Times New Roman,serif" font-size="14.00">(&#39;hole&#39;, 2, 1)</text>
</a>
</g>
</g>
<!-- rings_11&#45;&gt;hole_18 -->
<g id="edge8" class="edge">
<title>rings_11&#45;&gt;hole_18</title>
<path fill="none" stroke="black" d="M123.99,-162.09C131.68,-134 150.02,-79.23 183.19,-45 186.02,-42.08 189.23,-39.42 192.64,-37.01"/>
<polygon fill="black" stroke="black" points="194.79,-39.8 201.42,-31.53 191.08,-33.86 194.79,-39.8"/>
</g>
</g>
</svg>
