<?xml version="1.0" encoding="UTF-8" standalone="no"?>
<!DOCTYPE svg PUBLIC "-//W3C//DTD SVG 1.1//EN"
 "http://www.w3.org/Graphics/SVG/1.1/DTD/svg11.dtd">
<!-- Generated by graphviz version 5.0.0 (20220707.1540)
 -->
<!-- Title: B4x5 Pages: 1 -->
<svg width="302pt" height="1124pt"
 viewBox="0.00 0.00 301.69 1124.00" xmlns="http://www.w3.org/2000/svg" xmlns:xlink="http://www.w3.org/1999/xlink">
<g id="graph0" class="graph" transform="scale(1 1) rotate(0) translate(4 1120)">
<title>B4x5</title>
<polygon fill="white" stroke="transparent" points="-4,4 -4,-1120 297.69,-1120 297.69,4 -4,4"/>
<!-- root_279 -->
<g id="node1" class="node">
<title>root_279</title>
<g id="a_node1"><a xlink:href="javascript:s=&quot;\(\)\nNone&quot;; console.log(s); alert(s);" xlink:title="root">
<ellipse fill="none" stroke="black" cx="27" cy="-558" rx="27" ry="18"/>
<text text-anchor="middle" x="27" y="-554.3" font-family="Times New Roman,serif" font-size="14.00">root</text>
</a>
</g>
</g>
<!-- B4x5_280 -->
<g id="node2" class="node">
<title>B4x5_280</title>
<g id="a_node2"><a xlink:href="javascript:s=&quot;\(&#x27;B4x5&#x27;,\)\nSimpleGridBox&quot;; console.log(s); alert(s);" xlink:title="SimpleGridBox">
<ellipse fill="none" stroke="black" cx="119.9" cy="-558" rx="29.8" ry="18"/>
<text text-anchor="middle" x="119.9" y="-554.3" font-family="Times New Roman,serif" font-size="14.00">B4x5</text>
</a>
</g>
</g>
<!-- root_279&#45;&gt;B4x5_280 -->
<g id="edge1" class="edge">
<title>root_279&#45;&gt;B4x5_280</title>
<path fill="none" stroke="black" d="M54.29,-558C62.19,-558 71.04,-558 79.59,-558"/>
<polygon fill="black" stroke="black" points="79.8,-561.5 89.8,-558 79.8,-554.5 79.8,-561.5"/>
</g>
<!-- box_281 -->
<g id="node3" class="node">
<title>box_281</title>
<g id="a_node3"><a xlink:href="javascript:s=&quot;\(&#x27;B4x5&#x27;,\ &#x27;box&#x27;\)\nBox&quot;; console.log(s); alert(s);" xlink:title="Box">
<ellipse fill="none" stroke="black" cx="239.74" cy="-1098" rx="27" ry="18"/>
<text text-anchor="middle" x="239.74" y="-1094.3" font-family="Times New Roman,serif" font-size="14.00">box</text>
</a>
</g>
</g>
<!-- B4x5_280&#45;&gt;box_281 -->
<g id="edge2" class="edge">
<title>B4x5_280&#45;&gt;box_281</title>
<path fill="none" stroke="black" d="M120.98,-576.19C121.66,-657.67 127.99,-988.73 185.79,-1071 190.59,-1077.83 197.64,-1083.03 205.04,-1086.96"/>
<polygon fill="black" stroke="black" points="203.91,-1090.3 214.46,-1091.29 206.83,-1083.93 203.91,-1090.3"/>
</g>
<!-- hole_282 -->
<g id="node4" class="node">
<title>hole_282</title>
<g id="a_node4"><a xlink:href="javascript:s=&quot;\(&#x27;B4x5&#x27;,\ \(&#x27;hole&#x27;,\ 0,\ 0\)\)\nBox&quot;; console.log(s); alert(s);" xlink:title="Box">
<ellipse fill="none" stroke="black" cx="239.74" cy="-1044" rx="53.89" ry="18"/>
<text text-anchor="middle" x="239.74" y="-1040.3" font-family="Times New Roman,serif" font-size="14.00">(&#39;hole&#39;, 0, 0)</text>
</a>
</g>
</g>
<!-- B4x5_280&#45;&gt;hole_282 -->
<g id="edge3" class="edge">
<title>B4x5_280&#45;&gt;hole_282</title>
<path fill="none" stroke="black" d="M121.27,-576.03C123.18,-651.85 133.84,-944.2 185.79,-1017 187.99,-1020.08 190.65,-1022.83 193.58,-1025.28"/>
<polygon fill="black" stroke="black" points="191.68,-1028.23 201.88,-1031.1 195.7,-1022.5 191.68,-1028.23"/>
</g>
<!-- hole_283 -->
<g id="node5" class="node">
<title>hole_283</title>
<g id="a_node5"><a xlink:href="javascript:s=&quot;\(&#x27;B4x5&#x27;,\ \(&#x27;hole&#x27;,\ 0,\ 1\)\)\nBox&quot;; console.log(s); alert(s);" xlink:title="Box">
<ellipse fill="none" stroke="black" cx="239.74" cy="-990" rx="53.89" ry="18"/>
<text text-anchor="middle" x="239.74" y="-986.3" font-family="Times New Roman,serif" font-size="14.00">(&#39;hole&#39;, 0, 1)</text>
</a>
</g>
</g>
<!-- B4x5_280&#45;&gt;hole_283 -->
<g id="edge4" class="edge">
<title>B4x5_280&#45;&gt;hole_283</title>
<path fill="none" stroke="black" d="M121.65,-576.02C124.9,-646.08 139.71,-899.66 185.79,-963 188.02,-966.06 190.69,-968.79 193.64,-971.24"/>
<polygon fill="black" stroke="black" points="191.76,-974.19 201.97,-977.04 195.76,-968.45 191.76,-974.19"/>
</g>
<!-- hole_284 -->
<g id="node6" class="node">
<title>hole_284</title>
<g id="a_node6"><a xlink:href="javascript:s=&quot;\(&#x27;B4x5&#x27;,\ \(&#x27;hole&#x27;,\ 0,\ 2\)\)\nBox&quot;; console.log(s); alert(s);" xlink:title="Box">
<ellipse fill="none" stroke="black" cx="239.74" cy="-936" rx="53.89" ry="18"/>
<text text-anchor="middle" x="239.74" y="-932.3" font-family="Times New Roman,serif" font-size="14.00">(&#39;hole&#39;, 0, 2)</text>
</a>
</g>
</g>
<!-- B4x5_280&#45;&gt;hole_284 -->
<g id="edge5" class="edge">
<title>B4x5_280&#45;&gt;hole_284</title>
<path fill="none" stroke="black" d="M122.16,-576.2C126.91,-640.38 145.59,-855.11 185.79,-909 188.06,-912.03 190.76,-914.75 193.72,-917.18"/>
<polygon fill="black" stroke="black" points="191.86,-920.15 202.08,-922.96 195.85,-914.39 191.86,-920.15"/>
</g>
<!-- hole_285 -->
<g id="node7" class="node">
<title>hole_285</title>
<g id="a_node7"><a xlink:href="javascript:s=&quot;\(&#x27;B4x5&#x27;,\ \(&#x27;hole&#x27;,\ 0,\ 3\)\)\nBox&quot;; console.log(s); alert(s);" xlink:title="Box">
<ellipse fill="none" stroke="black" cx="239.74" cy="-882" rx="53.89" ry="18"/>
<text text-anchor="middle" x="239.74" y="-878.3" font-family="Times New Roman,serif" font-size="14.00">(&#39;hole&#39;, 0, 3)</text>
</a>
</g>
</g>
<!-- B4x5_280&#45;&gt;hole_285 -->
<g id="edge6" class="edge">
<title>B4x5_280&#45;&gt;hole_285</title>
<path fill="none" stroke="black" d="M122.82,-576.15C129.23,-633.62 151.38,-810.39 185.79,-855 188.11,-857.99 190.84,-860.68 193.83,-863.1"/>
<polygon fill="black" stroke="black" points="191.99,-866.08 202.22,-868.85 195.95,-860.31 191.99,-866.08"/>
</g>
<!-- hole_286 -->
<g id="node8" class="node">
<title>hole_286</title>
<g id="a_node8"><a xlink:href="javascript:s=&quot;\(&#x27;B4x5&#x27;,\ \(&#x27;hole&#x27;,\ 0,\ 4\)\)\nBox&quot;; console.log(s); alert(s);" xlink:title="Box">
<ellipse fill="none" stroke="black" cx="239.74" cy="-828" rx="53.89" ry="18"/>
<text text-anchor="middle" x="239.74" y="-824.3" font-family="Times New Roman,serif" font-size="14.00">(&#39;hole&#39;, 0, 4)</text>
</a>
</g>
</g>
<!-- B4x5_280&#45;&gt;hole_286 -->
<g id="edge7" class="edge">
<title>B4x5_280&#45;&gt;hole_286</title>
<path fill="none" stroke="black" d="M120.92,-576.07C121.91,-619.66 130.05,-732.08 185.79,-801 188.21,-803.98 191.04,-806.67 194.11,-809.08"/>
<polygon fill="black" stroke="black" points="192.44,-812.18 202.7,-814.85 196.35,-806.37 192.44,-812.18"/>
</g>
<!-- hole_287 -->
<g id="node9" class="node">
<title>hole_287</title>
<g id="a_node9"><a xlink:href="javascript:s=&quot;\(&#x27;B4x5&#x27;,\ \(&#x27;hole&#x27;,\ 1,\ 0\)\)\nBox&quot;; console.log(s); alert(s);" xlink:title="Box">
<ellipse fill="none" stroke="black" cx="239.74" cy="-774" rx="53.89" ry="18"/>
<text text-anchor="middle" x="239.74" y="-770.3" font-family="Times New Roman,serif" font-size="14.00">(&#39;hole&#39;, 1, 0)</text>
</a>
</g>
</g>
<!-- B4x5_280&#45;&gt;hole_287 -->
<g id="edge8" class="edge">
<title>B4x5_280&#45;&gt;hole_287</title>
<path fill="none" stroke="black" d="M122.61,-576.1C126.93,-612.57 141.33,-695.79 185.79,-747 188.38,-749.98 191.38,-752.68 194.61,-755.1"/>
<polygon fill="black" stroke="black" points="192.72,-758.05 203,-760.59 196.55,-752.19 192.72,-758.05"/>
</g>
<!-- hole_288 -->
<g id="node10" class="node">
<title>hole_288</title>
<g id="a_node10"><a xlink:href="javascript:s=&quot;\(&#x27;B4x5&#x27;,\ \(&#x27;hole&#x27;,\ 1,\ 1\)\)\nBox&quot;; console.log(s); alert(s);" xlink:title="Box">
<ellipse fill="none" stroke="black" cx="239.74" cy="-720" rx="53.89" ry="18"/>
<text text-anchor="middle" x="239.74" y="-716.3" font-family="Times New Roman,serif" font-size="14.00">(&#39;hole&#39;, 1, 1)</text>
</a>
</g>
</g>
<!-- B4x5_280&#45;&gt;hole_288 -->
<g id="edge9" class="edge">
<title>B4x5_280&#45;&gt;hole_288</title>
<path fill="none" stroke="black" d="M125.48,-575.91C133.46,-604 152.36,-658.77 185.79,-693 188.63,-695.91 191.85,-698.56 195.27,-700.96"/>
<polygon fill="black" stroke="black" points="193.71,-704.12 204.05,-706.44 197.42,-698.18 193.71,-704.12"/>
</g>
<!-- hole_289 -->
<g id="node11" class="node">
<title>hole_289</title>
<g id="a_node11"><a xlink:href="javascript:s=&quot;\(&#x27;B4x5&#x27;,\ \(&#x27;hole&#x27;,\ 1,\ 2\)\)\nBox&quot;; console.log(s); alert(s);" xlink:title="Box">
<ellipse fill="none" stroke="black" cx="239.74" cy="-666" rx="53.89" ry="18"/>
<text text-anchor="middle" x="239.74" y="-662.3" font-family="Times New Roman,serif" font-size="14.00">(&#39;hole&#39;, 1, 2)</text>
</a>
</g>
</g>
<!-- B4x5_280&#45;&gt;hole_289 -->
<g id="edge10" class="edge">
<title>B4x5_280&#45;&gt;hole_289</title>
<path fill="none" stroke="black" d="M131.35,-574.96C142.94,-592.69 163.02,-620.45 185.79,-639 189.26,-641.83 193.08,-644.47 197.02,-646.91"/>
<polygon fill="black" stroke="black" points="195.35,-649.99 205.76,-651.92 198.83,-643.91 195.35,-649.99"/>
</g>
<!-- hole_290 -->
<g id="node12" class="node">
<title>hole_290</title>
<g id="a_node12"><a xlink:href="javascript:s=&quot;\(&#x27;B4x5&#x27;,\ \(&#x27;hole&#x27;,\ 1,\ 3\)\)\nBox&quot;; console.log(s); alert(s);" xlink:title="Box">
<ellipse fill="none" stroke="black" cx="239.74" cy="-612" rx="53.89" ry="18"/>
<text text-anchor="middle" x="239.74" y="-608.3" font-family="Times New Roman,serif" font-size="14.00">(&#39;hole&#39;, 1, 3)</text>
</a>
</g>
</g>
<!-- B4x5_280&#45;&gt;hole_290 -->
<g id="edge11" class="edge">
<title>B4x5_280&#45;&gt;hole_290</title>
<path fill="none" stroke="black" d="M144.18,-568.67C159.49,-575.68 179.94,-585.05 197.9,-593.29"/>
<polygon fill="black" stroke="black" points="196.48,-596.49 207.03,-597.47 199.4,-590.12 196.48,-596.49"/>
</g>
<!-- hole_291 -->
<g id="node13" class="node">
<title>hole_291</title>
<g id="a_node13"><a xlink:href="javascript:s=&quot;\(&#x27;B4x5&#x27;,\ \(&#x27;hole&#x27;,\ 1,\ 4\)\)\nBox&quot;; console.log(s); alert(s);" xlink:title="Box">
<ellipse fill="none" stroke="black" cx="239.74" cy="-558" rx="53.89" ry="18"/>
<text text-anchor="middle" x="239.74" y="-554.3" font-family="Times New Roman,serif" font-size="14.00">(&#39;hole&#39;, 1, 4)</text>
</a>
</g>
</g>
<!-- B4x5_280&#45;&gt;hole_291 -->
<g id="edge12" class="edge">
<title>B4x5_280&#45;&gt;hole_291</title>
<path fill="none" stroke="black" d="M150.03,-558C157.85,-558 166.63,-558 175.53,-558"/>
<polygon fill="black" stroke="black" points="175.6,-561.5 185.6,-558 175.6,-554.5 175.6,-561.5"/>
</g>
<!-- hole_292 -->
<g id="node14" class="node">
<title>hole_292</title>
<g id="a_node14"><a xlink:href="javascript:s=&quot;\(&#x27;B4x5&#x27;,\ \(&#x27;hole&#x27;,\ 2,\ 0\)\)\nBox&quot;; console.log(s); alert(s);" xlink:title="Box">
<ellipse fill="none" stroke="black" cx="239.74" cy="-504" rx="53.89" ry="18"/>
<text text-anchor="middle" x="239.74" y="-500.3" font-family="Times New Roman,serif" font-size="14.00">(&#39;hole&#39;, 2, 0)</text>
</a>
</g>
</g>
<!-- B4x5_280&#45;&gt;hole_292 -->
<g id="edge13" class="edge">
<title>B4x5_280&#45;&gt;hole_292</title>
<path fill="none" stroke="black" d="M144.18,-547.33C159.49,-540.32 179.94,-530.95 197.9,-522.71"/>
<polygon fill="black" stroke="black" points="199.4,-525.88 207.03,-518.53 196.48,-519.51 199.4,-525.88"/>
</g>
<!-- hole_293 -->
<g id="node15" class="node">
<title>hole_293</title>
<g id="a_node15"><a xlink:href="javascript:s=&quot;\(&#x27;B4x5&#x27;,\ \(&#x27;hole&#x27;,\ 2,\ 1\)\)\nBox&quot;; console.log(s); alert(s);" xlink:title="Box">
<ellipse fill="none" stroke="black" cx="239.74" cy="-450" rx="53.89" ry="18"/>
<text text-anchor="middle" x="239.74" y="-446.3" font-family="Times New Roman,serif" font-size="14.00">(&#39;hole&#39;, 2, 1)</text>
</a>
</g>
</g>
<!-- B4x5_280&#45;&gt;hole_293 -->
<g id="edge14" class="edge">
<title>B4x5_280&#45;&gt;hole_293</title>
<path fill="none" stroke="black" d="M131.35,-541.04C142.94,-523.31 163.02,-495.55 185.79,-477 189.26,-474.17 193.08,-471.53 197.02,-469.09"/>
<polygon fill="black" stroke="black" points="198.83,-472.09 205.76,-464.08 195.35,-466.01 198.83,-472.09"/>
</g>
<!-- hole_294 -->
<g id="node16" class="node">
<title>hole_294</title>
<g id="a_node16"><a xlink:href="javascript:s=&quot;\(&#x27;B4x5&#x27;,\ \(&#x27;hole&#x27;,\ 2,\ 2\)\)\nBox&quot;; console.log(s); alert(s);" xlink:title="Box">
<ellipse fill="none" stroke="black" cx="239.74" cy="-396" rx="53.89" ry="18"/>
<text text-anchor="middle" x="239.74" y="-392.3" font-family="Times New Roman,serif" font-size="14.00">(&#39;hole&#39;, 2, 2)</text>
</a>
</g>
</g>
<!-- B4x5_280&#45;&gt;hole_294 -->
<g id="edge15" class="edge">
<title>B4x5_280&#45;&gt;hole_294</title>
<path fill="none" stroke="black" d="M125.48,-540.09C133.46,-512 152.36,-457.23 185.79,-423 188.63,-420.09 191.85,-417.44 195.27,-415.04"/>
<polygon fill="black" stroke="black" points="197.42,-417.82 204.05,-409.56 193.71,-411.88 197.42,-417.82"/>
</g>
<!-- hole_295 -->
<g id="node17" class="node">
<title>hole_295</title>
<g id="a_node17"><a xlink:href="javascript:s=&quot;\(&#x27;B4x5&#x27;,\ \(&#x27;hole&#x27;,\ 2,\ 3\)\)\nBox&quot;; console.log(s); alert(s);" xlink:title="Box">
<ellipse fill="none" stroke="black" cx="239.74" cy="-342" rx="53.89" ry="18"/>
<text text-anchor="middle" x="239.74" y="-338.3" font-family="Times New Roman,serif" font-size="14.00">(&#39;hole&#39;, 2, 3)</text>
</a>
</g>
</g>
<!-- B4x5_280&#45;&gt;hole_295 -->
<g id="edge16" class="edge">
<title>B4x5_280&#45;&gt;hole_295</title>
<path fill="none" stroke="black" d="M122.61,-539.9C126.93,-503.43 141.33,-420.21 185.79,-369 188.38,-366.02 191.38,-363.32 194.61,-360.9"/>
<polygon fill="black" stroke="black" points="196.55,-363.81 203,-355.41 192.72,-357.95 196.55,-363.81"/>
</g>
<!-- hole_296 -->
<g id="node18" class="node">
<title>hole_296</title>
<g id="a_node18"><a xlink:href="javascript:s=&quot;\(&#x27;B4x5&#x27;,\ \(&#x27;hole&#x27;,\ 2,\ 4\)\)\nBox&quot;; console.log(s); alert(s);" xlink:title="Box">
<ellipse fill="none" stroke="black" cx="239.74" cy="-288" rx="53.89" ry="18"/>
<text text-anchor="middle" x="239.74" y="-284.3" font-family="Times New Roman,serif" font-size="14.00">(&#39;hole&#39;, 2, 4)</text>
</a>
</g>
</g>
<!-- B4x5_280&#45;&gt;hole_296 -->
<g id="edge17" class="edge">
<title>B4x5_280&#45;&gt;hole_296</title>
<path fill="none" stroke="black" d="M120.92,-539.93C121.91,-496.34 130.05,-383.92 185.79,-315 188.21,-312.02 191.04,-309.33 194.11,-306.92"/>
<polygon fill="black" stroke="black" points="196.35,-309.63 202.7,-301.15 192.44,-303.82 196.35,-309.63"/>
</g>
<!-- hole_297 -->
<g id="node19" class="node">
<title>hole_297</title>
<g id="a_node19"><a xlink:href="javascript:s=&quot;\(&#x27;B4x5&#x27;,\ \(&#x27;hole&#x27;,\ 3,\ 0\)\)\nBox&quot;; console.log(s); alert(s);" xlink:title="Box">
<ellipse fill="none" stroke="black" cx="239.74" cy="-234" rx="53.89" ry="18"/>
<text text-anchor="middle" x="239.74" y="-230.3" font-family="Times New Roman,serif" font-size="14.00">(&#39;hole&#39;, 3, 0)</text>
</a>
</g>
</g>
<!-- B4x5_280&#45;&gt;hole_297 -->
<g id="edge18" class="edge">
<title>B4x5_280&#45;&gt;hole_297</title>
<path fill="none" stroke="black" d="M122.82,-539.85C129.23,-482.38 151.38,-305.61 185.79,-261 188.11,-258.01 190.84,-255.32 193.83,-252.9"/>
<polygon fill="black" stroke="black" points="195.95,-255.69 202.22,-247.15 191.99,-249.92 195.95,-255.69"/>
</g>
<!-- hole_298 -->
<g id="node20" class="node">
<title>hole_298</title>
<g id="a_node20"><a xlink:href="javascript:s=&quot;\(&#x27;B4x5&#x27;,\ \(&#x27;hole&#x27;,\ 3,\ 1\)\)\nBox&quot;; console.log(s); alert(s);" xlink:title="Box">
<ellipse fill="none" stroke="black" cx="239.74" cy="-180" rx="53.89" ry="18"/>
<text text-anchor="middle" x="239.74" y="-176.3" font-family="Times New Roman,serif" font-size="14.00">(&#39;hole&#39;, 3, 1)</text>
</a>
</g>
</g>
<!-- B4x5_280&#45;&gt;hole_298 -->
<g id="edge19" class="edge">
<title>B4x5_280&#45;&gt;hole_298</title>
<path fill="none" stroke="black" d="M122.16,-539.8C126.91,-475.62 145.59,-260.89 185.79,-207 188.06,-203.97 190.76,-201.25 193.72,-198.82"/>
<polygon fill="black" stroke="black" points="195.85,-201.61 202.08,-193.04 191.86,-195.85 195.85,-201.61"/>
</g>
<!-- hole_299 -->
<g id="node21" class="node">
<title>hole_299</title>
<g id="a_node21"><a xlink:href="javascript:s=&quot;\(&#x27;B4x5&#x27;,\ \(&#x27;hole&#x27;,\ 3,\ 2\)\)\nBox&quot;; console.log(s); alert(s);" xlink:title="Box">
<ellipse fill="none" stroke="black" cx="239.74" cy="-126" rx="53.89" ry="18"/>
<text text-anchor="middle" x="239.74" y="-122.3" font-family="Times New Roman,serif" font-size="14.00">(&#39;hole&#39;, 3, 2)</text>
</a>
</g>
</g>
<!-- B4x5_280&#45;&gt;hole_299 -->
<g id="edge20" class="edge">
<title>B4x5_280&#45;&gt;hole_299</title>
<path fill="none" stroke="black" d="M121.65,-539.98C124.9,-469.92 139.71,-216.34 185.79,-153 188.02,-149.94 190.69,-147.21 193.64,-144.76"/>
<polygon fill="black" stroke="black" points="195.76,-147.55 201.97,-138.96 191.76,-141.81 195.76,-147.55"/>
</g>
<!-- hole_300 -->
<g id="node22" class="node">
<title>hole_300</title>
<g id="a_node22"><a xlink:href="javascript:s=&quot;\(&#x27;B4x5&#x27;,\ \(&#x27;hole&#x27;,\ 3,\ 3\)\)\nBox&quot;; console.log(s); alert(s);" xlink:title="Box">
<ellipse fill="none" stroke="black" cx="239.74" cy="-72" rx="53.89" ry="18"/>
<text text-anchor="middle" x="239.74" y="-68.3" font-family="Times New Roman,serif" font-size="14.00">(&#39;hole&#39;, 3, 3)</text>
</a>
</g>
</g>
<!-- B4x5_280&#45;&gt;hole_300 -->
<g id="edge21" class="edge">
<title>B4x5_280&#45;&gt;hole_300</title>
<path fill="none" stroke="black" d="M121.27,-539.97C123.18,-464.15 133.84,-171.8 185.79,-99 187.99,-95.92 190.65,-93.17 193.58,-90.72"/>
<polygon fill="black" stroke="black" points="195.7,-93.5 201.88,-84.9 191.68,-87.77 195.7,-93.5"/>
</g>
<!-- hole_301 -->
<g id="node23" class="node">
<title>hole_301</title>
<g id="a_node23"><a xlink:href="javascript:s=&quot;\(&#x27;B4x5&#x27;,\ \(&#x27;hole&#x27;,\ 3,\ 4\)\)\nBox&quot;; console.log(s); alert(s);" xlink:title="Box">
<ellipse fill="none" stroke="black" cx="239.74" cy="-18" rx="53.89" ry="18"/>
<text text-anchor="middle" x="239.74" y="-14.3" font-family="Times New Roman,serif" font-size="14.00">(&#39;hole&#39;, 3, 4)</text>
</a>
</g>
</g>
<!-- B4x5_280&#45;&gt;hole_301 -->
<g id="edge22" class="edge">
<title>B4x5_280&#45;&gt;hole_301</title>
<path fill="none" stroke="black" d="M120.98,-539.81C121.66,-458.33 127.99,-127.27 185.79,-45 187.97,-41.91 190.61,-39.14 193.53,-36.68"/>
<polygon fill="black" stroke="black" points="195.65,-39.47 201.81,-30.85 191.62,-33.75 195.65,-39.47"/>
</g>
</g>
</svg>
