<?xml version="1.0" encoding="UTF-8" standalone="no"?>
<!DOCTYPE svg PUBLIC "-//W3C//DTD SVG 1.1//EN"
 "http://www.w3.org/Graphics/SVG/1.1/DTD/svg11.dtd">
<!-- Generated by graphviz version 5.0.0 (20220707.1540)
 -->
<!-- Title: B5x6 Pages: 1 -->
<svg width="302pt" height="1664pt"
 viewBox="0.00 0.00 301.69 1664.00" xmlns="http://www.w3.org/2000/svg" xmlns:xlink="http://www.w3.org/1999/xlink">
<g id="graph0" class="graph" transform="scale(1 1) rotate(0) translate(4 1660)">
<title>B5x6</title>
<polygon fill="white" stroke="transparent" points="-4,4 -4,-1660 297.69,-1660 297.69,4 -4,4"/>
<!-- root_246 -->
<g id="node1" class="node">
<title>root_246</title>
<g id="a_node1"><a xlink:href="javascript:s=&quot;\(\)\nNone&quot;; console.log(s); alert(s);" xlink:title="root">
<ellipse fill="none" stroke="black" cx="27" cy="-828" rx="27" ry="18"/>
<text text-anchor="middle" x="27" y="-824.3" font-family="Times New Roman,serif" font-size="14.00">root</text>
</a>
</g>
</g>
<!-- B5x6_247 -->
<g id="node2" class="node">
<title>B5x6_247</title>
<g id="a_node2"><a xlink:href="javascript:s=&quot;\(&#x27;B5x6&#x27;,\)\nSimpleGridBox&quot;; console.log(s); alert(s);" xlink:title="SimpleGridBox">
<ellipse fill="none" stroke="black" cx="119.9" cy="-828" rx="29.8" ry="18"/>
<text text-anchor="middle" x="119.9" y="-824.3" font-family="Times New Roman,serif" font-size="14.00">B5x6</text>
</a>
</g>
</g>
<!-- root_246&#45;&gt;B5x6_247 -->
<g id="edge1" class="edge">
<title>root_246&#45;&gt;B5x6_247</title>
<path fill="none" stroke="black" d="M54.29,-828C62.19,-828 71.04,-828 79.59,-828"/>
<polygon fill="black" stroke="black" points="79.8,-831.5 89.8,-828 79.8,-824.5 79.8,-831.5"/>
</g>
<!-- box_248 -->
<g id="node3" class="node">
<title>box_248</title>
<g id="a_node3"><a xlink:href="javascript:s=&quot;\(&#x27;B5x6&#x27;,\ &#x27;box&#x27;\)\nBox&quot;; console.log(s); alert(s);" xlink:title="Box">
<ellipse fill="none" stroke="black" cx="239.74" cy="-1638" rx="27" ry="18"/>
<text text-anchor="middle" x="239.74" y="-1634.3" font-family="Times New Roman,serif" font-size="14.00">box</text>
</a>
</g>
</g>
<!-- B5x6_247&#45;&gt;box_248 -->
<g id="edge2" class="edge">
<title>B5x6_247&#45;&gt;box_248</title>
<path fill="none" stroke="black" d="M121.35,-845.98C124.27,-956.88 141.76,-1545.37 185.79,-1611 190.48,-1617.99 197.56,-1623.26 205.02,-1627.21"/>
<polygon fill="black" stroke="black" points="203.99,-1630.58 214.54,-1631.52 206.88,-1624.21 203.99,-1630.58"/>
</g>
<!-- hole_249 -->
<g id="node4" class="node">
<title>hole_249</title>
<g id="a_node4"><a xlink:href="javascript:s=&quot;\(&#x27;B5x6&#x27;,\ \(&#x27;hole&#x27;,\ 0,\ 0\)\)\nBox&quot;; console.log(s); alert(s);" xlink:title="Box">
<ellipse fill="none" stroke="black" cx="239.74" cy="-1584" rx="53.89" ry="18"/>
<text text-anchor="middle" x="239.74" y="-1580.3" font-family="Times New Roman,serif" font-size="14.00">(&#39;hole&#39;, 0, 0)</text>
</a>
</g>
</g>
<!-- B5x6_247&#45;&gt;hole_249 -->
<g id="edge3" class="edge">
<title>B5x6_247&#45;&gt;hole_249</title>
<path fill="none" stroke="black" d="M121.47,-846.1C124.98,-952.73 144.77,-1496.26 185.79,-1557 187.82,-1560 190.28,-1562.68 193.03,-1565.08"/>
<polygon fill="black" stroke="black" points="191.22,-1568.09 201.37,-1571.11 195.32,-1562.42 191.22,-1568.09"/>
</g>
<!-- hole_250 -->
<g id="node5" class="node">
<title>hole_250</title>
<g id="a_node5"><a xlink:href="javascript:s=&quot;\(&#x27;B5x6&#x27;,\ \(&#x27;hole&#x27;,\ 0,\ 1\)\)\nBox&quot;; console.log(s); alert(s);" xlink:title="Box">
<ellipse fill="none" stroke="black" cx="239.74" cy="-1530" rx="53.89" ry="18"/>
<text text-anchor="middle" x="239.74" y="-1526.3" font-family="Times New Roman,serif" font-size="14.00">(&#39;hole&#39;, 0, 1)</text>
</a>
</g>
</g>
<!-- B5x6_247&#45;&gt;hole_250 -->
<g id="edge4" class="edge">
<title>B5x6_247&#45;&gt;hole_250</title>
<path fill="none" stroke="black" d="M121.6,-846.07C125.72,-947.87 147.75,-1447.1 185.79,-1503 187.83,-1505.99 190.3,-1508.67 193.05,-1511.06"/>
<polygon fill="black" stroke="black" points="191.25,-1514.08 201.4,-1517.09 195.34,-1508.4 191.25,-1514.08"/>
</g>
<!-- hole_251 -->
<g id="node6" class="node">
<title>hole_251</title>
<g id="a_node6"><a xlink:href="javascript:s=&quot;\(&#x27;B5x6&#x27;,\ \(&#x27;hole&#x27;,\ 0,\ 2\)\)\nBox&quot;; console.log(s); alert(s);" xlink:title="Box">
<ellipse fill="none" stroke="black" cx="239.74" cy="-1476" rx="53.89" ry="18"/>
<text text-anchor="middle" x="239.74" y="-1472.3" font-family="Times New Roman,serif" font-size="14.00">(&#39;hole&#39;, 0, 2)</text>
</a>
</g>
</g>
<!-- B5x6_247&#45;&gt;hole_251 -->
<g id="edge5" class="edge">
<title>B5x6_247&#45;&gt;hole_251</title>
<path fill="none" stroke="black" d="M120.53,-846.2C118.99,-937.75 116.16,-1347.57 185.79,-1449 187.94,-1452.12 190.55,-1454.9 193.46,-1457.37"/>
<polygon fill="black" stroke="black" points="191.53,-1460.29 201.71,-1463.22 195.58,-1454.58 191.53,-1460.29"/>
</g>
<!-- hole_252 -->
<g id="node7" class="node">
<title>hole_252</title>
<g id="a_node7"><a xlink:href="javascript:s=&quot;\(&#x27;B5x6&#x27;,\ \(&#x27;hole&#x27;,\ 0,\ 3\)\)\nBox&quot;; console.log(s); alert(s);" xlink:title="Box">
<ellipse fill="none" stroke="black" cx="239.74" cy="-1422" rx="53.89" ry="18"/>
<text text-anchor="middle" x="239.74" y="-1418.3" font-family="Times New Roman,serif" font-size="14.00">(&#39;hole&#39;, 0, 3)</text>
</a>
</g>
</g>
<!-- B5x6_247&#45;&gt;hole_252 -->
<g id="edge6" class="edge">
<title>B5x6_247&#45;&gt;hole_252</title>
<path fill="none" stroke="black" d="M120.73,-846.03C120.26,-932.37 122.04,-1303.12 185.79,-1395 187.95,-1398.11 190.58,-1400.88 193.49,-1403.35"/>
<polygon fill="black" stroke="black" points="191.57,-1406.28 201.76,-1409.19 195.61,-1400.56 191.57,-1406.28"/>
</g>
<!-- hole_253 -->
<g id="node8" class="node">
<title>hole_253</title>
<g id="a_node8"><a xlink:href="javascript:s=&quot;\(&#x27;B5x6&#x27;,\ \(&#x27;hole&#x27;,\ 0,\ 4\)\)\nBox&quot;; console.log(s); alert(s);" xlink:title="Box">
<ellipse fill="none" stroke="black" cx="239.74" cy="-1368" rx="53.89" ry="18"/>
<text text-anchor="middle" x="239.74" y="-1364.3" font-family="Times New Roman,serif" font-size="14.00">(&#39;hole&#39;, 0, 4)</text>
</a>
</g>
</g>
<!-- B5x6_247&#45;&gt;hole_253 -->
<g id="edge7" class="edge">
<title>B5x6_247&#45;&gt;hole_253</title>
<path fill="none" stroke="black" d="M120.98,-846.19C121.66,-927.67 127.99,-1258.73 185.79,-1341 187.97,-1344.09 190.61,-1346.86 193.53,-1349.32"/>
<polygon fill="black" stroke="black" points="191.62,-1352.25 201.81,-1355.15 195.65,-1346.53 191.62,-1352.25"/>
</g>
<!-- hole_254 -->
<g id="node9" class="node">
<title>hole_254</title>
<g id="a_node9"><a xlink:href="javascript:s=&quot;\(&#x27;B5x6&#x27;,\ \(&#x27;hole&#x27;,\ 0,\ 5\)\)\nBox&quot;; console.log(s); alert(s);" xlink:title="Box">
<ellipse fill="none" stroke="black" cx="239.74" cy="-1314" rx="53.89" ry="18"/>
<text text-anchor="middle" x="239.74" y="-1310.3" font-family="Times New Roman,serif" font-size="14.00">(&#39;hole&#39;, 0, 5)</text>
</a>
</g>
</g>
<!-- B5x6_247&#45;&gt;hole_254 -->
<g id="edge8" class="edge">
<title>B5x6_247&#45;&gt;hole_254</title>
<path fill="none" stroke="black" d="M121.27,-846.03C123.18,-921.85 133.84,-1214.2 185.79,-1287 187.99,-1290.08 190.65,-1292.83 193.58,-1295.28"/>
<polygon fill="black" stroke="black" points="191.68,-1298.23 201.88,-1301.1 195.7,-1292.5 191.68,-1298.23"/>
</g>
<!-- hole_255 -->
<g id="node10" class="node">
<title>hole_255</title>
<g id="a_node10"><a xlink:href="javascript:s=&quot;\(&#x27;B5x6&#x27;,\ \(&#x27;hole&#x27;,\ 1,\ 0\)\)\nBox&quot;; console.log(s); alert(s);" xlink:title="Box">
<ellipse fill="none" stroke="black" cx="239.74" cy="-1260" rx="53.89" ry="18"/>
<text text-anchor="middle" x="239.74" y="-1256.3" font-family="Times New Roman,serif" font-size="14.00">(&#39;hole&#39;, 1, 0)</text>
</a>
</g>
</g>
<!-- B5x6_247&#45;&gt;hole_255 -->
<g id="edge9" class="edge">
<title>B5x6_247&#45;&gt;hole_255</title>
<path fill="none" stroke="black" d="M121.65,-846.02C124.9,-916.08 139.71,-1169.66 185.79,-1233 188.02,-1236.06 190.69,-1238.79 193.64,-1241.24"/>
<polygon fill="black" stroke="black" points="191.76,-1244.19 201.97,-1247.04 195.76,-1238.45 191.76,-1244.19"/>
</g>
<!-- hole_256 -->
<g id="node11" class="node">
<title>hole_256</title>
<g id="a_node11"><a xlink:href="javascript:s=&quot;\(&#x27;B5x6&#x27;,\ \(&#x27;hole&#x27;,\ 1,\ 1\)\)\nBox&quot;; console.log(s); alert(s);" xlink:title="Box">
<ellipse fill="none" stroke="black" cx="239.74" cy="-1206" rx="53.89" ry="18"/>
<text text-anchor="middle" x="239.74" y="-1202.3" font-family="Times New Roman,serif" font-size="14.00">(&#39;hole&#39;, 1, 1)</text>
</a>
</g>
</g>
<!-- B5x6_247&#45;&gt;hole_256 -->
<g id="edge10" class="edge">
<title>B5x6_247&#45;&gt;hole_256</title>
<path fill="none" stroke="black" d="M122.16,-846.2C126.91,-910.38 145.59,-1125.11 185.79,-1179 188.06,-1182.03 190.76,-1184.75 193.72,-1187.18"/>
<polygon fill="black" stroke="black" points="191.86,-1190.15 202.08,-1192.96 195.85,-1184.39 191.86,-1190.15"/>
</g>
<!-- hole_257 -->
<g id="node12" class="node">
<title>hole_257</title>
<g id="a_node12"><a xlink:href="javascript:s=&quot;\(&#x27;B5x6&#x27;,\ \(&#x27;hole&#x27;,\ 1,\ 2\)\)\nBox&quot;; console.log(s); alert(s);" xlink:title="Box">
<ellipse fill="none" stroke="black" cx="239.74" cy="-1152" rx="53.89" ry="18"/>
<text text-anchor="middle" x="239.74" y="-1148.3" font-family="Times New Roman,serif" font-size="14.00">(&#39;hole&#39;, 1, 2)</text>
</a>
</g>
</g>
<!-- B5x6_247&#45;&gt;hole_257 -->
<g id="edge11" class="edge">
<title>B5x6_247&#45;&gt;hole_257</title>
<path fill="none" stroke="black" d="M122.82,-846.15C129.23,-903.62 151.38,-1080.39 185.79,-1125 188.11,-1127.99 190.84,-1130.68 193.83,-1133.1"/>
<polygon fill="black" stroke="black" points="191.99,-1136.08 202.22,-1138.85 195.95,-1130.31 191.99,-1136.08"/>
</g>
<!-- hole_258 -->
<g id="node13" class="node">
<title>hole_258</title>
<g id="a_node13"><a xlink:href="javascript:s=&quot;\(&#x27;B5x6&#x27;,\ \(&#x27;hole&#x27;,\ 1,\ 3\)\)\nBox&quot;; console.log(s); alert(s);" xlink:title="Box">
<ellipse fill="none" stroke="black" cx="239.74" cy="-1098" rx="53.89" ry="18"/>
<text text-anchor="middle" x="239.74" y="-1094.3" font-family="Times New Roman,serif" font-size="14.00">(&#39;hole&#39;, 1, 3)</text>
</a>
</g>
</g>
<!-- B5x6_247&#45;&gt;hole_258 -->
<g id="edge12" class="edge">
<title>B5x6_247&#45;&gt;hole_258</title>
<path fill="none" stroke="black" d="M120.92,-846.07C121.91,-889.66 130.05,-1002.08 185.79,-1071 188.21,-1073.98 191.04,-1076.67 194.11,-1079.08"/>
<polygon fill="black" stroke="black" points="192.44,-1082.18 202.7,-1084.85 196.35,-1076.37 192.44,-1082.18"/>
</g>
<!-- hole_259 -->
<g id="node14" class="node">
<title>hole_259</title>
<g id="a_node14"><a xlink:href="javascript:s=&quot;\(&#x27;B5x6&#x27;,\ \(&#x27;hole&#x27;,\ 1,\ 4\)\)\nBox&quot;; console.log(s); alert(s);" xlink:title="Box">
<ellipse fill="none" stroke="black" cx="239.74" cy="-1044" rx="53.89" ry="18"/>
<text text-anchor="middle" x="239.74" y="-1040.3" font-family="Times New Roman,serif" font-size="14.00">(&#39;hole&#39;, 1, 4)</text>
</a>
</g>
</g>
<!-- B5x6_247&#45;&gt;hole_259 -->
<g id="edge13" class="edge">
<title>B5x6_247&#45;&gt;hole_259</title>
<path fill="none" stroke="black" d="M122.61,-846.1C126.93,-882.57 141.33,-965.79 185.79,-1017 188.38,-1019.98 191.38,-1022.68 194.61,-1025.1"/>
<polygon fill="black" stroke="black" points="192.72,-1028.05 203,-1030.59 196.55,-1022.19 192.72,-1028.05"/>
</g>
<!-- hole_260 -->
<g id="node15" class="node">
<title>hole_260</title>
<g id="a_node15"><a xlink:href="javascript:s=&quot;\(&#x27;B5x6&#x27;,\ \(&#x27;hole&#x27;,\ 1,\ 5\)\)\nBox&quot;; console.log(s); alert(s);" xlink:title="Box">
<ellipse fill="none" stroke="black" cx="239.74" cy="-990" rx="53.89" ry="18"/>
<text text-anchor="middle" x="239.74" y="-986.3" font-family="Times New Roman,serif" font-size="14.00">(&#39;hole&#39;, 1, 5)</text>
</a>
</g>
</g>
<!-- B5x6_247&#45;&gt;hole_260 -->
<g id="edge14" class="edge">
<title>B5x6_247&#45;&gt;hole_260</title>
<path fill="none" stroke="black" d="M125.48,-845.91C133.46,-874 152.36,-928.77 185.79,-963 188.63,-965.91 191.85,-968.56 195.27,-970.96"/>
<polygon fill="black" stroke="black" points="193.71,-974.12 204.05,-976.44 197.42,-968.18 193.71,-974.12"/>
</g>
<!-- hole_261 -->
<g id="node16" class="node">
<title>hole_261</title>
<g id="a_node16"><a xlink:href="javascript:s=&quot;\(&#x27;B5x6&#x27;,\ \(&#x27;hole&#x27;,\ 2,\ 0\)\)\nBox&quot;; console.log(s); alert(s);" xlink:title="Box">
<ellipse fill="none" stroke="black" cx="239.74" cy="-936" rx="53.89" ry="18"/>
<text text-anchor="middle" x="239.74" y="-932.3" font-family="Times New Roman,serif" font-size="14.00">(&#39;hole&#39;, 2, 0)</text>
</a>
</g>
</g>
<!-- B5x6_247&#45;&gt;hole_261 -->
<g id="edge15" class="edge">
<title>B5x6_247&#45;&gt;hole_261</title>
<path fill="none" stroke="black" d="M131.35,-844.96C142.94,-862.69 163.02,-890.45 185.79,-909 189.26,-911.83 193.08,-914.47 197.02,-916.91"/>
<polygon fill="black" stroke="black" points="195.35,-919.99 205.76,-921.92 198.83,-913.91 195.35,-919.99"/>
</g>
<!-- hole_262 -->
<g id="node17" class="node">
<title>hole_262</title>
<g id="a_node17"><a xlink:href="javascript:s=&quot;\(&#x27;B5x6&#x27;,\ \(&#x27;hole&#x27;,\ 2,\ 1\)\)\nBox&quot;; console.log(s); alert(s);" xlink:title="Box">
<ellipse fill="none" stroke="black" cx="239.74" cy="-882" rx="53.89" ry="18"/>
<text text-anchor="middle" x="239.74" y="-878.3" font-family="Times New Roman,serif" font-size="14.00">(&#39;hole&#39;, 2, 1)</text>
</a>
</g>
</g>
<!-- B5x6_247&#45;&gt;hole_262 -->
<g id="edge16" class="edge">
<title>B5x6_247&#45;&gt;hole_262</title>
<path fill="none" stroke="black" d="M144.18,-838.67C159.49,-845.68 179.94,-855.05 197.9,-863.29"/>
<polygon fill="black" stroke="black" points="196.48,-866.49 207.03,-867.47 199.4,-860.12 196.48,-866.49"/>
</g>
<!-- hole_263 -->
<g id="node18" class="node">
<title>hole_263</title>
<g id="a_node18"><a xlink:href="javascript:s=&quot;\(&#x27;B5x6&#x27;,\ \(&#x27;hole&#x27;,\ 2,\ 2\)\)\nBox&quot;; console.log(s); alert(s);" xlink:title="Box">
<ellipse fill="none" stroke="black" cx="239.74" cy="-828" rx="53.89" ry="18"/>
<text text-anchor="middle" x="239.74" y="-824.3" font-family="Times New Roman,serif" font-size="14.00">(&#39;hole&#39;, 2, 2)</text>
</a>
</g>
</g>
<!-- B5x6_247&#45;&gt;hole_263 -->
<g id="edge17" class="edge">
<title>B5x6_247&#45;&gt;hole_263</title>
<path fill="none" stroke="black" d="M150.03,-828C157.85,-828 166.63,-828 175.53,-828"/>
<polygon fill="black" stroke="black" points="175.6,-831.5 185.6,-828 175.6,-824.5 175.6,-831.5"/>
</g>
<!-- hole_264 -->
<g id="node19" class="node">
<title>hole_264</title>
<g id="a_node19"><a xlink:href="javascript:s=&quot;\(&#x27;B5x6&#x27;,\ \(&#x27;hole&#x27;,\ 2,\ 3\)\)\nBox&quot;; console.log(s); alert(s);" xlink:title="Box">
<ellipse fill="none" stroke="black" cx="239.74" cy="-774" rx="53.89" ry="18"/>
<text text-anchor="middle" x="239.74" y="-770.3" font-family="Times New Roman,serif" font-size="14.00">(&#39;hole&#39;, 2, 3)</text>
</a>
</g>
</g>
<!-- B5x6_247&#45;&gt;hole_264 -->
<g id="edge18" class="edge">
<title>B5x6_247&#45;&gt;hole_264</title>
<path fill="none" stroke="black" d="M144.18,-817.33C159.49,-810.32 179.94,-800.95 197.9,-792.71"/>
<polygon fill="black" stroke="black" points="199.4,-795.88 207.03,-788.53 196.48,-789.51 199.4,-795.88"/>
</g>
<!-- hole_265 -->
<g id="node20" class="node">
<title>hole_265</title>
<g id="a_node20"><a xlink:href="javascript:s=&quot;\(&#x27;B5x6&#x27;,\ \(&#x27;hole&#x27;,\ 2,\ 4\)\)\nBox&quot;; console.log(s); alert(s);" xlink:title="Box">
<ellipse fill="none" stroke="black" cx="239.74" cy="-720" rx="53.89" ry="18"/>
<text text-anchor="middle" x="239.74" y="-716.3" font-family="Times New Roman,serif" font-size="14.00">(&#39;hole&#39;, 2, 4)</text>
</a>
</g>
</g>
<!-- B5x6_247&#45;&gt;hole_265 -->
<g id="edge19" class="edge">
<title>B5x6_247&#45;&gt;hole_265</title>
<path fill="none" stroke="black" d="M131.35,-811.04C142.94,-793.31 163.02,-765.55 185.79,-747 189.26,-744.17 193.08,-741.53 197.02,-739.09"/>
<polygon fill="black" stroke="black" points="198.83,-742.09 205.76,-734.08 195.35,-736.01 198.83,-742.09"/>
</g>
<!-- hole_266 -->
<g id="node21" class="node">
<title>hole_266</title>
<g id="a_node21"><a xlink:href="javascript:s=&quot;\(&#x27;B5x6&#x27;,\ \(&#x27;hole&#x27;,\ 2,\ 5\)\)\nBox&quot;; console.log(s); alert(s);" xlink:title="Box">
<ellipse fill="none" stroke="black" cx="239.74" cy="-666" rx="53.89" ry="18"/>
<text text-anchor="middle" x="239.74" y="-662.3" font-family="Times New Roman,serif" font-size="14.00">(&#39;hole&#39;, 2, 5)</text>
</a>
</g>
</g>
<!-- B5x6_247&#45;&gt;hole_266 -->
<g id="edge20" class="edge">
<title>B5x6_247&#45;&gt;hole_266</title>
<path fill="none" stroke="black" d="M125.48,-810.09C133.46,-782 152.36,-727.23 185.79,-693 188.63,-690.09 191.85,-687.44 195.27,-685.04"/>
<polygon fill="black" stroke="black" points="197.42,-687.82 204.05,-679.56 193.71,-681.88 197.42,-687.82"/>
</g>
<!-- hole_267 -->
<g id="node22" class="node">
<title>hole_267</title>
<g id="a_node22"><a xlink:href="javascript:s=&quot;\(&#x27;B5x6&#x27;,\ \(&#x27;hole&#x27;,\ 3,\ 0\)\)\nBox&quot;; console.log(s); alert(s);" xlink:title="Box">
<ellipse fill="none" stroke="black" cx="239.74" cy="-612" rx="53.89" ry="18"/>
<text text-anchor="middle" x="239.74" y="-608.3" font-family="Times New Roman,serif" font-size="14.00">(&#39;hole&#39;, 3, 0)</text>
</a>
</g>
</g>
<!-- B5x6_247&#45;&gt;hole_267 -->
<g id="edge21" class="edge">
<title>B5x6_247&#45;&gt;hole_267</title>
<path fill="none" stroke="black" d="M122.61,-809.9C126.93,-773.43 141.33,-690.21 185.79,-639 188.38,-636.02 191.38,-633.32 194.61,-630.9"/>
<polygon fill="black" stroke="black" points="196.55,-633.81 203,-625.41 192.72,-627.95 196.55,-633.81"/>
</g>
<!-- hole_268 -->
<g id="node23" class="node">
<title>hole_268</title>
<g id="a_node23"><a xlink:href="javascript:s=&quot;\(&#x27;B5x6&#x27;,\ \(&#x27;hole&#x27;,\ 3,\ 1\)\)\nBox&quot;; console.log(s); alert(s);" xlink:title="Box">
<ellipse fill="none" stroke="black" cx="239.74" cy="-558" rx="53.89" ry="18"/>
<text text-anchor="middle" x="239.74" y="-554.3" font-family="Times New Roman,serif" font-size="14.00">(&#39;hole&#39;, 3, 1)</text>
</a>
</g>
</g>
<!-- B5x6_247&#45;&gt;hole_268 -->
<g id="edge22" class="edge">
<title>B5x6_247&#45;&gt;hole_268</title>
<path fill="none" stroke="black" d="M120.92,-809.93C121.91,-766.34 130.05,-653.92 185.79,-585 188.21,-582.02 191.04,-579.33 194.11,-576.92"/>
<polygon fill="black" stroke="black" points="196.35,-579.63 202.7,-571.15 192.44,-573.82 196.35,-579.63"/>
</g>
<!-- hole_269 -->
<g id="node24" class="node">
<title>hole_269</title>
<g id="a_node24"><a xlink:href="javascript:s=&quot;\(&#x27;B5x6&#x27;,\ \(&#x27;hole&#x27;,\ 3,\ 2\)\)\nBox&quot;; console.log(s); alert(s);" xlink:title="Box">
<ellipse fill="none" stroke="black" cx="239.74" cy="-504" rx="53.89" ry="18"/>
<text text-anchor="middle" x="239.74" y="-500.3" font-family="Times New Roman,serif" font-size="14.00">(&#39;hole&#39;, 3, 2)</text>
</a>
</g>
</g>
<!-- B5x6_247&#45;&gt;hole_269 -->
<g id="edge23" class="edge">
<title>B5x6_247&#45;&gt;hole_269</title>
<path fill="none" stroke="black" d="M122.82,-809.85C129.23,-752.38 151.38,-575.61 185.79,-531 188.11,-528.01 190.84,-525.32 193.83,-522.9"/>
<polygon fill="black" stroke="black" points="195.95,-525.69 202.22,-517.15 191.99,-519.92 195.95,-525.69"/>
</g>
<!-- hole_270 -->
<g id="node25" class="node">
<title>hole_270</title>
<g id="a_node25"><a xlink:href="javascript:s=&quot;\(&#x27;B5x6&#x27;,\ \(&#x27;hole&#x27;,\ 3,\ 3\)\)\nBox&quot;; console.log(s); alert(s);" xlink:title="Box">
<ellipse fill="none" stroke="black" cx="239.74" cy="-450" rx="53.89" ry="18"/>
<text text-anchor="middle" x="239.74" y="-446.3" font-family="Times New Roman,serif" font-size="14.00">(&#39;hole&#39;, 3, 3)</text>
</a>
</g>
</g>
<!-- B5x6_247&#45;&gt;hole_270 -->
<g id="edge24" class="edge">
<title>B5x6_247&#45;&gt;hole_270</title>
<path fill="none" stroke="black" d="M122.16,-809.8C126.91,-745.62 145.59,-530.89 185.79,-477 188.06,-473.97 190.76,-471.25 193.72,-468.82"/>
<polygon fill="black" stroke="black" points="195.85,-471.61 202.08,-463.04 191.86,-465.85 195.85,-471.61"/>
</g>
<!-- hole_271 -->
<g id="node26" class="node">
<title>hole_271</title>
<g id="a_node26"><a xlink:href="javascript:s=&quot;\(&#x27;B5x6&#x27;,\ \(&#x27;hole&#x27;,\ 3,\ 4\)\)\nBox&quot;; console.log(s); alert(s);" xlink:title="Box">
<ellipse fill="none" stroke="black" cx="239.74" cy="-396" rx="53.89" ry="18"/>
<text text-anchor="middle" x="239.74" y="-392.3" font-family="Times New Roman,serif" font-size="14.00">(&#39;hole&#39;, 3, 4)</text>
</a>
</g>
</g>
<!-- B5x6_247&#45;&gt;hole_271 -->
<g id="edge25" class="edge">
<title>B5x6_247&#45;&gt;hole_271</title>
<path fill="none" stroke="black" d="M121.65,-809.98C124.9,-739.92 139.71,-486.34 185.79,-423 188.02,-419.94 190.69,-417.21 193.64,-414.76"/>
<polygon fill="black" stroke="black" points="195.76,-417.55 201.97,-408.96 191.76,-411.81 195.76,-417.55"/>
</g>
<!-- hole_272 -->
<g id="node27" class="node">
<title>hole_272</title>
<g id="a_node27"><a xlink:href="javascript:s=&quot;\(&#x27;B5x6&#x27;,\ \(&#x27;hole&#x27;,\ 3,\ 5\)\)\nBox&quot;; console.log(s); alert(s);" xlink:title="Box">
<ellipse fill="none" stroke="black" cx="239.74" cy="-342" rx="53.89" ry="18"/>
<text text-anchor="middle" x="239.74" y="-338.3" font-family="Times New Roman,serif" font-size="14.00">(&#39;hole&#39;, 3, 5)</text>
</a>
</g>
</g>
<!-- B5x6_247&#45;&gt;hole_272 -->
<g id="edge26" class="edge">
<title>B5x6_247&#45;&gt;hole_272</title>
<path fill="none" stroke="black" d="M121.27,-809.97C123.18,-734.15 133.84,-441.8 185.79,-369 187.99,-365.92 190.65,-363.17 193.58,-360.72"/>
<polygon fill="black" stroke="black" points="195.7,-363.5 201.88,-354.9 191.68,-357.77 195.7,-363.5"/>
</g>
<!-- hole_273 -->
<g id="node28" class="node">
<title>hole_273</title>
<g id="a_node28"><a xlink:href="javascript:s=&quot;\(&#x27;B5x6&#x27;,\ \(&#x27;hole&#x27;,\ 4,\ 0\)\)\nBox&quot;; console.log(s); alert(s);" xlink:title="Box">
<ellipse fill="none" stroke="black" cx="239.74" cy="-288" rx="53.89" ry="18"/>
<text text-anchor="middle" x="239.74" y="-284.3" font-family="Times New Roman,serif" font-size="14.00">(&#39;hole&#39;, 4, 0)</text>
</a>
</g>
</g>
<!-- B5x6_247&#45;&gt;hole_273 -->
<g id="edge27" class="edge">
<title>B5x6_247&#45;&gt;hole_273</title>
<path fill="none" stroke="black" d="M120.98,-809.81C121.66,-728.33 127.99,-397.27 185.79,-315 187.97,-311.91 190.61,-309.14 193.53,-306.68"/>
<polygon fill="black" stroke="black" points="195.65,-309.47 201.81,-300.85 191.62,-303.75 195.65,-309.47"/>
</g>
<!-- hole_274 -->
<g id="node29" class="node">
<title>hole_274</title>
<g id="a_node29"><a xlink:href="javascript:s=&quot;\(&#x27;B5x6&#x27;,\ \(&#x27;hole&#x27;,\ 4,\ 1\)\)\nBox&quot;; console.log(s); alert(s);" xlink:title="Box">
<ellipse fill="none" stroke="black" cx="239.74" cy="-234" rx="53.89" ry="18"/>
<text text-anchor="middle" x="239.74" y="-230.3" font-family="Times New Roman,serif" font-size="14.00">(&#39;hole&#39;, 4, 1)</text>
</a>
</g>
</g>
<!-- B5x6_247&#45;&gt;hole_274 -->
<g id="edge28" class="edge">
<title>B5x6_247&#45;&gt;hole_274</title>
<path fill="none" stroke="black" d="M120.73,-809.97C120.26,-723.63 122.04,-352.88 185.79,-261 187.95,-257.89 190.58,-255.12 193.49,-252.65"/>
<polygon fill="black" stroke="black" points="195.61,-255.44 201.76,-246.81 191.57,-249.72 195.61,-255.44"/>
</g>
<!-- hole_275 -->
<g id="node30" class="node">
<title>hole_275</title>
<g id="a_node30"><a xlink:href="javascript:s=&quot;\(&#x27;B5x6&#x27;,\ \(&#x27;hole&#x27;,\ 4,\ 2\)\)\nBox&quot;; console.log(s); alert(s);" xlink:title="Box">
<ellipse fill="none" stroke="black" cx="239.74" cy="-180" rx="53.89" ry="18"/>
<text text-anchor="middle" x="239.74" y="-176.3" font-family="Times New Roman,serif" font-size="14.00">(&#39;hole&#39;, 4, 2)</text>
</a>
</g>
</g>
<!-- B5x6_247&#45;&gt;hole_275 -->
<g id="edge29" class="edge">
<title>B5x6_247&#45;&gt;hole_275</title>
<path fill="none" stroke="black" d="M120.53,-809.8C118.99,-718.25 116.16,-308.43 185.79,-207 187.94,-203.88 190.55,-201.1 193.46,-198.63"/>
<polygon fill="black" stroke="black" points="195.58,-201.42 201.71,-192.78 191.53,-195.71 195.58,-201.42"/>
</g>
<!-- hole_276 -->
<g id="node31" class="node">
<title>hole_276</title>
<g id="a_node31"><a xlink:href="javascript:s=&quot;\(&#x27;B5x6&#x27;,\ \(&#x27;hole&#x27;,\ 4,\ 3\)\)\nBox&quot;; console.log(s); alert(s);" xlink:title="Box">
<ellipse fill="none" stroke="black" cx="239.74" cy="-126" rx="53.89" ry="18"/>
<text text-anchor="middle" x="239.74" y="-122.3" font-family="Times New Roman,serif" font-size="14.00">(&#39;hole&#39;, 4, 3)</text>
</a>
</g>
</g>
<!-- B5x6_247&#45;&gt;hole_276 -->
<g id="edge30" class="edge">
<title>B5x6_247&#45;&gt;hole_276</title>
<path fill="none" stroke="black" d="M121.6,-809.93C125.72,-708.13 147.75,-208.9 185.79,-153 187.83,-150.01 190.3,-147.33 193.05,-144.94"/>
<polygon fill="black" stroke="black" points="195.34,-147.6 201.4,-138.91 191.25,-141.92 195.34,-147.6"/>
</g>
<!-- hole_277 -->
<g id="node32" class="node">
<title>hole_277</title>
<g id="a_node32"><a xlink:href="javascript:s=&quot;\(&#x27;B5x6&#x27;,\ \(&#x27;hole&#x27;,\ 4,\ 4\)\)\nBox&quot;; console.log(s); alert(s);" xlink:title="Box">
<ellipse fill="none" stroke="black" cx="239.74" cy="-72" rx="53.89" ry="18"/>
<text text-anchor="middle" x="239.74" y="-68.3" font-family="Times New Roman,serif" font-size="14.00">(&#39;hole&#39;, 4, 4)</text>
</a>
</g>
</g>
<!-- B5x6_247&#45;&gt;hole_277 -->
<g id="edge31" class="edge">
<title>B5x6_247&#45;&gt;hole_277</title>
<path fill="none" stroke="black" d="M121.47,-809.9C124.98,-703.27 144.77,-159.74 185.79,-99 187.82,-96 190.28,-93.32 193.03,-90.92"/>
<polygon fill="black" stroke="black" points="195.32,-93.58 201.37,-84.89 191.22,-87.91 195.32,-93.58"/>
</g>
<!-- hole_278 -->
<g id="node33" class="node">
<title>hole_278</title>
<g id="a_node33"><a xlink:href="javascript:s=&quot;\(&#x27;B5x6&#x27;,\ \(&#x27;hole&#x27;,\ 4,\ 5\)\)\nBox&quot;; console.log(s); alert(s);" xlink:title="Box">
<ellipse fill="none" stroke="black" cx="239.74" cy="-18" rx="53.89" ry="18"/>
<text text-anchor="middle" x="239.74" y="-14.3" font-family="Times New Roman,serif" font-size="14.00">(&#39;hole&#39;, 4, 5)</text>
</a>
</g>
</g>
<!-- B5x6_247&#45;&gt;hole_278 -->
<g id="edge32" class="edge">
<title>B5x6_247&#45;&gt;hole_278</title>
<path fill="none" stroke="black" d="M121.35,-810.02C124.27,-699.12 141.76,-110.63 185.79,-45 187.81,-42 190.27,-39.31 193.01,-36.91"/>
<polygon fill="black" stroke="black" points="195.3,-39.57 201.34,-30.87 191.19,-33.9 195.3,-39.57"/>
</g>
</g>
</svg>
