solid OpenSCAD_Model
  facet normal 0 0 1
    outer loop
      vertex -80.025 -86.525 21.666666666666668
      vertex -77.625 -84.12500000000003 21.666666666666668
      vertex -77.625 -28.84166666666669 21.666666666666668
    endloop
  endfacet
  facet normal 0 0 1
    outer loop
      vertex -80.025 -86.525 21.666666666666668
      vertex -27.474999999999994 -84.12500000000003 21.666666666666668
      vertex -77.625 -84.12500000000003 21.666666666666668
    endloop
  endfacet
  facet normal 0 0 1
    outer loop
      vertex -80.025 -86.525 21.666666666666668
      vertex -77.625 -28.84166666666669 21.666666666666668
      vertex -77.625 -26.441666666666677 21.666666666666668
    endloop
  endfacet
  facet normal 0 0 1
    outer loop
      vertex -80.025 -86.525 21.666666666666668
      vertex -25.075000000000003 -84.12500000000003 21.666666666666668
      vertex -27.474999999999994 -84.12500000000003 21.666666666666668
    endloop
  endfacet
  facet normal -1 0 0
    outer loop
      vertex -80.025 -86.525 0
      vertex -80.025 -86.525 21.666666666666668
      vertex -80.025 86.525 21.666666666666668
    endloop
  endfacet
  facet normal 0 0 1
    outer loop
      vertex -77.625 -28.84166666666669 21.666666666666668
      vertex -27.474999999999994 -28.84166666666669 21.666666666666668
      vertex -77.625 -26.441666666666677 21.666666666666668
    endloop
  endfacet
  facet normal 0 0 1
    outer loop
      vertex -80.025 -86.525 21.666666666666668
      vertex -77.625 -26.441666666666677 21.666666666666668
      vertex -80.025 86.525 21.666666666666668
    endloop
  endfacet
  facet normal 0 0 1
    outer loop
      vertex -27.474999999999994 -26.441666666666677 21.666666666666668
      vertex -77.625 -26.441666666666677 21.666666666666668
      vertex -27.474999999999994 -28.84166666666669 21.666666666666668
    endloop
  endfacet
  facet normal 0 -1 0
    outer loop
      vertex -80.025 -86.525 0
      vertex 80.025 -86.525 21.666666666666668
      vertex -80.025 -86.525 21.666666666666668
    endloop
  endfacet
  facet normal 0 0 1
    outer loop
      vertex -27.474999999999994 -84.12500000000003 21.666666666666668
      vertex -25.075000000000003 -84.12500000000003 21.666666666666668
      vertex -25.075000000000003 -28.84166666666669 21.666666666666668
    endloop
  endfacet
  facet normal 0 0 1
    outer loop
      vertex -27.474999999999994 -84.12500000000003 21.666666666666668
      vertex -25.075000000000003 -28.84166666666669 21.666666666666668
      vertex -27.474999999999994 -28.84166666666669 21.666666666666668
    endloop
  endfacet
  facet normal 0 0 1
    outer loop
      vertex -80.025 -86.525 21.666666666666668
      vertex 80.025 -86.525 21.666666666666668
      vertex -25.075000000000003 -84.12500000000003 21.666666666666668
    endloop
  endfacet
  facet normal 0 0 1
    outer loop
      vertex -27.474999999999994 -26.441666666666677 21.666666666666668
      vertex -27.474999999999994 -28.84166666666669 21.666666666666668
      vertex -25.075000000000003 -26.441666666666677 21.666666666666668
    endloop
  endfacet
  facet normal 0 0 1
    outer loop
      vertex -25.075000000000003 -28.84166666666669 21.666666666666668
      vertex -25.075000000000003 -26.441666666666677 21.666666666666668
      vertex -27.474999999999994 -28.84166666666669 21.666666666666668
    endloop
  endfacet
  facet normal 0 0 1
    outer loop
      vertex 25.075000000000003 -28.84166666666669 21.666666666666668
      vertex -25.075000000000003 -26.441666666666677 21.666666666666668
      vertex -25.075000000000003 -28.84166666666669 21.666666666666668
    endloop
  endfacet
  facet normal -1 0 0
    outer loop
      vertex -80.025 -86.525 0
      vertex -80.025 86.525 21.666666666666668
      vertex -80.025 86.525 0
    endloop
  endfacet
  facet normal 0 0 -1
    outer loop
      vertex -80.025 -86.525 0
      vertex -80.025 86.525 0
      vertex 80.025 86.525 0
    endloop
  endfacet
  facet normal 0 1 0
    outer loop
      vertex -80.025 86.525 0
      vertex -80.025 86.525 21.666666666666668
      vertex 80.025 86.525 0
    endloop
  endfacet
  facet normal 0 0 1
    outer loop
      vertex -80.025 86.525 21.666666666666668
      vertex -77.625 -26.441666666666677 21.666666666666668
      vertex -77.625 84.125 21.666666666666668
    endloop
  endfacet
  facet normal 0 0 1
    outer loop
      vertex -80.025 86.525 21.666666666666668
      vertex -77.625 84.125 21.666666666666668
      vertex -27.474999999999994 84.125 21.666666666666668
    endloop
  endfacet
  facet normal 0 0 1
    outer loop
      vertex -80.025 86.525 21.666666666666668
      vertex -27.474999999999994 84.125 21.666666666666668
      vertex -25.075000000000003 84.125 21.666666666666668
    endloop
  endfacet
  facet normal 0 0 1
    outer loop
      vertex -25.075000000000003 84.125 21.666666666666668
      vertex -27.474999999999994 -26.441666666666677 21.666666666666668
      vertex -25.075000000000003 -26.441666666666677 21.666666666666668
    endloop
  endfacet
  facet normal 0 0 1
    outer loop
      vertex -27.474999999999994 -26.441666666666677 21.666666666666668
      vertex -25.075000000000003 84.125 21.666666666666668
      vertex -27.474999999999994 84.125 21.666666666666668
    endloop
  endfacet
  facet normal 0 0 1
    outer loop
      vertex -80.025 86.525 21.666666666666668
      vertex -25.075000000000003 84.125 21.666666666666668
      vertex 25.075000000000003 84.125 21.666666666666668
    endloop
  endfacet
  facet normal 0 -1 0
    outer loop
      vertex -80.025 -86.525 0
      vertex 80.025 -86.525 0
      vertex 80.025 -86.525 21.666666666666668
    endloop
  endfacet
  facet normal 0 0 -1
    outer loop
      vertex -80.025 -86.525 0
      vertex 80.025 86.525 0
      vertex 80.025 -86.525 0
    endloop
  endfacet
  facet normal 1 0 0
    outer loop
      vertex 80.025 -86.525 0
      vertex 80.025 86.525 0
      vertex 80.025 -86.525 21.666666666666668
    endloop
  endfacet
  facet normal 0 0 1
    outer loop
      vertex 80.025 -86.525 21.666666666666668
      vertex 25.075000000000003 -84.12500000000003 21.666666666666668
      vertex -25.075000000000003 -84.12500000000003 21.666666666666668
    endloop
  endfacet
  facet normal 0 0 1
    outer loop
      vertex 27.474999999999994 -28.84166666666669 21.666666666666668
      vertex 25.075000000000003 -84.12500000000003 21.666666666666668
      vertex 27.474999999999994 -84.12500000000003 21.666666666666668
    endloop
  endfacet
  facet normal 0 0 1
    outer loop
      vertex 27.474999999999994 -28.84166666666669 21.666666666666668
      vertex 25.075000000000003 -28.84166666666669 21.666666666666668
      vertex 25.075000000000003 -84.12500000000003 21.666666666666668
    endloop
  endfacet
  facet normal 0 0 1
    outer loop
      vertex 25.075000000000003 -26.441666666666677 21.666666666666668
      vertex -25.075000000000003 -26.441666666666677 21.666666666666668
      vertex 25.075000000000003 -28.84166666666669 21.666666666666668
    endloop
  endfacet
  facet normal 0 0 1
    outer loop
      vertex 25.075000000000003 -26.441666666666677 21.666666666666668
      vertex 25.075000000000003 -28.84166666666669 21.666666666666668
      vertex 27.474999999999994 -28.84166666666669 21.666666666666668
    endloop
  endfacet
  facet normal 0 0 1
    outer loop
      vertex 80.025 -86.525 21.666666666666668
      vertex 27.474999999999994 -84.12500000000003 21.666666666666668
      vertex 25.075000000000003 -84.12500000000003 21.666666666666668
    endloop
  endfacet
  facet normal 0 0 1
    outer loop
      vertex 80.025 -86.525 21.666666666666668
      vertex 77.625 -84.12500000000003 21.666666666666668
      vertex 27.474999999999994 -84.12500000000003 21.666666666666668
    endloop
  endfacet
  facet normal 0 0 1
    outer loop
      vertex 80.025 -86.525 21.666666666666668
      vertex 77.625 -28.84166666666669 21.666666666666668
      vertex 77.625 -84.12500000000003 21.666666666666668
    endloop
  endfacet
  facet normal 0 0 1
    outer loop
      vertex 80.025 -86.525 21.666666666666668
      vertex 77.625 -26.441666666666677 21.666666666666668
      vertex 77.625 -28.84166666666669 21.666666666666668
    endloop
  endfacet
  facet normal 0 0 1
    outer loop
      vertex 25.075000000000003 -26.441666666666677 21.666666666666668
      vertex 27.474999999999994 -28.84166666666669 21.666666666666668
      vertex 77.625 -28.84166666666669 21.666666666666668
    endloop
  endfacet
  facet normal 0 0 1
    outer loop
      vertex 77.625 -28.84166666666669 21.666666666666668
      vertex 27.474999999999994 -26.441666666666677 21.666666666666668
      vertex 25.075000000000003 -26.441666666666677 21.666666666666668
    endloop
  endfacet
  facet normal 0 0 1
    outer loop
      vertex 77.625 -28.84166666666669 21.666666666666668
      vertex 77.625 -26.441666666666677 21.666666666666668
      vertex 27.474999999999994 -26.441666666666677 21.666666666666668
    endloop
  endfacet
  facet normal 0 0 1
    outer loop
      vertex 80.025 -86.525 21.666666666666668
      vertex 80.025 86.525 21.666666666666668
      vertex 77.625 -26.441666666666677 21.666666666666668
    endloop
  endfacet
  facet normal 0 0 1
    outer loop
      vertex 27.474999999999994 84.125 21.666666666666668
      vertex 25.075000000000003 -26.441666666666677 21.666666666666668
      vertex 27.474999999999994 -26.441666666666677 21.666666666666668
    endloop
  endfacet
  facet normal 0 1 0
    outer loop
      vertex -80.025 86.525 21.666666666666668
      vertex 80.025 86.525 21.666666666666668
      vertex 80.025 86.525 0
    endloop
  endfacet
  facet normal 0 0 1
    outer loop
      vertex -80.025 86.525 21.666666666666668
      vertex 25.075000000000003 84.125 21.666666666666668
      vertex 80.025 86.525 21.666666666666668
    endloop
  endfacet
  facet normal 0 0 1
    outer loop
      vertex 27.474999999999994 84.125 21.666666666666668
      vertex 25.075000000000003 84.125 21.666666666666668
      vertex 25.075000000000003 -26.441666666666677 21.666666666666668
    endloop
  endfacet
  facet normal 1 0 0
    outer loop
      vertex 80.025 -86.525 21.666666666666668
      vertex 80.025 86.525 0
      vertex 80.025 86.525 21.666666666666668
    endloop
  endfacet
  facet normal 0 0 1
    outer loop
      vertex 80.025 86.525 21.666666666666668
      vertex 25.075000000000003 84.125 21.666666666666668
      vertex 27.474999999999994 84.125 21.666666666666668
    endloop
  endfacet
  facet normal 0 0 1
    outer loop
      vertex 80.025 86.525 21.666666666666668
      vertex 77.625 84.125 21.666666666666668
      vertex 77.625 -26.441666666666677 21.666666666666668
    endloop
  endfacet
  facet normal 0 0 1
    outer loop
      vertex 80.025 86.525 21.666666666666668
      vertex 27.474999999999994 84.125 21.666666666666668
      vertex 77.625 84.125 21.666666666666668
    endloop
  endfacet
  facet normal 0 1 0
    outer loop
      vertex -77.625 -26.441666666666677 1.6
      vertex -77.625 -26.441666666666677 21.666666666666668
      vertex -27.474999999999994 -26.441666666666677 1.6
    endloop
  endfacet
  facet normal 0 1 0
    outer loop
      vertex -27.474999999999994 -26.441666666666677 1.6
      vertex -77.625 -26.441666666666677 21.666666666666668
      vertex -27.474999999999994 -26.441666666666677 21.666666666666668
    endloop
  endfacet
  facet normal 0 0 1
    outer loop
      vertex -77.625 -26.441666666666677 1.6
      vertex -27.474999999999994 -26.441666666666677 1.6
      vertex -27.474999999999994 84.125 1.6
    endloop
  endfacet
  facet normal 0 0 1
    outer loop
      vertex -77.625 -26.441666666666677 1.6
      vertex -27.474999999999994 84.125 1.6
      vertex -77.625 84.125 1.6
    endloop
  endfacet
  facet normal 1 0 0
    outer loop
      vertex -77.625 -26.441666666666677 1.6
      vertex -77.625 84.125 1.6
      vertex -77.625 84.125 21.666666666666668
    endloop
  endfacet
  facet normal 0 -1 0
    outer loop
      vertex -77.625 84.125 1.6
      vertex -27.474999999999994 84.125 1.6
      vertex -27.474999999999994 84.125 21.666666666666668
    endloop
  endfacet
  facet normal -1 0 0
    outer loop
      vertex -27.474999999999994 -26.441666666666677 1.6
      vertex -27.474999999999994 -26.441666666666677 21.666666666666668
      vertex -27.474999999999994 84.125 1.6
    endloop
  endfacet
  facet normal 1 0 0
    outer loop
      vertex -77.625 -26.441666666666677 1.6
      vertex -77.625 84.125 21.666666666666668
      vertex -77.625 -26.441666666666677 21.666666666666668
    endloop
  endfacet
  facet normal 0 -1 0
    outer loop
      vertex -77.625 84.125 1.6
      vertex -27.474999999999994 84.125 21.666666666666668
      vertex -77.625 84.125 21.666666666666668
    endloop
  endfacet
  facet normal -1 0 0
    outer loop
      vertex -27.474999999999994 84.125 1.6
      vertex -27.474999999999994 -26.441666666666677 21.666666666666668
      vertex -27.474999999999994 84.125 21.666666666666668
    endloop
  endfacet
  facet normal 0 0 1
    outer loop
      vertex -77.625 -84.12500000000003 1.6
      vertex -27.474999999999994 -28.84166666666669 1.6
      vertex -77.625 -28.84166666666669 1.6
    endloop
  endfacet
  facet normal 0 0 1
    outer loop
      vertex -77.625 -84.12500000000003 1.6
      vertex -27.474999999999994 -84.12500000000003 1.6
      vertex -27.474999999999994 -28.84166666666669 1.6
    endloop
  endfacet
  facet normal 0 1 0
    outer loop
      vertex -77.625 -84.12500000000003 1.6
      vertex -77.625 -84.12500000000003 21.666666666666668
      vertex -27.474999999999994 -84.12500000000003 1.6
    endloop
  endfacet
  facet normal 1 0 0
    outer loop
      vertex -77.625 -84.12500000000003 1.6
      vertex -77.625 -28.84166666666669 1.6
      vertex -77.625 -28.84166666666669 21.666666666666668
    endloop
  endfacet
  facet normal 0 -1 0
    outer loop
      vertex -77.625 -28.84166666666669 1.6
      vertex -27.474999999999994 -28.84166666666669 1.6
      vertex -27.474999999999994 -28.84166666666669 21.666666666666668
    endloop
  endfacet
  facet normal -1 0 0
    outer loop
      vertex -27.474999999999994 -84.12500000000003 1.6
      vertex -27.474999999999994 -84.12500000000003 21.666666666666668
      vertex -27.474999999999994 -28.84166666666669 1.6
    endloop
  endfacet
  facet normal 1 0 0
    outer loop
      vertex -77.625 -84.12500000000003 1.6
      vertex -77.625 -28.84166666666669 21.666666666666668
      vertex -77.625 -84.12500000000003 21.666666666666668
    endloop
  endfacet
  facet normal 0 1 0
    outer loop
      vertex -27.474999999999994 -84.12500000000003 1.6
      vertex -77.625 -84.12500000000003 21.666666666666668
      vertex -27.474999999999994 -84.12500000000003 21.666666666666668
    endloop
  endfacet
  facet normal 0 -1 0
    outer loop
      vertex -77.625 -28.84166666666669 1.6
      vertex -27.474999999999994 -28.84166666666669 21.666666666666668
      vertex -77.625 -28.84166666666669 21.666666666666668
    endloop
  endfacet
  facet normal -1 0 0
    outer loop
      vertex -27.474999999999994 -28.84166666666669 1.6
      vertex -27.474999999999994 -84.12500000000003 21.666666666666668
      vertex -27.474999999999994 -28.84166666666669 21.666666666666668
    endloop
  endfacet
  facet normal 0 1 0
    outer loop
      vertex -25.075000000000003 -26.441666666666677 1.6
      vertex -25.075000000000003 -26.441666666666677 21.666666666666668
      vertex 25.075000000000003 -26.441666666666677 21.666666666666668
    endloop
  endfacet
  facet normal 0 0 1
    outer loop
      vertex -25.075000000000003 -26.441666666666677 1.6
      vertex 25.075000000000003 84.125 1.6
      vertex -25.075000000000003 84.125 1.6
    endloop
  endfacet
  facet normal 1 0 0
    outer loop
      vertex -25.075000000000003 -26.441666666666677 1.6
      vertex -25.075000000000003 84.125 1.6
      vertex -25.075000000000003 84.125 21.666666666666668
    endloop
  endfacet
  facet normal 1 0 0
    outer loop
      vertex -25.075000000000003 -26.441666666666677 1.6
      vertex -25.075000000000003 84.125 21.666666666666668
      vertex -25.075000000000003 -26.441666666666677 21.666666666666668
    endloop
  endfacet
  facet normal 0 -1 0
    outer loop
      vertex -25.075000000000003 84.125 1.6
      vertex 25.075000000000003 84.125 21.666666666666668
      vertex -25.075000000000003 84.125 21.666666666666668
    endloop
  endfacet
  facet normal 0 1 0
    outer loop
      vertex -25.075000000000003 -26.441666666666677 1.6
      vertex 25.075000000000003 -26.441666666666677 21.666666666666668
      vertex 25.075000000000003 -26.441666666666677 1.6
    endloop
  endfacet
  facet normal 0 0 1
    outer loop
      vertex -25.075000000000003 -26.441666666666677 1.6
      vertex 25.075000000000003 -26.441666666666677 1.6
      vertex 25.075000000000003 84.125 1.6
    endloop
  endfacet
  facet normal -1 0 0
    outer loop
      vertex 25.075000000000003 -26.441666666666677 1.6
      vertex 25.075000000000003 -26.441666666666677 21.666666666666668
      vertex 25.075000000000003 84.125 1.6
    endloop
  endfacet
  facet normal 0 -1 0
    outer loop
      vertex -25.075000000000003 84.125 1.6
      vertex 25.075000000000003 84.125 1.6
      vertex 25.075000000000003 84.125 21.666666666666668
    endloop
  endfacet
  facet normal -1 0 0
    outer loop
      vertex 25.075000000000003 84.125 1.6
      vertex 25.075000000000003 -26.441666666666677 21.666666666666668
      vertex 25.075000000000003 84.125 21.666666666666668
    endloop
  endfacet
  facet normal 0 0 1
    outer loop
      vertex -25.075000000000003 -84.12500000000003 1.6
      vertex 25.075000000000003 -28.84166666666669 1.6
      vertex -25.075000000000003 -28.84166666666669 1.6
    endloop
  endfacet
  facet normal 1 0 0
    outer loop
      vertex -25.075000000000003 -84.12500000000003 1.6
      vertex -25.075000000000003 -28.84166666666669 1.6
      vertex -25.075000000000003 -28.84166666666669 21.666666666666668
    endloop
  endfacet
  facet normal 0 1 0
    outer loop
      vertex -25.075000000000003 -84.12500000000003 1.6
      vertex -25.075000000000003 -84.12500000000003 21.666666666666668
      vertex 25.075000000000003 -84.12500000000003 1.6
    endloop
  endfacet
  facet normal 1 0 0
    outer loop
      vertex -25.075000000000003 -84.12500000000003 1.6
      vertex -25.075000000000003 -28.84166666666669 21.666666666666668
      vertex -25.075000000000003 -84.12500000000003 21.666666666666668
    endloop
  endfacet
  facet normal 0 -1 0
    outer loop
      vertex -25.075000000000003 -28.84166666666669 1.6
      vertex 25.075000000000003 -28.84166666666669 21.666666666666668
      vertex -25.075000000000003 -28.84166666666669 21.666666666666668
    endloop
  endfacet
  facet normal 0 0 1
    outer loop
      vertex -25.075000000000003 -84.12500000000003 1.6
      vertex 25.075000000000003 -84.12500000000003 1.6
      vertex 25.075000000000003 -28.84166666666669 1.6
    endloop
  endfacet
  facet normal -1 0 0
    outer loop
      vertex 25.075000000000003 -84.12500000000003 1.6
      vertex 25.075000000000003 -84.12500000000003 21.666666666666668
      vertex 25.075000000000003 -28.84166666666669 1.6
    endloop
  endfacet
  facet normal 0 -1 0
    outer loop
      vertex -25.075000000000003 -28.84166666666669 1.6
      vertex 25.075000000000003 -28.84166666666669 1.6
      vertex 25.075000000000003 -28.84166666666669 21.666666666666668
    endloop
  endfacet
  facet normal 0 1 0
    outer loop
      vertex 25.075000000000003 -84.12500000000003 1.6
      vertex -25.075000000000003 -84.12500000000003 21.666666666666668
      vertex 25.075000000000003 -84.12500000000003 21.666666666666668
    endloop
  endfacet
  facet normal -1 0 0
    outer loop
      vertex 25.075000000000003 -28.84166666666669 1.6
      vertex 25.075000000000003 -84.12500000000003 21.666666666666668
      vertex 25.075000000000003 -28.84166666666669 21.666666666666668
    endloop
  endfacet
  facet normal 0 1 0
    outer loop
      vertex 27.474999999999994 -26.441666666666677 1.6
      vertex 77.625 -26.441666666666677 21.666666666666668
      vertex 77.625 -26.441666666666677 1.6
    endloop
  endfacet
  facet normal 0 1 0
    outer loop
      vertex 27.474999999999994 -26.441666666666677 1.6
      vertex 27.474999999999994 -26.441666666666677 21.666666666666668
      vertex 77.625 -26.441666666666677 21.666666666666668
    endloop
  endfacet
  facet normal 1 0 0
    outer loop
      vertex 27.474999999999994 -26.441666666666677 1.6
      vertex 27.474999999999994 84.125 1.6
      vertex 27.474999999999994 84.125 21.666666666666668
    endloop
  endfacet
  facet normal 0 0 1
    outer loop
      vertex 27.474999999999994 -26.441666666666677 1.6
      vertex 77.625 -26.441666666666677 1.6
      vertex 77.625 84.125 1.6
    endloop
  endfacet
  facet normal -1 0 0
    outer loop
      vertex 77.625 -26.441666666666677 1.6
      vertex 77.625 -26.441666666666677 21.666666666666668
      vertex 77.625 84.125 1.6
    endloop
  endfacet
  facet normal 0 0 1
    outer loop
      vertex 27.474999999999994 -26.441666666666677 1.6
      vertex 77.625 84.125 1.6
      vertex 27.474999999999994 84.125 1.6
    endloop
  endfacet
  facet normal 0 -1 0
    outer loop
      vertex 27.474999999999994 84.125 1.6
      vertex 77.625 84.125 1.6
      vertex 77.625 84.125 21.666666666666668
    endloop
  endfacet
  facet normal 1 0 0
    outer loop
      vertex 27.474999999999994 -26.441666666666677 1.6
      vertex 27.474999999999994 84.125 21.666666666666668
      vertex 27.474999999999994 -26.441666666666677 21.666666666666668
    endloop
  endfacet
  facet normal 0 -1 0
    outer loop
      vertex 27.474999999999994 84.125 1.6
      vertex 77.625 84.125 21.666666666666668
      vertex 27.474999999999994 84.125 21.666666666666668
    endloop
  endfacet
  facet normal -1 0 0
    outer loop
      vertex 77.625 84.125 1.6
      vertex 77.625 -26.441666666666677 21.666666666666668
      vertex 77.625 84.125 21.666666666666668
    endloop
  endfacet
  facet normal 1 0 0
    outer loop
      vertex 27.474999999999994 -84.12500000000003 1.6
      vertex 27.474999999999994 -28.84166666666669 1.6
      vertex 27.474999999999994 -28.84166666666669 21.666666666666668
    endloop
  endfacet
  facet normal 0 0 1
    outer loop
      vertex 27.474999999999994 -84.12500000000003 1.6
      vertex 77.625 -28.84166666666669 1.6
      vertex 27.474999999999994 -28.84166666666669 1.6
    endloop
  endfacet
  facet normal 0 0 1
    outer loop
      vertex 27.474999999999994 -84.12500000000003 1.6
      vertex 77.625 -84.12500000000003 1.6
      vertex 77.625 -28.84166666666669 1.6
    endloop
  endfacet
  facet normal 0 1 0
    outer loop
      vertex 27.474999999999994 -84.12500000000003 1.6
      vertex 27.474999999999994 -84.12500000000003 21.666666666666668
      vertex 77.625 -84.12500000000003 1.6
    endloop
  endfacet
  facet normal -1 0 0
    outer loop
      vertex 77.625 -84.12500000000003 1.6
      vertex 77.625 -84.12500000000003 21.666666666666668
      vertex 77.625 -28.84166666666669 1.6
    endloop
  endfacet
  facet normal 0 -1 0
    outer loop
      vertex 27.474999999999994 -28.84166666666669 1.6
      vertex 77.625 -28.84166666666669 1.6
      vertex 77.625 -28.84166666666669 21.666666666666668
    endloop
  endfacet
  facet normal 1 0 0
    outer loop
      vertex 27.474999999999994 -84.12500000000003 1.6
      vertex 27.474999999999994 -28.84166666666669 21.666666666666668
      vertex 27.474999999999994 -84.12500000000003 21.666666666666668
    endloop
  endfacet
  facet normal 0 1 0
    outer loop
      vertex 77.625 -84.12500000000003 1.6
      vertex 27.474999999999994 -84.12500000000003 21.666666666666668
      vertex 77.625 -84.12500000000003 21.666666666666668
    endloop
  endfacet
  facet normal -1 0 0
    outer loop
      vertex 77.625 -28.84166666666669 1.6
      vertex 77.625 -84.12500000000003 21.666666666666668
      vertex 77.625 -28.84166666666669 21.666666666666668
    endloop
  endfacet
  facet normal 0 -1 0
    outer loop
      vertex 27.474999999999994 -28.84166666666669 1.6
      vertex 77.625 -28.84166666666669 21.666666666666668
      vertex 27.474999999999994 -28.84166666666669 21.666666666666668
    endloop
  endfacet
endsolid OpenSCAD_Model
