<?xml version="1.0" encoding="UTF-8" standalone="no"?>
<!DOCTYPE svg PUBLIC "-//W3C//DTD SVG 1.1//EN"
 "http://www.w3.org/Graphics/SVG/1.1/DTD/svg11.dtd">
<!-- Generated by graphviz version 5.0.0 (20220707.1540)
 -->
<!-- Title: medium_holes Pages: 1 -->
<svg width="369pt" height="476pt"
 viewBox="0.00 0.00 369.28 476.00" xmlns="http://www.w3.org/2000/svg" xmlns:xlink="http://www.w3.org/1999/xlink">
<g id="graph0" class="graph" transform="scale(1 1) rotate(0) translate(4 472)">
<title>medium_holes</title>
<polygon fill="white" stroke="transparent" points="-4,4 -4,-472 365.28,-472 365.28,4 -4,4"/>
<!-- root_224 -->
<g id="node1" class="node">
<title>root_224</title>
<g id="a_node1"><a xlink:href="javascript:s=&quot;\(\)\nNone&quot;; console.log(s); alert(s);" xlink:title="root">
<ellipse fill="none" stroke="black" cx="27" cy="-234" rx="27" ry="18"/>
<text text-anchor="middle" x="27" y="-230.3" font-family="Times New Roman,serif" font-size="14.00">root</text>
</a>
</g>
</g>
<!-- medium_holes_225 -->
<g id="node2" class="node">
<title>medium_holes_225</title>
<g id="a_node2"><a xlink:href="javascript:s=&quot;\(&#x27;medium_holes&#x27;,\)\nSimpleGridBox&quot;; console.log(s); alert(s);" xlink:title="SimpleGridBox">
<ellipse fill="none" stroke="black" cx="153.69" cy="-234" rx="63.89" ry="18"/>
<text text-anchor="middle" x="153.69" y="-230.3" font-family="Times New Roman,serif" font-size="14.00">medium_holes</text>
</a>
</g>
</g>
<!-- root_224&#45;&gt;medium_holes_225 -->
<g id="edge1" class="edge">
<title>root_224&#45;&gt;medium_holes_225</title>
<path fill="none" stroke="black" d="M54.14,-234C61.85,-234 70.69,-234 79.84,-234"/>
<polygon fill="black" stroke="black" points="79.85,-237.5 89.85,-234 79.85,-230.5 79.85,-237.5"/>
</g>
<!-- box_226 -->
<g id="node3" class="node">
<title>box_226</title>
<g id="a_node3"><a xlink:href="javascript:s=&quot;\(&#x27;medium_holes&#x27;,\ &#x27;box&#x27;\)\nBox&quot;; console.log(s); alert(s);" xlink:title="Box">
<ellipse fill="none" stroke="black" cx="307.33" cy="-450" rx="27" ry="18"/>
<text text-anchor="middle" x="307.33" y="-446.3" font-family="Times New Roman,serif" font-size="14.00">box</text>
</a>
</g>
</g>
<!-- medium_holes_225&#45;&gt;box_226 -->
<g id="edge2" class="edge">
<title>medium_holes_225&#45;&gt;box_226</title>
<path fill="none" stroke="black" d="M160.01,-252.15C171.53,-288.71 201.97,-372.08 253.39,-423 259.21,-428.77 266.52,-433.56 273.83,-437.42"/>
<polygon fill="black" stroke="black" points="272.45,-440.64 282.98,-441.82 275.49,-434.33 272.45,-440.64"/>
</g>
<!-- hole_227 -->
<g id="node4" class="node">
<title>hole_227</title>
<g id="a_node4"><a xlink:href="javascript:s=&quot;\(&#x27;medium_holes&#x27;,\ \(&#x27;hole&#x27;,\ 0,\ 0\)\)\nBox&quot;; console.log(s); alert(s);" xlink:title="Box">
<ellipse fill="none" stroke="black" cx="307.33" cy="-396" rx="53.89" ry="18"/>
<text text-anchor="middle" x="307.33" y="-392.3" font-family="Times New Roman,serif" font-size="14.00">(&#39;hole&#39;, 0, 0)</text>
</a>
</g>
</g>
<!-- medium_holes_225&#45;&gt;hole_227 -->
<g id="edge3" class="edge">
<title>medium_holes_225&#45;&gt;hole_227</title>
<path fill="none" stroke="black" d="M164.07,-251.81C179.53,-279.77 212.72,-334.36 253.39,-369 256.66,-371.79 260.26,-374.38 264.01,-376.77"/>
<polygon fill="black" stroke="black" points="262.52,-379.95 272.92,-381.97 266.05,-373.9 262.52,-379.95"/>
</g>
<!-- hole_228 -->
<g id="node5" class="node">
<title>hole_228</title>
<g id="a_node5"><a xlink:href="javascript:s=&quot;\(&#x27;medium_holes&#x27;,\ \(&#x27;hole&#x27;,\ 0,\ 1\)\)\nBox&quot;; console.log(s); alert(s);" xlink:title="Box">
<ellipse fill="none" stroke="black" cx="307.33" cy="-342" rx="53.89" ry="18"/>
<text text-anchor="middle" x="307.33" y="-338.3" font-family="Times New Roman,serif" font-size="14.00">(&#39;hole&#39;, 0, 1)</text>
</a>
</g>
</g>
<!-- medium_holes_225&#45;&gt;hole_228 -->
<g id="edge4" class="edge">
<title>medium_holes_225&#45;&gt;hole_228</title>
<path fill="none" stroke="black" d="M173.4,-251.44C192.58,-268.8 223.71,-295.58 253.39,-315 257.44,-317.65 261.78,-320.24 266.18,-322.69"/>
<polygon fill="black" stroke="black" points="264.72,-325.88 275.18,-327.53 268.03,-319.71 264.72,-325.88"/>
</g>
<!-- hole_229 -->
<g id="node6" class="node">
<title>hole_229</title>
<g id="a_node6"><a xlink:href="javascript:s=&quot;\(&#x27;medium_holes&#x27;,\ \(&#x27;hole&#x27;,\ 1,\ 0\)\)\nBox&quot;; console.log(s); alert(s);" xlink:title="Box">
<ellipse fill="none" stroke="black" cx="307.33" cy="-288" rx="53.89" ry="18"/>
<text text-anchor="middle" x="307.33" y="-284.3" font-family="Times New Roman,serif" font-size="14.00">(&#39;hole&#39;, 1, 0)</text>
</a>
</g>
</g>
<!-- medium_holes_225&#45;&gt;hole_229 -->
<g id="edge5" class="edge">
<title>medium_holes_225&#45;&gt;hole_229</title>
<path fill="none" stroke="black" d="M194.14,-248.05C214.29,-255.22 238.93,-264 259.99,-271.5"/>
<polygon fill="black" stroke="black" points="259.09,-274.89 269.69,-274.95 261.44,-268.3 259.09,-274.89"/>
</g>
<!-- hole_230 -->
<g id="node7" class="node">
<title>hole_230</title>
<g id="a_node7"><a xlink:href="javascript:s=&quot;\(&#x27;medium_holes&#x27;,\ \(&#x27;hole&#x27;,\ 1,\ 1\)\)\nBox&quot;; console.log(s); alert(s);" xlink:title="Box">
<ellipse fill="none" stroke="black" cx="307.33" cy="-234" rx="53.89" ry="18"/>
<text text-anchor="middle" x="307.33" y="-230.3" font-family="Times New Roman,serif" font-size="14.00">(&#39;hole&#39;, 1, 1)</text>
</a>
</g>
</g>
<!-- medium_holes_225&#45;&gt;hole_230 -->
<g id="edge6" class="edge">
<title>medium_holes_225&#45;&gt;hole_230</title>
<path fill="none" stroke="black" d="M217.69,-234C226.02,-234 234.56,-234 242.9,-234"/>
<polygon fill="black" stroke="black" points="242.94,-237.5 252.94,-234 242.94,-230.5 242.94,-237.5"/>
</g>
<!-- hole_231 -->
<g id="node8" class="node">
<title>hole_231</title>
<g id="a_node8"><a xlink:href="javascript:s=&quot;\(&#x27;medium_holes&#x27;,\ \(&#x27;hole&#x27;,\ 2,\ 0\)\)\nBox&quot;; console.log(s); alert(s);" xlink:title="Box">
<ellipse fill="none" stroke="black" cx="307.33" cy="-180" rx="53.89" ry="18"/>
<text text-anchor="middle" x="307.33" y="-176.3" font-family="Times New Roman,serif" font-size="14.00">(&#39;hole&#39;, 2, 0)</text>
</a>
</g>
</g>
<!-- medium_holes_225&#45;&gt;hole_231 -->
<g id="edge7" class="edge">
<title>medium_holes_225&#45;&gt;hole_231</title>
<path fill="none" stroke="black" d="M194.14,-219.95C214.29,-212.78 238.93,-204 259.99,-196.5"/>
<polygon fill="black" stroke="black" points="261.44,-199.7 269.69,-193.05 259.09,-193.11 261.44,-199.7"/>
</g>
<!-- hole_232 -->
<g id="node9" class="node">
<title>hole_232</title>
<g id="a_node9"><a xlink:href="javascript:s=&quot;\(&#x27;medium_holes&#x27;,\ \(&#x27;hole&#x27;,\ 2,\ 1\)\)\nBox&quot;; console.log(s); alert(s);" xlink:title="Box">
<ellipse fill="none" stroke="black" cx="307.33" cy="-126" rx="53.89" ry="18"/>
<text text-anchor="middle" x="307.33" y="-122.3" font-family="Times New Roman,serif" font-size="14.00">(&#39;hole&#39;, 2, 1)</text>
</a>
</g>
</g>
<!-- medium_holes_225&#45;&gt;hole_232 -->
<g id="edge8" class="edge">
<title>medium_holes_225&#45;&gt;hole_232</title>
<path fill="none" stroke="black" d="M173.4,-216.56C192.58,-199.2 223.71,-172.42 253.39,-153 257.44,-150.35 261.78,-147.76 266.18,-145.31"/>
<polygon fill="black" stroke="black" points="268.03,-148.29 275.18,-140.47 264.72,-142.12 268.03,-148.29"/>
</g>
<!-- hole_233 -->
<g id="node10" class="node">
<title>hole_233</title>
<g id="a_node10"><a xlink:href="javascript:s=&quot;\(&#x27;medium_holes&#x27;,\ \(&#x27;hole&#x27;,\ 3,\ 0\)\)\nBox&quot;; console.log(s); alert(s);" xlink:title="Box">
<ellipse fill="none" stroke="black" cx="307.33" cy="-72" rx="53.89" ry="18"/>
<text text-anchor="middle" x="307.33" y="-68.3" font-family="Times New Roman,serif" font-size="14.00">(&#39;hole&#39;, 3, 0)</text>
</a>
</g>
</g>
<!-- medium_holes_225&#45;&gt;hole_233 -->
<g id="edge9" class="edge">
<title>medium_holes_225&#45;&gt;hole_233</title>
<path fill="none" stroke="black" d="M164.07,-216.19C179.53,-188.23 212.72,-133.64 253.39,-99 256.66,-96.21 260.26,-93.62 264.01,-91.23"/>
<polygon fill="black" stroke="black" points="266.05,-94.1 272.92,-86.03 262.52,-88.05 266.05,-94.1"/>
</g>
<!-- hole_234 -->
<g id="node11" class="node">
<title>hole_234</title>
<g id="a_node11"><a xlink:href="javascript:s=&quot;\(&#x27;medium_holes&#x27;,\ \(&#x27;hole&#x27;,\ 3,\ 1\)\)\nBox&quot;; console.log(s); alert(s);" xlink:title="Box">
<ellipse fill="none" stroke="black" cx="307.33" cy="-18" rx="53.89" ry="18"/>
<text text-anchor="middle" x="307.33" y="-14.3" font-family="Times New Roman,serif" font-size="14.00">(&#39;hole&#39;, 3, 1)</text>
</a>
</g>
</g>
<!-- medium_holes_225&#45;&gt;hole_234 -->
<g id="edge10" class="edge">
<title>medium_holes_225&#45;&gt;hole_234</title>
<path fill="none" stroke="black" d="M160.01,-215.85C171.53,-179.29 201.97,-95.92 253.39,-45 256.36,-42.06 259.71,-39.37 263.26,-36.94"/>
<polygon fill="black" stroke="black" points="265.09,-39.91 271.78,-31.69 261.43,-33.95 265.09,-39.91"/>
</g>
</g>
</svg>
