<?xml version="1.0" encoding="UTF-8" standalone="no"?>
<!DOCTYPE svg PUBLIC "-//W3C//DTD SVG 1.1//EN"
 "http://www.w3.org/Graphics/SVG/1.1/DTD/svg11.dtd">
<!-- Generated by graphviz version 5.0.0 (20220707.1540)
 -->
<!-- Title: small_holes Pages: 1 -->
<svg width="348pt" height="908pt"
 viewBox="0.00 0.00 348.48 908.00" xmlns="http://www.w3.org/2000/svg" xmlns:xlink="http://www.w3.org/1999/xlink">
<g id="graph0" class="graph" transform="scale(1 1) rotate(0) translate(4 904)">
<title>small_holes</title>
<polygon fill="white" stroke="transparent" points="-4,4 -4,-904 344.48,-904 344.48,4 -4,4"/>
<!-- root_205 -->
<g id="node1" class="node">
<title>root_205</title>
<g id="a_node1"><a xlink:href="javascript:s=&quot;\(\)\nNone&quot;; console.log(s); alert(s);" xlink:title="root">
<ellipse fill="none" stroke="black" cx="27" cy="-450" rx="27" ry="18"/>
<text text-anchor="middle" x="27" y="-446.3" font-family="Times New Roman,serif" font-size="14.00">root</text>
</a>
</g>
</g>
<!-- small_holes_206 -->
<g id="node2" class="node">
<title>small_holes_206</title>
<g id="a_node2"><a xlink:href="javascript:s=&quot;\(&#x27;small_holes&#x27;,\)\nSimpleGridBox&quot;; console.log(s); alert(s);" xlink:title="SimpleGridBox">
<ellipse fill="none" stroke="black" cx="143.3" cy="-450" rx="53.09" ry="18"/>
<text text-anchor="middle" x="143.3" y="-446.3" font-family="Times New Roman,serif" font-size="14.00">small_holes</text>
</a>
</g>
</g>
<!-- root_205&#45;&gt;small_holes_206 -->
<g id="edge1" class="edge">
<title>root_205&#45;&gt;small_holes_206</title>
<path fill="none" stroke="black" d="M54.22,-450C61.88,-450 70.61,-450 79.51,-450"/>
<polygon fill="black" stroke="black" points="79.6,-453.5 89.6,-450 79.6,-446.5 79.6,-453.5"/>
</g>
<!-- box_207 -->
<g id="node3" class="node">
<title>box_207</title>
<g id="a_node3"><a xlink:href="javascript:s=&quot;\(&#x27;small_holes&#x27;,\ &#x27;box&#x27;\)\nBox&quot;; console.log(s); alert(s);" xlink:title="Box">
<ellipse fill="none" stroke="black" cx="286.54" cy="-882" rx="27" ry="18"/>
<text text-anchor="middle" x="286.54" y="-878.3" font-family="Times New Roman,serif" font-size="14.00">box</text>
</a>
</g>
</g>
<!-- small_holes_206&#45;&gt;box_207 -->
<g id="edge2" class="edge">
<title>small_holes_206&#45;&gt;box_207</title>
<path fill="none" stroke="black" d="M146.17,-468.06C153.79,-538.27 184.25,-792.32 232.59,-855 237.69,-861.61 244.84,-866.73 252.25,-870.66"/>
<polygon fill="black" stroke="black" points="251.09,-873.98 261.64,-875 254.04,-867.62 251.09,-873.98"/>
</g>
<!-- hole_208 -->
<g id="node4" class="node">
<title>hole_208</title>
<g id="a_node4"><a xlink:href="javascript:s=&quot;\(&#x27;small_holes&#x27;,\ \(&#x27;hole&#x27;,\ 0,\ 0\)\)\nBox&quot;; console.log(s); alert(s);" xlink:title="Box">
<ellipse fill="none" stroke="black" cx="286.54" cy="-828" rx="53.89" ry="18"/>
<text text-anchor="middle" x="286.54" y="-824.3" font-family="Times New Roman,serif" font-size="14.00">(&#39;hole&#39;, 0, 0)</text>
</a>
</g>
</g>
<!-- small_holes_206&#45;&gt;hole_208 -->
<g id="edge3" class="edge">
<title>small_holes_206&#45;&gt;hole_208</title>
<path fill="none" stroke="black" d="M143.87,-468.31C143.5,-524.48 149.57,-696.82 232.59,-801 234.98,-804 237.8,-806.7 240.86,-809.12"/>
<polygon fill="black" stroke="black" points="239.18,-812.21 249.43,-814.9 243.09,-806.41 239.18,-812.21"/>
</g>
<!-- hole_209 -->
<g id="node5" class="node">
<title>hole_209</title>
<g id="a_node5"><a xlink:href="javascript:s=&quot;\(&#x27;small_holes&#x27;,\ \(&#x27;hole&#x27;,\ 0,\ 1\)\)\nBox&quot;; console.log(s); alert(s);" xlink:title="Box">
<ellipse fill="none" stroke="black" cx="286.54" cy="-774" rx="53.89" ry="18"/>
<text text-anchor="middle" x="286.54" y="-770.3" font-family="Times New Roman,serif" font-size="14.00">(&#39;hole&#39;, 0, 1)</text>
</a>
</g>
</g>
<!-- small_holes_206&#45;&gt;hole_209 -->
<g id="edge4" class="edge">
<title>small_holes_206&#45;&gt;hole_209</title>
<path fill="none" stroke="black" d="M144.89,-468.34C147.46,-518.68 161.02,-661 232.59,-747 235.12,-750.04 238.07,-752.77 241.27,-755.22"/>
<polygon fill="black" stroke="black" points="239.35,-758.14 249.62,-760.74 243.21,-752.31 239.35,-758.14"/>
</g>
<!-- hole_210 -->
<g id="node6" class="node">
<title>hole_210</title>
<g id="a_node6"><a xlink:href="javascript:s=&quot;\(&#x27;small_holes&#x27;,\ \(&#x27;hole&#x27;,\ 0,\ 2\)\)\nBox&quot;; console.log(s); alert(s);" xlink:title="Box">
<ellipse fill="none" stroke="black" cx="286.54" cy="-720" rx="53.89" ry="18"/>
<text text-anchor="middle" x="286.54" y="-716.3" font-family="Times New Roman,serif" font-size="14.00">(&#39;hole&#39;, 0, 2)</text>
</a>
</g>
</g>
<!-- small_holes_206&#45;&gt;hole_210 -->
<g id="edge5" class="edge">
<title>small_holes_206&#45;&gt;hole_210</title>
<path fill="none" stroke="black" d="M146.32,-468.16C152.08,-511.93 172.24,-624.73 232.59,-693 235.24,-696 238.31,-698.71 241.6,-701.16"/>
<polygon fill="black" stroke="black" points="239.85,-704.19 250.15,-706.68 243.65,-698.31 239.85,-704.19"/>
</g>
<!-- hole_211 -->
<g id="node7" class="node">
<title>hole_211</title>
<g id="a_node7"><a xlink:href="javascript:s=&quot;\(&#x27;small_holes&#x27;,\ \(&#x27;hole&#x27;,\ 0,\ 3\)\)\nBox&quot;; console.log(s); alert(s);" xlink:title="Box">
<ellipse fill="none" stroke="black" cx="286.54" cy="-666" rx="53.89" ry="18"/>
<text text-anchor="middle" x="286.54" y="-662.3" font-family="Times New Roman,serif" font-size="14.00">(&#39;hole&#39;, 0, 3)</text>
</a>
</g>
</g>
<!-- small_holes_206&#45;&gt;hole_211 -->
<g id="edge6" class="edge">
<title>small_holes_206&#45;&gt;hole_211</title>
<path fill="none" stroke="black" d="M148.52,-468.15C157.85,-504.71 183.4,-588.08 232.59,-639 235.41,-641.92 238.62,-644.58 242.03,-647"/>
<polygon fill="black" stroke="black" points="240.46,-650.15 250.8,-652.49 244.18,-644.21 240.46,-650.15"/>
</g>
<!-- hole_212 -->
<g id="node8" class="node">
<title>hole_212</title>
<g id="a_node8"><a xlink:href="javascript:s=&quot;\(&#x27;small_holes&#x27;,\ \(&#x27;hole&#x27;,\ 1,\ 0\)\)\nBox&quot;; console.log(s); alert(s);" xlink:title="Box">
<ellipse fill="none" stroke="black" cx="286.54" cy="-612" rx="53.89" ry="18"/>
<text text-anchor="middle" x="286.54" y="-608.3" font-family="Times New Roman,serif" font-size="14.00">(&#39;hole&#39;, 1, 0)</text>
</a>
</g>
</g>
<!-- small_holes_206&#45;&gt;hole_212 -->
<g id="edge7" class="edge">
<title>small_holes_206&#45;&gt;hole_212</title>
<path fill="none" stroke="black" d="M152.22,-467.86C165.41,-495.9 194.25,-550.58 232.59,-585 235.74,-587.83 239.25,-590.45 242.91,-592.85"/>
<polygon fill="black" stroke="black" points="241.26,-595.94 251.64,-598.05 244.84,-589.92 241.26,-595.94"/>
</g>
<!-- hole_213 -->
<g id="node9" class="node">
<title>hole_213</title>
<g id="a_node9"><a xlink:href="javascript:s=&quot;\(&#x27;small_holes&#x27;,\ \(&#x27;hole&#x27;,\ 1,\ 1\)\)\nBox&quot;; console.log(s); alert(s);" xlink:title="Box">
<ellipse fill="none" stroke="black" cx="286.54" cy="-558" rx="53.89" ry="18"/>
<text text-anchor="middle" x="286.54" y="-554.3" font-family="Times New Roman,serif" font-size="14.00">(&#39;hole&#39;, 1, 1)</text>
</a>
</g>
</g>
<!-- small_holes_206&#45;&gt;hole_213 -->
<g id="edge8" class="edge">
<title>small_holes_206&#45;&gt;hole_213</title>
<path fill="none" stroke="black" d="M160.38,-467.29C177.25,-484.78 205.08,-511.9 232.59,-531 236.52,-533.73 240.75,-536.35 245.06,-538.82"/>
<polygon fill="black" stroke="black" points="243.47,-541.94 253.93,-543.65 246.82,-535.79 243.47,-541.94"/>
</g>
<!-- hole_214 -->
<g id="node10" class="node">
<title>hole_214</title>
<g id="a_node10"><a xlink:href="javascript:s=&quot;\(&#x27;small_holes&#x27;,\ \(&#x27;hole&#x27;,\ 1,\ 2\)\)\nBox&quot;; console.log(s); alert(s);" xlink:title="Box">
<ellipse fill="none" stroke="black" cx="286.54" cy="-504" rx="53.89" ry="18"/>
<text text-anchor="middle" x="286.54" y="-500.3" font-family="Times New Roman,serif" font-size="14.00">(&#39;hole&#39;, 1, 2)</text>
</a>
</g>
</g>
<!-- small_holes_206&#45;&gt;hole_214 -->
<g id="edge9" class="edge">
<title>small_holes_206&#45;&gt;hole_214</title>
<path fill="none" stroke="black" d="M179.21,-463.35C197.74,-470.43 220.73,-479.22 240.58,-486.81"/>
<polygon fill="black" stroke="black" points="239.45,-490.13 250.04,-490.43 241.95,-483.59 239.45,-490.13"/>
</g>
<!-- hole_215 -->
<g id="node11" class="node">
<title>hole_215</title>
<g id="a_node11"><a xlink:href="javascript:s=&quot;\(&#x27;small_holes&#x27;,\ \(&#x27;hole&#x27;,\ 1,\ 3\)\)\nBox&quot;; console.log(s); alert(s);" xlink:title="Box">
<ellipse fill="none" stroke="black" cx="286.54" cy="-450" rx="53.89" ry="18"/>
<text text-anchor="middle" x="286.54" y="-446.3" font-family="Times New Roman,serif" font-size="14.00">(&#39;hole&#39;, 1, 3)</text>
</a>
</g>
</g>
<!-- small_holes_206&#45;&gt;hole_215 -->
<g id="edge10" class="edge">
<title>small_holes_206&#45;&gt;hole_215</title>
<path fill="none" stroke="black" d="M196.89,-450C205.14,-450 213.74,-450 222.21,-450"/>
<polygon fill="black" stroke="black" points="222.43,-453.5 232.43,-450 222.43,-446.5 222.43,-453.5"/>
</g>
<!-- hole_216 -->
<g id="node12" class="node">
<title>hole_216</title>
<g id="a_node12"><a xlink:href="javascript:s=&quot;\(&#x27;small_holes&#x27;,\ \(&#x27;hole&#x27;,\ 2,\ 0\)\)\nBox&quot;; console.log(s); alert(s);" xlink:title="Box">
<ellipse fill="none" stroke="black" cx="286.54" cy="-396" rx="53.89" ry="18"/>
<text text-anchor="middle" x="286.54" y="-392.3" font-family="Times New Roman,serif" font-size="14.00">(&#39;hole&#39;, 2, 0)</text>
</a>
</g>
</g>
<!-- small_holes_206&#45;&gt;hole_216 -->
<g id="edge11" class="edge">
<title>small_holes_206&#45;&gt;hole_216</title>
<path fill="none" stroke="black" d="M179.21,-436.65C197.74,-429.57 220.73,-420.78 240.58,-413.19"/>
<polygon fill="black" stroke="black" points="241.95,-416.41 250.04,-409.57 239.45,-409.87 241.95,-416.41"/>
</g>
<!-- hole_217 -->
<g id="node13" class="node">
<title>hole_217</title>
<g id="a_node13"><a xlink:href="javascript:s=&quot;\(&#x27;small_holes&#x27;,\ \(&#x27;hole&#x27;,\ 2,\ 1\)\)\nBox&quot;; console.log(s); alert(s);" xlink:title="Box">
<ellipse fill="none" stroke="black" cx="286.54" cy="-342" rx="53.89" ry="18"/>
<text text-anchor="middle" x="286.54" y="-338.3" font-family="Times New Roman,serif" font-size="14.00">(&#39;hole&#39;, 2, 1)</text>
</a>
</g>
</g>
<!-- small_holes_206&#45;&gt;hole_217 -->
<g id="edge12" class="edge">
<title>small_holes_206&#45;&gt;hole_217</title>
<path fill="none" stroke="black" d="M160.38,-432.71C177.25,-415.22 205.08,-388.1 232.59,-369 236.52,-366.27 240.75,-363.65 245.06,-361.18"/>
<polygon fill="black" stroke="black" points="246.82,-364.21 253.93,-356.35 243.47,-358.06 246.82,-364.21"/>
</g>
<!-- hole_218 -->
<g id="node14" class="node">
<title>hole_218</title>
<g id="a_node14"><a xlink:href="javascript:s=&quot;\(&#x27;small_holes&#x27;,\ \(&#x27;hole&#x27;,\ 2,\ 2\)\)\nBox&quot;; console.log(s); alert(s);" xlink:title="Box">
<ellipse fill="none" stroke="black" cx="286.54" cy="-288" rx="53.89" ry="18"/>
<text text-anchor="middle" x="286.54" y="-284.3" font-family="Times New Roman,serif" font-size="14.00">(&#39;hole&#39;, 2, 2)</text>
</a>
</g>
</g>
<!-- small_holes_206&#45;&gt;hole_218 -->
<g id="edge13" class="edge">
<title>small_holes_206&#45;&gt;hole_218</title>
<path fill="none" stroke="black" d="M152.22,-432.14C165.41,-404.1 194.25,-349.42 232.59,-315 235.74,-312.17 239.25,-309.55 242.91,-307.15"/>
<polygon fill="black" stroke="black" points="244.84,-310.08 251.64,-301.95 241.26,-304.06 244.84,-310.08"/>
</g>
<!-- hole_219 -->
<g id="node15" class="node">
<title>hole_219</title>
<g id="a_node15"><a xlink:href="javascript:s=&quot;\(&#x27;small_holes&#x27;,\ \(&#x27;hole&#x27;,\ 2,\ 3\)\)\nBox&quot;; console.log(s); alert(s);" xlink:title="Box">
<ellipse fill="none" stroke="black" cx="286.54" cy="-234" rx="53.89" ry="18"/>
<text text-anchor="middle" x="286.54" y="-230.3" font-family="Times New Roman,serif" font-size="14.00">(&#39;hole&#39;, 2, 3)</text>
</a>
</g>
</g>
<!-- small_holes_206&#45;&gt;hole_219 -->
<g id="edge14" class="edge">
<title>small_holes_206&#45;&gt;hole_219</title>
<path fill="none" stroke="black" d="M148.52,-431.85C157.85,-395.29 183.4,-311.92 232.59,-261 235.41,-258.08 238.62,-255.42 242.03,-253"/>
<polygon fill="black" stroke="black" points="244.18,-255.79 250.8,-247.51 240.46,-249.85 244.18,-255.79"/>
</g>
<!-- hole_220 -->
<g id="node16" class="node">
<title>hole_220</title>
<g id="a_node16"><a xlink:href="javascript:s=&quot;\(&#x27;small_holes&#x27;,\ \(&#x27;hole&#x27;,\ 3,\ 0\)\)\nBox&quot;; console.log(s); alert(s);" xlink:title="Box">
<ellipse fill="none" stroke="black" cx="286.54" cy="-180" rx="53.89" ry="18"/>
<text text-anchor="middle" x="286.54" y="-176.3" font-family="Times New Roman,serif" font-size="14.00">(&#39;hole&#39;, 3, 0)</text>
</a>
</g>
</g>
<!-- small_holes_206&#45;&gt;hole_220 -->
<g id="edge15" class="edge">
<title>small_holes_206&#45;&gt;hole_220</title>
<path fill="none" stroke="black" d="M146.32,-431.84C152.08,-388.07 172.24,-275.27 232.59,-207 235.24,-204 238.31,-201.29 241.6,-198.84"/>
<polygon fill="black" stroke="black" points="243.65,-201.69 250.15,-193.32 239.85,-195.81 243.65,-201.69"/>
</g>
<!-- hole_221 -->
<g id="node17" class="node">
<title>hole_221</title>
<g id="a_node17"><a xlink:href="javascript:s=&quot;\(&#x27;small_holes&#x27;,\ \(&#x27;hole&#x27;,\ 3,\ 1\)\)\nBox&quot;; console.log(s); alert(s);" xlink:title="Box">
<ellipse fill="none" stroke="black" cx="286.54" cy="-126" rx="53.89" ry="18"/>
<text text-anchor="middle" x="286.54" y="-122.3" font-family="Times New Roman,serif" font-size="14.00">(&#39;hole&#39;, 3, 1)</text>
</a>
</g>
</g>
<!-- small_holes_206&#45;&gt;hole_221 -->
<g id="edge16" class="edge">
<title>small_holes_206&#45;&gt;hole_221</title>
<path fill="none" stroke="black" d="M144.89,-431.66C147.46,-381.32 161.02,-239 232.59,-153 235.12,-149.96 238.07,-147.23 241.27,-144.78"/>
<polygon fill="black" stroke="black" points="243.21,-147.69 249.62,-139.26 239.35,-141.86 243.21,-147.69"/>
</g>
<!-- hole_222 -->
<g id="node18" class="node">
<title>hole_222</title>
<g id="a_node18"><a xlink:href="javascript:s=&quot;\(&#x27;small_holes&#x27;,\ \(&#x27;hole&#x27;,\ 3,\ 2\)\)\nBox&quot;; console.log(s); alert(s);" xlink:title="Box">
<ellipse fill="none" stroke="black" cx="286.54" cy="-72" rx="53.89" ry="18"/>
<text text-anchor="middle" x="286.54" y="-68.3" font-family="Times New Roman,serif" font-size="14.00">(&#39;hole&#39;, 3, 2)</text>
</a>
</g>
</g>
<!-- small_holes_206&#45;&gt;hole_222 -->
<g id="edge17" class="edge">
<title>small_holes_206&#45;&gt;hole_222</title>
<path fill="none" stroke="black" d="M143.87,-431.69C143.5,-375.52 149.57,-203.18 232.59,-99 234.98,-96 237.8,-93.3 240.86,-90.88"/>
<polygon fill="black" stroke="black" points="243.09,-93.59 249.43,-85.1 239.18,-87.79 243.09,-93.59"/>
</g>
<!-- hole_223 -->
<g id="node19" class="node">
<title>hole_223</title>
<g id="a_node19"><a xlink:href="javascript:s=&quot;\(&#x27;small_holes&#x27;,\ \(&#x27;hole&#x27;,\ 3,\ 3\)\)\nBox&quot;; console.log(s); alert(s);" xlink:title="Box">
<ellipse fill="none" stroke="black" cx="286.54" cy="-18" rx="53.89" ry="18"/>
<text text-anchor="middle" x="286.54" y="-14.3" font-family="Times New Roman,serif" font-size="14.00">(&#39;hole&#39;, 3, 3)</text>
</a>
</g>
</g>
<!-- small_holes_206&#45;&gt;hole_223 -->
<g id="edge18" class="edge">
<title>small_holes_206&#45;&gt;hole_223</title>
<path fill="none" stroke="black" d="M146.17,-431.94C153.79,-361.73 184.25,-107.68 232.59,-45 234.9,-42 237.63,-39.31 240.62,-36.9"/>
<polygon fill="black" stroke="black" points="242.75,-39.69 249.02,-31.15 238.79,-33.92 242.75,-39.69"/>
</g>
</g>
</svg>
