<?xml version="1.0" encoding="UTF-8" standalone="no"?>
<!DOCTYPE svg PUBLIC "-//W3C//DTD SVG 1.1//EN"
 "http://www.w3.org/Graphics/SVG/1.1/DTD/svg11.dtd">
<!-- Generated by graphviz version 5.0.0 (20220707.1540)
 -->
<!-- Title: default Pages: 1 -->
<svg width="312pt" height="152pt"
 viewBox="0.00 0.00 312.08 152.00" xmlns="http://www.w3.org/2000/svg" xmlns:xlink="http://www.w3.org/1999/xlink">
<g id="graph0" class="graph" transform="scale(1 1) rotate(0) translate(4 148)">
<title>default</title>
<polygon fill="white" stroke="transparent" points="-4,4 -4,-148 308.08,-148 308.08,4 -4,4"/>
<!-- root_200 -->
<g id="node1" class="node">
<title>root_200</title>
<g id="a_node1"><a xlink:href="javascript:s=&quot;\(\)\nNone&quot;; console.log(s); alert(s);" xlink:title="root">
<ellipse fill="none" stroke="black" cx="27" cy="-72" rx="27" ry="18"/>
<text text-anchor="middle" x="27" y="-68.3" font-family="Times New Roman,serif" font-size="14.00">root</text>
</a>
</g>
</g>
<!-- default_201 -->
<g id="node2" class="node">
<title>default_201</title>
<g id="a_node2"><a xlink:href="javascript:s=&quot;\(&#x27;default&#x27;,\)\nSimpleGridBox&quot;; console.log(s); alert(s);" xlink:title="SimpleGridBox">
<ellipse fill="none" stroke="black" cx="125.1" cy="-72" rx="35.19" ry="18"/>
<text text-anchor="middle" x="125.1" y="-68.3" font-family="Times New Roman,serif" font-size="14.00">default</text>
</a>
</g>
</g>
<!-- root_200&#45;&gt;default_201 -->
<g id="edge1" class="edge">
<title>root_200&#45;&gt;default_201</title>
<path fill="none" stroke="black" d="M54.01,-72C61.92,-72 70.84,-72 79.61,-72"/>
<polygon fill="black" stroke="black" points="79.76,-75.5 89.76,-72 79.76,-68.5 79.76,-75.5"/>
</g>
<!-- box_202 -->
<g id="node3" class="node">
<title>box_202</title>
<g id="a_node3"><a xlink:href="javascript:s=&quot;\(&#x27;default&#x27;,\ &#x27;box&#x27;\)\nBox&quot;; console.log(s); alert(s);" xlink:title="Box">
<ellipse fill="none" stroke="black" cx="250.14" cy="-126" rx="27" ry="18"/>
<text text-anchor="middle" x="250.14" y="-122.3" font-family="Times New Roman,serif" font-size="14.00">box</text>
</a>
</g>
</g>
<!-- default_201&#45;&gt;box_202 -->
<g id="edge2" class="edge">
<title>default_201&#45;&gt;box_202</title>
<path fill="none" stroke="black" d="M152.19,-83.45C171.43,-91.9 197.69,-103.42 218.03,-112.35"/>
<polygon fill="black" stroke="black" points="216.63,-115.56 227.19,-116.37 219.44,-109.15 216.63,-115.56"/>
</g>
<!-- hole_203 -->
<g id="node4" class="node">
<title>hole_203</title>
<g id="a_node4"><a xlink:href="javascript:s=&quot;\(&#x27;default&#x27;,\ \(&#x27;hole&#x27;,\ 0,\ 0\)\)\nBox&quot;; console.log(s); alert(s);" xlink:title="Box">
<ellipse fill="none" stroke="black" cx="250.14" cy="-72" rx="53.89" ry="18"/>
<text text-anchor="middle" x="250.14" y="-68.3" font-family="Times New Roman,serif" font-size="14.00">(&#39;hole&#39;, 0, 0)</text>
</a>
</g>
</g>
<!-- default_201&#45;&gt;hole_203 -->
<g id="edge3" class="edge">
<title>default_201&#45;&gt;hole_203</title>
<path fill="none" stroke="black" d="M160.37,-72C168.43,-72 177.27,-72 186.15,-72"/>
<polygon fill="black" stroke="black" points="186.16,-75.5 196.16,-72 186.16,-68.5 186.16,-75.5"/>
</g>
<!-- hole_204 -->
<g id="node5" class="node">
<title>hole_204</title>
<g id="a_node5"><a xlink:href="javascript:s=&quot;\(&#x27;default&#x27;,\ \(&#x27;hole&#x27;,\ 0,\ 1\)\)\nBox&quot;; console.log(s); alert(s);" xlink:title="Box">
<ellipse fill="none" stroke="black" cx="250.14" cy="-18" rx="53.89" ry="18"/>
<text text-anchor="middle" x="250.14" y="-14.3" font-family="Times New Roman,serif" font-size="14.00">(&#39;hole&#39;, 0, 1)</text>
</a>
</g>
</g>
<!-- default_201&#45;&gt;hole_204 -->
<g id="edge4" class="edge">
<title>default_201&#45;&gt;hole_204</title>
<path fill="none" stroke="black" d="M152.19,-60.55C168.17,-53.54 188.99,-44.4 207.23,-36.39"/>
<polygon fill="black" stroke="black" points="208.75,-39.55 216.5,-32.32 205.94,-33.14 208.75,-39.55"/>
</g>
</g>
</svg>
