<?xml version="1.0" encoding="UTF-8" standalone="no"?>
<!DOCTYPE svg PUBLIC "-//W3C//DTD SVG 1.1//EN"
 "http://www.w3.org/Graphics/SVG/1.1/DTD/svg11.dtd">
<!-- Generated by graphviz version 5.0.0 (20220707.1540)
 -->
<!-- Title: rings Pages: 1 -->
<svg width="299pt" height="584pt"
 viewBox="0.00 0.00 299.09 584.00" xmlns="http://www.w3.org/2000/svg" xmlns:xlink="http://www.w3.org/1999/xlink">
<g id="graph0" class="graph" transform="scale(1 1) rotate(0) translate(4 580)">
<title>rings</title>
<polygon fill="white" stroke="transparent" points="-4,4 -4,-580 295.09,-580 295.09,4 -4,4"/>
<!-- root_311 -->
<g id="node1" class="node">
<title>root_311</title>
<g id="a_node1"><a xlink:href="javascript:s=&quot;\(\)\nNone&quot;; console.log(s); alert(s);" xlink:title="root">
<ellipse fill="none" stroke="black" cx="27" cy="-288" rx="27" ry="18"/>
<text text-anchor="middle" x="27" y="-284.3" font-family="Times New Roman,serif" font-size="14.00">root</text>
</a>
</g>
</g>
<!-- rings_312 -->
<g id="node2" class="node">
<title>rings_312</title>
<g id="a_node2"><a xlink:href="javascript:s=&quot;\(&#x27;rings&#x27;,\)\nSimpleGridBox&quot;; console.log(s); alert(s);" xlink:title="SimpleGridBox">
<ellipse fill="none" stroke="black" cx="118.6" cy="-288" rx="28.7" ry="18"/>
<text text-anchor="middle" x="118.6" y="-284.3" font-family="Times New Roman,serif" font-size="14.00">rings</text>
</a>
</g>
</g>
<!-- root_311&#45;&gt;rings_312 -->
<g id="edge1" class="edge">
<title>root_311&#45;&gt;rings_312</title>
<path fill="none" stroke="black" d="M54.4,-288C62.32,-288 71.18,-288 79.7,-288"/>
<polygon fill="black" stroke="black" points="79.83,-291.5 89.83,-288 79.83,-284.5 79.83,-291.5"/>
</g>
<!-- box_313 -->
<g id="node3" class="node">
<title>box_313</title>
<g id="a_node3"><a xlink:href="javascript:s=&quot;\(&#x27;rings&#x27;,\ &#x27;box&#x27;\)\nBox&quot;; console.log(s); alert(s);" xlink:title="Box">
<ellipse fill="none" stroke="black" cx="237.14" cy="-558" rx="27" ry="18"/>
<text text-anchor="middle" x="237.14" y="-554.3" font-family="Times New Roman,serif" font-size="14.00">box</text>
</a>
</g>
</g>
<!-- rings_312&#45;&gt;box_313 -->
<g id="edge2" class="edge">
<title>rings_312&#45;&gt;box_313</title>
<path fill="none" stroke="black" d="M119.51,-306.07C120.23,-349.64 127.7,-462.03 183.19,-531 188.38,-537.44 195.51,-542.5 202.86,-546.4"/>
<polygon fill="black" stroke="black" points="201.61,-549.68 212.15,-550.75 204.57,-543.34 201.61,-549.68"/>
</g>
<!-- hole_314 -->
<g id="node4" class="node">
<title>hole_314</title>
<g id="a_node4"><a xlink:href="javascript:s=&quot;\(&#x27;rings&#x27;,\ \(&#x27;hole&#x27;,\ 0,\ 0\)\)\nBox&quot;; console.log(s); alert(s);" xlink:title="Box">
<ellipse fill="none" stroke="black" cx="237.14" cy="-504" rx="53.89" ry="18"/>
<text text-anchor="middle" x="237.14" y="-500.3" font-family="Times New Roman,serif" font-size="14.00">(&#39;hole&#39;, 0, 0)</text>
</a>
</g>
</g>
<!-- rings_312&#45;&gt;hole_314 -->
<g id="edge3" class="edge">
<title>rings_312&#45;&gt;hole_314</title>
<path fill="none" stroke="black" d="M121.17,-306.09C125.21,-342.56 138.98,-425.76 183.19,-477 185.78,-479.99 188.77,-482.69 191.99,-485.12"/>
<polygon fill="black" stroke="black" points="190.1,-488.06 200.38,-490.61 193.93,-482.21 190.1,-488.06"/>
</g>
<!-- hole_315 -->
<g id="node5" class="node">
<title>hole_315</title>
<g id="a_node5"><a xlink:href="javascript:s=&quot;\(&#x27;rings&#x27;,\ \(&#x27;hole&#x27;,\ 1,\ 0\)\)\nBox&quot;; console.log(s); alert(s);" xlink:title="Box">
<ellipse fill="none" stroke="black" cx="237.14" cy="-450" rx="53.89" ry="18"/>
<text text-anchor="middle" x="237.14" y="-446.3" font-family="Times New Roman,serif" font-size="14.00">(&#39;hole&#39;, 1, 0)</text>
</a>
</g>
</g>
<!-- rings_312&#45;&gt;hole_315 -->
<g id="edge4" class="edge">
<title>rings_312&#45;&gt;hole_315</title>
<path fill="none" stroke="black" d="M123.99,-305.91C131.68,-334 150.02,-388.77 183.19,-423 186.02,-425.92 189.23,-428.58 192.64,-430.99"/>
<polygon fill="black" stroke="black" points="191.08,-434.14 201.42,-436.47 194.79,-428.2 191.08,-434.14"/>
</g>
<!-- hole_316 -->
<g id="node6" class="node">
<title>hole_316</title>
<g id="a_node6"><a xlink:href="javascript:s=&quot;\(&#x27;rings&#x27;,\ \(&#x27;hole&#x27;,\ 2,\ 0\)\)\nBox&quot;; console.log(s); alert(s);" xlink:title="Box">
<ellipse fill="none" stroke="black" cx="237.14" cy="-396" rx="53.89" ry="18"/>
<text text-anchor="middle" x="237.14" y="-392.3" font-family="Times New Roman,serif" font-size="14.00">(&#39;hole&#39;, 2, 0)</text>
</a>
</g>
</g>
<!-- rings_312&#45;&gt;hole_316 -->
<g id="edge5" class="edge">
<title>rings_312&#45;&gt;hole_316</title>
<path fill="none" stroke="black" d="M129.56,-304.65C140.82,-322.37 160.55,-350.37 183.19,-369 186.65,-371.84 190.45,-374.5 194.39,-376.94"/>
<polygon fill="black" stroke="black" points="192.71,-380.02 203.13,-381.97 196.2,-373.95 192.71,-380.02"/>
</g>
<!-- hole_317 -->
<g id="node7" class="node">
<title>hole_317</title>
<g id="a_node7"><a xlink:href="javascript:s=&quot;\(&#x27;rings&#x27;,\ \(&#x27;hole&#x27;,\ 3,\ 0\)\)\nBox&quot;; console.log(s); alert(s);" xlink:title="Box">
<ellipse fill="none" stroke="black" cx="237.14" cy="-342" rx="53.89" ry="18"/>
<text text-anchor="middle" x="237.14" y="-338.3" font-family="Times New Roman,serif" font-size="14.00">(&#39;hole&#39;, 3, 0)</text>
</a>
</g>
</g>
<!-- rings_312&#45;&gt;hole_317 -->
<g id="edge6" class="edge">
<title>rings_312&#45;&gt;hole_317</title>
<path fill="none" stroke="black" d="M142.07,-298.41C157.28,-305.46 177.8,-314.97 195.79,-323.3"/>
<polygon fill="black" stroke="black" points="194.38,-326.51 204.93,-327.54 197.33,-320.16 194.38,-326.51"/>
</g>
<!-- hole_318 -->
<g id="node8" class="node">
<title>hole_318</title>
<g id="a_node8"><a xlink:href="javascript:s=&quot;\(&#x27;rings&#x27;,\ \(&#x27;hole&#x27;,\ 4,\ 0\)\)\nBox&quot;; console.log(s); alert(s);" xlink:title="Box">
<ellipse fill="none" stroke="black" cx="237.14" cy="-288" rx="53.89" ry="18"/>
<text text-anchor="middle" x="237.14" y="-284.3" font-family="Times New Roman,serif" font-size="14.00">(&#39;hole&#39;, 4, 0)</text>
</a>
</g>
</g>
<!-- rings_312&#45;&gt;hole_318 -->
<g id="edge7" class="edge">
<title>rings_312&#45;&gt;hole_318</title>
<path fill="none" stroke="black" d="M147.22,-288C155.04,-288 163.9,-288 172.91,-288"/>
<polygon fill="black" stroke="black" points="173.11,-291.5 183.11,-288 173.11,-284.5 173.11,-291.5"/>
</g>
<!-- hole_319 -->
<g id="node9" class="node">
<title>hole_319</title>
<g id="a_node9"><a xlink:href="javascript:s=&quot;\(&#x27;rings&#x27;,\ \(&#x27;hole&#x27;,\ 5,\ 0\)\)\nBox&quot;; console.log(s); alert(s);" xlink:title="Box">
<ellipse fill="none" stroke="black" cx="237.14" cy="-234" rx="53.89" ry="18"/>
<text text-anchor="middle" x="237.14" y="-230.3" font-family="Times New Roman,serif" font-size="14.00">(&#39;hole&#39;, 5, 0)</text>
</a>
</g>
</g>
<!-- rings_312&#45;&gt;hole_319 -->
<g id="edge8" class="edge">
<title>rings_312&#45;&gt;hole_319</title>
<path fill="none" stroke="black" d="M142.07,-277.59C157.28,-270.54 177.8,-261.03 195.79,-252.7"/>
<polygon fill="black" stroke="black" points="197.33,-255.84 204.93,-248.46 194.38,-249.49 197.33,-255.84"/>
</g>
<!-- hole_320 -->
<g id="node10" class="node">
<title>hole_320</title>
<g id="a_node10"><a xlink:href="javascript:s=&quot;\(&#x27;rings&#x27;,\ \(&#x27;hole&#x27;,\ 6,\ 0\)\)\nBox&quot;; console.log(s); alert(s);" xlink:title="Box">
<ellipse fill="none" stroke="black" cx="237.14" cy="-180" rx="53.89" ry="18"/>
<text text-anchor="middle" x="237.14" y="-176.3" font-family="Times New Roman,serif" font-size="14.00">(&#39;hole&#39;, 6, 0)</text>
</a>
</g>
</g>
<!-- rings_312&#45;&gt;hole_320 -->
<g id="edge9" class="edge">
<title>rings_312&#45;&gt;hole_320</title>
<path fill="none" stroke="black" d="M129.56,-271.35C140.82,-253.63 160.55,-225.63 183.19,-207 186.65,-204.16 190.45,-201.5 194.39,-199.06"/>
<polygon fill="black" stroke="black" points="196.2,-202.05 203.13,-194.03 192.71,-195.98 196.2,-202.05"/>
</g>
<!-- hole_321 -->
<g id="node11" class="node">
<title>hole_321</title>
<g id="a_node11"><a xlink:href="javascript:s=&quot;\(&#x27;rings&#x27;,\ \(&#x27;hole&#x27;,\ 7,\ 0\)\)\nBox&quot;; console.log(s); alert(s);" xlink:title="Box">
<ellipse fill="none" stroke="black" cx="237.14" cy="-126" rx="53.89" ry="18"/>
<text text-anchor="middle" x="237.14" y="-122.3" font-family="Times New Roman,serif" font-size="14.00">(&#39;hole&#39;, 7, 0)</text>
</a>
</g>
</g>
<!-- rings_312&#45;&gt;hole_321 -->
<g id="edge10" class="edge">
<title>rings_312&#45;&gt;hole_321</title>
<path fill="none" stroke="black" d="M123.99,-270.09C131.68,-242 150.02,-187.23 183.19,-153 186.02,-150.08 189.23,-147.42 192.64,-145.01"/>
<polygon fill="black" stroke="black" points="194.79,-147.8 201.42,-139.53 191.08,-141.86 194.79,-147.8"/>
</g>
<!-- hole_322 -->
<g id="node12" class="node">
<title>hole_322</title>
<g id="a_node12"><a xlink:href="javascript:s=&quot;\(&#x27;rings&#x27;,\ \(&#x27;hole&#x27;,\ 8,\ 0\)\)\nBox&quot;; console.log(s); alert(s);" xlink:title="Box">
<ellipse fill="none" stroke="black" cx="237.14" cy="-72" rx="53.89" ry="18"/>
<text text-anchor="middle" x="237.14" y="-68.3" font-family="Times New Roman,serif" font-size="14.00">(&#39;hole&#39;, 8, 0)</text>
</a>
</g>
</g>
<!-- rings_312&#45;&gt;hole_322 -->
<g id="edge11" class="edge">
<title>rings_312&#45;&gt;hole_322</title>
<path fill="none" stroke="black" d="M121.17,-269.91C125.21,-233.44 138.98,-150.24 183.19,-99 185.78,-96.01 188.77,-93.31 191.99,-90.88"/>
<polygon fill="black" stroke="black" points="193.93,-93.79 200.38,-85.39 190.1,-87.94 193.93,-93.79"/>
</g>
<!-- hole_323 -->
<g id="node13" class="node">
<title>hole_323</title>
<g id="a_node13"><a xlink:href="javascript:s=&quot;\(&#x27;rings&#x27;,\ \(&#x27;hole&#x27;,\ 9,\ 0\)\)\nBox&quot;; console.log(s); alert(s);" xlink:title="Box">
<ellipse fill="none" stroke="black" cx="237.14" cy="-18" rx="53.89" ry="18"/>
<text text-anchor="middle" x="237.14" y="-14.3" font-family="Times New Roman,serif" font-size="14.00">(&#39;hole&#39;, 9, 0)</text>
</a>
</g>
</g>
<!-- rings_312&#45;&gt;hole_323 -->
<g id="edge12" class="edge">
<title>rings_312&#45;&gt;hole_323</title>
<path fill="none" stroke="black" d="M119.51,-269.93C120.23,-226.36 127.7,-113.97 183.19,-45 185.6,-42.01 188.42,-39.32 191.49,-36.9"/>
<polygon fill="black" stroke="black" points="193.73,-39.62 200.08,-31.14 189.82,-33.81 193.73,-39.62"/>
</g>
</g>
</svg>
