solid OpenSCAD_Model
  facet normal -1 0 0
    outer loop
      vertex -74.9 -79.65 0
      vertex -74.9 -79.65 21.666666666666668
      vertex -74.9 79.65 21.666666666666668
    endloop
  endfacet
  facet normal 0 0 1
    outer loop
      vertex -74.9 -79.65 21.666666666666668
      vertex -72.5 -77.25 21.666666666666668
      vertex -72.5 77.25 21.666666666666668
    endloop
  endfacet
  facet normal 0 -1 0
    outer loop
      vertex -74.9 -79.65 0
      vertex 74.9 -79.65 21.666666666666668
      vertex -74.9 -79.65 21.666666666666668
    endloop
  endfacet
  facet normal 0 0 1
    outer loop
      vertex -74.9 -79.65 21.666666666666668
      vertex 72.5 -77.25 21.666666666666668
      vertex -72.5 -77.25 21.666666666666668
    endloop
  endfacet
  facet normal -1 0 0
    outer loop
      vertex -74.9 -79.65 0
      vertex -74.9 79.65 21.666666666666668
      vertex -74.9 79.65 0
    endloop
  endfacet
  facet normal 0 0 -1
    outer loop
      vertex -74.9 -79.65 0
      vertex -74.9 79.65 0
      vertex 74.9 79.65 0
    endloop
  endfacet
  facet normal 0 1 0
    outer loop
      vertex -74.9 79.65 0
      vertex -74.9 79.65 21.666666666666668
      vertex 74.9 79.65 0
    endloop
  endfacet
  facet normal 0 0 1
    outer loop
      vertex -74.9 -79.65 21.666666666666668
      vertex -72.5 77.25 21.666666666666668
      vertex -74.9 79.65 21.666666666666668
    endloop
  endfacet
  facet normal 0 0 1
    outer loop
      vertex -74.9 79.65 21.666666666666668
      vertex -72.5 77.25 21.666666666666668
      vertex 74.9 79.65 21.666666666666668
    endloop
  endfacet
  facet normal 0 -1 0
    outer loop
      vertex -74.9 -79.65 0
      vertex 74.9 -79.65 0
      vertex 74.9 -79.65 21.666666666666668
    endloop
  endfacet
  facet normal 0 0 -1
    outer loop
      vertex -74.9 -79.65 0
      vertex 74.9 79.65 0
      vertex 74.9 -79.65 0
    endloop
  endfacet
  facet normal 1 0 0
    outer loop
      vertex 74.9 -79.65 0
      vertex 74.9 79.65 0
      vertex 74.9 -79.65 21.666666666666668
    endloop
  endfacet
  facet normal 0 0 1
    outer loop
      vertex -74.9 -79.65 21.666666666666668
      vertex 74.9 -79.65 21.666666666666668
      vertex 72.5 -77.25 21.666666666666668
    endloop
  endfacet
  facet normal 0 0 1
    outer loop
      vertex 74.9 -79.65 21.666666666666668
      vertex 74.9 79.65 21.666666666666668
      vertex 72.5 -77.25 21.666666666666668
    endloop
  endfacet
  facet normal 0 1 0
    outer loop
      vertex -74.9 79.65 21.666666666666668
      vertex 74.9 79.65 21.666666666666668
      vertex 74.9 79.65 0
    endloop
  endfacet
  facet normal 0 0 1
    outer loop
      vertex 74.9 79.65 21.666666666666668
      vertex -72.5 77.25 21.666666666666668
      vertex 72.5 77.25 21.666666666666668
    endloop
  endfacet
  facet normal 1 0 0
    outer loop
      vertex 74.9 -79.65 21.666666666666668
      vertex 74.9 79.65 0
      vertex 74.9 79.65 21.666666666666668
    endloop
  endfacet
  facet normal 0 0 1
    outer loop
      vertex 74.9 79.65 21.666666666666668
      vertex 72.5 77.25 21.666666666666668
      vertex 72.5 -77.25 21.666666666666668
    endloop
  endfacet
  facet normal 0 1 0
    outer loop
      vertex -72.5 -77.25 1.6
      vertex -72.5 -77.25 21.666666666666668
      vertex 72.5 -77.25 1.6
    endloop
  endfacet
  facet normal 1 0 0
    outer loop
      vertex -72.5 -77.25 1.6
      vertex -72.5 77.25 21.666666666666668
      vertex -72.5 -77.25 21.666666666666668
    endloop
  endfacet
  facet normal 1 0 0
    outer loop
      vertex -72.5 -77.25 1.6
      vertex -72.5 77.25 1.6
      vertex -72.5 77.25 21.666666666666668
    endloop
  endfacet
  facet normal 0 0 1
    outer loop
      vertex -72.5 -77.25 1.6
      vertex 72.5 77.25 1.6
      vertex -72.5 77.25 1.6
    endloop
  endfacet
  facet normal 0 -1 0
    outer loop
      vertex -72.5 77.25 1.6
      vertex 72.5 77.25 21.666666666666668
      vertex -72.5 77.25 21.666666666666668
    endloop
  endfacet
  facet normal 0 0 1
    outer loop
      vertex -72.5 -77.25 1.6
      vertex 72.5 -77.25 1.6
      vertex 72.5 77.25 1.6
    endloop
  endfacet
  facet normal -1 0 0
    outer loop
      vertex 72.5 -77.25 1.6
      vertex 72.5 -77.25 21.666666666666668
      vertex 72.5 77.25 1.6
    endloop
  endfacet
  facet normal 0 1 0
    outer loop
      vertex 72.5 -77.25 1.6
      vertex -72.5 -77.25 21.666666666666668
      vertex 72.5 -77.25 21.666666666666668
    endloop
  endfacet
  facet normal 0 -1 0
    outer loop
      vertex -72.5 77.25 1.6
      vertex 72.5 77.25 1.6
      vertex 72.5 77.25 21.666666666666668
    endloop
  endfacet
  facet normal -1 0 0
    outer loop
      vertex 72.5 77.25 1.6
      vertex 72.5 -77.25 21.666666666666668
      vertex 72.5 77.25 21.666666666666668
    endloop
  endfacet
endsolid OpenSCAD_Model
