<?xml version="1.0" encoding="UTF-8" standalone="no"?>
<!DOCTYPE svg PUBLIC "-//W3C//DTD SVG 1.1//EN"
 "http://www.w3.org/Graphics/SVG/1.1/DTD/svg11.dtd">
<!-- Generated by graphviz version 5.0.0 (20220707.1540)
 -->
<!-- Title: default Pages: 1 -->
<svg width="488pt" height="206pt"
 viewBox="0.00 0.00 488.07 206.00" xmlns="http://www.w3.org/2000/svg" xmlns:xlink="http://www.w3.org/1999/xlink">
<g id="graph0" class="graph" transform="scale(1 1) rotate(0) translate(4 202)">
<title>default</title>
<polygon fill="white" stroke="transparent" points="-4,4 -4,-202 484.07,-202 484.07,4 -4,4"/>
<!-- root_1 -->
<g id="node1" class="node">
<title>root_1</title>
<g id="a_node1"><a xlink:href="javascript:s=&quot;\(\)\nNone&quot;; console.log(s); alert(s);" xlink:title="root">
<ellipse fill="none" stroke="black" cx="27" cy="-126" rx="27" ry="18"/>
<text text-anchor="middle" x="27" y="-122.3" font-family="Times New Roman,serif" font-size="14.00">root</text>
</a>
</g>
</g>
<!-- default_2 -->
<g id="node2" class="node">
<title>default_2</title>
<g id="a_node2"><a xlink:href="javascript:s=&quot;\(&#x27;default&#x27;,\)\nDivingKnifeHolder&quot;; console.log(s); alert(s);" xlink:title="DivingKnifeHolder">
<ellipse fill="none" stroke="black" cx="125.1" cy="-126" rx="35.19" ry="18"/>
<text text-anchor="middle" x="125.1" y="-122.3" font-family="Times New Roman,serif" font-size="14.00">default</text>
</a>
</g>
</g>
<!-- root_1&#45;&gt;default_2 -->
<g id="edge1" class="edge">
<title>root_1&#45;&gt;default_2</title>
<path fill="none" stroke="black" d="M54.01,-126C61.92,-126 70.84,-126 79.61,-126"/>
<polygon fill="black" stroke="black" points="79.76,-129.5 89.76,-126 79.76,-122.5 79.76,-129.5"/>
</g>
<!-- holder_3 -->
<g id="node3" class="node">
<title>holder_3</title>
<g id="a_node3"><a xlink:href="javascript:s=&quot;\(&#x27;default&#x27;,\ &#x27;holder&#x27;\)\nLinearExtrude&quot;; console.log(s); alert(s);" xlink:title="LinearExtrude">
<ellipse fill="none" stroke="black" cx="229.99" cy="-153" rx="33.6" ry="18"/>
<text text-anchor="middle" x="229.99" y="-149.3" font-family="Times New Roman,serif" font-size="14.00">holder</text>
</a>
</g>
</g>
<!-- default_2&#45;&gt;holder_3 -->
<g id="edge2" class="edge">
<title>default_2&#45;&gt;holder_3</title>
<path fill="none" stroke="black" d="M156.69,-134.03C167.03,-136.74 178.72,-139.81 189.65,-142.68"/>
<polygon fill="black" stroke="black" points="188.84,-146.08 199.4,-145.24 190.62,-139.31 188.84,-146.08"/>
</g>
<!-- ring_4 -->
<g id="node4" class="node">
<title>ring_4</title>
<g id="a_node4"><a xlink:href="javascript:s=&quot;\(&#x27;default&#x27;,\ &#x27;ring&#x27;\)\nPipe&quot;; console.log(s); alert(s);" xlink:title="Pipe">
<ellipse fill="none" stroke="black" cx="229.99" cy="-99" rx="27" ry="18"/>
<text text-anchor="middle" x="229.99" y="-95.3" font-family="Times New Roman,serif" font-size="14.00">ring</text>
</a>
</g>
</g>
<!-- default_2&#45;&gt;ring_4 -->
<g id="edge3" class="edge">
<title>default_2&#45;&gt;ring_4</title>
<path fill="none" stroke="black" d="M156.69,-117.97C168.63,-114.84 182.37,-111.23 194.65,-108.01"/>
<polygon fill="black" stroke="black" points="195.76,-111.34 204.55,-105.41 193.99,-104.57 195.76,-111.34"/>
</g>
<!-- outer_5 -->
<g id="node5" class="node">
<title>outer_5</title>
<g id="a_node5"><a xlink:href="javascript:s=&quot;\(&#x27;default&#x27;,\ &#x27;ring&#x27;,\ &#x27;outer&#x27;\)\nPie&quot;; console.log(s); alert(s);" xlink:title="Pie">
<ellipse fill="none" stroke="black" cx="329.04" cy="-126" rx="29.5" ry="18"/>
<text text-anchor="middle" x="329.04" y="-122.3" font-family="Times New Roman,serif" font-size="14.00">outer</text>
</a>
</g>
</g>
<!-- ring_4&#45;&gt;outer_5 -->
<g id="edge4" class="edge">
<title>ring_4&#45;&gt;outer_5</title>
<path fill="none" stroke="black" d="M255.48,-105.81C266.62,-108.91 280.03,-112.64 292.26,-116.05"/>
<polygon fill="black" stroke="black" points="291.62,-119.5 302.2,-118.81 293.5,-112.76 291.62,-119.5"/>
</g>
<!-- inner_8 -->
<g id="node8" class="node">
<title>inner_8</title>
<g id="a_node8"><a xlink:href="javascript:s=&quot;\(&#x27;default&#x27;,\ &#x27;ring&#x27;,\ &#x27;inner&#x27;\)\nPie&quot;; console.log(s); alert(s);" xlink:title="Pie">
<ellipse fill="none" stroke="black" cx="329.04" cy="-72" rx="28.7" ry="18"/>
<text text-anchor="middle" x="329.04" y="-68.3" font-family="Times New Roman,serif" font-size="14.00">inner</text>
</a>
</g>
</g>
<!-- ring_4&#45;&gt;inner_8 -->
<g id="edge7" class="edge">
<title>ring_4&#45;&gt;inner_8</title>
<path fill="none" stroke="black" d="M255.48,-92.19C266.71,-89.06 280.24,-85.3 292.55,-81.87"/>
<polygon fill="black" stroke="black" points="293.84,-85.15 302.54,-79.09 291.97,-78.4 293.84,-85.15"/>
</g>
<!-- pie_cage_6 -->
<g id="node6" class="node">
<title>pie_cage_6</title>
<g id="a_node6"><a xlink:href="javascript:s=&quot;\(&#x27;default&#x27;,\ &#x27;ring&#x27;,\ &#x27;outer&#x27;,\ &#x27;pie_cage&#x27;\)\nCylinder&quot;; console.log(s); alert(s);" xlink:title="Cylinder">
<ellipse fill="none" stroke="black" cx="437.18" cy="-180" rx="42.79" ry="18"/>
<text text-anchor="middle" x="437.18" y="-176.3" font-family="Times New Roman,serif" font-size="14.00">pie_cage</text>
</a>
</g>
</g>
<!-- outer_5&#45;&gt;pie_cage_6 -->
<g id="edge5" class="edge">
<title>outer_5&#45;&gt;pie_cage_6</title>
<path fill="none" stroke="black" d="M352.03,-137.19C365.84,-144.21 383.97,-153.44 399.88,-161.53"/>
<polygon fill="black" stroke="black" points="398.43,-164.72 408.93,-166.14 401.6,-158.48 398.43,-164.72"/>
</g>
<!-- pie_7 -->
<g id="node7" class="node">
<title>pie_7</title>
<g id="a_node7"><a xlink:href="javascript:s=&quot;\(&#x27;default&#x27;,\ &#x27;ring&#x27;,\ &#x27;outer&#x27;,\ &#x27;pie&#x27;\)\nRotateExtrude&quot;; console.log(s); alert(s);" xlink:title="RotateExtrude">
<ellipse fill="none" stroke="black" cx="437.18" cy="-126" rx="27" ry="18"/>
<text text-anchor="middle" x="437.18" y="-122.3" font-family="Times New Roman,serif" font-size="14.00">pie</text>
</a>
</g>
</g>
<!-- outer_5&#45;&gt;pie_7 -->
<g id="edge6" class="edge">
<title>outer_5&#45;&gt;pie_7</title>
<path fill="none" stroke="black" d="M358.48,-126C371.08,-126 386.06,-126 399.48,-126"/>
<polygon fill="black" stroke="black" points="399.84,-129.5 409.84,-126 399.84,-122.5 399.84,-129.5"/>
</g>
<!-- pie_cage_9 -->
<g id="node9" class="node">
<title>pie_cage_9</title>
<g id="a_node9"><a xlink:href="javascript:s=&quot;\(&#x27;default&#x27;,\ &#x27;ring&#x27;,\ &#x27;inner&#x27;,\ &#x27;pie_cage&#x27;\)\nCylinder&quot;; console.log(s); alert(s);" xlink:title="Cylinder">
<ellipse fill="none" stroke="black" cx="437.18" cy="-72" rx="42.79" ry="18"/>
<text text-anchor="middle" x="437.18" y="-68.3" font-family="Times New Roman,serif" font-size="14.00">pie_cage</text>
</a>
</g>
</g>
<!-- inner_8&#45;&gt;pie_cage_9 -->
<g id="edge8" class="edge">
<title>inner_8&#45;&gt;pie_cage_9</title>
<path fill="none" stroke="black" d="M357.65,-72C365.68,-72 374.73,-72 383.76,-72"/>
<polygon fill="black" stroke="black" points="383.89,-75.5 393.89,-72 383.89,-68.5 383.89,-75.5"/>
</g>
<!-- pie_10 -->
<g id="node10" class="node">
<title>pie_10</title>
<g id="a_node10"><a xlink:href="javascript:s=&quot;\(&#x27;default&#x27;,\ &#x27;ring&#x27;,\ &#x27;inner&#x27;,\ &#x27;pie&#x27;\)\nRotateExtrude&quot;; console.log(s); alert(s);" xlink:title="RotateExtrude">
<ellipse fill="none" stroke="black" cx="437.18" cy="-18" rx="27" ry="18"/>
<text text-anchor="middle" x="437.18" y="-14.3" font-family="Times New Roman,serif" font-size="14.00">pie</text>
</a>
</g>
</g>
<!-- inner_8&#45;&gt;pie_10 -->
<g id="edge9" class="edge">
<title>inner_8&#45;&gt;pie_10</title>
<path fill="none" stroke="black" d="M351.77,-60.94C367.43,-52.98 388.76,-42.12 406.06,-33.32"/>
<polygon fill="black" stroke="black" points="407.87,-36.33 415.2,-28.68 404.7,-30.09 407.87,-36.33"/>
</g>
</g>
</svg>
