<?xml version="1.0" encoding="UTF-8" standalone="no"?>
<!DOCTYPE svg PUBLIC "-//W3C//DTD SVG 1.1//EN"
 "http://www.w3.org/Graphics/SVG/1.1/DTD/svg11.dtd">
<!-- Generated by graphviz version 5.0.0 (20220707.1540)
 -->
<!-- Title: default Pages: 1 -->
<svg width="734pt" height="476pt"
 viewBox="0.00 0.00 733.75 476.00" xmlns="http://www.w3.org/2000/svg" xmlns:xlink="http://www.w3.org/1999/xlink">
<g id="graph0" class="graph" transform="scale(1 1) rotate(0) translate(4 472)">
<title>default</title>
<polygon fill="white" stroke="transparent" points="-4,4 -4,-472 729.75,-472 729.75,4 -4,4"/>
<!-- root_11 -->
<g id="node1" class="node">
<title>root_11</title>
<g id="a_node1"><a xlink:href="javascript:s=&quot;\(\)\nNone&quot;; console.log(s); alert(s);" xlink:title="root">
<ellipse fill="none" stroke="black" cx="27" cy="-234" rx="27" ry="18"/>
<text text-anchor="middle" x="27" y="-230.3" font-family="Times New Roman,serif" font-size="14.00">root</text>
</a>
</g>
</g>
<!-- default_12 -->
<g id="node2" class="node">
<title>default_12</title>
<g id="a_node2"><a xlink:href="javascript:s=&quot;\(&#x27;default&#x27;,\)\nScabbardMountHole&quot;; console.log(s); alert(s);" xlink:title="ScabbardMountHole">
<ellipse fill="none" stroke="black" cx="202.44" cy="-369" rx="35.19" ry="18"/>
<text text-anchor="middle" x="202.44" y="-365.3" font-family="Times New Roman,serif" font-size="14.00">default</text>
</a>
</g>
</g>
<!-- root_11&#45;&gt;default_12 -->
<g id="edge1" class="edge">
<title>root_11&#45;&gt;default_12</title>
<path fill="none" stroke="black" d="M45.26,-247.44C75.49,-270.96 138.19,-319.77 174.28,-347.86"/>
<polygon fill="black" stroke="black" points="172.37,-350.81 182.41,-354.19 176.67,-345.28 172.37,-350.81"/>
</g>
<!-- 18 -->
<g id="node8" class="node">
<title>18</title>
<g id="a_node8"><a xlink:href="javascript:s=&quot;\(&quot;&#x27;inner_hole&#x27;,\ &#x27;base_right&#x27;,\ 0,\ &quot;,\)\nAnnotatedCoordinates&quot;; console.log(s); alert(s);" xlink:title="AnnotatedCoordinates">
<ellipse fill="none" stroke="black" cx="202.44" cy="-153" rx="112.38" ry="18"/>
<text text-anchor="middle" x="202.44" y="-149.3" font-family="Times New Roman,serif" font-size="14.00">&#39;inner_hole&#39;, &#39;base_right&#39;, 0, </text>
</a>
</g>
</g>
<!-- root_11&#45;&gt;18 -->
<g id="edge7" class="edge">
<title>root_11&#45;&gt;18</title>
<path fill="none" stroke="black" d="M49.62,-223.91C76.01,-211.58 121.37,-190.39 155.65,-174.38"/>
<polygon fill="black" stroke="black" points="157.42,-177.42 165,-170.02 154.46,-171.08 157.42,-177.42"/>
</g>
<!-- inner_hole_13 -->
<g id="node3" class="node">
<title>inner_hole_13</title>
<g id="a_node3"><a xlink:href="javascript:s=&quot;\(&#x27;default&#x27;,\ &#x27;inner_hole&#x27;\)\nLinearExtrude&quot;; console.log(s); alert(s);" xlink:title="LinearExtrude">
<ellipse fill="none" stroke="black" cx="420.42" cy="-450" rx="48.19" ry="18"/>
<text text-anchor="middle" x="420.42" y="-446.3" font-family="Times New Roman,serif" font-size="14.00">inner_hole</text>
</a>
</g>
</g>
<!-- default_12&#45;&gt;inner_hole_13 -->
<g id="edge2" class="edge">
<title>default_12&#45;&gt;inner_hole_13</title>
<path fill="none" stroke="black" d="M231.23,-379.42C267.99,-393.21 333.14,-417.64 376.31,-433.83"/>
<polygon fill="black" stroke="black" points="375.11,-437.12 385.71,-437.35 377.57,-430.57 375.11,-437.12"/>
</g>
<!-- inner_top_14 -->
<g id="node4" class="node">
<title>inner_top_14</title>
<g id="a_node4"><a xlink:href="javascript:s=&quot;\(&#x27;default&#x27;,\ &#x27;inner_top&#x27;\)\nLinearExtrude&quot;; console.log(s); alert(s);" xlink:title="LinearExtrude">
<ellipse fill="none" stroke="black" cx="420.42" cy="-396" rx="45.49" ry="18"/>
<text text-anchor="middle" x="420.42" y="-392.3" font-family="Times New Roman,serif" font-size="14.00">inner_top</text>
</a>
</g>
</g>
<!-- default_12&#45;&gt;inner_top_14 -->
<g id="edge3" class="edge">
<title>default_12&#45;&gt;inner_top_14</title>
<path fill="none" stroke="black" d="M236.71,-373.16C271.4,-377.5 326.27,-384.35 366.83,-389.43"/>
<polygon fill="black" stroke="black" points="366.46,-392.91 376.81,-390.67 367.33,-385.96 366.46,-392.91"/>
</g>
<!-- cut_recess_hole_15 -->
<g id="node5" class="node">
<title>cut_recess_hole_15</title>
<g id="a_node5"><a xlink:href="javascript:s=&quot;\(&#x27;default&#x27;,\ &#x27;cut_recess_hole&#x27;\)\nMaker&quot;; console.log(s); alert(s);" xlink:title="Maker">
<ellipse fill="none" stroke="black" cx="420.42" cy="-342" rx="69.59" ry="18"/>
<text text-anchor="middle" x="420.42" y="-338.3" font-family="Times New Roman,serif" font-size="14.00">cut_recess_hole</text>
</a>
</g>
</g>
<!-- default_12&#45;&gt;cut_recess_hole_15 -->
<g id="edge4" class="edge">
<title>default_12&#45;&gt;cut_recess_hole_15</title>
<path fill="none" stroke="black" d="M236.71,-364.84C266.03,-361.18 309.74,-355.71 347.06,-351.05"/>
<polygon fill="black" stroke="black" points="347.92,-354.47 357.4,-349.75 347.05,-347.52 347.92,-354.47"/>
</g>
<!-- recess_hole_16 -->
<g id="node6" class="node">
<title>recess_hole_16</title>
<g id="a_node6"><a xlink:href="javascript:s=&quot;\(&#x27;default&#x27;,\ &#x27;cut_recess_hole&#x27;,\ &#x27;recess_hole&#x27;\)\nLinearExtrude&quot;; console.log(s); alert(s);" xlink:title="LinearExtrude">
<ellipse fill="none" stroke="black" cx="579.91" cy="-396" rx="53.89" ry="18"/>
<text text-anchor="middle" x="579.91" y="-392.3" font-family="Times New Roman,serif" font-size="14.00">recess_hole</text>
</a>
</g>
</g>
<!-- cut_recess_hole_15&#45;&gt;recess_hole_16 -->
<g id="edge5" class="edge">
<title>cut_recess_hole_15&#45;&gt;recess_hole_16</title>
<path fill="none" stroke="black" d="M463.21,-356.33C484.39,-363.59 510.18,-372.43 532.04,-379.93"/>
<polygon fill="black" stroke="black" points="531.17,-383.33 541.77,-383.26 533.44,-376.71 531.17,-383.33"/>
</g>
<!-- cut_box_17 -->
<g id="node7" class="node">
<title>cut_box_17</title>
<g id="a_node7"><a xlink:href="javascript:s=&quot;\(&#x27;default&#x27;,\ &#x27;cut_recess_hole&#x27;,\ &#x27;cut_box&#x27;\)\nBox&quot;; console.log(s); alert(s);" xlink:title="Box">
<ellipse fill="none" stroke="black" cx="579.91" cy="-342" rx="40.89" ry="18"/>
<text text-anchor="middle" x="579.91" y="-338.3" font-family="Times New Roman,serif" font-size="14.00">cut_box</text>
</a>
</g>
</g>
<!-- cut_recess_hole_15&#45;&gt;cut_box_17 -->
<g id="edge6" class="edge">
<title>cut_recess_hole_15&#45;&gt;cut_box_17</title>
<path fill="none" stroke="black" d="M490.04,-342C502.99,-342 516.32,-342 528.58,-342"/>
<polygon fill="black" stroke="black" points="528.6,-345.5 538.6,-342 528.6,-338.5 528.6,-345.5"/>
</g>
<!-- coords_19 -->
<g id="node9" class="node">
<title>coords_19</title>
<g id="a_node9"><a xlink:href="javascript:s=&quot;\(&quot;&#x27;inner_hole&#x27;,\ &#x27;base_right&#x27;,\ 0,\ &quot;,\ &#x27;coords&#x27;\)\nCoordinates&quot;; console.log(s); alert(s);" xlink:title="Coordinates">
<ellipse fill="none" stroke="black" cx="420.42" cy="-234" rx="36.29" ry="18"/>
<text text-anchor="middle" x="420.42" y="-230.3" font-family="Times New Roman,serif" font-size="14.00">coords</text>
</a>
</g>
</g>
<!-- 18&#45;&gt;coords_19 -->
<g id="edge8" class="edge">
<title>18&#45;&gt;coords_19</title>
<path fill="none" stroke="black" d="M247.67,-169.59C286.98,-184.33 343.86,-205.66 381.23,-219.67"/>
<polygon fill="black" stroke="black" points="380.16,-223.01 390.75,-223.25 382.62,-216.46 380.16,-223.01"/>
</g>
<!-- x_30 -->
<g id="node20" class="node">
<title>x_30</title>
<g id="a_node20"><a xlink:href="javascript:s=&quot;\(&quot;&#x27;inner_hole&#x27;,\ &#x27;base_right&#x27;,\ 0,\ &quot;,\ &#x27;x&#x27;\)\nText&quot;; console.log(s); alert(s);" xlink:title="Text">
<ellipse fill="none" stroke="black" cx="420.42" cy="-180" rx="27" ry="18"/>
<text text-anchor="middle" x="420.42" y="-176.3" font-family="Times New Roman,serif" font-size="14.00">x</text>
</a>
</g>
</g>
<!-- 18&#45;&gt;x_30 -->
<g id="edge19" class="edge">
<title>18&#45;&gt;x_30</title>
<path fill="none" stroke="black" d="M291.6,-164.02C323.85,-168.05 358.55,-172.39 383.64,-175.53"/>
<polygon fill="black" stroke="black" points="383.42,-179.03 393.77,-176.79 384.29,-172.08 383.42,-179.03"/>
</g>
<!-- y_31 -->
<g id="node21" class="node">
<title>y_31</title>
<g id="a_node21"><a xlink:href="javascript:s=&quot;\(&quot;&#x27;inner_hole&#x27;,\ &#x27;base_right&#x27;,\ 0,\ &quot;,\ &#x27;y&#x27;\)\nText&quot;; console.log(s); alert(s);" xlink:title="Text">
<ellipse fill="none" stroke="black" cx="420.42" cy="-126" rx="27" ry="18"/>
<text text-anchor="middle" x="420.42" y="-122.3" font-family="Times New Roman,serif" font-size="14.00">y</text>
</a>
</g>
</g>
<!-- 18&#45;&gt;y_31 -->
<g id="edge20" class="edge">
<title>18&#45;&gt;y_31</title>
<path fill="none" stroke="black" d="M291.6,-141.98C323.85,-137.95 358.55,-133.61 383.64,-130.47"/>
<polygon fill="black" stroke="black" points="384.29,-133.92 393.77,-129.21 383.42,-126.97 384.29,-133.92"/>
</g>
<!-- z_32 -->
<g id="node22" class="node">
<title>z_32</title>
<g id="a_node22"><a xlink:href="javascript:s=&quot;\(&quot;&#x27;inner_hole&#x27;,\ &#x27;base_right&#x27;,\ 0,\ &quot;,\ &#x27;z&#x27;\)\nText&quot;; console.log(s); alert(s);" xlink:title="Text">
<ellipse fill="none" stroke="black" cx="420.42" cy="-72" rx="27" ry="18"/>
<text text-anchor="middle" x="420.42" y="-68.3" font-family="Times New Roman,serif" font-size="14.00">z</text>
</a>
</g>
</g>
<!-- 18&#45;&gt;z_32 -->
<g id="edge21" class="edge">
<title>18&#45;&gt;z_32</title>
<path fill="none" stroke="black" d="M247.67,-136.41C288.96,-120.93 349.62,-98.18 386.71,-84.27"/>
<polygon fill="black" stroke="black" points="388.38,-87.38 396.51,-80.59 385.92,-80.83 388.38,-87.38"/>
</g>
<!-- label_33 -->
<g id="node23" class="node">
<title>label_33</title>
<g id="a_node23"><a xlink:href="javascript:s=&quot;\(&quot;&#x27;inner_hole&#x27;,\ &#x27;base_right&#x27;,\ 0,\ &quot;,\ &#x27;label&#x27;\)\nText&quot;; console.log(s); alert(s);" xlink:title="Text">
<ellipse fill="none" stroke="black" cx="420.42" cy="-18" rx="27.1" ry="18"/>
<text text-anchor="middle" x="420.42" y="-14.3" font-family="Times New Roman,serif" font-size="14.00">label</text>
</a>
</g>
</g>
<!-- 18&#45;&gt;label_33 -->
<g id="edge22" class="edge">
<title>18&#45;&gt;label_33</title>
<path fill="none" stroke="black" d="M224.25,-135.06C251.79,-111.97 302.53,-71.65 350.88,-45 361.88,-38.94 374.53,-33.55 385.95,-29.22"/>
<polygon fill="black" stroke="black" points="387.4,-32.41 395.59,-25.69 384.99,-25.84 387.4,-32.41"/>
</g>
<!-- origin_20 -->
<g id="node10" class="node">
<title>origin_20</title>
<g id="a_node10"><a xlink:href="javascript:s=&quot;\(&quot;&#x27;inner_hole&#x27;,\ &#x27;base_right&#x27;,\ 0,\ &quot;,\ &#x27;coords&#x27;,\ &#x27;origin&#x27;\)\nCoordinatesCage&quot;; console.log(s); alert(s);" xlink:title="CoordinatesCage">
<ellipse fill="none" stroke="black" cx="579.91" cy="-288" rx="31.4" ry="18"/>
<text text-anchor="middle" x="579.91" y="-284.3" font-family="Times New Roman,serif" font-size="14.00">origin</text>
</a>
</g>
</g>
<!-- coords_19&#45;&gt;origin_20 -->
<g id="edge9" class="edge">
<title>coords_19&#45;&gt;origin_20</title>
<path fill="none" stroke="black" d="M450.68,-244.03C476.74,-252.97 514.97,-266.08 542.91,-275.65"/>
<polygon fill="black" stroke="black" points="542.1,-279.08 552.69,-279.01 544.37,-272.46 542.1,-279.08"/>
</g>
<!-- x_arrow_21 -->
<g id="node11" class="node">
<title>x_arrow_21</title>
<g id="a_node11"><a xlink:href="javascript:s=&quot;\(&quot;&#x27;inner_hole&#x27;,\ &#x27;base_right&#x27;,\ 0,\ &quot;,\ &#x27;coords&#x27;,\ &#x27;x_arrow&#x27;\)\nArrow&quot;; console.log(s); alert(s);" xlink:title="Arrow">
<ellipse fill="none" stroke="black" cx="579.91" cy="-234" rx="40.89" ry="18"/>
<text text-anchor="middle" x="579.91" y="-230.3" font-family="Times New Roman,serif" font-size="14.00">x_arrow</text>
</a>
</g>
</g>
<!-- coords_19&#45;&gt;x_arrow_21 -->
<g id="edge10" class="edge">
<title>coords_19&#45;&gt;x_arrow_21</title>
<path fill="none" stroke="black" d="M457.16,-234C478.35,-234 505.53,-234 528.83,-234"/>
<polygon fill="black" stroke="black" points="528.89,-237.5 538.89,-234 528.89,-230.5 528.89,-237.5"/>
</g>
<!-- y_arrow_24 -->
<g id="node14" class="node">
<title>y_arrow_24</title>
<g id="a_node14"><a xlink:href="javascript:s=&quot;\(&quot;&#x27;inner_hole&#x27;,\ &#x27;base_right&#x27;,\ 0,\ &quot;,\ &#x27;coords&#x27;,\ &#x27;y_arrow&#x27;\)\nArrow&quot;; console.log(s); alert(s);" xlink:title="Arrow">
<ellipse fill="none" stroke="black" cx="579.91" cy="-180" rx="40.89" ry="18"/>
<text text-anchor="middle" x="579.91" y="-176.3" font-family="Times New Roman,serif" font-size="14.00">y_arrow</text>
</a>
</g>
</g>
<!-- coords_19&#45;&gt;y_arrow_24 -->
<g id="edge13" class="edge">
<title>coords_19&#45;&gt;y_arrow_24</title>
<path fill="none" stroke="black" d="M450.68,-223.97C475.08,-215.6 510.14,-203.58 537.44,-194.22"/>
<polygon fill="black" stroke="black" points="538.79,-197.46 547.11,-190.9 536.52,-190.84 538.79,-197.46"/>
</g>
<!-- z_arrow_27 -->
<g id="node17" class="node">
<title>z_arrow_27</title>
<g id="a_node17"><a xlink:href="javascript:s=&quot;\(&quot;&#x27;inner_hole&#x27;,\ &#x27;base_right&#x27;,\ 0,\ &quot;,\ &#x27;coords&#x27;,\ &#x27;z_arrow&#x27;\)\nArrow&quot;; console.log(s); alert(s);" xlink:title="Arrow">
<ellipse fill="none" stroke="black" cx="579.91" cy="-72" rx="40.09" ry="18"/>
<text text-anchor="middle" x="579.91" y="-68.3" font-family="Times New Roman,serif" font-size="14.00">z_arrow</text>
</a>
</g>
</g>
<!-- coords_19&#45;&gt;z_arrow_27 -->
<g id="edge16" class="edge">
<title>coords_19&#45;&gt;z_arrow_27</title>
<path fill="none" stroke="black" d="M453.25,-225.97C465.62,-221.76 479.34,-215.62 489.97,-207 491.22,-205.98 536.51,-136.86 561.96,-97.94"/>
<polygon fill="black" stroke="black" points="565.13,-99.49 567.67,-89.21 559.27,-95.66 565.13,-99.49"/>
</g>
<!-- stem_22 -->
<g id="node12" class="node">
<title>stem_22</title>
<g id="a_node12"><a xlink:href="javascript:s=&quot;\(&quot;&#x27;inner_hole&#x27;,\ &#x27;base_right&#x27;,\ 0,\ &quot;,\ &#x27;coords&#x27;,\ &#x27;x_arrow&#x27;,\ &#x27;stem&#x27;\)\nCone&quot;; console.log(s); alert(s);" xlink:title="Cone">
<ellipse fill="none" stroke="black" cx="697.81" cy="-288" rx="27.9" ry="18"/>
<text text-anchor="middle" x="697.81" y="-284.3" font-family="Times New Roman,serif" font-size="14.00">stem</text>
</a>
</g>
</g>
<!-- x_arrow_21&#45;&gt;stem_22 -->
<g id="edge11" class="edge">
<title>x_arrow_21&#45;&gt;stem_22</title>
<path fill="none" stroke="black" d="M608.67,-246.93C625.74,-254.89 647.64,-265.09 665.35,-273.34"/>
<polygon fill="black" stroke="black" points="664.15,-276.65 674.69,-277.7 667.11,-270.3 664.15,-276.65"/>
</g>
<!-- head_23 -->
<g id="node13" class="node">
<title>head_23</title>
<g id="a_node13"><a xlink:href="javascript:s=&quot;\(&quot;&#x27;inner_hole&#x27;,\ &#x27;base_right&#x27;,\ 0,\ &quot;,\ &#x27;coords&#x27;,\ &#x27;x_arrow&#x27;,\ &#x27;head&#x27;\)\nCone&quot;; console.log(s); alert(s);" xlink:title="Cone">
<ellipse fill="none" stroke="black" cx="697.81" cy="-234" rx="27.9" ry="18"/>
<text text-anchor="middle" x="697.81" y="-230.3" font-family="Times New Roman,serif" font-size="14.00">head</text>
</a>
</g>
</g>
<!-- x_arrow_21&#45;&gt;head_23 -->
<g id="edge12" class="edge">
<title>x_arrow_21&#45;&gt;head_23</title>
<path fill="none" stroke="black" d="M621.12,-234C633.56,-234 647.21,-234 659.44,-234"/>
<polygon fill="black" stroke="black" points="659.77,-237.5 669.77,-234 659.77,-230.5 659.77,-237.5"/>
</g>
<!-- stem_25 -->
<g id="node15" class="node">
<title>stem_25</title>
<g id="a_node15"><a xlink:href="javascript:s=&quot;\(&quot;&#x27;inner_hole&#x27;,\ &#x27;base_right&#x27;,\ 0,\ &quot;,\ &#x27;coords&#x27;,\ &#x27;y_arrow&#x27;,\ &#x27;stem&#x27;\)\nCone&quot;; console.log(s); alert(s);" xlink:title="Cone">
<ellipse fill="none" stroke="black" cx="697.81" cy="-180" rx="27.9" ry="18"/>
<text text-anchor="middle" x="697.81" y="-176.3" font-family="Times New Roman,serif" font-size="14.00">stem</text>
</a>
</g>
</g>
<!-- y_arrow_24&#45;&gt;stem_25 -->
<g id="edge14" class="edge">
<title>y_arrow_24&#45;&gt;stem_25</title>
<path fill="none" stroke="black" d="M621.12,-180C633.56,-180 647.21,-180 659.44,-180"/>
<polygon fill="black" stroke="black" points="659.77,-183.5 669.77,-180 659.77,-176.5 659.77,-183.5"/>
</g>
<!-- head_26 -->
<g id="node16" class="node">
<title>head_26</title>
<g id="a_node16"><a xlink:href="javascript:s=&quot;\(&quot;&#x27;inner_hole&#x27;,\ &#x27;base_right&#x27;,\ 0,\ &quot;,\ &#x27;coords&#x27;,\ &#x27;y_arrow&#x27;,\ &#x27;head&#x27;\)\nCone&quot;; console.log(s); alert(s);" xlink:title="Cone">
<ellipse fill="none" stroke="black" cx="697.81" cy="-126" rx="27.9" ry="18"/>
<text text-anchor="middle" x="697.81" y="-122.3" font-family="Times New Roman,serif" font-size="14.00">head</text>
</a>
</g>
</g>
<!-- y_arrow_24&#45;&gt;head_26 -->
<g id="edge15" class="edge">
<title>y_arrow_24&#45;&gt;head_26</title>
<path fill="none" stroke="black" d="M608.67,-167.07C625.74,-159.11 647.64,-148.91 665.35,-140.66"/>
<polygon fill="black" stroke="black" points="667.11,-143.7 674.69,-136.3 664.15,-137.35 667.11,-143.7"/>
</g>
<!-- stem_28 -->
<g id="node18" class="node">
<title>stem_28</title>
<g id="a_node18"><a xlink:href="javascript:s=&quot;\(&quot;&#x27;inner_hole&#x27;,\ &#x27;base_right&#x27;,\ 0,\ &quot;,\ &#x27;coords&#x27;,\ &#x27;z_arrow&#x27;,\ &#x27;stem&#x27;\)\nCone&quot;; console.log(s); alert(s);" xlink:title="Cone">
<ellipse fill="none" stroke="black" cx="697.81" cy="-72" rx="27.9" ry="18"/>
<text text-anchor="middle" x="697.81" y="-68.3" font-family="Times New Roman,serif" font-size="14.00">stem</text>
</a>
</g>
</g>
<!-- z_arrow_27&#45;&gt;stem_28 -->
<g id="edge17" class="edge">
<title>z_arrow_27&#45;&gt;stem_28</title>
<path fill="none" stroke="black" d="M620.47,-72C633.18,-72 647.2,-72 659.72,-72"/>
<polygon fill="black" stroke="black" points="659.82,-75.5 669.82,-72 659.82,-68.5 659.82,-75.5"/>
</g>
<!-- head_29 -->
<g id="node19" class="node">
<title>head_29</title>
<g id="a_node19"><a xlink:href="javascript:s=&quot;\(&quot;&#x27;inner_hole&#x27;,\ &#x27;base_right&#x27;,\ 0,\ &quot;,\ &#x27;coords&#x27;,\ &#x27;z_arrow&#x27;,\ &#x27;head&#x27;\)\nCone&quot;; console.log(s); alert(s);" xlink:title="Cone">
<ellipse fill="none" stroke="black" cx="697.81" cy="-18" rx="27.9" ry="18"/>
<text text-anchor="middle" x="697.81" y="-14.3" font-family="Times New Roman,serif" font-size="14.00">head</text>
</a>
</g>
</g>
<!-- z_arrow_27&#45;&gt;head_29 -->
<g id="edge18" class="edge">
<title>z_arrow_27&#45;&gt;head_29</title>
<path fill="none" stroke="black" d="M608.38,-59.2C625.43,-51.26 647.42,-41.01 665.2,-32.73"/>
<polygon fill="black" stroke="black" points="667,-35.75 674.58,-28.35 664.04,-29.41 667,-35.75"/>
</g>
</g>
</svg>
