<?xml version="1.0" encoding="UTF-8" standalone="no"?>
<!DOCTYPE svg PUBLIC "-//W3C//DTD SVG 1.1//EN"
 "http://www.w3.org/Graphics/SVG/1.1/DTD/svg11.dtd">
<!-- Generated by graphviz version 5.0.0 (20220707.1540)
 -->
<!-- Title: default Pages: 1 -->
<svg width="523pt" height="1232pt"
 viewBox="0.00 0.00 523.17 1232.00" xmlns="http://www.w3.org/2000/svg" xmlns:xlink="http://www.w3.org/1999/xlink">
<g id="graph0" class="graph" transform="scale(1 1) rotate(0) translate(4 1228)">
<title>default</title>
<polygon fill="white" stroke="transparent" points="-4,4 -4,-1228 519.17,-1228 519.17,4 -4,4"/>
<!-- root_34 -->
<g id="node1" class="node">
<title>root_34</title>
<g id="a_node1"><a xlink:href="javascript:s=&quot;\(\)\nNone&quot;; console.log(s); alert(s);" xlink:title="root">
<ellipse fill="none" stroke="black" cx="27" cy="-585" rx="27" ry="18"/>
<text text-anchor="middle" x="27" y="-581.3" font-family="Times New Roman,serif" font-size="14.00">root</text>
</a>
</g>
</g>
<!-- default_35 -->
<g id="node2" class="node">
<title>default_35</title>
<g id="a_node2"><a xlink:href="javascript:s=&quot;\(&#x27;default&#x27;,\)\nSpringBase&quot;; console.log(s); alert(s);" xlink:title="SpringBase">
<ellipse fill="none" stroke="black" cx="125.1" cy="-585" rx="35.19" ry="18"/>
<text text-anchor="middle" x="125.1" y="-581.3" font-family="Times New Roman,serif" font-size="14.00">default</text>
</a>
</g>
</g>
<!-- root_34&#45;&gt;default_35 -->
<g id="edge1" class="edge">
<title>root_34&#45;&gt;default_35</title>
<path fill="none" stroke="black" d="M54.01,-585C61.92,-585 70.84,-585 79.61,-585"/>
<polygon fill="black" stroke="black" points="79.76,-588.5 89.76,-585 79.76,-581.5 79.76,-588.5"/>
</g>
<!-- handle_36 -->
<g id="node3" class="node">
<title>handle_36</title>
<g id="a_node3"><a xlink:href="javascript:s=&quot;\(&#x27;default&#x27;,\ &#x27;handle&#x27;\)\nStadiumSequence&quot;; console.log(s); alert(s);" xlink:title="StadiumSequence">
<ellipse fill="none" stroke="black" cx="230.64" cy="-585" rx="34.39" ry="18"/>
<text text-anchor="middle" x="230.64" y="-581.3" font-family="Times New Roman,serif" font-size="14.00">handle</text>
</a>
</g>
</g>
<!-- default_35&#45;&gt;handle_36 -->
<g id="edge2" class="edge">
<title>default_35&#45;&gt;handle_36</title>
<path fill="none" stroke="black" d="M160.29,-585C168.5,-585 177.37,-585 185.95,-585"/>
<polygon fill="black" stroke="black" points="186.19,-588.5 196.19,-585 186.19,-581.5 186.19,-588.5"/>
</g>
<!-- 37 -->
<g id="node4" class="node">
<title>37</title>
<g id="a_node4"><a xlink:href="javascript:s=&quot;\(&#x27;default&#x27;,\ &#x27;handle&#x27;,\ &#x27;element\-0&#x27;\)\nStadiumPrism&quot;; console.log(s); alert(s);" xlink:title="StadiumPrism">
<ellipse fill="none" stroke="black" cx="351.13" cy="-1152" rx="45.49" ry="18"/>
<text text-anchor="middle" x="351.13" y="-1148.3" font-family="Times New Roman,serif" font-size="14.00">element&#45;0</text>
</a>
</g>
</g>
<!-- handle_36&#45;&gt;37 -->
<g id="edge3" class="edge">
<title>handle_36&#45;&gt;37</title>
<path fill="none" stroke="black" d="M232.65,-603.03C237.34,-683.15 258.63,-1006.86 301.09,-1098 306.3,-1109.19 314.65,-1119.68 323,-1128.39"/>
<polygon fill="black" stroke="black" points="320.68,-1131.02 330.25,-1135.56 325.59,-1126.04 320.68,-1131.02"/>
</g>
<!-- 40 -->
<g id="node7" class="node">
<title>40</title>
<g id="a_node7"><a xlink:href="javascript:s=&quot;\(&#x27;default&#x27;,\ &#x27;handle&#x27;,\ &#x27;element\-1&#x27;\)\nStadiumRevolution&quot;; console.log(s); alert(s);" xlink:title="StadiumRevolution">
<ellipse fill="none" stroke="black" cx="351.13" cy="-1071" rx="45.49" ry="18"/>
<text text-anchor="middle" x="351.13" y="-1067.3" font-family="Times New Roman,serif" font-size="14.00">element&#45;1</text>
</a>
</g>
</g>
<!-- handle_36&#45;&gt;40 -->
<g id="edge6" class="edge">
<title>handle_36&#45;&gt;40</title>
<path fill="none" stroke="black" d="M233.18,-603.26C239.5,-675.57 264.78,-941.53 301.09,-1017 306.44,-1028.12 314.82,-1038.6 323.16,-1047.32"/>
<polygon fill="black" stroke="black" points="320.82,-1049.93 330.39,-1054.49 325.75,-1044.96 320.82,-1049.93"/>
</g>
<!-- 42 -->
<g id="node9" class="node">
<title>42</title>
<g id="a_node9"><a xlink:href="javascript:s=&quot;\(&#x27;default&#x27;,\ &#x27;handle&#x27;,\ &#x27;element\-2&#x27;\)\nStadiumPrism&quot;; console.log(s); alert(s);" xlink:title="StadiumPrism">
<ellipse fill="none" stroke="black" cx="351.13" cy="-990" rx="45.49" ry="18"/>
<text text-anchor="middle" x="351.13" y="-986.3" font-family="Times New Roman,serif" font-size="14.00">element&#45;2</text>
</a>
</g>
</g>
<!-- handle_36&#45;&gt;42 -->
<g id="edge8" class="edge">
<title>handle_36&#45;&gt;42</title>
<path fill="none" stroke="black" d="M231.87,-603.25C233.23,-657.16 242.29,-819.2 301.09,-936 306.64,-947.02 315.07,-957.48 323.38,-966.2"/>
<polygon fill="black" stroke="black" points="321.04,-968.81 330.59,-973.39 325.98,-963.85 321.04,-968.81"/>
</g>
<!-- 45 -->
<g id="node12" class="node">
<title>45</title>
<g id="a_node12"><a xlink:href="javascript:s=&quot;\(&#x27;default&#x27;,\ &#x27;handle&#x27;,\ &#x27;element\-3&#x27;\)\nStadiumRevolution&quot;; console.log(s); alert(s);" xlink:title="StadiumRevolution">
<ellipse fill="none" stroke="black" cx="351.13" cy="-909" rx="45.49" ry="18"/>
<text text-anchor="middle" x="351.13" y="-905.3" font-family="Times New Roman,serif" font-size="14.00">element&#45;3</text>
</a>
</g>
</g>
<!-- handle_36&#45;&gt;45 -->
<g id="edge11" class="edge">
<title>handle_36&#45;&gt;45</title>
<path fill="none" stroke="black" d="M233.27,-603.14C237.95,-648.24 254.22,-768.09 301.09,-855 307.04,-866.04 315.72,-876.61 324.13,-885.43"/>
<polygon fill="black" stroke="black" points="321.84,-888.09 331.38,-892.7 326.8,-883.15 321.84,-888.09"/>
</g>
<!-- 47 -->
<g id="node14" class="node">
<title>47</title>
<g id="a_node14"><a xlink:href="javascript:s=&quot;\(&#x27;default&#x27;,\ &#x27;handle&#x27;,\ &#x27;element\-4&#x27;\)\nStadiumPrism&quot;; console.log(s); alert(s);" xlink:title="StadiumPrism">
<ellipse fill="none" stroke="black" cx="351.13" cy="-828" rx="45.49" ry="18"/>
<text text-anchor="middle" x="351.13" y="-824.3" font-family="Times New Roman,serif" font-size="14.00">element&#45;4</text>
</a>
</g>
</g>
<!-- handle_36&#45;&gt;47 -->
<g id="edge13" class="edge">
<title>handle_36&#45;&gt;47</title>
<path fill="none" stroke="black" d="M235.77,-602.95C244.3,-637.77 266.04,-716.15 301.09,-774 307.58,-784.72 316.39,-795.23 324.75,-804.08"/>
<polygon fill="black" stroke="black" points="322.42,-806.7 331.91,-811.4 327.42,-801.8 322.42,-806.7"/>
</g>
<!-- 50 -->
<g id="node17" class="node">
<title>50</title>
<g id="a_node17"><a xlink:href="javascript:s=&quot;\(&#x27;default&#x27;,\ &#x27;handle&#x27;,\ &#x27;element\-5&#x27;\)\nStadiumRevolution&quot;; console.log(s); alert(s);" xlink:title="StadiumRevolution">
<ellipse fill="none" stroke="black" cx="351.13" cy="-747" rx="45.49" ry="18"/>
<text text-anchor="middle" x="351.13" y="-743.3" font-family="Times New Roman,serif" font-size="14.00">element&#45;5</text>
</a>
</g>
</g>
<!-- handle_36&#45;&gt;50 -->
<g id="edge16" class="edge">
<title>handle_36&#45;&gt;50</title>
<path fill="none" stroke="black" d="M241.63,-602.43C254.42,-624.28 277.75,-662.58 301.09,-693 308.84,-703.1 318.07,-713.6 326.42,-722.62"/>
<polygon fill="black" stroke="black" points="324.07,-725.24 333.47,-730.13 329.17,-720.44 324.07,-725.24"/>
</g>
<!-- 52 -->
<g id="node19" class="node">
<title>52</title>
<g id="a_node19"><a xlink:href="javascript:s=&quot;\(&#x27;default&#x27;,\ &#x27;handle&#x27;,\ &#x27;element\-6&#x27;\)\nStadiumPrism&quot;; console.log(s); alert(s);" xlink:title="StadiumPrism">
<ellipse fill="none" stroke="black" cx="351.13" cy="-666" rx="45.49" ry="18"/>
<text text-anchor="middle" x="351.13" y="-662.3" font-family="Times New Roman,serif" font-size="14.00">element&#45;6</text>
</a>
</g>
</g>
<!-- handle_36&#45;&gt;52 -->
<g id="edge18" class="edge">
<title>handle_36&#45;&gt;52</title>
<path fill="none" stroke="black" d="M249.62,-600.26C263.31,-611.55 282.84,-626.99 301.09,-639 305.14,-641.67 309.47,-644.32 313.82,-646.86"/>
<polygon fill="black" stroke="black" points="312.27,-650 322.7,-651.89 315.73,-643.91 312.27,-650"/>
</g>
<!-- 55 -->
<g id="node22" class="node">
<title>55</title>
<g id="a_node22"><a xlink:href="javascript:s=&quot;\(&#x27;default&#x27;,\ &#x27;handle&#x27;,\ &#x27;element\-7&#x27;\)\nStadiumRevolution&quot;; console.log(s); alert(s);" xlink:title="StadiumRevolution">
<ellipse fill="none" stroke="black" cx="351.13" cy="-612" rx="45.49" ry="18"/>
<text text-anchor="middle" x="351.13" y="-608.3" font-family="Times New Roman,serif" font-size="14.00">element&#45;7</text>
</a>
</g>
</g>
<!-- handle_36&#45;&gt;55 -->
<g id="edge21" class="edge">
<title>handle_36&#45;&gt;55</title>
<path fill="none" stroke="black" d="M262.46,-592.02C274.38,-594.74 288.3,-597.91 301.49,-600.92"/>
<polygon fill="black" stroke="black" points="300.87,-604.36 311.4,-603.17 302.42,-597.54 300.87,-604.36"/>
</g>
<!-- 57 -->
<g id="node24" class="node">
<title>57</title>
<g id="a_node24"><a xlink:href="javascript:s=&quot;\(&#x27;default&#x27;,\ &#x27;handle&#x27;,\ &#x27;element\-8&#x27;\)\nStadiumPrism&quot;; console.log(s); alert(s);" xlink:title="StadiumPrism">
<ellipse fill="none" stroke="black" cx="351.13" cy="-558" rx="45.49" ry="18"/>
<text text-anchor="middle" x="351.13" y="-554.3" font-family="Times New Roman,serif" font-size="14.00">element&#45;8</text>
</a>
</g>
</g>
<!-- handle_36&#45;&gt;57 -->
<g id="edge23" class="edge">
<title>handle_36&#45;&gt;57</title>
<path fill="none" stroke="black" d="M262.46,-577.98C274.38,-575.26 288.3,-572.09 301.49,-569.08"/>
<polygon fill="black" stroke="black" points="302.42,-572.46 311.4,-566.83 300.87,-565.64 302.42,-572.46"/>
</g>
<!-- 60 -->
<g id="node27" class="node">
<title>60</title>
<g id="a_node27"><a xlink:href="javascript:s=&quot;\(&#x27;default&#x27;,\ &#x27;handle&#x27;,\ &#x27;element\-9&#x27;\)\nStadiumRevolution&quot;; console.log(s); alert(s);" xlink:title="StadiumRevolution">
<ellipse fill="none" stroke="black" cx="351.13" cy="-491" rx="45.49" ry="18"/>
<text text-anchor="middle" x="351.13" y="-487.3" font-family="Times New Roman,serif" font-size="14.00">element&#45;9</text>
</a>
</g>
</g>
<!-- handle_36&#45;&gt;60 -->
<g id="edge26" class="edge">
<title>handle_36&#45;&gt;60</title>
<path fill="none" stroke="black" d="M250.42,-570.11C269.63,-554.87 299.71,-531 321.82,-513.46"/>
<polygon fill="black" stroke="black" points="324.2,-516.04 329.86,-507.08 319.85,-510.56 324.2,-516.04"/>
</g>
<!-- 62 -->
<g id="node29" class="node">
<title>62</title>
<g id="a_node29"><a xlink:href="javascript:s=&quot;\(&#x27;default&#x27;,\ &#x27;handle&#x27;,\ &#x27;element\-10&#x27;\)\nStadiumRevolution&quot;; console.log(s); alert(s);" xlink:title="StadiumRevolution">
<ellipse fill="none" stroke="black" cx="351.13" cy="-423" rx="50.09" ry="18"/>
<text text-anchor="middle" x="351.13" y="-419.3" font-family="Times New Roman,serif" font-size="14.00">element&#45;10</text>
</a>
</g>
</g>
<!-- handle_36&#45;&gt;62 -->
<g id="edge28" class="edge">
<title>handle_36&#45;&gt;62</title>
<path fill="none" stroke="black" d="M239.34,-567.35C250.63,-542.63 273.39,-497.04 301.09,-464 306.5,-457.54 313.02,-451.31 319.51,-445.73"/>
<polygon fill="black" stroke="black" points="322.13,-448.11 327.63,-439.06 317.68,-442.7 322.13,-448.11"/>
</g>
<!-- 64 -->
<g id="node31" class="node">
<title>64</title>
<g id="a_node31"><a xlink:href="javascript:s=&quot;\(&#x27;default&#x27;,\ &#x27;handle&#x27;,\ &#x27;element\-11&#x27;\)\nStadiumPrism&quot;; console.log(s); alert(s);" xlink:title="StadiumPrism">
<ellipse fill="none" stroke="black" cx="351.13" cy="-342" rx="50.09" ry="18"/>
<text text-anchor="middle" x="351.13" y="-338.3" font-family="Times New Roman,serif" font-size="14.00">element&#45;11</text>
</a>
</g>
</g>
<!-- handle_36&#45;&gt;64 -->
<g id="edge30" class="edge">
<title>handle_36&#45;&gt;64</title>
<path fill="none" stroke="black" d="M235.77,-567.05C244.3,-532.23 266.04,-453.85 301.09,-396 307.48,-385.44 316.12,-375.1 324.36,-366.34"/>
<polygon fill="black" stroke="black" points="326.96,-368.68 331.43,-359.07 321.95,-363.79 326.96,-368.68"/>
</g>
<!-- 67 -->
<g id="node34" class="node">
<title>67</title>
<g id="a_node34"><a xlink:href="javascript:s=&quot;\(&#x27;default&#x27;,\ &#x27;handle&#x27;,\ &#x27;element\-12&#x27;\)\nStadiumRevolution&quot;; console.log(s); alert(s);" xlink:title="StadiumRevolution">
<ellipse fill="none" stroke="black" cx="351.13" cy="-261" rx="50.09" ry="18"/>
<text text-anchor="middle" x="351.13" y="-257.3" font-family="Times New Roman,serif" font-size="14.00">element&#45;12</text>
</a>
</g>
</g>
<!-- handle_36&#45;&gt;67 -->
<g id="edge33" class="edge">
<title>handle_36&#45;&gt;67</title>
<path fill="none" stroke="black" d="M233.27,-566.86C237.95,-521.76 254.22,-401.91 301.09,-315 306.95,-304.14 315.45,-293.72 323.74,-284.98"/>
<polygon fill="black" stroke="black" points="326.34,-287.33 330.9,-277.77 321.37,-282.4 326.34,-287.33"/>
</g>
<!-- 69 -->
<g id="node36" class="node">
<title>69</title>
<g id="a_node36"><a xlink:href="javascript:s=&quot;\(&#x27;default&#x27;,\ &#x27;handle&#x27;,\ &#x27;element\-13&#x27;\)\nStadiumPrism&quot;; console.log(s); alert(s);" xlink:title="StadiumPrism">
<ellipse fill="none" stroke="black" cx="351.13" cy="-180" rx="50.09" ry="18"/>
<text text-anchor="middle" x="351.13" y="-176.3" font-family="Times New Roman,serif" font-size="14.00">element&#45;13</text>
</a>
</g>
</g>
<!-- handle_36&#45;&gt;69 -->
<g id="edge35" class="edge">
<title>handle_36&#45;&gt;69</title>
<path fill="none" stroke="black" d="M231.87,-566.75C233.23,-512.84 242.29,-350.8 301.09,-234 306.64,-222.98 315.07,-212.52 323.38,-203.8"/>
<polygon fill="black" stroke="black" points="325.98,-206.15 330.59,-196.61 321.04,-201.19 325.98,-206.15"/>
</g>
<!-- 72 -->
<g id="node39" class="node">
<title>72</title>
<g id="a_node39"><a xlink:href="javascript:s=&quot;\(&#x27;default&#x27;,\ &#x27;handle&#x27;,\ &#x27;element\-14&#x27;\)\nStadiumRevolution&quot;; console.log(s); alert(s);" xlink:title="StadiumRevolution">
<ellipse fill="none" stroke="black" cx="351.13" cy="-99" rx="50.09" ry="18"/>
<text text-anchor="middle" x="351.13" y="-95.3" font-family="Times New Roman,serif" font-size="14.00">element&#45;14</text>
</a>
</g>
</g>
<!-- handle_36&#45;&gt;72 -->
<g id="edge38" class="edge">
<title>handle_36&#45;&gt;72</title>
<path fill="none" stroke="black" d="M233.18,-566.74C239.5,-494.43 264.78,-228.47 301.09,-153 306.44,-141.88 314.82,-131.4 323.16,-122.68"/>
<polygon fill="black" stroke="black" points="325.75,-125.04 330.39,-115.51 320.82,-120.07 325.75,-125.04"/>
</g>
<!-- 74 -->
<g id="node41" class="node">
<title>74</title>
<g id="a_node41"><a xlink:href="javascript:s=&quot;\(&#x27;default&#x27;,\ &#x27;handle&#x27;,\ &#x27;element\-15&#x27;\)\nStadiumRevolution&quot;; console.log(s); alert(s);" xlink:title="StadiumRevolution">
<ellipse fill="none" stroke="black" cx="351.13" cy="-32" rx="50.09" ry="18"/>
<text text-anchor="middle" x="351.13" y="-28.3" font-family="Times New Roman,serif" font-size="14.00">element&#45;15</text>
</a>
</g>
</g>
<!-- handle_36&#45;&gt;74 -->
<g id="edge40" class="edge">
<title>handle_36&#45;&gt;74</title>
<path fill="none" stroke="black" d="M232.33,-566.8C235.66,-485.99 251.95,-159.72 301.09,-72 304.85,-65.28 310.24,-59.24 316.07,-54.01"/>
<polygon fill="black" stroke="black" points="318.64,-56.42 324.19,-47.39 314.22,-51 318.64,-56.42"/>
</g>
<!-- cage_38 -->
<g id="node5" class="node">
<title>cage_38</title>
<g id="a_node5"><a xlink:href="javascript:s=&quot;\(&#x27;default&#x27;,\ &#x27;handle&#x27;,\ &#x27;element\-0&#x27;,\ &#x27;cage&#x27;\)\nBox&quot;; console.log(s); alert(s);" xlink:title="Box">
<ellipse fill="none" stroke="black" cx="476.18" cy="-1206" rx="27.1" ry="18"/>
<text text-anchor="middle" x="476.18" y="-1202.3" font-family="Times New Roman,serif" font-size="14.00">cage</text>
</a>
</g>
</g>
<!-- 37&#45;&gt;cage_38 -->
<g id="edge4" class="edge">
<title>37&#45;&gt;cage_38</title>
<path fill="none" stroke="black" d="M382.23,-1165.21C400.89,-1173.4 424.82,-1183.9 443.73,-1192.2"/>
<polygon fill="black" stroke="black" points="442.54,-1195.5 453.1,-1196.31 445.35,-1189.09 442.54,-1195.5"/>
</g>
<!-- stadium_39 -->
<g id="node6" class="node">
<title>stadium_39</title>
<g id="a_node6"><a xlink:href="javascript:s=&quot;\(&#x27;default&#x27;,\ &#x27;handle&#x27;,\ &#x27;element\-0&#x27;,\ &#x27;stadium&#x27;\)\nLinearExtrude&quot;; console.log(s); alert(s);" xlink:title="LinearExtrude">
<ellipse fill="none" stroke="black" cx="476.18" cy="-1152" rx="38.99" ry="18"/>
<text text-anchor="middle" x="476.18" y="-1148.3" font-family="Times New Roman,serif" font-size="14.00">stadium</text>
</a>
</g>
</g>
<!-- 37&#45;&gt;stadium_39 -->
<g id="edge5" class="edge">
<title>37&#45;&gt;stadium_39</title>
<path fill="none" stroke="black" d="M396.9,-1152C406.69,-1152 417.1,-1152 427.02,-1152"/>
<polygon fill="black" stroke="black" points="427.13,-1155.5 437.13,-1152 427.13,-1148.5 427.13,-1155.5"/>
</g>
<!-- stadium_41 -->
<g id="node8" class="node">
<title>stadium_41</title>
<g id="a_node8"><a xlink:href="javascript:s=&quot;\(&#x27;default&#x27;,\ &#x27;handle&#x27;,\ &#x27;element\-1&#x27;,\ &#x27;stadium&#x27;\)\nRotateExtrude&quot;; console.log(s); alert(s);" xlink:title="RotateExtrude">
<ellipse fill="none" stroke="black" cx="476.18" cy="-1098" rx="38.99" ry="18"/>
<text text-anchor="middle" x="476.18" y="-1094.3" font-family="Times New Roman,serif" font-size="14.00">stadium</text>
</a>
</g>
</g>
<!-- 40&#45;&gt;stadium_41 -->
<g id="edge7" class="edge">
<title>40&#45;&gt;stadium_41</title>
<path fill="none" stroke="black" d="M391.4,-1079.62C403.83,-1082.35 417.67,-1085.38 430.45,-1088.19"/>
<polygon fill="black" stroke="black" points="429.91,-1091.65 440.43,-1090.38 431.41,-1084.81 429.91,-1091.65"/>
</g>
<!-- cage_43 -->
<g id="node10" class="node">
<title>cage_43</title>
<g id="a_node10"><a xlink:href="javascript:s=&quot;\(&#x27;default&#x27;,\ &#x27;handle&#x27;,\ &#x27;element\-2&#x27;,\ &#x27;cage&#x27;\)\nBox&quot;; console.log(s); alert(s);" xlink:title="Box">
<ellipse fill="none" stroke="black" cx="476.18" cy="-1044" rx="27.1" ry="18"/>
<text text-anchor="middle" x="476.18" y="-1040.3" font-family="Times New Roman,serif" font-size="14.00">cage</text>
</a>
</g>
</g>
<!-- 42&#45;&gt;cage_43 -->
<g id="edge9" class="edge">
<title>42&#45;&gt;cage_43</title>
<path fill="none" stroke="black" d="M382.23,-1003.21C400.89,-1011.4 424.82,-1021.9 443.73,-1030.2"/>
<polygon fill="black" stroke="black" points="442.54,-1033.5 453.1,-1034.31 445.35,-1027.09 442.54,-1033.5"/>
</g>
<!-- stadium_44 -->
<g id="node11" class="node">
<title>stadium_44</title>
<g id="a_node11"><a xlink:href="javascript:s=&quot;\(&#x27;default&#x27;,\ &#x27;handle&#x27;,\ &#x27;element\-2&#x27;,\ &#x27;stadium&#x27;\)\nLinearExtrude&quot;; console.log(s); alert(s);" xlink:title="LinearExtrude">
<ellipse fill="none" stroke="black" cx="476.18" cy="-990" rx="38.99" ry="18"/>
<text text-anchor="middle" x="476.18" y="-986.3" font-family="Times New Roman,serif" font-size="14.00">stadium</text>
</a>
</g>
</g>
<!-- 42&#45;&gt;stadium_44 -->
<g id="edge10" class="edge">
<title>42&#45;&gt;stadium_44</title>
<path fill="none" stroke="black" d="M396.9,-990C406.69,-990 417.1,-990 427.02,-990"/>
<polygon fill="black" stroke="black" points="427.13,-993.5 437.13,-990 427.13,-986.5 427.13,-993.5"/>
</g>
<!-- stadium_46 -->
<g id="node13" class="node">
<title>stadium_46</title>
<g id="a_node13"><a xlink:href="javascript:s=&quot;\(&#x27;default&#x27;,\ &#x27;handle&#x27;,\ &#x27;element\-3&#x27;,\ &#x27;stadium&#x27;\)\nRotateExtrude&quot;; console.log(s); alert(s);" xlink:title="RotateExtrude">
<ellipse fill="none" stroke="black" cx="476.18" cy="-936" rx="38.99" ry="18"/>
<text text-anchor="middle" x="476.18" y="-932.3" font-family="Times New Roman,serif" font-size="14.00">stadium</text>
</a>
</g>
</g>
<!-- 45&#45;&gt;stadium_46 -->
<g id="edge12" class="edge">
<title>45&#45;&gt;stadium_46</title>
<path fill="none" stroke="black" d="M391.4,-917.62C403.83,-920.35 417.67,-923.38 430.45,-926.19"/>
<polygon fill="black" stroke="black" points="429.91,-929.65 440.43,-928.38 431.41,-922.81 429.91,-929.65"/>
</g>
<!-- cage_48 -->
<g id="node15" class="node">
<title>cage_48</title>
<g id="a_node15"><a xlink:href="javascript:s=&quot;\(&#x27;default&#x27;,\ &#x27;handle&#x27;,\ &#x27;element\-4&#x27;,\ &#x27;cage&#x27;\)\nBox&quot;; console.log(s); alert(s);" xlink:title="Box">
<ellipse fill="none" stroke="black" cx="476.18" cy="-882" rx="27.1" ry="18"/>
<text text-anchor="middle" x="476.18" y="-878.3" font-family="Times New Roman,serif" font-size="14.00">cage</text>
</a>
</g>
</g>
<!-- 47&#45;&gt;cage_48 -->
<g id="edge14" class="edge">
<title>47&#45;&gt;cage_48</title>
<path fill="none" stroke="black" d="M382.23,-841.21C400.89,-849.4 424.82,-859.9 443.73,-868.2"/>
<polygon fill="black" stroke="black" points="442.54,-871.5 453.1,-872.31 445.35,-865.09 442.54,-871.5"/>
</g>
<!-- stadium_49 -->
<g id="node16" class="node">
<title>stadium_49</title>
<g id="a_node16"><a xlink:href="javascript:s=&quot;\(&#x27;default&#x27;,\ &#x27;handle&#x27;,\ &#x27;element\-4&#x27;,\ &#x27;stadium&#x27;\)\nLinearExtrude&quot;; console.log(s); alert(s);" xlink:title="LinearExtrude">
<ellipse fill="none" stroke="black" cx="476.18" cy="-828" rx="38.99" ry="18"/>
<text text-anchor="middle" x="476.18" y="-824.3" font-family="Times New Roman,serif" font-size="14.00">stadium</text>
</a>
</g>
</g>
<!-- 47&#45;&gt;stadium_49 -->
<g id="edge15" class="edge">
<title>47&#45;&gt;stadium_49</title>
<path fill="none" stroke="black" d="M396.9,-828C406.69,-828 417.1,-828 427.02,-828"/>
<polygon fill="black" stroke="black" points="427.13,-831.5 437.13,-828 427.13,-824.5 427.13,-831.5"/>
</g>
<!-- stadium_51 -->
<g id="node18" class="node">
<title>stadium_51</title>
<g id="a_node18"><a xlink:href="javascript:s=&quot;\(&#x27;default&#x27;,\ &#x27;handle&#x27;,\ &#x27;element\-5&#x27;,\ &#x27;stadium&#x27;\)\nRotateExtrude&quot;; console.log(s); alert(s);" xlink:title="RotateExtrude">
<ellipse fill="none" stroke="black" cx="476.18" cy="-774" rx="38.99" ry="18"/>
<text text-anchor="middle" x="476.18" y="-770.3" font-family="Times New Roman,serif" font-size="14.00">stadium</text>
</a>
</g>
</g>
<!-- 50&#45;&gt;stadium_51 -->
<g id="edge17" class="edge">
<title>50&#45;&gt;stadium_51</title>
<path fill="none" stroke="black" d="M391.4,-755.62C403.83,-758.35 417.67,-761.38 430.45,-764.19"/>
<polygon fill="black" stroke="black" points="429.91,-767.65 440.43,-766.38 431.41,-760.81 429.91,-767.65"/>
</g>
<!-- cage_53 -->
<g id="node20" class="node">
<title>cage_53</title>
<g id="a_node20"><a xlink:href="javascript:s=&quot;\(&#x27;default&#x27;,\ &#x27;handle&#x27;,\ &#x27;element\-6&#x27;,\ &#x27;cage&#x27;\)\nBox&quot;; console.log(s); alert(s);" xlink:title="Box">
<ellipse fill="none" stroke="black" cx="476.18" cy="-720" rx="27.1" ry="18"/>
<text text-anchor="middle" x="476.18" y="-716.3" font-family="Times New Roman,serif" font-size="14.00">cage</text>
</a>
</g>
</g>
<!-- 52&#45;&gt;cage_53 -->
<g id="edge19" class="edge">
<title>52&#45;&gt;cage_53</title>
<path fill="none" stroke="black" d="M382.23,-679.21C400.89,-687.4 424.82,-697.9 443.73,-706.2"/>
<polygon fill="black" stroke="black" points="442.54,-709.5 453.1,-710.31 445.35,-703.09 442.54,-709.5"/>
</g>
<!-- stadium_54 -->
<g id="node21" class="node">
<title>stadium_54</title>
<g id="a_node21"><a xlink:href="javascript:s=&quot;\(&#x27;default&#x27;,\ &#x27;handle&#x27;,\ &#x27;element\-6&#x27;,\ &#x27;stadium&#x27;\)\nLinearExtrude&quot;; console.log(s); alert(s);" xlink:title="LinearExtrude">
<ellipse fill="none" stroke="black" cx="476.18" cy="-666" rx="38.99" ry="18"/>
<text text-anchor="middle" x="476.18" y="-662.3" font-family="Times New Roman,serif" font-size="14.00">stadium</text>
</a>
</g>
</g>
<!-- 52&#45;&gt;stadium_54 -->
<g id="edge20" class="edge">
<title>52&#45;&gt;stadium_54</title>
<path fill="none" stroke="black" d="M396.9,-666C406.69,-666 417.1,-666 427.02,-666"/>
<polygon fill="black" stroke="black" points="427.13,-669.5 437.13,-666 427.13,-662.5 427.13,-669.5"/>
</g>
<!-- stadium_56 -->
<g id="node23" class="node">
<title>stadium_56</title>
<g id="a_node23"><a xlink:href="javascript:s=&quot;\(&#x27;default&#x27;,\ &#x27;handle&#x27;,\ &#x27;element\-7&#x27;,\ &#x27;stadium&#x27;\)\nRotateExtrude&quot;; console.log(s); alert(s);" xlink:title="RotateExtrude">
<ellipse fill="none" stroke="black" cx="476.18" cy="-612" rx="38.99" ry="18"/>
<text text-anchor="middle" x="476.18" y="-608.3" font-family="Times New Roman,serif" font-size="14.00">stadium</text>
</a>
</g>
</g>
<!-- 55&#45;&gt;stadium_56 -->
<g id="edge22" class="edge">
<title>55&#45;&gt;stadium_56</title>
<path fill="none" stroke="black" d="M396.9,-612C406.69,-612 417.1,-612 427.02,-612"/>
<polygon fill="black" stroke="black" points="427.13,-615.5 437.13,-612 427.13,-608.5 427.13,-615.5"/>
</g>
<!-- cage_58 -->
<g id="node25" class="node">
<title>cage_58</title>
<g id="a_node25"><a xlink:href="javascript:s=&quot;\(&#x27;default&#x27;,\ &#x27;handle&#x27;,\ &#x27;element\-8&#x27;,\ &#x27;cage&#x27;\)\nBox&quot;; console.log(s); alert(s);" xlink:title="Box">
<ellipse fill="none" stroke="black" cx="476.18" cy="-558" rx="27.1" ry="18"/>
<text text-anchor="middle" x="476.18" y="-554.3" font-family="Times New Roman,serif" font-size="14.00">cage</text>
</a>
</g>
</g>
<!-- 57&#45;&gt;cage_58 -->
<g id="edge24" class="edge">
<title>57&#45;&gt;cage_58</title>
<path fill="none" stroke="black" d="M396.9,-558C410.67,-558 425.66,-558 438.79,-558"/>
<polygon fill="black" stroke="black" points="438.88,-561.5 448.88,-558 438.88,-554.5 438.88,-561.5"/>
</g>
<!-- stadium_59 -->
<g id="node26" class="node">
<title>stadium_59</title>
<g id="a_node26"><a xlink:href="javascript:s=&quot;\(&#x27;default&#x27;,\ &#x27;handle&#x27;,\ &#x27;element\-8&#x27;,\ &#x27;stadium&#x27;\)\nLinearExtrude&quot;; console.log(s); alert(s);" xlink:title="LinearExtrude">
<ellipse fill="none" stroke="black" cx="476.18" cy="-504" rx="38.99" ry="18"/>
<text text-anchor="middle" x="476.18" y="-500.3" font-family="Times New Roman,serif" font-size="14.00">stadium</text>
</a>
</g>
</g>
<!-- 57&#45;&gt;stadium_59 -->
<g id="edge25" class="edge">
<title>57&#45;&gt;stadium_59</title>
<path fill="none" stroke="black" d="M382.23,-544.79C398.92,-537.47 419.83,-528.29 437.58,-520.5"/>
<polygon fill="black" stroke="black" points="439.32,-523.56 447.07,-516.33 436.51,-517.15 439.32,-523.56"/>
</g>
<!-- stadium_61 -->
<g id="node28" class="node">
<title>stadium_61</title>
<g id="a_node28"><a xlink:href="javascript:s=&quot;\(&#x27;default&#x27;,\ &#x27;handle&#x27;,\ &#x27;element\-9&#x27;,\ &#x27;stadium&#x27;\)\nRotateExtrude&quot;; console.log(s); alert(s);" xlink:title="RotateExtrude">
<ellipse fill="none" stroke="black" cx="476.18" cy="-450" rx="38.99" ry="18"/>
<text text-anchor="middle" x="476.18" y="-446.3" font-family="Times New Roman,serif" font-size="14.00">stadium</text>
</a>
</g>
</g>
<!-- 60&#45;&gt;stadium_61 -->
<g id="edge27" class="edge">
<title>60&#45;&gt;stadium_61</title>
<path fill="none" stroke="black" d="M386.41,-479.58C401.22,-474.64 418.68,-468.82 434.18,-463.66"/>
<polygon fill="black" stroke="black" points="435.65,-466.86 444.03,-460.38 433.44,-460.22 435.65,-466.86"/>
</g>
<!-- stadium_63 -->
<g id="node30" class="node">
<title>stadium_63</title>
<g id="a_node30"><a xlink:href="javascript:s=&quot;\(&#x27;default&#x27;,\ &#x27;handle&#x27;,\ &#x27;element\-10&#x27;,\ &#x27;stadium&#x27;\)\nRotateExtrude&quot;; console.log(s); alert(s);" xlink:title="RotateExtrude">
<ellipse fill="none" stroke="black" cx="476.18" cy="-396" rx="38.99" ry="18"/>
<text text-anchor="middle" x="476.18" y="-392.3" font-family="Times New Roman,serif" font-size="14.00">stadium</text>
</a>
</g>
</g>
<!-- 62&#45;&gt;stadium_63 -->
<g id="edge29" class="edge">
<title>62&#45;&gt;stadium_63</title>
<path fill="none" stroke="black" d="M394.13,-413.78C405.99,-411.18 418.93,-408.34 430.91,-405.71"/>
<polygon fill="black" stroke="black" points="431.69,-409.12 440.71,-403.56 430.19,-402.29 431.69,-409.12"/>
</g>
<!-- cage_65 -->
<g id="node32" class="node">
<title>cage_65</title>
<g id="a_node32"><a xlink:href="javascript:s=&quot;\(&#x27;default&#x27;,\ &#x27;handle&#x27;,\ &#x27;element\-11&#x27;,\ &#x27;cage&#x27;\)\nBox&quot;; console.log(s); alert(s);" xlink:title="Box">
<ellipse fill="none" stroke="black" cx="476.18" cy="-342" rx="27.1" ry="18"/>
<text text-anchor="middle" x="476.18" y="-338.3" font-family="Times New Roman,serif" font-size="14.00">cage</text>
</a>
</g>
</g>
<!-- 64&#45;&gt;cage_65 -->
<g id="edge31" class="edge">
<title>64&#45;&gt;cage_65</title>
<path fill="none" stroke="black" d="M401.47,-342C413.86,-342 426.93,-342 438.57,-342"/>
<polygon fill="black" stroke="black" points="438.8,-345.5 448.8,-342 438.8,-338.5 438.8,-345.5"/>
</g>
<!-- stadium_66 -->
<g id="node33" class="node">
<title>stadium_66</title>
<g id="a_node33"><a xlink:href="javascript:s=&quot;\(&#x27;default&#x27;,\ &#x27;handle&#x27;,\ &#x27;element\-11&#x27;,\ &#x27;stadium&#x27;\)\nLinearExtrude&quot;; console.log(s); alert(s);" xlink:title="LinearExtrude">
<ellipse fill="none" stroke="black" cx="476.18" cy="-288" rx="38.99" ry="18"/>
<text text-anchor="middle" x="476.18" y="-284.3" font-family="Times New Roman,serif" font-size="14.00">stadium</text>
</a>
</g>
</g>
<!-- 64&#45;&gt;stadium_66 -->
<g id="edge32" class="edge">
<title>64&#45;&gt;stadium_66</title>
<path fill="none" stroke="black" d="M383.5,-328.23C400.08,-320.96 420.54,-311.98 437.93,-304.35"/>
<polygon fill="black" stroke="black" points="439.47,-307.49 447.22,-300.27 436.66,-301.08 439.47,-307.49"/>
</g>
<!-- stadium_68 -->
<g id="node35" class="node">
<title>stadium_68</title>
<g id="a_node35"><a xlink:href="javascript:s=&quot;\(&#x27;default&#x27;,\ &#x27;handle&#x27;,\ &#x27;element\-12&#x27;,\ &#x27;stadium&#x27;\)\nRotateExtrude&quot;; console.log(s); alert(s);" xlink:title="RotateExtrude">
<ellipse fill="none" stroke="black" cx="476.18" cy="-234" rx="38.99" ry="18"/>
<text text-anchor="middle" x="476.18" y="-230.3" font-family="Times New Roman,serif" font-size="14.00">stadium</text>
</a>
</g>
</g>
<!-- 67&#45;&gt;stadium_68 -->
<g id="edge34" class="edge">
<title>67&#45;&gt;stadium_68</title>
<path fill="none" stroke="black" d="M394.13,-251.78C405.99,-249.18 418.93,-246.34 430.91,-243.71"/>
<polygon fill="black" stroke="black" points="431.69,-247.12 440.71,-241.56 430.19,-240.29 431.69,-247.12"/>
</g>
<!-- cage_70 -->
<g id="node37" class="node">
<title>cage_70</title>
<g id="a_node37"><a xlink:href="javascript:s=&quot;\(&#x27;default&#x27;,\ &#x27;handle&#x27;,\ &#x27;element\-13&#x27;,\ &#x27;cage&#x27;\)\nBox&quot;; console.log(s); alert(s);" xlink:title="Box">
<ellipse fill="none" stroke="black" cx="476.18" cy="-180" rx="27.1" ry="18"/>
<text text-anchor="middle" x="476.18" y="-176.3" font-family="Times New Roman,serif" font-size="14.00">cage</text>
</a>
</g>
</g>
<!-- 69&#45;&gt;cage_70 -->
<g id="edge36" class="edge">
<title>69&#45;&gt;cage_70</title>
<path fill="none" stroke="black" d="M401.47,-180C413.86,-180 426.93,-180 438.57,-180"/>
<polygon fill="black" stroke="black" points="438.8,-183.5 448.8,-180 438.8,-176.5 438.8,-183.5"/>
</g>
<!-- stadium_71 -->
<g id="node38" class="node">
<title>stadium_71</title>
<g id="a_node38"><a xlink:href="javascript:s=&quot;\(&#x27;default&#x27;,\ &#x27;handle&#x27;,\ &#x27;element\-13&#x27;,\ &#x27;stadium&#x27;\)\nLinearExtrude&quot;; console.log(s); alert(s);" xlink:title="LinearExtrude">
<ellipse fill="none" stroke="black" cx="476.18" cy="-126" rx="38.99" ry="18"/>
<text text-anchor="middle" x="476.18" y="-122.3" font-family="Times New Roman,serif" font-size="14.00">stadium</text>
</a>
</g>
</g>
<!-- 69&#45;&gt;stadium_71 -->
<g id="edge37" class="edge">
<title>69&#45;&gt;stadium_71</title>
<path fill="none" stroke="black" d="M383.5,-166.23C400.08,-158.96 420.54,-149.98 437.93,-142.35"/>
<polygon fill="black" stroke="black" points="439.47,-145.49 447.22,-138.27 436.66,-139.08 439.47,-145.49"/>
</g>
<!-- stadium_73 -->
<g id="node40" class="node">
<title>stadium_73</title>
<g id="a_node40"><a xlink:href="javascript:s=&quot;\(&#x27;default&#x27;,\ &#x27;handle&#x27;,\ &#x27;element\-14&#x27;,\ &#x27;stadium&#x27;\)\nRotateExtrude&quot;; console.log(s); alert(s);" xlink:title="RotateExtrude">
<ellipse fill="none" stroke="black" cx="476.18" cy="-72" rx="38.99" ry="18"/>
<text text-anchor="middle" x="476.18" y="-68.3" font-family="Times New Roman,serif" font-size="14.00">stadium</text>
</a>
</g>
</g>
<!-- 72&#45;&gt;stadium_73 -->
<g id="edge39" class="edge">
<title>72&#45;&gt;stadium_73</title>
<path fill="none" stroke="black" d="M394.13,-89.78C405.99,-87.18 418.93,-84.34 430.91,-81.71"/>
<polygon fill="black" stroke="black" points="431.69,-85.12 440.71,-79.56 430.19,-78.29 431.69,-85.12"/>
</g>
<!-- stadium_75 -->
<g id="node42" class="node">
<title>stadium_75</title>
<g id="a_node42"><a xlink:href="javascript:s=&quot;\(&#x27;default&#x27;,\ &#x27;handle&#x27;,\ &#x27;element\-15&#x27;,\ &#x27;stadium&#x27;\)\nRotateExtrude&quot;; console.log(s); alert(s);" xlink:title="RotateExtrude">
<ellipse fill="none" stroke="black" cx="476.18" cy="-18" rx="38.99" ry="18"/>
<text text-anchor="middle" x="476.18" y="-14.3" font-family="Times New Roman,serif" font-size="14.00">stadium</text>
</a>
</g>
</g>
<!-- 74&#45;&gt;stadium_75 -->
<g id="edge41" class="edge">
<title>74&#45;&gt;stadium_75</title>
<path fill="none" stroke="black" d="M399,-26.67C408.48,-25.59 418.45,-24.45 427.93,-23.38"/>
<polygon fill="black" stroke="black" points="428.46,-26.84 438,-22.23 427.66,-19.88 428.46,-26.84"/>
</g>
</g>
</svg>
