<?xml version="1.0" encoding="UTF-8" standalone="no"?>
<!DOCTYPE svg PUBLIC "-//W3C//DTD SVG 1.1//EN"
 "http://www.w3.org/Graphics/SVG/1.1/DTD/svg11.dtd">
<!-- Generated by graphviz version 5.0.0 (20220707.1540)
 -->
<!-- Title: default Pages: 1 -->
<svg width="746pt" height="1272pt"
 viewBox="0.00 0.00 746.36 1272.00" xmlns="http://www.w3.org/2000/svg" xmlns:xlink="http://www.w3.org/1999/xlink">
<g id="graph0" class="graph" transform="scale(1 1) rotate(0) translate(4 1268)">
<title>default</title>
<polygon fill="white" stroke="transparent" points="-4,4 -4,-1268 742.36,-1268 742.36,4 -4,4"/>
<!-- root_76 -->
<g id="node1" class="node">
<title>root_76</title>
<g id="a_node1"><a xlink:href="javascript:s=&quot;\(\)\nNone&quot;; console.log(s); alert(s);" xlink:title="root">
<ellipse fill="none" stroke="black" cx="27" cy="-254" rx="27" ry="18"/>
<text text-anchor="middle" x="27" y="-250.3" font-family="Times New Roman,serif" font-size="14.00">root</text>
</a>
</g>
</g>
<!-- default_77 -->
<g id="node2" class="node">
<title>default_77</title>
<g id="a_node2"><a xlink:href="javascript:s=&quot;\(&#x27;default&#x27;,\)\nSpringHandleHolder&quot;; console.log(s); alert(s);" xlink:title="SpringHandleHolder">
<ellipse fill="none" stroke="black" cx="125.1" cy="-254" rx="35.19" ry="18"/>
<text text-anchor="middle" x="125.1" y="-250.3" font-family="Times New Roman,serif" font-size="14.00">default</text>
</a>
</g>
</g>
<!-- root_76&#45;&gt;default_77 -->
<g id="edge1" class="edge">
<title>root_76&#45;&gt;default_77</title>
<path fill="none" stroke="black" d="M54.01,-254C61.92,-254 70.84,-254 79.61,-254"/>
<polygon fill="black" stroke="black" points="79.76,-257.5 89.76,-254 79.76,-250.5 79.76,-257.5"/>
</g>
<!-- spring_base_78 -->
<g id="node3" class="node">
<title>spring_base_78</title>
<g id="a_node3"><a xlink:href="javascript:s=&quot;\(&#x27;default&#x27;,\ &#x27;spring_base&#x27;\)\nSpringBase&quot;; console.log(s); alert(s);" xlink:title="SpringBase">
<ellipse fill="none" stroke="black" cx="250.79" cy="-429" rx="54.69" ry="18"/>
<text text-anchor="middle" x="250.79" y="-425.3" font-family="Times New Roman,serif" font-size="14.00">spring_base</text>
</a>
</g>
</g>
<!-- default_77&#45;&gt;spring_base_78 -->
<g id="edge2" class="edge">
<title>default_77&#45;&gt;spring_base_78</title>
<path fill="none" stroke="black" d="M137.96,-270.78C159.59,-301.38 205.57,-366.44 231.33,-402.89"/>
<polygon fill="black" stroke="black" points="228.79,-405.35 237.42,-411.49 234.5,-401.31 228.79,-405.35"/>
</g>
<!-- mount_119 -->
<g id="node44" class="node">
<title>mount_119</title>
<g id="a_node44"><a xlink:href="javascript:s=&quot;\(&#x27;default&#x27;,\ &#x27;mount&#x27;\)\nScabbardMountHole&quot;; console.log(s); alert(s);" xlink:title="ScabbardMountHole">
<ellipse fill="none" stroke="black" cx="250.79" cy="-227" rx="33.6" ry="18"/>
<text text-anchor="middle" x="250.79" y="-223.3" font-family="Times New Roman,serif" font-size="14.00">mount</text>
</a>
</g>
</g>
<!-- default_77&#45;&gt;mount_119 -->
<g id="edge43" class="edge">
<title>default_77&#45;&gt;mount_119</title>
<path fill="none" stroke="black" d="M157.63,-247.12C173.28,-243.7 192.37,-239.53 209.1,-235.88"/>
<polygon fill="black" stroke="black" points="210.15,-239.24 219.17,-233.68 208.65,-232.4 210.15,-239.24"/>
</g>
<!-- handle_79 -->
<g id="node4" class="node">
<title>handle_79</title>
<g id="a_node4"><a xlink:href="javascript:s=&quot;\(&#x27;default&#x27;,\ &#x27;spring_base&#x27;,\ &#x27;handle&#x27;\)\nStadiumSequence&quot;; console.log(s); alert(s);" xlink:title="StadiumSequence">
<ellipse fill="none" stroke="black" cx="410.93" cy="-591" rx="34.39" ry="18"/>
<text text-anchor="middle" x="410.93" y="-587.3" font-family="Times New Roman,serif" font-size="14.00">handle</text>
</a>
</g>
</g>
<!-- spring_base_78&#45;&gt;handle_79 -->
<g id="edge3" class="edge">
<title>spring_base_78&#45;&gt;handle_79</title>
<path fill="none" stroke="black" d="M268.71,-446.34C297.19,-475.51 354.7,-534.43 386.85,-567.36"/>
<polygon fill="black" stroke="black" points="384.58,-570.04 394.07,-574.75 389.59,-565.15 384.58,-570.04"/>
</g>
<!-- 80 -->
<g id="node5" class="node">
<title>80</title>
<g id="a_node5"><a xlink:href="javascript:s=&quot;\(&#x27;default&#x27;,\ &#x27;spring_base&#x27;,\ &#x27;handle&#x27;,\ &#x27;element\-0&#x27;\)\nStadiumPrism&quot;; console.log(s); alert(s);" xlink:title="StadiumPrism">
<ellipse fill="none" stroke="black" cx="570.42" cy="-1192" rx="45.49" ry="18"/>
<text text-anchor="middle" x="570.42" y="-1188.3" font-family="Times New Roman,serif" font-size="14.00">element&#45;0</text>
</a>
</g>
</g>
<!-- handle_79&#45;&gt;80 -->
<g id="edge4" class="edge">
<title>handle_79&#45;&gt;80</title>
<path fill="none" stroke="black" d="M411.7,-609.23C411.52,-681.02 417.84,-949.55 516.47,-1138 522.51,-1149.54 531.82,-1160.25 540.96,-1169.03"/>
<polygon fill="black" stroke="black" points="538.78,-1171.78 548.52,-1175.94 543.5,-1166.61 538.78,-1171.78"/>
</g>
<!-- 83 -->
<g id="node8" class="node">
<title>83</title>
<g id="a_node8"><a xlink:href="javascript:s=&quot;\(&#x27;default&#x27;,\ &#x27;spring_base&#x27;,\ &#x27;handle&#x27;,\ &#x27;element\-1&#x27;\)\nStadiumRevolution&quot;; console.log(s); alert(s);" xlink:title="StadiumRevolution">
<ellipse fill="none" stroke="black" cx="570.42" cy="-1111" rx="45.49" ry="18"/>
<text text-anchor="middle" x="570.42" y="-1107.3" font-family="Times New Roman,serif" font-size="14.00">element&#45;1</text>
</a>
</g>
</g>
<!-- handle_79&#45;&gt;83 -->
<g id="edge7" class="edge">
<title>handle_79&#45;&gt;83</title>
<path fill="none" stroke="black" d="M412.48,-609.15C415.16,-674.01 430.51,-898.94 516.47,-1057 522.74,-1068.53 532.2,-1079.3 541.38,-1088.13"/>
<polygon fill="black" stroke="black" points="539.23,-1090.9 548.97,-1095.07 543.95,-1085.74 539.23,-1090.9"/>
</g>
<!-- 85 -->
<g id="node10" class="node">
<title>85</title>
<g id="a_node10"><a xlink:href="javascript:s=&quot;\(&#x27;default&#x27;,\ &#x27;spring_base&#x27;,\ &#x27;handle&#x27;,\ &#x27;element\-2&#x27;\)\nStadiumPrism&quot;; console.log(s); alert(s);" xlink:title="StadiumPrism">
<ellipse fill="none" stroke="black" cx="570.42" cy="-1030" rx="45.49" ry="18"/>
<text text-anchor="middle" x="570.42" y="-1026.3" font-family="Times New Roman,serif" font-size="14.00">element&#45;2</text>
</a>
</g>
</g>
<!-- handle_79&#45;&gt;85 -->
<g id="edge9" class="edge">
<title>handle_79&#45;&gt;85</title>
<path fill="none" stroke="black" d="M413.58,-609.1C419.46,-666.47 443.13,-848 516.47,-976 523,-987.39 532.51,-998.12 541.67,-1006.97"/>
<polygon fill="black" stroke="black" points="539.49,-1009.72 549.21,-1013.94 544.24,-1004.58 539.49,-1009.72"/>
</g>
<!-- 88 -->
<g id="node13" class="node">
<title>88</title>
<g id="a_node13"><a xlink:href="javascript:s=&quot;\(&#x27;default&#x27;,\ &#x27;spring_base&#x27;,\ &#x27;handle&#x27;,\ &#x27;element\-3&#x27;\)\nStadiumRevolution&quot;; console.log(s); alert(s);" xlink:title="StadiumRevolution">
<ellipse fill="none" stroke="black" cx="570.42" cy="-949" rx="45.49" ry="18"/>
<text text-anchor="middle" x="570.42" y="-945.3" font-family="Times New Roman,serif" font-size="14.00">element&#45;3</text>
</a>
</g>
</g>
<!-- handle_79&#45;&gt;88 -->
<g id="edge12" class="edge">
<title>handle_79&#45;&gt;88</title>
<path fill="none" stroke="black" d="M415.21,-608.99C424.73,-657.94 455.61,-796.48 516.47,-895 523.37,-906.17 532.96,-916.85 542.08,-925.73"/>
<polygon fill="black" stroke="black" points="539.87,-928.45 549.57,-932.72 544.65,-923.34 539.87,-928.45"/>
</g>
<!-- 90 -->
<g id="node15" class="node">
<title>90</title>
<g id="a_node15"><a xlink:href="javascript:s=&quot;\(&#x27;default&#x27;,\ &#x27;spring_base&#x27;,\ &#x27;handle&#x27;,\ &#x27;element\-4&#x27;\)\nStadiumPrism&quot;; console.log(s); alert(s);" xlink:title="StadiumPrism">
<ellipse fill="none" stroke="black" cx="570.42" cy="-868" rx="45.49" ry="18"/>
<text text-anchor="middle" x="570.42" y="-864.3" font-family="Times New Roman,serif" font-size="14.00">element&#45;4</text>
</a>
</g>
</g>
<!-- handle_79&#45;&gt;90 -->
<g id="edge14" class="edge">
<title>handle_79&#45;&gt;90</title>
<path fill="none" stroke="black" d="M417.95,-608.85C431.69,-648.13 467.94,-744.11 516.47,-814 524.02,-824.87 533.83,-835.55 542.95,-844.5"/>
<polygon fill="black" stroke="black" points="540.73,-847.22 550.39,-851.59 545.56,-842.16 540.73,-847.22"/>
</g>
<!-- 93 -->
<g id="node18" class="node">
<title>93</title>
<g id="a_node18"><a xlink:href="javascript:s=&quot;\(&#x27;default&#x27;,\ &#x27;spring_base&#x27;,\ &#x27;handle&#x27;,\ &#x27;element\-5&#x27;\)\nStadiumRevolution&quot;; console.log(s); alert(s);" xlink:title="StadiumRevolution">
<ellipse fill="none" stroke="black" cx="570.42" cy="-787" rx="45.49" ry="18"/>
<text text-anchor="middle" x="570.42" y="-783.3" font-family="Times New Roman,serif" font-size="14.00">element&#45;5</text>
</a>
</g>
</g>
<!-- handle_79&#45;&gt;93 -->
<g id="edge17" class="edge">
<title>handle_79&#45;&gt;93</title>
<path fill="none" stroke="black" d="M423.42,-608.2C441.93,-635.51 479.97,-690.1 516.47,-733 525.11,-743.16 535.23,-753.75 544.29,-762.84"/>
<polygon fill="black" stroke="black" points="542.04,-765.53 551.6,-770.08 546.96,-760.56 542.04,-765.53"/>
</g>
<!-- 95 -->
<g id="node20" class="node">
<title>95</title>
<g id="a_node20"><a xlink:href="javascript:s=&quot;\(&#x27;default&#x27;,\ &#x27;spring_base&#x27;,\ &#x27;handle&#x27;,\ &#x27;element\-6&#x27;\)\nStadiumPrism&quot;; console.log(s); alert(s);" xlink:title="StadiumPrism">
<ellipse fill="none" stroke="black" cx="570.42" cy="-706" rx="45.49" ry="18"/>
<text text-anchor="middle" x="570.42" y="-702.3" font-family="Times New Roman,serif" font-size="14.00">element&#45;6</text>
</a>
</g>
</g>
<!-- handle_79&#45;&gt;95 -->
<g id="edge19" class="edge">
<title>handle_79&#45;&gt;95</title>
<path fill="none" stroke="black" d="M428.99,-606.37C449.14,-624.16 484.02,-653.84 516.47,-676 521.8,-679.64 527.59,-683.24 533.33,-686.63"/>
<polygon fill="black" stroke="black" points="531.81,-689.79 542.23,-691.74 535.3,-683.72 531.81,-689.79"/>
</g>
<!-- 98 -->
<g id="node23" class="node">
<title>98</title>
<g id="a_node23"><a xlink:href="javascript:s=&quot;\(&#x27;default&#x27;,\ &#x27;spring_base&#x27;,\ &#x27;handle&#x27;,\ &#x27;element\-7&#x27;\)\nStadiumRevolution&quot;; console.log(s); alert(s);" xlink:title="StadiumRevolution">
<ellipse fill="none" stroke="black" cx="570.42" cy="-649" rx="45.49" ry="18"/>
<text text-anchor="middle" x="570.42" y="-645.3" font-family="Times New Roman,serif" font-size="14.00">element&#45;7</text>
</a>
</g>
</g>
<!-- handle_79&#45;&gt;98 -->
<g id="edge22" class="edge">
<title>handle_79&#45;&gt;98</title>
<path fill="none" stroke="black" d="M439.72,-601.24C463.89,-610.14 499.29,-623.17 527,-633.38"/>
<polygon fill="black" stroke="black" points="525.86,-636.69 536.45,-636.86 528.27,-630.12 525.86,-636.69"/>
</g>
<!-- 100 -->
<g id="node25" class="node">
<title>100</title>
<g id="a_node25"><a xlink:href="javascript:s=&quot;\(&#x27;default&#x27;,\ &#x27;spring_base&#x27;,\ &#x27;handle&#x27;,\ &#x27;element\-8&#x27;\)\nStadiumPrism&quot;; console.log(s); alert(s);" xlink:title="StadiumPrism">
<ellipse fill="none" stroke="black" cx="570.42" cy="-591" rx="45.49" ry="18"/>
<text text-anchor="middle" x="570.42" y="-587.3" font-family="Times New Roman,serif" font-size="14.00">element&#45;8</text>
</a>
</g>
</g>
<!-- handle_79&#45;&gt;100 -->
<g id="edge24" class="edge">
<title>handle_79&#45;&gt;100</title>
<path fill="none" stroke="black" d="M445.71,-591C465.78,-591 491.7,-591 514.63,-591"/>
<polygon fill="black" stroke="black" points="514.92,-594.5 524.92,-591 514.92,-587.5 514.92,-594.5"/>
</g>
<!-- 103 -->
<g id="node28" class="node">
<title>103</title>
<g id="a_node28"><a xlink:href="javascript:s=&quot;\(&#x27;default&#x27;,\ &#x27;spring_base&#x27;,\ &#x27;handle&#x27;,\ &#x27;element\-9&#x27;\)\nStadiumRevolution&quot;; console.log(s); alert(s);" xlink:title="StadiumRevolution">
<ellipse fill="none" stroke="black" cx="570.42" cy="-510" rx="45.49" ry="18"/>
<text text-anchor="middle" x="570.42" y="-506.3" font-family="Times New Roman,serif" font-size="14.00">element&#45;9</text>
</a>
</g>
</g>
<!-- handle_79&#45;&gt;103 -->
<g id="edge27" class="edge">
<title>handle_79&#45;&gt;103</title>
<path fill="none" stroke="black" d="M436.19,-578.52C461.96,-565.27 503,-544.16 532.73,-528.87"/>
<polygon fill="black" stroke="black" points="534.66,-531.81 541.95,-524.13 531.45,-525.59 534.66,-531.81"/>
</g>
<!-- 105 -->
<g id="node30" class="node">
<title>105</title>
<g id="a_node30"><a xlink:href="javascript:s=&quot;\(&#x27;default&#x27;,\ &#x27;spring_base&#x27;,\ &#x27;handle&#x27;,\ &#x27;element\-10&#x27;\)\nStadiumRevolution&quot;; console.log(s); alert(s);" xlink:title="StadiumRevolution">
<ellipse fill="none" stroke="black" cx="570.42" cy="-449" rx="50.09" ry="18"/>
<text text-anchor="middle" x="570.42" y="-445.3" font-family="Times New Roman,serif" font-size="14.00">element&#45;10</text>
</a>
</g>
</g>
<!-- handle_79&#45;&gt;105 -->
<g id="edge29" class="edge">
<title>handle_79&#45;&gt;105</title>
<path fill="none" stroke="black" d="M425.77,-574.48C444.85,-552.24 480.94,-512.1 516.47,-483 521.98,-478.49 528.11,-474.07 534.2,-469.99"/>
<polygon fill="black" stroke="black" points="536.52,-472.66 543,-464.28 532.71,-466.79 536.52,-472.66"/>
</g>
<!-- 107 -->
<g id="node32" class="node">
<title>107</title>
<g id="a_node32"><a xlink:href="javascript:s=&quot;\(&#x27;default&#x27;,\ &#x27;spring_base&#x27;,\ &#x27;handle&#x27;,\ &#x27;element\-11&#x27;\)\nStadiumPrism&quot;; console.log(s); alert(s);" xlink:title="StadiumPrism">
<ellipse fill="none" stroke="black" cx="570.42" cy="-382" rx="50.09" ry="18"/>
<text text-anchor="middle" x="570.42" y="-378.3" font-family="Times New Roman,serif" font-size="14.00">element&#45;11</text>
</a>
</g>
</g>
<!-- handle_79&#45;&gt;107 -->
<g id="edge31" class="edge">
<title>handle_79&#45;&gt;107</title>
<path fill="none" stroke="black" d="M420.02,-573.52C435.55,-541.18 471.98,-470.84 516.47,-422 522.44,-415.45 529.6,-409.23 536.7,-403.72"/>
<polygon fill="black" stroke="black" points="538.98,-406.39 544.92,-397.62 534.81,-400.77 538.98,-406.39"/>
</g>
<!-- 110 -->
<g id="node35" class="node">
<title>110</title>
<g id="a_node35"><a xlink:href="javascript:s=&quot;\(&#x27;default&#x27;,\ &#x27;spring_base&#x27;,\ &#x27;handle&#x27;,\ &#x27;element\-12&#x27;\)\nStadiumRevolution&quot;; console.log(s); alert(s);" xlink:title="StadiumRevolution">
<ellipse fill="none" stroke="black" cx="570.42" cy="-315" rx="50.09" ry="18"/>
<text text-anchor="middle" x="570.42" y="-311.3" font-family="Times New Roman,serif" font-size="14.00">element&#45;12</text>
</a>
</g>
</g>
<!-- handle_79&#45;&gt;110 -->
<g id="edge34" class="edge">
<title>handle_79&#45;&gt;110</title>
<path fill="none" stroke="black" d="M416.5,-573.09C427.82,-531.34 460.37,-425.75 516.47,-355 521.87,-348.19 528.69,-341.92 535.62,-336.46"/>
<polygon fill="black" stroke="black" points="537.79,-339.21 543.73,-330.44 533.61,-333.59 537.79,-339.21"/>
</g>
<!-- 112 -->
<g id="node37" class="node">
<title>112</title>
<g id="a_node37"><a xlink:href="javascript:s=&quot;\(&#x27;default&#x27;,\ &#x27;spring_base&#x27;,\ &#x27;handle&#x27;,\ &#x27;element\-13&#x27;\)\nStadiumPrism&quot;; console.log(s); alert(s);" xlink:title="StadiumPrism">
<ellipse fill="none" stroke="black" cx="570.42" cy="-234" rx="50.09" ry="18"/>
<text text-anchor="middle" x="570.42" y="-230.3" font-family="Times New Roman,serif" font-size="14.00">element&#45;13</text>
</a>
</g>
</g>
<!-- handle_79&#45;&gt;112 -->
<g id="edge36" class="edge">
<title>handle_79&#45;&gt;112</title>
<path fill="none" stroke="black" d="M415.22,-573.07C424.77,-524.28 455.74,-386.2 516.47,-288 523.32,-276.92 532.82,-266.32 541.88,-257.49"/>
<polygon fill="black" stroke="black" points="544.41,-259.91 549.32,-250.51 539.63,-254.8 544.41,-259.91"/>
</g>
<!-- 115 -->
<g id="node40" class="node">
<title>115</title>
<g id="a_node40"><a xlink:href="javascript:s=&quot;\(&#x27;default&#x27;,\ &#x27;spring_base&#x27;,\ &#x27;handle&#x27;,\ &#x27;element\-14&#x27;\)\nStadiumRevolution&quot;; console.log(s); alert(s);" xlink:title="StadiumRevolution">
<ellipse fill="none" stroke="black" cx="570.42" cy="-180" rx="50.09" ry="18"/>
<text text-anchor="middle" x="570.42" y="-176.3" font-family="Times New Roman,serif" font-size="14.00">element&#45;14</text>
</a>
</g>
</g>
<!-- handle_79&#45;&gt;115 -->
<g id="edge39" class="edge">
<title>handle_79&#45;&gt;115</title>
<path fill="none" stroke="black" d="M414.86,-572.93C426.17,-504.99 468.75,-265.71 516.47,-207 519.18,-203.67 522.41,-200.7 525.91,-198.08"/>
<polygon fill="black" stroke="black" points="527.98,-200.91 534.49,-192.55 524.19,-195.03 527.98,-200.91"/>
</g>
<!-- 117 -->
<g id="node42" class="node">
<title>117</title>
<g id="a_node42"><a xlink:href="javascript:s=&quot;\(&#x27;default&#x27;,\ &#x27;spring_base&#x27;,\ &#x27;handle&#x27;,\ &#x27;element\-15&#x27;\)\nStadiumRevolution&quot;; console.log(s); alert(s);" xlink:title="StadiumRevolution">
<ellipse fill="none" stroke="black" cx="570.42" cy="-126" rx="50.09" ry="18"/>
<text text-anchor="middle" x="570.42" y="-122.3" font-family="Times New Roman,serif" font-size="14.00">element&#45;15</text>
</a>
</g>
</g>
<!-- handle_79&#45;&gt;117 -->
<g id="edge41" class="edge">
<title>handle_79&#45;&gt;117</title>
<path fill="none" stroke="black" d="M415.79,-572.99C433.05,-492.64 502.93,-170.2 516.47,-153 519.09,-149.67 522.23,-146.71 525.66,-144.1"/>
<polygon fill="black" stroke="black" points="527.62,-147 534.07,-138.59 523.79,-141.14 527.62,-147"/>
</g>
<!-- cage_81 -->
<g id="node6" class="node">
<title>cage_81</title>
<g id="a_node6"><a xlink:href="javascript:s=&quot;\(&#x27;default&#x27;,\ &#x27;spring_base&#x27;,\ &#x27;handle&#x27;,\ &#x27;element\-0&#x27;,\ &#x27;cage&#x27;\)\nBox&quot;; console.log(s); alert(s);" xlink:title="Box">
<ellipse fill="none" stroke="black" cx="699.36" cy="-1246" rx="27.1" ry="18"/>
<text text-anchor="middle" x="699.36" y="-1242.3" font-family="Times New Roman,serif" font-size="14.00">cage</text>
</a>
</g>
</g>
<!-- 80&#45;&gt;cage_81 -->
<g id="edge5" class="edge">
<title>80&#45;&gt;cage_81</title>
<path fill="none" stroke="black" d="M602.15,-1205.07C621.61,-1213.35 646.72,-1224.03 666.41,-1232.41"/>
<polygon fill="black" stroke="black" points="665.3,-1235.74 675.87,-1236.43 668.04,-1229.3 665.3,-1235.74"/>
</g>
<!-- stadium_82 -->
<g id="node7" class="node">
<title>stadium_82</title>
<g id="a_node7"><a xlink:href="javascript:s=&quot;\(&#x27;default&#x27;,\ &#x27;spring_base&#x27;,\ &#x27;handle&#x27;,\ &#x27;element\-0&#x27;,\ &#x27;stadium&#x27;\)\nLinearExtrude&quot;; console.log(s); alert(s);" xlink:title="LinearExtrude">
<ellipse fill="none" stroke="black" cx="699.36" cy="-1192" rx="38.99" ry="18"/>
<text text-anchor="middle" x="699.36" y="-1188.3" font-family="Times New Roman,serif" font-size="14.00">stadium</text>
</a>
</g>
</g>
<!-- 80&#45;&gt;stadium_82 -->
<g id="edge6" class="edge">
<title>80&#45;&gt;stadium_82</title>
<path fill="none" stroke="black" d="M616.17,-1192C627.21,-1192 639.08,-1192 650.27,-1192"/>
<polygon fill="black" stroke="black" points="650.31,-1195.5 660.31,-1192 650.31,-1188.5 650.31,-1195.5"/>
</g>
<!-- stadium_84 -->
<g id="node9" class="node">
<title>stadium_84</title>
<g id="a_node9"><a xlink:href="javascript:s=&quot;\(&#x27;default&#x27;,\ &#x27;spring_base&#x27;,\ &#x27;handle&#x27;,\ &#x27;element\-1&#x27;,\ &#x27;stadium&#x27;\)\nRotateExtrude&quot;; console.log(s); alert(s);" xlink:title="RotateExtrude">
<ellipse fill="none" stroke="black" cx="699.36" cy="-1138" rx="38.99" ry="18"/>
<text text-anchor="middle" x="699.36" y="-1134.3" font-family="Times New Roman,serif" font-size="14.00">stadium</text>
</a>
</g>
</g>
<!-- 83&#45;&gt;stadium_84 -->
<g id="edge8" class="edge">
<title>83&#45;&gt;stadium_84</title>
<path fill="none" stroke="black" d="M610.89,-1119.39C624.47,-1122.28 639.78,-1125.54 653.75,-1128.51"/>
<polygon fill="black" stroke="black" points="653.13,-1131.96 663.64,-1130.62 654.59,-1125.11 653.13,-1131.96"/>
</g>
<!-- cage_86 -->
<g id="node11" class="node">
<title>cage_86</title>
<g id="a_node11"><a xlink:href="javascript:s=&quot;\(&#x27;default&#x27;,\ &#x27;spring_base&#x27;,\ &#x27;handle&#x27;,\ &#x27;element\-2&#x27;,\ &#x27;cage&#x27;\)\nBox&quot;; console.log(s); alert(s);" xlink:title="Box">
<ellipse fill="none" stroke="black" cx="699.36" cy="-1084" rx="27.1" ry="18"/>
<text text-anchor="middle" x="699.36" y="-1080.3" font-family="Times New Roman,serif" font-size="14.00">cage</text>
</a>
</g>
</g>
<!-- 85&#45;&gt;cage_86 -->
<g id="edge10" class="edge">
<title>85&#45;&gt;cage_86</title>
<path fill="none" stroke="black" d="M602.15,-1043.07C621.61,-1051.35 646.72,-1062.03 666.41,-1070.41"/>
<polygon fill="black" stroke="black" points="665.3,-1073.74 675.87,-1074.43 668.04,-1067.3 665.3,-1073.74"/>
</g>
<!-- stadium_87 -->
<g id="node12" class="node">
<title>stadium_87</title>
<g id="a_node12"><a xlink:href="javascript:s=&quot;\(&#x27;default&#x27;,\ &#x27;spring_base&#x27;,\ &#x27;handle&#x27;,\ &#x27;element\-2&#x27;,\ &#x27;stadium&#x27;\)\nLinearExtrude&quot;; console.log(s); alert(s);" xlink:title="LinearExtrude">
<ellipse fill="none" stroke="black" cx="699.36" cy="-1030" rx="38.99" ry="18"/>
<text text-anchor="middle" x="699.36" y="-1026.3" font-family="Times New Roman,serif" font-size="14.00">stadium</text>
</a>
</g>
</g>
<!-- 85&#45;&gt;stadium_87 -->
<g id="edge11" class="edge">
<title>85&#45;&gt;stadium_87</title>
<path fill="none" stroke="black" d="M616.17,-1030C627.21,-1030 639.08,-1030 650.27,-1030"/>
<polygon fill="black" stroke="black" points="650.31,-1033.5 660.31,-1030 650.31,-1026.5 650.31,-1033.5"/>
</g>
<!-- stadium_89 -->
<g id="node14" class="node">
<title>stadium_89</title>
<g id="a_node14"><a xlink:href="javascript:s=&quot;\(&#x27;default&#x27;,\ &#x27;spring_base&#x27;,\ &#x27;handle&#x27;,\ &#x27;element\-3&#x27;,\ &#x27;stadium&#x27;\)\nRotateExtrude&quot;; console.log(s); alert(s);" xlink:title="RotateExtrude">
<ellipse fill="none" stroke="black" cx="699.36" cy="-976" rx="38.99" ry="18"/>
<text text-anchor="middle" x="699.36" y="-972.3" font-family="Times New Roman,serif" font-size="14.00">stadium</text>
</a>
</g>
</g>
<!-- 88&#45;&gt;stadium_89 -->
<g id="edge13" class="edge">
<title>88&#45;&gt;stadium_89</title>
<path fill="none" stroke="black" d="M610.89,-957.39C624.47,-960.28 639.78,-963.54 653.75,-966.51"/>
<polygon fill="black" stroke="black" points="653.13,-969.96 663.64,-968.62 654.59,-963.11 653.13,-969.96"/>
</g>
<!-- cage_91 -->
<g id="node16" class="node">
<title>cage_91</title>
<g id="a_node16"><a xlink:href="javascript:s=&quot;\(&#x27;default&#x27;,\ &#x27;spring_base&#x27;,\ &#x27;handle&#x27;,\ &#x27;element\-4&#x27;,\ &#x27;cage&#x27;\)\nBox&quot;; console.log(s); alert(s);" xlink:title="Box">
<ellipse fill="none" stroke="black" cx="699.36" cy="-922" rx="27.1" ry="18"/>
<text text-anchor="middle" x="699.36" y="-918.3" font-family="Times New Roman,serif" font-size="14.00">cage</text>
</a>
</g>
</g>
<!-- 90&#45;&gt;cage_91 -->
<g id="edge15" class="edge">
<title>90&#45;&gt;cage_91</title>
<path fill="none" stroke="black" d="M602.15,-881.07C621.61,-889.35 646.72,-900.03 666.41,-908.41"/>
<polygon fill="black" stroke="black" points="665.3,-911.74 675.87,-912.43 668.04,-905.3 665.3,-911.74"/>
</g>
<!-- stadium_92 -->
<g id="node17" class="node">
<title>stadium_92</title>
<g id="a_node17"><a xlink:href="javascript:s=&quot;\(&#x27;default&#x27;,\ &#x27;spring_base&#x27;,\ &#x27;handle&#x27;,\ &#x27;element\-4&#x27;,\ &#x27;stadium&#x27;\)\nLinearExtrude&quot;; console.log(s); alert(s);" xlink:title="LinearExtrude">
<ellipse fill="none" stroke="black" cx="699.36" cy="-868" rx="38.99" ry="18"/>
<text text-anchor="middle" x="699.36" y="-864.3" font-family="Times New Roman,serif" font-size="14.00">stadium</text>
</a>
</g>
</g>
<!-- 90&#45;&gt;stadium_92 -->
<g id="edge16" class="edge">
<title>90&#45;&gt;stadium_92</title>
<path fill="none" stroke="black" d="M616.17,-868C627.21,-868 639.08,-868 650.27,-868"/>
<polygon fill="black" stroke="black" points="650.31,-871.5 660.31,-868 650.31,-864.5 650.31,-871.5"/>
</g>
<!-- stadium_94 -->
<g id="node19" class="node">
<title>stadium_94</title>
<g id="a_node19"><a xlink:href="javascript:s=&quot;\(&#x27;default&#x27;,\ &#x27;spring_base&#x27;,\ &#x27;handle&#x27;,\ &#x27;element\-5&#x27;,\ &#x27;stadium&#x27;\)\nRotateExtrude&quot;; console.log(s); alert(s);" xlink:title="RotateExtrude">
<ellipse fill="none" stroke="black" cx="699.36" cy="-814" rx="38.99" ry="18"/>
<text text-anchor="middle" x="699.36" y="-810.3" font-family="Times New Roman,serif" font-size="14.00">stadium</text>
</a>
</g>
</g>
<!-- 93&#45;&gt;stadium_94 -->
<g id="edge18" class="edge">
<title>93&#45;&gt;stadium_94</title>
<path fill="none" stroke="black" d="M610.89,-795.39C624.47,-798.28 639.78,-801.54 653.75,-804.51"/>
<polygon fill="black" stroke="black" points="653.13,-807.96 663.64,-806.62 654.59,-801.11 653.13,-807.96"/>
</g>
<!-- cage_96 -->
<g id="node21" class="node">
<title>cage_96</title>
<g id="a_node21"><a xlink:href="javascript:s=&quot;\(&#x27;default&#x27;,\ &#x27;spring_base&#x27;,\ &#x27;handle&#x27;,\ &#x27;element\-6&#x27;,\ &#x27;cage&#x27;\)\nBox&quot;; console.log(s); alert(s);" xlink:title="Box">
<ellipse fill="none" stroke="black" cx="699.36" cy="-760" rx="27.1" ry="18"/>
<text text-anchor="middle" x="699.36" y="-756.3" font-family="Times New Roman,serif" font-size="14.00">cage</text>
</a>
</g>
</g>
<!-- 95&#45;&gt;cage_96 -->
<g id="edge20" class="edge">
<title>95&#45;&gt;cage_96</title>
<path fill="none" stroke="black" d="M602.15,-719.07C621.61,-727.35 646.72,-738.03 666.41,-746.41"/>
<polygon fill="black" stroke="black" points="665.3,-749.74 675.87,-750.43 668.04,-743.3 665.3,-749.74"/>
</g>
<!-- stadium_97 -->
<g id="node22" class="node">
<title>stadium_97</title>
<g id="a_node22"><a xlink:href="javascript:s=&quot;\(&#x27;default&#x27;,\ &#x27;spring_base&#x27;,\ &#x27;handle&#x27;,\ &#x27;element\-6&#x27;,\ &#x27;stadium&#x27;\)\nLinearExtrude&quot;; console.log(s); alert(s);" xlink:title="LinearExtrude">
<ellipse fill="none" stroke="black" cx="699.36" cy="-706" rx="38.99" ry="18"/>
<text text-anchor="middle" x="699.36" y="-702.3" font-family="Times New Roman,serif" font-size="14.00">stadium</text>
</a>
</g>
</g>
<!-- 95&#45;&gt;stadium_97 -->
<g id="edge21" class="edge">
<title>95&#45;&gt;stadium_97</title>
<path fill="none" stroke="black" d="M616.17,-706C627.21,-706 639.08,-706 650.27,-706"/>
<polygon fill="black" stroke="black" points="650.31,-709.5 660.31,-706 650.31,-702.5 650.31,-709.5"/>
</g>
<!-- stadium_99 -->
<g id="node24" class="node">
<title>stadium_99</title>
<g id="a_node24"><a xlink:href="javascript:s=&quot;\(&#x27;default&#x27;,\ &#x27;spring_base&#x27;,\ &#x27;handle&#x27;,\ &#x27;element\-7&#x27;,\ &#x27;stadium&#x27;\)\nRotateExtrude&quot;; console.log(s); alert(s);" xlink:title="RotateExtrude">
<ellipse fill="none" stroke="black" cx="699.36" cy="-652" rx="38.99" ry="18"/>
<text text-anchor="middle" x="699.36" y="-648.3" font-family="Times New Roman,serif" font-size="14.00">stadium</text>
</a>
</g>
</g>
<!-- 98&#45;&gt;stadium_99 -->
<g id="edge23" class="edge">
<title>98&#45;&gt;stadium_99</title>
<path fill="none" stroke="black" d="M616.17,-650.06C627.21,-650.32 639.08,-650.6 650.27,-650.86"/>
<polygon fill="black" stroke="black" points="650.23,-654.36 660.31,-651.1 650.4,-647.37 650.23,-654.36"/>
</g>
<!-- cage_101 -->
<g id="node26" class="node">
<title>cage_101</title>
<g id="a_node26"><a xlink:href="javascript:s=&quot;\(&#x27;default&#x27;,\ &#x27;spring_base&#x27;,\ &#x27;handle&#x27;,\ &#x27;element\-8&#x27;,\ &#x27;cage&#x27;\)\nBox&quot;; console.log(s); alert(s);" xlink:title="Box">
<ellipse fill="none" stroke="black" cx="699.36" cy="-598" rx="27.1" ry="18"/>
<text text-anchor="middle" x="699.36" y="-594.3" font-family="Times New Roman,serif" font-size="14.00">cage</text>
</a>
</g>
</g>
<!-- 100&#45;&gt;cage_101 -->
<g id="edge25" class="edge">
<title>100&#45;&gt;cage_101</title>
<path fill="none" stroke="black" d="M615.82,-593.45C630.89,-594.28 647.54,-595.2 661.92,-595.99"/>
<polygon fill="black" stroke="black" points="661.76,-599.49 671.94,-596.54 662.14,-592.5 661.76,-599.49"/>
</g>
<!-- stadium_102 -->
<g id="node27" class="node">
<title>stadium_102</title>
<g id="a_node27"><a xlink:href="javascript:s=&quot;\(&#x27;default&#x27;,\ &#x27;spring_base&#x27;,\ &#x27;handle&#x27;,\ &#x27;element\-8&#x27;,\ &#x27;stadium&#x27;\)\nLinearExtrude&quot;; console.log(s); alert(s);" xlink:title="LinearExtrude">
<ellipse fill="none" stroke="black" cx="699.36" cy="-544" rx="38.99" ry="18"/>
<text text-anchor="middle" x="699.36" y="-540.3" font-family="Times New Roman,serif" font-size="14.00">stadium</text>
</a>
</g>
</g>
<!-- 100&#45;&gt;stadium_102 -->
<g id="edge26" class="edge">
<title>100&#45;&gt;stadium_102</title>
<path fill="none" stroke="black" d="M604.11,-578.9C620.84,-572.7 641.35,-565.11 658.95,-558.59"/>
<polygon fill="black" stroke="black" points="660.23,-561.85 668.39,-555.1 657.8,-555.29 660.23,-561.85"/>
</g>
<!-- stadium_104 -->
<g id="node29" class="node">
<title>stadium_104</title>
<g id="a_node29"><a xlink:href="javascript:s=&quot;\(&#x27;default&#x27;,\ &#x27;spring_base&#x27;,\ &#x27;handle&#x27;,\ &#x27;element\-9&#x27;,\ &#x27;stadium&#x27;\)\nRotateExtrude&quot;; console.log(s); alert(s);" xlink:title="RotateExtrude">
<ellipse fill="none" stroke="black" cx="699.36" cy="-490" rx="38.99" ry="18"/>
<text text-anchor="middle" x="699.36" y="-486.3" font-family="Times New Roman,serif" font-size="14.00">stadium</text>
</a>
</g>
</g>
<!-- 103&#45;&gt;stadium_104 -->
<g id="edge28" class="edge">
<title>103&#45;&gt;stadium_104</title>
<path fill="none" stroke="black" d="M612.98,-503.45C625.53,-501.47 639.39,-499.29 652.22,-497.27"/>
<polygon fill="black" stroke="black" points="652.91,-500.7 662.25,-495.69 651.82,-493.79 652.91,-500.7"/>
</g>
<!-- stadium_106 -->
<g id="node31" class="node">
<title>stadium_106</title>
<g id="a_node31"><a xlink:href="javascript:s=&quot;\(&#x27;default&#x27;,\ &#x27;spring_base&#x27;,\ &#x27;handle&#x27;,\ &#x27;element\-10&#x27;,\ &#x27;stadium&#x27;\)\nRotateExtrude&quot;; console.log(s); alert(s);" xlink:title="RotateExtrude">
<ellipse fill="none" stroke="black" cx="699.36" cy="-436" rx="38.99" ry="18"/>
<text text-anchor="middle" x="699.36" y="-432.3" font-family="Times New Roman,serif" font-size="14.00">stadium</text>
</a>
</g>
</g>
<!-- 105&#45;&gt;stadium_106 -->
<g id="edge30" class="edge">
<title>105&#45;&gt;stadium_106</title>
<path fill="none" stroke="black" d="M618.69,-444.16C629.15,-443.09 640.25,-441.95 650.73,-440.88"/>
<polygon fill="black" stroke="black" points="651.37,-444.33 660.96,-439.83 650.66,-437.37 651.37,-444.33"/>
</g>
<!-- cage_108 -->
<g id="node33" class="node">
<title>cage_108</title>
<g id="a_node33"><a xlink:href="javascript:s=&quot;\(&#x27;default&#x27;,\ &#x27;spring_base&#x27;,\ &#x27;handle&#x27;,\ &#x27;element\-11&#x27;,\ &#x27;cage&#x27;\)\nBox&quot;; console.log(s); alert(s);" xlink:title="Box">
<ellipse fill="none" stroke="black" cx="699.36" cy="-382" rx="27.1" ry="18"/>
<text text-anchor="middle" x="699.36" y="-378.3" font-family="Times New Roman,serif" font-size="14.00">cage</text>
</a>
</g>
</g>
<!-- 107&#45;&gt;cage_108 -->
<g id="edge32" class="edge">
<title>107&#45;&gt;cage_108</title>
<path fill="none" stroke="black" d="M620.5,-382C634.12,-382 648.68,-382 661.48,-382"/>
<polygon fill="black" stroke="black" points="661.76,-385.5 671.76,-382 661.76,-378.5 661.76,-385.5"/>
</g>
<!-- stadium_109 -->
<g id="node34" class="node">
<title>stadium_109</title>
<g id="a_node34"><a xlink:href="javascript:s=&quot;\(&#x27;default&#x27;,\ &#x27;spring_base&#x27;,\ &#x27;handle&#x27;,\ &#x27;element\-11&#x27;,\ &#x27;stadium&#x27;\)\nLinearExtrude&quot;; console.log(s); alert(s);" xlink:title="LinearExtrude">
<ellipse fill="none" stroke="black" cx="699.36" cy="-328" rx="38.99" ry="18"/>
<text text-anchor="middle" x="699.36" y="-324.3" font-family="Times New Roman,serif" font-size="14.00">stadium</text>
</a>
</g>
</g>
<!-- 107&#45;&gt;stadium_109 -->
<g id="edge33" class="edge">
<title>107&#45;&gt;stadium_109</title>
<path fill="none" stroke="black" d="M603.45,-368.37C620.88,-360.96 642.55,-351.74 660.78,-343.99"/>
<polygon fill="black" stroke="black" points="662.39,-347.1 670.23,-339.97 659.65,-340.66 662.39,-347.1"/>
</g>
<!-- stadium_111 -->
<g id="node36" class="node">
<title>stadium_111</title>
<g id="a_node36"><a xlink:href="javascript:s=&quot;\(&#x27;default&#x27;,\ &#x27;spring_base&#x27;,\ &#x27;handle&#x27;,\ &#x27;element\-12&#x27;,\ &#x27;stadium&#x27;\)\nRotateExtrude&quot;; console.log(s); alert(s);" xlink:title="RotateExtrude">
<ellipse fill="none" stroke="black" cx="699.36" cy="-274" rx="38.99" ry="18"/>
<text text-anchor="middle" x="699.36" y="-270.3" font-family="Times New Roman,serif" font-size="14.00">stadium</text>
</a>
</g>
</g>
<!-- 110&#45;&gt;stadium_111 -->
<g id="edge35" class="edge">
<title>110&#45;&gt;stadium_111</title>
<path fill="none" stroke="black" d="M608.13,-303.14C623.54,-298.17 641.51,-292.36 657.35,-287.25"/>
<polygon fill="black" stroke="black" points="658.45,-290.57 666.89,-284.17 656.29,-283.91 658.45,-290.57"/>
</g>
<!-- cage_113 -->
<g id="node38" class="node">
<title>cage_113</title>
<g id="a_node38"><a xlink:href="javascript:s=&quot;\(&#x27;default&#x27;,\ &#x27;spring_base&#x27;,\ &#x27;handle&#x27;,\ &#x27;element\-13&#x27;,\ &#x27;cage&#x27;\)\nBox&quot;; console.log(s); alert(s);" xlink:title="Box">
<ellipse fill="none" stroke="black" cx="699.36" cy="-220" rx="27.1" ry="18"/>
<text text-anchor="middle" x="699.36" y="-216.3" font-family="Times New Roman,serif" font-size="14.00">cage</text>
</a>
</g>
</g>
<!-- 112&#45;&gt;cage_113 -->
<g id="edge37" class="edge">
<title>112&#45;&gt;cage_113</title>
<path fill="none" stroke="black" d="M618.69,-228.79C632.92,-227.22 648.33,-225.52 661.76,-224.04"/>
<polygon fill="black" stroke="black" points="662.5,-227.48 672.06,-222.9 661.73,-220.52 662.5,-227.48"/>
</g>
<!-- stadium_114 -->
<g id="node39" class="node">
<title>stadium_114</title>
<g id="a_node39"><a xlink:href="javascript:s=&quot;\(&#x27;default&#x27;,\ &#x27;spring_base&#x27;,\ &#x27;handle&#x27;,\ &#x27;element\-13&#x27;,\ &#x27;stadium&#x27;\)\nLinearExtrude&quot;; console.log(s); alert(s);" xlink:title="LinearExtrude">
<ellipse fill="none" stroke="black" cx="699.36" cy="-166" rx="38.99" ry="18"/>
<text text-anchor="middle" x="699.36" y="-162.3" font-family="Times New Roman,serif" font-size="14.00">stadium</text>
</a>
</g>
</g>
<!-- 112&#45;&gt;stadium_114 -->
<g id="edge38" class="edge">
<title>112&#45;&gt;stadium_114</title>
<path fill="none" stroke="black" d="M600.36,-219.47C608.18,-215.48 616.62,-211.12 624.36,-207 637.72,-199.9 652.31,-191.87 664.97,-184.82"/>
<polygon fill="black" stroke="black" points="666.79,-187.81 673.81,-179.88 663.37,-181.7 666.79,-187.81"/>
</g>
<!-- stadium_116 -->
<g id="node41" class="node">
<title>stadium_116</title>
<g id="a_node41"><a xlink:href="javascript:s=&quot;\(&#x27;default&#x27;,\ &#x27;spring_base&#x27;,\ &#x27;handle&#x27;,\ &#x27;element\-14&#x27;,\ &#x27;stadium&#x27;\)\nRotateExtrude&quot;; console.log(s); alert(s);" xlink:title="RotateExtrude">
<ellipse fill="none" stroke="black" cx="699.36" cy="-112" rx="38.99" ry="18"/>
<text text-anchor="middle" x="699.36" y="-108.3" font-family="Times New Roman,serif" font-size="14.00">stadium</text>
</a>
</g>
</g>
<!-- 115&#45;&gt;stadium_116 -->
<g id="edge40" class="edge">
<title>115&#45;&gt;stadium_116</title>
<path fill="none" stroke="black" d="M600.36,-165.47C608.18,-161.48 616.62,-157.12 624.36,-153 637.72,-145.9 652.31,-137.87 664.97,-130.82"/>
<polygon fill="black" stroke="black" points="666.79,-133.81 673.81,-125.88 663.37,-127.7 666.79,-133.81"/>
</g>
<!-- stadium_118 -->
<g id="node43" class="node">
<title>stadium_118</title>
<g id="a_node43"><a xlink:href="javascript:s=&quot;\(&#x27;default&#x27;,\ &#x27;spring_base&#x27;,\ &#x27;handle&#x27;,\ &#x27;element\-15&#x27;,\ &#x27;stadium&#x27;\)\nRotateExtrude&quot;; console.log(s); alert(s);" xlink:title="RotateExtrude">
<ellipse fill="none" stroke="black" cx="699.36" cy="-58" rx="38.99" ry="18"/>
<text text-anchor="middle" x="699.36" y="-54.3" font-family="Times New Roman,serif" font-size="14.00">stadium</text>
</a>
</g>
</g>
<!-- 117&#45;&gt;stadium_118 -->
<g id="edge42" class="edge">
<title>117&#45;&gt;stadium_118</title>
<path fill="none" stroke="black" d="M600.36,-111.47C608.18,-107.48 616.62,-103.12 624.36,-99 637.72,-91.9 652.31,-83.87 664.97,-76.82"/>
<polygon fill="black" stroke="black" points="666.79,-79.81 673.81,-71.88 663.37,-73.7 666.79,-79.81"/>
</g>
<!-- inner_hole_120 -->
<g id="node45" class="node">
<title>inner_hole_120</title>
<g id="a_node45"><a xlink:href="javascript:s=&quot;\(&#x27;default&#x27;,\ &#x27;mount&#x27;,\ &#x27;inner_hole&#x27;\)\nLinearExtrude&quot;; console.log(s); alert(s);" xlink:title="LinearExtrude">
<ellipse fill="none" stroke="black" cx="410.93" cy="-254" rx="48.19" ry="18"/>
<text text-anchor="middle" x="410.93" y="-250.3" font-family="Times New Roman,serif" font-size="14.00">inner_hole</text>
</a>
</g>
</g>
<!-- mount_119&#45;&gt;inner_hole_120 -->
<g id="edge44" class="edge">
<title>mount_119&#45;&gt;inner_hole_120</title>
<path fill="none" stroke="black" d="M283.41,-232.4C304.39,-235.98 332.44,-240.77 356.8,-244.93"/>
<polygon fill="black" stroke="black" points="356.53,-248.43 366.98,-246.67 357.71,-241.53 356.53,-248.43"/>
</g>
<!-- inner_top_121 -->
<g id="node46" class="node">
<title>inner_top_121</title>
<g id="a_node46"><a xlink:href="javascript:s=&quot;\(&#x27;default&#x27;,\ &#x27;mount&#x27;,\ &#x27;inner_top&#x27;\)\nLinearExtrude&quot;; console.log(s); alert(s);" xlink:title="LinearExtrude">
<ellipse fill="none" stroke="black" cx="410.93" cy="-200" rx="45.49" ry="18"/>
<text text-anchor="middle" x="410.93" y="-196.3" font-family="Times New Roman,serif" font-size="14.00">inner_top</text>
</a>
</g>
</g>
<!-- mount_119&#45;&gt;inner_top_121 -->
<g id="edge45" class="edge">
<title>mount_119&#45;&gt;inner_top_121</title>
<path fill="none" stroke="black" d="M283.41,-221.6C304.96,-217.92 333.97,-212.97 358.77,-208.73"/>
<polygon fill="black" stroke="black" points="359.48,-212.16 368.75,-207.03 358.31,-205.26 359.48,-212.16"/>
</g>
<!-- cut_recess_hole_122 -->
<g id="node47" class="node">
<title>cut_recess_hole_122</title>
<g id="a_node47"><a xlink:href="javascript:s=&quot;\(&#x27;default&#x27;,\ &#x27;mount&#x27;,\ &#x27;cut_recess_hole&#x27;\)\nMaker&quot;; console.log(s); alert(s);" xlink:title="Maker">
<ellipse fill="none" stroke="black" cx="410.93" cy="-72" rx="69.59" ry="18"/>
<text text-anchor="middle" x="410.93" y="-68.3" font-family="Times New Roman,serif" font-size="14.00">cut_recess_hole</text>
</a>
</g>
</g>
<!-- mount_119&#45;&gt;cut_recess_hole_122 -->
<g id="edge46" class="edge">
<title>mount_119&#45;&gt;cut_recess_hole_122</title>
<path fill="none" stroke="black" d="M267.82,-211.28C295.3,-184.35 351.6,-129.17 384.49,-96.93"/>
<polygon fill="black" stroke="black" points="387.23,-99.15 391.92,-89.65 382.33,-94.15 387.23,-99.15"/>
</g>
<!-- recess_hole_123 -->
<g id="node48" class="node">
<title>recess_hole_123</title>
<g id="a_node48"><a xlink:href="javascript:s=&quot;\(&#x27;default&#x27;,\ &#x27;mount&#x27;,\ &#x27;cut_recess_hole&#x27;,\ &#x27;recess_hole&#x27;\)\nLinearExtrude&quot;; console.log(s); alert(s);" xlink:title="LinearExtrude">
<ellipse fill="none" stroke="black" cx="570.42" cy="-72" rx="53.89" ry="18"/>
<text text-anchor="middle" x="570.42" y="-68.3" font-family="Times New Roman,serif" font-size="14.00">recess_hole</text>
</a>
</g>
</g>
<!-- cut_recess_hole_122&#45;&gt;recess_hole_123 -->
<g id="edge47" class="edge">
<title>cut_recess_hole_122&#45;&gt;recess_hole_123</title>
<path fill="none" stroke="black" d="M480.55,-72C489.03,-72 497.68,-72 506.08,-72"/>
<polygon fill="black" stroke="black" points="506.18,-75.5 516.18,-72 506.18,-68.5 506.18,-75.5"/>
</g>
<!-- cut_box_124 -->
<g id="node49" class="node">
<title>cut_box_124</title>
<g id="a_node49"><a xlink:href="javascript:s=&quot;\(&#x27;default&#x27;,\ &#x27;mount&#x27;,\ &#x27;cut_recess_hole&#x27;,\ &#x27;cut_box&#x27;\)\nBox&quot;; console.log(s); alert(s);" xlink:title="Box">
<ellipse fill="none" stroke="black" cx="570.42" cy="-18" rx="40.89" ry="18"/>
<text text-anchor="middle" x="570.42" y="-14.3" font-family="Times New Roman,serif" font-size="14.00">cut_box</text>
</a>
</g>
</g>
<!-- cut_recess_hole_122&#45;&gt;cut_box_124 -->
<g id="edge48" class="edge">
<title>cut_recess_hole_122&#45;&gt;cut_box_124</title>
<path fill="none" stroke="black" d="M453.72,-57.67C476.58,-49.83 504.82,-40.15 527.67,-32.31"/>
<polygon fill="black" stroke="black" points="529.1,-35.52 537.43,-28.97 526.83,-28.9 529.1,-35.52"/>
</g>
</g>
</svg>
