<?xml version="1.0" encoding="UTF-8" standalone="no"?>
<!DOCTYPE svg PUBLIC "-//W3C//DTD SVG 1.1//EN"
 "http://www.w3.org/Graphics/SVG/1.1/DTD/svg11.dtd">
<!-- Generated by graphviz version 5.0.0 (20220707.1540)
 -->
<!-- Title: default Pages: 1 -->
<svg width="582pt" height="341pt"
 viewBox="0.00 0.00 581.67 341.00" xmlns="http://www.w3.org/2000/svg" xmlns:xlink="http://www.w3.org/1999/xlink">
<g id="graph0" class="graph" transform="scale(1 1) rotate(0) translate(4 337)">
<title>default</title>
<polygon fill="white" stroke="transparent" points="-4,4 -4,-337 577.67,-337 577.67,4 -4,4"/>
<!-- root_1 -->
<g id="node1" class="node">
<title>root_1</title>
<g id="a_node1"><a xlink:href="javascript:s=&quot;\(\)\nNone&quot;; console.log(s); alert(s);" xlink:title="root">
<ellipse fill="none" stroke="black" cx="27" cy="-180" rx="27" ry="18"/>
<text text-anchor="middle" x="27" y="-176.3" font-family="Times New Roman,serif" font-size="14.00">root</text>
</a>
</g>
</g>
<!-- default_2 -->
<g id="node2" class="node">
<title>default_2</title>
<g id="a_node2"><a xlink:href="javascript:s=&quot;\(&#x27;default&#x27;,\)\nShapeName&quot;; console.log(s); alert(s);" xlink:title="ShapeName">
<ellipse fill="none" stroke="black" cx="172.54" cy="-247" rx="35.19" ry="18"/>
<text text-anchor="middle" x="172.54" y="-243.3" font-family="Times New Roman,serif" font-size="14.00">default</text>
</a>
</g>
</g>
<!-- root_1&#45;&gt;default_2 -->
<g id="edge1" class="edge">
<title>root_1&#45;&gt;default_2</title>
<path fill="none" stroke="black" d="M49.49,-190.03C72.58,-200.81 109.61,-218.09 136.84,-230.8"/>
<polygon fill="black" stroke="black" points="135.48,-234.03 146.02,-235.09 138.44,-227.69 135.48,-234.03"/>
</g>
<!-- 4 -->
<g id="node4" class="node">
<title>4</title>
<g id="a_node4"><a xlink:href="javascript:s=&quot;\(&quot;&#x27;face_centre&#x27;,\ &#x27;top&#x27;,\ &quot;,\)\nAnnotatedCoordinates&quot;; console.log(s); alert(s);" xlink:title="AnnotatedCoordinates">
<ellipse fill="none" stroke="black" cx="172.54" cy="-153" rx="82.59" ry="18"/>
<text text-anchor="middle" x="172.54" y="-149.3" font-family="Times New Roman,serif" font-size="14.00">&#39;face_centre&#39;, &#39;top&#39;, </text>
</a>
</g>
</g>
<!-- root_1&#45;&gt;4 -->
<g id="edge3" class="edge">
<title>root_1&#45;&gt;4</title>
<path fill="none" stroke="black" d="M53.33,-175.24C66.26,-172.8 82.72,-169.71 99.21,-166.61"/>
<polygon fill="black" stroke="black" points="100.27,-169.97 109.46,-164.68 98.98,-163.09 100.27,-169.97"/>
</g>
<!-- box_3 -->
<g id="node3" class="node">
<title>box_3</title>
<g id="a_node3"><a xlink:href="javascript:s=&quot;\(&#x27;default&#x27;,\ &#x27;box&#x27;\)\nBox&quot;; console.log(s); alert(s);" xlink:title="Box">
<ellipse fill="none" stroke="black" cx="327.48" cy="-288" rx="27" ry="18"/>
<text text-anchor="middle" x="327.48" y="-284.3" font-family="Times New Roman,serif" font-size="14.00">box</text>
</a>
</g>
</g>
<!-- default_2&#45;&gt;box_3 -->
<g id="edge2" class="edge">
<title>default_2&#45;&gt;box_3</title>
<path fill="none" stroke="black" d="M204.12,-255.2C229.52,-262.01 265.63,-271.69 292.04,-278.77"/>
<polygon fill="black" stroke="black" points="291.43,-282.23 302,-281.44 293.24,-275.47 291.43,-282.23"/>
</g>
<!-- coords_5 -->
<g id="node5" class="node">
<title>coords_5</title>
<g id="a_node5"><a xlink:href="javascript:s=&quot;\(&quot;&#x27;face_centre&#x27;,\ &#x27;top&#x27;,\ &quot;,\ &#x27;coords&#x27;\)\nCoordinates&quot;; console.log(s); alert(s);" xlink:title="Coordinates">
<ellipse fill="none" stroke="black" cx="327.48" cy="-234" rx="36.29" ry="18"/>
<text text-anchor="middle" x="327.48" y="-230.3" font-family="Times New Roman,serif" font-size="14.00">coords</text>
</a>
</g>
</g>
<!-- 4&#45;&gt;coords_5 -->
<g id="edge4" class="edge">
<title>4&#45;&gt;coords_5</title>
<path fill="none" stroke="black" d="M204.86,-169.59C230.39,-183.11 266.38,-202.17 292.58,-216.05"/>
<polygon fill="black" stroke="black" points="291.28,-219.32 301.76,-220.9 294.56,-213.13 291.28,-219.32"/>
</g>
<!-- x_16 -->
<g id="node16" class="node">
<title>x_16</title>
<g id="a_node16"><a xlink:href="javascript:s=&quot;\(&quot;&#x27;face_centre&#x27;,\ &#x27;top&#x27;,\ &quot;,\ &#x27;x&#x27;\)\nText&quot;; console.log(s); alert(s);" xlink:title="Text">
<ellipse fill="none" stroke="black" cx="327.48" cy="-180" rx="27" ry="18"/>
<text text-anchor="middle" x="327.48" y="-176.3" font-family="Times New Roman,serif" font-size="14.00">x</text>
</a>
</g>
</g>
<!-- 4&#45;&gt;x_16 -->
<g id="edge15" class="edge">
<title>4&#45;&gt;x_16</title>
<path fill="none" stroke="black" d="M237.52,-164.29C255.91,-167.54 275.3,-170.97 291.27,-173.78"/>
<polygon fill="black" stroke="black" points="290.77,-177.25 301.22,-175.54 291.98,-170.36 290.77,-177.25"/>
</g>
<!-- y_17 -->
<g id="node17" class="node">
<title>y_17</title>
<g id="a_node17"><a xlink:href="javascript:s=&quot;\(&quot;&#x27;face_centre&#x27;,\ &#x27;top&#x27;,\ &quot;,\ &#x27;y&#x27;\)\nText&quot;; console.log(s); alert(s);" xlink:title="Text">
<ellipse fill="none" stroke="black" cx="327.48" cy="-126" rx="27" ry="18"/>
<text text-anchor="middle" x="327.48" y="-122.3" font-family="Times New Roman,serif" font-size="14.00">y</text>
</a>
</g>
</g>
<!-- 4&#45;&gt;y_17 -->
<g id="edge16" class="edge">
<title>4&#45;&gt;y_17</title>
<path fill="none" stroke="black" d="M237.52,-141.71C255.91,-138.46 275.3,-135.03 291.27,-132.22"/>
<polygon fill="black" stroke="black" points="291.98,-135.64 301.22,-130.46 290.77,-128.75 291.98,-135.64"/>
</g>
<!-- z_18 -->
<g id="node18" class="node">
<title>z_18</title>
<g id="a_node18"><a xlink:href="javascript:s=&quot;\(&quot;&#x27;face_centre&#x27;,\ &#x27;top&#x27;,\ &quot;,\ &#x27;z&#x27;\)\nText&quot;; console.log(s); alert(s);" xlink:title="Text">
<ellipse fill="none" stroke="black" cx="327.48" cy="-72" rx="27" ry="18"/>
<text text-anchor="middle" x="327.48" y="-68.3" font-family="Times New Roman,serif" font-size="14.00">z</text>
</a>
</g>
</g>
<!-- 4&#45;&gt;z_18 -->
<g id="edge17" class="edge">
<title>4&#45;&gt;z_18</title>
<path fill="none" stroke="black" d="M204.86,-136.41C231.79,-122.15 270.36,-101.72 296.8,-87.72"/>
<polygon fill="black" stroke="black" points="298.76,-90.65 305.95,-82.87 295.48,-84.46 298.76,-90.65"/>
</g>
<!-- label_19 -->
<g id="node19" class="node">
<title>label_19</title>
<g id="a_node19"><a xlink:href="javascript:s=&quot;\(&quot;&#x27;face_centre&#x27;,\ &#x27;top&#x27;,\ &quot;,\ &#x27;label&#x27;\)\nText&quot;; console.log(s); alert(s);" xlink:title="Text">
<ellipse fill="none" stroke="black" cx="327.48" cy="-18" rx="27.1" ry="18"/>
<text text-anchor="middle" x="327.48" y="-14.3" font-family="Times New Roman,serif" font-size="14.00">label</text>
</a>
</g>
</g>
<!-- 4&#45;&gt;label_19 -->
<g id="edge18" class="edge">
<title>4&#45;&gt;label_19</title>
<path fill="none" stroke="black" d="M191.8,-135.25C214.52,-113.4 254.76,-75.43 291.09,-45 294.13,-42.45 297.38,-39.83 300.63,-37.28"/>
<polygon fill="black" stroke="black" points="302.8,-40.02 308.59,-31.15 298.53,-34.48 302.8,-40.02"/>
</g>
<!-- origin_6 -->
<g id="node6" class="node">
<title>origin_6</title>
<g id="a_node6"><a xlink:href="javascript:s=&quot;\(&quot;&#x27;face_centre&#x27;,\ &#x27;top&#x27;,\ &quot;,\ &#x27;coords&#x27;,\ &#x27;origin&#x27;\)\nCoordinatesCage&quot;; console.log(s); alert(s);" xlink:title="CoordinatesCage">
<ellipse fill="none" stroke="black" cx="440.83" cy="-315" rx="31.4" ry="18"/>
<text text-anchor="middle" x="440.83" y="-311.3" font-family="Times New Roman,serif" font-size="14.00">origin</text>
</a>
</g>
</g>
<!-- coords_5&#45;&gt;origin_6 -->
<g id="edge5" class="edge">
<title>coords_5&#45;&gt;origin_6</title>
<path fill="none" stroke="black" d="M348.22,-249.01C367.53,-263.69 394.76,-284.34 399.88,-288 403.4,-290.52 407.13,-293.13 410.84,-295.68"/>
<polygon fill="black" stroke="black" points="409.12,-298.74 419.36,-301.47 413.06,-292.95 409.12,-298.74"/>
</g>
<!-- x_arrow_7 -->
<g id="node7" class="node">
<title>x_arrow_7</title>
<g id="a_node7"><a xlink:href="javascript:s=&quot;\(&quot;&#x27;face_centre&#x27;,\ &#x27;top&#x27;,\ &quot;,\ &#x27;coords&#x27;,\ &#x27;x_arrow&#x27;\)\nArrow&quot;; console.log(s); alert(s);" xlink:title="Arrow">
<ellipse fill="none" stroke="black" cx="440.83" cy="-261" rx="40.89" ry="18"/>
<text text-anchor="middle" x="440.83" y="-257.3" font-family="Times New Roman,serif" font-size="14.00">x_arrow</text>
</a>
</g>
</g>
<!-- coords_5&#45;&gt;x_arrow_7 -->
<g id="edge6" class="edge">
<title>coords_5&#45;&gt;x_arrow_7</title>
<path fill="none" stroke="black" d="M360.39,-241.74C371.02,-244.32 383.09,-247.24 394.54,-250.02"/>
<polygon fill="black" stroke="black" points="393.85,-253.45 404.4,-252.41 395.5,-246.65 393.85,-253.45"/>
</g>
<!-- y_arrow_10 -->
<g id="node10" class="node">
<title>y_arrow_10</title>
<g id="a_node10"><a xlink:href="javascript:s=&quot;\(&quot;&#x27;face_centre&#x27;,\ &#x27;top&#x27;,\ &quot;,\ &#x27;coords&#x27;,\ &#x27;y_arrow&#x27;\)\nArrow&quot;; console.log(s); alert(s);" xlink:title="Arrow">
<ellipse fill="none" stroke="black" cx="440.83" cy="-207" rx="40.89" ry="18"/>
<text text-anchor="middle" x="440.83" y="-203.3" font-family="Times New Roman,serif" font-size="14.00">y_arrow</text>
</a>
</g>
</g>
<!-- coords_5&#45;&gt;y_arrow_10 -->
<g id="edge9" class="edge">
<title>coords_5&#45;&gt;y_arrow_10</title>
<path fill="none" stroke="black" d="M360.39,-226.26C371.02,-223.68 383.09,-220.76 394.54,-217.98"/>
<polygon fill="black" stroke="black" points="395.5,-221.35 404.4,-215.59 393.85,-214.55 395.5,-221.35"/>
</g>
<!-- z_arrow_13 -->
<g id="node13" class="node">
<title>z_arrow_13</title>
<g id="a_node13"><a xlink:href="javascript:s=&quot;\(&quot;&#x27;face_centre&#x27;,\ &#x27;top&#x27;,\ &quot;,\ &#x27;coords&#x27;,\ &#x27;z_arrow&#x27;\)\nArrow&quot;; console.log(s); alert(s);" xlink:title="Arrow">
<ellipse fill="none" stroke="black" cx="440.83" cy="-99" rx="40.09" ry="18"/>
<text text-anchor="middle" x="440.83" y="-95.3" font-family="Times New Roman,serif" font-size="14.00">z_arrow</text>
</a>
</g>
</g>
<!-- coords_5&#45;&gt;z_arrow_13 -->
<g id="edge12" class="edge">
<title>coords_5&#45;&gt;z_arrow_13</title>
<path fill="none" stroke="black" d="M349.59,-219.58C354.53,-215.76 359.59,-211.46 363.88,-207 388.04,-181.88 410.29,-148.5 424.38,-125.54"/>
<polygon fill="black" stroke="black" points="427.55,-127.05 429.72,-116.68 421.56,-123.44 427.55,-127.05"/>
</g>
<!-- stem_8 -->
<g id="node8" class="node">
<title>stem_8</title>
<g id="a_node8"><a xlink:href="javascript:s=&quot;\(&quot;&#x27;face_centre&#x27;,\ &#x27;top&#x27;,\ &quot;,\ &#x27;coords&#x27;,\ &#x27;x_arrow&#x27;,\ &#x27;stem&#x27;\)\nCone&quot;; console.log(s); alert(s);" xlink:title="Cone">
<ellipse fill="none" stroke="black" cx="545.72" cy="-315" rx="27.9" ry="18"/>
<text text-anchor="middle" x="545.72" y="-311.3" font-family="Times New Roman,serif" font-size="14.00">stem</text>
</a>
</g>
</g>
<!-- x_arrow_7&#45;&gt;stem_8 -->
<g id="edge7" class="edge">
<title>x_arrow_7&#45;&gt;stem_8</title>
<path fill="none" stroke="black" d="M467.79,-274.63C481.95,-282.06 499.56,-291.3 514.36,-299.07"/>
<polygon fill="black" stroke="black" points="513.13,-302.37 523.61,-303.92 516.38,-296.18 513.13,-302.37"/>
</g>
<!-- head_9 -->
<g id="node9" class="node">
<title>head_9</title>
<g id="a_node9"><a xlink:href="javascript:s=&quot;\(&quot;&#x27;face_centre&#x27;,\ &#x27;top&#x27;,\ &quot;,\ &#x27;coords&#x27;,\ &#x27;x_arrow&#x27;,\ &#x27;head&#x27;\)\nCone&quot;; console.log(s); alert(s);" xlink:title="Cone">
<ellipse fill="none" stroke="black" cx="545.72" cy="-261" rx="27.9" ry="18"/>
<text text-anchor="middle" x="545.72" y="-257.3" font-family="Times New Roman,serif" font-size="14.00">head</text>
</a>
</g>
</g>
<!-- x_arrow_7&#45;&gt;head_9 -->
<g id="edge8" class="edge">
<title>x_arrow_7&#45;&gt;head_9</title>
<path fill="none" stroke="black" d="M481.9,-261C490.31,-261 499.15,-261 507.45,-261"/>
<polygon fill="black" stroke="black" points="507.61,-264.5 517.61,-261 507.61,-257.5 507.61,-264.5"/>
</g>
<!-- stem_11 -->
<g id="node11" class="node">
<title>stem_11</title>
<g id="a_node11"><a xlink:href="javascript:s=&quot;\(&quot;&#x27;face_centre&#x27;,\ &#x27;top&#x27;,\ &quot;,\ &#x27;coords&#x27;,\ &#x27;y_arrow&#x27;,\ &#x27;stem&#x27;\)\nCone&quot;; console.log(s); alert(s);" xlink:title="Cone">
<ellipse fill="none" stroke="black" cx="545.72" cy="-207" rx="27.9" ry="18"/>
<text text-anchor="middle" x="545.72" y="-203.3" font-family="Times New Roman,serif" font-size="14.00">stem</text>
</a>
</g>
</g>
<!-- y_arrow_10&#45;&gt;stem_11 -->
<g id="edge10" class="edge">
<title>y_arrow_10&#45;&gt;stem_11</title>
<path fill="none" stroke="black" d="M481.9,-207C490.31,-207 499.15,-207 507.45,-207"/>
<polygon fill="black" stroke="black" points="507.61,-210.5 517.61,-207 507.61,-203.5 507.61,-210.5"/>
</g>
<!-- head_12 -->
<g id="node12" class="node">
<title>head_12</title>
<g id="a_node12"><a xlink:href="javascript:s=&quot;\(&quot;&#x27;face_centre&#x27;,\ &#x27;top&#x27;,\ &quot;,\ &#x27;coords&#x27;,\ &#x27;y_arrow&#x27;,\ &#x27;head&#x27;\)\nCone&quot;; console.log(s); alert(s);" xlink:title="Cone">
<ellipse fill="none" stroke="black" cx="545.72" cy="-153" rx="27.9" ry="18"/>
<text text-anchor="middle" x="545.72" y="-149.3" font-family="Times New Roman,serif" font-size="14.00">head</text>
</a>
</g>
</g>
<!-- y_arrow_10&#45;&gt;head_12 -->
<g id="edge11" class="edge">
<title>y_arrow_10&#45;&gt;head_12</title>
<path fill="none" stroke="black" d="M467.79,-193.37C481.95,-185.94 499.56,-176.7 514.36,-168.93"/>
<polygon fill="black" stroke="black" points="516.38,-171.82 523.61,-164.08 513.13,-165.63 516.38,-171.82"/>
</g>
<!-- stem_14 -->
<g id="node14" class="node">
<title>stem_14</title>
<g id="a_node14"><a xlink:href="javascript:s=&quot;\(&quot;&#x27;face_centre&#x27;,\ &#x27;top&#x27;,\ &quot;,\ &#x27;coords&#x27;,\ &#x27;z_arrow&#x27;,\ &#x27;stem&#x27;\)\nCone&quot;; console.log(s); alert(s);" xlink:title="Cone">
<ellipse fill="none" stroke="black" cx="545.72" cy="-99" rx="27.9" ry="18"/>
<text text-anchor="middle" x="545.72" y="-95.3" font-family="Times New Roman,serif" font-size="14.00">stem</text>
</a>
</g>
</g>
<!-- z_arrow_13&#45;&gt;stem_14 -->
<g id="edge13" class="edge">
<title>z_arrow_13&#45;&gt;stem_14</title>
<path fill="none" stroke="black" d="M481.31,-99C489.93,-99 499.03,-99 507.56,-99"/>
<polygon fill="black" stroke="black" points="507.61,-102.5 517.61,-99 507.61,-95.5 507.61,-102.5"/>
</g>
<!-- head_15 -->
<g id="node15" class="node">
<title>head_15</title>
<g id="a_node15"><a xlink:href="javascript:s=&quot;\(&quot;&#x27;face_centre&#x27;,\ &#x27;top&#x27;,\ &quot;,\ &#x27;coords&#x27;,\ &#x27;z_arrow&#x27;,\ &#x27;head&#x27;\)\nCone&quot;; console.log(s); alert(s);" xlink:title="Cone">
<ellipse fill="none" stroke="black" cx="545.72" cy="-45" rx="27.9" ry="18"/>
<text text-anchor="middle" x="545.72" y="-41.3" font-family="Times New Roman,serif" font-size="14.00">head</text>
</a>
</g>
</g>
<!-- z_arrow_13&#45;&gt;head_15 -->
<g id="edge14" class="edge">
<title>z_arrow_13&#45;&gt;head_15</title>
<path fill="none" stroke="black" d="M467.52,-85.51C481.82,-78.01 499.69,-68.63 514.63,-60.79"/>
<polygon fill="black" stroke="black" points="516.27,-63.88 523.5,-56.14 513.02,-57.68 516.27,-63.88"/>
</g>
</g>
</svg>
