<?xml version="1.0" encoding="UTF-8" standalone="no"?>
<!DOCTYPE svg PUBLIC "-//W3C//DTD SVG 1.1//EN"
 "http://www.w3.org/Graphics/SVG/1.1/DTD/svg11.dtd">
<!-- Generated by graphviz version 5.0.0 (20220707.1540)
 -->
<!-- Title: default Pages: 1 -->
<svg width="470pt" height="314pt"
 viewBox="0.00 0.00 470.27 314.00" xmlns="http://www.w3.org/2000/svg" xmlns:xlink="http://www.w3.org/1999/xlink">
<g id="graph0" class="graph" transform="scale(1 1) rotate(0) translate(4 310)">
<title>default</title>
<polygon fill="white" stroke="transparent" points="-4,4 -4,-310 466.27,-310 466.27,4 -4,4"/>
<!-- root_7 -->
<g id="node1" class="node">
<title>root_7</title>
<g id="a_node1"><a xlink:href="javascript:s=&quot;\(\)\nNone&quot;; console.log(s); alert(s);" xlink:title="root">
<ellipse fill="none" stroke="black" cx="27" cy="-180" rx="27" ry="18"/>
<text text-anchor="middle" x="27" y="-176.3" font-family="Times New Roman,serif" font-size="14.00">root</text>
</a>
</g>
</g>
<!-- default_8 -->
<g id="node2" class="node">
<title>default_8</title>
<g id="a_node2"><a xlink:href="javascript:s=&quot;\(&#x27;default&#x27;,\)\nDc022aHousing&quot;; console.log(s); alert(s);" xlink:title="Dc022aHousing">
<ellipse fill="none" stroke="black" cx="125.1" cy="-180" rx="35.19" ry="18"/>
<text text-anchor="middle" x="125.1" y="-176.3" font-family="Times New Roman,serif" font-size="14.00">default</text>
</a>
</g>
</g>
<!-- root_7&#45;&gt;default_8 -->
<g id="edge1" class="edge">
<title>root_7&#45;&gt;default_8</title>
<path fill="none" stroke="black" d="M54.01,-180C61.92,-180 70.84,-180 79.61,-180"/>
<polygon fill="black" stroke="black" points="79.76,-183.5 89.76,-180 79.76,-176.5 79.76,-183.5"/>
</g>
<!-- extender_9 -->
<g id="node3" class="node">
<title>extender_9</title>
<g id="a_node3"><a xlink:href="javascript:s=&quot;\(&#x27;default&#x27;,\ &#x27;extender&#x27;\)\nStadiumPrism&quot;; console.log(s); alert(s);" xlink:title="StadiumPrism">
<ellipse fill="none" stroke="black" cx="237.79" cy="-234" rx="41.69" ry="18"/>
<text text-anchor="middle" x="237.79" y="-230.3" font-family="Times New Roman,serif" font-size="14.00">extender</text>
</a>
</g>
</g>
<!-- default_8&#45;&gt;extender_9 -->
<g id="edge2" class="edge">
<title>default_8&#45;&gt;extender_9</title>
<path fill="none" stroke="black" d="M151.21,-192.25C165.72,-199.33 184.22,-208.35 200.3,-216.2"/>
<polygon fill="black" stroke="black" points="198.92,-219.42 209.45,-220.66 201.99,-213.13 198.92,-219.42"/>
</g>
<!-- housing_12 -->
<g id="node6" class="node">
<title>housing_12</title>
<g id="a_node6"><a xlink:href="javascript:s=&quot;\(&#x27;default&#x27;,\ &#x27;housing&#x27;\)\nDC022A&quot;; console.log(s); alert(s);" xlink:title="DC022A">
<ellipse fill="none" stroke="black" cx="237.79" cy="-126" rx="38.99" ry="18"/>
<text text-anchor="middle" x="237.79" y="-122.3" font-family="Times New Roman,serif" font-size="14.00">housing</text>
</a>
</g>
</g>
<!-- default_8&#45;&gt;housing_12 -->
<g id="edge5" class="edge">
<title>default_8&#45;&gt;housing_12</title>
<path fill="none" stroke="black" d="M151.21,-167.75C165.93,-160.57 184.76,-151.38 201.01,-143.45"/>
<polygon fill="black" stroke="black" points="202.77,-146.49 210.23,-138.96 199.71,-140.2 202.77,-146.49"/>
</g>
<!-- cage_10 -->
<g id="node4" class="node">
<title>cage_10</title>
<g id="a_node4"><a xlink:href="javascript:s=&quot;\(&#x27;default&#x27;,\ &#x27;extender&#x27;,\ &#x27;cage&#x27;\)\nBox&quot;; console.log(s); alert(s);" xlink:title="Box">
<ellipse fill="none" stroke="black" cx="388.83" cy="-288" rx="27.1" ry="18"/>
<text text-anchor="middle" x="388.83" y="-284.3" font-family="Times New Roman,serif" font-size="14.00">cage</text>
</a>
</g>
</g>
<!-- extender_9&#45;&gt;cage_10 -->
<g id="edge3" class="edge">
<title>extender_9&#45;&gt;cage_10</title>
<path fill="none" stroke="black" d="M270.4,-245.45C295.29,-254.47 329.88,-267 355.06,-276.13"/>
<polygon fill="black" stroke="black" points="353.96,-279.45 364.55,-279.57 356.34,-272.87 353.96,-279.45"/>
</g>
<!-- stadium_11 -->
<g id="node5" class="node">
<title>stadium_11</title>
<g id="a_node5"><a xlink:href="javascript:s=&quot;\(&#x27;default&#x27;,\ &#x27;extender&#x27;,\ &#x27;stadium&#x27;\)\nLinearExtrude&quot;; console.log(s); alert(s);" xlink:title="LinearExtrude">
<ellipse fill="none" stroke="black" cx="388.83" cy="-234" rx="38.99" ry="18"/>
<text text-anchor="middle" x="388.83" y="-230.3" font-family="Times New Roman,serif" font-size="14.00">stadium</text>
</a>
</g>
</g>
<!-- extender_9&#45;&gt;stadium_11 -->
<g id="edge4" class="edge">
<title>extender_9&#45;&gt;stadium_11</title>
<path fill="none" stroke="black" d="M279.52,-234C298.07,-234 320.18,-234 339.56,-234"/>
<polygon fill="black" stroke="black" points="339.71,-237.5 349.71,-234 339.71,-230.5 339.71,-237.5"/>
</g>
<!-- outer_13 -->
<g id="node7" class="node">
<title>outer_13</title>
<g id="a_node7"><a xlink:href="javascript:s=&quot;\(&#x27;default&#x27;,\ &#x27;housing&#x27;,\ &#x27;outer&#x27;\)\nCylinder&quot;; console.log(s); alert(s);" xlink:title="Cylinder">
<ellipse fill="none" stroke="black" cx="388.83" cy="-180" rx="29.5" ry="18"/>
<text text-anchor="middle" x="388.83" y="-176.3" font-family="Times New Roman,serif" font-size="14.00">outer</text>
</a>
</g>
</g>
<!-- housing_12&#45;&gt;outer_13 -->
<g id="edge6" class="edge">
<title>housing_12&#45;&gt;outer_13</title>
<path fill="none" stroke="black" d="M268.95,-136.93C293.43,-145.8 327.95,-158.3 353.49,-167.56"/>
<polygon fill="black" stroke="black" points="352.55,-170.94 363.14,-171.05 354.93,-164.36 352.55,-170.94"/>
</g>
<!-- body_14 -->
<g id="node8" class="node">
<title>body_14</title>
<g id="a_node8"><a xlink:href="javascript:s=&quot;\(&#x27;default&#x27;,\ &#x27;housing&#x27;,\ &#x27;body&#x27;\)\nLinearExtrude&quot;; console.log(s); alert(s);" xlink:title="LinearExtrude">
<ellipse fill="none" stroke="black" cx="388.83" cy="-126" rx="29.8" ry="18"/>
<text text-anchor="middle" x="388.83" y="-122.3" font-family="Times New Roman,serif" font-size="14.00">body</text>
</a>
</g>
</g>
<!-- housing_12&#45;&gt;body_14 -->
<g id="edge7" class="edge">
<title>housing_12&#45;&gt;body_14</title>
<path fill="none" stroke="black" d="M277.17,-126C299.06,-126 326.44,-126 348.49,-126"/>
<polygon fill="black" stroke="black" points="348.52,-129.5 358.52,-126 348.52,-122.5 348.52,-129.5"/>
</g>
<!-- top_access_hole_15 -->
<g id="node9" class="node">
<title>top_access_hole_15</title>
<g id="a_node9"><a xlink:href="javascript:s=&quot;\(&#x27;default&#x27;,\ &#x27;housing&#x27;,\ &#x27;top_access_hole&#x27;\)\nCylinder&quot;; console.log(s); alert(s);" xlink:title="Cylinder">
<ellipse fill="none" stroke="black" cx="388.83" cy="-72" rx="72.29" ry="18"/>
<text text-anchor="middle" x="388.83" y="-68.3" font-family="Times New Roman,serif" font-size="14.00">top_access_hole</text>
</a>
</g>
</g>
<!-- housing_12&#45;&gt;top_access_hole_15 -->
<g id="edge8" class="edge">
<title>housing_12&#45;&gt;top_access_hole_15</title>
<path fill="none" stroke="black" d="M268.95,-115.07C288.6,-107.95 314.72,-98.49 337.47,-90.25"/>
<polygon fill="black" stroke="black" points="338.77,-93.5 346.98,-86.8 336.39,-86.92 338.77,-93.5"/>
</g>
<!-- rear_access_hole_16 -->
<g id="node10" class="node">
<title>rear_access_hole_16</title>
<g id="a_node10"><a xlink:href="javascript:s=&quot;\(&#x27;default&#x27;,\ &#x27;housing&#x27;,\ &#x27;rear_access_hole&#x27;\)\nCylinder&quot;; console.log(s); alert(s);" xlink:title="Cylinder">
<ellipse fill="none" stroke="black" cx="388.83" cy="-18" rx="73.39" ry="18"/>
<text text-anchor="middle" x="388.83" y="-14.3" font-family="Times New Roman,serif" font-size="14.00">rear_access_hole</text>
</a>
</g>
</g>
<!-- housing_12&#45;&gt;rear_access_hole_16 -->
<g id="edge9" class="edge">
<title>housing_12&#45;&gt;rear_access_hole_16</title>
<path fill="none" stroke="black" d="M251.1,-108.93C264.93,-90.84 288.92,-62.53 315.39,-45 320.4,-41.68 325.89,-38.69 331.52,-36.02"/>
<polygon fill="black" stroke="black" points="333.32,-39.05 341.08,-31.83 330.51,-32.64 333.32,-39.05"/>
</g>
</g>
</svg>
