<?xml version="1.0" encoding="UTF-8" standalone="no"?>
<!DOCTYPE svg PUBLIC "-//W3C//DTD SVG 1.1//EN"
 "http://www.w3.org/Graphics/SVG/1.1/DTD/svg11.dtd">
<!-- Generated by graphviz version 5.0.0 (20220707.1540)
 -->
<!-- Title: default Pages: 1 -->
<svg width="351pt" height="206pt"
 viewBox="0.00 0.00 351.08 206.00" xmlns="http://www.w3.org/2000/svg" xmlns:xlink="http://www.w3.org/1999/xlink">
<g id="graph0" class="graph" transform="scale(1 1) rotate(0) translate(4 202)">
<title>default</title>
<polygon fill="white" stroke="transparent" points="-4,4 -4,-202 347.08,-202 347.08,4 -4,4"/>
<!-- root_1 -->
<g id="node1" class="node">
<title>root_1</title>
<g id="a_node1"><a xlink:href="javascript:s=&quot;\(\)\nNone&quot;; console.log(s); alert(s);" xlink:title="root">
<ellipse fill="none" stroke="black" cx="27" cy="-99" rx="27" ry="18"/>
<text text-anchor="middle" x="27" y="-95.3" font-family="Times New Roman,serif" font-size="14.00">root</text>
</a>
</g>
</g>
<!-- default_2 -->
<g id="node2" class="node">
<title>default_2</title>
<g id="a_node2"><a xlink:href="javascript:s=&quot;\(&#x27;default&#x27;,\)\nDC022A&quot;; console.log(s); alert(s);" xlink:title="DC022A">
<ellipse fill="none" stroke="black" cx="125.1" cy="-99" rx="35.19" ry="18"/>
<text text-anchor="middle" x="125.1" y="-95.3" font-family="Times New Roman,serif" font-size="14.00">default</text>
</a>
</g>
</g>
<!-- root_1&#45;&gt;default_2 -->
<g id="edge1" class="edge">
<title>root_1&#45;&gt;default_2</title>
<path fill="none" stroke="black" d="M54.01,-99C61.92,-99 70.84,-99 79.61,-99"/>
<polygon fill="black" stroke="black" points="79.76,-102.5 89.76,-99 79.76,-95.5 79.76,-102.5"/>
</g>
<!-- outer_3 -->
<g id="node3" class="node">
<title>outer_3</title>
<g id="a_node3"><a xlink:href="javascript:s=&quot;\(&#x27;default&#x27;,\ &#x27;outer&#x27;\)\nCylinder&quot;; console.log(s); alert(s);" xlink:title="Cylinder">
<ellipse fill="none" stroke="black" cx="269.64" cy="-180" rx="29.5" ry="18"/>
<text text-anchor="middle" x="269.64" y="-176.3" font-family="Times New Roman,serif" font-size="14.00">outer</text>
</a>
</g>
</g>
<!-- default_2&#45;&gt;outer_3 -->
<g id="edge2" class="edge">
<title>default_2&#45;&gt;outer_3</title>
<path fill="none" stroke="black" d="M143.22,-114.56C156.82,-126.3 176.72,-142.19 196.19,-153 207.75,-159.41 221.13,-164.88 233.22,-169.19"/>
<polygon fill="black" stroke="black" points="232.41,-172.61 243.01,-172.53 234.67,-165.99 232.41,-172.61"/>
</g>
<!-- body_4 -->
<g id="node4" class="node">
<title>body_4</title>
<g id="a_node4"><a xlink:href="javascript:s=&quot;\(&#x27;default&#x27;,\ &#x27;body&#x27;\)\nLinearExtrude&quot;; console.log(s); alert(s);" xlink:title="LinearExtrude">
<ellipse fill="none" stroke="black" cx="269.64" cy="-126" rx="29.8" ry="18"/>
<text text-anchor="middle" x="269.64" y="-122.3" font-family="Times New Roman,serif" font-size="14.00">body</text>
</a>
</g>
</g>
<!-- default_2&#45;&gt;body_4 -->
<g id="edge3" class="edge">
<title>default_2&#45;&gt;body_4</title>
<path fill="none" stroke="black" d="M158.44,-105.13C179.95,-109.2 208.29,-114.57 230.84,-118.84"/>
<polygon fill="black" stroke="black" points="230.27,-122.3 240.75,-120.72 231.58,-115.42 230.27,-122.3"/>
</g>
<!-- top_access_hole_5 -->
<g id="node5" class="node">
<title>top_access_hole_5</title>
<g id="a_node5"><a xlink:href="javascript:s=&quot;\(&#x27;default&#x27;,\ &#x27;top_access_hole&#x27;\)\nCylinder&quot;; console.log(s); alert(s);" xlink:title="Cylinder">
<ellipse fill="none" stroke="black" cx="269.64" cy="-72" rx="72.29" ry="18"/>
<text text-anchor="middle" x="269.64" y="-68.3" font-family="Times New Roman,serif" font-size="14.00">top_access_hole</text>
</a>
</g>
</g>
<!-- default_2&#45;&gt;top_access_hole_5 -->
<g id="edge4" class="edge">
<title>default_2&#45;&gt;top_access_hole_5</title>
<path fill="none" stroke="black" d="M158.44,-92.87C171.38,-90.42 186.78,-87.5 201.91,-84.64"/>
<polygon fill="black" stroke="black" points="202.62,-88.07 211.79,-82.77 201.31,-81.19 202.62,-88.07"/>
</g>
<!-- rear_access_hole_6 -->
<g id="node6" class="node">
<title>rear_access_hole_6</title>
<g id="a_node6"><a xlink:href="javascript:s=&quot;\(&#x27;default&#x27;,\ &#x27;rear_access_hole&#x27;\)\nCylinder&quot;; console.log(s); alert(s);" xlink:title="Cylinder">
<ellipse fill="none" stroke="black" cx="269.64" cy="-18" rx="73.39" ry="18"/>
<text text-anchor="middle" x="269.64" y="-14.3" font-family="Times New Roman,serif" font-size="14.00">rear_access_hole</text>
</a>
</g>
</g>
<!-- default_2&#45;&gt;rear_access_hole_6 -->
<g id="edge5" class="edge">
<title>default_2&#45;&gt;rear_access_hole_6</title>
<path fill="none" stroke="black" d="M143.22,-83.44C156.82,-71.7 176.72,-55.81 196.19,-45 202.03,-41.76 208.33,-38.76 214.7,-36.03"/>
<polygon fill="black" stroke="black" points="216.09,-39.25 224.02,-32.23 213.44,-32.77 216.09,-39.25"/>
</g>
</g>
</svg>
