<?xml version="1.0" encoding="UTF-8" standalone="no"?>
<!DOCTYPE svg PUBLIC "-//W3C//DTD SVG 1.1//EN"
 "http://www.w3.org/Graphics/SVG/1.1/DTD/svg11.dtd">
<!-- Generated by graphviz version 5.0.0 (20220707.1540)
 -->
<!-- Title: default Pages: 1 -->
<svg width="734pt" height="1394pt"
 viewBox="0.00 0.00 733.75 1394.00" xmlns="http://www.w3.org/2000/svg" xmlns:xlink="http://www.w3.org/1999/xlink">
<g id="graph0" class="graph" transform="scale(1 1) rotate(0) translate(4 1390)">
<title>default</title>
<polygon fill="white" stroke="transparent" points="-4,4 -4,-1390 729.75,-1390 729.75,4 -4,4"/>
<!-- root_121 -->
<g id="node1" class="node">
<title>root_121</title>
<g id="a_node1"><a xlink:href="javascript:s=&quot;\(\)\nNone&quot;; console.log(s); alert(s);" xlink:title="root">
<ellipse fill="none" stroke="black" cx="27" cy="-450" rx="27" ry="18"/>
<text text-anchor="middle" x="27" y="-446.3" font-family="Times New Roman,serif" font-size="14.00">root</text>
</a>
</g>
</g>
<!-- default_122 -->
<g id="node2" class="node">
<title>default_122</title>
<g id="a_node2"><a xlink:href="javascript:s=&quot;\(&#x27;default&#x27;,\)\nTorusChain&quot;; console.log(s); alert(s);" xlink:title="TorusChain">
<ellipse fill="none" stroke="black" cx="236.89" cy="-801" rx="35.19" ry="18"/>
<text text-anchor="middle" x="236.89" y="-797.3" font-family="Times New Roman,serif" font-size="14.00">default</text>
</a>
</g>
</g>
<!-- root_121&#45;&gt;default_122 -->
<g id="edge1" class="edge">
<title>root_121&#45;&gt;default_122</title>
<path fill="none" stroke="black" d="M38.03,-466.93C71.57,-523.56 180.01,-706.66 220.47,-774.98"/>
<polygon fill="black" stroke="black" points="217.61,-777.01 225.72,-783.83 223.63,-773.44 217.61,-777.01"/>
</g>
<!-- 153 -->
<g id="node33" class="node">
<title>153</title>
<g id="a_node33"><a xlink:href="javascript:s=&quot;\(&quot;&#x27;surface&#x27;,\ section_angle=10,\ angle=10&quot;,\)\nAnnotatedCoordinates&quot;; console.log(s); alert(s);" xlink:title="AnnotatedCoordinates">
<ellipse fill="none" stroke="black" cx="236.89" cy="-153" rx="146.77" ry="18"/>
<text text-anchor="middle" x="236.89" y="-149.3" font-family="Times New Roman,serif" font-size="14.00">&#39;surface&#39;, section_angle=10, angle=10</text>
</a>
</g>
</g>
<!-- root_121&#45;&gt;153 -->
<g id="edge32" class="edge">
<title>root_121&#45;&gt;153</title>
<path fill="none" stroke="black" d="M39.47,-433.61C73.71,-384.7 175.37,-239.46 217.39,-179.42"/>
<polygon fill="black" stroke="black" points="220.28,-181.41 223.14,-171.21 214.54,-177.39 220.28,-181.41"/>
</g>
<!-- torus_123 -->
<g id="node3" class="node">
<title>torus_123</title>
<g id="a_node3"><a xlink:href="javascript:s=&quot;\(&#x27;default&#x27;,\ \(&#x27;torus&#x27;,\ 0\)\)\nTorus&quot;; console.log(s); alert(s);" xlink:title="Torus">
<ellipse fill="none" stroke="black" cx="467.87" cy="-1314" rx="48.19" ry="18"/>
<text text-anchor="middle" x="467.87" y="-1310.3" font-family="Times New Roman,serif" font-size="14.00">(&#39;torus&#39;, 0)</text>
</a>
</g>
</g>
<!-- default_122&#45;&gt;torus_123 -->
<g id="edge2" class="edge">
<title>default_122&#45;&gt;torus_123</title>
<path fill="none" stroke="black" d="M244.38,-818.64C266.47,-878.14 341.7,-1076.43 419.77,-1233 429.12,-1251.74 440.97,-1272.12 450.45,-1287.74"/>
<polygon fill="black" stroke="black" points="447.51,-1289.65 455.72,-1296.35 453.48,-1285.99 447.51,-1289.65"/>
</g>
<!-- torus_126 -->
<g id="node6" class="node">
<title>torus_126</title>
<g id="a_node6"><a xlink:href="javascript:s=&quot;\(&#x27;default&#x27;,\ \(&#x27;torus&#x27;,\ 1\)\)\nTorus&quot;; console.log(s); alert(s);" xlink:title="Torus">
<ellipse fill="none" stroke="black" cx="467.87" cy="-1206" rx="48.19" ry="18"/>
<text text-anchor="middle" x="467.87" y="-1202.3" font-family="Times New Roman,serif" font-size="14.00">(&#39;torus&#39;, 1)</text>
</a>
</g>
</g>
<!-- default_122&#45;&gt;torus_126 -->
<g id="edge5" class="edge">
<title>default_122&#45;&gt;torus_126</title>
<path fill="none" stroke="black" d="M247.46,-818.26C274.36,-866.74 353.05,-1008.22 419.77,-1125 430.23,-1143.3 442.17,-1163.83 451.41,-1179.64"/>
<polygon fill="black" stroke="black" points="448.43,-1181.48 456.5,-1188.35 454.47,-1177.95 448.43,-1181.48"/>
</g>
<!-- torus_129 -->
<g id="node9" class="node">
<title>torus_129</title>
<g id="a_node9"><a xlink:href="javascript:s=&quot;\(&#x27;default&#x27;,\ \(&#x27;torus&#x27;,\ 2\)\)\nTorus&quot;; console.log(s); alert(s);" xlink:title="Torus">
<ellipse fill="none" stroke="black" cx="467.87" cy="-1098" rx="48.19" ry="18"/>
<text text-anchor="middle" x="467.87" y="-1094.3" font-family="Times New Roman,serif" font-size="14.00">(&#39;torus&#39;, 2)</text>
</a>
</g>
</g>
<!-- default_122&#45;&gt;torus_129 -->
<g id="edge8" class="edge">
<title>default_122&#45;&gt;torus_129</title>
<path fill="none" stroke="black" d="M250.85,-817.82C289.09,-867.41 401.54,-1013.27 447.23,-1072.53"/>
<polygon fill="black" stroke="black" points="444.6,-1074.84 453.47,-1080.63 450.14,-1070.57 444.6,-1074.84"/>
</g>
<!-- torus_132 -->
<g id="node12" class="node">
<title>torus_132</title>
<g id="a_node12"><a xlink:href="javascript:s=&quot;\(&#x27;default&#x27;,\ \(&#x27;torus&#x27;,\ 3\)\)\nTorus&quot;; console.log(s); alert(s);" xlink:title="Torus">
<ellipse fill="none" stroke="black" cx="467.87" cy="-990" rx="48.19" ry="18"/>
<text text-anchor="middle" x="467.87" y="-986.3" font-family="Times New Roman,serif" font-size="14.00">(&#39;torus&#39;, 3)</text>
</a>
</g>
</g>
<!-- default_122&#45;&gt;torus_132 -->
<g id="edge11" class="edge">
<title>default_122&#45;&gt;torus_132</title>
<path fill="none" stroke="black" d="M256.24,-816.15C296.28,-849.2 391.71,-927.96 439.14,-967.11"/>
<polygon fill="black" stroke="black" points="437.2,-970.05 447.14,-973.71 441.65,-964.65 437.2,-970.05"/>
</g>
<!-- torus_135 -->
<g id="node15" class="node">
<title>torus_135</title>
<g id="a_node15"><a xlink:href="javascript:s=&quot;\(&#x27;default&#x27;,\ \(&#x27;torus&#x27;,\ 4\)\)\nTorus&quot;; console.log(s); alert(s);" xlink:title="Torus">
<ellipse fill="none" stroke="black" cx="467.87" cy="-882" rx="48.19" ry="18"/>
<text text-anchor="middle" x="467.87" y="-878.3" font-family="Times New Roman,serif" font-size="14.00">(&#39;torus&#39;, 4)</text>
</a>
</g>
</g>
<!-- default_122&#45;&gt;torus_135 -->
<g id="edge14" class="edge">
<title>default_122&#45;&gt;torus_135</title>
<path fill="none" stroke="black" d="M266.42,-811.09C305.71,-824.99 376.82,-850.14 422.92,-866.45"/>
<polygon fill="black" stroke="black" points="421.76,-869.76 432.36,-869.79 424.1,-863.16 421.76,-869.76"/>
</g>
<!-- torus_138 -->
<g id="node18" class="node">
<title>torus_138</title>
<g id="a_node18"><a xlink:href="javascript:s=&quot;\(&#x27;default&#x27;,\ \(&#x27;torus&#x27;,\ 5\)\)\nTorus&quot;; console.log(s); alert(s);" xlink:title="Torus">
<ellipse fill="none" stroke="black" cx="467.87" cy="-801" rx="48.19" ry="18"/>
<text text-anchor="middle" x="467.87" y="-797.3" font-family="Times New Roman,serif" font-size="14.00">(&#39;torus&#39;, 5)</text>
</a>
</g>
</g>
<!-- default_122&#45;&gt;torus_138 -->
<g id="edge17" class="edge">
<title>default_122&#45;&gt;torus_138</title>
<path fill="none" stroke="black" d="M272.17,-801C308.44,-801 366.28,-801 409.52,-801"/>
<polygon fill="black" stroke="black" points="409.61,-804.5 419.61,-801 409.61,-797.5 409.61,-804.5"/>
</g>
<!-- torus_141 -->
<g id="node21" class="node">
<title>torus_141</title>
<g id="a_node21"><a xlink:href="javascript:s=&quot;\(&#x27;default&#x27;,\ \(&#x27;torus&#x27;,\ 6\)\)\nTorus&quot;; console.log(s); alert(s);" xlink:title="Torus">
<ellipse fill="none" stroke="black" cx="467.87" cy="-720" rx="48.19" ry="18"/>
<text text-anchor="middle" x="467.87" y="-716.3" font-family="Times New Roman,serif" font-size="14.00">(&#39;torus&#39;, 6)</text>
</a>
</g>
</g>
<!-- default_122&#45;&gt;torus_141 -->
<g id="edge20" class="edge">
<title>default_122&#45;&gt;torus_141</title>
<path fill="none" stroke="black" d="M266.42,-790.91C305.71,-777.01 376.82,-751.86 422.92,-735.55"/>
<polygon fill="black" stroke="black" points="424.1,-738.84 432.36,-732.21 421.76,-732.24 424.1,-738.84"/>
</g>
<!-- torus_144 -->
<g id="node24" class="node">
<title>torus_144</title>
<g id="a_node24"><a xlink:href="javascript:s=&quot;\(&#x27;default&#x27;,\ \(&#x27;torus&#x27;,\ 7\)\)\nTorus&quot;; console.log(s); alert(s);" xlink:title="Torus">
<ellipse fill="none" stroke="black" cx="467.87" cy="-612" rx="48.19" ry="18"/>
<text text-anchor="middle" x="467.87" y="-608.3" font-family="Times New Roman,serif" font-size="14.00">(&#39;torus&#39;, 7)</text>
</a>
</g>
</g>
<!-- default_122&#45;&gt;torus_144 -->
<g id="edge23" class="edge">
<title>default_122&#45;&gt;torus_144</title>
<path fill="none" stroke="black" d="M256.24,-785.85C296.28,-752.8 391.71,-674.04 439.14,-634.89"/>
<polygon fill="black" stroke="black" points="441.65,-637.35 447.14,-628.29 437.2,-631.95 441.65,-637.35"/>
</g>
<!-- torus_147 -->
<g id="node27" class="node">
<title>torus_147</title>
<g id="a_node27"><a xlink:href="javascript:s=&quot;\(&#x27;default&#x27;,\ \(&#x27;torus&#x27;,\ 8\)\)\nTorus&quot;; console.log(s); alert(s);" xlink:title="Torus">
<ellipse fill="none" stroke="black" cx="467.87" cy="-504" rx="48.19" ry="18"/>
<text text-anchor="middle" x="467.87" y="-500.3" font-family="Times New Roman,serif" font-size="14.00">(&#39;torus&#39;, 8)</text>
</a>
</g>
</g>
<!-- default_122&#45;&gt;torus_147 -->
<g id="edge26" class="edge">
<title>default_122&#45;&gt;torus_147</title>
<path fill="none" stroke="black" d="M250.85,-784.18C289.09,-734.59 401.54,-588.73 447.23,-529.47"/>
<polygon fill="black" stroke="black" points="450.14,-531.43 453.47,-521.37 444.6,-527.16 450.14,-531.43"/>
</g>
<!-- torus_150 -->
<g id="node30" class="node">
<title>torus_150</title>
<g id="a_node30"><a xlink:href="javascript:s=&quot;\(&#x27;default&#x27;,\ \(&#x27;torus&#x27;,\ 9\)\)\nTorus&quot;; console.log(s); alert(s);" xlink:title="Torus">
<ellipse fill="none" stroke="black" cx="467.87" cy="-396" rx="48.19" ry="18"/>
<text text-anchor="middle" x="467.87" y="-392.3" font-family="Times New Roman,serif" font-size="14.00">(&#39;torus&#39;, 9)</text>
</a>
</g>
</g>
<!-- default_122&#45;&gt;torus_150 -->
<g id="edge29" class="edge">
<title>default_122&#45;&gt;torus_150</title>
<path fill="none" stroke="black" d="M247.46,-783.74C274.36,-735.26 353.05,-593.78 419.77,-477 430.23,-458.7 442.17,-438.17 451.41,-422.36"/>
<polygon fill="black" stroke="black" points="454.47,-424.05 456.5,-413.65 448.43,-420.52 454.47,-424.05"/>
</g>
<!-- torus_124 -->
<g id="node4" class="node">
<title>torus_124</title>
<g id="a_node4"><a xlink:href="javascript:s=&quot;\(&#x27;default&#x27;,\ \(&#x27;torus&#x27;,\ 0\),\ &#x27;torus&#x27;\)\nRotateExtrude&quot;; console.log(s); alert(s);" xlink:title="RotateExtrude">
<ellipse fill="none" stroke="black" cx="592.91" cy="-1368" rx="29.5" ry="18"/>
<text text-anchor="middle" x="592.91" y="-1364.3" font-family="Times New Roman,serif" font-size="14.00">torus</text>
</a>
</g>
</g>
<!-- torus_123&#45;&gt;torus_124 -->
<g id="edge3" class="edge">
<title>torus_123&#45;&gt;torus_124</title>
<path fill="none" stroke="black" d="M499.92,-1327.63C518.11,-1335.61 541.05,-1345.68 559.47,-1353.76"/>
<polygon fill="black" stroke="black" points="558.08,-1356.97 568.64,-1357.79 560.89,-1350.56 558.08,-1356.97"/>
</g>
<!-- cage_125 -->
<g id="node5" class="node">
<title>cage_125</title>
<g id="a_node5"><a xlink:href="javascript:s=&quot;\(&#x27;default&#x27;,\ \(&#x27;torus&#x27;,\ 0\),\ &#x27;cage&#x27;\)\nRotateExtrude&quot;; console.log(s); alert(s);" xlink:title="RotateExtrude">
<ellipse fill="none" stroke="black" cx="592.91" cy="-1314" rx="27.1" ry="18"/>
<text text-anchor="middle" x="592.91" y="-1310.3" font-family="Times New Roman,serif" font-size="14.00">cage</text>
</a>
</g>
</g>
<!-- torus_123&#45;&gt;cage_125 -->
<g id="edge4" class="edge">
<title>torus_123&#45;&gt;cage_125</title>
<path fill="none" stroke="black" d="M516.09,-1314C528.98,-1314 542.77,-1314 554.99,-1314"/>
<polygon fill="black" stroke="black" points="555.28,-1317.5 565.28,-1314 555.28,-1310.5 555.28,-1317.5"/>
</g>
<!-- torus_127 -->
<g id="node7" class="node">
<title>torus_127</title>
<g id="a_node7"><a xlink:href="javascript:s=&quot;\(&#x27;default&#x27;,\ \(&#x27;torus&#x27;,\ 1\),\ &#x27;torus&#x27;\)\nRotateExtrude&quot;; console.log(s); alert(s);" xlink:title="RotateExtrude">
<ellipse fill="none" stroke="black" cx="592.91" cy="-1260" rx="29.5" ry="18"/>
<text text-anchor="middle" x="592.91" y="-1256.3" font-family="Times New Roman,serif" font-size="14.00">torus</text>
</a>
</g>
</g>
<!-- torus_126&#45;&gt;torus_127 -->
<g id="edge6" class="edge">
<title>torus_126&#45;&gt;torus_127</title>
<path fill="none" stroke="black" d="M499.92,-1219.63C518.11,-1227.61 541.05,-1237.68 559.47,-1245.76"/>
<polygon fill="black" stroke="black" points="558.08,-1248.97 568.64,-1249.79 560.89,-1242.56 558.08,-1248.97"/>
</g>
<!-- cage_128 -->
<g id="node8" class="node">
<title>cage_128</title>
<g id="a_node8"><a xlink:href="javascript:s=&quot;\(&#x27;default&#x27;,\ \(&#x27;torus&#x27;,\ 1\),\ &#x27;cage&#x27;\)\nRotateExtrude&quot;; console.log(s); alert(s);" xlink:title="RotateExtrude">
<ellipse fill="none" stroke="black" cx="592.91" cy="-1206" rx="27.1" ry="18"/>
<text text-anchor="middle" x="592.91" y="-1202.3" font-family="Times New Roman,serif" font-size="14.00">cage</text>
</a>
</g>
</g>
<!-- torus_126&#45;&gt;cage_128 -->
<g id="edge7" class="edge">
<title>torus_126&#45;&gt;cage_128</title>
<path fill="none" stroke="black" d="M516.09,-1206C528.98,-1206 542.77,-1206 554.99,-1206"/>
<polygon fill="black" stroke="black" points="555.28,-1209.5 565.28,-1206 555.28,-1202.5 555.28,-1209.5"/>
</g>
<!-- torus_130 -->
<g id="node10" class="node">
<title>torus_130</title>
<g id="a_node10"><a xlink:href="javascript:s=&quot;\(&#x27;default&#x27;,\ \(&#x27;torus&#x27;,\ 2\),\ &#x27;torus&#x27;\)\nRotateExtrude&quot;; console.log(s); alert(s);" xlink:title="RotateExtrude">
<ellipse fill="none" stroke="black" cx="592.91" cy="-1152" rx="29.5" ry="18"/>
<text text-anchor="middle" x="592.91" y="-1148.3" font-family="Times New Roman,serif" font-size="14.00">torus</text>
</a>
</g>
</g>
<!-- torus_129&#45;&gt;torus_130 -->
<g id="edge9" class="edge">
<title>torus_129&#45;&gt;torus_130</title>
<path fill="none" stroke="black" d="M499.92,-1111.63C518.11,-1119.61 541.05,-1129.68 559.47,-1137.76"/>
<polygon fill="black" stroke="black" points="558.08,-1140.97 568.64,-1141.79 560.89,-1134.56 558.08,-1140.97"/>
</g>
<!-- cage_131 -->
<g id="node11" class="node">
<title>cage_131</title>
<g id="a_node11"><a xlink:href="javascript:s=&quot;\(&#x27;default&#x27;,\ \(&#x27;torus&#x27;,\ 2\),\ &#x27;cage&#x27;\)\nRotateExtrude&quot;; console.log(s); alert(s);" xlink:title="RotateExtrude">
<ellipse fill="none" stroke="black" cx="592.91" cy="-1098" rx="27.1" ry="18"/>
<text text-anchor="middle" x="592.91" y="-1094.3" font-family="Times New Roman,serif" font-size="14.00">cage</text>
</a>
</g>
</g>
<!-- torus_129&#45;&gt;cage_131 -->
<g id="edge10" class="edge">
<title>torus_129&#45;&gt;cage_131</title>
<path fill="none" stroke="black" d="M516.09,-1098C528.98,-1098 542.77,-1098 554.99,-1098"/>
<polygon fill="black" stroke="black" points="555.28,-1101.5 565.28,-1098 555.28,-1094.5 555.28,-1101.5"/>
</g>
<!-- torus_133 -->
<g id="node13" class="node">
<title>torus_133</title>
<g id="a_node13"><a xlink:href="javascript:s=&quot;\(&#x27;default&#x27;,\ \(&#x27;torus&#x27;,\ 3\),\ &#x27;torus&#x27;\)\nRotateExtrude&quot;; console.log(s); alert(s);" xlink:title="RotateExtrude">
<ellipse fill="none" stroke="black" cx="592.91" cy="-1044" rx="29.5" ry="18"/>
<text text-anchor="middle" x="592.91" y="-1040.3" font-family="Times New Roman,serif" font-size="14.00">torus</text>
</a>
</g>
</g>
<!-- torus_132&#45;&gt;torus_133 -->
<g id="edge12" class="edge">
<title>torus_132&#45;&gt;torus_133</title>
<path fill="none" stroke="black" d="M499.92,-1003.63C518.11,-1011.61 541.05,-1021.68 559.47,-1029.76"/>
<polygon fill="black" stroke="black" points="558.08,-1032.97 568.64,-1033.79 560.89,-1026.56 558.08,-1032.97"/>
</g>
<!-- cage_134 -->
<g id="node14" class="node">
<title>cage_134</title>
<g id="a_node14"><a xlink:href="javascript:s=&quot;\(&#x27;default&#x27;,\ \(&#x27;torus&#x27;,\ 3\),\ &#x27;cage&#x27;\)\nRotateExtrude&quot;; console.log(s); alert(s);" xlink:title="RotateExtrude">
<ellipse fill="none" stroke="black" cx="592.91" cy="-990" rx="27.1" ry="18"/>
<text text-anchor="middle" x="592.91" y="-986.3" font-family="Times New Roman,serif" font-size="14.00">cage</text>
</a>
</g>
</g>
<!-- torus_132&#45;&gt;cage_134 -->
<g id="edge13" class="edge">
<title>torus_132&#45;&gt;cage_134</title>
<path fill="none" stroke="black" d="M516.09,-990C528.98,-990 542.77,-990 554.99,-990"/>
<polygon fill="black" stroke="black" points="555.28,-993.5 565.28,-990 555.28,-986.5 555.28,-993.5"/>
</g>
<!-- torus_136 -->
<g id="node16" class="node">
<title>torus_136</title>
<g id="a_node16"><a xlink:href="javascript:s=&quot;\(&#x27;default&#x27;,\ \(&#x27;torus&#x27;,\ 4\),\ &#x27;torus&#x27;\)\nRotateExtrude&quot;; console.log(s); alert(s);" xlink:title="RotateExtrude">
<ellipse fill="none" stroke="black" cx="592.91" cy="-936" rx="29.5" ry="18"/>
<text text-anchor="middle" x="592.91" y="-932.3" font-family="Times New Roman,serif" font-size="14.00">torus</text>
</a>
</g>
</g>
<!-- torus_135&#45;&gt;torus_136 -->
<g id="edge15" class="edge">
<title>torus_135&#45;&gt;torus_136</title>
<path fill="none" stroke="black" d="M499.92,-895.63C518.11,-903.61 541.05,-913.68 559.47,-921.76"/>
<polygon fill="black" stroke="black" points="558.08,-924.97 568.64,-925.79 560.89,-918.56 558.08,-924.97"/>
</g>
<!-- cage_137 -->
<g id="node17" class="node">
<title>cage_137</title>
<g id="a_node17"><a xlink:href="javascript:s=&quot;\(&#x27;default&#x27;,\ \(&#x27;torus&#x27;,\ 4\),\ &#x27;cage&#x27;\)\nRotateExtrude&quot;; console.log(s); alert(s);" xlink:title="RotateExtrude">
<ellipse fill="none" stroke="black" cx="592.91" cy="-882" rx="27.1" ry="18"/>
<text text-anchor="middle" x="592.91" y="-878.3" font-family="Times New Roman,serif" font-size="14.00">cage</text>
</a>
</g>
</g>
<!-- torus_135&#45;&gt;cage_137 -->
<g id="edge16" class="edge">
<title>torus_135&#45;&gt;cage_137</title>
<path fill="none" stroke="black" d="M516.09,-882C528.98,-882 542.77,-882 554.99,-882"/>
<polygon fill="black" stroke="black" points="555.28,-885.5 565.28,-882 555.28,-878.5 555.28,-885.5"/>
</g>
<!-- torus_139 -->
<g id="node19" class="node">
<title>torus_139</title>
<g id="a_node19"><a xlink:href="javascript:s=&quot;\(&#x27;default&#x27;,\ \(&#x27;torus&#x27;,\ 5\),\ &#x27;torus&#x27;\)\nRotateExtrude&quot;; console.log(s); alert(s);" xlink:title="RotateExtrude">
<ellipse fill="none" stroke="black" cx="592.91" cy="-828" rx="29.5" ry="18"/>
<text text-anchor="middle" x="592.91" y="-824.3" font-family="Times New Roman,serif" font-size="14.00">torus</text>
</a>
</g>
</g>
<!-- torus_138&#45;&gt;torus_139 -->
<g id="edge18" class="edge">
<title>torus_138&#45;&gt;torus_139</title>
<path fill="none" stroke="black" d="M509.84,-809.99C524.47,-813.2 540.84,-816.79 555.1,-819.92"/>
<polygon fill="black" stroke="black" points="554.53,-823.38 565.05,-822.1 556.03,-816.54 554.53,-823.38"/>
</g>
<!-- cage_140 -->
<g id="node20" class="node">
<title>cage_140</title>
<g id="a_node20"><a xlink:href="javascript:s=&quot;\(&#x27;default&#x27;,\ \(&#x27;torus&#x27;,\ 5\),\ &#x27;cage&#x27;\)\nRotateExtrude&quot;; console.log(s); alert(s);" xlink:title="RotateExtrude">
<ellipse fill="none" stroke="black" cx="592.91" cy="-774" rx="27.1" ry="18"/>
<text text-anchor="middle" x="592.91" y="-770.3" font-family="Times New Roman,serif" font-size="14.00">cage</text>
</a>
</g>
</g>
<!-- torus_138&#45;&gt;cage_140 -->
<g id="edge19" class="edge">
<title>torus_138&#45;&gt;cage_140</title>
<path fill="none" stroke="black" d="M509.84,-792.01C525.03,-788.68 542.11,-784.93 556.73,-781.72"/>
<polygon fill="black" stroke="black" points="557.87,-785.05 566.89,-779.49 556.37,-778.22 557.87,-785.05"/>
</g>
<!-- torus_142 -->
<g id="node22" class="node">
<title>torus_142</title>
<g id="a_node22"><a xlink:href="javascript:s=&quot;\(&#x27;default&#x27;,\ \(&#x27;torus&#x27;,\ 6\),\ &#x27;torus&#x27;\)\nRotateExtrude&quot;; console.log(s); alert(s);" xlink:title="RotateExtrude">
<ellipse fill="none" stroke="black" cx="592.91" cy="-720" rx="29.5" ry="18"/>
<text text-anchor="middle" x="592.91" y="-716.3" font-family="Times New Roman,serif" font-size="14.00">torus</text>
</a>
</g>
</g>
<!-- torus_141&#45;&gt;torus_142 -->
<g id="edge21" class="edge">
<title>torus_141&#45;&gt;torus_142</title>
<path fill="none" stroke="black" d="M516.09,-720C528.46,-720 541.65,-720 553.5,-720"/>
<polygon fill="black" stroke="black" points="553.51,-723.5 563.51,-720 553.51,-716.5 553.51,-723.5"/>
</g>
<!-- cage_143 -->
<g id="node23" class="node">
<title>cage_143</title>
<g id="a_node23"><a xlink:href="javascript:s=&quot;\(&#x27;default&#x27;,\ \(&#x27;torus&#x27;,\ 6\),\ &#x27;cage&#x27;\)\nRotateExtrude&quot;; console.log(s); alert(s);" xlink:title="RotateExtrude">
<ellipse fill="none" stroke="black" cx="592.91" cy="-666" rx="27.1" ry="18"/>
<text text-anchor="middle" x="592.91" y="-662.3" font-family="Times New Roman,serif" font-size="14.00">cage</text>
</a>
</g>
</g>
<!-- torus_141&#45;&gt;cage_143 -->
<g id="edge22" class="edge">
<title>torus_141&#45;&gt;cage_143</title>
<path fill="none" stroke="black" d="M499.92,-706.37C518.47,-698.23 541.97,-687.92 560.57,-679.76"/>
<polygon fill="black" stroke="black" points="562.05,-682.93 569.8,-675.7 559.24,-676.52 562.05,-682.93"/>
</g>
<!-- torus_145 -->
<g id="node25" class="node">
<title>torus_145</title>
<g id="a_node25"><a xlink:href="javascript:s=&quot;\(&#x27;default&#x27;,\ \(&#x27;torus&#x27;,\ 7\),\ &#x27;torus&#x27;\)\nRotateExtrude&quot;; console.log(s); alert(s);" xlink:title="RotateExtrude">
<ellipse fill="none" stroke="black" cx="592.91" cy="-612" rx="29.5" ry="18"/>
<text text-anchor="middle" x="592.91" y="-608.3" font-family="Times New Roman,serif" font-size="14.00">torus</text>
</a>
</g>
</g>
<!-- torus_144&#45;&gt;torus_145 -->
<g id="edge24" class="edge">
<title>torus_144&#45;&gt;torus_145</title>
<path fill="none" stroke="black" d="M516.09,-612C528.46,-612 541.65,-612 553.5,-612"/>
<polygon fill="black" stroke="black" points="553.51,-615.5 563.51,-612 553.51,-608.5 553.51,-615.5"/>
</g>
<!-- cage_146 -->
<g id="node26" class="node">
<title>cage_146</title>
<g id="a_node26"><a xlink:href="javascript:s=&quot;\(&#x27;default&#x27;,\ \(&#x27;torus&#x27;,\ 7\),\ &#x27;cage&#x27;\)\nRotateExtrude&quot;; console.log(s); alert(s);" xlink:title="RotateExtrude">
<ellipse fill="none" stroke="black" cx="592.91" cy="-558" rx="27.1" ry="18"/>
<text text-anchor="middle" x="592.91" y="-554.3" font-family="Times New Roman,serif" font-size="14.00">cage</text>
</a>
</g>
</g>
<!-- torus_144&#45;&gt;cage_146 -->
<g id="edge25" class="edge">
<title>torus_144&#45;&gt;cage_146</title>
<path fill="none" stroke="black" d="M499.92,-598.37C518.47,-590.23 541.97,-579.92 560.57,-571.76"/>
<polygon fill="black" stroke="black" points="562.05,-574.93 569.8,-567.7 559.24,-568.52 562.05,-574.93"/>
</g>
<!-- torus_148 -->
<g id="node28" class="node">
<title>torus_148</title>
<g id="a_node28"><a xlink:href="javascript:s=&quot;\(&#x27;default&#x27;,\ \(&#x27;torus&#x27;,\ 8\),\ &#x27;torus&#x27;\)\nRotateExtrude&quot;; console.log(s); alert(s);" xlink:title="RotateExtrude">
<ellipse fill="none" stroke="black" cx="592.91" cy="-504" rx="29.5" ry="18"/>
<text text-anchor="middle" x="592.91" y="-500.3" font-family="Times New Roman,serif" font-size="14.00">torus</text>
</a>
</g>
</g>
<!-- torus_147&#45;&gt;torus_148 -->
<g id="edge27" class="edge">
<title>torus_147&#45;&gt;torus_148</title>
<path fill="none" stroke="black" d="M516.09,-504C528.46,-504 541.65,-504 553.5,-504"/>
<polygon fill="black" stroke="black" points="553.51,-507.5 563.51,-504 553.51,-500.5 553.51,-507.5"/>
</g>
<!-- cage_149 -->
<g id="node29" class="node">
<title>cage_149</title>
<g id="a_node29"><a xlink:href="javascript:s=&quot;\(&#x27;default&#x27;,\ \(&#x27;torus&#x27;,\ 8\),\ &#x27;cage&#x27;\)\nRotateExtrude&quot;; console.log(s); alert(s);" xlink:title="RotateExtrude">
<ellipse fill="none" stroke="black" cx="592.91" cy="-450" rx="27.1" ry="18"/>
<text text-anchor="middle" x="592.91" y="-446.3" font-family="Times New Roman,serif" font-size="14.00">cage</text>
</a>
</g>
</g>
<!-- torus_147&#45;&gt;cage_149 -->
<g id="edge28" class="edge">
<title>torus_147&#45;&gt;cage_149</title>
<path fill="none" stroke="black" d="M499.92,-490.37C518.47,-482.23 541.97,-471.92 560.57,-463.76"/>
<polygon fill="black" stroke="black" points="562.05,-466.93 569.8,-459.7 559.24,-460.52 562.05,-466.93"/>
</g>
<!-- torus_151 -->
<g id="node31" class="node">
<title>torus_151</title>
<g id="a_node31"><a xlink:href="javascript:s=&quot;\(&#x27;default&#x27;,\ \(&#x27;torus&#x27;,\ 9\),\ &#x27;torus&#x27;\)\nRotateExtrude&quot;; console.log(s); alert(s);" xlink:title="RotateExtrude">
<ellipse fill="none" stroke="black" cx="592.91" cy="-396" rx="29.5" ry="18"/>
<text text-anchor="middle" x="592.91" y="-392.3" font-family="Times New Roman,serif" font-size="14.00">torus</text>
</a>
</g>
</g>
<!-- torus_150&#45;&gt;torus_151 -->
<g id="edge30" class="edge">
<title>torus_150&#45;&gt;torus_151</title>
<path fill="none" stroke="black" d="M516.09,-396C528.46,-396 541.65,-396 553.5,-396"/>
<polygon fill="black" stroke="black" points="553.51,-399.5 563.51,-396 553.51,-392.5 553.51,-399.5"/>
</g>
<!-- cage_152 -->
<g id="node32" class="node">
<title>cage_152</title>
<g id="a_node32"><a xlink:href="javascript:s=&quot;\(&#x27;default&#x27;,\ \(&#x27;torus&#x27;,\ 9\),\ &#x27;cage&#x27;\)\nRotateExtrude&quot;; console.log(s); alert(s);" xlink:title="RotateExtrude">
<ellipse fill="none" stroke="black" cx="592.91" cy="-342" rx="27.1" ry="18"/>
<text text-anchor="middle" x="592.91" y="-338.3" font-family="Times New Roman,serif" font-size="14.00">cage</text>
</a>
</g>
</g>
<!-- torus_150&#45;&gt;cage_152 -->
<g id="edge31" class="edge">
<title>torus_150&#45;&gt;cage_152</title>
<path fill="none" stroke="black" d="M499.92,-382.37C518.47,-374.23 541.97,-363.92 560.57,-355.76"/>
<polygon fill="black" stroke="black" points="562.05,-358.93 569.8,-351.7 559.24,-352.52 562.05,-358.93"/>
</g>
<!-- coords_154 -->
<g id="node34" class="node">
<title>coords_154</title>
<g id="a_node34"><a xlink:href="javascript:s=&quot;\(&quot;&#x27;surface&#x27;,\ section_angle=10,\ angle=10&quot;,\ &#x27;coords&#x27;\)\nCoordinates&quot;; console.log(s); alert(s);" xlink:title="Coordinates">
<ellipse fill="none" stroke="black" cx="467.87" cy="-234" rx="36.29" ry="18"/>
<text text-anchor="middle" x="467.87" y="-230.3" font-family="Times New Roman,serif" font-size="14.00">coords</text>
</a>
</g>
</g>
<!-- 153&#45;&gt;coords_154 -->
<g id="edge33" class="edge">
<title>153&#45;&gt;coords_154</title>
<path fill="none" stroke="black" d="M285.89,-169.98C328.2,-184.95 389.06,-206.48 428.28,-220.35"/>
<polygon fill="black" stroke="black" points="427.17,-223.67 437.77,-223.7 429.51,-217.07 427.17,-223.67"/>
</g>
<!-- x_165 -->
<g id="node45" class="node">
<title>x_165</title>
<g id="a_node45"><a xlink:href="javascript:s=&quot;\(&quot;&#x27;surface&#x27;,\ section_angle=10,\ angle=10&quot;,\ &#x27;x&#x27;\)\nText&quot;; console.log(s); alert(s);" xlink:title="Text">
<ellipse fill="none" stroke="black" cx="467.87" cy="-180" rx="27" ry="18"/>
<text text-anchor="middle" x="467.87" y="-176.3" font-family="Times New Roman,serif" font-size="14.00">x</text>
</a>
</g>
</g>
<!-- 153&#45;&gt;x_165 -->
<g id="edge44" class="edge">
<title>153&#45;&gt;x_165</title>
<path fill="none" stroke="black" d="M343.33,-165.43C374.68,-169.13 406.94,-172.93 430.63,-175.73"/>
<polygon fill="black" stroke="black" points="430.54,-179.24 440.88,-176.94 431.36,-172.29 430.54,-179.24"/>
</g>
<!-- y_166 -->
<g id="node46" class="node">
<title>y_166</title>
<g id="a_node46"><a xlink:href="javascript:s=&quot;\(&quot;&#x27;surface&#x27;,\ section_angle=10,\ angle=10&quot;,\ &#x27;y&#x27;\)\nText&quot;; console.log(s); alert(s);" xlink:title="Text">
<ellipse fill="none" stroke="black" cx="467.87" cy="-126" rx="27" ry="18"/>
<text text-anchor="middle" x="467.87" y="-122.3" font-family="Times New Roman,serif" font-size="14.00">y</text>
</a>
</g>
</g>
<!-- 153&#45;&gt;y_166 -->
<g id="edge45" class="edge">
<title>153&#45;&gt;y_166</title>
<path fill="none" stroke="black" d="M343.33,-140.57C374.68,-136.87 406.94,-133.07 430.63,-130.27"/>
<polygon fill="black" stroke="black" points="431.36,-133.71 440.88,-129.06 430.54,-126.76 431.36,-133.71"/>
</g>
<!-- z_167 -->
<g id="node47" class="node">
<title>z_167</title>
<g id="a_node47"><a xlink:href="javascript:s=&quot;\(&quot;&#x27;surface&#x27;,\ section_angle=10,\ angle=10&quot;,\ &#x27;z&#x27;\)\nText&quot;; console.log(s); alert(s);" xlink:title="Text">
<ellipse fill="none" stroke="black" cx="467.87" cy="-72" rx="27" ry="18"/>
<text text-anchor="middle" x="467.87" y="-68.3" font-family="Times New Roman,serif" font-size="14.00">z</text>
</a>
</g>
</g>
<!-- 153&#45;&gt;z_167 -->
<g id="edge46" class="edge">
<title>153&#45;&gt;z_167</title>
<path fill="none" stroke="black" d="M285.89,-136.02C330.31,-120.31 395.17,-97.36 433.98,-83.63"/>
<polygon fill="black" stroke="black" points="435.47,-86.82 443.73,-80.19 433.13,-80.22 435.47,-86.82"/>
</g>
<!-- label_168 -->
<g id="node48" class="node">
<title>label_168</title>
<g id="a_node48"><a xlink:href="javascript:s=&quot;\(&quot;&#x27;surface&#x27;,\ section_angle=10,\ angle=10&quot;,\ &#x27;label&#x27;\)\nText&quot;; console.log(s); alert(s);" xlink:title="Text">
<ellipse fill="none" stroke="black" cx="467.87" cy="-18" rx="27.1" ry="18"/>
<text text-anchor="middle" x="467.87" y="-14.3" font-family="Times New Roman,serif" font-size="14.00">label</text>
</a>
</g>
</g>
<!-- 153&#45;&gt;label_168 -->
<g id="edge47" class="edge">
<title>153&#45;&gt;label_168</title>
<path fill="none" stroke="black" d="M267.42,-135.28C303.34,-113.77 365.85,-76.46 419.77,-45 425.54,-41.63 431.73,-38.06 437.66,-34.66"/>
<polygon fill="black" stroke="black" points="439.73,-37.5 446.66,-29.49 436.25,-31.43 439.73,-37.5"/>
</g>
<!-- origin_155 -->
<g id="node35" class="node">
<title>origin_155</title>
<g id="a_node35"><a xlink:href="javascript:s=&quot;\(&quot;&#x27;surface&#x27;,\ section_angle=10,\ angle=10&quot;,\ &#x27;coords&#x27;,\ &#x27;origin&#x27;\)\nCoordinatesCage&quot;; console.log(s); alert(s);" xlink:title="CoordinatesCage">
<ellipse fill="none" stroke="black" cx="592.91" cy="-288" rx="31.4" ry="18"/>
<text text-anchor="middle" x="592.91" y="-284.3" font-family="Times New Roman,serif" font-size="14.00">origin</text>
</a>
</g>
</g>
<!-- coords_154&#45;&gt;origin_155 -->
<g id="edge34" class="edge">
<title>coords_154&#45;&gt;origin_155</title>
<path fill="none" stroke="black" d="M495.57,-245.72C513.91,-253.77 538.41,-264.52 558.12,-273.17"/>
<polygon fill="black" stroke="black" points="556.79,-276.41 567.36,-277.22 559.61,-270 556.79,-276.41"/>
</g>
<!-- x_arrow_156 -->
<g id="node36" class="node">
<title>x_arrow_156</title>
<g id="a_node36"><a xlink:href="javascript:s=&quot;\(&quot;&#x27;surface&#x27;,\ section_angle=10,\ angle=10&quot;,\ &#x27;coords&#x27;,\ &#x27;x_arrow&#x27;\)\nArrow&quot;; console.log(s); alert(s);" xlink:title="Arrow">
<ellipse fill="none" stroke="black" cx="592.91" cy="-234" rx="40.89" ry="18"/>
<text text-anchor="middle" x="592.91" y="-230.3" font-family="Times New Roman,serif" font-size="14.00">x_arrow</text>
</a>
</g>
</g>
<!-- coords_154&#45;&gt;x_arrow_156 -->
<g id="edge35" class="edge">
<title>coords_154&#45;&gt;x_arrow_156</title>
<path fill="none" stroke="black" d="M504.46,-234C515.99,-234 529.01,-234 541.42,-234"/>
<polygon fill="black" stroke="black" points="541.64,-237.5 551.64,-234 541.64,-230.5 541.64,-237.5"/>
</g>
<!-- y_arrow_159 -->
<g id="node39" class="node">
<title>y_arrow_159</title>
<g id="a_node39"><a xlink:href="javascript:s=&quot;\(&quot;&#x27;surface&#x27;,\ section_angle=10,\ angle=10&quot;,\ &#x27;coords&#x27;,\ &#x27;y_arrow&#x27;\)\nArrow&quot;; console.log(s); alert(s);" xlink:title="Arrow">
<ellipse fill="none" stroke="black" cx="592.91" cy="-180" rx="40.89" ry="18"/>
<text text-anchor="middle" x="592.91" y="-176.3" font-family="Times New Roman,serif" font-size="14.00">y_arrow</text>
</a>
</g>
</g>
<!-- coords_154&#45;&gt;y_arrow_159 -->
<g id="edge38" class="edge">
<title>coords_154&#45;&gt;y_arrow_159</title>
<path fill="none" stroke="black" d="M495.57,-222.28C512.62,-214.8 534.99,-204.98 553.88,-196.69"/>
<polygon fill="black" stroke="black" points="555.37,-199.86 563.12,-192.64 552.56,-193.45 555.37,-199.86"/>
</g>
<!-- z_arrow_162 -->
<g id="node42" class="node">
<title>z_arrow_162</title>
<g id="a_node42"><a xlink:href="javascript:s=&quot;\(&quot;&#x27;surface&#x27;,\ section_angle=10,\ angle=10&quot;,\ &#x27;coords&#x27;,\ &#x27;z_arrow&#x27;\)\nArrow&quot;; console.log(s); alert(s);" xlink:title="Arrow">
<ellipse fill="none" stroke="black" cx="592.91" cy="-72" rx="40.09" ry="18"/>
<text text-anchor="middle" x="592.91" y="-68.3" font-family="Times New Roman,serif" font-size="14.00">z_arrow</text>
</a>
</g>
</g>
<!-- coords_154&#45;&gt;z_arrow_162 -->
<g id="edge41" class="edge">
<title>coords_154&#45;&gt;z_arrow_162</title>
<path fill="none" stroke="black" d="M495.55,-221.99C502.73,-217.92 510.12,-212.89 515.97,-207 532.58,-190.25 562.11,-133.02 579.04,-98.68"/>
<polygon fill="black" stroke="black" points="582.2,-100.18 583.45,-89.66 575.91,-97.1 582.2,-100.18"/>
</g>
<!-- stem_157 -->
<g id="node37" class="node">
<title>stem_157</title>
<g id="a_node37"><a xlink:href="javascript:s=&quot;\(&quot;&#x27;surface&#x27;,\ section_angle=10,\ angle=10&quot;,\ &#x27;coords&#x27;,\ &#x27;x_arrow&#x27;,\ &#x27;stem&#x27;\)\nCone&quot;; console.log(s); alert(s);" xlink:title="Cone">
<ellipse fill="none" stroke="black" cx="697.81" cy="-288" rx="27.9" ry="18"/>
<text text-anchor="middle" x="697.81" y="-284.3" font-family="Times New Roman,serif" font-size="14.00">stem</text>
</a>
</g>
</g>
<!-- x_arrow_156&#45;&gt;stem_157 -->
<g id="edge36" class="edge">
<title>x_arrow_156&#45;&gt;stem_157</title>
<path fill="none" stroke="black" d="M619.88,-247.63C634.04,-255.06 651.65,-264.3 666.44,-272.07"/>
<polygon fill="black" stroke="black" points="665.22,-275.37 675.7,-276.92 668.47,-269.18 665.22,-275.37"/>
</g>
<!-- head_158 -->
<g id="node38" class="node">
<title>head_158</title>
<g id="a_node38"><a xlink:href="javascript:s=&quot;\(&quot;&#x27;surface&#x27;,\ section_angle=10,\ angle=10&quot;,\ &#x27;coords&#x27;,\ &#x27;x_arrow&#x27;,\ &#x27;head&#x27;\)\nCone&quot;; console.log(s); alert(s);" xlink:title="Cone">
<ellipse fill="none" stroke="black" cx="697.81" cy="-234" rx="27.9" ry="18"/>
<text text-anchor="middle" x="697.81" y="-230.3" font-family="Times New Roman,serif" font-size="14.00">head</text>
</a>
</g>
</g>
<!-- x_arrow_156&#45;&gt;head_158 -->
<g id="edge37" class="edge">
<title>x_arrow_156&#45;&gt;head_158</title>
<path fill="none" stroke="black" d="M633.99,-234C642.4,-234 651.24,-234 659.54,-234"/>
<polygon fill="black" stroke="black" points="659.7,-237.5 669.7,-234 659.7,-230.5 659.7,-237.5"/>
</g>
<!-- stem_160 -->
<g id="node40" class="node">
<title>stem_160</title>
<g id="a_node40"><a xlink:href="javascript:s=&quot;\(&quot;&#x27;surface&#x27;,\ section_angle=10,\ angle=10&quot;,\ &#x27;coords&#x27;,\ &#x27;y_arrow&#x27;,\ &#x27;stem&#x27;\)\nCone&quot;; console.log(s); alert(s);" xlink:title="Cone">
<ellipse fill="none" stroke="black" cx="697.81" cy="-180" rx="27.9" ry="18"/>
<text text-anchor="middle" x="697.81" y="-176.3" font-family="Times New Roman,serif" font-size="14.00">stem</text>
</a>
</g>
</g>
<!-- y_arrow_159&#45;&gt;stem_160 -->
<g id="edge39" class="edge">
<title>y_arrow_159&#45;&gt;stem_160</title>
<path fill="none" stroke="black" d="M633.99,-180C642.4,-180 651.24,-180 659.54,-180"/>
<polygon fill="black" stroke="black" points="659.7,-183.5 669.7,-180 659.7,-176.5 659.7,-183.5"/>
</g>
<!-- head_161 -->
<g id="node41" class="node">
<title>head_161</title>
<g id="a_node41"><a xlink:href="javascript:s=&quot;\(&quot;&#x27;surface&#x27;,\ section_angle=10,\ angle=10&quot;,\ &#x27;coords&#x27;,\ &#x27;y_arrow&#x27;,\ &#x27;head&#x27;\)\nCone&quot;; console.log(s); alert(s);" xlink:title="Cone">
<ellipse fill="none" stroke="black" cx="697.81" cy="-126" rx="27.9" ry="18"/>
<text text-anchor="middle" x="697.81" y="-122.3" font-family="Times New Roman,serif" font-size="14.00">head</text>
</a>
</g>
</g>
<!-- y_arrow_159&#45;&gt;head_161 -->
<g id="edge40" class="edge">
<title>y_arrow_159&#45;&gt;head_161</title>
<path fill="none" stroke="black" d="M619.88,-166.37C634.04,-158.94 651.65,-149.7 666.44,-141.93"/>
<polygon fill="black" stroke="black" points="668.47,-144.82 675.7,-137.08 665.22,-138.63 668.47,-144.82"/>
</g>
<!-- stem_163 -->
<g id="node43" class="node">
<title>stem_163</title>
<g id="a_node43"><a xlink:href="javascript:s=&quot;\(&quot;&#x27;surface&#x27;,\ section_angle=10,\ angle=10&quot;,\ &#x27;coords&#x27;,\ &#x27;z_arrow&#x27;,\ &#x27;stem&#x27;\)\nCone&quot;; console.log(s); alert(s);" xlink:title="Cone">
<ellipse fill="none" stroke="black" cx="697.81" cy="-72" rx="27.9" ry="18"/>
<text text-anchor="middle" x="697.81" y="-68.3" font-family="Times New Roman,serif" font-size="14.00">stem</text>
</a>
</g>
</g>
<!-- z_arrow_162&#45;&gt;stem_163 -->
<g id="edge42" class="edge">
<title>z_arrow_162&#45;&gt;stem_163</title>
<path fill="none" stroke="black" d="M633.4,-72C642.02,-72 651.12,-72 659.65,-72"/>
<polygon fill="black" stroke="black" points="659.7,-75.5 669.7,-72 659.7,-68.5 659.7,-75.5"/>
</g>
<!-- head_164 -->
<g id="node44" class="node">
<title>head_164</title>
<g id="a_node44"><a xlink:href="javascript:s=&quot;\(&quot;&#x27;surface&#x27;,\ section_angle=10,\ angle=10&quot;,\ &#x27;coords&#x27;,\ &#x27;z_arrow&#x27;,\ &#x27;head&#x27;\)\nCone&quot;; console.log(s); alert(s);" xlink:title="Cone">
<ellipse fill="none" stroke="black" cx="697.81" cy="-18" rx="27.9" ry="18"/>
<text text-anchor="middle" x="697.81" y="-14.3" font-family="Times New Roman,serif" font-size="14.00">head</text>
</a>
</g>
</g>
<!-- z_arrow_162&#45;&gt;head_164 -->
<g id="edge43" class="edge">
<title>z_arrow_162&#45;&gt;head_164</title>
<path fill="none" stroke="black" d="M619.61,-58.51C633.91,-51.01 651.77,-41.63 666.72,-33.79"/>
<polygon fill="black" stroke="black" points="668.36,-36.88 675.59,-29.14 665.11,-30.68 668.36,-36.88"/>
</g>
</g>
</svg>
