<?xml version="1.0" encoding="UTF-8" standalone="no"?>
<!DOCTYPE svg PUBLIC "-//W3C//DTD SVG 1.1//EN"
 "http://www.w3.org/Graphics/SVG/1.1/DTD/svg11.dtd">
<!-- Generated by graphviz version 5.0.0 (20220707.1540)
 -->
<!-- Title: example2 Pages: 1 -->
<svg width="635pt" height="368pt"
 viewBox="0.00 0.00 634.96 368.00" xmlns="http://www.w3.org/2000/svg" xmlns:xlink="http://www.w3.org/1999/xlink">
<g id="graph0" class="graph" transform="scale(1 1) rotate(0) translate(4 364)">
<title>example2</title>
<polygon fill="white" stroke="transparent" points="-4,4 -4,-364 630.96,-364 630.96,4 -4,4"/>
<!-- root_101 -->
<g id="node1" class="node">
<title>root_101</title>
<g id="a_node1"><a xlink:href="javascript:s=&quot;\(\)\nNone&quot;; console.log(s); alert(s);" xlink:title="root">
<ellipse fill="none" stroke="black" cx="27" cy="-207" rx="27" ry="18"/>
<text text-anchor="middle" x="27" y="-203.3" font-family="Times New Roman,serif" font-size="14.00">root</text>
</a>
</g>
</g>
<!-- example2_102 -->
<g id="node2" class="node">
<title>example2_102</title>
<g id="a_node2"><a xlink:href="javascript:s=&quot;\(&#x27;example2&#x27;,\)\nTorus&quot;; console.log(s); alert(s);" xlink:title="Torus">
<ellipse fill="none" stroke="black" cx="199.19" cy="-288" rx="44.69" ry="18"/>
<text text-anchor="middle" x="199.19" y="-284.3" font-family="Times New Roman,serif" font-size="14.00">example2</text>
</a>
</g>
</g>
<!-- root_101&#45;&gt;example2_102 -->
<g id="edge1" class="edge">
<title>root_101&#45;&gt;example2_102</title>
<path fill="none" stroke="black" d="M49.55,-217.26C77.35,-230.49 126.17,-253.72 160.24,-269.94"/>
<polygon fill="black" stroke="black" points="158.9,-273.18 169.43,-274.31 161.91,-266.86 158.9,-273.18"/>
</g>
<!-- 105 -->
<g id="node5" class="node">
<title>105</title>
<g id="a_node5"><a xlink:href="javascript:s=&quot;\(&quot;&#x27;surface&#x27;,\ section_angle=90&quot;,\)\nAnnotatedCoordinates&quot;; console.log(s); alert(s);" xlink:title="AnnotatedCoordinates">
<ellipse fill="none" stroke="black" cx="199.19" cy="-153" rx="109.38" ry="18"/>
<text text-anchor="middle" x="199.19" y="-149.3" font-family="Times New Roman,serif" font-size="14.00">&#39;surface&#39;, section_angle=90</text>
</a>
</g>
</g>
<!-- root_101&#45;&gt;105 -->
<g id="edge4" class="edge">
<title>root_101&#45;&gt;105</title>
<path fill="none" stroke="black" d="M51.66,-199.49C73.9,-192.44 108.13,-181.58 137.91,-172.13"/>
<polygon fill="black" stroke="black" points="139.34,-175.35 147.81,-168.98 137.22,-168.67 139.34,-175.35"/>
</g>
<!-- torus_103 -->
<g id="node3" class="node">
<title>torus_103</title>
<g id="a_node3"><a xlink:href="javascript:s=&quot;\(&#x27;example2&#x27;,\ &#x27;torus&#x27;\)\nRotateExtrude&quot;; console.log(s); alert(s);" xlink:title="RotateExtrude">
<ellipse fill="none" stroke="black" cx="380.78" cy="-342" rx="29.5" ry="18"/>
<text text-anchor="middle" x="380.78" y="-338.3" font-family="Times New Roman,serif" font-size="14.00">torus</text>
</a>
</g>
</g>
<!-- example2_102&#45;&gt;torus_103 -->
<g id="edge2" class="edge">
<title>example2_102&#45;&gt;torus_103</title>
<path fill="none" stroke="black" d="M235.67,-298.67C267.22,-308.15 313.09,-321.95 344.55,-331.41"/>
<polygon fill="black" stroke="black" points="343.64,-334.79 354.23,-334.32 345.66,-328.09 343.64,-334.79"/>
</g>
<!-- cage_104 -->
<g id="node4" class="node">
<title>cage_104</title>
<g id="a_node4"><a xlink:href="javascript:s=&quot;\(&#x27;example2&#x27;,\ &#x27;cage&#x27;\)\nRotateExtrude&quot;; console.log(s); alert(s);" xlink:title="RotateExtrude">
<ellipse fill="none" stroke="black" cx="380.78" cy="-288" rx="27.1" ry="18"/>
<text text-anchor="middle" x="380.78" y="-284.3" font-family="Times New Roman,serif" font-size="14.00">cage</text>
</a>
</g>
</g>
<!-- example2_102&#45;&gt;cage_104 -->
<g id="edge3" class="edge">
<title>example2_102&#45;&gt;cage_104</title>
<path fill="none" stroke="black" d="M244.12,-288C274.55,-288 314.58,-288 343.26,-288"/>
<polygon fill="black" stroke="black" points="343.27,-291.5 353.27,-288 343.27,-284.5 343.27,-291.5"/>
</g>
<!-- coords_106 -->
<g id="node6" class="node">
<title>coords_106</title>
<g id="a_node6"><a xlink:href="javascript:s=&quot;\(&quot;&#x27;surface&#x27;,\ section_angle=90&quot;,\ &#x27;coords&#x27;\)\nCoordinates&quot;; console.log(s); alert(s);" xlink:title="Coordinates">
<ellipse fill="none" stroke="black" cx="380.78" cy="-234" rx="36.29" ry="18"/>
<text text-anchor="middle" x="380.78" y="-230.3" font-family="Times New Roman,serif" font-size="14.00">coords</text>
</a>
</g>
</g>
<!-- 105&#45;&gt;coords_106 -->
<g id="edge5" class="edge">
<title>105&#45;&gt;coords_106</title>
<path fill="none" stroke="black" d="M237.84,-169.98C269.02,-184.05 313.05,-203.9 343.77,-217.76"/>
<polygon fill="black" stroke="black" points="342.69,-221.11 353.24,-222.03 345.57,-214.73 342.69,-221.11"/>
</g>
<!-- x_117 -->
<g id="node17" class="node">
<title>x_117</title>
<g id="a_node17"><a xlink:href="javascript:s=&quot;\(&quot;&#x27;surface&#x27;,\ section_angle=90&quot;,\ &#x27;x&#x27;\)\nText&quot;; console.log(s); alert(s);" xlink:title="Text">
<ellipse fill="none" stroke="black" cx="380.78" cy="-180" rx="27" ry="18"/>
<text text-anchor="middle" x="380.78" y="-176.3" font-family="Times New Roman,serif" font-size="14.00">x</text>
</a>
</g>
</g>
<!-- 105&#45;&gt;x_117 -->
<g id="edge16" class="edge">
<title>105&#45;&gt;x_117</title>
<path fill="none" stroke="black" d="M280.53,-165.08C302.8,-168.43 325.86,-171.89 344.14,-174.64"/>
<polygon fill="black" stroke="black" points="343.63,-178.1 354.04,-176.13 344.67,-171.18 343.63,-178.1"/>
</g>
<!-- y_118 -->
<g id="node18" class="node">
<title>y_118</title>
<g id="a_node18"><a xlink:href="javascript:s=&quot;\(&quot;&#x27;surface&#x27;,\ section_angle=90&quot;,\ &#x27;y&#x27;\)\nText&quot;; console.log(s); alert(s);" xlink:title="Text">
<ellipse fill="none" stroke="black" cx="380.78" cy="-126" rx="27" ry="18"/>
<text text-anchor="middle" x="380.78" y="-122.3" font-family="Times New Roman,serif" font-size="14.00">y</text>
</a>
</g>
</g>
<!-- 105&#45;&gt;y_118 -->
<g id="edge17" class="edge">
<title>105&#45;&gt;y_118</title>
<path fill="none" stroke="black" d="M280.53,-140.92C302.8,-137.57 325.86,-134.11 344.14,-131.36"/>
<polygon fill="black" stroke="black" points="344.67,-134.82 354.04,-129.87 343.63,-127.9 344.67,-134.82"/>
</g>
<!-- z_119 -->
<g id="node19" class="node">
<title>z_119</title>
<g id="a_node19"><a xlink:href="javascript:s=&quot;\(&quot;&#x27;surface&#x27;,\ section_angle=90&quot;,\ &#x27;z&#x27;\)\nText&quot;; console.log(s); alert(s);" xlink:title="Text">
<ellipse fill="none" stroke="black" cx="380.78" cy="-72" rx="27" ry="18"/>
<text text-anchor="middle" x="380.78" y="-68.3" font-family="Times New Roman,serif" font-size="14.00">z</text>
</a>
</g>
</g>
<!-- 105&#45;&gt;z_119 -->
<g id="edge18" class="edge">
<title>105&#45;&gt;z_119</title>
<path fill="none" stroke="black" d="M237.84,-136.02C270.69,-121.2 317.8,-99.95 348.59,-86.07"/>
<polygon fill="black" stroke="black" points="350.29,-89.14 357.97,-81.84 347.42,-82.76 350.29,-89.14"/>
</g>
<!-- label_120 -->
<g id="node20" class="node">
<title>label_120</title>
<g id="a_node20"><a xlink:href="javascript:s=&quot;\(&quot;&#x27;surface&#x27;,\ section_angle=90&quot;,\ &#x27;label&#x27;\)\nText&quot;; console.log(s); alert(s);" xlink:title="Text">
<ellipse fill="none" stroke="black" cx="380.78" cy="-18" rx="27.1" ry="18"/>
<text text-anchor="middle" x="380.78" y="-14.3" font-family="Times New Roman,serif" font-size="14.00">label</text>
</a>
</g>
</g>
<!-- 105&#45;&gt;label_120 -->
<g id="edge19" class="edge">
<title>105&#45;&gt;label_120</title>
<path fill="none" stroke="black" d="M223.67,-135.35C257.24,-110.12 318.75,-63.88 353.7,-37.61"/>
<polygon fill="black" stroke="black" points="356.09,-40.19 361.98,-31.38 351.88,-34.59 356.09,-40.19"/>
</g>
<!-- origin_107 -->
<g id="node7" class="node">
<title>origin_107</title>
<g id="a_node7"><a xlink:href="javascript:s=&quot;\(&quot;&#x27;surface&#x27;,\ section_angle=90&quot;,\ &#x27;coords&#x27;,\ &#x27;origin&#x27;\)\nCoordinatesCage&quot;; console.log(s); alert(s);" xlink:title="CoordinatesCage">
<ellipse fill="none" stroke="black" cx="494.12" cy="-315" rx="31.4" ry="18"/>
<text text-anchor="middle" x="494.12" y="-311.3" font-family="Times New Roman,serif" font-size="14.00">origin</text>
</a>
</g>
</g>
<!-- coords_106&#45;&gt;origin_107 -->
<g id="edge6" class="edge">
<title>coords_106&#45;&gt;origin_107</title>
<path fill="none" stroke="black" d="M401.52,-249.01C420.82,-263.69 448.05,-284.34 453.17,-288 456.7,-290.52 460.43,-293.13 464.14,-295.68"/>
<polygon fill="black" stroke="black" points="462.42,-298.74 472.65,-301.47 466.36,-292.95 462.42,-298.74"/>
</g>
<!-- x_arrow_108 -->
<g id="node8" class="node">
<title>x_arrow_108</title>
<g id="a_node8"><a xlink:href="javascript:s=&quot;\(&quot;&#x27;surface&#x27;,\ section_angle=90&quot;,\ &#x27;coords&#x27;,\ &#x27;x_arrow&#x27;\)\nArrow&quot;; console.log(s); alert(s);" xlink:title="Arrow">
<ellipse fill="none" stroke="black" cx="494.12" cy="-261" rx="40.89" ry="18"/>
<text text-anchor="middle" x="494.12" y="-257.3" font-family="Times New Roman,serif" font-size="14.00">x_arrow</text>
</a>
</g>
</g>
<!-- coords_106&#45;&gt;x_arrow_108 -->
<g id="edge7" class="edge">
<title>coords_106&#45;&gt;x_arrow_108</title>
<path fill="none" stroke="black" d="M413.68,-241.74C424.32,-244.32 436.38,-247.24 447.83,-250.02"/>
<polygon fill="black" stroke="black" points="447.15,-253.45 457.69,-252.41 448.8,-246.65 447.15,-253.45"/>
</g>
<!-- y_arrow_111 -->
<g id="node11" class="node">
<title>y_arrow_111</title>
<g id="a_node11"><a xlink:href="javascript:s=&quot;\(&quot;&#x27;surface&#x27;,\ section_angle=90&quot;,\ &#x27;coords&#x27;,\ &#x27;y_arrow&#x27;\)\nArrow&quot;; console.log(s); alert(s);" xlink:title="Arrow">
<ellipse fill="none" stroke="black" cx="494.12" cy="-207" rx="40.89" ry="18"/>
<text text-anchor="middle" x="494.12" y="-203.3" font-family="Times New Roman,serif" font-size="14.00">y_arrow</text>
</a>
</g>
</g>
<!-- coords_106&#45;&gt;y_arrow_111 -->
<g id="edge10" class="edge">
<title>coords_106&#45;&gt;y_arrow_111</title>
<path fill="none" stroke="black" d="M413.68,-226.26C424.32,-223.68 436.38,-220.76 447.83,-217.98"/>
<polygon fill="black" stroke="black" points="448.8,-221.35 457.69,-215.59 447.15,-214.55 448.8,-221.35"/>
</g>
<!-- z_arrow_114 -->
<g id="node14" class="node">
<title>z_arrow_114</title>
<g id="a_node14"><a xlink:href="javascript:s=&quot;\(&quot;&#x27;surface&#x27;,\ section_angle=90&quot;,\ &#x27;coords&#x27;,\ &#x27;z_arrow&#x27;\)\nArrow&quot;; console.log(s); alert(s);" xlink:title="Arrow">
<ellipse fill="none" stroke="black" cx="494.12" cy="-99" rx="40.09" ry="18"/>
<text text-anchor="middle" x="494.12" y="-95.3" font-family="Times New Roman,serif" font-size="14.00">z_arrow</text>
</a>
</g>
</g>
<!-- coords_106&#45;&gt;z_arrow_114 -->
<g id="edge13" class="edge">
<title>coords_106&#45;&gt;z_arrow_114</title>
<path fill="none" stroke="black" d="M402.89,-219.58C407.82,-215.76 412.89,-211.46 417.17,-207 441.34,-181.88 463.59,-148.5 477.68,-125.54"/>
<polygon fill="black" stroke="black" points="480.85,-127.05 483.02,-116.68 474.85,-123.44 480.85,-127.05"/>
</g>
<!-- stem_109 -->
<g id="node9" class="node">
<title>stem_109</title>
<g id="a_node9"><a xlink:href="javascript:s=&quot;\(&quot;&#x27;surface&#x27;,\ section_angle=90&quot;,\ &#x27;coords&#x27;,\ &#x27;x_arrow&#x27;,\ &#x27;stem&#x27;\)\nCone&quot;; console.log(s); alert(s);" xlink:title="Cone">
<ellipse fill="none" stroke="black" cx="599.01" cy="-315" rx="27.9" ry="18"/>
<text text-anchor="middle" x="599.01" y="-311.3" font-family="Times New Roman,serif" font-size="14.00">stem</text>
</a>
</g>
</g>
<!-- x_arrow_108&#45;&gt;stem_109 -->
<g id="edge8" class="edge">
<title>x_arrow_108&#45;&gt;stem_109</title>
<path fill="none" stroke="black" d="M521.09,-274.63C535.25,-282.06 552.86,-291.3 567.65,-299.07"/>
<polygon fill="black" stroke="black" points="566.42,-302.37 576.91,-303.92 569.68,-296.18 566.42,-302.37"/>
</g>
<!-- head_110 -->
<g id="node10" class="node">
<title>head_110</title>
<g id="a_node10"><a xlink:href="javascript:s=&quot;\(&quot;&#x27;surface&#x27;,\ section_angle=90&quot;,\ &#x27;coords&#x27;,\ &#x27;x_arrow&#x27;,\ &#x27;head&#x27;\)\nCone&quot;; console.log(s); alert(s);" xlink:title="Cone">
<ellipse fill="none" stroke="black" cx="599.01" cy="-261" rx="27.9" ry="18"/>
<text text-anchor="middle" x="599.01" y="-257.3" font-family="Times New Roman,serif" font-size="14.00">head</text>
</a>
</g>
</g>
<!-- x_arrow_108&#45;&gt;head_110 -->
<g id="edge9" class="edge">
<title>x_arrow_108&#45;&gt;head_110</title>
<path fill="none" stroke="black" d="M535.2,-261C543.61,-261 552.45,-261 560.75,-261"/>
<polygon fill="black" stroke="black" points="560.91,-264.5 570.91,-261 560.91,-257.5 560.91,-264.5"/>
</g>
<!-- stem_112 -->
<g id="node12" class="node">
<title>stem_112</title>
<g id="a_node12"><a xlink:href="javascript:s=&quot;\(&quot;&#x27;surface&#x27;,\ section_angle=90&quot;,\ &#x27;coords&#x27;,\ &#x27;y_arrow&#x27;,\ &#x27;stem&#x27;\)\nCone&quot;; console.log(s); alert(s);" xlink:title="Cone">
<ellipse fill="none" stroke="black" cx="599.01" cy="-207" rx="27.9" ry="18"/>
<text text-anchor="middle" x="599.01" y="-203.3" font-family="Times New Roman,serif" font-size="14.00">stem</text>
</a>
</g>
</g>
<!-- y_arrow_111&#45;&gt;stem_112 -->
<g id="edge11" class="edge">
<title>y_arrow_111&#45;&gt;stem_112</title>
<path fill="none" stroke="black" d="M535.2,-207C543.61,-207 552.45,-207 560.75,-207"/>
<polygon fill="black" stroke="black" points="560.91,-210.5 570.91,-207 560.91,-203.5 560.91,-210.5"/>
</g>
<!-- head_113 -->
<g id="node13" class="node">
<title>head_113</title>
<g id="a_node13"><a xlink:href="javascript:s=&quot;\(&quot;&#x27;surface&#x27;,\ section_angle=90&quot;,\ &#x27;coords&#x27;,\ &#x27;y_arrow&#x27;,\ &#x27;head&#x27;\)\nCone&quot;; console.log(s); alert(s);" xlink:title="Cone">
<ellipse fill="none" stroke="black" cx="599.01" cy="-153" rx="27.9" ry="18"/>
<text text-anchor="middle" x="599.01" y="-149.3" font-family="Times New Roman,serif" font-size="14.00">head</text>
</a>
</g>
</g>
<!-- y_arrow_111&#45;&gt;head_113 -->
<g id="edge12" class="edge">
<title>y_arrow_111&#45;&gt;head_113</title>
<path fill="none" stroke="black" d="M521.09,-193.37C535.25,-185.94 552.86,-176.7 567.65,-168.93"/>
<polygon fill="black" stroke="black" points="569.68,-171.82 576.91,-164.08 566.42,-165.63 569.68,-171.82"/>
</g>
<!-- stem_115 -->
<g id="node15" class="node">
<title>stem_115</title>
<g id="a_node15"><a xlink:href="javascript:s=&quot;\(&quot;&#x27;surface&#x27;,\ section_angle=90&quot;,\ &#x27;coords&#x27;,\ &#x27;z_arrow&#x27;,\ &#x27;stem&#x27;\)\nCone&quot;; console.log(s); alert(s);" xlink:title="Cone">
<ellipse fill="none" stroke="black" cx="599.01" cy="-99" rx="27.9" ry="18"/>
<text text-anchor="middle" x="599.01" y="-95.3" font-family="Times New Roman,serif" font-size="14.00">stem</text>
</a>
</g>
</g>
<!-- z_arrow_114&#45;&gt;stem_115 -->
<g id="edge14" class="edge">
<title>z_arrow_114&#45;&gt;stem_115</title>
<path fill="none" stroke="black" d="M534.61,-99C543.23,-99 552.33,-99 560.85,-99"/>
<polygon fill="black" stroke="black" points="560.9,-102.5 570.9,-99 560.9,-95.5 560.9,-102.5"/>
</g>
<!-- head_116 -->
<g id="node16" class="node">
<title>head_116</title>
<g id="a_node16"><a xlink:href="javascript:s=&quot;\(&quot;&#x27;surface&#x27;,\ section_angle=90&quot;,\ &#x27;coords&#x27;,\ &#x27;z_arrow&#x27;,\ &#x27;head&#x27;\)\nCone&quot;; console.log(s); alert(s);" xlink:title="Cone">
<ellipse fill="none" stroke="black" cx="599.01" cy="-45" rx="27.9" ry="18"/>
<text text-anchor="middle" x="599.01" y="-41.3" font-family="Times New Roman,serif" font-size="14.00">head</text>
</a>
</g>
</g>
<!-- z_arrow_114&#45;&gt;head_116 -->
<g id="edge15" class="edge">
<title>z_arrow_114&#45;&gt;head_116</title>
<path fill="none" stroke="black" d="M520.82,-85.51C535.11,-78.01 552.98,-68.63 567.93,-60.79"/>
<polygon fill="black" stroke="black" points="569.57,-63.88 576.8,-56.14 566.32,-57.68 569.57,-63.88"/>
</g>
</g>
</svg>
