<?xml version="1.0" encoding="UTF-8" standalone="no"?>
<!DOCTYPE svg PUBLIC "-//W3C//DTD SVG 1.1//EN"
 "http://www.w3.org/Graphics/SVG/1.1/DTD/svg11.dtd">
<!-- Generated by graphviz version 5.0.0 (20220707.1540)
 -->
<!-- Title: default Pages: 1 -->
<svg width="325pt" height="98pt"
 viewBox="0.00 0.00 325.08 98.00" xmlns="http://www.w3.org/2000/svg" xmlns:xlink="http://www.w3.org/1999/xlink">
<g id="graph0" class="graph" transform="scale(1 1) rotate(0) translate(4 94)">
<title>default</title>
<polygon fill="white" stroke="transparent" points="-4,4 -4,-94 321.08,-94 321.08,4 -4,4"/>
<!-- root_1 -->
<g id="node1" class="node">
<title>root_1</title>
<g id="a_node1"><a xlink:href="javascript:s=&quot;\(\)\nNone&quot;; console.log(s); alert(s);" xlink:title="root">
<ellipse fill="none" stroke="black" cx="27" cy="-45" rx="27" ry="18"/>
<text text-anchor="middle" x="27" y="-41.3" font-family="Times New Roman,serif" font-size="14.00">root</text>
</a>
</g>
</g>
<!-- default_2 -->
<g id="node2" class="node">
<title>default_2</title>
<g id="a_node2"><a xlink:href="javascript:s=&quot;\(&#x27;default&#x27;,\)\nDoveTail&quot;; console.log(s); alert(s);" xlink:title="DoveTail">
<ellipse fill="none" stroke="black" cx="125.1" cy="-45" rx="35.19" ry="18"/>
<text text-anchor="middle" x="125.1" y="-41.3" font-family="Times New Roman,serif" font-size="14.00">default</text>
</a>
</g>
</g>
<!-- root_1&#45;&gt;default_2 -->
<g id="edge1" class="edge">
<title>root_1&#45;&gt;default_2</title>
<path fill="none" stroke="black" d="M54.01,-45C61.92,-45 70.84,-45 79.61,-45"/>
<polygon fill="black" stroke="black" points="79.76,-48.5 89.76,-45 79.76,-41.5 79.76,-48.5"/>
</g>
<!-- dovetail_cage_3 -->
<g id="node3" class="node">
<title>dovetail_cage_3</title>
<g id="a_node3"><a xlink:href="javascript:s=&quot;\(&#x27;default&#x27;,\ &#x27;dovetail_cage&#x27;\)\nBox&quot;; console.log(s); alert(s);" xlink:title="Box">
<ellipse fill="none" stroke="black" cx="256.64" cy="-72" rx="60.39" ry="18"/>
<text text-anchor="middle" x="256.64" y="-68.3" font-family="Times New Roman,serif" font-size="14.00">dovetail_cage</text>
</a>
</g>
</g>
<!-- default_2&#45;&gt;dovetail_cage_3 -->
<g id="edge2" class="edge">
<title>default_2&#45;&gt;dovetail_cage_3</title>
<path fill="none" stroke="black" d="M157.79,-51.6C169.49,-54.04 183.15,-56.89 196.5,-59.67"/>
<polygon fill="black" stroke="black" points="196.1,-63.17 206.6,-61.78 197.53,-56.31 196.1,-63.17"/>
</g>
<!-- front_4 -->
<g id="node4" class="node">
<title>front_4</title>
<g id="a_node4"><a xlink:href="javascript:s=&quot;\(&#x27;default&#x27;,\ &#x27;front&#x27;\)\nLinearExtrude&quot;; console.log(s); alert(s);" xlink:title="LinearExtrude">
<ellipse fill="none" stroke="black" cx="256.64" cy="-18" rx="28.7" ry="18"/>
<text text-anchor="middle" x="256.64" y="-14.3" font-family="Times New Roman,serif" font-size="14.00">front</text>
</a>
</g>
</g>
<!-- default_2&#45;&gt;front_4 -->
<g id="edge3" class="edge">
<title>default_2&#45;&gt;front_4</title>
<path fill="none" stroke="black" d="M157.79,-38.4C176.33,-34.53 199.81,-29.64 219.12,-25.61"/>
<polygon fill="black" stroke="black" points="220,-29 229.08,-23.54 218.58,-22.15 220,-29"/>
</g>
</g>
</svg>
