<?xml version="1.0" encoding="UTF-8" standalone="no"?>
<!DOCTYPE svg PUBLIC "-//W3C//DTD SVG 1.1//EN"
 "http://www.w3.org/Graphics/SVG/1.1/DTD/svg11.dtd">
<!-- Generated by graphviz version 5.0.0 (20220707.1540)
 -->
<!-- Title: lower Pages: 1 -->
<svg width="316pt" height="98pt"
 viewBox="0.00 0.00 315.98 98.00" xmlns="http://www.w3.org/2000/svg" xmlns:xlink="http://www.w3.org/1999/xlink">
<g id="graph0" class="graph" transform="scale(1 1) rotate(0) translate(4 94)">
<title>lower</title>
<polygon fill="white" stroke="transparent" points="-4,4 -4,-94 311.98,-94 311.98,4 -4,4"/>
<!-- root_9 -->
<g id="node1" class="node">
<title>root_9</title>
<g id="a_node1"><a xlink:href="javascript:s=&quot;\(\)\nNone&quot;; console.log(s); alert(s);" xlink:title="root">
<ellipse fill="none" stroke="black" cx="27" cy="-45" rx="27" ry="18"/>
<text text-anchor="middle" x="27" y="-41.3" font-family="Times New Roman,serif" font-size="14.00">root</text>
</a>
</g>
</g>
<!-- lower_10 -->
<g id="node2" class="node">
<title>lower_10</title>
<g id="a_node2"><a xlink:href="javascript:s=&quot;\(&#x27;lower&#x27;,\)\nDoveTail&quot;; console.log(s); alert(s);" xlink:title="DoveTail">
<ellipse fill="none" stroke="black" cx="120.55" cy="-45" rx="30.59" ry="18"/>
<text text-anchor="middle" x="120.55" y="-41.3" font-family="Times New Roman,serif" font-size="14.00">lower</text>
</a>
</g>
</g>
<!-- root_9&#45;&gt;lower_10 -->
<g id="edge1" class="edge">
<title>root_9&#45;&gt;lower_10</title>
<path fill="none" stroke="black" d="M54.48,-45C62.36,-45 71.18,-45 79.72,-45"/>
<polygon fill="black" stroke="black" points="79.91,-48.5 89.91,-45 79.91,-41.5 79.91,-48.5"/>
</g>
<!-- dovetail_cage_11 -->
<g id="node3" class="node">
<title>dovetail_cage_11</title>
<g id="a_node3"><a xlink:href="javascript:s=&quot;\(&#x27;lower&#x27;,\ &#x27;dovetail_cage&#x27;\)\nBox&quot;; console.log(s); alert(s);" xlink:title="Box">
<ellipse fill="none" stroke="black" cx="247.54" cy="-72" rx="60.39" ry="18"/>
<text text-anchor="middle" x="247.54" y="-68.3" font-family="Times New Roman,serif" font-size="14.00">dovetail_cage</text>
</a>
</g>
</g>
<!-- lower_10&#45;&gt;dovetail_cage_11 -->
<g id="edge2" class="edge">
<title>lower_10&#45;&gt;dovetail_cage_11</title>
<path fill="none" stroke="black" d="M149.6,-51.06C160.95,-53.51 174.52,-56.44 187.85,-59.32"/>
<polygon fill="black" stroke="black" points="187.44,-62.82 197.96,-61.51 188.92,-55.97 187.44,-62.82"/>
</g>
<!-- front_12 -->
<g id="node4" class="node">
<title>front_12</title>
<g id="a_node4"><a xlink:href="javascript:s=&quot;\(&#x27;lower&#x27;,\ &#x27;front&#x27;\)\nLinearExtrude&quot;; console.log(s); alert(s);" xlink:title="LinearExtrude">
<ellipse fill="none" stroke="black" cx="247.54" cy="-18" rx="28.7" ry="18"/>
<text text-anchor="middle" x="247.54" y="-14.3" font-family="Times New Roman,serif" font-size="14.00">front</text>
</a>
</g>
</g>
<!-- lower_10&#45;&gt;front_12 -->
<g id="edge3" class="edge">
<title>lower_10&#45;&gt;front_12</title>
<path fill="none" stroke="black" d="M149.6,-38.94C167.54,-35.07 190.98,-30 210.32,-25.82"/>
<polygon fill="black" stroke="black" points="211.25,-29.2 220.29,-23.67 209.78,-22.36 211.25,-29.2"/>
</g>
</g>
</svg>
