<?xml version="1.0" encoding="UTF-8" standalone="no"?>
<!DOCTYPE svg PUBLIC "-//W3C//DTD SVG 1.1//EN"
 "http://www.w3.org/Graphics/SVG/1.1/DTD/svg11.dtd">
<!-- Generated by graphviz version 5.0.0 (20220707.1540)
 -->
<!-- Title: upper Pages: 1 -->
<svg width="319pt" height="98pt"
 viewBox="0.00 0.00 318.58 98.00" xmlns="http://www.w3.org/2000/svg" xmlns:xlink="http://www.w3.org/1999/xlink">
<g id="graph0" class="graph" transform="scale(1 1) rotate(0) translate(4 94)">
<title>upper</title>
<polygon fill="white" stroke="transparent" points="-4,4 -4,-94 314.58,-94 314.58,4 -4,4"/>
<!-- root_5 -->
<g id="node1" class="node">
<title>root_5</title>
<g id="a_node1"><a xlink:href="javascript:s=&quot;\(\)\nNone&quot;; console.log(s); alert(s);" xlink:title="root">
<ellipse fill="none" stroke="black" cx="27" cy="-45" rx="27" ry="18"/>
<text text-anchor="middle" x="27" y="-41.3" font-family="Times New Roman,serif" font-size="14.00">root</text>
</a>
</g>
</g>
<!-- upper_6 -->
<g id="node2" class="node">
<title>upper_6</title>
<g id="a_node2"><a xlink:href="javascript:s=&quot;\(&#x27;upper&#x27;,\)\nDoveTail&quot;; console.log(s); alert(s);" xlink:title="DoveTail">
<ellipse fill="none" stroke="black" cx="121.85" cy="-45" rx="31.7" ry="18"/>
<text text-anchor="middle" x="121.85" y="-41.3" font-family="Times New Roman,serif" font-size="14.00">upper</text>
</a>
</g>
</g>
<!-- root_5&#45;&gt;upper_6 -->
<g id="edge1" class="edge">
<title>root_5&#45;&gt;upper_6</title>
<path fill="none" stroke="black" d="M54.36,-45C62.21,-45 71.01,-45 79.57,-45"/>
<polygon fill="black" stroke="black" points="79.82,-48.5 89.82,-45 79.82,-41.5 79.82,-48.5"/>
</g>
<!-- dovetail_cage_7 -->
<g id="node3" class="node">
<title>dovetail_cage_7</title>
<g id="a_node3"><a xlink:href="javascript:s=&quot;\(&#x27;upper&#x27;,\ &#x27;dovetail_cage&#x27;\)\nBox&quot;; console.log(s); alert(s);" xlink:title="Box">
<ellipse fill="none" stroke="black" cx="250.14" cy="-72" rx="60.39" ry="18"/>
<text text-anchor="middle" x="250.14" y="-68.3" font-family="Times New Roman,serif" font-size="14.00">dovetail_cage</text>
</a>
</g>
</g>
<!-- upper_6&#45;&gt;dovetail_cage_7 -->
<g id="edge2" class="edge">
<title>upper_6&#45;&gt;dovetail_cage_7</title>
<path fill="none" stroke="black" d="M151.82,-51.19C163.31,-53.65 176.96,-56.57 190.35,-59.43"/>
<polygon fill="black" stroke="black" points="189.99,-62.93 200.5,-61.6 191.45,-56.09 189.99,-62.93"/>
</g>
<!-- front_8 -->
<g id="node4" class="node">
<title>front_8</title>
<g id="a_node4"><a xlink:href="javascript:s=&quot;\(&#x27;upper&#x27;,\ &#x27;front&#x27;\)\nLinearExtrude&quot;; console.log(s); alert(s);" xlink:title="LinearExtrude">
<ellipse fill="none" stroke="black" cx="250.14" cy="-18" rx="28.7" ry="18"/>
<text text-anchor="middle" x="250.14" y="-14.3" font-family="Times New Roman,serif" font-size="14.00">front</text>
</a>
</g>
</g>
<!-- upper_6&#45;&gt;front_8 -->
<g id="edge3" class="edge">
<title>upper_6&#45;&gt;front_8</title>
<path fill="none" stroke="black" d="M151.82,-38.81C169.97,-34.93 193.51,-29.89 212.89,-25.75"/>
<polygon fill="black" stroke="black" points="213.83,-29.13 222.88,-23.61 212.37,-22.28 213.83,-29.13"/>
</g>
</g>
</svg>
