solid OpenSCAD_Model
  facet normal 0 0 -1
    outer loop
      vertex -25 -25 -35
      vertex -25 25 -35
      vertex -20 -20 -35
    endloop
  endfacet
  facet normal -1 0 0
    outer loop
      vertex -25 -25 -35
      vertex -25 -25 0
      vertex -25 25 0
    endloop
  endfacet
  facet normal 0 0 -1
    outer loop
      vertex -25 -25 -35
      vertex -20 -20 -35
      vertex 25 -25 -35
    endloop
  endfacet
  facet normal 0 -1 0
    outer loop
      vertex -25 -25 -35
      vertex 25 -25 0
      vertex -25 -25 0
    endloop
  endfacet
  facet normal -1 0 0
    outer loop
      vertex -25 -25 -35
      vertex -25 25 -25
      vertex -25 25 -35
    endloop
  endfacet
  facet normal 0 0 -1
    outer loop
      vertex -25 25 -35
      vertex -20 20 -35
      vertex -20 -20 -35
    endloop
  endfacet
  facet normal -1 0 0
    outer loop
      vertex -25 -25 -35
      vertex -25 25 0
      vertex -25 25 -25
    endloop
  endfacet
  facet normal 0 0 -1
    outer loop
      vertex -25 25 -35
      vertex 25 25 -35
      vertex -20 20 -35
    endloop
  endfacet
  facet normal 0 1 0
    outer loop
      vertex -25 25 -35
      vertex -25 25 -25
      vertex 25 25 -25
    endloop
  endfacet
  facet normal 0 0 -1
    outer loop
      vertex 25 -25 -35
      vertex -20 -20 -35
      vertex 20 -20 -35
    endloop
  endfacet
  facet normal 0 -1 0
    outer loop
      vertex -25 -25 -35
      vertex 25 -25 -35
      vertex 25 -25 0
    endloop
  endfacet
  facet normal 0 0 -1
    outer loop
      vertex 25 -25 -35
      vertex 20 -20 -35
      vertex 20 20 -35
    endloop
  endfacet
  facet normal 1 0 0
    outer loop
      vertex 25 -25 -35
      vertex 25 25 -35
      vertex 25 -25 0
    endloop
  endfacet
  facet normal 0 0 -1
    outer loop
      vertex 25 25 -35
      vertex 20 20 -35
      vertex -20 20 -35
    endloop
  endfacet
  facet normal 0 1 0
    outer loop
      vertex -25 25 -35
      vertex 25 25 -25
      vertex 25 25 -35
    endloop
  endfacet
  facet normal 0 0 -1
    outer loop
      vertex 25 -25 -35
      vertex 20 20 -35
      vertex 25 25 -35
    endloop
  endfacet
  facet normal 1 0 0
    outer loop
      vertex 25 -25 0
      vertex 25 25 -35
      vertex 25 25 -25
    endloop
  endfacet
  facet normal 1 0 0
    outer loop
      vertex 25 -25 0
      vertex 25 25 -25
      vertex 25 25 0
    endloop
  endfacet
  facet normal -1 0 0
    outer loop
      vertex -25 -25 0
      vertex -25 -25 35
      vertex -25 25 35
    endloop
  endfacet
  facet normal 0 0 1
    outer loop
      vertex -25 -25 35
      vertex -20 -20 35
      vertex -25 25 35
    endloop
  endfacet
  facet normal 0 -1 0
    outer loop
      vertex -25 -25 0
      vertex 25 -25 35
      vertex -25 -25 35
    endloop
  endfacet
  facet normal 0 0 1
    outer loop
      vertex -25 -25 35
      vertex 20 -20 35
      vertex -20 -20 35
    endloop
  endfacet
  facet normal -1 0 0
    outer loop
      vertex -25 -25 0
      vertex -25 25 25
      vertex -25 25 0
    endloop
  endfacet
  facet normal -1 0 0
    outer loop
      vertex -25 -25 0
      vertex -25 25 35
      vertex -25 25 25
    endloop
  endfacet
  facet normal 0 0 1
    outer loop
      vertex -25 25 35
      vertex -20 -20 35
      vertex -20 20 35
    endloop
  endfacet
  facet normal 0 0 1
    outer loop
      vertex -25 25 35
      vertex -20 20 35
      vertex 20 20 35
    endloop
  endfacet
  facet normal 0 1 0
    outer loop
      vertex -25 25 25
      vertex -25 25 35
      vertex 25 25 35
    endloop
  endfacet
  facet normal 0 -1 0
    outer loop
      vertex -25 -25 0
      vertex 25 -25 0
      vertex 25 -25 35
    endloop
  endfacet
  facet normal 0 0 1
    outer loop
      vertex -25 -25 35
      vertex 25 -25 35
      vertex 20 -20 35
    endloop
  endfacet
  facet normal 1 0 0
    outer loop
      vertex 25 -25 0
      vertex 25 25 0
      vertex 25 -25 35
    endloop
  endfacet
  facet normal 0 0 1
    outer loop
      vertex 25 -25 35
      vertex 25 25 35
      vertex 20 -20 35
    endloop
  endfacet
  facet normal 0 0 1
    outer loop
      vertex -25 25 35
      vertex 20 20 35
      vertex 25 25 35
    endloop
  endfacet
  facet normal 0 1 0
    outer loop
      vertex -25 25 25
      vertex 25 25 35
      vertex 25 25 25
    endloop
  endfacet
  facet normal 1 0 0
    outer loop
      vertex 25 -25 35
      vertex 25 25 0
      vertex 25 25 25
    endloop
  endfacet
  facet normal 0 0 1
    outer loop
      vertex 25 25 35
      vertex 20 20 35
      vertex 20 -20 35
    endloop
  endfacet
  facet normal 1 0 0
    outer loop
      vertex 25 -25 35
      vertex 25 25 25
      vertex 25 25 35
    endloop
  endfacet
  facet normal -1 0 0
    outer loop
      vertex -25 25 -25
      vertex -25 25 0
      vertex -25 35 -25
    endloop
  endfacet
  facet normal 0 1 0
    outer loop
      vertex -25 35 -25
      vertex -20 35 20
      vertex -20 35 -20
    endloop
  endfacet
  facet normal 0 0 -1
    outer loop
      vertex -25 25 -25
      vertex -25 35 -25
      vertex 25 25 -25
    endloop
  endfacet
  facet normal 0 1 0
    outer loop
      vertex -25 35 -25
      vertex -20 35 -20
      vertex 25 35 -25
    endloop
  endfacet
  facet normal -1 0 0
    outer loop
      vertex -25 35 -25
      vertex -25 25 0
      vertex -25 35 25
    endloop
  endfacet
  facet normal 0 1 0
    outer loop
      vertex -25 35 -25
      vertex -25 35 25
      vertex -20 35 20
    endloop
  endfacet
  facet normal -1 0 0
    outer loop
      vertex -25 25 0
      vertex -25 25 25
      vertex -25 35 25
    endloop
  endfacet
  facet normal 0 1 0
    outer loop
      vertex -25 35 25
      vertex 20 35 20
      vertex -20 35 20
    endloop
  endfacet
  facet normal 0 0 1
    outer loop
      vertex -25 25 25
      vertex 25 35 25
      vertex -25 35 25
    endloop
  endfacet
  facet normal 0 0 -1
    outer loop
      vertex -25 35 -25
      vertex 25 35 -25
      vertex 25 25 -25
    endloop
  endfacet
  facet normal 0 1 0
    outer loop
      vertex 25 35 -25
      vertex -20 35 -20
      vertex 20 35 -20
    endloop
  endfacet
  facet normal 1 0 0
    outer loop
      vertex 25 25 -25
      vertex 25 35 -25
      vertex 25 25 0
    endloop
  endfacet
  facet normal 0 1 0
    outer loop
      vertex 25 35 -25
      vertex 20 35 -20
      vertex 25 35 25
    endloop
  endfacet
  facet normal 0 0 1
    outer loop
      vertex -25 25 25
      vertex 25 25 25
      vertex 25 35 25
    endloop
  endfacet
  facet normal 0 1 0
    outer loop
      vertex -25 35 25
      vertex 25 35 25
      vertex 20 35 20
    endloop
  endfacet
  facet normal 0 1 0
    outer loop
      vertex 25 35 25
      vertex 20 35 -20
      vertex 20 35 20
    endloop
  endfacet
  facet normal 1 0 0
    outer loop
      vertex 25 35 -25
      vertex 25 35 25
      vertex 25 25 0
    endloop
  endfacet
  facet normal 1 0 0
    outer loop
      vertex 25 25 0
      vertex 25 35 25
      vertex 25 25 25
    endloop
  endfacet
  facet normal 1 0 0
    outer loop
      vertex -20 -20 0.0004999999999988347
      vertex -20 -20 -35
      vertex -20 20 0.0004999999999988347
    endloop
  endfacet
  facet normal 0 1 0
    outer loop
      vertex -20 -20 0.0004999999999988347
      vertex 20 -20 -35
      vertex -20 -20 -35
    endloop
  endfacet
  facet normal 1 0 0
    outer loop
      vertex -20 20 -20
      vertex -20 -20 -35
      vertex -20 20 -35
    endloop
  endfacet
  facet normal 1 0 0
    outer loop
      vertex -20 20 -20
      vertex -20 20 0.0004999999999988347
      vertex -20 -20 -35
    endloop
  endfacet
  facet normal 0 -1 0
    outer loop
      vertex -20 20 -20
      vertex -20 20 -35
      vertex 20 20 -20
    endloop
  endfacet
  facet normal 0 1 0
    outer loop
      vertex -20 -20 0.0004999999999988347
      vertex 20 -20 0.0004999999999988347
      vertex 20 -20 -35
    endloop
  endfacet
  facet normal -1 0 0
    outer loop
      vertex 20 -20 0.0004999999999988347
      vertex 20 20 -35
      vertex 20 -20 -35
    endloop
  endfacet
  facet normal 0 -1 0
    outer loop
      vertex 20 20 -20
      vertex -20 20 -35
      vertex 20 20 -35
    endloop
  endfacet
  facet normal -1 0 0
    outer loop
      vertex 20 -20 0.0004999999999988347
      vertex 20 20 -20
      vertex 20 20 -35
    endloop
  endfacet
  facet normal -1 0 0
    outer loop
      vertex 20 -20 0.0004999999999988347
      vertex 20 20 0.0004999999999988347
      vertex 20 20 -20
    endloop
  endfacet
  facet normal 1 0 0
    outer loop
      vertex -20 -20 0.0004999999999988347
      vertex -20 20 35
      vertex -20 -20 35
    endloop
  endfacet
  facet normal 0 1 0
    outer loop
      vertex -20 -20 0.0004999999999988347
      vertex -20 -20 35
      vertex 20 -20 0.0004999999999988347
    endloop
  endfacet
  facet normal 1 0 0
    outer loop
      vertex -20 20 0.0004999999999988347
      vertex -20 20 20
      vertex -20 -20 0.0004999999999988347
    endloop
  endfacet
  facet normal 1 0 0
    outer loop
      vertex -20 -20 0.0004999999999988347
      vertex -20 20 20
      vertex -20 20 35
    endloop
  endfacet
  facet normal 0 -1 0
    outer loop
      vertex -20 20 20
      vertex 20 20 35
      vertex -20 20 35
    endloop
  endfacet
  facet normal 0 1 0
    outer loop
      vertex 20 -20 0.0004999999999988347
      vertex -20 -20 35
      vertex 20 -20 35
    endloop
  endfacet
  facet normal -1 0 0
    outer loop
      vertex 20 -20 0.0004999999999988347
      vertex 20 -20 35
      vertex 20 20 20
    endloop
  endfacet
  facet normal 0 -1 0
    outer loop
      vertex -20 20 20
      vertex 20 20 20
      vertex 20 20 35
    endloop
  endfacet
  facet normal -1 0 0
    outer loop
      vertex 20 -20 0.0004999999999988347
      vertex 20 20 20
      vertex 20 20 0.0004999999999988347
    endloop
  endfacet
  facet normal -1 0 0
    outer loop
      vertex 20 20 20
      vertex 20 -20 35
      vertex 20 20 35
    endloop
  endfacet
  facet normal 1 0 0
    outer loop
      vertex -20 20 -20
      vertex -20 35 -20
      vertex -20 20 0.0004999999999988347
    endloop
  endfacet
  facet normal 0 0 1
    outer loop
      vertex -20 20 -20
      vertex 20 35 -20
      vertex -20 35 -20
    endloop
  endfacet
  facet normal 1 0 0
    outer loop
      vertex -20 20 0.0004999999999988347
      vertex -20 35 -20
      vertex -20 20 20
    endloop
  endfacet
  facet normal 1 0 0
    outer loop
      vertex -20 20 20
      vertex -20 35 -20
      vertex -20 35 20
    endloop
  endfacet
  facet normal 0 0 -1
    outer loop
      vertex -20 20 20
      vertex -20 35 20
      vertex 20 20 20
    endloop
  endfacet
  facet normal 0 0 1
    outer loop
      vertex -20 20 -20
      vertex 20 20 -20
      vertex 20 35 -20
    endloop
  endfacet
  facet normal -1 0 0
    outer loop
      vertex 20 20 -20
      vertex 20 35 20
      vertex 20 35 -20
    endloop
  endfacet
  facet normal 0 0 -1
    outer loop
      vertex 20 20 20
      vertex -20 35 20
      vertex 20 35 20
    endloop
  endfacet
  facet normal -1 0 0
    outer loop
      vertex 20 20 -20
      vertex 20 20 0.0004999999999988347
      vertex 20 35 20
    endloop
  endfacet
  facet normal -1 0 0
    outer loop
      vertex 20 20 0.0004999999999988347
      vertex 20 20 20
      vertex 20 35 20
    endloop
  endfacet
endsolid OpenSCAD_Model
