<?xml version="1.0" encoding="UTF-8" standalone="no"?>
<!DOCTYPE svg PUBLIC "-//W3C//DTD SVG 1.1//EN"
 "http://www.w3.org/Graphics/SVG/1.1/DTD/svg11.dtd">
<!-- Generated by graphviz version 5.0.0 (20220707.1540)
 -->
<!-- Title: default Pages: 1 -->
<svg width="610pt" height="638pt"
 viewBox="0.00 0.00 610.26 638.00" xmlns="http://www.w3.org/2000/svg" xmlns:xlink="http://www.w3.org/1999/xlink">
<g id="graph0" class="graph" transform="scale(1 1) rotate(0) translate(4 634)">
<title>default</title>
<polygon fill="white" stroke="transparent" points="-4,4 -4,-634 606.26,-634 606.26,4 -4,4"/>
<!-- root_1 -->
<g id="node1" class="node">
<title>root_1</title>
<g id="a_node1"><a xlink:href="javascript:s=&quot;\(\)\nNone&quot;; console.log(s); alert(s);" xlink:title="root">
<ellipse fill="none" stroke="black" cx="27" cy="-396" rx="27" ry="18"/>
<text text-anchor="middle" x="27" y="-392.3" font-family="Times New Roman,serif" font-size="14.00">root</text>
</a>
</g>
</g>
<!-- default_2 -->
<g id="node2" class="node">
<title>default_2</title>
<g id="a_node2"><a xlink:href="javascript:s=&quot;\(&#x27;default&#x27;,\)\nSquarePipe&quot;; console.log(s); alert(s);" xlink:title="SquarePipe">
<ellipse fill="none" stroke="black" cx="186.84" cy="-558" rx="35.19" ry="18"/>
<text text-anchor="middle" x="186.84" y="-554.3" font-family="Times New Roman,serif" font-size="14.00">default</text>
</a>
</g>
</g>
<!-- root_1&#45;&gt;default_2 -->
<g id="edge1" class="edge">
<title>root_1&#45;&gt;default_2</title>
<path fill="none" stroke="black" d="M42.57,-410.95C70.1,-439.2 129.95,-500.64 162.92,-534.47"/>
<polygon fill="black" stroke="black" points="160.43,-536.93 169.91,-541.65 165.44,-532.05 160.43,-536.93"/>
</g>
<!-- 5 -->
<g id="node5" class="node">
<title>5</title>
<g id="a_node5"><a xlink:href="javascript:s=&quot;\(&quot;&#x27;face_centre&#x27;,\ 5,\ &quot;,\)\nAnnotatedCoordinates&quot;; console.log(s); alert(s);" xlink:title="AnnotatedCoordinates">
<ellipse fill="none" stroke="black" cx="186.84" cy="-396" rx="70.69" ry="18"/>
<text text-anchor="middle" x="186.84" y="-392.3" font-family="Times New Roman,serif" font-size="14.00">&#39;face_centre&#39;, 5, </text>
</a>
</g>
</g>
<!-- root_1&#45;&gt;5 -->
<g id="edge4" class="edge">
<title>root_1&#45;&gt;5</title>
<path fill="none" stroke="black" d="M54.06,-396C68.39,-396 87.01,-396 105.73,-396"/>
<polygon fill="black" stroke="black" points="105.8,-399.5 115.8,-396 105.8,-392.5 105.8,-399.5"/>
</g>
<!-- 21 -->
<g id="node21" class="node">
<title>21</title>
<g id="a_node21"><a xlink:href="javascript:s=&quot;\(&quot;&#x27;inner&#x27;,\ &#x27;face_centre&#x27;,\ 2,\ &quot;,\)\nAnnotatedCoordinates&quot;; console.log(s); alert(s);" xlink:title="AnnotatedCoordinates">
<ellipse fill="none" stroke="black" cx="186.84" cy="-153" rx="96.68" ry="18"/>
<text text-anchor="middle" x="186.84" y="-149.3" font-family="Times New Roman,serif" font-size="14.00">&#39;inner&#39;, &#39;face_centre&#39;, 2, </text>
</a>
</g>
</g>
<!-- root_1&#45;&gt;21 -->
<g id="edge20" class="edge">
<title>root_1&#45;&gt;21</title>
<path fill="none" stroke="black" d="M38.6,-379.68C65.4,-338.42 136.05,-229.66 168.76,-179.29"/>
<polygon fill="black" stroke="black" points="171.72,-181.17 174.23,-170.88 165.85,-177.36 171.72,-181.17"/>
</g>
<!-- outer_3 -->
<g id="node3" class="node">
<title>outer_3</title>
<g id="a_node3"><a xlink:href="javascript:s=&quot;\(&#x27;default&#x27;,\ &#x27;outer&#x27;\)\nBox&quot;; console.log(s); alert(s);" xlink:title="Box">
<ellipse fill="none" stroke="black" cx="356.08" cy="-612" rx="29.5" ry="18"/>
<text text-anchor="middle" x="356.08" y="-608.3" font-family="Times New Roman,serif" font-size="14.00">outer</text>
</a>
</g>
</g>
<!-- default_2&#45;&gt;outer_3 -->
<g id="edge2" class="edge">
<title>default_2&#45;&gt;outer_3</title>
<path fill="none" stroke="black" d="M216.97,-567.41C245.64,-576.66 289.45,-590.81 320.02,-600.68"/>
<polygon fill="black" stroke="black" points="319.24,-604.11 329.83,-603.85 321.39,-597.44 319.24,-604.11"/>
</g>
<!-- hole_4 -->
<g id="node4" class="node">
<title>hole_4</title>
<g id="a_node4"><a xlink:href="javascript:s=&quot;\(&#x27;default&#x27;,\ &#x27;hole&#x27;\)\nBox&quot;; console.log(s); alert(s);" xlink:title="Box">
<ellipse fill="none" stroke="black" cx="356.08" cy="-558" rx="27" ry="18"/>
<text text-anchor="middle" x="356.08" y="-554.3" font-family="Times New Roman,serif" font-size="14.00">hole</text>
</a>
</g>
</g>
<!-- default_2&#45;&gt;hole_4 -->
<g id="edge3" class="edge">
<title>default_2&#45;&gt;hole_4</title>
<path fill="none" stroke="black" d="M222.09,-558C250.26,-558 290.08,-558 318.79,-558"/>
<polygon fill="black" stroke="black" points="318.83,-561.5 328.83,-558 318.83,-554.5 318.83,-561.5"/>
</g>
<!-- coords_6 -->
<g id="node6" class="node">
<title>coords_6</title>
<g id="a_node6"><a xlink:href="javascript:s=&quot;\(&quot;&#x27;face_centre&#x27;,\ 5,\ &quot;,\ &#x27;coords&#x27;\)\nCoordinates&quot;; console.log(s); alert(s);" xlink:title="Coordinates">
<ellipse fill="none" stroke="black" cx="356.08" cy="-504" rx="36.29" ry="18"/>
<text text-anchor="middle" x="356.08" y="-500.3" font-family="Times New Roman,serif" font-size="14.00">coords</text>
</a>
</g>
</g>
<!-- 5&#45;&gt;coords_6 -->
<g id="edge5" class="edge">
<title>5&#45;&gt;coords_6</title>
<path fill="none" stroke="black" d="M213.97,-412.88C243.95,-432.23 293.03,-463.93 324.69,-484.38"/>
<polygon fill="black" stroke="black" points="322.83,-487.34 333.13,-489.83 326.63,-481.46 322.83,-487.34"/>
</g>
<!-- x_17 -->
<g id="node17" class="node">
<title>x_17</title>
<g id="a_node17"><a xlink:href="javascript:s=&quot;\(&quot;&#x27;face_centre&#x27;,\ 5,\ &quot;,\ &#x27;x&#x27;\)\nText&quot;; console.log(s); alert(s);" xlink:title="Text">
<ellipse fill="none" stroke="black" cx="356.08" cy="-450" rx="27" ry="18"/>
<text text-anchor="middle" x="356.08" y="-446.3" font-family="Times New Roman,serif" font-size="14.00">x</text>
</a>
</g>
</g>
<!-- 5&#45;&gt;x_17 -->
<g id="edge16" class="edge">
<title>5&#45;&gt;x_17</title>
<path fill="none" stroke="black" d="M231.34,-410.05C259.54,-419.15 295.71,-430.83 321.65,-439.21"/>
<polygon fill="black" stroke="black" points="320.81,-442.61 331.4,-442.35 322.96,-435.95 320.81,-442.61"/>
</g>
<!-- y_18 -->
<g id="node18" class="node">
<title>y_18</title>
<g id="a_node18"><a xlink:href="javascript:s=&quot;\(&quot;&#x27;face_centre&#x27;,\ 5,\ &quot;,\ &#x27;y&#x27;\)\nText&quot;; console.log(s); alert(s);" xlink:title="Text">
<ellipse fill="none" stroke="black" cx="356.08" cy="-396" rx="27" ry="18"/>
<text text-anchor="middle" x="356.08" y="-392.3" font-family="Times New Roman,serif" font-size="14.00">y</text>
</a>
</g>
</g>
<!-- 5&#45;&gt;y_18 -->
<g id="edge17" class="edge">
<title>5&#45;&gt;y_18</title>
<path fill="none" stroke="black" d="M257.8,-396C278.65,-396 300.67,-396 318.47,-396"/>
<polygon fill="black" stroke="black" points="318.7,-399.5 328.7,-396 318.7,-392.5 318.7,-399.5"/>
</g>
<!-- z_19 -->
<g id="node19" class="node">
<title>z_19</title>
<g id="a_node19"><a xlink:href="javascript:s=&quot;\(&quot;&#x27;face_centre&#x27;,\ 5,\ &quot;,\ &#x27;z&#x27;\)\nText&quot;; console.log(s); alert(s);" xlink:title="Text">
<ellipse fill="none" stroke="black" cx="356.08" cy="-342" rx="27" ry="18"/>
<text text-anchor="middle" x="356.08" y="-338.3" font-family="Times New Roman,serif" font-size="14.00">z</text>
</a>
</g>
</g>
<!-- 5&#45;&gt;z_19 -->
<g id="edge18" class="edge">
<title>5&#45;&gt;z_19</title>
<path fill="none" stroke="black" d="M231.34,-381.95C259.54,-372.85 295.71,-361.17 321.65,-352.79"/>
<polygon fill="black" stroke="black" points="322.96,-356.05 331.4,-349.65 320.81,-349.39 322.96,-356.05"/>
</g>
<!-- label_20 -->
<g id="node20" class="node">
<title>label_20</title>
<g id="a_node20"><a xlink:href="javascript:s=&quot;\(&quot;&#x27;face_centre&#x27;,\ 5,\ &quot;,\ &#x27;label&#x27;\)\nText&quot;; console.log(s); alert(s);" xlink:title="Text">
<ellipse fill="none" stroke="black" cx="356.08" cy="-288" rx="27.1" ry="18"/>
<text text-anchor="middle" x="356.08" y="-284.3" font-family="Times New Roman,serif" font-size="14.00">label</text>
</a>
</g>
</g>
<!-- 5&#45;&gt;label_20 -->
<g id="edge19" class="edge">
<title>5&#45;&gt;label_20</title>
<path fill="none" stroke="black" d="M213.97,-379.12C244.74,-359.25 295.64,-326.39 327.16,-306.03"/>
<polygon fill="black" stroke="black" points="329.39,-308.75 335.9,-300.39 325.6,-302.87 329.39,-308.75"/>
</g>
<!-- origin_7 -->
<g id="node7" class="node">
<title>origin_7</title>
<g id="a_node7"><a xlink:href="javascript:s=&quot;\(&quot;&#x27;face_centre&#x27;,\ 5,\ &quot;,\ &#x27;coords&#x27;,\ &#x27;origin&#x27;\)\nCoordinatesCage&quot;; console.log(s); alert(s);" xlink:title="CoordinatesCage">
<ellipse fill="none" stroke="black" cx="469.42" cy="-612" rx="31.4" ry="18"/>
<text text-anchor="middle" x="469.42" y="-608.3" font-family="Times New Roman,serif" font-size="14.00">origin</text>
</a>
</g>
</g>
<!-- coords_6&#45;&gt;origin_7 -->
<g id="edge6" class="edge">
<title>coords_6&#45;&gt;origin_7</title>
<path fill="none" stroke="black" d="M378.27,-518.34C383.2,-522.16 388.25,-526.49 392.48,-531 412.21,-552.03 408.15,-564.54 428.48,-585 431.46,-588.01 434.83,-590.88 438.31,-593.55"/>
<polygon fill="black" stroke="black" points="436.34,-596.45 446.51,-599.41 440.41,-590.75 436.34,-596.45"/>
</g>
<!-- x_arrow_8 -->
<g id="node8" class="node">
<title>x_arrow_8</title>
<g id="a_node8"><a xlink:href="javascript:s=&quot;\(&quot;&#x27;face_centre&#x27;,\ 5,\ &quot;,\ &#x27;coords&#x27;,\ &#x27;x_arrow&#x27;\)\nArrow&quot;; console.log(s); alert(s);" xlink:title="Arrow">
<ellipse fill="none" stroke="black" cx="469.42" cy="-558" rx="40.89" ry="18"/>
<text text-anchor="middle" x="469.42" y="-554.3" font-family="Times New Roman,serif" font-size="14.00">x_arrow</text>
</a>
</g>
</g>
<!-- coords_6&#45;&gt;x_arrow_8 -->
<g id="edge7" class="edge">
<title>coords_6&#45;&gt;x_arrow_8</title>
<path fill="none" stroke="black" d="M382.62,-516.39C397.22,-523.47 415.78,-532.47 431.89,-540.28"/>
<polygon fill="black" stroke="black" points="430.53,-543.51 441.05,-544.73 433.58,-537.21 430.53,-543.51"/>
</g>
<!-- y_arrow_11 -->
<g id="node11" class="node">
<title>y_arrow_11</title>
<g id="a_node11"><a xlink:href="javascript:s=&quot;\(&quot;&#x27;face_centre&#x27;,\ 5,\ &quot;,\ &#x27;coords&#x27;,\ &#x27;y_arrow&#x27;\)\nArrow&quot;; console.log(s); alert(s);" xlink:title="Arrow">
<ellipse fill="none" stroke="black" cx="469.42" cy="-504" rx="40.89" ry="18"/>
<text text-anchor="middle" x="469.42" y="-500.3" font-family="Times New Roman,serif" font-size="14.00">y_arrow</text>
</a>
</g>
</g>
<!-- coords_6&#45;&gt;y_arrow_11 -->
<g id="edge10" class="edge">
<title>coords_6&#45;&gt;y_arrow_11</title>
<path fill="none" stroke="black" d="M392.62,-504C400.67,-504 409.37,-504 417.91,-504"/>
<polygon fill="black" stroke="black" points="418.19,-507.5 428.19,-504 418.19,-500.5 418.19,-507.5"/>
</g>
<!-- z_arrow_14 -->
<g id="node14" class="node">
<title>z_arrow_14</title>
<g id="a_node14"><a xlink:href="javascript:s=&quot;\(&quot;&#x27;face_centre&#x27;,\ 5,\ &quot;,\ &#x27;coords&#x27;,\ &#x27;z_arrow&#x27;\)\nArrow&quot;; console.log(s); alert(s);" xlink:title="Arrow">
<ellipse fill="none" stroke="black" cx="469.42" cy="-396" rx="40.09" ry="18"/>
<text text-anchor="middle" x="469.42" y="-392.3" font-family="Times New Roman,serif" font-size="14.00">z_arrow</text>
</a>
</g>
</g>
<!-- coords_6&#45;&gt;z_arrow_14 -->
<g id="edge13" class="edge">
<title>coords_6&#45;&gt;z_arrow_14</title>
<path fill="none" stroke="black" d="M377.76,-489.14C382.71,-485.34 387.89,-481.14 392.48,-477 412.15,-459.23 432.6,-437.18 447.31,-420.58"/>
<polygon fill="black" stroke="black" points="450.08,-422.73 454.05,-412.91 444.82,-418.11 450.08,-422.73"/>
</g>
<!-- stem_9 -->
<g id="node9" class="node">
<title>stem_9</title>
<g id="a_node9"><a xlink:href="javascript:s=&quot;\(&quot;&#x27;face_centre&#x27;,\ 5,\ &quot;,\ &#x27;coords&#x27;,\ &#x27;x_arrow&#x27;,\ &#x27;stem&#x27;\)\nCone&quot;; console.log(s); alert(s);" xlink:title="Cone">
<ellipse fill="none" stroke="black" cx="574.32" cy="-612" rx="27.9" ry="18"/>
<text text-anchor="middle" x="574.32" y="-608.3" font-family="Times New Roman,serif" font-size="14.00">stem</text>
</a>
</g>
</g>
<!-- x_arrow_8&#45;&gt;stem_9 -->
<g id="edge8" class="edge">
<title>x_arrow_8&#45;&gt;stem_9</title>
<path fill="none" stroke="black" d="M496.39,-571.63C510.55,-579.06 528.16,-588.3 542.96,-596.07"/>
<polygon fill="black" stroke="black" points="541.73,-599.37 552.21,-600.92 544.98,-593.18 541.73,-599.37"/>
</g>
<!-- head_10 -->
<g id="node10" class="node">
<title>head_10</title>
<g id="a_node10"><a xlink:href="javascript:s=&quot;\(&quot;&#x27;face_centre&#x27;,\ 5,\ &quot;,\ &#x27;coords&#x27;,\ &#x27;x_arrow&#x27;,\ &#x27;head&#x27;\)\nCone&quot;; console.log(s); alert(s);" xlink:title="Cone">
<ellipse fill="none" stroke="black" cx="574.32" cy="-558" rx="27.9" ry="18"/>
<text text-anchor="middle" x="574.32" y="-554.3" font-family="Times New Roman,serif" font-size="14.00">head</text>
</a>
</g>
</g>
<!-- x_arrow_8&#45;&gt;head_10 -->
<g id="edge9" class="edge">
<title>x_arrow_8&#45;&gt;head_10</title>
<path fill="none" stroke="black" d="M510.5,-558C518.91,-558 527.75,-558 536.05,-558"/>
<polygon fill="black" stroke="black" points="536.21,-561.5 546.21,-558 536.21,-554.5 536.21,-561.5"/>
</g>
<!-- stem_12 -->
<g id="node12" class="node">
<title>stem_12</title>
<g id="a_node12"><a xlink:href="javascript:s=&quot;\(&quot;&#x27;face_centre&#x27;,\ 5,\ &quot;,\ &#x27;coords&#x27;,\ &#x27;y_arrow&#x27;,\ &#x27;stem&#x27;\)\nCone&quot;; console.log(s); alert(s);" xlink:title="Cone">
<ellipse fill="none" stroke="black" cx="574.32" cy="-504" rx="27.9" ry="18"/>
<text text-anchor="middle" x="574.32" y="-500.3" font-family="Times New Roman,serif" font-size="14.00">stem</text>
</a>
</g>
</g>
<!-- y_arrow_11&#45;&gt;stem_12 -->
<g id="edge11" class="edge">
<title>y_arrow_11&#45;&gt;stem_12</title>
<path fill="none" stroke="black" d="M510.5,-504C518.91,-504 527.75,-504 536.05,-504"/>
<polygon fill="black" stroke="black" points="536.21,-507.5 546.21,-504 536.21,-500.5 536.21,-507.5"/>
</g>
<!-- head_13 -->
<g id="node13" class="node">
<title>head_13</title>
<g id="a_node13"><a xlink:href="javascript:s=&quot;\(&quot;&#x27;face_centre&#x27;,\ 5,\ &quot;,\ &#x27;coords&#x27;,\ &#x27;y_arrow&#x27;,\ &#x27;head&#x27;\)\nCone&quot;; console.log(s); alert(s);" xlink:title="Cone">
<ellipse fill="none" stroke="black" cx="574.32" cy="-450" rx="27.9" ry="18"/>
<text text-anchor="middle" x="574.32" y="-446.3" font-family="Times New Roman,serif" font-size="14.00">head</text>
</a>
</g>
</g>
<!-- y_arrow_11&#45;&gt;head_13 -->
<g id="edge12" class="edge">
<title>y_arrow_11&#45;&gt;head_13</title>
<path fill="none" stroke="black" d="M496.39,-490.37C510.55,-482.94 528.16,-473.7 542.96,-465.93"/>
<polygon fill="black" stroke="black" points="544.98,-468.82 552.21,-461.08 541.73,-462.63 544.98,-468.82"/>
</g>
<!-- stem_15 -->
<g id="node15" class="node">
<title>stem_15</title>
<g id="a_node15"><a xlink:href="javascript:s=&quot;\(&quot;&#x27;face_centre&#x27;,\ 5,\ &quot;,\ &#x27;coords&#x27;,\ &#x27;z_arrow&#x27;,\ &#x27;stem&#x27;\)\nCone&quot;; console.log(s); alert(s);" xlink:title="Cone">
<ellipse fill="none" stroke="black" cx="574.32" cy="-396" rx="27.9" ry="18"/>
<text text-anchor="middle" x="574.32" y="-392.3" font-family="Times New Roman,serif" font-size="14.00">stem</text>
</a>
</g>
</g>
<!-- z_arrow_14&#45;&gt;stem_15 -->
<g id="edge14" class="edge">
<title>z_arrow_14&#45;&gt;stem_15</title>
<path fill="none" stroke="black" d="M509.91,-396C518.53,-396 527.63,-396 536.16,-396"/>
<polygon fill="black" stroke="black" points="536.21,-399.5 546.21,-396 536.21,-392.5 536.21,-399.5"/>
</g>
<!-- head_16 -->
<g id="node16" class="node">
<title>head_16</title>
<g id="a_node16"><a xlink:href="javascript:s=&quot;\(&quot;&#x27;face_centre&#x27;,\ 5,\ &quot;,\ &#x27;coords&#x27;,\ &#x27;z_arrow&#x27;,\ &#x27;head&#x27;\)\nCone&quot;; console.log(s); alert(s);" xlink:title="Cone">
<ellipse fill="none" stroke="black" cx="574.32" cy="-342" rx="27.9" ry="18"/>
<text text-anchor="middle" x="574.32" y="-338.3" font-family="Times New Roman,serif" font-size="14.00">head</text>
</a>
</g>
</g>
<!-- z_arrow_14&#45;&gt;head_16 -->
<g id="edge15" class="edge">
<title>z_arrow_14&#45;&gt;head_16</title>
<path fill="none" stroke="black" d="M496.12,-382.51C510.42,-375.01 528.29,-365.63 543.23,-357.79"/>
<polygon fill="black" stroke="black" points="544.87,-360.88 552.1,-353.14 541.62,-354.68 544.87,-360.88"/>
</g>
<!-- coords_22 -->
<g id="node22" class="node">
<title>coords_22</title>
<g id="a_node22"><a xlink:href="javascript:s=&quot;\(&quot;&#x27;inner&#x27;,\ &#x27;face_centre&#x27;,\ 2,\ &quot;,\ &#x27;coords&#x27;\)\nCoordinates&quot;; console.log(s); alert(s);" xlink:title="Coordinates">
<ellipse fill="none" stroke="black" cx="356.08" cy="-234" rx="36.29" ry="18"/>
<text text-anchor="middle" x="356.08" y="-230.3" font-family="Times New Roman,serif" font-size="14.00">coords</text>
</a>
</g>
</g>
<!-- 21&#45;&gt;coords_22 -->
<g id="edge21" class="edge">
<title>21&#45;&gt;coords_22</title>
<path fill="none" stroke="black" d="M222.49,-169.78C251.12,-183.65 291.56,-203.24 320.24,-217.12"/>
<polygon fill="black" stroke="black" points="318.95,-220.39 329.48,-221.6 322,-214.09 318.95,-220.39"/>
</g>
<!-- x_33 -->
<g id="node33" class="node">
<title>x_33</title>
<g id="a_node33"><a xlink:href="javascript:s=&quot;\(&quot;&#x27;inner&#x27;,\ &#x27;face_centre&#x27;,\ 2,\ &quot;,\ &#x27;x&#x27;\)\nText&quot;; console.log(s); alert(s);" xlink:title="Text">
<ellipse fill="none" stroke="black" cx="356.08" cy="-180" rx="27" ry="18"/>
<text text-anchor="middle" x="356.08" y="-176.3" font-family="Times New Roman,serif" font-size="14.00">x</text>
</a>
</g>
</g>
<!-- 21&#45;&gt;x_33 -->
<g id="edge32" class="edge">
<title>21&#45;&gt;x_33</title>
<path fill="none" stroke="black" d="M260.71,-164.76C281.12,-168.06 302.4,-171.49 319.57,-174.27"/>
<polygon fill="black" stroke="black" points="319.26,-177.76 329.69,-175.9 320.38,-170.85 319.26,-177.76"/>
</g>
<!-- y_34 -->
<g id="node34" class="node">
<title>y_34</title>
<g id="a_node34"><a xlink:href="javascript:s=&quot;\(&quot;&#x27;inner&#x27;,\ &#x27;face_centre&#x27;,\ 2,\ &quot;,\ &#x27;y&#x27;\)\nText&quot;; console.log(s); alert(s);" xlink:title="Text">
<ellipse fill="none" stroke="black" cx="356.08" cy="-126" rx="27" ry="18"/>
<text text-anchor="middle" x="356.08" y="-122.3" font-family="Times New Roman,serif" font-size="14.00">y</text>
</a>
</g>
</g>
<!-- 21&#45;&gt;y_34 -->
<g id="edge33" class="edge">
<title>21&#45;&gt;y_34</title>
<path fill="none" stroke="black" d="M260.71,-141.24C281.12,-137.94 302.4,-134.51 319.57,-131.73"/>
<polygon fill="black" stroke="black" points="320.38,-135.15 329.69,-130.1 319.26,-128.24 320.38,-135.15"/>
</g>
<!-- z_35 -->
<g id="node35" class="node">
<title>z_35</title>
<g id="a_node35"><a xlink:href="javascript:s=&quot;\(&quot;&#x27;inner&#x27;,\ &#x27;face_centre&#x27;,\ 2,\ &quot;,\ &#x27;z&#x27;\)\nText&quot;; console.log(s); alert(s);" xlink:title="Text">
<ellipse fill="none" stroke="black" cx="356.08" cy="-72" rx="27" ry="18"/>
<text text-anchor="middle" x="356.08" y="-68.3" font-family="Times New Roman,serif" font-size="14.00">z</text>
</a>
</g>
</g>
<!-- 21&#45;&gt;z_35 -->
<g id="edge34" class="edge">
<title>21&#45;&gt;z_35</title>
<path fill="none" stroke="black" d="M222.49,-136.22C252.58,-121.65 295.72,-100.75 324.53,-86.79"/>
<polygon fill="black" stroke="black" points="326.24,-89.86 333.72,-82.35 323.19,-83.56 326.24,-89.86"/>
</g>
<!-- label_36 -->
<g id="node36" class="node">
<title>label_36</title>
<g id="a_node36"><a xlink:href="javascript:s=&quot;\(&quot;&#x27;inner&#x27;,\ &#x27;face_centre&#x27;,\ 2,\ &quot;,\ &#x27;label&#x27;\)\nText&quot;; console.log(s); alert(s);" xlink:title="Text">
<ellipse fill="none" stroke="black" cx="356.08" cy="-18" rx="27.1" ry="18"/>
<text text-anchor="middle" x="356.08" y="-14.3" font-family="Times New Roman,serif" font-size="14.00">label</text>
</a>
</g>
</g>
<!-- 21&#45;&gt;label_36 -->
<g id="edge35" class="edge">
<title>21&#45;&gt;label_36</title>
<path fill="none" stroke="black" d="M209.12,-135.19C235.03,-113.59 280.22,-76.2 319.68,-45 322.8,-42.54 326.09,-39.97 329.36,-37.45"/>
<polygon fill="black" stroke="black" points="331.53,-40.2 337.34,-31.34 327.27,-34.64 331.53,-40.2"/>
</g>
<!-- origin_23 -->
<g id="node23" class="node">
<title>origin_23</title>
<g id="a_node23"><a xlink:href="javascript:s=&quot;\(&quot;&#x27;inner&#x27;,\ &#x27;face_centre&#x27;,\ 2,\ &quot;,\ &#x27;coords&#x27;,\ &#x27;origin&#x27;\)\nCoordinatesCage&quot;; console.log(s); alert(s);" xlink:title="CoordinatesCage">
<ellipse fill="none" stroke="black" cx="469.42" cy="-288" rx="31.4" ry="18"/>
<text text-anchor="middle" x="469.42" y="-284.3" font-family="Times New Roman,serif" font-size="14.00">origin</text>
</a>
</g>
</g>
<!-- coords_22&#45;&gt;origin_23 -->
<g id="edge22" class="edge">
<title>coords_22&#45;&gt;origin_23</title>
<path fill="none" stroke="black" d="M382.62,-246.39C398.44,-254.06 418.9,-263.98 435.88,-272.22"/>
<polygon fill="black" stroke="black" points="434.37,-275.38 444.9,-276.59 437.43,-269.08 434.37,-275.38"/>
</g>
<!-- x_arrow_24 -->
<g id="node24" class="node">
<title>x_arrow_24</title>
<g id="a_node24"><a xlink:href="javascript:s=&quot;\(&quot;&#x27;inner&#x27;,\ &#x27;face_centre&#x27;,\ 2,\ &quot;,\ &#x27;coords&#x27;,\ &#x27;x_arrow&#x27;\)\nArrow&quot;; console.log(s); alert(s);" xlink:title="Arrow">
<ellipse fill="none" stroke="black" cx="469.42" cy="-234" rx="40.89" ry="18"/>
<text text-anchor="middle" x="469.42" y="-230.3" font-family="Times New Roman,serif" font-size="14.00">x_arrow</text>
</a>
</g>
</g>
<!-- coords_22&#45;&gt;x_arrow_24 -->
<g id="edge23" class="edge">
<title>coords_22&#45;&gt;x_arrow_24</title>
<path fill="none" stroke="black" d="M392.62,-234C400.67,-234 409.37,-234 417.91,-234"/>
<polygon fill="black" stroke="black" points="418.19,-237.5 428.19,-234 418.19,-230.5 418.19,-237.5"/>
</g>
<!-- y_arrow_27 -->
<g id="node27" class="node">
<title>y_arrow_27</title>
<g id="a_node27"><a xlink:href="javascript:s=&quot;\(&quot;&#x27;inner&#x27;,\ &#x27;face_centre&#x27;,\ 2,\ &quot;,\ &#x27;coords&#x27;,\ &#x27;y_arrow&#x27;\)\nArrow&quot;; console.log(s); alert(s);" xlink:title="Arrow">
<ellipse fill="none" stroke="black" cx="469.42" cy="-180" rx="40.89" ry="18"/>
<text text-anchor="middle" x="469.42" y="-176.3" font-family="Times New Roman,serif" font-size="14.00">y_arrow</text>
</a>
</g>
</g>
<!-- coords_22&#45;&gt;y_arrow_27 -->
<g id="edge26" class="edge">
<title>coords_22&#45;&gt;y_arrow_27</title>
<path fill="none" stroke="black" d="M382.62,-221.61C397.22,-214.53 415.78,-205.53 431.89,-197.72"/>
<polygon fill="black" stroke="black" points="433.58,-200.79 441.05,-193.27 430.53,-194.49 433.58,-200.79"/>
</g>
<!-- z_arrow_30 -->
<g id="node30" class="node">
<title>z_arrow_30</title>
<g id="a_node30"><a xlink:href="javascript:s=&quot;\(&quot;&#x27;inner&#x27;,\ &#x27;face_centre&#x27;,\ 2,\ &quot;,\ &#x27;coords&#x27;,\ &#x27;z_arrow&#x27;\)\nArrow&quot;; console.log(s); alert(s);" xlink:title="Arrow">
<ellipse fill="none" stroke="black" cx="469.42" cy="-72" rx="40.09" ry="18"/>
<text text-anchor="middle" x="469.42" y="-68.3" font-family="Times New Roman,serif" font-size="14.00">z_arrow</text>
</a>
</g>
</g>
<!-- coords_22&#45;&gt;z_arrow_30 -->
<g id="edge29" class="edge">
<title>coords_22&#45;&gt;z_arrow_30</title>
<path fill="none" stroke="black" d="M378.88,-219.59C383.69,-215.83 388.52,-211.55 392.48,-207 407.92,-189.24 437.75,-132.65 455.07,-98.64"/>
<polygon fill="black" stroke="black" points="458.21,-100.19 459.61,-89.69 451.96,-97.03 458.21,-100.19"/>
</g>
<!-- stem_25 -->
<g id="node25" class="node">
<title>stem_25</title>
<g id="a_node25"><a xlink:href="javascript:s=&quot;\(&quot;&#x27;inner&#x27;,\ &#x27;face_centre&#x27;,\ 2,\ &quot;,\ &#x27;coords&#x27;,\ &#x27;x_arrow&#x27;,\ &#x27;stem&#x27;\)\nCone&quot;; console.log(s); alert(s);" xlink:title="Cone">
<ellipse fill="none" stroke="black" cx="574.32" cy="-288" rx="27.9" ry="18"/>
<text text-anchor="middle" x="574.32" y="-284.3" font-family="Times New Roman,serif" font-size="14.00">stem</text>
</a>
</g>
</g>
<!-- x_arrow_24&#45;&gt;stem_25 -->
<g id="edge24" class="edge">
<title>x_arrow_24&#45;&gt;stem_25</title>
<path fill="none" stroke="black" d="M496.39,-247.63C510.55,-255.06 528.16,-264.3 542.96,-272.07"/>
<polygon fill="black" stroke="black" points="541.73,-275.37 552.21,-276.92 544.98,-269.18 541.73,-275.37"/>
</g>
<!-- head_26 -->
<g id="node26" class="node">
<title>head_26</title>
<g id="a_node26"><a xlink:href="javascript:s=&quot;\(&quot;&#x27;inner&#x27;,\ &#x27;face_centre&#x27;,\ 2,\ &quot;,\ &#x27;coords&#x27;,\ &#x27;x_arrow&#x27;,\ &#x27;head&#x27;\)\nCone&quot;; console.log(s); alert(s);" xlink:title="Cone">
<ellipse fill="none" stroke="black" cx="574.32" cy="-234" rx="27.9" ry="18"/>
<text text-anchor="middle" x="574.32" y="-230.3" font-family="Times New Roman,serif" font-size="14.00">head</text>
</a>
</g>
</g>
<!-- x_arrow_24&#45;&gt;head_26 -->
<g id="edge25" class="edge">
<title>x_arrow_24&#45;&gt;head_26</title>
<path fill="none" stroke="black" d="M510.5,-234C518.91,-234 527.75,-234 536.05,-234"/>
<polygon fill="black" stroke="black" points="536.21,-237.5 546.21,-234 536.21,-230.5 536.21,-237.5"/>
</g>
<!-- stem_28 -->
<g id="node28" class="node">
<title>stem_28</title>
<g id="a_node28"><a xlink:href="javascript:s=&quot;\(&quot;&#x27;inner&#x27;,\ &#x27;face_centre&#x27;,\ 2,\ &quot;,\ &#x27;coords&#x27;,\ &#x27;y_arrow&#x27;,\ &#x27;stem&#x27;\)\nCone&quot;; console.log(s); alert(s);" xlink:title="Cone">
<ellipse fill="none" stroke="black" cx="574.32" cy="-180" rx="27.9" ry="18"/>
<text text-anchor="middle" x="574.32" y="-176.3" font-family="Times New Roman,serif" font-size="14.00">stem</text>
</a>
</g>
</g>
<!-- y_arrow_27&#45;&gt;stem_28 -->
<g id="edge27" class="edge">
<title>y_arrow_27&#45;&gt;stem_28</title>
<path fill="none" stroke="black" d="M510.5,-180C518.91,-180 527.75,-180 536.05,-180"/>
<polygon fill="black" stroke="black" points="536.21,-183.5 546.21,-180 536.21,-176.5 536.21,-183.5"/>
</g>
<!-- head_29 -->
<g id="node29" class="node">
<title>head_29</title>
<g id="a_node29"><a xlink:href="javascript:s=&quot;\(&quot;&#x27;inner&#x27;,\ &#x27;face_centre&#x27;,\ 2,\ &quot;,\ &#x27;coords&#x27;,\ &#x27;y_arrow&#x27;,\ &#x27;head&#x27;\)\nCone&quot;; console.log(s); alert(s);" xlink:title="Cone">
<ellipse fill="none" stroke="black" cx="574.32" cy="-126" rx="27.9" ry="18"/>
<text text-anchor="middle" x="574.32" y="-122.3" font-family="Times New Roman,serif" font-size="14.00">head</text>
</a>
</g>
</g>
<!-- y_arrow_27&#45;&gt;head_29 -->
<g id="edge28" class="edge">
<title>y_arrow_27&#45;&gt;head_29</title>
<path fill="none" stroke="black" d="M496.39,-166.37C510.55,-158.94 528.16,-149.7 542.96,-141.93"/>
<polygon fill="black" stroke="black" points="544.98,-144.82 552.21,-137.08 541.73,-138.63 544.98,-144.82"/>
</g>
<!-- stem_31 -->
<g id="node31" class="node">
<title>stem_31</title>
<g id="a_node31"><a xlink:href="javascript:s=&quot;\(&quot;&#x27;inner&#x27;,\ &#x27;face_centre&#x27;,\ 2,\ &quot;,\ &#x27;coords&#x27;,\ &#x27;z_arrow&#x27;,\ &#x27;stem&#x27;\)\nCone&quot;; console.log(s); alert(s);" xlink:title="Cone">
<ellipse fill="none" stroke="black" cx="574.32" cy="-72" rx="27.9" ry="18"/>
<text text-anchor="middle" x="574.32" y="-68.3" font-family="Times New Roman,serif" font-size="14.00">stem</text>
</a>
</g>
</g>
<!-- z_arrow_30&#45;&gt;stem_31 -->
<g id="edge30" class="edge">
<title>z_arrow_30&#45;&gt;stem_31</title>
<path fill="none" stroke="black" d="M509.91,-72C518.53,-72 527.63,-72 536.16,-72"/>
<polygon fill="black" stroke="black" points="536.21,-75.5 546.21,-72 536.21,-68.5 536.21,-75.5"/>
</g>
<!-- head_32 -->
<g id="node32" class="node">
<title>head_32</title>
<g id="a_node32"><a xlink:href="javascript:s=&quot;\(&quot;&#x27;inner&#x27;,\ &#x27;face_centre&#x27;,\ 2,\ &quot;,\ &#x27;coords&#x27;,\ &#x27;z_arrow&#x27;,\ &#x27;head&#x27;\)\nCone&quot;; console.log(s); alert(s);" xlink:title="Cone">
<ellipse fill="none" stroke="black" cx="574.32" cy="-18" rx="27.9" ry="18"/>
<text text-anchor="middle" x="574.32" y="-14.3" font-family="Times New Roman,serif" font-size="14.00">head</text>
</a>
</g>
</g>
<!-- z_arrow_30&#45;&gt;head_32 -->
<g id="edge31" class="edge">
<title>z_arrow_30&#45;&gt;head_32</title>
<path fill="none" stroke="black" d="M496.12,-58.51C510.42,-51.01 528.29,-41.63 543.23,-33.79"/>
<polygon fill="black" stroke="black" points="544.87,-36.88 552.1,-29.14 541.62,-30.68 544.87,-36.88"/>
</g>
</g>
</svg>
