<?xml version="1.0" encoding="UTF-8" standalone="no"?>
<!DOCTYPE svg PUBLIC "-//W3C//DTD SVG 1.1//EN"
 "http://www.w3.org/Graphics/SVG/1.1/DTD/svg11.dtd">
<!-- Generated by graphviz version 5.0.0 (20220707.1540)
 -->
<!-- Title: default Pages: 1 -->
<svg width="356pt" height="314pt"
 viewBox="0.00 0.00 355.88 314.00" xmlns="http://www.w3.org/2000/svg" xmlns:xlink="http://www.w3.org/1999/xlink">
<g id="graph0" class="graph" transform="scale(1 1) rotate(0) translate(4 310)">
<title>default</title>
<polygon fill="white" stroke="transparent" points="-4,4 -4,-310 351.88,-310 351.88,4 -4,4"/>
<!-- root_37 -->
<g id="node1" class="node">
<title>root_37</title>
<g id="a_node1"><a xlink:href="javascript:s=&quot;\(\)\nNone&quot;; console.log(s); alert(s);" xlink:title="root">
<ellipse fill="none" stroke="black" cx="27" cy="-153" rx="27" ry="18"/>
<text text-anchor="middle" x="27" y="-149.3" font-family="Times New Roman,serif" font-size="14.00">root</text>
</a>
</g>
</g>
<!-- default_38 -->
<g id="node2" class="node">
<title>default_38</title>
<g id="a_node2"><a xlink:href="javascript:s=&quot;\(&#x27;default&#x27;,\)\nSquarePipeTee&quot;; console.log(s); alert(s);" xlink:title="SquarePipeTee">
<ellipse fill="none" stroke="black" cx="125.1" cy="-153" rx="35.19" ry="18"/>
<text text-anchor="middle" x="125.1" y="-149.3" font-family="Times New Roman,serif" font-size="14.00">default</text>
</a>
</g>
</g>
<!-- root_37&#45;&gt;default_38 -->
<g id="edge1" class="edge">
<title>root_37&#45;&gt;default_38</title>
<path fill="none" stroke="black" d="M54.01,-153C61.92,-153 70.84,-153 79.61,-153"/>
<polygon fill="black" stroke="black" points="79.76,-156.5 89.76,-153 79.76,-149.5 79.76,-156.5"/>
</g>
<!-- LHS_39 -->
<g id="node3" class="node">
<title>LHS_39</title>
<g id="a_node3"><a xlink:href="javascript:s=&quot;\(&#x27;default&#x27;,\ &#x27;LHS&#x27;\)\nSquarePipe&quot;; console.log(s); alert(s);" xlink:title="SquarePipe">
<ellipse fill="none" stroke="black" cx="224.79" cy="-234" rx="27.9" ry="18"/>
<text text-anchor="middle" x="224.79" y="-230.3" font-family="Times New Roman,serif" font-size="14.00">LHS</text>
</a>
</g>
</g>
<!-- default_38&#45;&gt;LHS_39 -->
<g id="edge2" class="edge">
<title>default_38&#45;&gt;LHS_39</title>
<path fill="none" stroke="black" d="M144.47,-168.24C159.86,-181 181.97,-199.33 198.94,-213.4"/>
<polygon fill="black" stroke="black" points="196.87,-216.23 206.81,-219.92 201.34,-210.84 196.87,-216.23"/>
</g>
<!-- RHS_42 -->
<g id="node6" class="node">
<title>RHS_42</title>
<g id="a_node6"><a xlink:href="javascript:s=&quot;\(&#x27;default&#x27;,\ &#x27;RHS&#x27;\)\nSquarePipe&quot;; console.log(s); alert(s);" xlink:title="SquarePipe">
<ellipse fill="none" stroke="black" cx="224.79" cy="-153" rx="28.7" ry="18"/>
<text text-anchor="middle" x="224.79" y="-149.3" font-family="Times New Roman,serif" font-size="14.00">RHS</text>
</a>
</g>
</g>
<!-- default_38&#45;&gt;RHS_42 -->
<g id="edge5" class="edge">
<title>default_38&#45;&gt;RHS_42</title>
<path fill="none" stroke="black" d="M160.27,-153C168.56,-153 177.47,-153 185.93,-153"/>
<polygon fill="black" stroke="black" points="185.93,-156.5 195.93,-153 185.93,-149.5 185.93,-156.5"/>
</g>
<!-- stem_45 -->
<g id="node9" class="node">
<title>stem_45</title>
<g id="a_node9"><a xlink:href="javascript:s=&quot;\(&#x27;default&#x27;,\ &#x27;stem&#x27;\)\nSquarePipe&quot;; console.log(s); alert(s);" xlink:title="SquarePipe">
<ellipse fill="none" stroke="black" cx="224.79" cy="-72" rx="27.9" ry="18"/>
<text text-anchor="middle" x="224.79" y="-68.3" font-family="Times New Roman,serif" font-size="14.00">stem</text>
</a>
</g>
</g>
<!-- default_38&#45;&gt;stem_45 -->
<g id="edge8" class="edge">
<title>default_38&#45;&gt;stem_45</title>
<path fill="none" stroke="black" d="M144.47,-137.76C159.86,-125 181.97,-106.67 198.94,-92.6"/>
<polygon fill="black" stroke="black" points="201.34,-95.16 206.81,-86.08 196.87,-89.77 201.34,-95.16"/>
</g>
<!-- outer_40 -->
<g id="node4" class="node">
<title>outer_40</title>
<g id="a_node4"><a xlink:href="javascript:s=&quot;\(&#x27;default&#x27;,\ &#x27;LHS&#x27;,\ &#x27;outer&#x27;\)\nBox&quot;; console.log(s); alert(s);" xlink:title="Box">
<ellipse fill="none" stroke="black" cx="318.64" cy="-288" rx="29.5" ry="18"/>
<text text-anchor="middle" x="318.64" y="-284.3" font-family="Times New Roman,serif" font-size="14.00">outer</text>
</a>
</g>
</g>
<!-- LHS_39&#45;&gt;outer_40 -->
<g id="edge3" class="edge">
<title>LHS_39&#45;&gt;outer_40</title>
<path fill="none" stroke="black" d="M246.17,-245.98C258.57,-253.27 274.61,-262.71 288.36,-270.78"/>
<polygon fill="black" stroke="black" points="286.6,-273.81 296.99,-275.86 290.15,-267.78 286.6,-273.81"/>
</g>
<!-- hole_41 -->
<g id="node5" class="node">
<title>hole_41</title>
<g id="a_node5"><a xlink:href="javascript:s=&quot;\(&#x27;default&#x27;,\ &#x27;LHS&#x27;,\ &#x27;hole&#x27;\)\nBox&quot;; console.log(s); alert(s);" xlink:title="Box">
<ellipse fill="none" stroke="black" cx="318.64" cy="-234" rx="27" ry="18"/>
<text text-anchor="middle" x="318.64" y="-230.3" font-family="Times New Roman,serif" font-size="14.00">hole</text>
</a>
</g>
</g>
<!-- LHS_39&#45;&gt;hole_41 -->
<g id="edge4" class="edge">
<title>LHS_39&#45;&gt;hole_41</title>
<path fill="none" stroke="black" d="M252.85,-234C261.79,-234 271.88,-234 281.39,-234"/>
<polygon fill="black" stroke="black" points="281.4,-237.5 291.4,-234 281.4,-230.5 281.4,-237.5"/>
</g>
<!-- outer_43 -->
<g id="node7" class="node">
<title>outer_43</title>
<g id="a_node7"><a xlink:href="javascript:s=&quot;\(&#x27;default&#x27;,\ &#x27;RHS&#x27;,\ &#x27;outer&#x27;\)\nBox&quot;; console.log(s); alert(s);" xlink:title="Box">
<ellipse fill="none" stroke="black" cx="318.64" cy="-180" rx="29.5" ry="18"/>
<text text-anchor="middle" x="318.64" y="-176.3" font-family="Times New Roman,serif" font-size="14.00">outer</text>
</a>
</g>
</g>
<!-- RHS_42&#45;&gt;outer_43 -->
<g id="edge6" class="edge">
<title>RHS_42&#45;&gt;outer_43</title>
<path fill="none" stroke="black" d="M250.89,-160.38C260.55,-163.22 271.77,-166.52 282.22,-169.59"/>
<polygon fill="black" stroke="black" points="281.35,-172.98 291.93,-172.44 283.32,-166.26 281.35,-172.98"/>
</g>
<!-- hole_44 -->
<g id="node8" class="node">
<title>hole_44</title>
<g id="a_node8"><a xlink:href="javascript:s=&quot;\(&#x27;default&#x27;,\ &#x27;RHS&#x27;,\ &#x27;hole&#x27;\)\nBox&quot;; console.log(s); alert(s);" xlink:title="Box">
<ellipse fill="none" stroke="black" cx="318.64" cy="-126" rx="27" ry="18"/>
<text text-anchor="middle" x="318.64" y="-122.3" font-family="Times New Roman,serif" font-size="14.00">hole</text>
</a>
</g>
</g>
<!-- RHS_42&#45;&gt;hole_44 -->
<g id="edge7" class="edge">
<title>RHS_42&#45;&gt;hole_44</title>
<path fill="none" stroke="black" d="M250.89,-145.62C261.05,-142.63 272.95,-139.14 283.86,-135.93"/>
<polygon fill="black" stroke="black" points="284.91,-139.27 293.52,-133.09 282.94,-132.55 284.91,-139.27"/>
</g>
<!-- outer_46 -->
<g id="node10" class="node">
<title>outer_46</title>
<g id="a_node10"><a xlink:href="javascript:s=&quot;\(&#x27;default&#x27;,\ &#x27;stem&#x27;,\ &#x27;outer&#x27;\)\nBox&quot;; console.log(s); alert(s);" xlink:title="Box">
<ellipse fill="none" stroke="black" cx="318.64" cy="-72" rx="29.5" ry="18"/>
<text text-anchor="middle" x="318.64" y="-68.3" font-family="Times New Roman,serif" font-size="14.00">outer</text>
</a>
</g>
</g>
<!-- stem_45&#45;&gt;outer_46 -->
<g id="edge9" class="edge">
<title>stem_45&#45;&gt;outer_46</title>
<path fill="none" stroke="black" d="M252.85,-72C261.07,-72 270.26,-72 279.07,-72"/>
<polygon fill="black" stroke="black" points="279.17,-75.5 289.17,-72 279.17,-68.5 279.17,-75.5"/>
</g>
<!-- hole_47 -->
<g id="node11" class="node">
<title>hole_47</title>
<g id="a_node11"><a xlink:href="javascript:s=&quot;\(&#x27;default&#x27;,\ &#x27;stem&#x27;,\ &#x27;hole&#x27;\)\nBox&quot;; console.log(s); alert(s);" xlink:title="Box">
<ellipse fill="none" stroke="black" cx="318.64" cy="-18" rx="27" ry="18"/>
<text text-anchor="middle" x="318.64" y="-14.3" font-family="Times New Roman,serif" font-size="14.00">hole</text>
</a>
</g>
</g>
<!-- stem_45&#45;&gt;hole_47 -->
<g id="edge10" class="edge">
<title>stem_45&#45;&gt;hole_47</title>
<path fill="none" stroke="black" d="M246.17,-60.02C258.83,-52.57 275.29,-42.9 289.22,-34.71"/>
<polygon fill="black" stroke="black" points="291.09,-37.67 297.94,-29.58 287.55,-31.63 291.09,-37.67"/>
</g>
</g>
</svg>
