<?xml version="1.0" encoding="UTF-8" standalone="no"?>
<!DOCTYPE svg PUBLIC "-//W3C//DTD SVG 1.1//EN"
 "http://www.w3.org/Graphics/SVG/1.1/DTD/svg11.dtd">
<!-- Generated by graphviz version 5.0.0 (20220707.1540)
 -->
<!-- Title: default Pages: 1 -->
<svg width="639pt" height="638pt"
 viewBox="0.00 0.00 638.86 638.00" xmlns="http://www.w3.org/2000/svg" xmlns:xlink="http://www.w3.org/1999/xlink">
<g id="graph0" class="graph" transform="scale(1 1) rotate(0) translate(4 634)">
<title>default</title>
<polygon fill="white" stroke="transparent" points="-4,4 -4,-634 634.86,-634 634.86,4 -4,4"/>
<!-- root_1 -->
<g id="node1" class="node">
<title>root_1</title>
<g id="a_node1"><a xlink:href="javascript:s=&quot;\(\)\nNone&quot;; console.log(s); alert(s);" xlink:title="root">
<ellipse fill="none" stroke="black" cx="27" cy="-396" rx="27" ry="18"/>
<text text-anchor="middle" x="27" y="-392.3" font-family="Times New Roman,serif" font-size="14.00">root</text>
</a>
</g>
</g>
<!-- default_2 -->
<g id="node2" class="node">
<title>default_2</title>
<g id="a_node2"><a xlink:href="javascript:s=&quot;\(&#x27;default&#x27;,\)\nParallelogramRounded&quot;; console.log(s); alert(s);" xlink:title="ParallelogramRounded">
<ellipse fill="none" stroke="black" cx="201.14" cy="-504" rx="35.19" ry="18"/>
<text text-anchor="middle" x="201.14" y="-500.3" font-family="Times New Roman,serif" font-size="14.00">default</text>
</a>
</g>
</g>
<!-- root_1&#45;&gt;default_2 -->
<g id="edge1" class="edge">
<title>root_1&#45;&gt;default_2</title>
<path fill="none" stroke="black" d="M47.41,-408.18C77.16,-426.84 134.28,-462.68 169.61,-484.85"/>
<polygon fill="black" stroke="black" points="167.76,-487.82 178.09,-490.17 171.48,-481.89 167.76,-487.82"/>
</g>
<!-- 4 -->
<g id="node4" class="node">
<title>4</title>
<g id="a_node4"><a xlink:href="javascript:s=&quot;\(&quot;&#x27;centre&#x27;,\ rh=0&quot;,\)\nAnnotatedCoordinates&quot;; console.log(s); alert(s);" xlink:title="AnnotatedCoordinates">
<ellipse fill="none" stroke="black" cx="201.14" cy="-396" rx="58.49" ry="18"/>
<text text-anchor="middle" x="201.14" y="-392.3" font-family="Times New Roman,serif" font-size="14.00">&#39;centre&#39;, rh=0</text>
</a>
</g>
</g>
<!-- root_1&#45;&gt;4 -->
<g id="edge3" class="edge">
<title>root_1&#45;&gt;4</title>
<path fill="none" stroke="black" d="M54.14,-396C74.83,-396 104.68,-396 132,-396"/>
<polygon fill="black" stroke="black" points="132.33,-399.5 142.33,-396 132.33,-392.5 132.33,-399.5"/>
</g>
<!-- 20 -->
<g id="node20" class="node">
<title>20</title>
<g id="a_node20"><a xlink:href="javascript:s=&quot;\(&quot;&#x27;centre&#x27;,\ t=0\.1,\ rh=1,\ ry=0\.1&quot;,\)\nAnnotatedCoordinates&quot;; console.log(s); alert(s);" xlink:title="AnnotatedCoordinates">
<ellipse fill="none" stroke="black" cx="201.14" cy="-153" rx="111.28" ry="18"/>
<text text-anchor="middle" x="201.14" y="-149.3" font-family="Times New Roman,serif" font-size="14.00">&#39;centre&#39;, t=0.1, rh=1, ry=0.1</text>
</a>
</g>
</g>
<!-- root_1&#45;&gt;20 -->
<g id="edge19" class="edge">
<title>root_1&#45;&gt;20</title>
<path fill="none" stroke="black" d="M39.56,-379.68C68.79,-338.42 145.83,-229.66 181.52,-179.29"/>
<polygon fill="black" stroke="black" points="184.55,-181.06 187.48,-170.88 178.84,-177.01 184.55,-181.06"/>
</g>
<!-- prism_3 -->
<g id="node3" class="node">
<title>prism_3</title>
<g id="a_node3"><a xlink:href="javascript:s=&quot;\(&#x27;default&#x27;,\ &#x27;prism&#x27;\)\nLinearExtrude&quot;; console.log(s); alert(s);" xlink:title="LinearExtrude">
<ellipse fill="none" stroke="black" cx="384.68" cy="-558" rx="31.4" ry="18"/>
<text text-anchor="middle" x="384.68" y="-554.3" font-family="Times New Roman,serif" font-size="14.00">prism</text>
</a>
</g>
</g>
<!-- default_2&#45;&gt;prism_3 -->
<g id="edge2" class="edge">
<title>default_2&#45;&gt;prism_3</title>
<path fill="none" stroke="black" d="M232.12,-512.92C263.51,-522.26 312.87,-536.94 346.67,-546.99"/>
<polygon fill="black" stroke="black" points="346.04,-550.46 356.62,-549.95 348.03,-543.75 346.04,-550.46"/>
</g>
<!-- coords_5 -->
<g id="node5" class="node">
<title>coords_5</title>
<g id="a_node5"><a xlink:href="javascript:s=&quot;\(&quot;&#x27;centre&#x27;,\ rh=0&quot;,\ &#x27;coords&#x27;\)\nCoordinates&quot;; console.log(s); alert(s);" xlink:title="Coordinates">
<ellipse fill="none" stroke="black" cx="384.68" cy="-504" rx="36.29" ry="18"/>
<text text-anchor="middle" x="384.68" y="-500.3" font-family="Times New Roman,serif" font-size="14.00">coords</text>
</a>
</g>
</g>
<!-- 4&#45;&gt;coords_5 -->
<g id="edge4" class="edge">
<title>4&#45;&gt;coords_5</title>
<path fill="none" stroke="black" d="M228.93,-411.94C261.7,-431.43 317.12,-464.4 351.98,-485.14"/>
<polygon fill="black" stroke="black" points="350.42,-488.29 360.81,-490.39 354,-482.27 350.42,-488.29"/>
</g>
<!-- x_16 -->
<g id="node16" class="node">
<title>x_16</title>
<g id="a_node16"><a xlink:href="javascript:s=&quot;\(&quot;&#x27;centre&#x27;,\ rh=0&quot;,\ &#x27;x&#x27;\)\nText&quot;; console.log(s); alert(s);" xlink:title="Text">
<ellipse fill="none" stroke="black" cx="384.68" cy="-450" rx="27" ry="18"/>
<text text-anchor="middle" x="384.68" y="-446.3" font-family="Times New Roman,serif" font-size="14.00">x</text>
</a>
</g>
</g>
<!-- 4&#45;&gt;x_16 -->
<g id="edge15" class="edge">
<title>4&#45;&gt;x_16</title>
<path fill="none" stroke="black" d="M243.79,-408.39C276.05,-417.98 320.15,-431.1 350.15,-440.03"/>
<polygon fill="black" stroke="black" points="349.17,-443.39 359.75,-442.88 351.16,-436.68 349.17,-443.39"/>
</g>
<!-- y_17 -->
<g id="node17" class="node">
<title>y_17</title>
<g id="a_node17"><a xlink:href="javascript:s=&quot;\(&quot;&#x27;centre&#x27;,\ rh=0&quot;,\ &#x27;y&#x27;\)\nText&quot;; console.log(s); alert(s);" xlink:title="Text">
<ellipse fill="none" stroke="black" cx="384.68" cy="-396" rx="27" ry="18"/>
<text text-anchor="middle" x="384.68" y="-392.3" font-family="Times New Roman,serif" font-size="14.00">y</text>
</a>
</g>
</g>
<!-- 4&#45;&gt;y_17 -->
<g id="edge16" class="edge">
<title>4&#45;&gt;y_17</title>
<path fill="none" stroke="black" d="M259.83,-396C288.54,-396 322.36,-396 347.4,-396"/>
<polygon fill="black" stroke="black" points="347.55,-399.5 357.55,-396 347.55,-392.5 347.55,-399.5"/>
</g>
<!-- z_18 -->
<g id="node18" class="node">
<title>z_18</title>
<g id="a_node18"><a xlink:href="javascript:s=&quot;\(&quot;&#x27;centre&#x27;,\ rh=0&quot;,\ &#x27;z&#x27;\)\nText&quot;; console.log(s); alert(s);" xlink:title="Text">
<ellipse fill="none" stroke="black" cx="384.68" cy="-342" rx="27" ry="18"/>
<text text-anchor="middle" x="384.68" y="-338.3" font-family="Times New Roman,serif" font-size="14.00">z</text>
</a>
</g>
</g>
<!-- 4&#45;&gt;z_18 -->
<g id="edge17" class="edge">
<title>4&#45;&gt;z_18</title>
<path fill="none" stroke="black" d="M243.79,-383.61C276.05,-374.02 320.15,-360.9 350.15,-351.97"/>
<polygon fill="black" stroke="black" points="351.16,-355.32 359.75,-349.12 349.17,-348.61 351.16,-355.32"/>
</g>
<!-- label_19 -->
<g id="node19" class="node">
<title>label_19</title>
<g id="a_node19"><a xlink:href="javascript:s=&quot;\(&quot;&#x27;centre&#x27;,\ rh=0&quot;,\ &#x27;label&#x27;\)\nText&quot;; console.log(s); alert(s);" xlink:title="Text">
<ellipse fill="none" stroke="black" cx="384.68" cy="-288" rx="27.1" ry="18"/>
<text text-anchor="middle" x="384.68" y="-284.3" font-family="Times New Roman,serif" font-size="14.00">label</text>
</a>
</g>
</g>
<!-- 4&#45;&gt;label_19 -->
<g id="edge18" class="edge">
<title>4&#45;&gt;label_19</title>
<path fill="none" stroke="black" d="M228.93,-380.06C262.7,-359.97 320.51,-325.58 355.1,-305"/>
<polygon fill="black" stroke="black" points="356.98,-307.95 363.79,-299.83 353.4,-301.94 356.98,-307.95"/>
</g>
<!-- origin_6 -->
<g id="node6" class="node">
<title>origin_6</title>
<g id="a_node6"><a xlink:href="javascript:s=&quot;\(&quot;&#x27;centre&#x27;,\ rh=0&quot;,\ &#x27;coords&#x27;,\ &#x27;origin&#x27;\)\nCoordinatesCage&quot;; console.log(s); alert(s);" xlink:title="CoordinatesCage">
<ellipse fill="none" stroke="black" cx="498.02" cy="-612" rx="31.4" ry="18"/>
<text text-anchor="middle" x="498.02" y="-608.3" font-family="Times New Roman,serif" font-size="14.00">origin</text>
</a>
</g>
</g>
<!-- coords_5&#45;&gt;origin_6 -->
<g id="edge5" class="edge">
<title>coords_5&#45;&gt;origin_6</title>
<path fill="none" stroke="black" d="M406.86,-518.34C411.8,-522.16 416.84,-526.49 421.07,-531 440.81,-552.03 436.74,-564.54 457.07,-585 460.06,-588.01 463.43,-590.88 466.91,-593.55"/>
<polygon fill="black" stroke="black" points="464.94,-596.45 475.11,-599.41 469,-590.75 464.94,-596.45"/>
</g>
<!-- x_arrow_7 -->
<g id="node7" class="node">
<title>x_arrow_7</title>
<g id="a_node7"><a xlink:href="javascript:s=&quot;\(&quot;&#x27;centre&#x27;,\ rh=0&quot;,\ &#x27;coords&#x27;,\ &#x27;x_arrow&#x27;\)\nArrow&quot;; console.log(s); alert(s);" xlink:title="Arrow">
<ellipse fill="none" stroke="black" cx="498.02" cy="-558" rx="40.89" ry="18"/>
<text text-anchor="middle" x="498.02" y="-554.3" font-family="Times New Roman,serif" font-size="14.00">x_arrow</text>
</a>
</g>
</g>
<!-- coords_5&#45;&gt;x_arrow_7 -->
<g id="edge6" class="edge">
<title>coords_5&#45;&gt;x_arrow_7</title>
<path fill="none" stroke="black" d="M411.22,-516.39C425.82,-523.47 444.37,-532.47 460.49,-540.28"/>
<polygon fill="black" stroke="black" points="459.12,-543.51 469.65,-544.73 462.18,-537.21 459.12,-543.51"/>
</g>
<!-- y_arrow_10 -->
<g id="node10" class="node">
<title>y_arrow_10</title>
<g id="a_node10"><a xlink:href="javascript:s=&quot;\(&quot;&#x27;centre&#x27;,\ rh=0&quot;,\ &#x27;coords&#x27;,\ &#x27;y_arrow&#x27;\)\nArrow&quot;; console.log(s); alert(s);" xlink:title="Arrow">
<ellipse fill="none" stroke="black" cx="498.02" cy="-504" rx="40.89" ry="18"/>
<text text-anchor="middle" x="498.02" y="-500.3" font-family="Times New Roman,serif" font-size="14.00">y_arrow</text>
</a>
</g>
</g>
<!-- coords_5&#45;&gt;y_arrow_10 -->
<g id="edge9" class="edge">
<title>coords_5&#45;&gt;y_arrow_10</title>
<path fill="none" stroke="black" d="M421.21,-504C429.27,-504 437.97,-504 446.51,-504"/>
<polygon fill="black" stroke="black" points="446.79,-507.5 456.79,-504 446.79,-500.5 446.79,-507.5"/>
</g>
<!-- z_arrow_13 -->
<g id="node13" class="node">
<title>z_arrow_13</title>
<g id="a_node13"><a xlink:href="javascript:s=&quot;\(&quot;&#x27;centre&#x27;,\ rh=0&quot;,\ &#x27;coords&#x27;,\ &#x27;z_arrow&#x27;\)\nArrow&quot;; console.log(s); alert(s);" xlink:title="Arrow">
<ellipse fill="none" stroke="black" cx="498.02" cy="-396" rx="40.09" ry="18"/>
<text text-anchor="middle" x="498.02" y="-392.3" font-family="Times New Roman,serif" font-size="14.00">z_arrow</text>
</a>
</g>
</g>
<!-- coords_5&#45;&gt;z_arrow_13 -->
<g id="edge12" class="edge">
<title>coords_5&#45;&gt;z_arrow_13</title>
<path fill="none" stroke="black" d="M406.36,-489.14C411.31,-485.34 416.49,-481.14 421.07,-477 440.74,-459.23 461.19,-437.18 475.91,-420.58"/>
<polygon fill="black" stroke="black" points="478.68,-422.73 482.65,-412.91 473.42,-418.11 478.68,-422.73"/>
</g>
<!-- stem_8 -->
<g id="node8" class="node">
<title>stem_8</title>
<g id="a_node8"><a xlink:href="javascript:s=&quot;\(&quot;&#x27;centre&#x27;,\ rh=0&quot;,\ &#x27;coords&#x27;,\ &#x27;x_arrow&#x27;,\ &#x27;stem&#x27;\)\nCone&quot;; console.log(s); alert(s);" xlink:title="Cone">
<ellipse fill="none" stroke="black" cx="602.91" cy="-612" rx="27.9" ry="18"/>
<text text-anchor="middle" x="602.91" y="-608.3" font-family="Times New Roman,serif" font-size="14.00">stem</text>
</a>
</g>
</g>
<!-- x_arrow_7&#45;&gt;stem_8 -->
<g id="edge7" class="edge">
<title>x_arrow_7&#45;&gt;stem_8</title>
<path fill="none" stroke="black" d="M524.98,-571.63C539.15,-579.06 556.76,-588.3 571.55,-596.07"/>
<polygon fill="black" stroke="black" points="570.32,-599.37 580.8,-600.92 573.58,-593.18 570.32,-599.37"/>
</g>
<!-- head_9 -->
<g id="node9" class="node">
<title>head_9</title>
<g id="a_node9"><a xlink:href="javascript:s=&quot;\(&quot;&#x27;centre&#x27;,\ rh=0&quot;,\ &#x27;coords&#x27;,\ &#x27;x_arrow&#x27;,\ &#x27;head&#x27;\)\nCone&quot;; console.log(s); alert(s);" xlink:title="Cone">
<ellipse fill="none" stroke="black" cx="602.91" cy="-558" rx="27.9" ry="18"/>
<text text-anchor="middle" x="602.91" y="-554.3" font-family="Times New Roman,serif" font-size="14.00">head</text>
</a>
</g>
</g>
<!-- x_arrow_7&#45;&gt;head_9 -->
<g id="edge8" class="edge">
<title>x_arrow_7&#45;&gt;head_9</title>
<path fill="none" stroke="black" d="M539.1,-558C547.51,-558 556.35,-558 564.65,-558"/>
<polygon fill="black" stroke="black" points="564.81,-561.5 574.81,-558 564.81,-554.5 564.81,-561.5"/>
</g>
<!-- stem_11 -->
<g id="node11" class="node">
<title>stem_11</title>
<g id="a_node11"><a xlink:href="javascript:s=&quot;\(&quot;&#x27;centre&#x27;,\ rh=0&quot;,\ &#x27;coords&#x27;,\ &#x27;y_arrow&#x27;,\ &#x27;stem&#x27;\)\nCone&quot;; console.log(s); alert(s);" xlink:title="Cone">
<ellipse fill="none" stroke="black" cx="602.91" cy="-504" rx="27.9" ry="18"/>
<text text-anchor="middle" x="602.91" y="-500.3" font-family="Times New Roman,serif" font-size="14.00">stem</text>
</a>
</g>
</g>
<!-- y_arrow_10&#45;&gt;stem_11 -->
<g id="edge10" class="edge">
<title>y_arrow_10&#45;&gt;stem_11</title>
<path fill="none" stroke="black" d="M539.1,-504C547.51,-504 556.35,-504 564.65,-504"/>
<polygon fill="black" stroke="black" points="564.81,-507.5 574.81,-504 564.81,-500.5 564.81,-507.5"/>
</g>
<!-- head_12 -->
<g id="node12" class="node">
<title>head_12</title>
<g id="a_node12"><a xlink:href="javascript:s=&quot;\(&quot;&#x27;centre&#x27;,\ rh=0&quot;,\ &#x27;coords&#x27;,\ &#x27;y_arrow&#x27;,\ &#x27;head&#x27;\)\nCone&quot;; console.log(s); alert(s);" xlink:title="Cone">
<ellipse fill="none" stroke="black" cx="602.91" cy="-450" rx="27.9" ry="18"/>
<text text-anchor="middle" x="602.91" y="-446.3" font-family="Times New Roman,serif" font-size="14.00">head</text>
</a>
</g>
</g>
<!-- y_arrow_10&#45;&gt;head_12 -->
<g id="edge11" class="edge">
<title>y_arrow_10&#45;&gt;head_12</title>
<path fill="none" stroke="black" d="M524.98,-490.37C539.15,-482.94 556.76,-473.7 571.55,-465.93"/>
<polygon fill="black" stroke="black" points="573.58,-468.82 580.8,-461.08 570.32,-462.63 573.58,-468.82"/>
</g>
<!-- stem_14 -->
<g id="node14" class="node">
<title>stem_14</title>
<g id="a_node14"><a xlink:href="javascript:s=&quot;\(&quot;&#x27;centre&#x27;,\ rh=0&quot;,\ &#x27;coords&#x27;,\ &#x27;z_arrow&#x27;,\ &#x27;stem&#x27;\)\nCone&quot;; console.log(s); alert(s);" xlink:title="Cone">
<ellipse fill="none" stroke="black" cx="602.91" cy="-396" rx="27.9" ry="18"/>
<text text-anchor="middle" x="602.91" y="-392.3" font-family="Times New Roman,serif" font-size="14.00">stem</text>
</a>
</g>
</g>
<!-- z_arrow_13&#45;&gt;stem_14 -->
<g id="edge13" class="edge">
<title>z_arrow_13&#45;&gt;stem_14</title>
<path fill="none" stroke="black" d="M538.51,-396C547.13,-396 556.23,-396 564.75,-396"/>
<polygon fill="black" stroke="black" points="564.8,-399.5 574.8,-396 564.8,-392.5 564.8,-399.5"/>
</g>
<!-- head_15 -->
<g id="node15" class="node">
<title>head_15</title>
<g id="a_node15"><a xlink:href="javascript:s=&quot;\(&quot;&#x27;centre&#x27;,\ rh=0&quot;,\ &#x27;coords&#x27;,\ &#x27;z_arrow&#x27;,\ &#x27;head&#x27;\)\nCone&quot;; console.log(s); alert(s);" xlink:title="Cone">
<ellipse fill="none" stroke="black" cx="602.91" cy="-342" rx="27.9" ry="18"/>
<text text-anchor="middle" x="602.91" y="-338.3" font-family="Times New Roman,serif" font-size="14.00">head</text>
</a>
</g>
</g>
<!-- z_arrow_13&#45;&gt;head_15 -->
<g id="edge14" class="edge">
<title>z_arrow_13&#45;&gt;head_15</title>
<path fill="none" stroke="black" d="M524.72,-382.51C539.01,-375.01 556.88,-365.63 571.83,-357.79"/>
<polygon fill="black" stroke="black" points="573.47,-360.88 580.7,-353.14 570.22,-354.68 573.47,-360.88"/>
</g>
<!-- coords_21 -->
<g id="node21" class="node">
<title>coords_21</title>
<g id="a_node21"><a xlink:href="javascript:s=&quot;\(&quot;&#x27;centre&#x27;,\ t=0\.1,\ rh=1,\ ry=0\.1&quot;,\ &#x27;coords&#x27;\)\nCoordinates&quot;; console.log(s); alert(s);" xlink:title="Coordinates">
<ellipse fill="none" stroke="black" cx="384.68" cy="-234" rx="36.29" ry="18"/>
<text text-anchor="middle" x="384.68" y="-230.3" font-family="Times New Roman,serif" font-size="14.00">coords</text>
</a>
</g>
</g>
<!-- 20&#45;&gt;coords_21 -->
<g id="edge20" class="edge">
<title>20&#45;&gt;coords_21</title>
<path fill="none" stroke="black" d="M240.2,-169.98C271.95,-184.15 316.87,-204.19 347.96,-218.06"/>
<polygon fill="black" stroke="black" points="346.57,-221.28 357.13,-222.15 349.42,-214.88 346.57,-221.28"/>
</g>
<!-- x_32 -->
<g id="node32" class="node">
<title>x_32</title>
<g id="a_node32"><a xlink:href="javascript:s=&quot;\(&quot;&#x27;centre&#x27;,\ t=0\.1,\ rh=1,\ ry=0\.1&quot;,\ &#x27;x&#x27;\)\nText&quot;; console.log(s); alert(s);" xlink:title="Text">
<ellipse fill="none" stroke="black" cx="384.68" cy="-180" rx="27" ry="18"/>
<text text-anchor="middle" x="384.68" y="-176.3" font-family="Times New Roman,serif" font-size="14.00">x</text>
</a>
</g>
</g>
<!-- 20&#45;&gt;x_32 -->
<g id="edge31" class="edge">
<title>20&#45;&gt;x_32</title>
<path fill="none" stroke="black" d="M283.62,-165.12C306.26,-168.49 329.68,-171.97 348.16,-174.72"/>
<polygon fill="black" stroke="black" points="347.75,-178.2 358.16,-176.2 348.78,-171.27 347.75,-178.2"/>
</g>
<!-- y_33 -->
<g id="node33" class="node">
<title>y_33</title>
<g id="a_node33"><a xlink:href="javascript:s=&quot;\(&quot;&#x27;centre&#x27;,\ t=0\.1,\ rh=1,\ ry=0\.1&quot;,\ &#x27;y&#x27;\)\nText&quot;; console.log(s); alert(s);" xlink:title="Text">
<ellipse fill="none" stroke="black" cx="384.68" cy="-126" rx="27" ry="18"/>
<text text-anchor="middle" x="384.68" y="-122.3" font-family="Times New Roman,serif" font-size="14.00">y</text>
</a>
</g>
</g>
<!-- 20&#45;&gt;y_33 -->
<g id="edge32" class="edge">
<title>20&#45;&gt;y_33</title>
<path fill="none" stroke="black" d="M283.62,-140.88C306.26,-137.51 329.68,-134.03 348.16,-131.28"/>
<polygon fill="black" stroke="black" points="348.78,-134.73 358.16,-129.8 347.75,-127.8 348.78,-134.73"/>
</g>
<!-- z_34 -->
<g id="node34" class="node">
<title>z_34</title>
<g id="a_node34"><a xlink:href="javascript:s=&quot;\(&quot;&#x27;centre&#x27;,\ t=0\.1,\ rh=1,\ ry=0\.1&quot;,\ &#x27;z&#x27;\)\nText&quot;; console.log(s); alert(s);" xlink:title="Text">
<ellipse fill="none" stroke="black" cx="384.68" cy="-72" rx="27" ry="18"/>
<text text-anchor="middle" x="384.68" y="-68.3" font-family="Times New Roman,serif" font-size="14.00">z</text>
</a>
</g>
</g>
<!-- 20&#45;&gt;z_34 -->
<g id="edge33" class="edge">
<title>20&#45;&gt;z_34</title>
<path fill="none" stroke="black" d="M240.2,-136.02C273.5,-121.16 321.3,-99.83 352.41,-85.95"/>
<polygon fill="black" stroke="black" points="354.18,-88.99 361.89,-81.72 351.33,-82.6 354.18,-88.99"/>
</g>
<!-- label_35 -->
<g id="node35" class="node">
<title>label_35</title>
<g id="a_node35"><a xlink:href="javascript:s=&quot;\(&quot;&#x27;centre&#x27;,\ t=0\.1,\ rh=1,\ ry=0\.1&quot;,\ &#x27;label&#x27;\)\nText&quot;; console.log(s); alert(s);" xlink:title="Text">
<ellipse fill="none" stroke="black" cx="384.68" cy="-18" rx="27.1" ry="18"/>
<text text-anchor="middle" x="384.68" y="-14.3" font-family="Times New Roman,serif" font-size="14.00">label</text>
</a>
</g>
</g>
<!-- 20&#45;&gt;label_35 -->
<g id="edge34" class="edge">
<title>20&#45;&gt;label_35</title>
<path fill="none" stroke="black" d="M225.87,-135.35C259.9,-110.05 322.31,-63.64 357.59,-37.4"/>
<polygon fill="black" stroke="black" points="360,-39.97 365.94,-31.19 355.83,-34.35 360,-39.97"/>
</g>
<!-- origin_22 -->
<g id="node22" class="node">
<title>origin_22</title>
<g id="a_node22"><a xlink:href="javascript:s=&quot;\(&quot;&#x27;centre&#x27;,\ t=0\.1,\ rh=1,\ ry=0\.1&quot;,\ &#x27;coords&#x27;,\ &#x27;origin&#x27;\)\nCoordinatesCage&quot;; console.log(s); alert(s);" xlink:title="CoordinatesCage">
<ellipse fill="none" stroke="black" cx="498.02" cy="-288" rx="31.4" ry="18"/>
<text text-anchor="middle" x="498.02" y="-284.3" font-family="Times New Roman,serif" font-size="14.00">origin</text>
</a>
</g>
</g>
<!-- coords_21&#45;&gt;origin_22 -->
<g id="edge21" class="edge">
<title>coords_21&#45;&gt;origin_22</title>
<path fill="none" stroke="black" d="M411.22,-246.39C427.04,-254.06 447.5,-263.98 464.48,-272.22"/>
<polygon fill="black" stroke="black" points="462.97,-275.38 473.49,-276.59 466.02,-269.08 462.97,-275.38"/>
</g>
<!-- x_arrow_23 -->
<g id="node23" class="node">
<title>x_arrow_23</title>
<g id="a_node23"><a xlink:href="javascript:s=&quot;\(&quot;&#x27;centre&#x27;,\ t=0\.1,\ rh=1,\ ry=0\.1&quot;,\ &#x27;coords&#x27;,\ &#x27;x_arrow&#x27;\)\nArrow&quot;; console.log(s); alert(s);" xlink:title="Arrow">
<ellipse fill="none" stroke="black" cx="498.02" cy="-234" rx="40.89" ry="18"/>
<text text-anchor="middle" x="498.02" y="-230.3" font-family="Times New Roman,serif" font-size="14.00">x_arrow</text>
</a>
</g>
</g>
<!-- coords_21&#45;&gt;x_arrow_23 -->
<g id="edge22" class="edge">
<title>coords_21&#45;&gt;x_arrow_23</title>
<path fill="none" stroke="black" d="M421.21,-234C429.27,-234 437.97,-234 446.51,-234"/>
<polygon fill="black" stroke="black" points="446.79,-237.5 456.79,-234 446.79,-230.5 446.79,-237.5"/>
</g>
<!-- y_arrow_26 -->
<g id="node26" class="node">
<title>y_arrow_26</title>
<g id="a_node26"><a xlink:href="javascript:s=&quot;\(&quot;&#x27;centre&#x27;,\ t=0\.1,\ rh=1,\ ry=0\.1&quot;,\ &#x27;coords&#x27;,\ &#x27;y_arrow&#x27;\)\nArrow&quot;; console.log(s); alert(s);" xlink:title="Arrow">
<ellipse fill="none" stroke="black" cx="498.02" cy="-180" rx="40.89" ry="18"/>
<text text-anchor="middle" x="498.02" y="-176.3" font-family="Times New Roman,serif" font-size="14.00">y_arrow</text>
</a>
</g>
</g>
<!-- coords_21&#45;&gt;y_arrow_26 -->
<g id="edge25" class="edge">
<title>coords_21&#45;&gt;y_arrow_26</title>
<path fill="none" stroke="black" d="M411.22,-221.61C425.82,-214.53 444.37,-205.53 460.49,-197.72"/>
<polygon fill="black" stroke="black" points="462.18,-200.79 469.65,-193.27 459.12,-194.49 462.18,-200.79"/>
</g>
<!-- z_arrow_29 -->
<g id="node29" class="node">
<title>z_arrow_29</title>
<g id="a_node29"><a xlink:href="javascript:s=&quot;\(&quot;&#x27;centre&#x27;,\ t=0\.1,\ rh=1,\ ry=0\.1&quot;,\ &#x27;coords&#x27;,\ &#x27;z_arrow&#x27;\)\nArrow&quot;; console.log(s); alert(s);" xlink:title="Arrow">
<ellipse fill="none" stroke="black" cx="498.02" cy="-72" rx="40.09" ry="18"/>
<text text-anchor="middle" x="498.02" y="-68.3" font-family="Times New Roman,serif" font-size="14.00">z_arrow</text>
</a>
</g>
</g>
<!-- coords_21&#45;&gt;z_arrow_29 -->
<g id="edge28" class="edge">
<title>coords_21&#45;&gt;z_arrow_29</title>
<path fill="none" stroke="black" d="M407.48,-219.59C412.29,-215.83 417.12,-211.55 421.07,-207 436.52,-189.24 466.35,-132.65 483.67,-98.64"/>
<polygon fill="black" stroke="black" points="486.81,-100.19 488.2,-89.69 480.56,-97.03 486.81,-100.19"/>
</g>
<!-- stem_24 -->
<g id="node24" class="node">
<title>stem_24</title>
<g id="a_node24"><a xlink:href="javascript:s=&quot;\(&quot;&#x27;centre&#x27;,\ t=0\.1,\ rh=1,\ ry=0\.1&quot;,\ &#x27;coords&#x27;,\ &#x27;x_arrow&#x27;,\ &#x27;stem&#x27;\)\nCone&quot;; console.log(s); alert(s);" xlink:title="Cone">
<ellipse fill="none" stroke="black" cx="602.91" cy="-288" rx="27.9" ry="18"/>
<text text-anchor="middle" x="602.91" y="-284.3" font-family="Times New Roman,serif" font-size="14.00">stem</text>
</a>
</g>
</g>
<!-- x_arrow_23&#45;&gt;stem_24 -->
<g id="edge23" class="edge">
<title>x_arrow_23&#45;&gt;stem_24</title>
<path fill="none" stroke="black" d="M524.98,-247.63C539.15,-255.06 556.76,-264.3 571.55,-272.07"/>
<polygon fill="black" stroke="black" points="570.32,-275.37 580.8,-276.92 573.58,-269.18 570.32,-275.37"/>
</g>
<!-- head_25 -->
<g id="node25" class="node">
<title>head_25</title>
<g id="a_node25"><a xlink:href="javascript:s=&quot;\(&quot;&#x27;centre&#x27;,\ t=0\.1,\ rh=1,\ ry=0\.1&quot;,\ &#x27;coords&#x27;,\ &#x27;x_arrow&#x27;,\ &#x27;head&#x27;\)\nCone&quot;; console.log(s); alert(s);" xlink:title="Cone">
<ellipse fill="none" stroke="black" cx="602.91" cy="-234" rx="27.9" ry="18"/>
<text text-anchor="middle" x="602.91" y="-230.3" font-family="Times New Roman,serif" font-size="14.00">head</text>
</a>
</g>
</g>
<!-- x_arrow_23&#45;&gt;head_25 -->
<g id="edge24" class="edge">
<title>x_arrow_23&#45;&gt;head_25</title>
<path fill="none" stroke="black" d="M539.1,-234C547.51,-234 556.35,-234 564.65,-234"/>
<polygon fill="black" stroke="black" points="564.81,-237.5 574.81,-234 564.81,-230.5 564.81,-237.5"/>
</g>
<!-- stem_27 -->
<g id="node27" class="node">
<title>stem_27</title>
<g id="a_node27"><a xlink:href="javascript:s=&quot;\(&quot;&#x27;centre&#x27;,\ t=0\.1,\ rh=1,\ ry=0\.1&quot;,\ &#x27;coords&#x27;,\ &#x27;y_arrow&#x27;,\ &#x27;stem&#x27;\)\nCone&quot;; console.log(s); alert(s);" xlink:title="Cone">
<ellipse fill="none" stroke="black" cx="602.91" cy="-180" rx="27.9" ry="18"/>
<text text-anchor="middle" x="602.91" y="-176.3" font-family="Times New Roman,serif" font-size="14.00">stem</text>
</a>
</g>
</g>
<!-- y_arrow_26&#45;&gt;stem_27 -->
<g id="edge26" class="edge">
<title>y_arrow_26&#45;&gt;stem_27</title>
<path fill="none" stroke="black" d="M539.1,-180C547.51,-180 556.35,-180 564.65,-180"/>
<polygon fill="black" stroke="black" points="564.81,-183.5 574.81,-180 564.81,-176.5 564.81,-183.5"/>
</g>
<!-- head_28 -->
<g id="node28" class="node">
<title>head_28</title>
<g id="a_node28"><a xlink:href="javascript:s=&quot;\(&quot;&#x27;centre&#x27;,\ t=0\.1,\ rh=1,\ ry=0\.1&quot;,\ &#x27;coords&#x27;,\ &#x27;y_arrow&#x27;,\ &#x27;head&#x27;\)\nCone&quot;; console.log(s); alert(s);" xlink:title="Cone">
<ellipse fill="none" stroke="black" cx="602.91" cy="-126" rx="27.9" ry="18"/>
<text text-anchor="middle" x="602.91" y="-122.3" font-family="Times New Roman,serif" font-size="14.00">head</text>
</a>
</g>
</g>
<!-- y_arrow_26&#45;&gt;head_28 -->
<g id="edge27" class="edge">
<title>y_arrow_26&#45;&gt;head_28</title>
<path fill="none" stroke="black" d="M524.98,-166.37C539.15,-158.94 556.76,-149.7 571.55,-141.93"/>
<polygon fill="black" stroke="black" points="573.58,-144.82 580.8,-137.08 570.32,-138.63 573.58,-144.82"/>
</g>
<!-- stem_30 -->
<g id="node30" class="node">
<title>stem_30</title>
<g id="a_node30"><a xlink:href="javascript:s=&quot;\(&quot;&#x27;centre&#x27;,\ t=0\.1,\ rh=1,\ ry=0\.1&quot;,\ &#x27;coords&#x27;,\ &#x27;z_arrow&#x27;,\ &#x27;stem&#x27;\)\nCone&quot;; console.log(s); alert(s);" xlink:title="Cone">
<ellipse fill="none" stroke="black" cx="602.91" cy="-72" rx="27.9" ry="18"/>
<text text-anchor="middle" x="602.91" y="-68.3" font-family="Times New Roman,serif" font-size="14.00">stem</text>
</a>
</g>
</g>
<!-- z_arrow_29&#45;&gt;stem_30 -->
<g id="edge29" class="edge">
<title>z_arrow_29&#45;&gt;stem_30</title>
<path fill="none" stroke="black" d="M538.51,-72C547.13,-72 556.23,-72 564.75,-72"/>
<polygon fill="black" stroke="black" points="564.8,-75.5 574.8,-72 564.8,-68.5 564.8,-75.5"/>
</g>
<!-- head_31 -->
<g id="node31" class="node">
<title>head_31</title>
<g id="a_node31"><a xlink:href="javascript:s=&quot;\(&quot;&#x27;centre&#x27;,\ t=0\.1,\ rh=1,\ ry=0\.1&quot;,\ &#x27;coords&#x27;,\ &#x27;z_arrow&#x27;,\ &#x27;head&#x27;\)\nCone&quot;; console.log(s); alert(s);" xlink:title="Cone">
<ellipse fill="none" stroke="black" cx="602.91" cy="-18" rx="27.9" ry="18"/>
<text text-anchor="middle" x="602.91" y="-14.3" font-family="Times New Roman,serif" font-size="14.00">head</text>
</a>
</g>
</g>
<!-- z_arrow_29&#45;&gt;head_31 -->
<g id="edge30" class="edge">
<title>z_arrow_29&#45;&gt;head_31</title>
<path fill="none" stroke="black" d="M524.72,-58.51C539.01,-51.01 556.88,-41.63 571.83,-33.79"/>
<polygon fill="black" stroke="black" points="573.47,-36.88 580.7,-29.14 570.22,-30.68 573.47,-36.88"/>
</g>
</g>
</svg>
