solid OpenSCAD_Model
  facet normal 0.28984599654653176 -0.9554941960096454 0.054955797490614376
    outer loop
      vertex 3.8268343210220337 -9.238795325160027 0
      vertex 3.9018064439296722 -9.072263844311237 2.5
      vertex 1.9509032219648361 -9.807852804660797 0
    endloop
  endfacet
  facet normal 0.13867256236590944 -0.988415507621014 0.06168228871536842
    outer loop
      vertex 3.8268343210220337 -9.238795325160027 0
      vertex 7.653668642044067 -8.545885675773025 2.5
      vertex 3.9018064439296722 -9.072263844311237 2.5
    endloop
  endfacet
  facet normal 0.42544754139271984 -0.7959563688294782 -0.4306365618972473
    outer loop
      vertex 5.555702328681946 -8.314696125686169 0
      vertex 7.653668642044067 -8.545885675773025 2.5
      vertex 3.8268343210220337 -9.238795325160027 0
    endloop
  endfacet
  facet normal 0.230418362820629 -0.9320701362043318 -0.27955793544648216
    outer loop
      vertex 5.555702328681946 -8.314696125686169 0
      vertex 11.111404657363892 -7.691093916259707 2.5
      vertex 7.653668642044067 -8.545885675773025 2.5
    endloop
  endfacet
  facet normal 0.4027557342546608 -0.49075928028225313 -0.7726209596832291
    outer loop
      vertex 7.071067810058594 -7.071067810058594 0
      vertex 11.111404657363892 -7.691093916259707 2.5
      vertex 5.555702328681946 -8.314696125686169 0
    endloop
  endfacet
  facet normal 0.27637433840412057 -0.7281364420596977 -0.6272436104228795
    outer loop
      vertex 7.071067810058594 -7.071067810058594 0
      vertex 14.142135620117188 -6.5407377243042 2.5
      vertex 11.111404657363892 -7.691093916259707 2.5
    endloop
  endfacet
  facet normal 0.3386620093467949 -0.2779327293824781 -0.8989223778298088
    outer loop
      vertex 8.314696125686169 -5.555702328681946 0
      vertex 14.142135620117188 -6.5407377243042 2.5
      vertex 7.071067810058594 -7.071067810058594 0
    endloop
  endfacet
  facet normal 0.27389212137721103 -0.48600530992490126 -0.829928879225378
    outer loop
      vertex 8.314696125686169 -5.555702328681946 0
      vertex 16.629392251372337 -5.1390246540308 2.5
      vertex 14.142135620117188 -6.5407377243042 2.5
    endloop
  endfacet
  facet normal 0.29157471386947426 -0.15584993098362834 -0.9437663827687085
    outer loop
      vertex 9.238795325160027 -3.8268343210220337 0
      vertex 16.629392251372337 -5.1390246540308 2.5
      vertex 8.314696125686169 -5.555702328681946 0
    endloop
  endfacet
  facet normal 0.2579457419790333 -0.2981078293622474 -0.9190188878732662
    outer loop
      vertex 9.238795325160027 -3.8268343210220337 0
      vertex 18.477590650320053 -3.5398217469453814 2.5
      vertex 16.629392251372337 -5.1390246540308 2.5
    endloop
  endfacet
  facet normal 0.26267910457913946 -0.07968283549670326 -0.9615874030709359
    outer loop
      vertex 9.807852804660797 -1.9509032219648361 0
      vertex 18.477590650320053 -3.5398217469453814 2.5
      vertex 9.238795325160027 -3.8268343210220337 0
    endloop
  endfacet
  facet normal 0.2460227530283818 -0.16136256535282797 -0.9557378968603736
    outer loop
      vertex 9.807852804660797 -1.9509032219648361 0
      vertex 19.615705609321594 -1.8045854803174735 2.5
      vertex 18.477590650320053 -3.5398217469453814 2.5
    endloop
  endfacet
  facet normal 0.24726778896295606 -0.024353751437811856 -0.9686410766286324
    outer loop
      vertex 10 0 0
      vertex 19.615705609321594 -1.8045854803174735 2.5
      vertex 9.807852804660797 -1.9509032219648361 0
    endloop
  endfacet
  facet normal 0.2422127741700299 -0.0515802723004413 -0.9688510966801196
    outer loop
      vertex 10 0 0
      vertex 20 0 2.5
      vertex 19.615705609321594 -1.8045854803174735 2.5
    endloop
  endfacet
  facet normal 0.24726778896295606 0.024353751437811856 -0.9686410766286324
    outer loop
      vertex 9.807852804660797 1.9509032219648361 0
      vertex 19.615705609321594 1.8045854803174735 2.5
      vertex 10 0 0
    endloop
  endfacet
  facet normal 0.2422127741700299 0.0515802723004413 -0.9688510966801196
    outer loop
      vertex 20 0 2.5
      vertex 10 0 0
      vertex 19.615705609321594 1.8045854803174735 2.5
    endloop
  endfacet
  facet normal 0.26267910457913946 0.07968283549670326 -0.9615874030709359
    outer loop
      vertex 9.238795325160027 3.8268343210220337 0
      vertex 18.477590650320053 3.5398217469453814 2.5
      vertex 9.807852804660797 1.9509032219648361 0
    endloop
  endfacet
  facet normal 0.24602275302838178 0.16136256535282795 -0.9557378968603736
    outer loop
      vertex 19.615705609321594 1.8045854803174735 2.5
      vertex 9.807852804660797 1.9509032219648361 0
      vertex 18.477590650320053 3.5398217469453814 2.5
    endloop
  endfacet
  facet normal 0.29157471386947426 0.15584993098362834 -0.9437663827687085
    outer loop
      vertex 8.314696125686169 5.555702328681946 0
      vertex 16.629392251372337 5.1390246540308 2.5
      vertex 9.238795325160027 3.8268343210220337 0
    endloop
  endfacet
  facet normal 0.2579457419790333 0.2981078293622474 -0.9190188878732662
    outer loop
      vertex 18.477590650320053 3.5398217469453814 2.5
      vertex 9.238795325160027 3.8268343210220337 0
      vertex 16.629392251372337 5.1390246540308 2.5
    endloop
  endfacet
  facet normal 0.33866200934679497 0.27793272938247815 -0.8989223778298088
    outer loop
      vertex 7.071067810058594 7.071067810058594 0
      vertex 14.142135620117188 6.5407377243042 2.5
      vertex 8.314696125686169 5.555702328681946 0
    endloop
  endfacet
  facet normal 0.273892121377211 0.4860053099249012 -0.829928879225378
    outer loop
      vertex 16.629392251372337 5.1390246540308 2.5
      vertex 8.314696125686169 5.555702328681946 0
      vertex 14.142135620117188 6.5407377243042 2.5
    endloop
  endfacet
  facet normal 0.4027557342546608 0.49075928028225313 -0.7726209596832291
    outer loop
      vertex 5.555702328681946 8.314696125686169 0
      vertex 11.111404657363892 7.691093916259707 2.5
      vertex 7.071067810058594 7.071067810058594 0
    endloop
  endfacet
  facet normal 0.27637433840412057 0.7281364420596977 -0.6272436104228796
    outer loop
      vertex 14.142135620117188 6.5407377243042 2.5
      vertex 7.071067810058594 7.071067810058594 0
      vertex 11.111404657363892 7.691093916259707 2.5
    endloop
  endfacet
  facet normal 0.42544754139271984 0.7959563688294782 -0.4306365618972473
    outer loop
      vertex 3.8268343210220337 9.238795325160027 0
      vertex 7.653668642044067 8.545885675773025 2.5
      vertex 5.555702328681946 8.314696125686169 0
    endloop
  endfacet
  facet normal 0.230418362820629 0.9320701362043318 -0.27955793544648216
    outer loop
      vertex 11.111404657363892 7.691093916259707 2.5
      vertex 5.555702328681946 8.314696125686169 0
      vertex 7.653668642044067 8.545885675773025 2.5
    endloop
  endfacet
  facet normal 0.28984599654653176 0.9554941960096454 0.054955797490614404
    outer loop
      vertex 1.9509032219648361 9.807852804660797 0
      vertex 3.9018064439296722 9.072263844311237 2.5
      vertex 3.8268343210220337 9.238795325160027 0
    endloop
  endfacet
  facet normal 0.13867256236590944 0.988415507621014 0.06168228871536841
    outer loop
      vertex 7.653668642044067 8.545885675773025 2.5
      vertex 3.8268343210220337 9.238795325160027 0
      vertex 3.9018064439296722 9.072263844311237 2.5
    endloop
  endfacet
  facet normal 0.09392065254551171 0.953592392210656 0.2860777176631968
    outer loop
      vertex 0 10 0
      vertex 0 9.25 2.5
      vertex 1.9509032219648361 9.807852804660797 0
    endloop
  endfacet
  facet normal 0.0440577475551959 0.9671909615110392 0.2502010368717805
    outer loop
      vertex 3.9018064439296722 9.072263844311237 2.5
      vertex 1.9509032219648361 9.807852804660797 0
      vertex 0 9.25 2.5
    endloop
  endfacet
  facet normal -0.09392065254551171 0.953592392210656 0.2860777176631968
    outer loop
      vertex -1.9509032219648361 9.807852804660797 0
      vertex 0 9.25 2.5
      vertex 0 10 0
    endloop
  endfacet
  facet normal -0.0440577475551959 0.9671909615110392 0.2502010368717805
    outer loop
      vertex -1.9509032219648361 9.807852804660797 0
      vertex -3.9018064439296722 9.072263844311237 2.5
      vertex 0 9.25 2.5
    endloop
  endfacet
  facet normal -0.28984599654653176 0.9554941960096454 0.054955797490614376
    outer loop
      vertex -3.8268343210220337 9.238795325160027 0
      vertex -3.9018064439296722 9.072263844311237 2.5
      vertex -1.9509032219648361 9.807852804660797 0
    endloop
  endfacet
  facet normal -0.13867256236590944 0.988415507621014 0.06168228871536842
    outer loop
      vertex -3.8268343210220337 9.238795325160027 0
      vertex -7.653668642044067 8.545885675773025 2.5
      vertex -3.9018064439296722 9.072263844311237 2.5
    endloop
  endfacet
  facet normal -0.42544754139271984 0.7959563688294782 -0.4306365618972473
    outer loop
      vertex -5.555702328681946 8.314696125686169 0
      vertex -7.653668642044067 8.545885675773025 2.5
      vertex -3.8268343210220337 9.238795325160027 0
    endloop
  endfacet
  facet normal -0.230418362820629 0.9320701362043318 -0.27955793544648216
    outer loop
      vertex -5.555702328681946 8.314696125686169 0
      vertex -11.111404657363892 7.691093916259707 2.5
      vertex -7.653668642044067 8.545885675773025 2.5
    endloop
  endfacet
  facet normal -0.4027557342546608 0.49075928028225313 -0.7726209596832291
    outer loop
      vertex -7.071067810058594 7.071067810058594 0
      vertex -11.111404657363892 7.691093916259707 2.5
      vertex -5.555702328681946 8.314696125686169 0
    endloop
  endfacet
  facet normal -0.27637433840412057 0.7281364420596977 -0.6272436104228795
    outer loop
      vertex -7.071067810058594 7.071067810058594 0
      vertex -14.142135620117188 6.5407377243042 2.5
      vertex -11.111404657363892 7.691093916259707 2.5
    endloop
  endfacet
  facet normal -0.3386620093467949 0.2779327293824781 -0.8989223778298088
    outer loop
      vertex -8.314696125686169 5.555702328681946 0
      vertex -14.142135620117188 6.5407377243042 2.5
      vertex -7.071067810058594 7.071067810058594 0
    endloop
  endfacet
  facet normal -0.27389212137721103 0.48600530992490126 -0.829928879225378
    outer loop
      vertex -8.314696125686169 5.555702328681946 0
      vertex -16.629392251372337 5.1390246540308 2.5
      vertex -14.142135620117188 6.5407377243042 2.5
    endloop
  endfacet
  facet normal -0.29157471386947426 0.15584993098362834 -0.9437663827687085
    outer loop
      vertex -9.238795325160027 3.8268343210220337 0
      vertex -16.629392251372337 5.1390246540308 2.5
      vertex -8.314696125686169 5.555702328681946 0
    endloop
  endfacet
  facet normal -0.2579457419790333 0.2981078293622474 -0.9190188878732662
    outer loop
      vertex -9.238795325160027 3.8268343210220337 0
      vertex -18.477590650320053 3.5398217469453814 2.5
      vertex -16.629392251372337 5.1390246540308 2.5
    endloop
  endfacet
  facet normal -0.26267910457913946 0.07968283549670326 -0.9615874030709359
    outer loop
      vertex -9.807852804660797 1.9509032219648361 0
      vertex -18.477590650320053 3.5398217469453814 2.5
      vertex -9.238795325160027 3.8268343210220337 0
    endloop
  endfacet
  facet normal -0.2460227530283818 0.16136256535282797 -0.9557378968603736
    outer loop
      vertex -9.807852804660797 1.9509032219648361 0
      vertex -19.615705609321594 1.8045854803174735 2.5
      vertex -18.477590650320053 3.5398217469453814 2.5
    endloop
  endfacet
  facet normal -0.24726778896295606 0.024353751437811856 -0.9686410766286324
    outer loop
      vertex -10 0 0
      vertex -19.615705609321594 1.8045854803174735 2.5
      vertex -9.807852804660797 1.9509032219648361 0
    endloop
  endfacet
  facet normal -0.2422127741700299 0.0515802723004413 -0.9688510966801196
    outer loop
      vertex -10 0 0
      vertex -20 0 2.5
      vertex -19.615705609321594 1.8045854803174735 2.5
    endloop
  endfacet
  facet normal -0.24726778896295606 -0.024353751437811856 -0.9686410766286324
    outer loop
      vertex -9.807852804660797 -1.9509032219648361 0
      vertex -19.615705609321594 -1.8045854803174735 2.5
      vertex -10 0 0
    endloop
  endfacet
  facet normal -0.2422127741700299 -0.0515802723004413 -0.9688510966801196
    outer loop
      vertex -20 0 2.5
      vertex -10 0 0
      vertex -19.615705609321594 -1.8045854803174735 2.5
    endloop
  endfacet
  facet normal -0.26267910457913946 -0.07968283549670326 -0.9615874030709359
    outer loop
      vertex -9.238795325160027 -3.8268343210220337 0
      vertex -18.477590650320053 -3.5398217469453814 2.5
      vertex -9.807852804660797 -1.9509032219648361 0
    endloop
  endfacet
  facet normal -0.24602275302838178 -0.16136256535282795 -0.9557378968603736
    outer loop
      vertex -19.615705609321594 -1.8045854803174735 2.5
      vertex -9.807852804660797 -1.9509032219648361 0
      vertex -18.477590650320053 -3.5398217469453814 2.5
    endloop
  endfacet
  facet normal -0.29157471386947426 -0.15584993098362834 -0.9437663827687085
    outer loop
      vertex -8.314696125686169 -5.555702328681946 0
      vertex -16.629392251372337 -5.1390246540308 2.5
      vertex -9.238795325160027 -3.8268343210220337 0
    endloop
  endfacet
  facet normal -0.2579457419790333 -0.2981078293622474 -0.9190188878732662
    outer loop
      vertex -18.477590650320053 -3.5398217469453814 2.5
      vertex -9.238795325160027 -3.8268343210220337 0
      vertex -16.629392251372337 -5.1390246540308 2.5
    endloop
  endfacet
  facet normal -0.33866200934679497 -0.27793272938247815 -0.8989223778298088
    outer loop
      vertex -7.071067810058594 -7.071067810058594 0
      vertex -14.142135620117188 -6.5407377243042 2.5
      vertex -8.314696125686169 -5.555702328681946 0
    endloop
  endfacet
  facet normal -0.273892121377211 -0.4860053099249012 -0.829928879225378
    outer loop
      vertex -16.629392251372337 -5.1390246540308 2.5
      vertex -8.314696125686169 -5.555702328681946 0
      vertex -14.142135620117188 -6.5407377243042 2.5
    endloop
  endfacet
  facet normal -0.4027557342546608 -0.49075928028225313 -0.7726209596832291
    outer loop
      vertex -5.555702328681946 -8.314696125686169 0
      vertex -11.111404657363892 -7.691093916259707 2.5
      vertex -7.071067810058594 -7.071067810058594 0
    endloop
  endfacet
  facet normal -0.27637433840412057 -0.7281364420596977 -0.6272436104228796
    outer loop
      vertex -14.142135620117188 -6.5407377243042 2.5
      vertex -7.071067810058594 -7.071067810058594 0
      vertex -11.111404657363892 -7.691093916259707 2.5
    endloop
  endfacet
  facet normal -0.42544754139271984 -0.7959563688294782 -0.4306365618972473
    outer loop
      vertex -3.8268343210220337 -9.238795325160027 0
      vertex -7.653668642044067 -8.545885675773025 2.5
      vertex -5.555702328681946 -8.314696125686169 0
    endloop
  endfacet
  facet normal -0.230418362820629 -0.9320701362043318 -0.27955793544648216
    outer loop
      vertex -11.111404657363892 -7.691093916259707 2.5
      vertex -5.555702328681946 -8.314696125686169 0
      vertex -7.653668642044067 -8.545885675773025 2.5
    endloop
  endfacet
  facet normal -0.28984599654653176 -0.9554941960096454 0.054955797490614404
    outer loop
      vertex -1.9509032219648361 -9.807852804660797 0
      vertex -3.9018064439296722 -9.072263844311237 2.5
      vertex -3.8268343210220337 -9.238795325160027 0
    endloop
  endfacet
  facet normal -0.13867256236590944 -0.988415507621014 0.06168228871536841
    outer loop
      vertex -7.653668642044067 -8.545885675773025 2.5
      vertex -3.8268343210220337 -9.238795325160027 0
      vertex -3.9018064439296722 -9.072263844311237 2.5
    endloop
  endfacet
  facet normal -0.09392065254551171 -0.953592392210656 0.2860777176631968
    outer loop
      vertex 0 -10 0
      vertex 0 -9.25 2.5
      vertex -1.9509032219648361 -9.807852804660797 0
    endloop
  endfacet
  facet normal -0.0440577475551959 -0.9671909615110392 0.2502010368717805
    outer loop
      vertex -3.9018064439296722 -9.072263844311237 2.5
      vertex -1.9509032219648361 -9.807852804660797 0
      vertex 0 -9.25 2.5
    endloop
  endfacet
  facet normal 0.09392065254551171 -0.953592392210656 0.2860777176631968
    outer loop
      vertex 1.9509032219648361 -9.807852804660797 0
      vertex 0 -9.25 2.5
      vertex 0 -10 0
    endloop
  endfacet
  facet normal 0.0440577475551959 -0.9671909615110392 0.2502010368717805
    outer loop
      vertex 1.9509032219648361 -9.807852804660797 0
      vertex 3.9018064439296722 -9.072263844311237 2.5
      vertex 0 -9.25 2.5
    endloop
  endfacet
  facet normal 0.1366684879932247 -0.9741310799404996 0.17997322990823258
    outer loop
      vertex 7.653668642044067 -8.545885675773025 2.5
      vertex 5.852709665894508 -8.336674883961678 5
      vertex 3.9018064439296722 -9.072263844311237 2.5
    endloop
  endfacet
  facet normal 0.08474547575153137 -0.9860060922833364 0.14356249621607792
    outer loop
      vertex 7.653668642044067 -8.545885675773025 2.5
      vertex 11.480502963066101 -7.852976026386022 5
      vertex 5.852709665894508 -8.336674883961678 5
    endloop
  endfacet
  facet normal 0.23883596119543782 -0.9661203393551503 -0.0978206191155034
    outer loop
      vertex 11.111404657363892 -7.691093916259707 2.5
      vertex 11.480502963066101 -7.852976026386022 5
      vertex 7.653668642044067 -8.545885675773025 2.5
    endloop
  endfacet
  facet normal 0.14918507007186801 -0.9850787155672468 -0.08581223108645533
    outer loop
      vertex 11.111404657363892 -7.691093916259707 2.5
      vertex 16.667106986045837 -7.067491706833243 5
      vertex 11.480502963066101 -7.852976026386022 5
    endloop
  endfacet
  facet normal 0.31022590950299495 -0.8173218660046069 -0.48553563455609217
    outer loop
      vertex 14.142135620117188 -6.5407377243042 2.5
      vertex 16.667106986045837 -7.067491706833243 5
      vertex 11.111404657363892 -7.691093916259707 2.5
    endloop
  endfacet
  facet normal 0.20776273449623311 -0.893504553568568 -0.39810081500404126
    outer loop
      vertex 14.142135620117188 -6.5407377243042 2.5
      vertex 21.21320343017578 -6.010407638549805 5
      vertex 16.667106986045837 -7.067491706833243 5
    endloop
  endfacet
  facet normal 0.31371247076628805 -0.5566641560021236 -0.7692265616241774
    outer loop
      vertex 16.629392251372337 -5.1390246540308 2.5
      vertex 21.21320343017578 -6.010407638549805 5
      vertex 14.142135620117188 -6.5407377243042 2.5
    endloop
  endfacet
  facet normal 0.23922976723384526 -0.6929322241656231 -0.6801573723647513
    outer loop
      vertex 16.629392251372337 -5.1390246540308 2.5
      vertex 24.944088377058506 -4.722346979379654 5
      vertex 21.21320343017578 -6.010407638549805 5
    endloop
  endfacet
  facet normal 0.2868529553875036 -0.3315158886540762 -0.8987839548831259
    outer loop
      vertex 18.477590650320053 -3.5398217469453814 2.5
      vertex 24.944088377058506 -4.722346979379654 5
      vertex 16.629392251372337 -5.1390246540308 2.5
    endloop
  endfacet
  facet normal 0.24498383062407542 -0.46216441814706904 -0.85228338792419
    outer loop
      vertex 18.477590650320053 -3.5398217469453814 2.5
      vertex 27.71638597548008 -3.2528091728687287 5
      vertex 24.944088377058506 -4.722346979379654 5
    endloop
  endfacet
  facet normal 0.2622859148790443 -0.17202932476702087 -0.9495325219687135
    outer loop
      vertex 19.615705609321594 -1.8045854803174735 2.5
      vertex 27.71638597548008 -3.2528091728687287 5
      vertex 18.477590650320053 -3.5398217469453814 2.5
    endloop
  endfacet
  facet normal 0.24218282604686303 -0.2592894965527153 -0.9349419424463715
    outer loop
      vertex 19.615705609321594 -1.8045854803174735 2.5
      vertex 29.42355841398239 -1.6582677386701106 5
      vertex 27.71638597548008 -3.2528091728687287 5
    endloop
  endfacet
  facet normal 0.24739482431350093 -0.052683812600455134 -0.9674813780082655
    outer loop
      vertex 20 0 2.5
      vertex 29.42355841398239 -1.6582677386701106 5
      vertex 19.615705609321594 -1.8045854803174735 2.5
    endloop
  endfacet
  facet normal 0.24167821179492888 -0.084011386378833 -0.9667128471797155
    outer loop
      vertex 20 0 2.5
      vertex 30 0 5
      vertex 29.42355841398239 -1.6582677386701106 5
    endloop
  endfacet
  facet normal 0.24739482431350093 0.052683812600455134 -0.9674813780082655
    outer loop
      vertex 19.615705609321594 1.8045854803174735 2.5
      vertex 29.42355841398239 1.6582677386701106 5
      vertex 20 0 2.5
    endloop
  endfacet
  facet normal 0.24167821179492888 0.084011386378833 -0.9667128471797155
    outer loop
      vertex 30 0 5
      vertex 20 0 2.5
      vertex 29.42355841398239 1.6582677386701106 5
    endloop
  endfacet
  facet normal 0.26228591487904435 0.1720293247670209 -0.9495325219687136
    outer loop
      vertex 18.477590650320053 3.5398217469453814 2.5
      vertex 27.71638597548008 3.2528091728687287 5
      vertex 19.615705609321594 1.8045854803174735 2.5
    endloop
  endfacet
  facet normal 0.2421828260468631 0.2592894965527154 -0.9349419424463716
    outer loop
      vertex 29.42355841398239 1.6582677386701106 5
      vertex 19.615705609321594 1.8045854803174735 2.5
      vertex 27.71638597548008 3.2528091728687287 5
    endloop
  endfacet
  facet normal 0.2868529553875036 0.3315158886540762 -0.8987839548831259
    outer loop
      vertex 16.629392251372337 5.1390246540308 2.5
      vertex 24.944088377058506 4.722346979379654 5
      vertex 18.477590650320053 3.5398217469453814 2.5
    endloop
  endfacet
  facet normal 0.24498383062407542 0.4621644181470691 -0.85228338792419
    outer loop
      vertex 27.71638597548008 3.2528091728687287 5
      vertex 18.477590650320053 3.5398217469453814 2.5
      vertex 24.944088377058506 4.722346979379654 5
    endloop
  endfacet
  facet normal 0.31371247076628805 0.5566641560021236 -0.7692265616241774
    outer loop
      vertex 14.142135620117188 6.5407377243042 2.5
      vertex 21.21320343017578 6.010407638549805 5
      vertex 16.629392251372337 5.1390246540308 2.5
    endloop
  endfacet
  facet normal 0.23922976723384526 0.6929322241656231 -0.6801573723647513
    outer loop
      vertex 24.944088377058506 4.722346979379654 5
      vertex 16.629392251372337 5.1390246540308 2.5
      vertex 21.21320343017578 6.010407638549805 5
    endloop
  endfacet
  facet normal 0.31022590950299495 0.8173218660046069 -0.48553563455609217
    outer loop
      vertex 11.111404657363892 7.691093916259707 2.5
      vertex 16.667106986045837 7.067491706833243 5
      vertex 14.142135620117188 6.5407377243042 2.5
    endloop
  endfacet
  facet normal 0.20776273449623311 0.893504553568568 -0.39810081500404126
    outer loop
      vertex 21.21320343017578 6.010407638549805 5
      vertex 14.142135620117188 6.5407377243042 2.5
      vertex 16.667106986045837 7.067491706833243 5
    endloop
  endfacet
  facet normal 0.23883596119543782 0.9661203393551503 -0.0978206191155034
    outer loop
      vertex 7.653668642044067 8.545885675773025 2.5
      vertex 11.480502963066101 7.852976026386022 5
      vertex 11.111404657363892 7.691093916259707 2.5
    endloop
  endfacet
  facet normal 0.14918507007186801 0.9850787155672468 -0.08581223108645535
    outer loop
      vertex 16.667106986045837 7.067491706833243 5
      vertex 11.111404657363892 7.691093916259707 2.5
      vertex 11.480502963066101 7.852976026386022 5
    endloop
  endfacet
  facet normal 0.1366684879932247 0.9741310799404996 0.1799732299082326
    outer loop
      vertex 3.9018064439296722 9.072263844311237 2.5
      vertex 5.852709665894508 8.336674883961678 5
      vertex 7.653668642044067 8.545885675773025 2.5
    endloop
  endfacet
  facet normal 0.08474547575153137 0.9860060922833364 0.1435624962160779
    outer loop
      vertex 11.480502963066101 7.852976026386022 5
      vertex 7.653668642044067 8.545885675773025 2.5
      vertex 5.852709665894508 8.336674883961678 5
    endloop
  endfacet
  facet normal 0.04358969459953581 0.9569158881506541 0.2870747664451962
    outer loop
      vertex 0 9.25 2.5
      vertex 0 8.5 5
      vertex 3.9018064439296722 9.072263844311237 2.5
    endloop
  endfacet
  facet normal 0.026914679895076676 0.9644799954675105 0.26278116056737477
    outer loop
      vertex 5.852709665894508 8.336674883961678 5
      vertex 3.9018064439296722 9.072263844311237 2.5
      vertex 0 8.5 5
    endloop
  endfacet
  facet normal -0.04358969459953581 0.9569158881506541 0.2870747664451962
    outer loop
      vertex -3.9018064439296722 9.072263844311237 2.5
      vertex 0 8.5 5
      vertex 0 9.25 2.5
    endloop
  endfacet
  facet normal -0.026914679895076676 0.9644799954675105 0.26278116056737477
    outer loop
      vertex -3.9018064439296722 9.072263844311237 2.5
      vertex -5.852709665894508 8.336674883961678 5
      vertex 0 8.5 5
    endloop
  endfacet
  facet normal -0.1366684879932247 0.9741310799404996 0.17997322990823258
    outer loop
      vertex -7.653668642044067 8.545885675773025 2.5
      vertex -5.852709665894508 8.336674883961678 5
      vertex -3.9018064439296722 9.072263844311237 2.5
    endloop
  endfacet
  facet normal -0.08474547575153137 0.9860060922833364 0.14356249621607792
    outer loop
      vertex -7.653668642044067 8.545885675773025 2.5
      vertex -11.480502963066101 7.852976026386022 5
      vertex -5.852709665894508 8.336674883961678 5
    endloop
  endfacet
  facet normal -0.23883596119543782 0.9661203393551503 -0.0978206191155034
    outer loop
      vertex -11.111404657363892 7.691093916259707 2.5
      vertex -11.480502963066101 7.852976026386022 5
      vertex -7.653668642044067 8.545885675773025 2.5
    endloop
  endfacet
  facet normal -0.14918507007186801 0.9850787155672468 -0.08581223108645533
    outer loop
      vertex -11.111404657363892 7.691093916259707 2.5
      vertex -16.667106986045837 7.067491706833243 5
      vertex -11.480502963066101 7.852976026386022 5
    endloop
  endfacet
  facet normal -0.31022590950299495 0.8173218660046069 -0.48553563455609217
    outer loop
      vertex -14.142135620117188 6.5407377243042 2.5
      vertex -16.667106986045837 7.067491706833243 5
      vertex -11.111404657363892 7.691093916259707 2.5
    endloop
  endfacet
  facet normal -0.20776273449623311 0.893504553568568 -0.39810081500404126
    outer loop
      vertex -14.142135620117188 6.5407377243042 2.5
      vertex -21.21320343017578 6.010407638549805 5
      vertex -16.667106986045837 7.067491706833243 5
    endloop
  endfacet
  facet normal -0.31371247076628805 0.5566641560021236 -0.7692265616241774
    outer loop
      vertex -16.629392251372337 5.1390246540308 2.5
      vertex -21.21320343017578 6.010407638549805 5
      vertex -14.142135620117188 6.5407377243042 2.5
    endloop
  endfacet
  facet normal -0.23922976723384526 0.6929322241656231 -0.6801573723647513
    outer loop
      vertex -16.629392251372337 5.1390246540308 2.5
      vertex -24.944088377058506 4.722346979379654 5
      vertex -21.21320343017578 6.010407638549805 5
    endloop
  endfacet
  facet normal -0.2868529553875036 0.3315158886540762 -0.8987839548831259
    outer loop
      vertex -18.477590650320053 3.5398217469453814 2.5
      vertex -24.944088377058506 4.722346979379654 5
      vertex -16.629392251372337 5.1390246540308 2.5
    endloop
  endfacet
  facet normal -0.24498383062407542 0.46216441814706904 -0.85228338792419
    outer loop
      vertex -18.477590650320053 3.5398217469453814 2.5
      vertex -27.71638597548008 3.2528091728687287 5
      vertex -24.944088377058506 4.722346979379654 5
    endloop
  endfacet
  facet normal -0.2622859148790443 0.17202932476702087 -0.9495325219687135
    outer loop
      vertex -19.615705609321594 1.8045854803174735 2.5
      vertex -27.71638597548008 3.2528091728687287 5
      vertex -18.477590650320053 3.5398217469453814 2.5
    endloop
  endfacet
  facet normal -0.24218282604686303 0.2592894965527153 -0.9349419424463715
    outer loop
      vertex -19.615705609321594 1.8045854803174735 2.5
      vertex -29.42355841398239 1.6582677386701106 5
      vertex -27.71638597548008 3.2528091728687287 5
    endloop
  endfacet
  facet normal -0.24739482431350093 0.052683812600455134 -0.9674813780082655
    outer loop
      vertex -20 0 2.5
      vertex -29.42355841398239 1.6582677386701106 5
      vertex -19.615705609321594 1.8045854803174735 2.5
    endloop
  endfacet
  facet normal -0.24167821179492888 0.084011386378833 -0.9667128471797155
    outer loop
      vertex -20 0 2.5
      vertex -30 0 5
      vertex -29.42355841398239 1.6582677386701106 5
    endloop
  endfacet
  facet normal -0.24739482431350093 -0.052683812600455134 -0.9674813780082655
    outer loop
      vertex -19.615705609321594 -1.8045854803174735 2.5
      vertex -29.42355841398239 -1.6582677386701106 5
      vertex -20 0 2.5
    endloop
  endfacet
  facet normal -0.24167821179492888 -0.084011386378833 -0.9667128471797155
    outer loop
      vertex -30 0 5
      vertex -20 0 2.5
      vertex -29.42355841398239 -1.6582677386701106 5
    endloop
  endfacet
  facet normal -0.26228591487904435 -0.1720293247670209 -0.9495325219687136
    outer loop
      vertex -18.477590650320053 -3.5398217469453814 2.5
      vertex -27.71638597548008 -3.2528091728687287 5
      vertex -19.615705609321594 -1.8045854803174735 2.5
    endloop
  endfacet
  facet normal -0.2421828260468631 -0.2592894965527154 -0.9349419424463716
    outer loop
      vertex -29.42355841398239 -1.6582677386701106 5
      vertex -19.615705609321594 -1.8045854803174735 2.5
      vertex -27.71638597548008 -3.2528091728687287 5
    endloop
  endfacet
  facet normal -0.2868529553875036 -0.3315158886540762 -0.8987839548831259
    outer loop
      vertex -16.629392251372337 -5.1390246540308 2.5
      vertex -24.944088377058506 -4.722346979379654 5
      vertex -18.477590650320053 -3.5398217469453814 2.5
    endloop
  endfacet
  facet normal -0.24498383062407542 -0.4621644181470691 -0.85228338792419
    outer loop
      vertex -27.71638597548008 -3.2528091728687287 5
      vertex -18.477590650320053 -3.5398217469453814 2.5
      vertex -24.944088377058506 -4.722346979379654 5
    endloop
  endfacet
  facet normal -0.31371247076628805 -0.5566641560021236 -0.7692265616241774
    outer loop
      vertex -14.142135620117188 -6.5407377243042 2.5
      vertex -21.21320343017578 -6.010407638549805 5
      vertex -16.629392251372337 -5.1390246540308 2.5
    endloop
  endfacet
  facet normal -0.23922976723384526 -0.6929322241656231 -0.6801573723647513
    outer loop
      vertex -24.944088377058506 -4.722346979379654 5
      vertex -16.629392251372337 -5.1390246540308 2.5
      vertex -21.21320343017578 -6.010407638549805 5
    endloop
  endfacet
  facet normal -0.31022590950299495 -0.8173218660046069 -0.48553563455609217
    outer loop
      vertex -11.111404657363892 -7.691093916259707 2.5
      vertex -16.667106986045837 -7.067491706833243 5
      vertex -14.142135620117188 -6.5407377243042 2.5
    endloop
  endfacet
  facet normal -0.20776273449623311 -0.893504553568568 -0.39810081500404126
    outer loop
      vertex -21.21320343017578 -6.010407638549805 5
      vertex -14.142135620117188 -6.5407377243042 2.5
      vertex -16.667106986045837 -7.067491706833243 5
    endloop
  endfacet
  facet normal -0.23883596119543782 -0.9661203393551503 -0.0978206191155034
    outer loop
      vertex -7.653668642044067 -8.545885675773025 2.5
      vertex -11.480502963066101 -7.852976026386022 5
      vertex -11.111404657363892 -7.691093916259707 2.5
    endloop
  endfacet
  facet normal -0.14918507007186801 -0.9850787155672468 -0.08581223108645535
    outer loop
      vertex -16.667106986045837 -7.067491706833243 5
      vertex -11.111404657363892 -7.691093916259707 2.5
      vertex -11.480502963066101 -7.852976026386022 5
    endloop
  endfacet
  facet normal -0.1366684879932247 -0.9741310799404996 0.1799732299082326
    outer loop
      vertex -3.9018064439296722 -9.072263844311237 2.5
      vertex -5.852709665894508 -8.336674883961678 5
      vertex -7.653668642044067 -8.545885675773025 2.5
    endloop
  endfacet
  facet normal -0.08474547575153137 -0.9860060922833364 0.1435624962160779
    outer loop
      vertex -11.480502963066101 -7.852976026386022 5
      vertex -7.653668642044067 -8.545885675773025 2.5
      vertex -5.852709665894508 -8.336674883961678 5
    endloop
  endfacet
  facet normal -0.04358969459953581 -0.9569158881506541 0.2870747664451962
    outer loop
      vertex 0 -9.25 2.5
      vertex 0 -8.5 5
      vertex -3.9018064439296722 -9.072263844311237 2.5
    endloop
  endfacet
  facet normal -0.026914679895076676 -0.9644799954675105 0.26278116056737477
    outer loop
      vertex -5.852709665894508 -8.336674883961678 5
      vertex -3.9018064439296722 -9.072263844311237 2.5
      vertex 0 -8.5 5
    endloop
  endfacet
  facet normal 0.04358969459953581 -0.9569158881506541 0.2870747664451962
    outer loop
      vertex 3.9018064439296722 -9.072263844311237 2.5
      vertex 0 -8.5 5
      vertex 0 -9.25 2.5
    endloop
  endfacet
  facet normal 0.026914679895076676 -0.9644799954675105 0.26278116056737477
    outer loop
      vertex 3.9018064439296722 -9.072263844311237 2.5
      vertex 5.852709665894508 -8.336674883961678 5
      vertex 0 -8.5 5
    endloop
  endfacet
  facet normal 0.08352005851588437 -0.9717484714578952 0.22074715863346298
    outer loop
      vertex 11.480502963066101 -7.852976026386022 5
      vertex 7.8036128878593445 -7.601085923612117 7.5
      vertex 5.852709665894508 -8.336674883961678 5
    endloop
  endfacet
  facet normal 0.05767376488084012 -0.9812899221412229 0.1836949252117277
    outer loop
      vertex 11.480502963066101 -7.852976026386022 5
      vertex 15.307337284088135 -7.16006637699902 7.5
      vertex 7.8036128878593445 -7.601085923612117 7.5
    endloop
  endfacet
  facet normal 0.14958715648518633 -0.9877337182923038 0.04478598400321419
    outer loop
      vertex 16.667106986045837 -7.067491706833243 5
      vertex 15.307337284088135 -7.16006637699902 7.5
      vertex 11.480502963066101 -7.852976026386022 5
    endloop
  endfacet
  facet normal 0.10299163892215997 -0.9944970560365637 0.019191869287159852
    outer loop
      vertex 16.667106986045837 -7.067491706833243 5
      vertex 22.222809314727783 -6.44388949740678 7.5
      vertex 15.307337284088135 -7.16006637699902 7.5
    endloop
  endfacet
  facet normal 0.21917707553357876 -0.9425930761930996 -0.2519517856125996
    outer loop
      vertex 21.21320343017578 -6.010407638549805 5
      vertex 22.222809314727783 -6.44388949740678 7.5
      vertex 16.667106986045837 -7.067491706833243 5
    endloop
  endfacet
  facet normal 0.15288099908586467 -0.9614763131681608 -0.22845283831694557
    outer loop
      vertex 21.21320343017578 -6.010407638549805 5
      vertex 28.284271240234375 -5.480077552795409 7.5
      vertex 22.222809314727783 -6.44388949740678 7.5
    endloop
  endfacet
  facet normal 0.2645214386498671 -0.7661898890867245 -0.5856461921295804
    outer loop
      vertex 24.944088377058506 -4.722346979379654 5
      vertex 28.284271240234375 -5.480077552795409 7.5
      vertex 21.21320343017578 -6.010407638549805 5
    endloop
  endfacet
  facet normal 0.19685363847592227 -0.833825066354693 -0.5157367581793861
    outer loop
      vertex 24.944088377058506 -4.722346979379654 5
      vertex 33.258784502744675 -4.305669304728507 7.5
      vertex 28.284271240234375 -5.480077552795409 7.5
    endloop
  endfacet
  facet normal 0.2708867328065064 -0.5110304991654266 -0.8157623470791915
    outer loop
      vertex 27.71638597548008 -3.2528091728687287 5
      vertex 33.258784502744675 -4.305669304728507 7.5
      vertex 24.944088377058506 -4.722346979379654 5
    endloop
  endfacet
  facet normal 0.22345562175137504 -0.6164620273656823 -0.7550113601290376
    outer loop
      vertex 27.71638597548008 -3.2528091728687287 5
      vertex 36.955181300640106 -2.9657965987920756 7.5
      vertex 33.258784502744675 -4.305669304728507 7.5
    endloop
  endfacet
  facet normal 0.2589790911276379 -0.27727217182266756 -0.9252296866678262
    outer loop
      vertex 29.42355841398239 -1.6582677386701106 5
      vertex 36.955181300640106 -2.9657965987920756 7.5
      vertex 27.71638597548008 -3.2528091728687287 5
    endloop
  endfacet
  facet normal 0.23484441109189624 -0.3676865729524911 -0.8998081387992403
    outer loop
      vertex 29.42355841398239 -1.6582677386701106 5
      vertex 39.23141121864319 -1.511949997022748 7.5
      vertex 36.955181300640106 -2.9657965987920756 7.5
    endloop
  endfacet
  facet normal 0.24728960633674235 -0.08596200092316925 -0.9651209172922863
    outer loop
      vertex 30 0 5
      vertex 39.23141121864319 -1.511949997022748 7.5
      vertex 29.42355841398239 -1.6582677386701106 5
    endloop
  endfacet
  facet normal 0.24071301893811808 -0.12236471195917713 -0.9628520757524723
    outer loop
      vertex 30 0 5
      vertex 40 0 7.5
      vertex 39.23141121864319 -1.511949997022748 7.5
    endloop
  endfacet
  facet normal 0.24728960633674235 0.08596200092316925 -0.9651209172922863
    outer loop
      vertex 29.42355841398239 1.6582677386701106 5
      vertex 39.23141121864319 1.511949997022748 7.5
      vertex 30 0 5
    endloop
  endfacet
  facet normal 0.24071301893811808 0.12236471195917713 -0.9628520757524723
    outer loop
      vertex 40 0 7.5
      vertex 30 0 5
      vertex 39.23141121864319 1.511949997022748 7.5
    endloop
  endfacet
  facet normal 0.2589790911276379 0.27727217182266756 -0.9252296866678262
    outer loop
      vertex 27.71638597548008 3.2528091728687287 5
      vertex 36.955181300640106 2.9657965987920756 7.5
      vertex 29.42355841398239 1.6582677386701106 5
    endloop
  endfacet
  facet normal 0.23484441109189624 0.3676865729524911 -0.8998081387992403
    outer loop
      vertex 39.23141121864319 1.511949997022748 7.5
      vertex 29.42355841398239 1.6582677386701106 5
      vertex 36.955181300640106 2.9657965987920756 7.5
    endloop
  endfacet
  facet normal 0.2708867328065064 0.5110304991654266 -0.8157623470791915
    outer loop
      vertex 24.944088377058506 4.722346979379654 5
      vertex 33.258784502744675 4.305669304728507 7.5
      vertex 27.71638597548008 3.2528091728687287 5
    endloop
  endfacet
  facet normal 0.22345562175137498 0.6164620273656822 -0.7550113601290376
    outer loop
      vertex 36.955181300640106 2.9657965987920756 7.5
      vertex 27.71638597548008 3.2528091728687287 5
      vertex 33.258784502744675 4.305669304728507 7.5
    endloop
  endfacet
  facet normal 0.2645214386498671 0.7661898890867245 -0.5856461921295804
    outer loop
      vertex 21.21320343017578 6.010407638549805 5
      vertex 28.284271240234375 5.480077552795409 7.5
      vertex 24.944088377058506 4.722346979379654 5
    endloop
  endfacet
  facet normal 0.1968536384759223 0.8338250663546931 -0.5157367581793861
    outer loop
      vertex 33.258784502744675 4.305669304728507 7.5
      vertex 24.944088377058506 4.722346979379654 5
      vertex 28.284271240234375 5.480077552795409 7.5
    endloop
  endfacet
  facet normal 0.21917707553357876 0.9425930761930996 -0.2519517856125996
    outer loop
      vertex 16.667106986045837 7.067491706833243 5
      vertex 22.222809314727783 6.44388949740678 7.5
      vertex 21.21320343017578 6.010407638549805 5
    endloop
  endfacet
  facet normal 0.15288099908586467 0.9614763131681608 -0.22845283831694557
    outer loop
      vertex 28.284271240234375 5.480077552795409 7.5
      vertex 21.21320343017578 6.010407638549805 5
      vertex 22.222809314727783 6.44388949740678 7.5
    endloop
  endfacet
  facet normal 0.14958715648518633 0.9877337182923038 0.04478598400321419
    outer loop
      vertex 11.480502963066101 7.852976026386022 5
      vertex 15.307337284088135 7.16006637699902 7.5
      vertex 16.667106986045837 7.067491706833243 5
    endloop
  endfacet
  facet normal 0.10299163892215997 0.9944970560365637 0.019191869287159873
    outer loop
      vertex 22.222809314727783 6.44388949740678 7.5
      vertex 16.667106986045837 7.067491706833243 5
      vertex 15.307337284088135 7.16006637699902 7.5
    endloop
  endfacet
  facet normal 0.08352005851588437 0.9717484714578952 0.22074715863346298
    outer loop
      vertex 5.852709665894508 8.336674883961678 5
      vertex 7.8036128878593445 7.601085923612117 7.5
      vertex 11.480502963066101 7.852976026386022 5
    endloop
  endfacet
  facet normal 0.05767376488084012 0.9812899221412229 0.1836949252117277
    outer loop
      vertex 15.307337284088135 7.16006637699902 7.5
      vertex 11.480502963066101 7.852976026386022 5
      vertex 7.8036128878593445 7.601085923612117 7.5
    endloop
  endfacet
  facet normal 0.026719459123866633 0.9574843139559399 0.2872452941867823
    outer loop
      vertex 0 8.5 5
      vertex 0 7.749999999999999 7.5
      vertex 5.852709665894508 8.336674883961678 5
    endloop
  endfacet
  facet normal 0.01837598531861196 0.9629652168403295 0.26899872549740345
    outer loop
      vertex 7.8036128878593445 7.601085923612117 7.5
      vertex 5.852709665894508 8.336674883961678 5
      vertex 0 7.749999999999999 7.5
    endloop
  endfacet
  facet normal -0.026719459123866633 0.9574843139559399 0.2872452941867823
    outer loop
      vertex -5.852709665894508 8.336674883961678 5
      vertex 0 7.749999999999999 7.5
      vertex 0 8.5 5
    endloop
  endfacet
  facet normal -0.01837598531861196 0.9629652168403295 0.2689987254974035
    outer loop
      vertex -5.852709665894508 8.336674883961678 5
      vertex -7.8036128878593445 7.601085923612117 7.5
      vertex 0 7.749999999999999 7.5
    endloop
  endfacet
  facet normal -0.08352005851588437 0.9717484714578952 0.22074715863346298
    outer loop
      vertex -11.480502963066101 7.852976026386022 5
      vertex -7.8036128878593445 7.601085923612117 7.5
      vertex -5.852709665894508 8.336674883961678 5
    endloop
  endfacet
  facet normal -0.05767376488084012 0.9812899221412229 0.1836949252117277
    outer loop
      vertex -11.480502963066101 7.852976026386022 5
      vertex -15.307337284088135 7.16006637699902 7.5
      vertex -7.8036128878593445 7.601085923612117 7.5
    endloop
  endfacet
  facet normal -0.14958715648518633 0.9877337182923038 0.04478598400321419
    outer loop
      vertex -16.667106986045837 7.067491706833243 5
      vertex -15.307337284088135 7.16006637699902 7.5
      vertex -11.480502963066101 7.852976026386022 5
    endloop
  endfacet
  facet normal -0.10299163892215997 0.9944970560365637 0.019191869287159852
    outer loop
      vertex -16.667106986045837 7.067491706833243 5
      vertex -22.222809314727783 6.44388949740678 7.5
      vertex -15.307337284088135 7.16006637699902 7.5
    endloop
  endfacet
  facet normal -0.21917707553357876 0.9425930761930996 -0.2519517856125996
    outer loop
      vertex -21.21320343017578 6.010407638549805 5
      vertex -22.222809314727783 6.44388949740678 7.5
      vertex -16.667106986045837 7.067491706833243 5
    endloop
  endfacet
  facet normal -0.15288099908586467 0.9614763131681608 -0.22845283831694557
    outer loop
      vertex -21.21320343017578 6.010407638549805 5
      vertex -28.284271240234375 5.480077552795409 7.5
      vertex -22.222809314727783 6.44388949740678 7.5
    endloop
  endfacet
  facet normal -0.2645214386498671 0.7661898890867245 -0.5856461921295804
    outer loop
      vertex -24.944088377058506 4.722346979379654 5
      vertex -28.284271240234375 5.480077552795409 7.5
      vertex -21.21320343017578 6.010407638549805 5
    endloop
  endfacet
  facet normal -0.19685363847592227 0.833825066354693 -0.5157367581793861
    outer loop
      vertex -24.944088377058506 4.722346979379654 5
      vertex -33.258784502744675 4.305669304728507 7.5
      vertex -28.284271240234375 5.480077552795409 7.5
    endloop
  endfacet
  facet normal -0.2708867328065064 0.5110304991654266 -0.8157623470791915
    outer loop
      vertex -27.71638597548008 3.2528091728687287 5
      vertex -33.258784502744675 4.305669304728507 7.5
      vertex -24.944088377058506 4.722346979379654 5
    endloop
  endfacet
  facet normal -0.22345562175137504 0.6164620273656823 -0.7550113601290376
    outer loop
      vertex -27.71638597548008 3.2528091728687287 5
      vertex -36.955181300640106 2.9657965987920756 7.5
      vertex -33.258784502744675 4.305669304728507 7.5
    endloop
  endfacet
  facet normal -0.2589790911276379 0.27727217182266756 -0.9252296866678262
    outer loop
      vertex -29.42355841398239 1.6582677386701106 5
      vertex -36.955181300640106 2.9657965987920756 7.5
      vertex -27.71638597548008 3.2528091728687287 5
    endloop
  endfacet
  facet normal -0.23484441109189624 0.3676865729524911 -0.8998081387992403
    outer loop
      vertex -29.42355841398239 1.6582677386701106 5
      vertex -39.23141121864319 1.511949997022748 7.5
      vertex -36.955181300640106 2.9657965987920756 7.5
    endloop
  endfacet
  facet normal -0.24728960633674235 0.08596200092316925 -0.9651209172922863
    outer loop
      vertex -30 0 5
      vertex -39.23141121864319 1.511949997022748 7.5
      vertex -29.42355841398239 1.6582677386701106 5
    endloop
  endfacet
  facet normal -0.24071301893811808 0.12236471195917713 -0.9628520757524723
    outer loop
      vertex -30 0 5
      vertex -40 0 7.5
      vertex -39.23141121864319 1.511949997022748 7.5
    endloop
  endfacet
  facet normal -0.24728960633674235 -0.08596200092316925 -0.9651209172922863
    outer loop
      vertex -29.42355841398239 -1.6582677386701106 5
      vertex -39.23141121864319 -1.511949997022748 7.5
      vertex -30 0 5
    endloop
  endfacet
  facet normal -0.24071301893811808 -0.12236471195917713 -0.9628520757524723
    outer loop
      vertex -40 0 7.5
      vertex -30 0 5
      vertex -39.23141121864319 -1.511949997022748 7.5
    endloop
  endfacet
  facet normal -0.2589790911276379 -0.27727217182266756 -0.9252296866678262
    outer loop
      vertex -27.71638597548008 -3.2528091728687287 5
      vertex -36.955181300640106 -2.9657965987920756 7.5
      vertex -29.42355841398239 -1.6582677386701106 5
    endloop
  endfacet
  facet normal -0.23484441109189624 -0.3676865729524911 -0.8998081387992403
    outer loop
      vertex -39.23141121864319 -1.511949997022748 7.5
      vertex -29.42355841398239 -1.6582677386701106 5
      vertex -36.955181300640106 -2.9657965987920756 7.5
    endloop
  endfacet
  facet normal -0.2708867328065064 -0.5110304991654266 -0.8157623470791915
    outer loop
      vertex -24.944088377058506 -4.722346979379654 5
      vertex -33.258784502744675 -4.305669304728507 7.5
      vertex -27.71638597548008 -3.2528091728687287 5
    endloop
  endfacet
  facet normal -0.22345562175137498 -0.6164620273656822 -0.7550113601290376
    outer loop
      vertex -36.955181300640106 -2.9657965987920756 7.5
      vertex -27.71638597548008 -3.2528091728687287 5
      vertex -33.258784502744675 -4.305669304728507 7.5
    endloop
  endfacet
  facet normal -0.2645214386498671 -0.7661898890867245 -0.5856461921295804
    outer loop
      vertex -21.21320343017578 -6.010407638549805 5
      vertex -28.284271240234375 -5.480077552795409 7.5
      vertex -24.944088377058506 -4.722346979379654 5
    endloop
  endfacet
  facet normal -0.1968536384759223 -0.8338250663546931 -0.5157367581793861
    outer loop
      vertex -33.258784502744675 -4.305669304728507 7.5
      vertex -24.944088377058506 -4.722346979379654 5
      vertex -28.284271240234375 -5.480077552795409 7.5
    endloop
  endfacet
  facet normal -0.21917707553357876 -0.9425930761930996 -0.2519517856125996
    outer loop
      vertex -16.667106986045837 -7.067491706833243 5
      vertex -22.222809314727783 -6.44388949740678 7.5
      vertex -21.21320343017578 -6.010407638549805 5
    endloop
  endfacet
  facet normal -0.15288099908586467 -0.9614763131681608 -0.22845283831694557
    outer loop
      vertex -28.284271240234375 -5.480077552795409 7.5
      vertex -21.21320343017578 -6.010407638549805 5
      vertex -22.222809314727783 -6.44388949740678 7.5
    endloop
  endfacet
  facet normal -0.14958715648518633 -0.9877337182923038 0.04478598400321419
    outer loop
      vertex -11.480502963066101 -7.852976026386022 5
      vertex -15.307337284088135 -7.16006637699902 7.5
      vertex -16.667106986045837 -7.067491706833243 5
    endloop
  endfacet
  facet normal -0.10299163892215997 -0.9944970560365637 0.019191869287159873
    outer loop
      vertex -22.222809314727783 -6.44388949740678 7.5
      vertex -16.667106986045837 -7.067491706833243 5
      vertex -15.307337284088135 -7.16006637699902 7.5
    endloop
  endfacet
  facet normal -0.08352005851588437 -0.9717484714578952 0.22074715863346298
    outer loop
      vertex -5.852709665894508 -8.336674883961678 5
      vertex -7.8036128878593445 -7.601085923612117 7.5
      vertex -11.480502963066101 -7.852976026386022 5
    endloop
  endfacet
  facet normal -0.05767376488084012 -0.9812899221412229 0.1836949252117277
    outer loop
      vertex -15.307337284088135 -7.16006637699902 7.5
      vertex -11.480502963066101 -7.852976026386022 5
      vertex -7.8036128878593445 -7.601085923612117 7.5
    endloop
  endfacet
  facet normal -0.026719459123866633 -0.9574843139559399 0.2872452941867823
    outer loop
      vertex 0 -8.5 5
      vertex 0 -7.749999999999999 7.5
      vertex -5.852709665894508 -8.336674883961678 5
    endloop
  endfacet
  facet normal -0.01837598531861196 -0.9629652168403295 0.26899872549740345
    outer loop
      vertex -7.8036128878593445 -7.601085923612117 7.5
      vertex -5.852709665894508 -8.336674883961678 5
      vertex 0 -7.749999999999999 7.5
    endloop
  endfacet
  facet normal 0.026719459123866633 -0.9574843139559399 0.2872452941867823
    outer loop
      vertex 5.852709665894508 -8.336674883961678 5
      vertex 0 -7.749999999999999 7.5
      vertex 0 -8.5 5
    endloop
  endfacet
  facet normal 0.01837598531861196 -0.9629652168403295 0.2689987254974035
    outer loop
      vertex 5.852709665894508 -8.336674883961678 5
      vertex 7.8036128878593445 -7.601085923612117 7.5
      vertex 0 -7.749999999999999 7.5
    endloop
  endfacet
  facet normal 0.05694782019942808 -0.968938340770153 0.240656264327602
    outer loop
      vertex 15.307337284088135 -7.16006637699902 7.5
      vertex 9.75451610982418 -6.865496963262558 10
      vertex 7.8036128878593445 -7.601085923612117 7.5
    endloop
  endfacet
  facet normal 0.041508075153481344 -0.9773841815810231 0.20735776159152178
    outer loop
      vertex 15.307337284088135 -7.16006637699902 7.5
      vertex 19.13417160511017 -6.467156727612018 10
      vertex 9.75451610982418 -6.865496963262558 10
    endloop
  endfacet
  facet normal 0.10230076456725302 -0.987825907589597 0.1171944105482185
    outer loop
      vertex 22.222809314727783 -6.44388949740678 7.5
      vertex 19.13417160511017 -6.467156727612018 10
      vertex 15.307337284088135 -7.16006637699902 7.5
    endloop
  endfacet
  facet normal 0.07436773424905335 -0.99380175247223 0.08262878969092302
    outer loop
      vertex 22.222809314727783 -6.44388949740678 7.5
      vertex 27.77851164340973 -5.820287287980317 10
      vertex 19.13417160511017 -6.467156727612018 10
    endloop
  endfacet
  facet normal 0.15621327200357132 -0.9824331455969393 -0.10209078353329046
    outer loop
      vertex 28.284271240234375 -5.480077552795409 7.5
      vertex 27.77851164340973 -5.820287287980317 10
      vertex 22.222809314727783 -6.44388949740678 7.5
    endloop
  endfacet
  facet normal 0.11343356547921818 -0.9872799923799815 -0.11140486016712012
    outer loop
      vertex 28.284271240234375 -5.480077552795409 7.5
      vertex 35.35533905029297 -4.949747467041015 10
      vertex 27.77851164340973 -5.820287287980317 10
    endloop
  endfacet
  facet normal 0.21004446576543093 -0.889698264966123 -0.40536196135994934
    outer loop
      vertex 33.258784502744675 -4.305669304728507 7.5
      vertex 35.35533905029297 -4.949747467041015 10
      vertex 28.284271240234375 -5.480077552795409 7.5
    endloop
  endfacet
  facet normal 0.15640269993298098 -0.9168312796374596 -0.36736711901313696
    outer loop
      vertex 33.258784502744675 -4.305669304728507 7.5
      vertex 41.57348062843084 -3.8889916300773617 10
      vertex 35.35533905029297 -4.949747467041015 10
    endloop
  endfacet
  facet normal 0.2437925063179752 -0.6725667563135055 -0.6987268222740056
    outer loop
      vertex 36.955181300640106 -2.9657965987920756 7.5
      vertex 41.57348062843084 -3.8889916300773617 10
      vertex 33.258784502744675 -4.305669304728507 7.5
    endloop
  endfacet
  facet normal 0.19541841804890692 -0.7460951446732748 -0.6365168316566561
    outer loop
      vertex 36.955181300640106 -2.9657965987920756 7.5
      vertex 46.19397662580013 -2.6787840247154233 10
      vertex 41.57348062843084 -3.8889916300773617 10
    endloop
  endfacet
  facet normal 0.2514822338664931 -0.39373575167869285 -0.8841543100044997
    outer loop
      vertex 39.23141121864319 -1.511949997022748 7.5
      vertex 46.19397662580013 -2.6787840247154233 10
      vertex 36.955181300640106 -2.9657965987920756 7.5
    endloop
  endfacet
  facet normal 0.22301128789891042 -0.4832123915720534 -0.8466237358478003
    outer loop
      vertex 39.23141121864319 -1.511949997022748 7.5
      vertex 49.039264023303986 -1.3656322553753852 10
      vertex 46.19397662580013 -2.6787840247154233 10
    endloop
  endfacet
  facet normal 0.24680532298035335 -0.12546169039675592 -0.9609092031983834
    outer loop
      vertex 40 0 7.5
      vertex 49.039264023303986 -1.3656322553753852 10
      vertex 39.23141121864319 -1.511949997022748 7.5
    endloop
  endfacet
  facet normal 0.23908038181506688 -0.16819544443816334 -0.9563215272602675
    outer loop
      vertex 40 0 7.5
      vertex 50 0 10
      vertex 49.039264023303986 -1.3656322553753852 10
    endloop
  endfacet
  facet normal 0.24680532298035335 0.12546169039675592 -0.9609092031983834
    outer loop
      vertex 39.23141121864319 1.511949997022748 7.5
      vertex 49.039264023303986 1.3656322553753852 10
      vertex 40 0 7.5
    endloop
  endfacet
  facet normal 0.23908038181506688 0.16819544443816334 -0.9563215272602675
    outer loop
      vertex 50 0 10
      vertex 40 0 7.5
      vertex 49.039264023303986 1.3656322553753852 10
    endloop
  endfacet
  facet normal 0.2514822338664931 0.3937357516786929 -0.8841543100044997
    outer loop
      vertex 36.955181300640106 2.9657965987920756 7.5
      vertex 46.19397662580013 2.6787840247154233 10
      vertex 39.23141121864319 1.511949997022748 7.5
    endloop
  endfacet
  facet normal 0.2230112878989104 0.48321239157205337 -0.8466237358478004
    outer loop
      vertex 49.039264023303986 1.3656322553753852 10
      vertex 39.23141121864319 1.511949997022748 7.5
      vertex 46.19397662580013 2.6787840247154233 10
    endloop
  endfacet
  facet normal 0.2437925063179752 0.6725667563135055 -0.6987268222740057
    outer loop
      vertex 33.258784502744675 4.305669304728507 7.5
      vertex 41.57348062843084 3.8889916300773617 10
      vertex 36.955181300640106 2.9657965987920756 7.5
    endloop
  endfacet
  facet normal 0.19541841804890692 0.7460951446732748 -0.6365168316566561
    outer loop
      vertex 46.19397662580013 2.6787840247154233 10
      vertex 36.955181300640106 2.9657965987920756 7.5
      vertex 41.57348062843084 3.8889916300773617 10
    endloop
  endfacet
  facet normal 0.21004446576543093 0.889698264966123 -0.40536196135994934
    outer loop
      vertex 28.284271240234375 5.480077552795409 7.5
      vertex 35.35533905029297 4.949747467041015 10
      vertex 33.258784502744675 4.305669304728507 7.5
    endloop
  endfacet
  facet normal 0.15640269993298098 0.9168312796374596 -0.367367119013137
    outer loop
      vertex 41.57348062843084 3.8889916300773617 10
      vertex 33.258784502744675 4.305669304728507 7.5
      vertex 35.35533905029297 4.949747467041015 10
    endloop
  endfacet
  facet normal 0.15621327200357132 0.9824331455969393 -0.10209078353329046
    outer loop
      vertex 22.222809314727783 6.44388949740678 7.5
      vertex 27.77851164340973 5.820287287980317 10
      vertex 28.284271240234375 5.480077552795409 7.5
    endloop
  endfacet
  facet normal 0.11343356547921818 0.9872799923799815 -0.11140486016712015
    outer loop
      vertex 35.35533905029297 4.949747467041015 10
      vertex 28.284271240234375 5.480077552795409 7.5
      vertex 27.77851164340973 5.820287287980317 10
    endloop
  endfacet
  facet normal 0.10230076456725302 0.987825907589597 0.1171944105482185
    outer loop
      vertex 15.307337284088135 7.16006637699902 7.5
      vertex 19.13417160511017 6.467156727612018 10
      vertex 22.222809314727783 6.44388949740678 7.5
    endloop
  endfacet
  facet normal 0.07436773424905335 0.99380175247223 0.08262878969092302
    outer loop
      vertex 27.77851164340973 5.820287287980317 10
      vertex 22.222809314727783 6.44388949740678 7.5
      vertex 19.13417160511017 6.467156727612018 10
    endloop
  endfacet
  facet normal 0.05694782019942808 0.968938340770153 0.240656264327602
    outer loop
      vertex 7.8036128878593445 7.601085923612117 7.5
      vertex 9.75451610982418 6.865496963262558 10
      vertex 15.307337284088135 7.16006637699902 7.5
    endloop
  endfacet
  facet normal 0.041508075153481344 0.9773841815810231 0.20735776159152183
    outer loop
      vertex 19.13417160511017 6.467156727612018 10
      vertex 15.307337284088135 7.16006637699902 7.5
      vertex 9.75451610982418 6.865496963262558 10
    endloop
  endfacet
  facet normal 0.018274868179488306 0.9576663288561373 0.28729989865684086
    outer loop
      vertex 0 7.749999999999999 7.5
      vertex 0 7 10
      vertex 7.8036128878593445 7.601085923612117 7.5
    endloop
  endfacet
  facet normal 0.01326490814870652 0.9620062369630971 0.27270504626043873
    outer loop
      vertex 9.75451610982418 6.865496963262558 10
      vertex 7.8036128878593445 7.601085923612117 7.5
      vertex 0 7 10
    endloop
  endfacet
  facet normal -0.018274868179488306 0.9576663288561373 0.28729989865684086
    outer loop
      vertex -7.8036128878593445 7.601085923612117 7.5
      vertex 0 7 10
      vertex 0 7.749999999999999 7.5
    endloop
  endfacet
  facet normal -0.01326490814870652 0.9620062369630971 0.27270504626043873
    outer loop
      vertex -7.8036128878593445 7.601085923612117 7.5
      vertex -9.75451610982418 6.865496963262558 10
      vertex 0 7 10
    endloop
  endfacet
  facet normal -0.05694782019942808 0.968938340770153 0.240656264327602
    outer loop
      vertex -15.307337284088135 7.16006637699902 7.5
      vertex -9.75451610982418 6.865496963262558 10
      vertex -7.8036128878593445 7.601085923612117 7.5
    endloop
  endfacet
  facet normal -0.041508075153481344 0.9773841815810231 0.20735776159152178
    outer loop
      vertex -15.307337284088135 7.16006637699902 7.5
      vertex -19.13417160511017 6.467156727612018 10
      vertex -9.75451610982418 6.865496963262558 10
    endloop
  endfacet
  facet normal -0.10230076456725302 0.987825907589597 0.1171944105482185
    outer loop
      vertex -22.222809314727783 6.44388949740678 7.5
      vertex -19.13417160511017 6.467156727612018 10
      vertex -15.307337284088135 7.16006637699902 7.5
    endloop
  endfacet
  facet normal -0.07436773424905335 0.99380175247223 0.08262878969092302
    outer loop
      vertex -22.222809314727783 6.44388949740678 7.5
      vertex -27.77851164340973 5.820287287980317 10
      vertex -19.13417160511017 6.467156727612018 10
    endloop
  endfacet
  facet normal -0.15621327200357132 0.9824331455969393 -0.10209078353329046
    outer loop
      vertex -28.284271240234375 5.480077552795409 7.5
      vertex -27.77851164340973 5.820287287980317 10
      vertex -22.222809314727783 6.44388949740678 7.5
    endloop
  endfacet
  facet normal -0.11343356547921818 0.9872799923799815 -0.11140486016712012
    outer loop
      vertex -28.284271240234375 5.480077552795409 7.5
      vertex -35.35533905029297 4.949747467041015 10
      vertex -27.77851164340973 5.820287287980317 10
    endloop
  endfacet
  facet normal -0.21004446576543093 0.889698264966123 -0.40536196135994934
    outer loop
      vertex -33.258784502744675 4.305669304728507 7.5
      vertex -35.35533905029297 4.949747467041015 10
      vertex -28.284271240234375 5.480077552795409 7.5
    endloop
  endfacet
  facet normal -0.15640269993298098 0.9168312796374596 -0.36736711901313696
    outer loop
      vertex -33.258784502744675 4.305669304728507 7.5
      vertex -41.57348062843084 3.8889916300773617 10
      vertex -35.35533905029297 4.949747467041015 10
    endloop
  endfacet
  facet normal -0.2437925063179752 0.6725667563135055 -0.6987268222740056
    outer loop
      vertex -36.955181300640106 2.9657965987920756 7.5
      vertex -41.57348062843084 3.8889916300773617 10
      vertex -33.258784502744675 4.305669304728507 7.5
    endloop
  endfacet
  facet normal -0.19541841804890692 0.7460951446732748 -0.6365168316566561
    outer loop
      vertex -36.955181300640106 2.9657965987920756 7.5
      vertex -46.19397662580013 2.6787840247154233 10
      vertex -41.57348062843084 3.8889916300773617 10
    endloop
  endfacet
  facet normal -0.2514822338664931 0.39373575167869285 -0.8841543100044997
    outer loop
      vertex -39.23141121864319 1.511949997022748 7.5
      vertex -46.19397662580013 2.6787840247154233 10
      vertex -36.955181300640106 2.9657965987920756 7.5
    endloop
  endfacet
  facet normal -0.22301128789891042 0.4832123915720534 -0.8466237358478003
    outer loop
      vertex -39.23141121864319 1.511949997022748 7.5
      vertex -49.039264023303986 1.3656322553753852 10
      vertex -46.19397662580013 2.6787840247154233 10
    endloop
  endfacet
  facet normal -0.24680532298035335 0.12546169039675592 -0.9609092031983834
    outer loop
      vertex -40 0 7.5
      vertex -49.039264023303986 1.3656322553753852 10
      vertex -39.23141121864319 1.511949997022748 7.5
    endloop
  endfacet
  facet normal -0.23908038181506688 0.16819544443816334 -0.9563215272602675
    outer loop
      vertex -40 0 7.5
      vertex -50 0 10
      vertex -49.039264023303986 1.3656322553753852 10
    endloop
  endfacet
  facet normal -0.24680532298035335 -0.12546169039675592 -0.9609092031983834
    outer loop
      vertex -39.23141121864319 -1.511949997022748 7.5
      vertex -49.039264023303986 -1.3656322553753852 10
      vertex -40 0 7.5
    endloop
  endfacet
  facet normal -0.23908038181506688 -0.16819544443816334 -0.9563215272602675
    outer loop
      vertex -50 0 10
      vertex -40 0 7.5
      vertex -49.039264023303986 -1.3656322553753852 10
    endloop
  endfacet
  facet normal -0.2514822338664931 -0.3937357516786929 -0.8841543100044997
    outer loop
      vertex -36.955181300640106 -2.9657965987920756 7.5
      vertex -46.19397662580013 -2.6787840247154233 10
      vertex -39.23141121864319 -1.511949997022748 7.5
    endloop
  endfacet
  facet normal -0.2230112878989104 -0.48321239157205337 -0.8466237358478004
    outer loop
      vertex -49.039264023303986 -1.3656322553753852 10
      vertex -39.23141121864319 -1.511949997022748 7.5
      vertex -46.19397662580013 -2.6787840247154233 10
    endloop
  endfacet
  facet normal -0.2437925063179752 -0.6725667563135055 -0.6987268222740057
    outer loop
      vertex -33.258784502744675 -4.305669304728507 7.5
      vertex -41.57348062843084 -3.8889916300773617 10
      vertex -36.955181300640106 -2.9657965987920756 7.5
    endloop
  endfacet
  facet normal -0.19541841804890692 -0.7460951446732748 -0.6365168316566561
    outer loop
      vertex -46.19397662580013 -2.6787840247154233 10
      vertex -36.955181300640106 -2.9657965987920756 7.5
      vertex -41.57348062843084 -3.8889916300773617 10
    endloop
  endfacet
  facet normal -0.21004446576543093 -0.889698264966123 -0.40536196135994934
    outer loop
      vertex -28.284271240234375 -5.480077552795409 7.5
      vertex -35.35533905029297 -4.949747467041015 10
      vertex -33.258784502744675 -4.305669304728507 7.5
    endloop
  endfacet
  facet normal -0.15640269993298098 -0.9168312796374596 -0.367367119013137
    outer loop
      vertex -41.57348062843084 -3.8889916300773617 10
      vertex -33.258784502744675 -4.305669304728507 7.5
      vertex -35.35533905029297 -4.949747467041015 10
    endloop
  endfacet
  facet normal -0.15621327200357132 -0.9824331455969393 -0.10209078353329046
    outer loop
      vertex -22.222809314727783 -6.44388949740678 7.5
      vertex -27.77851164340973 -5.820287287980317 10
      vertex -28.284271240234375 -5.480077552795409 7.5
    endloop
  endfacet
  facet normal -0.11343356547921818 -0.9872799923799815 -0.11140486016712015
    outer loop
      vertex -35.35533905029297 -4.949747467041015 10
      vertex -28.284271240234375 -5.480077552795409 7.5
      vertex -27.77851164340973 -5.820287287980317 10
    endloop
  endfacet
  facet normal -0.10230076456725302 -0.987825907589597 0.1171944105482185
    outer loop
      vertex -15.307337284088135 -7.16006637699902 7.5
      vertex -19.13417160511017 -6.467156727612018 10
      vertex -22.222809314727783 -6.44388949740678 7.5
    endloop
  endfacet
  facet normal -0.07436773424905335 -0.99380175247223 0.08262878969092302
    outer loop
      vertex -27.77851164340973 -5.820287287980317 10
      vertex -22.222809314727783 -6.44388949740678 7.5
      vertex -19.13417160511017 -6.467156727612018 10
    endloop
  endfacet
  facet normal -0.05694782019942808 -0.968938340770153 0.240656264327602
    outer loop
      vertex -7.8036128878593445 -7.601085923612117 7.5
      vertex -9.75451610982418 -6.865496963262558 10
      vertex -15.307337284088135 -7.16006637699902 7.5
    endloop
  endfacet
  facet normal -0.041508075153481344 -0.9773841815810231 0.20735776159152183
    outer loop
      vertex -19.13417160511017 -6.467156727612018 10
      vertex -15.307337284088135 -7.16006637699902 7.5
      vertex -9.75451610982418 -6.865496963262558 10
    endloop
  endfacet
  facet normal -0.018274868179488306 -0.9576663288561373 0.28729989865684086
    outer loop
      vertex 0 -7.749999999999999 7.5
      vertex 0 -7 10
      vertex -7.8036128878593445 -7.601085923612117 7.5
    endloop
  endfacet
  facet normal -0.01326490814870652 -0.9620062369630971 0.27270504626043873
    outer loop
      vertex -9.75451610982418 -6.865496963262558 10
      vertex -7.8036128878593445 -7.601085923612117 7.5
      vertex 0 -7 10
    endloop
  endfacet
  facet normal 0.018274868179488306 -0.9576663288561373 0.28729989865684086
    outer loop
      vertex 7.8036128878593445 -7.601085923612117 7.5
      vertex 0 -7 10
      vertex 0 -7.749999999999999 7.5
    endloop
  endfacet
  facet normal 0.01326490814870652 -0.9620062369630971 0.27270504626043873
    outer loop
      vertex 7.8036128878593445 -7.601085923612117 7.5
      vertex 9.75451610982418 -6.865496963262558 10
      vertex 0 -7 10
    endloop
  endfacet
  facet normal 0 0 -1
    outer loop
      vertex 0 -10 0
      vertex 3.8268343210220337 -9.238795325160027 0
      vertex 1.9509032219648361 -9.807852804660797 0
    endloop
  endfacet
  facet normal 0 0 -1
    outer loop
      vertex 0 -10 0
      vertex -1.9509032219648361 -9.807852804660797 0
      vertex 3.8268343210220337 -9.238795325160027 0
    endloop
  endfacet
  facet normal 0 0 -1
    outer loop
      vertex -1.9509032219648361 -9.807852804660797 0
      vertex 5.555702328681946 -8.314696125686169 0
      vertex 3.8268343210220337 -9.238795325160027 0
    endloop
  endfacet
  facet normal 0 0 -1
    outer loop
      vertex -1.9509032219648361 -9.807852804660797 0
      vertex -3.8268343210220337 -9.238795325160027 0
      vertex 5.555702328681946 -8.314696125686169 0
    endloop
  endfacet
  facet normal 0 0 -1
    outer loop
      vertex -3.8268343210220337 -9.238795325160027 0
      vertex 7.071067810058594 -7.071067810058594 0
      vertex 5.555702328681946 -8.314696125686169 0
    endloop
  endfacet
  facet normal 0 0 -1
    outer loop
      vertex -3.8268343210220337 -9.238795325160027 0
      vertex -5.555702328681946 -8.314696125686169 0
      vertex 7.071067810058594 -7.071067810058594 0
    endloop
  endfacet
  facet normal 0 0 -1
    outer loop
      vertex -5.555702328681946 -8.314696125686169 0
      vertex 8.314696125686169 -5.555702328681946 0
      vertex 7.071067810058594 -7.071067810058594 0
    endloop
  endfacet
  facet normal 0 0 -1
    outer loop
      vertex -5.555702328681946 -8.314696125686169 0
      vertex -7.071067810058594 -7.071067810058594 0
      vertex 8.314696125686169 -5.555702328681946 0
    endloop
  endfacet
  facet normal 0 0 -1
    outer loop
      vertex -7.071067810058594 -7.071067810058594 0
      vertex 9.238795325160027 -3.8268343210220337 0
      vertex 8.314696125686169 -5.555702328681946 0
    endloop
  endfacet
  facet normal 0 0 -1
    outer loop
      vertex -7.071067810058594 -7.071067810058594 0
      vertex -8.314696125686169 -5.555702328681946 0
      vertex 9.238795325160027 -3.8268343210220337 0
    endloop
  endfacet
  facet normal 0 0 -1
    outer loop
      vertex -8.314696125686169 -5.555702328681946 0
      vertex 9.807852804660797 -1.9509032219648361 0
      vertex 9.238795325160027 -3.8268343210220337 0
    endloop
  endfacet
  facet normal 0 0 -1
    outer loop
      vertex -8.314696125686169 -5.555702328681946 0
      vertex -9.238795325160027 -3.8268343210220337 0
      vertex 9.807852804660797 -1.9509032219648361 0
    endloop
  endfacet
  facet normal 0 0 -1
    outer loop
      vertex -9.238795325160027 -3.8268343210220337 0
      vertex 10 0 0
      vertex 9.807852804660797 -1.9509032219648361 0
    endloop
  endfacet
  facet normal 0 0 -1
    outer loop
      vertex -9.238795325160027 -3.8268343210220337 0
      vertex -9.807852804660797 -1.9509032219648361 0
      vertex 10 0 0
    endloop
  endfacet
  facet normal 0 0 -1
    outer loop
      vertex -9.807852804660797 -1.9509032219648361 0
      vertex 9.807852804660797 1.9509032219648361 0
      vertex 10 0 0
    endloop
  endfacet
  facet normal 0 0 -1
    outer loop
      vertex -9.807852804660797 -1.9509032219648361 0
      vertex -10 0 0
      vertex 9.807852804660797 1.9509032219648361 0
    endloop
  endfacet
  facet normal 0 0 -1
    outer loop
      vertex -10 0 0
      vertex 9.238795325160027 3.8268343210220337 0
      vertex 9.807852804660797 1.9509032219648361 0
    endloop
  endfacet
  facet normal 0 0 -1
    outer loop
      vertex -10 0 0
      vertex -9.807852804660797 1.9509032219648361 0
      vertex 9.238795325160027 3.8268343210220337 0
    endloop
  endfacet
  facet normal 0 0 -1
    outer loop
      vertex -9.807852804660797 1.9509032219648361 0
      vertex 8.314696125686169 5.555702328681946 0
      vertex 9.238795325160027 3.8268343210220337 0
    endloop
  endfacet
  facet normal 0 0 -1
    outer loop
      vertex -9.807852804660797 1.9509032219648361 0
      vertex -9.238795325160027 3.8268343210220337 0
      vertex 8.314696125686169 5.555702328681946 0
    endloop
  endfacet
  facet normal 0 0 -1
    outer loop
      vertex -9.238795325160027 3.8268343210220337 0
      vertex 7.071067810058594 7.071067810058594 0
      vertex 8.314696125686169 5.555702328681946 0
    endloop
  endfacet
  facet normal 0 0 -1
    outer loop
      vertex -9.238795325160027 3.8268343210220337 0
      vertex -8.314696125686169 5.555702328681946 0
      vertex 7.071067810058594 7.071067810058594 0
    endloop
  endfacet
  facet normal 0 0 -1
    outer loop
      vertex -8.314696125686169 5.555702328681946 0
      vertex 5.555702328681946 8.314696125686169 0
      vertex 7.071067810058594 7.071067810058594 0
    endloop
  endfacet
  facet normal 0 0 -1
    outer loop
      vertex -8.314696125686169 5.555702328681946 0
      vertex -7.071067810058594 7.071067810058594 0
      vertex 5.555702328681946 8.314696125686169 0
    endloop
  endfacet
  facet normal 0 0 -1
    outer loop
      vertex -7.071067810058594 7.071067810058594 0
      vertex 3.8268343210220337 9.238795325160027 0
      vertex 5.555702328681946 8.314696125686169 0
    endloop
  endfacet
  facet normal 0 0 -1
    outer loop
      vertex -7.071067810058594 7.071067810058594 0
      vertex -5.555702328681946 8.314696125686169 0
      vertex 3.8268343210220337 9.238795325160027 0
    endloop
  endfacet
  facet normal 0 0 -1
    outer loop
      vertex -5.555702328681946 8.314696125686169 0
      vertex 1.9509032219648361 9.807852804660797 0
      vertex 3.8268343210220337 9.238795325160027 0
    endloop
  endfacet
  facet normal 0 0 -1
    outer loop
      vertex -5.555702328681946 8.314696125686169 0
      vertex -3.8268343210220337 9.238795325160027 0
      vertex 1.9509032219648361 9.807852804660797 0
    endloop
  endfacet
  facet normal 0 0 -1
    outer loop
      vertex -3.8268343210220337 9.238795325160027 0
      vertex 0 10 0
      vertex 1.9509032219648361 9.807852804660797 0
    endloop
  endfacet
  facet normal 0 0 -1
    outer loop
      vertex -3.8268343210220337 9.238795325160027 0
      vertex -1.9509032219648361 9.807852804660797 0
      vertex 0 10 0
    endloop
  endfacet
  facet normal 0 0 1
    outer loop
      vertex 9.75451610982418 -6.865496963262558 10
      vertex 19.13417160511017 -6.467156727612018 10
      vertex 0 -7 10
    endloop
  endfacet
  facet normal 0 0 1
    outer loop
      vertex 19.13417160511017 -6.467156727612018 10
      vertex -9.75451610982418 -6.865496963262558 10
      vertex 0 -7 10
    endloop
  endfacet
  facet normal 0 0 1
    outer loop
      vertex 19.13417160511017 -6.467156727612018 10
      vertex 27.77851164340973 -5.820287287980317 10
      vertex -9.75451610982418 -6.865496963262558 10
    endloop
  endfacet
  facet normal 0 0 1
    outer loop
      vertex 27.77851164340973 -5.820287287980317 10
      vertex -19.13417160511017 -6.467156727612018 10
      vertex -9.75451610982418 -6.865496963262558 10
    endloop
  endfacet
  facet normal 0 0 1
    outer loop
      vertex 27.77851164340973 -5.820287287980317 10
      vertex 35.35533905029297 -4.949747467041015 10
      vertex -19.13417160511017 -6.467156727612018 10
    endloop
  endfacet
  facet normal 0 0 1
    outer loop
      vertex 35.35533905029297 -4.949747467041015 10
      vertex -27.77851164340973 -5.820287287980317 10
      vertex -19.13417160511017 -6.467156727612018 10
    endloop
  endfacet
  facet normal 0 0 1
    outer loop
      vertex 35.35533905029297 -4.949747467041015 10
      vertex 41.57348062843084 -3.8889916300773617 10
      vertex -27.77851164340973 -5.820287287980317 10
    endloop
  endfacet
  facet normal 0 0 1
    outer loop
      vertex 41.57348062843084 -3.8889916300773617 10
      vertex -35.35533905029297 -4.949747467041015 10
      vertex -27.77851164340973 -5.820287287980317 10
    endloop
  endfacet
  facet normal 0 0 1
    outer loop
      vertex 41.57348062843084 -3.8889916300773617 10
      vertex 46.19397662580013 -2.6787840247154233 10
      vertex -35.35533905029297 -4.949747467041015 10
    endloop
  endfacet
  facet normal 0 0 1
    outer loop
      vertex 46.19397662580013 -2.6787840247154233 10
      vertex -41.57348062843084 -3.8889916300773617 10
      vertex -35.35533905029297 -4.949747467041015 10
    endloop
  endfacet
  facet normal 0 0 1
    outer loop
      vertex 46.19397662580013 -2.6787840247154233 10
      vertex 49.039264023303986 -1.3656322553753852 10
      vertex -41.57348062843084 -3.8889916300773617 10
    endloop
  endfacet
  facet normal 0 0 1
    outer loop
      vertex 49.039264023303986 -1.3656322553753852 10
      vertex -46.19397662580013 -2.6787840247154233 10
      vertex -41.57348062843084 -3.8889916300773617 10
    endloop
  endfacet
  facet normal 0 0 1
    outer loop
      vertex 49.039264023303986 -1.3656322553753852 10
      vertex 50 0 10
      vertex -46.19397662580013 -2.6787840247154233 10
    endloop
  endfacet
  facet normal 0 0 1
    outer loop
      vertex 50 0 10
      vertex -49.039264023303986 -1.3656322553753852 10
      vertex -46.19397662580013 -2.6787840247154233 10
    endloop
  endfacet
  facet normal 0 0 1
    outer loop
      vertex 50 0 10
      vertex 49.039264023303986 1.3656322553753852 10
      vertex -49.039264023303986 -1.3656322553753852 10
    endloop
  endfacet
  facet normal 0 0 1
    outer loop
      vertex 49.039264023303986 1.3656322553753852 10
      vertex -50 0 10
      vertex -49.039264023303986 -1.3656322553753852 10
    endloop
  endfacet
  facet normal 0 0 1
    outer loop
      vertex 49.039264023303986 1.3656322553753852 10
      vertex 46.19397662580013 2.6787840247154233 10
      vertex -50 0 10
    endloop
  endfacet
  facet normal 0 0 1
    outer loop
      vertex 46.19397662580013 2.6787840247154233 10
      vertex -49.039264023303986 1.3656322553753852 10
      vertex -50 0 10
    endloop
  endfacet
  facet normal 0 0 1
    outer loop
      vertex 46.19397662580013 2.6787840247154233 10
      vertex 41.57348062843084 3.8889916300773617 10
      vertex -49.039264023303986 1.3656322553753852 10
    endloop
  endfacet
  facet normal 0 0 1
    outer loop
      vertex 41.57348062843084 3.8889916300773617 10
      vertex -46.19397662580013 2.6787840247154233 10
      vertex -49.039264023303986 1.3656322553753852 10
    endloop
  endfacet
  facet normal 0 0 1
    outer loop
      vertex 41.57348062843084 3.8889916300773617 10
      vertex 35.35533905029297 4.949747467041015 10
      vertex -46.19397662580013 2.6787840247154233 10
    endloop
  endfacet
  facet normal 0 0 1
    outer loop
      vertex 35.35533905029297 4.949747467041015 10
      vertex -41.57348062843084 3.8889916300773617 10
      vertex -46.19397662580013 2.6787840247154233 10
    endloop
  endfacet
  facet normal 0 0 1
    outer loop
      vertex 35.35533905029297 4.949747467041015 10
      vertex 27.77851164340973 5.820287287980317 10
      vertex -41.57348062843084 3.8889916300773617 10
    endloop
  endfacet
  facet normal 0 0 1
    outer loop
      vertex 27.77851164340973 5.820287287980317 10
      vertex -35.35533905029297 4.949747467041015 10
      vertex -41.57348062843084 3.8889916300773617 10
    endloop
  endfacet
  facet normal 0 0 1
    outer loop
      vertex 27.77851164340973 5.820287287980317 10
      vertex 19.13417160511017 6.467156727612018 10
      vertex -35.35533905029297 4.949747467041015 10
    endloop
  endfacet
  facet normal 0 0 1
    outer loop
      vertex 19.13417160511017 6.467156727612018 10
      vertex -27.77851164340973 5.820287287980317 10
      vertex -35.35533905029297 4.949747467041015 10
    endloop
  endfacet
  facet normal 0 0 1
    outer loop
      vertex 19.13417160511017 6.467156727612018 10
      vertex 9.75451610982418 6.865496963262558 10
      vertex -27.77851164340973 5.820287287980317 10
    endloop
  endfacet
  facet normal 0 0 1
    outer loop
      vertex 9.75451610982418 6.865496963262558 10
      vertex -19.13417160511017 6.467156727612018 10
      vertex -27.77851164340973 5.820287287980317 10
    endloop
  endfacet
  facet normal 0 0 1
    outer loop
      vertex 9.75451610982418 6.865496963262558 10
      vertex 0 7 10
      vertex -19.13417160511017 6.467156727612018 10
    endloop
  endfacet
  facet normal 0 0 1
    outer loop
      vertex 0 7 10
      vertex -9.75451610982418 6.865496963262558 10
      vertex -19.13417160511017 6.467156727612018 10
    endloop
  endfacet
endsolid OpenSCAD_Model
