solid OpenSCAD_Model
  facet normal -0.2290393305550454 0 -0.9734171690795764
    outer loop
      vertex -7.700000002980232 -5.5 -1.0500000014901163
      vertex -6.424999997019768 -2.75 -1.349999998509884
      vertex -6.424999997019768 -5.5 -1.349999998509884
    endloop
  endfacet
  facet normal -0.2290393305550454 0 -0.9734171690795764
    outer loop
      vertex -7.700000002980232 -5.5 -1.0500000014901163
      vertex -7.700000002980232 -2.75 -1.0500000014901163
      vertex -6.424999997019768 -2.75 -1.349999998509884
    endloop
  endfacet
  facet normal -1 0 0
    outer loop
      vertex -7.700000002980232 -5.5 2.9499999985098837
      vertex -7.700000002980232 -2.75 -1.0500000014901163
      vertex -7.700000002980232 -5.5 -1.0500000014901163
    endloop
  endfacet
  facet normal -1 0 0
    outer loop
      vertex -7.700000002980232 -5.5 2.9499999985098837
      vertex -7.700000002980232 -2.75 2.9499999985098837
      vertex -7.700000002980232 -2.75 -1.0500000014901163
    endloop
  endfacet
  facet normal 0 0 1
    outer loop
      vertex 7.700000002980232 -5.5 2.9499999985098837
      vertex -7.700000002980232 -2.75 2.9499999985098837
      vertex -7.700000002980232 -5.5 2.9499999985098837
    endloop
  endfacet
  facet normal 0 0 1
    outer loop
      vertex 7.700000002980232 -5.5 2.9499999985098837
      vertex 7.700000002980232 -2.75 2.9499999985098837
      vertex -7.700000002980232 -2.75 2.9499999985098837
    endloop
  endfacet
  facet normal 1 0 0
    outer loop
      vertex 7.700000002980232 -5.5 -1.0500000014901163
      vertex 7.700000002980232 -2.75 2.9499999985098837
      vertex 7.700000002980232 -5.5 2.9499999985098837
    endloop
  endfacet
  facet normal 1 0 0
    outer loop
      vertex 7.700000002980232 -5.5 -1.0500000014901163
      vertex 7.700000002980232 -2.75 -1.0500000014901163
      vertex 7.700000002980232 -2.75 2.9499999985098837
    endloop
  endfacet
  facet normal 0.2290393305550454 0 -0.9734171690795764
    outer loop
      vertex 6.424999997019768 -5.5 -1.349999998509884
      vertex 7.700000002980232 -2.75 -1.0500000014901163
      vertex 7.700000002980232 -5.5 -1.0500000014901163
    endloop
  endfacet
  facet normal 0.2290393305550454 0 -0.9734171690795764
    outer loop
      vertex 6.424999997019768 -5.5 -1.349999998509884
      vertex 6.424999997019768 -2.75 -1.349999998509884
      vertex 7.700000002980232 -2.75 -1.0500000014901163
    endloop
  endfacet
  facet normal 0.794005556270038 0 -0.6079105004951859
    outer loop
      vertex 5.200000002980232 -5.5 -2.95
      vertex 6.424999997019768 -2.75 -1.349999998509884
      vertex 6.424999997019768 -5.5 -1.349999998509884
    endloop
  endfacet
  facet normal 0.794005556270038 0 -0.6079105004951859
    outer loop
      vertex 5.200000002980232 -5.5 -2.95
      vertex 5.200000002980232 -2.75 -2.95
      vertex 6.424999997019768 -2.75 -1.349999998509884
    endloop
  endfacet
  facet normal 0 0 -1
    outer loop
      vertex -5.200000002980232 -5.5 -2.95
      vertex 5.200000002980232 -2.75 -2.95
      vertex 5.200000002980232 -5.5 -2.95
    endloop
  endfacet
  facet normal 0 0 -1
    outer loop
      vertex -5.200000002980232 -5.5 -2.95
      vertex -5.200000002980232 -2.75 -2.95
      vertex 5.200000002980232 -2.75 -2.95
    endloop
  endfacet
  facet normal -0.794005556270038 0 -0.6079105004951859
    outer loop
      vertex -6.424999997019768 -5.5 -1.349999998509884
      vertex -5.200000002980232 -2.75 -2.95
      vertex -5.200000002980232 -5.5 -2.95
    endloop
  endfacet
  facet normal -0.794005556270038 0 -0.6079105004951859
    outer loop
      vertex -6.424999997019768 -5.5 -1.349999998509884
      vertex -6.424999997019768 -2.75 -1.349999998509884
      vertex -5.200000002980232 -2.75 -2.95
    endloop
  endfacet
  facet normal -0.2290393305550454 0 -0.9734171690795764
    outer loop
      vertex -7.700000002980232 -2.75 -1.0500000014901163
      vertex -6.424999997019768 0 -1.349999998509884
      vertex -6.424999997019768 -2.75 -1.349999998509884
    endloop
  endfacet
  facet normal -0.2290393305550454 0 -0.9734171690795764
    outer loop
      vertex -7.700000002980232 -2.75 -1.0500000014901163
      vertex -7.700000002980232 0 -1.0500000014901163
      vertex -6.424999997019768 0 -1.349999998509884
    endloop
  endfacet
  facet normal -1 0 0
    outer loop
      vertex -7.700000002980232 -2.75 2.9499999985098837
      vertex -7.700000002980232 0 -1.0500000014901163
      vertex -7.700000002980232 -2.75 -1.0500000014901163
    endloop
  endfacet
  facet normal -1 0 0
    outer loop
      vertex -7.700000002980232 -2.75 2.9499999985098837
      vertex -7.700000002980232 0 2.9499999985098837
      vertex -7.700000002980232 0 -1.0500000014901163
    endloop
  endfacet
  facet normal 0 0 1
    outer loop
      vertex 7.700000002980232 -2.75 2.9499999985098837
      vertex -7.700000002980232 0 2.9499999985098837
      vertex -7.700000002980232 -2.75 2.9499999985098837
    endloop
  endfacet
  facet normal 0 0 1
    outer loop
      vertex 7.700000002980232 -2.75 2.9499999985098837
      vertex 7.700000002980232 0 2.9499999985098837
      vertex -7.700000002980232 0 2.9499999985098837
    endloop
  endfacet
  facet normal 1 0 0
    outer loop
      vertex 7.700000002980232 -2.75 -1.0500000014901163
      vertex 7.700000002980232 0 2.9499999985098837
      vertex 7.700000002980232 -2.75 2.9499999985098837
    endloop
  endfacet
  facet normal 1 0 0
    outer loop
      vertex 7.700000002980232 -2.75 -1.0500000014901163
      vertex 7.700000002980232 0 -1.0500000014901163
      vertex 7.700000002980232 0 2.9499999985098837
    endloop
  endfacet
  facet normal 0.2290393305550454 0 -0.9734171690795764
    outer loop
      vertex 6.424999997019768 -2.75 -1.349999998509884
      vertex 7.700000002980232 0 -1.0500000014901163
      vertex 7.700000002980232 -2.75 -1.0500000014901163
    endloop
  endfacet
  facet normal 0.2290393305550454 0 -0.9734171690795764
    outer loop
      vertex 6.424999997019768 -2.75 -1.349999998509884
      vertex 6.424999997019768 0 -1.349999998509884
      vertex 7.700000002980232 0 -1.0500000014901163
    endloop
  endfacet
  facet normal 0.794005556270038 0 -0.6079105004951859
    outer loop
      vertex 5.200000002980232 -2.75 -2.95
      vertex 6.424999997019768 0 -1.349999998509884
      vertex 6.424999997019768 -2.75 -1.349999998509884
    endloop
  endfacet
  facet normal 0.794005556270038 0 -0.6079105004951859
    outer loop
      vertex 5.200000002980232 -2.75 -2.95
      vertex 5.200000002980232 0 -2.95
      vertex 6.424999997019768 0 -1.349999998509884
    endloop
  endfacet
  facet normal 0 0 -1
    outer loop
      vertex -5.200000002980232 -2.75 -2.95
      vertex 5.200000002980232 0 -2.95
      vertex 5.200000002980232 -2.75 -2.95
    endloop
  endfacet
  facet normal 0 0 -1
    outer loop
      vertex -5.200000002980232 -2.75 -2.95
      vertex -5.200000002980232 0 -2.95
      vertex 5.200000002980232 0 -2.95
    endloop
  endfacet
  facet normal -0.794005556270038 0 -0.6079105004951859
    outer loop
      vertex -6.424999997019768 -2.75 -1.349999998509884
      vertex -5.200000002980232 0 -2.95
      vertex -5.200000002980232 -2.75 -2.95
    endloop
  endfacet
  facet normal -0.794005556270038 0 -0.6079105004951859
    outer loop
      vertex -6.424999997019768 -2.75 -1.349999998509884
      vertex -6.424999997019768 0 -1.349999998509884
      vertex -5.200000002980232 0 -2.95
    endloop
  endfacet
  facet normal -0.2290393305550454 0 -0.9734171690795764
    outer loop
      vertex -7.700000002980232 0 -1.0500000014901163
      vertex -6.424999997019768 2.75 -1.349999998509884
      vertex -6.424999997019768 0 -1.349999998509884
    endloop
  endfacet
  facet normal -0.2290393305550454 0 -0.9734171690795764
    outer loop
      vertex -7.700000002980232 0 -1.0500000014901163
      vertex -7.700000002980232 2.75 -1.0500000014901163
      vertex -6.424999997019768 2.75 -1.349999998509884
    endloop
  endfacet
  facet normal -1 0 0
    outer loop
      vertex -7.700000002980232 0 2.9499999985098837
      vertex -7.700000002980232 2.75 -1.0500000014901163
      vertex -7.700000002980232 0 -1.0500000014901163
    endloop
  endfacet
  facet normal -1 0 0
    outer loop
      vertex -7.700000002980232 0 2.9499999985098837
      vertex -7.700000002980232 2.75 2.9499999985098837
      vertex -7.700000002980232 2.75 -1.0500000014901163
    endloop
  endfacet
  facet normal 0 0 1
    outer loop
      vertex 7.700000002980232 0 2.9499999985098837
      vertex -7.700000002980232 2.75 2.9499999985098837
      vertex -7.700000002980232 0 2.9499999985098837
    endloop
  endfacet
  facet normal 0 0 1
    outer loop
      vertex 7.700000002980232 0 2.9499999985098837
      vertex 7.700000002980232 2.75 2.9499999985098837
      vertex -7.700000002980232 2.75 2.9499999985098837
    endloop
  endfacet
  facet normal 1 0 0
    outer loop
      vertex 7.700000002980232 0 -1.0500000014901163
      vertex 7.700000002980232 2.75 2.9499999985098837
      vertex 7.700000002980232 0 2.9499999985098837
    endloop
  endfacet
  facet normal 1 0 0
    outer loop
      vertex 7.700000002980232 0 -1.0500000014901163
      vertex 7.700000002980232 2.75 -1.0500000014901163
      vertex 7.700000002980232 2.75 2.9499999985098837
    endloop
  endfacet
  facet normal 0.2290393305550454 0 -0.9734171690795764
    outer loop
      vertex 6.424999997019768 0 -1.349999998509884
      vertex 7.700000002980232 2.75 -1.0500000014901163
      vertex 7.700000002980232 0 -1.0500000014901163
    endloop
  endfacet
  facet normal 0.2290393305550454 0 -0.9734171690795764
    outer loop
      vertex 6.424999997019768 0 -1.349999998509884
      vertex 6.424999997019768 2.75 -1.349999998509884
      vertex 7.700000002980232 2.75 -1.0500000014901163
    endloop
  endfacet
  facet normal 0.794005556270038 0 -0.6079105004951859
    outer loop
      vertex 5.200000002980232 0 -2.95
      vertex 6.424999997019768 2.75 -1.349999998509884
      vertex 6.424999997019768 0 -1.349999998509884
    endloop
  endfacet
  facet normal 0.794005556270038 0 -0.6079105004951859
    outer loop
      vertex 5.200000002980232 0 -2.95
      vertex 5.200000002980232 2.75 -2.95
      vertex 6.424999997019768 2.75 -1.349999998509884
    endloop
  endfacet
  facet normal 0 0 -1
    outer loop
      vertex -5.200000002980232 0 -2.95
      vertex 5.200000002980232 2.75 -2.95
      vertex 5.200000002980232 0 -2.95
    endloop
  endfacet
  facet normal 0 0 -1
    outer loop
      vertex -5.200000002980232 0 -2.95
      vertex -5.200000002980232 2.75 -2.95
      vertex 5.200000002980232 2.75 -2.95
    endloop
  endfacet
  facet normal -0.794005556270038 0 -0.6079105004951859
    outer loop
      vertex -6.424999997019768 0 -1.349999998509884
      vertex -5.200000002980232 2.75 -2.95
      vertex -5.200000002980232 0 -2.95
    endloop
  endfacet
  facet normal -0.794005556270038 0 -0.6079105004951859
    outer loop
      vertex -6.424999997019768 0 -1.349999998509884
      vertex -6.424999997019768 2.75 -1.349999998509884
      vertex -5.200000002980232 2.75 -2.95
    endloop
  endfacet
  facet normal -0.2290393305550454 0 -0.9734171690795764
    outer loop
      vertex -7.700000002980232 2.75 -1.0500000014901163
      vertex -6.424999997019768 5.5 -1.349999998509884
      vertex -6.424999997019768 2.75 -1.349999998509884
    endloop
  endfacet
  facet normal -0.2290393305550454 0 -0.9734171690795764
    outer loop
      vertex -7.700000002980232 2.75 -1.0500000014901163
      vertex -7.700000002980232 5.5 -1.0500000014901163
      vertex -6.424999997019768 5.5 -1.349999998509884
    endloop
  endfacet
  facet normal -1 0 0
    outer loop
      vertex -7.700000002980232 2.75 2.9499999985098837
      vertex -7.700000002980232 5.5 -1.0500000014901163
      vertex -7.700000002980232 2.75 -1.0500000014901163
    endloop
  endfacet
  facet normal -1 0 0
    outer loop
      vertex -7.700000002980232 2.75 2.9499999985098837
      vertex -7.700000002980232 5.5 2.9499999985098837
      vertex -7.700000002980232 5.5 -1.0500000014901163
    endloop
  endfacet
  facet normal 0 0 1
    outer loop
      vertex 7.700000002980232 2.75 2.9499999985098837
      vertex -7.700000002980232 5.5 2.9499999985098837
      vertex -7.700000002980232 2.75 2.9499999985098837
    endloop
  endfacet
  facet normal 0 0 1
    outer loop
      vertex 7.700000002980232 2.75 2.9499999985098837
      vertex 7.700000002980232 5.5 2.9499999985098837
      vertex -7.700000002980232 5.5 2.9499999985098837
    endloop
  endfacet
  facet normal 1 0 0
    outer loop
      vertex 7.700000002980232 2.75 -1.0500000014901163
      vertex 7.700000002980232 5.5 2.9499999985098837
      vertex 7.700000002980232 2.75 2.9499999985098837
    endloop
  endfacet
  facet normal 1 0 0
    outer loop
      vertex 7.700000002980232 2.75 -1.0500000014901163
      vertex 7.700000002980232 5.5 -1.0500000014901163
      vertex 7.700000002980232 5.5 2.9499999985098837
    endloop
  endfacet
  facet normal 0.2290393305550454 0 -0.9734171690795764
    outer loop
      vertex 6.424999997019768 2.75 -1.349999998509884
      vertex 7.700000002980232 5.5 -1.0500000014901163
      vertex 7.700000002980232 2.75 -1.0500000014901163
    endloop
  endfacet
  facet normal 0.2290393305550454 0 -0.9734171690795764
    outer loop
      vertex 6.424999997019768 2.75 -1.349999998509884
      vertex 6.424999997019768 5.5 -1.349999998509884
      vertex 7.700000002980232 5.5 -1.0500000014901163
    endloop
  endfacet
  facet normal 0.794005556270038 0 -0.6079105004951859
    outer loop
      vertex 5.200000002980232 2.75 -2.95
      vertex 6.424999997019768 5.5 -1.349999998509884
      vertex 6.424999997019768 2.75 -1.349999998509884
    endloop
  endfacet
  facet normal 0.794005556270038 0 -0.6079105004951859
    outer loop
      vertex 5.200000002980232 2.75 -2.95
      vertex 5.200000002980232 5.5 -2.95
      vertex 6.424999997019768 5.5 -1.349999998509884
    endloop
  endfacet
  facet normal 0 0 -1
    outer loop
      vertex -5.200000002980232 2.75 -2.95
      vertex 5.200000002980232 5.5 -2.95
      vertex 5.200000002980232 2.75 -2.95
    endloop
  endfacet
  facet normal 0 0 -1
    outer loop
      vertex -5.200000002980232 2.75 -2.95
      vertex -5.200000002980232 5.5 -2.95
      vertex 5.200000002980232 5.5 -2.95
    endloop
  endfacet
  facet normal -0.794005556270038 0 -0.6079105004951859
    outer loop
      vertex -6.424999997019768 2.75 -1.349999998509884
      vertex -5.200000002980232 5.5 -2.95
      vertex -5.200000002980232 2.75 -2.95
    endloop
  endfacet
  facet normal -0.794005556270038 0 -0.6079105004951859
    outer loop
      vertex -6.424999997019768 2.75 -1.349999998509884
      vertex -6.424999997019768 5.5 -1.349999998509884
      vertex -5.200000002980232 5.5 -2.95
    endloop
  endfacet
  facet normal 0 -1 0
    outer loop
      vertex -7.700000002980232 -5.5 2.9499999985098837
      vertex -7.700000002980232 -5.5 -1.0500000014901163
      vertex -6.424999997019768 -5.5 -1.349999998509884
    endloop
  endfacet
  facet normal 0 -1 0
    outer loop
      vertex 6.424999997019768 -5.5 -1.349999998509884
      vertex 7.700000002980232 -5.5 -1.0500000014901163
      vertex 7.700000002980232 -5.5 2.9499999985098837
    endloop
  endfacet
  facet normal 0 -1 0
    outer loop
      vertex 7.700000002980232 -5.5 2.9499999985098837
      vertex -7.700000002980232 -5.5 2.9499999985098837
      vertex -6.424999997019768 -5.5 -1.349999998509884
    endloop
  endfacet
  facet normal 0 -1 0
    outer loop
      vertex 6.424999997019768 -5.5 -1.349999998509884
      vertex 7.700000002980232 -5.5 2.9499999985098837
      vertex -6.424999997019768 -5.5 -1.349999998509884
    endloop
  endfacet
  facet normal 0 -1 0
    outer loop
      vertex 6.424999997019768 -5.5 -1.349999998509884
      vertex -6.424999997019768 -5.5 -1.349999998509884
      vertex -5.200000002980232 -5.5 -2.95
    endloop
  endfacet
  facet normal 0 -1 0
    outer loop
      vertex 6.424999997019768 -5.5 -1.349999998509884
      vertex -5.200000002980232 -5.5 -2.95
      vertex 5.200000002980232 -5.5 -2.95
    endloop
  endfacet
  facet normal 0 1 0
    outer loop
      vertex -6.424999997019768 5.5 -1.349999998509884
      vertex -7.700000002980232 5.5 -1.0500000014901163
      vertex -7.700000002980232 5.5 2.9499999985098837
    endloop
  endfacet
  facet normal 0 1 0
    outer loop
      vertex 7.700000002980232 5.5 2.9499999985098837
      vertex 7.700000002980232 5.5 -1.0500000014901163
      vertex 6.424999997019768 5.5 -1.349999998509884
    endloop
  endfacet
  facet normal 0 1 0
    outer loop
      vertex -6.424999997019768 5.5 -1.349999998509884
      vertex -7.700000002980232 5.5 2.9499999985098837
      vertex 7.700000002980232 5.5 2.9499999985098837
    endloop
  endfacet
  facet normal 0 1 0
    outer loop
      vertex -6.424999997019768 5.5 -1.349999998509884
      vertex 7.700000002980232 5.5 2.9499999985098837
      vertex 6.424999997019768 5.5 -1.349999998509884
    endloop
  endfacet
  facet normal 0 1 0
    outer loop
      vertex -5.200000002980232 5.5 -2.95
      vertex -6.424999997019768 5.5 -1.349999998509884
      vertex 6.424999997019768 5.5 -1.349999998509884
    endloop
  endfacet
  facet normal 0 1 0
    outer loop
      vertex 5.200000002980232 5.5 -2.95
      vertex -5.200000002980232 5.5 -2.95
      vertex 6.424999997019768 5.5 -1.349999998509884
    endloop
  endfacet
endsolid OpenSCAD_Model
