<?xml version="1.0" encoding="UTF-8" standalone="no"?>
<!DOCTYPE svg PUBLIC "-//W3C//DTD SVG 1.1//EN"
 "http://www.w3.org/Graphics/SVG/1.1/DTD/svg11.dtd">
<!-- Generated by graphviz version 5.0.0 (20220707.1540)
 -->
<!-- Title: default Pages: 1 -->
<svg width="261pt" height="98pt"
 viewBox="0.00 0.00 261.39 98.00" xmlns="http://www.w3.org/2000/svg" xmlns:xlink="http://www.w3.org/1999/xlink">
<g id="graph0" class="graph" transform="scale(1 1) rotate(0) translate(4 94)">
<title>default</title>
<polygon fill="white" stroke="transparent" points="-4,4 -4,-94 257.39,-94 257.39,4 -4,4"/>
<!-- root_1 -->
<g id="node1" class="node">
<title>root_1</title>
<g id="a_node1"><a xlink:href="javascript:s=&quot;\(\)\nNone&quot;; console.log(s); alert(s);" xlink:title="root">
<ellipse fill="none" stroke="black" cx="27" cy="-45" rx="27" ry="18"/>
<text text-anchor="middle" x="27" y="-41.3" font-family="Times New Roman,serif" font-size="14.00">root</text>
</a>
</g>
</g>
<!-- default_2 -->
<g id="node2" class="node">
<title>default_2</title>
<g id="a_node2"><a xlink:href="javascript:s=&quot;\(&#x27;default&#x27;,\)\nHdmiOutline&quot;; console.log(s); alert(s);" xlink:title="HdmiOutline">
<ellipse fill="none" stroke="black" cx="125.1" cy="-45" rx="35.19" ry="18"/>
<text text-anchor="middle" x="125.1" y="-41.3" font-family="Times New Roman,serif" font-size="14.00">default</text>
</a>
</g>
</g>
<!-- root_1&#45;&gt;default_2 -->
<g id="edge1" class="edge">
<title>root_1&#45;&gt;default_2</title>
<path fill="none" stroke="black" d="M54.01,-45C61.92,-45 70.84,-45 79.61,-45"/>
<polygon fill="black" stroke="black" points="79.76,-48.5 89.76,-45 79.76,-41.5 79.76,-48.5"/>
</g>
<!-- cage_3 -->
<g id="node3" class="node">
<title>cage_3</title>
<g id="a_node3"><a xlink:href="javascript:s=&quot;\(&#x27;default&#x27;,\ &#x27;cage&#x27;\)\nBox&quot;; console.log(s); alert(s);" xlink:title="Box">
<ellipse fill="none" stroke="black" cx="224.79" cy="-72" rx="27.1" ry="18"/>
<text text-anchor="middle" x="224.79" y="-68.3" font-family="Times New Roman,serif" font-size="14.00">cage</text>
</a>
</g>
</g>
<!-- default_2&#45;&gt;cage_3 -->
<g id="edge2" class="edge">
<title>default_2&#45;&gt;cage_3</title>
<path fill="none" stroke="black" d="M156.47,-53.39C166.91,-56.28 178.68,-59.53 189.41,-62.5"/>
<polygon fill="black" stroke="black" points="188.75,-65.95 199.32,-65.24 190.61,-59.2 188.75,-65.95"/>
</g>
<!-- hdmi_4 -->
<g id="node4" class="node">
<title>hdmi_4</title>
<g id="a_node4"><a xlink:href="javascript:s=&quot;\(&#x27;default&#x27;,\ &#x27;hdmi&#x27;\)\nLinearExtrude&quot;; console.log(s); alert(s);" xlink:title="LinearExtrude">
<ellipse fill="none" stroke="black" cx="224.79" cy="-18" rx="28.7" ry="18"/>
<text text-anchor="middle" x="224.79" y="-14.3" font-family="Times New Roman,serif" font-size="14.00">hdmi</text>
</a>
</g>
</g>
<!-- default_2&#45;&gt;hdmi_4 -->
<g id="edge3" class="edge">
<title>default_2&#45;&gt;hdmi_4</title>
<path fill="none" stroke="black" d="M156.47,-36.61C166.66,-33.79 178.1,-30.63 188.63,-27.72"/>
<polygon fill="black" stroke="black" points="189.66,-31.07 198.36,-25.03 187.79,-24.32 189.66,-31.07"/>
</g>
</g>
</svg>
