solid OpenSCAD_Model
  facet normal 0 -1 0
    outer loop
      vertex 0 0 0
      vertex 4.499999997019767 0 2
      vertex 3.2750000029802315 0 3.600000001490116
    endloop
  endfacet
  facet normal 0 -1 0
    outer loop
      vertex 0 0 0
      vertex 3.2750000029802315 0 3.600000001490116
      vertex 1.999999997019767 0 3.899999998509884
    endloop
  endfacet
  facet normal 0 -1 0
    outer loop
      vertex 0 0 0
      vertex 1.999999997019767 0 3.899999998509884
      vertex 0 0 9.9
    endloop
  endfacet
  facet normal 0 -1 0
    outer loop
      vertex 0 0 0
      vertex 19.4 0 0
      vertex 4.499999997019767 0 2
    endloop
  endfacet
  facet normal 0 -1 0
    outer loop
      vertex 0 0 9.9
      vertex 1.999999997019767 0 3.899999998509884
      vertex 1.999999997019767 0 7.899999998509884
    endloop
  endfacet
  facet normal -1 0 0
    outer loop
      vertex 0 0 0
      vertex 0 0 9.9
      vertex 0 3.6666666666666665 9.9
    endloop
  endfacet
  facet normal 0 -1 0
    outer loop
      vertex 0 0 9.9
      vertex 1.999999997019767 0 7.899999998509884
      vertex 17.40000000298023 0 7.899999998509884
    endloop
  endfacet
  facet normal 0 0 1
    outer loop
      vertex 0 0 9.9
      vertex 19.4 0 9.9
      vertex 0 3.6666666666666665 9.9
    endloop
  endfacet
  facet normal -1 0 0
    outer loop
      vertex 0 0 0
      vertex 0 3.6666666666666665 9.9
      vertex 0 3.6666666666666665 0
    endloop
  endfacet
  facet normal 0 1 0
    outer loop
      vertex 0 3.6666666666666665 0
      vertex 3.2750000029802315 3.6666666666666665 3.600000001490116
      vertex 4.499999997019767 3.6666666666666665 2
    endloop
  endfacet
  facet normal 0 1 0
    outer loop
      vertex 0 3.6666666666666665 0
      vertex 1.999999997019767 3.6666666666666665 3.899999998509884
      vertex 3.2750000029802315 3.6666666666666665 3.600000001490116
    endloop
  endfacet
  facet normal 0 1 0
    outer loop
      vertex 0 3.6666666666666665 0
      vertex 0 3.6666666666666665 9.9
      vertex 1.999999997019767 3.6666666666666665 3.899999998509884
    endloop
  endfacet
  facet normal 0 0 -1
    outer loop
      vertex 0 0 0
      vertex 0 3.6666666666666665 0
      vertex 19.4 3.6666666666666665 0
    endloop
  endfacet
  facet normal 0 1 0
    outer loop
      vertex 0 3.6666666666666665 0
      vertex 4.499999997019767 3.6666666666666665 2
      vertex 14.900000002980232 3.6666666666666665 2
    endloop
  endfacet
  facet normal 0 1 0
    outer loop
      vertex 0 3.6666666666666665 9.9
      vertex 1.999999997019767 3.6666666666666665 7.899999998509884
      vertex 1.999999997019767 3.6666666666666665 3.899999998509884
    endloop
  endfacet
  facet normal 0 1 0
    outer loop
      vertex 0 3.6666666666666665 9.9
      vertex 19.4 3.6666666666666665 9.9
      vertex 1.999999997019767 3.6666666666666665 7.899999998509884
    endloop
  endfacet
  facet normal 0 -1 0
    outer loop
      vertex 19.4 0 0
      vertex 14.900000002980232 0 2
      vertex 4.499999997019767 0 2
    endloop
  endfacet
  facet normal 0 0 -1
    outer loop
      vertex 0 0 0
      vertex 19.4 3.6666666666666665 0
      vertex 19.4 0 0
    endloop
  endfacet
  facet normal 0 -1 0
    outer loop
      vertex 19.4 0 0
      vertex 16.124999997019767 0 3.600000001490116
      vertex 14.900000002980232 0 2
    endloop
  endfacet
  facet normal 0 -1 0
    outer loop
      vertex 19.4 0 0
      vertex 17.40000000298023 0 3.899999998509884
      vertex 16.124999997019767 0 3.600000001490116
    endloop
  endfacet
  facet normal 0 -1 0
    outer loop
      vertex 19.4 0 0
      vertex 19.4 0 9.9
      vertex 17.40000000298023 0 3.899999998509884
    endloop
  endfacet
  facet normal 1 0 0
    outer loop
      vertex 19.4 0 0
      vertex 19.4 3.6666666666666665 0
      vertex 19.4 0 9.9
    endloop
  endfacet
  facet normal 0 -1 0
    outer loop
      vertex 0 0 9.9
      vertex 17.40000000298023 0 7.899999998509884
      vertex 19.4 0 9.9
    endloop
  endfacet
  facet normal 0 -1 0
    outer loop
      vertex 19.4 0 9.9
      vertex 17.40000000298023 0 7.899999998509884
      vertex 17.40000000298023 0 3.899999998509884
    endloop
  endfacet
  facet normal 0 1 0
    outer loop
      vertex 0 3.6666666666666665 0
      vertex 14.900000002980232 3.6666666666666665 2
      vertex 19.4 3.6666666666666665 0
    endloop
  endfacet
  facet normal 0 1 0
    outer loop
      vertex 19.4 3.6666666666666665 0
      vertex 14.900000002980232 3.6666666666666665 2
      vertex 16.124999997019767 3.6666666666666665 3.600000001490116
    endloop
  endfacet
  facet normal 0 1 0
    outer loop
      vertex 19.4 3.6666666666666665 0
      vertex 16.124999997019767 3.6666666666666665 3.600000001490116
      vertex 17.40000000298023 3.6666666666666665 3.899999998509884
    endloop
  endfacet
  facet normal 0 1 0
    outer loop
      vertex 19.4 3.6666666666666665 0
      vertex 17.40000000298023 3.6666666666666665 3.899999998509884
      vertex 19.4 3.6666666666666665 9.9
    endloop
  endfacet
  facet normal 0 0 1
    outer loop
      vertex 0 3.6666666666666665 9.9
      vertex 19.4 0 9.9
      vertex 19.4 3.6666666666666665 9.9
    endloop
  endfacet
  facet normal 0 1 0
    outer loop
      vertex 19.4 3.6666666666666665 9.9
      vertex 17.40000000298023 3.6666666666666665 7.899999998509884
      vertex 1.999999997019767 3.6666666666666665 7.899999998509884
    endloop
  endfacet
  facet normal 1 0 0
    outer loop
      vertex 19.4 0 9.9
      vertex 19.4 3.6666666666666665 0
      vertex 19.4 3.6666666666666665 9.9
    endloop
  endfacet
  facet normal 0 1 0
    outer loop
      vertex 19.4 3.6666666666666665 9.9
      vertex 17.40000000298023 3.6666666666666665 3.899999998509884
      vertex 17.40000000298023 3.6666666666666665 7.899999998509884
    endloop
  endfacet
  facet normal 0.2290393305550454 0 0.9734171690795764
    outer loop
      vertex 3.2750000029802315 1.8333333333333333 3.600000001490116
      vertex 1.999999997019767 0 3.899999998509884
      vertex 3.2750000029802315 0 3.600000001490116
    endloop
  endfacet
  facet normal 0.7940055562700381 0 0.6079105004951859
    outer loop
      vertex 4.499999997019767 1.8333333333333333 2
      vertex 3.2750000029802315 0 3.600000001490116
      vertex 4.499999997019767 0 2
    endloop
  endfacet
  facet normal 0.2290393305550454 0 0.9734171690795764
    outer loop
      vertex 1.999999997019767 1.8333333333333333 3.899999998509884
      vertex 1.999999997019767 0 3.899999998509884
      vertex 3.2750000029802315 1.8333333333333333 3.600000001490116
    endloop
  endfacet
  facet normal 0.7940055562700381 0 0.6079105004951859
    outer loop
      vertex 4.499999997019767 1.8333333333333333 2
      vertex 3.2750000029802315 1.8333333333333333 3.600000001490116
      vertex 3.2750000029802315 0 3.600000001490116
    endloop
  endfacet
  facet normal 0 0 1
    outer loop
      vertex 4.499999997019767 1.8333333333333333 2
      vertex 4.499999997019767 0 2
      vertex 14.900000002980232 1.8333333333333333 2
    endloop
  endfacet
  facet normal 1 0 0
    outer loop
      vertex 1.999999997019767 1.8333333333333333 3.899999998509884
      vertex 1.999999997019767 0 7.899999998509884
      vertex 1.999999997019767 0 3.899999998509884
    endloop
  endfacet
  facet normal 1 0 0
    outer loop
      vertex 1.999999997019767 1.8333333333333333 3.899999998509884
      vertex 1.999999997019767 1.8333333333333333 7.899999998509884
      vertex 1.999999997019767 0 7.899999998509884
    endloop
  endfacet
  facet normal 0 0 -1
    outer loop
      vertex 1.999999997019767 1.8333333333333333 7.899999998509884
      vertex 17.40000000298023 0 7.899999998509884
      vertex 1.999999997019767 0 7.899999998509884
    endloop
  endfacet
  facet normal 0.2290393305550454 0 0.9734171690795764
    outer loop
      vertex 1.999999997019767 1.8333333333333333 3.899999998509884
      vertex 3.2750000029802315 1.8333333333333333 3.600000001490116
      vertex 3.2750000029802315 3.6666666666666665 3.600000001490116
    endloop
  endfacet
  facet normal 0.7940055562700381 0 0.6079105004951859
    outer loop
      vertex 4.499999997019767 1.8333333333333333 2
      vertex 4.499999997019767 3.6666666666666665 2
      vertex 3.2750000029802315 1.8333333333333333 3.600000001490116
    endloop
  endfacet
  facet normal 0.2290393305550454 0 0.9734171690795764
    outer loop
      vertex 1.999999997019767 1.8333333333333333 3.899999998509884
      vertex 3.2750000029802315 3.6666666666666665 3.600000001490116
      vertex 1.999999997019767 3.6666666666666665 3.899999998509884
    endloop
  endfacet
  facet normal 0.7940055562700381 0 0.6079105004951859
    outer loop
      vertex 3.2750000029802315 1.8333333333333333 3.600000001490116
      vertex 4.499999997019767 3.6666666666666665 2
      vertex 3.2750000029802315 3.6666666666666665 3.600000001490116
    endloop
  endfacet
  facet normal 0 0 1
    outer loop
      vertex 4.499999997019767 1.8333333333333333 2
      vertex 14.900000002980232 3.6666666666666665 2
      vertex 4.499999997019767 3.6666666666666665 2
    endloop
  endfacet
  facet normal 1 0 0
    outer loop
      vertex 1.999999997019767 1.8333333333333333 3.899999998509884
      vertex 1.999999997019767 3.6666666666666665 3.899999998509884
      vertex 1.999999997019767 1.8333333333333333 7.899999998509884
    endloop
  endfacet
  facet normal 1 0 0
    outer loop
      vertex 1.999999997019767 1.8333333333333333 7.899999998509884
      vertex 1.999999997019767 3.6666666666666665 3.899999998509884
      vertex 1.999999997019767 3.6666666666666665 7.899999998509884
    endloop
  endfacet
  facet normal 0 0 -1
    outer loop
      vertex 1.999999997019767 1.8333333333333333 7.899999998509884
      vertex 1.999999997019767 3.6666666666666665 7.899999998509884
      vertex 17.40000000298023 1.8333333333333333 7.899999998509884
    endloop
  endfacet
  facet normal 0 0 1
    outer loop
      vertex 14.900000002980232 1.8333333333333333 2
      vertex 4.499999997019767 0 2
      vertex 14.900000002980232 0 2
    endloop
  endfacet
  facet normal -0.7940055562700381 0 0.6079105004951859
    outer loop
      vertex 16.124999997019767 1.8333333333333333 3.600000001490116
      vertex 14.900000002980232 0 2
      vertex 16.124999997019767 0 3.600000001490116
    endloop
  endfacet
  facet normal -0.2290393305550454 0 0.9734171690795764
    outer loop
      vertex 17.40000000298023 1.8333333333333333 3.899999998509884
      vertex 16.124999997019767 0 3.600000001490116
      vertex 17.40000000298023 0 3.899999998509884
    endloop
  endfacet
  facet normal -0.7940055562700381 0 0.6079105004951859
    outer loop
      vertex 14.900000002980232 1.8333333333333333 2
      vertex 14.900000002980232 0 2
      vertex 16.124999997019767 1.8333333333333333 3.600000001490116
    endloop
  endfacet
  facet normal -0.2290393305550454 0 0.9734171690795764
    outer loop
      vertex 16.124999997019767 1.8333333333333333 3.600000001490116
      vertex 16.124999997019767 0 3.600000001490116
      vertex 17.40000000298023 1.8333333333333333 3.899999998509884
    endloop
  endfacet
  facet normal 0 0 -1
    outer loop
      vertex 1.999999997019767 1.8333333333333333 7.899999998509884
      vertex 17.40000000298023 1.8333333333333333 7.899999998509884
      vertex 17.40000000298023 0 7.899999998509884
    endloop
  endfacet
  facet normal -1 0 0
    outer loop
      vertex 17.40000000298023 1.8333333333333333 7.899999998509884
      vertex 17.40000000298023 0 3.899999998509884
      vertex 17.40000000298023 0 7.899999998509884
    endloop
  endfacet
  facet normal -1 0 0
    outer loop
      vertex 17.40000000298023 1.8333333333333333 3.899999998509884
      vertex 17.40000000298023 0 3.899999998509884
      vertex 17.40000000298023 1.8333333333333333 7.899999998509884
    endloop
  endfacet
  facet normal 0 0 1
    outer loop
      vertex 4.499999997019767 1.8333333333333333 2
      vertex 14.900000002980232 1.8333333333333333 2
      vertex 14.900000002980232 3.6666666666666665 2
    endloop
  endfacet
  facet normal -0.7940055562700381 0 0.6079105004951859
    outer loop
      vertex 14.900000002980232 1.8333333333333333 2
      vertex 16.124999997019767 1.8333333333333333 3.600000001490116
      vertex 16.124999997019767 3.6666666666666665 3.600000001490116
    endloop
  endfacet
  facet normal -0.2290393305550454 0 0.9734171690795764
    outer loop
      vertex 16.124999997019767 1.8333333333333333 3.600000001490116
      vertex 17.40000000298023 1.8333333333333333 3.899999998509884
      vertex 17.40000000298023 3.6666666666666665 3.899999998509884
    endloop
  endfacet
  facet normal -0.7940055562700381 0 0.6079105004951859
    outer loop
      vertex 14.900000002980232 1.8333333333333333 2
      vertex 16.124999997019767 3.6666666666666665 3.600000001490116
      vertex 14.900000002980232 3.6666666666666665 2
    endloop
  endfacet
  facet normal -0.2290393305550454 0 0.9734171690795764
    outer loop
      vertex 16.124999997019767 1.8333333333333333 3.600000001490116
      vertex 17.40000000298023 3.6666666666666665 3.899999998509884
      vertex 16.124999997019767 3.6666666666666665 3.600000001490116
    endloop
  endfacet
  facet normal 0 0 -1
    outer loop
      vertex 17.40000000298023 1.8333333333333333 7.899999998509884
      vertex 1.999999997019767 3.6666666666666665 7.899999998509884
      vertex 17.40000000298023 3.6666666666666665 7.899999998509884
    endloop
  endfacet
  facet normal -1 0 0
    outer loop
      vertex 17.40000000298023 1.8333333333333333 3.899999998509884
      vertex 17.40000000298023 1.8333333333333333 7.899999998509884
      vertex 17.40000000298023 3.6666666666666665 7.899999998509884
    endloop
  endfacet
  facet normal -1 0 0
    outer loop
      vertex 17.40000000298023 1.8333333333333333 3.899999998509884
      vertex 17.40000000298023 3.6666666666666665 7.899999998509884
      vertex 17.40000000298023 3.6666666666666665 3.899999998509884
    endloop
  endfacet
endsolid OpenSCAD_Model
