<?xml version="1.0" encoding="UTF-8" standalone="no"?>
<!DOCTYPE svg PUBLIC "-//W3C//DTD SVG 1.1//EN"
 "http://www.w3.org/Graphics/SVG/1.1/DTD/svg11.dtd">
<!-- Generated by graphviz version 5.0.0 (20220707.1540)
 -->
<!-- Title: default Pages: 1 -->
<svg width="366pt" height="125pt"
 viewBox="0.00 0.00 366.28 125.00" xmlns="http://www.w3.org/2000/svg" xmlns:xlink="http://www.w3.org/1999/xlink">
<g id="graph0" class="graph" transform="scale(1 1) rotate(0) translate(4 121)">
<title>default</title>
<polygon fill="white" stroke="transparent" points="-4,4 -4,-121 362.28,-121 362.28,4 -4,4"/>
<!-- root_5 -->
<g id="node1" class="node">
<title>root_5</title>
<g id="a_node1"><a xlink:href="javascript:s=&quot;\(\)\nNone&quot;; console.log(s); alert(s);" xlink:title="root">
<ellipse fill="none" stroke="black" cx="27" cy="-72" rx="27" ry="18"/>
<text text-anchor="middle" x="27" y="-68.3" font-family="Times New Roman,serif" font-size="14.00">root</text>
</a>
</g>
</g>
<!-- default_6 -->
<g id="node2" class="node">
<title>default_6</title>
<g id="a_node2"><a xlink:href="javascript:s=&quot;\(&#x27;default&#x27;,\)\nHdmiOutlineTest&quot;; console.log(s); alert(s);" xlink:title="HdmiOutlineTest">
<ellipse fill="none" stroke="black" cx="125.1" cy="-72" rx="35.19" ry="18"/>
<text text-anchor="middle" x="125.1" y="-68.3" font-family="Times New Roman,serif" font-size="14.00">default</text>
</a>
</g>
</g>
<!-- root_5&#45;&gt;default_6 -->
<g id="edge1" class="edge">
<title>root_5&#45;&gt;default_6</title>
<path fill="none" stroke="black" d="M54.01,-72C61.92,-72 70.84,-72 79.61,-72"/>
<polygon fill="black" stroke="black" points="79.76,-75.5 89.76,-72 79.76,-68.5 79.76,-75.5"/>
</g>
<!-- test_7 -->
<g id="node3" class="node">
<title>test_7</title>
<g id="a_node3"><a xlink:href="javascript:s=&quot;\(&#x27;default&#x27;,\ &#x27;test&#x27;\)\nBox&quot;; console.log(s); alert(s);" xlink:title="Box">
<ellipse fill="none" stroke="black" cx="230.64" cy="-99" rx="27" ry="18"/>
<text text-anchor="middle" x="230.64" y="-95.3" font-family="Times New Roman,serif" font-size="14.00">test</text>
</a>
</g>
</g>
<!-- default_6&#45;&gt;test_7 -->
<g id="edge2" class="edge">
<title>default_6&#45;&gt;test_7</title>
<path fill="none" stroke="black" d="M156.6,-79.95C168.84,-83.15 183,-86.84 195.57,-90.12"/>
<polygon fill="black" stroke="black" points="194.69,-93.5 205.25,-92.64 196.46,-86.73 194.69,-93.5"/>
</g>
<!-- outline_8 -->
<g id="node4" class="node">
<title>outline_8</title>
<g id="a_node4"><a xlink:href="javascript:s=&quot;\(&#x27;default&#x27;,\ &#x27;outline&#x27;\)\nHdmiOutline&quot;; console.log(s); alert(s);" xlink:title="HdmiOutline">
<ellipse fill="none" stroke="black" cx="230.64" cy="-45" rx="34.39" ry="18"/>
<text text-anchor="middle" x="230.64" y="-41.3" font-family="Times New Roman,serif" font-size="14.00">outline</text>
</a>
</g>
</g>
<!-- default_6&#45;&gt;outline_8 -->
<g id="edge3" class="edge">
<title>default_6&#45;&gt;outline_8</title>
<path fill="none" stroke="black" d="M156.6,-64.05C166.93,-61.35 178.61,-58.31 189.56,-55.45"/>
<polygon fill="black" stroke="black" points="190.56,-58.81 199.35,-52.9 188.79,-52.03 190.56,-58.81"/>
</g>
<!-- cage_9 -->
<g id="node5" class="node">
<title>cage_9</title>
<g id="a_node5"><a xlink:href="javascript:s=&quot;\(&#x27;default&#x27;,\ &#x27;outline&#x27;,\ &#x27;cage&#x27;\)\nBox&quot;; console.log(s); alert(s);" xlink:title="Box">
<ellipse fill="none" stroke="black" cx="329.69" cy="-72" rx="27.1" ry="18"/>
<text text-anchor="middle" x="329.69" y="-68.3" font-family="Times New Roman,serif" font-size="14.00">cage</text>
</a>
</g>
</g>
<!-- outline_8&#45;&gt;cage_9 -->
<g id="edge4" class="edge">
<title>outline_8&#45;&gt;cage_9</title>
<path fill="none" stroke="black" d="M261.28,-53.25C271.68,-56.14 283.44,-59.41 294.19,-62.4"/>
<polygon fill="black" stroke="black" points="293.54,-65.86 304.11,-65.16 295.42,-59.11 293.54,-65.86"/>
</g>
<!-- hdmi_10 -->
<g id="node6" class="node">
<title>hdmi_10</title>
<g id="a_node6"><a xlink:href="javascript:s=&quot;\(&#x27;default&#x27;,\ &#x27;outline&#x27;,\ &#x27;hdmi&#x27;\)\nLinearExtrude&quot;; console.log(s); alert(s);" xlink:title="LinearExtrude">
<ellipse fill="none" stroke="black" cx="329.69" cy="-18" rx="28.7" ry="18"/>
<text text-anchor="middle" x="329.69" y="-14.3" font-family="Times New Roman,serif" font-size="14.00">hdmi</text>
</a>
</g>
</g>
<!-- outline_8&#45;&gt;hdmi_10 -->
<g id="edge5" class="edge">
<title>outline_8&#45;&gt;hdmi_10</title>
<path fill="none" stroke="black" d="M261.28,-36.75C271.42,-33.93 282.86,-30.75 293.4,-27.82"/>
<polygon fill="black" stroke="black" points="294.46,-31.16 303.16,-25.1 292.58,-24.41 294.46,-31.16"/>
</g>
</g>
</svg>
