<?xml version="1.0" encoding="UTF-8" standalone="no"?>
<!DOCTYPE svg PUBLIC "-//W3C//DTD SVG 1.1//EN"
 "http://www.w3.org/Graphics/SVG/1.1/DTD/svg11.dtd">
<!-- Generated by graphviz version 5.0.0 (20220707.1540)
 -->
<!-- Title: 3mm Pages: 1 -->
<svg width="282pt" height="98pt"
 viewBox="0.00 0.00 282.19 98.00" xmlns="http://www.w3.org/2000/svg" xmlns:xlink="http://www.w3.org/1999/xlink">
<g id="graph0" class="graph" transform="scale(1 1) rotate(0) translate(4 94)">
<title>3mm</title>
<polygon fill="white" stroke="transparent" points="-4,4 -4,-94 278.19,-94 278.19,4 -4,4"/>
<!-- root_9 -->
<g id="node1" class="node">
<title>root_9</title>
<g id="a_node1"><a xlink:href="javascript:s=&quot;\(\)\nNone&quot;; console.log(s); alert(s);" xlink:title="root">
<ellipse fill="none" stroke="black" cx="27" cy="-45" rx="27" ry="18"/>
<text text-anchor="middle" x="27" y="-41.3" font-family="Times New Roman,serif" font-size="14.00">root</text>
</a>
</g>
</g>
<!-- 10 -->
<g id="node2" class="node">
<title>10</title>
<g id="a_node2"><a xlink:href="javascript:s=&quot;\(&#x27;3mm&#x27;,\)\nCylindricalLedBody&quot;; console.log(s); alert(s);" xlink:title="CylindricalLedBody">
<ellipse fill="none" stroke="black" cx="118.6" cy="-45" rx="28.7" ry="18"/>
<text text-anchor="middle" x="118.6" y="-41.3" font-family="Times New Roman,serif" font-size="14.00">3mm</text>
</a>
</g>
</g>
<!-- root_9&#45;&gt;10 -->
<g id="edge1" class="edge">
<title>root_9&#45;&gt;10</title>
<path fill="none" stroke="black" d="M54.4,-45C62.32,-45 71.18,-45 79.7,-45"/>
<polygon fill="black" stroke="black" points="79.83,-48.5 89.83,-45 79.83,-41.5 79.83,-48.5"/>
</g>
<!-- led_body_11 -->
<g id="node3" class="node">
<title>led_body_11</title>
<g id="a_node3"><a xlink:href="javascript:s=&quot;\(&#x27;3mm&#x27;,\ &#x27;led_body&#x27;\)\nRotateExtrude&quot;; console.log(s); alert(s);" xlink:title="RotateExtrude">
<ellipse fill="none" stroke="black" cx="228.69" cy="-72" rx="45.49" ry="18"/>
<text text-anchor="middle" x="228.69" y="-68.3" font-family="Times New Roman,serif" font-size="14.00">led_body</text>
</a>
</g>
</g>
<!-- 10&#45;&gt;led_body_11 -->
<g id="edge2" class="edge">
<title>10&#45;&gt;led_body_11</title>
<path fill="none" stroke="black" d="M145.49,-51.47C155.83,-54.05 168.09,-57.11 179.93,-60.07"/>
<polygon fill="black" stroke="black" points="179.19,-63.49 189.74,-62.52 180.88,-56.7 179.19,-63.49"/>
</g>
<!-- cutout_12 -->
<g id="node4" class="node">
<title>cutout_12</title>
<g id="a_node4"><a xlink:href="javascript:s=&quot;\(&#x27;3mm&#x27;,\ &#x27;cutout&#x27;\)\nBox&quot;; console.log(s); alert(s);" xlink:title="Box">
<ellipse fill="none" stroke="black" cx="228.69" cy="-18" rx="33.6" ry="18"/>
<text text-anchor="middle" x="228.69" y="-14.3" font-family="Times New Roman,serif" font-size="14.00">cutout</text>
</a>
</g>
</g>
<!-- 10&#45;&gt;cutout_12 -->
<g id="edge3" class="edge">
<title>10&#45;&gt;cutout_12</title>
<path fill="none" stroke="black" d="M145.49,-38.53C158.15,-35.37 173.68,-31.49 187.82,-27.96"/>
<polygon fill="black" stroke="black" points="188.95,-31.28 197.8,-25.47 187.25,-24.49 188.95,-31.28"/>
</g>
</g>
</svg>
