<?xml version="1.0" encoding="UTF-8" standalone="no"?>
<!DOCTYPE svg PUBLIC "-//W3C//DTD SVG 1.1//EN"
 "http://www.w3.org/Graphics/SVG/1.1/DTD/svg11.dtd">
<!-- Generated by graphviz version 5.0.0 (20220707.1540)
 -->
<!-- Title: default Pages: 1 -->
<svg width="295pt" height="98pt"
 viewBox="0.00 0.00 295.19 98.00" xmlns="http://www.w3.org/2000/svg" xmlns:xlink="http://www.w3.org/1999/xlink">
<g id="graph0" class="graph" transform="scale(1 1) rotate(0) translate(4 94)">
<title>default</title>
<polygon fill="white" stroke="transparent" points="-4,4 -4,-94 291.19,-94 291.19,4 -4,4"/>
<!-- root_1 -->
<g id="node1" class="node">
<title>root_1</title>
<g id="a_node1"><a xlink:href="javascript:s=&quot;\(\)\nNone&quot;; console.log(s); alert(s);" xlink:title="root">
<ellipse fill="none" stroke="black" cx="27" cy="-45" rx="27" ry="18"/>
<text text-anchor="middle" x="27" y="-41.3" font-family="Times New Roman,serif" font-size="14.00">root</text>
</a>
</g>
</g>
<!-- default_2 -->
<g id="node2" class="node">
<title>default_2</title>
<g id="a_node2"><a xlink:href="javascript:s=&quot;\(&#x27;default&#x27;,\)\nCylindricalLedBody&quot;; console.log(s); alert(s);" xlink:title="CylindricalLedBody">
<ellipse fill="none" stroke="black" cx="125.1" cy="-45" rx="35.19" ry="18"/>
<text text-anchor="middle" x="125.1" y="-41.3" font-family="Times New Roman,serif" font-size="14.00">default</text>
</a>
</g>
</g>
<!-- root_1&#45;&gt;default_2 -->
<g id="edge1" class="edge">
<title>root_1&#45;&gt;default_2</title>
<path fill="none" stroke="black" d="M54.01,-45C61.92,-45 70.84,-45 79.61,-45"/>
<polygon fill="black" stroke="black" points="79.76,-48.5 89.76,-45 79.76,-41.5 79.76,-48.5"/>
</g>
<!-- led_body_3 -->
<g id="node3" class="node">
<title>led_body_3</title>
<g id="a_node3"><a xlink:href="javascript:s=&quot;\(&#x27;default&#x27;,\ &#x27;led_body&#x27;\)\nRotateExtrude&quot;; console.log(s); alert(s);" xlink:title="RotateExtrude">
<ellipse fill="none" stroke="black" cx="241.69" cy="-72" rx="45.49" ry="18"/>
<text text-anchor="middle" x="241.69" y="-68.3" font-family="Times New Roman,serif" font-size="14.00">led_body</text>
</a>
</g>
</g>
<!-- default_2&#45;&gt;led_body_3 -->
<g id="edge2" class="edge">
<title>default_2&#45;&gt;led_body_3</title>
<path fill="none" stroke="black" d="M157.41,-52.38C168.18,-54.92 180.5,-57.82 192.3,-60.6"/>
<polygon fill="black" stroke="black" points="191.52,-64.01 202.05,-62.9 193.12,-57.2 191.52,-64.01"/>
</g>
<!-- cutout_4 -->
<g id="node4" class="node">
<title>cutout_4</title>
<g id="a_node4"><a xlink:href="javascript:s=&quot;\(&#x27;default&#x27;,\ &#x27;cutout&#x27;\)\nBox&quot;; console.log(s); alert(s);" xlink:title="Box">
<ellipse fill="none" stroke="black" cx="241.69" cy="-18" rx="33.6" ry="18"/>
<text text-anchor="middle" x="241.69" y="-14.3" font-family="Times New Roman,serif" font-size="14.00">cutout</text>
</a>
</g>
</g>
<!-- default_2&#45;&gt;cutout_4 -->
<g id="edge3" class="edge">
<title>default_2&#45;&gt;cutout_4</title>
<path fill="none" stroke="black" d="M157.41,-37.62C170.74,-34.48 186.45,-30.78 200.62,-27.44"/>
<polygon fill="black" stroke="black" points="201.67,-30.79 210.6,-25.09 200.06,-23.98 201.67,-30.79"/>
</g>
</g>
</svg>
