<?xml version="1.0" encoding="UTF-8" standalone="no"?>
<!DOCTYPE svg PUBLIC "-//W3C//DTD SVG 1.1//EN"
 "http://www.w3.org/Graphics/SVG/1.1/DTD/svg11.dtd">
<!-- Generated by graphviz version 5.0.0 (20220707.1540)
 -->
<!-- Title: default Pages: 1 -->
<svg width="303pt" height="206pt"
 viewBox="0.00 0.00 302.99 206.00" xmlns="http://www.w3.org/2000/svg" xmlns:xlink="http://www.w3.org/1999/xlink">
<g id="graph0" class="graph" transform="scale(1 1) rotate(0) translate(4 202)">
<title>default</title>
<polygon fill="white" stroke="transparent" points="-4,4 -4,-202 298.99,-202 298.99,4 -4,4"/>
<!-- root_1 -->
<g id="node1" class="node">
<title>root_1</title>
<g id="a_node1"><a xlink:href="javascript:s=&quot;\(\)\nNone&quot;; console.log(s); alert(s);" xlink:title="root">
<ellipse fill="none" stroke="black" cx="27" cy="-99" rx="27" ry="18"/>
<text text-anchor="middle" x="27" y="-95.3" font-family="Times New Roman,serif" font-size="14.00">root</text>
</a>
</g>
</g>
<!-- default_2 -->
<g id="node2" class="node">
<title>default_2</title>
<g id="a_node2"><a xlink:href="javascript:s=&quot;\(&#x27;default&#x27;,\)\nHoleGuide&quot;; console.log(s); alert(s);" xlink:title="HoleGuide">
<ellipse fill="none" stroke="black" cx="125.1" cy="-99" rx="35.19" ry="18"/>
<text text-anchor="middle" x="125.1" y="-95.3" font-family="Times New Roman,serif" font-size="14.00">default</text>
</a>
</g>
</g>
<!-- root_1&#45;&gt;default_2 -->
<g id="edge1" class="edge">
<title>root_1&#45;&gt;default_2</title>
<path fill="none" stroke="black" d="M54.01,-99C61.92,-99 70.84,-99 79.61,-99"/>
<polygon fill="black" stroke="black" points="79.76,-102.5 89.76,-99 79.76,-95.5 79.76,-102.5"/>
</g>
<!-- jig_3 -->
<g id="node3" class="node">
<title>jig_3</title>
<g id="a_node3"><a xlink:href="javascript:s=&quot;\(&#x27;default&#x27;,\ &#x27;jig&#x27;\)\nBox&quot;; console.log(s); alert(s);" xlink:title="Box">
<ellipse fill="none" stroke="black" cx="245.59" cy="-180" rx="27" ry="18"/>
<text text-anchor="middle" x="245.59" y="-176.3" font-family="Times New Roman,serif" font-size="14.00">jig</text>
</a>
</g>
</g>
<!-- default_2&#45;&gt;jig_3 -->
<g id="edge2" class="edge">
<title>default_2&#45;&gt;jig_3</title>
<path fill="none" stroke="black" d="M144.29,-114.21C158.13,-125.48 177.85,-140.91 196.19,-153 202.02,-156.84 208.44,-160.67 214.63,-164.2"/>
<polygon fill="black" stroke="black" points="213.02,-167.3 223.47,-169.09 216.42,-161.18 213.02,-167.3"/>
</g>
<!-- stock_4 -->
<g id="node4" class="node">
<title>stock_4</title>
<g id="a_node4"><a xlink:href="javascript:s=&quot;\(&#x27;default&#x27;,\ &#x27;stock&#x27;\)\nBox&quot;; console.log(s); alert(s);" xlink:title="Box">
<ellipse fill="none" stroke="black" cx="245.59" cy="-126" rx="30.59" ry="18"/>
<text text-anchor="middle" x="245.59" y="-122.3" font-family="Times New Roman,serif" font-size="14.00">stock</text>
</a>
</g>
</g>
<!-- default_2&#45;&gt;stock_4 -->
<g id="edge3" class="edge">
<title>default_2&#45;&gt;stock_4</title>
<path fill="none" stroke="black" d="M157.54,-106.16C172.61,-109.6 190.79,-113.74 206.63,-117.35"/>
<polygon fill="black" stroke="black" points="206.11,-120.82 216.64,-119.63 207.67,-114 206.11,-120.82"/>
</g>
<!-- guide_5 -->
<g id="node5" class="node">
<title>guide_5</title>
<g id="a_node5"><a xlink:href="javascript:s=&quot;\(&#x27;default&#x27;,\ \(&#x27;guide&#x27;,\ 0\)\)\nCylinder&quot;; console.log(s); alert(s);" xlink:title="Cylinder">
<ellipse fill="none" stroke="black" cx="245.59" cy="-72" rx="49.29" ry="18"/>
<text text-anchor="middle" x="245.59" y="-68.3" font-family="Times New Roman,serif" font-size="14.00">(&#39;guide&#39;, 0)</text>
</a>
</g>
</g>
<!-- default_2&#45;&gt;guide_5 -->
<g id="edge4" class="edge">
<title>default_2&#45;&gt;guide_5</title>
<path fill="none" stroke="black" d="M157.54,-91.84C168.47,-89.35 181.03,-86.48 193.14,-83.72"/>
<polygon fill="black" stroke="black" points="194.2,-87.07 203.17,-81.44 192.64,-80.25 194.2,-87.07"/>
</g>
<!-- guide_6 -->
<g id="node6" class="node">
<title>guide_6</title>
<g id="a_node6"><a xlink:href="javascript:s=&quot;\(&#x27;default&#x27;,\ \(&#x27;guide&#x27;,\ 1\)\)\nCylinder&quot;; console.log(s); alert(s);" xlink:title="Cylinder">
<ellipse fill="none" stroke="black" cx="245.59" cy="-18" rx="49.29" ry="18"/>
<text text-anchor="middle" x="245.59" y="-14.3" font-family="Times New Roman,serif" font-size="14.00">(&#39;guide&#39;, 1)</text>
</a>
</g>
</g>
<!-- default_2&#45;&gt;guide_6 -->
<g id="edge5" class="edge">
<title>default_2&#45;&gt;guide_6</title>
<path fill="none" stroke="black" d="M144.29,-83.79C158.13,-72.52 177.85,-57.09 196.19,-45 199.91,-42.55 203.86,-40.11 207.84,-37.74"/>
<polygon fill="black" stroke="black" points="209.62,-40.76 216.53,-32.73 206.12,-34.7 209.62,-40.76"/>
</g>
</g>
</svg>
