<?xml version="1.0" encoding="UTF-8" standalone="no"?>
<!DOCTYPE svg PUBLIC "-//W3C//DTD SVG 1.1//EN"
 "http://www.w3.org/Graphics/SVG/1.1/DTD/svg11.dtd">
<!-- Generated by graphviz version 5.0.0 (20220707.1540)
 -->
<!-- Title: arc_azimuth2 Pages: 1 -->
<svg width="553pt" height="341pt"
 viewBox="0.00 0.00 553.07 341.00" xmlns="http://www.w3.org/2000/svg" xmlns:xlink="http://www.w3.org/1999/xlink">
<g id="graph0" class="graph" transform="scale(1 1) rotate(0) translate(4 337)">
<title>arc_azimuth2</title>
<polygon fill="white" stroke="transparent" points="-4,4 -4,-337 549.07,-337 549.07,4 -4,4"/>
<!-- root_2007 -->
<g id="node1" class="node">
<title>root_2007</title>
<g id="a_node1"><a xlink:href="javascript:s=&quot;\(\)\nNone&quot;; console.log(s); alert(s);" xlink:title="root">
<ellipse fill="none" stroke="black" cx="27" cy="-153" rx="27" ry="18"/>
<text text-anchor="middle" x="27" y="-149.3" font-family="Times New Roman,serif" font-size="14.00">root</text>
</a>
</g>
</g>
<!-- arc_azimuth2_2008 -->
<g id="node2" class="node">
<title>arc_azimuth2_2008</title>
<g id="a_node2"><a xlink:href="javascript:s=&quot;\(&#x27;arc_azimuth2&#x27;,\)\nRotateExtrude&quot;; console.log(s); alert(s);" xlink:title="RotateExtrude">
<ellipse fill="none" stroke="black" cx="158.24" cy="-180" rx="59.29" ry="18"/>
<text text-anchor="middle" x="158.24" y="-176.3" font-family="Times New Roman,serif" font-size="14.00">arc_azimuth2</text>
</a>
</g>
</g>
<!-- root_2007&#45;&gt;arc_azimuth2_2008 -->
<g id="edge1" class="edge">
<title>root_2007&#45;&gt;arc_azimuth2_2008</title>
<path fill="none" stroke="black" d="M52.92,-158.21C66.1,-160.96 82.88,-164.47 99.11,-167.86"/>
<polygon fill="black" stroke="black" points="98.6,-171.32 109.11,-169.94 100.03,-164.47 98.6,-171.32"/>
</g>
<!-- 2009 -->
<g id="node3" class="node">
<title>2009</title>
<g id="a_node3"><a xlink:href="javascript:s=&quot;\(&quot;&#x27;linear1&#x27;,\ 0\.5,\ 0,\ &quot;,\)\nAnnotatedCoordinates&quot;; console.log(s); alert(s);" xlink:title="AnnotatedCoordinates">
<ellipse fill="none" stroke="black" cx="158.24" cy="-126" rx="68.49" ry="18"/>
<text text-anchor="middle" x="158.24" y="-122.3" font-family="Times New Roman,serif" font-size="14.00">&#39;linear1&#39;, 0.5, 0, </text>
</a>
</g>
</g>
<!-- root_2007&#45;&gt;2009 -->
<g id="edge2" class="edge">
<title>root_2007&#45;&gt;2009</title>
<path fill="none" stroke="black" d="M52.92,-147.79C64.78,-145.32 79.55,-142.23 94.22,-139.17"/>
<polygon fill="black" stroke="black" points="95.24,-142.53 104.31,-137.06 93.81,-135.68 95.24,-142.53"/>
</g>
<!-- coords_2010 -->
<g id="node4" class="node">
<title>coords_2010</title>
<g id="a_node4"><a xlink:href="javascript:s=&quot;\(&quot;&#x27;linear1&#x27;,\ 0\.5,\ 0,\ &quot;,\ &#x27;coords&#x27;\)\nCoordinates&quot;; console.log(s); alert(s);" xlink:title="Coordinates">
<ellipse fill="none" stroke="black" cx="298.88" cy="-234" rx="36.29" ry="18"/>
<text text-anchor="middle" x="298.88" y="-230.3" font-family="Times New Roman,serif" font-size="14.00">coords</text>
</a>
</g>
</g>
<!-- 2009&#45;&gt;coords_2010 -->
<g id="edge3" class="edge">
<title>2009&#45;&gt;coords_2010</title>
<path fill="none" stroke="black" d="M204.03,-139.57C211.99,-143.17 219.85,-147.61 226.49,-153 248.87,-171.19 242.75,-185.97 262.49,-207 264.47,-209.11 266.63,-211.19 268.88,-213.19"/>
<polygon fill="black" stroke="black" points="266.76,-215.98 276.7,-219.66 271.22,-210.58 266.76,-215.98"/>
</g>
<!-- x_2021 -->
<g id="node15" class="node">
<title>x_2021</title>
<g id="a_node15"><a xlink:href="javascript:s=&quot;\(&quot;&#x27;linear1&#x27;,\ 0\.5,\ 0,\ &quot;,\ &#x27;x&#x27;\)\nText&quot;; console.log(s); alert(s);" xlink:title="Text">
<ellipse fill="none" stroke="black" cx="298.88" cy="-180" rx="27" ry="18"/>
<text text-anchor="middle" x="298.88" y="-176.3" font-family="Times New Roman,serif" font-size="14.00">x</text>
</a>
</g>
</g>
<!-- 2009&#45;&gt;x_2021 -->
<g id="edge14" class="edge">
<title>2009&#45;&gt;x_2021</title>
<path fill="none" stroke="black" d="M197.5,-140.9C218.85,-149.22 245.16,-159.46 265.49,-167.38"/>
<polygon fill="black" stroke="black" points="264.35,-170.69 274.94,-171.06 266.89,-164.17 264.35,-170.69"/>
</g>
<!-- y_2022 -->
<g id="node16" class="node">
<title>y_2022</title>
<g id="a_node16"><a xlink:href="javascript:s=&quot;\(&quot;&#x27;linear1&#x27;,\ 0\.5,\ 0,\ &quot;,\ &#x27;y&#x27;\)\nText&quot;; console.log(s); alert(s);" xlink:title="Text">
<ellipse fill="none" stroke="black" cx="298.88" cy="-126" rx="27" ry="18"/>
<text text-anchor="middle" x="298.88" y="-122.3" font-family="Times New Roman,serif" font-size="14.00">y</text>
</a>
</g>
</g>
<!-- 2009&#45;&gt;y_2022 -->
<g id="edge15" class="edge">
<title>2009&#45;&gt;y_2022</title>
<path fill="none" stroke="black" d="M226.53,-126C238.54,-126 250.62,-126 261.35,-126"/>
<polygon fill="black" stroke="black" points="261.57,-129.5 271.57,-126 261.57,-122.5 261.57,-129.5"/>
</g>
<!-- z_2023 -->
<g id="node17" class="node">
<title>z_2023</title>
<g id="a_node17"><a xlink:href="javascript:s=&quot;\(&quot;&#x27;linear1&#x27;,\ 0\.5,\ 0,\ &quot;,\ &#x27;z&#x27;\)\nText&quot;; console.log(s); alert(s);" xlink:title="Text">
<ellipse fill="none" stroke="black" cx="298.88" cy="-72" rx="27" ry="18"/>
<text text-anchor="middle" x="298.88" y="-68.3" font-family="Times New Roman,serif" font-size="14.00">z</text>
</a>
</g>
</g>
<!-- 2009&#45;&gt;z_2023 -->
<g id="edge16" class="edge">
<title>2009&#45;&gt;z_2023</title>
<path fill="none" stroke="black" d="M197.5,-111.1C218.85,-102.78 245.16,-92.54 265.49,-84.62"/>
<polygon fill="black" stroke="black" points="266.89,-87.83 274.94,-80.94 264.35,-81.31 266.89,-87.83"/>
</g>
<!-- label_2024 -->
<g id="node18" class="node">
<title>label_2024</title>
<g id="a_node18"><a xlink:href="javascript:s=&quot;\(&quot;&#x27;linear1&#x27;,\ 0\.5,\ 0,\ &quot;,\ &#x27;label&#x27;\)\nText&quot;; console.log(s); alert(s);" xlink:title="Text">
<ellipse fill="none" stroke="black" cx="298.88" cy="-18" rx="27.1" ry="18"/>
<text text-anchor="middle" x="298.88" y="-14.3" font-family="Times New Roman,serif" font-size="14.00">label</text>
</a>
</g>
</g>
<!-- 2009&#45;&gt;label_2024 -->
<g id="edge17" class="edge">
<title>2009&#45;&gt;label_2024</title>
<path fill="none" stroke="black" d="M180.93,-108.85C201.78,-92.39 234.2,-66.89 262.49,-45 265.63,-42.57 268.94,-40.03 272.22,-37.51"/>
<polygon fill="black" stroke="black" points="274.38,-40.26 280.2,-31.41 270.13,-34.7 274.38,-40.26"/>
</g>
<!-- origin_2011 -->
<g id="node5" class="node">
<title>origin_2011</title>
<g id="a_node5"><a xlink:href="javascript:s=&quot;\(&quot;&#x27;linear1&#x27;,\ 0\.5,\ 0,\ &quot;,\ &#x27;coords&#x27;,\ &#x27;origin&#x27;\)\nCoordinatesCage&quot;; console.log(s); alert(s);" xlink:title="CoordinatesCage">
<ellipse fill="none" stroke="black" cx="412.23" cy="-315" rx="31.4" ry="18"/>
<text text-anchor="middle" x="412.23" y="-311.3" font-family="Times New Roman,serif" font-size="14.00">origin</text>
</a>
</g>
</g>
<!-- coords_2010&#45;&gt;origin_2011 -->
<g id="edge4" class="edge">
<title>coords_2010&#45;&gt;origin_2011</title>
<path fill="none" stroke="black" d="M319.37,-249.18C333.61,-260.16 353.46,-275.25 371.28,-288 374.8,-290.52 378.54,-293.13 382.25,-295.68"/>
<polygon fill="black" stroke="black" points="380.53,-298.74 390.76,-301.47 384.46,-292.95 380.53,-298.74"/>
</g>
<!-- x_arrow_2012 -->
<g id="node6" class="node">
<title>x_arrow_2012</title>
<g id="a_node6"><a xlink:href="javascript:s=&quot;\(&quot;&#x27;linear1&#x27;,\ 0\.5,\ 0,\ &quot;,\ &#x27;coords&#x27;,\ &#x27;x_arrow&#x27;\)\nArrow&quot;; console.log(s); alert(s);" xlink:title="Arrow">
<ellipse fill="none" stroke="black" cx="412.23" cy="-261" rx="40.89" ry="18"/>
<text text-anchor="middle" x="412.23" y="-257.3" font-family="Times New Roman,serif" font-size="14.00">x_arrow</text>
</a>
</g>
</g>
<!-- coords_2010&#45;&gt;x_arrow_2012 -->
<g id="edge5" class="edge">
<title>coords_2010&#45;&gt;x_arrow_2012</title>
<path fill="none" stroke="black" d="M331.79,-241.74C342.43,-244.32 354.49,-247.24 365.94,-250.02"/>
<polygon fill="black" stroke="black" points="365.26,-253.45 375.8,-252.41 366.91,-246.65 365.26,-253.45"/>
</g>
<!-- y_arrow_2015 -->
<g id="node9" class="node">
<title>y_arrow_2015</title>
<g id="a_node9"><a xlink:href="javascript:s=&quot;\(&quot;&#x27;linear1&#x27;,\ 0\.5,\ 0,\ &quot;,\ &#x27;coords&#x27;,\ &#x27;y_arrow&#x27;\)\nArrow&quot;; console.log(s); alert(s);" xlink:title="Arrow">
<ellipse fill="none" stroke="black" cx="412.23" cy="-207" rx="40.89" ry="18"/>
<text text-anchor="middle" x="412.23" y="-203.3" font-family="Times New Roman,serif" font-size="14.00">y_arrow</text>
</a>
</g>
</g>
<!-- coords_2010&#45;&gt;y_arrow_2015 -->
<g id="edge8" class="edge">
<title>coords_2010&#45;&gt;y_arrow_2015</title>
<path fill="none" stroke="black" d="M331.79,-226.26C342.43,-223.68 354.49,-220.76 365.94,-217.98"/>
<polygon fill="black" stroke="black" points="366.91,-221.35 375.8,-215.59 365.26,-214.55 366.91,-221.35"/>
</g>
<!-- z_arrow_2018 -->
<g id="node12" class="node">
<title>z_arrow_2018</title>
<g id="a_node12"><a xlink:href="javascript:s=&quot;\(&quot;&#x27;linear1&#x27;,\ 0\.5,\ 0,\ &quot;,\ &#x27;coords&#x27;,\ &#x27;z_arrow&#x27;\)\nArrow&quot;; console.log(s); alert(s);" xlink:title="Arrow">
<ellipse fill="none" stroke="black" cx="412.23" cy="-99" rx="40.09" ry="18"/>
<text text-anchor="middle" x="412.23" y="-95.3" font-family="Times New Roman,serif" font-size="14.00">z_arrow</text>
</a>
</g>
</g>
<!-- coords_2010&#45;&gt;z_arrow_2018 -->
<g id="edge11" class="edge">
<title>coords_2010&#45;&gt;z_arrow_2018</title>
<path fill="none" stroke="black" d="M320.99,-219.58C325.93,-215.76 330.99,-211.46 335.28,-207 359.44,-181.88 381.7,-148.5 395.78,-125.54"/>
<polygon fill="black" stroke="black" points="398.95,-127.05 401.12,-116.68 392.96,-123.44 398.95,-127.05"/>
</g>
<!-- stem_2013 -->
<g id="node7" class="node">
<title>stem_2013</title>
<g id="a_node7"><a xlink:href="javascript:s=&quot;\(&quot;&#x27;linear1&#x27;,\ 0\.5,\ 0,\ &quot;,\ &#x27;coords&#x27;,\ &#x27;x_arrow&#x27;,\ &#x27;stem&#x27;\)\nCone&quot;; console.log(s); alert(s);" xlink:title="Cone">
<ellipse fill="none" stroke="black" cx="517.12" cy="-315" rx="27.9" ry="18"/>
<text text-anchor="middle" x="517.12" y="-311.3" font-family="Times New Roman,serif" font-size="14.00">stem</text>
</a>
</g>
</g>
<!-- x_arrow_2012&#45;&gt;stem_2013 -->
<g id="edge6" class="edge">
<title>x_arrow_2012&#45;&gt;stem_2013</title>
<path fill="none" stroke="black" d="M439.19,-274.63C453.35,-282.06 470.96,-291.3 485.76,-299.07"/>
<polygon fill="black" stroke="black" points="484.53,-302.37 495.01,-303.92 487.78,-296.18 484.53,-302.37"/>
</g>
<!-- head_2014 -->
<g id="node8" class="node">
<title>head_2014</title>
<g id="a_node8"><a xlink:href="javascript:s=&quot;\(&quot;&#x27;linear1&#x27;,\ 0\.5,\ 0,\ &quot;,\ &#x27;coords&#x27;,\ &#x27;x_arrow&#x27;,\ &#x27;head&#x27;\)\nCone&quot;; console.log(s); alert(s);" xlink:title="Cone">
<ellipse fill="none" stroke="black" cx="517.12" cy="-261" rx="27.9" ry="18"/>
<text text-anchor="middle" x="517.12" y="-257.3" font-family="Times New Roman,serif" font-size="14.00">head</text>
</a>
</g>
</g>
<!-- x_arrow_2012&#45;&gt;head_2014 -->
<g id="edge7" class="edge">
<title>x_arrow_2012&#45;&gt;head_2014</title>
<path fill="none" stroke="black" d="M453.3,-261C461.72,-261 470.55,-261 478.86,-261"/>
<polygon fill="black" stroke="black" points="479.02,-264.5 489.02,-261 479.02,-257.5 479.02,-264.5"/>
</g>
<!-- stem_2016 -->
<g id="node10" class="node">
<title>stem_2016</title>
<g id="a_node10"><a xlink:href="javascript:s=&quot;\(&quot;&#x27;linear1&#x27;,\ 0\.5,\ 0,\ &quot;,\ &#x27;coords&#x27;,\ &#x27;y_arrow&#x27;,\ &#x27;stem&#x27;\)\nCone&quot;; console.log(s); alert(s);" xlink:title="Cone">
<ellipse fill="none" stroke="black" cx="517.12" cy="-207" rx="27.9" ry="18"/>
<text text-anchor="middle" x="517.12" y="-203.3" font-family="Times New Roman,serif" font-size="14.00">stem</text>
</a>
</g>
</g>
<!-- y_arrow_2015&#45;&gt;stem_2016 -->
<g id="edge9" class="edge">
<title>y_arrow_2015&#45;&gt;stem_2016</title>
<path fill="none" stroke="black" d="M453.3,-207C461.72,-207 470.55,-207 478.86,-207"/>
<polygon fill="black" stroke="black" points="479.02,-210.5 489.02,-207 479.02,-203.5 479.02,-210.5"/>
</g>
<!-- head_2017 -->
<g id="node11" class="node">
<title>head_2017</title>
<g id="a_node11"><a xlink:href="javascript:s=&quot;\(&quot;&#x27;linear1&#x27;,\ 0\.5,\ 0,\ &quot;,\ &#x27;coords&#x27;,\ &#x27;y_arrow&#x27;,\ &#x27;head&#x27;\)\nCone&quot;; console.log(s); alert(s);" xlink:title="Cone">
<ellipse fill="none" stroke="black" cx="517.12" cy="-153" rx="27.9" ry="18"/>
<text text-anchor="middle" x="517.12" y="-149.3" font-family="Times New Roman,serif" font-size="14.00">head</text>
</a>
</g>
</g>
<!-- y_arrow_2015&#45;&gt;head_2017 -->
<g id="edge10" class="edge">
<title>y_arrow_2015&#45;&gt;head_2017</title>
<path fill="none" stroke="black" d="M439.19,-193.37C453.35,-185.94 470.96,-176.7 485.76,-168.93"/>
<polygon fill="black" stroke="black" points="487.78,-171.82 495.01,-164.08 484.53,-165.63 487.78,-171.82"/>
</g>
<!-- stem_2019 -->
<g id="node13" class="node">
<title>stem_2019</title>
<g id="a_node13"><a xlink:href="javascript:s=&quot;\(&quot;&#x27;linear1&#x27;,\ 0\.5,\ 0,\ &quot;,\ &#x27;coords&#x27;,\ &#x27;z_arrow&#x27;,\ &#x27;stem&#x27;\)\nCone&quot;; console.log(s); alert(s);" xlink:title="Cone">
<ellipse fill="none" stroke="black" cx="517.12" cy="-99" rx="27.9" ry="18"/>
<text text-anchor="middle" x="517.12" y="-95.3" font-family="Times New Roman,serif" font-size="14.00">stem</text>
</a>
</g>
</g>
<!-- z_arrow_2018&#45;&gt;stem_2019 -->
<g id="edge12" class="edge">
<title>z_arrow_2018&#45;&gt;stem_2019</title>
<path fill="none" stroke="black" d="M452.71,-99C461.34,-99 470.43,-99 478.96,-99"/>
<polygon fill="black" stroke="black" points="479.01,-102.5 489.01,-99 479.01,-95.5 479.01,-102.5"/>
</g>
<!-- head_2020 -->
<g id="node14" class="node">
<title>head_2020</title>
<g id="a_node14"><a xlink:href="javascript:s=&quot;\(&quot;&#x27;linear1&#x27;,\ 0\.5,\ 0,\ &quot;,\ &#x27;coords&#x27;,\ &#x27;z_arrow&#x27;,\ &#x27;head&#x27;\)\nCone&quot;; console.log(s); alert(s);" xlink:title="Cone">
<ellipse fill="none" stroke="black" cx="517.12" cy="-45" rx="27.9" ry="18"/>
<text text-anchor="middle" x="517.12" y="-41.3" font-family="Times New Roman,serif" font-size="14.00">head</text>
</a>
</g>
</g>
<!-- z_arrow_2018&#45;&gt;head_2020 -->
<g id="edge13" class="edge">
<title>z_arrow_2018&#45;&gt;head_2020</title>
<path fill="none" stroke="black" d="M438.93,-85.51C453.22,-78.01 471.09,-68.63 486.04,-60.79"/>
<polygon fill="black" stroke="black" points="487.68,-63.88 494.9,-56.14 484.42,-57.68 487.68,-63.88"/>
</g>
</g>
</svg>
