solid OpenSCAD_Model
  facet normal 0 1 0
    outer loop
      vertex 0 100 0
      vertex 100 100 12.5
      vertex 100 100 0
    endloop
  endfacet
  facet normal 0 1 0
    outer loop
      vertex 0 100 0
      vertex 0 100 12.5
      vertex 100 100 12.5
    endloop
  endfacet
  facet normal -1 0 0
    outer loop
      vertex 0 0 0
      vertex 0 100 12.5
      vertex 0 100 0
    endloop
  endfacet
  facet normal -1 0 0
    outer loop
      vertex 0 0 0
      vertex 0 0 12.5
      vertex 0 100 12.5
    endloop
  endfacet
  facet normal 0 -1 0
    outer loop
      vertex 100 0 0
      vertex 0 0 12.5
      vertex 0 0 0
    endloop
  endfacet
  facet normal 0 -1 0
    outer loop
      vertex 100 0 0
      vertex 100 0 12.5
      vertex 0 0 12.5
    endloop
  endfacet
  facet normal 1 0 0
    outer loop
      vertex 100 100 0
      vertex 100 0 12.5
      vertex 100 0 0
    endloop
  endfacet
  facet normal 1 0 0
    outer loop
      vertex 100 100 0
      vertex 100 100 12.5
      vertex 100 0 12.5
    endloop
  endfacet
  facet normal 0 1 0
    outer loop
      vertex 0 100 12.5
      vertex 100 100 25
      vertex 100 100 12.5
    endloop
  endfacet
  facet normal 0 1 0
    outer loop
      vertex 0 100 12.5
      vertex 0 100 25
      vertex 100 100 25
    endloop
  endfacet
  facet normal -1 0 0
    outer loop
      vertex 0 0 12.5
      vertex 0 100 25
      vertex 0 100 12.5
    endloop
  endfacet
  facet normal -1 0 0
    outer loop
      vertex 0 0 12.5
      vertex 0 0 25
      vertex 0 100 25
    endloop
  endfacet
  facet normal 0 -1 0
    outer loop
      vertex 100 0 12.5
      vertex 0 0 25
      vertex 0 0 12.5
    endloop
  endfacet
  facet normal 0 -1 0
    outer loop
      vertex 100 0 12.5
      vertex 100 0 25
      vertex 0 0 25
    endloop
  endfacet
  facet normal 1 0 0
    outer loop
      vertex 100 100 12.5
      vertex 100 0 25
      vertex 100 0 12.5
    endloop
  endfacet
  facet normal 1 0 0
    outer loop
      vertex 100 100 12.5
      vertex 100 100 25
      vertex 100 0 25
    endloop
  endfacet
  facet normal 0 1 0
    outer loop
      vertex 0 100 25
      vertex 100 100 37.5
      vertex 100 100 25
    endloop
  endfacet
  facet normal 0 1 0
    outer loop
      vertex 0 100 25
      vertex 0 100 37.5
      vertex 100 100 37.5
    endloop
  endfacet
  facet normal -1 0 0
    outer loop
      vertex 0 0 25
      vertex 0 100 37.5
      vertex 0 100 25
    endloop
  endfacet
  facet normal -1 0 0
    outer loop
      vertex 0 0 25
      vertex 0 0 37.5
      vertex 0 100 37.5
    endloop
  endfacet
  facet normal 0 -1 0
    outer loop
      vertex 100 0 25
      vertex 0 0 37.5
      vertex 0 0 25
    endloop
  endfacet
  facet normal 0 -1 0
    outer loop
      vertex 100 0 25
      vertex 100 0 37.5
      vertex 0 0 37.5
    endloop
  endfacet
  facet normal 1 0 0
    outer loop
      vertex 100 100 25
      vertex 100 0 37.5
      vertex 100 0 25
    endloop
  endfacet
  facet normal 1 0 0
    outer loop
      vertex 100 100 25
      vertex 100 100 37.5
      vertex 100 0 37.5
    endloop
  endfacet
  facet normal 0 1 0
    outer loop
      vertex 0 100 37.5
      vertex 100 100 50
      vertex 100 100 37.5
    endloop
  endfacet
  facet normal 0 1 0
    outer loop
      vertex 0 100 37.5
      vertex 0 100 50
      vertex 100 100 50
    endloop
  endfacet
  facet normal -1 0 0
    outer loop
      vertex 0 0 37.5
      vertex 0 100 50
      vertex 0 100 37.5
    endloop
  endfacet
  facet normal -1 0 0
    outer loop
      vertex 0 0 37.5
      vertex 0 0 50
      vertex 0 100 50
    endloop
  endfacet
  facet normal 0 -1 0
    outer loop
      vertex 100 0 37.5
      vertex 0 0 50
      vertex 0 0 37.5
    endloop
  endfacet
  facet normal 0 -1 0
    outer loop
      vertex 100 0 37.5
      vertex 100 0 50
      vertex 0 0 50
    endloop
  endfacet
  facet normal 1 0 0
    outer loop
      vertex 100 100 37.5
      vertex 100 0 50
      vertex 100 0 37.5
    endloop
  endfacet
  facet normal 1 0 0
    outer loop
      vertex 100 100 37.5
      vertex 100 100 50
      vertex 100 0 50
    endloop
  endfacet
  facet normal 0 0 -1
    outer loop
      vertex 100 0 0
      vertex 0 100 0
      vertex 100 100 0
    endloop
  endfacet
  facet normal 0 0 -1
    outer loop
      vertex 100 0 0
      vertex 0 0 0
      vertex 0 100 0
    endloop
  endfacet
  facet normal 0 0 1
    outer loop
      vertex 100 100 50
      vertex 0 100 50
      vertex 100 0 50
    endloop
  endfacet
  facet normal 0 0 1
    outer loop
      vertex 0 100 50
      vertex 0 0 50
      vertex 100 0 50
    endloop
  endfacet
endsolid OpenSCAD_Model
