solid OpenSCAD_Model
  facet normal 0 0 1
    outer loop
      vertex 50.81337428812077 21.047588780079938 12.5
      vertex 25 0 12.5
      vertex 55 0 12.5
    endloop
  endfacet
  facet normal 0 0 1
    outer loop
      vertex 25 0 12.5
      vertex 50.81337428812077 21.047588780079938 12.5
      vertex 23.09698831278217 9.567085809127244 12.5
    endloop
  endfacet
  facet normal 0.9807852804032305 0.1950903220161284 0
    outer loop
      vertex 55 0 12.5
      vertex 50.81337428812077 21.047588780079938 -12.5
      vertex 50.81337428812077 21.047588780079938 12.5
    endloop
  endfacet
  facet normal 0.9807852804032305 0.1950903220161284 0
    outer loop
      vertex 50.81337428812077 21.047588780079938 -12.5
      vertex 55 0 12.5
      vertex 55 0 -12.5
    endloop
  endfacet
  facet normal 0 0 -1
    outer loop
      vertex 25 0 -12.5
      vertex 50.81337428812077 21.047588780079938 -12.5
      vertex 55 0 -12.5
    endloop
  endfacet
  facet normal 0 0 -1
    outer loop
      vertex 50.81337428812077 21.047588780079938 -12.5
      vertex 25 0 -12.5
      vertex 23.09698831278217 9.567085809127244 -12.5
    endloop
  endfacet
  facet normal -0.07844954263172328 -0.015604584244727479 -0.9967959501379521
    outer loop
      vertex 23.435655349597692 0 -12.376883405951379
      vertex 23.09698831278217 9.567085809127244 -12.5
      vertex 25 0 -12.5
    endloop
  endfacet
  facet normal -0.07844954263172316 -0.015604584244727474 -0.9967959501379521
    outer loop
      vertex 23.09698831278217 9.567085809127244 -12.5
      vertex 23.435655349597692 0 -12.376883405951379
      vertex 21.65172230848195 8.968437028909323 -12.376883405951379
    endloop
  endfacet
  facet normal -0.2331940897694564 -0.0463851884549871 -0.9713232885031585
    outer loop
      vertex 21.909830056250527 0 -12.010565162951536
      vertex 21.65172230848195 8.968437028909323 -12.376883405951379
      vertex 23.435655349597692 0 -12.376883405951379
    endloop
  endfacet
  facet normal -0.23319408976945635 -0.04638518845498709 -0.9713232885031585
    outer loop
      vertex 21.65172230848195 8.968437028909323 -12.376883405951379
      vertex 21.909830056250527 0 -12.010565162951536
      vertex 20.242043549770475 8.38452896846176 -12.010565162951536
    endloop
  endfacet
  facet normal -0.38157953112891546 -0.07590088788047256 -0.9212144791753942
    outer loop
      vertex 20.460095002604533 0 -11.410065241883679
      vertex 20.242043549770475 8.38452896846176 -12.010565162951536
      vertex 21.909830056250527 0 -12.010565162951536
    endloop
  endfacet
  facet normal -0.3815795311289154 -0.07590088788047257 -0.9212144791753945
    outer loop
      vertex 20.242043549770475 8.38452896846176 -12.010565162951536
      vertex 20.460095002604533 0 -11.410065241883679
      vertex 18.902663006142788 7.829739382112523 -11.410065241883679
    endloop
  endfacet
  facet normal -0.5196992751232413 -0.10337461314025624 -0.8480721389094681
    outer loop
      vertex 19.12214747707527 0 -10.590169943749473
      vertex 18.902663006142788 7.829739382112523 -11.410065241883679
      vertex 20.460095002604533 0 -11.410065241883679
    endloop
  endfacet
  facet normal -0.5196992751232417 -0.10337461314025623 -0.8480721389094679
    outer loop
      vertex 18.902663006142788 7.829739382112523 -11.410065241883679
      vertex 19.12214747707527 0 -10.590169943749473
      vertex 17.66656067173218 7.317729030718606 -10.590169943749473
    endloop
  endfacet
  facet normal -0.6440958495559735 -0.12811863025459075 -0.7541393459875012
    outer loop
      vertex 17.928932188134524 0 -9.571067811865476
      vertex 17.66656067173218 7.317729030718606 -10.590169943749473
      vertex 19.12214747707527 0 -10.590169943749473
    endloop
  endfacet
  facet normal -0.6440958495559737 -0.12811863025459075 -0.7541393459875011
    outer loop
      vertex 17.66656067173218 7.317729030718606 -10.590169943749473
      vertex 17.928932188134524 0 -9.571067811865476
      vertex 16.564173488400286 6.86110530839626 -9.571067811865476
    endloop
  endfacet
  facet normal -0.7518542084736082 -0.14955310053184434 -0.6421441577417304
    outer loop
      vertex 17.928932188134524 0 -9.571067811865476
      vertex 15.622645887214043 6.471111806636311 -8.377852522924732
      vertex 16.564173488400286 6.86110530839626 -9.571067811865476
    endloop
  endfacet
  facet normal -0.7518542084736081 -0.14955310053184429 -0.6421441577417304
    outer loop
      vertex 15.622645887214043 6.471111806636311 -8.377852522924732
      vertex 17.928932188134524 0 -9.571067811865476
      vertex 16.909830056250527 0 -8.377852522924732
    endloop
  endfacet
  facet normal -0.8406356918686095 -0.16721283557342184 -0.5151422145156422
    outer loop
      vertex 16.909830056250527 0 -8.377852522924732
      vertex 14.86516140246561 6.157351459766314 -7.0399049973954675
      vertex 15.622645887214043 6.471111806636311 -8.377852522924732
    endloop
  endfacet
  facet normal -0.8406356918686098 -0.167212835573422 -0.5151422145156419
    outer loop
      vertex 14.86516140246561 6.157351459766314 -7.0399049973954675
      vertex 16.909830056250527 0 -8.377852522924732
      vertex 16.08993475811632 0 -7.0399049973954675
    endloop
  endfacet
  facet normal -0.9086633352183309 -0.18074437515937405 -0.376380677078602
    outer loop
      vertex 16.08993475811632 0 -7.0399049973954675
      vertex 14.310371816116374 5.927550088837102 -5.5901699437494745
      vertex 14.86516140246561 6.157351459766314 -7.0399049973954675
    endloop
  endfacet
  facet normal -0.9086633352183309 -0.18074437515937408 -0.376380677078602
    outer loop
      vertex 14.310371816116374 5.927550088837102 -5.5901699437494745
      vertex 16.08993475811632 0 -7.0399049973954675
      vertex 15.489434837048465 0 -5.5901699437494745
    endloop
  endfacet
  facet normal -0.9546766943892145 -0.18989700136314505 -0.2291975961116699
    outer loop
      vertex 15.489434837048465 0 -5.5901699437494745
      vertex 13.971937889023325 5.787366166267973 -4.064344650402309
      vertex 14.310371816116374 5.927550088837102 -5.5901699437494745
    endloop
  endfacet
  facet normal -0.9546766943892143 -0.18989700136314497 -0.22919759611167023
    outer loop
      vertex 13.971937889023325 5.787366166267973 -4.064344650402309
      vertex 15.489434837048465 0 -5.5901699437494745
      vertex 15.123116594048623 0 -4.064344650402309
    endloop
  endfacet
  facet normal -0.97787640787973 -0.1945117112960732 -0.07696054236366129
    outer loop
      vertex 15.123116594048623 0 -4.064344650402309
      vertex 13.858192987669302 5.740251485476347 -2.5000000000000004
      vertex 13.971937889023325 5.787366166267973 -4.064344650402309
    endloop
  endfacet
  facet normal -0.97787640787973 -0.19451171129607306 -0.07696054236366182
    outer loop
      vertex 13.858192987669302 5.740251485476347 -2.5000000000000004
      vertex 15.123116594048623 0 -4.064344650402309
      vertex 15 0 -2.5000000000000004
    endloop
  endfacet
  facet normal -0.9807852804032304 -0.1950903220161282 0
    outer loop
      vertex 15 0 -2.5000000000000004
      vertex 13.858192987669302 5.740251485476347 2.5
      vertex 13.858192987669302 5.740251485476347 -2.5000000000000004
    endloop
  endfacet
  facet normal -0.9807852804032304 -0.1950903220161282 0
    outer loop
      vertex 13.858192987669302 5.740251485476347 2.5
      vertex 15 0 -2.5000000000000004
      vertex 15 0 2.5
    endloop
  endfacet
  facet normal -0.97787640787973 -0.1945117112960731 0.07696054236366072
    outer loop
      vertex 15.123116594048621 0 4.064344650402308
      vertex 13.858192987669302 5.740251485476347 2.5
      vertex 15 0 2.5
    endloop
  endfacet
  facet normal -0.9778764078797301 -0.19451171129607328 0.07696054236366008
    outer loop
      vertex 13.858192987669302 5.740251485476347 2.5
      vertex 15.123116594048621 0 4.064344650402308
      vertex 13.971937889023323 5.787366166267972 4.064344650402308
    endloop
  endfacet
  facet normal -0.9546766943892143 -0.189897001363145 0.22919759611167004
    outer loop
      vertex 15.489434837048464 0 5.5901699437494745
      vertex 13.971937889023323 5.787366166267972 4.064344650402308
      vertex 15.123116594048621 0 4.064344650402308
    endloop
  endfacet
  facet normal -0.9546766943892144 -0.18989700136314502 0.2291975961116698
    outer loop
      vertex 13.971937889023323 5.787366166267972 4.064344650402308
      vertex 15.489434837048464 0 5.5901699437494745
      vertex 14.310371816116373 5.927550088837101 5.5901699437494745
    endloop
  endfacet
  facet normal -0.9086633352183303 -0.180744375159374 0.37638067707860295
    outer loop
      vertex 16.08993475811632 0 7.0399049973954675
      vertex 14.310371816116373 5.927550088837101 5.5901699437494745
      vertex 15.489434837048464 0 5.5901699437494745
    endloop
  endfacet
  facet normal -0.9086633352183303 -0.180744375159374 0.37638067707860307
    outer loop
      vertex 14.310371816116373 5.927550088837101 5.5901699437494745
      vertex 16.08993475811632 0 7.0399049973954675
      vertex 14.86516140246561 6.157351459766314 7.0399049973954675
    endloop
  endfacet
  facet normal -0.8406356918686098 -0.167212835573422 0.5151422145156418
    outer loop
      vertex 16.909830056250527 0 8.377852522924732
      vertex 14.86516140246561 6.157351459766314 7.0399049973954675
      vertex 16.08993475811632 0 7.0399049973954675
    endloop
  endfacet
  facet normal -0.8406356918686095 -0.16721283557342184 0.5151422145156421
    outer loop
      vertex 14.86516140246561 6.157351459766314 7.0399049973954675
      vertex 16.909830056250527 0 8.377852522924732
      vertex 15.622645887214043 6.471111806636311 8.377852522924732
    endloop
  endfacet
  facet normal -0.7518542084736081 -0.1495531005318443 0.6421441577417304
    outer loop
      vertex 17.928932188134524 0 9.571067811865476
      vertex 15.622645887214043 6.471111806636311 8.377852522924732
      vertex 16.909830056250527 0 8.377852522924732
    endloop
  endfacet
  facet normal -0.7518542084736082 -0.14955310053184437 0.6421441577417304
    outer loop
      vertex 15.622645887214043 6.471111806636311 8.377852522924732
      vertex 17.928932188134524 0 9.571067811865476
      vertex 16.564173488400286 6.86110530839626 9.571067811865476
    endloop
  endfacet
  facet normal -0.6440958495559753 -0.12811863025459116 0.7541393459874998
    outer loop
      vertex 17.666560671732178 7.3177290307186045 10.590169943749475
      vertex 17.928932188134524 0 9.571067811865476
      vertex 19.122147477075266 0 10.590169943749475
    endloop
  endfacet
  facet normal -0.6440958495559754 -0.12811863025459114 0.7541393459874995
    outer loop
      vertex 17.928932188134524 0 9.571067811865476
      vertex 17.666560671732178 7.3177290307186045 10.590169943749475
      vertex 16.564173488400286 6.86110530839626 9.571067811865476
    endloop
  endfacet
  facet normal -0.5196992751232402 -0.10337461314025605 0.8480721389094686
    outer loop
      vertex 18.902663006142788 7.829739382112523 11.41006524188368
      vertex 19.122147477075266 0 10.590169943749475
      vertex 20.460095002604533 0 11.41006524188368
    endloop
  endfacet
  facet normal -0.5196992751232405 -0.10337461314025603 0.8480721389094684
    outer loop
      vertex 19.122147477075266 0 10.590169943749475
      vertex 18.902663006142788 7.829739382112523 11.41006524188368
      vertex 17.666560671732178 7.3177290307186045 10.590169943749475
    endloop
  endfacet
  facet normal -0.38157953112891535 -0.07590088788047254 0.9212144791753943
    outer loop
      vertex 20.24204354977047 8.384528968461758 12.010565162951536
      vertex 20.460095002604533 0 11.41006524188368
      vertex 21.909830056250524 0 12.010565162951536
    endloop
  endfacet
  facet normal -0.3815795311289154 -0.07590088788047256 0.9212144791753943
    outer loop
      vertex 20.460095002604533 0 11.41006524188368
      vertex 20.24204354977047 8.384528968461758 12.010565162951536
      vertex 18.902663006142788 7.829739382112523 11.41006524188368
    endloop
  endfacet
  facet normal -0.2331940897694564 -0.04638518845498711 0.9713232885031585
    outer loop
      vertex 21.651722308481947 8.968437028909321 12.376883405951379
      vertex 21.909830056250524 0 12.010565162951536
      vertex 23.43565534959769 0 12.376883405951379
    endloop
  endfacet
  facet normal -0.23319408976945638 -0.04638518845498711 0.9713232885031585
    outer loop
      vertex 21.909830056250524 0 12.010565162951536
      vertex 21.651722308481947 8.968437028909321 12.376883405951379
      vertex 20.24204354977047 8.384528968461758 12.010565162951536
    endloop
  endfacet
  facet normal -0.0784495426317231 -0.015604584244727443 0.9967959501379521
    outer loop
      vertex 23.09698831278217 9.567085809127244 12.5
      vertex 23.43565534959769 0 12.376883405951379
      vertex 25 0 12.5
    endloop
  endfacet
  facet normal -0.07844954263172296 -0.015604584244727437 0.9967959501379521
    outer loop
      vertex 23.43565534959769 0 12.376883405951379
      vertex 23.09698831278217 9.567085809127244 12.5
      vertex 21.651722308481947 8.968437028909321 12.376883405951379
    endloop
  endfacet
  facet normal 0 0 1
    outer loop
      vertex 38.890872965260115 38.890872965260115 12.5
      vertex 23.09698831278217 9.567085809127244 12.5
      vertex 50.81337428812077 21.047588780079938 12.5
    endloop
  endfacet
  facet normal 0 0 1
    outer loop
      vertex 23.09698831278217 9.567085809127244 12.5
      vertex 38.890872965260115 38.890872965260115 12.5
      vertex 17.67766952966369 17.67766952966369 12.5
    endloop
  endfacet
  facet normal 0.8314696123025453 0.5555702330196021 0
    outer loop
      vertex 50.81337428812077 21.047588780079938 12.5
      vertex 38.890872965260115 38.890872965260115 -12.5
      vertex 38.890872965260115 38.890872965260115 12.5
    endloop
  endfacet
  facet normal 0.8314696123025453 0.5555702330196021 0
    outer loop
      vertex 38.890872965260115 38.890872965260115 -12.5
      vertex 50.81337428812077 21.047588780079938 12.5
      vertex 50.81337428812077 21.047588780079938 -12.5
    endloop
  endfacet
  facet normal 0 0 -1
    outer loop
      vertex 23.09698831278217 9.567085809127244 -12.5
      vertex 38.890872965260115 38.890872965260115 -12.5
      vertex 50.81337428812077 21.047588780079938 -12.5
    endloop
  endfacet
  facet normal 0 0 -1
    outer loop
      vertex 38.890872965260115 38.890872965260115 -12.5
      vertex 23.09698831278217 9.567085809127244 -12.5
      vertex 17.67766952966369 17.67766952966369 -12.5
    endloop
  endfacet
  facet normal -0.06650631091291818 -0.04443809623883107 -0.9967959501379521
    outer loop
      vertex 21.65172230848195 8.968437028909323 -12.376883405951379
      vertex 17.67766952966369 17.67766952966369 -12.5
      vertex 23.09698831278217 9.567085809127244 -12.5
    endloop
  endfacet
  facet normal -0.06650631091291836 -0.04443809623883115 -0.996795950137952
    outer loop
      vertex 17.67766952966369 17.67766952966369 -12.5
      vertex 21.65172230848195 8.968437028909323 -12.376883405951379
      vertex 16.57151081925132 16.57151081925132 -12.376883405951379
    endloop
  endfacet
  facet normal -0.19769240351174447 -0.13209384090546972 -0.9713232885031585
    outer loop
      vertex 20.242043549770475 8.38452896846176 -12.010565162951536
      vertex 16.57151081925132 16.57151081925132 -12.376883405951379
      vertex 21.65172230848195 8.968437028909323 -12.376883405951379
    endloop
  endfacet
  facet normal -0.1976924035117443 -0.13209384090546963 -0.9713232885031585
    outer loop
      vertex 16.57151081925132 16.57151081925132 -12.376883405951379
      vertex 20.242043549770475 8.38452896846176 -12.010565162951536
      vertex 15.492589407419585 15.492589407419585 -12.010565162951536
    endloop
  endfacet
  facet normal -0.3234875065416014 -0.21614744150487739 -0.9212144791753943
    outer loop
      vertex 18.902663006142788 7.829739382112523 -11.410065241883679
      vertex 15.492589407419585 15.492589407419585 -12.010565162951536
      vertex 20.242043549770475 8.38452896846176 -12.010565162951536
    endloop
  endfacet
  facet normal -0.3234875065416015 -0.21614744150487739 -0.9212144791753942
    outer loop
      vertex 15.492589407419585 15.492589407419585 -12.010565162951536
      vertex 18.902663006142788 7.829739382112523 -11.410065241883679
      vertex 14.467471920062659 14.467471920062659 -11.410065241883679
    endloop
  endfacet
  facet normal -0.44057977157138856 -0.29438599166336604 -0.8480721389094678
    outer loop
      vertex 17.66656067173218 7.317729030718606 -10.590169943749473
      vertex 14.467471920062659 14.467471920062659 -11.410065241883679
      vertex 18.902663006142788 7.829739382112523 -11.410065241883679
    endloop
  endfacet
  facet normal -0.44057977157138806 -0.2943859916633659 -0.8480721389094681
    outer loop
      vertex 14.467471920062659 14.467471920062659 -11.410065241883679
      vertex 17.66656067173218 7.317729030718606 -10.590169943749473
      vertex 13.521400151889155 13.521400151889155 -10.590169943749473
    endloop
  endfacet
  facet normal -0.5460380952044925 -0.36485099070578614 -0.7541393459875012
    outer loop
      vertex 16.564173488400286 6.86110530839626 -9.571067811865476
      vertex 13.521400151889155 13.521400151889155 -10.590169943749473
      vertex 17.66656067173218 7.317729030718606 -10.590169943749473
    endloop
  endfacet
  facet normal -0.5460380952044924 -0.36485099070578614 -0.7541393459875011
    outer loop
      vertex 13.521400151889155 13.521400151889155 -10.590169943749473
      vertex 16.564173488400286 6.86110530839626 -9.571067811865476
      vertex 12.677669529663689 12.677669529663689 -9.571067811865476
    endloop
  endfacet
  facet normal -0.6373912208088732 -0.42589119774179185 -0.6421441577417304
    outer loop
      vertex 15.622645887214043 6.471111806636311 -8.377852522924732
      vertex 12.677669529663689 12.677669529663689 -9.571067811865476
      vertex 16.564173488400286 6.86110530839626 -9.571067811865476
    endloop
  endfacet
  facet normal -0.6373912208088732 -0.42589119774179185 -0.6421441577417303
    outer loop
      vertex 12.677669529663689 12.677669529663689 -9.571067811865476
      vertex 15.622645887214043 6.471111806636311 -8.377852522924732
      vertex 11.957055501486847 11.957055501486847 -8.377852522924732
    endloop
  endfacet
  facet normal -0.712656528163137 -0.47618186829234116 -0.5151422145156417
    outer loop
      vertex 15.622645887214043 6.471111806636311 -8.377852522924732
      vertex 11.377301976313184 11.377301976313184 -7.0399049973954675
      vertex 11.957055501486847 11.957055501486847 -8.377852522924732
    endloop
  endfacet
  facet normal -0.7126565281631367 -0.47618186829234077 -0.5151422145156423
    outer loop
      vertex 11.377301976313184 11.377301976313184 -7.0399049973954675
      vertex 15.622645887214043 6.471111806636311 -8.377852522924732
      vertex 14.86516140246561 6.157351459766314 -7.0399049973954675
    endloop
  endfacet
  facet normal -0.7703275794849853 -0.5147164328119476 -0.37638067707860257
    outer loop
      vertex 14.86516140246561 6.157351459766314 -7.0399049973954675
      vertex 10.952684410024116 10.952684410024116 -5.5901699437494745
      vertex 11.377301976313184 11.377301976313184 -7.0399049973954675
    endloop
  endfacet
  facet normal -0.7703275794849855 -0.514716432811948 -0.37638067707860173
    outer loop
      vertex 10.952684410024116 10.952684410024116 -5.5901699437494745
      vertex 14.86516140246561 6.157351459766314 -7.0399049973954675
      vertex 14.310371816116374 5.927550088837102 -5.5901699437494745
    endloop
  endfacet
  facet normal -0.8093358218342415 -0.5407809070524998 -0.22919759611167045
    outer loop
      vertex 14.310371816116374 5.927550088837102 -5.5901699437494745
      vertex 10.693658296326586 10.693658296326586 -4.064344650402309
      vertex 10.952684410024116 10.952684410024116 -5.5901699437494745
    endloop
  endfacet
  facet normal -0.8093358218342417 -0.5407809070524999 -0.22919759611167004
    outer loop
      vertex 10.693658296326586 10.693658296326586 -4.064344650402309
      vertex 14.310371816116374 5.927550088837102 -5.5901699437494745
      vertex 13.971937889023325 5.787366166267973 -4.064344650402309
    endloop
  endfacet
  facet normal -0.8290035892517528 -0.5539224890964461 -0.0769605423636616
    outer loop
      vertex 13.971937889023325 5.787366166267973 -4.064344650402309
      vertex 10.606601717798213 10.606601717798213 -2.5000000000000004
      vertex 10.693658296326586 10.693658296326586 -4.064344650402309
    endloop
  endfacet
  facet normal -0.8290035892517528 -0.553922489096446 -0.07696054236366145
    outer loop
      vertex 10.606601717798213 10.606601717798213 -2.5000000000000004
      vertex 13.971937889023325 5.787366166267973 -4.064344650402309
      vertex 13.858192987669302 5.740251485476347 -2.5000000000000004
    endloop
  endfacet
  facet normal -0.8314696123025452 -0.5555702330196022 0
    outer loop
      vertex 13.858192987669302 5.740251485476347 -2.5000000000000004
      vertex 10.606601717798213 10.606601717798213 2.5
      vertex 10.606601717798213 10.606601717798213 -2.5000000000000004
    endloop
  endfacet
  facet normal -0.8314696123025452 -0.5555702330196022 0
    outer loop
      vertex 10.606601717798213 10.606601717798213 2.5
      vertex 13.858192987669302 5.740251485476347 -2.5000000000000004
      vertex 13.858192987669302 5.740251485476347 2.5
    endloop
  endfacet
  facet normal -0.8290035892517529 -0.5539224890964457 0.07696054236366143
    outer loop
      vertex 10.606601717798213 10.606601717798213 2.5
      vertex 13.971937889023323 5.787366166267972 4.064344650402308
      vertex 10.693658296326586 10.693658296326586 4.064344650402308
    endloop
  endfacet
  facet normal -0.8290035892517527 -0.553922489096446 0.07696054236366005
    outer loop
      vertex 13.971937889023323 5.787366166267972 4.064344650402308
      vertex 10.606601717798213 10.606601717798213 2.5
      vertex 13.858192987669302 5.740251485476347 2.5
    endloop
  endfacet
  facet normal -0.8093358218342418 -0.5407809070524995 0.2291975961116701
    outer loop
      vertex 10.693658296326586 10.693658296326586 4.064344650402308
      vertex 14.310371816116373 5.927550088837101 5.5901699437494745
      vertex 10.952684410024116 10.952684410024116 5.5901699437494745
    endloop
  endfacet
  facet normal -0.8093358218342418 -0.5407809070524996 0.22919759611166995
    outer loop
      vertex 14.310371816116373 5.927550088837101 5.5901699437494745
      vertex 10.693658296326586 10.693658296326586 4.064344650402308
      vertex 13.971937889023323 5.787366166267972 4.064344650402308
    endloop
  endfacet
  facet normal -0.7703275794849853 -0.5147164328119475 0.37638067707860284
    outer loop
      vertex 10.952684410024116 10.952684410024116 5.5901699437494745
      vertex 14.86516140246561 6.157351459766314 7.0399049973954675
      vertex 11.377301976313184 11.377301976313184 7.0399049973954675
    endloop
  endfacet
  facet normal -0.7703275794849852 -0.5147164328119475 0.376380677078603
    outer loop
      vertex 14.86516140246561 6.157351459766314 7.0399049973954675
      vertex 10.952684410024116 10.952684410024116 5.5901699437494745
      vertex 14.310371816116373 5.927550088837101 5.5901699437494745
    endloop
  endfacet
  facet normal -0.712656528163137 -0.47618186829234116 0.5151422145156417
    outer loop
      vertex 11.377301976313184 11.377301976313184 7.0399049973954675
      vertex 15.622645887214043 6.471111806636311 8.377852522924732
      vertex 11.957055501486847 11.957055501486847 8.377852522924732
    endloop
  endfacet
  facet normal -0.7126565281631367 -0.47618186829234077 0.5151422145156422
    outer loop
      vertex 15.622645887214043 6.471111806636311 8.377852522924732
      vertex 11.377301976313184 11.377301976313184 7.0399049973954675
      vertex 14.86516140246561 6.157351459766314 7.0399049973954675
    endloop
  endfacet
  facet normal -0.6373912208088732 -0.42589119774179185 0.6421441577417304
    outer loop
      vertex 12.677669529663689 12.677669529663689 9.571067811865476
      vertex 15.622645887214043 6.471111806636311 8.377852522924732
      vertex 16.564173488400286 6.86110530839626 9.571067811865476
    endloop
  endfacet
  facet normal -0.6373912208088732 -0.42589119774179185 0.6421441577417303
    outer loop
      vertex 15.622645887214043 6.471111806636311 8.377852522924732
      vertex 12.677669529663689 12.677669529663689 9.571067811865476
      vertex 11.957055501486847 11.957055501486847 8.377852522924732
    endloop
  endfacet
  facet normal -0.5460380952044942 -0.3648509907057871 0.7541393459874994
    outer loop
      vertex 13.521400151889154 13.521400151889154 10.590169943749475
      vertex 16.564173488400286 6.86110530839626 9.571067811865476
      vertex 17.666560671732178 7.3177290307186045 10.590169943749475
    endloop
  endfacet
  facet normal -0.5460380952044936 -0.3648509907057869 0.7541393459875
    outer loop
      vertex 16.564173488400286 6.86110530839626 9.571067811865476
      vertex 13.521400151889154 13.521400151889154 10.590169943749475
      vertex 12.677669529663689 12.677669529663689 9.571067811865476
    endloop
  endfacet
  facet normal -0.4405797715713877 -0.2943859916633655 0.8480721389094685
    outer loop
      vertex 14.467471920062659 14.467471920062659 11.41006524188368
      vertex 17.666560671732178 7.3177290307186045 10.590169943749475
      vertex 18.902663006142788 7.829739382112523 11.41006524188368
    endloop
  endfacet
  facet normal -0.4405797715713876 -0.29438599166336543 0.8480721389094684
    outer loop
      vertex 17.666560671732178 7.3177290307186045 10.590169943749475
      vertex 14.467471920062659 14.467471920062659 11.41006524188368
      vertex 13.521400151889154 13.521400151889154 10.590169943749475
    endloop
  endfacet
  facet normal -0.3234875065416014 -0.2161474415048773 0.9212144791753943
    outer loop
      vertex 15.492589407419583 15.492589407419583 12.010565162951536
      vertex 18.902663006142788 7.829739382112523 11.41006524188368
      vertex 20.24204354977047 8.384528968461758 12.010565162951536
    endloop
  endfacet
  facet normal -0.3234875065416012 -0.2161474415048772 0.9212144791753945
    outer loop
      vertex 18.902663006142788 7.829739382112523 11.41006524188368
      vertex 15.492589407419583 15.492589407419583 12.010565162951536
      vertex 14.467471920062659 14.467471920062659 11.41006524188368
    endloop
  endfacet
  facet normal -0.19769240351174444 -0.13209384090546972 0.9713232885031585
    outer loop
      vertex 16.571510819251316 16.571510819251316 12.376883405951379
      vertex 20.24204354977047 8.384528968461758 12.010565162951536
      vertex 21.651722308481947 8.968437028909321 12.376883405951379
    endloop
  endfacet
  facet normal -0.1976924035117446 -0.1320938409054698 0.9713232885031584
    outer loop
      vertex 20.24204354977047 8.384528968461758 12.010565162951536
      vertex 16.571510819251316 16.571510819251316 12.376883405951379
      vertex 15.492589407419583 15.492589407419583 12.010565162951536
    endloop
  endfacet
  facet normal -0.06650631091291802 -0.044438096238830965 0.9967959501379521
    outer loop
      vertex 17.67766952966369 17.67766952966369 12.5
      vertex 21.651722308481947 8.968437028909321 12.376883405951379
      vertex 23.09698831278217 9.567085809127244 12.5
    endloop
  endfacet
  facet normal -0.06650631091291813 -0.04443809623883101 0.996795950137952
    outer loop
      vertex 21.651722308481947 8.968437028909321 12.376883405951379
      vertex 17.67766952966369 17.67766952966369 12.5
      vertex 16.571510819251316 16.571510819251316 12.376883405951379
    endloop
  endfacet
  facet normal 0 0 1
    outer loop
      vertex 21.04758878007994 50.81337428812077 12.5
      vertex 17.67766952966369 17.67766952966369 12.5
      vertex 38.890872965260115 38.890872965260115 12.5
    endloop
  endfacet
  facet normal 0 0 1
    outer loop
      vertex 17.67766952966369 17.67766952966369 12.5
      vertex 21.04758878007994 50.81337428812077 12.5
      vertex 9.567085809127246 23.09698831278217 12.5
    endloop
  endfacet
  facet normal 0.5555702330196022 0.8314696123025453 0
    outer loop
      vertex 38.890872965260115 38.890872965260115 -12.5
      vertex 21.04758878007994 50.81337428812077 12.5
      vertex 38.890872965260115 38.890872965260115 12.5
    endloop
  endfacet
  facet normal 0.5555702330196022 0.8314696123025453 0
    outer loop
      vertex 21.04758878007994 50.81337428812077 12.5
      vertex 38.890872965260115 38.890872965260115 -12.5
      vertex 21.04758878007994 50.81337428812077 -12.5
    endloop
  endfacet
  facet normal 0 0 -1
    outer loop
      vertex 17.67766952966369 17.67766952966369 -12.5
      vertex 21.04758878007994 50.81337428812077 -12.5
      vertex 38.890872965260115 38.890872965260115 -12.5
    endloop
  endfacet
  facet normal 0 0 -1
    outer loop
      vertex 21.04758878007994 50.81337428812077 -12.5
      vertex 17.67766952966369 17.67766952966369 -12.5
      vertex 9.567085809127246 23.09698831278217 -12.5
    endloop
  endfacet
  facet normal -0.04443809623883118 -0.06650631091291834 -0.996795950137952
    outer loop
      vertex 16.57151081925132 16.57151081925132 -12.376883405951379
      vertex 9.567085809127246 23.09698831278217 -12.5
      vertex 17.67766952966369 17.67766952966369 -12.5
    endloop
  endfacet
  facet normal -0.04443809623883105 -0.06650631091291818 -0.996795950137952
    outer loop
      vertex 9.567085809127246 23.09698831278217 -12.5
      vertex 16.57151081925132 16.57151081925132 -12.376883405951379
      vertex 8.968437028909324 21.65172230848195 -12.376883405951379
    endloop
  endfacet
  facet normal -0.13209384090546963 -0.19769240351174427 -0.9713232885031585
    outer loop
      vertex 15.492589407419585 15.492589407419585 -12.010565162951536
      vertex 8.968437028909324 21.65172230848195 -12.376883405951379
      vertex 16.57151081925132 16.57151081925132 -12.376883405951379
    endloop
  endfacet
  facet normal -0.1320938409054698 -0.19769240351174447 -0.9713232885031585
    outer loop
      vertex 8.968437028909324 21.65172230848195 -12.376883405951379
      vertex 15.492589407419585 15.492589407419585 -12.010565162951536
      vertex 8.384528968461762 20.242043549770475 -12.010565162951536
    endloop
  endfacet
  facet normal -0.21614744150487747 -0.32348750654160147 -0.9212144791753943
    outer loop
      vertex 14.467471920062659 14.467471920062659 -11.410065241883679
      vertex 8.384528968461762 20.242043549770475 -12.010565162951536
      vertex 15.492589407419585 15.492589407419585 -12.010565162951536
    endloop
  endfacet
  facet normal -0.21614744150487725 -0.32348750654160124 -0.9212144791753943
    outer loop
      vertex 8.384528968461762 20.242043549770475 -12.010565162951536
      vertex 14.467471920062659 14.467471920062659 -11.410065241883679
      vertex 7.829739382112524 18.902663006142788 -11.410065241883679
    endloop
  endfacet
  facet normal -0.29438599166336576 -0.4405797715713882 -0.8480721389094681
    outer loop
      vertex 13.521400151889155 13.521400151889155 -10.590169943749473
      vertex 7.829739382112524 18.902663006142788 -11.410065241883679
      vertex 14.467471920062659 14.467471920062659 -11.410065241883679
    endloop
  endfacet
  facet normal -0.29438599166336615 -0.44057977157138856 -0.8480721389094678
    outer loop
      vertex 7.829739382112524 18.902663006142788 -11.410065241883679
      vertex 13.521400151889155 13.521400151889155 -10.590169943749473
      vertex 7.317729030718607 17.66656067173218 -10.590169943749473
    endloop
  endfacet
  facet normal -0.3648509907057862 -0.5460380952044924 -0.7541393459875012
    outer loop
      vertex 12.677669529663689 12.677669529663689 -9.571067811865476
      vertex 7.317729030718607 17.66656067173218 -10.590169943749473
      vertex 13.521400151889155 13.521400151889155 -10.590169943749473
    endloop
  endfacet
  facet normal -0.36485099070578625 -0.5460380952044924 -0.7541393459875012
    outer loop
      vertex 7.317729030718607 17.66656067173218 -10.590169943749473
      vertex 12.677669529663689 12.677669529663689 -9.571067811865476
      vertex 6.861105308396261 16.564173488400286 -9.571067811865476
    endloop
  endfacet
  facet normal -0.4258911977417919 -0.6373912208088732 -0.6421441577417303
    outer loop
      vertex 11.957055501486847 11.957055501486847 -8.377852522924732
      vertex 6.861105308396261 16.564173488400286 -9.571067811865476
      vertex 12.677669529663689 12.677669529663689 -9.571067811865476
    endloop
  endfacet
  facet normal -0.42589119774179185 -0.6373912208088731 -0.6421441577417304
    outer loop
      vertex 6.861105308396261 16.564173488400286 -9.571067811865476
      vertex 11.957055501486847 11.957055501486847 -8.377852522924732
      vertex 6.471111806636312 15.622645887214043 -8.377852522924732
    endloop
  endfacet
  facet normal -0.4761818682923409 -0.7126565281631368 -0.5151422145156422
    outer loop
      vertex 6.471111806636312 15.622645887214043 -8.377852522924732
      vertex 11.377301976313184 11.377301976313184 -7.0399049973954675
      vertex 6.157351459766315 14.86516140246561 -7.0399049973954675
    endloop
  endfacet
  facet normal -0.47618186829234127 -0.7126565281631371 -0.5151422145156417
    outer loop
      vertex 11.377301976313184 11.377301976313184 -7.0399049973954675
      vertex 6.471111806636312 15.622645887214043 -8.377852522924732
      vertex 11.957055501486847 11.957055501486847 -8.377852522924732
    endloop
  endfacet
  facet normal -0.514716432811948 -0.7703275794849854 -0.3763806770786019
    outer loop
      vertex 6.157351459766315 14.86516140246561 -7.0399049973954675
      vertex 10.952684410024116 10.952684410024116 -5.5901699437494745
      vertex 5.927550088837103 14.310371816116374 -5.5901699437494745
    endloop
  endfacet
  facet normal -0.5147164328119475 -0.7703275794849852 -0.37638067707860284
    outer loop
      vertex 10.952684410024116 10.952684410024116 -5.5901699437494745
      vertex 6.157351459766315 14.86516140246561 -7.0399049973954675
      vertex 11.377301976313184 11.377301976313184 -7.0399049973954675
    endloop
  endfacet
  facet normal -0.5407809070524999 -0.8093358218342416 -0.2291975961116701
    outer loop
      vertex 5.927550088837103 14.310371816116374 -5.5901699437494745
      vertex 10.693658296326586 10.693658296326586 -4.064344650402309
      vertex 5.787366166267974 13.971937889023325 -4.064344650402309
    endloop
  endfacet
  facet normal -0.5407809070524999 -0.8093358218342416 -0.22919759611167023
    outer loop
      vertex 10.693658296326586 10.693658296326586 -4.064344650402309
      vertex 5.927550088837103 14.310371816116374 -5.5901699437494745
      vertex 10.952684410024116 10.952684410024116 -5.5901699437494745
    endloop
  endfacet
  facet normal -0.553922489096446 -0.8290035892517525 -0.07696054236366129
    outer loop
      vertex 5.787366166267974 13.971937889023325 -4.064344650402309
      vertex 10.606601717798213 10.606601717798213 -2.5000000000000004
      vertex 5.740251485476348 13.858192987669302 -2.5000000000000004
    endloop
  endfacet
  facet normal -0.5539224890964461 -0.8290035892517527 -0.07696054236366141
    outer loop
      vertex 10.606601717798213 10.606601717798213 -2.5000000000000004
      vertex 5.787366166267974 13.971937889023325 -4.064344650402309
      vertex 10.693658296326586 10.693658296326586 -4.064344650402309
    endloop
  endfacet
  facet normal -0.5555702330196023 -0.8314696123025452 0
    outer loop
      vertex 5.740251485476348 13.858192987669302 -2.5000000000000004
      vertex 10.606601717798213 10.606601717798213 2.5
      vertex 5.740251485476348 13.858192987669302 2.5
    endloop
  endfacet
  facet normal -0.5555702330196023 -0.8314696123025452 0
    outer loop
      vertex 10.606601717798213 10.606601717798213 2.5
      vertex 5.740251485476348 13.858192987669302 -2.5000000000000004
      vertex 10.606601717798213 10.606601717798213 -2.5000000000000004
    endloop
  endfacet
  facet normal -0.5539224890964461 -0.8290035892517528 0.07696054236365993
    outer loop
      vertex 10.606601717798213 10.606601717798213 2.5
      vertex 5.787366166267973 13.971937889023323 4.064344650402308
      vertex 5.740251485476348 13.858192987669302 2.5
    endloop
  endfacet
  facet normal -0.5539224890964458 -0.8290035892517529 0.07696054236366144
    outer loop
      vertex 5.787366166267973 13.971937889023323 4.064344650402308
      vertex 10.606601717798213 10.606601717798213 2.5
      vertex 10.693658296326586 10.693658296326586 4.064344650402308
    endloop
  endfacet
  facet normal -0.5407809070524996 -0.8093358218342417 0.2291975961116699
    outer loop
      vertex 10.693658296326586 10.693658296326586 4.064344650402308
      vertex 5.927550088837102 14.310371816116373 5.5901699437494745
      vertex 5.787366166267973 13.971937889023323 4.064344650402308
    endloop
  endfacet
  facet normal -0.5407809070524997 -0.8093358218342418 0.22919759611167004
    outer loop
      vertex 5.927550088837102 14.310371816116373 5.5901699437494745
      vertex 10.693658296326586 10.693658296326586 4.064344650402308
      vertex 10.952684410024116 10.952684410024116 5.5901699437494745
    endloop
  endfacet
  facet normal -0.5147164328119476 -0.7703275794849852 0.37638067707860307
    outer loop
      vertex 10.952684410024116 10.952684410024116 5.5901699437494745
      vertex 6.157351459766315 14.86516140246561 7.0399049973954675
      vertex 5.927550088837102 14.310371816116373 5.5901699437494745
    endloop
  endfacet
  facet normal -0.5147164328119476 -0.7703275794849852 0.37638067707860295
    outer loop
      vertex 6.157351459766315 14.86516140246561 7.0399049973954675
      vertex 10.952684410024116 10.952684410024116 5.5901699437494745
      vertex 11.377301976313184 11.377301976313184 7.0399049973954675
    endloop
  endfacet
  facet normal -0.4761818682923409 -0.7126565281631367 0.5151422145156425
    outer loop
      vertex 11.377301976313184 11.377301976313184 7.0399049973954675
      vertex 6.471111806636312 15.622645887214043 8.377852522924732
      vertex 6.157351459766315 14.86516140246561 7.0399049973954675
    endloop
  endfacet
  facet normal -0.47618186829234116 -0.7126565281631368 0.5151422145156417
    outer loop
      vertex 6.471111806636312 15.622645887214043 8.377852522924732
      vertex 11.377301976313184 11.377301976313184 7.0399049973954675
      vertex 11.957055501486847 11.957055501486847 8.377852522924732
    endloop
  endfacet
  facet normal -0.42589119774179185 -0.6373912208088731 0.6421441577417304
    outer loop
      vertex 6.861105308396261 16.564173488400286 9.571067811865476
      vertex 11.957055501486847 11.957055501486847 8.377852522924732
      vertex 12.677669529663689 12.677669529663689 9.571067811865476
    endloop
  endfacet
  facet normal -0.42589119774179185 -0.6373912208088731 0.6421441577417303
    outer loop
      vertex 11.957055501486847 11.957055501486847 8.377852522924732
      vertex 6.861105308396261 16.564173488400286 9.571067811865476
      vertex 6.471111806636312 15.622645887214043 8.377852522924732
    endloop
  endfacet
  facet normal -0.36485099070578675 -0.5460380952044935 0.7541393459875
    outer loop
      vertex 7.317729030718606 17.666560671732178 10.590169943749475
      vertex 12.677669529663689 12.677669529663689 9.571067811865476
      vertex 13.521400151889154 13.521400151889154 10.590169943749475
    endloop
  endfacet
  facet normal -0.3648509907057872 -0.546038095204494 0.7541393459874997
    outer loop
      vertex 12.677669529663689 12.677669529663689 9.571067811865476
      vertex 7.317729030718606 17.666560671732178 10.590169943749475
      vertex 6.861105308396261 16.564173488400286 9.571067811865476
    endloop
  endfacet
  facet normal -0.2943859916633655 -0.4405797715713876 0.8480721389094685
    outer loop
      vertex 7.829739382112524 18.902663006142788 11.41006524188368
      vertex 13.521400151889154 13.521400151889154 10.590169943749475
      vertex 14.467471920062659 14.467471920062659 11.41006524188368
    endloop
  endfacet
  facet normal -0.29438599166336565 -0.4405797715713878 0.8480721389094685
    outer loop
      vertex 13.521400151889154 13.521400151889154 10.590169943749475
      vertex 7.829739382112524 18.902663006142788 11.41006524188368
      vertex 7.317729030718606 17.666560671732178 10.590169943749475
    endloop
  endfacet
  facet normal -0.21614744150487725 -0.3234875065416012 0.9212144791753945
    outer loop
      vertex 8.38452896846176 20.24204354977047 12.010565162951536
      vertex 14.467471920062659 14.467471920062659 11.41006524188368
      vertex 15.492589407419583 15.492589407419583 12.010565162951536
    endloop
  endfacet
  facet normal -0.2161474415048772 -0.3234875065416011 0.9212144791753945
    outer loop
      vertex 14.467471920062659 14.467471920062659 11.41006524188368
      vertex 8.38452896846176 20.24204354977047 12.010565162951536
      vertex 7.829739382112524 18.902663006142788 11.41006524188368
    endloop
  endfacet
  facet normal -0.13209384090546986 -0.19769240351174458 0.9713232885031584
    outer loop
      vertex 8.968437028909323 21.651722308481947 12.376883405951379
      vertex 15.492589407419583 15.492589407419583 12.010565162951536
      vertex 16.571510819251316 16.571510819251316 12.376883405951379
    endloop
  endfacet
  facet normal -0.13209384090546974 -0.19769240351174447 0.9713232885031585
    outer loop
      vertex 15.492589407419583 15.492589407419583 12.010565162951536
      vertex 8.968437028909323 21.651722308481947 12.376883405951379
      vertex 8.38452896846176 20.24204354977047 12.010565162951536
    endloop
  endfacet
  facet normal -0.04443809623883103 -0.0665063109129181 0.9967959501379521
    outer loop
      vertex 9.567085809127246 23.09698831278217 12.5
      vertex 16.571510819251316 16.571510819251316 12.376883405951379
      vertex 17.67766952966369 17.67766952966369 12.5
    endloop
  endfacet
  facet normal -0.04443809623883092 -0.06650631091291798 0.996795950137952
    outer loop
      vertex 16.571510819251316 16.571510819251316 12.376883405951379
      vertex 9.567085809127246 23.09698831278217 12.5
      vertex 8.968437028909323 21.651722308481947 12.376883405951379
    endloop
  endfacet
  facet normal 0 0 1
    outer loop
      vertex 0 55 12.5
      vertex 9.567085809127246 23.09698831278217 12.5
      vertex 21.04758878007994 50.81337428812077 12.5
    endloop
  endfacet
  facet normal 0 0 1
    outer loop
      vertex 9.567085809127246 23.09698831278217 12.5
      vertex 0 55 12.5
      vertex 0 25 12.5
    endloop
  endfacet
  facet normal 0.19509032201612833 0.9807852804032305 0
    outer loop
      vertex 21.04758878007994 50.81337428812077 -12.5
      vertex 0 55 12.5
      vertex 21.04758878007994 50.81337428812077 12.5
    endloop
  endfacet
  facet normal 0.19509032201612833 0.9807852804032305 0
    outer loop
      vertex 0 55 12.5
      vertex 21.04758878007994 50.81337428812077 -12.5
      vertex 0 55 -12.5
    endloop
  endfacet
  facet normal 0 0 -1
    outer loop
      vertex 0 25 -12.5
      vertex 21.04758878007994 50.81337428812077 -12.5
      vertex 9.567085809127246 23.09698831278217 -12.5
    endloop
  endfacet
  facet normal 0 0 -1
    outer loop
      vertex 21.04758878007994 50.81337428812077 -12.5
      vertex 0 25 -12.5
      vertex 0 55 -12.5
    endloop
  endfacet
  facet normal -0.01560458424472747 -0.07844954263172316 -0.9967959501379521
    outer loop
      vertex 0 23.435655349597692 -12.376883405951379
      vertex 9.567085809127246 23.09698831278217 -12.5
      vertex 8.968437028909324 21.65172230848195 -12.376883405951379
    endloop
  endfacet
  facet normal -0.015604584244727474 -0.07844954263172327 -0.9967959501379521
    outer loop
      vertex 9.567085809127246 23.09698831278217 -12.5
      vertex 0 23.435655349597692 -12.376883405951379
      vertex 0 25 -12.5
    endloop
  endfacet
  facet normal -0.04638518845498709 -0.23319408976945638 -0.9713232885031584
    outer loop
      vertex 0 21.909830056250527 -12.010565162951536
      vertex 8.968437028909324 21.65172230848195 -12.376883405951379
      vertex 8.384528968461762 20.242043549770475 -12.010565162951536
    endloop
  endfacet
  facet normal -0.04638518845498709 -0.2331940897694564 -0.9713232885031585
    outer loop
      vertex 8.968437028909324 21.65172230848195 -12.376883405951379
      vertex 0 21.909830056250527 -12.010565162951536
      vertex 0 23.435655349597692 -12.376883405951379
    endloop
  endfacet
  facet normal -0.07590088788047254 -0.38157953112891535 -0.9212144791753943
    outer loop
      vertex 0 20.460095002604533 -11.410065241883679
      vertex 8.384528968461762 20.242043549770475 -12.010565162951536
      vertex 7.829739382112524 18.902663006142788 -11.410065241883679
    endloop
  endfacet
  facet normal -0.07590088788047254 -0.38157953112891557 -0.9212144791753942
    outer loop
      vertex 8.384528968461762 20.242043549770475 -12.010565162951536
      vertex 0 20.460095002604533 -11.410065241883679
      vertex 0 21.909830056250527 -12.010565162951536
    endloop
  endfacet
  facet normal -0.10337461314025623 -0.5196992751232417 -0.8480721389094679
    outer loop
      vertex 0 19.12214747707527 -10.590169943749473
      vertex 7.829739382112524 18.902663006142788 -11.410065241883679
      vertex 7.317729030718607 17.66656067173218 -10.590169943749473
    endloop
  endfacet
  facet normal -0.10337461314025626 -0.5196992751232413 -0.8480721389094681
    outer loop
      vertex 7.829739382112524 18.902663006142788 -11.410065241883679
      vertex 0 19.12214747707527 -10.590169943749473
      vertex 0 20.460095002604533 -11.410065241883679
    endloop
  endfacet
  facet normal -0.12811863025459075 -0.6440958495559735 -0.7541393459875012
    outer loop
      vertex 0 17.928932188134524 -9.571067811865476
      vertex 7.317729030718607 17.66656067173218 -10.590169943749473
      vertex 6.861105308396261 16.564173488400286 -9.571067811865476
    endloop
  endfacet
  facet normal -0.12811863025459078 -0.6440958495559737 -0.7541393459875012
    outer loop
      vertex 7.317729030718607 17.66656067173218 -10.590169943749473
      vertex 0 17.928932188134524 -9.571067811865476
      vertex 0 19.12214747707527 -10.590169943749473
    endloop
  endfacet
  facet normal -0.14955310053184429 -0.7518542084736081 -0.6421441577417304
    outer loop
      vertex 0 17.928932188134524 -9.571067811865476
      vertex 6.471111806636312 15.622645887214043 -8.377852522924732
      vertex 0 16.909830056250527 -8.377852522924732
    endloop
  endfacet
  facet normal -0.1495531005318443 -0.7518542084736081 -0.6421441577417303
    outer loop
      vertex 6.471111806636312 15.622645887214043 -8.377852522924732
      vertex 0 17.928932188134524 -9.571067811865476
      vertex 6.861105308396261 16.564173488400286 -9.571067811865476
    endloop
  endfacet
  facet normal -0.16721283557342198 -0.8406356918686098 -0.5151422145156418
    outer loop
      vertex 0 16.909830056250527 -8.377852522924732
      vertex 6.157351459766315 14.86516140246561 -7.0399049973954675
      vertex 0 16.08993475811632 -7.0399049973954675
    endloop
  endfacet
  facet normal -0.16721283557342181 -0.8406356918686095 -0.5151422145156421
    outer loop
      vertex 6.157351459766315 14.86516140246561 -7.0399049973954675
      vertex 0 16.909830056250527 -8.377852522924732
      vertex 6.471111806636312 15.622645887214043 -8.377852522924732
    endloop
  endfacet
  facet normal -0.18074437515937408 -0.9086633352183309 -0.37638067707860207
    outer loop
      vertex 0 16.08993475811632 -7.0399049973954675
      vertex 5.927550088837103 14.310371816116374 -5.5901699437494745
      vertex 0 15.489434837048465 -5.5901699437494745
    endloop
  endfacet
  facet normal -0.18074437515937405 -0.9086633352183309 -0.37638067707860207
    outer loop
      vertex 5.927550088837103 14.310371816116374 -5.5901699437494745
      vertex 0 16.08993475811632 -7.0399049973954675
      vertex 6.157351459766315 14.86516140246561 -7.0399049973954675
    endloop
  endfacet
  facet normal -0.18989700136314497 -0.9546766943892143 -0.22919759611167018
    outer loop
      vertex 0 15.489434837048465 -5.5901699437494745
      vertex 5.787366166267974 13.971937889023325 -4.064344650402309
      vertex 0 15.123116594048623 -4.064344650402309
    endloop
  endfacet
  facet normal -0.18989700136314502 -0.9546766943892143 -0.22919759611166995
    outer loop
      vertex 5.787366166267974 13.971937889023325 -4.064344650402309
      vertex 0 15.489434837048465 -5.5901699437494745
      vertex 5.927550088837103 14.310371816116374 -5.5901699437494745
    endloop
  endfacet
  facet normal -0.19451171129607303 -0.9778764078797301 -0.0769605423636618
    outer loop
      vertex 0 15.123116594048623 -4.064344650402309
      vertex 5.740251485476348 13.858192987669302 -2.5000000000000004
      vertex 0 15 -2.5000000000000004
    endloop
  endfacet
  facet normal -0.19451171129607314 -0.97787640787973 -0.07696054236366126
    outer loop
      vertex 5.740251485476348 13.858192987669302 -2.5000000000000004
      vertex 0 15.123116594048623 -4.064344650402309
      vertex 5.787366166267974 13.971937889023325 -4.064344650402309
    endloop
  endfacet
  facet normal -0.19509032201612814 -0.9807852804032304 0
    outer loop
      vertex 0 15 -2.5000000000000004
      vertex 5.740251485476348 13.858192987669302 2.5
      vertex 0 15 2.5
    endloop
  endfacet
  facet normal -0.19509032201612814 -0.9807852804032304 0
    outer loop
      vertex 5.740251485476348 13.858192987669302 2.5
      vertex 0 15 -2.5000000000000004
      vertex 5.740251485476348 13.858192987669302 -2.5000000000000004
    endloop
  endfacet
  facet normal -0.19451171129607306 -0.97787640787973 0.07696054236366068
    outer loop
      vertex 5.740251485476348 13.858192987669302 2.5
      vertex 0 15.123116594048621 4.064344650402308
      vertex 0 15 2.5
    endloop
  endfacet
  facet normal -0.19451171129607325 -0.9778764078797301 0.07696054236366008
    outer loop
      vertex 0 15.123116594048621 4.064344650402308
      vertex 5.740251485476348 13.858192987669302 2.5
      vertex 5.787366166267973 13.971937889023323 4.064344650402308
    endloop
  endfacet
  facet normal -0.18989700136314494 -0.9546766943892144 0.2291975961116701
    outer loop
      vertex 5.787366166267973 13.971937889023323 4.064344650402308
      vertex 0 15.489434837048464 5.5901699437494745
      vertex 0 15.123116594048621 4.064344650402308
    endloop
  endfacet
  facet normal -0.18989700136314508 -0.9546766943892145 0.2291975961116698
    outer loop
      vertex 0 15.489434837048464 5.5901699437494745
      vertex 5.787366166267973 13.971937889023323 4.064344650402308
      vertex 5.927550088837102 14.310371816116373 5.5901699437494745
    endloop
  endfacet
  facet normal -0.180744375159374 -0.9086633352183305 0.376380677078603
    outer loop
      vertex 5.927550088837102 14.310371816116373 5.5901699437494745
      vertex 0 16.08993475811632 7.0399049973954675
      vertex 0 15.489434837048464 5.5901699437494745
    endloop
  endfacet
  facet normal -0.18074437515937397 -0.9086633352183303 0.37638067707860307
    outer loop
      vertex 0 16.08993475811632 7.0399049973954675
      vertex 5.927550088837102 14.310371816116373 5.5901699437494745
      vertex 6.157351459766315 14.86516140246561 7.0399049973954675
    endloop
  endfacet
  facet normal -0.16721283557342198 -0.8406356918686098 0.5151422145156418
    outer loop
      vertex 6.157351459766315 14.86516140246561 7.0399049973954675
      vertex 0 16.909830056250527 8.377852522924732
      vertex 0 16.08993475811632 7.0399049973954675
    endloop
  endfacet
  facet normal -0.16721283557342181 -0.8406356918686095 0.5151422145156421
    outer loop
      vertex 0 16.909830056250527 8.377852522924732
      vertex 6.157351459766315 14.86516140246561 7.0399049973954675
      vertex 6.471111806636312 15.622645887214043 8.377852522924732
    endloop
  endfacet
  facet normal -0.14955310053184426 -0.7518542084736081 0.6421441577417304
    outer loop
      vertex 6.471111806636312 15.622645887214043 8.377852522924732
      vertex 0 17.928932188134524 9.571067811865476
      vertex 0 16.909830056250527 8.377852522924732
    endloop
  endfacet
  facet normal -0.14955310053184429 -0.7518542084736081 0.6421441577417302
    outer loop
      vertex 0 17.928932188134524 9.571067811865476
      vertex 6.471111806636312 15.622645887214043 8.377852522924732
      vertex 6.861105308396261 16.564173488400286 9.571067811865476
    endloop
  endfacet
  facet normal -0.12811863025459114 -0.6440958495559753 0.7541393459874997
    outer loop
      vertex 0 19.122147477075266 10.590169943749475
      vertex 6.861105308396261 16.564173488400286 9.571067811865476
      vertex 7.317729030718606 17.666560671732178 10.590169943749475
    endloop
  endfacet
  facet normal -0.12811863025459108 -0.6440958495559752 0.7541393459874999
    outer loop
      vertex 6.861105308396261 16.564173488400286 9.571067811865476
      vertex 0 19.122147477075266 10.590169943749475
      vertex 0 17.928932188134524 9.571067811865476
    endloop
  endfacet
  facet normal -0.10337461314025609 -0.5196992751232405 0.8480721389094684
    outer loop
      vertex 0 20.460095002604533 11.41006524188368
      vertex 7.317729030718606 17.666560671732178 10.590169943749475
      vertex 7.829739382112524 18.902663006142788 11.41006524188368
    endloop
  endfacet
  facet normal -0.10337461314025595 -0.5196992751232402 0.8480721389094685
    outer loop
      vertex 7.317729030718606 17.666560671732178 10.590169943749475
      vertex 0 20.460095002604533 11.41006524188368
      vertex 0 19.122147477075266 10.590169943749475
    endloop
  endfacet
  facet normal -0.07590088788047251 -0.3815795311289153 0.9212144791753945
    outer loop
      vertex 0 21.909830056250524 12.010565162951536
      vertex 7.829739382112524 18.902663006142788 11.41006524188368
      vertex 8.38452896846176 20.24204354977047 12.010565162951536
    endloop
  endfacet
  facet normal -0.07590088788047253 -0.38157953112891535 0.9212144791753945
    outer loop
      vertex 7.829739382112524 18.902663006142788 11.41006524188368
      vertex 0 21.909830056250524 12.010565162951536
      vertex 0 20.460095002604533 11.41006524188368
    endloop
  endfacet
  facet normal -0.04638518845498709 -0.23319408976945635 0.9713232885031584
    outer loop
      vertex 0 23.43565534959769 12.376883405951379
      vertex 8.38452896846176 20.24204354977047 12.010565162951536
      vertex 8.968437028909323 21.651722308481947 12.376883405951379
    endloop
  endfacet
  facet normal -0.04638518845498711 -0.23319408976945644 0.9713232885031585
    outer loop
      vertex 8.38452896846176 20.24204354977047 12.010565162951536
      vertex 0 23.43565534959769 12.376883405951379
      vertex 0 21.909830056250524 12.010565162951536
    endloop
  endfacet
  facet normal -0.015604584244727411 -0.07844954263172296 0.9967959501379521
    outer loop
      vertex 0 25 12.5
      vertex 8.968437028909323 21.651722308481947 12.376883405951379
      vertex 9.567085809127246 23.09698831278217 12.5
    endloop
  endfacet
  facet normal -0.01560458424472746 -0.07844954263172309 0.9967959501379521
    outer loop
      vertex 8.968437028909323 21.651722308481947 12.376883405951379
      vertex 0 25 12.5
      vertex 0 23.43565534959769 12.376883405951379
    endloop
  endfacet
  facet normal 0 -1 0
    outer loop
      vertex 15 0 2.5
      vertex 25 0 12.5
      vertex 23.43565534959769 0 12.376883405951379
    endloop
  endfacet
  facet normal 0 -1 0
    outer loop
      vertex 15 0 2.5
      vertex 23.43565534959769 0 12.376883405951379
      vertex 21.909830056250524 0 12.010565162951536
    endloop
  endfacet
  facet normal 0 -1 0
    outer loop
      vertex 15 0 2.5
      vertex 21.909830056250524 0 12.010565162951536
      vertex 20.460095002604533 0 11.41006524188368
    endloop
  endfacet
  facet normal 0 -1 0
    outer loop
      vertex 15 0 2.5
      vertex 20.460095002604533 0 11.41006524188368
      vertex 19.122147477075266 0 10.590169943749475
    endloop
  endfacet
  facet normal 0 -1 0
    outer loop
      vertex 15 0 2.5
      vertex 19.122147477075266 0 10.590169943749475
      vertex 17.928932188134524 0 9.571067811865476
    endloop
  endfacet
  facet normal 0 -1 0
    outer loop
      vertex 15 0 2.5
      vertex 17.928932188134524 0 9.571067811865476
      vertex 16.909830056250527 0 8.377852522924732
    endloop
  endfacet
  facet normal 0 -1 0
    outer loop
      vertex 15 0 2.5
      vertex 16.909830056250527 0 8.377852522924732
      vertex 16.08993475811632 0 7.0399049973954675
    endloop
  endfacet
  facet normal 0 -1 0
    outer loop
      vertex 15 0 2.5
      vertex 16.08993475811632 0 7.0399049973954675
      vertex 15.489434837048464 0 5.5901699437494745
    endloop
  endfacet
  facet normal 0 -1 0
    outer loop
      vertex 15 0 2.5
      vertex 15.489434837048464 0 5.5901699437494745
      vertex 15.123116594048621 0 4.064344650402308
    endloop
  endfacet
  facet normal 0 -1 0
    outer loop
      vertex 25 0 12.5
      vertex 15 0 2.5
      vertex 25 0 -12.5
    endloop
  endfacet
  facet normal 0 -1 0
    outer loop
      vertex 25 0 -12.5
      vertex 15 0 2.5
      vertex 15 0 -2.5000000000000004
    endloop
  endfacet
  facet normal 0 -1 0
    outer loop
      vertex 25 0 -12.5
      vertex 15 0 -2.5000000000000004
      vertex 15.123116594048623 0 -4.064344650402309
    endloop
  endfacet
  facet normal 0 -1 0
    outer loop
      vertex 25 0 -12.5
      vertex 15.123116594048623 0 -4.064344650402309
      vertex 15.489434837048465 0 -5.5901699437494745
    endloop
  endfacet
  facet normal 0 -1 0
    outer loop
      vertex 25 0 -12.5
      vertex 15.489434837048465 0 -5.5901699437494745
      vertex 16.08993475811632 0 -7.0399049973954675
    endloop
  endfacet
  facet normal 0 -1 0
    outer loop
      vertex 25 0 -12.5
      vertex 16.08993475811632 0 -7.0399049973954675
      vertex 16.909830056250527 0 -8.377852522924732
    endloop
  endfacet
  facet normal 0 -1 0
    outer loop
      vertex 25 0 -12.5
      vertex 16.909830056250527 0 -8.377852522924732
      vertex 17.928932188134524 0 -9.571067811865476
    endloop
  endfacet
  facet normal 0 -1 0
    outer loop
      vertex 25 0 -12.5
      vertex 17.928932188134524 0 -9.571067811865476
      vertex 19.12214747707527 0 -10.590169943749473
    endloop
  endfacet
  facet normal 0 -1 0
    outer loop
      vertex 25 0 -12.5
      vertex 19.12214747707527 0 -10.590169943749473
      vertex 20.460095002604533 0 -11.410065241883679
    endloop
  endfacet
  facet normal 0 -1 0
    outer loop
      vertex 25 0 -12.5
      vertex 20.460095002604533 0 -11.410065241883679
      vertex 21.909830056250527 0 -12.010565162951536
    endloop
  endfacet
  facet normal 0 -1 0
    outer loop
      vertex 25 0 -12.5
      vertex 21.909830056250527 0 -12.010565162951536
      vertex 23.435655349597692 0 -12.376883405951379
    endloop
  endfacet
  facet normal 0 -1 0
    outer loop
      vertex 25 0 12.5
      vertex 25 0 -12.5
      vertex 55 0 12.5
    endloop
  endfacet
  facet normal 0 -1 0
    outer loop
      vertex 55 0 12.5
      vertex 25 0 -12.5
      vertex 55 0 -12.5
    endloop
  endfacet
  facet normal -1 0 0
    outer loop
      vertex 0 25 -12.5
      vertex 0 55 12.5
      vertex 0 55 -12.5
    endloop
  endfacet
  facet normal -1 0 0
    outer loop
      vertex 0 25 -12.5
      vertex 0 25 12.5
      vertex 0 55 12.5
    endloop
  endfacet
  facet normal -1 0 0
    outer loop
      vertex 0 15 -2.5000000000000004
      vertex 0 25 -12.5
      vertex 0 23.435655349597692 -12.376883405951379
    endloop
  endfacet
  facet normal -1 0 0
    outer loop
      vertex 0 25 -12.5
      vertex 0 15 -2.5000000000000004
      vertex 0 25 12.5
    endloop
  endfacet
  facet normal -1 0 0
    outer loop
      vertex 0 15 -2.5000000000000004
      vertex 0 23.435655349597692 -12.376883405951379
      vertex 0 21.909830056250527 -12.010565162951536
    endloop
  endfacet
  facet normal -1 0 0
    outer loop
      vertex 0 15 2.5
      vertex 0 25 12.5
      vertex 0 15 -2.5000000000000004
    endloop
  endfacet
  facet normal -1 0 0
    outer loop
      vertex 0 15 -2.5000000000000004
      vertex 0 21.909830056250527 -12.010565162951536
      vertex 0 20.460095002604533 -11.410065241883679
    endloop
  endfacet
  facet normal -1 0 0
    outer loop
      vertex 0 25 12.5
      vertex 0 15 2.5
      vertex 0 23.43565534959769 12.376883405951379
    endloop
  endfacet
  facet normal -1 0 0
    outer loop
      vertex 0 15 -2.5000000000000004
      vertex 0 20.460095002604533 -11.410065241883679
      vertex 0 19.12214747707527 -10.590169943749473
    endloop
  endfacet
  facet normal -1 0 0
    outer loop
      vertex 0 23.43565534959769 12.376883405951379
      vertex 0 15 2.5
      vertex 0 21.909830056250524 12.010565162951536
    endloop
  endfacet
  facet normal -1 0 0
    outer loop
      vertex 0 15 -2.5000000000000004
      vertex 0 19.12214747707527 -10.590169943749473
      vertex 0 17.928932188134524 -9.571067811865476
    endloop
  endfacet
  facet normal -1 0 0
    outer loop
      vertex 0 21.909830056250524 12.010565162951536
      vertex 0 15 2.5
      vertex 0 20.460095002604533 11.41006524188368
    endloop
  endfacet
  facet normal -1 0 0
    outer loop
      vertex 0 15 -2.5000000000000004
      vertex 0 17.928932188134524 -9.571067811865476
      vertex 0 16.909830056250527 -8.377852522924732
    endloop
  endfacet
  facet normal -1 0 0
    outer loop
      vertex 0 20.460095002604533 11.41006524188368
      vertex 0 15 2.5
      vertex 0 19.122147477075266 10.590169943749475
    endloop
  endfacet
  facet normal -1 0 0
    outer loop
      vertex 0 15 -2.5000000000000004
      vertex 0 16.909830056250527 -8.377852522924732
      vertex 0 16.08993475811632 -7.0399049973954675
    endloop
  endfacet
  facet normal -1 0 0
    outer loop
      vertex 0 19.122147477075266 10.590169943749475
      vertex 0 15 2.5
      vertex 0 17.928932188134524 9.571067811865476
    endloop
  endfacet
  facet normal -1 0 0
    outer loop
      vertex 0 15 -2.5000000000000004
      vertex 0 16.08993475811632 -7.0399049973954675
      vertex 0 15.489434837048465 -5.5901699437494745
    endloop
  endfacet
  facet normal -1 0 0
    outer loop
      vertex 0 17.928932188134524 9.571067811865476
      vertex 0 15 2.5
      vertex 0 16.909830056250527 8.377852522924732
    endloop
  endfacet
  facet normal -1 0 0
    outer loop
      vertex 0 15 -2.5000000000000004
      vertex 0 15.489434837048465 -5.5901699437494745
      vertex 0 15.123116594048623 -4.064344650402309
    endloop
  endfacet
  facet normal -1 0 0
    outer loop
      vertex 0 16.909830056250527 8.377852522924732
      vertex 0 15 2.5
      vertex 0 16.08993475811632 7.0399049973954675
    endloop
  endfacet
  facet normal -1 0 0
    outer loop
      vertex 0 16.08993475811632 7.0399049973954675
      vertex 0 15 2.5
      vertex 0 15.489434837048464 5.5901699437494745
    endloop
  endfacet
  facet normal -1 0 0
    outer loop
      vertex 0 15.489434837048464 5.5901699437494745
      vertex 0 15 2.5
      vertex 0 15.123116594048621 4.064344650402308
    endloop
  endfacet
endsolid OpenSCAD_Model
