<?xml version="1.0" encoding="UTF-8" standalone="no"?>
<!DOCTYPE svg PUBLIC "-//W3C//DTD SVG 1.1//EN"
 "http://www.w3.org/Graphics/SVG/1.1/DTD/svg11.dtd">
<!-- Generated by graphviz version 5.0.0 (20220707.1540)
 -->
<!-- Title: default Pages: 1 -->
<svg width="495pt" height="638pt"
 viewBox="0.00 0.00 494.57 638.00" xmlns="http://www.w3.org/2000/svg" xmlns:xlink="http://www.w3.org/1999/xlink">
<g id="graph0" class="graph" transform="scale(1 1) rotate(0) translate(4 634)">
<title>default</title>
<polygon fill="white" stroke="transparent" points="-4,4 -4,-634 490.57,-634 490.57,4 -4,4"/>
<!-- root_69 -->
<g id="node1" class="node">
<title>root_69</title>
<g id="a_node1"><a xlink:href="javascript:s=&quot;\(\)\nNone&quot;; console.log(s); alert(s);" xlink:title="root">
<ellipse fill="none" stroke="black" cx="27" cy="-396" rx="27" ry="18"/>
<text text-anchor="middle" x="27" y="-392.3" font-family="Times New Roman,serif" font-size="14.00">root</text>
</a>
</g>
</g>
<!-- default_70 -->
<g id="node2" class="node">
<title>default_70</title>
<g id="a_node2"><a xlink:href="javascript:s=&quot;\(&#x27;default&#x27;,\)\nStadiumRevolution&quot;; console.log(s); alert(s);" xlink:title="StadiumRevolution">
<ellipse fill="none" stroke="black" cx="126.4" cy="-504" rx="35.19" ry="18"/>
<text text-anchor="middle" x="126.4" y="-500.3" font-family="Times New Roman,serif" font-size="14.00">default</text>
</a>
</g>
</g>
<!-- root_69&#45;&gt;default_70 -->
<g id="edge1" class="edge">
<title>root_69&#45;&gt;default_70</title>
<path fill="none" stroke="black" d="M41.95,-411.47C58.19,-429.47 85.16,-459.38 104.03,-480.31"/>
<polygon fill="black" stroke="black" points="101.54,-482.77 110.83,-487.85 106.73,-478.08 101.54,-482.77"/>
</g>
<!-- 72 -->
<g id="node4" class="node">
<title>72</title>
<g id="a_node4"><a xlink:href="javascript:s=&quot;\(&quot;&#x27;top&#x27;,\ &quot;,\)\nAnnotatedCoordinates&quot;; console.log(s); alert(s);" xlink:title="AnnotatedCoordinates">
<ellipse fill="none" stroke="black" cx="126.4" cy="-396" rx="31.7" ry="18"/>
<text text-anchor="middle" x="126.4" y="-392.3" font-family="Times New Roman,serif" font-size="14.00">&#39;top&#39;, </text>
</a>
</g>
</g>
<!-- root_69&#45;&gt;72 -->
<g id="edge3" class="edge">
<title>root_69&#45;&gt;72</title>
<path fill="none" stroke="black" d="M54.1,-396C63.4,-396 74.11,-396 84.35,-396"/>
<polygon fill="black" stroke="black" points="84.37,-399.5 94.37,-396 84.37,-392.5 84.37,-399.5"/>
</g>
<!-- 88 -->
<g id="node20" class="node">
<title>88</title>
<g id="a_node20"><a xlink:href="javascript:s=&quot;\(&quot;&#x27;base&#x27;,\ &quot;,\)\nAnnotatedCoordinates&quot;; console.log(s); alert(s);" xlink:title="AnnotatedCoordinates">
<ellipse fill="none" stroke="black" cx="126.4" cy="-153" rx="36.29" ry="18"/>
<text text-anchor="middle" x="126.4" y="-149.3" font-family="Times New Roman,serif" font-size="14.00">&#39;base&#39;, </text>
</a>
</g>
</g>
<!-- root_69&#45;&gt;88 -->
<g id="edge19" class="edge">
<title>root_69&#45;&gt;88</title>
<path fill="none" stroke="black" d="M35,-378.52C51.78,-336.68 94.34,-230.49 114.49,-180.2"/>
<polygon fill="black" stroke="black" points="117.85,-181.23 118.32,-170.64 111.36,-178.62 117.85,-181.23"/>
</g>
<!-- stadium_71 -->
<g id="node3" class="node">
<title>stadium_71</title>
<g id="a_node3"><a xlink:href="javascript:s=&quot;\(&#x27;default&#x27;,\ &#x27;stadium&#x27;\)\nRotateExtrude&quot;; console.log(s); alert(s);" xlink:title="RotateExtrude">
<ellipse fill="none" stroke="black" cx="237.79" cy="-558" rx="38.99" ry="18"/>
<text text-anchor="middle" x="237.79" y="-554.3" font-family="Times New Roman,serif" font-size="14.00">stadium</text>
</a>
</g>
</g>
<!-- default_70&#45;&gt;stadium_71 -->
<g id="edge2" class="edge">
<title>default_70&#45;&gt;stadium_71</title>
<path fill="none" stroke="black" d="M152.22,-516.25C166.76,-523.43 185.37,-532.62 201.43,-540.55"/>
<polygon fill="black" stroke="black" points="200.02,-543.75 210.54,-545.04 203.12,-537.48 200.02,-543.75"/>
</g>
<!-- coords_73 -->
<g id="node5" class="node">
<title>coords_73</title>
<g id="a_node5"><a xlink:href="javascript:s=&quot;\(&quot;&#x27;top&#x27;,\ &quot;,\ &#x27;coords&#x27;\)\nCoordinates&quot;; console.log(s); alert(s);" xlink:title="Coordinates">
<ellipse fill="none" stroke="black" cx="237.79" cy="-504" rx="36.29" ry="18"/>
<text text-anchor="middle" x="237.79" y="-500.3" font-family="Times New Roman,serif" font-size="14.00">coords</text>
</a>
</g>
</g>
<!-- 72&#45;&gt;coords_73 -->
<g id="edge4" class="edge">
<title>72&#45;&gt;coords_73</title>
<path fill="none" stroke="black" d="M140.08,-412.52C153.63,-429.64 176.23,-456.68 198.79,-477 201.26,-479.22 203.91,-481.42 206.62,-483.55"/>
<polygon fill="black" stroke="black" points="204.72,-486.5 214.83,-489.69 208.91,-480.9 204.72,-486.5"/>
</g>
<!-- x_84 -->
<g id="node16" class="node">
<title>x_84</title>
<g id="a_node16"><a xlink:href="javascript:s=&quot;\(&quot;&#x27;top&#x27;,\ &quot;,\ &#x27;x&#x27;\)\nText&quot;; console.log(s); alert(s);" xlink:title="Text">
<ellipse fill="none" stroke="black" cx="237.79" cy="-450" rx="27" ry="18"/>
<text text-anchor="middle" x="237.79" y="-446.3" font-family="Times New Roman,serif" font-size="14.00">x</text>
</a>
</g>
</g>
<!-- 72&#45;&gt;x_84 -->
<g id="edge15" class="edge">
<title>72&#45;&gt;x_84</title>
<path fill="none" stroke="black" d="M150.86,-407.58C167.07,-415.59 188.78,-426.3 206.33,-434.96"/>
<polygon fill="black" stroke="black" points="205.07,-438.24 215.58,-439.53 208.17,-431.97 205.07,-438.24"/>
</g>
<!-- y_85 -->
<g id="node17" class="node">
<title>y_85</title>
<g id="a_node17"><a xlink:href="javascript:s=&quot;\(&quot;&#x27;top&#x27;,\ &quot;,\ &#x27;y&#x27;\)\nText&quot;; console.log(s); alert(s);" xlink:title="Text">
<ellipse fill="none" stroke="black" cx="237.79" cy="-396" rx="27" ry="18"/>
<text text-anchor="middle" x="237.79" y="-392.3" font-family="Times New Roman,serif" font-size="14.00">y</text>
</a>
</g>
</g>
<!-- 72&#45;&gt;y_85 -->
<g id="edge16" class="edge">
<title>72&#45;&gt;y_85</title>
<path fill="none" stroke="black" d="M158.45,-396C171.54,-396 186.86,-396 200.47,-396"/>
<polygon fill="black" stroke="black" points="200.47,-399.5 210.47,-396 200.47,-392.5 200.47,-399.5"/>
</g>
<!-- z_86 -->
<g id="node18" class="node">
<title>z_86</title>
<g id="a_node18"><a xlink:href="javascript:s=&quot;\(&quot;&#x27;top&#x27;,\ &quot;,\ &#x27;z&#x27;\)\nText&quot;; console.log(s); alert(s);" xlink:title="Text">
<ellipse fill="none" stroke="black" cx="237.79" cy="-342" rx="27" ry="18"/>
<text text-anchor="middle" x="237.79" y="-338.3" font-family="Times New Roman,serif" font-size="14.00">z</text>
</a>
</g>
</g>
<!-- 72&#45;&gt;z_86 -->
<g id="edge17" class="edge">
<title>72&#45;&gt;z_86</title>
<path fill="none" stroke="black" d="M150.86,-384.42C167.07,-376.41 188.78,-365.7 206.33,-357.04"/>
<polygon fill="black" stroke="black" points="208.17,-360.03 215.58,-352.47 205.07,-353.76 208.17,-360.03"/>
</g>
<!-- label_87 -->
<g id="node19" class="node">
<title>label_87</title>
<g id="a_node19"><a xlink:href="javascript:s=&quot;\(&quot;&#x27;top&#x27;,\ &quot;,\ &#x27;label&#x27;\)\nText&quot;; console.log(s); alert(s);" xlink:title="Text">
<ellipse fill="none" stroke="black" cx="237.79" cy="-288" rx="27.1" ry="18"/>
<text text-anchor="middle" x="237.79" y="-284.3" font-family="Times New Roman,serif" font-size="14.00">label</text>
</a>
</g>
</g>
<!-- 72&#45;&gt;label_87 -->
<g id="edge18" class="edge">
<title>72&#45;&gt;label_87</title>
<path fill="none" stroke="black" d="M140.08,-379.48C153.63,-362.36 176.23,-335.32 198.79,-315 202.04,-312.08 205.61,-309.18 209.22,-306.44"/>
<polygon fill="black" stroke="black" points="211.55,-309.07 217.58,-300.37 207.43,-303.41 211.55,-309.07"/>
</g>
<!-- origin_74 -->
<g id="node6" class="node">
<title>origin_74</title>
<g id="a_node6"><a xlink:href="javascript:s=&quot;\(&quot;&#x27;top&#x27;,\ &quot;,\ &#x27;coords&#x27;,\ &#x27;origin&#x27;\)\nCoordinatesCage&quot;; console.log(s); alert(s);" xlink:title="CoordinatesCage">
<ellipse fill="none" stroke="black" cx="353.73" cy="-612" rx="31.4" ry="18"/>
<text text-anchor="middle" x="353.73" y="-608.3" font-family="Times New Roman,serif" font-size="14.00">origin</text>
</a>
</g>
</g>
<!-- coords_73&#45;&gt;origin_74 -->
<g id="edge5" class="edge">
<title>coords_73&#45;&gt;origin_74</title>
<path fill="none" stroke="black" d="M261.18,-517.86C266.61,-521.76 272.16,-526.24 276.79,-531 296.88,-551.7 292.46,-564.54 312.79,-585 315.77,-588.01 319.14,-590.88 322.62,-593.55"/>
<polygon fill="black" stroke="black" points="320.65,-596.45 330.83,-599.41 324.72,-590.75 320.65,-596.45"/>
</g>
<!-- x_arrow_75 -->
<g id="node7" class="node">
<title>x_arrow_75</title>
<g id="a_node7"><a xlink:href="javascript:s=&quot;\(&quot;&#x27;top&#x27;,\ &quot;,\ &#x27;coords&#x27;,\ &#x27;x_arrow&#x27;\)\nArrow&quot;; console.log(s); alert(s);" xlink:title="Arrow">
<ellipse fill="none" stroke="black" cx="353.73" cy="-558" rx="40.89" ry="18"/>
<text text-anchor="middle" x="353.73" y="-554.3" font-family="Times New Roman,serif" font-size="14.00">x_arrow</text>
</a>
</g>
</g>
<!-- coords_73&#45;&gt;x_arrow_75 -->
<g id="edge6" class="edge">
<title>coords_73&#45;&gt;x_arrow_75</title>
<path fill="none" stroke="black" d="M264.65,-516.25C279.68,-523.38 298.9,-532.49 315.54,-540.37"/>
<polygon fill="black" stroke="black" points="314.45,-543.73 324.99,-544.85 317.45,-537.41 314.45,-543.73"/>
</g>
<!-- y_arrow_78 -->
<g id="node10" class="node">
<title>y_arrow_78</title>
<g id="a_node10"><a xlink:href="javascript:s=&quot;\(&quot;&#x27;top&#x27;,\ &quot;,\ &#x27;coords&#x27;,\ &#x27;y_arrow&#x27;\)\nArrow&quot;; console.log(s); alert(s);" xlink:title="Arrow">
<ellipse fill="none" stroke="black" cx="353.73" cy="-504" rx="40.89" ry="18"/>
<text text-anchor="middle" x="353.73" y="-500.3" font-family="Times New Roman,serif" font-size="14.00">y_arrow</text>
</a>
</g>
</g>
<!-- coords_73&#45;&gt;y_arrow_78 -->
<g id="edge9" class="edge">
<title>coords_73&#45;&gt;y_arrow_78</title>
<path fill="none" stroke="black" d="M274.22,-504C283.14,-504 292.89,-504 302.39,-504"/>
<polygon fill="black" stroke="black" points="302.55,-507.5 312.55,-504 302.55,-500.5 302.55,-507.5"/>
</g>
<!-- z_arrow_81 -->
<g id="node13" class="node">
<title>z_arrow_81</title>
<g id="a_node13"><a xlink:href="javascript:s=&quot;\(&quot;&#x27;top&#x27;,\ &quot;,\ &#x27;coords&#x27;,\ &#x27;z_arrow&#x27;\)\nArrow&quot;; console.log(s); alert(s);" xlink:title="Arrow">
<ellipse fill="none" stroke="black" cx="353.73" cy="-396" rx="40.09" ry="18"/>
<text text-anchor="middle" x="353.73" y="-392.3" font-family="Times New Roman,serif" font-size="14.00">z_arrow</text>
</a>
</g>
</g>
<!-- coords_73&#45;&gt;z_arrow_81 -->
<g id="edge12" class="edge">
<title>coords_73&#45;&gt;z_arrow_81</title>
<path fill="none" stroke="black" d="M260.66,-489.58C266.09,-485.7 271.79,-481.36 276.79,-477 296.88,-459.46 317.44,-437.22 332.09,-420.48"/>
<polygon fill="black" stroke="black" points="334.88,-422.6 338.78,-412.75 329.59,-418.02 334.88,-422.6"/>
</g>
<!-- stem_76 -->
<g id="node8" class="node">
<title>stem_76</title>
<g id="a_node8"><a xlink:href="javascript:s=&quot;\(&quot;&#x27;top&#x27;,\ &quot;,\ &#x27;coords&#x27;,\ &#x27;x_arrow&#x27;,\ &#x27;stem&#x27;\)\nCone&quot;; console.log(s); alert(s);" xlink:title="Cone">
<ellipse fill="none" stroke="black" cx="458.63" cy="-612" rx="27.9" ry="18"/>
<text text-anchor="middle" x="458.63" y="-608.3" font-family="Times New Roman,serif" font-size="14.00">stem</text>
</a>
</g>
</g>
<!-- x_arrow_75&#45;&gt;stem_76 -->
<g id="edge7" class="edge">
<title>x_arrow_75&#45;&gt;stem_76</title>
<path fill="none" stroke="black" d="M380.7,-571.63C394.86,-579.06 412.47,-588.3 427.27,-596.07"/>
<polygon fill="black" stroke="black" points="426.04,-599.37 436.52,-600.92 429.29,-593.18 426.04,-599.37"/>
</g>
<!-- head_77 -->
<g id="node9" class="node">
<title>head_77</title>
<g id="a_node9"><a xlink:href="javascript:s=&quot;\(&quot;&#x27;top&#x27;,\ &quot;,\ &#x27;coords&#x27;,\ &#x27;x_arrow&#x27;,\ &#x27;head&#x27;\)\nCone&quot;; console.log(s); alert(s);" xlink:title="Cone">
<ellipse fill="none" stroke="black" cx="458.63" cy="-558" rx="27.9" ry="18"/>
<text text-anchor="middle" x="458.63" y="-554.3" font-family="Times New Roman,serif" font-size="14.00">head</text>
</a>
</g>
</g>
<!-- x_arrow_75&#45;&gt;head_77 -->
<g id="edge8" class="edge">
<title>x_arrow_75&#45;&gt;head_77</title>
<path fill="none" stroke="black" d="M394.81,-558C403.22,-558 412.06,-558 420.36,-558"/>
<polygon fill="black" stroke="black" points="420.52,-561.5 430.52,-558 420.52,-554.5 420.52,-561.5"/>
</g>
<!-- stem_79 -->
<g id="node11" class="node">
<title>stem_79</title>
<g id="a_node11"><a xlink:href="javascript:s=&quot;\(&quot;&#x27;top&#x27;,\ &quot;,\ &#x27;coords&#x27;,\ &#x27;y_arrow&#x27;,\ &#x27;stem&#x27;\)\nCone&quot;; console.log(s); alert(s);" xlink:title="Cone">
<ellipse fill="none" stroke="black" cx="458.63" cy="-504" rx="27.9" ry="18"/>
<text text-anchor="middle" x="458.63" y="-500.3" font-family="Times New Roman,serif" font-size="14.00">stem</text>
</a>
</g>
</g>
<!-- y_arrow_78&#45;&gt;stem_79 -->
<g id="edge10" class="edge">
<title>y_arrow_78&#45;&gt;stem_79</title>
<path fill="none" stroke="black" d="M394.81,-504C403.22,-504 412.06,-504 420.36,-504"/>
<polygon fill="black" stroke="black" points="420.52,-507.5 430.52,-504 420.52,-500.5 420.52,-507.5"/>
</g>
<!-- head_80 -->
<g id="node12" class="node">
<title>head_80</title>
<g id="a_node12"><a xlink:href="javascript:s=&quot;\(&quot;&#x27;top&#x27;,\ &quot;,\ &#x27;coords&#x27;,\ &#x27;y_arrow&#x27;,\ &#x27;head&#x27;\)\nCone&quot;; console.log(s); alert(s);" xlink:title="Cone">
<ellipse fill="none" stroke="black" cx="458.63" cy="-450" rx="27.9" ry="18"/>
<text text-anchor="middle" x="458.63" y="-446.3" font-family="Times New Roman,serif" font-size="14.00">head</text>
</a>
</g>
</g>
<!-- y_arrow_78&#45;&gt;head_80 -->
<g id="edge11" class="edge">
<title>y_arrow_78&#45;&gt;head_80</title>
<path fill="none" stroke="black" d="M380.7,-490.37C394.86,-482.94 412.47,-473.7 427.27,-465.93"/>
<polygon fill="black" stroke="black" points="429.29,-468.82 436.52,-461.08 426.04,-462.63 429.29,-468.82"/>
</g>
<!-- stem_82 -->
<g id="node14" class="node">
<title>stem_82</title>
<g id="a_node14"><a xlink:href="javascript:s=&quot;\(&quot;&#x27;top&#x27;,\ &quot;,\ &#x27;coords&#x27;,\ &#x27;z_arrow&#x27;,\ &#x27;stem&#x27;\)\nCone&quot;; console.log(s); alert(s);" xlink:title="Cone">
<ellipse fill="none" stroke="black" cx="458.63" cy="-396" rx="27.9" ry="18"/>
<text text-anchor="middle" x="458.63" y="-392.3" font-family="Times New Roman,serif" font-size="14.00">stem</text>
</a>
</g>
</g>
<!-- z_arrow_81&#45;&gt;stem_82 -->
<g id="edge13" class="edge">
<title>z_arrow_81&#45;&gt;stem_82</title>
<path fill="none" stroke="black" d="M394.22,-396C402.84,-396 411.94,-396 420.47,-396"/>
<polygon fill="black" stroke="black" points="420.52,-399.5 430.52,-396 420.52,-392.5 420.52,-399.5"/>
</g>
<!-- head_83 -->
<g id="node15" class="node">
<title>head_83</title>
<g id="a_node15"><a xlink:href="javascript:s=&quot;\(&quot;&#x27;top&#x27;,\ &quot;,\ &#x27;coords&#x27;,\ &#x27;z_arrow&#x27;,\ &#x27;head&#x27;\)\nCone&quot;; console.log(s); alert(s);" xlink:title="Cone">
<ellipse fill="none" stroke="black" cx="458.63" cy="-342" rx="27.9" ry="18"/>
<text text-anchor="middle" x="458.63" y="-338.3" font-family="Times New Roman,serif" font-size="14.00">head</text>
</a>
</g>
</g>
<!-- z_arrow_81&#45;&gt;head_83 -->
<g id="edge14" class="edge">
<title>z_arrow_81&#45;&gt;head_83</title>
<path fill="none" stroke="black" d="M380.43,-382.51C394.73,-375.01 412.6,-365.63 427.54,-357.79"/>
<polygon fill="black" stroke="black" points="429.18,-360.88 436.41,-353.14 425.93,-354.68 429.18,-360.88"/>
</g>
<!-- coords_89 -->
<g id="node21" class="node">
<title>coords_89</title>
<g id="a_node21"><a xlink:href="javascript:s=&quot;\(&quot;&#x27;base&#x27;,\ &quot;,\ &#x27;coords&#x27;\)\nCoordinates&quot;; console.log(s); alert(s);" xlink:title="Coordinates">
<ellipse fill="none" stroke="black" cx="237.79" cy="-234" rx="36.29" ry="18"/>
<text text-anchor="middle" x="237.79" y="-230.3" font-family="Times New Roman,serif" font-size="14.00">coords</text>
</a>
</g>
</g>
<!-- 88&#45;&gt;coords_89 -->
<g id="edge20" class="edge">
<title>88&#45;&gt;coords_89</title>
<path fill="none" stroke="black" d="M146.98,-168.06C161.26,-178.98 181.12,-194.04 198.79,-207 201.62,-209.07 204.58,-211.22 207.54,-213.35"/>
<polygon fill="black" stroke="black" points="205.64,-216.29 215.81,-219.26 209.71,-210.59 205.64,-216.29"/>
</g>
<!-- x_100 -->
<g id="node32" class="node">
<title>x_100</title>
<g id="a_node32"><a xlink:href="javascript:s=&quot;\(&quot;&#x27;base&#x27;,\ &quot;,\ &#x27;x&#x27;\)\nText&quot;; console.log(s); alert(s);" xlink:title="Text">
<ellipse fill="none" stroke="black" cx="237.79" cy="-180" rx="27" ry="18"/>
<text text-anchor="middle" x="237.79" y="-176.3" font-family="Times New Roman,serif" font-size="14.00">x</text>
</a>
</g>
</g>
<!-- 88&#45;&gt;x_100 -->
<g id="edge31" class="edge">
<title>88&#45;&gt;x_100</title>
<path fill="none" stroke="black" d="M159.33,-160.88C172.8,-164.21 188.51,-168.08 202.25,-171.47"/>
<polygon fill="black" stroke="black" points="201.75,-174.96 212.3,-173.95 203.43,-168.16 201.75,-174.96"/>
</g>
<!-- y_101 -->
<g id="node33" class="node">
<title>y_101</title>
<g id="a_node33"><a xlink:href="javascript:s=&quot;\(&quot;&#x27;base&#x27;,\ &quot;,\ &#x27;y&#x27;\)\nText&quot;; console.log(s); alert(s);" xlink:title="Text">
<ellipse fill="none" stroke="black" cx="237.79" cy="-126" rx="27" ry="18"/>
<text text-anchor="middle" x="237.79" y="-122.3" font-family="Times New Roman,serif" font-size="14.00">y</text>
</a>
</g>
</g>
<!-- 88&#45;&gt;y_101 -->
<g id="edge32" class="edge">
<title>88&#45;&gt;y_101</title>
<path fill="none" stroke="black" d="M159.33,-145.12C172.8,-141.79 188.51,-137.92 202.25,-134.53"/>
<polygon fill="black" stroke="black" points="203.43,-137.84 212.3,-132.05 201.75,-131.04 203.43,-137.84"/>
</g>
<!-- z_102 -->
<g id="node34" class="node">
<title>z_102</title>
<g id="a_node34"><a xlink:href="javascript:s=&quot;\(&quot;&#x27;base&#x27;,\ &quot;,\ &#x27;z&#x27;\)\nText&quot;; console.log(s); alert(s);" xlink:title="Text">
<ellipse fill="none" stroke="black" cx="237.79" cy="-72" rx="27" ry="18"/>
<text text-anchor="middle" x="237.79" y="-68.3" font-family="Times New Roman,serif" font-size="14.00">z</text>
</a>
</g>
</g>
<!-- 88&#45;&gt;z_102 -->
<g id="edge33" class="edge">
<title>88&#45;&gt;z_102</title>
<path fill="none" stroke="black" d="M146.98,-137.94C161.26,-127.02 181.12,-111.96 198.79,-99 202.49,-96.29 206.41,-93.46 210.28,-90.69"/>
<polygon fill="black" stroke="black" points="212.43,-93.45 218.54,-84.8 208.37,-87.75 212.43,-93.45"/>
</g>
<!-- label_103 -->
<g id="node35" class="node">
<title>label_103</title>
<g id="a_node35"><a xlink:href="javascript:s=&quot;\(&quot;&#x27;base&#x27;,\ &quot;,\ &#x27;label&#x27;\)\nText&quot;; console.log(s); alert(s);" xlink:title="Text">
<ellipse fill="none" stroke="black" cx="237.79" cy="-18" rx="27.1" ry="18"/>
<text text-anchor="middle" x="237.79" y="-14.3" font-family="Times New Roman,serif" font-size="14.00">label</text>
</a>
</g>
</g>
<!-- 88&#45;&gt;label_103 -->
<g id="edge34" class="edge">
<title>88&#45;&gt;label_103</title>
<path fill="none" stroke="black" d="M136.31,-135.51C148.39,-112.91 171.61,-73.12 198.79,-45 201.83,-41.86 205.28,-38.84 208.83,-36.03"/>
<polygon fill="black" stroke="black" points="211.17,-38.66 217.14,-29.91 207.02,-33.02 211.17,-38.66"/>
</g>
<!-- origin_90 -->
<g id="node22" class="node">
<title>origin_90</title>
<g id="a_node22"><a xlink:href="javascript:s=&quot;\(&quot;&#x27;base&#x27;,\ &quot;,\ &#x27;coords&#x27;,\ &#x27;origin&#x27;\)\nCoordinatesCage&quot;; console.log(s); alert(s);" xlink:title="CoordinatesCage">
<ellipse fill="none" stroke="black" cx="353.73" cy="-288" rx="31.4" ry="18"/>
<text text-anchor="middle" x="353.73" y="-284.3" font-family="Times New Roman,serif" font-size="14.00">origin</text>
</a>
</g>
</g>
<!-- coords_89&#45;&gt;origin_90 -->
<g id="edge21" class="edge">
<title>coords_89&#45;&gt;origin_90</title>
<path fill="none" stroke="black" d="M264.65,-246.25C280.93,-253.97 302.12,-264.01 319.63,-272.31"/>
<polygon fill="black" stroke="black" points="318.39,-275.6 328.92,-276.72 321.39,-269.27 318.39,-275.6"/>
</g>
<!-- x_arrow_91 -->
<g id="node23" class="node">
<title>x_arrow_91</title>
<g id="a_node23"><a xlink:href="javascript:s=&quot;\(&quot;&#x27;base&#x27;,\ &quot;,\ &#x27;coords&#x27;,\ &#x27;x_arrow&#x27;\)\nArrow&quot;; console.log(s); alert(s);" xlink:title="Arrow">
<ellipse fill="none" stroke="black" cx="353.73" cy="-234" rx="40.89" ry="18"/>
<text text-anchor="middle" x="353.73" y="-230.3" font-family="Times New Roman,serif" font-size="14.00">x_arrow</text>
</a>
</g>
</g>
<!-- coords_89&#45;&gt;x_arrow_91 -->
<g id="edge22" class="edge">
<title>coords_89&#45;&gt;x_arrow_91</title>
<path fill="none" stroke="black" d="M274.22,-234C283.14,-234 292.89,-234 302.39,-234"/>
<polygon fill="black" stroke="black" points="302.55,-237.5 312.55,-234 302.55,-230.5 302.55,-237.5"/>
</g>
<!-- y_arrow_94 -->
<g id="node26" class="node">
<title>y_arrow_94</title>
<g id="a_node26"><a xlink:href="javascript:s=&quot;\(&quot;&#x27;base&#x27;,\ &quot;,\ &#x27;coords&#x27;,\ &#x27;y_arrow&#x27;\)\nArrow&quot;; console.log(s); alert(s);" xlink:title="Arrow">
<ellipse fill="none" stroke="black" cx="353.73" cy="-180" rx="40.89" ry="18"/>
<text text-anchor="middle" x="353.73" y="-176.3" font-family="Times New Roman,serif" font-size="14.00">y_arrow</text>
</a>
</g>
</g>
<!-- coords_89&#45;&gt;y_arrow_94 -->
<g id="edge25" class="edge">
<title>coords_89&#45;&gt;y_arrow_94</title>
<path fill="none" stroke="black" d="M264.65,-221.75C279.68,-214.62 298.9,-205.51 315.54,-197.63"/>
<polygon fill="black" stroke="black" points="317.45,-200.59 324.99,-193.15 314.45,-194.27 317.45,-200.59"/>
</g>
<!-- z_arrow_97 -->
<g id="node29" class="node">
<title>z_arrow_97</title>
<g id="a_node29"><a xlink:href="javascript:s=&quot;\(&quot;&#x27;base&#x27;,\ &quot;,\ &#x27;coords&#x27;,\ &#x27;z_arrow&#x27;\)\nArrow&quot;; console.log(s); alert(s);" xlink:title="Arrow">
<ellipse fill="none" stroke="black" cx="353.73" cy="-72" rx="40.09" ry="18"/>
<text text-anchor="middle" x="353.73" y="-68.3" font-family="Times New Roman,serif" font-size="14.00">z_arrow</text>
</a>
</g>
</g>
<!-- coords_89&#45;&gt;z_arrow_97 -->
<g id="edge28" class="edge">
<title>coords_89&#45;&gt;z_arrow_97</title>
<path fill="none" stroke="black" d="M261.83,-220.09C267.12,-216.25 272.46,-211.81 276.79,-207 292.57,-189.46 322.41,-132.52 339.61,-98.45"/>
<polygon fill="black" stroke="black" points="342.74,-100 344.1,-89.5 336.49,-96.86 342.74,-100"/>
</g>
<!-- stem_92 -->
<g id="node24" class="node">
<title>stem_92</title>
<g id="a_node24"><a xlink:href="javascript:s=&quot;\(&quot;&#x27;base&#x27;,\ &quot;,\ &#x27;coords&#x27;,\ &#x27;x_arrow&#x27;,\ &#x27;stem&#x27;\)\nCone&quot;; console.log(s); alert(s);" xlink:title="Cone">
<ellipse fill="none" stroke="black" cx="458.63" cy="-288" rx="27.9" ry="18"/>
<text text-anchor="middle" x="458.63" y="-284.3" font-family="Times New Roman,serif" font-size="14.00">stem</text>
</a>
</g>
</g>
<!-- x_arrow_91&#45;&gt;stem_92 -->
<g id="edge23" class="edge">
<title>x_arrow_91&#45;&gt;stem_92</title>
<path fill="none" stroke="black" d="M380.7,-247.63C394.86,-255.06 412.47,-264.3 427.27,-272.07"/>
<polygon fill="black" stroke="black" points="426.04,-275.37 436.52,-276.92 429.29,-269.18 426.04,-275.37"/>
</g>
<!-- head_93 -->
<g id="node25" class="node">
<title>head_93</title>
<g id="a_node25"><a xlink:href="javascript:s=&quot;\(&quot;&#x27;base&#x27;,\ &quot;,\ &#x27;coords&#x27;,\ &#x27;x_arrow&#x27;,\ &#x27;head&#x27;\)\nCone&quot;; console.log(s); alert(s);" xlink:title="Cone">
<ellipse fill="none" stroke="black" cx="458.63" cy="-234" rx="27.9" ry="18"/>
<text text-anchor="middle" x="458.63" y="-230.3" font-family="Times New Roman,serif" font-size="14.00">head</text>
</a>
</g>
</g>
<!-- x_arrow_91&#45;&gt;head_93 -->
<g id="edge24" class="edge">
<title>x_arrow_91&#45;&gt;head_93</title>
<path fill="none" stroke="black" d="M394.81,-234C403.22,-234 412.06,-234 420.36,-234"/>
<polygon fill="black" stroke="black" points="420.52,-237.5 430.52,-234 420.52,-230.5 420.52,-237.5"/>
</g>
<!-- stem_95 -->
<g id="node27" class="node">
<title>stem_95</title>
<g id="a_node27"><a xlink:href="javascript:s=&quot;\(&quot;&#x27;base&#x27;,\ &quot;,\ &#x27;coords&#x27;,\ &#x27;y_arrow&#x27;,\ &#x27;stem&#x27;\)\nCone&quot;; console.log(s); alert(s);" xlink:title="Cone">
<ellipse fill="none" stroke="black" cx="458.63" cy="-180" rx="27.9" ry="18"/>
<text text-anchor="middle" x="458.63" y="-176.3" font-family="Times New Roman,serif" font-size="14.00">stem</text>
</a>
</g>
</g>
<!-- y_arrow_94&#45;&gt;stem_95 -->
<g id="edge26" class="edge">
<title>y_arrow_94&#45;&gt;stem_95</title>
<path fill="none" stroke="black" d="M394.81,-180C403.22,-180 412.06,-180 420.36,-180"/>
<polygon fill="black" stroke="black" points="420.52,-183.5 430.52,-180 420.52,-176.5 420.52,-183.5"/>
</g>
<!-- head_96 -->
<g id="node28" class="node">
<title>head_96</title>
<g id="a_node28"><a xlink:href="javascript:s=&quot;\(&quot;&#x27;base&#x27;,\ &quot;,\ &#x27;coords&#x27;,\ &#x27;y_arrow&#x27;,\ &#x27;head&#x27;\)\nCone&quot;; console.log(s); alert(s);" xlink:title="Cone">
<ellipse fill="none" stroke="black" cx="458.63" cy="-126" rx="27.9" ry="18"/>
<text text-anchor="middle" x="458.63" y="-122.3" font-family="Times New Roman,serif" font-size="14.00">head</text>
</a>
</g>
</g>
<!-- y_arrow_94&#45;&gt;head_96 -->
<g id="edge27" class="edge">
<title>y_arrow_94&#45;&gt;head_96</title>
<path fill="none" stroke="black" d="M380.7,-166.37C394.86,-158.94 412.47,-149.7 427.27,-141.93"/>
<polygon fill="black" stroke="black" points="429.29,-144.82 436.52,-137.08 426.04,-138.63 429.29,-144.82"/>
</g>
<!-- stem_98 -->
<g id="node30" class="node">
<title>stem_98</title>
<g id="a_node30"><a xlink:href="javascript:s=&quot;\(&quot;&#x27;base&#x27;,\ &quot;,\ &#x27;coords&#x27;,\ &#x27;z_arrow&#x27;,\ &#x27;stem&#x27;\)\nCone&quot;; console.log(s); alert(s);" xlink:title="Cone">
<ellipse fill="none" stroke="black" cx="458.63" cy="-72" rx="27.9" ry="18"/>
<text text-anchor="middle" x="458.63" y="-68.3" font-family="Times New Roman,serif" font-size="14.00">stem</text>
</a>
</g>
</g>
<!-- z_arrow_97&#45;&gt;stem_98 -->
<g id="edge29" class="edge">
<title>z_arrow_97&#45;&gt;stem_98</title>
<path fill="none" stroke="black" d="M394.22,-72C402.84,-72 411.94,-72 420.47,-72"/>
<polygon fill="black" stroke="black" points="420.52,-75.5 430.52,-72 420.52,-68.5 420.52,-75.5"/>
</g>
<!-- head_99 -->
<g id="node31" class="node">
<title>head_99</title>
<g id="a_node31"><a xlink:href="javascript:s=&quot;\(&quot;&#x27;base&#x27;,\ &quot;,\ &#x27;coords&#x27;,\ &#x27;z_arrow&#x27;,\ &#x27;head&#x27;\)\nCone&quot;; console.log(s); alert(s);" xlink:title="Cone">
<ellipse fill="none" stroke="black" cx="458.63" cy="-18" rx="27.9" ry="18"/>
<text text-anchor="middle" x="458.63" y="-14.3" font-family="Times New Roman,serif" font-size="14.00">head</text>
</a>
</g>
</g>
<!-- z_arrow_97&#45;&gt;head_99 -->
<g id="edge30" class="edge">
<title>z_arrow_97&#45;&gt;head_99</title>
<path fill="none" stroke="black" d="M380.43,-58.51C394.73,-51.01 412.6,-41.63 427.54,-33.79"/>
<polygon fill="black" stroke="black" points="429.18,-36.88 436.41,-29.14 425.93,-30.68 429.18,-36.88"/>
</g>
</g>
</svg>
