<?xml version="1.0" encoding="UTF-8" standalone="no"?>
<!DOCTYPE svg PUBLIC "-//W3C//DTD SVG 1.1//EN"
 "http://www.w3.org/Graphics/SVG/1.1/DTD/svg11.dtd">
<!-- Generated by graphviz version 5.0.0 (20220707.1540)
 -->
<!-- Title: default Pages: 1 -->
<svg width="508pt" height="948pt"
 viewBox="0.00 0.00 507.57 948.00" xmlns="http://www.w3.org/2000/svg" xmlns:xlink="http://www.w3.org/1999/xlink">
<g id="graph0" class="graph" transform="scale(1 1) rotate(0) translate(4 944)">
<title>default</title>
<polygon fill="white" stroke="transparent" points="-4,4 -4,-944 503.57,-944 503.57,4 -4,4"/>
<!-- root_104 -->
<g id="node1" class="node">
<title>root_104</title>
<g id="a_node1"><a xlink:href="javascript:s=&quot;\(\)\nNone&quot;; console.log(s); alert(s);" xlink:title="root">
<ellipse fill="none" stroke="black" cx="27" cy="-409" rx="27" ry="18"/>
<text text-anchor="middle" x="27" y="-405.3" font-family="Times New Roman,serif" font-size="14.00">root</text>
</a>
</g>
</g>
<!-- default_105 -->
<g id="node2" class="node">
<title>default_105</title>
<g id="a_node2"><a xlink:href="javascript:s=&quot;\(&#x27;default&#x27;,\)\nStadiumSequence&quot;; console.log(s); alert(s);" xlink:title="StadiumSequence">
<ellipse fill="none" stroke="black" cx="126.4" cy="-733" rx="35.19" ry="18"/>
<text text-anchor="middle" x="126.4" y="-729.3" font-family="Times New Roman,serif" font-size="14.00">default</text>
</a>
</g>
</g>
<!-- root_104&#45;&gt;default_105 -->
<g id="edge1" class="edge">
<title>root_104&#45;&gt;default_105</title>
<path fill="none" stroke="black" d="M33.38,-426.88C49.51,-480.54 97.58,-640.47 117.06,-705.27"/>
<polygon fill="black" stroke="black" points="113.81,-706.61 120.04,-715.17 120.51,-704.59 113.81,-706.61"/>
</g>
<!-- 116 -->
<g id="node13" class="node">
<title>116</title>
<g id="a_node13"><a xlink:href="javascript:s=&quot;\(&quot;&#x27;top&#x27;,\ &quot;,\)\nAnnotatedCoordinates&quot;; console.log(s); alert(s);" xlink:title="AnnotatedCoordinates">
<ellipse fill="none" stroke="black" cx="126.4" cy="-409" rx="31.7" ry="18"/>
<text text-anchor="middle" x="126.4" y="-405.3" font-family="Times New Roman,serif" font-size="14.00">&#39;top&#39;, </text>
</a>
</g>
</g>
<!-- root_104&#45;&gt;116 -->
<g id="edge12" class="edge">
<title>root_104&#45;&gt;116</title>
<path fill="none" stroke="black" d="M54.1,-409C63.4,-409 74.11,-409 84.35,-409"/>
<polygon fill="black" stroke="black" points="84.37,-412.5 94.37,-409 84.37,-405.5 84.37,-412.5"/>
</g>
<!-- 132 -->
<g id="node29" class="node">
<title>132</title>
<g id="a_node29"><a xlink:href="javascript:s=&quot;\(&quot;&#x27;base&#x27;,\ &quot;,\)\nAnnotatedCoordinates&quot;; console.log(s); alert(s);" xlink:title="AnnotatedCoordinates">
<ellipse fill="none" stroke="black" cx="126.4" cy="-153" rx="36.29" ry="18"/>
<text text-anchor="middle" x="126.4" y="-149.3" font-family="Times New Roman,serif" font-size="14.00">&#39;base&#39;, </text>
</a>
</g>
</g>
<!-- root_104&#45;&gt;132 -->
<g id="edge28" class="edge">
<title>root_104&#45;&gt;132</title>
<path fill="none" stroke="black" d="M34.69,-391.4C51.41,-347.47 95.07,-232.71 115.09,-180.08"/>
<polygon fill="black" stroke="black" points="118.37,-181.31 118.66,-170.72 111.83,-178.82 118.37,-181.31"/>
</g>
<!-- 106 -->
<g id="node3" class="node">
<title>106</title>
<g id="a_node3"><a xlink:href="javascript:s=&quot;\(&#x27;default&#x27;,\ &#x27;element\-0&#x27;\)\nStadiumPrism&quot;; console.log(s); alert(s);" xlink:title="StadiumPrism">
<ellipse fill="none" stroke="black" cx="244.29" cy="-868" rx="45.49" ry="18"/>
<text text-anchor="middle" x="244.29" y="-864.3" font-family="Times New Roman,serif" font-size="14.00">element&#45;0</text>
</a>
</g>
</g>
<!-- default_105&#45;&gt;106 -->
<g id="edge2" class="edge">
<title>default_105&#45;&gt;106</title>
<path fill="none" stroke="black" d="M138.94,-750C152.4,-769.39 175.77,-801.68 198.79,-827 204.26,-833.01 210.48,-839.13 216.51,-844.75"/>
<polygon fill="black" stroke="black" points="214.22,-847.39 223.96,-851.55 218.93,-842.22 214.22,-847.39"/>
</g>
<!-- 109 -->
<g id="node6" class="node">
<title>109</title>
<g id="a_node6"><a xlink:href="javascript:s=&quot;\(&#x27;default&#x27;,\ &#x27;element\-1&#x27;\)\nStadiumRevolution&quot;; console.log(s); alert(s);" xlink:title="StadiumRevolution">
<ellipse fill="none" stroke="black" cx="244.29" cy="-800" rx="45.49" ry="18"/>
<text text-anchor="middle" x="244.29" y="-796.3" font-family="Times New Roman,serif" font-size="14.00">element&#45;1</text>
</a>
</g>
</g>
<!-- default_105&#45;&gt;109 -->
<g id="edge5" class="edge">
<title>default_105&#45;&gt;109</title>
<path fill="none" stroke="black" d="M150.29,-746.24C166.96,-755.87 189.82,-769.09 208.71,-780.01"/>
<polygon fill="black" stroke="black" points="207.21,-783.18 217.62,-785.16 210.71,-777.12 207.21,-783.18"/>
</g>
<!-- 111 -->
<g id="node8" class="node">
<title>111</title>
<g id="a_node8"><a xlink:href="javascript:s=&quot;\(&#x27;default&#x27;,\ &#x27;element\-2&#x27;\)\nStadiumPrism&quot;; console.log(s); alert(s);" xlink:title="StadiumPrism">
<ellipse fill="none" stroke="black" cx="244.29" cy="-733" rx="45.49" ry="18"/>
<text text-anchor="middle" x="244.29" y="-729.3" font-family="Times New Roman,serif" font-size="14.00">element&#45;2</text>
</a>
</g>
</g>
<!-- default_105&#45;&gt;111 -->
<g id="edge7" class="edge">
<title>default_105&#45;&gt;111</title>
<path fill="none" stroke="black" d="M161.54,-733C169.98,-733 179.24,-733 188.39,-733"/>
<polygon fill="black" stroke="black" points="188.64,-736.5 198.64,-733 188.64,-729.5 188.64,-736.5"/>
</g>
<!-- 114 -->
<g id="node11" class="node">
<title>114</title>
<g id="a_node11"><a xlink:href="javascript:s=&quot;\(&#x27;default&#x27;,\ &#x27;element\-3&#x27;\)\nStadiumRevolution&quot;; console.log(s); alert(s);" xlink:title="StadiumRevolution">
<ellipse fill="none" stroke="black" cx="244.29" cy="-666" rx="45.49" ry="18"/>
<text text-anchor="middle" x="244.29" y="-662.3" font-family="Times New Roman,serif" font-size="14.00">element&#45;3</text>
</a>
</g>
</g>
<!-- default_105&#45;&gt;114 -->
<g id="edge10" class="edge">
<title>default_105&#45;&gt;114</title>
<path fill="none" stroke="black" d="M150.29,-719.76C166.96,-710.13 189.82,-696.91 208.71,-685.99"/>
<polygon fill="black" stroke="black" points="210.71,-688.88 217.62,-680.84 207.21,-682.82 210.71,-688.88"/>
</g>
<!-- cage_107 -->
<g id="node4" class="node">
<title>cage_107</title>
<g id="a_node4"><a xlink:href="javascript:s=&quot;\(&#x27;default&#x27;,\ &#x27;element\-0&#x27;,\ &#x27;cage&#x27;\)\nBox&quot;; console.log(s); alert(s);" xlink:title="Box">
<ellipse fill="none" stroke="black" cx="366.73" cy="-922" rx="27.1" ry="18"/>
<text text-anchor="middle" x="366.73" y="-918.3" font-family="Times New Roman,serif" font-size="14.00">cage</text>
</a>
</g>
</g>
<!-- 106&#45;&gt;cage_107 -->
<g id="edge3" class="edge">
<title>106&#45;&gt;cage_107</title>
<path fill="none" stroke="black" d="M275.06,-881.35C293.01,-889.4 315.86,-899.64 334.13,-907.83"/>
<polygon fill="black" stroke="black" points="332.93,-911.13 343.48,-912.02 335.79,-904.74 332.93,-911.13"/>
</g>
<!-- stadium_108 -->
<g id="node5" class="node">
<title>stadium_108</title>
<g id="a_node5"><a xlink:href="javascript:s=&quot;\(&#x27;default&#x27;,\ &#x27;element\-0&#x27;,\ &#x27;stadium&#x27;\)\nLinearExtrude&quot;; console.log(s); alert(s);" xlink:title="LinearExtrude">
<ellipse fill="none" stroke="black" cx="366.73" cy="-868" rx="38.99" ry="18"/>
<text text-anchor="middle" x="366.73" y="-864.3" font-family="Times New Roman,serif" font-size="14.00">stadium</text>
</a>
</g>
</g>
<!-- 106&#45;&gt;stadium_108 -->
<g id="edge4" class="edge">
<title>106&#45;&gt;stadium_108</title>
<path fill="none" stroke="black" d="M289.8,-868C298.75,-868 308.21,-868 317.3,-868"/>
<polygon fill="black" stroke="black" points="317.35,-871.5 327.35,-868 317.35,-864.5 317.35,-871.5"/>
</g>
<!-- stadium_110 -->
<g id="node7" class="node">
<title>stadium_110</title>
<g id="a_node7"><a xlink:href="javascript:s=&quot;\(&#x27;default&#x27;,\ &#x27;element\-1&#x27;,\ &#x27;stadium&#x27;\)\nRotateExtrude&quot;; console.log(s); alert(s);" xlink:title="RotateExtrude">
<ellipse fill="none" stroke="black" cx="366.73" cy="-814" rx="38.99" ry="18"/>
<text text-anchor="middle" x="366.73" y="-810.3" font-family="Times New Roman,serif" font-size="14.00">stadium</text>
</a>
</g>
</g>
<!-- 109&#45;&gt;stadium_110 -->
<g id="edge6" class="edge">
<title>109&#45;&gt;stadium_110</title>
<path fill="none" stroke="black" d="M288.09,-804.98C297.93,-806.12 308.44,-807.34 318.45,-808.5"/>
<polygon fill="black" stroke="black" points="318.32,-812.01 328.66,-809.69 319.13,-805.06 318.32,-812.01"/>
</g>
<!-- cage_112 -->
<g id="node9" class="node">
<title>cage_112</title>
<g id="a_node9"><a xlink:href="javascript:s=&quot;\(&#x27;default&#x27;,\ &#x27;element\-2&#x27;,\ &#x27;cage&#x27;\)\nBox&quot;; console.log(s); alert(s);" xlink:title="Box">
<ellipse fill="none" stroke="black" cx="366.73" cy="-760" rx="27.1" ry="18"/>
<text text-anchor="middle" x="366.73" y="-756.3" font-family="Times New Roman,serif" font-size="14.00">cage</text>
</a>
</g>
</g>
<!-- 111&#45;&gt;cage_112 -->
<g id="edge8" class="edge">
<title>111&#45;&gt;cage_112</title>
<path fill="none" stroke="black" d="M284.39,-741.77C299.21,-745.09 315.97,-748.85 330.42,-752.08"/>
<polygon fill="black" stroke="black" points="329.94,-755.56 340.46,-754.34 331.47,-748.73 329.94,-755.56"/>
</g>
<!-- stadium_113 -->
<g id="node10" class="node">
<title>stadium_113</title>
<g id="a_node10"><a xlink:href="javascript:s=&quot;\(&#x27;default&#x27;,\ &#x27;element\-2&#x27;,\ &#x27;stadium&#x27;\)\nLinearExtrude&quot;; console.log(s); alert(s);" xlink:title="LinearExtrude">
<ellipse fill="none" stroke="black" cx="366.73" cy="-706" rx="38.99" ry="18"/>
<text text-anchor="middle" x="366.73" y="-702.3" font-family="Times New Roman,serif" font-size="14.00">stadium</text>
</a>
</g>
</g>
<!-- 111&#45;&gt;stadium_113 -->
<g id="edge9" class="edge">
<title>111&#45;&gt;stadium_113</title>
<path fill="none" stroke="black" d="M284.39,-724.23C296.2,-721.59 309.25,-718.66 321.37,-715.95"/>
<polygon fill="black" stroke="black" points="322.29,-719.32 331.29,-713.72 320.76,-712.49 322.29,-719.32"/>
</g>
<!-- stadium_115 -->
<g id="node12" class="node">
<title>stadium_115</title>
<g id="a_node12"><a xlink:href="javascript:s=&quot;\(&#x27;default&#x27;,\ &#x27;element\-3&#x27;,\ &#x27;stadium&#x27;\)\nRotateExtrude&quot;; console.log(s); alert(s);" xlink:title="RotateExtrude">
<ellipse fill="none" stroke="black" cx="366.73" cy="-652" rx="38.99" ry="18"/>
<text text-anchor="middle" x="366.73" y="-648.3" font-family="Times New Roman,serif" font-size="14.00">stadium</text>
</a>
</g>
</g>
<!-- 114&#45;&gt;stadium_115 -->
<g id="edge11" class="edge">
<title>114&#45;&gt;stadium_115</title>
<path fill="none" stroke="black" d="M288.09,-661.02C297.93,-659.88 308.44,-658.66 318.45,-657.5"/>
<polygon fill="black" stroke="black" points="319.13,-660.94 328.66,-656.31 318.32,-653.99 319.13,-660.94"/>
</g>
<!-- coords_117 -->
<g id="node14" class="node">
<title>coords_117</title>
<g id="a_node14"><a xlink:href="javascript:s=&quot;\(&quot;&#x27;top&#x27;,\ &quot;,\ &#x27;coords&#x27;\)\nCoordinates&quot;; console.log(s); alert(s);" xlink:title="Coordinates">
<ellipse fill="none" stroke="black" cx="244.29" cy="-517" rx="36.29" ry="18"/>
<text text-anchor="middle" x="244.29" y="-513.3" font-family="Times New Roman,serif" font-size="14.00">coords</text>
</a>
</g>
</g>
<!-- 116&#45;&gt;coords_117 -->
<g id="edge13" class="edge">
<title>116&#45;&gt;coords_117</title>
<path fill="none" stroke="black" d="M139.54,-425.54C152.82,-442.91 175.36,-470.39 198.79,-490 202.32,-492.95 206.2,-495.79 210.16,-498.46"/>
<polygon fill="black" stroke="black" points="208.51,-501.56 218.83,-503.97 212.27,-495.65 208.51,-501.56"/>
</g>
<!-- x_128 -->
<g id="node25" class="node">
<title>x_128</title>
<g id="a_node25"><a xlink:href="javascript:s=&quot;\(&quot;&#x27;top&#x27;,\ &quot;,\ &#x27;x&#x27;\)\nText&quot;; console.log(s); alert(s);" xlink:title="Text">
<ellipse fill="none" stroke="black" cx="244.29" cy="-463" rx="27" ry="18"/>
<text text-anchor="middle" x="244.29" y="-459.3" font-family="Times New Roman,serif" font-size="14.00">x</text>
</a>
</g>
</g>
<!-- 116&#45;&gt;x_128 -->
<g id="edge24" class="edge">
<title>116&#45;&gt;x_128</title>
<path fill="none" stroke="black" d="M151.41,-420.19C169.11,-428.43 193.32,-439.72 212.45,-448.63"/>
<polygon fill="black" stroke="black" points="211.11,-451.87 221.65,-452.92 214.07,-445.52 211.11,-451.87"/>
</g>
<!-- y_129 -->
<g id="node26" class="node">
<title>y_129</title>
<g id="a_node26"><a xlink:href="javascript:s=&quot;\(&quot;&#x27;top&#x27;,\ &quot;,\ &#x27;y&#x27;\)\nText&quot;; console.log(s); alert(s);" xlink:title="Text">
<ellipse fill="none" stroke="black" cx="244.29" cy="-409" rx="27" ry="18"/>
<text text-anchor="middle" x="244.29" y="-405.3" font-family="Times New Roman,serif" font-size="14.00">y</text>
</a>
</g>
</g>
<!-- 116&#45;&gt;y_129 -->
<g id="edge25" class="edge">
<title>116&#45;&gt;y_129</title>
<path fill="none" stroke="black" d="M158.45,-409C173.38,-409 191.37,-409 206.93,-409"/>
<polygon fill="black" stroke="black" points="207.25,-412.5 217.25,-409 207.25,-405.5 207.25,-412.5"/>
</g>
<!-- z_130 -->
<g id="node27" class="node">
<title>z_130</title>
<g id="a_node27"><a xlink:href="javascript:s=&quot;\(&quot;&#x27;top&#x27;,\ &quot;,\ &#x27;z&#x27;\)\nText&quot;; console.log(s); alert(s);" xlink:title="Text">
<ellipse fill="none" stroke="black" cx="244.29" cy="-355" rx="27" ry="18"/>
<text text-anchor="middle" x="244.29" y="-351.3" font-family="Times New Roman,serif" font-size="14.00">z</text>
</a>
</g>
</g>
<!-- 116&#45;&gt;z_130 -->
<g id="edge26" class="edge">
<title>116&#45;&gt;z_130</title>
<path fill="none" stroke="black" d="M151.41,-397.81C169.11,-389.57 193.32,-378.28 212.45,-369.37"/>
<polygon fill="black" stroke="black" points="214.07,-372.48 221.65,-365.08 211.11,-366.13 214.07,-372.48"/>
</g>
<!-- label_131 -->
<g id="node28" class="node">
<title>label_131</title>
<g id="a_node28"><a xlink:href="javascript:s=&quot;\(&quot;&#x27;top&#x27;,\ &quot;,\ &#x27;label&#x27;\)\nText&quot;; console.log(s); alert(s);" xlink:title="Text">
<ellipse fill="none" stroke="black" cx="244.29" cy="-301" rx="27.1" ry="18"/>
<text text-anchor="middle" x="244.29" y="-297.3" font-family="Times New Roman,serif" font-size="14.00">label</text>
</a>
</g>
</g>
<!-- 116&#45;&gt;label_131 -->
<g id="edge27" class="edge">
<title>116&#45;&gt;label_131</title>
<path fill="none" stroke="black" d="M139.54,-392.46C152.82,-375.09 175.36,-347.61 198.79,-328 203.41,-324.14 208.64,-320.45 213.85,-317.12"/>
<polygon fill="black" stroke="black" points="215.75,-320.06 222.48,-311.87 212.12,-314.08 215.75,-320.06"/>
</g>
<!-- origin_118 -->
<g id="node15" class="node">
<title>origin_118</title>
<g id="a_node15"><a xlink:href="javascript:s=&quot;\(&quot;&#x27;top&#x27;,\ &quot;,\ &#x27;coords&#x27;,\ &#x27;origin&#x27;\)\nCoordinatesCage&quot;; console.log(s); alert(s);" xlink:title="CoordinatesCage">
<ellipse fill="none" stroke="black" cx="366.73" cy="-598" rx="31.4" ry="18"/>
<text text-anchor="middle" x="366.73" y="-594.3" font-family="Times New Roman,serif" font-size="14.00">origin</text>
</a>
</g>
</g>
<!-- coords_117&#45;&gt;origin_118 -->
<g id="edge14" class="edge">
<title>coords_117&#45;&gt;origin_118</title>
<path fill="none" stroke="black" d="M266.54,-531.29C286.13,-544.47 315.36,-564.12 337.01,-578.69"/>
<polygon fill="black" stroke="black" points="335.24,-581.71 345.49,-584.39 339.15,-575.9 335.24,-581.71"/>
</g>
<!-- x_arrow_119 -->
<g id="node16" class="node">
<title>x_arrow_119</title>
<g id="a_node16"><a xlink:href="javascript:s=&quot;\(&quot;&#x27;top&#x27;,\ &quot;,\ &#x27;coords&#x27;,\ &#x27;x_arrow&#x27;\)\nArrow&quot;; console.log(s); alert(s);" xlink:title="Arrow">
<ellipse fill="none" stroke="black" cx="366.73" cy="-544" rx="40.89" ry="18"/>
<text text-anchor="middle" x="366.73" y="-540.3" font-family="Times New Roman,serif" font-size="14.00">x_arrow</text>
</a>
</g>
</g>
<!-- coords_117&#45;&gt;x_arrow_119 -->
<g id="edge15" class="edge">
<title>coords_117&#45;&gt;x_arrow_119</title>
<path fill="none" stroke="black" d="M277.88,-524.31C290.78,-527.2 305.83,-530.57 319.79,-533.7"/>
<polygon fill="black" stroke="black" points="319.2,-537.16 329.72,-535.93 320.73,-530.32 319.2,-537.16"/>
</g>
<!-- y_arrow_122 -->
<g id="node19" class="node">
<title>y_arrow_122</title>
<g id="a_node19"><a xlink:href="javascript:s=&quot;\(&quot;&#x27;top&#x27;,\ &quot;,\ &#x27;coords&#x27;,\ &#x27;y_arrow&#x27;\)\nArrow&quot;; console.log(s); alert(s);" xlink:title="Arrow">
<ellipse fill="none" stroke="black" cx="366.73" cy="-490" rx="40.89" ry="18"/>
<text text-anchor="middle" x="366.73" y="-486.3" font-family="Times New Roman,serif" font-size="14.00">y_arrow</text>
</a>
</g>
</g>
<!-- coords_117&#45;&gt;y_arrow_122 -->
<g id="edge18" class="edge">
<title>coords_117&#45;&gt;y_arrow_122</title>
<path fill="none" stroke="black" d="M277.88,-509.69C290.78,-506.8 305.83,-503.43 319.79,-500.3"/>
<polygon fill="black" stroke="black" points="320.73,-503.68 329.72,-498.07 319.2,-496.84 320.73,-503.68"/>
</g>
<!-- z_arrow_125 -->
<g id="node22" class="node">
<title>z_arrow_125</title>
<g id="a_node22"><a xlink:href="javascript:s=&quot;\(&quot;&#x27;top&#x27;,\ &quot;,\ &#x27;coords&#x27;,\ &#x27;z_arrow&#x27;\)\nArrow&quot;; console.log(s); alert(s);" xlink:title="Arrow">
<ellipse fill="none" stroke="black" cx="366.73" cy="-396" rx="40.09" ry="18"/>
<text text-anchor="middle" x="366.73" y="-392.3" font-family="Times New Roman,serif" font-size="14.00">z_arrow</text>
</a>
</g>
</g>
<!-- coords_117&#45;&gt;z_arrow_125 -->
<g id="edge21" class="edge">
<title>coords_117&#45;&gt;z_arrow_125</title>
<path fill="none" stroke="black" d="M269.89,-504.14C276.67,-500.06 283.8,-495.23 289.79,-490 312.9,-469.79 334.41,-441.97 348.59,-421.84"/>
<polygon fill="black" stroke="black" points="351.58,-423.68 354.39,-413.46 345.82,-419.7 351.58,-423.68"/>
</g>
<!-- stem_120 -->
<g id="node17" class="node">
<title>stem_120</title>
<g id="a_node17"><a xlink:href="javascript:s=&quot;\(&quot;&#x27;top&#x27;,\ &quot;,\ &#x27;coords&#x27;,\ &#x27;x_arrow&#x27;,\ &#x27;stem&#x27;\)\nCone&quot;; console.log(s); alert(s);" xlink:title="Cone">
<ellipse fill="none" stroke="black" cx="471.63" cy="-612" rx="27.9" ry="18"/>
<text text-anchor="middle" x="471.63" y="-608.3" font-family="Times New Roman,serif" font-size="14.00">stem</text>
</a>
</g>
</g>
<!-- x_arrow_119&#45;&gt;stem_120 -->
<g id="edge16" class="edge">
<title>x_arrow_119&#45;&gt;stem_120</title>
<path fill="none" stroke="black" d="M390.31,-558.92C405.79,-569.15 426.41,-582.78 442.88,-593.67"/>
<polygon fill="black" stroke="black" points="441.28,-596.8 451.55,-599.39 445.14,-590.96 441.28,-596.8"/>
</g>
<!-- head_121 -->
<g id="node18" class="node">
<title>head_121</title>
<g id="a_node18"><a xlink:href="javascript:s=&quot;\(&quot;&#x27;top&#x27;,\ &quot;,\ &#x27;coords&#x27;,\ &#x27;x_arrow&#x27;,\ &#x27;head&#x27;\)\nCone&quot;; console.log(s); alert(s);" xlink:title="Cone">
<ellipse fill="none" stroke="black" cx="471.63" cy="-558" rx="27.9" ry="18"/>
<text text-anchor="middle" x="471.63" y="-554.3" font-family="Times New Roman,serif" font-size="14.00">head</text>
</a>
</g>
</g>
<!-- x_arrow_119&#45;&gt;head_121 -->
<g id="edge17" class="edge">
<title>x_arrow_119&#45;&gt;head_121</title>
<path fill="none" stroke="black" d="M406.05,-549.21C415.26,-550.47 425.08,-551.8 434.21,-553.04"/>
<polygon fill="black" stroke="black" points="433.77,-556.52 444.15,-554.4 434.71,-549.58 433.77,-556.52"/>
</g>
<!-- stem_123 -->
<g id="node20" class="node">
<title>stem_123</title>
<g id="a_node20"><a xlink:href="javascript:s=&quot;\(&quot;&#x27;top&#x27;,\ &quot;,\ &#x27;coords&#x27;,\ &#x27;y_arrow&#x27;,\ &#x27;stem&#x27;\)\nCone&quot;; console.log(s); alert(s);" xlink:title="Cone">
<ellipse fill="none" stroke="black" cx="471.63" cy="-504" rx="27.9" ry="18"/>
<text text-anchor="middle" x="471.63" y="-500.3" font-family="Times New Roman,serif" font-size="14.00">stem</text>
</a>
</g>
</g>
<!-- y_arrow_122&#45;&gt;stem_123 -->
<g id="edge19" class="edge">
<title>y_arrow_122&#45;&gt;stem_123</title>
<path fill="none" stroke="black" d="M406.05,-495.21C415.26,-496.47 425.08,-497.8 434.21,-499.04"/>
<polygon fill="black" stroke="black" points="433.77,-502.52 444.15,-500.4 434.71,-495.58 433.77,-502.52"/>
</g>
<!-- head_124 -->
<g id="node21" class="node">
<title>head_124</title>
<g id="a_node21"><a xlink:href="javascript:s=&quot;\(&quot;&#x27;top&#x27;,\ &quot;,\ &#x27;coords&#x27;,\ &#x27;y_arrow&#x27;,\ &#x27;head&#x27;\)\nCone&quot;; console.log(s); alert(s);" xlink:title="Cone">
<ellipse fill="none" stroke="black" cx="471.63" cy="-450" rx="27.9" ry="18"/>
<text text-anchor="middle" x="471.63" y="-446.3" font-family="Times New Roman,serif" font-size="14.00">head</text>
</a>
</g>
</g>
<!-- y_arrow_122&#45;&gt;head_124 -->
<g id="edge20" class="edge">
<title>y_arrow_122&#45;&gt;head_124</title>
<path fill="none" stroke="black" d="M398.05,-478.22C410.61,-473.33 425.21,-467.65 438.01,-462.68"/>
<polygon fill="black" stroke="black" points="439.33,-465.92 447.38,-459.04 436.79,-459.4 439.33,-465.92"/>
</g>
<!-- stem_126 -->
<g id="node23" class="node">
<title>stem_126</title>
<g id="a_node23"><a xlink:href="javascript:s=&quot;\(&quot;&#x27;top&#x27;,\ &quot;,\ &#x27;coords&#x27;,\ &#x27;z_arrow&#x27;,\ &#x27;stem&#x27;\)\nCone&quot;; console.log(s); alert(s);" xlink:title="Cone">
<ellipse fill="none" stroke="black" cx="471.63" cy="-396" rx="27.9" ry="18"/>
<text text-anchor="middle" x="471.63" y="-392.3" font-family="Times New Roman,serif" font-size="14.00">stem</text>
</a>
</g>
</g>
<!-- z_arrow_125&#45;&gt;stem_126 -->
<g id="edge22" class="edge">
<title>z_arrow_125&#45;&gt;stem_126</title>
<path fill="none" stroke="black" d="M407.22,-396C415.84,-396 424.94,-396 433.47,-396"/>
<polygon fill="black" stroke="black" points="433.52,-399.5 443.52,-396 433.52,-392.5 433.52,-399.5"/>
</g>
<!-- head_127 -->
<g id="node24" class="node">
<title>head_127</title>
<g id="a_node24"><a xlink:href="javascript:s=&quot;\(&quot;&#x27;top&#x27;,\ &quot;,\ &#x27;coords&#x27;,\ &#x27;z_arrow&#x27;,\ &#x27;head&#x27;\)\nCone&quot;; console.log(s); alert(s);" xlink:title="Cone">
<ellipse fill="none" stroke="black" cx="471.63" cy="-342" rx="27.9" ry="18"/>
<text text-anchor="middle" x="471.63" y="-338.3" font-family="Times New Roman,serif" font-size="14.00">head</text>
</a>
</g>
</g>
<!-- z_arrow_125&#45;&gt;head_127 -->
<g id="edge23" class="edge">
<title>z_arrow_125&#45;&gt;head_127</title>
<path fill="none" stroke="black" d="M393.43,-382.51C407.73,-375.01 425.59,-365.63 440.54,-357.79"/>
<polygon fill="black" stroke="black" points="442.18,-360.88 449.41,-353.14 438.93,-354.68 442.18,-360.88"/>
</g>
<!-- coords_133 -->
<g id="node30" class="node">
<title>coords_133</title>
<g id="a_node30"><a xlink:href="javascript:s=&quot;\(&quot;&#x27;base&#x27;,\ &quot;,\ &#x27;coords&#x27;\)\nCoordinates&quot;; console.log(s); alert(s);" xlink:title="Coordinates">
<ellipse fill="none" stroke="black" cx="244.29" cy="-234" rx="36.29" ry="18"/>
<text text-anchor="middle" x="244.29" y="-230.3" font-family="Times New Roman,serif" font-size="14.00">coords</text>
</a>
</g>
</g>
<!-- 132&#45;&gt;coords_133 -->
<g id="edge29" class="edge">
<title>132&#45;&gt;coords_133</title>
<path fill="none" stroke="black" d="M146.4,-168.21C160.57,-179.34 180.54,-194.6 198.79,-207 202.79,-209.71 207.05,-212.47 211.3,-215.13"/>
<polygon fill="black" stroke="black" points="209.56,-218.17 219.91,-220.43 213.23,-212.21 209.56,-218.17"/>
</g>
<!-- x_144 -->
<g id="node41" class="node">
<title>x_144</title>
<g id="a_node41"><a xlink:href="javascript:s=&quot;\(&quot;&#x27;base&#x27;,\ &quot;,\ &#x27;x&#x27;\)\nText&quot;; console.log(s); alert(s);" xlink:title="Text">
<ellipse fill="none" stroke="black" cx="244.29" cy="-180" rx="27" ry="18"/>
<text text-anchor="middle" x="244.29" y="-176.3" font-family="Times New Roman,serif" font-size="14.00">x</text>
</a>
</g>
</g>
<!-- 132&#45;&gt;x_144 -->
<g id="edge40" class="edge">
<title>132&#45;&gt;x_144</title>
<path fill="none" stroke="black" d="M159.68,-160.52C174.95,-164.08 193.21,-168.33 208.76,-171.96"/>
<polygon fill="black" stroke="black" points="207.99,-175.37 218.53,-174.23 209.58,-168.55 207.99,-175.37"/>
</g>
<!-- y_145 -->
<g id="node42" class="node">
<title>y_145</title>
<g id="a_node42"><a xlink:href="javascript:s=&quot;\(&quot;&#x27;base&#x27;,\ &quot;,\ &#x27;y&#x27;\)\nText&quot;; console.log(s); alert(s);" xlink:title="Text">
<ellipse fill="none" stroke="black" cx="244.29" cy="-126" rx="27" ry="18"/>
<text text-anchor="middle" x="244.29" y="-122.3" font-family="Times New Roman,serif" font-size="14.00">y</text>
</a>
</g>
</g>
<!-- 132&#45;&gt;y_145 -->
<g id="edge41" class="edge">
<title>132&#45;&gt;y_145</title>
<path fill="none" stroke="black" d="M159.68,-145.48C174.95,-141.92 193.21,-137.67 208.76,-134.04"/>
<polygon fill="black" stroke="black" points="209.58,-137.45 218.53,-131.77 207.99,-130.63 209.58,-137.45"/>
</g>
<!-- z_146 -->
<g id="node43" class="node">
<title>z_146</title>
<g id="a_node43"><a xlink:href="javascript:s=&quot;\(&quot;&#x27;base&#x27;,\ &quot;,\ &#x27;z&#x27;\)\nText&quot;; console.log(s); alert(s);" xlink:title="Text">
<ellipse fill="none" stroke="black" cx="244.29" cy="-72" rx="27" ry="18"/>
<text text-anchor="middle" x="244.29" y="-68.3" font-family="Times New Roman,serif" font-size="14.00">z</text>
</a>
</g>
</g>
<!-- 132&#45;&gt;z_146 -->
<g id="edge42" class="edge">
<title>132&#45;&gt;z_146</title>
<path fill="none" stroke="black" d="M146.4,-137.79C160.57,-126.66 180.54,-111.4 198.79,-99 203.77,-95.62 209.18,-92.17 214.44,-88.91"/>
<polygon fill="black" stroke="black" points="216.35,-91.85 223.08,-83.67 212.72,-85.87 216.35,-91.85"/>
</g>
<!-- label_147 -->
<g id="node44" class="node">
<title>label_147</title>
<g id="a_node44"><a xlink:href="javascript:s=&quot;\(&quot;&#x27;base&#x27;,\ &quot;,\ &#x27;label&#x27;\)\nText&quot;; console.log(s); alert(s);" xlink:title="Text">
<ellipse fill="none" stroke="black" cx="244.29" cy="-18" rx="27.1" ry="18"/>
<text text-anchor="middle" x="244.29" y="-14.3" font-family="Times New Roman,serif" font-size="14.00">label</text>
</a>
</g>
</g>
<!-- 132&#45;&gt;label_147 -->
<g id="edge43" class="edge">
<title>132&#45;&gt;label_147</title>
<path fill="none" stroke="black" d="M135.8,-135.6C147.49,-112.73 170.45,-72.27 198.79,-45 202.94,-41.01 207.79,-37.33 212.72,-34.05"/>
<polygon fill="black" stroke="black" points="214.88,-36.84 221.57,-28.62 211.21,-30.87 214.88,-36.84"/>
</g>
<!-- origin_134 -->
<g id="node31" class="node">
<title>origin_134</title>
<g id="a_node31"><a xlink:href="javascript:s=&quot;\(&quot;&#x27;base&#x27;,\ &quot;,\ &#x27;coords&#x27;,\ &#x27;origin&#x27;\)\nCoordinatesCage&quot;; console.log(s); alert(s);" xlink:title="CoordinatesCage">
<ellipse fill="none" stroke="black" cx="366.73" cy="-288" rx="31.4" ry="18"/>
<text text-anchor="middle" x="366.73" y="-284.3" font-family="Times New Roman,serif" font-size="14.00">origin</text>
</a>
</g>
</g>
<!-- coords_133&#45;&gt;origin_134 -->
<g id="edge30" class="edge">
<title>coords_133&#45;&gt;origin_134</title>
<path fill="none" stroke="black" d="M271.72,-245.85C289.49,-253.82 313.07,-264.39 332.16,-272.95"/>
<polygon fill="black" stroke="black" points="330.85,-276.2 341.41,-277.1 333.72,-269.81 330.85,-276.2"/>
</g>
<!-- x_arrow_135 -->
<g id="node32" class="node">
<title>x_arrow_135</title>
<g id="a_node32"><a xlink:href="javascript:s=&quot;\(&quot;&#x27;base&#x27;,\ &quot;,\ &#x27;coords&#x27;,\ &#x27;x_arrow&#x27;\)\nArrow&quot;; console.log(s); alert(s);" xlink:title="Arrow">
<ellipse fill="none" stroke="black" cx="366.73" cy="-234" rx="40.89" ry="18"/>
<text text-anchor="middle" x="366.73" y="-230.3" font-family="Times New Roman,serif" font-size="14.00">x_arrow</text>
</a>
</g>
</g>
<!-- coords_133&#45;&gt;x_arrow_135 -->
<g id="edge31" class="edge">
<title>coords_133&#45;&gt;x_arrow_135</title>
<path fill="none" stroke="black" d="M280.77,-234C291.62,-234 303.75,-234 315.38,-234"/>
<polygon fill="black" stroke="black" points="315.43,-237.5 325.43,-234 315.43,-230.5 315.43,-237.5"/>
</g>
<!-- y_arrow_138 -->
<g id="node35" class="node">
<title>y_arrow_138</title>
<g id="a_node35"><a xlink:href="javascript:s=&quot;\(&quot;&#x27;base&#x27;,\ &quot;,\ &#x27;coords&#x27;,\ &#x27;y_arrow&#x27;\)\nArrow&quot;; console.log(s); alert(s);" xlink:title="Arrow">
<ellipse fill="none" stroke="black" cx="366.73" cy="-180" rx="40.89" ry="18"/>
<text text-anchor="middle" x="366.73" y="-176.3" font-family="Times New Roman,serif" font-size="14.00">y_arrow</text>
</a>
</g>
</g>
<!-- coords_133&#45;&gt;y_arrow_138 -->
<g id="edge34" class="edge">
<title>coords_133&#45;&gt;y_arrow_138</title>
<path fill="none" stroke="black" d="M271.72,-222.15C288.23,-214.75 309.75,-205.1 328.04,-196.9"/>
<polygon fill="black" stroke="black" points="329.57,-200.05 337.26,-192.77 326.7,-193.66 329.57,-200.05"/>
</g>
<!-- z_arrow_141 -->
<g id="node38" class="node">
<title>z_arrow_141</title>
<g id="a_node38"><a xlink:href="javascript:s=&quot;\(&quot;&#x27;base&#x27;,\ &quot;,\ &#x27;coords&#x27;,\ &#x27;z_arrow&#x27;\)\nArrow&quot;; console.log(s); alert(s);" xlink:title="Arrow">
<ellipse fill="none" stroke="black" cx="366.73" cy="-72" rx="40.09" ry="18"/>
<text text-anchor="middle" x="366.73" y="-68.3" font-family="Times New Roman,serif" font-size="14.00">z_arrow</text>
</a>
</g>
</g>
<!-- coords_133&#45;&gt;z_arrow_141 -->
<g id="edge37" class="edge">
<title>coords_133&#45;&gt;z_arrow_141</title>
<path fill="none" stroke="black" d="M270.95,-221.48C277.59,-217.46 284.38,-212.58 289.79,-207 306.19,-190.04 335.8,-132.89 352.79,-98.62"/>
<polygon fill="black" stroke="black" points="355.95,-100.13 357.23,-89.62 349.67,-97.04 355.95,-100.13"/>
</g>
<!-- stem_136 -->
<g id="node33" class="node">
<title>stem_136</title>
<g id="a_node33"><a xlink:href="javascript:s=&quot;\(&quot;&#x27;base&#x27;,\ &quot;,\ &#x27;coords&#x27;,\ &#x27;x_arrow&#x27;,\ &#x27;stem&#x27;\)\nCone&quot;; console.log(s); alert(s);" xlink:title="Cone">
<ellipse fill="none" stroke="black" cx="471.63" cy="-288" rx="27.9" ry="18"/>
<text text-anchor="middle" x="471.63" y="-284.3" font-family="Times New Roman,serif" font-size="14.00">stem</text>
</a>
</g>
</g>
<!-- x_arrow_135&#45;&gt;stem_136 -->
<g id="edge32" class="edge">
<title>x_arrow_135&#45;&gt;stem_136</title>
<path fill="none" stroke="black" d="M393.7,-247.63C407.86,-255.06 425.47,-264.3 440.26,-272.07"/>
<polygon fill="black" stroke="black" points="439.04,-275.37 449.52,-276.92 442.29,-269.18 439.04,-275.37"/>
</g>
<!-- head_137 -->
<g id="node34" class="node">
<title>head_137</title>
<g id="a_node34"><a xlink:href="javascript:s=&quot;\(&quot;&#x27;base&#x27;,\ &quot;,\ &#x27;coords&#x27;,\ &#x27;x_arrow&#x27;,\ &#x27;head&#x27;\)\nCone&quot;; console.log(s); alert(s);" xlink:title="Cone">
<ellipse fill="none" stroke="black" cx="471.63" cy="-234" rx="27.9" ry="18"/>
<text text-anchor="middle" x="471.63" y="-230.3" font-family="Times New Roman,serif" font-size="14.00">head</text>
</a>
</g>
</g>
<!-- x_arrow_135&#45;&gt;head_137 -->
<g id="edge33" class="edge">
<title>x_arrow_135&#45;&gt;head_137</title>
<path fill="none" stroke="black" d="M407.81,-234C416.22,-234 425.06,-234 433.36,-234"/>
<polygon fill="black" stroke="black" points="433.52,-237.5 443.52,-234 433.52,-230.5 433.52,-237.5"/>
</g>
<!-- stem_139 -->
<g id="node36" class="node">
<title>stem_139</title>
<g id="a_node36"><a xlink:href="javascript:s=&quot;\(&quot;&#x27;base&#x27;,\ &quot;,\ &#x27;coords&#x27;,\ &#x27;y_arrow&#x27;,\ &#x27;stem&#x27;\)\nCone&quot;; console.log(s); alert(s);" xlink:title="Cone">
<ellipse fill="none" stroke="black" cx="471.63" cy="-180" rx="27.9" ry="18"/>
<text text-anchor="middle" x="471.63" y="-176.3" font-family="Times New Roman,serif" font-size="14.00">stem</text>
</a>
</g>
</g>
<!-- y_arrow_138&#45;&gt;stem_139 -->
<g id="edge35" class="edge">
<title>y_arrow_138&#45;&gt;stem_139</title>
<path fill="none" stroke="black" d="M407.81,-180C416.22,-180 425.06,-180 433.36,-180"/>
<polygon fill="black" stroke="black" points="433.52,-183.5 443.52,-180 433.52,-176.5 433.52,-183.5"/>
</g>
<!-- head_140 -->
<g id="node37" class="node">
<title>head_140</title>
<g id="a_node37"><a xlink:href="javascript:s=&quot;\(&quot;&#x27;base&#x27;,\ &quot;,\ &#x27;coords&#x27;,\ &#x27;y_arrow&#x27;,\ &#x27;head&#x27;\)\nCone&quot;; console.log(s); alert(s);" xlink:title="Cone">
<ellipse fill="none" stroke="black" cx="471.63" cy="-126" rx="27.9" ry="18"/>
<text text-anchor="middle" x="471.63" y="-122.3" font-family="Times New Roman,serif" font-size="14.00">head</text>
</a>
</g>
</g>
<!-- y_arrow_138&#45;&gt;head_140 -->
<g id="edge36" class="edge">
<title>y_arrow_138&#45;&gt;head_140</title>
<path fill="none" stroke="black" d="M393.7,-166.37C407.86,-158.94 425.47,-149.7 440.26,-141.93"/>
<polygon fill="black" stroke="black" points="442.29,-144.82 449.52,-137.08 439.04,-138.63 442.29,-144.82"/>
</g>
<!-- stem_142 -->
<g id="node39" class="node">
<title>stem_142</title>
<g id="a_node39"><a xlink:href="javascript:s=&quot;\(&quot;&#x27;base&#x27;,\ &quot;,\ &#x27;coords&#x27;,\ &#x27;z_arrow&#x27;,\ &#x27;stem&#x27;\)\nCone&quot;; console.log(s); alert(s);" xlink:title="Cone">
<ellipse fill="none" stroke="black" cx="471.63" cy="-72" rx="27.9" ry="18"/>
<text text-anchor="middle" x="471.63" y="-68.3" font-family="Times New Roman,serif" font-size="14.00">stem</text>
</a>
</g>
</g>
<!-- z_arrow_141&#45;&gt;stem_142 -->
<g id="edge38" class="edge">
<title>z_arrow_141&#45;&gt;stem_142</title>
<path fill="none" stroke="black" d="M407.22,-72C415.84,-72 424.94,-72 433.47,-72"/>
<polygon fill="black" stroke="black" points="433.52,-75.5 443.52,-72 433.52,-68.5 433.52,-75.5"/>
</g>
<!-- head_143 -->
<g id="node40" class="node">
<title>head_143</title>
<g id="a_node40"><a xlink:href="javascript:s=&quot;\(&quot;&#x27;base&#x27;,\ &quot;,\ &#x27;coords&#x27;,\ &#x27;z_arrow&#x27;,\ &#x27;head&#x27;\)\nCone&quot;; console.log(s); alert(s);" xlink:title="Cone">
<ellipse fill="none" stroke="black" cx="471.63" cy="-18" rx="27.9" ry="18"/>
<text text-anchor="middle" x="471.63" y="-14.3" font-family="Times New Roman,serif" font-size="14.00">head</text>
</a>
</g>
</g>
<!-- z_arrow_141&#45;&gt;head_143 -->
<g id="edge39" class="edge">
<title>z_arrow_141&#45;&gt;head_143</title>
<path fill="none" stroke="black" d="M393.43,-58.51C407.73,-51.01 425.59,-41.63 440.54,-33.79"/>
<polygon fill="black" stroke="black" points="442.18,-36.88 449.41,-29.14 438.93,-30.68 442.18,-36.88"/>
</g>
</g>
</svg>
