solid OpenSCAD_Model
  facet normal 0 0 -1
    outer loop
      vertex -33.99239017683194 -49.69691709202007 -55
      vertex -28.11479710408763 -6.224645515683271 -55
      vertex -28.11479710408763 -56.22464551568327 -55
    endloop
  endfacet
  facet normal 0 0 -1
    outer loop
      vertex -28.11479710408763 -56.22464551568327 -55
      vertex -21.008452488130185 -11.387707097838273 -55
      vertex -21.008452488130185 -61.38770709783827 -55
    endloop
  endfacet
  facet normal -0.9018880800738343 -0.29304120101366954 0.31737162054789836
    outer loop
      vertex -38.38435268526345 -42.08981488247903 -55
      vertex -4.567727288213004 -27.033683215379 55
      vertex -41.09873479278938 -33.73580575654342 -55
    endloop
  endfacet
  facet normal -0.7047251644702569 -0.6345373882074801 0.31737162054789847
    outer loop
      vertex -33.99239017683194 -49.69691709202007 -55
      vertex -28.11479710408763 -56.22464551568327 -55
      vertex -3.345653031794291 -28.71572412738697 55
    endloop
  endfacet
  facet normal -0.8212529700726207 -0.4741506233442067 0.3173716205478984
    outer loop
      vertex -38.38435268526345 -42.08981488247903 -55
      vertex -33.99239017683194 -49.69691709202007 -55
      vertex -4.045084971874737 -27.938926261462367 55
    endloop
  endfacet
  facet normal 0 0 -1
    outer loop
      vertex -38.38435268526345 -42.08981488247903 -55
      vertex -41.09873479278938 -33.73580575654342 -55
      vertex -38.38435268526345 -7.910185117520971 -55
    endloop
  endfacet
  facet normal 0 0 -1
    outer loop
      vertex -41.09873479278938 -33.73580575654342 -55
      vertex -42.01690497626037 -25 -55
      vertex -41.09873479278938 -16.26419424345658 -55
    endloop
  endfacet
  facet normal 0 0 -1
    outer loop
      vertex -41.09873479278938 -33.73580575654342 -55
      vertex -41.09873479278938 -16.26419424345658 -55
      vertex -38.38435268526345 -7.910185117520971 -55
    endloop
  endfacet
  facet normal 0 0 -1
    outer loop
      vertex -38.38435268526345 -42.08981488247903 -55
      vertex -38.38435268526345 -7.910185117520971 -55
      vertex -33.99239017683194 -0.30308290797992754 -55
    endloop
  endfacet
  facet normal 0 0 -1
    outer loop
      vertex -38.38435268526345 -42.08981488247903 -55
      vertex -33.99239017683194 -0.30308290797992754 -55
      vertex -33.99239017683194 -49.69691709202007 -55
    endloop
  endfacet
  facet normal 0 0 -1
    outer loop
      vertex -33.99239017683194 -49.69691709202007 -55
      vertex -33.71949310072926 0 -55
      vertex -28.11479710408763 -6.224645515683271 -55
    endloop
  endfacet
  facet normal 0 0 -1
    outer loop
      vertex -33.99239017683194 -49.69691709202007 -55
      vertex -33.99239017683194 -0.30308290797992754 -55
      vertex -33.71949310072926 0 -55
    endloop
  endfacet
  facet normal 0 0 -1
    outer loop
      vertex -28.11479710408763 -56.22464551568327 -55
      vertex -28.11479710408763 -6.224645515683271 -55
      vertex -21.008452488130185 -11.387707097838273 -55
    endloop
  endfacet
  facet normal -0.9431063532366584 -0.09912447203113998 0.3173716205478984
    outer loop
      vertex -41.09873479278938 -33.73580575654342 -55
      vertex -4.8907380036690284 -26.039558454088798 55
      vertex -42.01690497626037 -25 -55
    endloop
  endfacet
  facet normal 0 0 -1
    outer loop
      vertex -21.008452488130185 -61.38770709783827 -55
      vertex -12.98393768870175 -14.960451272226692 -55
      vertex -12.98393768870175 -64.96045127222669 -55
    endloop
  endfacet
  facet normal 0 0 -1
    outer loop
      vertex -4.391962508431519 -66.7867319744991 -55
      vertex -4.391962508431519 -16.786731974499098 -55
      vertex 4.391962508431519 -66.7867319744991 -55
    endloop
  endfacet
  facet normal 0 0 -1
    outer loop
      vertex -12.98393768870175 -64.96045127222669 -55
      vertex -4.391962508431519 -16.786731974499098 -55
      vertex -4.391962508431519 -66.7867319744991 -55
    endloop
  endfacet
  facet normal -0.38570886570264235 -0.8663162963890162 0.31737162054789847
    outer loop
      vertex -21.008452488130185 -61.38770709783827 -55
      vertex -12.98393768870175 -64.96045127222669 -55
      vertex -2.5 -29.33012701892219 55
    endloop
  endfacet
  facet normal -0.5573974875340161 -0.7671918243578767 0.31737162054789847
    outer loop
      vertex -28.11479710408763 -56.22464551568327 -55
      vertex -21.008452488130185 -61.38770709783827 -55
      vertex -3.345653031794291 -28.71572412738697 55
    endloop
  endfacet
  facet normal -0.19716291560357774 -0.927578589221149 0.31737162054789847
    outer loop
      vertex -12.98393768870175 -64.96045127222669 -55
      vertex -4.391962508431519 -66.7867319744991 -55
      vertex -1.545084971874737 -29.755282581475768 55
    endloop
  endfacet
  facet normal 0 0 -1
    outer loop
      vertex -21.008452488130185 -61.38770709783827 -55
      vertex -21.008452488130185 -11.387707097838273 -55
      vertex -12.98393768870175 -14.960451272226692 -55
    endloop
  endfacet
  facet normal 0 0 -1
    outer loop
      vertex -12.98393768870175 -64.96045127222669 -55
      vertex -12.98393768870175 -14.960451272226692 -55
      vertex -4.391962508431519 -16.786731974499098 -55
    endloop
  endfacet
  facet normal -0.7047251644702587 -0.6345373882074776 0.31737162054789886
    outer loop
      vertex -33.99239017683194 -49.69691709202007 -55
      vertex -3.345653031794291 -28.71572412738697 55
      vertex -4.045084971874737 -27.938926261462367 55
    endloop
  endfacet
  facet normal -0.5573974875340155 -0.7671918243578774 0.3173716205478979
    outer loop
      vertex -21.008452488130185 -61.38770709783827 -55
      vertex -2.5 -29.33012701892219 55
      vertex -3.345653031794291 -28.71572412738697 55
    endloop
  endfacet
  facet normal -0.3857088657026437 -0.8663162963890154 0.31737162054789875
    outer loop
      vertex -12.98393768870175 -64.96045127222669 -55
      vertex -1.545084971874737 -29.755282581475768 55
      vertex -2.5 -29.33012701892219 55
    endloop
  endfacet
  facet normal -0.19716291560357918 -0.9275785892211488 0.3173716205478985
    outer loop
      vertex -4.391962508431519 -66.7867319744991 -55
      vertex -0.5226423163382674 -29.972609476841367 55
      vertex -1.545084971874737 -29.755282581475768 55
    endloop
  endfacet
  facet normal 0 -0.9483012466884144 0.3173716205478983
    outer loop
      vertex -4.391962508431519 -66.7867319744991 -55
      vertex 0.5226423163382674 -29.972609476841367 55
      vertex -0.5226423163382674 -29.972609476841367 55
    endloop
  endfacet
  facet normal -0.9431063532366584 -0.09912447203113954 0.3173716205478984
    outer loop
      vertex -4.8907380036690284 -26.039558454088798 55
      vertex -5 -25 55
      vertex -42.01690497626037 -25 -55
    endloop
  endfacet
  facet normal -0.9018880800738347 -0.2930412010136682 0.31737162054789836
    outer loop
      vertex -41.09873479278938 -33.73580575654342 -55
      vertex -4.567727288213004 -27.033683215379 55
      vertex -4.8907380036690284 -26.039558454088798 55
    endloop
  endfacet
  facet normal -0.8212529700726188 -0.47415062334421004 0.3173716205478986
    outer loop
      vertex -38.38435268526345 -42.08981488247903 -55
      vertex -4.045084971874737 -27.938926261462367 55
      vertex -4.567727288213004 -27.033683215379 55
    endloop
  endfacet
  facet normal 0 0 1
    outer loop
      vertex -4.8907380036690284 -26.039558454088798 55
      vertex -4.567727288213004 -27.033683215379 55
      vertex -4.8907380036690284 -23.960441545911202 55
    endloop
  endfacet
  facet normal 0 0 1
    outer loop
      vertex -4.045084971874737 -27.938926261462367 55
      vertex -4.567727288213004 -22.966316784621 55
      vertex -4.567727288213004 -27.033683215379 55
    endloop
  endfacet
  facet normal 0 0 1
    outer loop
      vertex -4.045084971874737 -27.938926261462367 55
      vertex -3.345653031794291 -28.71572412738697 55
      vertex -4.045084971874737 -22.061073738537633 55
    endloop
  endfacet
  facet normal 0 0 1
    outer loop
      vertex -3.345653031794291 -28.71572412738697 55
      vertex -2.5 -29.33012701892219 55
      vertex -3.345653031794291 -21.28427587261303 55
    endloop
  endfacet
  facet normal 0 0 1
    outer loop
      vertex -2.5 -29.33012701892219 55
      vertex -1.545084971874737 -29.755282581475768 55
      vertex -2.5 -20.66987298107781 55
    endloop
  endfacet
  facet normal 0 0 1
    outer loop
      vertex -1.545084971874737 -29.755282581475768 55
      vertex -0.5226423163382674 -29.972609476841367 55
      vertex -1.545084971874737 -20.244717418524232 55
    endloop
  endfacet
  facet normal 0 0 1
    outer loop
      vertex -0.5226423163382674 -29.972609476841367 55
      vertex 0.5226423163382674 -29.972609476841367 55
      vertex -0.5226423163382674 -20.027390523158633 55
    endloop
  endfacet
  facet normal 0 0 1
    outer loop
      vertex -4.8907380036690284 -26.039558454088798 55
      vertex -4.8907380036690284 -23.960441545911202 55
      vertex -5 -25 55
    endloop
  endfacet
  facet normal 0 0 1
    outer loop
      vertex -4.567727288213004 -27.033683215379 55
      vertex -4.567727288213004 -22.966316784621 55
      vertex -4.8907380036690284 -23.960441545911202 55
    endloop
  endfacet
  facet normal 0 0 1
    outer loop
      vertex -4.045084971874737 -27.938926261462367 55
      vertex -4.045084971874737 -22.061073738537633 55
      vertex -4.567727288213004 -22.966316784621 55
    endloop
  endfacet
  facet normal 0 0 1
    outer loop
      vertex -3.345653031794291 -28.71572412738697 55
      vertex -3.345653031794291 -21.28427587261303 55
      vertex -4.045084971874737 -22.061073738537633 55
    endloop
  endfacet
  facet normal 0 0 1
    outer loop
      vertex -2.5 -29.33012701892219 55
      vertex -2.5 -20.66987298107781 55
      vertex -3.345653031794291 -21.28427587261303 55
    endloop
  endfacet
  facet normal 0 0 1
    outer loop
      vertex -1.545084971874737 -29.755282581475768 55
      vertex -1.545084971874737 -20.244717418524232 55
      vertex -2.5 -20.66987298107781 55
    endloop
  endfacet
  facet normal 0 0 1
    outer loop
      vertex -0.5226423163382674 -29.972609476841367 55
      vertex -0.5226423163382674 -20.027390523158633 55
      vertex -1.545084971874737 -20.244717418524232 55
    endloop
  endfacet
  facet normal 0 0 -1
    outer loop
      vertex -4.391962508431519 -16.786731974499098 -55
      vertex 4.391962508431519 -16.786731974499098 -55
      vertex 4.391962508431519 -66.7867319744991 -55
    endloop
  endfacet
  facet normal 0 0 -1
    outer loop
      vertex 4.391962508431519 -66.7867319744991 -55
      vertex 4.391962508431519 -16.786731974499098 -55
      vertex 12.98393768870175 -64.96045127222669 -55
    endloop
  endfacet
  facet normal 0 0 -1
    outer loop
      vertex 12.98393768870175 -64.96045127222669 -55
      vertex 12.98393768870175 -14.960451272226692 -55
      vertex 21.008452488130185 -61.38770709783827 -55
    endloop
  endfacet
  facet normal 0 -0.9483012466884143 0.3173716205478984
    outer loop
      vertex -4.391962508431519 -66.7867319744991 -55
      vertex 4.391962508431519 -66.7867319744991 -55
      vertex 0.5226423163382674 -29.972609476841367 55
    endloop
  endfacet
  facet normal 0.19716291560357774 -0.927578589221149 0.31737162054789847
    outer loop
      vertex 4.391962508431519 -66.7867319744991 -55
      vertex 12.98393768870175 -64.96045127222669 -55
      vertex 1.545084971874737 -29.755282581475768 55
    endloop
  endfacet
  facet normal 0.38570886570264235 -0.8663162963890162 0.31737162054789847
    outer loop
      vertex 12.98393768870175 -64.96045127222669 -55
      vertex 21.008452488130185 -61.38770709783827 -55
      vertex 2.5 -29.33012701892219 55
    endloop
  endfacet
  facet normal 0.5573974875340161 -0.7671918243578767 0.31737162054789847
    outer loop
      vertex 21.008452488130185 -61.38770709783827 -55
      vertex 28.11479710408763 -56.22464551568327 -55
      vertex 3.345653031794291 -28.71572412738697 55
    endloop
  endfacet
  facet normal 0 0 -1
    outer loop
      vertex 12.98393768870175 -64.96045127222669 -55
      vertex 4.391962508431519 -16.786731974499098 -55
      vertex 12.98393768870175 -14.960451272226692 -55
    endloop
  endfacet
  facet normal 0 0 -1
    outer loop
      vertex 12.98393768870175 -14.960451272226692 -55
      vertex 21.008452488130185 -11.387707097838273 -55
      vertex 21.008452488130185 -61.38770709783827 -55
    endloop
  endfacet
  facet normal 0 0 -1
    outer loop
      vertex 21.008452488130185 -61.38770709783827 -55
      vertex 21.008452488130185 -11.387707097838273 -55
      vertex 28.11479710408763 -56.22464551568327 -55
    endloop
  endfacet
  facet normal 0 0 -1
    outer loop
      vertex 28.11479710408763 -56.22464551568327 -55
      vertex 33.99239017683194 -0.30308290797992754 -55
      vertex 33.99239017683194 -49.69691709202007 -55
    endloop
  endfacet
  facet normal 0.7047251644702569 -0.6345373882074801 0.3173716205478984
    outer loop
      vertex 28.11479710408763 -56.22464551568327 -55
      vertex 33.99239017683194 -49.69691709202007 -55
      vertex 3.345653031794291 -28.71572412738697 55
    endloop
  endfacet
  facet normal 0.8212529700726207 -0.4741506233442067 0.3173716205478984
    outer loop
      vertex 33.99239017683194 -49.69691709202007 -55
      vertex 38.38435268526345 -42.08981488247903 -55
      vertex 4.045084971874737 -27.938926261462367 55
    endloop
  endfacet
  facet normal 0.9018880800738343 -0.29304120101366954 0.31737162054789836
    outer loop
      vertex 38.38435268526345 -42.08981488247903 -55
      vertex 41.09873479278938 -33.73580575654342 -55
      vertex 4.567727288213004 -27.033683215379 55
    endloop
  endfacet
  facet normal 0 0 -1
    outer loop
      vertex 28.11479710408763 -56.22464551568327 -55
      vertex 21.008452488130185 -11.387707097838273 -55
      vertex 28.11479710408763 -6.224645515683271 -55
    endloop
  endfacet
  facet normal 0 0 -1
    outer loop
      vertex 28.11479710408763 -56.22464551568327 -55
      vertex 28.11479710408763 -6.224645515683271 -55
      vertex 33.99239017683194 -0.30308290797992754 -55
    endloop
  endfacet
  facet normal 0 0 -1
    outer loop
      vertex 33.99239017683194 -49.69691709202007 -55
      vertex 33.99239017683194 -0.30308290797992754 -55
      vertex 38.38435268526345 -7.910185117520971 -55
    endloop
  endfacet
  facet normal 0 0 -1
    outer loop
      vertex 33.99239017683194 -49.69691709202007 -55
      vertex 38.38435268526345 -7.910185117520971 -55
      vertex 38.38435268526345 -42.08981488247903 -55
    endloop
  endfacet
  facet normal 0 0 -1
    outer loop
      vertex 38.38435268526345 -42.08981488247903 -55
      vertex 41.09873479278938 -16.26419424345658 -55
      vertex 41.09873479278938 -33.73580575654342 -55
    endloop
  endfacet
  facet normal 0 0 -1
    outer loop
      vertex 38.38435268526345 -42.08981488247903 -55
      vertex 38.38435268526345 -7.910185117520971 -55
      vertex 41.09873479278938 -16.26419424345658 -55
    endloop
  endfacet
  facet normal 0 0 -1
    outer loop
      vertex 41.09873479278938 -33.73580575654342 -55
      vertex 41.09873479278938 -16.26419424345658 -55
      vertex 42.01690497626037 -25 -55
    endloop
  endfacet
  facet normal 0 0 -1
    outer loop
      vertex 28.11479710408763 -6.224645515683271 -55
      vertex 33.71949310072926 0 -55
      vertex 33.99239017683194 -0.30308290797992754 -55
    endloop
  endfacet
  facet normal 0.9431063532366584 -0.09912447203113998 0.3173716205478984
    outer loop
      vertex 41.09873479278938 -33.73580575654342 -55
      vertex 42.01690497626037 -25 -55
      vertex 4.8907380036690284 -26.039558454088798 55
    endloop
  endfacet
  facet normal 0.19716291560357918 -0.9275785892211488 0.3173716205478985
    outer loop
      vertex 4.391962508431519 -66.7867319744991 -55
      vertex 1.545084971874737 -29.755282581475768 55
      vertex 0.5226423163382674 -29.972609476841367 55
    endloop
  endfacet
  facet normal 0.3857088657026437 -0.8663162963890154 0.31737162054789875
    outer loop
      vertex 12.98393768870175 -64.96045127222669 -55
      vertex 2.5 -29.33012701892219 55
      vertex 1.545084971874737 -29.755282581475768 55
    endloop
  endfacet
  facet normal 0.5573974875340155 -0.7671918243578774 0.3173716205478979
    outer loop
      vertex 21.008452488130185 -61.38770709783827 -55
      vertex 3.345653031794291 -28.71572412738697 55
      vertex 2.5 -29.33012701892219 55
    endloop
  endfacet
  facet normal 0.7047251644702587 -0.6345373882074776 0.31737162054789886
    outer loop
      vertex 33.99239017683194 -49.69691709202007 -55
      vertex 4.045084971874737 -27.938926261462367 55
      vertex 3.345653031794291 -28.71572412738697 55
    endloop
  endfacet
  facet normal 0.8212529700726188 -0.47415062334421004 0.3173716205478986
    outer loop
      vertex 38.38435268526345 -42.08981488247903 -55
      vertex 4.567727288213004 -27.033683215379 55
      vertex 4.045084971874737 -27.938926261462367 55
    endloop
  endfacet
  facet normal 0.9018880800738347 -0.2930412010136682 0.31737162054789836
    outer loop
      vertex 41.09873479278938 -33.73580575654342 -55
      vertex 4.8907380036690284 -26.039558454088798 55
      vertex 4.567727288213004 -27.033683215379 55
    endloop
  endfacet
  facet normal 0.9431063532366583 -0.09912447203114023 0.3173716205478984
    outer loop
      vertex 42.01690497626037 -25 -55
      vertex 5 -25 55
      vertex 4.8907380036690284 -26.039558454088798 55
    endloop
  endfacet
  facet normal 0 0 1
    outer loop
      vertex 0.5226423163382674 -29.972609476841367 55
      vertex 1.545084971874737 -29.755282581475768 55
      vertex 0.5226423163382674 -20.027390523158633 55
    endloop
  endfacet
  facet normal 0 0 1
    outer loop
      vertex 1.545084971874737 -29.755282581475768 55
      vertex 2.5 -29.33012701892219 55
      vertex 1.545084971874737 -20.244717418524232 55
    endloop
  endfacet
  facet normal 0 0 1
    outer loop
      vertex 2.5 -29.33012701892219 55
      vertex 3.345653031794291 -28.71572412738697 55
      vertex 2.5 -20.66987298107781 55
    endloop
  endfacet
  facet normal 0 0 1
    outer loop
      vertex 3.345653031794291 -28.71572412738697 55
      vertex 4.045084971874737 -27.938926261462367 55
      vertex 3.345653031794291 -21.28427587261303 55
    endloop
  endfacet
  facet normal 0 0 1
    outer loop
      vertex 4.045084971874737 -27.938926261462367 55
      vertex 4.567727288213004 -27.033683215379 55
      vertex 4.045084971874737 -22.061073738537633 55
    endloop
  endfacet
  facet normal 0 0 1
    outer loop
      vertex 4.567727288213004 -27.033683215379 55
      vertex 4.8907380036690284 -26.039558454088798 55
      vertex 4.567727288213004 -22.966316784621 55
    endloop
  endfacet
  facet normal 0 0 1
    outer loop
      vertex -0.5226423163382674 -20.027390523158633 55
      vertex 0.5226423163382674 -29.972609476841367 55
      vertex 0.5226423163382674 -20.027390523158633 55
    endloop
  endfacet
  facet normal 0 0 1
    outer loop
      vertex 1.545084971874737 -29.755282581475768 55
      vertex 1.545084971874737 -20.244717418524232 55
      vertex 0.5226423163382674 -20.027390523158633 55
    endloop
  endfacet
  facet normal 0 0 1
    outer loop
      vertex 2.5 -29.33012701892219 55
      vertex 2.5 -20.66987298107781 55
      vertex 1.545084971874737 -20.244717418524232 55
    endloop
  endfacet
  facet normal 0 0 1
    outer loop
      vertex 3.345653031794291 -28.71572412738697 55
      vertex 3.345653031794291 -21.28427587261303 55
      vertex 2.5 -20.66987298107781 55
    endloop
  endfacet
  facet normal 0 0 1
    outer loop
      vertex 4.045084971874737 -27.938926261462367 55
      vertex 4.045084971874737 -22.061073738537633 55
      vertex 3.345653031794291 -21.28427587261303 55
    endloop
  endfacet
  facet normal 0 0 1
    outer loop
      vertex 4.567727288213004 -27.033683215379 55
      vertex 4.567727288213004 -22.966316784621 55
      vertex 4.045084971874737 -22.061073738537633 55
    endloop
  endfacet
  facet normal 0 0 1
    outer loop
      vertex 4.8907380036690284 -26.039558454088798 55
      vertex 4.8907380036690284 -23.960441545911202 55
      vertex 4.567727288213004 -22.966316784621 55
    endloop
  endfacet
  facet normal 0 0 1
    outer loop
      vertex 4.8907380036690284 -26.039558454088798 55
      vertex 5 -25 55
      vertex 4.8907380036690284 -23.960441545911202 55
    endloop
  endfacet
  facet normal 0 0 -1
    outer loop
      vertex -41.09873479278938 16.26419424345658 -55
      vertex -42.01690497626037 25 -55
      vertex -41.09873479278938 33.73580575654342 -55
    endloop
  endfacet
  facet normal 0 0 -1
    outer loop
      vertex -38.38435268526345 7.910185117520971 -55
      vertex -41.09873479278938 16.26419424345658 -55
      vertex -38.38435268526345 42.08981488247903 -55
    endloop
  endfacet
  facet normal 0 0 -1
    outer loop
      vertex -41.09873479278938 16.26419424345658 -55
      vertex -41.09873479278938 33.73580575654342 -55
      vertex -38.38435268526345 42.08981488247903 -55
    endloop
  endfacet
  facet normal 0 0 -1
    outer loop
      vertex -38.38435268526345 7.910185117520971 -55
      vertex -38.38435268526345 42.08981488247903 -55
      vertex -33.99239017683194 49.69691709202007 -55
    endloop
  endfacet
  facet normal 0 0 -1
    outer loop
      vertex -38.38435268526345 7.910185117520971 -55
      vertex -33.99239017683194 49.69691709202007 -55
      vertex -33.99239017683194 0.30308290797992754 -55
    endloop
  endfacet
  facet normal 0 0 -1
    outer loop
      vertex -33.99239017683194 0.30308290797992754 -55
      vertex -28.11479710408763 56.22464551568327 -55
      vertex -33.71949310072926 0 -55
    endloop
  endfacet
  facet normal 0 0 -1
    outer loop
      vertex -28.11479710408763 -6.224645515683271 -55
      vertex -33.71949310072926 0 -55
      vertex -28.11479710408763 56.22464551568327 -55
    endloop
  endfacet
  facet normal 0 0 -1
    outer loop
      vertex -28.11479710408763 -6.224645515683271 -55
      vertex -21.008452488130185 61.38770709783827 -55
      vertex -21.008452488130185 -11.387707097838273 -55
    endloop
  endfacet
  facet normal -0.9431063532366584 0.09912447203113998 0.3173716205478984
    outer loop
      vertex -42.01690497626037 25 -55
      vertex -4.8907380036690284 26.039558454088798 55
      vertex -41.09873479278938 33.73580575654342 -55
    endloop
  endfacet
  facet normal 0 0 -1
    outer loop
      vertex -33.99239017683194 0.30308290797992754 -55
      vertex -33.99239017683194 49.69691709202007 -55
      vertex -28.11479710408763 56.22464551568327 -55
    endloop
  endfacet
  facet normal 0 0 -1
    outer loop
      vertex -28.11479710408763 -6.224645515683271 -55
      vertex -28.11479710408763 56.22464551568327 -55
      vertex -21.008452488130185 61.38770709783827 -55
    endloop
  endfacet
  facet normal -0.9018880800738343 0.29304120101366954 0.3173716205478984
    outer loop
      vertex -41.09873479278938 33.73580575654342 -55
      vertex -4.567727288213004 27.033683215379 55
      vertex -38.38435268526345 42.08981488247903 -55
    endloop
  endfacet
  facet normal -0.8212529700726207 0.4741506233442067 0.3173716205478984
    outer loop
      vertex -38.38435268526345 42.08981488247903 -55
      vertex -4.045084971874737 27.938926261462367 55
      vertex -33.99239017683194 49.69691709202007 -55
    endloop
  endfacet
  facet normal -0.7047251644702569 0.6345373882074801 0.31737162054789847
    outer loop
      vertex -33.99239017683194 49.69691709202007 -55
      vertex -3.345653031794291 28.71572412738697 55
      vertex -28.11479710408763 56.22464551568327 -55
    endloop
  endfacet
  facet normal 0 0 -1
    outer loop
      vertex -21.008452488130185 -11.387707097838273 -55
      vertex -12.98393768870175 64.96045127222669 -55
      vertex -12.98393768870175 -14.960451272226692 -55
    endloop
  endfacet
  facet normal 0 0 -1
    outer loop
      vertex -12.98393768870175 -14.960451272226692 -55
      vertex -4.391962508431519 66.7867319744991 -55
      vertex -4.391962508431519 -16.786731974499098 -55
    endloop
  endfacet
  facet normal 0 0 -1
    outer loop
      vertex -21.008452488130185 -11.387707097838273 -55
      vertex -21.008452488130185 61.38770709783827 -55
      vertex -12.98393768870175 64.96045127222669 -55
    endloop
  endfacet
  facet normal 0 0 -1
    outer loop
      vertex -12.98393768870175 -14.960451272226692 -55
      vertex -12.98393768870175 64.96045127222669 -55
      vertex -4.391962508431519 66.7867319744991 -55
    endloop
  endfacet
  facet normal 0 0 -1
    outer loop
      vertex -4.391962508431519 -16.786731974499098 -55
      vertex -4.391962508431519 66.7867319744991 -55
      vertex 4.391962508431519 66.7867319744991 -55
    endloop
  endfacet
  facet normal -0.5573974875340161 0.7671918243578767 0.31737162054789847
    outer loop
      vertex -28.11479710408763 56.22464551568327 -55
      vertex -3.345653031794291 28.71572412738697 55
      vertex -21.008452488130185 61.38770709783827 -55
    endloop
  endfacet
  facet normal -0.38570886570264235 0.8663162963890162 0.31737162054789847
    outer loop
      vertex -21.008452488130185 61.38770709783827 -55
      vertex -2.5 29.33012701892219 55
      vertex -12.98393768870175 64.96045127222669 -55
    endloop
  endfacet
  facet normal -0.19716291560357774 0.927578589221149 0.31737162054789847
    outer loop
      vertex -12.98393768870175 64.96045127222669 -55
      vertex -1.545084971874737 29.755282581475768 55
      vertex -4.391962508431519 66.7867319744991 -55
    endloop
  endfacet
  facet normal 0 0.9483012466884143 0.3173716205478984
    outer loop
      vertex -4.391962508431519 66.7867319744991 -55
      vertex -0.5226423163382674 29.972609476841367 55
      vertex 4.391962508431519 66.7867319744991 -55
    endloop
  endfacet
  facet normal -0.9431063532366583 0.09912447203114023 0.3173716205478984
    outer loop
      vertex -42.01690497626037 25 -55
      vertex -5 25 55
      vertex -4.8907380036690284 26.039558454088798 55
    endloop
  endfacet
  facet normal -0.9018880800738347 0.2930412010136682 0.31737162054789836
    outer loop
      vertex -41.09873479278938 33.73580575654342 -55
      vertex -4.8907380036690284 26.039558454088798 55
      vertex -4.567727288213004 27.033683215379 55
    endloop
  endfacet
  facet normal -0.8212529700726188 0.47415062334421004 0.3173716205478986
    outer loop
      vertex -38.38435268526345 42.08981488247903 -55
      vertex -4.567727288213004 27.033683215379 55
      vertex -4.045084971874737 27.938926261462367 55
    endloop
  endfacet
  facet normal 0 0 1
    outer loop
      vertex -4.8907380036690284 23.960441545911202 55
      vertex -4.8907380036690284 26.039558454088798 55
      vertex -5 25 55
    endloop
  endfacet
  facet normal 0 0 1
    outer loop
      vertex -4.8907380036690284 23.960441545911202 55
      vertex -4.567727288213004 22.966316784621 55
      vertex -4.8907380036690284 26.039558454088798 55
    endloop
  endfacet
  facet normal 0 0 1
    outer loop
      vertex -4.045084971874737 22.061073738537633 55
      vertex -4.567727288213004 27.033683215379 55
      vertex -4.567727288213004 22.966316784621 55
    endloop
  endfacet
  facet normal 0 0 1
    outer loop
      vertex -4.045084971874737 22.061073738537633 55
      vertex -3.345653031794291 21.28427587261303 55
      vertex -4.045084971874737 27.938926261462367 55
    endloop
  endfacet
  facet normal 0 0 1
    outer loop
      vertex -3.345653031794291 21.28427587261303 55
      vertex -2.5 20.66987298107781 55
      vertex -3.345653031794291 28.71572412738697 55
    endloop
  endfacet
  facet normal 0 0 1
    outer loop
      vertex -2.5 20.66987298107781 55
      vertex -1.545084971874737 20.244717418524232 55
      vertex -2.5 29.33012701892219 55
    endloop
  endfacet
  facet normal 0 0 1
    outer loop
      vertex -1.545084971874737 20.244717418524232 55
      vertex -0.5226423163382674 20.027390523158633 55
      vertex -1.545084971874737 29.755282581475768 55
    endloop
  endfacet
  facet normal 0 0 1
    outer loop
      vertex -0.5226423163382674 20.027390523158633 55
      vertex 0.5226423163382674 20.027390523158633 55
      vertex -0.5226423163382674 29.972609476841367 55
    endloop
  endfacet
  facet normal 0 0 1
    outer loop
      vertex -4.567727288213004 22.966316784621 55
      vertex -4.567727288213004 27.033683215379 55
      vertex -4.8907380036690284 26.039558454088798 55
    endloop
  endfacet
  facet normal 0 0 1
    outer loop
      vertex -4.045084971874737 22.061073738537633 55
      vertex -4.045084971874737 27.938926261462367 55
      vertex -4.567727288213004 27.033683215379 55
    endloop
  endfacet
  facet normal 0 0 1
    outer loop
      vertex -3.345653031794291 21.28427587261303 55
      vertex -3.345653031794291 28.71572412738697 55
      vertex -4.045084971874737 27.938926261462367 55
    endloop
  endfacet
  facet normal 0 0 1
    outer loop
      vertex -2.5 20.66987298107781 55
      vertex -2.5 29.33012701892219 55
      vertex -3.345653031794291 28.71572412738697 55
    endloop
  endfacet
  facet normal 0 0 1
    outer loop
      vertex -1.545084971874737 20.244717418524232 55
      vertex -1.545084971874737 29.755282581475768 55
      vertex -2.5 29.33012701892219 55
    endloop
  endfacet
  facet normal 0 0 1
    outer loop
      vertex -0.5226423163382674 20.027390523158633 55
      vertex -0.5226423163382674 29.972609476841367 55
      vertex -1.545084971874737 29.755282581475768 55
    endloop
  endfacet
  facet normal -0.7047251644702587 0.6345373882074776 0.31737162054789886
    outer loop
      vertex -33.99239017683194 49.69691709202007 -55
      vertex -4.045084971874737 27.938926261462367 55
      vertex -3.345653031794291 28.71572412738697 55
    endloop
  endfacet
  facet normal -0.5573974875340155 0.7671918243578774 0.3173716205478979
    outer loop
      vertex -21.008452488130185 61.38770709783827 -55
      vertex -3.345653031794291 28.71572412738697 55
      vertex -2.5 29.33012701892219 55
    endloop
  endfacet
  facet normal -0.3857088657026437 0.8663162963890154 0.31737162054789875
    outer loop
      vertex -12.98393768870175 64.96045127222669 -55
      vertex -2.5 29.33012701892219 55
      vertex -1.545084971874737 29.755282581475768 55
    endloop
  endfacet
  facet normal -0.19716291560357918 0.9275785892211488 0.3173716205478985
    outer loop
      vertex -4.391962508431519 66.7867319744991 -55
      vertex -1.545084971874737 29.755282581475768 55
      vertex -0.5226423163382674 29.972609476841367 55
    endloop
  endfacet
  facet normal 0 0 -1
    outer loop
      vertex -4.391962508431519 -16.786731974499098 -55
      vertex 4.391962508431519 66.7867319744991 -55
      vertex 4.391962508431519 -16.786731974499098 -55
    endloop
  endfacet
  facet normal 0 0 -1
    outer loop
      vertex 4.391962508431519 -16.786731974499098 -55
      vertex 12.98393768870175 64.96045127222669 -55
      vertex 12.98393768870175 -14.960451272226692 -55
    endloop
  endfacet
  facet normal 0 0 -1
    outer loop
      vertex 12.98393768870175 -14.960451272226692 -55
      vertex 21.008452488130185 61.38770709783827 -55
      vertex 21.008452488130185 -11.387707097838273 -55
    endloop
  endfacet
  facet normal 0 0 -1
    outer loop
      vertex 4.391962508431519 -16.786731974499098 -55
      vertex 4.391962508431519 66.7867319744991 -55
      vertex 12.98393768870175 64.96045127222669 -55
    endloop
  endfacet
  facet normal 0 0 -1
    outer loop
      vertex 12.98393768870175 -14.960451272226692 -55
      vertex 12.98393768870175 64.96045127222669 -55
      vertex 21.008452488130185 61.38770709783827 -55
    endloop
  endfacet
  facet normal 0.19716291560357774 0.927578589221149 0.31737162054789847
    outer loop
      vertex 4.391962508431519 66.7867319744991 -55
      vertex 1.545084971874737 29.755282581475768 55
      vertex 12.98393768870175 64.96045127222669 -55
    endloop
  endfacet
  facet normal 0.5573974875340161 0.7671918243578767 0.31737162054789847
    outer loop
      vertex 21.008452488130185 61.38770709783827 -55
      vertex 3.345653031794291 28.71572412738697 55
      vertex 28.11479710408763 56.22464551568327 -55
    endloop
  endfacet
  facet normal 0.38570886570264235 0.8663162963890162 0.31737162054789847
    outer loop
      vertex 12.98393768870175 64.96045127222669 -55
      vertex 2.5 29.33012701892219 55
      vertex 21.008452488130185 61.38770709783827 -55
    endloop
  endfacet
  facet normal 0 0 -1
    outer loop
      vertex 21.008452488130185 -11.387707097838273 -55
      vertex 28.11479710408763 56.22464551568327 -55
      vertex 28.11479710408763 -6.224645515683271 -55
    endloop
  endfacet
  facet normal 0 0 -1
    outer loop
      vertex 28.11479710408763 -6.224645515683271 -55
      vertex 28.11479710408763 56.22464551568327 -55
      vertex 33.99239017683194 49.69691709202007 -55
    endloop
  endfacet
  facet normal 0 0 -1
    outer loop
      vertex 28.11479710408763 -6.224645515683271 -55
      vertex 33.99239017683194 49.69691709202007 -55
      vertex 33.71949310072926 0 -55
    endloop
  endfacet
  facet normal 0 0 -1
    outer loop
      vertex 33.71949310072926 0 -55
      vertex 33.99239017683194 49.69691709202007 -55
      vertex 33.99239017683194 0.30308290797992754 -55
    endloop
  endfacet
  facet normal 0 0 -1
    outer loop
      vertex 33.99239017683194 0.30308290797992754 -55
      vertex 33.99239017683194 49.69691709202007 -55
      vertex 38.38435268526345 42.08981488247903 -55
    endloop
  endfacet
  facet normal 0 0 -1
    outer loop
      vertex 33.99239017683194 0.30308290797992754 -55
      vertex 38.38435268526345 42.08981488247903 -55
      vertex 38.38435268526345 7.910185117520971 -55
    endloop
  endfacet
  facet normal 0 0 -1
    outer loop
      vertex 38.38435268526345 7.910185117520971 -55
      vertex 41.09873479278938 33.73580575654342 -55
      vertex 41.09873479278938 16.26419424345658 -55
    endloop
  endfacet
  facet normal 0 0 -1
    outer loop
      vertex 41.09873479278938 16.26419424345658 -55
      vertex 41.09873479278938 33.73580575654342 -55
      vertex 42.01690497626037 25 -55
    endloop
  endfacet
  facet normal 0 0 -1
    outer loop
      vertex 38.38435268526345 7.910185117520971 -55
      vertex 38.38435268526345 42.08981488247903 -55
      vertex 41.09873479278938 33.73580575654342 -55
    endloop
  endfacet
  facet normal 0.9431063532366584 0.09912447203113998 0.3173716205478984
    outer loop
      vertex 42.01690497626037 25 -55
      vertex 41.09873479278938 33.73580575654342 -55
      vertex 4.8907380036690284 26.039558454088798 55
    endloop
  endfacet
  facet normal 0 0 -1
    outer loop
      vertex 21.008452488130185 -11.387707097838273 -55
      vertex 21.008452488130185 61.38770709783827 -55
      vertex 28.11479710408763 56.22464551568327 -55
    endloop
  endfacet
  facet normal 0.8212529700726207 0.4741506233442067 0.3173716205478984
    outer loop
      vertex 33.99239017683194 49.69691709202007 -55
      vertex 4.045084971874737 27.938926261462367 55
      vertex 38.38435268526345 42.08981488247903 -55
    endloop
  endfacet
  facet normal 0.7047251644702569 0.6345373882074801 0.3173716205478984
    outer loop
      vertex 28.11479710408763 56.22464551568327 -55
      vertex 3.345653031794291 28.71572412738697 55
      vertex 33.99239017683194 49.69691709202007 -55
    endloop
  endfacet
  facet normal 0.9018880800738343 0.29304120101366954 0.3173716205478984
    outer loop
      vertex 41.09873479278938 33.73580575654342 -55
      vertex 38.38435268526345 42.08981488247903 -55
      vertex 4.567727288213004 27.033683215379 55
    endloop
  endfacet
  facet normal 0.8212529700726188 0.47415062334421004 0.3173716205478986
    outer loop
      vertex 38.38435268526345 42.08981488247903 -55
      vertex 4.045084971874737 27.938926261462367 55
      vertex 4.567727288213004 27.033683215379 55
    endloop
  endfacet
  facet normal 0.9018880800738347 0.2930412010136682 0.31737162054789836
    outer loop
      vertex 41.09873479278938 33.73580575654342 -55
      vertex 4.567727288213004 27.033683215379 55
      vertex 4.8907380036690284 26.039558454088798 55
    endloop
  endfacet
  facet normal 0.9431063532366583 0.09912447203114023 0.3173716205478984
    outer loop
      vertex 42.01690497626037 25 -55
      vertex 4.8907380036690284 26.039558454088798 55
      vertex 5 25 55
    endloop
  endfacet
  facet normal 0 0 1
    outer loop
      vertex 0.5226423163382674 20.027390523158633 55
      vertex 1.545084971874737 20.244717418524232 55
      vertex 0.5226423163382674 29.972609476841367 55
    endloop
  endfacet
  facet normal 0 0 1
    outer loop
      vertex 1.545084971874737 20.244717418524232 55
      vertex 2.5 20.66987298107781 55
      vertex 1.545084971874737 29.755282581475768 55
    endloop
  endfacet
  facet normal 0 0 1
    outer loop
      vertex 2.5 20.66987298107781 55
      vertex 3.345653031794291 21.28427587261303 55
      vertex 2.5 29.33012701892219 55
    endloop
  endfacet
  facet normal 0 0 1
    outer loop
      vertex 3.345653031794291 21.28427587261303 55
      vertex 4.045084971874737 22.061073738537633 55
      vertex 3.345653031794291 28.71572412738697 55
    endloop
  endfacet
  facet normal 0 0 1
    outer loop
      vertex 4.045084971874737 22.061073738537633 55
      vertex 4.567727288213004 22.966316784621 55
      vertex 4.045084971874737 27.938926261462367 55
    endloop
  endfacet
  facet normal 0 0 1
    outer loop
      vertex 4.567727288213004 22.966316784621 55
      vertex 4.8907380036690284 23.960441545911202 55
      vertex 4.567727288213004 27.033683215379 55
    endloop
  endfacet
  facet normal 0 0 1
    outer loop
      vertex 4.8907380036690284 23.960441545911202 55
      vertex 5 25 55
      vertex 4.8907380036690284 26.039558454088798 55
    endloop
  endfacet
  facet normal 0 0 1
    outer loop
      vertex -0.5226423163382674 29.972609476841367 55
      vertex 0.5226423163382674 20.027390523158633 55
      vertex 0.5226423163382674 29.972609476841367 55
    endloop
  endfacet
  facet normal 0 0 1
    outer loop
      vertex 1.545084971874737 20.244717418524232 55
      vertex 1.545084971874737 29.755282581475768 55
      vertex 0.5226423163382674 29.972609476841367 55
    endloop
  endfacet
  facet normal 0 0 1
    outer loop
      vertex 2.5 20.66987298107781 55
      vertex 2.5 29.33012701892219 55
      vertex 1.545084971874737 29.755282581475768 55
    endloop
  endfacet
  facet normal 0 0 1
    outer loop
      vertex 3.345653031794291 21.28427587261303 55
      vertex 3.345653031794291 28.71572412738697 55
      vertex 2.5 29.33012701892219 55
    endloop
  endfacet
  facet normal 0 0 1
    outer loop
      vertex 4.045084971874737 22.061073738537633 55
      vertex 4.045084971874737 27.938926261462367 55
      vertex 3.345653031794291 28.71572412738697 55
    endloop
  endfacet
  facet normal 0 0 1
    outer loop
      vertex 4.567727288213004 22.966316784621 55
      vertex 4.567727288213004 27.033683215379 55
      vertex 4.045084971874737 27.938926261462367 55
    endloop
  endfacet
  facet normal 0 0 1
    outer loop
      vertex 4.8907380036690284 23.960441545911202 55
      vertex 4.8907380036690284 26.039558454088798 55
      vertex 4.567727288213004 27.033683215379 55
    endloop
  endfacet
  facet normal 0 0.9483012466884142 0.3173716205478984
    outer loop
      vertex -0.5226423163382674 29.972609476841367 55
      vertex 0.5226423163382674 29.972609476841367 55
      vertex 4.391962508431519 66.7867319744991 -55
    endloop
  endfacet
  facet normal 0.19716291560357918 0.9275785892211488 0.3173716205478985
    outer loop
      vertex 4.391962508431519 66.7867319744991 -55
      vertex 0.5226423163382674 29.972609476841367 55
      vertex 1.545084971874737 29.755282581475768 55
    endloop
  endfacet
  facet normal 0.3857088657026437 0.8663162963890154 0.31737162054789875
    outer loop
      vertex 12.98393768870175 64.96045127222669 -55
      vertex 1.545084971874737 29.755282581475768 55
      vertex 2.5 29.33012701892219 55
    endloop
  endfacet
  facet normal 0.5573974875340155 0.7671918243578774 0.3173716205478979
    outer loop
      vertex 21.008452488130185 61.38770709783827 -55
      vertex 2.5 29.33012701892219 55
      vertex 3.345653031794291 28.71572412738697 55
    endloop
  endfacet
  facet normal 0.7047251644702587 0.6345373882074776 0.31737162054789886
    outer loop
      vertex 33.99239017683194 49.69691709202007 -55
      vertex 3.345653031794291 28.71572412738697 55
      vertex 4.045084971874737 27.938926261462367 55
    endloop
  endfacet
  facet normal 0 0 -1
    outer loop
      vertex -42.01690497994423 -25 -55
      vertex -41.09873479278938 -16.26419424345658 -55
      vertex -42.01690497626037 -25 -55
    endloop
  endfacet
  facet normal 0 0 -1
    outer loop
      vertex -42.01690497994423 -25 -55
      vertex -42.01690497994423 -12.5 -55
      vertex -41.09873479278938 -16.26419424345658 -55
    endloop
  endfacet
  facet normal 0 0 -1
    outer loop
      vertex -42.01690497994423 -12.5 -55
      vertex -38.38435268526345 -7.910185117520971 -55
      vertex -41.09873479278938 -16.26419424345658 -55
    endloop
  endfacet
  facet normal 0 0 -1
    outer loop
      vertex -42.01690497994423 -12.5 -55
      vertex -42.01690497994423 0 -55
      vertex -38.38435268526345 -7.910185117520971 -55
    endloop
  endfacet
  facet normal 0 0 -1
    outer loop
      vertex -42.01690497994423 0 -55
      vertex -33.99239017683194 -0.30308290797992754 -55
      vertex -38.38435268526345 -7.910185117520971 -55
    endloop
  endfacet
  facet normal 0 0 -1
    outer loop
      vertex -42.01690497994423 0 -55
      vertex -33.71949310072926 0 -55
      vertex -33.99239017683194 -0.30308290797992754 -55
    endloop
  endfacet
  facet normal 0 -1 0
    outer loop
      vertex -42.01690497994423 -25 -55
      vertex -42.01690497626037 -25 -55
      vertex -5 -25 55
    endloop
  endfacet
  facet normal -0.9477741009471772 0 0.3189423985201248
    outer loop
      vertex -42.01690497994423 -25 -55
      vertex -5 -25 55
      vertex -42.01690497994423 -12.5 -55
    endloop
  endfacet
  facet normal -0.9477741009471772 0 0.3189423985201248
    outer loop
      vertex -42.01690497994423 -12.5 -55
      vertex -5 -12.5 55
      vertex -42.01690497994423 0 -55
    endloop
  endfacet
  facet normal -0.9477741009471772 0 0.3189423985201248
    outer loop
      vertex -42.01690497994423 -12.5 -55
      vertex -5 -25 55
      vertex -5 -12.5 55
    endloop
  endfacet
  facet normal -0.9477741009471772 0 0.3189423985201248
    outer loop
      vertex -5 -12.5 55
      vertex -5 0 55
      vertex -42.01690497994423 0 -55
    endloop
  endfacet
  facet normal 0 0 1
    outer loop
      vertex -5 -12.5 55
      vertex -5 -25 55
      vertex -4.8907380036690284 -23.960441545911202 55
    endloop
  endfacet
  facet normal 0 0 1
    outer loop
      vertex -5 -12.5 55
      vertex -4.8907380036690284 -23.960441545911202 55
      vertex -4.567727288213004 -22.966316784621 55
    endloop
  endfacet
  facet normal 0 0 1
    outer loop
      vertex -5 -12.5 55
      vertex -4.567727288213004 -22.966316784621 55
      vertex -4.045084971874737 -22.061073738537633 55
    endloop
  endfacet
  facet normal 0 0 1
    outer loop
      vertex -5 -12.5 55
      vertex -4.045084971874737 -22.061073738537633 55
      vertex -3.345653031794291 -21.28427587261303 55
    endloop
  endfacet
  facet normal 0 0 1
    outer loop
      vertex -5 -12.5 55
      vertex -3.345653031794291 -21.28427587261303 55
      vertex -2.5 -20.66987298107781 55
    endloop
  endfacet
  facet normal 0 0 1
    outer loop
      vertex -5 -12.5 55
      vertex -2.5 -20.66987298107781 55
      vertex -1.545084971874737 -20.244717418524232 55
    endloop
  endfacet
  facet normal 0 0 1
    outer loop
      vertex -5 -12.5 55
      vertex -1.545084971874737 -20.244717418524232 55
      vertex -0.5226423163382674 -20.027390523158633 55
    endloop
  endfacet
  facet normal 0 0 1
    outer loop
      vertex -5 -12.5 55
      vertex -0.5226423163382674 -20.027390523158633 55
      vertex 0.5226423163382674 -20.027390523158633 55
    endloop
  endfacet
  facet normal 0 0 1
    outer loop
      vertex -5 -12.5 55
      vertex 5 -12.5 55
      vertex -5 0 55
    endloop
  endfacet
  facet normal 0 0 -1
    outer loop
      vertex -42.01690497994423 0 -55
      vertex -42.01690497994423 12.5 -55
      vertex -38.38435268526345 7.910185117520971 -55
    endloop
  endfacet
  facet normal 0 0 -1
    outer loop
      vertex -42.01690497994423 0 -55
      vertex -38.38435268526345 7.910185117520971 -55
      vertex -33.99239017683194 0.30308290797992754 -55
    endloop
  endfacet
  facet normal 0 0 -1
    outer loop
      vertex -42.01690497994423 12.5 -55
      vertex -41.09873479278938 16.26419424345658 -55
      vertex -38.38435268526345 7.910185117520971 -55
    endloop
  endfacet
  facet normal 0 0 -1
    outer loop
      vertex -42.01690497994423 0 -55
      vertex -33.99239017683194 0.30308290797992754 -55
      vertex -33.71949310072926 0 -55
    endloop
  endfacet
  facet normal 0 0 -1
    outer loop
      vertex -42.01690497994423 12.5 -55
      vertex -42.01690497994423 25 -55
      vertex -41.09873479278938 16.26419424345658 -55
    endloop
  endfacet
  facet normal 0 0 -1
    outer loop
      vertex -42.01690497994423 25 -55
      vertex -42.01690497626037 25 -55
      vertex -41.09873479278938 16.26419424345658 -55
    endloop
  endfacet
  facet normal -0.9477741009471772 0 0.3189423985201248
    outer loop
      vertex -42.01690497994423 0 -55
      vertex -5 0 55
      vertex -42.01690497994423 12.5 -55
    endloop
  endfacet
  facet normal -0.9477741009471772 0 0.3189423985201248
    outer loop
      vertex -42.01690497994423 12.5 -55
      vertex -5 12.5 55
      vertex -42.01690497994423 25 -55
    endloop
  endfacet
  facet normal 0 1 0
    outer loop
      vertex -42.01690497994423 25 -55
      vertex -5 25 55
      vertex -42.01690497626037 25 -55
    endloop
  endfacet
  facet normal -0.9477741009471772 0 0.3189423985201248
    outer loop
      vertex -42.01690497994423 12.5 -55
      vertex -5 0 55
      vertex -5 12.5 55
    endloop
  endfacet
  facet normal -0.9477741009471772 0 0.3189423985201248
    outer loop
      vertex -42.01690497994423 25 -55
      vertex -5 12.5 55
      vertex -5 25 55
    endloop
  endfacet
  facet normal 0 0 1
    outer loop
      vertex -5 0 55
      vertex 5 0 55
      vertex -5 12.5 55
    endloop
  endfacet
  facet normal 0 0 1
    outer loop
      vertex -5 12.5 55
      vertex 5 12.5 55
      vertex -0.5226423163382674 20.027390523158633 55
    endloop
  endfacet
  facet normal 0 0 1
    outer loop
      vertex -5 12.5 55
      vertex -3.345653031794291 21.28427587261303 55
      vertex -4.045084971874737 22.061073738537633 55
    endloop
  endfacet
  facet normal 0 0 1
    outer loop
      vertex -5 12.5 55
      vertex -4.567727288213004 22.966316784621 55
      vertex -4.8907380036690284 23.960441545911202 55
    endloop
  endfacet
  facet normal 0 0 1
    outer loop
      vertex -5 12.5 55
      vertex -4.8907380036690284 23.960441545911202 55
      vertex -5 25 55
    endloop
  endfacet
  facet normal 0 0 1
    outer loop
      vertex -5 12.5 55
      vertex -4.045084971874737 22.061073738537633 55
      vertex -4.567727288213004 22.966316784621 55
    endloop
  endfacet
  facet normal 0 0 1
    outer loop
      vertex -5 12.5 55
      vertex -2.5 20.66987298107781 55
      vertex -3.345653031794291 21.28427587261303 55
    endloop
  endfacet
  facet normal 0 0 1
    outer loop
      vertex -5 12.5 55
      vertex -1.545084971874737 20.244717418524232 55
      vertex -2.5 20.66987298107781 55
    endloop
  endfacet
  facet normal 0 0 1
    outer loop
      vertex -5 12.5 55
      vertex -0.5226423163382674 20.027390523158633 55
      vertex -1.545084971874737 20.244717418524232 55
    endloop
  endfacet
  facet normal 0 0 -1
    outer loop
      vertex 42.01690497994423 -25 -55
      vertex 42.01690497626037 -25 -55
      vertex 41.09873479278938 -16.26419424345658 -55
    endloop
  endfacet
  facet normal 0 0 -1
    outer loop
      vertex 42.01690497994423 -25 -55
      vertex 41.09873479278938 -16.26419424345658 -55
      vertex 42.01690497994423 -12.5 -55
    endloop
  endfacet
  facet normal 0 0 -1
    outer loop
      vertex 42.01690497994423 0 -55
      vertex 33.99239017683194 -0.30308290797992754 -55
      vertex 33.71949310072926 0 -55
    endloop
  endfacet
  facet normal 0 0 -1
    outer loop
      vertex 42.01690497994423 -12.5 -55
      vertex 41.09873479278938 -16.26419424345658 -55
      vertex 38.38435268526345 -7.910185117520971 -55
    endloop
  endfacet
  facet normal 0 0 -1
    outer loop
      vertex 42.01690497994423 0 -55
      vertex 38.38435268526345 -7.910185117520971 -55
      vertex 33.99239017683194 -0.30308290797992754 -55
    endloop
  endfacet
  facet normal 0 0 -1
    outer loop
      vertex 42.01690497994423 -12.5 -55
      vertex 38.38435268526345 -7.910185117520971 -55
      vertex 42.01690497994423 0 -55
    endloop
  endfacet
  facet normal 0 -1 0
    outer loop
      vertex 42.01690497994423 -25 -55
      vertex 5 -25 55
      vertex 42.01690497626037 -25 -55
    endloop
  endfacet
  facet normal 0.9477741009471772 0 0.3189423985201248
    outer loop
      vertex 42.01690497994423 -25 -55
      vertex 42.01690497994423 -12.5 -55
      vertex 5 -12.5 55
    endloop
  endfacet
  facet normal 0.9477741009471772 0 0.3189423985201248
    outer loop
      vertex 42.01690497994423 -12.5 -55
      vertex 42.01690497994423 0 -55
      vertex 5 0 55
    endloop
  endfacet
  facet normal 0.9477741009471772 0 0.3189423985201248
    outer loop
      vertex 42.01690497994423 -25 -55
      vertex 5 -12.5 55
      vertex 5 -25 55
    endloop
  endfacet
  facet normal 0.9477741009471772 0 0.3189423985201248
    outer loop
      vertex 42.01690497994423 -12.5 -55
      vertex 5 0 55
      vertex 5 -12.5 55
    endloop
  endfacet
  facet normal 0 0 1
    outer loop
      vertex 5 -12.5 55
      vertex 0.5226423163382674 -20.027390523158633 55
      vertex 1.545084971874737 -20.244717418524232 55
    endloop
  endfacet
  facet normal 0 0 1
    outer loop
      vertex 5 -12.5 55
      vertex 1.545084971874737 -20.244717418524232 55
      vertex 2.5 -20.66987298107781 55
    endloop
  endfacet
  facet normal 0 0 1
    outer loop
      vertex 5 -12.5 55
      vertex 2.5 -20.66987298107781 55
      vertex 3.345653031794291 -21.28427587261303 55
    endloop
  endfacet
  facet normal 0 0 1
    outer loop
      vertex 5 -12.5 55
      vertex 4.045084971874737 -22.061073738537633 55
      vertex 4.567727288213004 -22.966316784621 55
    endloop
  endfacet
  facet normal 0 0 1
    outer loop
      vertex 5 -12.5 55
      vertex 4.8907380036690284 -23.960441545911202 55
      vertex 5 -25 55
    endloop
  endfacet
  facet normal 0 0 1
    outer loop
      vertex 5 -12.5 55
      vertex 4.567727288213004 -22.966316784621 55
      vertex 4.8907380036690284 -23.960441545911202 55
    endloop
  endfacet
  facet normal 0 0 1
    outer loop
      vertex 5 -12.5 55
      vertex 3.345653031794291 -21.28427587261303 55
      vertex 4.045084971874737 -22.061073738537633 55
    endloop
  endfacet
  facet normal 0 0 1
    outer loop
      vertex -5 -12.5 55
      vertex 0.5226423163382674 -20.027390523158633 55
      vertex 5 -12.5 55
    endloop
  endfacet
  facet normal 0 0 1
    outer loop
      vertex -5 0 55
      vertex 5 -12.5 55
      vertex 5 0 55
    endloop
  endfacet
  facet normal 0 0 -1
    outer loop
      vertex 42.01690497994423 0 -55
      vertex 33.71949310072926 0 -55
      vertex 33.99239017683194 0.30308290797992754 -55
    endloop
  endfacet
  facet normal 0 0 -1
    outer loop
      vertex 42.01690497994423 0 -55
      vertex 33.99239017683194 0.30308290797992754 -55
      vertex 38.38435268526345 7.910185117520971 -55
    endloop
  endfacet
  facet normal 0 0 -1
    outer loop
      vertex 42.01690497994423 0 -55
      vertex 38.38435268526345 7.910185117520971 -55
      vertex 42.01690497994423 12.5 -55
    endloop
  endfacet
  facet normal 0 0 -1
    outer loop
      vertex 42.01690497994423 12.5 -55
      vertex 38.38435268526345 7.910185117520971 -55
      vertex 41.09873479278938 16.26419424345658 -55
    endloop
  endfacet
  facet normal 0 0 -1
    outer loop
      vertex 42.01690497994423 12.5 -55
      vertex 41.09873479278938 16.26419424345658 -55
      vertex 42.01690497994423 25 -55
    endloop
  endfacet
  facet normal 0 0 -1
    outer loop
      vertex 42.01690497994423 25 -55
      vertex 41.09873479278938 16.26419424345658 -55
      vertex 42.01690497626037 25 -55
    endloop
  endfacet
  facet normal 0.9477741009471772 0 0.3189423985201248
    outer loop
      vertex 42.01690497994423 0 -55
      vertex 42.01690497994423 12.5 -55
      vertex 5 12.5 55
    endloop
  endfacet
  facet normal 0.9477741009471772 0 0.3189423985201248
    outer loop
      vertex 42.01690497994423 12.5 -55
      vertex 42.01690497994423 25 -55
      vertex 5 25 55
    endloop
  endfacet
  facet normal 0 1 0
    outer loop
      vertex 42.01690497994423 25 -55
      vertex 42.01690497626037 25 -55
      vertex 5 25 55
    endloop
  endfacet
  facet normal 0.9477741009471772 0 0.3189423985201248
    outer loop
      vertex 42.01690497994423 0 -55
      vertex 5 12.5 55
      vertex 5 0 55
    endloop
  endfacet
  facet normal 0.9477741009471772 0 0.3189423985201248
    outer loop
      vertex 42.01690497994423 12.5 -55
      vertex 5 25 55
      vertex 5 12.5 55
    endloop
  endfacet
  facet normal 0 0 1
    outer loop
      vertex -5 12.5 55
      vertex 5 0 55
      vertex 5 12.5 55
    endloop
  endfacet
  facet normal 0 0 1
    outer loop
      vertex 5 12.5 55
      vertex 0.5226423163382674 20.027390523158633 55
      vertex -0.5226423163382674 20.027390523158633 55
    endloop
  endfacet
  facet normal 0 0 1
    outer loop
      vertex 5 12.5 55
      vertex 1.545084971874737 20.244717418524232 55
      vertex 0.5226423163382674 20.027390523158633 55
    endloop
  endfacet
  facet normal 0 0 1
    outer loop
      vertex 5 12.5 55
      vertex 2.5 20.66987298107781 55
      vertex 1.545084971874737 20.244717418524232 55
    endloop
  endfacet
  facet normal 0 0 1
    outer loop
      vertex 5 12.5 55
      vertex 3.345653031794291 21.28427587261303 55
      vertex 2.5 20.66987298107781 55
    endloop
  endfacet
  facet normal 0 0 1
    outer loop
      vertex 5 12.5 55
      vertex 4.045084971874737 22.061073738537633 55
      vertex 3.345653031794291 21.28427587261303 55
    endloop
  endfacet
  facet normal 0 0 1
    outer loop
      vertex 5 12.5 55
      vertex 4.567727288213004 22.966316784621 55
      vertex 4.045084971874737 22.061073738537633 55
    endloop
  endfacet
  facet normal 0 0 1
    outer loop
      vertex 5 12.5 55
      vertex 4.8907380036690284 23.960441545911202 55
      vertex 4.567727288213004 22.966316784621 55
    endloop
  endfacet
  facet normal 0 0 1
    outer loop
      vertex 5 12.5 55
      vertex 5 25 55
      vertex 4.8907380036690284 23.960441545911202 55
    endloop
  endfacet
endsolid OpenSCAD_Model
