<?xml version="1.0" encoding="UTF-8" standalone="no"?>
<!DOCTYPE svg PUBLIC "-//W3C//DTD SVG 1.1//EN"
 "http://www.w3.org/Graphics/SVG/1.1/DTD/svg11.dtd">
<!-- Generated by graphviz version 5.0.0 (20220707.1540)
 -->
<!-- Title: default Pages: 1 -->
<svg width="399pt" height="530pt"
 viewBox="0.00 0.00 398.78 530.00" xmlns="http://www.w3.org/2000/svg" xmlns:xlink="http://www.w3.org/1999/xlink">
<g id="graph0" class="graph" transform="scale(1 1) rotate(0) translate(4 526)">
<title>default</title>
<polygon fill="white" stroke="transparent" points="-4,4 -4,-526 394.78,-526 394.78,4 -4,4"/>
<!-- root_1 -->
<g id="node1" class="node">
<title>root_1</title>
<g id="a_node1"><a xlink:href="javascript:s=&quot;\(\)\nNone&quot;; console.log(s); alert(s);" xlink:title="root">
<ellipse fill="none" stroke="black" cx="27" cy="-234" rx="27" ry="18"/>
<text text-anchor="middle" x="27" y="-230.3" font-family="Times New Roman,serif" font-size="14.00">root</text>
</a>
</g>
</g>
<!-- default_2 -->
<g id="node2" class="node">
<title>default_2</title>
<g id="a_node2"><a xlink:href="javascript:s=&quot;\(&#x27;default&#x27;,\)\nConeEndedHull&quot;; console.log(s); alert(s);" xlink:title="ConeEndedHull">
<ellipse fill="none" stroke="black" cx="125.1" cy="-234" rx="35.19" ry="18"/>
<text text-anchor="middle" x="125.1" y="-230.3" font-family="Times New Roman,serif" font-size="14.00">default</text>
</a>
</g>
</g>
<!-- root_1&#45;&gt;default_2 -->
<g id="edge1" class="edge">
<title>root_1&#45;&gt;default_2</title>
<path fill="none" stroke="black" d="M54.01,-234C61.92,-234 70.84,-234 79.61,-234"/>
<polygon fill="black" stroke="black" points="79.76,-237.5 89.76,-234 79.76,-230.5 79.76,-237.5"/>
</g>
<!-- outer_3 -->
<g id="node3" class="node">
<title>outer_3</title>
<g id="a_node3"><a xlink:href="javascript:s=&quot;\(&#x27;default&#x27;,\ &#x27;outer&#x27;\)\nConeEndedPrism&quot;; console.log(s); alert(s);" xlink:title="ConeEndedPrism">
<ellipse fill="none" stroke="black" cx="225.44" cy="-369" rx="29.5" ry="18"/>
<text text-anchor="middle" x="225.44" y="-365.3" font-family="Times New Roman,serif" font-size="14.00">outer</text>
</a>
</g>
</g>
<!-- default_2&#45;&gt;outer_3 -->
<g id="edge2" class="edge">
<title>default_2&#45;&gt;outer_3</title>
<path fill="none" stroke="black" d="M138.35,-250.82C155.54,-274.42 186.92,-317.5 206.67,-344.61"/>
<polygon fill="black" stroke="black" points="203.93,-346.79 212.64,-352.81 209.59,-342.66 203.93,-346.79"/>
</g>
<!-- inner_9 -->
<g id="node9" class="node">
<title>inner_9</title>
<g id="a_node9"><a xlink:href="javascript:s=&quot;\(&#x27;default&#x27;,\ &#x27;inner&#x27;\)\nConeEndedPrism&quot;; console.log(s); alert(s);" xlink:title="ConeEndedPrism">
<ellipse fill="none" stroke="black" cx="225.44" cy="-153" rx="28.7" ry="18"/>
<text text-anchor="middle" x="225.44" y="-149.3" font-family="Times New Roman,serif" font-size="14.00">inner</text>
</a>
</g>
</g>
<!-- default_2&#45;&gt;inner_9 -->
<g id="edge8" class="edge">
<title>default_2&#45;&gt;inner_9</title>
<path fill="none" stroke="black" d="M144.59,-218.76C160.09,-206 182.34,-187.67 199.42,-173.6"/>
<polygon fill="black" stroke="black" points="201.85,-176.14 207.34,-167.08 197.4,-170.74 201.85,-176.14"/>
</g>
<!-- cage_4 -->
<g id="node4" class="node">
<title>cage_4</title>
<g id="a_node4"><a xlink:href="javascript:s=&quot;\(&#x27;default&#x27;,\ &#x27;outer&#x27;,\ &#x27;cage&#x27;\)\nBox&quot;; console.log(s); alert(s);" xlink:title="Box">
<ellipse fill="none" stroke="black" cx="340.73" cy="-504" rx="27.1" ry="18"/>
<text text-anchor="middle" x="340.73" y="-500.3" font-family="Times New Roman,serif" font-size="14.00">cage</text>
</a>
</g>
</g>
<!-- outer_3&#45;&gt;cage_4 -->
<g id="edge3" class="edge">
<title>outer_3&#45;&gt;cage_4</title>
<path fill="none" stroke="black" d="M233.42,-386.62C243.3,-409.74 263.24,-450.46 290.69,-477 295.76,-481.9 301.89,-486.2 308.09,-489.83"/>
<polygon fill="black" stroke="black" points="306.61,-493.01 317.08,-494.68 309.94,-486.85 306.61,-493.01"/>
</g>
<!-- inner_cage_5 -->
<g id="node5" class="node">
<title>inner_cage_5</title>
<g id="a_node5"><a xlink:href="javascript:s=&quot;\(&#x27;default&#x27;,\ &#x27;outer&#x27;,\ &#x27;inner_cage&#x27;\)\nBox&quot;; console.log(s); alert(s);" xlink:title="Box">
<ellipse fill="none" stroke="black" cx="340.73" cy="-450" rx="50.09" ry="18"/>
<text text-anchor="middle" x="340.73" y="-446.3" font-family="Times New Roman,serif" font-size="14.00">inner_cage</text>
</a>
</g>
</g>
<!-- outer_3&#45;&gt;inner_cage_5 -->
<g id="edge4" class="edge">
<title>outer_3&#45;&gt;inner_cage_5</title>
<path fill="none" stroke="black" d="M242.38,-383.91C254.97,-395.31 273.26,-411.05 290.69,-423 294.35,-425.51 298.27,-427.98 302.23,-430.36"/>
<polygon fill="black" stroke="black" points="300.49,-433.39 310.9,-435.35 303.98,-427.33 300.49,-433.39"/>
</g>
<!-- cone1_6 -->
<g id="node6" class="node">
<title>cone1_6</title>
<g id="a_node6"><a xlink:href="javascript:s=&quot;\(&#x27;default&#x27;,\ &#x27;outer&#x27;,\ &#x27;cone1&#x27;\)\nCone&quot;; console.log(s); alert(s);" xlink:title="Cone">
<ellipse fill="none" stroke="black" cx="340.73" cy="-396" rx="32.49" ry="18"/>
<text text-anchor="middle" x="340.73" y="-392.3" font-family="Times New Roman,serif" font-size="14.00">cone1</text>
</a>
</g>
</g>
<!-- outer_3&#45;&gt;cone1_6 -->
<g id="edge5" class="edge">
<title>outer_3&#45;&gt;cone1_6</title>
<path fill="none" stroke="black" d="M253,-375.33C267.17,-378.71 284.87,-382.92 300.57,-386.67"/>
<polygon fill="black" stroke="black" points="300.01,-390.13 310.55,-389.05 301.64,-383.32 300.01,-390.13"/>
</g>
<!-- cone2_7 -->
<g id="node7" class="node">
<title>cone2_7</title>
<g id="a_node7"><a xlink:href="javascript:s=&quot;\(&#x27;default&#x27;,\ &#x27;outer&#x27;,\ &#x27;cone2&#x27;\)\nCone&quot;; console.log(s); alert(s);" xlink:title="Cone">
<ellipse fill="none" stroke="black" cx="340.73" cy="-342" rx="32.49" ry="18"/>
<text text-anchor="middle" x="340.73" y="-338.3" font-family="Times New Roman,serif" font-size="14.00">cone2</text>
</a>
</g>
</g>
<!-- outer_3&#45;&gt;cone2_7 -->
<g id="edge6" class="edge">
<title>outer_3&#45;&gt;cone2_7</title>
<path fill="none" stroke="black" d="M253,-362.67C267.17,-359.29 284.87,-355.08 300.57,-351.33"/>
<polygon fill="black" stroke="black" points="301.64,-354.68 310.55,-348.95 300.01,-347.87 301.64,-354.68"/>
</g>
<!-- prism_8 -->
<g id="node8" class="node">
<title>prism_8</title>
<g id="a_node8"><a xlink:href="javascript:s=&quot;\(&#x27;default&#x27;,\ &#x27;outer&#x27;,\ &#x27;prism&#x27;\)\nLinearExtrude&quot;; console.log(s); alert(s);" xlink:title="LinearExtrude">
<ellipse fill="none" stroke="black" cx="340.73" cy="-288" rx="31.4" ry="18"/>
<text text-anchor="middle" x="340.73" y="-284.3" font-family="Times New Roman,serif" font-size="14.00">prism</text>
</a>
</g>
</g>
<!-- outer_3&#45;&gt;prism_8 -->
<g id="edge7" class="edge">
<title>outer_3&#45;&gt;prism_8</title>
<path fill="none" stroke="black" d="M242.38,-354.09C254.97,-342.69 273.26,-326.95 290.69,-315 295.95,-311.39 301.74,-307.86 307.43,-304.6"/>
<polygon fill="black" stroke="black" points="309.17,-307.64 316.22,-299.74 305.78,-301.52 309.17,-307.64"/>
</g>
<!-- cage_10 -->
<g id="node10" class="node">
<title>cage_10</title>
<g id="a_node10"><a xlink:href="javascript:s=&quot;\(&#x27;default&#x27;,\ &#x27;inner&#x27;,\ &#x27;cage&#x27;\)\nBox&quot;; console.log(s); alert(s);" xlink:title="Box">
<ellipse fill="none" stroke="black" cx="340.73" cy="-234" rx="27.1" ry="18"/>
<text text-anchor="middle" x="340.73" y="-230.3" font-family="Times New Roman,serif" font-size="14.00">cage</text>
</a>
</g>
</g>
<!-- inner_9&#45;&gt;cage_10 -->
<g id="edge9" class="edge">
<title>inner_9&#45;&gt;cage_10</title>
<path fill="none" stroke="black" d="M242.12,-167.68C254.71,-179.1 273.14,-194.97 290.69,-207 296.51,-210.99 302.96,-214.89 309.24,-218.42"/>
<polygon fill="black" stroke="black" points="307.74,-221.59 318.19,-223.31 311.09,-215.45 307.74,-221.59"/>
</g>
<!-- inner_cage_11 -->
<g id="node11" class="node">
<title>inner_cage_11</title>
<g id="a_node11"><a xlink:href="javascript:s=&quot;\(&#x27;default&#x27;,\ &#x27;inner&#x27;,\ &#x27;inner_cage&#x27;\)\nBox&quot;; console.log(s); alert(s);" xlink:title="Box">
<ellipse fill="none" stroke="black" cx="340.73" cy="-180" rx="50.09" ry="18"/>
<text text-anchor="middle" x="340.73" y="-176.3" font-family="Times New Roman,serif" font-size="14.00">inner_cage</text>
</a>
</g>
</g>
<!-- inner_9&#45;&gt;inner_cage_11 -->
<g id="edge10" class="edge">
<title>inner_9&#45;&gt;inner_cage_11</title>
<path fill="none" stroke="black" d="M252.43,-159.19C263.15,-161.75 275.97,-164.8 288.44,-167.78"/>
<polygon fill="black" stroke="black" points="287.78,-171.22 298.32,-170.13 289.41,-164.41 287.78,-171.22"/>
</g>
<!-- cone1_12 -->
<g id="node12" class="node">
<title>cone1_12</title>
<g id="a_node12"><a xlink:href="javascript:s=&quot;\(&#x27;default&#x27;,\ &#x27;inner&#x27;,\ &#x27;cone1&#x27;\)\nCone&quot;; console.log(s); alert(s);" xlink:title="Cone">
<ellipse fill="none" stroke="black" cx="340.73" cy="-126" rx="32.49" ry="18"/>
<text text-anchor="middle" x="340.73" y="-122.3" font-family="Times New Roman,serif" font-size="14.00">cone1</text>
</a>
</g>
</g>
<!-- inner_9&#45;&gt;cone1_12 -->
<g id="edge11" class="edge">
<title>inner_9&#45;&gt;cone1_12</title>
<path fill="none" stroke="black" d="M252.43,-146.81C266.69,-143.41 284.65,-139.13 300.57,-135.33"/>
<polygon fill="black" stroke="black" points="301.76,-138.65 310.67,-132.93 300.14,-131.84 301.76,-138.65"/>
</g>
<!-- cone2_13 -->
<g id="node13" class="node">
<title>cone2_13</title>
<g id="a_node13"><a xlink:href="javascript:s=&quot;\(&#x27;default&#x27;,\ &#x27;inner&#x27;,\ &#x27;cone2&#x27;\)\nCone&quot;; console.log(s); alert(s);" xlink:title="Cone">
<ellipse fill="none" stroke="black" cx="340.73" cy="-72" rx="32.49" ry="18"/>
<text text-anchor="middle" x="340.73" y="-68.3" font-family="Times New Roman,serif" font-size="14.00">cone2</text>
</a>
</g>
</g>
<!-- inner_9&#45;&gt;cone2_13 -->
<g id="edge12" class="edge">
<title>inner_9&#45;&gt;cone2_13</title>
<path fill="none" stroke="black" d="M242.12,-138.32C254.71,-126.9 273.14,-111.03 290.69,-99 295.72,-95.55 301.24,-92.17 306.69,-89.03"/>
<polygon fill="black" stroke="black" points="308.69,-91.92 315.73,-84 305.28,-85.8 308.69,-91.92"/>
</g>
<!-- prism_14 -->
<g id="node14" class="node">
<title>prism_14</title>
<g id="a_node14"><a xlink:href="javascript:s=&quot;\(&#x27;default&#x27;,\ &#x27;inner&#x27;,\ &#x27;prism&#x27;\)\nLinearExtrude&quot;; console.log(s); alert(s);" xlink:title="LinearExtrude">
<ellipse fill="none" stroke="black" cx="340.73" cy="-18" rx="31.4" ry="18"/>
<text text-anchor="middle" x="340.73" y="-14.3" font-family="Times New Roman,serif" font-size="14.00">prism</text>
</a>
</g>
</g>
<!-- inner_9&#45;&gt;prism_14 -->
<g id="edge13" class="edge">
<title>inner_9&#45;&gt;prism_14</title>
<path fill="none" stroke="black" d="M233.42,-135.38C243.3,-112.26 263.24,-71.54 290.69,-45 295.27,-40.57 300.73,-36.63 306.31,-33.23"/>
<polygon fill="black" stroke="black" points="308.05,-36.27 315.08,-28.33 304.64,-30.15 308.05,-36.27"/>
</g>
</g>
</svg>
