solid OpenSCAD_Model
  facet normal -0.7409511253549594 -0.6715589548470179 0
    outer loop
      vertex -1.7972493040683637 -1.474964385680476 -0.7
      vertex -1.6440232662587233 -1.6440232662587233 -0.7
      vertex -1.7972493040683637 -1.474964385680476 0.7
    endloop
  endfacet
  facet normal -0.8032075314806452 -0.5956993044924329 0
    outer loop
      vertex -1.7972493040683637 -1.474964385680476 -0.7
      vertex -1.933166848603418 -1.2917007917705752 0.7
      vertex -1.933166848603418 -1.2917007917705752 -0.7
    endloop
  endfacet
  facet normal -0.6715589548470179 -0.7409511253549594 0
    outer loop
      vertex -1.474964385680476 -1.7972493040683637 -0.7
      vertex -1.474964385680476 -1.7972493040683637 0.7
      vertex -1.6440232662587233 -1.6440232662587233 -0.7
    endloop
  endfacet
  facet normal -0.5956993044924329 -0.8032075314806452 0
    outer loop
      vertex -1.474964385680476 -1.7972493040683637 -0.7
      vertex -1.2917007917705752 -1.933166848603418 -0.7
      vertex -1.2917007917705752 -1.933166848603418 0.7
    endloop
  endfacet
  facet normal 0 0 -1
    outer loop
      vertex -2.2803257769375107 -0.4535849986874982 -0.7
      vertex -2.313804489512858 -0.22788985126622843 -0.7
      vertex -2.2803257769375107 0.4535849986874982 -0.7
    endloop
  endfacet
  facet normal 0 0 -1
    outer loop
      vertex -2.2248862805773855 -0.6749118746166249 -0.7
      vertex -2.2803257769375107 -0.4535849986874982 -0.7
      vertex -2.2248862805773855 0.6749118746166249 -0.7
    endloop
  endfacet
  facet normal 0 0 -1
    outer loop
      vertex -2.1480199130887416 -0.8897389802488338 -0.7
      vertex -2.2248862805773855 -0.6749118746166249 -0.7
      vertex -2.1480199130887416 0.8897389802488338 -0.7
    endloop
  endfacet
  facet normal 0 0 -1
    outer loop
      vertex -2.0504669396099255 -1.0959974131204446 -0.7
      vertex -2.1480199130887416 -0.8897389802488338 -0.7
      vertex -2.0504669396099255 1.0959974131204446 -0.7
    endloop
  endfacet
  facet normal 0 0 -1
    outer loop
      vertex -1.933166848603418 -1.2917007917705752 -0.7
      vertex -2.0504669396099255 -1.0959974131204446 -0.7
      vertex -1.933166848603418 1.2917007917705752 -0.7
    endloop
  endfacet
  facet normal 0 0 -1
    outer loop
      vertex -1.7972493040683637 -1.474964385680476 -0.7
      vertex -1.933166848603418 -1.2917007917705752 -0.7
      vertex -1.7972493040683637 1.474964385680476 -0.7
    endloop
  endfacet
  facet normal 0 0 -1
    outer loop
      vertex -1.7972493040683637 -1.474964385680476 -0.7
      vertex -1.6440232662587233 1.6440232662587233 -0.7
      vertex -1.6440232662587233 -1.6440232662587233 -0.7
    endloop
  endfacet
  facet normal 0 0 -1
    outer loop
      vertex -1.474964385680476 -1.7972493040683637 -0.7
      vertex -1.6440232662587233 -1.6440232662587233 -0.7
      vertex -1.474964385680476 1.7972493040683637 -0.7
    endloop
  endfacet
  facet normal 0 0 -1
    outer loop
      vertex -1.474964385680476 -1.7972493040683637 -0.7
      vertex -1.2917007917705752 1.933166848603418 -0.7
      vertex -1.2917007917705752 -1.933166848603418 -0.7
    endloop
  endfacet
  facet normal -0.9415440651830209 -0.33688985339221966 0
    outer loop
      vertex -2.1480199130887416 -0.8897389802488338 -0.7
      vertex -2.2248862805773855 -0.6749118746166249 0.7
      vertex -2.2248862805773855 -0.6749118746166249 -0.7
    endloop
  endfacet
  facet normal -0.9039892931234437 -0.4275550934302815 0
    outer loop
      vertex -2.0504669396099255 -1.0959974131204446 -0.7
      vertex -2.1480199130887416 -0.8897389802488338 0.7
      vertex -2.1480199130887416 -0.8897389802488338 -0.7
    endloop
  endfacet
  facet normal -0.8577286100002722 -0.5141027441932214 0
    outer loop
      vertex -1.933166848603418 -1.2917007917705752 -0.7
      vertex -2.0504669396099255 -1.0959974131204446 0.7
      vertex -2.0504669396099255 -1.0959974131204446 -0.7
    endloop
  endfacet
  facet normal -0.9700312531945439 -0.24298017990326412 0
    outer loop
      vertex -2.2248862805773855 -0.6749118746166249 -0.7
      vertex -2.2803257769375107 -0.4535849986874982 0.7
      vertex -2.2803257769375107 -0.4535849986874982 -0.7
    endloop
  endfacet
  facet normal -0.9891765099647807 -0.14673047445536316 0
    outer loop
      vertex -2.2803257769375107 -0.4535849986874982 -0.7
      vertex -2.313804489512858 -0.22788985126622843 0.7
      vertex -2.313804489512858 -0.22788985126622843 -0.7
    endloop
  endfacet
  facet normal -0.9987954562051725 -0.049067674327417744 0
    outer loop
      vertex -2.313804489512858 -0.22788985126622843 -0.7
      vertex -2.325 0 0.7
      vertex -2.325 0 -0.7
    endloop
  endfacet
  facet normal -0.5141027441932214 -0.8577286100002722 0
    outer loop
      vertex -1.2917007917705752 -1.933166848603418 -0.7
      vertex -1.0959974131204446 -2.0504669396099255 -0.7
      vertex -1.0959974131204446 -2.0504669396099255 0.7
    endloop
  endfacet
  facet normal -0.4275550934302815 -0.9039892931234437 0
    outer loop
      vertex -1.0959974131204446 -2.0504669396099255 -0.7
      vertex -0.8897389802488338 -2.1480199130887416 -0.7
      vertex -0.8897389802488338 -2.1480199130887416 0.7
    endloop
  endfacet
  facet normal -0.33688985339221966 -0.9415440651830209 0
    outer loop
      vertex -0.8897389802488338 -2.1480199130887416 -0.7
      vertex -0.6749118746166249 -2.2248862805773855 -0.7
      vertex -0.6749118746166249 -2.2248862805773855 0.7
    endloop
  endfacet
  facet normal -0.2429801799032641 -0.970031253194544 0
    outer loop
      vertex -0.6749118746166249 -2.2248862805773855 -0.7
      vertex -0.5 -2.2686994243514667 -0.7
      vertex -0.5 -2.2686994243514667 0.7
    endloop
  endfacet
  facet normal 0 0 -1
    outer loop
      vertex -1.0959974131204446 -2.0504669396099255 -0.7
      vertex -0.8897389802488338 2.1480199130887416 -0.7
      vertex -0.8897389802488338 -2.1480199130887416 -0.7
    endloop
  endfacet
  facet normal 0 0 -1
    outer loop
      vertex -0.8897389802488338 -2.1480199130887416 -0.7
      vertex -0.6749118746166249 2.2248862805773855 -0.7
      vertex -0.6749118746166249 -2.2248862805773855 -0.7
    endloop
  endfacet
  facet normal 0 0 -1
    outer loop
      vertex -1.2917007917705752 -1.933166848603418 -0.7
      vertex -1.0959974131204446 2.0504669396099255 -0.7
      vertex -1.0959974131204446 -2.0504669396099255 -0.7
    endloop
  endfacet
  facet normal 0 0 -1
    outer loop
      vertex -0.6749118746166249 -2.2248862805773855 -0.7
      vertex -0.4535849986874982 2.2803257769375107 -0.7
      vertex -0.5 -2.2686994243514667 -0.7
    endloop
  endfacet
  facet normal 0 0 -1
    outer loop
      vertex -0.4535849986874982 2.2803257769375107 -0.7
      vertex -0.4535849986874982 -2.2803257769375107 -0.7
      vertex -0.5 -2.2686994243514667 -0.7
    endloop
  endfacet
  facet normal 0 0 -1
    outer loop
      vertex -0.4535849986874982 -2.2803257769375107 -0.7
      vertex -0.22788985126622843 2.313804489512858 -0.7
      vertex -0.22788985126622843 -2.313804489512858 -0.7
    endloop
  endfacet
  facet normal 0 0 -1
    outer loop
      vertex -0.22788985126622843 -2.313804489512858 -0.7
      vertex 0 2.325 -0.7
      vertex 0 -2.325 -0.7
    endloop
  endfacet
  facet normal -0.8032075314806452 -0.5956993044924329 0
    outer loop
      vertex -1.7972493040683637 -1.474964385680476 -0.7
      vertex -1.7972493040683637 -1.474964385680476 0.7
      vertex -1.933166848603418 -1.2917007917705752 0.7
    endloop
  endfacet
  facet normal -0.5141027441932214 -0.8577286100002722 0
    outer loop
      vertex -1.2917007917705752 -1.933166848603418 -0.7
      vertex -1.0959974131204446 -2.0504669396099255 0.7
      vertex -1.2917007917705752 -1.933166848603418 0.7
    endloop
  endfacet
  facet normal -0.6715589548470179 -0.7409511253549594 0
    outer loop
      vertex -1.6440232662587233 -1.6440232662587233 -0.7
      vertex -1.474964385680476 -1.7972493040683637 0.7
      vertex -1.6440232662587233 -1.6440232662587233 0.7
    endloop
  endfacet
  facet normal -0.7409511253549594 -0.6715589548470179 0
    outer loop
      vertex -1.6440232662587233 -1.6440232662587233 -0.7
      vertex -1.6440232662587233 -1.6440232662587233 0.7
      vertex -1.7972493040683637 -1.474964385680476 0.7
    endloop
  endfacet
  facet normal -0.5956993044924329 -0.8032075314806452 0
    outer loop
      vertex -1.474964385680476 -1.7972493040683637 -0.7
      vertex -1.2917007917705752 -1.933166848603418 0.7
      vertex -1.474964385680476 -1.7972493040683637 0.7
    endloop
  endfacet
  facet normal -0.9039892931234437 -0.4275550934302815 0
    outer loop
      vertex -2.0504669396099255 -1.0959974131204446 -0.7
      vertex -2.0504669396099255 -1.0959974131204446 0.7
      vertex -2.1480199130887416 -0.8897389802488338 0.7
    endloop
  endfacet
  facet normal -0.9415440651830209 -0.33688985339221966 0
    outer loop
      vertex -2.1480199130887416 -0.8897389802488338 -0.7
      vertex -2.1480199130887416 -0.8897389802488338 0.7
      vertex -2.2248862805773855 -0.6749118746166249 0.7
    endloop
  endfacet
  facet normal -0.8577286100002722 -0.5141027441932214 0
    outer loop
      vertex -1.933166848603418 -1.2917007917705752 -0.7
      vertex -1.933166848603418 -1.2917007917705752 0.7
      vertex -2.0504669396099255 -1.0959974131204446 0.7
    endloop
  endfacet
  facet normal -0.9700312531945439 -0.24298017990326412 0
    outer loop
      vertex -2.2248862805773855 -0.6749118746166249 -0.7
      vertex -2.2248862805773855 -0.6749118746166249 0.7
      vertex -2.2803257769375107 -0.4535849986874982 0.7
    endloop
  endfacet
  facet normal -0.9891765099647807 -0.14673047445536316 0
    outer loop
      vertex -2.2803257769375107 -0.4535849986874982 -0.7
      vertex -2.2803257769375107 -0.4535849986874982 0.7
      vertex -2.313804489512858 -0.22788985126622843 0.7
    endloop
  endfacet
  facet normal -0.9987954562051725 -0.049067674327417744 0
    outer loop
      vertex -2.313804489512858 -0.22788985126622843 -0.7
      vertex -2.313804489512858 -0.22788985126622843 0.7
      vertex -2.325 0 0.7
    endloop
  endfacet
  facet normal 0 0 1
    outer loop
      vertex -2.0504669396099255 -1.0959974131204446 0.7
      vertex -2.1480199130887416 0.8897389802488338 0.7
      vertex -2.1480199130887416 -0.8897389802488338 0.7
    endloop
  endfacet
  facet normal 0 0 1
    outer loop
      vertex -2.2248862805773855 -0.6749118746166249 0.7
      vertex -2.2803257769375107 0.4535849986874982 0.7
      vertex -2.2803257769375107 -0.4535849986874982 0.7
    endloop
  endfacet
  facet normal 0 0 1
    outer loop
      vertex -2.1480199130887416 -0.8897389802488338 0.7
      vertex -2.2248862805773855 0.6749118746166249 0.7
      vertex -2.2248862805773855 -0.6749118746166249 0.7
    endloop
  endfacet
  facet normal 0 0 1
    outer loop
      vertex -2.2803257769375107 -0.4535849986874982 0.7
      vertex -2.313804489512858 0.22788985126622843 0.7
      vertex -2.313804489512858 -0.22788985126622843 0.7
    endloop
  endfacet
  facet normal 0 0 1
    outer loop
      vertex -1.933166848603418 -1.2917007917705752 0.7
      vertex -2.0504669396099255 1.0959974131204446 0.7
      vertex -2.0504669396099255 -1.0959974131204446 0.7
    endloop
  endfacet
  facet normal 0 0 1
    outer loop
      vertex -1.7972493040683637 -1.474964385680476 0.7
      vertex -1.933166848603418 1.2917007917705752 0.7
      vertex -1.933166848603418 -1.2917007917705752 0.7
    endloop
  endfacet
  facet normal 0 0 1
    outer loop
      vertex -1.7972493040683637 -1.474964385680476 0.7
      vertex -1.6440232662587233 -1.6440232662587233 0.7
      vertex -1.7972493040683637 1.474964385680476 0.7
    endloop
  endfacet
  facet normal 0 0 1
    outer loop
      vertex -1.2917007917705752 -1.933166848603418 0.7
      vertex -1.0959974131204446 -2.0504669396099255 0.7
      vertex -1.2917007917705752 1.933166848603418 0.7
    endloop
  endfacet
  facet normal 0 0 1
    outer loop
      vertex -1.474964385680476 -1.7972493040683637 0.7
      vertex -1.6440232662587233 1.6440232662587233 0.7
      vertex -1.6440232662587233 -1.6440232662587233 0.7
    endloop
  endfacet
  facet normal 0 0 1
    outer loop
      vertex -1.474964385680476 -1.7972493040683637 0.7
      vertex -1.2917007917705752 -1.933166848603418 0.7
      vertex -1.474964385680476 1.7972493040683637 0.7
    endloop
  endfacet
  facet normal -0.4275550934302815 -0.9039892931234437 0
    outer loop
      vertex -1.0959974131204446 -2.0504669396099255 -0.7
      vertex -0.8897389802488338 -2.1480199130887416 0.7
      vertex -1.0959974131204446 -2.0504669396099255 0.7
    endloop
  endfacet
  facet normal -0.33688985339221966 -0.9415440651830209 0
    outer loop
      vertex -0.8897389802488338 -2.1480199130887416 -0.7
      vertex -0.6749118746166249 -2.2248862805773855 0.7
      vertex -0.8897389802488338 -2.1480199130887416 0.7
    endloop
  endfacet
  facet normal -0.2429801799032641 -0.970031253194544 0
    outer loop
      vertex -0.6749118746166249 -2.2248862805773855 -0.7
      vertex -0.5 -2.2686994243514667 0.7
      vertex -0.6749118746166249 -2.2248862805773855 0.7
    endloop
  endfacet
  facet normal 0 0 1
    outer loop
      vertex -1.0959974131204446 -2.0504669396099255 0.7
      vertex -0.8897389802488338 -2.1480199130887416 0.7
      vertex -1.0959974131204446 2.0504669396099255 0.7
    endloop
  endfacet
  facet normal 0 0 1
    outer loop
      vertex -0.8897389802488338 -2.1480199130887416 0.7
      vertex -0.6749118746166249 -2.2248862805773855 0.7
      vertex -0.8897389802488338 2.1480199130887416 0.7
    endloop
  endfacet
  facet normal 0 0 1
    outer loop
      vertex -0.6749118746166249 -2.2248862805773855 0.7
      vertex -0.5 -2.2686994243514667 0.7
      vertex -0.6749118746166249 2.2248862805773855 0.7
    endloop
  endfacet
  facet normal 0 0 1
    outer loop
      vertex -0.5 -2.2686994243514667 0.7
      vertex -0.4535849986874982 -2.2803257769375107 0.7
      vertex -0.6749118746166249 2.2248862805773855 0.7
    endloop
  endfacet
  facet normal 0 0 1
    outer loop
      vertex -0.4535849986874982 -2.2803257769375107 0.7
      vertex -0.22788985126622843 -2.313804489512858 0.7
      vertex -0.4535849986874982 2.2803257769375107 0.7
    endloop
  endfacet
  facet normal 0 0 1
    outer loop
      vertex -0.22788985126622843 -2.313804489512858 0.7
      vertex 0 -2.325 0.7
      vertex -0.22788985126622843 2.313804489512858 0.7
    endloop
  endfacet
  facet normal 0 0 -1
    outer loop
      vertex -2.313804489512858 -0.22788985126622843 -0.7
      vertex -2.325 0 -0.7
      vertex -2.313804489512858 0.22788985126622843 -0.7
    endloop
  endfacet
  facet normal 0 0 -1
    outer loop
      vertex -2.313804489512858 -0.22788985126622843 -0.7
      vertex -2.313804489512858 0.22788985126622843 -0.7
      vertex -2.2803257769375107 0.4535849986874982 -0.7
    endloop
  endfacet
  facet normal 0 0 -1
    outer loop
      vertex -2.2803257769375107 -0.4535849986874982 -0.7
      vertex -2.2803257769375107 0.4535849986874982 -0.7
      vertex -2.2248862805773855 0.6749118746166249 -0.7
    endloop
  endfacet
  facet normal 0 0 -1
    outer loop
      vertex -2.2248862805773855 -0.6749118746166249 -0.7
      vertex -2.2248862805773855 0.6749118746166249 -0.7
      vertex -2.1480199130887416 0.8897389802488338 -0.7
    endloop
  endfacet
  facet normal 0 0 -1
    outer loop
      vertex -2.1480199130887416 -0.8897389802488338 -0.7
      vertex -2.1480199130887416 0.8897389802488338 -0.7
      vertex -2.0504669396099255 1.0959974131204446 -0.7
    endloop
  endfacet
  facet normal 0 0 -1
    outer loop
      vertex -2.0504669396099255 -1.0959974131204446 -0.7
      vertex -2.0504669396099255 1.0959974131204446 -0.7
      vertex -1.933166848603418 1.2917007917705752 -0.7
    endloop
  endfacet
  facet normal 0 0 -1
    outer loop
      vertex -1.933166848603418 -1.2917007917705752 -0.7
      vertex -1.933166848603418 1.2917007917705752 -0.7
      vertex -1.7972493040683637 1.474964385680476 -0.7
    endloop
  endfacet
  facet normal 0 0 -1
    outer loop
      vertex -1.7972493040683637 -1.474964385680476 -0.7
      vertex -1.7972493040683637 1.474964385680476 -0.7
      vertex -1.6440232662587233 1.6440232662587233 -0.7
    endloop
  endfacet
  facet normal 0 0 -1
    outer loop
      vertex -1.6440232662587233 -1.6440232662587233 -0.7
      vertex -1.6440232662587233 1.6440232662587233 -0.7
      vertex -1.474964385680476 1.7972493040683637 -0.7
    endloop
  endfacet
  facet normal 0 0 -1
    outer loop
      vertex -1.474964385680476 -1.7972493040683637 -0.7
      vertex -1.474964385680476 1.7972493040683637 -0.7
      vertex -1.2917007917705752 1.933166848603418 -0.7
    endloop
  endfacet
  facet normal 0 0 -1
    outer loop
      vertex -1.2917007917705752 -1.933166848603418 -0.7
      vertex -1.2917007917705752 1.933166848603418 -0.7
      vertex -1.0959974131204446 2.0504669396099255 -0.7
    endloop
  endfacet
  facet normal -0.9987954562051725 0.049067674327417744 0
    outer loop
      vertex -2.325 0 -0.7
      vertex -2.313804489512858 0.22788985126622843 0.7
      vertex -2.313804489512858 0.22788985126622843 -0.7
    endloop
  endfacet
  facet normal -0.9891765099647807 0.14673047445536316 0
    outer loop
      vertex -2.313804489512858 0.22788985126622843 -0.7
      vertex -2.2803257769375107 0.4535849986874982 0.7
      vertex -2.2803257769375107 0.4535849986874982 -0.7
    endloop
  endfacet
  facet normal -0.9700312531945439 0.24298017990326412 0
    outer loop
      vertex -2.2803257769375107 0.4535849986874982 -0.7
      vertex -2.2248862805773855 0.6749118746166249 0.7
      vertex -2.2248862805773855 0.6749118746166249 -0.7
    endloop
  endfacet
  facet normal -0.9415440651830209 0.33688985339221966 0
    outer loop
      vertex -2.2248862805773855 0.6749118746166249 -0.7
      vertex -2.1480199130887416 0.8897389802488338 0.7
      vertex -2.1480199130887416 0.8897389802488338 -0.7
    endloop
  endfacet
  facet normal -0.9039892931234437 0.4275550934302815 0
    outer loop
      vertex -2.1480199130887416 0.8897389802488338 -0.7
      vertex -2.0504669396099255 1.0959974131204446 0.7
      vertex -2.0504669396099255 1.0959974131204446 -0.7
    endloop
  endfacet
  facet normal -0.8577286100002722 0.5141027441932214 0
    outer loop
      vertex -2.0504669396099255 1.0959974131204446 -0.7
      vertex -1.933166848603418 1.2917007917705752 0.7
      vertex -1.933166848603418 1.2917007917705752 -0.7
    endloop
  endfacet
  facet normal -0.8032075314806452 0.5956993044924329 0
    outer loop
      vertex -1.933166848603418 1.2917007917705752 -0.7
      vertex -1.7972493040683637 1.474964385680476 0.7
      vertex -1.7972493040683637 1.474964385680476 -0.7
    endloop
  endfacet
  facet normal -0.7409511253549594 0.6715589548470179 0
    outer loop
      vertex -1.7972493040683637 1.474964385680476 -0.7
      vertex -1.6440232662587233 1.6440232662587233 0.7
      vertex -1.6440232662587233 1.6440232662587233 -0.7
    endloop
  endfacet
  facet normal -0.6715589548470179 0.7409511253549594 0
    outer loop
      vertex -1.6440232662587233 1.6440232662587233 -0.7
      vertex -1.6440232662587233 1.6440232662587233 0.7
      vertex -1.474964385680476 1.7972493040683637 -0.7
    endloop
  endfacet
  facet normal -0.5956993044924329 0.8032075314806452 0
    outer loop
      vertex -1.474964385680476 1.7972493040683637 -0.7
      vertex -1.474964385680476 1.7972493040683637 0.7
      vertex -1.2917007917705752 1.933166848603418 -0.7
    endloop
  endfacet
  facet normal -0.5141027441932214 0.8577286100002722 0
    outer loop
      vertex -1.2917007917705752 1.933166848603418 -0.7
      vertex -1.2917007917705752 1.933166848603418 0.7
      vertex -1.0959974131204446 2.0504669396099255 -0.7
    endloop
  endfacet
  facet normal 0 0 -1
    outer loop
      vertex -1.0959974131204446 -2.0504669396099255 -0.7
      vertex -1.0959974131204446 2.0504669396099255 -0.7
      vertex -0.8897389802488338 2.1480199130887416 -0.7
    endloop
  endfacet
  facet normal 0 0 -1
    outer loop
      vertex -0.8897389802488338 -2.1480199130887416 -0.7
      vertex -0.8897389802488338 2.1480199130887416 -0.7
      vertex -0.6749118746166249 2.2248862805773855 -0.7
    endloop
  endfacet
  facet normal 0 0 -1
    outer loop
      vertex -0.6749118746166249 2.2248862805773855 -0.7
      vertex -0.5 2.2686994243514667 -0.7
      vertex -0.6749118746166249 -2.2248862805773855 -0.7
    endloop
  endfacet
  facet normal 0 0 -1
    outer loop
      vertex -0.6749118746166249 -2.2248862805773855 -0.7
      vertex -0.5 2.2686994243514667 -0.7
      vertex -0.4535849986874982 2.2803257769375107 -0.7
    endloop
  endfacet
  facet normal 0 0 -1
    outer loop
      vertex -0.4535849986874982 -2.2803257769375107 -0.7
      vertex -0.4535849986874982 2.2803257769375107 -0.7
      vertex -0.22788985126622843 2.313804489512858 -0.7
    endloop
  endfacet
  facet normal 0 0 -1
    outer loop
      vertex -0.22788985126622843 -2.313804489512858 -0.7
      vertex -0.22788985126622843 2.313804489512858 -0.7
      vertex 0 2.325 -0.7
    endloop
  endfacet
  facet normal -0.4275550934302815 0.9039892931234437 0
    outer loop
      vertex -1.0959974131204446 2.0504669396099255 -0.7
      vertex -1.0959974131204446 2.0504669396099255 0.7
      vertex -0.8897389802488338 2.1480199130887416 -0.7
    endloop
  endfacet
  facet normal -0.33688985339221966 0.9415440651830209 0
    outer loop
      vertex -0.8897389802488338 2.1480199130887416 -0.7
      vertex -0.8897389802488338 2.1480199130887416 0.7
      vertex -0.6749118746166249 2.2248862805773855 -0.7
    endloop
  endfacet
  facet normal -0.2429801799032641 0.970031253194544 0
    outer loop
      vertex -0.6749118746166249 2.2248862805773855 -0.7
      vertex -0.6749118746166249 2.2248862805773855 0.7
      vertex -0.5 2.2686994243514667 -0.7
    endloop
  endfacet
  facet normal -0.9987954562051725 0.049067674327417744 0
    outer loop
      vertex -2.325 0 -0.7
      vertex -2.325 0 0.7
      vertex -2.313804489512858 0.22788985126622843 0.7
    endloop
  endfacet
  facet normal -0.9891765099647807 0.14673047445536316 0
    outer loop
      vertex -2.313804489512858 0.22788985126622843 -0.7
      vertex -2.313804489512858 0.22788985126622843 0.7
      vertex -2.2803257769375107 0.4535849986874982 0.7
    endloop
  endfacet
  facet normal -0.9700312531945439 0.24298017990326412 0
    outer loop
      vertex -2.2803257769375107 0.4535849986874982 -0.7
      vertex -2.2803257769375107 0.4535849986874982 0.7
      vertex -2.2248862805773855 0.6749118746166249 0.7
    endloop
  endfacet
  facet normal -0.9415440651830209 0.33688985339221966 0
    outer loop
      vertex -2.2248862805773855 0.6749118746166249 -0.7
      vertex -2.2248862805773855 0.6749118746166249 0.7
      vertex -2.1480199130887416 0.8897389802488338 0.7
    endloop
  endfacet
  facet normal -0.9039892931234437 0.4275550934302815 0
    outer loop
      vertex -2.1480199130887416 0.8897389802488338 -0.7
      vertex -2.1480199130887416 0.8897389802488338 0.7
      vertex -2.0504669396099255 1.0959974131204446 0.7
    endloop
  endfacet
  facet normal -0.8577286100002722 0.5141027441932214 0
    outer loop
      vertex -2.0504669396099255 1.0959974131204446 -0.7
      vertex -2.0504669396099255 1.0959974131204446 0.7
      vertex -1.933166848603418 1.2917007917705752 0.7
    endloop
  endfacet
  facet normal 0 0 1
    outer loop
      vertex -2.313804489512858 -0.22788985126622843 0.7
      vertex -2.313804489512858 0.22788985126622843 0.7
      vertex -2.325 0 0.7
    endloop
  endfacet
  facet normal 0 0 1
    outer loop
      vertex -2.2803257769375107 -0.4535849986874982 0.7
      vertex -2.2803257769375107 0.4535849986874982 0.7
      vertex -2.313804489512858 0.22788985126622843 0.7
    endloop
  endfacet
  facet normal 0 0 1
    outer loop
      vertex -2.2248862805773855 -0.6749118746166249 0.7
      vertex -2.2248862805773855 0.6749118746166249 0.7
      vertex -2.2803257769375107 0.4535849986874982 0.7
    endloop
  endfacet
  facet normal 0 0 1
    outer loop
      vertex -2.1480199130887416 -0.8897389802488338 0.7
      vertex -2.1480199130887416 0.8897389802488338 0.7
      vertex -2.2248862805773855 0.6749118746166249 0.7
    endloop
  endfacet
  facet normal 0 0 1
    outer loop
      vertex -2.0504669396099255 -1.0959974131204446 0.7
      vertex -2.0504669396099255 1.0959974131204446 0.7
      vertex -2.1480199130887416 0.8897389802488338 0.7
    endloop
  endfacet
  facet normal 0 0 1
    outer loop
      vertex -1.933166848603418 -1.2917007917705752 0.7
      vertex -1.933166848603418 1.2917007917705752 0.7
      vertex -2.0504669396099255 1.0959974131204446 0.7
    endloop
  endfacet
  facet normal 0 0 1
    outer loop
      vertex -1.7972493040683637 -1.474964385680476 0.7
      vertex -1.7972493040683637 1.474964385680476 0.7
      vertex -1.933166848603418 1.2917007917705752 0.7
    endloop
  endfacet
  facet normal 0 0 1
    outer loop
      vertex -1.6440232662587233 -1.6440232662587233 0.7
      vertex -1.6440232662587233 1.6440232662587233 0.7
      vertex -1.7972493040683637 1.474964385680476 0.7
    endloop
  endfacet
  facet normal 0 0 1
    outer loop
      vertex -1.474964385680476 -1.7972493040683637 0.7
      vertex -1.474964385680476 1.7972493040683637 0.7
      vertex -1.6440232662587233 1.6440232662587233 0.7
    endloop
  endfacet
  facet normal 0 0 1
    outer loop
      vertex -1.2917007917705752 -1.933166848603418 0.7
      vertex -1.2917007917705752 1.933166848603418 0.7
      vertex -1.474964385680476 1.7972493040683637 0.7
    endloop
  endfacet
  facet normal -0.8032075314806452 0.5956993044924329 0
    outer loop
      vertex -1.933166848603418 1.2917007917705752 -0.7
      vertex -1.933166848603418 1.2917007917705752 0.7
      vertex -1.7972493040683637 1.474964385680476 0.7
    endloop
  endfacet
  facet normal -0.7409511253549594 0.6715589548470179 0
    outer loop
      vertex -1.7972493040683637 1.474964385680476 -0.7
      vertex -1.7972493040683637 1.474964385680476 0.7
      vertex -1.6440232662587233 1.6440232662587233 0.7
    endloop
  endfacet
  facet normal -0.6715589548470179 0.7409511253549594 0
    outer loop
      vertex -1.474964385680476 1.7972493040683637 -0.7
      vertex -1.6440232662587233 1.6440232662587233 0.7
      vertex -1.474964385680476 1.7972493040683637 0.7
    endloop
  endfacet
  facet normal -0.5956993044924329 0.8032075314806452 0
    outer loop
      vertex -1.2917007917705752 1.933166848603418 -0.7
      vertex -1.474964385680476 1.7972493040683637 0.7
      vertex -1.2917007917705752 1.933166848603418 0.7
    endloop
  endfacet
  facet normal 0 0 1
    outer loop
      vertex -1.0959974131204446 -2.0504669396099255 0.7
      vertex -1.0959974131204446 2.0504669396099255 0.7
      vertex -1.2917007917705752 1.933166848603418 0.7
    endloop
  endfacet
  facet normal 0 0 1
    outer loop
      vertex -0.8897389802488338 -2.1480199130887416 0.7
      vertex -0.8897389802488338 2.1480199130887416 0.7
      vertex -1.0959974131204446 2.0504669396099255 0.7
    endloop
  endfacet
  facet normal 0 0 1
    outer loop
      vertex -0.6749118746166249 -2.2248862805773855 0.7
      vertex -0.6749118746166249 2.2248862805773855 0.7
      vertex -0.8897389802488338 2.1480199130887416 0.7
    endloop
  endfacet
  facet normal 0 0 1
    outer loop
      vertex -0.4535849986874982 -2.2803257769375107 0.7
      vertex -0.5 2.2686994243514667 0.7
      vertex -0.6749118746166249 2.2248862805773855 0.7
    endloop
  endfacet
  facet normal 0 0 1
    outer loop
      vertex -0.4535849986874982 -2.2803257769375107 0.7
      vertex -0.4535849986874982 2.2803257769375107 0.7
      vertex -0.5 2.2686994243514667 0.7
    endloop
  endfacet
  facet normal 0 0 1
    outer loop
      vertex -0.22788985126622843 -2.313804489512858 0.7
      vertex -0.22788985126622843 2.313804489512858 0.7
      vertex -0.4535849986874982 2.2803257769375107 0.7
    endloop
  endfacet
  facet normal 0 0 1
    outer loop
      vertex -0.22788985126622843 2.313804489512858 0.7
      vertex 0 -2.325 0.7
      vertex 0 2.325 0.7
    endloop
  endfacet
  facet normal -0.5141027441932214 0.8577286100002722 0
    outer loop
      vertex -1.0959974131204446 2.0504669396099255 -0.7
      vertex -1.2917007917705752 1.933166848603418 0.7
      vertex -1.0959974131204446 2.0504669396099255 0.7
    endloop
  endfacet
  facet normal -0.4275550934302815 0.9039892931234437 0
    outer loop
      vertex -0.8897389802488338 2.1480199130887416 -0.7
      vertex -1.0959974131204446 2.0504669396099255 0.7
      vertex -0.8897389802488338 2.1480199130887416 0.7
    endloop
  endfacet
  facet normal -0.33688985339221966 0.9415440651830209 0
    outer loop
      vertex -0.6749118746166249 2.2248862805773855 -0.7
      vertex -0.8897389802488338 2.1480199130887416 0.7
      vertex -0.6749118746166249 2.2248862805773855 0.7
    endloop
  endfacet
  facet normal -0.2429801799032641 0.970031253194544 0
    outer loop
      vertex -0.6749118746166249 2.2248862805773855 0.7
      vertex -0.5 2.2686994243514667 0.7
      vertex -0.5 2.2686994243514667 -0.7
    endloop
  endfacet
  facet normal 0.2429801799032641 -0.970031253194544 0
    outer loop
      vertex 0.6749118746166249 -2.2248862805773855 -0.7
      vertex 0.6749118746166249 -2.2248862805773855 0.7
      vertex 0.5 -2.2686994243514667 -0.7
    endloop
  endfacet
  facet normal 0.33688985339221966 -0.9415440651830209 0
    outer loop
      vertex 0.6749118746166249 -2.2248862805773855 -0.7
      vertex 0.8897389802488338 -2.1480199130887416 -0.7
      vertex 0.8897389802488338 -2.1480199130887416 0.7
    endloop
  endfacet
  facet normal 0.4275550934302815 -0.9039892931234437 0
    outer loop
      vertex 0.8897389802488338 -2.1480199130887416 -0.7
      vertex 1.0959974131204446 -2.0504669396099255 -0.7
      vertex 1.0959974131204446 -2.0504669396099255 0.7
    endloop
  endfacet
  facet normal 0 0 -1
    outer loop
      vertex 0 -2.325 -0.7
      vertex 0.22788985126622843 2.313804489512858 -0.7
      vertex 0.22788985126622843 -2.313804489512858 -0.7
    endloop
  endfacet
  facet normal 0 0 -1
    outer loop
      vertex 0.22788985126622843 -2.313804489512858 -0.7
      vertex 0.4535849986874982 2.2803257769375107 -0.7
      vertex 0.4535849986874982 -2.2803257769375107 -0.7
    endloop
  endfacet
  facet normal 0 0 -1
    outer loop
      vertex 0.4535849986874982 -2.2803257769375107 -0.7
      vertex 0.6749118746166249 2.2248862805773855 -0.7
      vertex 0.5 -2.2686994243514667 -0.7
    endloop
  endfacet
  facet normal 0 0 -1
    outer loop
      vertex 0.6749118746166249 2.2248862805773855 -0.7
      vertex 0.6749118746166249 -2.2248862805773855 -0.7
      vertex 0.5 -2.2686994243514667 -0.7
    endloop
  endfacet
  facet normal 0 0 -1
    outer loop
      vertex 0.6749118746166249 -2.2248862805773855 -0.7
      vertex 0.8897389802488338 2.1480199130887416 -0.7
      vertex 0.8897389802488338 -2.1480199130887416 -0.7
    endloop
  endfacet
  facet normal 0 0 -1
    outer loop
      vertex 0.8897389802488338 -2.1480199130887416 -0.7
      vertex 1.0959974131204446 2.0504669396099255 -0.7
      vertex 1.0959974131204446 -2.0504669396099255 -0.7
    endloop
  endfacet
  facet normal 0.5141027441932214 -0.8577286100002722 0
    outer loop
      vertex 1.0959974131204446 -2.0504669396099255 -0.7
      vertex 1.2917007917705752 -1.933166848603418 -0.7
      vertex 1.2917007917705752 -1.933166848603418 0.7
    endloop
  endfacet
  facet normal 0.5956993044924329 -0.8032075314806452 0
    outer loop
      vertex 1.2917007917705752 -1.933166848603418 -0.7
      vertex 1.474964385680476 -1.7972493040683637 -0.7
      vertex 1.474964385680476 -1.7972493040683637 0.7
    endloop
  endfacet
  facet normal 0.6715589548470179 -0.7409511253549594 0
    outer loop
      vertex 1.474964385680476 -1.7972493040683637 -0.7
      vertex 1.6440232662587233 -1.6440232662587233 -0.7
      vertex 1.6440232662587233 -1.6440232662587233 0.7
    endloop
  endfacet
  facet normal 0.7409511253549594 -0.6715589548470179 0
    outer loop
      vertex 1.6440232662587233 -1.6440232662587233 -0.7
      vertex 1.7972493040683637 -1.474964385680476 -0.7
      vertex 1.6440232662587233 -1.6440232662587233 0.7
    endloop
  endfacet
  facet normal 0.8032075314806452 -0.5956993044924329 0
    outer loop
      vertex 1.7972493040683637 -1.474964385680476 -0.7
      vertex 1.933166848603418 -1.2917007917705752 -0.7
      vertex 1.7972493040683637 -1.474964385680476 0.7
    endloop
  endfacet
  facet normal 0 0 -1
    outer loop
      vertex 1.0959974131204446 -2.0504669396099255 -0.7
      vertex 1.2917007917705752 1.933166848603418 -0.7
      vertex 1.2917007917705752 -1.933166848603418 -0.7
    endloop
  endfacet
  facet normal 0 0 -1
    outer loop
      vertex 1.2917007917705752 -1.933166848603418 -0.7
      vertex 1.474964385680476 1.7972493040683637 -0.7
      vertex 1.474964385680476 -1.7972493040683637 -0.7
    endloop
  endfacet
  facet normal 0 0 -1
    outer loop
      vertex 1.474964385680476 -1.7972493040683637 -0.7
      vertex 1.6440232662587233 1.6440232662587233 -0.7
      vertex 1.6440232662587233 -1.6440232662587233 -0.7
    endloop
  endfacet
  facet normal 0 0 -1
    outer loop
      vertex 1.6440232662587233 -1.6440232662587233 -0.7
      vertex 1.7972493040683637 1.474964385680476 -0.7
      vertex 1.7972493040683637 -1.474964385680476 -0.7
    endloop
  endfacet
  facet normal 0 0 -1
    outer loop
      vertex 1.7972493040683637 -1.474964385680476 -0.7
      vertex 1.933166848603418 1.2917007917705752 -0.7
      vertex 1.933166848603418 -1.2917007917705752 -0.7
    endloop
  endfacet
  facet normal 0 0 -1
    outer loop
      vertex 1.933166848603418 -1.2917007917705752 -0.7
      vertex 2.0504669396099255 1.0959974131204446 -0.7
      vertex 2.0504669396099255 -1.0959974131204446 -0.7
    endloop
  endfacet
  facet normal 0 0 -1
    outer loop
      vertex 2.0504669396099255 -1.0959974131204446 -0.7
      vertex 2.1480199130887416 0.8897389802488338 -0.7
      vertex 2.1480199130887416 -0.8897389802488338 -0.7
    endloop
  endfacet
  facet normal 0 0 -1
    outer loop
      vertex 2.1480199130887416 -0.8897389802488338 -0.7
      vertex 2.2248862805773855 0.6749118746166249 -0.7
      vertex 2.2248862805773855 -0.6749118746166249 -0.7
    endloop
  endfacet
  facet normal 0 0 -1
    outer loop
      vertex 2.2248862805773855 -0.6749118746166249 -0.7
      vertex 2.2803257769375107 0.4535849986874982 -0.7
      vertex 2.2803257769375107 -0.4535849986874982 -0.7
    endloop
  endfacet
  facet normal 0 0 -1
    outer loop
      vertex 2.2803257769375107 -0.4535849986874982 -0.7
      vertex 2.313804489512858 0.22788985126622843 -0.7
      vertex 2.313804489512858 -0.22788985126622843 -0.7
    endloop
  endfacet
  facet normal 0.8577286100002722 -0.5141027441932214 0
    outer loop
      vertex 1.933166848603418 -1.2917007917705752 -0.7
      vertex 2.0504669396099255 -1.0959974131204446 -0.7
      vertex 1.933166848603418 -1.2917007917705752 0.7
    endloop
  endfacet
  facet normal 0.9039892931234437 -0.4275550934302815 0
    outer loop
      vertex 2.0504669396099255 -1.0959974131204446 -0.7
      vertex 2.1480199130887416 -0.8897389802488338 -0.7
      vertex 2.0504669396099255 -1.0959974131204446 0.7
    endloop
  endfacet
  facet normal 0.9415440651830209 -0.33688985339221966 0
    outer loop
      vertex 2.1480199130887416 -0.8897389802488338 -0.7
      vertex 2.2248862805773855 -0.6749118746166249 -0.7
      vertex 2.1480199130887416 -0.8897389802488338 0.7
    endloop
  endfacet
  facet normal 0.9700312531945439 -0.24298017990326412 0
    outer loop
      vertex 2.2248862805773855 -0.6749118746166249 -0.7
      vertex 2.2803257769375107 -0.4535849986874982 -0.7
      vertex 2.2248862805773855 -0.6749118746166249 0.7
    endloop
  endfacet
  facet normal 0.9891765099647807 -0.14673047445536316 0
    outer loop
      vertex 2.2803257769375107 -0.4535849986874982 -0.7
      vertex 2.313804489512858 -0.22788985126622843 -0.7
      vertex 2.2803257769375107 -0.4535849986874982 0.7
    endloop
  endfacet
  facet normal 0.9987954562051725 -0.049067674327417744 0
    outer loop
      vertex 2.313804489512858 -0.22788985126622843 -0.7
      vertex 2.325 0 -0.7
      vertex 2.313804489512858 -0.22788985126622843 0.7
    endloop
  endfacet
  facet normal 0.2429801799032641 -0.970031253194544 0
    outer loop
      vertex 0.6749118746166249 -2.2248862805773855 0.7
      vertex 0.5 -2.2686994243514667 0.7
      vertex 0.5 -2.2686994243514667 -0.7
    endloop
  endfacet
  facet normal 0.33688985339221966 -0.9415440651830209 0
    outer loop
      vertex 0.6749118746166249 -2.2248862805773855 -0.7
      vertex 0.8897389802488338 -2.1480199130887416 0.7
      vertex 0.6749118746166249 -2.2248862805773855 0.7
    endloop
  endfacet
  facet normal 0.4275550934302815 -0.9039892931234437 0
    outer loop
      vertex 0.8897389802488338 -2.1480199130887416 -0.7
      vertex 1.0959974131204446 -2.0504669396099255 0.7
      vertex 0.8897389802488338 -2.1480199130887416 0.7
    endloop
  endfacet
  facet normal 0.5141027441932214 -0.8577286100002722 0
    outer loop
      vertex 1.0959974131204446 -2.0504669396099255 -0.7
      vertex 1.2917007917705752 -1.933166848603418 0.7
      vertex 1.0959974131204446 -2.0504669396099255 0.7
    endloop
  endfacet
  facet normal 0 0 1
    outer loop
      vertex 0 -2.325 0.7
      vertex 0.22788985126622843 -2.313804489512858 0.7
      vertex 0 2.325 0.7
    endloop
  endfacet
  facet normal 0 0 1
    outer loop
      vertex 0.22788985126622843 -2.313804489512858 0.7
      vertex 0.4535849986874982 -2.2803257769375107 0.7
      vertex 0.22788985126622843 2.313804489512858 0.7
    endloop
  endfacet
  facet normal 0 0 1
    outer loop
      vertex 0.4535849986874982 2.2803257769375107 0.7
      vertex 0.4535849986874982 -2.2803257769375107 0.7
      vertex 0.5 -2.2686994243514667 0.7
    endloop
  endfacet
  facet normal 0 0 1
    outer loop
      vertex 0.5 -2.2686994243514667 0.7
      vertex 0.6749118746166249 -2.2248862805773855 0.7
      vertex 0.4535849986874982 2.2803257769375107 0.7
    endloop
  endfacet
  facet normal 0 0 1
    outer loop
      vertex 0.6749118746166249 -2.2248862805773855 0.7
      vertex 0.8897389802488338 -2.1480199130887416 0.7
      vertex 0.6749118746166249 2.2248862805773855 0.7
    endloop
  endfacet
  facet normal 0 0 1
    outer loop
      vertex 0.8897389802488338 -2.1480199130887416 0.7
      vertex 1.0959974131204446 -2.0504669396099255 0.7
      vertex 0.8897389802488338 2.1480199130887416 0.7
    endloop
  endfacet
  facet normal 0 0 1
    outer loop
      vertex 1.0959974131204446 -2.0504669396099255 0.7
      vertex 1.2917007917705752 -1.933166848603418 0.7
      vertex 1.0959974131204446 2.0504669396099255 0.7
    endloop
  endfacet
  facet normal 0.5956993044924329 -0.8032075314806452 0
    outer loop
      vertex 1.2917007917705752 -1.933166848603418 -0.7
      vertex 1.474964385680476 -1.7972493040683637 0.7
      vertex 1.2917007917705752 -1.933166848603418 0.7
    endloop
  endfacet
  facet normal 0.6715589548470179 -0.7409511253549594 0
    outer loop
      vertex 1.474964385680476 -1.7972493040683637 -0.7
      vertex 1.6440232662587233 -1.6440232662587233 0.7
      vertex 1.474964385680476 -1.7972493040683637 0.7
    endloop
  endfacet
  facet normal 0.7409511253549594 -0.6715589548470179 0
    outer loop
      vertex 1.7972493040683637 -1.474964385680476 -0.7
      vertex 1.7972493040683637 -1.474964385680476 0.7
      vertex 1.6440232662587233 -1.6440232662587233 0.7
    endloop
  endfacet
  facet normal 0.8032075314806452 -0.5956993044924329 0
    outer loop
      vertex 1.933166848603418 -1.2917007917705752 -0.7
      vertex 1.933166848603418 -1.2917007917705752 0.7
      vertex 1.7972493040683637 -1.474964385680476 0.7
    endloop
  endfacet
  facet normal 0.8577286100002722 -0.5141027441932214 0
    outer loop
      vertex 2.0504669396099255 -1.0959974131204446 -0.7
      vertex 2.0504669396099255 -1.0959974131204446 0.7
      vertex 1.933166848603418 -1.2917007917705752 0.7
    endloop
  endfacet
  facet normal 0.9039892931234437 -0.4275550934302815 0
    outer loop
      vertex 2.1480199130887416 -0.8897389802488338 -0.7
      vertex 2.1480199130887416 -0.8897389802488338 0.7
      vertex 2.0504669396099255 -1.0959974131204446 0.7
    endloop
  endfacet
  facet normal 0.9415440651830209 -0.33688985339221966 0
    outer loop
      vertex 2.2248862805773855 -0.6749118746166249 -0.7
      vertex 2.2248862805773855 -0.6749118746166249 0.7
      vertex 2.1480199130887416 -0.8897389802488338 0.7
    endloop
  endfacet
  facet normal 0.9700312531945439 -0.24298017990326412 0
    outer loop
      vertex 2.2803257769375107 -0.4535849986874982 -0.7
      vertex 2.2803257769375107 -0.4535849986874982 0.7
      vertex 2.2248862805773855 -0.6749118746166249 0.7
    endloop
  endfacet
  facet normal 0.9891765099647807 -0.14673047445536316 0
    outer loop
      vertex 2.313804489512858 -0.22788985126622843 -0.7
      vertex 2.313804489512858 -0.22788985126622843 0.7
      vertex 2.2803257769375107 -0.4535849986874982 0.7
    endloop
  endfacet
  facet normal 0.9987954562051725 -0.049067674327417744 0
    outer loop
      vertex 2.313804489512858 -0.22788985126622843 0.7
      vertex 2.325 0 -0.7
      vertex 2.325 0 0.7
    endloop
  endfacet
  facet normal 0 0 1
    outer loop
      vertex 1.2917007917705752 -1.933166848603418 0.7
      vertex 1.474964385680476 -1.7972493040683637 0.7
      vertex 1.2917007917705752 1.933166848603418 0.7
    endloop
  endfacet
  facet normal 0 0 1
    outer loop
      vertex 1.474964385680476 -1.7972493040683637 0.7
      vertex 1.6440232662587233 -1.6440232662587233 0.7
      vertex 1.474964385680476 1.7972493040683637 0.7
    endloop
  endfacet
  facet normal 0 0 1
    outer loop
      vertex 1.6440232662587233 -1.6440232662587233 0.7
      vertex 1.7972493040683637 -1.474964385680476 0.7
      vertex 1.6440232662587233 1.6440232662587233 0.7
    endloop
  endfacet
  facet normal 0 0 1
    outer loop
      vertex 1.7972493040683637 -1.474964385680476 0.7
      vertex 1.933166848603418 -1.2917007917705752 0.7
      vertex 1.7972493040683637 1.474964385680476 0.7
    endloop
  endfacet
  facet normal 0 0 1
    outer loop
      vertex 1.933166848603418 -1.2917007917705752 0.7
      vertex 2.0504669396099255 -1.0959974131204446 0.7
      vertex 1.933166848603418 1.2917007917705752 0.7
    endloop
  endfacet
  facet normal 0 0 1
    outer loop
      vertex 2.0504669396099255 -1.0959974131204446 0.7
      vertex 2.1480199130887416 -0.8897389802488338 0.7
      vertex 2.0504669396099255 1.0959974131204446 0.7
    endloop
  endfacet
  facet normal 0 0 1
    outer loop
      vertex 2.1480199130887416 -0.8897389802488338 0.7
      vertex 2.2248862805773855 -0.6749118746166249 0.7
      vertex 2.1480199130887416 0.8897389802488338 0.7
    endloop
  endfacet
  facet normal 0 0 1
    outer loop
      vertex 2.2248862805773855 -0.6749118746166249 0.7
      vertex 2.2803257769375107 -0.4535849986874982 0.7
      vertex 2.2248862805773855 0.6749118746166249 0.7
    endloop
  endfacet
  facet normal 0 0 1
    outer loop
      vertex 2.2803257769375107 -0.4535849986874982 0.7
      vertex 2.313804489512858 -0.22788985126622843 0.7
      vertex 2.2803257769375107 0.4535849986874982 0.7
    endloop
  endfacet
  facet normal 0 0 -1
    outer loop
      vertex 0 -2.325 -0.7
      vertex 0 2.325 -0.7
      vertex 0.22788985126622843 2.313804489512858 -0.7
    endloop
  endfacet
  facet normal 0 0 -1
    outer loop
      vertex 0.22788985126622843 -2.313804489512858 -0.7
      vertex 0.22788985126622843 2.313804489512858 -0.7
      vertex 0.4535849986874982 2.2803257769375107 -0.7
    endloop
  endfacet
  facet normal 0 0 -1
    outer loop
      vertex 0.4535849986874982 -2.2803257769375107 -0.7
      vertex 0.4535849986874982 2.2803257769375107 -0.7
      vertex 0.5 2.2686994243514667 -0.7
    endloop
  endfacet
  facet normal 0 0 -1
    outer loop
      vertex 0.4535849986874982 -2.2803257769375107 -0.7
      vertex 0.5 2.2686994243514667 -0.7
      vertex 0.6749118746166249 2.2248862805773855 -0.7
    endloop
  endfacet
  facet normal 0 0 -1
    outer loop
      vertex 1.0959974131204446 -2.0504669396099255 -0.7
      vertex 1.0959974131204446 2.0504669396099255 -0.7
      vertex 1.2917007917705752 1.933166848603418 -0.7
    endloop
  endfacet
  facet normal 0 0 -1
    outer loop
      vertex 0.6749118746166249 -2.2248862805773855 -0.7
      vertex 0.6749118746166249 2.2248862805773855 -0.7
      vertex 0.8897389802488338 2.1480199130887416 -0.7
    endloop
  endfacet
  facet normal 0 0 -1
    outer loop
      vertex 0.8897389802488338 -2.1480199130887416 -0.7
      vertex 0.8897389802488338 2.1480199130887416 -0.7
      vertex 1.0959974131204446 2.0504669396099255 -0.7
    endloop
  endfacet
  facet normal 0.2429801799032641 0.970031253194544 0
    outer loop
      vertex 0.6749118746166249 2.2248862805773855 -0.7
      vertex 0.5 2.2686994243514667 -0.7
      vertex 0.5 2.2686994243514667 0.7
    endloop
  endfacet
  facet normal 0.33688985339221966 0.9415440651830209 0
    outer loop
      vertex 0.6749118746166249 2.2248862805773855 -0.7
      vertex 0.6749118746166249 2.2248862805773855 0.7
      vertex 0.8897389802488338 2.1480199130887416 -0.7
    endloop
  endfacet
  facet normal 0.4275550934302815 0.9039892931234437 0
    outer loop
      vertex 0.8897389802488338 2.1480199130887416 -0.7
      vertex 0.8897389802488338 2.1480199130887416 0.7
      vertex 1.0959974131204446 2.0504669396099255 -0.7
    endloop
  endfacet
  facet normal 0.5141027441932214 0.8577286100002722 0
    outer loop
      vertex 1.0959974131204446 2.0504669396099255 -0.7
      vertex 1.0959974131204446 2.0504669396099255 0.7
      vertex 1.2917007917705752 1.933166848603418 -0.7
    endloop
  endfacet
  facet normal 0 0 -1
    outer loop
      vertex 1.2917007917705752 -1.933166848603418 -0.7
      vertex 1.2917007917705752 1.933166848603418 -0.7
      vertex 1.474964385680476 1.7972493040683637 -0.7
    endloop
  endfacet
  facet normal 0 0 -1
    outer loop
      vertex 1.474964385680476 -1.7972493040683637 -0.7
      vertex 1.474964385680476 1.7972493040683637 -0.7
      vertex 1.6440232662587233 1.6440232662587233 -0.7
    endloop
  endfacet
  facet normal 0 0 -1
    outer loop
      vertex 1.6440232662587233 -1.6440232662587233 -0.7
      vertex 1.6440232662587233 1.6440232662587233 -0.7
      vertex 1.7972493040683637 1.474964385680476 -0.7
    endloop
  endfacet
  facet normal 0 0 -1
    outer loop
      vertex 1.7972493040683637 -1.474964385680476 -0.7
      vertex 1.7972493040683637 1.474964385680476 -0.7
      vertex 1.933166848603418 1.2917007917705752 -0.7
    endloop
  endfacet
  facet normal 0 0 -1
    outer loop
      vertex 1.933166848603418 -1.2917007917705752 -0.7
      vertex 1.933166848603418 1.2917007917705752 -0.7
      vertex 2.0504669396099255 1.0959974131204446 -0.7
    endloop
  endfacet
  facet normal 0 0 -1
    outer loop
      vertex 2.0504669396099255 -1.0959974131204446 -0.7
      vertex 2.0504669396099255 1.0959974131204446 -0.7
      vertex 2.1480199130887416 0.8897389802488338 -0.7
    endloop
  endfacet
  facet normal 0 0 -1
    outer loop
      vertex 2.1480199130887416 -0.8897389802488338 -0.7
      vertex 2.1480199130887416 0.8897389802488338 -0.7
      vertex 2.2248862805773855 0.6749118746166249 -0.7
    endloop
  endfacet
  facet normal 0 0 -1
    outer loop
      vertex 2.2248862805773855 -0.6749118746166249 -0.7
      vertex 2.2248862805773855 0.6749118746166249 -0.7
      vertex 2.2803257769375107 0.4535849986874982 -0.7
    endloop
  endfacet
  facet normal 0 0 -1
    outer loop
      vertex 2.313804489512858 -0.22788985126622843 -0.7
      vertex 2.313804489512858 0.22788985126622843 -0.7
      vertex 2.325 0 -0.7
    endloop
  endfacet
  facet normal 0 0 -1
    outer loop
      vertex 2.2803257769375107 -0.4535849986874982 -0.7
      vertex 2.2803257769375107 0.4535849986874982 -0.7
      vertex 2.313804489512858 0.22788985126622843 -0.7
    endloop
  endfacet
  facet normal 0.9987954562051725 0.049067674327417744 0
    outer loop
      vertex 2.325 0 -0.7
      vertex 2.313804489512858 0.22788985126622843 -0.7
      vertex 2.325 0 0.7
    endloop
  endfacet
  facet normal 0.9891765099647807 0.14673047445536316 0
    outer loop
      vertex 2.313804489512858 0.22788985126622843 -0.7
      vertex 2.2803257769375107 0.4535849986874982 -0.7
      vertex 2.313804489512858 0.22788985126622843 0.7
    endloop
  endfacet
  facet normal 0.9700312531945439 0.24298017990326412 0
    outer loop
      vertex 2.2803257769375107 0.4535849986874982 -0.7
      vertex 2.2248862805773855 0.6749118746166249 -0.7
      vertex 2.2803257769375107 0.4535849986874982 0.7
    endloop
  endfacet
  facet normal 0.8577286100002722 0.5141027441932214 0
    outer loop
      vertex 2.0504669396099255 1.0959974131204446 -0.7
      vertex 1.933166848603418 1.2917007917705752 -0.7
      vertex 2.0504669396099255 1.0959974131204446 0.7
    endloop
  endfacet
  facet normal 0.9039892931234437 0.4275550934302815 0
    outer loop
      vertex 2.1480199130887416 0.8897389802488338 -0.7
      vertex 2.0504669396099255 1.0959974131204446 -0.7
      vertex 2.1480199130887416 0.8897389802488338 0.7
    endloop
  endfacet
  facet normal 0.9415440651830209 0.33688985339221966 0
    outer loop
      vertex 2.2248862805773855 0.6749118746166249 -0.7
      vertex 2.1480199130887416 0.8897389802488338 -0.7
      vertex 2.2248862805773855 0.6749118746166249 0.7
    endloop
  endfacet
  facet normal 0.5956993044924329 0.8032075314806452 0
    outer loop
      vertex 1.2917007917705752 1.933166848603418 -0.7
      vertex 1.2917007917705752 1.933166848603418 0.7
      vertex 1.474964385680476 1.7972493040683637 -0.7
    endloop
  endfacet
  facet normal 0.6715589548470179 0.7409511253549594 0
    outer loop
      vertex 1.6440232662587233 1.6440232662587233 -0.7
      vertex 1.474964385680476 1.7972493040683637 -0.7
      vertex 1.474964385680476 1.7972493040683637 0.7
    endloop
  endfacet
  facet normal 0.8032075314806452 0.5956993044924329 0
    outer loop
      vertex 1.933166848603418 1.2917007917705752 -0.7
      vertex 1.7972493040683637 1.474964385680476 -0.7
      vertex 1.933166848603418 1.2917007917705752 0.7
    endloop
  endfacet
  facet normal 0.7409511253549594 0.6715589548470179 0
    outer loop
      vertex 1.6440232662587233 1.6440232662587233 -0.7
      vertex 1.7972493040683637 1.474964385680476 0.7
      vertex 1.7972493040683637 1.474964385680476 -0.7
    endloop
  endfacet
  facet normal 0 0 1
    outer loop
      vertex 0.22788985126622843 -2.313804489512858 0.7
      vertex 0.22788985126622843 2.313804489512858 0.7
      vertex 0 2.325 0.7
    endloop
  endfacet
  facet normal 0 0 1
    outer loop
      vertex 0.4535849986874982 -2.2803257769375107 0.7
      vertex 0.4535849986874982 2.2803257769375107 0.7
      vertex 0.22788985126622843 2.313804489512858 0.7
    endloop
  endfacet
  facet normal 0 0 1
    outer loop
      vertex 0.6749118746166249 -2.2248862805773855 0.7
      vertex 0.5 2.2686994243514667 0.7
      vertex 0.4535849986874982 2.2803257769375107 0.7
    endloop
  endfacet
  facet normal 0 0 1
    outer loop
      vertex 0.6749118746166249 -2.2248862805773855 0.7
      vertex 0.6749118746166249 2.2248862805773855 0.7
      vertex 0.5 2.2686994243514667 0.7
    endloop
  endfacet
  facet normal 0 0 1
    outer loop
      vertex 0.8897389802488338 -2.1480199130887416 0.7
      vertex 0.8897389802488338 2.1480199130887416 0.7
      vertex 0.6749118746166249 2.2248862805773855 0.7
    endloop
  endfacet
  facet normal 0 0 1
    outer loop
      vertex 1.0959974131204446 -2.0504669396099255 0.7
      vertex 1.0959974131204446 2.0504669396099255 0.7
      vertex 0.8897389802488338 2.1480199130887416 0.7
    endloop
  endfacet
  facet normal 0.2429801799032641 0.970031253194544 0
    outer loop
      vertex 0.6749118746166249 2.2248862805773855 -0.7
      vertex 0.5 2.2686994243514667 0.7
      vertex 0.6749118746166249 2.2248862805773855 0.7
    endloop
  endfacet
  facet normal 0.33688985339221966 0.9415440651830209 0
    outer loop
      vertex 0.8897389802488338 2.1480199130887416 -0.7
      vertex 0.6749118746166249 2.2248862805773855 0.7
      vertex 0.8897389802488338 2.1480199130887416 0.7
    endloop
  endfacet
  facet normal 0.4275550934302815 0.9039892931234437 0
    outer loop
      vertex 1.0959974131204446 2.0504669396099255 -0.7
      vertex 0.8897389802488338 2.1480199130887416 0.7
      vertex 1.0959974131204446 2.0504669396099255 0.7
    endloop
  endfacet
  facet normal 0.9987954562051725 0.049067674327417744 0
    outer loop
      vertex 2.313804489512858 0.22788985126622843 -0.7
      vertex 2.313804489512858 0.22788985126622843 0.7
      vertex 2.325 0 0.7
    endloop
  endfacet
  facet normal 0.9891765099647807 0.14673047445536316 0
    outer loop
      vertex 2.2803257769375107 0.4535849986874982 -0.7
      vertex 2.2803257769375107 0.4535849986874982 0.7
      vertex 2.313804489512858 0.22788985126622843 0.7
    endloop
  endfacet
  facet normal 0.9700312531945439 0.24298017990326412 0
    outer loop
      vertex 2.2248862805773855 0.6749118746166249 -0.7
      vertex 2.2248862805773855 0.6749118746166249 0.7
      vertex 2.2803257769375107 0.4535849986874982 0.7
    endloop
  endfacet
  facet normal 0.8577286100002722 0.5141027441932214 0
    outer loop
      vertex 1.933166848603418 1.2917007917705752 -0.7
      vertex 1.933166848603418 1.2917007917705752 0.7
      vertex 2.0504669396099255 1.0959974131204446 0.7
    endloop
  endfacet
  facet normal 0.9415440651830209 0.33688985339221966 0
    outer loop
      vertex 2.1480199130887416 0.8897389802488338 -0.7
      vertex 2.1480199130887416 0.8897389802488338 0.7
      vertex 2.2248862805773855 0.6749118746166249 0.7
    endloop
  endfacet
  facet normal 0.9039892931234437 0.4275550934302815 0
    outer loop
      vertex 2.0504669396099255 1.0959974131204446 -0.7
      vertex 2.0504669396099255 1.0959974131204446 0.7
      vertex 2.1480199130887416 0.8897389802488338 0.7
    endloop
  endfacet
  facet normal 0 0 1
    outer loop
      vertex 1.474964385680476 -1.7972493040683637 0.7
      vertex 1.474964385680476 1.7972493040683637 0.7
      vertex 1.2917007917705752 1.933166848603418 0.7
    endloop
  endfacet
  facet normal 0 0 1
    outer loop
      vertex 1.6440232662587233 -1.6440232662587233 0.7
      vertex 1.6440232662587233 1.6440232662587233 0.7
      vertex 1.474964385680476 1.7972493040683637 0.7
    endloop
  endfacet
  facet normal 0 0 1
    outer loop
      vertex 1.2917007917705752 -1.933166848603418 0.7
      vertex 1.2917007917705752 1.933166848603418 0.7
      vertex 1.0959974131204446 2.0504669396099255 0.7
    endloop
  endfacet
  facet normal 0 0 1
    outer loop
      vertex 1.7972493040683637 -1.474964385680476 0.7
      vertex 1.7972493040683637 1.474964385680476 0.7
      vertex 1.6440232662587233 1.6440232662587233 0.7
    endloop
  endfacet
  facet normal 0 0 1
    outer loop
      vertex 1.933166848603418 -1.2917007917705752 0.7
      vertex 1.933166848603418 1.2917007917705752 0.7
      vertex 1.7972493040683637 1.474964385680476 0.7
    endloop
  endfacet
  facet normal 0 0 1
    outer loop
      vertex 2.0504669396099255 -1.0959974131204446 0.7
      vertex 2.0504669396099255 1.0959974131204446 0.7
      vertex 1.933166848603418 1.2917007917705752 0.7
    endloop
  endfacet
  facet normal 0 0 1
    outer loop
      vertex 2.313804489512858 -0.22788985126622843 0.7
      vertex 2.325 0 0.7
      vertex 2.313804489512858 0.22788985126622843 0.7
    endloop
  endfacet
  facet normal 0 0 1
    outer loop
      vertex 2.313804489512858 -0.22788985126622843 0.7
      vertex 2.313804489512858 0.22788985126622843 0.7
      vertex 2.2803257769375107 0.4535849986874982 0.7
    endloop
  endfacet
  facet normal 0 0 1
    outer loop
      vertex 2.2248862805773855 -0.6749118746166249 0.7
      vertex 2.2248862805773855 0.6749118746166249 0.7
      vertex 2.1480199130887416 0.8897389802488338 0.7
    endloop
  endfacet
  facet normal 0 0 1
    outer loop
      vertex 2.2803257769375107 -0.4535849986874982 0.7
      vertex 2.2803257769375107 0.4535849986874982 0.7
      vertex 2.2248862805773855 0.6749118746166249 0.7
    endloop
  endfacet
  facet normal 0 0 1
    outer loop
      vertex 2.1480199130887416 -0.8897389802488338 0.7
      vertex 2.1480199130887416 0.8897389802488338 0.7
      vertex 2.0504669396099255 1.0959974131204446 0.7
    endloop
  endfacet
  facet normal 0.5956993044924329 0.8032075314806452 0
    outer loop
      vertex 1.474964385680476 1.7972493040683637 -0.7
      vertex 1.2917007917705752 1.933166848603418 0.7
      vertex 1.474964385680476 1.7972493040683637 0.7
    endloop
  endfacet
  facet normal 0.7409511253549594 0.6715589548470179 0
    outer loop
      vertex 1.6440232662587233 1.6440232662587233 -0.7
      vertex 1.6440232662587233 1.6440232662587233 0.7
      vertex 1.7972493040683637 1.474964385680476 0.7
    endloop
  endfacet
  facet normal 0.6715589548470179 0.7409511253549594 0
    outer loop
      vertex 1.6440232662587233 1.6440232662587233 -0.7
      vertex 1.474964385680476 1.7972493040683637 0.7
      vertex 1.6440232662587233 1.6440232662587233 0.7
    endloop
  endfacet
  facet normal 0.5141027441932214 0.8577286100002722 0
    outer loop
      vertex 1.2917007917705752 1.933166848603418 -0.7
      vertex 1.0959974131204446 2.0504669396099255 0.7
      vertex 1.2917007917705752 1.933166848603418 0.7
    endloop
  endfacet
  facet normal 0.8032075314806452 0.5956993044924329 0
    outer loop
      vertex 1.7972493040683637 1.474964385680476 -0.7
      vertex 1.7972493040683637 1.474964385680476 0.7
      vertex 1.933166848603418 1.2917007917705752 0.7
    endloop
  endfacet
  facet normal 0 0 -1
    outer loop
      vertex -0.5 -2.6 -0.7
      vertex -0.5 -2.2686994243514667 -0.7
      vertex -0.4535849986874982 -2.2803257769375107 -0.7
    endloop
  endfacet
  facet normal 0 0 -1
    outer loop
      vertex -0.5 -2.6 -0.7
      vertex -0.4535849986874982 -2.2803257769375107 -0.7
      vertex -0.22788985126622843 -2.313804489512858 -0.7
    endloop
  endfacet
  facet normal 0 0 -1
    outer loop
      vertex -0.5 -2.6 -0.7
      vertex -0.22788985126622843 -2.313804489512858 -0.7
      vertex 0 -2.325 -0.7
    endloop
  endfacet
  facet normal -1 0 0
    outer loop
      vertex -0.5 -2.6 -0.7
      vertex -0.5 -2.2686994243514667 0.7
      vertex -0.5 -2.2686994243514667 -0.7
    endloop
  endfacet
  facet normal -1 0 0
    outer loop
      vertex -0.5 -2.6 -0.7
      vertex -0.5 -2.6 0.7
      vertex -0.5 -2.2686994243514667 0.7
    endloop
  endfacet
  facet normal 0 -1 0
    outer loop
      vertex -0.5 -2.6 -0.7
      vertex 0.5 -2.6 0.7
      vertex -0.5 -2.6 0.7
    endloop
  endfacet
  facet normal 0 0 1
    outer loop
      vertex -0.5 -2.6 0.7
      vertex -0.4535849986874982 -2.2803257769375107 0.7
      vertex -0.5 -2.2686994243514667 0.7
    endloop
  endfacet
  facet normal 0 0 1
    outer loop
      vertex -0.5 -2.6 0.7
      vertex -0.22788985126622843 -2.313804489512858 0.7
      vertex -0.4535849986874982 -2.2803257769375107 0.7
    endloop
  endfacet
  facet normal 0 0 1
    outer loop
      vertex -0.5 -2.6 0.7
      vertex 0 -2.325 0.7
      vertex -0.22788985126622843 -2.313804489512858 0.7
    endloop
  endfacet
  facet normal 0 0 -1
    outer loop
      vertex -0.5 2.6 -0.7
      vertex -0.4535849986874982 2.2803257769375107 -0.7
      vertex -0.5 2.2686994243514667 -0.7
    endloop
  endfacet
  facet normal 0 0 -1
    outer loop
      vertex -0.5 2.6 -0.7
      vertex -0.22788985126622843 2.313804489512858 -0.7
      vertex -0.4535849986874982 2.2803257769375107 -0.7
    endloop
  endfacet
  facet normal 0 0 -1
    outer loop
      vertex -0.5 2.6 -0.7
      vertex 0 2.325 -0.7
      vertex -0.22788985126622843 2.313804489512858 -0.7
    endloop
  endfacet
  facet normal -1 0 0
    outer loop
      vertex -0.5 2.6 -0.7
      vertex -0.5 2.2686994243514667 -0.7
      vertex -0.5 2.6 0.7
    endloop
  endfacet
  facet normal 0 1 0
    outer loop
      vertex -0.5 2.6 -0.7
      vertex -0.5 2.6 0.7
      vertex 0.5 2.6 -0.7
    endloop
  endfacet
  facet normal -1 0 0
    outer loop
      vertex -0.5 2.6 0.7
      vertex -0.5 2.2686994243514667 -0.7
      vertex -0.5 2.2686994243514667 0.7
    endloop
  endfacet
  facet normal 0 0 1
    outer loop
      vertex -0.5 2.6 0.7
      vertex -0.5 2.2686994243514667 0.7
      vertex -0.4535849986874982 2.2803257769375107 0.7
    endloop
  endfacet
  facet normal 0 0 1
    outer loop
      vertex -0.5 2.6 0.7
      vertex -0.4535849986874982 2.2803257769375107 0.7
      vertex -0.22788985126622843 2.313804489512858 0.7
    endloop
  endfacet
  facet normal 0 0 1
    outer loop
      vertex -0.5 2.6 0.7
      vertex -0.22788985126622843 2.313804489512858 0.7
      vertex 0 2.325 0.7
    endloop
  endfacet
  facet normal 0 0 -1
    outer loop
      vertex -0.5 -2.6 -0.7
      vertex 0 -2.325 -0.7
      vertex 0.5 -2.6 -0.7
    endloop
  endfacet
  facet normal 0 0 -1
    outer loop
      vertex 0.5 -2.6 -0.7
      vertex 0 -2.325 -0.7
      vertex 0.22788985126622843 -2.313804489512858 -0.7
    endloop
  endfacet
  facet normal 0 0 -1
    outer loop
      vertex 0.5 -2.6 -0.7
      vertex 0.22788985126622843 -2.313804489512858 -0.7
      vertex 0.4535849986874982 -2.2803257769375107 -0.7
    endloop
  endfacet
  facet normal 0 0 -1
    outer loop
      vertex 0.5 -2.6 -0.7
      vertex 0.4535849986874982 -2.2803257769375107 -0.7
      vertex 0.5 -2.2686994243514667 -0.7
    endloop
  endfacet
  facet normal 0 -1 0
    outer loop
      vertex -0.5 -2.6 -0.7
      vertex 0.5 -2.6 -0.7
      vertex 0.5 -2.6 0.7
    endloop
  endfacet
  facet normal 1 0 0
    outer loop
      vertex 0.5 -2.6 -0.7
      vertex 0.5 -2.2686994243514667 -0.7
      vertex 0.5 -2.6 0.7
    endloop
  endfacet
  facet normal 1 0 0
    outer loop
      vertex 0.5 -2.6 0.7
      vertex 0.5 -2.2686994243514667 -0.7
      vertex 0.5 -2.2686994243514667 0.7
    endloop
  endfacet
  facet normal 0 0 1
    outer loop
      vertex -0.5 -2.6 0.7
      vertex 0.5 -2.6 0.7
      vertex 0 -2.325 0.7
    endloop
  endfacet
  facet normal 0 0 1
    outer loop
      vertex 0.5 -2.6 0.7
      vertex 0.22788985126622843 -2.313804489512858 0.7
      vertex 0 -2.325 0.7
    endloop
  endfacet
  facet normal 0 0 1
    outer loop
      vertex 0.5 -2.6 0.7
      vertex 0.4535849986874982 -2.2803257769375107 0.7
      vertex 0.22788985126622843 -2.313804489512858 0.7
    endloop
  endfacet
  facet normal 0 0 1
    outer loop
      vertex 0.5 -2.6 0.7
      vertex 0.5 -2.2686994243514667 0.7
      vertex 0.4535849986874982 -2.2803257769375107 0.7
    endloop
  endfacet
  facet normal 0 0 -1
    outer loop
      vertex -0.5 2.6 -0.7
      vertex 0.5 2.6 -0.7
      vertex 0 2.325 -0.7
    endloop
  endfacet
  facet normal 0 0 -1
    outer loop
      vertex 0.5 2.6 -0.7
      vertex 0.22788985126622843 2.313804489512858 -0.7
      vertex 0 2.325 -0.7
    endloop
  endfacet
  facet normal 0 0 -1
    outer loop
      vertex 0.5 2.6 -0.7
      vertex 0.4535849986874982 2.2803257769375107 -0.7
      vertex 0.22788985126622843 2.313804489512858 -0.7
    endloop
  endfacet
  facet normal 0 0 -1
    outer loop
      vertex 0.5 2.6 -0.7
      vertex 0.5 2.2686994243514667 -0.7
      vertex 0.4535849986874982 2.2803257769375107 -0.7
    endloop
  endfacet
  facet normal 1 0 0
    outer loop
      vertex 0.5 2.6 -0.7
      vertex 0.5 2.2686994243514667 0.7
      vertex 0.5 2.2686994243514667 -0.7
    endloop
  endfacet
  facet normal 0 1 0
    outer loop
      vertex -0.5 2.6 0.7
      vertex 0.5 2.6 0.7
      vertex 0.5 2.6 -0.7
    endloop
  endfacet
  facet normal 1 0 0
    outer loop
      vertex 0.5 2.6 -0.7
      vertex 0.5 2.6 0.7
      vertex 0.5 2.2686994243514667 0.7
    endloop
  endfacet
  facet normal 0 0 1
    outer loop
      vertex -0.5 2.6 0.7
      vertex 0 2.325 0.7
      vertex 0.5 2.6 0.7
    endloop
  endfacet
  facet normal 0 0 1
    outer loop
      vertex 0.5 2.6 0.7
      vertex 0 2.325 0.7
      vertex 0.22788985126622843 2.313804489512858 0.7
    endloop
  endfacet
  facet normal 0 0 1
    outer loop
      vertex 0.5 2.6 0.7
      vertex 0.22788985126622843 2.313804489512858 0.7
      vertex 0.4535849986874982 2.2803257769375107 0.7
    endloop
  endfacet
  facet normal 0 0 1
    outer loop
      vertex 0.5 2.6 0.7
      vertex 0.4535849986874982 2.2803257769375107 0.7
      vertex 0.5 2.2686994243514667 0.7
    endloop
  endfacet
endsolid OpenSCAD_Model
