<?xml version="1.0" encoding="UTF-8" standalone="no"?>
<!DOCTYPE svg PUBLIC "-//W3C//DTD SVG 1.1//EN"
 "http://www.w3.org/Graphics/SVG/1.1/DTD/svg11.dtd">
<!-- Generated by graphviz version 5.0.0 (20220707.1540)
 -->
<!-- Title: default Pages: 1 -->
<svg width="579pt" height="638pt"
 viewBox="0.00 0.00 579.07 638.00" xmlns="http://www.w3.org/2000/svg" xmlns:xlink="http://www.w3.org/1999/xlink">
<g id="graph0" class="graph" transform="scale(1 1) rotate(0) translate(4 634)">
<title>default</title>
<polygon fill="white" stroke="transparent" points="-4,4 -4,-634 575.07,-634 575.07,4 -4,4"/>
<!-- root_1 -->
<g id="node1" class="node">
<title>root_1</title>
<g id="a_node1"><a xlink:href="javascript:s=&quot;\(\)\nNone&quot;; console.log(s); alert(s);" xlink:title="root">
<ellipse fill="none" stroke="black" cx="27" cy="-396" rx="27" ry="18"/>
<text text-anchor="middle" x="27" y="-392.3" font-family="Times New Roman,serif" font-size="14.00">root</text>
</a>
</g>
</g>
<!-- default_2 -->
<g id="node2" class="node">
<title>default_2</title>
<g id="a_node2"><a xlink:href="javascript:s=&quot;\(&#x27;default&#x27;,\)\nCentrePlate&quot;; console.log(s); alert(s);" xlink:title="CentrePlate">
<ellipse fill="none" stroke="black" cx="153.04" cy="-504" rx="35.19" ry="18"/>
<text text-anchor="middle" x="153.04" y="-500.3" font-family="Times New Roman,serif" font-size="14.00">default</text>
</a>
</g>
</g>
<!-- root_1&#45;&gt;default_2 -->
<g id="edge1" class="edge">
<title>root_1&#45;&gt;default_2</title>
<path fill="none" stroke="black" d="M44.22,-410.12C65.19,-428.38 101.97,-460.4 126.66,-481.9"/>
<polygon fill="black" stroke="black" points="124.38,-484.55 134.22,-488.48 128.97,-479.27 124.38,-484.55"/>
</g>
<!-- 4 -->
<g id="node4" class="node">
<title>4</title>
<g id="a_node4"><a xlink:href="javascript:s=&quot;\(&quot;&#x27;top_centre&#x27;,\ &quot;,\)\nAnnotatedCoordinates&quot;; console.log(s); alert(s);" xlink:title="AnnotatedCoordinates">
<ellipse fill="none" stroke="black" cx="153.04" cy="-396" rx="58.49" ry="18"/>
<text text-anchor="middle" x="153.04" y="-392.3" font-family="Times New Roman,serif" font-size="14.00">&#39;top_centre&#39;, </text>
</a>
</g>
</g>
<!-- root_1&#45;&gt;4 -->
<g id="edge3" class="edge">
<title>root_1&#45;&gt;4</title>
<path fill="none" stroke="black" d="M54,-396C62.94,-396 73.4,-396 84.11,-396"/>
<polygon fill="black" stroke="black" points="84.4,-399.5 94.4,-396 84.4,-392.5 84.4,-399.5"/>
</g>
<!-- 20 -->
<g id="node20" class="node">
<title>20</title>
<g id="a_node20"><a xlink:href="javascript:s=&quot;\(&quot;&#x27;base_centre&#x27;,\ &quot;,\)\nAnnotatedCoordinates&quot;; console.log(s); alert(s);" xlink:title="AnnotatedCoordinates">
<ellipse fill="none" stroke="black" cx="153.04" cy="-153" rx="63.09" ry="18"/>
<text text-anchor="middle" x="153.04" y="-149.3" font-family="Times New Roman,serif" font-size="14.00">&#39;base_centre&#39;, </text>
</a>
</g>
</g>
<!-- root_1&#45;&gt;20 -->
<g id="edge19" class="edge">
<title>root_1&#45;&gt;20</title>
<path fill="none" stroke="black" d="M36.72,-378.91C57.96,-337.3 112.51,-230.44 138.23,-180.06"/>
<polygon fill="black" stroke="black" points="141.4,-181.55 142.83,-171.05 135.17,-178.37 141.4,-181.55"/>
</g>
<!-- centre_plate_3 -->
<g id="node3" class="node">
<title>centre_plate_3</title>
<g id="a_node3"><a xlink:href="javascript:s=&quot;\(&#x27;default&#x27;,\ &#x27;centre_plate&#x27;\)\nLinearExtrude&quot;; console.log(s); alert(s);" xlink:title="LinearExtrude">
<ellipse fill="none" stroke="black" cx="306.68" cy="-558" rx="54.69" ry="18"/>
<text text-anchor="middle" x="306.68" y="-554.3" font-family="Times New Roman,serif" font-size="14.00">centre_plate</text>
</a>
</g>
</g>
<!-- default_2&#45;&gt;centre_plate_3 -->
<g id="edge2" class="edge">
<title>default_2&#45;&gt;centre_plate_3</title>
<path fill="none" stroke="black" d="M182.21,-514.03C203.76,-521.7 233.95,-532.45 259.08,-541.4"/>
<polygon fill="black" stroke="black" points="258.19,-544.8 268.79,-544.86 260.54,-538.21 258.19,-544.8"/>
</g>
<!-- coords_5 -->
<g id="node5" class="node">
<title>coords_5</title>
<g id="a_node5"><a xlink:href="javascript:s=&quot;\(&quot;&#x27;top_centre&#x27;,\ &quot;,\ &#x27;coords&#x27;\)\nCoordinates&quot;; console.log(s); alert(s);" xlink:title="Coordinates">
<ellipse fill="none" stroke="black" cx="306.68" cy="-504" rx="36.29" ry="18"/>
<text text-anchor="middle" x="306.68" y="-500.3" font-family="Times New Roman,serif" font-size="14.00">coords</text>
</a>
</g>
</g>
<!-- 4&#45;&gt;coords_5 -->
<g id="edge4" class="edge">
<title>4&#45;&gt;coords_5</title>
<path fill="none" stroke="black" d="M172.23,-413.15C191.22,-430.54 222.33,-457.56 252.09,-477 257.77,-480.71 264.04,-484.29 270.22,-487.55"/>
<polygon fill="black" stroke="black" points="268.63,-490.67 279.13,-492.09 271.81,-484.43 268.63,-490.67"/>
</g>
<!-- x_16 -->
<g id="node16" class="node">
<title>x_16</title>
<g id="a_node16"><a xlink:href="javascript:s=&quot;\(&quot;&#x27;top_centre&#x27;,\ &quot;,\ &#x27;x&#x27;\)\nText&quot;; console.log(s); alert(s);" xlink:title="Text">
<ellipse fill="none" stroke="black" cx="306.68" cy="-450" rx="27" ry="18"/>
<text text-anchor="middle" x="306.68" y="-446.3" font-family="Times New Roman,serif" font-size="14.00">x</text>
</a>
</g>
</g>
<!-- 4&#45;&gt;x_16 -->
<g id="edge15" class="edge">
<title>4&#45;&gt;x_16</title>
<path fill="none" stroke="black" d="M191.92,-409.49C216.79,-418.34 249,-429.81 272.79,-438.29"/>
<polygon fill="black" stroke="black" points="271.83,-441.66 282.43,-441.72 274.18,-435.07 271.83,-441.66"/>
</g>
<!-- y_17 -->
<g id="node17" class="node">
<title>y_17</title>
<g id="a_node17"><a xlink:href="javascript:s=&quot;\(&quot;&#x27;top_centre&#x27;,\ &quot;,\ &#x27;y&#x27;\)\nText&quot;; console.log(s); alert(s);" xlink:title="Text">
<ellipse fill="none" stroke="black" cx="306.68" cy="-396" rx="27" ry="18"/>
<text text-anchor="middle" x="306.68" y="-392.3" font-family="Times New Roman,serif" font-size="14.00">y</text>
</a>
</g>
</g>
<!-- 4&#45;&gt;y_17 -->
<g id="edge16" class="edge">
<title>4&#45;&gt;y_17</title>
<path fill="none" stroke="black" d="M211.81,-396C231.07,-396 252,-396 269.19,-396"/>
<polygon fill="black" stroke="black" points="269.36,-399.5 279.36,-396 269.36,-392.5 269.36,-399.5"/>
</g>
<!-- z_18 -->
<g id="node18" class="node">
<title>z_18</title>
<g id="a_node18"><a xlink:href="javascript:s=&quot;\(&quot;&#x27;top_centre&#x27;,\ &quot;,\ &#x27;z&#x27;\)\nText&quot;; console.log(s); alert(s);" xlink:title="Text">
<ellipse fill="none" stroke="black" cx="306.68" cy="-342" rx="27" ry="18"/>
<text text-anchor="middle" x="306.68" y="-338.3" font-family="Times New Roman,serif" font-size="14.00">z</text>
</a>
</g>
</g>
<!-- 4&#45;&gt;z_18 -->
<g id="edge17" class="edge">
<title>4&#45;&gt;z_18</title>
<path fill="none" stroke="black" d="M191.92,-382.51C216.79,-373.66 249,-362.19 272.79,-353.71"/>
<polygon fill="black" stroke="black" points="274.18,-356.93 282.43,-350.28 271.83,-350.34 274.18,-356.93"/>
</g>
<!-- label_19 -->
<g id="node19" class="node">
<title>label_19</title>
<g id="a_node19"><a xlink:href="javascript:s=&quot;\(&quot;&#x27;top_centre&#x27;,\ &quot;,\ &#x27;label&#x27;\)\nText&quot;; console.log(s); alert(s);" xlink:title="Text">
<ellipse fill="none" stroke="black" cx="306.68" cy="-288" rx="27.1" ry="18"/>
<text text-anchor="middle" x="306.68" y="-284.3" font-family="Times New Roman,serif" font-size="14.00">label</text>
</a>
</g>
</g>
<!-- 4&#45;&gt;label_19 -->
<g id="edge18" class="edge">
<title>4&#45;&gt;label_19</title>
<path fill="none" stroke="black" d="M172.23,-378.85C191.22,-361.46 222.33,-334.44 252.09,-315 259.16,-310.38 267.12,-305.98 274.71,-302.13"/>
<polygon fill="black" stroke="black" points="276.26,-305.26 283.69,-297.71 273.17,-298.98 276.26,-305.26"/>
</g>
<!-- origin_6 -->
<g id="node6" class="node">
<title>origin_6</title>
<g id="a_node6"><a xlink:href="javascript:s=&quot;\(&quot;&#x27;top_centre&#x27;,\ &quot;,\ &#x27;coords&#x27;,\ &#x27;origin&#x27;\)\nCoordinatesCage&quot;; console.log(s); alert(s);" xlink:title="CoordinatesCage">
<ellipse fill="none" stroke="black" cx="438.23" cy="-612" rx="31.4" ry="18"/>
<text text-anchor="middle" x="438.23" y="-608.3" font-family="Times New Roman,serif" font-size="14.00">origin</text>
</a>
</g>
</g>
<!-- coords_5&#45;&gt;origin_6 -->
<g id="edge5" class="edge">
<title>coords_5&#45;&gt;origin_6</title>
<path fill="none" stroke="black" d="M335.82,-514.82C344.58,-519.03 353.87,-524.44 361.28,-531 382.87,-550.12 376.95,-564.54 397.28,-585 400.27,-588.01 403.63,-590.88 407.11,-593.55"/>
<polygon fill="black" stroke="black" points="405.14,-596.45 415.32,-599.41 409.21,-590.75 405.14,-596.45"/>
</g>
<!-- x_arrow_7 -->
<g id="node7" class="node">
<title>x_arrow_7</title>
<g id="a_node7"><a xlink:href="javascript:s=&quot;\(&quot;&#x27;top_centre&#x27;,\ &quot;,\ &#x27;coords&#x27;,\ &#x27;x_arrow&#x27;\)\nArrow&quot;; console.log(s); alert(s);" xlink:title="Arrow">
<ellipse fill="none" stroke="black" cx="438.23" cy="-558" rx="40.89" ry="18"/>
<text text-anchor="middle" x="438.23" y="-554.3" font-family="Times New Roman,serif" font-size="14.00">x_arrow</text>
</a>
</g>
</g>
<!-- coords_5&#45;&gt;x_arrow_7 -->
<g id="edge6" class="edge">
<title>coords_5&#45;&gt;x_arrow_7</title>
<path fill="none" stroke="black" d="M335.16,-515.45C353.62,-523.15 378.22,-533.4 398.64,-541.92"/>
<polygon fill="black" stroke="black" points="397.42,-545.2 407.99,-545.81 400.11,-538.74 397.42,-545.2"/>
</g>
<!-- y_arrow_10 -->
<g id="node10" class="node">
<title>y_arrow_10</title>
<g id="a_node10"><a xlink:href="javascript:s=&quot;\(&quot;&#x27;top_centre&#x27;,\ &quot;,\ &#x27;coords&#x27;,\ &#x27;y_arrow&#x27;\)\nArrow&quot;; console.log(s); alert(s);" xlink:title="Arrow">
<ellipse fill="none" stroke="black" cx="438.23" cy="-504" rx="40.89" ry="18"/>
<text text-anchor="middle" x="438.23" y="-500.3" font-family="Times New Roman,serif" font-size="14.00">y_arrow</text>
</a>
</g>
</g>
<!-- coords_5&#45;&gt;y_arrow_10 -->
<g id="edge9" class="edge">
<title>coords_5&#45;&gt;y_arrow_10</title>
<path fill="none" stroke="black" d="M343.08,-504C356.46,-504 371.97,-504 386.49,-504"/>
<polygon fill="black" stroke="black" points="386.84,-507.5 396.84,-504 386.84,-500.5 386.84,-507.5"/>
</g>
<!-- z_arrow_13 -->
<g id="node13" class="node">
<title>z_arrow_13</title>
<g id="a_node13"><a xlink:href="javascript:s=&quot;\(&quot;&#x27;top_centre&#x27;,\ &quot;,\ &#x27;coords&#x27;,\ &#x27;z_arrow&#x27;\)\nArrow&quot;; console.log(s); alert(s);" xlink:title="Arrow">
<ellipse fill="none" stroke="black" cx="438.23" cy="-396" rx="40.09" ry="18"/>
<text text-anchor="middle" x="438.23" y="-392.3" font-family="Times New Roman,serif" font-size="14.00">z_arrow</text>
</a>
</g>
</g>
<!-- coords_5&#45;&gt;z_arrow_13 -->
<g id="edge12" class="edge">
<title>coords_5&#45;&gt;z_arrow_13</title>
<path fill="none" stroke="black" d="M334.93,-492.56C343.73,-488.28 353.27,-482.99 361.28,-477 382.77,-460.93 403.35,-438.38 417.65,-421.16"/>
<polygon fill="black" stroke="black" points="420.54,-423.14 424.14,-413.18 415.11,-418.72 420.54,-423.14"/>
</g>
<!-- stem_8 -->
<g id="node8" class="node">
<title>stem_8</title>
<g id="a_node8"><a xlink:href="javascript:s=&quot;\(&quot;&#x27;top_centre&#x27;,\ &quot;,\ &#x27;coords&#x27;,\ &#x27;x_arrow&#x27;,\ &#x27;stem&#x27;\)\nCone&quot;; console.log(s); alert(s);" xlink:title="Cone">
<ellipse fill="none" stroke="black" cx="543.12" cy="-612" rx="27.9" ry="18"/>
<text text-anchor="middle" x="543.12" y="-608.3" font-family="Times New Roman,serif" font-size="14.00">stem</text>
</a>
</g>
</g>
<!-- x_arrow_7&#45;&gt;stem_8 -->
<g id="edge7" class="edge">
<title>x_arrow_7&#45;&gt;stem_8</title>
<path fill="none" stroke="black" d="M465.19,-571.63C479.35,-579.06 496.96,-588.3 511.76,-596.07"/>
<polygon fill="black" stroke="black" points="510.53,-599.37 521.01,-600.92 513.78,-593.18 510.53,-599.37"/>
</g>
<!-- head_9 -->
<g id="node9" class="node">
<title>head_9</title>
<g id="a_node9"><a xlink:href="javascript:s=&quot;\(&quot;&#x27;top_centre&#x27;,\ &quot;,\ &#x27;coords&#x27;,\ &#x27;x_arrow&#x27;,\ &#x27;head&#x27;\)\nCone&quot;; console.log(s); alert(s);" xlink:title="Cone">
<ellipse fill="none" stroke="black" cx="543.12" cy="-558" rx="27.9" ry="18"/>
<text text-anchor="middle" x="543.12" y="-554.3" font-family="Times New Roman,serif" font-size="14.00">head</text>
</a>
</g>
</g>
<!-- x_arrow_7&#45;&gt;head_9 -->
<g id="edge8" class="edge">
<title>x_arrow_7&#45;&gt;head_9</title>
<path fill="none" stroke="black" d="M479.3,-558C487.71,-558 496.55,-558 504.85,-558"/>
<polygon fill="black" stroke="black" points="505.01,-561.5 515.01,-558 505.01,-554.5 505.01,-561.5"/>
</g>
<!-- stem_11 -->
<g id="node11" class="node">
<title>stem_11</title>
<g id="a_node11"><a xlink:href="javascript:s=&quot;\(&quot;&#x27;top_centre&#x27;,\ &quot;,\ &#x27;coords&#x27;,\ &#x27;y_arrow&#x27;,\ &#x27;stem&#x27;\)\nCone&quot;; console.log(s); alert(s);" xlink:title="Cone">
<ellipse fill="none" stroke="black" cx="543.12" cy="-504" rx="27.9" ry="18"/>
<text text-anchor="middle" x="543.12" y="-500.3" font-family="Times New Roman,serif" font-size="14.00">stem</text>
</a>
</g>
</g>
<!-- y_arrow_10&#45;&gt;stem_11 -->
<g id="edge10" class="edge">
<title>y_arrow_10&#45;&gt;stem_11</title>
<path fill="none" stroke="black" d="M479.3,-504C487.71,-504 496.55,-504 504.85,-504"/>
<polygon fill="black" stroke="black" points="505.01,-507.5 515.01,-504 505.01,-500.5 505.01,-507.5"/>
</g>
<!-- head_12 -->
<g id="node12" class="node">
<title>head_12</title>
<g id="a_node12"><a xlink:href="javascript:s=&quot;\(&quot;&#x27;top_centre&#x27;,\ &quot;,\ &#x27;coords&#x27;,\ &#x27;y_arrow&#x27;,\ &#x27;head&#x27;\)\nCone&quot;; console.log(s); alert(s);" xlink:title="Cone">
<ellipse fill="none" stroke="black" cx="543.12" cy="-450" rx="27.9" ry="18"/>
<text text-anchor="middle" x="543.12" y="-446.3" font-family="Times New Roman,serif" font-size="14.00">head</text>
</a>
</g>
</g>
<!-- y_arrow_10&#45;&gt;head_12 -->
<g id="edge11" class="edge">
<title>y_arrow_10&#45;&gt;head_12</title>
<path fill="none" stroke="black" d="M465.19,-490.37C479.35,-482.94 496.96,-473.7 511.76,-465.93"/>
<polygon fill="black" stroke="black" points="513.78,-468.82 521.01,-461.08 510.53,-462.63 513.78,-468.82"/>
</g>
<!-- stem_14 -->
<g id="node14" class="node">
<title>stem_14</title>
<g id="a_node14"><a xlink:href="javascript:s=&quot;\(&quot;&#x27;top_centre&#x27;,\ &quot;,\ &#x27;coords&#x27;,\ &#x27;z_arrow&#x27;,\ &#x27;stem&#x27;\)\nCone&quot;; console.log(s); alert(s);" xlink:title="Cone">
<ellipse fill="none" stroke="black" cx="543.12" cy="-396" rx="27.9" ry="18"/>
<text text-anchor="middle" x="543.12" y="-392.3" font-family="Times New Roman,serif" font-size="14.00">stem</text>
</a>
</g>
</g>
<!-- z_arrow_13&#45;&gt;stem_14 -->
<g id="edge13" class="edge">
<title>z_arrow_13&#45;&gt;stem_14</title>
<path fill="none" stroke="black" d="M478.71,-396C487.33,-396 496.43,-396 504.96,-396"/>
<polygon fill="black" stroke="black" points="505.01,-399.5 515.01,-396 505.01,-392.5 505.01,-399.5"/>
</g>
<!-- head_15 -->
<g id="node15" class="node">
<title>head_15</title>
<g id="a_node15"><a xlink:href="javascript:s=&quot;\(&quot;&#x27;top_centre&#x27;,\ &quot;,\ &#x27;coords&#x27;,\ &#x27;z_arrow&#x27;,\ &#x27;head&#x27;\)\nCone&quot;; console.log(s); alert(s);" xlink:title="Cone">
<ellipse fill="none" stroke="black" cx="543.12" cy="-342" rx="27.9" ry="18"/>
<text text-anchor="middle" x="543.12" y="-338.3" font-family="Times New Roman,serif" font-size="14.00">head</text>
</a>
</g>
</g>
<!-- z_arrow_13&#45;&gt;head_15 -->
<g id="edge14" class="edge">
<title>z_arrow_13&#45;&gt;head_15</title>
<path fill="none" stroke="black" d="M464.92,-382.51C479.22,-375.01 497.09,-365.63 512.03,-357.79"/>
<polygon fill="black" stroke="black" points="513.67,-360.88 520.9,-353.14 510.42,-354.68 513.67,-360.88"/>
</g>
<!-- coords_21 -->
<g id="node21" class="node">
<title>coords_21</title>
<g id="a_node21"><a xlink:href="javascript:s=&quot;\(&quot;&#x27;base_centre&#x27;,\ &quot;,\ &#x27;coords&#x27;\)\nCoordinates&quot;; console.log(s); alert(s);" xlink:title="Coordinates">
<ellipse fill="none" stroke="black" cx="306.68" cy="-234" rx="36.29" ry="18"/>
<text text-anchor="middle" x="306.68" y="-230.3" font-family="Times New Roman,serif" font-size="14.00">coords</text>
</a>
</g>
</g>
<!-- 20&#45;&gt;coords_21 -->
<g id="edge20" class="edge">
<title>20&#45;&gt;coords_21</title>
<path fill="none" stroke="black" d="M182.64,-169.11C202.11,-179.99 228.54,-194.59 252.09,-207 258.22,-210.23 264.78,-213.61 271.14,-216.83"/>
<polygon fill="black" stroke="black" points="269.73,-220.04 280.23,-221.42 272.88,-213.79 269.73,-220.04"/>
</g>
<!-- x_32 -->
<g id="node32" class="node">
<title>x_32</title>
<g id="a_node32"><a xlink:href="javascript:s=&quot;\(&quot;&#x27;base_centre&#x27;,\ &quot;,\ &#x27;x&#x27;\)\nText&quot;; console.log(s); alert(s);" xlink:title="Text">
<ellipse fill="none" stroke="black" cx="306.68" cy="-180" rx="27" ry="18"/>
<text text-anchor="middle" x="306.68" y="-176.3" font-family="Times New Roman,serif" font-size="14.00">x</text>
</a>
</g>
</g>
<!-- 20&#45;&gt;x_32 -->
<g id="edge31" class="edge">
<title>20&#45;&gt;x_32</title>
<path fill="none" stroke="black" d="M207.08,-162.44C228.12,-166.19 251.75,-170.4 270.59,-173.75"/>
<polygon fill="black" stroke="black" points="270.07,-177.21 280.53,-175.52 271.3,-170.32 270.07,-177.21"/>
</g>
<!-- y_33 -->
<g id="node33" class="node">
<title>y_33</title>
<g id="a_node33"><a xlink:href="javascript:s=&quot;\(&quot;&#x27;base_centre&#x27;,\ &quot;,\ &#x27;y&#x27;\)\nText&quot;; console.log(s); alert(s);" xlink:title="Text">
<ellipse fill="none" stroke="black" cx="306.68" cy="-126" rx="27" ry="18"/>
<text text-anchor="middle" x="306.68" y="-122.3" font-family="Times New Roman,serif" font-size="14.00">y</text>
</a>
</g>
</g>
<!-- 20&#45;&gt;y_33 -->
<g id="edge32" class="edge">
<title>20&#45;&gt;y_33</title>
<path fill="none" stroke="black" d="M207.08,-143.56C228.12,-139.81 251.75,-135.6 270.59,-132.25"/>
<polygon fill="black" stroke="black" points="271.3,-135.68 280.53,-130.48 270.07,-128.79 271.3,-135.68"/>
</g>
<!-- z_34 -->
<g id="node34" class="node">
<title>z_34</title>
<g id="a_node34"><a xlink:href="javascript:s=&quot;\(&quot;&#x27;base_centre&#x27;,\ &quot;,\ &#x27;z&#x27;\)\nText&quot;; console.log(s); alert(s);" xlink:title="Text">
<ellipse fill="none" stroke="black" cx="306.68" cy="-72" rx="27" ry="18"/>
<text text-anchor="middle" x="306.68" y="-68.3" font-family="Times New Roman,serif" font-size="14.00">z</text>
</a>
</g>
</g>
<!-- 20&#45;&gt;z_34 -->
<g id="edge33" class="edge">
<title>20&#45;&gt;z_34</title>
<path fill="none" stroke="black" d="M182.64,-136.89C202.11,-126.01 228.54,-111.41 252.09,-99 259.62,-95.03 267.81,-90.84 275.47,-86.98"/>
<polygon fill="black" stroke="black" points="277.1,-90.08 284.46,-82.47 273.96,-83.82 277.1,-90.08"/>
</g>
<!-- label_35 -->
<g id="node35" class="node">
<title>label_35</title>
<g id="a_node35"><a xlink:href="javascript:s=&quot;\(&quot;&#x27;base_centre&#x27;,\ &quot;,\ &#x27;label&#x27;\)\nText&quot;; console.log(s); alert(s);" xlink:title="Text">
<ellipse fill="none" stroke="black" cx="306.68" cy="-18" rx="27.1" ry="18"/>
<text text-anchor="middle" x="306.68" y="-14.3" font-family="Times New Roman,serif" font-size="14.00">label</text>
</a>
</g>
</g>
<!-- 20&#45;&gt;label_35 -->
<g id="edge34" class="edge">
<title>20&#45;&gt;label_35</title>
<path fill="none" stroke="black" d="M166.98,-135.07C184.33,-111.98 217.02,-71.67 252.09,-45 258.68,-39.99 266.34,-35.49 273.77,-31.66"/>
<polygon fill="black" stroke="black" points="275.51,-34.71 282.97,-27.19 272.45,-28.42 275.51,-34.71"/>
</g>
<!-- origin_22 -->
<g id="node22" class="node">
<title>origin_22</title>
<g id="a_node22"><a xlink:href="javascript:s=&quot;\(&quot;&#x27;base_centre&#x27;,\ &quot;,\ &#x27;coords&#x27;,\ &#x27;origin&#x27;\)\nCoordinatesCage&quot;; console.log(s); alert(s);" xlink:title="CoordinatesCage">
<ellipse fill="none" stroke="black" cx="438.23" cy="-288" rx="31.4" ry="18"/>
<text text-anchor="middle" x="438.23" y="-284.3" font-family="Times New Roman,serif" font-size="14.00">origin</text>
</a>
</g>
</g>
<!-- coords_21&#45;&gt;origin_22 -->
<g id="edge21" class="edge">
<title>coords_21&#45;&gt;origin_22</title>
<path fill="none" stroke="black" d="M335.16,-245.45C354.99,-253.72 381.91,-264.94 403.12,-273.78"/>
<polygon fill="black" stroke="black" points="401.84,-277.04 412.42,-277.66 404.54,-270.58 401.84,-277.04"/>
</g>
<!-- x_arrow_23 -->
<g id="node23" class="node">
<title>x_arrow_23</title>
<g id="a_node23"><a xlink:href="javascript:s=&quot;\(&quot;&#x27;base_centre&#x27;,\ &quot;,\ &#x27;coords&#x27;,\ &#x27;x_arrow&#x27;\)\nArrow&quot;; console.log(s); alert(s);" xlink:title="Arrow">
<ellipse fill="none" stroke="black" cx="438.23" cy="-234" rx="40.89" ry="18"/>
<text text-anchor="middle" x="438.23" y="-230.3" font-family="Times New Roman,serif" font-size="14.00">x_arrow</text>
</a>
</g>
</g>
<!-- coords_21&#45;&gt;x_arrow_23 -->
<g id="edge22" class="edge">
<title>coords_21&#45;&gt;x_arrow_23</title>
<path fill="none" stroke="black" d="M343.08,-234C356.46,-234 371.97,-234 386.49,-234"/>
<polygon fill="black" stroke="black" points="386.84,-237.5 396.84,-234 386.84,-230.5 386.84,-237.5"/>
</g>
<!-- y_arrow_26 -->
<g id="node26" class="node">
<title>y_arrow_26</title>
<g id="a_node26"><a xlink:href="javascript:s=&quot;\(&quot;&#x27;base_centre&#x27;,\ &quot;,\ &#x27;coords&#x27;,\ &#x27;y_arrow&#x27;\)\nArrow&quot;; console.log(s); alert(s);" xlink:title="Arrow">
<ellipse fill="none" stroke="black" cx="438.23" cy="-180" rx="40.89" ry="18"/>
<text text-anchor="middle" x="438.23" y="-176.3" font-family="Times New Roman,serif" font-size="14.00">y_arrow</text>
</a>
</g>
</g>
<!-- coords_21&#45;&gt;y_arrow_26 -->
<g id="edge25" class="edge">
<title>coords_21&#45;&gt;y_arrow_26</title>
<path fill="none" stroke="black" d="M335.16,-222.55C353.62,-214.85 378.22,-204.6 398.64,-196.08"/>
<polygon fill="black" stroke="black" points="400.11,-199.26 407.99,-192.19 397.42,-192.8 400.11,-199.26"/>
</g>
<!-- z_arrow_29 -->
<g id="node29" class="node">
<title>z_arrow_29</title>
<g id="a_node29"><a xlink:href="javascript:s=&quot;\(&quot;&#x27;base_centre&#x27;,\ &quot;,\ &#x27;coords&#x27;,\ &#x27;z_arrow&#x27;\)\nArrow&quot;; console.log(s); alert(s);" xlink:title="Arrow">
<ellipse fill="none" stroke="black" cx="438.23" cy="-72" rx="40.09" ry="18"/>
<text text-anchor="middle" x="438.23" y="-68.3" font-family="Times New Roman,serif" font-size="14.00">z_arrow</text>
</a>
</g>
</g>
<!-- coords_21&#45;&gt;z_arrow_29 -->
<g id="edge28" class="edge">
<title>coords_21&#45;&gt;z_arrow_29</title>
<path fill="none" stroke="black" d="M336.4,-223.37C345.09,-219.2 354.2,-213.76 361.28,-207 378.34,-190.7 407.7,-133.3 424.48,-98.82"/>
<polygon fill="black" stroke="black" points="427.66,-100.28 428.86,-89.75 421.36,-97.23 427.66,-100.28"/>
</g>
<!-- stem_24 -->
<g id="node24" class="node">
<title>stem_24</title>
<g id="a_node24"><a xlink:href="javascript:s=&quot;\(&quot;&#x27;base_centre&#x27;,\ &quot;,\ &#x27;coords&#x27;,\ &#x27;x_arrow&#x27;,\ &#x27;stem&#x27;\)\nCone&quot;; console.log(s); alert(s);" xlink:title="Cone">
<ellipse fill="none" stroke="black" cx="543.12" cy="-288" rx="27.9" ry="18"/>
<text text-anchor="middle" x="543.12" y="-284.3" font-family="Times New Roman,serif" font-size="14.00">stem</text>
</a>
</g>
</g>
<!-- x_arrow_23&#45;&gt;stem_24 -->
<g id="edge23" class="edge">
<title>x_arrow_23&#45;&gt;stem_24</title>
<path fill="none" stroke="black" d="M465.19,-247.63C479.35,-255.06 496.96,-264.3 511.76,-272.07"/>
<polygon fill="black" stroke="black" points="510.53,-275.37 521.01,-276.92 513.78,-269.18 510.53,-275.37"/>
</g>
<!-- head_25 -->
<g id="node25" class="node">
<title>head_25</title>
<g id="a_node25"><a xlink:href="javascript:s=&quot;\(&quot;&#x27;base_centre&#x27;,\ &quot;,\ &#x27;coords&#x27;,\ &#x27;x_arrow&#x27;,\ &#x27;head&#x27;\)\nCone&quot;; console.log(s); alert(s);" xlink:title="Cone">
<ellipse fill="none" stroke="black" cx="543.12" cy="-234" rx="27.9" ry="18"/>
<text text-anchor="middle" x="543.12" y="-230.3" font-family="Times New Roman,serif" font-size="14.00">head</text>
</a>
</g>
</g>
<!-- x_arrow_23&#45;&gt;head_25 -->
<g id="edge24" class="edge">
<title>x_arrow_23&#45;&gt;head_25</title>
<path fill="none" stroke="black" d="M479.3,-234C487.71,-234 496.55,-234 504.85,-234"/>
<polygon fill="black" stroke="black" points="505.01,-237.5 515.01,-234 505.01,-230.5 505.01,-237.5"/>
</g>
<!-- stem_27 -->
<g id="node27" class="node">
<title>stem_27</title>
<g id="a_node27"><a xlink:href="javascript:s=&quot;\(&quot;&#x27;base_centre&#x27;,\ &quot;,\ &#x27;coords&#x27;,\ &#x27;y_arrow&#x27;,\ &#x27;stem&#x27;\)\nCone&quot;; console.log(s); alert(s);" xlink:title="Cone">
<ellipse fill="none" stroke="black" cx="543.12" cy="-180" rx="27.9" ry="18"/>
<text text-anchor="middle" x="543.12" y="-176.3" font-family="Times New Roman,serif" font-size="14.00">stem</text>
</a>
</g>
</g>
<!-- y_arrow_26&#45;&gt;stem_27 -->
<g id="edge26" class="edge">
<title>y_arrow_26&#45;&gt;stem_27</title>
<path fill="none" stroke="black" d="M479.3,-180C487.71,-180 496.55,-180 504.85,-180"/>
<polygon fill="black" stroke="black" points="505.01,-183.5 515.01,-180 505.01,-176.5 505.01,-183.5"/>
</g>
<!-- head_28 -->
<g id="node28" class="node">
<title>head_28</title>
<g id="a_node28"><a xlink:href="javascript:s=&quot;\(&quot;&#x27;base_centre&#x27;,\ &quot;,\ &#x27;coords&#x27;,\ &#x27;y_arrow&#x27;,\ &#x27;head&#x27;\)\nCone&quot;; console.log(s); alert(s);" xlink:title="Cone">
<ellipse fill="none" stroke="black" cx="543.12" cy="-126" rx="27.9" ry="18"/>
<text text-anchor="middle" x="543.12" y="-122.3" font-family="Times New Roman,serif" font-size="14.00">head</text>
</a>
</g>
</g>
<!-- y_arrow_26&#45;&gt;head_28 -->
<g id="edge27" class="edge">
<title>y_arrow_26&#45;&gt;head_28</title>
<path fill="none" stroke="black" d="M465.19,-166.37C479.35,-158.94 496.96,-149.7 511.76,-141.93"/>
<polygon fill="black" stroke="black" points="513.78,-144.82 521.01,-137.08 510.53,-138.63 513.78,-144.82"/>
</g>
<!-- stem_30 -->
<g id="node30" class="node">
<title>stem_30</title>
<g id="a_node30"><a xlink:href="javascript:s=&quot;\(&quot;&#x27;base_centre&#x27;,\ &quot;,\ &#x27;coords&#x27;,\ &#x27;z_arrow&#x27;,\ &#x27;stem&#x27;\)\nCone&quot;; console.log(s); alert(s);" xlink:title="Cone">
<ellipse fill="none" stroke="black" cx="543.12" cy="-72" rx="27.9" ry="18"/>
<text text-anchor="middle" x="543.12" y="-68.3" font-family="Times New Roman,serif" font-size="14.00">stem</text>
</a>
</g>
</g>
<!-- z_arrow_29&#45;&gt;stem_30 -->
<g id="edge29" class="edge">
<title>z_arrow_29&#45;&gt;stem_30</title>
<path fill="none" stroke="black" d="M478.71,-72C487.33,-72 496.43,-72 504.96,-72"/>
<polygon fill="black" stroke="black" points="505.01,-75.5 515.01,-72 505.01,-68.5 505.01,-75.5"/>
</g>
<!-- head_31 -->
<g id="node31" class="node">
<title>head_31</title>
<g id="a_node31"><a xlink:href="javascript:s=&quot;\(&quot;&#x27;base_centre&#x27;,\ &quot;,\ &#x27;coords&#x27;,\ &#x27;z_arrow&#x27;,\ &#x27;head&#x27;\)\nCone&quot;; console.log(s); alert(s);" xlink:title="Cone">
<ellipse fill="none" stroke="black" cx="543.12" cy="-18" rx="27.9" ry="18"/>
<text text-anchor="middle" x="543.12" y="-14.3" font-family="Times New Roman,serif" font-size="14.00">head</text>
</a>
</g>
</g>
<!-- z_arrow_29&#45;&gt;head_31 -->
<g id="edge30" class="edge">
<title>z_arrow_29&#45;&gt;head_31</title>
<path fill="none" stroke="black" d="M464.92,-58.51C479.22,-51.01 497.09,-41.63 512.03,-33.79"/>
<polygon fill="black" stroke="black" points="513.67,-36.88 520.9,-29.14 510.42,-30.68 513.67,-36.88"/>
</g>
</g>
</svg>
