<?xml version="1.0" encoding="UTF-8" standalone="no"?>
<!DOCTYPE svg PUBLIC "-//W3C//DTD SVG 1.1//EN"
 "http://www.w3.org/Graphics/SVG/1.1/DTD/svg11.dtd">
<!-- Generated by graphviz version 5.0.0 (20220707.1540)
 -->
<!-- Title: default Pages: 1 -->
<svg width="784pt" height="638pt"
 viewBox="0.00 0.00 784.05 638.00" xmlns="http://www.w3.org/2000/svg" xmlns:xlink="http://www.w3.org/1999/xlink">
<g id="graph0" class="graph" transform="scale(1 1) rotate(0) translate(4 634)">
<title>default</title>
<polygon fill="white" stroke="transparent" points="-4,4 -4,-634 780.05,-634 780.05,4 -4,4"/>
<!-- root_272 -->
<g id="node1" class="node">
<title>root_272</title>
<g id="a_node1"><a xlink:href="javascript:s=&quot;\(\)\nNone&quot;; console.log(s); alert(s);" xlink:title="root">
<ellipse fill="none" stroke="black" cx="27" cy="-153" rx="27" ry="18"/>
<text text-anchor="middle" x="27" y="-149.3" font-family="Times New Roman,serif" font-size="14.00">root</text>
</a>
</g>
</g>
<!-- default_273 -->
<g id="node2" class="node">
<title>default_273</title>
<g id="a_node2"><a xlink:href="javascript:s=&quot;\(&#x27;default&#x27;,\)\nTactileEvqHoleTest&quot;; console.log(s); alert(s);" xlink:title="TactileEvqHoleTest">
<ellipse fill="none" stroke="black" cx="125.1" cy="-153" rx="35.19" ry="18"/>
<text text-anchor="middle" x="125.1" y="-149.3" font-family="Times New Roman,serif" font-size="14.00">default</text>
</a>
</g>
</g>
<!-- root_272&#45;&gt;default_273 -->
<g id="edge1" class="edge">
<title>root_272&#45;&gt;default_273</title>
<path fill="none" stroke="black" d="M54.01,-153C61.92,-153 70.84,-153 79.61,-153"/>
<polygon fill="black" stroke="black" points="79.76,-156.5 89.76,-153 79.76,-149.5 79.76,-156.5"/>
</g>
<!-- test_plate_274 -->
<g id="node3" class="node">
<title>test_plate_274</title>
<g id="a_node3"><a xlink:href="javascript:s=&quot;\(&#x27;default&#x27;,\ &#x27;test_plate&#x27;\)\nBox&quot;; console.log(s); alert(s);" xlink:title="Box">
<ellipse fill="none" stroke="black" cx="241.69" cy="-180" rx="45.49" ry="18"/>
<text text-anchor="middle" x="241.69" y="-176.3" font-family="Times New Roman,serif" font-size="14.00">test_plate</text>
</a>
</g>
</g>
<!-- default_273&#45;&gt;test_plate_274 -->
<g id="edge2" class="edge">
<title>default_273&#45;&gt;test_plate_274</title>
<path fill="none" stroke="black" d="M157.41,-160.38C168.18,-162.92 180.5,-165.82 192.3,-168.6"/>
<polygon fill="black" stroke="black" points="191.52,-172.01 202.05,-170.9 193.12,-165.2 191.52,-172.01"/>
</g>
<!-- evq_hole_275 -->
<g id="node4" class="node">
<title>evq_hole_275</title>
<g id="a_node4"><a xlink:href="javascript:s=&quot;\(&#x27;default&#x27;,\ &#x27;evq_hole&#x27;\)\nTactileEvqHole&quot;; console.log(s); alert(s);" xlink:title="TactileEvqHole">
<ellipse fill="none" stroke="black" cx="241.69" cy="-126" rx="44.39" ry="18"/>
<text text-anchor="middle" x="241.69" y="-122.3" font-family="Times New Roman,serif" font-size="14.00">evq_hole</text>
</a>
</g>
</g>
<!-- default_273&#45;&gt;evq_hole_275 -->
<g id="edge3" class="edge">
<title>default_273&#45;&gt;evq_hole_275</title>
<path fill="none" stroke="black" d="M157.41,-145.62C168.39,-143.04 180.97,-140.07 192.99,-137.24"/>
<polygon fill="black" stroke="black" points="193.96,-140.61 202.89,-134.91 192.35,-133.79 193.96,-140.61"/>
</g>
<!-- evq_276 -->
<g id="node5" class="node">
<title>evq_276</title>
<g id="a_node5"><a xlink:href="javascript:s=&quot;\(&#x27;default&#x27;,\ &#x27;evq_hole&#x27;,\ &#x27;evq&#x27;\)\nTactileEvq&quot;; console.log(s); alert(s);" xlink:title="TactileEvq">
<ellipse fill="none" stroke="black" cx="401.18" cy="-234" rx="27" ry="18"/>
<text text-anchor="middle" x="401.18" y="-230.3" font-family="Times New Roman,serif" font-size="14.00">evq</text>
</a>
</g>
</g>
<!-- evq_hole_275&#45;&gt;evq_276 -->
<g id="edge4" class="edge">
<title>evq_hole_275&#45;&gt;evq_276</title>
<path fill="none" stroke="black" d="M269.93,-139.94C275.98,-143.71 282.1,-148.12 287.19,-153 308.01,-172.96 300.4,-189.31 323.19,-207 335.34,-216.43 351.04,-222.72 365.1,-226.84"/>
<polygon fill="black" stroke="black" points="364.4,-230.27 374.96,-229.46 366.2,-223.51 364.4,-230.27"/>
</g>
<!-- terminal_hole_296 -->
<g id="node25" class="node">
<title>terminal_hole_296</title>
<g id="a_node25"><a xlink:href="javascript:s=&quot;\(&#x27;default&#x27;,\ &#x27;evq_hole&#x27;,\ \(&#x27;terminal_hole&#x27;,\ 0\)\)\nCylinder&quot;; console.log(s); alert(s);" xlink:title="Cylinder">
<ellipse fill="none" stroke="black" cx="401.18" cy="-180" rx="77.99" ry="18"/>
<text text-anchor="middle" x="401.18" y="-176.3" font-family="Times New Roman,serif" font-size="14.00">(&#39;terminal_hole&#39;, 0)</text>
</a>
</g>
</g>
<!-- evq_hole_275&#45;&gt;terminal_hole_296 -->
<g id="edge24" class="edge">
<title>evq_hole_275&#45;&gt;terminal_hole_296</title>
<path fill="none" stroke="black" d="M276.09,-137.45C296.8,-144.55 323.86,-153.83 347.43,-161.91"/>
<polygon fill="black" stroke="black" points="346.35,-165.24 356.94,-165.18 348.62,-158.62 346.35,-165.24"/>
</g>
<!-- terminal_hole_297 -->
<g id="node26" class="node">
<title>terminal_hole_297</title>
<g id="a_node26"><a xlink:href="javascript:s=&quot;\(&#x27;default&#x27;,\ &#x27;evq_hole&#x27;,\ \(&#x27;terminal_hole&#x27;,\ 1\)\)\nCylinder&quot;; console.log(s); alert(s);" xlink:title="Cylinder">
<ellipse fill="none" stroke="black" cx="401.18" cy="-126" rx="77.99" ry="18"/>
<text text-anchor="middle" x="401.18" y="-122.3" font-family="Times New Roman,serif" font-size="14.00">(&#39;terminal_hole&#39;, 1)</text>
</a>
</g>
</g>
<!-- evq_hole_275&#45;&gt;terminal_hole_297 -->
<g id="edge25" class="edge">
<title>evq_hole_275&#45;&gt;terminal_hole_297</title>
<path fill="none" stroke="black" d="M286.14,-126C294.57,-126 303.67,-126 312.93,-126"/>
<polygon fill="black" stroke="black" points="313.02,-129.5 323.02,-126 313.02,-122.5 313.02,-129.5"/>
</g>
<!-- terminal_hole_298 -->
<g id="node27" class="node">
<title>terminal_hole_298</title>
<g id="a_node27"><a xlink:href="javascript:s=&quot;\(&#x27;default&#x27;,\ &#x27;evq_hole&#x27;,\ \(&#x27;terminal_hole&#x27;,\ 2\)\)\nCylinder&quot;; console.log(s); alert(s);" xlink:title="Cylinder">
<ellipse fill="none" stroke="black" cx="401.18" cy="-72" rx="77.99" ry="18"/>
<text text-anchor="middle" x="401.18" y="-68.3" font-family="Times New Roman,serif" font-size="14.00">(&#39;terminal_hole&#39;, 2)</text>
</a>
</g>
</g>
<!-- evq_hole_275&#45;&gt;terminal_hole_298 -->
<g id="edge26" class="edge">
<title>evq_hole_275&#45;&gt;terminal_hole_298</title>
<path fill="none" stroke="black" d="M276.09,-114.55C296.8,-107.45 323.86,-98.17 347.43,-90.09"/>
<polygon fill="black" stroke="black" points="348.62,-93.38 356.94,-86.82 346.35,-86.76 348.62,-93.38"/>
</g>
<!-- terminal_hole_299 -->
<g id="node28" class="node">
<title>terminal_hole_299</title>
<g id="a_node28"><a xlink:href="javascript:s=&quot;\(&#x27;default&#x27;,\ &#x27;evq_hole&#x27;,\ \(&#x27;terminal_hole&#x27;,\ 3\)\)\nCylinder&quot;; console.log(s); alert(s);" xlink:title="Cylinder">
<ellipse fill="none" stroke="black" cx="401.18" cy="-18" rx="77.99" ry="18"/>
<text text-anchor="middle" x="401.18" y="-14.3" font-family="Times New Roman,serif" font-size="14.00">(&#39;terminal_hole&#39;, 3)</text>
</a>
</g>
</g>
<!-- evq_hole_275&#45;&gt;terminal_hole_299 -->
<g id="edge27" class="edge">
<title>evq_hole_275&#45;&gt;terminal_hole_299</title>
<path fill="none" stroke="black" d="M255.75,-108.86C270.39,-90.71 295.69,-62.35 323.19,-45 328.61,-41.58 334.52,-38.52 340.59,-35.81"/>
<polygon fill="black" stroke="black" points="342.29,-38.89 350.18,-31.82 339.6,-32.43 342.29,-38.89"/>
</g>
<!-- post_277 -->
<g id="node6" class="node">
<title>post_277</title>
<g id="a_node6"><a xlink:href="javascript:s=&quot;\(&#x27;default&#x27;,\ &#x27;evq_hole&#x27;,\ &#x27;evq&#x27;,\ &#x27;post&#x27;\)\nPostOutline&quot;; console.log(s); alert(s);" xlink:title="PostOutline">
<ellipse fill="none" stroke="black" cx="573.02" cy="-504" rx="27" ry="18"/>
<text text-anchor="middle" x="573.02" y="-500.3" font-family="Times New Roman,serif" font-size="14.00">post</text>
</a>
</g>
</g>
<!-- evq_276&#45;&gt;post_277 -->
<g id="edge5" class="edge">
<title>evq_276&#45;&gt;post_277</title>
<path fill="none" stroke="black" d="M412.55,-250.48C441.21,-296.05 521.66,-423.95 556.08,-478.66"/>
<polygon fill="black" stroke="black" points="553.28,-480.79 561.57,-487.39 559.21,-477.06 553.28,-480.79"/>
</g>
<!-- plunger_282 -->
<g id="node11" class="node">
<title>plunger_282</title>
<g id="a_node11"><a xlink:href="javascript:s=&quot;\(&#x27;default&#x27;,\ &#x27;evq_hole&#x27;,\ &#x27;evq&#x27;,\ &#x27;plunger&#x27;\)\nPlunger&quot;; console.log(s); alert(s);" xlink:title="Plunger">
<ellipse fill="none" stroke="black" cx="573.02" cy="-369" rx="37.89" ry="18"/>
<text text-anchor="middle" x="573.02" y="-365.3" font-family="Times New Roman,serif" font-size="14.00">plunger</text>
</a>
</g>
</g>
<!-- evq_276&#45;&gt;plunger_282 -->
<g id="edge10" class="edge">
<title>evq_276&#45;&gt;plunger_282</title>
<path fill="none" stroke="black" d="M415.51,-249.58C435.42,-272.16 474.94,-314.29 515.17,-342 521.04,-346.04 527.6,-349.77 534.12,-353.09"/>
<polygon fill="black" stroke="black" points="533.04,-356.46 543.57,-357.65 536.09,-350.15 533.04,-356.46"/>
</g>
<!-- centre_plate_285 -->
<g id="node14" class="node">
<title>centre_plate_285</title>
<g id="a_node14"><a xlink:href="javascript:s=&quot;\(&#x27;default&#x27;,\ &#x27;evq_hole&#x27;,\ &#x27;evq&#x27;,\ &#x27;centre_plate&#x27;\)\nCentrePlate&quot;; console.log(s); alert(s);" xlink:title="CentrePlate">
<ellipse fill="none" stroke="black" cx="573.02" cy="-315" rx="54.69" ry="18"/>
<text text-anchor="middle" x="573.02" y="-311.3" font-family="Times New Roman,serif" font-size="14.00">centre_plate</text>
</a>
</g>
</g>
<!-- evq_276&#45;&gt;centre_plate_285 -->
<g id="edge13" class="edge">
<title>evq_276&#45;&gt;centre_plate_285</title>
<path fill="none" stroke="black" d="M423.83,-244.37C446.57,-255.25 483.37,-272.85 515.17,-288 520.54,-290.56 526.2,-293.25 531.78,-295.9"/>
<polygon fill="black" stroke="black" points="530.5,-299.17 541.03,-300.3 533.5,-292.85 530.5,-299.17"/>
</g>
<!-- base_plate_287 -->
<g id="node16" class="node">
<title>base_plate_287</title>
<g id="a_node16"><a xlink:href="javascript:s=&quot;\(&#x27;default&#x27;,\ &#x27;evq_hole&#x27;,\ &#x27;evq&#x27;,\ &#x27;base_plate&#x27;\)\nBox&quot;; console.log(s); alert(s);" xlink:title="Box">
<ellipse fill="none" stroke="black" cx="573.02" cy="-261" rx="49.29" ry="18"/>
<text text-anchor="middle" x="573.02" y="-257.3" font-family="Times New Roman,serif" font-size="14.00">base_plate</text>
</a>
</g>
</g>
<!-- evq_276&#45;&gt;base_plate_287 -->
<g id="edge15" class="edge">
<title>evq_276&#45;&gt;base_plate_287</title>
<path fill="none" stroke="black" d="M427.61,-238.04C451.3,-241.81 487.41,-247.55 517.6,-252.35"/>
<polygon fill="black" stroke="black" points="517.15,-255.82 527.58,-253.94 518.25,-248.91 517.15,-255.82"/>
</g>
<!-- terminal_288 -->
<g id="node17" class="node">
<title>terminal_288</title>
<g id="a_node17"><a xlink:href="javascript:s=&quot;\(&#x27;default&#x27;,\ &#x27;evq_hole&#x27;,\ &#x27;evq&#x27;,\ \(&#x27;terminal&#x27;,\ 0\)\)\nEvqTerminal&quot;; console.log(s); alert(s);" xlink:title="EvqTerminal">
<ellipse fill="none" stroke="black" cx="573.02" cy="-207" rx="57.69" ry="18"/>
<text text-anchor="middle" x="573.02" y="-203.3" font-family="Times New Roman,serif" font-size="14.00">(&#39;terminal&#39;, 0)</text>
</a>
</g>
</g>
<!-- evq_276&#45;&gt;terminal_288 -->
<g id="edge16" class="edge">
<title>evq_276&#45;&gt;terminal_288</title>
<path fill="none" stroke="black" d="M427.61,-229.96C449.62,-226.46 482.37,-221.25 511.11,-216.68"/>
<polygon fill="black" stroke="black" points="511.76,-220.12 521.09,-215.1 510.66,-213.21 511.76,-220.12"/>
</g>
<!-- terminal_290 -->
<g id="node19" class="node">
<title>terminal_290</title>
<g id="a_node19"><a xlink:href="javascript:s=&quot;\(&#x27;default&#x27;,\ &#x27;evq_hole&#x27;,\ &#x27;evq&#x27;,\ \(&#x27;terminal&#x27;,\ 1\)\)\nEvqTerminal&quot;; console.log(s); alert(s);" xlink:title="EvqTerminal">
<ellipse fill="none" stroke="black" cx="573.02" cy="-153" rx="57.69" ry="18"/>
<text text-anchor="middle" x="573.02" y="-149.3" font-family="Times New Roman,serif" font-size="14.00">(&#39;terminal&#39;, 1)</text>
</a>
</g>
</g>
<!-- evq_276&#45;&gt;terminal_290 -->
<g id="edge18" class="edge">
<title>evq_276&#45;&gt;terminal_290</title>
<path fill="none" stroke="black" d="M426.56,-227.54C442.12,-222.92 462.43,-215.94 479.17,-207 496.81,-197.58 498.05,-190.34 515.17,-180 519.62,-177.31 524.37,-174.7 529.17,-172.21"/>
<polygon fill="black" stroke="black" points="530.98,-175.22 538.37,-167.62 527.86,-168.95 530.98,-175.22"/>
</g>
<!-- terminal_292 -->
<g id="node21" class="node">
<title>terminal_292</title>
<g id="a_node21"><a xlink:href="javascript:s=&quot;\(&#x27;default&#x27;,\ &#x27;evq_hole&#x27;,\ &#x27;evq&#x27;,\ \(&#x27;terminal&#x27;,\ 2\)\)\nEvqTerminal&quot;; console.log(s); alert(s);" xlink:title="EvqTerminal">
<ellipse fill="none" stroke="black" cx="573.02" cy="-99" rx="57.69" ry="18"/>
<text text-anchor="middle" x="573.02" y="-95.3" font-family="Times New Roman,serif" font-size="14.00">(&#39;terminal&#39;, 2)</text>
</a>
</g>
</g>
<!-- evq_276&#45;&gt;terminal_292 -->
<g id="edge20" class="edge">
<title>evq_276&#45;&gt;terminal_292</title>
<path fill="none" stroke="black" d="M427.74,-230.37C444.17,-226.86 465.01,-220.06 479.17,-207 508.13,-180.29 487.67,-154.21 515.17,-126 518.18,-122.92 521.6,-120.15 525.24,-117.66"/>
<polygon fill="black" stroke="black" points="527.28,-120.52 534.05,-112.38 523.68,-114.52 527.28,-120.52"/>
</g>
<!-- terminal_294 -->
<g id="node23" class="node">
<title>terminal_294</title>
<g id="a_node23"><a xlink:href="javascript:s=&quot;\(&#x27;default&#x27;,\ &#x27;evq_hole&#x27;,\ &#x27;evq&#x27;,\ \(&#x27;terminal&#x27;,\ 3\)\)\nEvqTerminal&quot;; console.log(s); alert(s);" xlink:title="EvqTerminal">
<ellipse fill="none" stroke="black" cx="573.02" cy="-45" rx="57.69" ry="18"/>
<text text-anchor="middle" x="573.02" y="-41.3" font-family="Times New Roman,serif" font-size="14.00">(&#39;terminal&#39;, 3)</text>
</a>
</g>
</g>
<!-- evq_276&#45;&gt;terminal_294 -->
<g id="edge22" class="edge">
<title>evq_276&#45;&gt;terminal_294</title>
<path fill="none" stroke="black" d="M428.07,-231.15C444.86,-227.97 465.99,-221.24 479.17,-207 521.37,-161.44 475.45,-119.73 515.17,-72 517.77,-68.88 520.81,-66.09 524.12,-63.61"/>
<polygon fill="black" stroke="black" points="526.24,-66.41 532.76,-58.06 522.46,-60.52 526.24,-66.41"/>
</g>
<!-- master_278 -->
<g id="node7" class="node">
<title>master_278</title>
<g id="a_node7"><a xlink:href="javascript:s=&quot;\(&#x27;default&#x27;,\ &#x27;evq_hole&#x27;,\ &#x27;evq&#x27;,\ &#x27;post&#x27;,\ &#x27;master&#x27;\)\nCylinder&quot;; console.log(s); alert(s);" xlink:title="Cylinder">
<ellipse fill="none" stroke="black" cx="721.46" cy="-612" rx="34.39" ry="18"/>
<text text-anchor="middle" x="721.46" y="-608.3" font-family="Times New Roman,serif" font-size="14.00">master</text>
</a>
</g>
</g>
<!-- post_277&#45;&gt;master_278 -->
<g id="edge6" class="edge">
<title>post_277&#45;&gt;master_278</title>
<path fill="none" stroke="black" d="M588.82,-519.02C606.37,-536.33 637.04,-564.95 666.86,-585 672.67,-588.91 679.12,-592.62 685.48,-595.98"/>
<polygon fill="black" stroke="black" points="684.14,-599.22 694.64,-600.62 687.3,-592.98 684.14,-599.22"/>
</g>
<!-- block1_279 -->
<g id="node8" class="node">
<title>block1_279</title>
<g id="a_node8"><a xlink:href="javascript:s=&quot;\(&#x27;default&#x27;,\ &#x27;evq_hole&#x27;,\ &#x27;evq&#x27;,\ &#x27;post&#x27;,\ &#x27;block1&#x27;\)\nBox&quot;; console.log(s); alert(s);" xlink:title="Box">
<ellipse fill="none" stroke="black" cx="721.46" cy="-558" rx="36" ry="18"/>
<text text-anchor="middle" x="721.46" y="-554.3" font-family="Times New Roman,serif" font-size="14.00">block1</text>
</a>
</g>
</g>
<!-- post_277&#45;&gt;block1_279 -->
<g id="edge7" class="edge">
<title>post_277&#45;&gt;block1_279</title>
<path fill="none" stroke="black" d="M596.9,-512.44C619.82,-520.89 655.51,-534.05 682.65,-544.06"/>
<polygon fill="black" stroke="black" points="681.63,-547.41 692.22,-547.59 684.05,-540.84 681.63,-547.41"/>
</g>
<!-- block2_280 -->
<g id="node9" class="node">
<title>block2_280</title>
<g id="a_node9"><a xlink:href="javascript:s=&quot;\(&#x27;default&#x27;,\ &#x27;evq_hole&#x27;,\ &#x27;evq&#x27;,\ &#x27;post&#x27;,\ \(&#x27;block2&#x27;,\ 0\)\)\nBox&quot;; console.log(s); alert(s);" xlink:title="Box">
<ellipse fill="none" stroke="black" cx="721.46" cy="-504" rx="54.69" ry="18"/>
<text text-anchor="middle" x="721.46" y="-500.3" font-family="Times New Roman,serif" font-size="14.00">(&#39;block2&#39;, 0)</text>
</a>
</g>
</g>
<!-- post_277&#45;&gt;block2_280 -->
<g id="edge8" class="edge">
<title>post_277&#45;&gt;block2_280</title>
<path fill="none" stroke="black" d="M600.2,-504C615.89,-504 636.58,-504 656.37,-504"/>
<polygon fill="black" stroke="black" points="656.6,-507.5 666.6,-504 656.6,-500.5 656.6,-507.5"/>
</g>
<!-- block2_281 -->
<g id="node10" class="node">
<title>block2_281</title>
<g id="a_node10"><a xlink:href="javascript:s=&quot;\(&#x27;default&#x27;,\ &#x27;evq_hole&#x27;,\ &#x27;evq&#x27;,\ &#x27;post&#x27;,\ \(&#x27;block2&#x27;,\ 1\)\)\nBox&quot;; console.log(s); alert(s);" xlink:title="Box">
<ellipse fill="none" stroke="black" cx="721.46" cy="-450" rx="54.69" ry="18"/>
<text text-anchor="middle" x="721.46" y="-446.3" font-family="Times New Roman,serif" font-size="14.00">(&#39;block2&#39;, 1)</text>
</a>
</g>
</g>
<!-- post_277&#45;&gt;block2_281 -->
<g id="edge9" class="edge">
<title>post_277&#45;&gt;block2_281</title>
<path fill="none" stroke="black" d="M596.9,-495.56C617.65,-487.91 648.87,-476.4 674.74,-466.86"/>
<polygon fill="black" stroke="black" points="676.18,-470.06 684.35,-463.31 673.76,-463.49 676.18,-470.06"/>
</g>
<!-- plunger_283 -->
<g id="node12" class="node">
<title>plunger_283</title>
<g id="a_node12"><a xlink:href="javascript:s=&quot;\(&#x27;default&#x27;,\ &#x27;evq_hole&#x27;,\ &#x27;evq&#x27;,\ &#x27;plunger&#x27;,\ &#x27;plunger&#x27;\)\nCylinder&quot;; console.log(s); alert(s);" xlink:title="Cylinder">
<ellipse fill="none" stroke="black" cx="721.46" cy="-396" rx="37.89" ry="18"/>
<text text-anchor="middle" x="721.46" y="-392.3" font-family="Times New Roman,serif" font-size="14.00">plunger</text>
</a>
</g>
</g>
<!-- plunger_282&#45;&gt;plunger_283 -->
<g id="edge11" class="edge">
<title>plunger_282&#45;&gt;plunger_283</title>
<path fill="none" stroke="black" d="M608.35,-375.33C628.57,-379.06 654.35,-383.81 676.1,-387.82"/>
<polygon fill="black" stroke="black" points="675.62,-391.29 686.08,-389.66 676.89,-384.41 675.62,-391.29"/>
</g>
<!-- tab_284 -->
<g id="node13" class="node">
<title>tab_284</title>
<g id="a_node13"><a xlink:href="javascript:s=&quot;\(&#x27;default&#x27;,\ &#x27;evq_hole&#x27;,\ &#x27;evq&#x27;,\ &#x27;plunger&#x27;,\ &#x27;tab&#x27;\)\nBox&quot;; console.log(s); alert(s);" xlink:title="Box">
<ellipse fill="none" stroke="black" cx="721.46" cy="-342" rx="27" ry="18"/>
<text text-anchor="middle" x="721.46" y="-338.3" font-family="Times New Roman,serif" font-size="14.00">tab</text>
</a>
</g>
</g>
<!-- plunger_282&#45;&gt;tab_284 -->
<g id="edge12" class="edge">
<title>plunger_282&#45;&gt;tab_284</title>
<path fill="none" stroke="black" d="M608.35,-362.67C631.47,-358.41 661.89,-352.8 685.2,-348.5"/>
<polygon fill="black" stroke="black" points="685.84,-351.94 695.04,-346.69 684.57,-345.06 685.84,-351.94"/>
</g>
<!-- centre_plate_286 -->
<g id="node15" class="node">
<title>centre_plate_286</title>
<g id="a_node15"><a xlink:href="javascript:s=&quot;\(&#x27;default&#x27;,\ &#x27;evq_hole&#x27;,\ &#x27;evq&#x27;,\ &#x27;centre_plate&#x27;,\ &#x27;centre_plate&#x27;\)\nLinearExtrude&quot;; console.log(s); alert(s);" xlink:title="LinearExtrude">
<ellipse fill="none" stroke="black" cx="721.46" cy="-288" rx="54.69" ry="18"/>
<text text-anchor="middle" x="721.46" y="-284.3" font-family="Times New Roman,serif" font-size="14.00">centre_plate</text>
</a>
</g>
</g>
<!-- centre_plate_285&#45;&gt;centre_plate_286 -->
<g id="edge14" class="edge">
<title>centre_plate_285&#45;&gt;centre_plate_286</title>
<path fill="none" stroke="black" d="M621.16,-306.31C634.61,-303.83 649.42,-301.1 663.4,-298.52"/>
<polygon fill="black" stroke="black" points="664.2,-301.93 673.4,-296.68 662.94,-295.05 664.2,-301.93"/>
</g>
<!-- terminal_289 -->
<g id="node18" class="node">
<title>terminal_289</title>
<g id="a_node18"><a xlink:href="javascript:s=&quot;\(&#x27;default&#x27;,\ &#x27;evq_hole&#x27;,\ &#x27;evq&#x27;,\ \(&#x27;terminal&#x27;,\ 0\),\ &#x27;terminal&#x27;\)\nBox&quot;; console.log(s); alert(s);" xlink:title="Box">
<ellipse fill="none" stroke="black" cx="721.46" cy="-207" rx="38.99" ry="18"/>
<text text-anchor="middle" x="721.46" y="-203.3" font-family="Times New Roman,serif" font-size="14.00">terminal</text>
</a>
</g>
</g>
<!-- terminal_288&#45;&gt;terminal_289 -->
<g id="edge17" class="edge">
<title>terminal_288&#45;&gt;terminal_289</title>
<path fill="none" stroke="black" d="M631.05,-207C644.61,-207 658.95,-207 672.09,-207"/>
<polygon fill="black" stroke="black" points="672.32,-210.5 682.32,-207 672.32,-203.5 672.32,-210.5"/>
</g>
<!-- terminal_291 -->
<g id="node20" class="node">
<title>terminal_291</title>
<g id="a_node20"><a xlink:href="javascript:s=&quot;\(&#x27;default&#x27;,\ &#x27;evq_hole&#x27;,\ &#x27;evq&#x27;,\ \(&#x27;terminal&#x27;,\ 1\),\ &#x27;terminal&#x27;\)\nBox&quot;; console.log(s); alert(s);" xlink:title="Box">
<ellipse fill="none" stroke="black" cx="721.46" cy="-153" rx="38.99" ry="18"/>
<text text-anchor="middle" x="721.46" y="-149.3" font-family="Times New Roman,serif" font-size="14.00">terminal</text>
</a>
</g>
</g>
<!-- terminal_290&#45;&gt;terminal_291 -->
<g id="edge19" class="edge">
<title>terminal_290&#45;&gt;terminal_291</title>
<path fill="none" stroke="black" d="M631.05,-153C644.61,-153 658.95,-153 672.09,-153"/>
<polygon fill="black" stroke="black" points="672.32,-156.5 682.32,-153 672.32,-149.5 672.32,-156.5"/>
</g>
<!-- terminal_293 -->
<g id="node22" class="node">
<title>terminal_293</title>
<g id="a_node22"><a xlink:href="javascript:s=&quot;\(&#x27;default&#x27;,\ &#x27;evq_hole&#x27;,\ &#x27;evq&#x27;,\ \(&#x27;terminal&#x27;,\ 2\),\ &#x27;terminal&#x27;\)\nBox&quot;; console.log(s); alert(s);" xlink:title="Box">
<ellipse fill="none" stroke="black" cx="721.46" cy="-99" rx="38.99" ry="18"/>
<text text-anchor="middle" x="721.46" y="-95.3" font-family="Times New Roman,serif" font-size="14.00">terminal</text>
</a>
</g>
</g>
<!-- terminal_292&#45;&gt;terminal_293 -->
<g id="edge21" class="edge">
<title>terminal_292&#45;&gt;terminal_293</title>
<path fill="none" stroke="black" d="M631.05,-99C644.61,-99 658.95,-99 672.09,-99"/>
<polygon fill="black" stroke="black" points="672.32,-102.5 682.32,-99 672.32,-95.5 672.32,-102.5"/>
</g>
<!-- terminal_295 -->
<g id="node24" class="node">
<title>terminal_295</title>
<g id="a_node24"><a xlink:href="javascript:s=&quot;\(&#x27;default&#x27;,\ &#x27;evq_hole&#x27;,\ &#x27;evq&#x27;,\ \(&#x27;terminal&#x27;,\ 3\),\ &#x27;terminal&#x27;\)\nBox&quot;; console.log(s); alert(s);" xlink:title="Box">
<ellipse fill="none" stroke="black" cx="721.46" cy="-45" rx="38.99" ry="18"/>
<text text-anchor="middle" x="721.46" y="-41.3" font-family="Times New Roman,serif" font-size="14.00">terminal</text>
</a>
</g>
</g>
<!-- terminal_294&#45;&gt;terminal_295 -->
<g id="edge23" class="edge">
<title>terminal_294&#45;&gt;terminal_295</title>
<path fill="none" stroke="black" d="M631.05,-45C644.61,-45 658.95,-45 672.09,-45"/>
<polygon fill="black" stroke="black" points="672.32,-48.5 682.32,-45 672.32,-41.5 672.32,-48.5"/>
</g>
</g>
</svg>
