<?xml version="1.0" encoding="UTF-8" standalone="no"?>
<!DOCTYPE svg PUBLIC "-//W3C//DTD SVG 1.1//EN"
 "http://www.w3.org/Graphics/SVG/1.1/DTD/svg11.dtd">
<!-- Generated by graphviz version 5.0.0 (20220707.1540)
 -->
<!-- Title: default Pages: 1 -->
<svg width="280pt" height="98pt"
 viewBox="0.00 0.00 279.59 98.00" xmlns="http://www.w3.org/2000/svg" xmlns:xlink="http://www.w3.org/1999/xlink">
<g id="graph0" class="graph" transform="scale(1 1) rotate(0) translate(4 94)">
<title>default</title>
<polygon fill="white" stroke="transparent" points="-4,4 -4,-94 275.59,-94 275.59,4 -4,4"/>
<!-- root_55 -->
<g id="node1" class="node">
<title>root_55</title>
<g id="a_node1"><a xlink:href="javascript:s=&quot;\(\)\nNone&quot;; console.log(s); alert(s);" xlink:title="root">
<ellipse fill="none" stroke="black" cx="27" cy="-45" rx="27" ry="18"/>
<text text-anchor="middle" x="27" y="-41.3" font-family="Times New Roman,serif" font-size="14.00">root</text>
</a>
</g>
</g>
<!-- default_56 -->
<g id="node2" class="node">
<title>default_56</title>
<g id="a_node2"><a xlink:href="javascript:s=&quot;\(&#x27;default&#x27;,\)\nPlunger&quot;; console.log(s); alert(s);" xlink:title="Plunger">
<ellipse fill="none" stroke="black" cx="125.1" cy="-45" rx="35.19" ry="18"/>
<text text-anchor="middle" x="125.1" y="-41.3" font-family="Times New Roman,serif" font-size="14.00">default</text>
</a>
</g>
</g>
<!-- root_55&#45;&gt;default_56 -->
<g id="edge1" class="edge">
<title>root_55&#45;&gt;default_56</title>
<path fill="none" stroke="black" d="M54.01,-45C61.92,-45 70.84,-45 79.61,-45"/>
<polygon fill="black" stroke="black" points="79.76,-48.5 89.76,-45 79.76,-41.5 79.76,-48.5"/>
</g>
<!-- plunger_57 -->
<g id="node3" class="node">
<title>plunger_57</title>
<g id="a_node3"><a xlink:href="javascript:s=&quot;\(&#x27;default&#x27;,\ &#x27;plunger&#x27;\)\nCylinder&quot;; console.log(s); alert(s);" xlink:title="Cylinder">
<ellipse fill="none" stroke="black" cx="233.89" cy="-72" rx="37.89" ry="18"/>
<text text-anchor="middle" x="233.89" y="-68.3" font-family="Times New Roman,serif" font-size="14.00">plunger</text>
</a>
</g>
</g>
<!-- default_56&#45;&gt;plunger_57 -->
<g id="edge2" class="edge">
<title>default_56&#45;&gt;plunger_57</title>
<path fill="none" stroke="black" d="M156.99,-52.81C167.36,-55.43 179.13,-58.41 190.24,-61.22"/>
<polygon fill="black" stroke="black" points="189.66,-64.68 200.21,-63.74 191.37,-57.89 189.66,-64.68"/>
</g>
<!-- tab_58 -->
<g id="node4" class="node">
<title>tab_58</title>
<g id="a_node4"><a xlink:href="javascript:s=&quot;\(&#x27;default&#x27;,\ &#x27;tab&#x27;\)\nBox&quot;; console.log(s); alert(s);" xlink:title="Box">
<ellipse fill="none" stroke="black" cx="233.89" cy="-18" rx="27" ry="18"/>
<text text-anchor="middle" x="233.89" y="-14.3" font-family="Times New Roman,serif" font-size="14.00">tab</text>
</a>
</g>
</g>
<!-- default_56&#45;&gt;tab_58 -->
<g id="edge3" class="edge">
<title>default_56&#45;&gt;tab_58</title>
<path fill="none" stroke="black" d="M156.99,-37.19C170.04,-33.89 185.3,-30.03 198.7,-26.65"/>
<polygon fill="black" stroke="black" points="199.67,-30.01 208.51,-24.16 197.96,-23.22 199.67,-30.01"/>
</g>
</g>
</svg>
