<?xml version="1.0" encoding="UTF-8" standalone="no"?>
<!DOCTYPE svg PUBLIC "-//W3C//DTD SVG 1.1//EN"
 "http://www.w3.org/Graphics/SVG/1.1/DTD/svg11.dtd">
<!-- Generated by graphviz version 5.0.0 (20220707.1540)
 -->
<!-- Title: default Pages: 1 -->
<svg width="313pt" height="206pt"
 viewBox="0.00 0.00 313.38 206.00" xmlns="http://www.w3.org/2000/svg" xmlns:xlink="http://www.w3.org/1999/xlink">
<g id="graph0" class="graph" transform="scale(1 1) rotate(0) translate(4 202)">
<title>default</title>
<polygon fill="white" stroke="transparent" points="-4,4 -4,-202 309.38,-202 309.38,4 -4,4"/>
<!-- root_59 -->
<g id="node1" class="node">
<title>root_59</title>
<g id="a_node1"><a xlink:href="javascript:s=&quot;\(\)\nNone&quot;; console.log(s); alert(s);" xlink:title="root">
<ellipse fill="none" stroke="black" cx="27" cy="-99" rx="27" ry="18"/>
<text text-anchor="middle" x="27" y="-95.3" font-family="Times New Roman,serif" font-size="14.00">root</text>
</a>
</g>
</g>
<!-- default_60 -->
<g id="node2" class="node">
<title>default_60</title>
<g id="a_node2"><a xlink:href="javascript:s=&quot;\(&#x27;default&#x27;,\)\nPostOutline&quot;; console.log(s); alert(s);" xlink:title="PostOutline">
<ellipse fill="none" stroke="black" cx="125.1" cy="-99" rx="35.19" ry="18"/>
<text text-anchor="middle" x="125.1" y="-95.3" font-family="Times New Roman,serif" font-size="14.00">default</text>
</a>
</g>
</g>
<!-- root_59&#45;&gt;default_60 -->
<g id="edge1" class="edge">
<title>root_59&#45;&gt;default_60</title>
<path fill="none" stroke="black" d="M54.01,-99C61.92,-99 70.84,-99 79.61,-99"/>
<polygon fill="black" stroke="black" points="79.76,-102.5 89.76,-99 79.76,-95.5 79.76,-102.5"/>
</g>
<!-- master_61 -->
<g id="node3" class="node">
<title>master_61</title>
<g id="a_node3"><a xlink:href="javascript:s=&quot;\(&#x27;default&#x27;,\ &#x27;master&#x27;\)\nCylinder&quot;; console.log(s); alert(s);" xlink:title="Cylinder">
<ellipse fill="none" stroke="black" cx="250.79" cy="-180" rx="34.39" ry="18"/>
<text text-anchor="middle" x="250.79" y="-176.3" font-family="Times New Roman,serif" font-size="14.00">master</text>
</a>
</g>
</g>
<!-- default_60&#45;&gt;master_61 -->
<g id="edge2" class="edge">
<title>default_60&#45;&gt;master_61</title>
<path fill="none" stroke="black" d="M144.14,-114.44C157.91,-125.82 177.6,-141.3 196.19,-153 202.12,-156.73 208.63,-160.36 215,-163.69"/>
<polygon fill="black" stroke="black" points="213.66,-166.93 224.16,-168.32 216.82,-160.68 213.66,-166.93"/>
</g>
<!-- block1_62 -->
<g id="node4" class="node">
<title>block1_62</title>
<g id="a_node4"><a xlink:href="javascript:s=&quot;\(&#x27;default&#x27;,\ &#x27;block1&#x27;\)\nBox&quot;; console.log(s); alert(s);" xlink:title="Box">
<ellipse fill="none" stroke="black" cx="250.79" cy="-126" rx="36" ry="18"/>
<text text-anchor="middle" x="250.79" y="-122.3" font-family="Times New Roman,serif" font-size="14.00">block1</text>
</a>
</g>
</g>
<!-- default_60&#45;&gt;block1_62 -->
<g id="edge3" class="edge">
<title>default_60&#45;&gt;block1_62</title>
<path fill="none" stroke="black" d="M157.63,-105.88C172.8,-109.2 191.21,-113.21 207.58,-116.79"/>
<polygon fill="black" stroke="black" points="206.94,-120.23 217.45,-118.94 208.43,-113.39 206.94,-120.23"/>
</g>
<!-- block2_63 -->
<g id="node5" class="node">
<title>block2_63</title>
<g id="a_node5"><a xlink:href="javascript:s=&quot;\(&#x27;default&#x27;,\ \(&#x27;block2&#x27;,\ 0\)\)\nBox&quot;; console.log(s); alert(s);" xlink:title="Box">
<ellipse fill="none" stroke="black" cx="250.79" cy="-72" rx="54.69" ry="18"/>
<text text-anchor="middle" x="250.79" y="-68.3" font-family="Times New Roman,serif" font-size="14.00">(&#39;block2&#39;, 0)</text>
</a>
</g>
</g>
<!-- default_60&#45;&gt;block2_63 -->
<g id="edge4" class="edge">
<title>default_60&#45;&gt;block2_63</title>
<path fill="none" stroke="black" d="M157.63,-92.12C168.93,-89.65 182.01,-86.79 194.72,-84.02"/>
<polygon fill="black" stroke="black" points="195.75,-87.38 204.78,-81.83 194.26,-80.54 195.75,-87.38"/>
</g>
<!-- block2_64 -->
<g id="node6" class="node">
<title>block2_64</title>
<g id="a_node6"><a xlink:href="javascript:s=&quot;\(&#x27;default&#x27;,\ \(&#x27;block2&#x27;,\ 1\)\)\nBox&quot;; console.log(s); alert(s);" xlink:title="Box">
<ellipse fill="none" stroke="black" cx="250.79" cy="-18" rx="54.69" ry="18"/>
<text text-anchor="middle" x="250.79" y="-14.3" font-family="Times New Roman,serif" font-size="14.00">(&#39;block2&#39;, 1)</text>
</a>
</g>
</g>
<!-- default_60&#45;&gt;block2_64 -->
<g id="edge5" class="edge">
<title>default_60&#45;&gt;block2_64</title>
<path fill="none" stroke="black" d="M144.14,-83.56C157.91,-72.18 177.6,-56.7 196.19,-45 200.33,-42.4 204.75,-39.84 209.21,-37.4"/>
<polygon fill="black" stroke="black" points="211.13,-40.35 218.35,-32.59 207.87,-34.16 211.13,-40.35"/>
</g>
</g>
</svg>
