<?xml version="1.0" encoding="UTF-8" standalone="no"?>
<!DOCTYPE svg PUBLIC "-//W3C//DTD SVG 1.1//EN"
 "http://www.w3.org/Graphics/SVG/1.1/DTD/svg11.dtd">
<!-- Generated by graphviz version 5.0.0 (20220707.1540)
 -->
<!-- Title: default Pages: 1 -->
<svg width="657pt" height="935pt"
 viewBox="0.00 0.00 657.06 935.00" xmlns="http://www.w3.org/2000/svg" xmlns:xlink="http://www.w3.org/1999/xlink">
<g id="graph0" class="graph" transform="scale(1 1) rotate(0) translate(4 931)">
<title>default</title>
<polygon fill="white" stroke="transparent" points="-4,4 -4,-931 653.06,-931 653.06,4 -4,4"/>
<!-- root_230 -->
<g id="node1" class="node">
<title>root_230</title>
<g id="a_node1"><a xlink:href="javascript:s=&quot;\(\)\nNone&quot;; console.log(s); alert(s);" xlink:title="root">
<ellipse fill="none" stroke="black" cx="27" cy="-234" rx="27" ry="18"/>
<text text-anchor="middle" x="27" y="-230.3" font-family="Times New Roman,serif" font-size="14.00">root</text>
</a>
</g>
</g>
<!-- default_231 -->
<g id="node2" class="node">
<title>default_231</title>
<g id="a_node2"><a xlink:href="javascript:s=&quot;\(&#x27;default&#x27;,\)\nTactileEvqHole&quot;; console.log(s); alert(s);" xlink:title="TactileEvqHole">
<ellipse fill="none" stroke="black" cx="125.1" cy="-369" rx="35.19" ry="18"/>
<text text-anchor="middle" x="125.1" y="-365.3" font-family="Times New Roman,serif" font-size="14.00">default</text>
</a>
</g>
</g>
<!-- root_230&#45;&gt;default_231 -->
<g id="edge1" class="edge">
<title>root_230&#45;&gt;default_231</title>
<path fill="none" stroke="black" d="M39.4,-250.02C55.91,-273.21 86.63,-316.37 106.18,-343.84"/>
<polygon fill="black" stroke="black" points="103.46,-346.04 112.11,-352.16 109.16,-341.98 103.46,-346.04"/>
</g>
<!-- 256 -->
<g id="node27" class="node">
<title>256</title>
<g id="a_node27"><a xlink:href="javascript:s=&quot;\(&quot;&#x27;top&#x27;,\ &quot;,\)\nAnnotatedCoordinates&quot;; console.log(s); alert(s);" xlink:title="AnnotatedCoordinates">
<ellipse fill="none" stroke="black" cx="125.1" cy="-153" rx="31.7" ry="18"/>
<text text-anchor="middle" x="125.1" y="-149.3" font-family="Times New Roman,serif" font-size="14.00">&#39;top&#39;, </text>
</a>
</g>
</g>
<!-- root_230&#45;&gt;256 -->
<g id="edge26" class="edge">
<title>root_230&#45;&gt;256</title>
<path fill="none" stroke="black" d="M44.74,-219.89C59.62,-207.35 81.6,-188.82 98.65,-174.45"/>
<polygon fill="black" stroke="black" points="101.19,-176.89 106.58,-167.77 96.67,-171.54 101.19,-176.89"/>
</g>
<!-- evq_232 -->
<g id="node3" class="node">
<title>evq_232</title>
<g id="a_node3"><a xlink:href="javascript:s=&quot;\(&#x27;default&#x27;,\ &#x27;evq&#x27;\)\nTactileEvq&quot;; console.log(s); alert(s);" xlink:title="TactileEvq">
<ellipse fill="none" stroke="black" cx="274.19" cy="-504" rx="27" ry="18"/>
<text text-anchor="middle" x="274.19" y="-500.3" font-family="Times New Roman,serif" font-size="14.00">evq</text>
</a>
</g>
</g>
<!-- default_231&#45;&gt;evq_232 -->
<g id="edge2" class="edge">
<title>default_231&#45;&gt;evq_232</title>
<path fill="none" stroke="black" d="M133.29,-386.93C143.73,-410.76 165.26,-452.69 196.19,-477 208.29,-486.51 223.99,-492.81 238.05,-496.91"/>
<polygon fill="black" stroke="black" points="237.36,-500.35 247.92,-499.53 239.15,-493.58 237.36,-500.35"/>
</g>
<!-- terminal_hole_252 -->
<g id="node23" class="node">
<title>terminal_hole_252</title>
<g id="a_node23"><a xlink:href="javascript:s=&quot;\(&#x27;default&#x27;,\ \(&#x27;terminal_hole&#x27;,\ 0\)\)\nCylinder&quot;; console.log(s); alert(s);" xlink:title="Cylinder">
<ellipse fill="none" stroke="black" cx="274.19" cy="-450" rx="77.99" ry="18"/>
<text text-anchor="middle" x="274.19" y="-446.3" font-family="Times New Roman,serif" font-size="14.00">(&#39;terminal_hole&#39;, 0)</text>
</a>
</g>
</g>
<!-- default_231&#45;&gt;terminal_hole_252 -->
<g id="edge22" class="edge">
<title>default_231&#45;&gt;terminal_hole_252</title>
<path fill="none" stroke="black" d="M143.16,-384.66C156.72,-396.47 176.61,-412.38 196.19,-423 202.3,-426.31 208.89,-429.35 215.56,-432.09"/>
<polygon fill="black" stroke="black" points="214.75,-435.53 225.34,-435.89 217.29,-429 214.75,-435.53"/>
</g>
<!-- terminal_hole_253 -->
<g id="node24" class="node">
<title>terminal_hole_253</title>
<g id="a_node24"><a xlink:href="javascript:s=&quot;\(&#x27;default&#x27;,\ \(&#x27;terminal_hole&#x27;,\ 1\)\)\nCylinder&quot;; console.log(s); alert(s);" xlink:title="Cylinder">
<ellipse fill="none" stroke="black" cx="274.19" cy="-396" rx="77.99" ry="18"/>
<text text-anchor="middle" x="274.19" y="-392.3" font-family="Times New Roman,serif" font-size="14.00">(&#39;terminal_hole&#39;, 1)</text>
</a>
</g>
</g>
<!-- default_231&#45;&gt;terminal_hole_253 -->
<g id="edge23" class="edge">
<title>default_231&#45;&gt;terminal_hole_253</title>
<path fill="none" stroke="black" d="M158.38,-374.93C171.42,-377.32 187.02,-380.18 202.46,-383.02"/>
<polygon fill="black" stroke="black" points="202.08,-386.51 212.55,-384.87 203.34,-379.62 202.08,-386.51"/>
</g>
<!-- terminal_hole_254 -->
<g id="node25" class="node">
<title>terminal_hole_254</title>
<g id="a_node25"><a xlink:href="javascript:s=&quot;\(&#x27;default&#x27;,\ \(&#x27;terminal_hole&#x27;,\ 2\)\)\nCylinder&quot;; console.log(s); alert(s);" xlink:title="Cylinder">
<ellipse fill="none" stroke="black" cx="274.19" cy="-342" rx="77.99" ry="18"/>
<text text-anchor="middle" x="274.19" y="-338.3" font-family="Times New Roman,serif" font-size="14.00">(&#39;terminal_hole&#39;, 2)</text>
</a>
</g>
</g>
<!-- default_231&#45;&gt;terminal_hole_254 -->
<g id="edge24" class="edge">
<title>default_231&#45;&gt;terminal_hole_254</title>
<path fill="none" stroke="black" d="M158.38,-363.07C171.42,-360.68 187.02,-357.82 202.46,-354.98"/>
<polygon fill="black" stroke="black" points="203.34,-358.38 212.55,-353.13 202.08,-351.49 203.34,-358.38"/>
</g>
<!-- terminal_hole_255 -->
<g id="node26" class="node">
<title>terminal_hole_255</title>
<g id="a_node26"><a xlink:href="javascript:s=&quot;\(&#x27;default&#x27;,\ \(&#x27;terminal_hole&#x27;,\ 3\)\)\nCylinder&quot;; console.log(s); alert(s);" xlink:title="Cylinder">
<ellipse fill="none" stroke="black" cx="274.19" cy="-288" rx="77.99" ry="18"/>
<text text-anchor="middle" x="274.19" y="-284.3" font-family="Times New Roman,serif" font-size="14.00">(&#39;terminal_hole&#39;, 3)</text>
</a>
</g>
</g>
<!-- default_231&#45;&gt;terminal_hole_255 -->
<g id="edge25" class="edge">
<title>default_231&#45;&gt;terminal_hole_255</title>
<path fill="none" stroke="black" d="M143.16,-353.34C156.72,-341.53 176.61,-325.62 196.19,-315 202.3,-311.69 208.89,-308.65 215.56,-305.91"/>
<polygon fill="black" stroke="black" points="217.29,-309 225.34,-302.11 214.75,-302.47 217.29,-309"/>
</g>
<!-- post_233 -->
<g id="node4" class="node">
<title>post_233</title>
<g id="a_node4"><a xlink:href="javascript:s=&quot;\(&#x27;default&#x27;,\ &#x27;evq&#x27;,\ &#x27;post&#x27;\)\nPostOutline&quot;; console.log(s); alert(s);" xlink:title="PostOutline">
<ellipse fill="none" stroke="black" cx="446.02" cy="-801" rx="27" ry="18"/>
<text text-anchor="middle" x="446.02" y="-797.3" font-family="Times New Roman,serif" font-size="14.00">post</text>
</a>
</g>
</g>
<!-- evq_232&#45;&gt;post_233 -->
<g id="edge3" class="edge">
<title>evq_232&#45;&gt;post_233</title>
<path fill="none" stroke="black" d="M284.8,-520.82C313.18,-570.44 396.67,-716.44 430.52,-775.64"/>
<polygon fill="black" stroke="black" points="427.51,-777.42 435.51,-784.37 433.59,-773.95 427.51,-777.42"/>
</g>
<!-- plunger_238 -->
<g id="node9" class="node">
<title>plunger_238</title>
<g id="a_node9"><a xlink:href="javascript:s=&quot;\(&#x27;default&#x27;,\ &#x27;evq&#x27;,\ &#x27;plunger&#x27;\)\nPlunger&quot;; console.log(s); alert(s);" xlink:title="Plunger">
<ellipse fill="none" stroke="black" cx="446.02" cy="-666" rx="37.89" ry="18"/>
<text text-anchor="middle" x="446.02" y="-662.3" font-family="Times New Roman,serif" font-size="14.00">plunger</text>
</a>
</g>
</g>
<!-- evq_232&#45;&gt;plunger_238 -->
<g id="edge8" class="edge">
<title>evq_232&#45;&gt;plunger_238</title>
<path fill="none" stroke="black" d="M285.54,-520.51C303.52,-548.11 342.98,-604.02 388.18,-639 393.75,-643.31 400.13,-647.17 406.54,-650.52"/>
<polygon fill="black" stroke="black" points="405.36,-653.84 415.89,-655.07 408.43,-647.54 405.36,-653.84"/>
</g>
<!-- centre_plate_241 -->
<g id="node12" class="node">
<title>centre_plate_241</title>
<g id="a_node12"><a xlink:href="javascript:s=&quot;\(&#x27;default&#x27;,\ &#x27;evq&#x27;,\ &#x27;centre_plate&#x27;\)\nCentrePlate&quot;; console.log(s); alert(s);" xlink:title="CentrePlate">
<ellipse fill="none" stroke="black" cx="446.02" cy="-612" rx="54.69" ry="18"/>
<text text-anchor="middle" x="446.02" y="-608.3" font-family="Times New Roman,serif" font-size="14.00">centre_plate</text>
</a>
</g>
</g>
<!-- evq_232&#45;&gt;centre_plate_241 -->
<g id="edge11" class="edge">
<title>evq_232&#45;&gt;centre_plate_241</title>
<path fill="none" stroke="black" d="M292.15,-517.63C313.7,-534.6 352.42,-563.92 388.18,-585 392.94,-587.81 398.05,-590.56 403.17,-593.17"/>
<polygon fill="black" stroke="black" points="401.82,-596.41 412.34,-597.7 404.92,-590.13 401.82,-596.41"/>
</g>
<!-- base_plate_243 -->
<g id="node14" class="node">
<title>base_plate_243</title>
<g id="a_node14"><a xlink:href="javascript:s=&quot;\(&#x27;default&#x27;,\ &#x27;evq&#x27;,\ &#x27;base_plate&#x27;\)\nBox&quot;; console.log(s); alert(s);" xlink:title="Box">
<ellipse fill="none" stroke="black" cx="446.02" cy="-558" rx="49.29" ry="18"/>
<text text-anchor="middle" x="446.02" y="-554.3" font-family="Times New Roman,serif" font-size="14.00">base_plate</text>
</a>
</g>
</g>
<!-- evq_232&#45;&gt;base_plate_243 -->
<g id="edge13" class="edge">
<title>evq_232&#45;&gt;base_plate_243</title>
<path fill="none" stroke="black" d="M298.8,-511.51C324.49,-519.68 366.21,-532.94 398.52,-543.21"/>
<polygon fill="black" stroke="black" points="397.63,-546.6 408.22,-546.3 399.75,-539.93 397.63,-546.6"/>
</g>
<!-- terminal_244 -->
<g id="node15" class="node">
<title>terminal_244</title>
<g id="a_node15"><a xlink:href="javascript:s=&quot;\(&#x27;default&#x27;,\ &#x27;evq&#x27;,\ \(&#x27;terminal&#x27;,\ 0\)\)\nEvqTerminal&quot;; console.log(s); alert(s);" xlink:title="EvqTerminal">
<ellipse fill="none" stroke="black" cx="446.02" cy="-504" rx="57.69" ry="18"/>
<text text-anchor="middle" x="446.02" y="-500.3" font-family="Times New Roman,serif" font-size="14.00">(&#39;terminal&#39;, 0)</text>
</a>
</g>
</g>
<!-- evq_232&#45;&gt;terminal_244 -->
<g id="edge14" class="edge">
<title>evq_232&#45;&gt;terminal_244</title>
<path fill="none" stroke="black" d="M301.35,-504C321.73,-504 350.97,-504 377.75,-504"/>
<polygon fill="black" stroke="black" points="377.87,-507.5 387.87,-504 377.87,-500.5 377.87,-507.5"/>
</g>
<!-- terminal_246 -->
<g id="node17" class="node">
<title>terminal_246</title>
<g id="a_node17"><a xlink:href="javascript:s=&quot;\(&#x27;default&#x27;,\ &#x27;evq&#x27;,\ \(&#x27;terminal&#x27;,\ 1\)\)\nEvqTerminal&quot;; console.log(s); alert(s);" xlink:title="EvqTerminal">
<ellipse fill="none" stroke="black" cx="446.02" cy="-450" rx="57.69" ry="18"/>
<text text-anchor="middle" x="446.02" y="-446.3" font-family="Times New Roman,serif" font-size="14.00">(&#39;terminal&#39;, 1)</text>
</a>
</g>
</g>
<!-- evq_232&#45;&gt;terminal_246 -->
<g id="edge16" class="edge">
<title>evq_232&#45;&gt;terminal_246</title>
<path fill="none" stroke="black" d="M298.8,-496.49C323.67,-488.59 363.54,-475.91 395.37,-465.79"/>
<polygon fill="black" stroke="black" points="396.5,-469.1 404.97,-462.74 394.38,-462.43 396.5,-469.1"/>
</g>
<!-- terminal_248 -->
<g id="node19" class="node">
<title>terminal_248</title>
<g id="a_node19"><a xlink:href="javascript:s=&quot;\(&#x27;default&#x27;,\ &#x27;evq&#x27;,\ \(&#x27;terminal&#x27;,\ 2\)\)\nEvqTerminal&quot;; console.log(s); alert(s);" xlink:title="EvqTerminal">
<ellipse fill="none" stroke="black" cx="446.02" cy="-396" rx="57.69" ry="18"/>
<text text-anchor="middle" x="446.02" y="-392.3" font-family="Times New Roman,serif" font-size="14.00">(&#39;terminal&#39;, 2)</text>
</a>
</g>
</g>
<!-- evq_232&#45;&gt;terminal_248 -->
<g id="edge18" class="edge">
<title>evq_232&#45;&gt;terminal_248</title>
<path fill="none" stroke="black" d="M300.4,-499.46C316.49,-495.59 337.07,-488.72 352.18,-477 374.97,-459.31 366.36,-441.87 388.18,-423 391.62,-420.02 395.44,-417.3 399.44,-414.83"/>
<polygon fill="black" stroke="black" points="401.36,-417.77 408.36,-409.82 397.93,-411.66 401.36,-417.77"/>
</g>
<!-- terminal_250 -->
<g id="node21" class="node">
<title>terminal_250</title>
<g id="a_node21"><a xlink:href="javascript:s=&quot;\(&#x27;default&#x27;,\ &#x27;evq&#x27;,\ \(&#x27;terminal&#x27;,\ 3\)\)\nEvqTerminal&quot;; console.log(s); alert(s);" xlink:title="EvqTerminal">
<ellipse fill="none" stroke="black" cx="446.02" cy="-342" rx="57.69" ry="18"/>
<text text-anchor="middle" x="446.02" y="-338.3" font-family="Times New Roman,serif" font-size="14.00">(&#39;terminal&#39;, 3)</text>
</a>
</g>
</g>
<!-- evq_232&#45;&gt;terminal_250 -->
<g id="edge20" class="edge">
<title>evq_232&#45;&gt;terminal_250</title>
<path fill="none" stroke="black" d="M300.8,-500.89C317.47,-497.59 338.56,-490.83 352.18,-477 387.68,-440.95 354.64,-406.89 388.18,-369 390.99,-365.82 394.26,-362.99 397.77,-360.47"/>
<polygon fill="black" stroke="black" points="399.7,-363.39 406.34,-355.14 396,-357.45 399.7,-363.39"/>
</g>
<!-- master_234 -->
<g id="node5" class="node">
<title>master_234</title>
<g id="a_node5"><a xlink:href="javascript:s=&quot;\(&#x27;default&#x27;,\ &#x27;evq&#x27;,\ &#x27;post&#x27;,\ &#x27;master&#x27;\)\nCylinder&quot;; console.log(s); alert(s);" xlink:title="Cylinder">
<ellipse fill="none" stroke="black" cx="594.46" cy="-909" rx="34.39" ry="18"/>
<text text-anchor="middle" x="594.46" y="-905.3" font-family="Times New Roman,serif" font-size="14.00">master</text>
</a>
</g>
</g>
<!-- post_233&#45;&gt;master_234 -->
<g id="edge4" class="edge">
<title>post_233&#45;&gt;master_234</title>
<path fill="none" stroke="black" d="M461.82,-816.02C479.38,-833.33 510.05,-861.95 539.87,-882 545.68,-885.91 552.13,-889.62 558.49,-892.98"/>
<polygon fill="black" stroke="black" points="557.14,-896.22 567.65,-897.62 560.31,-889.98 557.14,-896.22"/>
</g>
<!-- block1_235 -->
<g id="node6" class="node">
<title>block1_235</title>
<g id="a_node6"><a xlink:href="javascript:s=&quot;\(&#x27;default&#x27;,\ &#x27;evq&#x27;,\ &#x27;post&#x27;,\ &#x27;block1&#x27;\)\nBox&quot;; console.log(s); alert(s);" xlink:title="Box">
<ellipse fill="none" stroke="black" cx="594.46" cy="-855" rx="36" ry="18"/>
<text text-anchor="middle" x="594.46" y="-851.3" font-family="Times New Roman,serif" font-size="14.00">block1</text>
</a>
</g>
</g>
<!-- post_233&#45;&gt;block1_235 -->
<g id="edge5" class="edge">
<title>post_233&#45;&gt;block1_235</title>
<path fill="none" stroke="black" d="M469.91,-809.44C492.83,-817.89 528.52,-831.05 555.66,-841.06"/>
<polygon fill="black" stroke="black" points="554.64,-844.41 565.23,-844.59 557.06,-837.84 554.64,-844.41"/>
</g>
<!-- block2_236 -->
<g id="node7" class="node">
<title>block2_236</title>
<g id="a_node7"><a xlink:href="javascript:s=&quot;\(&#x27;default&#x27;,\ &#x27;evq&#x27;,\ &#x27;post&#x27;,\ \(&#x27;block2&#x27;,\ 0\)\)\nBox&quot;; console.log(s); alert(s);" xlink:title="Box">
<ellipse fill="none" stroke="black" cx="594.46" cy="-801" rx="54.69" ry="18"/>
<text text-anchor="middle" x="594.46" y="-797.3" font-family="Times New Roman,serif" font-size="14.00">(&#39;block2&#39;, 0)</text>
</a>
</g>
</g>
<!-- post_233&#45;&gt;block2_236 -->
<g id="edge6" class="edge">
<title>post_233&#45;&gt;block2_236</title>
<path fill="none" stroke="black" d="M473.21,-801C488.9,-801 509.59,-801 529.38,-801"/>
<polygon fill="black" stroke="black" points="529.61,-804.5 539.61,-801 529.61,-797.5 529.61,-804.5"/>
</g>
<!-- block2_237 -->
<g id="node8" class="node">
<title>block2_237</title>
<g id="a_node8"><a xlink:href="javascript:s=&quot;\(&#x27;default&#x27;,\ &#x27;evq&#x27;,\ &#x27;post&#x27;,\ \(&#x27;block2&#x27;,\ 1\)\)\nBox&quot;; console.log(s); alert(s);" xlink:title="Box">
<ellipse fill="none" stroke="black" cx="594.46" cy="-747" rx="54.69" ry="18"/>
<text text-anchor="middle" x="594.46" y="-743.3" font-family="Times New Roman,serif" font-size="14.00">(&#39;block2&#39;, 1)</text>
</a>
</g>
</g>
<!-- post_233&#45;&gt;block2_237 -->
<g id="edge7" class="edge">
<title>post_233&#45;&gt;block2_237</title>
<path fill="none" stroke="black" d="M469.91,-792.56C490.66,-784.91 521.88,-773.4 547.74,-763.86"/>
<polygon fill="black" stroke="black" points="549.19,-767.06 557.36,-760.31 546.77,-760.49 549.19,-767.06"/>
</g>
<!-- plunger_239 -->
<g id="node10" class="node">
<title>plunger_239</title>
<g id="a_node10"><a xlink:href="javascript:s=&quot;\(&#x27;default&#x27;,\ &#x27;evq&#x27;,\ &#x27;plunger&#x27;,\ &#x27;plunger&#x27;\)\nCylinder&quot;; console.log(s); alert(s);" xlink:title="Cylinder">
<ellipse fill="none" stroke="black" cx="594.46" cy="-693" rx="37.89" ry="18"/>
<text text-anchor="middle" x="594.46" y="-689.3" font-family="Times New Roman,serif" font-size="14.00">plunger</text>
</a>
</g>
</g>
<!-- plunger_238&#45;&gt;plunger_239 -->
<g id="edge9" class="edge">
<title>plunger_238&#45;&gt;plunger_239</title>
<path fill="none" stroke="black" d="M481.36,-672.33C501.57,-676.06 527.36,-680.81 549.1,-684.82"/>
<polygon fill="black" stroke="black" points="548.62,-688.29 559.09,-686.66 549.89,-681.41 548.62,-688.29"/>
</g>
<!-- tab_240 -->
<g id="node11" class="node">
<title>tab_240</title>
<g id="a_node11"><a xlink:href="javascript:s=&quot;\(&#x27;default&#x27;,\ &#x27;evq&#x27;,\ &#x27;plunger&#x27;,\ &#x27;tab&#x27;\)\nBox&quot;; console.log(s); alert(s);" xlink:title="Box">
<ellipse fill="none" stroke="black" cx="594.46" cy="-639" rx="27" ry="18"/>
<text text-anchor="middle" x="594.46" y="-635.3" font-family="Times New Roman,serif" font-size="14.00">tab</text>
</a>
</g>
</g>
<!-- plunger_238&#45;&gt;tab_240 -->
<g id="edge10" class="edge">
<title>plunger_238&#45;&gt;tab_240</title>
<path fill="none" stroke="black" d="M481.36,-659.67C504.48,-655.41 534.89,-649.8 558.21,-645.5"/>
<polygon fill="black" stroke="black" points="558.84,-648.94 568.04,-643.69 557.58,-642.06 558.84,-648.94"/>
</g>
<!-- centre_plate_242 -->
<g id="node13" class="node">
<title>centre_plate_242</title>
<g id="a_node13"><a xlink:href="javascript:s=&quot;\(&#x27;default&#x27;,\ &#x27;evq&#x27;,\ &#x27;centre_plate&#x27;,\ &#x27;centre_plate&#x27;\)\nLinearExtrude&quot;; console.log(s); alert(s);" xlink:title="LinearExtrude">
<ellipse fill="none" stroke="black" cx="594.46" cy="-585" rx="54.69" ry="18"/>
<text text-anchor="middle" x="594.46" y="-581.3" font-family="Times New Roman,serif" font-size="14.00">centre_plate</text>
</a>
</g>
</g>
<!-- centre_plate_241&#45;&gt;centre_plate_242 -->
<g id="edge12" class="edge">
<title>centre_plate_241&#45;&gt;centre_plate_242</title>
<path fill="none" stroke="black" d="M494.17,-603.31C507.62,-600.83 522.43,-598.1 536.41,-595.52"/>
<polygon fill="black" stroke="black" points="537.21,-598.93 546.41,-593.68 535.94,-592.05 537.21,-598.93"/>
</g>
<!-- terminal_245 -->
<g id="node16" class="node">
<title>terminal_245</title>
<g id="a_node16"><a xlink:href="javascript:s=&quot;\(&#x27;default&#x27;,\ &#x27;evq&#x27;,\ \(&#x27;terminal&#x27;,\ 0\),\ &#x27;terminal&#x27;\)\nBox&quot;; console.log(s); alert(s);" xlink:title="Box">
<ellipse fill="none" stroke="black" cx="594.46" cy="-504" rx="38.99" ry="18"/>
<text text-anchor="middle" x="594.46" y="-500.3" font-family="Times New Roman,serif" font-size="14.00">terminal</text>
</a>
</g>
</g>
<!-- terminal_244&#45;&gt;terminal_245 -->
<g id="edge15" class="edge">
<title>terminal_244&#45;&gt;terminal_245</title>
<path fill="none" stroke="black" d="M504.06,-504C517.62,-504 531.96,-504 545.09,-504"/>
<polygon fill="black" stroke="black" points="545.33,-507.5 555.33,-504 545.33,-500.5 545.33,-507.5"/>
</g>
<!-- terminal_247 -->
<g id="node18" class="node">
<title>terminal_247</title>
<g id="a_node18"><a xlink:href="javascript:s=&quot;\(&#x27;default&#x27;,\ &#x27;evq&#x27;,\ \(&#x27;terminal&#x27;,\ 1\),\ &#x27;terminal&#x27;\)\nBox&quot;; console.log(s); alert(s);" xlink:title="Box">
<ellipse fill="none" stroke="black" cx="594.46" cy="-450" rx="38.99" ry="18"/>
<text text-anchor="middle" x="594.46" y="-446.3" font-family="Times New Roman,serif" font-size="14.00">terminal</text>
</a>
</g>
</g>
<!-- terminal_246&#45;&gt;terminal_247 -->
<g id="edge17" class="edge">
<title>terminal_246&#45;&gt;terminal_247</title>
<path fill="none" stroke="black" d="M504.06,-450C517.62,-450 531.96,-450 545.09,-450"/>
<polygon fill="black" stroke="black" points="545.33,-453.5 555.33,-450 545.33,-446.5 545.33,-453.5"/>
</g>
<!-- terminal_249 -->
<g id="node20" class="node">
<title>terminal_249</title>
<g id="a_node20"><a xlink:href="javascript:s=&quot;\(&#x27;default&#x27;,\ &#x27;evq&#x27;,\ \(&#x27;terminal&#x27;,\ 2\),\ &#x27;terminal&#x27;\)\nBox&quot;; console.log(s); alert(s);" xlink:title="Box">
<ellipse fill="none" stroke="black" cx="594.46" cy="-396" rx="38.99" ry="18"/>
<text text-anchor="middle" x="594.46" y="-392.3" font-family="Times New Roman,serif" font-size="14.00">terminal</text>
</a>
</g>
</g>
<!-- terminal_248&#45;&gt;terminal_249 -->
<g id="edge19" class="edge">
<title>terminal_248&#45;&gt;terminal_249</title>
<path fill="none" stroke="black" d="M504.06,-396C517.62,-396 531.96,-396 545.09,-396"/>
<polygon fill="black" stroke="black" points="545.33,-399.5 555.33,-396 545.33,-392.5 545.33,-399.5"/>
</g>
<!-- terminal_251 -->
<g id="node22" class="node">
<title>terminal_251</title>
<g id="a_node22"><a xlink:href="javascript:s=&quot;\(&#x27;default&#x27;,\ &#x27;evq&#x27;,\ \(&#x27;terminal&#x27;,\ 3\),\ &#x27;terminal&#x27;\)\nBox&quot;; console.log(s); alert(s);" xlink:title="Box">
<ellipse fill="none" stroke="black" cx="594.46" cy="-342" rx="38.99" ry="18"/>
<text text-anchor="middle" x="594.46" y="-338.3" font-family="Times New Roman,serif" font-size="14.00">terminal</text>
</a>
</g>
</g>
<!-- terminal_250&#45;&gt;terminal_251 -->
<g id="edge21" class="edge">
<title>terminal_250&#45;&gt;terminal_251</title>
<path fill="none" stroke="black" d="M504.06,-342C517.62,-342 531.96,-342 545.09,-342"/>
<polygon fill="black" stroke="black" points="545.33,-345.5 555.33,-342 545.33,-338.5 545.33,-345.5"/>
</g>
<!-- coords_257 -->
<g id="node28" class="node">
<title>coords_257</title>
<g id="a_node28"><a xlink:href="javascript:s=&quot;\(&quot;&#x27;top&#x27;,\ &quot;,\ &#x27;coords&#x27;\)\nCoordinates&quot;; console.log(s); alert(s);" xlink:title="Coordinates">
<ellipse fill="none" stroke="black" cx="274.19" cy="-234" rx="36.29" ry="18"/>
<text text-anchor="middle" x="274.19" y="-230.3" font-family="Times New Roman,serif" font-size="14.00">coords</text>
</a>
</g>
</g>
<!-- 256&#45;&gt;coords_257 -->
<g id="edge27" class="edge">
<title>256&#45;&gt;coords_257</title>
<path fill="none" stroke="black" d="M142.6,-168.18C156.18,-180.03 176.34,-196.24 196.19,-207 207.38,-213.07 220.2,-218.2 232.13,-222.31"/>
<polygon fill="black" stroke="black" points="231.29,-225.72 241.88,-225.52 233.47,-219.07 231.29,-225.72"/>
</g>
<!-- x_268 -->
<g id="node39" class="node">
<title>x_268</title>
<g id="a_node39"><a xlink:href="javascript:s=&quot;\(&quot;&#x27;top&#x27;,\ &quot;,\ &#x27;x&#x27;\)\nText&quot;; console.log(s); alert(s);" xlink:title="Text">
<ellipse fill="none" stroke="black" cx="274.19" cy="-180" rx="27" ry="18"/>
<text text-anchor="middle" x="274.19" y="-176.3" font-family="Times New Roman,serif" font-size="14.00">x</text>
</a>
</g>
</g>
<!-- 256&#45;&gt;x_268 -->
<g id="edge38" class="edge">
<title>256&#45;&gt;x_268</title>
<path fill="none" stroke="black" d="M155.51,-158.4C179.24,-162.75 212.69,-168.89 237.86,-173.52"/>
<polygon fill="black" stroke="black" points="237.28,-176.97 247.75,-175.33 238.55,-170.08 237.28,-176.97"/>
</g>
<!-- y_269 -->
<g id="node40" class="node">
<title>y_269</title>
<g id="a_node40"><a xlink:href="javascript:s=&quot;\(&quot;&#x27;top&#x27;,\ &quot;,\ &#x27;y&#x27;\)\nText&quot;; console.log(s); alert(s);" xlink:title="Text">
<ellipse fill="none" stroke="black" cx="274.19" cy="-126" rx="27" ry="18"/>
<text text-anchor="middle" x="274.19" y="-122.3" font-family="Times New Roman,serif" font-size="14.00">y</text>
</a>
</g>
</g>
<!-- 256&#45;&gt;y_269 -->
<g id="edge39" class="edge">
<title>256&#45;&gt;y_269</title>
<path fill="none" stroke="black" d="M155.51,-147.6C179.24,-143.25 212.69,-137.11 237.86,-132.48"/>
<polygon fill="black" stroke="black" points="238.55,-135.92 247.75,-130.67 237.28,-129.03 238.55,-135.92"/>
</g>
<!-- z_270 -->
<g id="node41" class="node">
<title>z_270</title>
<g id="a_node41"><a xlink:href="javascript:s=&quot;\(&quot;&#x27;top&#x27;,\ &quot;,\ &#x27;z&#x27;\)\nText&quot;; console.log(s); alert(s);" xlink:title="Text">
<ellipse fill="none" stroke="black" cx="274.19" cy="-72" rx="27" ry="18"/>
<text text-anchor="middle" x="274.19" y="-68.3" font-family="Times New Roman,serif" font-size="14.00">z</text>
</a>
</g>
</g>
<!-- 256&#45;&gt;z_270 -->
<g id="edge40" class="edge">
<title>256&#45;&gt;z_270</title>
<path fill="none" stroke="black" d="M142.6,-137.82C156.18,-125.97 176.34,-109.76 196.19,-99 209.62,-91.72 225.4,-85.78 239.16,-81.35"/>
<polygon fill="black" stroke="black" points="240.24,-84.68 248.76,-78.39 238.18,-77.99 240.24,-84.68"/>
</g>
<!-- label_271 -->
<g id="node42" class="node">
<title>label_271</title>
<g id="a_node42"><a xlink:href="javascript:s=&quot;\(&quot;&#x27;top&#x27;,\ &quot;,\ &#x27;label&#x27;\)\nText&quot;; console.log(s); alert(s);" xlink:title="Text">
<ellipse fill="none" stroke="black" cx="274.19" cy="-18" rx="27.1" ry="18"/>
<text text-anchor="middle" x="274.19" y="-14.3" font-family="Times New Roman,serif" font-size="14.00">label</text>
</a>
</g>
</g>
<!-- 256&#45;&gt;label_271 -->
<g id="edge41" class="edge">
<title>256&#45;&gt;label_271</title>
<path fill="none" stroke="black" d="M133.12,-135.48C143.49,-111.72 165.09,-69.45 196.19,-45 208.2,-35.56 223.75,-29.28 237.73,-25.18"/>
<polygon fill="black" stroke="black" points="238.8,-28.52 247.56,-22.56 237,-21.75 238.8,-28.52"/>
</g>
<!-- origin_258 -->
<g id="node29" class="node">
<title>origin_258</title>
<g id="a_node29"><a xlink:href="javascript:s=&quot;\(&quot;&#x27;top&#x27;,\ &quot;,\ &#x27;coords&#x27;,\ &#x27;origin&#x27;\)\nCoordinatesCage&quot;; console.log(s); alert(s);" xlink:title="CoordinatesCage">
<ellipse fill="none" stroke="black" cx="446.02" cy="-288" rx="31.4" ry="18"/>
<text text-anchor="middle" x="446.02" y="-284.3" font-family="Times New Roman,serif" font-size="14.00">origin</text>
</a>
</g>
</g>
<!-- coords_257&#45;&gt;origin_258 -->
<g id="edge28" class="edge">
<title>coords_257&#45;&gt;origin_258</title>
<path fill="none" stroke="black" d="M305.16,-243.53C334.12,-252.74 378.01,-266.69 408.89,-276.51"/>
<polygon fill="black" stroke="black" points="407.83,-279.85 418.42,-279.54 409.95,-273.18 407.83,-279.85"/>
</g>
<!-- x_arrow_259 -->
<g id="node30" class="node">
<title>x_arrow_259</title>
<g id="a_node30"><a xlink:href="javascript:s=&quot;\(&quot;&#x27;top&#x27;,\ &quot;,\ &#x27;coords&#x27;,\ &#x27;x_arrow&#x27;\)\nArrow&quot;; console.log(s); alert(s);" xlink:title="Arrow">
<ellipse fill="none" stroke="black" cx="446.02" cy="-234" rx="40.89" ry="18"/>
<text text-anchor="middle" x="446.02" y="-230.3" font-family="Times New Roman,serif" font-size="14.00">x_arrow</text>
</a>
</g>
</g>
<!-- coords_257&#45;&gt;x_arrow_259 -->
<g id="edge29" class="edge">
<title>coords_257&#45;&gt;x_arrow_259</title>
<path fill="none" stroke="black" d="M310.79,-234C335.2,-234 367.93,-234 394.96,-234"/>
<polygon fill="black" stroke="black" points="395.01,-237.5 405.01,-234 395.01,-230.5 395.01,-237.5"/>
</g>
<!-- y_arrow_262 -->
<g id="node33" class="node">
<title>y_arrow_262</title>
<g id="a_node33"><a xlink:href="javascript:s=&quot;\(&quot;&#x27;top&#x27;,\ &quot;,\ &#x27;coords&#x27;,\ &#x27;y_arrow&#x27;\)\nArrow&quot;; console.log(s); alert(s);" xlink:title="Arrow">
<ellipse fill="none" stroke="black" cx="446.02" cy="-180" rx="40.89" ry="18"/>
<text text-anchor="middle" x="446.02" y="-176.3" font-family="Times New Roman,serif" font-size="14.00">y_arrow</text>
</a>
</g>
</g>
<!-- coords_257&#45;&gt;y_arrow_262 -->
<g id="edge32" class="edge">
<title>coords_257&#45;&gt;y_arrow_262</title>
<path fill="none" stroke="black" d="M305.16,-224.47C332.2,-215.87 372.25,-203.14 402.58,-193.5"/>
<polygon fill="black" stroke="black" points="403.99,-196.72 412.46,-190.35 401.87,-190.05 403.99,-196.72"/>
</g>
<!-- z_arrow_265 -->
<g id="node36" class="node">
<title>z_arrow_265</title>
<g id="a_node36"><a xlink:href="javascript:s=&quot;\(&quot;&#x27;top&#x27;,\ &quot;,\ &#x27;coords&#x27;,\ &#x27;z_arrow&#x27;\)\nArrow&quot;; console.log(s); alert(s);" xlink:title="Arrow">
<ellipse fill="none" stroke="black" cx="446.02" cy="-72" rx="40.09" ry="18"/>
<text text-anchor="middle" x="446.02" y="-68.3" font-family="Times New Roman,serif" font-size="14.00">z_arrow</text>
</a>
</g>
</g>
<!-- coords_257&#45;&gt;z_arrow_265 -->
<g id="edge35" class="edge">
<title>coords_257&#45;&gt;z_arrow_265</title>
<path fill="none" stroke="black" d="M308.2,-227.43C322.76,-223.34 339.42,-216.9 352.18,-207 374.97,-189.31 371.89,-176.81 388.18,-153 400.95,-134.34 415.61,-113.45 426.85,-97.56"/>
<polygon fill="black" stroke="black" points="429.78,-99.48 432.71,-89.3 424.07,-95.43 429.78,-99.48"/>
</g>
<!-- stem_260 -->
<g id="node31" class="node">
<title>stem_260</title>
<g id="a_node31"><a xlink:href="javascript:s=&quot;\(&quot;&#x27;top&#x27;,\ &quot;,\ &#x27;coords&#x27;,\ &#x27;x_arrow&#x27;,\ &#x27;stem&#x27;\)\nCone&quot;; console.log(s); alert(s);" xlink:title="Cone">
<ellipse fill="none" stroke="black" cx="594.46" cy="-288" rx="27.9" ry="18"/>
<text text-anchor="middle" x="594.46" y="-284.3" font-family="Times New Roman,serif" font-size="14.00">stem</text>
</a>
</g>
</g>
<!-- x_arrow_259&#45;&gt;stem_260 -->
<g id="edge30" class="edge">
<title>x_arrow_259&#45;&gt;stem_260</title>
<path fill="none" stroke="black" d="M478.08,-245.45C502.14,-254.32 535.4,-266.59 560.04,-275.67"/>
<polygon fill="black" stroke="black" points="559.09,-279.05 569.68,-279.23 561.51,-272.49 559.09,-279.05"/>
</g>
<!-- head_261 -->
<g id="node32" class="node">
<title>head_261</title>
<g id="a_node32"><a xlink:href="javascript:s=&quot;\(&quot;&#x27;top&#x27;,\ &quot;,\ &#x27;coords&#x27;,\ &#x27;x_arrow&#x27;,\ &#x27;head&#x27;\)\nCone&quot;; console.log(s); alert(s);" xlink:title="Cone">
<ellipse fill="none" stroke="black" cx="594.46" cy="-234" rx="27.9" ry="18"/>
<text text-anchor="middle" x="594.46" y="-230.3" font-family="Times New Roman,serif" font-size="14.00">head</text>
</a>
</g>
</g>
<!-- x_arrow_259&#45;&gt;head_261 -->
<g id="edge31" class="edge">
<title>x_arrow_259&#45;&gt;head_261</title>
<path fill="none" stroke="black" d="M487.04,-234C508.63,-234 535.1,-234 556.25,-234"/>
<polygon fill="black" stroke="black" points="556.46,-237.5 566.46,-234 556.46,-230.5 556.46,-237.5"/>
</g>
<!-- stem_263 -->
<g id="node34" class="node">
<title>stem_263</title>
<g id="a_node34"><a xlink:href="javascript:s=&quot;\(&quot;&#x27;top&#x27;,\ &quot;,\ &#x27;coords&#x27;,\ &#x27;y_arrow&#x27;,\ &#x27;stem&#x27;\)\nCone&quot;; console.log(s); alert(s);" xlink:title="Cone">
<ellipse fill="none" stroke="black" cx="594.46" cy="-180" rx="27.9" ry="18"/>
<text text-anchor="middle" x="594.46" y="-176.3" font-family="Times New Roman,serif" font-size="14.00">stem</text>
</a>
</g>
</g>
<!-- y_arrow_262&#45;&gt;stem_263 -->
<g id="edge33" class="edge">
<title>y_arrow_262&#45;&gt;stem_263</title>
<path fill="none" stroke="black" d="M487.04,-180C508.63,-180 535.1,-180 556.25,-180"/>
<polygon fill="black" stroke="black" points="556.46,-183.5 566.46,-180 556.46,-176.5 556.46,-183.5"/>
</g>
<!-- head_264 -->
<g id="node35" class="node">
<title>head_264</title>
<g id="a_node35"><a xlink:href="javascript:s=&quot;\(&quot;&#x27;top&#x27;,\ &quot;,\ &#x27;coords&#x27;,\ &#x27;y_arrow&#x27;,\ &#x27;head&#x27;\)\nCone&quot;; console.log(s); alert(s);" xlink:title="Cone">
<ellipse fill="none" stroke="black" cx="594.46" cy="-126" rx="27.9" ry="18"/>
<text text-anchor="middle" x="594.46" y="-122.3" font-family="Times New Roman,serif" font-size="14.00">head</text>
</a>
</g>
</g>
<!-- y_arrow_262&#45;&gt;head_264 -->
<g id="edge34" class="edge">
<title>y_arrow_262&#45;&gt;head_264</title>
<path fill="none" stroke="black" d="M478.08,-168.55C502.14,-159.68 535.4,-147.41 560.04,-138.33"/>
<polygon fill="black" stroke="black" points="561.51,-141.51 569.68,-134.77 559.09,-134.95 561.51,-141.51"/>
</g>
<!-- stem_266 -->
<g id="node37" class="node">
<title>stem_266</title>
<g id="a_node37"><a xlink:href="javascript:s=&quot;\(&quot;&#x27;top&#x27;,\ &quot;,\ &#x27;coords&#x27;,\ &#x27;z_arrow&#x27;,\ &#x27;stem&#x27;\)\nCone&quot;; console.log(s); alert(s);" xlink:title="Cone">
<ellipse fill="none" stroke="black" cx="594.46" cy="-72" rx="27.9" ry="18"/>
<text text-anchor="middle" x="594.46" y="-68.3" font-family="Times New Roman,serif" font-size="14.00">stem</text>
</a>
</g>
</g>
<!-- z_arrow_265&#45;&gt;stem_266 -->
<g id="edge36" class="edge">
<title>z_arrow_265&#45;&gt;stem_266</title>
<path fill="none" stroke="black" d="M486.65,-72C508.25,-72 534.82,-72 556.06,-72"/>
<polygon fill="black" stroke="black" points="556.31,-75.5 566.31,-72 556.31,-68.5 556.31,-75.5"/>
</g>
<!-- head_267 -->
<g id="node38" class="node">
<title>head_267</title>
<g id="a_node38"><a xlink:href="javascript:s=&quot;\(&quot;&#x27;top&#x27;,\ &quot;,\ &#x27;coords&#x27;,\ &#x27;z_arrow&#x27;,\ &#x27;head&#x27;\)\nCone&quot;; console.log(s); alert(s);" xlink:title="Cone">
<ellipse fill="none" stroke="black" cx="594.46" cy="-18" rx="27.9" ry="18"/>
<text text-anchor="middle" x="594.46" y="-14.3" font-family="Times New Roman,serif" font-size="14.00">head</text>
</a>
</g>
</g>
<!-- z_arrow_265&#45;&gt;head_267 -->
<g id="edge37" class="edge">
<title>z_arrow_265&#45;&gt;head_267</title>
<path fill="none" stroke="black" d="M477.72,-60.68C501.75,-51.82 535.14,-39.51 559.88,-30.39"/>
<polygon fill="black" stroke="black" points="561.39,-33.56 569.56,-26.81 558.97,-26.99 561.39,-33.56"/>
</g>
</g>
</svg>
