<?xml version="1.0" encoding="UTF-8" standalone="no"?>
<!DOCTYPE svg PUBLIC "-//W3C//DTD SVG 1.1//EN"
 "http://www.w3.org/Graphics/SVG/1.1/DTD/svg11.dtd">
<!-- Generated by graphviz version 5.0.0 (20220707.1540)
 -->
<!-- Title: default Pages: 1 -->
<svg width="527pt" height="341pt"
 viewBox="0.00 0.00 527.07 341.00" xmlns="http://www.w3.org/2000/svg" xmlns:xlink="http://www.w3.org/1999/xlink">
<g id="graph0" class="graph" transform="scale(1 1) rotate(0) translate(4 337)">
<title>default</title>
<polygon fill="white" stroke="transparent" points="-4,4 -4,-337 523.07,-337 523.07,4 -4,4"/>
<!-- root_36 -->
<g id="node1" class="node">
<title>root_36</title>
<g id="a_node1"><a xlink:href="javascript:s=&quot;\(\)\nNone&quot;; console.log(s); alert(s);" xlink:title="root">
<ellipse fill="none" stroke="black" cx="27" cy="-180" rx="27" ry="18"/>
<text text-anchor="middle" x="27" y="-176.3" font-family="Times New Roman,serif" font-size="14.00">root</text>
</a>
</g>
</g>
<!-- default_37 -->
<g id="node2" class="node">
<title>default_37</title>
<g id="a_node2"><a xlink:href="javascript:s=&quot;\(&#x27;default&#x27;,\)\nEvqTerminal&quot;; console.log(s); alert(s);" xlink:title="EvqTerminal">
<ellipse fill="none" stroke="black" cx="142.65" cy="-247" rx="35.19" ry="18"/>
<text text-anchor="middle" x="142.65" y="-243.3" font-family="Times New Roman,serif" font-size="14.00">default</text>
</a>
</g>
</g>
<!-- root_36&#45;&gt;default_37 -->
<g id="edge1" class="edge">
<title>root_36&#45;&gt;default_37</title>
<path fill="none" stroke="black" d="M47.8,-191.67C65,-201.81 90.23,-216.69 110.2,-228.46"/>
<polygon fill="black" stroke="black" points="108.56,-231.56 118.95,-233.62 112.12,-225.53 108.56,-231.56"/>
</g>
<!-- 39 -->
<g id="node4" class="node">
<title>39</title>
<g id="a_node4"><a xlink:href="javascript:s=&quot;\(&quot;&#x27;reference&#x27;,\ &quot;,\)\nAnnotatedCoordinates&quot;; console.log(s); alert(s);" xlink:title="AnnotatedCoordinates">
<ellipse fill="none" stroke="black" cx="142.65" cy="-153" rx="52.79" ry="18"/>
<text text-anchor="middle" x="142.65" y="-149.3" font-family="Times New Roman,serif" font-size="14.00">&#39;reference&#39;, </text>
</a>
</g>
</g>
<!-- root_36&#45;&gt;39 -->
<g id="edge3" class="edge">
<title>root_36&#45;&gt;39</title>
<path fill="none" stroke="black" d="M52.66,-174.14C63.27,-171.62 76.11,-168.57 88.7,-165.58"/>
<polygon fill="black" stroke="black" points="89.77,-168.92 98.69,-163.2 88.16,-162.11 89.77,-168.92"/>
</g>
<!-- terminal_38 -->
<g id="node3" class="node">
<title>terminal_38</title>
<g id="a_node3"><a xlink:href="javascript:s=&quot;\(&#x27;default&#x27;,\ &#x27;terminal&#x27;\)\nBox&quot;; console.log(s); alert(s);" xlink:title="Box">
<ellipse fill="none" stroke="black" cx="270.29" cy="-288" rx="38.99" ry="18"/>
<text text-anchor="middle" x="270.29" y="-284.3" font-family="Times New Roman,serif" font-size="14.00">terminal</text>
</a>
</g>
</g>
<!-- default_37&#45;&gt;terminal_38 -->
<g id="edge2" class="edge">
<title>default_37&#45;&gt;terminal_38</title>
<path fill="none" stroke="black" d="M172.79,-256.51C189.3,-261.9 210.22,-268.73 228.36,-274.65"/>
<polygon fill="black" stroke="black" points="227.52,-278.05 238.11,-277.83 229.69,-271.4 227.52,-278.05"/>
</g>
<!-- coords_40 -->
<g id="node5" class="node">
<title>coords_40</title>
<g id="a_node5"><a xlink:href="javascript:s=&quot;\(&quot;&#x27;reference&#x27;,\ &quot;,\ &#x27;coords&#x27;\)\nCoordinates&quot;; console.log(s); alert(s);" xlink:title="Coordinates">
<ellipse fill="none" stroke="black" cx="270.29" cy="-234" rx="36.29" ry="18"/>
<text text-anchor="middle" x="270.29" y="-230.3" font-family="Times New Roman,serif" font-size="14.00">coords</text>
</a>
</g>
</g>
<!-- 39&#45;&gt;coords_40 -->
<g id="edge4" class="edge">
<title>39&#45;&gt;coords_40</title>
<path fill="none" stroke="black" d="M168.17,-168.81C188.38,-181.84 217.14,-200.38 238.83,-214.36"/>
<polygon fill="black" stroke="black" points="237.05,-217.38 247.35,-219.86 240.84,-211.5 237.05,-217.38"/>
</g>
<!-- x_51 -->
<g id="node16" class="node">
<title>x_51</title>
<g id="a_node16"><a xlink:href="javascript:s=&quot;\(&quot;&#x27;reference&#x27;,\ &quot;,\ &#x27;x&#x27;\)\nText&quot;; console.log(s); alert(s);" xlink:title="Text">
<ellipse fill="none" stroke="black" cx="270.29" cy="-180" rx="27" ry="18"/>
<text text-anchor="middle" x="270.29" y="-176.3" font-family="Times New Roman,serif" font-size="14.00">x</text>
</a>
</g>
</g>
<!-- 39&#45;&gt;x_51 -->
<g id="edge15" class="edge">
<title>39&#45;&gt;x_51</title>
<path fill="none" stroke="black" d="M187.59,-162.44C202.85,-165.72 219.75,-169.35 234.2,-172.46"/>
<polygon fill="black" stroke="black" points="233.72,-175.94 244.23,-174.62 235.19,-169.09 233.72,-175.94"/>
</g>
<!-- y_52 -->
<g id="node17" class="node">
<title>y_52</title>
<g id="a_node17"><a xlink:href="javascript:s=&quot;\(&quot;&#x27;reference&#x27;,\ &quot;,\ &#x27;y&#x27;\)\nText&quot;; console.log(s); alert(s);" xlink:title="Text">
<ellipse fill="none" stroke="black" cx="270.29" cy="-126" rx="27" ry="18"/>
<text text-anchor="middle" x="270.29" y="-122.3" font-family="Times New Roman,serif" font-size="14.00">y</text>
</a>
</g>
</g>
<!-- 39&#45;&gt;y_52 -->
<g id="edge16" class="edge">
<title>39&#45;&gt;y_52</title>
<path fill="none" stroke="black" d="M187.59,-143.56C202.85,-140.28 219.75,-136.65 234.2,-133.54"/>
<polygon fill="black" stroke="black" points="235.19,-136.91 244.23,-131.38 233.72,-130.06 235.19,-136.91"/>
</g>
<!-- z_53 -->
<g id="node18" class="node">
<title>z_53</title>
<g id="a_node18"><a xlink:href="javascript:s=&quot;\(&quot;&#x27;reference&#x27;,\ &quot;,\ &#x27;z&#x27;\)\nText&quot;; console.log(s); alert(s);" xlink:title="Text">
<ellipse fill="none" stroke="black" cx="270.29" cy="-72" rx="27" ry="18"/>
<text text-anchor="middle" x="270.29" y="-68.3" font-family="Times New Roman,serif" font-size="14.00">z</text>
</a>
</g>
</g>
<!-- 39&#45;&gt;z_53 -->
<g id="edge17" class="edge">
<title>39&#45;&gt;z_53</title>
<path fill="none" stroke="black" d="M168.17,-137.19C189.26,-123.59 219.66,-103.99 241.61,-89.84"/>
<polygon fill="black" stroke="black" points="243.65,-92.69 250.16,-84.33 239.86,-86.81 243.65,-92.69"/>
</g>
<!-- label_54 -->
<g id="node19" class="node">
<title>label_54</title>
<g id="a_node19"><a xlink:href="javascript:s=&quot;\(&quot;&#x27;reference&#x27;,\ &quot;,\ &#x27;label&#x27;\)\nText&quot;; console.log(s); alert(s);" xlink:title="Text">
<ellipse fill="none" stroke="black" cx="270.29" cy="-18" rx="27.1" ry="18"/>
<text text-anchor="middle" x="270.29" y="-14.3" font-family="Times New Roman,serif" font-size="14.00">label</text>
</a>
</g>
</g>
<!-- 39&#45;&gt;label_54 -->
<g id="edge18" class="edge">
<title>39&#45;&gt;label_54</title>
<path fill="none" stroke="black" d="M155.7,-135.32C171.51,-112.85 200.82,-73.58 231.29,-45 234.48,-42.01 238.01,-39.08 241.6,-36.32"/>
<polygon fill="black" stroke="black" points="243.94,-38.95 249.95,-30.23 239.81,-33.29 243.94,-38.95"/>
</g>
<!-- origin_41 -->
<g id="node6" class="node">
<title>origin_41</title>
<g id="a_node6"><a xlink:href="javascript:s=&quot;\(&quot;&#x27;reference&#x27;,\ &quot;,\ &#x27;coords&#x27;,\ &#x27;origin&#x27;\)\nCoordinatesCage&quot;; console.log(s); alert(s);" xlink:title="CoordinatesCage">
<ellipse fill="none" stroke="black" cx="386.23" cy="-315" rx="31.4" ry="18"/>
<text text-anchor="middle" x="386.23" y="-311.3" font-family="Times New Roman,serif" font-size="14.00">origin</text>
</a>
</g>
</g>
<!-- coords_40&#45;&gt;origin_41 -->
<g id="edge5" class="edge">
<title>coords_40&#45;&gt;origin_41</title>
<path fill="none" stroke="black" d="M292.26,-248.76C297.82,-252.71 303.79,-256.99 309.28,-261 325.44,-272.79 328.99,-276.4 345.28,-288 348.81,-290.51 352.55,-293.11 356.26,-295.66"/>
<polygon fill="black" stroke="black" points="354.54,-298.73 364.78,-301.46 358.48,-292.94 354.54,-298.73"/>
</g>
<!-- x_arrow_42 -->
<g id="node7" class="node">
<title>x_arrow_42</title>
<g id="a_node7"><a xlink:href="javascript:s=&quot;\(&quot;&#x27;reference&#x27;,\ &quot;,\ &#x27;coords&#x27;,\ &#x27;x_arrow&#x27;\)\nArrow&quot;; console.log(s); alert(s);" xlink:title="Arrow">
<ellipse fill="none" stroke="black" cx="386.23" cy="-261" rx="40.89" ry="18"/>
<text text-anchor="middle" x="386.23" y="-257.3" font-family="Times New Roman,serif" font-size="14.00">x_arrow</text>
</a>
</g>
</g>
<!-- coords_40&#45;&gt;x_arrow_42 -->
<g id="edge6" class="edge">
<title>coords_40&#45;&gt;x_arrow_42</title>
<path fill="none" stroke="black" d="M303.33,-241.59C314.64,-244.27 327.59,-247.34 339.8,-250.23"/>
<polygon fill="black" stroke="black" points="339.29,-253.71 349.83,-252.61 340.91,-246.9 339.29,-253.71"/>
</g>
<!-- y_arrow_45 -->
<g id="node10" class="node">
<title>y_arrow_45</title>
<g id="a_node10"><a xlink:href="javascript:s=&quot;\(&quot;&#x27;reference&#x27;,\ &quot;,\ &#x27;coords&#x27;,\ &#x27;y_arrow&#x27;\)\nArrow&quot;; console.log(s); alert(s);" xlink:title="Arrow">
<ellipse fill="none" stroke="black" cx="386.23" cy="-207" rx="40.89" ry="18"/>
<text text-anchor="middle" x="386.23" y="-203.3" font-family="Times New Roman,serif" font-size="14.00">y_arrow</text>
</a>
</g>
</g>
<!-- coords_40&#45;&gt;y_arrow_45 -->
<g id="edge9" class="edge">
<title>coords_40&#45;&gt;y_arrow_45</title>
<path fill="none" stroke="black" d="M303.33,-226.41C314.64,-223.73 327.59,-220.66 339.8,-217.77"/>
<polygon fill="black" stroke="black" points="340.91,-221.1 349.83,-215.39 339.29,-214.29 340.91,-221.1"/>
</g>
<!-- z_arrow_48 -->
<g id="node13" class="node">
<title>z_arrow_48</title>
<g id="a_node13"><a xlink:href="javascript:s=&quot;\(&quot;&#x27;reference&#x27;,\ &quot;,\ &#x27;coords&#x27;,\ &#x27;z_arrow&#x27;\)\nArrow&quot;; console.log(s); alert(s);" xlink:title="Arrow">
<ellipse fill="none" stroke="black" cx="386.23" cy="-99" rx="40.09" ry="18"/>
<text text-anchor="middle" x="386.23" y="-95.3" font-family="Times New Roman,serif" font-size="14.00">z_arrow</text>
</a>
</g>
</g>
<!-- coords_40&#45;&gt;z_arrow_48 -->
<g id="edge12" class="edge">
<title>coords_40&#45;&gt;z_arrow_48</title>
<path fill="none" stroke="black" d="M293.6,-220.06C299.02,-216.16 304.6,-211.7 309.28,-207 334.01,-182.15 356.3,-148.45 370.23,-125.34"/>
<polygon fill="black" stroke="black" points="373.42,-126.83 375.5,-116.44 367.4,-123.26 373.42,-126.83"/>
</g>
<!-- stem_43 -->
<g id="node8" class="node">
<title>stem_43</title>
<g id="a_node8"><a xlink:href="javascript:s=&quot;\(&quot;&#x27;reference&#x27;,\ &quot;,\ &#x27;coords&#x27;,\ &#x27;x_arrow&#x27;,\ &#x27;stem&#x27;\)\nCone&quot;; console.log(s); alert(s);" xlink:title="Cone">
<ellipse fill="none" stroke="black" cx="491.12" cy="-315" rx="27.9" ry="18"/>
<text text-anchor="middle" x="491.12" y="-311.3" font-family="Times New Roman,serif" font-size="14.00">stem</text>
</a>
</g>
</g>
<!-- x_arrow_42&#45;&gt;stem_43 -->
<g id="edge7" class="edge">
<title>x_arrow_42&#45;&gt;stem_43</title>
<path fill="none" stroke="black" d="M413.19,-274.63C427.36,-282.06 444.97,-291.3 459.76,-299.07"/>
<polygon fill="black" stroke="black" points="458.53,-302.37 469.01,-303.92 461.79,-296.18 458.53,-302.37"/>
</g>
<!-- head_44 -->
<g id="node9" class="node">
<title>head_44</title>
<g id="a_node9"><a xlink:href="javascript:s=&quot;\(&quot;&#x27;reference&#x27;,\ &quot;,\ &#x27;coords&#x27;,\ &#x27;x_arrow&#x27;,\ &#x27;head&#x27;\)\nCone&quot;; console.log(s); alert(s);" xlink:title="Cone">
<ellipse fill="none" stroke="black" cx="491.12" cy="-261" rx="27.9" ry="18"/>
<text text-anchor="middle" x="491.12" y="-257.3" font-family="Times New Roman,serif" font-size="14.00">head</text>
</a>
</g>
</g>
<!-- x_arrow_42&#45;&gt;head_44 -->
<g id="edge8" class="edge">
<title>x_arrow_42&#45;&gt;head_44</title>
<path fill="none" stroke="black" d="M427.31,-261C435.72,-261 444.56,-261 452.86,-261"/>
<polygon fill="black" stroke="black" points="453.02,-264.5 463.02,-261 453.02,-257.5 453.02,-264.5"/>
</g>
<!-- stem_46 -->
<g id="node11" class="node">
<title>stem_46</title>
<g id="a_node11"><a xlink:href="javascript:s=&quot;\(&quot;&#x27;reference&#x27;,\ &quot;,\ &#x27;coords&#x27;,\ &#x27;y_arrow&#x27;,\ &#x27;stem&#x27;\)\nCone&quot;; console.log(s); alert(s);" xlink:title="Cone">
<ellipse fill="none" stroke="black" cx="491.12" cy="-207" rx="27.9" ry="18"/>
<text text-anchor="middle" x="491.12" y="-203.3" font-family="Times New Roman,serif" font-size="14.00">stem</text>
</a>
</g>
</g>
<!-- y_arrow_45&#45;&gt;stem_46 -->
<g id="edge10" class="edge">
<title>y_arrow_45&#45;&gt;stem_46</title>
<path fill="none" stroke="black" d="M427.31,-207C435.72,-207 444.56,-207 452.86,-207"/>
<polygon fill="black" stroke="black" points="453.02,-210.5 463.02,-207 453.02,-203.5 453.02,-210.5"/>
</g>
<!-- head_47 -->
<g id="node12" class="node">
<title>head_47</title>
<g id="a_node12"><a xlink:href="javascript:s=&quot;\(&quot;&#x27;reference&#x27;,\ &quot;,\ &#x27;coords&#x27;,\ &#x27;y_arrow&#x27;,\ &#x27;head&#x27;\)\nCone&quot;; console.log(s); alert(s);" xlink:title="Cone">
<ellipse fill="none" stroke="black" cx="491.12" cy="-153" rx="27.9" ry="18"/>
<text text-anchor="middle" x="491.12" y="-149.3" font-family="Times New Roman,serif" font-size="14.00">head</text>
</a>
</g>
</g>
<!-- y_arrow_45&#45;&gt;head_47 -->
<g id="edge11" class="edge">
<title>y_arrow_45&#45;&gt;head_47</title>
<path fill="none" stroke="black" d="M413.19,-193.37C427.36,-185.94 444.97,-176.7 459.76,-168.93"/>
<polygon fill="black" stroke="black" points="461.79,-171.82 469.01,-164.08 458.53,-165.63 461.79,-171.82"/>
</g>
<!-- stem_49 -->
<g id="node14" class="node">
<title>stem_49</title>
<g id="a_node14"><a xlink:href="javascript:s=&quot;\(&quot;&#x27;reference&#x27;,\ &quot;,\ &#x27;coords&#x27;,\ &#x27;z_arrow&#x27;,\ &#x27;stem&#x27;\)\nCone&quot;; console.log(s); alert(s);" xlink:title="Cone">
<ellipse fill="none" stroke="black" cx="491.12" cy="-99" rx="27.9" ry="18"/>
<text text-anchor="middle" x="491.12" y="-95.3" font-family="Times New Roman,serif" font-size="14.00">stem</text>
</a>
</g>
</g>
<!-- z_arrow_48&#45;&gt;stem_49 -->
<g id="edge13" class="edge">
<title>z_arrow_48&#45;&gt;stem_49</title>
<path fill="none" stroke="black" d="M426.72,-99C435.34,-99 444.44,-99 452.96,-99"/>
<polygon fill="black" stroke="black" points="453.01,-102.5 463.01,-99 453.01,-95.5 453.01,-102.5"/>
</g>
<!-- head_50 -->
<g id="node15" class="node">
<title>head_50</title>
<g id="a_node15"><a xlink:href="javascript:s=&quot;\(&quot;&#x27;reference&#x27;,\ &quot;,\ &#x27;coords&#x27;,\ &#x27;z_arrow&#x27;,\ &#x27;head&#x27;\)\nCone&quot;; console.log(s); alert(s);" xlink:title="Cone">
<ellipse fill="none" stroke="black" cx="491.12" cy="-45" rx="27.9" ry="18"/>
<text text-anchor="middle" x="491.12" y="-41.3" font-family="Times New Roman,serif" font-size="14.00">head</text>
</a>
</g>
</g>
<!-- z_arrow_48&#45;&gt;head_50 -->
<g id="edge14" class="edge">
<title>z_arrow_48&#45;&gt;head_50</title>
<path fill="none" stroke="black" d="M412.93,-85.51C427.22,-78.01 445.09,-68.63 460.04,-60.79"/>
<polygon fill="black" stroke="black" points="461.68,-63.88 468.91,-56.14 458.43,-57.68 461.68,-63.88"/>
</g>
</g>
</svg>
