solid OpenSCAD_Model
  facet normal 0 0 -1
    outer loop
      vertex 0 0 0
      vertex 4 0.17000000000000004 0
      vertex 4 0 0
    endloop
  endfacet
  facet normal 0 0 -1
    outer loop
      vertex 0 0 0
      vertex 0 0.17000000000000004 0
      vertex 4 0.17000000000000004 0
    endloop
  endfacet
  facet normal -0.8320502935898186 0 -0.5547001973472667
    outer loop
      vertex -0.8500000014901161 0 1.2749999985098839
      vertex 0 0.17000000000000004 0
      vertex 0 0 0
    endloop
  endfacet
  facet normal -0.8320502935898186 0 -0.5547001973472667
    outer loop
      vertex -0.8500000014901161 0 1.2749999985098839
      vertex -0.8500000014901161 0.17000000000000004 1.2749999985098839
      vertex 0 0.17000000000000004 0
    endloop
  endfacet
  facet normal -1 0 0
    outer loop
      vertex -0.8500000014901161 0 4.274999998509884
      vertex -0.8500000014901161 0.17000000000000004 1.2749999985098839
      vertex -0.8500000014901161 0 1.2749999985098839
    endloop
  endfacet
  facet normal -1 0 0
    outer loop
      vertex -0.8500000014901161 0 4.274999998509884
      vertex -0.8500000014901161 0.17000000000000004 4.274999998509884
      vertex -0.8500000014901161 0.17000000000000004 1.2749999985098839
    endloop
  endfacet
  facet normal -0.8970121095893845 0 0.4420059674370949
    outer loop
      vertex 0 0 6
      vertex -0.8500000014901161 0.17000000000000004 4.274999998509884
      vertex -0.8500000014901161 0 4.274999998509884
    endloop
  endfacet
  facet normal -0.8970121095893845 0 0.4420059674370949
    outer loop
      vertex 0 0 6
      vertex 0 0.17000000000000004 6
      vertex -0.8500000014901161 0.17000000000000004 4.274999998509884
    endloop
  endfacet
  facet normal 0 0 1
    outer loop
      vertex 4 0 6
      vertex 0 0.17000000000000004 6
      vertex 0 0 6
    endloop
  endfacet
  facet normal 0 0 1
    outer loop
      vertex 4 0 6
      vertex 4 0.17000000000000004 6
      vertex 0 0.17000000000000004 6
    endloop
  endfacet
  facet normal 0.8320502935898186 0 0.5547001973472667
    outer loop
      vertex 4.850000001490116 0 4.725000001490116
      vertex 4 0.17000000000000004 6
      vertex 4 0 6
    endloop
  endfacet
  facet normal 0.8320502935898186 0 0.5547001973472667
    outer loop
      vertex 4.850000001490116 0 4.725000001490116
      vertex 4.850000001490116 0.17000000000000004 4.725000001490116
      vertex 4 0.17000000000000004 6
    endloop
  endfacet
  facet normal 1 0 0
    outer loop
      vertex 4.850000001490116 0 1.7250000014901161
      vertex 4.850000001490116 0.17000000000000004 4.725000001490116
      vertex 4.850000001490116 0 4.725000001490116
    endloop
  endfacet
  facet normal 1 0 0
    outer loop
      vertex 4.850000001490116 0 1.7250000014901161
      vertex 4.850000001490116 0.17000000000000004 1.7250000014901161
      vertex 4.850000001490116 0.17000000000000004 4.725000001490116
    endloop
  endfacet
  facet normal 0.8970121095893845 0 -0.4420059674370949
    outer loop
      vertex 4 0 0
      vertex 4.850000001490116 0.17000000000000004 1.7250000014901161
      vertex 4.850000001490116 0 1.7250000014901161
    endloop
  endfacet
  facet normal 0.8970121095893845 0 -0.4420059674370949
    outer loop
      vertex 4 0 0
      vertex 4 0.17000000000000004 0
      vertex 4.850000001490116 0.17000000000000004 1.7250000014901161
    endloop
  endfacet
  facet normal 0 0 -1
    outer loop
      vertex 0 0.17000000000000004 0
      vertex 4 0.3400000000000001 0
      vertex 4 0.17000000000000004 0
    endloop
  endfacet
  facet normal 0 0 -1
    outer loop
      vertex 0 0.17000000000000004 0
      vertex 0 0.3400000000000001 0
      vertex 4 0.3400000000000001 0
    endloop
  endfacet
  facet normal -0.8320502935898186 0 -0.5547001973472667
    outer loop
      vertex -0.8500000014901161 0.17000000000000004 1.2749999985098839
      vertex 0 0.3400000000000001 0
      vertex 0 0.17000000000000004 0
    endloop
  endfacet
  facet normal -0.8320502935898186 0 -0.5547001973472667
    outer loop
      vertex -0.8500000014901161 0.17000000000000004 1.2749999985098839
      vertex -0.8500000014901161 0.3400000000000001 1.2749999985098839
      vertex 0 0.3400000000000001 0
    endloop
  endfacet
  facet normal -1 0 0
    outer loop
      vertex -0.8500000014901161 0.17000000000000004 4.274999998509884
      vertex -0.8500000014901161 0.3400000000000001 1.2749999985098839
      vertex -0.8500000014901161 0.17000000000000004 1.2749999985098839
    endloop
  endfacet
  facet normal -1 0 0
    outer loop
      vertex -0.8500000014901161 0.17000000000000004 4.274999998509884
      vertex -0.8500000014901161 0.3400000000000001 4.274999998509884
      vertex -0.8500000014901161 0.3400000000000001 1.2749999985098839
    endloop
  endfacet
  facet normal -0.8970121095893845 0 0.4420059674370949
    outer loop
      vertex 0 0.17000000000000004 6
      vertex -0.8500000014901161 0.3400000000000001 4.274999998509884
      vertex -0.8500000014901161 0.17000000000000004 4.274999998509884
    endloop
  endfacet
  facet normal -0.8970121095893845 0 0.4420059674370949
    outer loop
      vertex 0 0.17000000000000004 6
      vertex 0 0.3400000000000001 6
      vertex -0.8500000014901161 0.3400000000000001 4.274999998509884
    endloop
  endfacet
  facet normal 0 0 1
    outer loop
      vertex 4 0.17000000000000004 6
      vertex 0 0.3400000000000001 6
      vertex 0 0.17000000000000004 6
    endloop
  endfacet
  facet normal 0 0 1
    outer loop
      vertex 4 0.17000000000000004 6
      vertex 4 0.3400000000000001 6
      vertex 0 0.3400000000000001 6
    endloop
  endfacet
  facet normal 0.8320502935898186 0 0.5547001973472667
    outer loop
      vertex 4.850000001490116 0.17000000000000004 4.725000001490116
      vertex 4 0.3400000000000001 6
      vertex 4 0.17000000000000004 6
    endloop
  endfacet
  facet normal 0.8320502935898186 0 0.5547001973472667
    outer loop
      vertex 4.850000001490116 0.17000000000000004 4.725000001490116
      vertex 4.850000001490116 0.3400000000000001 4.725000001490116
      vertex 4 0.3400000000000001 6
    endloop
  endfacet
  facet normal 1 0 0
    outer loop
      vertex 4.850000001490116 0.17000000000000004 1.7250000014901161
      vertex 4.850000001490116 0.3400000000000001 4.725000001490116
      vertex 4.850000001490116 0.17000000000000004 4.725000001490116
    endloop
  endfacet
  facet normal 1 0 0
    outer loop
      vertex 4.850000001490116 0.17000000000000004 1.7250000014901161
      vertex 4.850000001490116 0.3400000000000001 1.7250000014901161
      vertex 4.850000001490116 0.3400000000000001 4.725000001490116
    endloop
  endfacet
  facet normal 0.8970121095893845 0 -0.4420059674370949
    outer loop
      vertex 4 0.17000000000000004 0
      vertex 4.850000001490116 0.3400000000000001 1.7250000014901161
      vertex 4.850000001490116 0.17000000000000004 1.7250000014901161
    endloop
  endfacet
  facet normal 0.8970121095893845 0 -0.4420059674370949
    outer loop
      vertex 4 0.17000000000000004 0
      vertex 4 0.3400000000000001 0
      vertex 4.850000001490116 0.3400000000000001 1.7250000014901161
    endloop
  endfacet
  facet normal 0 0 -1
    outer loop
      vertex 0 0.3400000000000001 0
      vertex 4 0.5100000000000001 0
      vertex 4 0.3400000000000001 0
    endloop
  endfacet
  facet normal 0 0 -1
    outer loop
      vertex 0 0.3400000000000001 0
      vertex 0 0.5100000000000001 0
      vertex 4 0.5100000000000001 0
    endloop
  endfacet
  facet normal -0.8320502935898186 0 -0.5547001973472667
    outer loop
      vertex -0.8500000014901161 0.3400000000000001 1.2749999985098839
      vertex 0 0.5100000000000001 0
      vertex 0 0.3400000000000001 0
    endloop
  endfacet
  facet normal -0.8320502935898186 0 -0.5547001973472667
    outer loop
      vertex -0.8500000014901161 0.3400000000000001 1.2749999985098839
      vertex -0.8500000014901161 0.5100000000000001 1.2749999985098839
      vertex 0 0.5100000000000001 0
    endloop
  endfacet
  facet normal -1 0 0
    outer loop
      vertex -0.8500000014901161 0.3400000000000001 4.274999998509884
      vertex -0.8500000014901161 0.5100000000000001 1.2749999985098839
      vertex -0.8500000014901161 0.3400000000000001 1.2749999985098839
    endloop
  endfacet
  facet normal -1 0 0
    outer loop
      vertex -0.8500000014901161 0.3400000000000001 4.274999998509884
      vertex -0.8500000014901161 0.5100000000000001 4.274999998509884
      vertex -0.8500000014901161 0.5100000000000001 1.2749999985098839
    endloop
  endfacet
  facet normal -0.8970121095893845 0 0.4420059674370949
    outer loop
      vertex 0 0.3400000000000001 6
      vertex -0.8500000014901161 0.5100000000000001 4.274999998509884
      vertex -0.8500000014901161 0.3400000000000001 4.274999998509884
    endloop
  endfacet
  facet normal -0.8970121095893845 0 0.4420059674370949
    outer loop
      vertex 0 0.3400000000000001 6
      vertex 0 0.5100000000000001 6
      vertex -0.8500000014901161 0.5100000000000001 4.274999998509884
    endloop
  endfacet
  facet normal 0 0 1
    outer loop
      vertex 4 0.3400000000000001 6
      vertex 0 0.5100000000000001 6
      vertex 0 0.3400000000000001 6
    endloop
  endfacet
  facet normal 0 0 1
    outer loop
      vertex 4 0.3400000000000001 6
      vertex 4 0.5100000000000001 6
      vertex 0 0.5100000000000001 6
    endloop
  endfacet
  facet normal 0.8320502935898186 0 0.5547001973472667
    outer loop
      vertex 4.850000001490116 0.3400000000000001 4.725000001490116
      vertex 4 0.5100000000000001 6
      vertex 4 0.3400000000000001 6
    endloop
  endfacet
  facet normal 0.8320502935898186 0 0.5547001973472667
    outer loop
      vertex 4.850000001490116 0.3400000000000001 4.725000001490116
      vertex 4.850000001490116 0.5100000000000001 4.725000001490116
      vertex 4 0.5100000000000001 6
    endloop
  endfacet
  facet normal 1 0 0
    outer loop
      vertex 4.850000001490116 0.3400000000000001 1.7250000014901161
      vertex 4.850000001490116 0.5100000000000001 4.725000001490116
      vertex 4.850000001490116 0.3400000000000001 4.725000001490116
    endloop
  endfacet
  facet normal 1 0 0
    outer loop
      vertex 4.850000001490116 0.3400000000000001 1.7250000014901161
      vertex 4.850000001490116 0.5100000000000001 1.7250000014901161
      vertex 4.850000001490116 0.5100000000000001 4.725000001490116
    endloop
  endfacet
  facet normal 0.8970121095893845 0 -0.4420059674370949
    outer loop
      vertex 4 0.3400000000000001 0
      vertex 4.850000001490116 0.5100000000000001 1.7250000014901161
      vertex 4.850000001490116 0.3400000000000001 1.7250000014901161
    endloop
  endfacet
  facet normal 0.8970121095893845 0 -0.4420059674370949
    outer loop
      vertex 4 0.3400000000000001 0
      vertex 4 0.5100000000000001 0
      vertex 4.850000001490116 0.5100000000000001 1.7250000014901161
    endloop
  endfacet
  facet normal 0 0 -1
    outer loop
      vertex 0 0.5100000000000001 0
      vertex 4 0.6800000000000002 0
      vertex 4 0.5100000000000001 0
    endloop
  endfacet
  facet normal 0 0 -1
    outer loop
      vertex 0 0.5100000000000001 0
      vertex 0 0.6800000000000002 0
      vertex 4 0.6800000000000002 0
    endloop
  endfacet
  facet normal -0.8320502935898186 0 -0.5547001973472667
    outer loop
      vertex -0.8500000014901161 0.5100000000000001 1.2749999985098839
      vertex 0 0.6800000000000002 0
      vertex 0 0.5100000000000001 0
    endloop
  endfacet
  facet normal -0.8320502935898186 0 -0.5547001973472667
    outer loop
      vertex -0.8500000014901161 0.5100000000000001 1.2749999985098839
      vertex -0.8500000014901161 0.6800000000000002 1.2749999985098839
      vertex 0 0.6800000000000002 0
    endloop
  endfacet
  facet normal -1 0 0
    outer loop
      vertex -0.8500000014901161 0.5100000000000001 4.274999998509884
      vertex -0.8500000014901161 0.6800000000000002 1.2749999985098839
      vertex -0.8500000014901161 0.5100000000000001 1.2749999985098839
    endloop
  endfacet
  facet normal -1 0 0
    outer loop
      vertex -0.8500000014901161 0.5100000000000001 4.274999998509884
      vertex -0.8500000014901161 0.6800000000000002 4.274999998509884
      vertex -0.8500000014901161 0.6800000000000002 1.2749999985098839
    endloop
  endfacet
  facet normal -0.8970121095893845 0 0.4420059674370949
    outer loop
      vertex 0 0.5100000000000001 6
      vertex -0.8500000014901161 0.6800000000000002 4.274999998509884
      vertex -0.8500000014901161 0.5100000000000001 4.274999998509884
    endloop
  endfacet
  facet normal -0.8970121095893845 0 0.4420059674370949
    outer loop
      vertex 0 0.5100000000000001 6
      vertex 0 0.6800000000000002 6
      vertex -0.8500000014901161 0.6800000000000002 4.274999998509884
    endloop
  endfacet
  facet normal 0 0 1
    outer loop
      vertex 4 0.5100000000000001 6
      vertex 0 0.6800000000000002 6
      vertex 0 0.5100000000000001 6
    endloop
  endfacet
  facet normal 0 0 1
    outer loop
      vertex 4 0.5100000000000001 6
      vertex 4 0.6800000000000002 6
      vertex 0 0.6800000000000002 6
    endloop
  endfacet
  facet normal 0.8320502935898186 0 0.5547001973472667
    outer loop
      vertex 4.850000001490116 0.5100000000000001 4.725000001490116
      vertex 4 0.6800000000000002 6
      vertex 4 0.5100000000000001 6
    endloop
  endfacet
  facet normal 0.8320502935898186 0 0.5547001973472667
    outer loop
      vertex 4.850000001490116 0.5100000000000001 4.725000001490116
      vertex 4.850000001490116 0.6800000000000002 4.725000001490116
      vertex 4 0.6800000000000002 6
    endloop
  endfacet
  facet normal 1 0 0
    outer loop
      vertex 4.850000001490116 0.5100000000000001 1.7250000014901161
      vertex 4.850000001490116 0.6800000000000002 4.725000001490116
      vertex 4.850000001490116 0.5100000000000001 4.725000001490116
    endloop
  endfacet
  facet normal 1 0 0
    outer loop
      vertex 4.850000001490116 0.5100000000000001 1.7250000014901161
      vertex 4.850000001490116 0.6800000000000002 1.7250000014901161
      vertex 4.850000001490116 0.6800000000000002 4.725000001490116
    endloop
  endfacet
  facet normal 0.8970121095893845 0 -0.4420059674370949
    outer loop
      vertex 4 0.5100000000000001 0
      vertex 4.850000001490116 0.6800000000000002 1.7250000014901161
      vertex 4.850000001490116 0.5100000000000001 1.7250000014901161
    endloop
  endfacet
  facet normal 0.8970121095893845 0 -0.4420059674370949
    outer loop
      vertex 4 0.5100000000000001 0
      vertex 4 0.6800000000000002 0
      vertex 4.850000001490116 0.6800000000000002 1.7250000014901161
    endloop
  endfacet
  facet normal 0 -1 0
    outer loop
      vertex 4.850000001490116 0 1.7250000014901161
      vertex 0 0 0
      vertex 4 0 0
    endloop
  endfacet
  facet normal 0 -1 0
    outer loop
      vertex 4.850000001490116 0 1.7250000014901161
      vertex 4.850000001490116 0 4.725000001490116
      vertex 0 0 0
    endloop
  endfacet
  facet normal 0 -1 0
    outer loop
      vertex 4.850000001490116 0 4.725000001490116
      vertex -0.8500000014901161 0 1.2749999985098839
      vertex 0 0 0
    endloop
  endfacet
  facet normal 0 -1 0
    outer loop
      vertex 4.850000001490116 0 4.725000001490116
      vertex 4 0 6
      vertex -0.8500000014901161 0 1.2749999985098839
    endloop
  endfacet
  facet normal 0 -1 0
    outer loop
      vertex 4 0 6
      vertex -0.8500000014901161 0 4.274999998509884
      vertex -0.8500000014901161 0 1.2749999985098839
    endloop
  endfacet
  facet normal 0 -1 0
    outer loop
      vertex 4 0 6
      vertex 0 0 6
      vertex -0.8500000014901161 0 4.274999998509884
    endloop
  endfacet
  facet normal 0 1 0
    outer loop
      vertex 4 0.6800000000000002 0
      vertex 0 0.6800000000000002 0
      vertex 4.850000001490116 0.6800000000000002 1.7250000014901161
    endloop
  endfacet
  facet normal 0 1 0
    outer loop
      vertex 0 0.6800000000000002 0
      vertex 4.850000001490116 0.6800000000000002 4.725000001490116
      vertex 4.850000001490116 0.6800000000000002 1.7250000014901161
    endloop
  endfacet
  facet normal 0 1 0
    outer loop
      vertex 0 0.6800000000000002 0
      vertex -0.8500000014901161 0.6800000000000002 1.2749999985098839
      vertex 4.850000001490116 0.6800000000000002 4.725000001490116
    endloop
  endfacet
  facet normal 0 1 0
    outer loop
      vertex -0.8500000014901161 0.6800000000000002 1.2749999985098839
      vertex 4 0.6800000000000002 6
      vertex 4.850000001490116 0.6800000000000002 4.725000001490116
    endloop
  endfacet
  facet normal 0 1 0
    outer loop
      vertex -0.8500000014901161 0.6800000000000002 1.2749999985098839
      vertex -0.8500000014901161 0.6800000000000002 4.274999998509884
      vertex 4 0.6800000000000002 6
    endloop
  endfacet
  facet normal 0 1 0
    outer loop
      vertex -0.8500000014901161 0.6800000000000002 4.274999998509884
      vertex 0 0.6800000000000002 6
      vertex 4 0.6800000000000002 6
    endloop
  endfacet
endsolid OpenSCAD_Model
