solid OpenSCAD_Model
  facet normal -0.740951125354959 -0.6715589548470184 0
    outer loop
      vertex -2.0098271787431163 -1.6494225388254784 -0.6749999999999998
      vertex -1.8384776310850237 -1.8384776310850237 -0.6749999999999998
      vertex -2.0098271787431163 -1.6494225388254784 0.6749999999999998
    endloop
  endfacet
  facet normal -0.8032075314806452 -0.595699304492433 0
    outer loop
      vertex -2.0098271787431163 -1.6494225388254784 -0.6749999999999998
      vertex -2.0098271787431163 -1.6494225388254784 0.6749999999999998
      vertex -2.1206464862883867 -1.5 -0.6749999999999998
    endloop
  endfacet
  facet normal -0.6715589548470184 -0.740951125354959 0
    outer loop
      vertex -1.6494225388254784 -2.0098271787431163 -0.6749999999999998
      vertex -1.6494225388254784 -2.0098271787431163 0.6749999999999998
      vertex -1.8384776310850237 -1.8384776310850237 -0.6749999999999998
    endloop
  endfacet
  facet normal -0.5956993044924328 -0.8032075314806454 0
    outer loop
      vertex -1.6494225388254784 -2.0098271787431163 -0.6749999999999998
      vertex -1.4444826058509657 -2.161820991986618 -0.6749999999999998
      vertex -1.4444826058509657 -2.161820991986618 0.6749999999999998
    endloop
  endfacet
  facet normal 0 0 -1
    outer loop
      vertex -2.550041729048399 -0.5072348372419334 -0.6749999999999998
      vertex -2.5874802893477122 -0.2548445648568576 -0.6749999999999998
      vertex -2.550041729048399 0.5072348372419334 -0.6749999999999998
    endloop
  endfacet
  facet normal 0 0 -1
    outer loop
      vertex -2.488044872903743 -0.7547401608616021 -0.6749999999999998
      vertex -2.550041729048399 -0.5072348372419334 -0.6749999999999998
      vertex -2.488044872903743 0.7547401608616021 -0.6749999999999998
    endloop
  endfacet
  facet normal 0 0 -1
    outer loop
      vertex -2.4020867845293457 -0.9949769241492334 -0.6749999999999998
      vertex -2.488044872903743 -0.7547401608616021 -0.6749999999999998
      vertex -2.4020867845293457 0.9949769241492334 -0.6749999999999998
    endloop
  endfacet
  facet normal 0 0 -1
    outer loop
      vertex -2.292995287305723 -1.2256315157475939 -0.6749999999999998
      vertex -2.4020867845293457 -0.9949769241492334 -0.6749999999999998
      vertex -2.292995287305723 1.2256315157475939 -0.6749999999999998
    endloop
  endfacet
  facet normal 0 0 -1
    outer loop
      vertex -2.161820991986618 -1.4444826058509657 -0.6749999999999998
      vertex -2.292995287305723 -1.2256315157475939 -0.6749999999999998
      vertex -2.161820991986618 1.4444826058509657 -0.6749999999999998
    endloop
  endfacet
  facet normal 0 0 -1
    outer loop
      vertex -2.1206464862883867 -1.5 -0.6749999999999998
      vertex -2.161820991986618 -1.4444826058509657 -0.6749999999999998
      vertex -2.0098271787431163 1.6494225388254784 -0.6749999999999998
    endloop
  endfacet
  facet normal 0 0 -1
    outer loop
      vertex -2.0098271787431163 -1.6494225388254784 -0.6749999999999998
      vertex -1.8384776310850237 1.8384776310850237 -0.6749999999999998
      vertex -1.8384776310850237 -1.8384776310850237 -0.6749999999999998
    endloop
  endfacet
  facet normal 0 0 -1
    outer loop
      vertex -2.0098271787431163 -1.6494225388254784 -0.6749999999999998
      vertex -2.1206464862883867 -1.5 -0.6749999999999998
      vertex -2.0098271787431163 1.6494225388254784 -0.6749999999999998
    endloop
  endfacet
  facet normal 0 0 -1
    outer loop
      vertex -1.6494225388254784 -2.0098271787431163 -0.6749999999999998
      vertex -1.8384776310850237 -1.8384776310850237 -0.6749999999999998
      vertex -1.6494225388254784 2.0098271787431163 -0.6749999999999998
    endloop
  endfacet
  facet normal 0 0 -1
    outer loop
      vertex -1.6494225388254784 -2.0098271787431163 -0.6749999999999998
      vertex -1.4444826058509657 2.161820991986618 -0.6749999999999998
      vertex -1.4444826058509657 -2.161820991986618 -0.6749999999999998
    endloop
  endfacet
  facet normal -0.5141027441932214 -0.8577286100002721 0
    outer loop
      vertex -1.4444826058509657 -2.161820991986618 -0.6749999999999998
      vertex -1.2256315157475939 -2.292995287305723 -0.6749999999999998
      vertex -1.2256315157475939 -2.292995287305723 0.6749999999999998
    endloop
  endfacet
  facet normal -0.42755509343022996 -0.903989293123468 0
    outer loop
      vertex -1.2256315157475939 -2.292995287305723 -0.6749999999999998
      vertex -1.225 -2.2932939720097556 -0.6749999999999998
      vertex -1.225 -2.2932939720097556 0.6749999999999998
    endloop
  endfacet
  facet normal 0 0 -1
    outer loop
      vertex -1.4444826058509657 -2.161820991986618 -0.6749999999999998
      vertex -1.2256315157475939 2.292995287305723 -0.6749999999999998
      vertex -1.2256315157475939 -2.292995287305723 -0.6749999999999998
    endloop
  endfacet
  facet normal 0 0 -1
    outer loop
      vertex -1.2256315157475939 -2.292995287305723 -0.6749999999999998
      vertex -0.9949769241492334 2.4020867845293457 -0.6749999999999998
      vertex -1.225 -2.2932939720097556 -0.6749999999999998
    endloop
  endfacet
  facet normal 0 0 -1
    outer loop
      vertex -0.9949769241492334 2.4020867845293457 -0.6749999999999998
      vertex -0.9949769241492334 -2.4020867845293457 -0.6749999999999998
      vertex -1.225 -2.2932939720097556 -0.6749999999999998
    endloop
  endfacet
  facet normal 0 0 -1
    outer loop
      vertex -0.9949769241492334 -2.4020867845293457 -0.6749999999999998
      vertex -0.7547401608616021 2.488044872903743 -0.6749999999999998
      vertex -0.7547401608616021 -2.488044872903743 -0.6749999999999998
    endloop
  endfacet
  facet normal 0 0 -1
    outer loop
      vertex -0.7547401608616021 -2.488044872903743 -0.6749999999999998
      vertex -0.5072348372419334 2.550041729048399 -0.6749999999999998
      vertex -0.5072348372419334 -2.550041729048399 -0.6749999999999998
    endloop
  endfacet
  facet normal 0 0 -1
    outer loop
      vertex -0.5072348372419334 -2.550041729048399 -0.6749999999999998
      vertex -0.2548445648568576 2.5874802893477122 -0.6749999999999998
      vertex -0.2548445648568576 -2.5874802893477122 -0.6749999999999998
    endloop
  endfacet
  facet normal 0 0 -1
    outer loop
      vertex -0.2548445648568576 -2.5874802893477122 -0.6749999999999998
      vertex 0 2.6 -0.6749999999999998
      vertex 0 -2.6 -0.6749999999999998
    endloop
  endfacet
  facet normal -0.8032075314806452 -0.595699304492433 0
    outer loop
      vertex -2.0098271787431163 -1.6494225388254784 0.6749999999999998
      vertex -2.1206464862883867 -1.5 0.6749999999999998
      vertex -2.1206464862883867 -1.5 -0.6749999999999998
    endloop
  endfacet
  facet normal -0.740951125354959 -0.6715589548470184 0
    outer loop
      vertex -1.8384776310850237 -1.8384776310850237 -0.6749999999999998
      vertex -1.8384776310850237 -1.8384776310850237 0.6749999999999998
      vertex -2.0098271787431163 -1.6494225388254784 0.6749999999999998
    endloop
  endfacet
  facet normal -0.6715589548470184 -0.740951125354959 0
    outer loop
      vertex -1.8384776310850237 -1.8384776310850237 -0.6749999999999998
      vertex -1.6494225388254784 -2.0098271787431163 0.6749999999999998
      vertex -1.8384776310850237 -1.8384776310850237 0.6749999999999998
    endloop
  endfacet
  facet normal -0.5956993044924328 -0.8032075314806454 0
    outer loop
      vertex -1.6494225388254784 -2.0098271787431163 -0.6749999999999998
      vertex -1.4444826058509657 -2.161820991986618 0.6749999999999998
      vertex -1.6494225388254784 -2.0098271787431163 0.6749999999999998
    endloop
  endfacet
  facet normal 0 0 1
    outer loop
      vertex -2.292995287305723 -1.2256315157475939 0.6749999999999998
      vertex -2.4020867845293457 0.9949769241492334 0.6749999999999998
      vertex -2.4020867845293457 -0.9949769241492334 0.6749999999999998
    endloop
  endfacet
  facet normal 0 0 1
    outer loop
      vertex -2.4020867845293457 -0.9949769241492334 0.6749999999999998
      vertex -2.488044872903743 0.7547401608616021 0.6749999999999998
      vertex -2.488044872903743 -0.7547401608616021 0.6749999999999998
    endloop
  endfacet
  facet normal 0 0 1
    outer loop
      vertex -2.488044872903743 -0.7547401608616021 0.6749999999999998
      vertex -2.550041729048399 0.5072348372419334 0.6749999999999998
      vertex -2.550041729048399 -0.5072348372419334 0.6749999999999998
    endloop
  endfacet
  facet normal 0 0 1
    outer loop
      vertex -2.550041729048399 -0.5072348372419334 0.6749999999999998
      vertex -2.5874802893477122 0.2548445648568576 0.6749999999999998
      vertex -2.5874802893477122 -0.2548445648568576 0.6749999999999998
    endloop
  endfacet
  facet normal 0 0 1
    outer loop
      vertex -1.6494225388254784 -2.0098271787431163 0.6749999999999998
      vertex -1.4444826058509657 -2.161820991986618 0.6749999999999998
      vertex -1.6494225388254784 2.0098271787431163 0.6749999999999998
    endloop
  endfacet
  facet normal 0 0 1
    outer loop
      vertex -2.0098271787431163 -1.6494225388254784 0.6749999999999998
      vertex -2.161820991986618 1.4444826058509657 0.6749999999999998
      vertex -2.1206464862883867 -1.5 0.6749999999999998
    endloop
  endfacet
  facet normal 0 0 1
    outer loop
      vertex -2.161820991986618 -1.4444826058509657 0.6749999999999998
      vertex -2.292995287305723 1.2256315157475939 0.6749999999999998
      vertex -2.292995287305723 -1.2256315157475939 0.6749999999999998
    endloop
  endfacet
  facet normal 0 0 1
    outer loop
      vertex -2.161820991986618 1.4444826058509657 0.6749999999999998
      vertex -2.161820991986618 -1.4444826058509657 0.6749999999999998
      vertex -2.1206464862883867 -1.5 0.6749999999999998
    endloop
  endfacet
  facet normal 0 0 1
    outer loop
      vertex -2.0098271787431163 -1.6494225388254784 0.6749999999999998
      vertex -1.8384776310850237 -1.8384776310850237 0.6749999999999998
      vertex -2.0098271787431163 1.6494225388254784 0.6749999999999998
    endloop
  endfacet
  facet normal 0 0 1
    outer loop
      vertex -1.6494225388254784 -2.0098271787431163 0.6749999999999998
      vertex -1.8384776310850237 1.8384776310850237 0.6749999999999998
      vertex -1.8384776310850237 -1.8384776310850237 0.6749999999999998
    endloop
  endfacet
  facet normal -0.5141027441932214 -0.8577286100002721 0
    outer loop
      vertex -1.4444826058509657 -2.161820991986618 -0.6749999999999998
      vertex -1.2256315157475939 -2.292995287305723 0.6749999999999998
      vertex -1.4444826058509657 -2.161820991986618 0.6749999999999998
    endloop
  endfacet
  facet normal -0.42755509343022996 -0.903989293123468 0
    outer loop
      vertex -1.2256315157475939 -2.292995287305723 -0.6749999999999998
      vertex -1.225 -2.2932939720097556 0.6749999999999998
      vertex -1.2256315157475939 -2.292995287305723 0.6749999999999998
    endloop
  endfacet
  facet normal 0 0 1
    outer loop
      vertex -1.4444826058509657 -2.161820991986618 0.6749999999999998
      vertex -1.2256315157475939 -2.292995287305723 0.6749999999999998
      vertex -1.4444826058509657 2.161820991986618 0.6749999999999998
    endloop
  endfacet
  facet normal 0 0 1
    outer loop
      vertex -1.2256315157475939 -2.292995287305723 0.6749999999999998
      vertex -1.225 -2.2932939720097556 0.6749999999999998
      vertex -1.2256315157475939 2.292995287305723 0.6749999999999998
    endloop
  endfacet
  facet normal 0 0 1
    outer loop
      vertex -1.225 -2.2932939720097556 0.6749999999999998
      vertex -0.9949769241492334 -2.4020867845293457 0.6749999999999998
      vertex -1.2256315157475939 2.292995287305723 0.6749999999999998
    endloop
  endfacet
  facet normal 0 0 1
    outer loop
      vertex -0.9949769241492334 -2.4020867845293457 0.6749999999999998
      vertex -0.7547401608616021 -2.488044872903743 0.6749999999999998
      vertex -0.9949769241492334 2.4020867845293457 0.6749999999999998
    endloop
  endfacet
  facet normal 0 0 1
    outer loop
      vertex -0.7547401608616021 -2.488044872903743 0.6749999999999998
      vertex -0.5072348372419334 -2.550041729048399 0.6749999999999998
      vertex -0.7547401608616021 2.488044872903743 0.6749999999999998
    endloop
  endfacet
  facet normal 0 0 1
    outer loop
      vertex -0.5072348372419334 -2.550041729048399 0.6749999999999998
      vertex -0.2548445648568576 -2.5874802893477122 0.6749999999999998
      vertex -0.5072348372419334 2.550041729048399 0.6749999999999998
    endloop
  endfacet
  facet normal 0 0 1
    outer loop
      vertex -0.2548445648568576 -2.5874802893477122 0.6749999999999998
      vertex 0 -2.6 0.6749999999999998
      vertex -0.2548445648568576 2.5874802893477122 0.6749999999999998
    endloop
  endfacet
  facet normal 0 0 -1
    outer loop
      vertex -2.5874802893477122 -0.2548445648568576 -0.6749999999999998
      vertex -2.6 0 -0.6749999999999998
      vertex -2.5874802893477122 0.2548445648568576 -0.6749999999999998
    endloop
  endfacet
  facet normal 0 0 -1
    outer loop
      vertex -2.5874802893477122 -0.2548445648568576 -0.6749999999999998
      vertex -2.5874802893477122 0.2548445648568576 -0.6749999999999998
      vertex -2.550041729048399 0.5072348372419334 -0.6749999999999998
    endloop
  endfacet
  facet normal 0 0 -1
    outer loop
      vertex -2.550041729048399 -0.5072348372419334 -0.6749999999999998
      vertex -2.550041729048399 0.5072348372419334 -0.6749999999999998
      vertex -2.488044872903743 0.7547401608616021 -0.6749999999999998
    endloop
  endfacet
  facet normal 0 0 -1
    outer loop
      vertex -2.488044872903743 -0.7547401608616021 -0.6749999999999998
      vertex -2.488044872903743 0.7547401608616021 -0.6749999999999998
      vertex -2.4020867845293457 0.9949769241492334 -0.6749999999999998
    endloop
  endfacet
  facet normal 0 0 -1
    outer loop
      vertex -2.4020867845293457 -0.9949769241492334 -0.6749999999999998
      vertex -2.4020867845293457 0.9949769241492334 -0.6749999999999998
      vertex -2.292995287305723 1.2256315157475939 -0.6749999999999998
    endloop
  endfacet
  facet normal 0 0 -1
    outer loop
      vertex -2.292995287305723 -1.2256315157475939 -0.6749999999999998
      vertex -2.292995287305723 1.2256315157475939 -0.6749999999999998
      vertex -2.161820991986618 1.4444826058509657 -0.6749999999999998
    endloop
  endfacet
  facet normal 0 0 -1
    outer loop
      vertex -2.161820991986618 -1.4444826058509657 -0.6749999999999998
      vertex -2.161820991986618 1.4444826058509657 -0.6749999999999998
      vertex -2.1206464862883867 1.5 -0.6749999999999998
    endloop
  endfacet
  facet normal 0 0 -1
    outer loop
      vertex -2.161820991986618 -1.4444826058509657 -0.6749999999999998
      vertex -2.1206464862883867 1.5 -0.6749999999999998
      vertex -2.0098271787431163 1.6494225388254784 -0.6749999999999998
    endloop
  endfacet
  facet normal 0 0 -1
    outer loop
      vertex -2.0098271787431163 -1.6494225388254784 -0.6749999999999998
      vertex -2.0098271787431163 1.6494225388254784 -0.6749999999999998
      vertex -1.8384776310850237 1.8384776310850237 -0.6749999999999998
    endloop
  endfacet
  facet normal 0 0 -1
    outer loop
      vertex -1.8384776310850237 -1.8384776310850237 -0.6749999999999998
      vertex -1.8384776310850237 1.8384776310850237 -0.6749999999999998
      vertex -1.6494225388254784 2.0098271787431163 -0.6749999999999998
    endloop
  endfacet
  facet normal 0 0 -1
    outer loop
      vertex -1.6494225388254784 -2.0098271787431163 -0.6749999999999998
      vertex -1.6494225388254784 2.0098271787431163 -0.6749999999999998
      vertex -1.4444826058509657 2.161820991986618 -0.6749999999999998
    endloop
  endfacet
  facet normal -0.8032075314806452 0.595699304492433 0
    outer loop
      vertex -2.0098271787431163 1.6494225388254784 -0.6749999999999998
      vertex -2.1206464862883867 1.5 -0.6749999999999998
      vertex -2.1206464862883867 1.5 0.6749999999999998
    endloop
  endfacet
  facet normal -0.740951125354959 0.6715589548470184 0
    outer loop
      vertex -2.0098271787431163 1.6494225388254784 -0.6749999999999998
      vertex -1.8384776310850237 1.8384776310850237 0.6749999999999998
      vertex -1.8384776310850237 1.8384776310850237 -0.6749999999999998
    endloop
  endfacet
  facet normal -0.6715589548470184 0.740951125354959 0
    outer loop
      vertex -1.8384776310850237 1.8384776310850237 -0.6749999999999998
      vertex -1.8384776310850237 1.8384776310850237 0.6749999999999998
      vertex -1.6494225388254784 2.0098271787431163 -0.6749999999999998
    endloop
  endfacet
  facet normal -0.5956993044924328 0.8032075314806454 0
    outer loop
      vertex -1.6494225388254784 2.0098271787431163 -0.6749999999999998
      vertex -1.6494225388254784 2.0098271787431163 0.6749999999999998
      vertex -1.4444826058509657 2.161820991986618 -0.6749999999999998
    endloop
  endfacet
  facet normal 0 0 -1
    outer loop
      vertex -1.4444826058509657 -2.161820991986618 -0.6749999999999998
      vertex -1.4444826058509657 2.161820991986618 -0.6749999999999998
      vertex -1.2256315157475939 2.292995287305723 -0.6749999999999998
    endloop
  endfacet
  facet normal 0 0 -1
    outer loop
      vertex -1.2256315157475939 -2.292995287305723 -0.6749999999999998
      vertex -1.2256315157475939 2.292995287305723 -0.6749999999999998
      vertex -0.9949769241492334 2.4020867845293457 -0.6749999999999998
    endloop
  endfacet
  facet normal 0 0 -1
    outer loop
      vertex -0.9949769241492334 -2.4020867845293457 -0.6749999999999998
      vertex -0.9949769241492334 2.4020867845293457 -0.6749999999999998
      vertex -0.7749999999999999 2.4807957865471124 -0.6749999999999998
    endloop
  endfacet
  facet normal 0 0 -1
    outer loop
      vertex -0.9949769241492334 -2.4020867845293457 -0.6749999999999998
      vertex -0.7749999999999999 2.4807957865471124 -0.6749999999999998
      vertex -0.7547401608616021 2.488044872903743 -0.6749999999999998
    endloop
  endfacet
  facet normal 0 0 -1
    outer loop
      vertex -0.7547401608616021 -2.488044872903743 -0.6749999999999998
      vertex -0.7547401608616021 2.488044872903743 -0.6749999999999998
      vertex -0.5072348372419334 2.550041729048399 -0.6749999999999998
    endloop
  endfacet
  facet normal 0 0 -1
    outer loop
      vertex -0.5072348372419334 -2.550041729048399 -0.6749999999999998
      vertex -0.5072348372419334 2.550041729048399 -0.6749999999999998
      vertex -0.2548445648568576 2.5874802893477122 -0.6749999999999998
    endloop
  endfacet
  facet normal 0 0 -1
    outer loop
      vertex -0.2548445648568576 -2.5874802893477122 -0.6749999999999998
      vertex -0.2548445648568576 2.5874802893477122 -0.6749999999999998
      vertex 0 2.6 -0.6749999999999998
    endloop
  endfacet
  facet normal -0.5141027441932214 0.8577286100002721 0
    outer loop
      vertex -1.4444826058509657 2.161820991986618 -0.6749999999999998
      vertex -1.4444826058509657 2.161820991986618 0.6749999999999998
      vertex -1.2256315157475939 2.292995287305723 -0.6749999999999998
    endloop
  endfacet
  facet normal -0.42755509343028225 0.9039892931234431 0
    outer loop
      vertex -1.2256315157475939 2.292995287305723 -0.6749999999999998
      vertex -1.2256315157475939 2.292995287305723 0.6749999999999998
      vertex -0.9949769241492334 2.4020867845293457 -0.6749999999999998
    endloop
  endfacet
  facet normal -0.3368898533922197 0.9415440651830209 0
    outer loop
      vertex -0.9949769241492334 2.4020867845293457 -0.6749999999999998
      vertex -0.9949769241492334 2.4020867845293457 0.6749999999999998
      vertex -0.7749999999999999 2.4807957865471124 -0.6749999999999998
    endloop
  endfacet
  facet normal 0 0 1
    outer loop
      vertex -2.5874802893477122 -0.2548445648568576 0.6749999999999998
      vertex -2.5874802893477122 0.2548445648568576 0.6749999999999998
      vertex -2.6 0 0.6749999999999998
    endloop
  endfacet
  facet normal 0 0 1
    outer loop
      vertex -2.550041729048399 -0.5072348372419334 0.6749999999999998
      vertex -2.550041729048399 0.5072348372419334 0.6749999999999998
      vertex -2.5874802893477122 0.2548445648568576 0.6749999999999998
    endloop
  endfacet
  facet normal 0 0 1
    outer loop
      vertex -2.488044872903743 -0.7547401608616021 0.6749999999999998
      vertex -2.488044872903743 0.7547401608616021 0.6749999999999998
      vertex -2.550041729048399 0.5072348372419334 0.6749999999999998
    endloop
  endfacet
  facet normal 0 0 1
    outer loop
      vertex -2.4020867845293457 -0.9949769241492334 0.6749999999999998
      vertex -2.4020867845293457 0.9949769241492334 0.6749999999999998
      vertex -2.488044872903743 0.7547401608616021 0.6749999999999998
    endloop
  endfacet
  facet normal 0 0 1
    outer loop
      vertex -2.292995287305723 -1.2256315157475939 0.6749999999999998
      vertex -2.292995287305723 1.2256315157475939 0.6749999999999998
      vertex -2.4020867845293457 0.9949769241492334 0.6749999999999998
    endloop
  endfacet
  facet normal 0 0 1
    outer loop
      vertex -2.161820991986618 -1.4444826058509657 0.6749999999999998
      vertex -2.161820991986618 1.4444826058509657 0.6749999999999998
      vertex -2.292995287305723 1.2256315157475939 0.6749999999999998
    endloop
  endfacet
  facet normal 0 0 1
    outer loop
      vertex -2.0098271787431163 -1.6494225388254784 0.6749999999999998
      vertex -2.1206464862883867 1.5 0.6749999999999998
      vertex -2.161820991986618 1.4444826058509657 0.6749999999999998
    endloop
  endfacet
  facet normal 0 0 1
    outer loop
      vertex -2.0098271787431163 -1.6494225388254784 0.6749999999999998
      vertex -2.0098271787431163 1.6494225388254784 0.6749999999999998
      vertex -2.1206464862883867 1.5 0.6749999999999998
    endloop
  endfacet
  facet normal 0 0 1
    outer loop
      vertex -1.8384776310850237 -1.8384776310850237 0.6749999999999998
      vertex -1.8384776310850237 1.8384776310850237 0.6749999999999998
      vertex -2.0098271787431163 1.6494225388254784 0.6749999999999998
    endloop
  endfacet
  facet normal 0 0 1
    outer loop
      vertex -1.6494225388254784 -2.0098271787431163 0.6749999999999998
      vertex -1.6494225388254784 2.0098271787431163 0.6749999999999998
      vertex -1.8384776310850237 1.8384776310850237 0.6749999999999998
    endloop
  endfacet
  facet normal 0 0 1
    outer loop
      vertex -1.4444826058509657 -2.161820991986618 0.6749999999999998
      vertex -1.4444826058509657 2.161820991986618 0.6749999999999998
      vertex -1.6494225388254784 2.0098271787431163 0.6749999999999998
    endloop
  endfacet
  facet normal -0.8032075314806452 0.595699304492433 0
    outer loop
      vertex -2.0098271787431163 1.6494225388254784 -0.6749999999999998
      vertex -2.1206464862883867 1.5 0.6749999999999998
      vertex -2.0098271787431163 1.6494225388254784 0.6749999999999998
    endloop
  endfacet
  facet normal -0.740951125354959 0.6715589548470184 0
    outer loop
      vertex -2.0098271787431163 1.6494225388254784 -0.6749999999999998
      vertex -2.0098271787431163 1.6494225388254784 0.6749999999999998
      vertex -1.8384776310850237 1.8384776310850237 0.6749999999999998
    endloop
  endfacet
  facet normal -0.6715589548470184 0.740951125354959 0
    outer loop
      vertex -1.6494225388254784 2.0098271787431163 -0.6749999999999998
      vertex -1.8384776310850237 1.8384776310850237 0.6749999999999998
      vertex -1.6494225388254784 2.0098271787431163 0.6749999999999998
    endloop
  endfacet
  facet normal -0.5956993044924328 0.8032075314806454 0
    outer loop
      vertex -1.4444826058509657 2.161820991986618 -0.6749999999999998
      vertex -1.6494225388254784 2.0098271787431163 0.6749999999999998
      vertex -1.4444826058509657 2.161820991986618 0.6749999999999998
    endloop
  endfacet
  facet normal 0 0 1
    outer loop
      vertex -1.2256315157475939 -2.292995287305723 0.6749999999999998
      vertex -1.2256315157475939 2.292995287305723 0.6749999999999998
      vertex -1.4444826058509657 2.161820991986618 0.6749999999999998
    endloop
  endfacet
  facet normal 0 0 1
    outer loop
      vertex -0.9949769241492334 -2.4020867845293457 0.6749999999999998
      vertex -0.9949769241492334 2.4020867845293457 0.6749999999999998
      vertex -1.2256315157475939 2.292995287305723 0.6749999999999998
    endloop
  endfacet
  facet normal 0 0 1
    outer loop
      vertex -0.7547401608616021 -2.488044872903743 0.6749999999999998
      vertex -0.7749999999999999 2.4807957865471124 0.6749999999999998
      vertex -0.9949769241492334 2.4020867845293457 0.6749999999999998
    endloop
  endfacet
  facet normal 0 0 1
    outer loop
      vertex -0.7547401608616021 -2.488044872903743 0.6749999999999998
      vertex -0.7547401608616021 2.488044872903743 0.6749999999999998
      vertex -0.7749999999999999 2.4807957865471124 0.6749999999999998
    endloop
  endfacet
  facet normal 0 0 1
    outer loop
      vertex -0.5072348372419334 -2.550041729048399 0.6749999999999998
      vertex -0.5072348372419334 2.550041729048399 0.6749999999999998
      vertex -0.7547401608616021 2.488044872903743 0.6749999999999998
    endloop
  endfacet
  facet normal 0 0 1
    outer loop
      vertex -0.2548445648568576 -2.5874802893477122 0.6749999999999998
      vertex -0.2548445648568576 2.5874802893477122 0.6749999999999998
      vertex -0.5072348372419334 2.550041729048399 0.6749999999999998
    endloop
  endfacet
  facet normal 0 0 1
    outer loop
      vertex -0.2548445648568576 2.5874802893477122 0.6749999999999998
      vertex 0 -2.6 0.6749999999999998
      vertex 0 2.6 0.6749999999999998
    endloop
  endfacet
  facet normal -0.5141027441932214 0.8577286100002721 0
    outer loop
      vertex -1.2256315157475939 2.292995287305723 -0.6749999999999998
      vertex -1.4444826058509657 2.161820991986618 0.6749999999999998
      vertex -1.2256315157475939 2.292995287305723 0.6749999999999998
    endloop
  endfacet
  facet normal -0.42755509343028225 0.9039892931234431 0
    outer loop
      vertex -0.9949769241492334 2.4020867845293457 -0.6749999999999998
      vertex -1.2256315157475939 2.292995287305723 0.6749999999999998
      vertex -0.9949769241492334 2.4020867845293457 0.6749999999999998
    endloop
  endfacet
  facet normal -0.3368898533922197 0.9415440651830209 0
    outer loop
      vertex -0.7749999999999999 2.4807957865471124 -0.6749999999999998
      vertex -0.9949769241492334 2.4020867845293457 0.6749999999999998
      vertex -0.7749999999999999 2.4807957865471124 0.6749999999999998
    endloop
  endfacet
  facet normal 0.3368898533922197 -0.9415440651830209 0
    outer loop
      vertex 0.9949769241492334 -2.4020867845293457 -0.6749999999999998
      vertex 0.9949769241492334 -2.4020867845293457 0.6749999999999998
      vertex 0.7749999999999999 -2.4807957865471124 -0.6749999999999998
    endloop
  endfacet
  facet normal 0.42755509343028225 -0.9039892931234431 0
    outer loop
      vertex 0.9949769241492334 -2.4020867845293457 -0.6749999999999998
      vertex 1.2256315157475939 -2.292995287305723 -0.6749999999999998
      vertex 1.2256315157475939 -2.292995287305723 0.6749999999999998
    endloop
  endfacet
  facet normal 0.5141027441932214 -0.8577286100002721 0
    outer loop
      vertex 1.2256315157475939 -2.292995287305723 -0.6749999999999998
      vertex 1.4444826058509657 -2.161820991986618 -0.6749999999999998
      vertex 1.4444826058509657 -2.161820991986618 0.6749999999999998
    endloop
  endfacet
  facet normal 0 0 -1
    outer loop
      vertex 0 -2.6 -0.6749999999999998
      vertex 0.2548445648568576 2.5874802893477122 -0.6749999999999998
      vertex 0.2548445648568576 -2.5874802893477122 -0.6749999999999998
    endloop
  endfacet
  facet normal 0 0 -1
    outer loop
      vertex 0.2548445648568576 -2.5874802893477122 -0.6749999999999998
      vertex 0.5072348372419334 2.550041729048399 -0.6749999999999998
      vertex 0.5072348372419334 -2.550041729048399 -0.6749999999999998
    endloop
  endfacet
  facet normal 0 0 -1
    outer loop
      vertex 0.5072348372419334 -2.550041729048399 -0.6749999999999998
      vertex 0.7547401608616021 2.488044872903743 -0.6749999999999998
      vertex 0.7547401608616021 -2.488044872903743 -0.6749999999999998
    endloop
  endfacet
  facet normal 0 0 -1
    outer loop
      vertex 0.7547401608616021 -2.488044872903743 -0.6749999999999998
      vertex 0.9949769241492334 2.4020867845293457 -0.6749999999999998
      vertex 0.7749999999999999 -2.4807957865471124 -0.6749999999999998
    endloop
  endfacet
  facet normal 0 0 -1
    outer loop
      vertex 0.9949769241492334 2.4020867845293457 -0.6749999999999998
      vertex 0.9949769241492334 -2.4020867845293457 -0.6749999999999998
      vertex 0.7749999999999999 -2.4807957865471124 -0.6749999999999998
    endloop
  endfacet
  facet normal 0 0 -1
    outer loop
      vertex 0.9949769241492334 -2.4020867845293457 -0.6749999999999998
      vertex 1.2256315157475939 2.292995287305723 -0.6749999999999998
      vertex 1.2256315157475939 -2.292995287305723 -0.6749999999999998
    endloop
  endfacet
  facet normal 0 0 -1
    outer loop
      vertex 1.2256315157475939 -2.292995287305723 -0.6749999999999998
      vertex 1.4444826058509657 2.161820991986618 -0.6749999999999998
      vertex 1.4444826058509657 -2.161820991986618 -0.6749999999999998
    endloop
  endfacet
  facet normal 0.5956993044924328 -0.8032075314806454 0
    outer loop
      vertex 1.4444826058509657 -2.161820991986618 -0.6749999999999998
      vertex 1.6494225388254784 -2.0098271787431163 -0.6749999999999998
      vertex 1.6494225388254784 -2.0098271787431163 0.6749999999999998
    endloop
  endfacet
  facet normal 0.6715589548470184 -0.740951125354959 0
    outer loop
      vertex 1.6494225388254784 -2.0098271787431163 -0.6749999999999998
      vertex 1.8384776310850237 -1.8384776310850237 -0.6749999999999998
      vertex 1.8384776310850237 -1.8384776310850237 0.6749999999999998
    endloop
  endfacet
  facet normal 0.740951125354959 -0.6715589548470184 0
    outer loop
      vertex 1.8384776310850237 -1.8384776310850237 -0.6749999999999998
      vertex 2.0098271787431163 -1.6494225388254784 -0.6749999999999998
      vertex 1.8384776310850237 -1.8384776310850237 0.6749999999999998
    endloop
  endfacet
  facet normal 0.8032075314806452 -0.595699304492433 0
    outer loop
      vertex 2.0098271787431163 -1.6494225388254784 -0.6749999999999998
      vertex 2.1206464862883867 -1.5 -0.6749999999999998
      vertex 2.1206464862883867 -1.5 0.6749999999999998
    endloop
  endfacet
  facet normal 0 0 -1
    outer loop
      vertex 1.4444826058509657 -2.161820991986618 -0.6749999999999998
      vertex 1.6494225388254784 2.0098271787431163 -0.6749999999999998
      vertex 1.6494225388254784 -2.0098271787431163 -0.6749999999999998
    endloop
  endfacet
  facet normal 0 0 -1
    outer loop
      vertex 1.6494225388254784 -2.0098271787431163 -0.6749999999999998
      vertex 1.8384776310850237 1.8384776310850237 -0.6749999999999998
      vertex 1.8384776310850237 -1.8384776310850237 -0.6749999999999998
    endloop
  endfacet
  facet normal 0 0 -1
    outer loop
      vertex 1.8384776310850237 -1.8384776310850237 -0.6749999999999998
      vertex 2.0098271787431163 1.6494225388254784 -0.6749999999999998
      vertex 2.0098271787431163 -1.6494225388254784 -0.6749999999999998
    endloop
  endfacet
  facet normal 0 0 -1
    outer loop
      vertex 2.0098271787431163 -1.6494225388254784 -0.6749999999999998
      vertex 2.161820991986618 1.4444826058509657 -0.6749999999999998
      vertex 2.1206464862883867 -1.5 -0.6749999999999998
    endloop
  endfacet
  facet normal 0 0 -1
    outer loop
      vertex 2.161820991986618 1.4444826058509657 -0.6749999999999998
      vertex 2.161820991986618 -1.4444826058509657 -0.6749999999999998
      vertex 2.1206464862883867 -1.5 -0.6749999999999998
    endloop
  endfacet
  facet normal 0 0 -1
    outer loop
      vertex 2.161820991986618 -1.4444826058509657 -0.6749999999999998
      vertex 2.292995287305723 1.2256315157475939 -0.6749999999999998
      vertex 2.292995287305723 -1.2256315157475939 -0.6749999999999998
    endloop
  endfacet
  facet normal 0 0 -1
    outer loop
      vertex 2.292995287305723 -1.2256315157475939 -0.6749999999999998
      vertex 2.4020867845293457 0.9949769241492334 -0.6749999999999998
      vertex 2.4020867845293457 -0.9949769241492334 -0.6749999999999998
    endloop
  endfacet
  facet normal 0 0 -1
    outer loop
      vertex 2.4020867845293457 -0.9949769241492334 -0.6749999999999998
      vertex 2.488044872903743 0.7547401608616021 -0.6749999999999998
      vertex 2.488044872903743 -0.7547401608616021 -0.6749999999999998
    endloop
  endfacet
  facet normal 0 0 -1
    outer loop
      vertex 2.488044872903743 -0.7547401608616021 -0.6749999999999998
      vertex 2.550041729048399 0.5072348372419334 -0.6749999999999998
      vertex 2.550041729048399 -0.5072348372419334 -0.6749999999999998
    endloop
  endfacet
  facet normal 0 0 -1
    outer loop
      vertex 2.550041729048399 -0.5072348372419334 -0.6749999999999998
      vertex 2.5874802893477122 0.2548445648568576 -0.6749999999999998
      vertex 2.5874802893477122 -0.2548445648568576 -0.6749999999999998
    endloop
  endfacet
  facet normal 0.3368898533922197 -0.9415440651830209 0
    outer loop
      vertex 0.9949769241492334 -2.4020867845293457 0.6749999999999998
      vertex 0.7749999999999999 -2.4807957865471124 0.6749999999999998
      vertex 0.7749999999999999 -2.4807957865471124 -0.6749999999999998
    endloop
  endfacet
  facet normal 0.42755509343028225 -0.9039892931234431 0
    outer loop
      vertex 0.9949769241492334 -2.4020867845293457 -0.6749999999999998
      vertex 1.2256315157475939 -2.292995287305723 0.6749999999999998
      vertex 0.9949769241492334 -2.4020867845293457 0.6749999999999998
    endloop
  endfacet
  facet normal 0.5141027441932214 -0.8577286100002721 0
    outer loop
      vertex 1.2256315157475939 -2.292995287305723 -0.6749999999999998
      vertex 1.4444826058509657 -2.161820991986618 0.6749999999999998
      vertex 1.2256315157475939 -2.292995287305723 0.6749999999999998
    endloop
  endfacet
  facet normal 0 0 1
    outer loop
      vertex 0 -2.6 0.6749999999999998
      vertex 0.2548445648568576 -2.5874802893477122 0.6749999999999998
      vertex 0 2.6 0.6749999999999998
    endloop
  endfacet
  facet normal 0 0 1
    outer loop
      vertex 0.2548445648568576 -2.5874802893477122 0.6749999999999998
      vertex 0.5072348372419334 -2.550041729048399 0.6749999999999998
      vertex 0.2548445648568576 2.5874802893477122 0.6749999999999998
    endloop
  endfacet
  facet normal 0 0 1
    outer loop
      vertex 0.5072348372419334 -2.550041729048399 0.6749999999999998
      vertex 0.7547401608616021 -2.488044872903743 0.6749999999999998
      vertex 0.5072348372419334 2.550041729048399 0.6749999999999998
    endloop
  endfacet
  facet normal 0 0 1
    outer loop
      vertex 0.7547401608616021 2.488044872903743 0.6749999999999998
      vertex 0.7547401608616021 -2.488044872903743 0.6749999999999998
      vertex 0.7749999999999999 -2.4807957865471124 0.6749999999999998
    endloop
  endfacet
  facet normal 0 0 1
    outer loop
      vertex 0.7749999999999999 -2.4807957865471124 0.6749999999999998
      vertex 0.9949769241492334 -2.4020867845293457 0.6749999999999998
      vertex 0.7547401608616021 2.488044872903743 0.6749999999999998
    endloop
  endfacet
  facet normal 0 0 1
    outer loop
      vertex 0.9949769241492334 -2.4020867845293457 0.6749999999999998
      vertex 1.2256315157475939 -2.292995287305723 0.6749999999999998
      vertex 0.9949769241492334 2.4020867845293457 0.6749999999999998
    endloop
  endfacet
  facet normal 0 0 1
    outer loop
      vertex 1.2256315157475939 -2.292995287305723 0.6749999999999998
      vertex 1.4444826058509657 -2.161820991986618 0.6749999999999998
      vertex 1.2256315157475939 2.292995287305723 0.6749999999999998
    endloop
  endfacet
  facet normal 0.5956993044924328 -0.8032075314806454 0
    outer loop
      vertex 1.4444826058509657 -2.161820991986618 -0.6749999999999998
      vertex 1.6494225388254784 -2.0098271787431163 0.6749999999999998
      vertex 1.4444826058509657 -2.161820991986618 0.6749999999999998
    endloop
  endfacet
  facet normal 0.6715589548470184 -0.740951125354959 0
    outer loop
      vertex 1.6494225388254784 -2.0098271787431163 -0.6749999999999998
      vertex 1.8384776310850237 -1.8384776310850237 0.6749999999999998
      vertex 1.6494225388254784 -2.0098271787431163 0.6749999999999998
    endloop
  endfacet
  facet normal 0.740951125354959 -0.6715589548470184 0
    outer loop
      vertex 2.0098271787431163 -1.6494225388254784 -0.6749999999999998
      vertex 2.0098271787431163 -1.6494225388254784 0.6749999999999998
      vertex 1.8384776310850237 -1.8384776310850237 0.6749999999999998
    endloop
  endfacet
  facet normal 0.8032075314806452 -0.595699304492433 0
    outer loop
      vertex 2.0098271787431163 -1.6494225388254784 -0.6749999999999998
      vertex 2.1206464862883867 -1.5 0.6749999999999998
      vertex 2.0098271787431163 -1.6494225388254784 0.6749999999999998
    endloop
  endfacet
  facet normal 0 0 1
    outer loop
      vertex 1.4444826058509657 -2.161820991986618 0.6749999999999998
      vertex 1.6494225388254784 -2.0098271787431163 0.6749999999999998
      vertex 1.4444826058509657 2.161820991986618 0.6749999999999998
    endloop
  endfacet
  facet normal 0 0 1
    outer loop
      vertex 1.6494225388254784 -2.0098271787431163 0.6749999999999998
      vertex 1.8384776310850237 -1.8384776310850237 0.6749999999999998
      vertex 1.6494225388254784 2.0098271787431163 0.6749999999999998
    endloop
  endfacet
  facet normal 0 0 1
    outer loop
      vertex 1.8384776310850237 -1.8384776310850237 0.6749999999999998
      vertex 2.0098271787431163 -1.6494225388254784 0.6749999999999998
      vertex 1.8384776310850237 1.8384776310850237 0.6749999999999998
    endloop
  endfacet
  facet normal 0 0 1
    outer loop
      vertex 2.0098271787431163 -1.6494225388254784 0.6749999999999998
      vertex 2.1206464862883867 -1.5 0.6749999999999998
      vertex 2.0098271787431163 1.6494225388254784 0.6749999999999998
    endloop
  endfacet
  facet normal 0 0 1
    outer loop
      vertex 2.1206464862883867 -1.5 0.6749999999999998
      vertex 2.161820991986618 -1.4444826058509657 0.6749999999999998
      vertex 2.0098271787431163 1.6494225388254784 0.6749999999999998
    endloop
  endfacet
  facet normal 0 0 1
    outer loop
      vertex 2.161820991986618 -1.4444826058509657 0.6749999999999998
      vertex 2.292995287305723 -1.2256315157475939 0.6749999999999998
      vertex 2.161820991986618 1.4444826058509657 0.6749999999999998
    endloop
  endfacet
  facet normal 0 0 1
    outer loop
      vertex 2.292995287305723 -1.2256315157475939 0.6749999999999998
      vertex 2.4020867845293457 -0.9949769241492334 0.6749999999999998
      vertex 2.292995287305723 1.2256315157475939 0.6749999999999998
    endloop
  endfacet
  facet normal 0 0 1
    outer loop
      vertex 2.4020867845293457 -0.9949769241492334 0.6749999999999998
      vertex 2.488044872903743 -0.7547401608616021 0.6749999999999998
      vertex 2.4020867845293457 0.9949769241492334 0.6749999999999998
    endloop
  endfacet
  facet normal 0 0 1
    outer loop
      vertex 2.488044872903743 -0.7547401608616021 0.6749999999999998
      vertex 2.550041729048399 -0.5072348372419334 0.6749999999999998
      vertex 2.488044872903743 0.7547401608616021 0.6749999999999998
    endloop
  endfacet
  facet normal 0 0 1
    outer loop
      vertex 2.550041729048399 -0.5072348372419334 0.6749999999999998
      vertex 2.5874802893477122 -0.2548445648568576 0.6749999999999998
      vertex 2.550041729048399 0.5072348372419334 0.6749999999999998
    endloop
  endfacet
  facet normal 0 0 -1
    outer loop
      vertex 0 -2.6 -0.6749999999999998
      vertex 0 2.6 -0.6749999999999998
      vertex 0.2548445648568576 2.5874802893477122 -0.6749999999999998
    endloop
  endfacet
  facet normal 0 0 -1
    outer loop
      vertex 0.2548445648568576 -2.5874802893477122 -0.6749999999999998
      vertex 0.2548445648568576 2.5874802893477122 -0.6749999999999998
      vertex 0.5072348372419334 2.550041729048399 -0.6749999999999998
    endloop
  endfacet
  facet normal 0 0 -1
    outer loop
      vertex 0.5072348372419334 -2.550041729048399 -0.6749999999999998
      vertex 0.5072348372419334 2.550041729048399 -0.6749999999999998
      vertex 0.7547401608616021 2.488044872903743 -0.6749999999999998
    endloop
  endfacet
  facet normal 0 0 -1
    outer loop
      vertex 0.7547401608616021 -2.488044872903743 -0.6749999999999998
      vertex 0.7547401608616021 2.488044872903743 -0.6749999999999998
      vertex 0.9949769241492334 2.4020867845293457 -0.6749999999999998
    endloop
  endfacet
  facet normal 0 0 -1
    outer loop
      vertex 0.9949769241492334 -2.4020867845293457 -0.6749999999999998
      vertex 0.9949769241492334 2.4020867845293457 -0.6749999999999998
      vertex 1.225 2.2932939720097556 -0.6749999999999998
    endloop
  endfacet
  facet normal 0 0 -1
    outer loop
      vertex 0.9949769241492334 -2.4020867845293457 -0.6749999999999998
      vertex 1.225 2.2932939720097556 -0.6749999999999998
      vertex 1.2256315157475939 2.292995287305723 -0.6749999999999998
    endloop
  endfacet
  facet normal 0 0 -1
    outer loop
      vertex 1.2256315157475939 -2.292995287305723 -0.6749999999999998
      vertex 1.2256315157475939 2.292995287305723 -0.6749999999999998
      vertex 1.4444826058509657 2.161820991986618 -0.6749999999999998
    endloop
  endfacet
  facet normal 0.42755509343022996 0.903989293123468 0
    outer loop
      vertex 1.2256315157475939 2.292995287305723 -0.6749999999999998
      vertex 1.225 2.2932939720097556 -0.6749999999999998
      vertex 1.225 2.2932939720097556 0.6749999999999998
    endloop
  endfacet
  facet normal 0.5141027441932214 0.8577286100002721 0
    outer loop
      vertex 1.2256315157475939 2.292995287305723 -0.6749999999999998
      vertex 1.2256315157475939 2.292995287305723 0.6749999999999998
      vertex 1.4444826058509657 2.161820991986618 -0.6749999999999998
    endloop
  endfacet
  facet normal 0 0 -1
    outer loop
      vertex 1.4444826058509657 -2.161820991986618 -0.6749999999999998
      vertex 1.4444826058509657 2.161820991986618 -0.6749999999999998
      vertex 1.6494225388254784 2.0098271787431163 -0.6749999999999998
    endloop
  endfacet
  facet normal 0 0 -1
    outer loop
      vertex 1.6494225388254784 -2.0098271787431163 -0.6749999999999998
      vertex 1.6494225388254784 2.0098271787431163 -0.6749999999999998
      vertex 1.8384776310850237 1.8384776310850237 -0.6749999999999998
    endloop
  endfacet
  facet normal 0 0 -1
    outer loop
      vertex 2.0098271787431163 -1.6494225388254784 -0.6749999999999998
      vertex 2.0098271787431163 1.6494225388254784 -0.6749999999999998
      vertex 2.1206464862883867 1.5 -0.6749999999999998
    endloop
  endfacet
  facet normal 0 0 -1
    outer loop
      vertex 1.8384776310850237 -1.8384776310850237 -0.6749999999999998
      vertex 1.8384776310850237 1.8384776310850237 -0.6749999999999998
      vertex 2.0098271787431163 1.6494225388254784 -0.6749999999999998
    endloop
  endfacet
  facet normal 0 0 -1
    outer loop
      vertex 2.0098271787431163 -1.6494225388254784 -0.6749999999999998
      vertex 2.1206464862883867 1.5 -0.6749999999999998
      vertex 2.161820991986618 1.4444826058509657 -0.6749999999999998
    endloop
  endfacet
  facet normal 0 0 -1
    outer loop
      vertex 2.161820991986618 -1.4444826058509657 -0.6749999999999998
      vertex 2.161820991986618 1.4444826058509657 -0.6749999999999998
      vertex 2.292995287305723 1.2256315157475939 -0.6749999999999998
    endloop
  endfacet
  facet normal 0 0 -1
    outer loop
      vertex 2.292995287305723 -1.2256315157475939 -0.6749999999999998
      vertex 2.292995287305723 1.2256315157475939 -0.6749999999999998
      vertex 2.4020867845293457 0.9949769241492334 -0.6749999999999998
    endloop
  endfacet
  facet normal 0 0 -1
    outer loop
      vertex 2.4020867845293457 -0.9949769241492334 -0.6749999999999998
      vertex 2.4020867845293457 0.9949769241492334 -0.6749999999999998
      vertex 2.488044872903743 0.7547401608616021 -0.6749999999999998
    endloop
  endfacet
  facet normal 0 0 -1
    outer loop
      vertex 2.488044872903743 -0.7547401608616021 -0.6749999999999998
      vertex 2.488044872903743 0.7547401608616021 -0.6749999999999998
      vertex 2.550041729048399 0.5072348372419334 -0.6749999999999998
    endloop
  endfacet
  facet normal 0 0 -1
    outer loop
      vertex 2.550041729048399 -0.5072348372419334 -0.6749999999999998
      vertex 2.550041729048399 0.5072348372419334 -0.6749999999999998
      vertex 2.5874802893477122 0.2548445648568576 -0.6749999999999998
    endloop
  endfacet
  facet normal 0 0 -1
    outer loop
      vertex 2.5874802893477122 -0.2548445648568576 -0.6749999999999998
      vertex 2.5874802893477122 0.2548445648568576 -0.6749999999999998
      vertex 2.6 0 -0.6749999999999998
    endloop
  endfacet
  facet normal 0.5956993044924328 0.8032075314806454 0
    outer loop
      vertex 1.4444826058509657 2.161820991986618 -0.6749999999999998
      vertex 1.4444826058509657 2.161820991986618 0.6749999999999998
      vertex 1.6494225388254784 2.0098271787431163 -0.6749999999999998
    endloop
  endfacet
  facet normal 0.6715589548470184 0.740951125354959 0
    outer loop
      vertex 1.6494225388254784 2.0098271787431163 -0.6749999999999998
      vertex 1.6494225388254784 2.0098271787431163 0.6749999999999998
      vertex 1.8384776310850237 1.8384776310850237 -0.6749999999999998
    endloop
  endfacet
  facet normal 0.8032075314806452 0.595699304492433 0
    outer loop
      vertex 2.0098271787431163 1.6494225388254784 -0.6749999999999998
      vertex 2.0098271787431163 1.6494225388254784 0.6749999999999998
      vertex 2.1206464862883867 1.5 -0.6749999999999998
    endloop
  endfacet
  facet normal 0.740951125354959 0.6715589548470184 0
    outer loop
      vertex 1.8384776310850237 1.8384776310850237 -0.6749999999999998
      vertex 2.0098271787431163 1.6494225388254784 0.6749999999999998
      vertex 2.0098271787431163 1.6494225388254784 -0.6749999999999998
    endloop
  endfacet
  facet normal 0 0 1
    outer loop
      vertex 0.2548445648568576 -2.5874802893477122 0.6749999999999998
      vertex 0.2548445648568576 2.5874802893477122 0.6749999999999998
      vertex 0 2.6 0.6749999999999998
    endloop
  endfacet
  facet normal 0 0 1
    outer loop
      vertex 0.5072348372419334 -2.550041729048399 0.6749999999999998
      vertex 0.5072348372419334 2.550041729048399 0.6749999999999998
      vertex 0.2548445648568576 2.5874802893477122 0.6749999999999998
    endloop
  endfacet
  facet normal 0 0 1
    outer loop
      vertex 0.7547401608616021 -2.488044872903743 0.6749999999999998
      vertex 0.7547401608616021 2.488044872903743 0.6749999999999998
      vertex 0.5072348372419334 2.550041729048399 0.6749999999999998
    endloop
  endfacet
  facet normal 0 0 1
    outer loop
      vertex 0.9949769241492334 -2.4020867845293457 0.6749999999999998
      vertex 0.9949769241492334 2.4020867845293457 0.6749999999999998
      vertex 0.7547401608616021 2.488044872903743 0.6749999999999998
    endloop
  endfacet
  facet normal 0 0 1
    outer loop
      vertex 1.2256315157475939 -2.292995287305723 0.6749999999999998
      vertex 1.225 2.2932939720097556 0.6749999999999998
      vertex 0.9949769241492334 2.4020867845293457 0.6749999999999998
    endloop
  endfacet
  facet normal 0 0 1
    outer loop
      vertex 1.2256315157475939 -2.292995287305723 0.6749999999999998
      vertex 1.2256315157475939 2.292995287305723 0.6749999999999998
      vertex 1.225 2.2932939720097556 0.6749999999999998
    endloop
  endfacet
  facet normal 0 0 1
    outer loop
      vertex 1.4444826058509657 -2.161820991986618 0.6749999999999998
      vertex 1.4444826058509657 2.161820991986618 0.6749999999999998
      vertex 1.2256315157475939 2.292995287305723 0.6749999999999998
    endloop
  endfacet
  facet normal 0.42755509343022996 0.903989293123468 0
    outer loop
      vertex 1.2256315157475939 2.292995287305723 -0.6749999999999998
      vertex 1.225 2.2932939720097556 0.6749999999999998
      vertex 1.2256315157475939 2.292995287305723 0.6749999999999998
    endloop
  endfacet
  facet normal 0.5141027441932214 0.8577286100002721 0
    outer loop
      vertex 1.4444826058509657 2.161820991986618 -0.6749999999999998
      vertex 1.2256315157475939 2.292995287305723 0.6749999999999998
      vertex 1.4444826058509657 2.161820991986618 0.6749999999999998
    endloop
  endfacet
  facet normal 0 0 1
    outer loop
      vertex 1.8384776310850237 -1.8384776310850237 0.6749999999999998
      vertex 1.8384776310850237 1.8384776310850237 0.6749999999999998
      vertex 1.6494225388254784 2.0098271787431163 0.6749999999999998
    endloop
  endfacet
  facet normal 0 0 1
    outer loop
      vertex 2.0098271787431163 -1.6494225388254784 0.6749999999999998
      vertex 2.0098271787431163 1.6494225388254784 0.6749999999999998
      vertex 1.8384776310850237 1.8384776310850237 0.6749999999999998
    endloop
  endfacet
  facet normal 0 0 1
    outer loop
      vertex 2.161820991986618 -1.4444826058509657 0.6749999999999998
      vertex 2.161820991986618 1.4444826058509657 0.6749999999999998
      vertex 2.1206464862883867 1.5 0.6749999999999998
    endloop
  endfacet
  facet normal 0 0 1
    outer loop
      vertex 2.292995287305723 -1.2256315157475939 0.6749999999999998
      vertex 2.292995287305723 1.2256315157475939 0.6749999999999998
      vertex 2.161820991986618 1.4444826058509657 0.6749999999999998
    endloop
  endfacet
  facet normal 0 0 1
    outer loop
      vertex 2.161820991986618 -1.4444826058509657 0.6749999999999998
      vertex 2.1206464862883867 1.5 0.6749999999999998
      vertex 2.0098271787431163 1.6494225388254784 0.6749999999999998
    endloop
  endfacet
  facet normal 0 0 1
    outer loop
      vertex 1.6494225388254784 -2.0098271787431163 0.6749999999999998
      vertex 1.6494225388254784 2.0098271787431163 0.6749999999999998
      vertex 1.4444826058509657 2.161820991986618 0.6749999999999998
    endloop
  endfacet
  facet normal 0 0 1
    outer loop
      vertex 2.5874802893477122 -0.2548445648568576 0.6749999999999998
      vertex 2.6 0 0.6749999999999998
      vertex 2.5874802893477122 0.2548445648568576 0.6749999999999998
    endloop
  endfacet
  facet normal 0 0 1
    outer loop
      vertex 2.5874802893477122 -0.2548445648568576 0.6749999999999998
      vertex 2.5874802893477122 0.2548445648568576 0.6749999999999998
      vertex 2.550041729048399 0.5072348372419334 0.6749999999999998
    endloop
  endfacet
  facet normal 0 0 1
    outer loop
      vertex 2.550041729048399 -0.5072348372419334 0.6749999999999998
      vertex 2.550041729048399 0.5072348372419334 0.6749999999999998
      vertex 2.488044872903743 0.7547401608616021 0.6749999999999998
    endloop
  endfacet
  facet normal 0 0 1
    outer loop
      vertex 2.488044872903743 -0.7547401608616021 0.6749999999999998
      vertex 2.488044872903743 0.7547401608616021 0.6749999999999998
      vertex 2.4020867845293457 0.9949769241492334 0.6749999999999998
    endloop
  endfacet
  facet normal 0 0 1
    outer loop
      vertex 2.4020867845293457 -0.9949769241492334 0.6749999999999998
      vertex 2.4020867845293457 0.9949769241492334 0.6749999999999998
      vertex 2.292995287305723 1.2256315157475939 0.6749999999999998
    endloop
  endfacet
  facet normal 0.5956993044924328 0.8032075314806454 0
    outer loop
      vertex 1.6494225388254784 2.0098271787431163 -0.6749999999999998
      vertex 1.4444826058509657 2.161820991986618 0.6749999999999998
      vertex 1.6494225388254784 2.0098271787431163 0.6749999999999998
    endloop
  endfacet
  facet normal 0.6715589548470184 0.740951125354959 0
    outer loop
      vertex 1.8384776310850237 1.8384776310850237 -0.6749999999999998
      vertex 1.6494225388254784 2.0098271787431163 0.6749999999999998
      vertex 1.8384776310850237 1.8384776310850237 0.6749999999999998
    endloop
  endfacet
  facet normal 0.740951125354959 0.6715589548470184 0
    outer loop
      vertex 1.8384776310850237 1.8384776310850237 -0.6749999999999998
      vertex 1.8384776310850237 1.8384776310850237 0.6749999999999998
      vertex 2.0098271787431163 1.6494225388254784 0.6749999999999998
    endloop
  endfacet
  facet normal 0.8032075314806452 0.595699304492433 0
    outer loop
      vertex 2.0098271787431163 1.6494225388254784 0.6749999999999998
      vertex 2.1206464862883867 1.5 0.6749999999999998
      vertex 2.1206464862883867 1.5 -0.6749999999999998
    endloop
  endfacet
  facet normal 0 0 -1
    outer loop
      vertex -3 -1.5 -0.6749999999999998
      vertex -2.161820991986618 -1.4444826058509657 -0.6749999999999998
      vertex -2.1206464862883867 -1.5 -0.6749999999999998
    endloop
  endfacet
  facet normal 0 -1 0
    outer loop
      vertex -3 -1.5 -0.6749999999999998
      vertex -2.1206464862883867 -1.5 -0.6749999999999998
      vertex -3 -1.5 0.6749999999999998
    endloop
  endfacet
  facet normal 0 0 -1
    outer loop
      vertex -3 -1.5 -0.6749999999999998
      vertex -2.488044872903743 -0.7547401608616021 -0.6749999999999998
      vertex -2.4020867845293457 -0.9949769241492334 -0.6749999999999998
    endloop
  endfacet
  facet normal 0 0 -1
    outer loop
      vertex -3 -1.5 -0.6749999999999998
      vertex -2.550041729048399 -0.5072348372419334 -0.6749999999999998
      vertex -2.488044872903743 -0.7547401608616021 -0.6749999999999998
    endloop
  endfacet
  facet normal 0 0 -1
    outer loop
      vertex -3 -1.5 -0.6749999999999998
      vertex -2.5874802893477122 -0.2548445648568576 -0.6749999999999998
      vertex -2.550041729048399 -0.5072348372419334 -0.6749999999999998
    endloop
  endfacet
  facet normal 0 0 -1
    outer loop
      vertex -3 -1.5 -0.6749999999999998
      vertex -2.292995287305723 -1.2256315157475939 -0.6749999999999998
      vertex -2.161820991986618 -1.4444826058509657 -0.6749999999999998
    endloop
  endfacet
  facet normal 0 0 -1
    outer loop
      vertex -3 -1.5 -0.6749999999999998
      vertex -2.4020867845293457 -0.9949769241492334 -0.6749999999999998
      vertex -2.292995287305723 -1.2256315157475939 -0.6749999999999998
    endloop
  endfacet
  facet normal 0 0 -1
    outer loop
      vertex -3 -1.5 -0.6749999999999998
      vertex -2.6 0 -0.6749999999999998
      vertex -2.5874802893477122 -0.2548445648568576 -0.6749999999999998
    endloop
  endfacet
  facet normal 0 0 -1
    outer loop
      vertex -3 -1.5 -0.6749999999999998
      vertex -2.5874802893477122 0.2548445648568576 -0.6749999999999998
      vertex -2.6 0 -0.6749999999999998
    endloop
  endfacet
  facet normal 0 -1 0
    outer loop
      vertex -3 -1.5 0.6749999999999998
      vertex -2.1206464862883867 -1.5 -0.6749999999999998
      vertex -2.1206464862883867 -1.5 0.6749999999999998
    endloop
  endfacet
  facet normal 0 0 1
    outer loop
      vertex -3 -1.5 0.6749999999999998
      vertex -2.1206464862883867 -1.5 0.6749999999999998
      vertex -2.161820991986618 -1.4444826058509657 0.6749999999999998
    endloop
  endfacet
  facet normal -1 0 0
    outer loop
      vertex -3 -1.5 -0.6749999999999998
      vertex -3 -1.5 0.6749999999999998
      vertex -3 1.5 0.6749999999999998
    endloop
  endfacet
  facet normal 0 0 1
    outer loop
      vertex -3 -1.5 0.6749999999999998
      vertex -2.4020867845293457 -0.9949769241492334 0.6749999999999998
      vertex -2.488044872903743 -0.7547401608616021 0.6749999999999998
    endloop
  endfacet
  facet normal 0 0 1
    outer loop
      vertex -3 -1.5 0.6749999999999998
      vertex -2.488044872903743 -0.7547401608616021 0.6749999999999998
      vertex -2.550041729048399 -0.5072348372419334 0.6749999999999998
    endloop
  endfacet
  facet normal 0 0 1
    outer loop
      vertex -3 -1.5 0.6749999999999998
      vertex -2.550041729048399 -0.5072348372419334 0.6749999999999998
      vertex -2.5874802893477122 -0.2548445648568576 0.6749999999999998
    endloop
  endfacet
  facet normal 0 0 1
    outer loop
      vertex -3 -1.5 0.6749999999999998
      vertex -2.161820991986618 -1.4444826058509657 0.6749999999999998
      vertex -2.292995287305723 -1.2256315157475939 0.6749999999999998
    endloop
  endfacet
  facet normal 0 0 1
    outer loop
      vertex -3 -1.5 0.6749999999999998
      vertex -2.292995287305723 -1.2256315157475939 0.6749999999999998
      vertex -2.4020867845293457 -0.9949769241492334 0.6749999999999998
    endloop
  endfacet
  facet normal 0 0 1
    outer loop
      vertex -3 -1.5 0.6749999999999998
      vertex -2.5874802893477122 -0.2548445648568576 0.6749999999999998
      vertex -2.6 0 0.6749999999999998
    endloop
  endfacet
  facet normal 0 0 1
    outer loop
      vertex -3 -1.5 0.6749999999999998
      vertex -2.6 0 0.6749999999999998
      vertex -2.5874802893477122 0.2548445648568576 0.6749999999999998
    endloop
  endfacet
  facet normal 0 0 -1
    outer loop
      vertex -3 -1.5 -0.6749999999999998
      vertex -3 1.5 -0.6749999999999998
      vertex -2.5874802893477122 0.2548445648568576 -0.6749999999999998
    endloop
  endfacet
  facet normal 0 0 -1
    outer loop
      vertex -3 1.5 -0.6749999999999998
      vertex -2.550041729048399 0.5072348372419334 -0.6749999999999998
      vertex -2.5874802893477122 0.2548445648568576 -0.6749999999999998
    endloop
  endfacet
  facet normal 0 0 -1
    outer loop
      vertex -3 1.5 -0.6749999999999998
      vertex -2.488044872903743 0.7547401608616021 -0.6749999999999998
      vertex -2.550041729048399 0.5072348372419334 -0.6749999999999998
    endloop
  endfacet
  facet normal 0 0 -1
    outer loop
      vertex -3 1.5 -0.6749999999999998
      vertex -2.4020867845293457 0.9949769241492334 -0.6749999999999998
      vertex -2.488044872903743 0.7547401608616021 -0.6749999999999998
    endloop
  endfacet
  facet normal 0 0 -1
    outer loop
      vertex -3 1.5 -0.6749999999999998
      vertex -2.292995287305723 1.2256315157475939 -0.6749999999999998
      vertex -2.4020867845293457 0.9949769241492334 -0.6749999999999998
    endloop
  endfacet
  facet normal 0 0 -1
    outer loop
      vertex -3 1.5 -0.6749999999999998
      vertex -2.161820991986618 1.4444826058509657 -0.6749999999999998
      vertex -2.292995287305723 1.2256315157475939 -0.6749999999999998
    endloop
  endfacet
  facet normal -1 0 0
    outer loop
      vertex -3 -1.5 -0.6749999999999998
      vertex -3 1.5 0.6749999999999998
      vertex -3 1.5 -0.6749999999999998
    endloop
  endfacet
  facet normal 0 0 -1
    outer loop
      vertex -3 1.5 -0.6749999999999998
      vertex -2.1206464862883867 1.5 -0.6749999999999998
      vertex -2.161820991986618 1.4444826058509657 -0.6749999999999998
    endloop
  endfacet
  facet normal 0 1 0
    outer loop
      vertex -3 1.5 -0.6749999999999998
      vertex -2.1206464862883867 1.5 0.6749999999999998
      vertex -2.1206464862883867 1.5 -0.6749999999999998
    endloop
  endfacet
  facet normal 0 0 1
    outer loop
      vertex -3 -1.5 0.6749999999999998
      vertex -2.5874802893477122 0.2548445648568576 0.6749999999999998
      vertex -3 1.5 0.6749999999999998
    endloop
  endfacet
  facet normal 0 0 1
    outer loop
      vertex -3 1.5 0.6749999999999998
      vertex -2.5874802893477122 0.2548445648568576 0.6749999999999998
      vertex -2.550041729048399 0.5072348372419334 0.6749999999999998
    endloop
  endfacet
  facet normal 0 0 1
    outer loop
      vertex -3 1.5 0.6749999999999998
      vertex -2.550041729048399 0.5072348372419334 0.6749999999999998
      vertex -2.488044872903743 0.7547401608616021 0.6749999999999998
    endloop
  endfacet
  facet normal 0 0 1
    outer loop
      vertex -3 1.5 0.6749999999999998
      vertex -2.488044872903743 0.7547401608616021 0.6749999999999998
      vertex -2.4020867845293457 0.9949769241492334 0.6749999999999998
    endloop
  endfacet
  facet normal 0 0 1
    outer loop
      vertex -3 1.5 0.6749999999999998
      vertex -2.4020867845293457 0.9949769241492334 0.6749999999999998
      vertex -2.292995287305723 1.2256315157475939 0.6749999999999998
    endloop
  endfacet
  facet normal 0 0 1
    outer loop
      vertex -3 1.5 0.6749999999999998
      vertex -2.292995287305723 1.2256315157475939 0.6749999999999998
      vertex -2.161820991986618 1.4444826058509657 0.6749999999999998
    endloop
  endfacet
  facet normal 0 1 0
    outer loop
      vertex -3 1.5 -0.6749999999999998
      vertex -3 1.5 0.6749999999999998
      vertex -2.1206464862883867 1.5 0.6749999999999998
    endloop
  endfacet
  facet normal 0 0 1
    outer loop
      vertex -3 1.5 0.6749999999999998
      vertex -2.161820991986618 1.4444826058509657 0.6749999999999998
      vertex -2.1206464862883867 1.5 0.6749999999999998
    endloop
  endfacet
  facet normal 0 0 -1
    outer loop
      vertex 3 -1.5 -0.6749999999999998
      vertex 2.1206464862883867 -1.5 -0.6749999999999998
      vertex 2.161820991986618 -1.4444826058509657 -0.6749999999999998
    endloop
  endfacet
  facet normal 0 -1 0
    outer loop
      vertex 3 -1.5 -0.6749999999999998
      vertex 2.1206464862883867 -1.5 0.6749999999999998
      vertex 2.1206464862883867 -1.5 -0.6749999999999998
    endloop
  endfacet
  facet normal 0 0 -1
    outer loop
      vertex 3 -1.5 -0.6749999999999998
      vertex 2.161820991986618 -1.4444826058509657 -0.6749999999999998
      vertex 2.292995287305723 -1.2256315157475939 -0.6749999999999998
    endloop
  endfacet
  facet normal 0 0 -1
    outer loop
      vertex 3 -1.5 -0.6749999999999998
      vertex 2.292995287305723 -1.2256315157475939 -0.6749999999999998
      vertex 2.4020867845293457 -0.9949769241492334 -0.6749999999999998
    endloop
  endfacet
  facet normal 0 0 -1
    outer loop
      vertex 3 -1.5 -0.6749999999999998
      vertex 2.4020867845293457 -0.9949769241492334 -0.6749999999999998
      vertex 2.488044872903743 -0.7547401608616021 -0.6749999999999998
    endloop
  endfacet
  facet normal 0 0 -1
    outer loop
      vertex 3 -1.5 -0.6749999999999998
      vertex 2.488044872903743 -0.7547401608616021 -0.6749999999999998
      vertex 2.550041729048399 -0.5072348372419334 -0.6749999999999998
    endloop
  endfacet
  facet normal 0 0 -1
    outer loop
      vertex 3 -1.5 -0.6749999999999998
      vertex 2.550041729048399 -0.5072348372419334 -0.6749999999999998
      vertex 2.5874802893477122 -0.2548445648568576 -0.6749999999999998
    endloop
  endfacet
  facet normal 0 0 -1
    outer loop
      vertex 3 -1.5 -0.6749999999999998
      vertex 2.5874802893477122 -0.2548445648568576 -0.6749999999999998
      vertex 2.6 0 -0.6749999999999998
    endloop
  endfacet
  facet normal 0 0 -1
    outer loop
      vertex 3 -1.5 -0.6749999999999998
      vertex 2.6 0 -0.6749999999999998
      vertex 2.5874802893477122 0.2548445648568576 -0.6749999999999998
    endloop
  endfacet
  facet normal 1 0 0
    outer loop
      vertex 3 -1.5 -0.6749999999999998
      vertex 3 1.5 -0.6749999999999998
      vertex 3 -1.5 0.6749999999999998
    endloop
  endfacet
  facet normal 0 -1 0
    outer loop
      vertex 3 -1.5 -0.6749999999999998
      vertex 3 -1.5 0.6749999999999998
      vertex 2.1206464862883867 -1.5 0.6749999999999998
    endloop
  endfacet
  facet normal 0 0 1
    outer loop
      vertex 3 -1.5 0.6749999999999998
      vertex 2.161820991986618 -1.4444826058509657 0.6749999999999998
      vertex 2.1206464862883867 -1.5 0.6749999999999998
    endloop
  endfacet
  facet normal 0 0 1
    outer loop
      vertex 3 -1.5 0.6749999999999998
      vertex 2.292995287305723 -1.2256315157475939 0.6749999999999998
      vertex 2.161820991986618 -1.4444826058509657 0.6749999999999998
    endloop
  endfacet
  facet normal 0 0 1
    outer loop
      vertex 3 -1.5 0.6749999999999998
      vertex 2.4020867845293457 -0.9949769241492334 0.6749999999999998
      vertex 2.292995287305723 -1.2256315157475939 0.6749999999999998
    endloop
  endfacet
  facet normal 0 0 1
    outer loop
      vertex 3 -1.5 0.6749999999999998
      vertex 2.488044872903743 -0.7547401608616021 0.6749999999999998
      vertex 2.4020867845293457 -0.9949769241492334 0.6749999999999998
    endloop
  endfacet
  facet normal 0 0 1
    outer loop
      vertex 3 -1.5 0.6749999999999998
      vertex 2.550041729048399 -0.5072348372419334 0.6749999999999998
      vertex 2.488044872903743 -0.7547401608616021 0.6749999999999998
    endloop
  endfacet
  facet normal 0 0 1
    outer loop
      vertex 3 -1.5 0.6749999999999998
      vertex 2.5874802893477122 -0.2548445648568576 0.6749999999999998
      vertex 2.550041729048399 -0.5072348372419334 0.6749999999999998
    endloop
  endfacet
  facet normal 0 0 1
    outer loop
      vertex 3 -1.5 0.6749999999999998
      vertex 2.6 0 0.6749999999999998
      vertex 2.5874802893477122 -0.2548445648568576 0.6749999999999998
    endloop
  endfacet
  facet normal 0 0 1
    outer loop
      vertex 3 -1.5 0.6749999999999998
      vertex 2.5874802893477122 0.2548445648568576 0.6749999999999998
      vertex 2.6 0 0.6749999999999998
    endloop
  endfacet
  facet normal 0 0 -1
    outer loop
      vertex 3 -1.5 -0.6749999999999998
      vertex 2.5874802893477122 0.2548445648568576 -0.6749999999999998
      vertex 3 1.5 -0.6749999999999998
    endloop
  endfacet
  facet normal 0 0 -1
    outer loop
      vertex 3 1.5 -0.6749999999999998
      vertex 2.4020867845293457 0.9949769241492334 -0.6749999999999998
      vertex 2.292995287305723 1.2256315157475939 -0.6749999999999998
    endloop
  endfacet
  facet normal 0 0 -1
    outer loop
      vertex 3 1.5 -0.6749999999999998
      vertex 2.292995287305723 1.2256315157475939 -0.6749999999999998
      vertex 2.161820991986618 1.4444826058509657 -0.6749999999999998
    endloop
  endfacet
  facet normal 0 0 -1
    outer loop
      vertex 3 1.5 -0.6749999999999998
      vertex 2.5874802893477122 0.2548445648568576 -0.6749999999999998
      vertex 2.550041729048399 0.5072348372419334 -0.6749999999999998
    endloop
  endfacet
  facet normal 0 0 -1
    outer loop
      vertex 3 1.5 -0.6749999999999998
      vertex 2.550041729048399 0.5072348372419334 -0.6749999999999998
      vertex 2.488044872903743 0.7547401608616021 -0.6749999999999998
    endloop
  endfacet
  facet normal 0 0 -1
    outer loop
      vertex 3 1.5 -0.6749999999999998
      vertex 2.488044872903743 0.7547401608616021 -0.6749999999999998
      vertex 2.4020867845293457 0.9949769241492334 -0.6749999999999998
    endloop
  endfacet
  facet normal 0 0 -1
    outer loop
      vertex 3 1.5 -0.6749999999999998
      vertex 2.161820991986618 1.4444826058509657 -0.6749999999999998
      vertex 2.1206464862883867 1.5 -0.6749999999999998
    endloop
  endfacet
  facet normal 0 1 0
    outer loop
      vertex 3 1.5 -0.6749999999999998
      vertex 2.1206464862883867 1.5 -0.6749999999999998
      vertex 3 1.5 0.6749999999999998
    endloop
  endfacet
  facet normal 1 0 0
    outer loop
      vertex 3 -1.5 0.6749999999999998
      vertex 3 1.5 -0.6749999999999998
      vertex 3 1.5 0.6749999999999998
    endloop
  endfacet
  facet normal 0 0 1
    outer loop
      vertex 3 -1.5 0.6749999999999998
      vertex 3 1.5 0.6749999999999998
      vertex 2.5874802893477122 0.2548445648568576 0.6749999999999998
    endloop
  endfacet
  facet normal 0 0 1
    outer loop
      vertex 3 1.5 0.6749999999999998
      vertex 2.292995287305723 1.2256315157475939 0.6749999999999998
      vertex 2.4020867845293457 0.9949769241492334 0.6749999999999998
    endloop
  endfacet
  facet normal 0 0 1
    outer loop
      vertex 3 1.5 0.6749999999999998
      vertex 2.161820991986618 1.4444826058509657 0.6749999999999998
      vertex 2.292995287305723 1.2256315157475939 0.6749999999999998
    endloop
  endfacet
  facet normal 0 0 1
    outer loop
      vertex 3 1.5 0.6749999999999998
      vertex 2.550041729048399 0.5072348372419334 0.6749999999999998
      vertex 2.5874802893477122 0.2548445648568576 0.6749999999999998
    endloop
  endfacet
  facet normal 0 0 1
    outer loop
      vertex 3 1.5 0.6749999999999998
      vertex 2.488044872903743 0.7547401608616021 0.6749999999999998
      vertex 2.550041729048399 0.5072348372419334 0.6749999999999998
    endloop
  endfacet
  facet normal 0 0 1
    outer loop
      vertex 3 1.5 0.6749999999999998
      vertex 2.4020867845293457 0.9949769241492334 0.6749999999999998
      vertex 2.488044872903743 0.7547401608616021 0.6749999999999998
    endloop
  endfacet
  facet normal 0 1 0
    outer loop
      vertex 3 1.5 0.6749999999999998
      vertex 2.1206464862883867 1.5 -0.6749999999999998
      vertex 2.1206464862883867 1.5 0.6749999999999998
    endloop
  endfacet
  facet normal 0 0 1
    outer loop
      vertex 3 1.5 0.6749999999999998
      vertex 2.1206464862883867 1.5 0.6749999999999998
      vertex 2.161820991986618 1.4444826058509657 0.6749999999999998
    endloop
  endfacet
  facet normal 0 0 -1
    outer loop
      vertex -1.225 -2.85 -0.6749999999999998
      vertex -1.225 -2.2932939720097556 -0.6749999999999998
      vertex -0.9949769241492334 -2.4020867845293457 -0.6749999999999998
    endloop
  endfacet
  facet normal 0 0 -1
    outer loop
      vertex -1.225 -2.85 -0.6749999999999998
      vertex -0.9949769241492334 -2.4020867845293457 -0.6749999999999998
      vertex -0.7547401608616021 -2.488044872903743 -0.6749999999999998
    endloop
  endfacet
  facet normal 0 0 -1
    outer loop
      vertex -1.225 -2.85 -0.6749999999999998
      vertex -0.7547401608616021 -2.488044872903743 -0.6749999999999998
      vertex -0.5072348372419334 -2.550041729048399 -0.6749999999999998
    endloop
  endfacet
  facet normal 0 0 -1
    outer loop
      vertex -1.225 -2.85 -0.6749999999999998
      vertex -0.5072348372419334 -2.550041729048399 -0.6749999999999998
      vertex -0.2548445648568576 -2.5874802893477122 -0.6749999999999998
    endloop
  endfacet
  facet normal 0 0 -1
    outer loop
      vertex -1.225 -2.85 -0.6749999999999998
      vertex -0.2548445648568576 -2.5874802893477122 -0.6749999999999998
      vertex 0 -2.6 -0.6749999999999998
    endloop
  endfacet
  facet normal 0 0 -1
    outer loop
      vertex -1.225 -2.85 -0.6749999999999998
      vertex 0 -2.6 -0.6749999999999998
      vertex 0.7749999999999999 -2.85 -0.6749999999999998
    endloop
  endfacet
  facet normal -1 0 0
    outer loop
      vertex -1.225 -2.85 -0.6749999999999998
      vertex -1.225 -2.2932939720097556 0.6749999999999998
      vertex -1.225 -2.2932939720097556 -0.6749999999999998
    endloop
  endfacet
  facet normal -1 0 0
    outer loop
      vertex -1.225 -2.85 -0.6749999999999998
      vertex -1.225 -2.85 0.6749999999999998
      vertex -1.225 -2.2932939720097556 0.6749999999999998
    endloop
  endfacet
  facet normal 0 -1 0
    outer loop
      vertex -1.225 -2.85 -0.6749999999999998
      vertex 0.7749999999999999 -2.85 0.6749999999999998
      vertex -1.225 -2.85 0.6749999999999998
    endloop
  endfacet
  facet normal 0 0 1
    outer loop
      vertex -1.225 -2.85 0.6749999999999998
      vertex -0.9949769241492334 -2.4020867845293457 0.6749999999999998
      vertex -1.225 -2.2932939720097556 0.6749999999999998
    endloop
  endfacet
  facet normal 0 0 1
    outer loop
      vertex -1.225 -2.85 0.6749999999999998
      vertex -0.7547401608616021 -2.488044872903743 0.6749999999999998
      vertex -0.9949769241492334 -2.4020867845293457 0.6749999999999998
    endloop
  endfacet
  facet normal 0 0 1
    outer loop
      vertex -1.225 -2.85 0.6749999999999998
      vertex -0.5072348372419334 -2.550041729048399 0.6749999999999998
      vertex -0.7547401608616021 -2.488044872903743 0.6749999999999998
    endloop
  endfacet
  facet normal 0 0 1
    outer loop
      vertex -1.225 -2.85 0.6749999999999998
      vertex -0.2548445648568576 -2.5874802893477122 0.6749999999999998
      vertex -0.5072348372419334 -2.550041729048399 0.6749999999999998
    endloop
  endfacet
  facet normal 0 0 1
    outer loop
      vertex -1.225 -2.85 0.6749999999999998
      vertex 0 -2.6 0.6749999999999998
      vertex -0.2548445648568576 -2.5874802893477122 0.6749999999999998
    endloop
  endfacet
  facet normal 0 0 1
    outer loop
      vertex -1.225 -2.85 0.6749999999999998
      vertex 0.7749999999999999 -2.85 0.6749999999999998
      vertex 0 -2.6 0.6749999999999998
    endloop
  endfacet
  facet normal 0 0 -1
    outer loop
      vertex 0.7749999999999999 -2.85 -0.6749999999999998
      vertex 0 -2.6 -0.6749999999999998
      vertex 0.2548445648568576 -2.5874802893477122 -0.6749999999999998
    endloop
  endfacet
  facet normal 0 0 -1
    outer loop
      vertex 0.7749999999999999 -2.85 -0.6749999999999998
      vertex 0.2548445648568576 -2.5874802893477122 -0.6749999999999998
      vertex 0.5072348372419334 -2.550041729048399 -0.6749999999999998
    endloop
  endfacet
  facet normal 0 0 -1
    outer loop
      vertex 0.7749999999999999 -2.85 -0.6749999999999998
      vertex 0.5072348372419334 -2.550041729048399 -0.6749999999999998
      vertex 0.7547401608616021 -2.488044872903743 -0.6749999999999998
    endloop
  endfacet
  facet normal 0 0 -1
    outer loop
      vertex 0.7749999999999999 -2.85 -0.6749999999999998
      vertex 0.7547401608616021 -2.488044872903743 -0.6749999999999998
      vertex 0.7749999999999999 -2.4807957865471124 -0.6749999999999998
    endloop
  endfacet
  facet normal 0 -1 0
    outer loop
      vertex -1.225 -2.85 -0.6749999999999998
      vertex 0.7749999999999999 -2.85 -0.6749999999999998
      vertex 0.7749999999999999 -2.85 0.6749999999999998
    endloop
  endfacet
  facet normal 1 0 0
    outer loop
      vertex 0.7749999999999999 -2.85 -0.6749999999999998
      vertex 0.7749999999999999 -2.4807957865471124 -0.6749999999999998
      vertex 0.7749999999999999 -2.85 0.6749999999999998
    endloop
  endfacet
  facet normal 1 0 0
    outer loop
      vertex 0.7749999999999999 -2.85 0.6749999999999998
      vertex 0.7749999999999999 -2.4807957865471124 -0.6749999999999998
      vertex 0.7749999999999999 -2.4807957865471124 0.6749999999999998
    endloop
  endfacet
  facet normal 0 0 1
    outer loop
      vertex 0.7749999999999999 -2.85 0.6749999999999998
      vertex 0.2548445648568576 -2.5874802893477122 0.6749999999999998
      vertex 0 -2.6 0.6749999999999998
    endloop
  endfacet
  facet normal 0 0 1
    outer loop
      vertex 0.7749999999999999 -2.85 0.6749999999999998
      vertex 0.5072348372419334 -2.550041729048399 0.6749999999999998
      vertex 0.2548445648568576 -2.5874802893477122 0.6749999999999998
    endloop
  endfacet
  facet normal 0 0 1
    outer loop
      vertex 0.7749999999999999 -2.85 0.6749999999999998
      vertex 0.7547401608616021 -2.488044872903743 0.6749999999999998
      vertex 0.5072348372419334 -2.550041729048399 0.6749999999999998
    endloop
  endfacet
  facet normal 0 0 1
    outer loop
      vertex 0.7749999999999999 -2.85 0.6749999999999998
      vertex 0.7749999999999999 -2.4807957865471124 0.6749999999999998
      vertex 0.7547401608616021 -2.488044872903743 0.6749999999999998
    endloop
  endfacet
  facet normal 0 0 -1
    outer loop
      vertex -0.7749999999999999 2.4807957865471124 -0.6749999999999998
      vertex -0.7749999999999999 2.85 -0.6749999999999998
      vertex -0.7547401608616021 2.488044872903743 -0.6749999999999998
    endloop
  endfacet
  facet normal 0 0 -1
    outer loop
      vertex -0.7547401608616021 2.488044872903743 -0.6749999999999998
      vertex -0.7749999999999999 2.85 -0.6749999999999998
      vertex -0.5072348372419334 2.550041729048399 -0.6749999999999998
    endloop
  endfacet
  facet normal 0 0 -1
    outer loop
      vertex -0.7749999999999999 2.85 -0.6749999999999998
      vertex -0.2548445648568576 2.5874802893477122 -0.6749999999999998
      vertex -0.5072348372419334 2.550041729048399 -0.6749999999999998
    endloop
  endfacet
  facet normal 0 0 -1
    outer loop
      vertex -0.7749999999999999 2.85 -0.6749999999999998
      vertex 0 2.6 -0.6749999999999998
      vertex -0.2548445648568576 2.5874802893477122 -0.6749999999999998
    endloop
  endfacet
  facet normal -1 0 0
    outer loop
      vertex -0.7749999999999999 2.4807957865471124 -0.6749999999999998
      vertex -0.7749999999999999 2.85 0.6749999999999998
      vertex -0.7749999999999999 2.85 -0.6749999999999998
    endloop
  endfacet
  facet normal 0 1 0
    outer loop
      vertex -0.7749999999999999 2.85 -0.6749999999999998
      vertex -0.7749999999999999 2.85 0.6749999999999998
      vertex 1.225 2.85 -0.6749999999999998
    endloop
  endfacet
  facet normal -1 0 0
    outer loop
      vertex -0.7749999999999999 2.4807957865471124 -0.6749999999999998
      vertex -0.7749999999999999 2.4807957865471124 0.6749999999999998
      vertex -0.7749999999999999 2.85 0.6749999999999998
    endloop
  endfacet
  facet normal 0 0 1
    outer loop
      vertex -0.7749999999999999 2.4807957865471124 0.6749999999999998
      vertex -0.7547401608616021 2.488044872903743 0.6749999999999998
      vertex -0.7749999999999999 2.85 0.6749999999999998
    endloop
  endfacet
  facet normal 0 0 1
    outer loop
      vertex -0.7547401608616021 2.488044872903743 0.6749999999999998
      vertex -0.5072348372419334 2.550041729048399 0.6749999999999998
      vertex -0.7749999999999999 2.85 0.6749999999999998
    endloop
  endfacet
  facet normal 0 0 1
    outer loop
      vertex -0.7749999999999999 2.85 0.6749999999999998
      vertex -0.5072348372419334 2.550041729048399 0.6749999999999998
      vertex -0.2548445648568576 2.5874802893477122 0.6749999999999998
    endloop
  endfacet
  facet normal 0 0 1
    outer loop
      vertex -0.7749999999999999 2.85 0.6749999999999998
      vertex -0.2548445648568576 2.5874802893477122 0.6749999999999998
      vertex 0 2.6 0.6749999999999998
    endloop
  endfacet
  facet normal 0 0 -1
    outer loop
      vertex -0.7749999999999999 2.85 -0.6749999999999998
      vertex 1.225 2.85 -0.6749999999999998
      vertex 0 2.6 -0.6749999999999998
    endloop
  endfacet
  facet normal 0 0 -1
    outer loop
      vertex 0 2.6 -0.6749999999999998
      vertex 1.225 2.85 -0.6749999999999998
      vertex 0.2548445648568576 2.5874802893477122 -0.6749999999999998
    endloop
  endfacet
  facet normal 0 0 -1
    outer loop
      vertex 0.2548445648568576 2.5874802893477122 -0.6749999999999998
      vertex 1.225 2.85 -0.6749999999999998
      vertex 0.5072348372419334 2.550041729048399 -0.6749999999999998
    endloop
  endfacet
  facet normal 0 0 -1
    outer loop
      vertex 0.5072348372419334 2.550041729048399 -0.6749999999999998
      vertex 1.225 2.85 -0.6749999999999998
      vertex 0.7547401608616021 2.488044872903743 -0.6749999999999998
    endloop
  endfacet
  facet normal 0 0 -1
    outer loop
      vertex 0.7547401608616021 2.488044872903743 -0.6749999999999998
      vertex 1.225 2.85 -0.6749999999999998
      vertex 0.9949769241492334 2.4020867845293457 -0.6749999999999998
    endloop
  endfacet
  facet normal 0 0 -1
    outer loop
      vertex 0.9949769241492334 2.4020867845293457 -0.6749999999999998
      vertex 1.225 2.85 -0.6749999999999998
      vertex 1.225 2.2932939720097556 -0.6749999999999998
    endloop
  endfacet
  facet normal 1 0 0
    outer loop
      vertex 1.225 2.2932939720097556 -0.6749999999999998
      vertex 1.225 2.85 -0.6749999999999998
      vertex 1.225 2.2932939720097556 0.6749999999999998
    endloop
  endfacet
  facet normal 0 1 0
    outer loop
      vertex -0.7749999999999999 2.85 0.6749999999999998
      vertex 1.225 2.85 0.6749999999999998
      vertex 1.225 2.85 -0.6749999999999998
    endloop
  endfacet
  facet normal 1 0 0
    outer loop
      vertex 1.225 2.85 -0.6749999999999998
      vertex 1.225 2.85 0.6749999999999998
      vertex 1.225 2.2932939720097556 0.6749999999999998
    endloop
  endfacet
  facet normal 0 0 1
    outer loop
      vertex -0.7749999999999999 2.85 0.6749999999999998
      vertex 0 2.6 0.6749999999999998
      vertex 1.225 2.85 0.6749999999999998
    endloop
  endfacet
  facet normal 0 0 1
    outer loop
      vertex 0 2.6 0.6749999999999998
      vertex 0.2548445648568576 2.5874802893477122 0.6749999999999998
      vertex 1.225 2.85 0.6749999999999998
    endloop
  endfacet
  facet normal 0 0 1
    outer loop
      vertex 0.2548445648568576 2.5874802893477122 0.6749999999999998
      vertex 0.5072348372419334 2.550041729048399 0.6749999999999998
      vertex 1.225 2.85 0.6749999999999998
    endloop
  endfacet
  facet normal 0 0 1
    outer loop
      vertex 0.5072348372419334 2.550041729048399 0.6749999999999998
      vertex 0.7547401608616021 2.488044872903743 0.6749999999999998
      vertex 1.225 2.85 0.6749999999999998
    endloop
  endfacet
  facet normal 0 0 1
    outer loop
      vertex 0.7547401608616021 2.488044872903743 0.6749999999999998
      vertex 0.9949769241492334 2.4020867845293457 0.6749999999999998
      vertex 1.225 2.85 0.6749999999999998
    endloop
  endfacet
  facet normal 0 0 1
    outer loop
      vertex 0.9949769241492334 2.4020867845293457 0.6749999999999998
      vertex 1.225 2.2932939720097556 0.6749999999999998
      vertex 1.225 2.85 0.6749999999999998
    endloop
  endfacet
endsolid OpenSCAD_Model
