solid OpenSCAD_Model
  facet normal 0 0 1
    outer loop
      vertex -0.375 0.8 0.575
      vertex 0.375 -0.8 0.575
      vertex 0.375 0.8 0.575
    endloop
  endfacet
  facet normal 0 0 1
    outer loop
      vertex 0.375 -0.8 0.575
      vertex -0.375 0.8 0.575
      vertex -0.375 -0.8 0.575
    endloop
  endfacet
  facet normal 0 0 -1
    outer loop
      vertex -0.375 -0.8 -0.575
      vertex 0.375 0.8 -0.575
      vertex 0.375 -0.8 -0.575
    endloop
  endfacet
  facet normal 0 0 -1
    outer loop
      vertex 0.375 0.8 -0.575
      vertex -0.375 -0.8 -0.575
      vertex -0.375 0.8 -0.575
    endloop
  endfacet
  facet normal 0 -1 0
    outer loop
      vertex -0.375 -0.8 -0.575
      vertex 0.375 -0.8 0.575
      vertex -0.375 -0.8 0.575
    endloop
  endfacet
  facet normal 0 -1 0
    outer loop
      vertex 0.375 -0.8 0.575
      vertex -0.375 -0.8 -0.575
      vertex 0.375 -0.8 -0.575
    endloop
  endfacet
  facet normal 1 0 0
    outer loop
      vertex 0.375 -0.8 0.575
      vertex 0.375 0.8 -0.575
      vertex 0.375 0.8 0.575
    endloop
  endfacet
  facet normal 1 0 0
    outer loop
      vertex 0.375 0.8 -0.575
      vertex 0.375 -0.8 0.575
      vertex 0.375 -0.8 -0.575
    endloop
  endfacet
  facet normal 0 1 0
    outer loop
      vertex 0.375 0.8 -0.575
      vertex -0.375 0.8 0.575
      vertex 0.375 0.8 0.575
    endloop
  endfacet
  facet normal 0 1 0
    outer loop
      vertex -0.375 0.8 0.575
      vertex 0.375 0.8 -0.575
      vertex -0.375 0.8 -0.575
    endloop
  endfacet
  facet normal -1 0 0
    outer loop
      vertex -0.375 -0.8 -0.575
      vertex -0.375 0.8 0.575
      vertex -0.375 0.8 -0.575
    endloop
  endfacet
  facet normal -1 0 0
    outer loop
      vertex -0.375 0.8 0.575
      vertex -0.375 -0.8 -0.575
      vertex -0.375 -0.8 0.575
    endloop
  endfacet
endsolid OpenSCAD_Model
