<?xml version="1.0" encoding="UTF-8" standalone="no"?>
<!DOCTYPE svg PUBLIC "-//W3C//DTD SVG 1.1//EN"
 "http://www.w3.org/Graphics/SVG/1.1/DTD/svg11.dtd">
<!-- Generated by graphviz version 5.0.0 (20220707.1540)
 -->
<!-- Title: default Pages: 1 -->
<svg width="836pt" height="341pt"
 viewBox="0.00 0.00 836.44 341.00" xmlns="http://www.w3.org/2000/svg" xmlns:xlink="http://www.w3.org/1999/xlink">
<g id="graph0" class="graph" transform="scale(1 1) rotate(0) translate(4 337)">
<title>default</title>
<polygon fill="white" stroke="transparent" points="-4,4 -4,-337 832.44,-337 832.44,4 -4,4"/>
<!-- root_42 -->
<g id="node1" class="node">
<title>root_42</title>
<g id="a_node1"><a xlink:href="javascript:s=&quot;\(\)\nNone&quot;; console.log(s); alert(s);" xlink:title="root">
<ellipse fill="none" stroke="black" cx="27" cy="-180" rx="27" ry="18"/>
<text text-anchor="middle" x="27" y="-176.3" font-family="Times New Roman,serif" font-size="14.00">root</text>
</a>
</g>
</g>
<!-- default_43 -->
<g id="node2" class="node">
<title>default_43</title>
<g id="a_node2"><a xlink:href="javascript:s=&quot;\(&#x27;default&#x27;,\)\nTestExtrusionAnchors&quot;; console.log(s); alert(s);" xlink:title="TestExtrusionAnchors">
<ellipse fill="none" stroke="black" cx="299.93" cy="-247" rx="35.19" ry="18"/>
<text text-anchor="middle" x="299.93" y="-243.3" font-family="Times New Roman,serif" font-size="14.00">default</text>
</a>
</g>
</g>
<!-- root_42&#45;&gt;default_43 -->
<g id="edge1" class="edge">
<title>root_42&#45;&gt;default_43</title>
<path fill="none" stroke="black" d="M52.52,-186.06C99.22,-197.61 201.32,-222.86 258.35,-236.96"/>
<polygon fill="black" stroke="black" points="257.56,-240.38 268.11,-239.38 259.24,-233.58 257.56,-240.38"/>
</g>
<!-- 45 -->
<g id="node4" class="node">
<title>45</title>
<g id="a_node4"><a xlink:href="javascript:s=&quot;\(&quot;&#x27;test&#x27;,\ &#x27;spline1&#x27;,\ 0\.5,\ ex_end=True,\ linear_compat=True&quot;,\)\nAnnotatedCoordinates&quot;; console.log(s); alert(s);" xlink:title="AnnotatedCoordinates">
<ellipse fill="none" stroke="black" cx="299.93" cy="-153" rx="209.86" ry="18"/>
<text text-anchor="middle" x="299.93" y="-149.3" font-family="Times New Roman,serif" font-size="14.00">&#39;test&#39;, &#39;spline1&#39;, 0.5, ex_end=True, linear_compat=True</text>
</a>
</g>
</g>
<!-- root_42&#45;&gt;45 -->
<g id="edge3" class="edge">
<title>root_42&#45;&gt;45</title>
<path fill="none" stroke="black" d="M53.98,-177.41C77.5,-175.07 114.19,-171.41 152.07,-167.64"/>
<polygon fill="black" stroke="black" points="152.64,-171.1 162.25,-166.62 151.95,-164.13 152.64,-171.1"/>
</g>
<!-- test_44 -->
<g id="node3" class="node">
<title>test_44</title>
<g id="a_node3"><a xlink:href="javascript:s=&quot;\(&#x27;default&#x27;,\ &#x27;test&#x27;\)\nLinearExtrude&quot;; console.log(s); alert(s);" xlink:title="LinearExtrude">
<ellipse fill="none" stroke="black" cx="582.26" cy="-288" rx="27" ry="18"/>
<text text-anchor="middle" x="582.26" y="-284.3" font-family="Times New Roman,serif" font-size="14.00">test</text>
</a>
</g>
</g>
<!-- default_43&#45;&gt;test_44 -->
<g id="edge2" class="edge">
<title>default_43&#45;&gt;test_44</title>
<path fill="none" stroke="black" d="M333.91,-251.82C387.08,-259.6 491.27,-274.84 545.91,-282.83"/>
<polygon fill="black" stroke="black" points="545.43,-286.3 555.83,-284.28 546.44,-279.37 545.43,-286.3"/>
</g>
<!-- coords_46 -->
<g id="node5" class="node">
<title>coords_46</title>
<g id="a_node5"><a xlink:href="javascript:s=&quot;\(&quot;&#x27;test&#x27;,\ &#x27;spline1&#x27;,\ 0\.5,\ ex_end=True,\ linear_compat=True&quot;,\ &#x27;coords&#x27;\)\nCoordinates&quot;; console.log(s); alert(s);" xlink:title="Coordinates">
<ellipse fill="none" stroke="black" cx="582.26" cy="-234" rx="36.29" ry="18"/>
<text text-anchor="middle" x="582.26" y="-230.3" font-family="Times New Roman,serif" font-size="14.00">coords</text>
</a>
</g>
</g>
<!-- 45&#45;&gt;coords_46 -->
<g id="edge4" class="edge">
<title>45&#45;&gt;coords_46</title>
<path fill="none" stroke="black" d="M360.72,-170.28C414.96,-185.95 493.43,-208.62 540.68,-222.27"/>
<polygon fill="black" stroke="black" points="539.97,-225.71 550.55,-225.13 541.92,-218.99 539.97,-225.71"/>
</g>
<!-- x_57 -->
<g id="node16" class="node">
<title>x_57</title>
<g id="a_node16"><a xlink:href="javascript:s=&quot;\(&quot;&#x27;test&#x27;,\ &#x27;spline1&#x27;,\ 0\.5,\ ex_end=True,\ linear_compat=True&quot;,\ &#x27;x&#x27;\)\nText&quot;; console.log(s); alert(s);" xlink:title="Text">
<ellipse fill="none" stroke="black" cx="582.26" cy="-180" rx="27" ry="18"/>
<text text-anchor="middle" x="582.26" y="-176.3" font-family="Times New Roman,serif" font-size="14.00">x</text>
</a>
</g>
</g>
<!-- 45&#45;&gt;x_57 -->
<g id="edge15" class="edge">
<title>45&#45;&gt;x_57</title>
<path fill="none" stroke="black" d="M440.27,-166.42C479.09,-170.16 518,-173.91 545.07,-176.51"/>
<polygon fill="black" stroke="black" points="544.91,-180.02 555.2,-177.49 545.58,-173.05 544.91,-180.02"/>
</g>
<!-- y_58 -->
<g id="node17" class="node">
<title>y_58</title>
<g id="a_node17"><a xlink:href="javascript:s=&quot;\(&quot;&#x27;test&#x27;,\ &#x27;spline1&#x27;,\ 0\.5,\ ex_end=True,\ linear_compat=True&quot;,\ &#x27;y&#x27;\)\nText&quot;; console.log(s); alert(s);" xlink:title="Text">
<ellipse fill="none" stroke="black" cx="582.26" cy="-126" rx="27" ry="18"/>
<text text-anchor="middle" x="582.26" y="-122.3" font-family="Times New Roman,serif" font-size="14.00">y</text>
</a>
</g>
</g>
<!-- 45&#45;&gt;y_58 -->
<g id="edge16" class="edge">
<title>45&#45;&gt;y_58</title>
<path fill="none" stroke="black" d="M440.27,-139.58C479.09,-135.84 518,-132.09 545.07,-129.49"/>
<polygon fill="black" stroke="black" points="545.58,-132.95 555.2,-128.51 544.91,-125.98 545.58,-132.95"/>
</g>
<!-- z_59 -->
<g id="node18" class="node">
<title>z_59</title>
<g id="a_node18"><a xlink:href="javascript:s=&quot;\(&quot;&#x27;test&#x27;,\ &#x27;spline1&#x27;,\ 0\.5,\ ex_end=True,\ linear_compat=True&quot;,\ &#x27;z&#x27;\)\nText&quot;; console.log(s); alert(s);" xlink:title="Text">
<ellipse fill="none" stroke="black" cx="582.26" cy="-72" rx="27" ry="18"/>
<text text-anchor="middle" x="582.26" y="-68.3" font-family="Times New Roman,serif" font-size="14.00">z</text>
</a>
</g>
</g>
<!-- 45&#45;&gt;z_59 -->
<g id="edge17" class="edge">
<title>45&#45;&gt;z_59</title>
<path fill="none" stroke="black" d="M360.72,-135.72C417.53,-119.31 500.94,-95.21 547.2,-81.84"/>
<polygon fill="black" stroke="black" points="548.39,-85.14 557.03,-79 546.45,-78.42 548.39,-85.14"/>
</g>
<!-- label_60 -->
<g id="node19" class="node">
<title>label_60</title>
<g id="a_node19"><a xlink:href="javascript:s=&quot;\(&quot;&#x27;test&#x27;,\ &#x27;spline1&#x27;,\ 0\.5,\ ex_end=True,\ linear_compat=True&quot;,\ &#x27;label&#x27;\)\nText&quot;; console.log(s); alert(s);" xlink:title="Text">
<ellipse fill="none" stroke="black" cx="582.26" cy="-18" rx="27.1" ry="18"/>
<text text-anchor="middle" x="582.26" y="-14.3" font-family="Times New Roman,serif" font-size="14.00">label</text>
</a>
</g>
</g>
<!-- 45&#45;&gt;label_60 -->
<g id="edge18" class="edge">
<title>45&#45;&gt;label_60</title>
<path fill="none" stroke="black" d="M337.87,-135.21C393.71,-108.32 498.62,-57.8 550.54,-32.79"/>
<polygon fill="black" stroke="black" points="552.1,-35.93 559.59,-28.43 549.07,-29.62 552.1,-35.93"/>
</g>
<!-- origin_47 -->
<g id="node6" class="node">
<title>origin_47</title>
<g id="a_node6"><a xlink:href="javascript:s=&quot;\(&quot;&#x27;test&#x27;,\ &#x27;spline1&#x27;,\ 0\.5,\ ex_end=True,\ linear_compat=True&quot;,\ &#x27;coords&#x27;,\ &#x27;origin&#x27;\)\nCoordinatesCage&quot;; console.log(s); alert(s);" xlink:title="CoordinatesCage">
<ellipse fill="none" stroke="black" cx="695.6" cy="-315" rx="31.4" ry="18"/>
<text text-anchor="middle" x="695.6" y="-311.3" font-family="Times New Roman,serif" font-size="14.00">origin</text>
</a>
</g>
</g>
<!-- coords_46&#45;&gt;origin_47 -->
<g id="edge5" class="edge">
<title>coords_46&#45;&gt;origin_47</title>
<path fill="none" stroke="black" d="M603,-249.01C622.31,-263.69 649.54,-284.34 654.66,-288 658.18,-290.52 661.91,-293.13 665.62,-295.68"/>
<polygon fill="black" stroke="black" points="663.9,-298.74 674.14,-301.47 667.84,-292.95 663.9,-298.74"/>
</g>
<!-- x_arrow_48 -->
<g id="node7" class="node">
<title>x_arrow_48</title>
<g id="a_node7"><a xlink:href="javascript:s=&quot;\(&quot;&#x27;test&#x27;,\ &#x27;spline1&#x27;,\ 0\.5,\ ex_end=True,\ linear_compat=True&quot;,\ &#x27;coords&#x27;,\ &#x27;x_arrow&#x27;\)\nArrow&quot;; console.log(s); alert(s);" xlink:title="Arrow">
<ellipse fill="none" stroke="black" cx="695.6" cy="-261" rx="40.89" ry="18"/>
<text text-anchor="middle" x="695.6" y="-257.3" font-family="Times New Roman,serif" font-size="14.00">x_arrow</text>
</a>
</g>
</g>
<!-- coords_46&#45;&gt;x_arrow_48 -->
<g id="edge6" class="edge">
<title>coords_46&#45;&gt;x_arrow_48</title>
<path fill="none" stroke="black" d="M615.17,-241.74C625.8,-244.32 637.86,-247.24 649.32,-250.02"/>
<polygon fill="black" stroke="black" points="648.63,-253.45 659.17,-252.41 650.28,-246.65 648.63,-253.45"/>
</g>
<!-- y_arrow_51 -->
<g id="node10" class="node">
<title>y_arrow_51</title>
<g id="a_node10"><a xlink:href="javascript:s=&quot;\(&quot;&#x27;test&#x27;,\ &#x27;spline1&#x27;,\ 0\.5,\ ex_end=True,\ linear_compat=True&quot;,\ &#x27;coords&#x27;,\ &#x27;y_arrow&#x27;\)\nArrow&quot;; console.log(s); alert(s);" xlink:title="Arrow">
<ellipse fill="none" stroke="black" cx="695.6" cy="-207" rx="40.89" ry="18"/>
<text text-anchor="middle" x="695.6" y="-203.3" font-family="Times New Roman,serif" font-size="14.00">y_arrow</text>
</a>
</g>
</g>
<!-- coords_46&#45;&gt;y_arrow_51 -->
<g id="edge9" class="edge">
<title>coords_46&#45;&gt;y_arrow_51</title>
<path fill="none" stroke="black" d="M615.17,-226.26C625.8,-223.68 637.86,-220.76 649.32,-217.98"/>
<polygon fill="black" stroke="black" points="650.28,-221.35 659.17,-215.59 648.63,-214.55 650.28,-221.35"/>
</g>
<!-- z_arrow_54 -->
<g id="node13" class="node">
<title>z_arrow_54</title>
<g id="a_node13"><a xlink:href="javascript:s=&quot;\(&quot;&#x27;test&#x27;,\ &#x27;spline1&#x27;,\ 0\.5,\ ex_end=True,\ linear_compat=True&quot;,\ &#x27;coords&#x27;,\ &#x27;z_arrow&#x27;\)\nArrow&quot;; console.log(s); alert(s);" xlink:title="Arrow">
<ellipse fill="none" stroke="black" cx="695.6" cy="-99" rx="40.09" ry="18"/>
<text text-anchor="middle" x="695.6" y="-95.3" font-family="Times New Roman,serif" font-size="14.00">z_arrow</text>
</a>
</g>
</g>
<!-- coords_46&#45;&gt;z_arrow_54 -->
<g id="edge12" class="edge">
<title>coords_46&#45;&gt;z_arrow_54</title>
<path fill="none" stroke="black" d="M604.37,-219.58C609.31,-215.76 614.37,-211.46 618.66,-207 642.82,-181.88 665.07,-148.5 679.16,-125.54"/>
<polygon fill="black" stroke="black" points="682.33,-127.05 684.5,-116.68 676.34,-123.44 682.33,-127.05"/>
</g>
<!-- stem_49 -->
<g id="node8" class="node">
<title>stem_49</title>
<g id="a_node8"><a xlink:href="javascript:s=&quot;\(&quot;&#x27;test&#x27;,\ &#x27;spline1&#x27;,\ 0\.5,\ ex_end=True,\ linear_compat=True&quot;,\ &#x27;coords&#x27;,\ &#x27;x_arrow&#x27;,\ &#x27;stem&#x27;\)\nCone&quot;; console.log(s); alert(s);" xlink:title="Cone">
<ellipse fill="none" stroke="black" cx="800.5" cy="-315" rx="27.9" ry="18"/>
<text text-anchor="middle" x="800.5" y="-311.3" font-family="Times New Roman,serif" font-size="14.00">stem</text>
</a>
</g>
</g>
<!-- x_arrow_48&#45;&gt;stem_49 -->
<g id="edge7" class="edge">
<title>x_arrow_48&#45;&gt;stem_49</title>
<path fill="none" stroke="black" d="M722.57,-274.63C736.73,-282.06 754.34,-291.3 769.14,-299.07"/>
<polygon fill="black" stroke="black" points="767.91,-302.37 778.39,-303.92 771.16,-296.18 767.91,-302.37"/>
</g>
<!-- head_50 -->
<g id="node9" class="node">
<title>head_50</title>
<g id="a_node9"><a xlink:href="javascript:s=&quot;\(&quot;&#x27;test&#x27;,\ &#x27;spline1&#x27;,\ 0\.5,\ ex_end=True,\ linear_compat=True&quot;,\ &#x27;coords&#x27;,\ &#x27;x_arrow&#x27;,\ &#x27;head&#x27;\)\nCone&quot;; console.log(s); alert(s);" xlink:title="Cone">
<ellipse fill="none" stroke="black" cx="800.5" cy="-261" rx="27.9" ry="18"/>
<text text-anchor="middle" x="800.5" y="-257.3" font-family="Times New Roman,serif" font-size="14.00">head</text>
</a>
</g>
</g>
<!-- x_arrow_48&#45;&gt;head_50 -->
<g id="edge8" class="edge">
<title>x_arrow_48&#45;&gt;head_50</title>
<path fill="none" stroke="black" d="M736.68,-261C745.09,-261 753.93,-261 762.23,-261"/>
<polygon fill="black" stroke="black" points="762.39,-264.5 772.39,-261 762.39,-257.5 762.39,-264.5"/>
</g>
<!-- stem_52 -->
<g id="node11" class="node">
<title>stem_52</title>
<g id="a_node11"><a xlink:href="javascript:s=&quot;\(&quot;&#x27;test&#x27;,\ &#x27;spline1&#x27;,\ 0\.5,\ ex_end=True,\ linear_compat=True&quot;,\ &#x27;coords&#x27;,\ &#x27;y_arrow&#x27;,\ &#x27;stem&#x27;\)\nCone&quot;; console.log(s); alert(s);" xlink:title="Cone">
<ellipse fill="none" stroke="black" cx="800.5" cy="-207" rx="27.9" ry="18"/>
<text text-anchor="middle" x="800.5" y="-203.3" font-family="Times New Roman,serif" font-size="14.00">stem</text>
</a>
</g>
</g>
<!-- y_arrow_51&#45;&gt;stem_52 -->
<g id="edge10" class="edge">
<title>y_arrow_51&#45;&gt;stem_52</title>
<path fill="none" stroke="black" d="M736.68,-207C745.09,-207 753.93,-207 762.23,-207"/>
<polygon fill="black" stroke="black" points="762.39,-210.5 772.39,-207 762.39,-203.5 762.39,-210.5"/>
</g>
<!-- head_53 -->
<g id="node12" class="node">
<title>head_53</title>
<g id="a_node12"><a xlink:href="javascript:s=&quot;\(&quot;&#x27;test&#x27;,\ &#x27;spline1&#x27;,\ 0\.5,\ ex_end=True,\ linear_compat=True&quot;,\ &#x27;coords&#x27;,\ &#x27;y_arrow&#x27;,\ &#x27;head&#x27;\)\nCone&quot;; console.log(s); alert(s);" xlink:title="Cone">
<ellipse fill="none" stroke="black" cx="800.5" cy="-153" rx="27.9" ry="18"/>
<text text-anchor="middle" x="800.5" y="-149.3" font-family="Times New Roman,serif" font-size="14.00">head</text>
</a>
</g>
</g>
<!-- y_arrow_51&#45;&gt;head_53 -->
<g id="edge11" class="edge">
<title>y_arrow_51&#45;&gt;head_53</title>
<path fill="none" stroke="black" d="M722.57,-193.37C736.73,-185.94 754.34,-176.7 769.14,-168.93"/>
<polygon fill="black" stroke="black" points="771.16,-171.82 778.39,-164.08 767.91,-165.63 771.16,-171.82"/>
</g>
<!-- stem_55 -->
<g id="node14" class="node">
<title>stem_55</title>
<g id="a_node14"><a xlink:href="javascript:s=&quot;\(&quot;&#x27;test&#x27;,\ &#x27;spline1&#x27;,\ 0\.5,\ ex_end=True,\ linear_compat=True&quot;,\ &#x27;coords&#x27;,\ &#x27;z_arrow&#x27;,\ &#x27;stem&#x27;\)\nCone&quot;; console.log(s); alert(s);" xlink:title="Cone">
<ellipse fill="none" stroke="black" cx="800.5" cy="-99" rx="27.9" ry="18"/>
<text text-anchor="middle" x="800.5" y="-95.3" font-family="Times New Roman,serif" font-size="14.00">stem</text>
</a>
</g>
</g>
<!-- z_arrow_54&#45;&gt;stem_55 -->
<g id="edge13" class="edge">
<title>z_arrow_54&#45;&gt;stem_55</title>
<path fill="none" stroke="black" d="M736.09,-99C744.71,-99 753.81,-99 762.34,-99"/>
<polygon fill="black" stroke="black" points="762.39,-102.5 772.39,-99 762.39,-95.5 762.39,-102.5"/>
</g>
<!-- head_56 -->
<g id="node15" class="node">
<title>head_56</title>
<g id="a_node15"><a xlink:href="javascript:s=&quot;\(&quot;&#x27;test&#x27;,\ &#x27;spline1&#x27;,\ 0\.5,\ ex_end=True,\ linear_compat=True&quot;,\ &#x27;coords&#x27;,\ &#x27;z_arrow&#x27;,\ &#x27;head&#x27;\)\nCone&quot;; console.log(s); alert(s);" xlink:title="Cone">
<ellipse fill="none" stroke="black" cx="800.5" cy="-45" rx="27.9" ry="18"/>
<text text-anchor="middle" x="800.5" y="-41.3" font-family="Times New Roman,serif" font-size="14.00">head</text>
</a>
</g>
</g>
<!-- z_arrow_54&#45;&gt;head_56 -->
<g id="edge14" class="edge">
<title>z_arrow_54&#45;&gt;head_56</title>
<path fill="none" stroke="black" d="M722.3,-85.51C736.6,-78.01 754.47,-68.63 769.41,-60.79"/>
<polygon fill="black" stroke="black" points="771.05,-63.88 778.28,-56.14 767.8,-57.68 771.05,-63.88"/>
</g>
</g>
</svg>
