solid OpenSCAD_Model
  facet normal 0.9973147450392474 0 -0.07323455009284173
    outer loop
      vertex 4.801000001229745 -10 -2.709999996399376
      vertex 4.999999997444682 -7.5 0
      vertex 4.999999997444682 -10 0
    endloop
  endfacet
  facet normal 0.9973147450392474 0 -0.07323455009284173
    outer loop
      vertex 4.801000001229745 -10 -2.709999996399376
      vertex 4.801000001229745 -7.5 -2.709999996399376
      vertex 4.999999997444682 -7.5 0
    endloop
  endfacet
  facet normal 0.9690292039570455 0 -0.24694615177883367
    outer loop
      vertex 4.248000000072931 -10 -4.880000002672662
      vertex 4.801000001229745 -7.5 -2.709999996399376
      vertex 4.801000001229745 -10 -2.709999996399376
    endloop
  endfacet
  facet normal 0.9690292039570455 0 -0.24694615177883367
    outer loop
      vertex 4.248000000072931 -10 -4.880000002672662
      vertex 4.248000000072931 -7.5 -4.880000002672662
      vertex 4.801000001229745 -7.5 -2.709999996399376
    endloop
  endfacet
  facet normal 0.8952731797820526 0 -0.44551760185533923
    outer loop
      vertex 3.406999998913845 -10 -6.56999999840545
      vertex 4.248000000072931 -7.5 -4.880000002672662
      vertex 4.248000000072931 -10 -4.880000002672662
    endloop
  endfacet
  facet normal 0.8952731797820526 0 -0.44551760185533923
    outer loop
      vertex 3.406999998913845 -10 -6.56999999840545
      vertex 3.406999998913845 -7.5 -6.56999999840545
      vertex 4.248000000072931 -7.5 -4.880000002672662
    endloop
  endfacet
  facet normal 0.766833695311081 0 -0.6418458410985867
    outer loop
      vertex 2.3439999974237375 -10 -7.840000000061827
      vertex 3.406999998913845 -7.5 -6.56999999840545
      vertex 3.406999998913845 -10 -6.56999999840545
    endloop
  endfacet
  facet normal 0.766833695311081 0 -0.6418458410985867
    outer loop
      vertex 2.3439999974237375 -10 -7.840000000061827
      vertex 2.3439999974237375 -7.5 -7.840000000061827
      vertex 3.406999998913845 -7.5 -6.56999999840545
    endloop
  endfacet
  facet normal 0.5982104437567703 0 -0.801339044961824
    outer loop
      vertex 1.1250000005422107 -10 -8.749999997764098
      vertex 2.3439999974237375 -7.5 -7.840000000061827
      vertex 2.3439999974237375 -10 -7.840000000061827
    endloop
  endfacet
  facet normal 0.5982104437567703 0 -0.801339044961824
    outer loop
      vertex 1.1250000005422107 -10 -8.749999997764098
      vertex 1.1250000005422107 -7.5 -8.749999997764098
      vertex 2.3439999974237375 -7.5 -7.840000000061827
    endloop
  endfacet
  facet normal 0.4223926019884702 0 -0.9064129797092548
    outer loop
      vertex -0.1840000025961981 -10 -9.359999997439635
      vertex 1.1250000005422107 -7.5 -8.749999997764098
      vertex 1.1250000005422107 -10 -8.749999997764098
    endloop
  endfacet
  facet normal 0.4223926019884702 0 -0.9064129797092548
    outer loop
      vertex -0.1840000025961981 -10 -9.359999997439635
      vertex -0.1840000025961981 -7.5 -9.359999997439635
      vertex 1.1250000005422107 -7.5 -8.749999997764098
    endloop
  endfacet
  facet normal 0.26745745109444685 0 -0.9635696715100893
    outer loop
      vertex -1.5169999965151741 -10 -9.72999999974746
      vertex -0.1840000025961981 -7.5 -9.359999997439635
      vertex -0.1840000025961981 -10 -9.359999997439635
    endloop
  endfacet
  facet normal 0.26745745109444685 0 -0.9635696715100893
    outer loop
      vertex -1.5169999965151741 -10 -9.72999999974746
      vertex -1.5169999965151741 -7.5 -9.72999999974746
      vertex -0.1840000025961981 -7.5 -9.359999997439635
    endloop
  endfacet
  facet normal 0.14560430036929115 0 -0.989342907041825
    outer loop
      vertex -2.8080000026168923 -10 -9.920000000078229
      vertex -1.5169999965151741 -7.5 -9.72999999974746
      vertex -1.5169999965151741 -10 -9.72999999974746
    endloop
  endfacet
  facet normal 0.14560430036929115 0 -0.989342907041825
    outer loop
      vertex -2.8080000026168923 -10 -9.920000000078229
      vertex -2.8080000026168923 -7.5 -9.920000000078229
      vertex -1.5169999965151741 -7.5 -9.72999999974746
    endloop
  endfacet
  facet normal 0.0590682844767635 0 -0.9982539445296332
    outer loop
      vertex -3.9910000001566788 -10 -9.99000000435932
      vertex -2.8080000026168923 -7.5 -9.920000000078229
      vertex -2.8080000026168923 -10 -9.920000000078229
    endloop
  endfacet
  facet normal 0.0590682844767635 0 -0.9982539445296332
    outer loop
      vertex -3.9910000001566788 -10 -9.99000000435932
      vertex -3.9910000001566788 -7.5 -9.99000000435932
      vertex -2.8080000026168923 -7.5 -9.920000000078229
    endloop
  endfacet
  facet normal 0.009910309221062355 0 -0.9999508916797578
    outer loop
      vertex -5 -10 -9.999999997444682
      vertex -3.9910000001566788 -7.5 -9.99000000435932
      vertex -3.9910000001566788 -10 -9.99000000435932
    endloop
  endfacet
  facet normal 0.009910309221062355 0 -0.9999508916797578
    outer loop
      vertex -5 -10 -9.999999997444682
      vertex -5 -7.5 -9.999999997444682
      vertex -3.9910000001566788 -7.5 -9.99000000435932
    endloop
  endfacet
  facet normal -1 0 0
    outer loop
      vertex -5 -10 0
      vertex -5 -7.5 -9.999999997444682
      vertex -5 -10 -9.999999997444682
    endloop
  endfacet
  facet normal -1 0 0
    outer loop
      vertex -5 -10 0
      vertex -5 -7.5 0
      vertex -5 -7.5 -9.999999997444682
    endloop
  endfacet
  facet normal 0 0 1
    outer loop
      vertex 4.999999997444682 -10 0
      vertex -5 -7.5 0
      vertex -5 -10 0
    endloop
  endfacet
  facet normal 0 0 1
    outer loop
      vertex 4.999999997444682 -10 0
      vertex 4.999999997444682 -7.5 0
      vertex -5 -7.5 0
    endloop
  endfacet
  facet normal 0.9973147450392474 0 -0.07323455009284173
    outer loop
      vertex 4.801000001229745 -7.5 -2.709999996399376
      vertex 4.999999997444682 -5 0
      vertex 4.999999997444682 -7.5 0
    endloop
  endfacet
  facet normal 0.9973147450392474 0 -0.07323455009284173
    outer loop
      vertex 4.801000001229745 -7.5 -2.709999996399376
      vertex 4.801000001229745 -5 -2.709999996399376
      vertex 4.999999997444682 -5 0
    endloop
  endfacet
  facet normal 0.9690292039570455 0 -0.24694615177883367
    outer loop
      vertex 4.248000000072931 -7.5 -4.880000002672662
      vertex 4.801000001229745 -5 -2.709999996399376
      vertex 4.801000001229745 -7.5 -2.709999996399376
    endloop
  endfacet
  facet normal 0.9690292039570455 0 -0.24694615177883367
    outer loop
      vertex 4.248000000072931 -7.5 -4.880000002672662
      vertex 4.248000000072931 -5 -4.880000002672662
      vertex 4.801000001229745 -5 -2.709999996399376
    endloop
  endfacet
  facet normal 0.8952731797820526 0 -0.44551760185533923
    outer loop
      vertex 3.406999998913845 -7.5 -6.56999999840545
      vertex 4.248000000072931 -5 -4.880000002672662
      vertex 4.248000000072931 -7.5 -4.880000002672662
    endloop
  endfacet
  facet normal 0.8952731797820526 0 -0.44551760185533923
    outer loop
      vertex 3.406999998913845 -7.5 -6.56999999840545
      vertex 3.406999998913845 -5 -6.56999999840545
      vertex 4.248000000072931 -5 -4.880000002672662
    endloop
  endfacet
  facet normal 0.766833695311081 0 -0.6418458410985867
    outer loop
      vertex 2.3439999974237375 -7.5 -7.840000000061827
      vertex 3.406999998913845 -5 -6.56999999840545
      vertex 3.406999998913845 -7.5 -6.56999999840545
    endloop
  endfacet
  facet normal 0.766833695311081 0 -0.6418458410985867
    outer loop
      vertex 2.3439999974237375 -7.5 -7.840000000061827
      vertex 2.3439999974237375 -5 -7.840000000061827
      vertex 3.406999998913845 -5 -6.56999999840545
    endloop
  endfacet
  facet normal 0.5982104437567703 0 -0.801339044961824
    outer loop
      vertex 1.1250000005422107 -7.5 -8.749999997764098
      vertex 2.3439999974237375 -5 -7.840000000061827
      vertex 2.3439999974237375 -7.5 -7.840000000061827
    endloop
  endfacet
  facet normal 0.5982104437567703 0 -0.801339044961824
    outer loop
      vertex 1.1250000005422107 -7.5 -8.749999997764098
      vertex 1.1250000005422107 -5 -8.749999997764098
      vertex 2.3439999974237375 -5 -7.840000000061827
    endloop
  endfacet
  facet normal 0.4223926019884702 0 -0.9064129797092548
    outer loop
      vertex -0.1840000025961981 -7.5 -9.359999997439635
      vertex 1.1250000005422107 -5 -8.749999997764098
      vertex 1.1250000005422107 -7.5 -8.749999997764098
    endloop
  endfacet
  facet normal 0.4223926019884702 0 -0.9064129797092548
    outer loop
      vertex -0.1840000025961981 -7.5 -9.359999997439635
      vertex -0.1840000025961981 -5 -9.359999997439635
      vertex 1.1250000005422107 -5 -8.749999997764098
    endloop
  endfacet
  facet normal 0.26745745109444685 0 -0.9635696715100893
    outer loop
      vertex -1.5169999965151741 -7.5 -9.72999999974746
      vertex -0.1840000025961981 -5 -9.359999997439635
      vertex -0.1840000025961981 -7.5 -9.359999997439635
    endloop
  endfacet
  facet normal 0.26745745109444685 0 -0.9635696715100893
    outer loop
      vertex -1.5169999965151741 -7.5 -9.72999999974746
      vertex -1.5169999965151741 -5 -9.72999999974746
      vertex -0.1840000025961981 -5 -9.359999997439635
    endloop
  endfacet
  facet normal 0.14560430036929115 0 -0.989342907041825
    outer loop
      vertex -2.8080000026168923 -7.5 -9.920000000078229
      vertex -1.5169999965151741 -5 -9.72999999974746
      vertex -1.5169999965151741 -7.5 -9.72999999974746
    endloop
  endfacet
  facet normal 0.14560430036929115 0 -0.989342907041825
    outer loop
      vertex -2.8080000026168923 -7.5 -9.920000000078229
      vertex -2.8080000026168923 -5 -9.920000000078229
      vertex -1.5169999965151741 -5 -9.72999999974746
    endloop
  endfacet
  facet normal 0.0590682844767635 0 -0.9982539445296332
    outer loop
      vertex -3.9910000001566788 -7.5 -9.99000000435932
      vertex -2.8080000026168923 -5 -9.920000000078229
      vertex -2.8080000026168923 -7.5 -9.920000000078229
    endloop
  endfacet
  facet normal 0.0590682844767635 0 -0.9982539445296332
    outer loop
      vertex -3.9910000001566788 -7.5 -9.99000000435932
      vertex -3.9910000001566788 -5 -9.99000000435932
      vertex -2.8080000026168923 -5 -9.920000000078229
    endloop
  endfacet
  facet normal 0.009910309221062355 0 -0.9999508916797578
    outer loop
      vertex -5 -7.5 -9.999999997444682
      vertex -3.9910000001566788 -5 -9.99000000435932
      vertex -3.9910000001566788 -7.5 -9.99000000435932
    endloop
  endfacet
  facet normal 0.009910309221062355 0 -0.9999508916797578
    outer loop
      vertex -5 -7.5 -9.999999997444682
      vertex -5 -5 -9.999999997444682
      vertex -3.9910000001566788 -5 -9.99000000435932
    endloop
  endfacet
  facet normal -1 0 0
    outer loop
      vertex -5 -7.5 0
      vertex -5 -5 -9.999999997444682
      vertex -5 -7.5 -9.999999997444682
    endloop
  endfacet
  facet normal -1 0 0
    outer loop
      vertex -5 -7.5 0
      vertex -5 -5 0
      vertex -5 -5 -9.999999997444682
    endloop
  endfacet
  facet normal 0 0 1
    outer loop
      vertex 4.999999997444682 -7.5 0
      vertex -5 -5 0
      vertex -5 -7.5 0
    endloop
  endfacet
  facet normal 0 0 1
    outer loop
      vertex 4.999999997444682 -7.5 0
      vertex 4.999999997444682 -5 0
      vertex -5 -5 0
    endloop
  endfacet
  facet normal 0.9973147450392474 0 -0.07323455009284173
    outer loop
      vertex 4.801000001229745 -5 -2.709999996399376
      vertex 4.999999997444682 -2.5 0
      vertex 4.999999997444682 -5 0
    endloop
  endfacet
  facet normal 0.9973147450392474 0 -0.07323455009284173
    outer loop
      vertex 4.801000001229745 -5 -2.709999996399376
      vertex 4.801000001229745 -2.5 -2.709999996399376
      vertex 4.999999997444682 -2.5 0
    endloop
  endfacet
  facet normal 0.9690292039570455 0 -0.24694615177883367
    outer loop
      vertex 4.248000000072931 -5 -4.880000002672662
      vertex 4.801000001229745 -2.5 -2.709999996399376
      vertex 4.801000001229745 -5 -2.709999996399376
    endloop
  endfacet
  facet normal 0.9690292039570455 0 -0.24694615177883367
    outer loop
      vertex 4.248000000072931 -5 -4.880000002672662
      vertex 4.248000000072931 -2.5 -4.880000002672662
      vertex 4.801000001229745 -2.5 -2.709999996399376
    endloop
  endfacet
  facet normal 0.8952731797820526 0 -0.44551760185533923
    outer loop
      vertex 3.406999998913845 -5 -6.56999999840545
      vertex 4.248000000072931 -2.5 -4.880000002672662
      vertex 4.248000000072931 -5 -4.880000002672662
    endloop
  endfacet
  facet normal 0.8952731797820526 0 -0.44551760185533923
    outer loop
      vertex 3.406999998913845 -5 -6.56999999840545
      vertex 3.406999998913845 -2.5 -6.56999999840545
      vertex 4.248000000072931 -2.5 -4.880000002672662
    endloop
  endfacet
  facet normal 0.766833695311081 0 -0.6418458410985867
    outer loop
      vertex 2.3439999974237375 -5 -7.840000000061827
      vertex 3.406999998913845 -2.5 -6.56999999840545
      vertex 3.406999998913845 -5 -6.56999999840545
    endloop
  endfacet
  facet normal 0.766833695311081 0 -0.6418458410985867
    outer loop
      vertex 2.3439999974237375 -5 -7.840000000061827
      vertex 2.3439999974237375 -2.5 -7.840000000061827
      vertex 3.406999998913845 -2.5 -6.56999999840545
    endloop
  endfacet
  facet normal 0.5982104437567703 0 -0.801339044961824
    outer loop
      vertex 1.1250000005422107 -5 -8.749999997764098
      vertex 2.3439999974237375 -2.5 -7.840000000061827
      vertex 2.3439999974237375 -5 -7.840000000061827
    endloop
  endfacet
  facet normal 0.5982104437567703 0 -0.801339044961824
    outer loop
      vertex 1.1250000005422107 -5 -8.749999997764098
      vertex 1.1250000005422107 -2.5 -8.749999997764098
      vertex 2.3439999974237375 -2.5 -7.840000000061827
    endloop
  endfacet
  facet normal 0.4223926019884702 0 -0.9064129797092548
    outer loop
      vertex -0.1840000025961981 -5 -9.359999997439635
      vertex 1.1250000005422107 -2.5 -8.749999997764098
      vertex 1.1250000005422107 -5 -8.749999997764098
    endloop
  endfacet
  facet normal 0.4223926019884702 0 -0.9064129797092548
    outer loop
      vertex -0.1840000025961981 -5 -9.359999997439635
      vertex -0.1840000025961981 -2.5 -9.359999997439635
      vertex 1.1250000005422107 -2.5 -8.749999997764098
    endloop
  endfacet
  facet normal 0.26745745109444685 0 -0.9635696715100893
    outer loop
      vertex -1.5169999965151741 -5 -9.72999999974746
      vertex -0.1840000025961981 -2.5 -9.359999997439635
      vertex -0.1840000025961981 -5 -9.359999997439635
    endloop
  endfacet
  facet normal 0.26745745109444685 0 -0.9635696715100893
    outer loop
      vertex -1.5169999965151741 -5 -9.72999999974746
      vertex -1.5169999965151741 -2.5 -9.72999999974746
      vertex -0.1840000025961981 -2.5 -9.359999997439635
    endloop
  endfacet
  facet normal 0.14560430036929115 0 -0.989342907041825
    outer loop
      vertex -2.8080000026168923 -5 -9.920000000078229
      vertex -1.5169999965151741 -2.5 -9.72999999974746
      vertex -1.5169999965151741 -5 -9.72999999974746
    endloop
  endfacet
  facet normal 0.14560430036929115 0 -0.989342907041825
    outer loop
      vertex -2.8080000026168923 -5 -9.920000000078229
      vertex -2.8080000026168923 -2.5 -9.920000000078229
      vertex -1.5169999965151741 -2.5 -9.72999999974746
    endloop
  endfacet
  facet normal 0.0590682844767635 0 -0.9982539445296332
    outer loop
      vertex -3.9910000001566788 -5 -9.99000000435932
      vertex -2.8080000026168923 -2.5 -9.920000000078229
      vertex -2.8080000026168923 -5 -9.920000000078229
    endloop
  endfacet
  facet normal 0.0590682844767635 0 -0.9982539445296332
    outer loop
      vertex -3.9910000001566788 -5 -9.99000000435932
      vertex -3.9910000001566788 -2.5 -9.99000000435932
      vertex -2.8080000026168923 -2.5 -9.920000000078229
    endloop
  endfacet
  facet normal 0.009910309221062355 0 -0.9999508916797578
    outer loop
      vertex -5 -5 -9.999999997444682
      vertex -3.9910000001566788 -2.5 -9.99000000435932
      vertex -3.9910000001566788 -5 -9.99000000435932
    endloop
  endfacet
  facet normal 0.009910309221062355 0 -0.9999508916797578
    outer loop
      vertex -5 -5 -9.999999997444682
      vertex -5 -2.5 -9.999999997444682
      vertex -3.9910000001566788 -2.5 -9.99000000435932
    endloop
  endfacet
  facet normal -1 0 0
    outer loop
      vertex -5 -5 0
      vertex -5 -2.5 -9.999999997444682
      vertex -5 -5 -9.999999997444682
    endloop
  endfacet
  facet normal -1 0 0
    outer loop
      vertex -5 -5 0
      vertex -5 -2.5 0
      vertex -5 -2.5 -9.999999997444682
    endloop
  endfacet
  facet normal 0 0 1
    outer loop
      vertex 4.999999997444682 -5 0
      vertex -5 -2.5 0
      vertex -5 -5 0
    endloop
  endfacet
  facet normal 0 0 1
    outer loop
      vertex 4.999999997444682 -5 0
      vertex 4.999999997444682 -2.5 0
      vertex -5 -2.5 0
    endloop
  endfacet
  facet normal 0.9973147450392474 0 -0.07323455009284173
    outer loop
      vertex 4.801000001229745 -2.5 -2.709999996399376
      vertex 4.999999997444682 0 0
      vertex 4.999999997444682 -2.5 0
    endloop
  endfacet
  facet normal 0.9973147450392474 0 -0.07323455009284173
    outer loop
      vertex 4.801000001229745 -2.5 -2.709999996399376
      vertex 4.801000001229745 0 -2.709999996399376
      vertex 4.999999997444682 0 0
    endloop
  endfacet
  facet normal 0.9690292039570455 0 -0.24694615177883367
    outer loop
      vertex 4.248000000072931 -2.5 -4.880000002672662
      vertex 4.801000001229745 0 -2.709999996399376
      vertex 4.801000001229745 -2.5 -2.709999996399376
    endloop
  endfacet
  facet normal 0.9690292039570455 0 -0.24694615177883367
    outer loop
      vertex 4.248000000072931 -2.5 -4.880000002672662
      vertex 4.248000000072931 0 -4.880000002672662
      vertex 4.801000001229745 0 -2.709999996399376
    endloop
  endfacet
  facet normal 0.8952731797820526 0 -0.44551760185533923
    outer loop
      vertex 3.406999998913845 -2.5 -6.56999999840545
      vertex 4.248000000072931 0 -4.880000002672662
      vertex 4.248000000072931 -2.5 -4.880000002672662
    endloop
  endfacet
  facet normal 0.8952731797820526 0 -0.44551760185533923
    outer loop
      vertex 3.406999998913845 -2.5 -6.56999999840545
      vertex 3.406999998913845 0 -6.56999999840545
      vertex 4.248000000072931 0 -4.880000002672662
    endloop
  endfacet
  facet normal 0.766833695311081 0 -0.6418458410985867
    outer loop
      vertex 2.3439999974237375 -2.5 -7.840000000061827
      vertex 3.406999998913845 0 -6.56999999840545
      vertex 3.406999998913845 -2.5 -6.56999999840545
    endloop
  endfacet
  facet normal 0.766833695311081 0 -0.6418458410985867
    outer loop
      vertex 2.3439999974237375 -2.5 -7.840000000061827
      vertex 2.3439999974237375 0 -7.840000000061827
      vertex 3.406999998913845 0 -6.56999999840545
    endloop
  endfacet
  facet normal 0.5982104437567703 0 -0.801339044961824
    outer loop
      vertex 1.1250000005422107 -2.5 -8.749999997764098
      vertex 2.3439999974237375 0 -7.840000000061827
      vertex 2.3439999974237375 -2.5 -7.840000000061827
    endloop
  endfacet
  facet normal 0.5982104437567703 0 -0.801339044961824
    outer loop
      vertex 1.1250000005422107 -2.5 -8.749999997764098
      vertex 1.1250000005422107 0 -8.749999997764098
      vertex 2.3439999974237375 0 -7.840000000061827
    endloop
  endfacet
  facet normal 0.4223926019884702 0 -0.9064129797092548
    outer loop
      vertex -0.1840000025961981 -2.5 -9.359999997439635
      vertex 1.1250000005422107 0 -8.749999997764098
      vertex 1.1250000005422107 -2.5 -8.749999997764098
    endloop
  endfacet
  facet normal 0.4223926019884702 0 -0.9064129797092548
    outer loop
      vertex -0.1840000025961981 -2.5 -9.359999997439635
      vertex -0.1840000025961981 0 -9.359999997439635
      vertex 1.1250000005422107 0 -8.749999997764098
    endloop
  endfacet
  facet normal 0.26745745109444685 0 -0.9635696715100893
    outer loop
      vertex -1.5169999965151741 -2.5 -9.72999999974746
      vertex -0.1840000025961981 0 -9.359999997439635
      vertex -0.1840000025961981 -2.5 -9.359999997439635
    endloop
  endfacet
  facet normal 0.26745745109444685 0 -0.9635696715100893
    outer loop
      vertex -1.5169999965151741 -2.5 -9.72999999974746
      vertex -1.5169999965151741 0 -9.72999999974746
      vertex -0.1840000025961981 0 -9.359999997439635
    endloop
  endfacet
  facet normal 0.14560430036929115 0 -0.989342907041825
    outer loop
      vertex -2.8080000026168923 -2.5 -9.920000000078229
      vertex -1.5169999965151741 0 -9.72999999974746
      vertex -1.5169999965151741 -2.5 -9.72999999974746
    endloop
  endfacet
  facet normal 0.14560430036929115 0 -0.989342907041825
    outer loop
      vertex -2.8080000026168923 -2.5 -9.920000000078229
      vertex -2.8080000026168923 0 -9.920000000078229
      vertex -1.5169999965151741 0 -9.72999999974746
    endloop
  endfacet
  facet normal 0.0590682844767635 0 -0.9982539445296332
    outer loop
      vertex -3.9910000001566788 -2.5 -9.99000000435932
      vertex -2.8080000026168923 0 -9.920000000078229
      vertex -2.8080000026168923 -2.5 -9.920000000078229
    endloop
  endfacet
  facet normal 0.0590682844767635 0 -0.9982539445296332
    outer loop
      vertex -3.9910000001566788 -2.5 -9.99000000435932
      vertex -3.9910000001566788 0 -9.99000000435932
      vertex -2.8080000026168923 0 -9.920000000078229
    endloop
  endfacet
  facet normal 0.009910309221062355 0 -0.9999508916797578
    outer loop
      vertex -5 -2.5 -9.999999997444682
      vertex -3.9910000001566788 0 -9.99000000435932
      vertex -3.9910000001566788 -2.5 -9.99000000435932
    endloop
  endfacet
  facet normal 0.009910309221062355 0 -0.9999508916797578
    outer loop
      vertex -5 -2.5 -9.999999997444682
      vertex -5 0 -9.999999997444682
      vertex -3.9910000001566788 0 -9.99000000435932
    endloop
  endfacet
  facet normal -1 0 0
    outer loop
      vertex -5 -2.5 0
      vertex -5 0 -9.999999997444682
      vertex -5 -2.5 -9.999999997444682
    endloop
  endfacet
  facet normal -1 0 0
    outer loop
      vertex -5 -2.5 0
      vertex -5 0 0
      vertex -5 0 -9.999999997444682
    endloop
  endfacet
  facet normal 0 0 1
    outer loop
      vertex 4.999999997444682 -2.5 0
      vertex -5 0 0
      vertex -5 -2.5 0
    endloop
  endfacet
  facet normal 0 0 1
    outer loop
      vertex 4.999999997444682 -2.5 0
      vertex 4.999999997444682 0 0
      vertex -5 0 0
    endloop
  endfacet
  facet normal 0 -1 0
    outer loop
      vertex -5 -10 0
      vertex 4.801000001229745 -10 -2.709999996399376
      vertex 4.999999997444682 -10 0
    endloop
  endfacet
  facet normal 0 -1 0
    outer loop
      vertex -5 -10 0
      vertex -5 -10 -9.999999997444682
      vertex 4.801000001229745 -10 -2.709999996399376
    endloop
  endfacet
  facet normal 0 -1 0
    outer loop
      vertex -5 -10 -9.999999997444682
      vertex 4.248000000072931 -10 -4.880000002672662
      vertex 4.801000001229745 -10 -2.709999996399376
    endloop
  endfacet
  facet normal 0 -1 0
    outer loop
      vertex -5 -10 -9.999999997444682
      vertex -3.9910000001566788 -10 -9.99000000435932
      vertex 4.248000000072931 -10 -4.880000002672662
    endloop
  endfacet
  facet normal 0 -1 0
    outer loop
      vertex -3.9910000001566788 -10 -9.99000000435932
      vertex 3.406999998913845 -10 -6.56999999840545
      vertex 4.248000000072931 -10 -4.880000002672662
    endloop
  endfacet
  facet normal 0 -1 0
    outer loop
      vertex -3.9910000001566788 -10 -9.99000000435932
      vertex -2.8080000026168923 -10 -9.920000000078229
      vertex 3.406999998913845 -10 -6.56999999840545
    endloop
  endfacet
  facet normal 0 -1 0
    outer loop
      vertex -2.8080000026168923 -10 -9.920000000078229
      vertex 2.3439999974237375 -10 -7.840000000061827
      vertex 3.406999998913845 -10 -6.56999999840545
    endloop
  endfacet
  facet normal 0 -1 0
    outer loop
      vertex -2.8080000026168923 -10 -9.920000000078229
      vertex -1.5169999965151741 -10 -9.72999999974746
      vertex 2.3439999974237375 -10 -7.840000000061827
    endloop
  endfacet
  facet normal 0 -1 0
    outer loop
      vertex -1.5169999965151741 -10 -9.72999999974746
      vertex 1.1250000005422107 -10 -8.749999997764098
      vertex 2.3439999974237375 -10 -7.840000000061827
    endloop
  endfacet
  facet normal 0 -1 0
    outer loop
      vertex -1.5169999965151741 -10 -9.72999999974746
      vertex -0.1840000025961981 -10 -9.359999997439635
      vertex 1.1250000005422107 -10 -8.749999997764098
    endloop
  endfacet
  facet normal 0 1 0
    outer loop
      vertex 4.999999997444682 0 0
      vertex 4.801000001229745 0 -2.709999996399376
      vertex -5 0 0
    endloop
  endfacet
  facet normal 0 1 0
    outer loop
      vertex 4.801000001229745 0 -2.709999996399376
      vertex -5 0 -9.999999997444682
      vertex -5 0 0
    endloop
  endfacet
  facet normal 0 1 0
    outer loop
      vertex 4.801000001229745 0 -2.709999996399376
      vertex 4.248000000072931 0 -4.880000002672662
      vertex -5 0 -9.999999997444682
    endloop
  endfacet
  facet normal 0 1 0
    outer loop
      vertex 4.248000000072931 0 -4.880000002672662
      vertex -3.9910000001566788 0 -9.99000000435932
      vertex -5 0 -9.999999997444682
    endloop
  endfacet
  facet normal 0 1 0
    outer loop
      vertex 4.248000000072931 0 -4.880000002672662
      vertex 3.406999998913845 0 -6.56999999840545
      vertex -3.9910000001566788 0 -9.99000000435932
    endloop
  endfacet
  facet normal 0 1 0
    outer loop
      vertex 3.406999998913845 0 -6.56999999840545
      vertex -2.8080000026168923 0 -9.920000000078229
      vertex -3.9910000001566788 0 -9.99000000435932
    endloop
  endfacet
  facet normal 0 1 0
    outer loop
      vertex 3.406999998913845 0 -6.56999999840545
      vertex 2.3439999974237375 0 -7.840000000061827
      vertex -2.8080000026168923 0 -9.920000000078229
    endloop
  endfacet
  facet normal 0 1 0
    outer loop
      vertex 2.3439999974237375 0 -7.840000000061827
      vertex -1.5169999965151741 0 -9.72999999974746
      vertex -2.8080000026168923 0 -9.920000000078229
    endloop
  endfacet
  facet normal 0 1 0
    outer loop
      vertex 2.3439999974237375 0 -7.840000000061827
      vertex 1.1250000005422107 0 -8.749999997764098
      vertex -1.5169999965151741 0 -9.72999999974746
    endloop
  endfacet
  facet normal 0 1 0
    outer loop
      vertex 1.1250000005422107 0 -8.749999997764098
      vertex -0.1840000025961981 0 -9.359999997439635
      vertex -1.5169999965151741 0 -9.72999999974746
    endloop
  endfacet
endsolid OpenSCAD_Model
