<?xml version="1.0" encoding="UTF-8" standalone="no"?>
<!DOCTYPE svg PUBLIC "-//W3C//DTD SVG 1.1//EN"
 "http://www.w3.org/Graphics/SVG/1.1/DTD/svg11.dtd">
<!-- Generated by graphviz version 5.0.0 (20220707.1540)
 -->
<!-- Title: default Pages: 1 -->
<svg width="920pt" height="908pt"
 viewBox="0.00 0.00 919.64 908.00" xmlns="http://www.w3.org/2000/svg" xmlns:xlink="http://www.w3.org/1999/xlink">
<g id="graph0" class="graph" transform="scale(1 1) rotate(0) translate(4 904)">
<title>default</title>
<polygon fill="white" stroke="transparent" points="-4,4 -4,-904 915.64,-904 915.64,4 -4,4"/>
<!-- root_1 -->
<g id="node1" class="node">
<title>root_1</title>
<g id="a_node1"><a xlink:href="javascript:s=&quot;\(\)\nNone&quot;; console.log(s); alert(s);" xlink:title="root">
<ellipse fill="none" stroke="black" cx="27" cy="-396" rx="27" ry="18"/>
<text text-anchor="middle" x="27" y="-392.3" font-family="Times New Roman,serif" font-size="14.00">root</text>
</a>
</g>
</g>
<!-- default_2 -->
<g id="node2" class="node">
<title>default_2</title>
<g id="a_node2"><a xlink:href="javascript:s=&quot;\(&#x27;default&#x27;,\)\nExtrudedSequence&quot;; console.log(s); alert(s);" xlink:title="ExtrudedSequence">
<ellipse fill="none" stroke="black" cx="333.08" cy="-693" rx="35.19" ry="18"/>
<text text-anchor="middle" x="333.08" y="-689.3" font-family="Times New Roman,serif" font-size="14.00">default</text>
</a>
</g>
</g>
<!-- root_1&#45;&gt;default_2 -->
<g id="edge1" class="edge">
<title>root_1&#45;&gt;default_2</title>
<path fill="none" stroke="black" d="M43.08,-410.73C92.28,-458.78 248.41,-611.28 308.34,-669.81"/>
<polygon fill="black" stroke="black" points="306.21,-672.63 315.81,-677.11 311.1,-667.62 306.21,-672.63"/>
</g>
<!-- 10 -->
<g id="node10" class="node">
<title>10</title>
<g id="a_node10"><a xlink:href="javascript:s=&quot;\(&quot;\(&#x27;item&#x27;,\ 0\),\ &#x27;path_op&#x27;,\ 2,\ 0\.5,\ ex_end=True,\ linear_compat=True&quot;,\)\nAnnotatedCoordinates&quot;; console.log(s); alert(s);" xlink:title="AnnotatedCoordinates">
<ellipse fill="none" stroke="black" cx="333.08" cy="-396" rx="241.26" ry="18"/>
<text text-anchor="middle" x="333.08" y="-392.3" font-family="Times New Roman,serif" font-size="14.00">(&#39;item&#39;, 0), &#39;path_op&#39;, 2, 0.5, ex_end=True, linear_compat=True</text>
</a>
</g>
</g>
<!-- root_1&#45;&gt;10 -->
<g id="edge9" class="edge">
<title>root_1&#45;&gt;10</title>
<path fill="none" stroke="black" d="M54.19,-396C61.99,-396 71.26,-396 81.59,-396"/>
<polygon fill="black" stroke="black" points="81.81,-399.5 91.81,-396 81.81,-392.5 81.81,-399.5"/>
</g>
<!-- 26 -->
<g id="node26" class="node">
<title>26</title>
<g id="a_node26"><a xlink:href="javascript:s=&quot;\(&quot;\(&#x27;item&#x27;,\ 1\),\ &#x27;path_op&#x27;,\ 2,\ 0\.5,\ ex_end=False,\ linear_compat=True&quot;,\)\nAnnotatedCoordinates&quot;; console.log(s); alert(s);" xlink:title="AnnotatedCoordinates">
<ellipse fill="none" stroke="black" cx="333.08" cy="-153" rx="243.16" ry="18"/>
<text text-anchor="middle" x="333.08" y="-149.3" font-family="Times New Roman,serif" font-size="14.00">(&#39;item&#39;, 1), &#39;path_op&#39;, 2, 0.5, ex_end=False, linear_compat=True</text>
</a>
</g>
</g>
<!-- root_1&#45;&gt;26 -->
<g id="edge25" class="edge">
<title>root_1&#45;&gt;26</title>
<path fill="none" stroke="black" d="M45.22,-382.24C94.76,-342.65 238.12,-228.08 301.42,-177.5"/>
<polygon fill="black" stroke="black" points="303.82,-180.06 309.45,-171.08 299.45,-174.59 303.82,-180.06"/>
</g>
<!-- item_3 -->
<g id="node3" class="node">
<title>item_3</title>
<g id="a_node3"><a xlink:href="javascript:s=&quot;\(&#x27;default&#x27;,\ \(&#x27;item&#x27;,\ 0\)\)\nLinearExtrude&quot;; console.log(s); alert(s);" xlink:title="LinearExtrude">
<ellipse fill="none" stroke="black" cx="657" cy="-882" rx="44.69" ry="18"/>
<text text-anchor="middle" x="657" y="-878.3" font-family="Times New Roman,serif" font-size="14.00">(&#39;item&#39;, 0)</text>
</a>
</g>
</g>
<!-- default_2&#45;&gt;item_3 -->
<g id="edge2" class="edge">
<title>default_2&#45;&gt;item_3</title>
<path fill="none" stroke="black" d="M356.97,-706.44C412.81,-739.22 556.22,-823.42 622.05,-862.07"/>
<polygon fill="black" stroke="black" points="620.41,-865.16 630.81,-867.21 623.96,-859.13 620.41,-865.16"/>
</g>
<!-- item_4 -->
<g id="node4" class="node">
<title>item_4</title>
<g id="a_node4"><a xlink:href="javascript:s=&quot;\(&#x27;default&#x27;,\ \(&#x27;item&#x27;,\ 1\)\)\nRotateExtrude&quot;; console.log(s); alert(s);" xlink:title="RotateExtrude">
<ellipse fill="none" stroke="black" cx="657" cy="-828" rx="44.69" ry="18"/>
<text text-anchor="middle" x="657" y="-824.3" font-family="Times New Roman,serif" font-size="14.00">(&#39;item&#39;, 1)</text>
</a>
</g>
</g>
<!-- default_2&#45;&gt;item_4 -->
<g id="edge3" class="edge">
<title>default_2&#45;&gt;item_4</title>
<path fill="none" stroke="black" d="M360.7,-704.16C417.12,-727.83 549.05,-783.15 615.8,-811.14"/>
<polygon fill="black" stroke="black" points="614.58,-814.42 625.16,-815.06 617.29,-807.97 614.58,-814.42"/>
</g>
<!-- item_5 -->
<g id="node5" class="node">
<title>item_5</title>
<g id="a_node5"><a xlink:href="javascript:s=&quot;\(&#x27;default&#x27;,\ \(&#x27;item&#x27;,\ 2\)\)\nRotateExtrude&quot;; console.log(s); alert(s);" xlink:title="RotateExtrude">
<ellipse fill="none" stroke="black" cx="657" cy="-774" rx="44.69" ry="18"/>
<text text-anchor="middle" x="657" y="-770.3" font-family="Times New Roman,serif" font-size="14.00">(&#39;item&#39;, 2)</text>
</a>
</g>
</g>
<!-- default_2&#45;&gt;item_5 -->
<g id="edge4" class="edge">
<title>default_2&#45;&gt;item_5</title>
<path fill="none" stroke="black" d="M364.95,-700.77C421.45,-714.98 541.85,-745.28 608.74,-762.11"/>
<polygon fill="black" stroke="black" points="608.05,-765.54 618.6,-764.59 609.75,-758.75 608.05,-765.54"/>
</g>
<!-- item_6 -->
<g id="node6" class="node">
<title>item_6</title>
<g id="a_node6"><a xlink:href="javascript:s=&quot;\(&#x27;default&#x27;,\ \(&#x27;item&#x27;,\ 3\)\)\nLinearExtrude&quot;; console.log(s); alert(s);" xlink:title="LinearExtrude">
<ellipse fill="none" stroke="black" cx="657" cy="-720" rx="44.69" ry="18"/>
<text text-anchor="middle" x="657" y="-716.3" font-family="Times New Roman,serif" font-size="14.00">(&#39;item&#39;, 3)</text>
</a>
</g>
</g>
<!-- default_2&#45;&gt;item_6 -->
<g id="edge5" class="edge">
<title>default_2&#45;&gt;item_6</title>
<path fill="none" stroke="black" d="M367.92,-695.84C423.85,-700.53 536,-709.94 602.67,-715.53"/>
<polygon fill="black" stroke="black" points="602.71,-719.04 612.97,-716.39 603.3,-712.07 602.71,-719.04"/>
</g>
<!-- item_7 -->
<g id="node7" class="node">
<title>item_7</title>
<g id="a_node7"><a xlink:href="javascript:s=&quot;\(&#x27;default&#x27;,\ \(&#x27;item&#x27;,\ 4\)\)\nLinearExtrude&quot;; console.log(s); alert(s);" xlink:title="LinearExtrude">
<ellipse fill="none" stroke="black" cx="657" cy="-666" rx="44.69" ry="18"/>
<text text-anchor="middle" x="657" y="-662.3" font-family="Times New Roman,serif" font-size="14.00">(&#39;item&#39;, 4)</text>
</a>
</g>
</g>
<!-- default_2&#45;&gt;item_7 -->
<g id="edge6" class="edge">
<title>default_2&#45;&gt;item_7</title>
<path fill="none" stroke="black" d="M367.92,-690.16C423.85,-685.47 536,-676.06 602.67,-670.47"/>
<polygon fill="black" stroke="black" points="603.3,-673.93 612.97,-669.61 602.71,-666.96 603.3,-673.93"/>
</g>
<!-- item_8 -->
<g id="node8" class="node">
<title>item_8</title>
<g id="a_node8"><a xlink:href="javascript:s=&quot;\(&#x27;default&#x27;,\ \(&#x27;item&#x27;,\ 5\)\)\nLinearExtrude&quot;; console.log(s); alert(s);" xlink:title="LinearExtrude">
<ellipse fill="none" stroke="black" cx="657" cy="-612" rx="44.69" ry="18"/>
<text text-anchor="middle" x="657" y="-608.3" font-family="Times New Roman,serif" font-size="14.00">(&#39;item&#39;, 5)</text>
</a>
</g>
</g>
<!-- default_2&#45;&gt;item_8 -->
<g id="edge7" class="edge">
<title>default_2&#45;&gt;item_8</title>
<path fill="none" stroke="black" d="M364.95,-685.23C421.45,-671.02 541.85,-640.72 608.74,-623.89"/>
<polygon fill="black" stroke="black" points="609.75,-627.25 618.6,-621.41 608.05,-620.46 609.75,-627.25"/>
</g>
<!-- item_9 -->
<g id="node9" class="node">
<title>item_9</title>
<g id="a_node9"><a xlink:href="javascript:s=&quot;\(&#x27;default&#x27;,\ \(&#x27;item&#x27;,\ 6\)\)\nRotateExtrude&quot;; console.log(s); alert(s);" xlink:title="RotateExtrude">
<ellipse fill="none" stroke="black" cx="657" cy="-558" rx="44.69" ry="18"/>
<text text-anchor="middle" x="657" y="-554.3" font-family="Times New Roman,serif" font-size="14.00">(&#39;item&#39;, 6)</text>
</a>
</g>
</g>
<!-- default_2&#45;&gt;item_9 -->
<g id="edge8" class="edge">
<title>default_2&#45;&gt;item_9</title>
<path fill="none" stroke="black" d="M360.7,-681.84C417.12,-658.17 549.05,-602.85 615.8,-574.86"/>
<polygon fill="black" stroke="black" points="617.29,-578.03 625.16,-570.94 614.58,-571.58 617.29,-578.03"/>
</g>
<!-- coords_11 -->
<g id="node11" class="node">
<title>coords_11</title>
<g id="a_node11"><a xlink:href="javascript:s=&quot;\(&quot;\(&#x27;item&#x27;,\ 0\),\ &#x27;path_op&#x27;,\ 2,\ 0\.5,\ ex_end=True,\ linear_compat=True&quot;,\ &#x27;coords&#x27;\)\nCoordinates&quot;; console.log(s); alert(s);" xlink:title="Coordinates">
<ellipse fill="none" stroke="black" cx="657" cy="-504" rx="36.29" ry="18"/>
<text text-anchor="middle" x="657" y="-500.3" font-family="Times New Roman,serif" font-size="14.00">coords</text>
</a>
</g>
</g>
<!-- 10&#45;&gt;coords_11 -->
<g id="edge10" class="edge">
<title>10&#45;&gt;coords_11</title>
<path fill="none" stroke="black" d="M386.52,-413.59C451.02,-435.23 559.05,-471.48 616.8,-490.85"/>
<polygon fill="black" stroke="black" points="615.7,-494.17 626.3,-494.03 617.93,-487.54 615.7,-494.17"/>
</g>
<!-- x_22 -->
<g id="node22" class="node">
<title>x_22</title>
<g id="a_node22"><a xlink:href="javascript:s=&quot;\(&quot;\(&#x27;item&#x27;,\ 0\),\ &#x27;path_op&#x27;,\ 2,\ 0\.5,\ ex_end=True,\ linear_compat=True&quot;,\ &#x27;x&#x27;\)\nText&quot;; console.log(s); alert(s);" xlink:title="Text">
<ellipse fill="none" stroke="black" cx="657" cy="-450" rx="27" ry="18"/>
<text text-anchor="middle" x="657" y="-446.3" font-family="Times New Roman,serif" font-size="14.00">x</text>
</a>
</g>
</g>
<!-- 10&#45;&gt;x_22 -->
<g id="edge21" class="edge">
<title>10&#45;&gt;x_22</title>
<path fill="none" stroke="black" d="M431.98,-412.42C495.99,-423.16 575.81,-436.55 620.83,-444.1"/>
<polygon fill="black" stroke="black" points="620.25,-447.55 630.69,-445.75 621.41,-440.65 620.25,-447.55"/>
</g>
<!-- y_23 -->
<g id="node23" class="node">
<title>y_23</title>
<g id="a_node23"><a xlink:href="javascript:s=&quot;\(&quot;\(&#x27;item&#x27;,\ 0\),\ &#x27;path_op&#x27;,\ 2,\ 0\.5,\ ex_end=True,\ linear_compat=True&quot;,\ &#x27;y&#x27;\)\nText&quot;; console.log(s); alert(s);" xlink:title="Text">
<ellipse fill="none" stroke="black" cx="657" cy="-396" rx="27" ry="18"/>
<text text-anchor="middle" x="657" y="-392.3" font-family="Times New Roman,serif" font-size="14.00">y</text>
</a>
</g>
</g>
<!-- 10&#45;&gt;y_23 -->
<g id="edge22" class="edge">
<title>10&#45;&gt;y_23</title>
<path fill="none" stroke="black" d="M574.35,-396C591.48,-396 607.02,-396 619.83,-396"/>
<polygon fill="black" stroke="black" points="619.92,-399.5 629.92,-396 619.92,-392.5 619.92,-399.5"/>
</g>
<!-- z_24 -->
<g id="node24" class="node">
<title>z_24</title>
<g id="a_node24"><a xlink:href="javascript:s=&quot;\(&quot;\(&#x27;item&#x27;,\ 0\),\ &#x27;path_op&#x27;,\ 2,\ 0\.5,\ ex_end=True,\ linear_compat=True&quot;,\ &#x27;z&#x27;\)\nText&quot;; console.log(s); alert(s);" xlink:title="Text">
<ellipse fill="none" stroke="black" cx="657" cy="-342" rx="27" ry="18"/>
<text text-anchor="middle" x="657" y="-338.3" font-family="Times New Roman,serif" font-size="14.00">z</text>
</a>
</g>
</g>
<!-- 10&#45;&gt;z_24 -->
<g id="edge23" class="edge">
<title>10&#45;&gt;z_24</title>
<path fill="none" stroke="black" d="M431.98,-379.58C495.99,-368.84 575.81,-355.45 620.83,-347.9"/>
<polygon fill="black" stroke="black" points="621.41,-351.35 630.69,-346.25 620.25,-344.45 621.41,-351.35"/>
</g>
<!-- label_25 -->
<g id="node25" class="node">
<title>label_25</title>
<g id="a_node25"><a xlink:href="javascript:s=&quot;\(&quot;\(&#x27;item&#x27;,\ 0\),\ &#x27;path_op&#x27;,\ 2,\ 0\.5,\ ex_end=True,\ linear_compat=True&quot;,\ &#x27;label&#x27;\)\nText&quot;; console.log(s); alert(s);" xlink:title="Text">
<ellipse fill="none" stroke="black" cx="657" cy="-288" rx="27.1" ry="18"/>
<text text-anchor="middle" x="657" y="-284.3" font-family="Times New Roman,serif" font-size="14.00">label</text>
</a>
</g>
</g>
<!-- 10&#45;&gt;label_25 -->
<g id="edge24" class="edge">
<title>10&#45;&gt;label_25</title>
<path fill="none" stroke="black" d="M386.52,-378.41C453.27,-356.01 566.64,-317.98 622.65,-299.19"/>
<polygon fill="black" stroke="black" points="624.05,-302.41 632.42,-295.91 621.82,-295.77 624.05,-302.41"/>
</g>
<!-- origin_12 -->
<g id="node12" class="node">
<title>origin_12</title>
<g id="a_node12"><a xlink:href="javascript:s=&quot;\(&quot;\(&#x27;item&#x27;,\ 0\),\ &#x27;path_op&#x27;,\ 2,\ 0\.5,\ ex_end=True,\ linear_compat=True&quot;,\ &#x27;coords&#x27;,\ &#x27;origin&#x27;\)\nCoordinatesCage&quot;; console.log(s); alert(s);" xlink:title="CoordinatesCage">
<ellipse fill="none" stroke="black" cx="778.8" cy="-612" rx="31.4" ry="18"/>
<text text-anchor="middle" x="778.8" y="-608.3" font-family="Times New Roman,serif" font-size="14.00">origin</text>
</a>
</g>
</g>
<!-- coords_11&#45;&gt;origin_12 -->
<g id="edge11" class="edge">
<title>coords_11&#45;&gt;origin_12</title>
<path fill="none" stroke="black" d="M683.01,-516.84C689.55,-520.86 696.32,-525.66 701.85,-531 722.61,-551.03 717.52,-564.54 737.85,-585 740.84,-588.01 744.2,-590.88 747.68,-593.55"/>
<polygon fill="black" stroke="black" points="745.71,-596.45 755.89,-599.41 749.78,-590.75 745.71,-596.45"/>
</g>
<!-- x_arrow_13 -->
<g id="node13" class="node">
<title>x_arrow_13</title>
<g id="a_node13"><a xlink:href="javascript:s=&quot;\(&quot;\(&#x27;item&#x27;,\ 0\),\ &#x27;path_op&#x27;,\ 2,\ 0\.5,\ ex_end=True,\ linear_compat=True&quot;,\ &#x27;coords&#x27;,\ &#x27;x_arrow&#x27;\)\nArrow&quot;; console.log(s); alert(s);" xlink:title="Arrow">
<ellipse fill="none" stroke="black" cx="778.8" cy="-558" rx="40.89" ry="18"/>
<text text-anchor="middle" x="778.8" y="-554.3" font-family="Times New Roman,serif" font-size="14.00">x_arrow</text>
</a>
</g>
</g>
<!-- coords_11&#45;&gt;x_arrow_13 -->
<g id="edge12" class="edge">
<title>coords_11&#45;&gt;x_arrow_13</title>
<path fill="none" stroke="black" d="M684.59,-515.98C701.02,-523.39 722.37,-533.01 740.48,-541.18"/>
<polygon fill="black" stroke="black" points="739.06,-544.38 749.61,-545.3 741.94,-538 739.06,-544.38"/>
</g>
<!-- y_arrow_16 -->
<g id="node16" class="node">
<title>y_arrow_16</title>
<g id="a_node16"><a xlink:href="javascript:s=&quot;\(&quot;\(&#x27;item&#x27;,\ 0\),\ &#x27;path_op&#x27;,\ 2,\ 0\.5,\ ex_end=True,\ linear_compat=True&quot;,\ &#x27;coords&#x27;,\ &#x27;y_arrow&#x27;\)\nArrow&quot;; console.log(s); alert(s);" xlink:title="Arrow">
<ellipse fill="none" stroke="black" cx="778.8" cy="-504" rx="40.89" ry="18"/>
<text text-anchor="middle" x="778.8" y="-500.3" font-family="Times New Roman,serif" font-size="14.00">y_arrow</text>
</a>
</g>
</g>
<!-- coords_11&#45;&gt;y_arrow_16 -->
<g id="edge15" class="edge">
<title>coords_11&#45;&gt;y_arrow_16</title>
<path fill="none" stroke="black" d="M693.62,-504C704.18,-504 715.95,-504 727.27,-504"/>
<polygon fill="black" stroke="black" points="727.48,-507.5 737.48,-504 727.48,-500.5 727.48,-507.5"/>
</g>
<!-- z_arrow_19 -->
<g id="node19" class="node">
<title>z_arrow_19</title>
<g id="a_node19"><a xlink:href="javascript:s=&quot;\(&quot;\(&#x27;item&#x27;,\ 0\),\ &#x27;path_op&#x27;,\ 2,\ 0\.5,\ ex_end=True,\ linear_compat=True&quot;,\ &#x27;coords&#x27;,\ &#x27;z_arrow&#x27;\)\nArrow&quot;; console.log(s); alert(s);" xlink:title="Arrow">
<ellipse fill="none" stroke="black" cx="778.8" cy="-396" rx="40.09" ry="18"/>
<text text-anchor="middle" x="778.8" y="-392.3" font-family="Times New Roman,serif" font-size="14.00">z_arrow</text>
</a>
</g>
</g>
<!-- coords_11&#45;&gt;z_arrow_19 -->
<g id="edge18" class="edge">
<title>coords_11&#45;&gt;z_arrow_19</title>
<path fill="none" stroke="black" d="M682,-490.81C688.67,-486.72 695.76,-481.98 701.85,-477 722.51,-460.13 743.02,-437.84 757.51,-420.91"/>
<polygon fill="black" stroke="black" points="760.34,-422.98 764.11,-413.08 754.99,-418.46 760.34,-422.98"/>
</g>
<!-- stem_14 -->
<g id="node14" class="node">
<title>stem_14</title>
<g id="a_node14"><a xlink:href="javascript:s=&quot;\(&quot;\(&#x27;item&#x27;,\ 0\),\ &#x27;path_op&#x27;,\ 2,\ 0\.5,\ ex_end=True,\ linear_compat=True&quot;,\ &#x27;coords&#x27;,\ &#x27;x_arrow&#x27;,\ &#x27;stem&#x27;\)\nCone&quot;; console.log(s); alert(s);" xlink:title="Cone">
<ellipse fill="none" stroke="black" cx="883.69" cy="-612" rx="27.9" ry="18"/>
<text text-anchor="middle" x="883.69" y="-608.3" font-family="Times New Roman,serif" font-size="14.00">stem</text>
</a>
</g>
</g>
<!-- x_arrow_13&#45;&gt;stem_14 -->
<g id="edge13" class="edge">
<title>x_arrow_13&#45;&gt;stem_14</title>
<path fill="none" stroke="black" d="M805.76,-571.63C819.92,-579.06 837.53,-588.3 852.33,-596.07"/>
<polygon fill="black" stroke="black" points="851.1,-599.37 861.58,-600.92 854.35,-593.18 851.1,-599.37"/>
</g>
<!-- head_15 -->
<g id="node15" class="node">
<title>head_15</title>
<g id="a_node15"><a xlink:href="javascript:s=&quot;\(&quot;\(&#x27;item&#x27;,\ 0\),\ &#x27;path_op&#x27;,\ 2,\ 0\.5,\ ex_end=True,\ linear_compat=True&quot;,\ &#x27;coords&#x27;,\ &#x27;x_arrow&#x27;,\ &#x27;head&#x27;\)\nCone&quot;; console.log(s); alert(s);" xlink:title="Cone">
<ellipse fill="none" stroke="black" cx="883.69" cy="-558" rx="27.9" ry="18"/>
<text text-anchor="middle" x="883.69" y="-554.3" font-family="Times New Roman,serif" font-size="14.00">head</text>
</a>
</g>
</g>
<!-- x_arrow_13&#45;&gt;head_15 -->
<g id="edge14" class="edge">
<title>x_arrow_13&#45;&gt;head_15</title>
<path fill="none" stroke="black" d="M819.87,-558C828.28,-558 837.12,-558 845.42,-558"/>
<polygon fill="black" stroke="black" points="845.58,-561.5 855.58,-558 845.58,-554.5 845.58,-561.5"/>
</g>
<!-- stem_17 -->
<g id="node17" class="node">
<title>stem_17</title>
<g id="a_node17"><a xlink:href="javascript:s=&quot;\(&quot;\(&#x27;item&#x27;,\ 0\),\ &#x27;path_op&#x27;,\ 2,\ 0\.5,\ ex_end=True,\ linear_compat=True&quot;,\ &#x27;coords&#x27;,\ &#x27;y_arrow&#x27;,\ &#x27;stem&#x27;\)\nCone&quot;; console.log(s); alert(s);" xlink:title="Cone">
<ellipse fill="none" stroke="black" cx="883.69" cy="-504" rx="27.9" ry="18"/>
<text text-anchor="middle" x="883.69" y="-500.3" font-family="Times New Roman,serif" font-size="14.00">stem</text>
</a>
</g>
</g>
<!-- y_arrow_16&#45;&gt;stem_17 -->
<g id="edge16" class="edge">
<title>y_arrow_16&#45;&gt;stem_17</title>
<path fill="none" stroke="black" d="M819.87,-504C828.28,-504 837.12,-504 845.42,-504"/>
<polygon fill="black" stroke="black" points="845.58,-507.5 855.58,-504 845.58,-500.5 845.58,-507.5"/>
</g>
<!-- head_18 -->
<g id="node18" class="node">
<title>head_18</title>
<g id="a_node18"><a xlink:href="javascript:s=&quot;\(&quot;\(&#x27;item&#x27;,\ 0\),\ &#x27;path_op&#x27;,\ 2,\ 0\.5,\ ex_end=True,\ linear_compat=True&quot;,\ &#x27;coords&#x27;,\ &#x27;y_arrow&#x27;,\ &#x27;head&#x27;\)\nCone&quot;; console.log(s); alert(s);" xlink:title="Cone">
<ellipse fill="none" stroke="black" cx="883.69" cy="-450" rx="27.9" ry="18"/>
<text text-anchor="middle" x="883.69" y="-446.3" font-family="Times New Roman,serif" font-size="14.00">head</text>
</a>
</g>
</g>
<!-- y_arrow_16&#45;&gt;head_18 -->
<g id="edge17" class="edge">
<title>y_arrow_16&#45;&gt;head_18</title>
<path fill="none" stroke="black" d="M805.76,-490.37C819.92,-482.94 837.53,-473.7 852.33,-465.93"/>
<polygon fill="black" stroke="black" points="854.35,-468.82 861.58,-461.08 851.1,-462.63 854.35,-468.82"/>
</g>
<!-- stem_20 -->
<g id="node20" class="node">
<title>stem_20</title>
<g id="a_node20"><a xlink:href="javascript:s=&quot;\(&quot;\(&#x27;item&#x27;,\ 0\),\ &#x27;path_op&#x27;,\ 2,\ 0\.5,\ ex_end=True,\ linear_compat=True&quot;,\ &#x27;coords&#x27;,\ &#x27;z_arrow&#x27;,\ &#x27;stem&#x27;\)\nCone&quot;; console.log(s); alert(s);" xlink:title="Cone">
<ellipse fill="none" stroke="black" cx="883.69" cy="-396" rx="27.9" ry="18"/>
<text text-anchor="middle" x="883.69" y="-392.3" font-family="Times New Roman,serif" font-size="14.00">stem</text>
</a>
</g>
</g>
<!-- z_arrow_19&#45;&gt;stem_20 -->
<g id="edge19" class="edge">
<title>z_arrow_19&#45;&gt;stem_20</title>
<path fill="none" stroke="black" d="M819.28,-396C827.9,-396 837,-396 845.53,-396"/>
<polygon fill="black" stroke="black" points="845.58,-399.5 855.58,-396 845.58,-392.5 845.58,-399.5"/>
</g>
<!-- head_21 -->
<g id="node21" class="node">
<title>head_21</title>
<g id="a_node21"><a xlink:href="javascript:s=&quot;\(&quot;\(&#x27;item&#x27;,\ 0\),\ &#x27;path_op&#x27;,\ 2,\ 0\.5,\ ex_end=True,\ linear_compat=True&quot;,\ &#x27;coords&#x27;,\ &#x27;z_arrow&#x27;,\ &#x27;head&#x27;\)\nCone&quot;; console.log(s); alert(s);" xlink:title="Cone">
<ellipse fill="none" stroke="black" cx="883.69" cy="-342" rx="27.9" ry="18"/>
<text text-anchor="middle" x="883.69" y="-338.3" font-family="Times New Roman,serif" font-size="14.00">head</text>
</a>
</g>
</g>
<!-- z_arrow_19&#45;&gt;head_21 -->
<g id="edge20" class="edge">
<title>z_arrow_19&#45;&gt;head_21</title>
<path fill="none" stroke="black" d="M805.49,-382.51C819.79,-375.01 837.66,-365.63 852.6,-357.79"/>
<polygon fill="black" stroke="black" points="854.24,-360.88 861.47,-353.14 850.99,-354.68 854.24,-360.88"/>
</g>
<!-- coords_27 -->
<g id="node27" class="node">
<title>coords_27</title>
<g id="a_node27"><a xlink:href="javascript:s=&quot;\(&quot;\(&#x27;item&#x27;,\ 1\),\ &#x27;path_op&#x27;,\ 2,\ 0\.5,\ ex_end=False,\ linear_compat=True&quot;,\ &#x27;coords&#x27;\)\nCoordinates&quot;; console.log(s); alert(s);" xlink:title="Coordinates">
<ellipse fill="none" stroke="black" cx="657" cy="-234" rx="36.29" ry="18"/>
<text text-anchor="middle" x="657" y="-230.3" font-family="Times New Roman,serif" font-size="14.00">coords</text>
</a>
</g>
</g>
<!-- 26&#45;&gt;coords_27 -->
<g id="edge26" class="edge">
<title>26&#45;&gt;coords_27</title>
<path fill="none" stroke="black" d="M402.74,-170.28C466.93,-186.43 560.69,-210.02 614.29,-223.5"/>
<polygon fill="black" stroke="black" points="613.58,-226.94 624.13,-225.98 615.29,-220.15 613.58,-226.94"/>
</g>
<!-- x_38 -->
<g id="node38" class="node">
<title>x_38</title>
<g id="a_node38"><a xlink:href="javascript:s=&quot;\(&quot;\(&#x27;item&#x27;,\ 1\),\ &#x27;path_op&#x27;,\ 2,\ 0\.5,\ ex_end=False,\ linear_compat=True&quot;,\ &#x27;x&#x27;\)\nText&quot;; console.log(s); alert(s);" xlink:title="Text">
<ellipse fill="none" stroke="black" cx="657" cy="-180" rx="27" ry="18"/>
<text text-anchor="middle" x="657" y="-176.3" font-family="Times New Roman,serif" font-size="14.00">x</text>
</a>
</g>
</g>
<!-- 26&#45;&gt;x_38 -->
<g id="edge37" class="edge">
<title>26&#45;&gt;x_38</title>
<path fill="none" stroke="black" d="M494.57,-166.46C541.62,-170.41 588.73,-174.36 619.81,-176.96"/>
<polygon fill="black" stroke="black" points="619.85,-180.48 630.11,-177.83 620.44,-173.5 619.85,-180.48"/>
</g>
<!-- y_39 -->
<g id="node39" class="node">
<title>y_39</title>
<g id="a_node39"><a xlink:href="javascript:s=&quot;\(&quot;\(&#x27;item&#x27;,\ 1\),\ &#x27;path_op&#x27;,\ 2,\ 0\.5,\ ex_end=False,\ linear_compat=True&quot;,\ &#x27;y&#x27;\)\nText&quot;; console.log(s); alert(s);" xlink:title="Text">
<ellipse fill="none" stroke="black" cx="657" cy="-126" rx="27" ry="18"/>
<text text-anchor="middle" x="657" y="-122.3" font-family="Times New Roman,serif" font-size="14.00">y</text>
</a>
</g>
</g>
<!-- 26&#45;&gt;y_39 -->
<g id="edge38" class="edge">
<title>26&#45;&gt;y_39</title>
<path fill="none" stroke="black" d="M494.57,-139.54C541.62,-135.59 588.73,-131.64 619.81,-129.04"/>
<polygon fill="black" stroke="black" points="620.44,-132.5 630.11,-128.17 619.85,-125.52 620.44,-132.5"/>
</g>
<!-- z_40 -->
<g id="node40" class="node">
<title>z_40</title>
<g id="a_node40"><a xlink:href="javascript:s=&quot;\(&quot;\(&#x27;item&#x27;,\ 1\),\ &#x27;path_op&#x27;,\ 2,\ 0\.5,\ ex_end=False,\ linear_compat=True&quot;,\ &#x27;z&#x27;\)\nText&quot;; console.log(s); alert(s);" xlink:title="Text">
<ellipse fill="none" stroke="black" cx="657" cy="-72" rx="27" ry="18"/>
<text text-anchor="middle" x="657" y="-68.3" font-family="Times New Roman,serif" font-size="14.00">z</text>
</a>
</g>
</g>
<!-- 26&#45;&gt;z_40 -->
<g id="edge39" class="edge">
<title>26&#45;&gt;z_40</title>
<path fill="none" stroke="black" d="M402.74,-135.72C470.09,-118.78 569.99,-93.64 621.9,-80.58"/>
<polygon fill="black" stroke="black" points="622.77,-83.97 631.61,-78.14 621.06,-77.18 622.77,-83.97"/>
</g>
<!-- label_41 -->
<g id="node41" class="node">
<title>label_41</title>
<g id="a_node41"><a xlink:href="javascript:s=&quot;\(&quot;\(&#x27;item&#x27;,\ 1\),\ &#x27;path_op&#x27;,\ 2,\ 0\.5,\ ex_end=False,\ linear_compat=True&quot;,\ &#x27;label&#x27;\)\nText&quot;; console.log(s); alert(s);" xlink:title="Text">
<ellipse fill="none" stroke="black" cx="657" cy="-18" rx="27.1" ry="18"/>
<text text-anchor="middle" x="657" y="-14.3" font-family="Times New Roman,serif" font-size="14.00">label</text>
</a>
</g>
</g>
<!-- 26&#45;&gt;label_41 -->
<g id="edge40" class="edge">
<title>26&#45;&gt;label_41</title>
<path fill="none" stroke="black" d="M376.5,-135.21C441.86,-107.8 565.76,-55.85 624.1,-31.38"/>
<polygon fill="black" stroke="black" points="625.67,-34.51 633.54,-27.42 622.97,-28.06 625.67,-34.51"/>
</g>
<!-- origin_28 -->
<g id="node28" class="node">
<title>origin_28</title>
<g id="a_node28"><a xlink:href="javascript:s=&quot;\(&quot;\(&#x27;item&#x27;,\ 1\),\ &#x27;path_op&#x27;,\ 2,\ 0\.5,\ ex_end=False,\ linear_compat=True&quot;,\ &#x27;coords&#x27;,\ &#x27;origin&#x27;\)\nCoordinatesCage&quot;; console.log(s); alert(s);" xlink:title="CoordinatesCage">
<ellipse fill="none" stroke="black" cx="778.8" cy="-288" rx="31.4" ry="18"/>
<text text-anchor="middle" x="778.8" y="-284.3" font-family="Times New Roman,serif" font-size="14.00">origin</text>
</a>
</g>
</g>
<!-- coords_27&#45;&gt;origin_28 -->
<g id="edge27" class="edge">
<title>coords_27&#45;&gt;origin_28</title>
<path fill="none" stroke="black" d="M684.59,-245.98C702.28,-253.96 725.65,-264.5 744.57,-273.02"/>
<polygon fill="black" stroke="black" points="743.17,-276.23 753.72,-277.15 746.05,-269.85 743.17,-276.23"/>
</g>
<!-- x_arrow_29 -->
<g id="node29" class="node">
<title>x_arrow_29</title>
<g id="a_node29"><a xlink:href="javascript:s=&quot;\(&quot;\(&#x27;item&#x27;,\ 1\),\ &#x27;path_op&#x27;,\ 2,\ 0\.5,\ ex_end=False,\ linear_compat=True&quot;,\ &#x27;coords&#x27;,\ &#x27;x_arrow&#x27;\)\nArrow&quot;; console.log(s); alert(s);" xlink:title="Arrow">
<ellipse fill="none" stroke="black" cx="778.8" cy="-234" rx="40.89" ry="18"/>
<text text-anchor="middle" x="778.8" y="-230.3" font-family="Times New Roman,serif" font-size="14.00">x_arrow</text>
</a>
</g>
</g>
<!-- coords_27&#45;&gt;x_arrow_29 -->
<g id="edge28" class="edge">
<title>coords_27&#45;&gt;x_arrow_29</title>
<path fill="none" stroke="black" d="M693.62,-234C704.18,-234 715.95,-234 727.27,-234"/>
<polygon fill="black" stroke="black" points="727.48,-237.5 737.48,-234 727.48,-230.5 727.48,-237.5"/>
</g>
<!-- y_arrow_32 -->
<g id="node32" class="node">
<title>y_arrow_32</title>
<g id="a_node32"><a xlink:href="javascript:s=&quot;\(&quot;\(&#x27;item&#x27;,\ 1\),\ &#x27;path_op&#x27;,\ 2,\ 0\.5,\ ex_end=False,\ linear_compat=True&quot;,\ &#x27;coords&#x27;,\ &#x27;y_arrow&#x27;\)\nArrow&quot;; console.log(s); alert(s);" xlink:title="Arrow">
<ellipse fill="none" stroke="black" cx="778.8" cy="-180" rx="40.89" ry="18"/>
<text text-anchor="middle" x="778.8" y="-176.3" font-family="Times New Roman,serif" font-size="14.00">y_arrow</text>
</a>
</g>
</g>
<!-- coords_27&#45;&gt;y_arrow_32 -->
<g id="edge31" class="edge">
<title>coords_27&#45;&gt;y_arrow_32</title>
<path fill="none" stroke="black" d="M684.59,-222.02C701.02,-214.61 722.37,-204.99 740.48,-196.82"/>
<polygon fill="black" stroke="black" points="741.94,-200 749.61,-192.7 739.06,-193.62 741.94,-200"/>
</g>
<!-- z_arrow_35 -->
<g id="node35" class="node">
<title>z_arrow_35</title>
<g id="a_node35"><a xlink:href="javascript:s=&quot;\(&quot;\(&#x27;item&#x27;,\ 1\),\ &#x27;path_op&#x27;,\ 2,\ 0\.5,\ ex_end=False,\ linear_compat=True&quot;,\ &#x27;coords&#x27;,\ &#x27;z_arrow&#x27;\)\nArrow&quot;; console.log(s); alert(s);" xlink:title="Arrow">
<ellipse fill="none" stroke="black" cx="778.8" cy="-72" rx="40.09" ry="18"/>
<text text-anchor="middle" x="778.8" y="-68.3" font-family="Times New Roman,serif" font-size="14.00">z_arrow</text>
</a>
</g>
</g>
<!-- coords_27&#45;&gt;z_arrow_35 -->
<g id="edge34" class="edge">
<title>coords_27&#45;&gt;z_arrow_35</title>
<path fill="none" stroke="black" d="M683.28,-221.43C689.82,-217.41 696.52,-212.54 701.85,-207 718.2,-189.99 747.83,-132.85 764.84,-98.6"/>
<polygon fill="black" stroke="black" points="768,-100.12 769.28,-89.6 761.72,-97.02 768,-100.12"/>
</g>
<!-- stem_30 -->
<g id="node30" class="node">
<title>stem_30</title>
<g id="a_node30"><a xlink:href="javascript:s=&quot;\(&quot;\(&#x27;item&#x27;,\ 1\),\ &#x27;path_op&#x27;,\ 2,\ 0\.5,\ ex_end=False,\ linear_compat=True&quot;,\ &#x27;coords&#x27;,\ &#x27;x_arrow&#x27;,\ &#x27;stem&#x27;\)\nCone&quot;; console.log(s); alert(s);" xlink:title="Cone">
<ellipse fill="none" stroke="black" cx="883.69" cy="-288" rx="27.9" ry="18"/>
<text text-anchor="middle" x="883.69" y="-284.3" font-family="Times New Roman,serif" font-size="14.00">stem</text>
</a>
</g>
</g>
<!-- x_arrow_29&#45;&gt;stem_30 -->
<g id="edge29" class="edge">
<title>x_arrow_29&#45;&gt;stem_30</title>
<path fill="none" stroke="black" d="M805.76,-247.63C819.92,-255.06 837.53,-264.3 852.33,-272.07"/>
<polygon fill="black" stroke="black" points="851.1,-275.37 861.58,-276.92 854.35,-269.18 851.1,-275.37"/>
</g>
<!-- head_31 -->
<g id="node31" class="node">
<title>head_31</title>
<g id="a_node31"><a xlink:href="javascript:s=&quot;\(&quot;\(&#x27;item&#x27;,\ 1\),\ &#x27;path_op&#x27;,\ 2,\ 0\.5,\ ex_end=False,\ linear_compat=True&quot;,\ &#x27;coords&#x27;,\ &#x27;x_arrow&#x27;,\ &#x27;head&#x27;\)\nCone&quot;; console.log(s); alert(s);" xlink:title="Cone">
<ellipse fill="none" stroke="black" cx="883.69" cy="-234" rx="27.9" ry="18"/>
<text text-anchor="middle" x="883.69" y="-230.3" font-family="Times New Roman,serif" font-size="14.00">head</text>
</a>
</g>
</g>
<!-- x_arrow_29&#45;&gt;head_31 -->
<g id="edge30" class="edge">
<title>x_arrow_29&#45;&gt;head_31</title>
<path fill="none" stroke="black" d="M819.87,-234C828.28,-234 837.12,-234 845.42,-234"/>
<polygon fill="black" stroke="black" points="845.58,-237.5 855.58,-234 845.58,-230.5 845.58,-237.5"/>
</g>
<!-- stem_33 -->
<g id="node33" class="node">
<title>stem_33</title>
<g id="a_node33"><a xlink:href="javascript:s=&quot;\(&quot;\(&#x27;item&#x27;,\ 1\),\ &#x27;path_op&#x27;,\ 2,\ 0\.5,\ ex_end=False,\ linear_compat=True&quot;,\ &#x27;coords&#x27;,\ &#x27;y_arrow&#x27;,\ &#x27;stem&#x27;\)\nCone&quot;; console.log(s); alert(s);" xlink:title="Cone">
<ellipse fill="none" stroke="black" cx="883.69" cy="-180" rx="27.9" ry="18"/>
<text text-anchor="middle" x="883.69" y="-176.3" font-family="Times New Roman,serif" font-size="14.00">stem</text>
</a>
</g>
</g>
<!-- y_arrow_32&#45;&gt;stem_33 -->
<g id="edge32" class="edge">
<title>y_arrow_32&#45;&gt;stem_33</title>
<path fill="none" stroke="black" d="M819.87,-180C828.28,-180 837.12,-180 845.42,-180"/>
<polygon fill="black" stroke="black" points="845.58,-183.5 855.58,-180 845.58,-176.5 845.58,-183.5"/>
</g>
<!-- head_34 -->
<g id="node34" class="node">
<title>head_34</title>
<g id="a_node34"><a xlink:href="javascript:s=&quot;\(&quot;\(&#x27;item&#x27;,\ 1\),\ &#x27;path_op&#x27;,\ 2,\ 0\.5,\ ex_end=False,\ linear_compat=True&quot;,\ &#x27;coords&#x27;,\ &#x27;y_arrow&#x27;,\ &#x27;head&#x27;\)\nCone&quot;; console.log(s); alert(s);" xlink:title="Cone">
<ellipse fill="none" stroke="black" cx="883.69" cy="-126" rx="27.9" ry="18"/>
<text text-anchor="middle" x="883.69" y="-122.3" font-family="Times New Roman,serif" font-size="14.00">head</text>
</a>
</g>
</g>
<!-- y_arrow_32&#45;&gt;head_34 -->
<g id="edge33" class="edge">
<title>y_arrow_32&#45;&gt;head_34</title>
<path fill="none" stroke="black" d="M805.76,-166.37C819.92,-158.94 837.53,-149.7 852.33,-141.93"/>
<polygon fill="black" stroke="black" points="854.35,-144.82 861.58,-137.08 851.1,-138.63 854.35,-144.82"/>
</g>
<!-- stem_36 -->
<g id="node36" class="node">
<title>stem_36</title>
<g id="a_node36"><a xlink:href="javascript:s=&quot;\(&quot;\(&#x27;item&#x27;,\ 1\),\ &#x27;path_op&#x27;,\ 2,\ 0\.5,\ ex_end=False,\ linear_compat=True&quot;,\ &#x27;coords&#x27;,\ &#x27;z_arrow&#x27;,\ &#x27;stem&#x27;\)\nCone&quot;; console.log(s); alert(s);" xlink:title="Cone">
<ellipse fill="none" stroke="black" cx="883.69" cy="-72" rx="27.9" ry="18"/>
<text text-anchor="middle" x="883.69" y="-68.3" font-family="Times New Roman,serif" font-size="14.00">stem</text>
</a>
</g>
</g>
<!-- z_arrow_35&#45;&gt;stem_36 -->
<g id="edge35" class="edge">
<title>z_arrow_35&#45;&gt;stem_36</title>
<path fill="none" stroke="black" d="M819.28,-72C827.9,-72 837,-72 845.53,-72"/>
<polygon fill="black" stroke="black" points="845.58,-75.5 855.58,-72 845.58,-68.5 845.58,-75.5"/>
</g>
<!-- head_37 -->
<g id="node37" class="node">
<title>head_37</title>
<g id="a_node37"><a xlink:href="javascript:s=&quot;\(&quot;\(&#x27;item&#x27;,\ 1\),\ &#x27;path_op&#x27;,\ 2,\ 0\.5,\ ex_end=False,\ linear_compat=True&quot;,\ &#x27;coords&#x27;,\ &#x27;z_arrow&#x27;,\ &#x27;head&#x27;\)\nCone&quot;; console.log(s); alert(s);" xlink:title="Cone">
<ellipse fill="none" stroke="black" cx="883.69" cy="-18" rx="27.9" ry="18"/>
<text text-anchor="middle" x="883.69" y="-14.3" font-family="Times New Roman,serif" font-size="14.00">head</text>
</a>
</g>
</g>
<!-- z_arrow_35&#45;&gt;head_37 -->
<g id="edge36" class="edge">
<title>z_arrow_35&#45;&gt;head_37</title>
<path fill="none" stroke="black" d="M805.49,-58.51C819.79,-51.01 837.66,-41.63 852.6,-33.79"/>
<polygon fill="black" stroke="black" points="854.24,-36.88 861.47,-29.14 850.99,-30.68 854.24,-36.88"/>
</g>
</g>
</svg>
