<?xml version="1.0" encoding="UTF-8" standalone="no"?>
<!DOCTYPE svg PUBLIC "-//W3C//DTD SVG 1.1//EN"
 "http://www.w3.org/Graphics/SVG/1.1/DTD/svg11.dtd">
<!-- Generated by graphviz version 5.0.0 (20220707.1540)
 -->
<!-- Title: default Pages: 1 -->
<svg width="531pt" height="503pt"
 viewBox="0.00 0.00 530.97 503.00" xmlns="http://www.w3.org/2000/svg" xmlns:xlink="http://www.w3.org/1999/xlink">
<g id="graph0" class="graph" transform="scale(1 1) rotate(0) translate(4 499)">
<title>default</title>
<polygon fill="white" stroke="transparent" points="-4,4 -4,-499 526.97,-499 526.97,4 -4,4"/>
<!-- root_1 -->
<g id="node1" class="node">
<title>root_1</title>
<g id="a_node1"><a xlink:href="javascript:s=&quot;\(\)\nNone&quot;; console.log(s); alert(s);" xlink:title="root">
<ellipse fill="none" stroke="black" cx="27" cy="-247" rx="27" ry="18"/>
<text text-anchor="middle" x="27" y="-243.3" font-family="Times New Roman,serif" font-size="14.00">root</text>
</a>
</g>
</g>
<!-- default_2 -->
<g id="node2" class="node">
<title>default_2</title>
<g id="a_node2"><a xlink:href="javascript:s=&quot;\(&#x27;default&#x27;,\)\nSnap&quot;; console.log(s); alert(s);" xlink:title="Snap">
<ellipse fill="none" stroke="black" cx="142.65" cy="-396" rx="35.19" ry="18"/>
<text text-anchor="middle" x="142.65" y="-392.3" font-family="Times New Roman,serif" font-size="14.00">default</text>
</a>
</g>
</g>
<!-- root_1&#45;&gt;default_2 -->
<g id="edge1" class="edge">
<title>root_1&#45;&gt;default_2</title>
<path fill="none" stroke="black" d="M40.16,-262.95C59.95,-288.88 99.24,-340.41 122.71,-371.17"/>
<polygon fill="black" stroke="black" points="120.03,-373.43 128.88,-379.26 125.6,-369.19 120.03,-373.43"/>
</g>
<!-- 11 -->
<g id="node11" class="node">
<title>11</title>
<g id="a_node11"><a xlink:href="javascript:s=&quot;\(&quot;&#x27;snap&#x27;,\ 0\.5,\ &quot;,\)\nAnnotatedCoordinates&quot;; console.log(s); alert(s);" xlink:title="AnnotatedCoordinates">
<ellipse fill="none" stroke="black" cx="142.65" cy="-153" rx="52.79" ry="18"/>
<text text-anchor="middle" x="142.65" y="-149.3" font-family="Times New Roman,serif" font-size="14.00">&#39;snap&#39;, 0.5, </text>
</a>
</g>
</g>
<!-- root_1&#45;&gt;11 -->
<g id="edge10" class="edge">
<title>root_1&#45;&gt;11</title>
<path fill="none" stroke="black" d="M44.77,-233.13C62.84,-218.19 91.89,-194.15 113.48,-176.3"/>
<polygon fill="black" stroke="black" points="115.87,-178.86 121.35,-169.79 111.41,-173.47 115.87,-178.86"/>
</g>
<!-- cage_3 -->
<g id="node3" class="node">
<title>cage_3</title>
<g id="a_node3"><a xlink:href="javascript:s=&quot;\(&#x27;default&#x27;,\ &#x27;cage&#x27;\)\nBox&quot;; console.log(s); alert(s);" xlink:title="Box">
<ellipse fill="none" stroke="black" cx="267.69" cy="-477" rx="27.1" ry="18"/>
<text text-anchor="middle" x="267.69" y="-473.3" font-family="Times New Roman,serif" font-size="14.00">cage</text>
</a>
</g>
</g>
<!-- default_2&#45;&gt;cage_3 -->
<g id="edge2" class="edge">
<title>default_2&#45;&gt;cage_3</title>
<path fill="none" stroke="black" d="M165.08,-410.11C185.62,-423.63 216.73,-444.11 239.11,-458.85"/>
<polygon fill="black" stroke="black" points="237.24,-461.81 247.52,-464.38 241.09,-455.96 237.24,-461.81"/>
</g>
<!-- tooth_4 -->
<g id="node4" class="node">
<title>tooth_4</title>
<g id="a_node4"><a xlink:href="javascript:s=&quot;\(&#x27;default&#x27;,\ &#x27;tooth&#x27;\)\nLinearExtrude&quot;; console.log(s); alert(s);" xlink:title="LinearExtrude">
<ellipse fill="none" stroke="black" cx="267.69" cy="-423" rx="29.8" ry="18"/>
<text text-anchor="middle" x="267.69" y="-419.3" font-family="Times New Roman,serif" font-size="14.00">tooth</text>
</a>
</g>
</g>
<!-- default_2&#45;&gt;tooth_4 -->
<g id="edge3" class="edge">
<title>default_2&#45;&gt;tooth_4</title>
<path fill="none" stroke="black" d="M175.33,-402.95C191.88,-406.58 212.23,-411.05 229.51,-414.84"/>
<polygon fill="black" stroke="black" points="228.77,-418.26 239.29,-416.99 230.27,-411.43 228.77,-418.26"/>
</g>
<!-- clip_5 -->
<g id="node5" class="node">
<title>clip_5</title>
<g id="a_node5"><a xlink:href="javascript:s=&quot;\(&#x27;default&#x27;,\ &#x27;clip&#x27;\)\nMaker&quot;; console.log(s); alert(s);" xlink:title="Maker">
<ellipse fill="none" stroke="black" cx="267.69" cy="-369" rx="27" ry="18"/>
<text text-anchor="middle" x="267.69" y="-365.3" font-family="Times New Roman,serif" font-size="14.00">clip</text>
</a>
</g>
</g>
<!-- default_2&#45;&gt;clip_5 -->
<g id="edge4" class="edge">
<title>default_2&#45;&gt;clip_5</title>
<path fill="none" stroke="black" d="M175.33,-389.05C192.59,-385.26 213.99,-380.56 231.73,-376.67"/>
<polygon fill="black" stroke="black" points="232.68,-380.04 241.7,-374.48 231.18,-373.21 232.68,-380.04"/>
</g>
<!-- clip_cage_6 -->
<g id="node6" class="node">
<title>clip_cage_6</title>
<g id="a_node6"><a xlink:href="javascript:s=&quot;\(&#x27;default&#x27;,\ &#x27;clip&#x27;,\ &#x27;clip_cage&#x27;\)\nBox&quot;; console.log(s); alert(s);" xlink:title="Box">
<ellipse fill="none" stroke="black" cx="385.58" cy="-450" rx="45.49" ry="18"/>
<text text-anchor="middle" x="385.58" y="-446.3" font-family="Times New Roman,serif" font-size="14.00">clip_cage</text>
</a>
</g>
</g>
<!-- clip_5&#45;&gt;clip_cage_6 -->
<g id="edge5" class="edge">
<title>clip_5&#45;&gt;clip_cage_6</title>
<path fill="none" stroke="black" d="M286.28,-382.46C305.62,-397.22 334.68,-419.33 340.08,-423 343.35,-425.22 346.81,-427.47 350.28,-429.68"/>
<polygon fill="black" stroke="black" points="348.54,-432.72 358.88,-435.02 352.24,-426.77 348.54,-432.72"/>
</g>
<!-- clip_7 -->
<g id="node7" class="node">
<title>clip_7</title>
<g id="a_node7"><a xlink:href="javascript:s=&quot;\(&#x27;default&#x27;,\ &#x27;clip&#x27;,\ &#x27;clip&#x27;\)\nBox&quot;; console.log(s); alert(s);" xlink:title="Box">
<ellipse fill="none" stroke="black" cx="385.58" cy="-396" rx="27" ry="18"/>
<text text-anchor="middle" x="385.58" y="-392.3" font-family="Times New Roman,serif" font-size="14.00">clip</text>
</a>
</g>
</g>
<!-- clip_5&#45;&gt;clip_7 -->
<g id="edge6" class="edge">
<title>clip_5&#45;&gt;clip_7</title>
<path fill="none" stroke="black" d="M293.55,-374.79C309.97,-378.62 331.73,-383.69 349.85,-387.91"/>
<polygon fill="black" stroke="black" points="349.23,-391.36 359.76,-390.22 350.81,-384.54 349.23,-391.36"/>
</g>
<!-- keep_8 -->
<g id="node8" class="node">
<title>keep_8</title>
<g id="a_node8"><a xlink:href="javascript:s=&quot;\(&#x27;default&#x27;,\ &#x27;clip&#x27;,\ &#x27;keep&#x27;\)\nBoxSideBevels&quot;; console.log(s); alert(s);" xlink:title="BoxSideBevels">
<ellipse fill="none" stroke="black" cx="385.58" cy="-342" rx="27.9" ry="18"/>
<text text-anchor="middle" x="385.58" y="-338.3" font-family="Times New Roman,serif" font-size="14.00">keep</text>
</a>
</g>
</g>
<!-- clip_5&#45;&gt;keep_8 -->
<g id="edge7" class="edge">
<title>clip_5&#45;&gt;keep_8</title>
<path fill="none" stroke="black" d="M293.55,-363.21C309.75,-359.43 331.13,-354.45 349.11,-350.26"/>
<polygon fill="black" stroke="black" points="350.01,-353.65 358.96,-347.97 348.42,-346.83 350.01,-353.65"/>
</g>
<!-- shell_9 -->
<g id="node9" class="node">
<title>shell_9</title>
<g id="a_node9"><a xlink:href="javascript:s=&quot;\(&#x27;default&#x27;,\ &#x27;clip&#x27;,\ &#x27;keep&#x27;,\ &#x27;shell&#x27;\)\nBox&quot;; console.log(s); alert(s);" xlink:title="Box">
<ellipse fill="none" stroke="black" cx="495.02" cy="-396" rx="27" ry="18"/>
<text text-anchor="middle" x="495.02" y="-392.3" font-family="Times New Roman,serif" font-size="14.00">shell</text>
</a>
</g>
</g>
<!-- keep_8&#45;&gt;shell_9 -->
<g id="edge8" class="edge">
<title>keep_8&#45;&gt;shell_9</title>
<path fill="none" stroke="black" d="M408.06,-352.8C423.98,-360.8 445.88,-371.81 463.6,-380.71"/>
<polygon fill="black" stroke="black" points="462.44,-384.04 472.94,-385.4 465.58,-377.79 462.44,-384.04"/>
</g>
<!-- hull_10 -->
<g id="node10" class="node">
<title>hull_10</title>
<g id="a_node10"><a xlink:href="javascript:s=&quot;\(&#x27;default&#x27;,\ &#x27;clip&#x27;,\ &#x27;keep&#x27;,\ &#x27;hull&#x27;\)\nLinearExtrude&quot;; console.log(s); alert(s);" xlink:title="LinearExtrude">
<ellipse fill="none" stroke="black" cx="495.02" cy="-342" rx="27" ry="18"/>
<text text-anchor="middle" x="495.02" y="-338.3" font-family="Times New Roman,serif" font-size="14.00">hull</text>
</a>
</g>
</g>
<!-- keep_8&#45;&gt;hull_10 -->
<g id="edge9" class="edge">
<title>keep_8&#45;&gt;hull_10</title>
<path fill="none" stroke="black" d="M413.69,-342C427,-342 443.22,-342 457.59,-342"/>
<polygon fill="black" stroke="black" points="457.66,-345.5 467.66,-342 457.66,-338.5 457.66,-345.5"/>
</g>
<!-- coords_12 -->
<g id="node12" class="node">
<title>coords_12</title>
<g id="a_node12"><a xlink:href="javascript:s=&quot;\(&quot;&#x27;snap&#x27;,\ 0\.5,\ &quot;,\ &#x27;coords&#x27;\)\nCoordinates&quot;; console.log(s); alert(s);" xlink:title="Coordinates">
<ellipse fill="none" stroke="black" cx="267.69" cy="-234" rx="36.29" ry="18"/>
<text text-anchor="middle" x="267.69" y="-230.3" font-family="Times New Roman,serif" font-size="14.00">coords</text>
</a>
</g>
</g>
<!-- 11&#45;&gt;coords_12 -->
<g id="edge11" class="edge">
<title>11&#45;&gt;coords_12</title>
<path fill="none" stroke="black" d="M167.95,-169C187.56,-181.91 215.25,-200.14 236.32,-214.01"/>
<polygon fill="black" stroke="black" points="234.63,-217.08 244.9,-219.66 238.47,-211.24 234.63,-217.08"/>
</g>
<!-- x_23 -->
<g id="node23" class="node">
<title>x_23</title>
<g id="a_node23"><a xlink:href="javascript:s=&quot;\(&quot;&#x27;snap&#x27;,\ 0\.5,\ &quot;,\ &#x27;x&#x27;\)\nText&quot;; console.log(s); alert(s);" xlink:title="Text">
<ellipse fill="none" stroke="black" cx="267.69" cy="-180" rx="27" ry="18"/>
<text text-anchor="middle" x="267.69" y="-176.3" font-family="Times New Roman,serif" font-size="14.00">x</text>
</a>
</g>
</g>
<!-- 11&#45;&gt;x_23 -->
<g id="edge22" class="edge">
<title>11&#45;&gt;x_23</title>
<path fill="none" stroke="black" d="M187.37,-162.6C201.9,-165.78 217.88,-169.29 231.67,-172.32"/>
<polygon fill="black" stroke="black" points="231.21,-175.8 241.72,-174.52 232.71,-168.96 231.21,-175.8"/>
</g>
<!-- y_24 -->
<g id="node24" class="node">
<title>y_24</title>
<g id="a_node24"><a xlink:href="javascript:s=&quot;\(&quot;&#x27;snap&#x27;,\ 0\.5,\ &quot;,\ &#x27;y&#x27;\)\nText&quot;; console.log(s); alert(s);" xlink:title="Text">
<ellipse fill="none" stroke="black" cx="267.69" cy="-126" rx="27" ry="18"/>
<text text-anchor="middle" x="267.69" y="-122.3" font-family="Times New Roman,serif" font-size="14.00">y</text>
</a>
</g>
</g>
<!-- 11&#45;&gt;y_24 -->
<g id="edge23" class="edge">
<title>11&#45;&gt;y_24</title>
<path fill="none" stroke="black" d="M187.37,-143.4C201.9,-140.22 217.88,-136.71 231.67,-133.68"/>
<polygon fill="black" stroke="black" points="232.71,-137.04 241.72,-131.48 231.21,-130.2 232.71,-137.04"/>
</g>
<!-- z_25 -->
<g id="node25" class="node">
<title>z_25</title>
<g id="a_node25"><a xlink:href="javascript:s=&quot;\(&quot;&#x27;snap&#x27;,\ 0\.5,\ &quot;,\ &#x27;z&#x27;\)\nText&quot;; console.log(s); alert(s);" xlink:title="Text">
<ellipse fill="none" stroke="black" cx="267.69" cy="-72" rx="27" ry="18"/>
<text text-anchor="middle" x="267.69" y="-68.3" font-family="Times New Roman,serif" font-size="14.00">z</text>
</a>
</g>
</g>
<!-- 11&#45;&gt;z_25 -->
<g id="edge24" class="edge">
<title>11&#45;&gt;z_25</title>
<path fill="none" stroke="black" d="M167.95,-137C188.42,-123.52 217.69,-104.25 239.05,-90.2"/>
<polygon fill="black" stroke="black" points="241.24,-92.94 247.67,-84.52 237.39,-87.1 241.24,-92.94"/>
</g>
<!-- label_26 -->
<g id="node26" class="node">
<title>label_26</title>
<g id="a_node26"><a xlink:href="javascript:s=&quot;\(&quot;&#x27;snap&#x27;,\ 0\.5,\ &quot;,\ &#x27;label&#x27;\)\nText&quot;; console.log(s); alert(s);" xlink:title="Text">
<ellipse fill="none" stroke="black" cx="267.69" cy="-18" rx="27.1" ry="18"/>
<text text-anchor="middle" x="267.69" y="-14.3" font-family="Times New Roman,serif" font-size="14.00">label</text>
</a>
</g>
</g>
<!-- 11&#45;&gt;label_26 -->
<g id="edge25" class="edge">
<title>11&#45;&gt;label_26</title>
<path fill="none" stroke="black" d="M155.86,-135.48C171.82,-113.19 201.31,-74.09 231.29,-45 234,-42.37 236.97,-39.76 239.99,-37.26"/>
<polygon fill="black" stroke="black" points="242.31,-39.89 248,-30.95 237.98,-34.39 242.31,-39.89"/>
</g>
<!-- origin_13 -->
<g id="node13" class="node">
<title>origin_13</title>
<g id="a_node13"><a xlink:href="javascript:s=&quot;\(&quot;&#x27;snap&#x27;,\ 0\.5,\ &quot;,\ &#x27;coords&#x27;,\ &#x27;origin&#x27;\)\nCoordinatesCage&quot;; console.log(s); alert(s);" xlink:title="CoordinatesCage">
<ellipse fill="none" stroke="black" cx="385.58" cy="-288" rx="31.4" ry="18"/>
<text text-anchor="middle" x="385.58" y="-284.3" font-family="Times New Roman,serif" font-size="14.00">origin</text>
</a>
</g>
</g>
<!-- coords_12&#45;&gt;origin_13 -->
<g id="edge12" class="edge">
<title>coords_12&#45;&gt;origin_13</title>
<path fill="none" stroke="black" d="M294.7,-246.12C311.36,-253.88 333.16,-264.04 351.11,-272.41"/>
<polygon fill="black" stroke="black" points="350.09,-275.79 360.63,-276.84 353.05,-269.45 350.09,-275.79"/>
</g>
<!-- x_arrow_14 -->
<g id="node14" class="node">
<title>x_arrow_14</title>
<g id="a_node14"><a xlink:href="javascript:s=&quot;\(&quot;&#x27;snap&#x27;,\ 0\.5,\ &quot;,\ &#x27;coords&#x27;,\ &#x27;x_arrow&#x27;\)\nArrow&quot;; console.log(s); alert(s);" xlink:title="Arrow">
<ellipse fill="none" stroke="black" cx="385.58" cy="-234" rx="40.89" ry="18"/>
<text text-anchor="middle" x="385.58" y="-230.3" font-family="Times New Roman,serif" font-size="14.00">x_arrow</text>
</a>
</g>
</g>
<!-- coords_12&#45;&gt;x_arrow_14 -->
<g id="edge13" class="edge">
<title>coords_12&#45;&gt;x_arrow_14</title>
<path fill="none" stroke="black" d="M304.09,-234C313.67,-234 324.24,-234 334.46,-234"/>
<polygon fill="black" stroke="black" points="334.53,-237.5 344.53,-234 334.53,-230.5 334.53,-237.5"/>
</g>
<!-- y_arrow_17 -->
<g id="node17" class="node">
<title>y_arrow_17</title>
<g id="a_node17"><a xlink:href="javascript:s=&quot;\(&quot;&#x27;snap&#x27;,\ 0\.5,\ &quot;,\ &#x27;coords&#x27;,\ &#x27;y_arrow&#x27;\)\nArrow&quot;; console.log(s); alert(s);" xlink:title="Arrow">
<ellipse fill="none" stroke="black" cx="385.58" cy="-180" rx="40.89" ry="18"/>
<text text-anchor="middle" x="385.58" y="-176.3" font-family="Times New Roman,serif" font-size="14.00">y_arrow</text>
</a>
</g>
</g>
<!-- coords_12&#45;&gt;y_arrow_17 -->
<g id="edge16" class="edge">
<title>coords_12&#45;&gt;y_arrow_17</title>
<path fill="none" stroke="black" d="M294.7,-221.88C310.24,-214.64 330.24,-205.32 347.42,-197.31"/>
<polygon fill="black" stroke="black" points="349.05,-200.42 356.63,-193.02 346.09,-194.07 349.05,-200.42"/>
</g>
<!-- z_arrow_20 -->
<g id="node20" class="node">
<title>z_arrow_20</title>
<g id="a_node20"><a xlink:href="javascript:s=&quot;\(&quot;&#x27;snap&#x27;,\ 0\.5,\ &quot;,\ &#x27;coords&#x27;,\ &#x27;z_arrow&#x27;\)\nArrow&quot;; console.log(s); alert(s);" xlink:title="Arrow">
<ellipse fill="none" stroke="black" cx="385.58" cy="-72" rx="40.09" ry="18"/>
<text text-anchor="middle" x="385.58" y="-68.3" font-family="Times New Roman,serif" font-size="14.00">z_arrow</text>
</a>
</g>
</g>
<!-- coords_12&#45;&gt;z_arrow_20 -->
<g id="edge19" class="edge">
<title>coords_12&#45;&gt;z_arrow_20</title>
<path fill="none" stroke="black" d="M290.41,-219.52C295.22,-215.76 300.07,-211.5 304.08,-207 320.02,-189.13 351.94,-132.32 370.44,-98.35"/>
<polygon fill="black" stroke="black" points="373.58,-99.89 375.27,-89.43 367.43,-96.55 373.58,-99.89"/>
</g>
<!-- stem_15 -->
<g id="node15" class="node">
<title>stem_15</title>
<g id="a_node15"><a xlink:href="javascript:s=&quot;\(&quot;&#x27;snap&#x27;,\ 0\.5,\ &quot;,\ &#x27;coords&#x27;,\ &#x27;x_arrow&#x27;,\ &#x27;stem&#x27;\)\nCone&quot;; console.log(s); alert(s);" xlink:title="Cone">
<ellipse fill="none" stroke="black" cx="495.02" cy="-288" rx="27.9" ry="18"/>
<text text-anchor="middle" x="495.02" y="-284.3" font-family="Times New Roman,serif" font-size="14.00">stem</text>
</a>
</g>
</g>
<!-- x_arrow_14&#45;&gt;stem_15 -->
<g id="edge14" class="edge">
<title>x_arrow_14&#45;&gt;stem_15</title>
<path fill="none" stroke="black" d="M413.14,-247.35C428.27,-254.95 447.3,-264.52 463.1,-272.46"/>
<polygon fill="black" stroke="black" points="461.95,-275.8 472.46,-277.16 465.09,-269.54 461.95,-275.8"/>
</g>
<!-- head_16 -->
<g id="node16" class="node">
<title>head_16</title>
<g id="a_node16"><a xlink:href="javascript:s=&quot;\(&quot;&#x27;snap&#x27;,\ 0\.5,\ &quot;,\ &#x27;coords&#x27;,\ &#x27;x_arrow&#x27;,\ &#x27;head&#x27;\)\nCone&quot;; console.log(s); alert(s);" xlink:title="Cone">
<ellipse fill="none" stroke="black" cx="495.02" cy="-234" rx="27.9" ry="18"/>
<text text-anchor="middle" x="495.02" y="-230.3" font-family="Times New Roman,serif" font-size="14.00">head</text>
</a>
</g>
</g>
<!-- x_arrow_14&#45;&gt;head_16 -->
<g id="edge15" class="edge">
<title>x_arrow_14&#45;&gt;head_16</title>
<path fill="none" stroke="black" d="M426.59,-234C436.49,-234 447.06,-234 456.82,-234"/>
<polygon fill="black" stroke="black" points="457.03,-237.5 467.03,-234 457.03,-230.5 457.03,-237.5"/>
</g>
<!-- stem_18 -->
<g id="node18" class="node">
<title>stem_18</title>
<g id="a_node18"><a xlink:href="javascript:s=&quot;\(&quot;&#x27;snap&#x27;,\ 0\.5,\ &quot;,\ &#x27;coords&#x27;,\ &#x27;y_arrow&#x27;,\ &#x27;stem&#x27;\)\nCone&quot;; console.log(s); alert(s);" xlink:title="Cone">
<ellipse fill="none" stroke="black" cx="495.02" cy="-180" rx="27.9" ry="18"/>
<text text-anchor="middle" x="495.02" y="-176.3" font-family="Times New Roman,serif" font-size="14.00">stem</text>
</a>
</g>
</g>
<!-- y_arrow_17&#45;&gt;stem_18 -->
<g id="edge17" class="edge">
<title>y_arrow_17&#45;&gt;stem_18</title>
<path fill="none" stroke="black" d="M426.59,-180C436.49,-180 447.06,-180 456.82,-180"/>
<polygon fill="black" stroke="black" points="457.03,-183.5 467.03,-180 457.03,-176.5 457.03,-183.5"/>
</g>
<!-- head_19 -->
<g id="node19" class="node">
<title>head_19</title>
<g id="a_node19"><a xlink:href="javascript:s=&quot;\(&quot;&#x27;snap&#x27;,\ 0\.5,\ &quot;,\ &#x27;coords&#x27;,\ &#x27;y_arrow&#x27;,\ &#x27;head&#x27;\)\nCone&quot;; console.log(s); alert(s);" xlink:title="Cone">
<ellipse fill="none" stroke="black" cx="495.02" cy="-126" rx="27.9" ry="18"/>
<text text-anchor="middle" x="495.02" y="-122.3" font-family="Times New Roman,serif" font-size="14.00">head</text>
</a>
</g>
</g>
<!-- y_arrow_17&#45;&gt;head_19 -->
<g id="edge18" class="edge">
<title>y_arrow_17&#45;&gt;head_19</title>
<path fill="none" stroke="black" d="M413.14,-166.65C428.27,-159.05 447.3,-149.48 463.1,-141.54"/>
<polygon fill="black" stroke="black" points="465.09,-144.46 472.46,-136.84 461.95,-138.2 465.09,-144.46"/>
</g>
<!-- stem_21 -->
<g id="node21" class="node">
<title>stem_21</title>
<g id="a_node21"><a xlink:href="javascript:s=&quot;\(&quot;&#x27;snap&#x27;,\ 0\.5,\ &quot;,\ &#x27;coords&#x27;,\ &#x27;z_arrow&#x27;,\ &#x27;stem&#x27;\)\nCone&quot;; console.log(s); alert(s);" xlink:title="Cone">
<ellipse fill="none" stroke="black" cx="495.02" cy="-72" rx="27.9" ry="18"/>
<text text-anchor="middle" x="495.02" y="-68.3" font-family="Times New Roman,serif" font-size="14.00">stem</text>
</a>
</g>
</g>
<!-- z_arrow_20&#45;&gt;stem_21 -->
<g id="edge20" class="edge">
<title>z_arrow_20&#45;&gt;stem_21</title>
<path fill="none" stroke="black" d="M425.98,-72C436.11,-72 446.98,-72 456.99,-72"/>
<polygon fill="black" stroke="black" points="457.05,-75.5 467.05,-72 457.05,-68.5 457.05,-75.5"/>
</g>
<!-- head_22 -->
<g id="node22" class="node">
<title>head_22</title>
<g id="a_node22"><a xlink:href="javascript:s=&quot;\(&quot;&#x27;snap&#x27;,\ 0\.5,\ &quot;,\ &#x27;coords&#x27;,\ &#x27;z_arrow&#x27;,\ &#x27;head&#x27;\)\nCone&quot;; console.log(s); alert(s);" xlink:title="Cone">
<ellipse fill="none" stroke="black" cx="495.02" cy="-18" rx="27.9" ry="18"/>
<text text-anchor="middle" x="495.02" y="-14.3" font-family="Times New Roman,serif" font-size="14.00">head</text>
</a>
</g>
</g>
<!-- z_arrow_20&#45;&gt;head_22 -->
<g id="edge21" class="edge">
<title>z_arrow_20&#45;&gt;head_22</title>
<path fill="none" stroke="black" d="M413.14,-58.65C428.27,-51.05 447.3,-41.48 463.1,-33.54"/>
<polygon fill="black" stroke="black" points="465.09,-36.46 472.46,-28.84 461.95,-30.2 465.09,-36.46"/>
</g>
</g>
</svg>
