solid OpenSCAD_Model
  facet normal -0.9891765097240051 0.14673047607854153 0
    outer loop
      vertex -7.448141121864318 1.8003612884879117 0.7649999999999997
      vertex -7.448141121864318 1.8003612884879117 0
      vertex -7.5 1.4507571336905287 0
    endloop
  endfacet
  facet normal -0.9700312537020959 0.24298017787700296 0
    outer loop
      vertex -7.448141121864318 1.8003612884879117 0.7649999999999997
      vertex -7.352761344611644 2.1811387071013453 0
      vertex -7.448141121864318 1.8003612884879117 0
    endloop
  endfacet
  facet normal -0.9415440627982696 0.3368898600571533 0
    outer loop
      vertex -7.352761344611644 2.1811387071013453 0.7649999999999997
      vertex -7.220518128573894 2.5507337281107905 0
      vertex -7.352761344611644 2.1811387071013453 0
    endloop
  endfacet
  facet normal -0.9700312537020959 0.24298017787700296 0
    outer loop
      vertex -7.448141121864318 1.8003612884879117 0.7649999999999997
      vertex -7.352761344611644 2.1811387071013453 0.7649999999999997
      vertex -7.352761344611644 2.1811387071013453 0
    endloop
  endfacet
  facet normal -0.9415440627982696 0.3368898600571533 0
    outer loop
      vertex -7.352761344611644 2.1811387071013453 0.7649999999999997
      vertex -7.220518128573894 2.5507337281107905 0.7649999999999997
      vertex -7.220518128573894 2.5507337281107905 0
    endloop
  endfacet
  facet normal -0.989176509724005 0.14673047607854153 0
    outer loop
      vertex -7.448141121864318 1.8003612884879117 0.7649999999999997
      vertex -7.5 1.4507571336905287 0
      vertex -7.448141121864318 1.8003612884879117 1.752856167414609
    endloop
  endfacet
  facet normal -0.989176509724005 0.14673047607854153 0
    outer loop
      vertex -7.448141121864318 1.8003612884879117 1.752856167414609
      vertex -7.5 1.4507571336905287 0
      vertex -7.5 1.4507571336905287 1.835115968543405
    endloop
  endfacet
  facet normal -0.9700312537020959 0.24298017787700293 0
    outer loop
      vertex -7.448141121864318 1.8003612884879117 0.7649999999999997
      vertex -7.448141121864318 1.8003612884879117 1.752856167414609
      vertex -7.352761344611644 2.1811387071013453 0.7649999999999997
    endloop
  endfacet
  facet normal -0.9415440627982695 0.3368898600571533 0
    outer loop
      vertex -7.352761344611644 2.1811387071013453 0.7649999999999997
      vertex -7.352761344611644 2.1811387071013453 1.6632614806820363
      vertex -7.220518128573894 2.5507337281107905 0.7649999999999997
    endloop
  endfacet
  facet normal -0.8032075288650024 0.5956993080192189 0
    outer loop
      vertex -6.617041812837123 3.5575731375813486 -0.36750000000000016
      vertex -6.617041812837123 3.5575731375813486 -0.5499999970197678
      vertex -6.70423999711969 3.439999997615814 -0.5499999970197678
    endloop
  endfacet
  facet normal -0.7409511174895544 0.6715589635251551 0
    outer loop
      vertex -6.617041812837123 3.5575731375813486 -0.36750000000000016
      vertex -6.487953623552141 3.7000000029802322 -0.5499999970197678
      vertex -6.617041812837123 3.5575731375813486 -0.5499999970197678
    endloop
  endfacet
  facet normal -0.7409511174895533 0.6715589635251562 1.769725425065169e-15
    outer loop
      vertex -6.617041812837123 3.5575731375813486 -0.36750000000000016
      vertex -6.353427121043205 3.8484271222352984 -0.37302920091944525
      vertex -6.487953623552141 3.7000000029802322 -0.5499999970197678
    endloop
  endfacet
  facet normal -0.9039892993552973 0.42755508025413363 0
    outer loop
      vertex -7.220518128573894 2.5507337281107905 0.7649999999999997
      vertex -7.0526850610971445 2.9055869483947756 0
      vertex -7.220518128573894 2.5507337281107905 0
    endloop
  endfacet
  facet normal -0.857728607028397 0.5141027491514957 0
    outer loop
      vertex -7.0526850610971445 2.9055869483947756 0.7649999999999997
      vertex -6.966127209693922 3.0499999970197678 0
      vertex -7.0526850610971445 2.9055869483947756 0
    endloop
  endfacet
  facet normal -0.8032075288650005 0.5956993080192216 0
    outer loop
      vertex -6.850878448784351 3.2422809356451037 0.7649999999999997
      vertex -6.70423999711969 3.439999997615814 -0.5499999970197678
      vertex -6.850878448784351 3.2422809356451037 -0.2711654243827324
    endloop
  endfacet
  facet normal -0.8032075288650024 0.5956993080192189 0
    outer loop
      vertex -6.617041812837123 3.5575731375813486 -0.36750000000000016
      vertex -6.70423999711969 3.439999997615814 -0.5499999970197678
      vertex -6.617041812837123 3.5575731375813486 0.7649999999999997
    endloop
  endfacet
  facet normal -0.8577286070283969 0.5141027491514958 0
    outer loop
      vertex -6.850878448784351 3.2422809356451037 0.7649999999999997
      vertex -6.850878448784351 3.2422809356451037 -0.2711654243827324
      vertex -6.966127209693922 3.0499999970197678 0
    endloop
  endfacet
  facet normal -0.8032075288650011 0.5956993080192206 -2.2852196922273876e-16
    outer loop
      vertex -6.850878448784351 3.2422809356451037 0.7649999999999997
      vertex -6.617041812837123 3.5575731375813486 0.7649999999999997
      vertex -6.70423999711969 3.439999997615814 -0.5499999970197678
    endloop
  endfacet
  facet normal -0.7409511174895534 0.6715589635251562 0
    outer loop
      vertex -6.617041812837123 3.5575731375813486 -0.36750000000000016
      vertex -6.353427121043205 3.8484271222352984 -0.36750000000000016
      vertex -6.353427121043205 3.8484271222352984 -0.37302920091944525
    endloop
  endfacet
  facet normal -0.6715589635251562 0.7409511174895534 0
    outer loop
      vertex -6.353427121043205 3.8484271222352984 -0.36750000000000016
      vertex -6.062573136389255 4.112041814029217 -0.05871937597201643
      vertex -6.353427121043205 3.8484271222352984 -0.37302920091944525
    endloop
  endfacet
  facet normal -0.7409511174895533 0.6715589635251562 0
    outer loop
      vertex -6.617041812837123 3.5575731375813486 -0.36750000000000016
      vertex -6.353427121043205 3.8484271222352984 0.7649999999999997
      vertex -6.353427121043205 3.8484271222352984 -0.36750000000000016
    endloop
  endfacet
  facet normal -0.6715589635251562 0.7409511174895533 0
    outer loop
      vertex -6.353427121043205 3.8484271222352984 -0.36750000000000016
      vertex -6.062573136389255 4.112041814029217 0.7649999999999997
      vertex -6.062573136389255 4.112041814029217 -0.05871937597201643
    endloop
  endfacet
  facet normal -0.5956993080192207 0.8032075288650012 0
    outer loop
      vertex -6.062573136389255 4.112041814029217 0.7649999999999997
      vertex -5.74728093445301 4.3458784499764445 0.2200858439143055
      vertex -6.062573136389255 4.112041814029217 -0.05871937597201643
    endloop
  endfacet
  facet normal -0.9039892993552973 0.42755508025413363 0
    outer loop
      vertex -7.220518128573894 2.5507337281107905 0.7649999999999997
      vertex -7.0526850610971445 2.9055869483947756 0.7649999999999997
      vertex -7.0526850610971445 2.9055869483947756 0
    endloop
  endfacet
  facet normal -0.8577286070283968 0.5141027491514957 2.3106988393565767e-17
    outer loop
      vertex -7.0526850610971445 2.9055869483947756 0.7649999999999997
      vertex -6.850878448784351 3.2422809356451037 0.7649999999999997
      vertex -6.966127209693922 3.0499999970197678 0
    endloop
  endfacet
  facet normal -0.7409511174895533 0.6715589635251562 0
    outer loop
      vertex -6.617041812837123 3.5575731375813486 -0.36750000000000016
      vertex -6.617041812837123 3.5575731375813486 0.7649999999999997
      vertex -6.353427121043205 3.8484271222352984 0.7649999999999997
    endloop
  endfacet
  facet normal -0.9039892993552974 0.4275550802541337 0
    outer loop
      vertex -7.220518128573894 2.5507337281107905 0.7649999999999997
      vertex -7.220518128573894 2.5507337281107905 1.5762979463268727
      vertex -7.0526850610971445 2.9055869483947756 0.7649999999999997
    endloop
  endfacet
  facet normal -0.857728607028397 0.5141027491514957 0
    outer loop
      vertex -7.0526850610971445 2.9055869483947756 0.7649999999999997
      vertex -7.0526850610971445 2.9055869483947756 1.492803070965935
      vertex -6.850878448784351 3.2422809356451037 0.7649999999999997
    endloop
  endfacet
  facet normal -0.803207528865001 0.5956993080192206 0
    outer loop
      vertex -6.850878448784351 3.2422809356451037 0.7649999999999997
      vertex -6.850878448784351 3.2422809356451037 1.413580956318799
      vertex -6.617041812837123 3.5575731375813486 0.7649999999999997
    endloop
  endfacet
  facet normal -0.8577286070283969 0.5141027491514957 0
    outer loop
      vertex -6.850878448784351 3.2422809356451037 0.7649999999999997
      vertex -7.0526850610971445 2.9055869483947756 1.492803070965935
      vertex -6.850878448784351 3.2422809356451037 1.413580956318799
    endloop
  endfacet
  facet normal -0.8032075288650011 0.5956993080192206 0
    outer loop
      vertex -6.617041812837123 3.5575731375813486 0.7649999999999997
      vertex -6.850878448784351 3.2422809356451037 1.413580956318799
      vertex -6.617041812837123 3.5575731375813486 1.339394555863212
    endloop
  endfacet
  facet normal -0.7409511174895533 0.6715589635251562 0
    outer loop
      vertex -6.617041812837123 3.5575731375813486 0.7649999999999997
      vertex -6.617041812837123 3.5575731375813486 1.339394555863212
      vertex -6.353427121043205 3.8484271222352984 0.7649999999999997
    endloop
  endfacet
  facet normal -0.6715589635251562 0.7409511174895533 0
    outer loop
      vertex -6.353427121043205 3.8484271222352984 -0.36750000000000016
      vertex -6.353427121043205 3.8484271222352984 0.7649999999999997
      vertex -6.062573136389255 4.112041814029217 0.7649999999999997
    endloop
  endfacet
  facet normal -0.5956993080192206 0.8032075288650012 0
    outer loop
      vertex -6.062573136389255 4.112041814029217 0.7649999999999997
      vertex -5.74728093445301 4.3458784499764445 0.7649999999999997
      vertex -5.74728093445301 4.3458784499764445 0.2200858439143055
    endloop
  endfacet
  facet normal -0.5141027351876691 0.8577286153979925 0
    outer loop
      vertex -5.74728093445301 4.3458784499764445 0.7649999999999997
      vertex -5.410586947202682 4.547685054838658 0.46070141133899084
      vertex -5.74728093445301 4.3458784499764445 0.2200858439143055
    endloop
  endfacet
  facet normal -0.6715589635251562 0.7409511174895533 0
    outer loop
      vertex -6.353427121043205 3.8484271222352984 0.7649999999999997
      vertex -6.353427121043205 3.8484271222352984 1.2709583241799298
      vertex -6.062573136389255 4.112041814029217 0.7649999999999997
    endloop
  endfacet
  facet normal -0.5956993080192206 0.8032075288650011 0
    outer loop
      vertex -6.062573136389255 4.112041814029217 0.7649999999999997
      vertex -6.062573136389255 4.112041814029217 1.2089313378754782
      vertex -5.74728093445301 4.3458784499764445 0.7649999999999997
    endloop
  endfacet
  facet normal -0.6715589635251562 0.7409511174895533 0
    outer loop
      vertex -6.062573136389255 4.112041814029217 0.7649999999999997
      vertex -6.353427121043205 3.8484271222352984 1.2709583241799298
      vertex -6.062573136389255 4.112041814029217 1.2089313378754782
    endloop
  endfacet
  facet normal -0.7409511174895533 0.6715589635251562 0
    outer loop
      vertex -6.353427121043205 3.8484271222352984 0.7649999999999997
      vertex -6.617041812837123 3.5575731375813486 1.339394555863212
      vertex -6.353427121043205 3.8484271222352984 1.2709583241799298
    endloop
  endfacet
  facet normal -0.5956993080192206 0.8032075288650011 0
    outer loop
      vertex -5.74728093445301 4.3458784499764445 0.7649999999999997
      vertex -6.062573136389255 4.112041814029217 1.2089313378754782
      vertex -5.74728093445301 4.3458784499764445 1.1539109529467189
    endloop
  endfacet
  facet normal -0.5141027351876691 0.8577286153979925 0
    outer loop
      vertex -5.74728093445301 4.3458784499764445 0.7649999999999997
      vertex -5.74728093445301 4.3458784499764445 1.1539109529467189
      vertex -5.410586947202682 4.547685054838658 0.7649999999999997
    endloop
  endfacet
  facet normal -0.514102735187669 0.8577286153979925 0
    outer loop
      vertex -5.74728093445301 4.3458784499764445 0.7649999999999997
      vertex -5.410586947202682 4.547685054838658 0.7649999999999997
      vertex -5.410586947202682 4.547685054838658 0.46070141133899084
    endloop
  endfacet
  facet normal -0.4275550957648277 0.9039892920192855 0
    outer loop
      vertex -5.410586947202682 4.547685054838658 0.7649999999999997
      vertex -5.055733726918697 4.715518129765988 0.6608100776724909
      vertex -5.410586947202682 4.547685054838658 0.46070141133899084
    endloop
  endfacet
  facet normal -0.42755509576482764 0.9039892920192856 0
    outer loop
      vertex -5.410586947202682 4.547685054838658 0.7649999999999997
      vertex -5.055733726918697 4.715518129765988 0.7649999999999997
      vertex -5.055733726918697 4.715518129765988 0.6608100776724909
    endloop
  endfacet
  facet normal -0.33688986005715327 0.9415440627982694 0
    outer loop
      vertex -5.055733726918697 4.715518129765988 0.7649999999999997
      vertex -4.686138705909252 4.847761345803738 0.8184846814681096
      vertex -5.055733726918697 4.715518129765988 0.6608100776724909
    endloop
  endfacet
  facet normal -0.4275550957648277 0.9039892920192855 0
    outer loop
      vertex -5.410586947202682 4.547685054838658 0.7649999999999997
      vertex -5.410586947202682 4.547685054838658 1.1064270459203158
      vertex -5.055733726918697 4.715518129765988 0.7649999999999997
    endloop
  endfacet
  facet normal -0.42755509576482764 0.9039892920192855 0
    outer loop
      vertex -5.055733726918697 4.715518129765988 0.7649999999999997
      vertex -5.410586947202682 4.547685054838658 1.1064270459203158
      vertex -5.055733726918697 4.715518129765988 1.066936910643297
    endloop
  endfacet
  facet normal -0.3368898600571534 0.9415440627982695 0
    outer loop
      vertex -5.055733726918697 4.715518129765988 0.7649999999999997
      vertex -5.055733726918697 4.715518129765988 1.066936910643297
      vertex -4.686138705909252 4.847761345803738 0.8184846814681096
    endloop
  endfacet
  facet normal -0.3368898600571534 0.9415440627982695 0
    outer loop
      vertex -4.686138705909252 4.847761345803738 0.8184846814681096
      vertex -5.055733726918697 4.715518129765988 1.066936910643297
      vertex -4.686138705909252 4.847761345803738 1.0358208598108851
    endloop
  endfacet
  facet normal -0.5141027351876691 0.8577286153979926 0
    outer loop
      vertex -5.410586947202682 4.547685054838658 0.7649999999999997
      vertex -5.74728093445301 4.3458784499764445 1.1539109529467189
      vertex -5.410586947202682 4.547685054838658 1.1064270459203158
    endloop
  endfacet
  facet normal -0.2429801778770028 0.9700312537020959 0
    outer loop
      vertex -4.686138705909252 4.847761345803738 0.8184846814681096
      vertex -4.686138705909252 4.847761345803738 1.0358208598108851
      vertex -4.305361287295818 4.943141123056412 0.9322067236191165
    endloop
  endfacet
  facet normal -0.24298017787700282 0.970031253702096 0
    outer loop
      vertex -4.305361287295818 4.943141123056412 0.9322067236191165
      vertex -4.686138705909252 4.847761345803738 1.0358208598108851
      vertex -4.305361287295818 4.943141123056412 1.0133785592808442
    endloop
  endfacet
  facet normal -0.14673047883339688 0.9891765093153609 0
    outer loop
      vertex -4.305361287295818 4.943141123056412 0.9322067236191165
      vertex -4.305361287295818 4.943141123056412 1.0133785592808442
      vertex -3.9220498862438866 5 1
    endloop
  endfacet
  facet normal -0.970031253702096 0.24298017787700293 0
    outer loop
      vertex -7.352761344611644 2.1811387071013453 0.7649999999999997
      vertex -7.448141121864318 1.8003612884879117 1.752856167414609
      vertex -7.352761344611644 2.1811387071013453 1.6632614806820363
    endloop
  endfacet
  facet normal -0.9415440627982695 0.3368898600571533 0
    outer loop
      vertex -7.220518128573894 2.5507337281107905 0.7649999999999997
      vertex -7.352761344611644 2.1811387071013453 1.6632614806820363
      vertex -7.220518128573894 2.5507337281107905 1.5762979463268727
    endloop
  endfacet
  facet normal -0.9039892993552974 0.4275550802541337 0
    outer loop
      vertex -7.0526850610971445 2.9055869483947756 0.7649999999999997
      vertex -7.220518128573894 2.5507337281107905 1.5762979463268727
      vertex -7.0526850610971445 2.9055869483947756 1.492803070965935
    endloop
  endfacet
  facet normal 0.9987954563516447 0.049067671345905374 0
    outer loop
      vertex 7.485738909244538 1.412068558633328 0.7649999999999997
      vertex 7.5 1.1217773697819002 0
      vertex 7.485738909244538 1.412068558633328 0
    endloop
  endfacet
  facet normal 0.9891765097240051 0.14673047607854156 0
    outer loop
      vertex 7.428141123056412 1.8003612884879117 0.7649999999999997
      vertex 7.485738909244538 1.412068558633328 0
      vertex 7.428141123056412 1.8003612884879117 0
    endloop
  endfacet
  facet normal 0.9700312537020959 0.24298017787700296 0
    outer loop
      vertex 7.332761345803738 2.1811387071013453 0.7649999999999997
      vertex 7.428141123056412 1.8003612884879117 0
      vertex 7.332761345803738 2.1811387071013453 0
    endloop
  endfacet
  facet normal 0.9415440627982696 0.3368898600571533 0
    outer loop
      vertex 7.200518129765988 2.5507337281107905 0.7649999999999997
      vertex 7.332761345803738 2.1811387071013453 0
      vertex 7.200518129765988 2.5507337281107905 0
    endloop
  endfacet
  facet normal 0.9891765097240051 0.14673047607854156 0
    outer loop
      vertex 7.485738909244538 1.412068558633328 0.7649999999999997
      vertex 7.485738909244538 1.412068558633328 0
      vertex 7.428141123056412 1.8003612884879117 0.7649999999999997
    endloop
  endfacet
  facet normal 0.9700312537020959 0.24298017787700296 0
    outer loop
      vertex 7.428141123056412 1.8003612884879117 0.7649999999999997
      vertex 7.428141123056412 1.8003612884879117 0
      vertex 7.332761345803738 2.1811387071013453 0.7649999999999997
    endloop
  endfacet
  facet normal 0.9415440627982696 0.3368898600571533 0
    outer loop
      vertex 7.332761345803738 2.1811387071013453 0.7649999999999997
      vertex 7.332761345803738 2.1811387071013453 0
      vertex 7.200518129765988 2.5507337281107905 0.7649999999999997
    endloop
  endfacet
  facet normal 0.9987954563516448 0.04906767134590538 0
    outer loop
      vertex 7.485738909244538 1.412068558633328 0.7649999999999997
      vertex 7.485738909244538 1.412068558633328 1.844219162674511
      vertex 7.5 1.1217773697819002 0
    endloop
  endfacet
  facet normal 0.989176509724005 0.14673047607854153 0
    outer loop
      vertex 7.485738909244538 1.412068558633328 0.7649999999999997
      vertex 7.428141123056412 1.8003612884879117 0.7649999999999997
      vertex 7.428141123056412 1.8003612884879117 1.7528561674146088
    endloop
  endfacet
  facet normal 0.970031253702096 0.24298017787700293 0
    outer loop
      vertex 7.428141123056412 1.8003612884879117 0.7649999999999997
      vertex 7.332761345803738 2.1811387071013453 0.7649999999999997
      vertex 7.332761345803738 2.1811387071013453 1.6632614806820363
    endloop
  endfacet
  facet normal 0.9415440627982695 0.3368898600571533 0
    outer loop
      vertex 7.332761345803738 2.1811387071013453 0.7649999999999997
      vertex 7.200518129765988 2.5507337281107905 0.7649999999999997
      vertex 7.200518129765988 2.5507337281107905 1.5762979463268727
    endloop
  endfacet
  facet normal 0.7409511174895544 0.6715589635251551 0
    outer loop
      vertex 6.597041814029217 3.5575731375813486 -0.36750000000000016
      vertex 6.597041814029217 3.5575731375813486 -0.5499999970197678
      vertex 6.467953624744235 3.7000000029802322 -0.5499999970197678
    endloop
  endfacet
  facet normal 0.7409511174895533 0.6715589635251562 1.769725425065169e-15
    outer loop
      vertex 6.597041814029217 3.5575731375813486 -0.36750000000000016
      vertex 6.467953624744235 3.7000000029802322 -0.5499999970197678
      vertex 6.333427122235299 3.8484271222352984 -0.37302920091944525
    endloop
  endfacet
  facet normal 0.8032075288650014 0.5956993080192203 -1.375797802443481e-15
    outer loop
      vertex 6.597041814029217 3.5575731375813486 -0.36750000000000016
      vertex 6.830878449976445 3.2422809356451037 -0.2711654243827325
      vertex 6.684239998311784 3.439999997615814 -0.5499999970197678
    endloop
  endfacet
  facet normal 0.8032075288650024 0.5956993080192189 0
    outer loop
      vertex 6.597041814029217 3.5575731375813486 -0.36750000000000016
      vertex 6.684239998311784 3.439999997615814 -0.5499999970197678
      vertex 6.597041814029217 3.5575731375813486 -0.5499999970197678
    endloop
  endfacet
  facet normal 0.7409511174895533 0.6715589635251562 0
    outer loop
      vertex 6.333427122235299 3.8484271222352984 -0.36750000000000016
      vertex 6.597041814029217 3.5575731375813486 0.7649999999999997
      vertex 6.597041814029217 3.5575731375813486 -0.36750000000000016
    endloop
  endfacet
  facet normal 0.8577286153979915 0.5141027351876709 0
    outer loop
      vertex 7.032685054838658 2.9055869483947756 0.7649999999999997
      vertex 7.032685054838658 2.9055869483947756 0
      vertex 6.9461272066310995 3.0499999970197678 0
    endloop
  endfacet
  facet normal 0.9039892920192855 0.4275550957648276 0
    outer loop
      vertex 7.032685054838658 2.9055869483947756 0.7649999999999997
      vertex 7.200518129765988 2.5507337281107905 0
      vertex 7.032685054838658 2.9055869483947756 0
    endloop
  endfacet
  facet normal 0.8032075288650012 0.5956993080192206 0
    outer loop
      vertex 6.597041814029217 3.5575731375813486 -0.36750000000000016
      vertex 6.830878449976445 3.2422809356451037 0.7649999999999997
      vertex 6.830878449976445 3.2422809356451037 -0.2711654243827325
    endloop
  endfacet
  facet normal 0.8577286153979933 0.5141027351876678 0
    outer loop
      vertex 6.830878449976445 3.2422809356451037 0.7649999999999997
      vertex 6.9461272066310995 3.0499999970197678 0
      vertex 6.830878449976445 3.2422809356451037 -0.2711654243827325
    endloop
  endfacet
  facet normal 0.7409511174895534 0.6715589635251562 0
    outer loop
      vertex 6.333427122235299 3.8484271222352984 -0.36750000000000016
      vertex 6.597041814029217 3.5575731375813486 -0.36750000000000016
      vertex 6.333427122235299 3.8484271222352984 -0.37302920091944525
    endloop
  endfacet
  facet normal 0.6715589635251562 0.7409511174895534 0
    outer loop
      vertex 6.333427122235299 3.8484271222352984 -0.36750000000000016
      vertex 6.333427122235299 3.8484271222352984 -0.37302920091944525
      vertex 6.042573137581349 4.112041814029217 0.7649999999999997
    endloop
  endfacet
  facet normal 0.6715589635251562 0.7409511174895533 0
    outer loop
      vertex 6.042573137581349 4.112041814029217 0.7649999999999997
      vertex 6.333427122235299 3.8484271222352984 -0.37302920091944525
      vertex 6.042573137581349 4.112041814029217 -0.05871937597201654
    endloop
  endfacet
  facet normal 0.5956993080192206 0.8032075288650012 0
    outer loop
      vertex 6.042573137581349 4.112041814029217 0.7649999999999997
      vertex 6.042573137581349 4.112041814029217 -0.05871937597201654
      vertex 5.727280935645104 4.3458784499764445 0.22008584391430605
    endloop
  endfacet
  facet normal 0.5141027351876691 0.8577286153979926 0
    outer loop
      vertex 5.727280935645104 4.3458784499764445 0.7649999999999997
      vertex 5.727280935645104 4.3458784499764445 0.22008584391430605
      vertex 5.390586948394776 4.547685054838658 0.4607014113389909
    endloop
  endfacet
  facet normal 0.42755509576482764 0.9039892920192855 0
    outer loop
      vertex 5.035733728110791 4.715518129765988 0.7649999999999997
      vertex 5.390586948394776 4.547685054838658 0.4607014113389909
      vertex 5.035733728110791 4.715518129765988 0.660810077672491
    endloop
  endfacet
  facet normal 0.4275550957648277 0.9039892920192856 0
    outer loop
      vertex 5.035733728110791 4.715518129765988 0.7649999999999997
      vertex 5.390586948394776 4.547685054838658 0.7649999999999997
      vertex 5.390586948394776 4.547685054838658 0.4607014113389909
    endloop
  endfacet
  facet normal 0.5141027351876691 0.8577286153979924 0
    outer loop
      vertex 5.390586948394776 4.547685054838658 0.7649999999999997
      vertex 5.727280935645104 4.3458784499764445 0.7649999999999997
      vertex 5.390586948394776 4.547685054838658 0.4607014113389909
    endloop
  endfacet
  facet normal 0.14673047607854156 0.989176509724005 0
    outer loop
      vertex 4.285361288487912 4.943141123056412 1.0133785592808442
      vertex 4.285361288487912 4.943141123056412 0.9322067236191165
      vertex 3.9020498800809817 5 1
    endloop
  endfacet
  facet normal 0.24298017787700282 0.970031253702096 0
    outer loop
      vertex 4.285361288487912 4.943141123056412 0.9322067236191165
      vertex 4.285361288487912 4.943141123056412 1.0133785592808442
      vertex 4.666138707101346 4.847761345803738 0.8184846814681097
    endloop
  endfacet
  facet normal 0.24298017787700285 0.9700312537020961 0
    outer loop
      vertex 4.666138707101346 4.847761345803738 1.0358208598108851
      vertex 4.666138707101346 4.847761345803738 0.8184846814681097
      vertex 4.285361288487912 4.943141123056412 1.0133785592808442
    endloop
  endfacet
  facet normal 0.42755509576482764 0.9039892920192855 0
    outer loop
      vertex 5.035733728110791 4.715518129765988 0.7649999999999997
      vertex 5.035733728110791 4.715518129765988 1.066936910643297
      vertex 5.390586948394776 4.547685054838658 0.7649999999999997
    endloop
  endfacet
  facet normal 0.3368898600571533 0.9415440627982695 0
    outer loop
      vertex 5.035733728110791 4.715518129765988 0.660810077672491
      vertex 4.666138707101346 4.847761345803738 1.0358208598108851
      vertex 5.035733728110791 4.715518129765988 0.7649999999999997
    endloop
  endfacet
  facet normal 0.3368898600571534 0.9415440627982695 0
    outer loop
      vertex 4.666138707101346 4.847761345803738 0.8184846814681097
      vertex 4.666138707101346 4.847761345803738 1.0358208598108851
      vertex 5.035733728110791 4.715518129765988 0.660810077672491
    endloop
  endfacet
  facet normal 0.3368898600571534 0.9415440627982695 0
    outer loop
      vertex 5.035733728110791 4.715518129765988 0.7649999999999997
      vertex 4.666138707101346 4.847761345803738 1.0358208598108851
      vertex 5.035733728110791 4.715518129765988 1.066936910643297
    endloop
  endfacet
  facet normal 0.5141027351876691 0.8577286153979926 0
    outer loop
      vertex 5.390586948394776 4.547685054838658 0.7649999999999997
      vertex 5.390586948394776 4.547685054838658 1.1064270459203158
      vertex 5.727280935645104 4.3458784499764445 0.7649999999999997
    endloop
  endfacet
  facet normal 0.4275550957648277 0.9039892920192855 0
    outer loop
      vertex 5.390586948394776 4.547685054838658 0.7649999999999997
      vertex 5.035733728110791 4.715518129765988 1.066936910643297
      vertex 5.390586948394776 4.547685054838658 1.1064270459203158
    endloop
  endfacet
  facet normal 0.5141027351876691 0.8577286153979925 0
    outer loop
      vertex 5.727280935645104 4.3458784499764445 0.7649999999999997
      vertex 5.390586948394776 4.547685054838658 1.1064270459203158
      vertex 5.727280935645104 4.3458784499764445 1.1539109529467189
    endloop
  endfacet
  facet normal 0.8577286153979925 0.5141027351876691 -4.621397723808105e-16
    outer loop
      vertex 7.032685054838658 2.9055869483947756 0.7649999999999997
      vertex 6.9461272066310995 3.0499999970197678 0
      vertex 6.830878449976445 3.2422809356451037 0.7649999999999997
    endloop
  endfacet
  facet normal 0.9039892920192855 0.4275550957648276 0
    outer loop
      vertex 7.200518129765988 2.5507337281107905 0.7649999999999997
      vertex 7.200518129765988 2.5507337281107905 0
      vertex 7.032685054838658 2.9055869483947756 0.7649999999999997
    endloop
  endfacet
  facet normal 0.8032075288650012 0.5956993080192206 0
    outer loop
      vertex 6.597041814029217 3.5575731375813486 -0.36750000000000016
      vertex 6.597041814029217 3.5575731375813486 0.7649999999999997
      vertex 6.830878449976445 3.2422809356451037 0.7649999999999997
    endloop
  endfacet
  facet normal 0.7409511174895533 0.6715589635251562 0
    outer loop
      vertex 6.597041814029217 3.5575731375813486 0.7649999999999997
      vertex 6.333427122235299 3.8484271222352984 1.2709583241799298
      vertex 6.597041814029217 3.5575731375813486 1.339394555863212
    endloop
  endfacet
  facet normal 0.8577286153979924 0.5141027351876691 0
    outer loop
      vertex 7.032685054838658 2.9055869483947756 0.7649999999999997
      vertex 6.830878449976445 3.2422809356451037 1.413580956318799
      vertex 7.032685054838658 2.9055869483947756 1.4928030709659352
    endloop
  endfacet
  facet normal 0.9039892920192855 0.4275550957648277 0
    outer loop
      vertex 7.200518129765988 2.5507337281107905 0.7649999999999997
      vertex 7.032685054838658 2.9055869483947756 0.7649999999999997
      vertex 7.032685054838658 2.9055869483947756 1.4928030709659352
    endloop
  endfacet
  facet normal 0.8577286153979925 0.5141027351876691 0
    outer loop
      vertex 7.032685054838658 2.9055869483947756 0.7649999999999997
      vertex 6.830878449976445 3.2422809356451037 0.7649999999999997
      vertex 6.830878449976445 3.2422809356451037 1.413580956318799
    endloop
  endfacet
  facet normal 0.8032075288650011 0.5956993080192206 0
    outer loop
      vertex 6.830878449976445 3.2422809356451037 0.7649999999999997
      vertex 6.597041814029217 3.5575731375813486 0.7649999999999997
      vertex 6.597041814029217 3.5575731375813486 1.339394555863212
    endloop
  endfacet
  facet normal 0.803207528865001 0.5956993080192206 0
    outer loop
      vertex 6.830878449976445 3.2422809356451037 0.7649999999999997
      vertex 6.597041814029217 3.5575731375813486 1.339394555863212
      vertex 6.830878449976445 3.2422809356451037 1.413580956318799
    endloop
  endfacet
  facet normal 0.6715589635251562 0.7409511174895533 0
    outer loop
      vertex 6.333427122235299 3.8484271222352984 -0.36750000000000016
      vertex 6.042573137581349 4.112041814029217 0.7649999999999997
      vertex 6.333427122235299 3.8484271222352984 0.7649999999999997
    endloop
  endfacet
  facet normal 0.7409511174895533 0.6715589635251562 0
    outer loop
      vertex 6.333427122235299 3.8484271222352984 -0.36750000000000016
      vertex 6.333427122235299 3.8484271222352984 0.7649999999999997
      vertex 6.597041814029217 3.5575731375813486 0.7649999999999997
    endloop
  endfacet
  facet normal 0.5956993080192204 0.8032075288650011 0
    outer loop
      vertex 6.042573137581349 4.112041814029217 0.7649999999999997
      vertex 5.727280935645104 4.3458784499764445 0.22008584391430605
      vertex 5.727280935645104 4.3458784499764445 0.7649999999999997
    endloop
  endfacet
  facet normal 0.5956993080192206 0.8032075288650011 0
    outer loop
      vertex 6.042573137581349 4.112041814029217 0.7649999999999997
      vertex 5.727280935645104 4.3458784499764445 0.7649999999999997
      vertex 5.727280935645104 4.3458784499764445 1.1539109529467189
    endloop
  endfacet
  facet normal 0.6715589635251562 0.7409511174895532 0
    outer loop
      vertex 6.333427122235299 3.8484271222352984 0.7649999999999997
      vertex 6.042573137581349 4.112041814029217 0.7649999999999997
      vertex 6.042573137581349 4.112041814029217 1.2089313378754785
    endloop
  endfacet
  facet normal 0.7409511174895533 0.6715589635251562 0
    outer loop
      vertex 6.333427122235299 3.8484271222352984 0.7649999999999997
      vertex 6.333427122235299 3.8484271222352984 1.2709583241799298
      vertex 6.597041814029217 3.5575731375813486 0.7649999999999997
    endloop
  endfacet
  facet normal 0.5956993080192207 0.8032075288650012 0
    outer loop
      vertex 6.042573137581349 4.112041814029217 0.7649999999999997
      vertex 5.727280935645104 4.3458784499764445 1.1539109529467189
      vertex 6.042573137581349 4.112041814029217 1.2089313378754785
    endloop
  endfacet
  facet normal 0.6715589635251562 0.7409511174895533 0
    outer loop
      vertex 6.333427122235299 3.8484271222352984 0.7649999999999997
      vertex 6.042573137581349 4.112041814029217 1.2089313378754785
      vertex 6.333427122235299 3.8484271222352984 1.2709583241799298
    endloop
  endfacet
  facet normal 0.9987954563516448 0.049067671345905374 0
    outer loop
      vertex 7.5 1.1217773697819002 1.9125229718160235
      vertex 7.5 1.1217773697819002 0
      vertex 7.485738909244538 1.412068558633328 1.844219162674511
    endloop
  endfacet
  facet normal 0.989176509724005 0.14673047607854153 0
    outer loop
      vertex 7.485738909244538 1.412068558633328 0.7649999999999997
      vertex 7.428141123056412 1.8003612884879117 1.7528561674146088
      vertex 7.485738909244538 1.412068558633328 1.844219162674511
    endloop
  endfacet
  facet normal 0.9700312537020959 0.24298017787700296 0
    outer loop
      vertex 7.428141123056412 1.8003612884879117 0.7649999999999997
      vertex 7.332761345803738 2.1811387071013453 1.6632614806820363
      vertex 7.428141123056412 1.8003612884879117 1.7528561674146088
    endloop
  endfacet
  facet normal 0.9415440627982695 0.3368898600571533 0
    outer loop
      vertex 7.332761345803738 2.1811387071013453 0.7649999999999997
      vertex 7.200518129765988 2.5507337281107905 1.5762979463268727
      vertex 7.332761345803738 2.1811387071013453 1.6632614806820363
    endloop
  endfacet
  facet normal 0.9039892920192856 0.4275550957648277 0
    outer loop
      vertex 7.200518129765988 2.5507337281107905 0.7649999999999997
      vertex 7.032685054838658 2.9055869483947756 1.4928030709659352
      vertex 7.200518129765988 2.5507337281107905 1.5762979463268727
    endloop
  endfacet
  facet normal 0 0 -1
    outer loop
      vertex -7.5 -5 0
      vertex -7.5 1.4507571336905287 0
      vertex -3.75 -5 0
    endloop
  endfacet
  facet normal 0 -1 0
    outer loop
      vertex -7.5 -5 0
      vertex -3.75 -5 1.5
      vertex -7.5 -5 1.5
    endloop
  endfacet
  facet normal -1 0 0
    outer loop
      vertex -7.5 -5 0
      vertex -7.5 -5 1.5
      vertex -7.5 1.4507571336905287 0
    endloop
  endfacet
  facet normal 0 -1 0
    outer loop
      vertex -7.5 -5 0
      vertex -3.75 -5 0
      vertex -3.75 -5 1.5
    endloop
  endfacet
  facet normal 0 0 -1
    outer loop
      vertex -3.75 -5 0
      vertex -7.5 1.4507571336905287 0
      vertex -7.448141121864318 1.8003612884879117 0
    endloop
  endfacet
  facet normal 0 0 -1
    outer loop
      vertex -3.75 -5 0
      vertex -7.448141121864318 1.8003612884879117 0
      vertex -7.352761344611644 2.1811387071013453 0
    endloop
  endfacet
  facet normal 0 0 -1
    outer loop
      vertex -3.75 -5 0
      vertex -7.352761344611644 2.1811387071013453 0
      vertex -7.220518128573894 2.5507337281107905 0
    endloop
  endfacet
  facet normal 0 -1 0
    outer loop
      vertex -3.75 -5 0
      vertex 0 -5 1.5
      vertex -3.75 -5 1.5
    endloop
  endfacet
  facet normal 0 -1 0
    outer loop
      vertex -3.75 -5 0
      vertex 0 -5 0
      vertex 0 -5 1.5
    endloop
  endfacet
  facet normal 0 0 -1
    outer loop
      vertex -3.75 -5 0
      vertex -3.75 3.0499999970197678 0
      vertex 0 -5 0
    endloop
  endfacet
  facet normal 0 -0.7071067811865475 0.7071067811865475
    outer loop
      vertex -7.5 -5 1.5
      vertex -3.75 -5 1.5
      vertex -3.75 -3.5 3
    endloop
  endfacet
  facet normal 0 -0.7071067811865475 0.7071067811865475
    outer loop
      vertex -7.5 -5 1.5
      vertex -3.75 -3.5 3
      vertex -7.5 -3.5 3
    endloop
  endfacet
  facet normal -1 0 0
    outer loop
      vertex -7.5 -5 1.5
      vertex -7.5 -3.5 3
      vertex -7.5 1.4507571336905287 0
    endloop
  endfacet
  facet normal -1 0 0
    outer loop
      vertex -7.5 -3.5 3
      vertex -7.5 1.4507571336905287 1.835115968543405
      vertex -7.5 1.4507571336905287 0
    endloop
  endfacet
  facet normal 0 0.22903933372554727 0.973417168333576
    outer loop
      vertex -7.5 -3.5 3
      vertex -7.448141121864318 1.8003612884879117 1.752856167414609
      vertex -7.5 1.4507571336905287 1.835115968543405
    endloop
  endfacet
  facet normal 0 0.22903933372554727 0.9734171683335759
    outer loop
      vertex -7.5 -3.5 3
      vertex -3.75 -3.5 3
      vertex -3.75 5 1
    endloop
  endfacet
  facet normal 0 -0.7071067811865475 0.7071067811865475
    outer loop
      vertex -3.75 -5 1.5
      vertex 0 -5 1.5
      vertex 0 -3.5 3
    endloop
  endfacet
  facet normal 0 -0.7071067811865475 0.7071067811865475
    outer loop
      vertex -3.75 -5 1.5
      vertex 0 -3.5 3
      vertex -3.75 -3.5 3
    endloop
  endfacet
  facet normal 0 0.22903933372554727 0.9734171683335759
    outer loop
      vertex -3.75 -3.5 3
      vertex 0 -3.5 3
      vertex 0 5 1
    endloop
  endfacet
  facet normal 0 0 -1
    outer loop
      vertex -3.75 -5 0
      vertex -7.220518128573894 2.5507337281107905 0
      vertex -7.0526850610971445 2.9055869483947756 0
    endloop
  endfacet
  facet normal 0 0 -1
    outer loop
      vertex -3.75 -5 0
      vertex -7.0526850610971445 2.9055869483947756 0
      vertex -6.966127209693922 3.0499999970197678 0
    endloop
  endfacet
  facet normal 0 0 -1
    outer loop
      vertex -3.75 -5 0
      vertex -6.966127209693922 3.0499999970197678 0
      vertex -3.75 3.0499999970197678 0
    endloop
  endfacet
  facet normal 0 0 -1
    outer loop
      vertex -3.75 3.439999997615814 -0.5499999970197678
      vertex -6.70423999711969 3.439999997615814 -0.5499999970197678
      vertex -6.617041812837123 3.5575731375813486 -0.5499999970197678
    endloop
  endfacet
  facet normal -6.258638647398014e-17 -0.8157328891792799 -0.5784287799817923
    outer loop
      vertex -3.75 3.0499999970197678 0
      vertex -6.850878448784351 3.2422809356451037 -0.2711654243827324
      vertex -6.70423999711969 3.439999997615814 -0.5499999970197678
    endloop
  endfacet
  facet normal 0 -0.8157328891792794 -0.5784287799817927
    outer loop
      vertex -3.75 3.0499999970197678 0
      vertex -6.966127209693922 3.0499999970197678 0
      vertex -6.850878448784351 3.2422809356451037 -0.2711654243827324
    endloop
  endfacet
  facet normal 0 0 -1
    outer loop
      vertex -3.75 3.439999997615814 -0.5499999970197678
      vertex -6.617041812837123 3.5575731375813486 -0.5499999970197678
      vertex -6.487953623552141 3.7000000029802322 -0.5499999970197678
    endloop
  endfacet
  facet normal 0 0.766191543242783 -0.6426122618369826
    outer loop
      vertex -3.75 3.7000000029802322 -0.5499999970197678
      vertex -6.487953623552141 3.7000000029802322 -0.5499999970197678
      vertex -6.353427121043205 3.8484271222352984 -0.37302920091944525
    endloop
  endfacet
  facet normal 0 -0.8157328891792798 -0.5784287799817925
    outer loop
      vertex -3.75 3.439999997615814 -0.5499999970197678
      vertex -3.75 3.0499999970197678 0
      vertex -6.70423999711969 3.439999997615814 -0.5499999970197678
    endloop
  endfacet
  facet normal 0 0 -1
    outer loop
      vertex -3.75 3.439999997615814 -0.5499999970197678
      vertex -6.487953623552141 3.7000000029802322 -0.5499999970197678
      vertex -3.75 3.7000000029802322 -0.5499999970197678
    endloop
  endfacet
  facet normal 3.6675979893411014e-17 0.7661915432427832 -0.6426122618369822
    outer loop
      vertex -3.75 3.7000000029802322 -0.5499999970197678
      vertex -6.353427121043205 3.8484271222352984 -0.37302920091944525
      vertex -6.062573136389255 4.112041814029217 -0.05871937597201643
    endloop
  endfacet
  facet normal -3.191291693014206e-16 0.7661915432427824 -0.6426122618369833
    outer loop
      vertex -3.75 3.7000000029802322 -0.5499999970197678
      vertex -6.062573136389255 4.112041814029217 -0.05871937597201643
      vertex -5.74728093445301 4.3458784499764445 0.2200858439143055
    endloop
  endfacet
  facet normal 5.748677528958403e-16 0.7661915432427836 -0.6426122618369818
    outer loop
      vertex -3.75 3.7000000029802322 -0.5499999970197678
      vertex -5.74728093445301 4.3458784499764445 0.2200858439143055
      vertex -5.410586947202682 4.547685054838658 0.46070141133899084
    endloop
  endfacet
  facet normal -2.4622486518864987e-16 0.7661915432427828 -0.6426122618369826
    outer loop
      vertex -3.75 3.7000000029802322 -0.5499999970197678
      vertex -5.410586947202682 4.547685054838658 0.46070141133899084
      vertex -5.055733726918697 4.715518129765988 0.6608100776724909
    endloop
  endfacet
  facet normal 2.6037831672279236e-16 0.766191543242783 -0.6426122618369824
    outer loop
      vertex -3.75 3.7000000029802322 -0.5499999970197678
      vertex -5.055733726918697 4.715518129765988 0.6608100776724909
      vertex -4.686138705909252 4.847761345803738 0.8184846814681096
    endloop
  endfacet
  facet normal -2.7110083745466264e-16 0.7661915432427827 -0.6426122618369827
    outer loop
      vertex -3.75 3.7000000029802322 -0.5499999970197678
      vertex -4.686138705909252 4.847761345803738 0.8184846814681096
      vertex -4.305361287295818 4.943141123056412 0.9322067236191165
    endloop
  endfacet
  facet normal 2.8083473517242587e-16 0.7661915432427829 -0.6426122618369825
    outer loop
      vertex -3.75 3.7000000029802322 -0.5499999970197678
      vertex -4.305361287295818 4.943141123056412 0.9322067236191165
      vertex -3.9220498862438866 5 1
    endloop
  endfacet
  facet normal 0 0.7661915432427829 -0.6426122618369825
    outer loop
      vertex -3.75 3.7000000029802322 -0.5499999970197678
      vertex -3.9220498862438866 5 1
      vertex -3.75 5 1
    endloop
  endfacet
  facet normal 0 0 -1
    outer loop
      vertex -3.75 3.0499999970197678 0
      vertex 0 3.0499999970197678 0
      vertex 0 -5 0
    endloop
  endfacet
  facet normal 0 0 -1
    outer loop
      vertex -3.75 3.439999997615814 -0.5499999970197678
      vertex -3.75 3.7000000029802322 -0.5499999970197678
      vertex 0 3.439999997615814 -0.5499999970197678
    endloop
  endfacet
  facet normal 0 -0.8157328891792798 -0.5784287799817925
    outer loop
      vertex -3.75 3.439999997615814 -0.5499999970197678
      vertex 0 3.0499999970197678 0
      vertex -3.75 3.0499999970197678 0
    endloop
  endfacet
  facet normal 0 0.766191543242783 -0.6426122618369825
    outer loop
      vertex -3.75 3.7000000029802322 -0.5499999970197678
      vertex -3.75 5 1
      vertex 0 3.7000000029802322 -0.5499999970197678
    endloop
  endfacet
  facet normal 0 -0.8157328891792798 -0.5784287799817925
    outer loop
      vertex -3.75 3.439999997615814 -0.5499999970197678
      vertex 0 3.439999997615814 -0.5499999970197678
      vertex 0 3.0499999970197678 0
    endloop
  endfacet
  facet normal 0 0 -1
    outer loop
      vertex -3.75 3.7000000029802322 -0.5499999970197678
      vertex 0 3.7000000029802322 -0.5499999970197678
      vertex 0 3.439999997615814 -0.5499999970197678
    endloop
  endfacet
  facet normal 0 0.766191543242783 -0.6426122618369825
    outer loop
      vertex -3.75 5 1
      vertex 0 5 1
      vertex 0 3.7000000029802322 -0.5499999970197678
    endloop
  endfacet
  facet normal 0 0.2290393337255473 0.9734171683335759
    outer loop
      vertex -7.5 -3.5 3
      vertex -7.220518128573894 2.5507337281107905 1.5762979463268727
      vertex -7.352761344611644 2.1811387071013453 1.6632614806820363
    endloop
  endfacet
  facet normal -1.5140216932358958e-15 0.22903933372554733 0.973417168333576
    outer loop
      vertex -7.5 -3.5 3
      vertex -6.850878448784351 3.2422809356451037 1.413580956318799
      vertex -7.0526850610971445 2.9055869483947756 1.492803070965935
    endloop
  endfacet
  facet normal 0 0.22903933372554725 0.9734171683335759
    outer loop
      vertex -7.5 -3.5 3
      vertex -7.0526850610971445 2.9055869483947756 1.492803070965935
      vertex -7.220518128573894 2.5507337281107905 1.5762979463268727
    endloop
  endfacet
  facet normal 0 0.2290393337255474 0.9734171683335759
    outer loop
      vertex -7.5 -3.5 3
      vertex -6.617041812837123 3.5575731375813486 1.339394555863212
      vertex -6.850878448784351 3.2422809356451037 1.413580956318799
    endloop
  endfacet
  facet normal 0 0.2290393337255475 0.9734171683335759
    outer loop
      vertex -7.5 -3.5 3
      vertex -6.353427121043205 3.8484271222352984 1.2709583241799298
      vertex -6.617041812837123 3.5575731375813486 1.339394555863212
    endloop
  endfacet
  facet normal 0 0.22903933372554713 0.973417168333576
    outer loop
      vertex -7.5 -3.5 3
      vertex -6.062573136389255 4.112041814029217 1.2089313378754782
      vertex -6.353427121043205 3.8484271222352984 1.2709583241799298
    endloop
  endfacet
  facet normal 0 0.22903933372554744 0.9734171683335758
    outer loop
      vertex -7.5 -3.5 3
      vertex -5.410586947202682 4.547685054838658 1.1064270459203158
      vertex -5.74728093445301 4.3458784499764445 1.1539109529467189
    endloop
  endfacet
  facet normal 0 0.22903933372554725 0.973417168333576
    outer loop
      vertex -7.5 -3.5 3
      vertex -5.74728093445301 4.3458784499764445 1.1539109529467189
      vertex -6.062573136389255 4.112041814029217 1.2089313378754782
    endloop
  endfacet
  facet normal -6.90253465488911e-16 0.22903933372554752 0.9734171683335759
    outer loop
      vertex -7.5 -3.5 3
      vertex -5.055733726918697 4.715518129765988 1.066936910643297
      vertex -5.410586947202682 4.547685054838658 1.1064270459203158
    endloop
  endfacet
  facet normal 0 0.22903933372554725 0.9734171683335759
    outer loop
      vertex -7.5 -3.5 3
      vertex -4.686138705909252 4.847761345803738 1.0358208598108851
      vertex -5.055733726918697 4.715518129765988 1.066936910643297
    endloop
  endfacet
  facet normal 0 0.22903933372554758 0.973417168333576
    outer loop
      vertex -7.5 -3.5 3
      vertex -3.75 5 1
      vertex -3.9220498862438866 5 1
    endloop
  endfacet
  facet normal 0 0.2290393337255475 0.9734171683335759
    outer loop
      vertex -7.5 -3.5 3
      vertex -4.305361287295818 4.943141123056412 1.0133785592808442
      vertex -4.686138705909252 4.847761345803738 1.0358208598108851
    endloop
  endfacet
  facet normal 0 0.22903933372554747 0.9734171683335759
    outer loop
      vertex -7.5 -3.5 3
      vertex -3.9220498862438866 5 1
      vertex -4.305361287295818 4.943141123056412 1.0133785592808442
    endloop
  endfacet
  facet normal 0 0.2290393337255473 0.9734171683335759
    outer loop
      vertex -7.5 -3.5 3
      vertex -7.352761344611644 2.1811387071013453 1.6632614806820363
      vertex -7.448141121864318 1.8003612884879117 1.752856167414609
    endloop
  endfacet
  facet normal 0 0.22903933372554727 0.9734171683335759
    outer loop
      vertex -3.75 -3.5 3
      vertex 0 5 1
      vertex -3.75 5 1
    endloop
  endfacet
  facet normal 0 -1 0
    outer loop
      vertex 0 -5 0
      vertex 3.75 -5 1.5
      vertex 0 -5 1.5
    endloop
  endfacet
  facet normal 0 -1 0
    outer loop
      vertex 0 -5 0
      vertex 3.75 -5 0
      vertex 3.75 -5 1.5
    endloop
  endfacet
  facet normal 0 0 -1
    outer loop
      vertex 0 -5 0
      vertex 0 3.0499999970197678 0
      vertex 3.75 -5 0
    endloop
  endfacet
  facet normal 0 -1 0
    outer loop
      vertex 3.75 -5 0
      vertex 7.5 -5 1.5
      vertex 3.75 -5 1.5
    endloop
  endfacet
  facet normal 0 -1 0
    outer loop
      vertex 3.75 -5 0
      vertex 7.5 -5 0
      vertex 7.5 -5 1.5
    endloop
  endfacet
  facet normal 1 0 0
    outer loop
      vertex 7.5 -5 0
      vertex 7.5 1.1217773697819002 1.9125229718160235
      vertex 7.5 -5 1.5
    endloop
  endfacet
  facet normal 0 0 -1
    outer loop
      vertex 3.75 -5 0
      vertex 3.75 3.0499999970197678 0
      vertex 7.5 -5 0
    endloop
  endfacet
  facet normal 0 0 -1
    outer loop
      vertex 7.5 -5 0
      vertex 3.75 3.0499999970197678 0
      vertex 7.5 1.1217773697819002 0
    endloop
  endfacet
  facet normal 1 0 0
    outer loop
      vertex 7.5 -5 0
      vertex 7.5 1.1217773697819002 0
      vertex 7.5 1.1217773697819002 1.9125229718160235
    endloop
  endfacet
  facet normal 0 -0.7071067811865475 0.7071067811865475
    outer loop
      vertex 0 -5 1.5
      vertex 3.75 -5 1.5
      vertex 3.75 -3.5 3
    endloop
  endfacet
  facet normal 0 -0.7071067811865475 0.7071067811865475
    outer loop
      vertex 0 -5 1.5
      vertex 3.75 -3.5 3
      vertex 0 -3.5 3
    endloop
  endfacet
  facet normal 0 0.22903933372554727 0.9734171683335759
    outer loop
      vertex 0 -3.5 3
      vertex 3.75 -3.5 3
      vertex 3.75 5 1
    endloop
  endfacet
  facet normal 0 -0.7071067811865475 0.7071067811865475
    outer loop
      vertex 3.75 -5 1.5
      vertex 7.5 -5 1.5
      vertex 7.5 -3.5 3
    endloop
  endfacet
  facet normal 0 -0.7071067811865475 0.7071067811865475
    outer loop
      vertex 3.75 -5 1.5
      vertex 7.5 -3.5 3
      vertex 3.75 -3.5 3
    endloop
  endfacet
  facet normal 1 0 0
    outer loop
      vertex 7.5 -5 1.5
      vertex 7.5 1.1217773697819002 1.9125229718160235
      vertex 7.5 -3.5 3
    endloop
  endfacet
  facet normal 0 0.2290393337255473 0.9734171683335759
    outer loop
      vertex 3.75 -3.5 3
      vertex 7.5 -3.5 3
      vertex 7.5 1.1217773697819002 1.9125229718160235
    endloop
  endfacet
  facet normal 0 0.2290393337255472 0.9734171683335759
    outer loop
      vertex 3.75 -3.5 3
      vertex 7.5 1.1217773697819002 1.9125229718160235
      vertex 7.485738909244538 1.412068558633328 1.844219162674511
    endloop
  endfacet
  facet normal -4.987457952370856e-16 0.22903933372554747 0.9734171683335759
    outer loop
      vertex 3.75 -3.5 3
      vertex 7.485738909244538 1.412068558633328 1.844219162674511
      vertex 7.428141123056412 1.8003612884879117 1.7528561674146088
    endloop
  endfacet
  facet normal 0 0 -1
    outer loop
      vertex 3.75 -5 0
      vertex 0 3.0499999970197678 0
      vertex 3.75 3.0499999970197678 0
    endloop
  endfacet
  facet normal 0 0 -1
    outer loop
      vertex 0 3.439999997615814 -0.5499999970197678
      vertex 0 3.7000000029802322 -0.5499999970197678
      vertex 3.75 3.439999997615814 -0.5499999970197678
    endloop
  endfacet
  facet normal 0 -0.8157328891792798 -0.5784287799817925
    outer loop
      vertex 0 3.439999997615814 -0.5499999970197678
      vertex 3.75 3.0499999970197678 0
      vertex 0 3.0499999970197678 0
    endloop
  endfacet
  facet normal 0 0.766191543242783 -0.6426122618369825
    outer loop
      vertex 0 3.7000000029802322 -0.5499999970197678
      vertex 0 5 1
      vertex 3.75 3.7000000029802322 -0.5499999970197678
    endloop
  endfacet
  facet normal 0 -0.8157328891792798 -0.5784287799817925
    outer loop
      vertex 0 3.439999997615814 -0.5499999970197678
      vertex 3.75 3.439999997615814 -0.5499999970197678
      vertex 3.75 3.0499999970197678 0
    endloop
  endfacet
  facet normal 0 0 -1
    outer loop
      vertex 0 3.7000000029802322 -0.5499999970197678
      vertex 3.75 3.7000000029802322 -0.5499999970197678
      vertex 3.75 3.439999997615814 -0.5499999970197678
    endloop
  endfacet
  facet normal 0 0.766191543242783 -0.6426122618369825
    outer loop
      vertex 0 5 1
      vertex 3.75 5 1
      vertex 3.75 3.7000000029802322 -0.5499999970197678
    endloop
  endfacet
  facet normal 0 0 -1
    outer loop
      vertex 3.75 3.0499999970197678 0
      vertex 7.485738909244538 1.412068558633328 0
      vertex 7.5 1.1217773697819002 0
    endloop
  endfacet
  facet normal 0 0 -1
    outer loop
      vertex 3.75 3.0499999970197678 0
      vertex 7.428141123056412 1.8003612884879117 0
      vertex 7.485738909244538 1.412068558633328 0
    endloop
  endfacet
  facet normal 0 0 -1
    outer loop
      vertex 3.75 3.0499999970197678 0
      vertex 7.332761345803738 2.1811387071013453 0
      vertex 7.428141123056412 1.8003612884879117 0
    endloop
  endfacet
  facet normal 0 0 -1
    outer loop
      vertex 3.75 3.439999997615814 -0.5499999970197678
      vertex 3.75 3.7000000029802322 -0.5499999970197678
      vertex 6.684239998311784 3.439999997615814 -0.5499999970197678
    endloop
  endfacet
  facet normal 0 0 -1
    outer loop
      vertex 3.75 3.7000000029802322 -0.5499999970197678
      vertex 6.467953624744235 3.7000000029802322 -0.5499999970197678
      vertex 6.597041814029217 3.5575731375813486 -0.5499999970197678
    endloop
  endfacet
  facet normal 0 0.766191543242783 -0.6426122618369826
    outer loop
      vertex 3.75 3.7000000029802322 -0.5499999970197678
      vertex 6.333427122235299 3.8484271222352984 -0.37302920091944525
      vertex 6.467953624744235 3.7000000029802322 -0.5499999970197678
    endloop
  endfacet
  facet normal 0 -0.8157328891792797 -0.5784287799817924
    outer loop
      vertex 3.75 3.439999997615814 -0.5499999970197678
      vertex 6.9461272066310995 3.0499999970197678 0
      vertex 3.75 3.0499999970197678 0
    endloop
  endfacet
  facet normal -2.462865799475369e-17 0.7661915432427832 -0.6426122618369823
    outer loop
      vertex 3.75 3.7000000029802322 -0.5499999970197678
      vertex 6.042573137581349 4.112041814029217 -0.05871937597201654
      vertex 6.333427122235299 3.8484271222352984 -0.37302920091944525
    endloop
  endfacet
  facet normal 4.787653186169561e-17 0.7661915432427829 -0.6426122618369826
    outer loop
      vertex 3.75 3.7000000029802322 -0.5499999970197678
      vertex 3.75 5 1
      vertex 6.042573137581349 4.112041814029217 -0.05871937597201654
    endloop
  endfacet
  facet normal 0 -0.8157328891792799 -0.5784287799817924
    outer loop
      vertex 3.75 3.439999997615814 -0.5499999970197678
      vertex 6.684239998311784 3.439999997615814 -0.5499999970197678
      vertex 6.830878449976445 3.2422809356451037 -0.2711654243827325
    endloop
  endfacet
  facet normal 0 0 -1
    outer loop
      vertex 3.75 3.7000000029802322 -0.5499999970197678
      vertex 6.597041814029217 3.5575731375813486 -0.5499999970197678
      vertex 6.684239998311784 3.439999997615814 -0.5499999970197678
    endloop
  endfacet
  facet normal 2.81854236453245e-17 -0.8157328891792797 -0.5784287799817927
    outer loop
      vertex 3.75 3.439999997615814 -0.5499999970197678
      vertex 6.830878449976445 3.2422809356451037 -0.2711654243827325
      vertex 6.9461272066310995 3.0499999970197678 0
    endloop
  endfacet
  facet normal 0 0 -1
    outer loop
      vertex 3.75 3.0499999970197678 0
      vertex 7.032685054838658 2.9055869483947756 0
      vertex 7.200518129765988 2.5507337281107905 0
    endloop
  endfacet
  facet normal 0 0 -1
    outer loop
      vertex 3.75 3.0499999970197678 0
      vertex 6.9461272066310995 3.0499999970197678 0
      vertex 7.032685054838658 2.9055869483947756 0
    endloop
  endfacet
  facet normal 0 0 -1
    outer loop
      vertex 3.75 3.0499999970197678 0
      vertex 7.200518129765988 2.5507337281107905 0
      vertex 7.332761345803738 2.1811387071013453 0
    endloop
  endfacet
  facet normal 0 0.7661915432427829 -0.6426122618369825
    outer loop
      vertex 3.75 5 1
      vertex 3.9020498800809817 5 1
      vertex 6.042573137581349 4.112041814029217 -0.05871937597201654
    endloop
  endfacet
  facet normal -1.2137374061211983e-16 0.7661915432427828 -0.6426122618369827
    outer loop
      vertex 3.9020498800809817 5 1
      vertex 4.285361288487912 4.943141123056412 0.9322067236191165
      vertex 5.727280935645104 4.3458784499764445 0.22008584391430605
    endloop
  endfacet
  facet normal 9.920596450779314e-16 0.7661915432427837 -0.6426122618369815
    outer loop
      vertex 5.727280935645104 4.3458784499764445 0.22008584391430605
      vertex 4.285361288487912 4.943141123056412 0.9322067236191165
      vertex 5.390586948394776 4.547685054838658 0.4607014113389909
    endloop
  endfacet
  facet normal 3.2345938250538905e-16 0.7661915432427828 -0.6426122618369827
    outer loop
      vertex 3.9020498800809817 5 1
      vertex 5.727280935645104 4.3458784499764445 0.22008584391430605
      vertex 6.042573137581349 4.112041814029217 -0.05871937597201654
    endloop
  endfacet
  facet normal -5.904679310701224e-16 0.7661915432427823 -0.6426122618369835
    outer loop
      vertex 5.390586948394776 4.547685054838658 0.4607014113389909
      vertex 4.666138707101346 4.847761345803738 0.8184846814681097
      vertex 5.035733728110791 4.715518129765988 0.660810077672491
    endloop
  endfacet
  facet normal 7.898259968916372e-16 0.7661915432427836 -0.6426122618369817
    outer loop
      vertex 5.390586948394776 4.547685054838658 0.4607014113389909
      vertex 4.285361288487912 4.943141123056412 0.9322067236191165
      vertex 4.666138707101346 4.847761345803738 0.8184846814681097
    endloop
  endfacet
  facet normal 0 0.22903933372554727 0.9734171683335759
    outer loop
      vertex 0 -3.5 3
      vertex 3.75 5 1
      vertex 0 5 1
    endloop
  endfacet
  facet normal 0 0.22903933372554727 0.9734171683335759
    outer loop
      vertex 3.75 -3.5 3
      vertex 3.9020498800809817 5 1
      vertex 3.75 5 1
    endloop
  endfacet
  facet normal 0 0.22903933372554725 0.9734171683335759
    outer loop
      vertex 3.75 -3.5 3
      vertex 4.285361288487912 4.943141123056412 1.0133785592808442
      vertex 3.9020498800809817 5 1
    endloop
  endfacet
  facet normal 0 0.22903933372554727 0.9734171683335758
    outer loop
      vertex 3.75 -3.5 3
      vertex 4.666138707101346 4.847761345803738 1.0358208598108851
      vertex 4.285361288487912 4.943141123056412 1.0133785592808442
    endloop
  endfacet
  facet normal 0 0.22903933372554733 0.973417168333576
    outer loop
      vertex 3.75 -3.5 3
      vertex 5.035733728110791 4.715518129765988 1.066936910643297
      vertex 4.666138707101346 4.847761345803738 1.0358208598108851
    endloop
  endfacet
  facet normal 0 0.22903933372554722 0.9734171683335758
    outer loop
      vertex 3.75 -3.5 3
      vertex 5.727280935645104 4.3458784499764445 1.1539109529467189
      vertex 5.390586948394776 4.547685054838658 1.1064270459203158
    endloop
  endfacet
  facet normal 6.13528153118834e-16 0.22903933372554736 0.9734171683335759
    outer loop
      vertex 3.75 -3.5 3
      vertex 6.333427122235299 3.8484271222352984 1.2709583241799298
      vertex 6.042573137581349 4.112041814029217 1.2089313378754785
    endloop
  endfacet
  facet normal 0 0.22903933372554736 0.9734171683335758
    outer loop
      vertex 3.75 -3.5 3
      vertex 6.597041814029217 3.5575731375813486 1.339394555863212
      vertex 6.333427122235299 3.8484271222352984 1.2709583241799298
    endloop
  endfacet
  facet normal -5.889217980166769e-16 0.22903933372554738 0.9734171683335758
    outer loop
      vertex 3.75 -3.5 3
      vertex 6.042573137581349 4.112041814029217 1.2089313378754785
      vertex 5.727280935645104 4.3458784499764445 1.1539109529467189
    endloop
  endfacet
  facet normal 5.522470770052696e-16 0.22903933372554713 0.9734171683335759
    outer loop
      vertex 3.75 -3.5 3
      vertex 5.390586948394776 4.547685054838658 1.1064270459203158
      vertex 5.035733728110791 4.715518129765988 1.066936910643297
    endloop
  endfacet
  facet normal 0 0.22903933372554747 0.9734171683335758
    outer loop
      vertex 3.75 -3.5 3
      vertex 7.332761345803738 2.1811387071013453 1.6632614806820363
      vertex 7.200518129765988 2.5507337281107905 1.5762979463268727
    endloop
  endfacet
  facet normal 0 0.22903933372554763 0.9734171683335758
    outer loop
      vertex 3.75 -3.5 3
      vertex 7.032685054838658 2.9055869483947756 1.4928030709659352
      vertex 6.830878449976445 3.2422809356451037 1.413580956318799
    endloop
  endfacet
  facet normal 0 0.22903933372554688 0.9734171683335759
    outer loop
      vertex 3.75 -3.5 3
      vertex 7.200518129765988 2.5507337281107905 1.5762979463268727
      vertex 7.032685054838658 2.9055869483947756 1.4928030709659352
    endloop
  endfacet
  facet normal 0 0.2290393337255473 0.973417168333576
    outer loop
      vertex 3.75 -3.5 3
      vertex 6.830878449976445 3.2422809356451037 1.413580956318799
      vertex 6.597041814029217 3.5575731375813486 1.339394555863212
    endloop
  endfacet
  facet normal 4.535795385614583e-16 0.22903933372554725 0.9734171683335759
    outer loop
      vertex 3.75 -3.5 3
      vertex 7.428141123056412 1.8003612884879117 1.7528561674146088
      vertex 7.332761345803738 2.1811387071013453 1.6632614806820363
    endloop
  endfacet
endsolid OpenSCAD_Model
