solid OpenSCAD_Model
  facet normal -1 0 0
    outer loop
      vertex -2.975 -1.1 -51.1
      vertex -2.975 -1.1 -44.1
      vertex -2.975 -1.0999999927551385 -44.1
    endloop
  endfacet
  facet normal -1 0 0
    outer loop
      vertex -2.975 -1.1 -51.1
      vertex -2.975 -1.0999999927551385 -44.1
      vertex -2.975 -0.8421381898531461 -42.976093461838275
    endloop
  endfacet
  facet normal -1 0 0
    outer loop
      vertex -2.975 -1.1 -51.1
      vertex -2.975 -0.8421381898531461 -42.976093461838275
      vertex -2.975 1.1 -51.1
    endloop
  endfacet
  facet normal -1 0 0
    outer loop
      vertex -2.975 -0.8421381898531461 -42.976093461838275
      vertex -2.975 -0.8111617108569242 -42.90080340728081
      vertex -2.975 1.1 -51.1
    endloop
  endfacet
  facet normal -1 0 0
    outer loop
      vertex -2.975 -0.8111617108569242 -42.90080340728081
      vertex -2.975 -0.5487649875204644 -41.81138667727599
      vertex -2.975 1.1 -51.1
    endloop
  endfacet
  facet normal -1 0 0
    outer loop
      vertex -2.975 -0.5487649875204644 -41.81138667727599
      vertex -2.975 -0.48318570247382897 -41.65510054161814
      vertex -2.975 1.1 -51.1
    endloop
  endfacet
  facet normal -1 0 0
    outer loop
      vertex -2.975 -0.48318570247382897 -41.65510054161814
      vertex -2.975 -0.21791093496676636 -40.603616901210586
      vertex -2.975 1.1 -51.1
    endloop
  endfacet
  facet normal -1 0 0
    outer loop
      vertex -2.975 -0.21791093496676636 -40.603616901210586
      vertex -2.975 -0.1137502456878205 -40.36013258969648
      vertex -2.975 1.1 -51.1
    endloop
  endfacet
  facet normal -1 0 0
    outer loop
      vertex -2.975 -0.1137502456878205 -40.36013258969648
      vertex -2.975 1.1 -31.120842211793335
      vertex -2.975 1.1 -51.1
    endloop
  endfacet
  facet normal 0 0 -1
    outer loop
      vertex -2.975 -1.1 -51.1
      vertex -2.975 1.1 -51.1
      vertex -1.125 -1.1 -51.1
    endloop
  endfacet
  facet normal -1 0 0
    outer loop
      vertex -2.975 -0.1137502456878205 -40.36013258969648
      vertex -2.975 0.27800612795777874 -36.772281757063524
      vertex -2.975 0.65252955339327 -34.51274293426948
    endloop
  endfacet
  facet normal -1 0 0
    outer loop
      vertex -2.975 -0.1137502456878205 -40.36013258969648
      vertex -2.975 0.65252955339327 -34.51274293426948
      vertex -2.975 1.1 -31.120842211793335
    endloop
  endfacet
  facet normal 0 1 0
    outer loop
      vertex -2.975 1.1 -51.1
      vertex -1.7653627490326183 1.1 -41.2808862496957
      vertex -1.357145200445757 1.1 -42.42637800885359
    endloop
  endfacet
  facet normal 0 1 0
    outer loop
      vertex -2.975 1.1 -51.1
      vertex -2.385730963648983 1.1 -36.94585457641411
      vertex -2.2002180599629098 1.1 -38.577289777594885
    endloop
  endfacet
  facet normal 0 1 0
    outer loop
      vertex -2.975 1.1 -51.1
      vertex -2.6952281829450753 1.1 -35.02881940096835
      vertex -2.385730963648983 1.1 -36.94585457641411
    endloop
  endfacet
  facet normal 0 1 0
    outer loop
      vertex -2.975 1.1 -51.1
      vertex -2.975 1.1 -31.120842211793335
      vertex -2.6952281829450753 1.1 -35.02881940096835
    endloop
  endfacet
  facet normal 0 1 0
    outer loop
      vertex -2.975 1.1 -51.1
      vertex -2.2002180599629098 1.1 -38.577289777594885
      vertex -1.8500233127162427 1.1 -40.572170496818586
    endloop
  endfacet
  facet normal 0 1 0
    outer loop
      vertex -2.975 1.1 -51.1
      vertex -1.8500233127162427 1.1 -40.572170496818586
      vertex -1.7653627490326183 1.1 -41.2808862496957
    endloop
  endfacet
  facet normal -1 0 0
    outer loop
      vertex -2.975 0.65252955339327 -34.51274293426948
      vertex -2.975 0.9940674074305246 -31.725143627485252
      vertex -2.975 1.1 -31.120842211793335
    endloop
  endfacet
  facet normal 0 -1 0
    outer loop
      vertex -2.975 -1.1 -51.1
      vertex -1.125 -1.1 -51.1
      vertex -1.125 -1.1 -48.77
    endloop
  endfacet
  facet normal 0 0 -1
    outer loop
      vertex -2.975 1.1 -51.1
      vertex -1.125 0.6000000000000001 -51.1
      vertex -1.125 -1.1 -51.1
    endloop
  endfacet
  facet normal 0 -1 0
    outer loop
      vertex -0.525 -1.1 -51.1
      vertex 0.9249999999999998 -1.1 -51.1
      vertex -0.525 -1.1 -48.77
    endloop
  endfacet
  facet normal 0 0 -1
    outer loop
      vertex -0.525 -1.1 -51.1
      vertex -0.525 0.6000000000000001 -51.1
      vertex 0.9249999999999998 -1.1 -51.1
    endloop
  endfacet
  facet normal 0 0 -1
    outer loop
      vertex -2.975 1.1 -51.1
      vertex -1.125 1.1 -51.1
      vertex -1.125 0.6000000000000001 -51.1
    endloop
  endfacet
  facet normal 0 1 0
    outer loop
      vertex -2.975 1.1 -51.1
      vertex -1.125 1.1 -48.77
      vertex -1.125 1.1 -51.1
    endloop
  endfacet
  facet normal 0 1 0
    outer loop
      vertex -2.975 1.1 -51.1
      vertex -1.357145200445757 1.1 -42.42637800885359
      vertex -1.3154800288205184 1.1 -42.61466048008657
    endloop
  endfacet
  facet normal 0 1 0
    outer loop
      vertex -2.975 1.1 -51.1
      vertex -1.3154800288205184 1.1 -42.61466048008657
      vertex -0.8936121046220343 1.1 -43.74418563856398
    endloop
  endfacet
  facet normal 0 1 0
    outer loop
      vertex -2.975 1.1 -51.1
      vertex -0.8936121046220343 1.1 -43.74418563856398
      vertex -0.8850458755671142 1.1 -43.7817129339789
    endloop
  endfacet
  facet normal 0 1 0
    outer loop
      vertex -2.975 1.1 -51.1
      vertex -0.8850458755671142 1.1 -43.7817129339789
      vertex -0.48922220163654306 1.1 -44.1
    endloop
  endfacet
  facet normal 0 1 0
    outer loop
      vertex -2.975 1.1 -51.1
      vertex 0.48922220163654306 1.1 -44.1
      vertex -1.125 1.1 -48.77
    endloop
  endfacet
  facet normal 0 1 0
    outer loop
      vertex -2.975 1.1 -51.1
      vertex -0.48922220163654306 1.1 -44.1
      vertex 0.48922220163654306 1.1 -44.1
    endloop
  endfacet
  facet normal 0 -1 0
    outer loop
      vertex -2.975 -1.1 -51.1
      vertex 2.975 -1.1 51.1
      vertex -2.975 -1.1 -44.1
    endloop
  endfacet
  facet normal 0 -1 0
    outer loop
      vertex -2.975 -1.1 -51.1
      vertex -1.125 -1.1 -48.77
      vertex 2.975 -1.1 51.1
    endloop
  endfacet
  facet normal 0 -1 0
    outer loop
      vertex -2.975 -1.1 -44.1
      vertex 2.975 -1.1 51.1
      vertex -2.975 -1.1 51.1
    endloop
  endfacet
  facet normal 0 -1 0
    outer loop
      vertex 0.9249999999999998 -1.1 -51.1
      vertex 0.9249999999999998 -1.1 -48.77
      vertex -0.525 -1.1 -48.77
    endloop
  endfacet
  facet normal 0 -1 0
    outer loop
      vertex 2.975 -1.1 -44.1
      vertex -1.125 -1.1 -48.77
      vertex -0.525 -1.1 -48.77
    endloop
  endfacet
  facet normal 0 0 -1
    outer loop
      vertex -0.525 0.6000000000000001 -51.1
      vertex 0.9249999999999998 0.6000000000000001 -51.1
      vertex 0.9249999999999998 -1.1 -51.1
    endloop
  endfacet
  facet normal 0 -1 0
    outer loop
      vertex 2.975 -1.1 -44.1
      vertex -0.525 -1.1 -48.77
      vertex 0.9249999999999998 -1.1 -48.77
    endloop
  endfacet
  facet normal 0 -1 0
    outer loop
      vertex 2.975 -1.1 -44.1
      vertex 0.9249999999999998 -1.1 -48.77
      vertex 1.525 -1.1 -48.77
    endloop
  endfacet
  facet normal 0 1 0
    outer loop
      vertex 0.48922220163654306 1.1 -44.1
      vertex 0.9249999999999998 1.1 -48.77
      vertex -1.125 1.1 -48.77
    endloop
  endfacet
  facet normal 0 1 0
    outer loop
      vertex 0.48922220163654306 1.1 -44.1
      vertex 1.525 1.1 -48.77
      vertex 0.9249999999999998 1.1 -48.77
    endloop
  endfacet
  facet normal 0 1 0
    outer loop
      vertex 0.48922220163654306 1.1 -44.1
      vertex 2.975 1.1 -51.1
      vertex 1.525 1.1 -48.77
    endloop
  endfacet
  facet normal 0 1 0
    outer loop
      vertex 0.48922220163654306 1.1 -44.1
      vertex 0.8850458755671142 1.1 -43.7817129339789
      vertex 2.975 1.1 -51.1
    endloop
  endfacet
  facet normal 0 1 0
    outer loop
      vertex 0.8850458755671142 1.1 -43.7817129339789
      vertex 0.8936121046220343 1.1 -43.74418563856398
      vertex 2.975 1.1 -51.1
    endloop
  endfacet
  facet normal 0 1 0
    outer loop
      vertex 0.8936121046220343 1.1 -43.74418563856398
      vertex 1.3154800288205184 1.1 -42.61466048008657
      vertex 2.975 1.1 -51.1
    endloop
  endfacet
  facet normal 0 1 0
    outer loop
      vertex 1.3154800288205184 1.1 -42.61466048008657
      vertex 1.357145200445757 1.1 -42.42637800885359
      vertex 2.975 1.1 -51.1
    endloop
  endfacet
  facet normal 0 -1 0
    outer loop
      vertex 2.975 -1.1 -51.1
      vertex 1.525 -1.1 -48.77
      vertex 1.525 -1.1 -51.1
    endloop
  endfacet
  facet normal 0 0 -1
    outer loop
      vertex 2.975 -1.1 -51.1
      vertex 1.525 -1.1 -51.1
      vertex 1.525 1.1 -51.1
    endloop
  endfacet
  facet normal 0 -1 0
    outer loop
      vertex 2.975 -1.1 -51.1
      vertex 2.975 -1.1 -44.1
      vertex 1.525 -1.1 -48.77
    endloop
  endfacet
  facet normal 0 0 -1
    outer loop
      vertex 2.975 -1.1 -51.1
      vertex 1.525 1.1 -51.1
      vertex 2.975 1.1 -51.1
    endloop
  endfacet
  facet normal 1 0 0
    outer loop
      vertex 2.975 -1.1 -51.1
      vertex 2.975 -1.0999999927551385 -44.1
      vertex 2.975 -1.1 -44.1
    endloop
  endfacet
  facet normal 1 0 0
    outer loop
      vertex 2.975 -1.1 -51.1
      vertex 2.975 1.1 -51.1
      vertex 2.975 -1.0999999927551385 -44.1
    endloop
  endfacet
  facet normal 1 0 0
    outer loop
      vertex 2.975 -1.0999999927551385 -44.1
      vertex 2.975 1.1 -51.1
      vertex 2.975 -0.8421381898531463 -42.976093461838275
    endloop
  endfacet
  facet normal 1 0 0
    outer loop
      vertex 2.975 -0.8421381898531463 -42.976093461838275
      vertex 2.975 1.1 -51.1
      vertex 2.975 -0.8111617108569243 -42.90080340728081
    endloop
  endfacet
  facet normal 1 0 0
    outer loop
      vertex 2.975 -0.8111617108569243 -42.90080340728081
      vertex 2.975 1.1 -51.1
      vertex 2.975 -0.5487649875204645 -41.81138667727599
    endloop
  endfacet
  facet normal 1 0 0
    outer loop
      vertex 2.975 -0.5487649875204645 -41.81138667727599
      vertex 2.975 1.1 -51.1
      vertex 2.975 -0.48318570247382914 -41.65510054161814
    endloop
  endfacet
  facet normal 1 0 0
    outer loop
      vertex 2.975 -0.48318570247382914 -41.65510054161814
      vertex 2.975 1.1 -51.1
      vertex 2.975 -0.21791093496676645 -40.603616901210586
    endloop
  endfacet
  facet normal 1 0 0
    outer loop
      vertex 2.975 -0.21791093496676645 -40.603616901210586
      vertex 2.975 1.1 -51.1
      vertex 2.975 -0.1137502456878205 -40.36013258969648
    endloop
  endfacet
  facet normal 1 0 0
    outer loop
      vertex 2.975 -0.1137502456878205 -40.36013258969648
      vertex 2.975 1.1 -51.1
      vertex 2.975 0.27800612795777874 -36.772281757063524
    endloop
  endfacet
  facet normal 1 0 0
    outer loop
      vertex 2.975 0.27800612795777874 -36.772281757063524
      vertex 2.975 1.1 -51.1
      vertex 2.975 0.65252955339327 -34.51274293426948
    endloop
  endfacet
  facet normal 0 1 0
    outer loop
      vertex 2.975 1.1 -51.1
      vertex 1.525 1.1 -51.1
      vertex 1.525 1.1 -48.77
    endloop
  endfacet
  facet normal 0 1 0
    outer loop
      vertex 1.357145200445757 1.1 -42.42637800885359
      vertex 1.7653627490326183 1.1 -41.2808862496957
      vertex 2.975 1.1 -51.1
    endloop
  endfacet
  facet normal 0 1 0
    outer loop
      vertex 1.7653627490326183 1.1 -41.2808862496957
      vertex 1.8500233127162427 1.1 -40.572170496818586
      vertex 2.975 1.1 -51.1
    endloop
  endfacet
  facet normal 0 1 0
    outer loop
      vertex 1.8500233127162427 1.1 -40.572170496818586
      vertex 2.2002180599629098 1.1 -38.577289777594885
      vertex 2.975 1.1 -51.1
    endloop
  endfacet
  facet normal 0 1 0
    outer loop
      vertex 2.2002180599629098 1.1 -38.577289777594885
      vertex 2.385730963648983 1.1 -36.94585457641411
      vertex 2.975 1.1 -51.1
    endloop
  endfacet
  facet normal 0 1 0
    outer loop
      vertex 2.975 1.1 -51.1
      vertex 2.385730963648983 1.1 -36.94585457641411
      vertex 2.6952281829450753 1.1 -35.02881940096835
    endloop
  endfacet
  facet normal 0 1 0
    outer loop
      vertex 2.975 1.1 -51.1
      vertex 2.6952281829450753 1.1 -35.02881940096835
      vertex 2.975 1.1 -31.120842211793335
    endloop
  endfacet
  facet normal 1 0 0
    outer loop
      vertex 2.975 0.65252955339327 -34.51274293426948
      vertex 2.975 1.1 -51.1
      vertex 2.975 0.9940674074305246 -31.725143627485252
    endloop
  endfacet
  facet normal 1 0 0
    outer loop
      vertex 2.975 1.1 -51.1
      vertex 2.975 1.1 -31.120842211793335
      vertex 2.975 0.9940674074305246 -31.725143627485252
    endloop
  endfacet
  facet normal 0 -1 0
    outer loop
      vertex 2.975 -1.1 -44.1
      vertex 2.975 -1.1 51.1
      vertex -1.125 -1.1 -48.77
    endloop
  endfacet
  facet normal -0.9944539944442473 0.09382190758649507 -0.047525809732311505
    outer loop
      vertex -4.07718620719067 -0.4372727253220299 -19.1
      vertex -5.334482761292622 -1.1 5.899999999999999
      vertex -5.23490574750407 -0.044545451438788186 5.899999999999999
    endloop
  endfacet
  facet normal -0.9921330454542194 0.11610364339970829 -0.04681841632359175
    outer loop
      vertex -4.154741381391369 -1.1 -19.1
      vertex -5.334482761292622 -1.1 5.899999999999999
      vertex -4.07718620719067 -0.4372727253220299 -19.1
    endloop
  endfacet
  facet normal 0 -1 0
    outer loop
      vertex -4.154741381391369 -1.1 -19.1
      vertex -4.149042147672039 -1.1 5.899999999999999
      vertex -5.334482761292622 -1.1 5.899999999999999
    endloop
  endfacet
  facet normal -0.9920884760600928 0.11609842769898689 -0.04776620933867461
    outer loop
      vertex -4.07718620719067 -0.4372727253220299 -19.1
      vertex -5.23490574750407 -0.044545451438788186 5.899999999999999
      vertex -3.9996310329899707 0.22545454935594034 -19.1
    endloop
  endfacet
  facet normal -0.9920430176295512 0.11609310795942855 -0.04871387335015173
    outer loop
      vertex -3.9996310329899707 0.22545454935594034 -19.1
      vertex -5.135328733715518 1.0109090971224237 5.899999999999999
      vertex -3.9220758587892712 0.8881818240339101 -19.1
    endloop
  endfacet
  facet normal -0.9944255613261618 0.09381922505980896 -0.04812230242127951
    outer loop
      vertex -3.9996310329899707 0.22545454935594034 -19.1
      vertex -5.23490574750407 -0.044545451438788186 5.899999999999999
      vertex -5.135328733715518 1.0109090971224237 5.899999999999999
    endloop
  endfacet
  facet normal -0.9241636437791164 0.37741993317849026 -0.05895552184868032
    outer loop
      vertex -3.9220758587892712 0.8881818240339101 -19.1
      vertex -5.0357517199269655 2.066363645683635 5.899999999999999
      vertex -3.6063155170915455 1.6613636363636357 -19.1
    endloop
  endfacet
  facet normal -0.9943967752434616 0.09381650923262644 -0.04871874362921289
    outer loop
      vertex -3.9220758587892712 0.8881818240339101 -19.1
      vertex -5.135328733715518 1.0109090971224237 5.899999999999999
      vertex -5.0357517199269655 2.066363645683635 5.899999999999999
    endloop
  endfacet
  facet normal -0.9481718461478317 0.3121811230444431 -0.05927138084542135
    outer loop
      vertex -3.6063155170915455 1.6613636363636357 -19.1
      vertex -5.0357517199269655 2.066363645683635 5.899999999999999
      vertex -4.630331034290379 3.2977272727272724 5.899999999999999
    endloop
  endfacet
  facet normal -0.9480388875731112 0.31213734705874663 -0.06158363597795514
    outer loop
      vertex -3.29055517539382 2.4345454486933615 -19.1
      vertex -4.630331034290379 3.2977272727272724 5.899999999999999
      vertex -4.224910348653793 4.52909089977091 5.899999999999999
    endloop
  endfacet
  facet normal 0 0 -1
    outer loop
      vertex -2.975000001490116 -1.1 -44.1
      vertex -2.975 -1.0999999927551385 -44.1
      vertex -2.975 -1.1 -44.1
    endloop
  endfacet
  facet normal -0.9784516946789814 0.20124699723384842 -0.04617279809789202
    outer loop
      vertex -4.154741381391369 -1.1 -19.1
      vertex -2.975 -1.0999999927551385 -44.1
      vertex -2.975000001490116 -1.1 -44.1
    endloop
  endfacet
  facet normal -0.9784516976326102 0.201246982841491 -0.04617279823727275
    outer loop
      vertex -4.154741381391369 -1.1 -19.1
      vertex -2.975 -0.8421381898531461 -42.976093461838275
      vertex -2.975 -1.0999999927551385 -44.1
    endloop
  endfacet
  facet normal -0.9920884760600929 0.11609842769898535 -0.04776620933867456
    outer loop
      vertex -4.154741381391369 -1.1 -19.1
      vertex -2.975 -0.8111617108569242 -42.90080340728081
      vertex -2.975 -0.8421381898531461 -42.976093461838275
    endloop
  endfacet
  facet normal -0.9783452409499453 0.20122508693570304 -0.048467039297982024
    outer loop
      vertex -4.07718620719067 -0.4372727253220299 -19.1
      vertex -2.975 -0.5487649875204644 -41.81138667727599
      vertex -2.975 -0.8111617108569242 -42.90080340728081
    endloop
  endfacet
  facet normal -0.9920430176295509 0.1160931079594284 -0.04871387335015172
    outer loop
      vertex -4.07718620719067 -0.4372727253220299 -19.1
      vertex -2.975 -0.48318570247382897 -41.65510054161814
      vertex -2.975 -0.5487649875204644 -41.81138667727599
    endloop
  endfacet
  facet normal -0.9782336485984137 0.2012021347305933 -0.050760513489202026
    outer loop
      vertex -3.9996310329899707 0.22545454935594034 -19.1
      vertex -2.975 -0.21791093496676636 -40.603616901210586
      vertex -2.975 -0.48318570247382897 -41.65510054161814
    endloop
  endfacet
  facet normal -0.9920884760600929 0.11609842769898558 -0.047766209338674634
    outer loop
      vertex -4.154741381391369 -1.1 -19.1
      vertex -4.07718620719067 -0.4372727253220299 -19.1
      vertex -2.975 -0.8111617108569242 -42.90080340728081
    endloop
  endfacet
  facet normal 0 -1 0
    outer loop
      vertex -4.154741381391369 -1.1 -19.1
      vertex -2.975000001490116 -1.1 -44.1
      vertex -3.2314655188599533 -1.1 -19.1
    endloop
  endfacet
  facet normal -0.992043017629551 0.11609310795942847 -0.04871387335015172
    outer loop
      vertex -4.07718620719067 -0.4372727253220299 -19.1
      vertex -3.9996310329899707 0.22545454935594034 -19.1
      vertex -2.975 -0.48318570247382897 -41.65510054161814
    endloop
  endfacet
  facet normal -0.9919966705303008 0.11608768422406421 -0.04966140582275058
    outer loop
      vertex -3.9996310329899707 0.22545454935594034 -19.1
      vertex -2.975 -0.1137502456878205 -40.36013258969648
      vertex -2.975 -0.21791093496676636 -40.603616901210586
    endloop
  endfacet
  facet normal -0.8107478397067882 0.5819367813592219 -0.0635415054279107
    outer loop
      vertex -3.9220758587892712 0.8881818240339101 -19.1
      vertex -2.975 0.27800612795777874 -36.772281757063524
      vertex -2.975 -0.1137502456878205 -40.36013258969648
    endloop
  endfacet
  facet normal -0.9919966705303006 0.116087684224065 -0.049661405822750596
    outer loop
      vertex -3.9996310329899707 0.22545454935594034 -19.1
      vertex -3.9220758587892712 0.8881818240339101 -19.1
      vertex -2.975 -0.1137502456878205 -40.36013258969648
    endloop
  endfacet
  facet normal -0.9239614243084028 0.3773373486063342 -0.06254447806744855
    outer loop
      vertex -3.9220758587892712 0.8881818240339101 -19.1
      vertex -2.975 0.65252955339327 -34.51274293426948
      vertex -2.975 0.27800612795777874 -36.772281757063524
    endloop
  endfacet
  facet normal -0.8103241328203222 0.581632653972537 -0.07126188042604127
    outer loop
      vertex -2.975 0.65252955339327 -34.51274293426948
      vertex -3.6063155170915455 1.6613636363636357 -19.1
      vertex -2.975 0.9940674074305246 -31.725143627485252
    endloop
  endfacet
  facet normal -0.9237473587276589 0.37724992619178294 -0.06613100960947052
    outer loop
      vertex -2.975 0.9940674074305246 -31.725143627485252
      vertex -3.6063155170915455 1.6613636363636357 -19.1
      vertex -2.975 1.1 -31.120842211793335
    endloop
  endfacet
  facet normal -0.9237473587276593 0.37724992619178227 -0.06613100960947053
    outer loop
      vertex -2.975 1.1 -31.120842211793335
      vertex -3.29055517539382 2.4345454486933615 -19.1
      vertex -2.6952281829450753 1.1 -35.02881940096835
    endloop
  endfacet
  facet normal -0.7618591691765415 0.641923266728945 -0.08663213014620917
    outer loop
      vertex -2.2002180599629098 1.1 -38.577289777594885
      vertex -2.385730963648983 1.1 -36.94585457641411
      vertex -2.8252241405947456 2.9868181796236466 -19.1
    endloop
  endfacet
  facet normal -0.5569454831958605 0.8247743728799893 -0.09776994726473967
    outer loop
      vertex -2.2002180599629098 1.1 -38.577289777594885
      vertex -2.8252241405947456 2.9868181796236466 -19.1
      vertex -1.8500233127162427 1.1 -40.572170496818586
    endloop
  endfacet
  facet normal -0.5573564027267345 0.8253828990438732 -0.08998283339307346
    outer loop
      vertex -2.6952281829450753 1.1 -35.02881940096835
      vertex -3.29055517539382 2.4345454486933615 -19.1
      vertex -2.385730963648983 1.1 -36.94585457641411
    endloop
  endfacet
  facet normal -0.7615631727417127 0.6416738676194081 -0.09097352108128239
    outer loop
      vertex -1.7653627490326183 1.1 -41.2808862496957
      vertex -1.8500233127162427 1.1 -40.572170496818586
      vertex -2.3598931057956714 3.539090910553931 -19.1
    endloop
  endfacet
  facet normal -0.7618591691765425 0.6419232667289438 -0.08663213014620909
    outer loop
      vertex -2.385730963648983 1.1 -36.94585457641411
      vertex -3.29055517539382 2.4345454486933615 -19.1
      vertex -2.8252241405947456 2.9868181796236466 -19.1
    endloop
  endfacet
  facet normal -0.7615631727417137 0.641673867619407 -0.09097352108128229
    outer loop
      vertex -1.8500233127162427 1.1 -40.572170496818586
      vertex -2.8252241405947456 2.9868181796236466 -19.1
      vertex -2.3598931057956714 3.539090910553931 -19.1
    endloop
  endfacet
  facet normal -0.10087028006742547 0.9869596098856154 -0.1254428756588156
    outer loop
      vertex -0.8850458755671142 1.1 -43.7817129339789
      vertex 0 1.15 -44.1
      vertex -0.48922220163654306 1.1 -44.1
    endloop
  endfacet
  facet normal -0.5027275736663983 0.8572564690746486 -0.1112489681083024
    outer loop
      vertex -1.357145200445757 1.1 -42.42637800885359
      vertex -1.7948482755956978 3.870454541796987 -19.1
      vertex -1.3154800288205184 1.1 -42.61466048008657
    endloop
  endfacet
  facet normal -0.31451470761430916 0.9426122463395015 -0.11208323578967774
    outer loop
      vertex -1.7653627490326183 1.1 -41.2808862496957
      vertex -2.3598931057956714 3.539090910553931 -19.1
      vertex -1.357145200445757 1.1 -42.42637800885359
    endloop
  endfacet
  facet normal -0.31432048530752493 0.9420301548809654 -0.11739599571955708
    outer loop
      vertex -1.3154800288205184 1.1 -42.61466048008657
      vertex -1.7948482755956978 3.870454541796987 -19.1
      vertex -0.8936121046220343 1.1 -43.74418563856398
    endloop
  endfacet
  facet normal -0.5025284636634736 0.8569169445548659 -0.1147104761684031
    outer loop
      vertex -0.8936121046220343 1.1 -43.74418563856398
      vertex -1.2298034453957245 4.201818173040042 -19.1
      vertex -0.8850458755671142 1.1 -43.7817129339789
    endloop
  endfacet
  facet normal -0.10087028006742538 0.9869596098856155 -0.12544287565881532
    outer loop
      vertex -0.8850458755671142 1.1 -43.7817129339789
      vertex -1.2298034453957245 4.201818173040042 -19.1
      vertex 0 1.15 -44.1
    endloop
  endfacet
  facet normal 0 -1 0
    outer loop
      vertex -2.975000001490116 -1.1 -44.1
      vertex -2.975 -1.1 -44.1
      vertex -2.975 -1.1 51.1
    endloop
  endfacet
  facet normal 0 -1 0
    outer loop
      vertex -4.154741381391369 -1.1 -19.1
      vertex -3.2314655188599533 -1.1 -19.1
      vertex -4.149042147672039 -1.1 5.899999999999999
    endloop
  endfacet
  facet normal 0 -1 0
    outer loop
      vertex -2.975000001490116 -1.1 -44.1
      vertex -2.975 -1.1 51.1
      vertex -3.2314655188599533 -1.1 -19.1
    endloop
  endfacet
  facet normal -0.9239614243084029 0.3773373486063338 -0.06254447806744855
    outer loop
      vertex -3.9220758587892712 0.8881818240339101 -19.1
      vertex -3.6063155170915455 1.6613636363636357 -19.1
      vertex -2.975 0.65252955339327 -34.51274293426948
    endloop
  endfacet
  facet normal -0.9237473587276593 0.377249926191782 -0.06613100960947049
    outer loop
      vertex -2.975 1.1 -31.120842211793335
      vertex -3.6063155170915455 1.6613636363636357 -19.1
      vertex -3.29055517539382 2.4345454486933615 -19.1
    endloop
  endfacet
  facet normal -0.9239614243084029 0.3773373486063337 -0.06254447806744856
    outer loop
      vertex -3.6063155170915455 1.6613636363636357 -19.1
      vertex -4.630331034290379 3.2977272727272724 5.899999999999999
      vertex -3.29055517539382 2.4345454486933615 -19.1
    endloop
  endfacet
  facet normal -0.5027275736663998 0.8572564690746479 -0.11124896810830233
    outer loop
      vertex -1.357145200445757 1.1 -42.42637800885359
      vertex -2.3598931057956714 3.539090910553931 -19.1
      vertex -1.7948482755956978 3.870454541796987 -19.1
    endloop
  endfacet
  facet normal -0.5025284636635039 0.8569169445548483 -0.1147104761684013
    outer loop
      vertex -0.8936121046220343 1.1 -43.74418563856398
      vertex -1.7948482755956978 3.870454541796987 -19.1
      vertex -1.2298034453957245 4.201818173040042 -19.1
    endloop
  endfacet
  facet normal -0.17535031330278192 0.9761771686014749 -0.1277904657078294
    outer loop
      vertex -1.2298034453957245 4.201818173040042 -19.1
      vertex 0 4.422727272727272 -19.1
      vertex 0 1.15 -44.1
    endloop
  endfacet
  facet normal -0.7621409002715817 0.6421606462239783 -0.08228579813324874
    outer loop
      vertex -3.29055517539382 2.4345454486933615 -19.1
      vertex -4.224910348653793 4.52909089977091 5.899999999999999
      vertex -2.8252241405947456 2.9868181796236466 -19.1
    endloop
  endfacet
  facet normal -0.7618591691765423 0.641923266728944 -0.0866321301462091
    outer loop
      vertex -2.8252241405947456 2.9868181796236466 -19.1
      vertex -3.6274482792821425 5.408636360141363 5.899999999999999
      vertex -2.3598931057956714 3.539090910553931 -19.1
    endloop
  endfacet
  facet normal -0.8245025550953227 0.5600722475015499 -0.08071316014038302
    outer loop
      vertex -2.8252241405947456 2.9868181796236466 -19.1
      vertex -4.224910348653793 4.52909089977091 5.899999999999999
      vertex -3.6274482792821425 5.408636360141363 5.899999999999999
    endloop
  endfacet
  facet normal -0.5029207303613674 0.8575858419496992 -0.10778340623776156
    outer loop
      vertex -2.3598931057956714 3.539090910553931 -19.1
      vertex -3.0299862099104913 6.2881818205118165 5.899999999999999
      vertex -1.7948482755956978 3.870454541796987 -19.1
    endloop
  endfacet
  facet normal -0.8243010573554667 0.5599353731021561 -0.0836668679442987
    outer loop
      vertex -2.3598931057956714 3.539090910553931 -19.1
      vertex -3.6274482792821425 5.408636360141363 5.899999999999999
      vertex -3.0299862099104913 6.2881818205118165 5.899999999999999
    endloop
  endfacet
  facet normal -0.5848879933362161 0.8040710022946257 -0.1066576697666444
    outer loop
      vertex -1.7948482755956978 3.870454541796987 -19.1
      vertex -3.0299862099104913 6.2881818205118165 5.899999999999999
      vertex -2.3044965513821305 6.81590908508409 5.899999999999999
    endloop
  endfacet
  facet normal -0.5027275736663995 0.857256469074648 -0.11124896810830238
    outer loop
      vertex -1.7948482755956978 3.870454541796987 -19.1
      vertex -2.3044965513821305 6.81590908508409 5.899999999999999
      vertex -1.2298034453957245 4.201818173040042 -19.1
    endloop
  endfacet
  facet normal -0.5847263211114441 0.8038487444447525 -0.1091894017479323
    outer loop
      vertex -1.2298034453957245 4.201818173040042 -19.1
      vertex -2.3044965513821305 6.81590908508409 5.899999999999999
      vertex -1.5790068928537697 7.343636349656364 5.899999999999999
    endloop
  endfacet
  facet normal -0.1754093788176831 0.9765059869880074 -0.1251703127717277
    outer loop
      vertex -1.2298034453957245 4.201818173040042 -19.1
      vertex -1.5790068928537697 7.343636349656364 5.899999999999999
      vertex 0 4.422727272727272 -19.1
    endloop
  endfacet
  facet normal -0.21572305164638164 0.9681937704338816 -0.1267453663113445
    outer loop
      vertex -1.5790068928537697 7.343636349656364 5.899999999999999
      vertex 0 7.695454545454545 5.899999999999999
      vertex 0 4.422727272727272 -19.1
    endloop
  endfacet
  facet normal -0.9953729174686768 0.08357804494591375 -0.04740744216801377
    outer loop
      vertex -5.23490574750407 -0.044545451438788186 5.899999999999999
      vertex -6.514224141193875 -1.1 30.9
      vertex -6.39262528781747 0.3481818224444535 30.9
    endloop
  endfacet
  facet normal -0.9953522429566528 0.08357630897815248 -0.04784258582841253
    outer loop
      vertex -5.135328733715518 1.0109090971224237 5.899999999999999
      vertex -6.39262528781747 0.3481818224444535 30.9
      vertex -6.271026434441065 1.796363644888907 30.9
    endloop
  endfacet
  facet normal -0.995331380420802 0.08357455722267697 -0.048277702251187576
    outer loop
      vertex -5.0357517199269655 2.066363645683635 5.899999999999999
      vertex -6.271026434441065 1.796363644888907 30.9
      vertex -6.14942758106466 3.2445454673333596 30.9
    endloop
  endfacet
  facet normal -0.9944820745066004 0.09382455680408573 -0.046929266194619075
    outer loop
      vertex -5.334482761292622 -1.1 5.899999999999999
      vertex -6.514224141193875 -1.1 30.9
      vertex -5.23490574750407 -0.044545451438788186 5.899999999999999
    endloop
  endfacet
  facet normal 0 -1 0
    outer loop
      vertex -5.334482761292622 -1.1 5.899999999999999
      vertex -4.149042147672039 -1.1 5.899999999999999
      vertex -5.066618776484124 -1.1 30.9
    endloop
  endfacet
  facet normal -0.9944539944442475 0.09382190758649432 -0.04752580973231153
    outer loop
      vertex -5.23490574750407 -0.044545451438788186 5.899999999999999
      vertex -6.39262528781747 0.3481818224444535 30.9
      vertex -5.135328733715518 1.0109090971224237 5.899999999999999
    endloop
  endfacet
  facet normal 0 -1 0
    outer loop
      vertex -5.334482761292622 -1.1 5.899999999999999
      vertex -5.066618776484124 -1.1 30.9
      vertex -6.514224141193875 -1.1 30.9
    endloop
  endfacet
  facet normal 0 -1 0
    outer loop
      vertex -4.149042147672039 -1.1 5.899999999999999
      vertex -3.6190134117743757 -1.1 30.9
      vertex -5.066618776484124 -1.1 30.9
    endloop
  endfacet
  facet normal -0.9944255613261617 0.09381922505980987 -0.04812230242127954
    outer loop
      vertex -5.135328733715518 1.0109090971224237 5.899999999999999
      vertex -6.271026434441065 1.796363644888907 30.9
      vertex -5.0357517199269655 2.066363645683635 5.899999999999999
    endloop
  endfacet
  facet normal -0.9953934039216152 0.0835797651229996 -0.04697227151548369
    outer loop
      vertex -6.514224141193875 -1.1 30.9
      vertex -7.693965521095128 -1.1 55.9
      vertex -6.39262528781747 0.3481818224444535 30.9
    endloop
  endfacet
  facet normal 0 -1 0
    outer loop
      vertex -6.514224141193875 -1.1 30.9
      vertex -5.066618776484124 -1.1 30.9
      vertex -5.98419540529621 -1.1 55.9
    endloop
  endfacet
  facet normal 0 0 1
    outer loop
      vertex -7.693965521095128 -1.1 55.9
      vertex -5.98419540529621 -1.1 55.9
      vertex -7.5503448281308705 0.740909096327695 55.9
    endloop
  endfacet
  facet normal -0.9958529217380558 0.0776926394659092 -0.04733721621090316
    outer loop
      vertex -6.39262528781747 0.3481818224444535 30.9
      vertex -7.693965521095128 -1.1 55.9
      vertex -7.5503448281308705 0.740909096327695 55.9
    endloop
  endfacet
  facet normal 0 0 1
    outer loop
      vertex -7.5503448281308705 0.740909096327695 55.9
      vertex -5.98419540529621 -1.1 55.9
      vertex -7.406724135166613 2.58181819265539 55.9
    endloop
  endfacet
  facet normal 0 -1 0
    outer loop
      vertex -6.514224141193875 -1.1 30.9
      vertex -5.98419540529621 -1.1 55.9
      vertex -7.693965521095128 -1.1 55.9
    endloop
  endfacet
  facet normal -0.9953729174686768 0.08357804494591377 -0.047407442168013784
    outer loop
      vertex -6.39262528781747 0.3481818224444535 30.9
      vertex -7.5503448281308705 0.740909096327695 55.9
      vertex -6.271026434441065 1.796363644888907 30.9
    endloop
  endfacet
  facet normal -0.9953522429566526 0.08357630897815314 -0.047842585828412554
    outer loop
      vertex -6.271026434441065 1.796363644888907 30.9
      vertex -7.406724135166613 2.58181819265539 55.9
      vertex -6.14942758106466 3.2445454673333596 30.9
    endloop
  endfacet
  facet normal -0.9958366818689621 0.07769137249338054 -0.04767969886975537
    outer loop
      vertex -7.5503448281308705 0.740909096327695 55.9
      vertex -7.406724135166613 2.58181819265539 55.9
      vertex -6.271026434441065 1.796363644888907 30.9
    endloop
  endfacet
  facet normal 0 0 1
    outer loop
      vertex -5.98419540529621 -1.1 55.9
      vertex -7.263103442202355 4.422727288983085 55.9
      vertex -7.406724135166613 2.58181819265539 55.9
    endloop
  endfacet
  facet normal 0 -1 0
    outer loop
      vertex -5.066618776484124 -1.1 30.9
      vertex -3.6190134117743757 -1.1 30.9
      vertex -4.2744252894972945 -1.1 55.9
    endloop
  endfacet
  facet normal 0 -1 0
    outer loop
      vertex -5.98419540529621 -1.1 55.9
      vertex -5.066618776484124 -1.1 30.9
      vertex -4.2744252894972945 -1.1 55.9
    endloop
  endfacet
  facet normal 0 0 1
    outer loop
      vertex -5.98419540529621 -1.1 55.9
      vertex -4.2744252894972945 -1.1 55.9
      vertex -6.678362068688047 6.570454545454545 55.9
    endloop
  endfacet
  facet normal 0 0 1
    outer loop
      vertex -4.2744252894972945 -1.1 55.9
      vertex -2.5646551736983767 -1.1 55.9
      vertex -5.231896556656936 10.252272721176796 55.9
    endloop
  endfacet
  facet normal -0.9482997512052606 0.3122232351833274 -0.056958171281193716
    outer loop
      vertex -5.0357517199269655 2.066363645683635 5.899999999999999
      vertex -6.14942758106466 3.2445454673333596 30.9
      vertex -4.630331034290379 3.2977272727272724 5.899999999999999
    endloop
  endfacet
  facet normal -0.9481718461478317 0.31218112304444295 -0.059271380845421356
    outer loop
      vertex -4.630331034290379 3.2977272727272724 5.899999999999999
      vertex -5.654346551489214 4.934090909090909 30.9
      vertex -4.224910348653793 4.52909089977091 5.899999999999999
    endloop
  endfacet
  facet normal -0.9580543038734656 0.2807349831665119 -0.05761787965577576
    outer loop
      vertex -4.630331034290379 3.2977272727272724 5.899999999999999
      vertex -6.14942758106466 3.2445454673333596 30.9
      vertex -5.654346551489214 4.934090909090909 30.9
    endloop
  endfacet
  facet normal -0.8246969021762557 0.5602042645653429 -0.07775732443757763
    outer loop
      vertex -4.224910348653793 4.52909089977091 5.899999999999999
      vertex -5.159265521913767 6.623636350848457 30.9
      vertex -3.6274482792821425 5.408636360141363 5.899999999999999
    endloop
  endfacet
  facet normal -0.957958573288155 0.280706931599762 -0.059321079015549956
    outer loop
      vertex -4.224910348653793 4.52909089977091 5.899999999999999
      vertex -5.654346551489214 4.934090909090909 30.9
      vertex -5.159265521913767 6.623636350848457 30.9
    endloop
  endfacet
  facet normal -0.9581472637488432 0.280762222842743 -0.05591417704846033
    outer loop
      vertex -6.14942758106466 3.2445454673333596 30.9
      vertex -7.263103442202355 4.422727288983085 55.9
      vertex -5.654346551489214 4.934090909090909 30.9
    endloop
  endfacet
  facet normal -0.9958203254669079 0.07769009642939559 -0.04802216471352427
    outer loop
      vertex -7.406724135166613 2.58181819265539 55.9
      vertex -7.263103442202355 4.422727288983085 55.9
      vertex -6.14942758106466 3.2445454673333596 30.9
    endloop
  endfacet
  facet normal 0 0 1
    outer loop
      vertex -5.98419540529621 -1.1 55.9
      vertex -6.678362068688047 6.570454545454545 55.9
      vertex -7.263103442202355 4.422727288983085 55.9
    endloop
  endfacet
  facet normal -0.9580543038734654 0.2807349831665125 -0.05761787965577576
    outer loop
      vertex -5.654346551489214 4.934090909090909 30.9
      vertex -6.678362068688047 6.570454545454545 55.9
      vertex -5.159265521913767 6.623636350848457 30.9
    endloop
  endfacet
  facet normal -0.9633298750390739 0.2622767078922154 -0.05662579230724855
    outer loop
      vertex -7.263103442202355 4.422727288983085 55.9
      vertex -6.678362068688047 6.570454545454545 55.9
      vertex -5.654346551489214 4.934090909090909 30.9
    endloop
  endfacet
  facet normal 0 0 1
    outer loop
      vertex -4.2744252894972945 -1.1 55.9
      vertex -6.09362069517374 8.718181801926006 55.9
      vertex -6.678362068688047 6.570454545454545 55.9
    endloop
  endfacet
  facet normal 0 0 1
    outer loop
      vertex -4.2744252894972945 -1.1 55.9
      vertex -5.231896556656936 10.252272721176796 55.9
      vertex -6.09362069517374 8.718181801926006 55.9
    endloop
  endfacet
  facet normal 0 -1 0
    outer loop
      vertex -3.2314655188599533 -1.1 -19.1
      vertex -2.975 -1.1 51.1
      vertex -4.149042147672039 -1.1 5.899999999999999
    endloop
  endfacet
  facet normal 0 -1 0
    outer loop
      vertex -4.149042147672039 -1.1 5.899999999999999
      vertex -2.975 -1.1 51.1
      vertex -3.6190134117743757 -1.1 30.9
    endloop
  endfacet
  facet normal 0 -1 0
    outer loop
      vertex -4.2744252894972945 -1.1 55.9
      vertex -3.6190134117743757 -1.1 30.9
      vertex -2.975 -1.1 51.1
    endloop
  endfacet
  facet normal 0 -1 0
    outer loop
      vertex -4.2744252894972945 -1.1 55.9
      vertex -2.975 -1.1 51.1
      vertex -2.5646551736983767 -1.1 55.9
    endloop
  endfacet
  facet normal 0 -1 0
    outer loop
      vertex -2.975 -1.1 51.1
      vertex 2.975 -1.1 51.1
      vertex -2.5646551736983767 -1.1 55.9
    endloop
  endfacet
  facet normal 0 -1 0
    outer loop
      vertex -2.5646551736983767 -1.1 55.9
      vertex 2.975 -1.1 51.1
      vertex -0.854885057899459 -1.1 55.9
    endloop
  endfacet
  facet normal -0.8245025550953224 0.5600722475015502 -0.08071316014038303
    outer loop
      vertex -3.6274482792821425 5.408636360141363 5.899999999999999
      vertex -4.429672417969539 7.8304545406590815 30.9
      vertex -3.0299862099104913 6.2881818205118165 5.899999999999999
    endloop
  endfacet
  facet normal 0 0 1
    outer loop
      vertex -2.5646551736983767 -1.1 55.9
      vertex -0.854885057899459 -1.1 55.9
      vertex -2.27741378776986 13.627272702889007 55.9
    endloop
  endfacet
  facet normal -0.8532031620195232 0.515811866715844 -0.07734650913262751
    outer loop
      vertex -3.6274482792821425 5.408636360141363 5.899999999999999
      vertex -5.159265521913767 6.623636350848457 30.9
      vertex -4.429672417969539 7.8304545406590815 30.9
    endloop
  endfacet
  facet normal -0.9632552572195815 0.26225639240470267 -0.057973218659210436
    outer loop
      vertex -6.678362068688047 6.570454545454545 55.9
      vertex -6.09362069517374 8.718181801926006 55.9
      vertex -5.159265521913767 6.623636350848457 30.9
    endloop
  endfacet
  facet normal -0.8533490778372395 0.5159000814736765 -0.07511629177340315
    outer loop
      vertex -6.09362069517374 8.718181801926006 55.9
      vertex -4.429672417969539 7.8304545406590815 30.9
      vertex -5.159265521913767 6.623636350848457 30.9
    endloop
  endfacet
  facet normal 0 0 1
    outer loop
      vertex -2.5646551736983767 -1.1 55.9
      vertex -4.370172418140132 11.786363640427588 55.9
      vertex -5.231896556656936 10.252272721176796 55.9
    endloop
  endfacet
  facet normal -0.8532031620195231 0.5158118667158443 -0.07734650913262751
    outer loop
      vertex -4.429672417969539 7.8304545406590815 30.9
      vertex -5.231896556656936 10.252272721176796 55.9
      vertex -3.7000793140253116 9.037272730469704 30.9
    endloop
  endfacet
  facet normal -0.8693981473372617 0.48835525987481104 -0.07520639307361297
    outer loop
      vertex -6.09362069517374 8.718181801926006 55.9
      vertex -5.231896556656936 10.252272721176796 55.9
      vertex -4.429672417969539 7.8304545406590815 30.9
    endloop
  endfacet
  facet normal -0.8692792031227056 0.48828844695027446 -0.0769938932204561
    outer loop
      vertex -5.231896556656936 10.252272721176796 55.9
      vertex -4.370172418140132 11.786363640427588 55.9
      vertex -3.7000793140253116 9.037272730469704 30.9
    endloop
  endfacet
  facet normal -0.585045957709663 0.8042881627997678 -0.10412386156764268
    outer loop
      vertex -3.0299862099104913 6.2881818205118165 5.899999999999999
      vertex -3.7000793140253116 9.037272730469704 30.9
      vertex -2.3044965513821305 6.81590908508409 5.899999999999999
    endloop
  endfacet
  facet normal -0.5848879933362159 0.8040710022946257 -0.1066576697666444
    outer loop
      vertex -2.3044965513821305 6.81590908508409 5.899999999999999
      vertex -2.814144827168563 9.761363628371194 30.9
      vertex -1.5790068928537697 7.343636349656364 5.899999999999999
    endloop
  endfacet
  facet normal -0.8530530305179762 0.5157211033273422 -0.07957556601699976
    outer loop
      vertex -3.0299862099104913 6.2881818205118165 5.899999999999999
      vertex -4.429672417969539 7.8304545406590815 30.9
      vertex -3.7000793140253116 9.037272730469704 30.9
    endloop
  endfacet
  facet normal -0.6294344051309004 0.7701210557068646 -0.10356586886833871
    outer loop
      vertex -2.3044965513821305 6.81590908508409 5.899999999999999
      vertex -3.7000793140253116 9.037272730469704 30.9
      vertex -2.814144827168563 9.761363628371194 30.9
    endloop
  endfacet
  facet normal -0.6293021893938785 0.7699592880593573 -0.10555306322034759
    outer loop
      vertex -1.5790068928537697 7.343636349656364 5.899999999999999
      vertex -2.814144827168563 9.761363628371194 30.9
      vertex -1.928210340311815 10.485454526272687 30.9
    endloop
  endfacet
  facet normal -0.21577884749281503 0.9684441896195949 -0.12472105101673286
    outer loop
      vertex -1.5790068928537697 7.343636349656364 5.899999999999999
      vertex -1.928210340311815 10.485454526272687 30.9
      vertex 0 7.695454545454545 5.899999999999999
    endloop
  endfacet
  facet normal -0.24092025644721582 0.962334091024509 -0.12597828100684477
    outer loop
      vertex -1.928210340311815 10.485454526272687 30.9
      vertex 0 10.968181818181817 30.9
      vertex 0 7.695454545454545 5.899999999999999
    endloop
  endfacet
  facet normal 0 0 1
    outer loop
      vertex -2.5646551736983767 -1.1 55.9
      vertex -3.3237931029549963 12.706818171658298 55.9
      vertex -4.370172418140132 11.786363640427588 55.9
    endloop
  endfacet
  facet normal 0 0 1
    outer loop
      vertex -2.5646551736983767 -1.1 55.9
      vertex -2.27741378776986 13.627272702889007 55.9
      vertex -3.3237931029549963 12.706818171658298 55.9
    endloop
  endfacet
  facet normal -0.6295641612642285 0.7702798139977497 -0.10157743351385011
    outer loop
      vertex -4.370172418140132 11.786363640427588 55.9
      vertex -2.814144827168563 9.761363628371194 30.9
      vertex -3.7000793140253116 9.037272730469704 30.9
    endloop
  endfacet
  facet normal 0 0 1
    outer loop
      vertex -0.854885057899459 -1.1 55.9
      vertex 0 14.24090909090909 55.9
      vertex -2.27741378776986 13.627272702889007 55.9
    endloop
  endfacet
  facet normal -0.6294344051309015 0.7701210557068636 -0.10356586886833861
    outer loop
      vertex -2.814144827168563 9.761363628371194 30.9
      vertex -3.3237931029549963 12.706818171658298 55.9
      vertex -1.928210340311815 10.485454526272687 30.9
    endloop
  endfacet
  facet normal -0.6570781650632689 0.7469711724518356 -0.10140193549936649
    outer loop
      vertex -4.370172418140132 11.786363640427588 55.9
      vertex -3.3237931029549963 12.706818171658298 55.9
      vertex -2.814144827168563 9.761363628371194 30.9
    endloop
  endfacet
  facet normal -0.656967352194547 0.7468451995876135 -0.10303468349746911
    outer loop
      vertex -1.928210340311815 10.485454526272687 30.9
      vertex -3.3237931029549963 12.706818171658298 55.9
      vertex -2.27741378776986 13.627272702889007 55.9
    endloop
  endfacet
  facet normal -0.24097073957899107 0.962535741310979 -0.12433040402764786
    outer loop
      vertex -1.928210340311815 10.485454526272687 30.9
      vertex -2.27741378776986 13.627272702889007 55.9
      vertex 0 10.968181818181817 30.9
    endloop
  endfacet
  facet normal -0.25811201218137664 0.9579416521036732 -0.12540327082084454
    outer loop
      vertex -2.27741378776986 13.627272702889007 55.9
      vertex 0 14.24090909090909 55.9
      vertex 0 10.968181818181817 30.9
    endloop
  endfacet
  facet normal 0 0 -1
    outer loop
      vertex -0.48922220163654306 1.1 -44.1
      vertex 0 1.15 -44.1
      vertex 0.48922220163654306 1.1 -44.1
    endloop
  endfacet
  facet normal 0.10087028006742547 0.9869596098856154 -0.1254428756588156
    outer loop
      vertex 0 1.15 -44.1
      vertex 0.8850458755671142 1.1 -43.7817129339789
      vertex 0.48922220163654306 1.1 -44.1
    endloop
  endfacet
  facet normal 0.10087028006742536 0.9869596098856155 -0.12544287565881532
    outer loop
      vertex 0 1.15 -44.1
      vertex 1.2298034453957245 4.201818173040042 -19.1
      vertex 0.8850458755671142 1.1 -43.7817129339789
    endloop
  endfacet
  facet normal 0.5025284636634736 0.8569169445548659 -0.1147104761684031
    outer loop
      vertex 0.8850458755671142 1.1 -43.7817129339789
      vertex 1.2298034453957245 4.201818173040042 -19.1
      vertex 0.8936121046220343 1.1 -43.74418563856398
    endloop
  endfacet
  facet normal 0.31432048530752493 0.9420301548809654 -0.11739599571955708
    outer loop
      vertex 0.8936121046220343 1.1 -43.74418563856398
      vertex 1.7948482755956978 3.870454541796987 -19.1
      vertex 1.3154800288205184 1.1 -42.61466048008657
    endloop
  endfacet
  facet normal 0.5027275736663983 0.8572564690746486 -0.1112489681083024
    outer loop
      vertex 1.3154800288205184 1.1 -42.61466048008657
      vertex 1.7948482755956978 3.870454541796987 -19.1
      vertex 1.357145200445757 1.1 -42.42637800885359
    endloop
  endfacet
  facet normal 0.31451470761430916 0.9426122463395015 -0.11208323578967774
    outer loop
      vertex 1.357145200445757 1.1 -42.42637800885359
      vertex 2.3598931057956714 3.539090910553931 -19.1
      vertex 1.7653627490326183 1.1 -41.2808862496957
    endloop
  endfacet
  facet normal 0 0 -1
    outer loop
      vertex 2.975000001490116 -1.1 -44.1
      vertex 2.975 -1.1 -44.1
      vertex 2.975 -1.0999999927551385 -44.1
    endloop
  endfacet
  facet normal 0.9784516970098293 0.20124698571799915 -0.04617279889724013
    outer loop
      vertex 2.975000001490116 -1.1 -44.1
      vertex 2.975 -1.0999999927551385 -44.1
      vertex 2.975 -0.8421381898531463 -42.976093461838275
    endloop
  endfacet
  facet normal 0.9783452409499455 0.20122508693570304 -0.04846703929798203
    outer loop
      vertex 2.975 -0.8111617108569243 -42.90080340728081
      vertex 2.975 -0.5487649875204645 -41.81138667727599
      vertex 4.07718620719067 -0.4372727253220301 -19.1
    endloop
  endfacet
  facet normal 0.9920430176295509 0.11609310795942848 -0.04871387335015172
    outer loop
      vertex 2.975 -0.5487649875204645 -41.81138667727599
      vertex 2.975 -0.48318570247382914 -41.65510054161814
      vertex 4.07718620719067 -0.4372727253220301 -19.1
    endloop
  endfacet
  facet normal 0.9782336485984137 0.20120213473059348 -0.05076051348920202
    outer loop
      vertex 2.975 -0.48318570247382914 -41.65510054161814
      vertex 2.975 -0.21791093496676645 -40.603616901210586
      vertex 3.9996310329899707 0.2254545493559399 -19.1
    endloop
  endfacet
  facet normal 0.9784516976326102 0.2012469828414908 -0.046172798237272744
    outer loop
      vertex 2.975000001490116 -1.1 -44.1
      vertex 2.975 -0.8421381898531463 -42.976093461838275
      vertex 4.154741381391369 -1.1 -19.1
    endloop
  endfacet
  facet normal 0.9920884760600926 0.11609842769898589 -0.04776620933867463
    outer loop
      vertex 2.975 -0.8421381898531463 -42.976093461838275
      vertex 2.975 -0.8111617108569243 -42.90080340728081
      vertex 4.154741381391369 -1.1 -19.1
    endloop
  endfacet
  facet normal 0 -1 0
    outer loop
      vertex 2.975000001490116 -1.1 -44.1
      vertex 4.154741381391369 -1.1 -19.1
      vertex 3.2314655188599533 -1.1 -19.1
    endloop
  endfacet
  facet normal 0.9920884760600928 0.11609842769898562 -0.04776620933867463
    outer loop
      vertex 2.975 -0.8111617108569243 -42.90080340728081
      vertex 4.07718620719067 -0.4372727253220301 -19.1
      vertex 4.154741381391369 -1.1 -19.1
    endloop
  endfacet
  facet normal 0.9920430176295512 0.11609310795942848 -0.048713873350151725
    outer loop
      vertex 2.975 -0.48318570247382914 -41.65510054161814
      vertex 3.9996310329899707 0.2254545493559399 -19.1
      vertex 4.07718620719067 -0.4372727253220301 -19.1
    endloop
  endfacet
  facet normal 0.9919966705303006 0.11608768422406471 -0.04966140582275058
    outer loop
      vertex 2.975 -0.21791093496676645 -40.603616901210586
      vertex 2.975 -0.1137502456878205 -40.36013258969648
      vertex 3.9996310329899707 0.2254545493559399 -19.1
    endloop
  endfacet
  facet normal 0.8107478397067881 0.5819367813592219 -0.06354150542791072
    outer loop
      vertex 2.975 -0.1137502456878205 -40.36013258969648
      vertex 2.975 0.27800612795777874 -36.772281757063524
      vertex 3.9220758587892712 0.8881818240339101 -19.1
    endloop
  endfacet
  facet normal 0.9239614243084028 0.37733734860633444 -0.06254447806744855
    outer loop
      vertex 2.975 0.27800612795777874 -36.772281757063524
      vertex 2.975 0.65252955339327 -34.51274293426948
      vertex 3.9220758587892712 0.8881818240339101 -19.1
    endloop
  endfacet
  facet normal 0.9919966705303006 0.11608768422406493 -0.04966140582275059
    outer loop
      vertex 2.975 -0.1137502456878205 -40.36013258969648
      vertex 3.9220758587892712 0.8881818240339101 -19.1
      vertex 3.9996310329899707 0.2254545493559399 -19.1
    endloop
  endfacet
  facet normal 0.5569454831958605 0.8247743728799893 -0.09776994726473967
    outer loop
      vertex 1.8500233127162427 1.1 -40.572170496818586
      vertex 2.8252241405947456 2.9868181796236466 -19.1
      vertex 2.2002180599629098 1.1 -38.577289777594885
    endloop
  endfacet
  facet normal 0.7618591691765415 0.641923266728945 -0.08663213014620917
    outer loop
      vertex 2.2002180599629098 1.1 -38.577289777594885
      vertex 2.8252241405947456 2.9868181796236466 -19.1
      vertex 2.385730963648983 1.1 -36.94585457641411
    endloop
  endfacet
  facet normal 0.5573564027267345 0.8253828990438732 -0.08998283339307346
    outer loop
      vertex 2.385730963648983 1.1 -36.94585457641411
      vertex 3.29055517539382 2.4345454486933615 -19.1
      vertex 2.6952281829450753 1.1 -35.02881940096835
    endloop
  endfacet
  facet normal 0.7615631727417127 0.6416738676194081 -0.09097352108128239
    outer loop
      vertex 1.7653627490326183 1.1 -41.2808862496957
      vertex 2.3598931057956714 3.539090910553931 -19.1
      vertex 1.8500233127162427 1.1 -40.572170496818586
    endloop
  endfacet
  facet normal 0.7615631727417137 0.641673867619407 -0.09097352108128229
    outer loop
      vertex 1.8500233127162427 1.1 -40.572170496818586
      vertex 2.3598931057956714 3.539090910553931 -19.1
      vertex 2.8252241405947456 2.9868181796236466 -19.1
    endloop
  endfacet
  facet normal 0.7618591691765425 0.6419232667289438 -0.08663213014620909
    outer loop
      vertex 2.385730963648983 1.1 -36.94585457641411
      vertex 2.8252241405947456 2.9868181796236466 -19.1
      vertex 3.29055517539382 2.4345454486933615 -19.1
    endloop
  endfacet
  facet normal 0.8103241328203222 0.581632653972537 -0.07126188042604127
    outer loop
      vertex 2.975 0.65252955339327 -34.51274293426948
      vertex 2.975 0.9940674074305246 -31.725143627485252
      vertex 3.6063155170915455 1.6613636363636357 -19.1
    endloop
  endfacet
  facet normal 0.9237473587276589 0.37724992619178294 -0.06613100960947052
    outer loop
      vertex 2.975 0.9940674074305246 -31.725143627485252
      vertex 2.975 1.1 -31.120842211793335
      vertex 3.6063155170915455 1.6613636363636357 -19.1
    endloop
  endfacet
  facet normal 0.9237473587276593 0.3772499261917824 -0.06613100960947053
    outer loop
      vertex 2.6952281829450753 1.1 -35.02881940096835
      vertex 3.29055517539382 2.4345454486933615 -19.1
      vertex 2.975 1.1 -31.120842211793335
    endloop
  endfacet
  facet normal 0 -1 0
    outer loop
      vertex 2.975000001490116 -1.1 -44.1
      vertex 2.975 -1.1 51.1
      vertex 2.975 -1.1 -44.1
    endloop
  endfacet
  facet normal 0 -1 0
    outer loop
      vertex 3.2314655188599533 -1.1 -19.1
      vertex 4.154741381391369 -1.1 -19.1
      vertex 4.149042147672039 -1.1 5.899999999999999
    endloop
  endfacet
  facet normal 0 -1 0
    outer loop
      vertex 2.975000001490116 -1.1 -44.1
      vertex 3.2314655188599533 -1.1 -19.1
      vertex 2.975 -1.1 51.1
    endloop
  endfacet
  facet normal 0.9237473587276593 0.377249926191782 -0.06613100960947049
    outer loop
      vertex 2.975 1.1 -31.120842211793335
      vertex 3.29055517539382 2.4345454486933615 -19.1
      vertex 3.6063155170915455 1.6613636363636357 -19.1
    endloop
  endfacet
  facet normal 0.9239614243084029 0.3773373486063339 -0.06254447806744853
    outer loop
      vertex 2.975 0.65252955339327 -34.51274293426948
      vertex 3.6063155170915455 1.6613636363636357 -19.1
      vertex 3.9220758587892712 0.8881818240339101 -19.1
    endloop
  endfacet
  facet normal 0.9239614243084029 0.3773373486063337 -0.06254447806744856
    outer loop
      vertex 3.6063155170915455 1.6613636363636357 -19.1
      vertex 3.29055517539382 2.4345454486933615 -19.1
      vertex 4.630331034290379 3.2977272727272724 5.899999999999999
    endloop
  endfacet
  facet normal 0.17535031330278203 0.9761771686014749 -0.1277904657078294
    outer loop
      vertex 0 1.15 -44.1
      vertex 0 4.422727272727272 -19.1
      vertex 1.2298034453957245 4.201818173040042 -19.1
    endloop
  endfacet
  facet normal 0.5025284636635039 0.8569169445548483 -0.1147104761684013
    outer loop
      vertex 0.8936121046220343 1.1 -43.74418563856398
      vertex 1.2298034453957245 4.201818173040042 -19.1
      vertex 1.7948482755956978 3.870454541796987 -19.1
    endloop
  endfacet
  facet normal 0.5027275736663998 0.8572564690746479 -0.11124896810830233
    outer loop
      vertex 1.357145200445757 1.1 -42.42637800885359
      vertex 1.7948482755956978 3.870454541796987 -19.1
      vertex 2.3598931057956714 3.539090910553931 -19.1
    endloop
  endfacet
  facet normal 0.1754093788176831 0.9765059869880074 -0.1251703127717277
    outer loop
      vertex 0 4.422727272727272 -19.1
      vertex 1.5790068928537697 7.343636349656364 5.899999999999999
      vertex 1.2298034453957245 4.201818173040042 -19.1
    endloop
  endfacet
  facet normal 0.2157230516463818 0.9681937704338816 -0.1267453663113445
    outer loop
      vertex 0 4.422727272727272 -19.1
      vertex 0 7.695454545454545 5.899999999999999
      vertex 1.5790068928537697 7.343636349656364 5.899999999999999
    endloop
  endfacet
  facet normal 0.5027275736663995 0.857256469074648 -0.11124896810830238
    outer loop
      vertex 1.2298034453957245 4.201818173040042 -19.1
      vertex 2.3044965513821305 6.81590908508409 5.899999999999999
      vertex 1.7948482755956978 3.870454541796987 -19.1
    endloop
  endfacet
  facet normal 0.5847263211114441 0.8038487444447525 -0.1091894017479323
    outer loop
      vertex 1.2298034453957245 4.201818173040042 -19.1
      vertex 1.5790068928537697 7.343636349656364 5.899999999999999
      vertex 2.3044965513821305 6.81590908508409 5.899999999999999
    endloop
  endfacet
  facet normal 0.5029207303613674 0.8575858419496992 -0.10778340623776156
    outer loop
      vertex 1.7948482755956978 3.870454541796987 -19.1
      vertex 3.0299862099104913 6.2881818205118165 5.899999999999999
      vertex 2.3598931057956714 3.539090910553931 -19.1
    endloop
  endfacet
  facet normal 0.7621409002715817 0.6421606462239783 -0.08228579813324874
    outer loop
      vertex 3.29055517539382 2.4345454486933615 -19.1
      vertex 2.8252241405947456 2.9868181796236466 -19.1
      vertex 4.224910348653793 4.52909089977091 5.899999999999999
    endloop
  endfacet
  facet normal 0.7618591691765423 0.641923266728944 -0.0866321301462091
    outer loop
      vertex 2.3598931057956714 3.539090910553931 -19.1
      vertex 3.6274482792821425 5.408636360141363 5.899999999999999
      vertex 2.8252241405947456 2.9868181796236466 -19.1
    endloop
  endfacet
  facet normal 0.8245025550953227 0.5600722475015499 -0.08071316014038302
    outer loop
      vertex 2.8252241405947456 2.9868181796236466 -19.1
      vertex 3.6274482792821425 5.408636360141363 5.899999999999999
      vertex 4.224910348653793 4.52909089977091 5.899999999999999
    endloop
  endfacet
  facet normal 0.5848879933362161 0.8040710022946257 -0.1066576697666444
    outer loop
      vertex 1.7948482755956978 3.870454541796987 -19.1
      vertex 2.3044965513821305 6.81590908508409 5.899999999999999
      vertex 3.0299862099104913 6.2881818205118165 5.899999999999999
    endloop
  endfacet
  facet normal 0.8243010573554667 0.5599353731021561 -0.0836668679442987
    outer loop
      vertex 2.3598931057956714 3.539090910553931 -19.1
      vertex 3.0299862099104913 6.2881818205118165 5.899999999999999
      vertex 3.6274482792821425 5.408636360141363 5.899999999999999
    endloop
  endfacet
  facet normal 0.9921330454542194 0.11610364339970834 -0.04681841632359175
    outer loop
      vertex 4.154741381391369 -1.1 -19.1
      vertex 4.07718620719067 -0.4372727253220301 -19.1
      vertex 5.334482761292622 -1.1 5.899999999999999
    endloop
  endfacet
  facet normal 0 -1 0
    outer loop
      vertex 4.154741381391369 -1.1 -19.1
      vertex 5.334482761292622 -1.1 5.899999999999999
      vertex 4.149042147672039 -1.1 5.899999999999999
    endloop
  endfacet
  facet normal 0.9920884760600928 0.11609842769898693 -0.04776620933867462
    outer loop
      vertex 4.07718620719067 -0.4372727253220301 -19.1
      vertex 3.9996310329899707 0.2254545493559399 -19.1
      vertex 5.23490574750407 -0.04454545143878841 5.899999999999999
    endloop
  endfacet
  facet normal 0.9920430176295512 0.11609310795942847 -0.04871387335015173
    outer loop
      vertex 3.9996310329899707 0.2254545493559399 -19.1
      vertex 3.9220758587892712 0.8881818240339101 -19.1
      vertex 5.135328733715518 1.0109090971224233 5.899999999999999
    endloop
  endfacet
  facet normal 0.9944255613261618 0.09381922505980897 -0.04812230242127952
    outer loop
      vertex 3.9996310329899707 0.2254545493559399 -19.1
      vertex 5.135328733715518 1.0109090971224233 5.899999999999999
      vertex 5.23490574750407 -0.04454545143878841 5.899999999999999
    endloop
  endfacet
  facet normal 0.9944539944442473 0.0938219075864951 -0.04752580973231151
    outer loop
      vertex 4.07718620719067 -0.4372727253220301 -19.1
      vertex 5.23490574750407 -0.04454545143878841 5.899999999999999
      vertex 5.334482761292622 -1.1 5.899999999999999
    endloop
  endfacet
  facet normal 0.9241636437791164 0.37741993317849026 -0.05895552184868031
    outer loop
      vertex 3.6063155170915455 1.6613636363636357 -19.1
      vertex 5.0357517199269655 2.066363645683635 5.899999999999999
      vertex 3.9220758587892712 0.8881818240339101 -19.1
    endloop
  endfacet
  facet normal 0.9943967752434616 0.0938165092326264 -0.048718743629212885
    outer loop
      vertex 3.9220758587892712 0.8881818240339101 -19.1
      vertex 5.0357517199269655 2.066363645683635 5.899999999999999
      vertex 5.135328733715518 1.0109090971224233 5.899999999999999
    endloop
  endfacet
  facet normal 0.9481718461478317 0.3121811230444431 -0.05927138084542135
    outer loop
      vertex 3.6063155170915455 1.6613636363636357 -19.1
      vertex 4.630331034290379 3.2977272727272724 5.899999999999999
      vertex 5.0357517199269655 2.066363645683635 5.899999999999999
    endloop
  endfacet
  facet normal 0.9480388875731112 0.31213734705874663 -0.06158363597795514
    outer loop
      vertex 3.29055517539382 2.4345454486933615 -19.1
      vertex 4.224910348653793 4.52909089977091 5.899999999999999
      vertex 4.630331034290379 3.2977272727272724 5.899999999999999
    endloop
  endfacet
  facet normal 0 -1 0
    outer loop
      vertex 3.2314655188599533 -1.1 -19.1
      vertex 4.149042147672039 -1.1 5.899999999999999
      vertex 2.975 -1.1 51.1
    endloop
  endfacet
  facet normal 0 -1 0
    outer loop
      vertex -0.854885057899459 -1.1 55.9
      vertex 2.975 -1.1 51.1
      vertex 0.854885057899459 -1.1 55.9
    endloop
  endfacet
  facet normal 0 -1 0
    outer loop
      vertex 3.6190134117743757 -1.1 30.9
      vertex 2.975 -1.1 51.1
      vertex 4.149042147672039 -1.1 5.899999999999999
    endloop
  endfacet
  facet normal 0 -1 0
    outer loop
      vertex 0.854885057899459 -1.1 55.9
      vertex 2.975 -1.1 51.1
      vertex 2.564655173698376 -1.1 55.9
    endloop
  endfacet
  facet normal 0 -1 0
    outer loop
      vertex 3.6190134117743757 -1.1 30.9
      vertex 4.2744252894972945 -1.1 55.9
      vertex 2.975 -1.1 51.1
    endloop
  endfacet
  facet normal 0 -1 0
    outer loop
      vertex 2.564655173698376 -1.1 55.9
      vertex 2.975 -1.1 51.1
      vertex 4.2744252894972945 -1.1 55.9
    endloop
  endfacet
  facet normal 0.8245025550953224 0.5600722475015502 -0.08071316014038303
    outer loop
      vertex 3.6274482792821425 5.408636360141363 5.899999999999999
      vertex 3.0299862099104913 6.2881818205118165 5.899999999999999
      vertex 4.429672417969539 7.8304545406590815 30.9
    endloop
  endfacet
  facet normal 0 0 1
    outer loop
      vertex -0.854885057899459 -1.1 55.9
      vertex 0.854885057899459 -1.1 55.9
      vertex 0 14.24090909090909 55.9
    endloop
  endfacet
  facet normal 0 0 1
    outer loop
      vertex 0.854885057899459 -1.1 55.9
      vertex 2.564655173698376 -1.1 55.9
      vertex 3.3237931029549963 12.706818171658298 55.9
    endloop
  endfacet
  facet normal 0 -1 0
    outer loop
      vertex 4.149042147672039 -1.1 5.899999999999999
      vertex 5.334482761292622 -1.1 5.899999999999999
      vertex 5.066618776484124 -1.1 30.9
    endloop
  endfacet
  facet normal 0.9944820745066004 0.09382455680408576 -0.04692926619461908
    outer loop
      vertex 5.334482761292622 -1.1 5.899999999999999
      vertex 5.23490574750407 -0.04454545143878841 5.899999999999999
      vertex 6.514224141193875 -1.1 30.9
    endloop
  endfacet
  facet normal 0.9944539944442475 0.09382190758649435 -0.04752580973231153
    outer loop
      vertex 5.23490574750407 -0.04454545143878841 5.899999999999999
      vertex 5.135328733715518 1.0109090971224233 5.899999999999999
      vertex 6.39262528781747 0.34818182244445306 30.9
    endloop
  endfacet
  facet normal 0 -1 0
    outer loop
      vertex 3.6190134117743757 -1.1 30.9
      vertex 4.149042147672039 -1.1 5.899999999999999
      vertex 5.066618776484124 -1.1 30.9
    endloop
  endfacet
  facet normal 0 -1 0
    outer loop
      vertex 5.334482761292622 -1.1 5.899999999999999
      vertex 6.514224141193875 -1.1 30.9
      vertex 5.066618776484124 -1.1 30.9
    endloop
  endfacet
  facet normal 0.9944255613261617 0.09381922505980983 -0.04812230242127954
    outer loop
      vertex 5.135328733715518 1.0109090971224233 5.899999999999999
      vertex 5.0357517199269655 2.066363645683635 5.899999999999999
      vertex 6.271026434441065 1.7963636448889062 30.9
    endloop
  endfacet
  facet normal 0.9953729174686768 0.0835780449459138 -0.04740744216801377
    outer loop
      vertex 5.23490574750407 -0.04454545143878841 5.899999999999999
      vertex 6.39262528781747 0.34818182244445306 30.9
      vertex 6.514224141193875 -1.1 30.9
    endloop
  endfacet
  facet normal 0.9953522429566528 0.0835763089781525 -0.04784258582841254
    outer loop
      vertex 5.135328733715518 1.0109090971224233 5.899999999999999
      vertex 6.271026434441065 1.7963636448889062 30.9
      vertex 6.39262528781747 0.34818182244445306 30.9
    endloop
  endfacet
  facet normal 0.995331380420802 0.08357455722267691 -0.04827770225118758
    outer loop
      vertex 5.0357517199269655 2.066363645683635 5.899999999999999
      vertex 6.14942758106466 3.2445454673333596 30.9
      vertex 6.271026434441065 1.7963636448889062 30.9
    endloop
  endfacet
  facet normal 0 -1 0
    outer loop
      vertex 3.6190134117743757 -1.1 30.9
      vertex 5.066618776484124 -1.1 30.9
      vertex 4.2744252894972945 -1.1 55.9
    endloop
  endfacet
  facet normal 0 -1 0
    outer loop
      vertex 5.066618776484124 -1.1 30.9
      vertex 5.98419540529621 -1.1 55.9
      vertex 4.2744252894972945 -1.1 55.9
    endloop
  endfacet
  facet normal 0 0 1
    outer loop
      vertex 2.564655173698376 -1.1 55.9
      vertex 4.2744252894972945 -1.1 55.9
      vertex 5.231896556656936 10.252272721176796 55.9
    endloop
  endfacet
  facet normal 0 0 1
    outer loop
      vertex 4.2744252894972945 -1.1 55.9
      vertex 5.98419540529621 -1.1 55.9
      vertex 6.678362068688047 6.570454545454545 55.9
    endloop
  endfacet
  facet normal 0 -1 0
    outer loop
      vertex 5.066618776484124 -1.1 30.9
      vertex 6.514224141193875 -1.1 30.9
      vertex 5.98419540529621 -1.1 55.9
    endloop
  endfacet
  facet normal 0.9953934039216152 0.08357976512299961 -0.046972271515483686
    outer loop
      vertex 6.514224141193875 -1.1 30.9
      vertex 6.39262528781747 0.34818182244445306 30.9
      vertex 7.693965521095128 -1.1 55.9
    endloop
  endfacet
  facet normal 0 -1 0
    outer loop
      vertex 6.514224141193875 -1.1 30.9
      vertex 7.693965521095128 -1.1 55.9
      vertex 5.98419540529621 -1.1 55.9
    endloop
  endfacet
  facet normal 0 0 1
    outer loop
      vertex 5.98419540529621 -1.1 55.9
      vertex 7.693965521095128 -1.1 55.9
      vertex 7.5503448281308705 0.7409090963276945 55.9
    endloop
  endfacet
  facet normal 0.995852921738056 0.07769263946590922 -0.04733721621090315
    outer loop
      vertex 6.39262528781747 0.34818182244445306 30.9
      vertex 7.5503448281308705 0.7409090963276945 55.9
      vertex 7.693965521095128 -1.1 55.9
    endloop
  endfacet
  facet normal 0 0 1
    outer loop
      vertex 5.98419540529621 -1.1 55.9
      vertex 7.5503448281308705 0.7409090963276945 55.9
      vertex 7.406724135166613 2.581818192655389 55.9
    endloop
  endfacet
  facet normal 0.9953522429566526 0.0835763089781531 -0.047842585828412554
    outer loop
      vertex 6.271026434441065 1.7963636448889062 30.9
      vertex 6.14942758106466 3.2445454673333596 30.9
      vertex 7.406724135166613 2.581818192655389 55.9
    endloop
  endfacet
  facet normal 0.9953729174686768 0.0835780449459138 -0.04740744216801378
    outer loop
      vertex 6.39262528781747 0.34818182244445306 30.9
      vertex 6.271026434441065 1.7963636448889062 30.9
      vertex 7.5503448281308705 0.7409090963276945 55.9
    endloop
  endfacet
  facet normal 0.9958366818689621 0.07769137249338055 -0.04767969886975537
    outer loop
      vertex 7.5503448281308705 0.7409090963276945 55.9
      vertex 6.271026434441065 1.7963636448889062 30.9
      vertex 7.406724135166613 2.581818192655389 55.9
    endloop
  endfacet
  facet normal 0 0 1
    outer loop
      vertex 5.98419540529621 -1.1 55.9
      vertex 7.406724135166613 2.581818192655389 55.9
      vertex 7.263103442202355 4.422727288983085 55.9
    endloop
  endfacet
  facet normal 0.9482997512052606 0.3122232351833274 -0.056958171281193716
    outer loop
      vertex 5.0357517199269655 2.066363645683635 5.899999999999999
      vertex 4.630331034290379 3.2977272727272724 5.899999999999999
      vertex 6.14942758106466 3.2445454673333596 30.9
    endloop
  endfacet
  facet normal 0.9481718461478317 0.31218112304444295 -0.059271380845421356
    outer loop
      vertex 4.630331034290379 3.2977272727272724 5.899999999999999
      vertex 4.224910348653793 4.52909089977091 5.899999999999999
      vertex 5.654346551489214 4.934090909090909 30.9
    endloop
  endfacet
  facet normal 0.9580543038734656 0.2807349831665119 -0.05761787965577576
    outer loop
      vertex 4.630331034290379 3.2977272727272724 5.899999999999999
      vertex 5.654346551489214 4.934090909090909 30.9
      vertex 6.14942758106466 3.2445454673333596 30.9
    endloop
  endfacet
  facet normal 0.8246969021762557 0.5602042645653429 -0.07775732443757763
    outer loop
      vertex 3.6274482792821425 5.408636360141363 5.899999999999999
      vertex 5.159265521913767 6.623636350848457 30.9
      vertex 4.224910348653793 4.52909089977091 5.899999999999999
    endloop
  endfacet
  facet normal 0.957958573288155 0.280706931599762 -0.059321079015549956
    outer loop
      vertex 4.224910348653793 4.52909089977091 5.899999999999999
      vertex 5.159265521913767 6.623636350848457 30.9
      vertex 5.654346551489214 4.934090909090909 30.9
    endloop
  endfacet
  facet normal 0 0 1
    outer loop
      vertex 4.2744252894972945 -1.1 55.9
      vertex 6.678362068688047 6.570454545454545 55.9
      vertex 6.09362069517374 8.718181801926006 55.9
    endloop
  endfacet
  facet normal 0 0 1
    outer loop
      vertex 4.2744252894972945 -1.1 55.9
      vertex 6.09362069517374 8.718181801926006 55.9
      vertex 5.231896556656936 10.252272721176796 55.9
    endloop
  endfacet
  facet normal 0.9581472637488432 0.280762222842743 -0.05591417704846033
    outer loop
      vertex 5.654346551489214 4.934090909090909 30.9
      vertex 7.263103442202355 4.422727288983085 55.9
      vertex 6.14942758106466 3.2445454673333596 30.9
    endloop
  endfacet
  facet normal 0 0 1
    outer loop
      vertex 5.98419540529621 -1.1 55.9
      vertex 7.263103442202355 4.422727288983085 55.9
      vertex 6.678362068688047 6.570454545454545 55.9
    endloop
  endfacet
  facet normal 0.9958203254669078 0.07769009642939555 -0.04802216471352425
    outer loop
      vertex 7.406724135166613 2.581818192655389 55.9
      vertex 6.14942758106466 3.2445454673333596 30.9
      vertex 7.263103442202355 4.422727288983085 55.9
    endloop
  endfacet
  facet normal 0.9580543038734654 0.2807349831665125 -0.05761787965577576
    outer loop
      vertex 5.654346551489214 4.934090909090909 30.9
      vertex 5.159265521913767 6.623636350848457 30.9
      vertex 6.678362068688047 6.570454545454545 55.9
    endloop
  endfacet
  facet normal 0.9633298750390739 0.2622767078922153 -0.05662579230724855
    outer loop
      vertex 5.654346551489214 4.934090909090909 30.9
      vertex 6.678362068688047 6.570454545454545 55.9
      vertex 7.263103442202355 4.422727288983085 55.9
    endloop
  endfacet
  facet normal 0.21577884749281503 0.9684441896195949 -0.12472105101673289
    outer loop
      vertex 0 7.695454545454545 5.899999999999999
      vertex 1.928210340311815 10.485454526272687 30.9
      vertex 1.5790068928537697 7.343636349656364 5.899999999999999
    endloop
  endfacet
  facet normal 0.2409202564472158 0.962334091024509 -0.12597828100684477
    outer loop
      vertex 0 7.695454545454545 5.899999999999999
      vertex 0 10.968181818181817 30.9
      vertex 1.928210340311815 10.485454526272687 30.9
    endloop
  endfacet
  facet normal 0.5848879933362159 0.8040710022946257 -0.1066576697666444
    outer loop
      vertex 1.5790068928537697 7.343636349656364 5.899999999999999
      vertex 2.814144827168563 9.761363628371194 30.9
      vertex 2.3044965513821305 6.81590908508409 5.899999999999999
    endloop
  endfacet
  facet normal 0.585045957709663 0.8042881627997678 -0.10412386156764268
    outer loop
      vertex 3.0299862099104913 6.2881818205118165 5.899999999999999
      vertex 2.3044965513821305 6.81590908508409 5.899999999999999
      vertex 3.7000793140253116 9.037272730469704 30.9
    endloop
  endfacet
  facet normal 0.8530530305179762 0.5157211033273422 -0.07957556601699976
    outer loop
      vertex 3.0299862099104913 6.2881818205118165 5.899999999999999
      vertex 3.7000793140253116 9.037272730469704 30.9
      vertex 4.429672417969539 7.8304545406590815 30.9
    endloop
  endfacet
  facet normal 0.6293021893938785 0.7699592880593573 -0.10555306322034759
    outer loop
      vertex 1.5790068928537697 7.343636349656364 5.899999999999999
      vertex 1.928210340311815 10.485454526272687 30.9
      vertex 2.814144827168563 9.761363628371194 30.9
    endloop
  endfacet
  facet normal 0.6294344051309004 0.7701210557068646 -0.10356586886833871
    outer loop
      vertex 2.3044965513821305 6.81590908508409 5.899999999999999
      vertex 2.814144827168563 9.761363628371194 30.9
      vertex 3.7000793140253116 9.037272730469704 30.9
    endloop
  endfacet
  facet normal 0 0 1
    outer loop
      vertex 0.854885057899459 -1.1 55.9
      vertex 2.27741378776986 13.627272702889007 55.9
      vertex 0 14.24090909090909 55.9
    endloop
  endfacet
  facet normal 0 0 1
    outer loop
      vertex 0.854885057899459 -1.1 55.9
      vertex 3.3237931029549963 12.706818171658298 55.9
      vertex 2.27741378776986 13.627272702889007 55.9
    endloop
  endfacet
  facet normal 0 0 1
    outer loop
      vertex 2.564655173698376 -1.1 55.9
      vertex 4.370172418140132 11.786363640427588 55.9
      vertex 3.3237931029549963 12.706818171658298 55.9
    endloop
  endfacet
  facet normal 0.6295641612642285 0.7702798139977497 -0.10157743351385012
    outer loop
      vertex 2.814144827168563 9.761363628371194 30.9
      vertex 4.370172418140132 11.786363640427588 55.9
      vertex 3.7000793140253116 9.037272730469704 30.9
    endloop
  endfacet
  facet normal 0.24097073957899107 0.962535741310979 -0.12433040402764786
    outer loop
      vertex 0 10.968181818181817 30.9
      vertex 2.27741378776986 13.627272702889007 55.9
      vertex 1.928210340311815 10.485454526272687 30.9
    endloop
  endfacet
  facet normal 0.25811201218137686 0.9579416521036732 -0.12540327082084451
    outer loop
      vertex 0 10.968181818181817 30.9
      vertex 0 14.24090909090909 55.9
      vertex 2.27741378776986 13.627272702889007 55.9
    endloop
  endfacet
  facet normal 0.6294344051309015 0.7701210557068636 -0.10356586886833861
    outer loop
      vertex 2.814144827168563 9.761363628371194 30.9
      vertex 1.928210340311815 10.485454526272687 30.9
      vertex 3.3237931029549963 12.706818171658298 55.9
    endloop
  endfacet
  facet normal 0.656967352194547 0.7468451995876135 -0.10303468349746911
    outer loop
      vertex 1.928210340311815 10.485454526272687 30.9
      vertex 2.27741378776986 13.627272702889007 55.9
      vertex 3.3237931029549963 12.706818171658298 55.9
    endloop
  endfacet
  facet normal 0.6570781650632687 0.7469711724518358 -0.10140193549936649
    outer loop
      vertex 2.814144827168563 9.761363628371194 30.9
      vertex 3.3237931029549963 12.706818171658298 55.9
      vertex 4.370172418140132 11.786363640427588 55.9
    endloop
  endfacet
  facet normal 0.8532031620195232 0.515811866715844 -0.07734650913262751
    outer loop
      vertex 3.6274482792821425 5.408636360141363 5.899999999999999
      vertex 4.429672417969539 7.8304545406590815 30.9
      vertex 5.159265521913767 6.623636350848457 30.9
    endloop
  endfacet
  facet normal 0.8533490778372395 0.5159000814736766 -0.07511629177340315
    outer loop
      vertex 4.429672417969539 7.8304545406590815 30.9
      vertex 6.09362069517374 8.718181801926006 55.9
      vertex 5.159265521913767 6.623636350848457 30.9
    endloop
  endfacet
  facet normal 0 0 1
    outer loop
      vertex 2.564655173698376 -1.1 55.9
      vertex 5.231896556656936 10.252272721176796 55.9
      vertex 4.370172418140132 11.786363640427588 55.9
    endloop
  endfacet
  facet normal 0.8532031620195231 0.5158118667158443 -0.07734650913262753
    outer loop
      vertex 3.7000793140253116 9.037272730469704 30.9
      vertex 5.231896556656936 10.252272721176796 55.9
      vertex 4.429672417969539 7.8304545406590815 30.9
    endloop
  endfacet
  facet normal 0.8692792031227057 0.48828844695027446 -0.07699389322045612
    outer loop
      vertex 3.7000793140253116 9.037272730469704 30.9
      vertex 4.370172418140132 11.786363640427588 55.9
      vertex 5.231896556656936 10.252272721176796 55.9
    endloop
  endfacet
  facet normal 0.8693981473372617 0.4883552598748109 -0.07520639307361296
    outer loop
      vertex 4.429672417969539 7.8304545406590815 30.9
      vertex 5.231896556656936 10.252272721176796 55.9
      vertex 6.09362069517374 8.718181801926006 55.9
    endloop
  endfacet
  facet normal 0.9632552572195815 0.26225639240470267 -0.057973218659210436
    outer loop
      vertex 5.159265521913767 6.623636350848457 30.9
      vertex 6.09362069517374 8.718181801926006 55.9
      vertex 6.678362068688047 6.570454545454545 55.9
    endloop
  endfacet
  facet normal 1 0 0
    outer loop
      vertex -1.125 0.6000000000000001 -48.77
      vertex -1.125 -1.1 -48.77
      vertex -1.125 -1.1 -51.1
    endloop
  endfacet
  facet normal 1 0 0
    outer loop
      vertex -1.125 0.6000000000000001 -48.77
      vertex -1.125 -1.1 -51.1
      vertex -1.125 0.6000000000000001 -51.1
    endloop
  endfacet
  facet normal 0 0 -1
    outer loop
      vertex -0.525 0.6000000000000001 -48.77
      vertex -0.525 -1.1 -48.77
      vertex -1.125 -1.1 -48.77
    endloop
  endfacet
  facet normal -1 0 0
    outer loop
      vertex -0.525 -1.1 -51.1
      vertex -0.525 -1.1 -48.77
      vertex -0.525 0.6000000000000001 -51.1
    endloop
  endfacet
  facet normal 0 0 -1
    outer loop
      vertex -1.125 0.6000000000000001 -48.77
      vertex -0.525 0.6000000000000001 -48.77
      vertex -1.125 -1.1 -48.77
    endloop
  endfacet
  facet normal -1 0 0
    outer loop
      vertex -0.525 0.6000000000000001 -48.77
      vertex -0.525 0.6000000000000001 -51.1
      vertex -0.525 -1.1 -48.77
    endloop
  endfacet
  facet normal 1 0 0
    outer loop
      vertex 0.9249999999999998 0.6000000000000001 -48.77
      vertex 0.9249999999999998 -1.1 -48.77
      vertex 0.9249999999999998 -1.1 -51.1
    endloop
  endfacet
  facet normal 1 0 0
    outer loop
      vertex 0.9249999999999998 0.6000000000000001 -48.77
      vertex 0.9249999999999998 -1.1 -51.1
      vertex 0.9249999999999998 0.6000000000000001 -51.1
    endloop
  endfacet
  facet normal 0 0 -1
    outer loop
      vertex 0.9249999999999998 0.6000000000000001 -48.77
      vertex 1.525 -1.1 -48.77
      vertex 0.9249999999999998 -1.1 -48.77
    endloop
  endfacet
  facet normal -1 0 0
    outer loop
      vertex 1.525 -1.1 -51.1
      vertex 1.525 -1.1 -48.77
      vertex 1.525 1.1 -51.1
    endloop
  endfacet
  facet normal 0 0 -1
    outer loop
      vertex 0.9249999999999998 0.6000000000000001 -48.77
      vertex 0.9249999999999998 1.1 -48.77
      vertex 1.525 -1.1 -48.77
    endloop
  endfacet
  facet normal 0 0 -1
    outer loop
      vertex 1.525 -1.1 -48.77
      vertex 0.9249999999999998 1.1 -48.77
      vertex 1.525 1.1 -48.77
    endloop
  endfacet
  facet normal -1 0 0
    outer loop
      vertex 1.525 -1.1 -48.77
      vertex 1.525 1.1 -48.77
      vertex 1.525 1.1 -51.1
    endloop
  endfacet
  facet normal 1 0 0
    outer loop
      vertex -1.125 0.6000000000000001 -48.77
      vertex -1.125 0.6000000000000001 -51.1
      vertex -1.125 1.1 -48.77
    endloop
  endfacet
  facet normal 0 0 -1
    outer loop
      vertex -1.125 0.6000000000000001 -48.77
      vertex -1.125 1.1 -48.77
      vertex -0.525 0.6000000000000001 -48.77
    endloop
  endfacet
  facet normal 0 0 -1
    outer loop
      vertex -0.525 0.6000000000000001 -48.77
      vertex -1.125 1.1 -48.77
      vertex 0.9249999999999998 0.6000000000000001 -48.77
    endloop
  endfacet
  facet normal 0 1 0
    outer loop
      vertex -0.525 0.6000000000000001 -48.77
      vertex 0.9249999999999998 0.6000000000000001 -48.77
      vertex -0.525 0.6000000000000001 -51.1
    endloop
  endfacet
  facet normal 1 0 0
    outer loop
      vertex -1.125 1.1 -51.1
      vertex -1.125 1.1 -48.77
      vertex -1.125 0.6000000000000001 -51.1
    endloop
  endfacet
  facet normal 0 1 0
    outer loop
      vertex 0.9249999999999998 0.6000000000000001 -48.77
      vertex 0.9249999999999998 0.6000000000000001 -51.1
      vertex -0.525 0.6000000000000001 -51.1
    endloop
  endfacet
  facet normal 0 0 -1
    outer loop
      vertex 0.9249999999999998 0.6000000000000001 -48.77
      vertex -1.125 1.1 -48.77
      vertex 0.9249999999999998 1.1 -48.77
    endloop
  endfacet
endsolid OpenSCAD_Model
