<?xml version="1.0" encoding="UTF-8" standalone="no"?>
<!DOCTYPE svg PUBLIC "-//W3C//DTD SVG 1.1//EN"
 "http://www.w3.org/Graphics/SVG/1.1/DTD/svg11.dtd">
<!-- Generated by graphviz version 5.0.0 (20220707.1540)
 -->
<!-- Title: default Pages: 1 -->
<svg width="285pt" height="260pt"
 viewBox="0.00 0.00 284.79 260.00" xmlns="http://www.w3.org/2000/svg" xmlns:xlink="http://www.w3.org/1999/xlink">
<g id="graph0" class="graph" transform="scale(1 1) rotate(0) translate(4 256)">
<title>default</title>
<polygon fill="white" stroke="transparent" points="-4,4 -4,-256 280.79,-256 280.79,4 -4,4"/>
<!-- root_1 -->
<g id="node1" class="node">
<title>root_1</title>
<g id="a_node1"><a xlink:href="javascript:s=&quot;\(\)\nNone&quot;; console.log(s); alert(s);" xlink:title="root">
<ellipse fill="none" stroke="black" cx="27" cy="-126" rx="27" ry="18"/>
<text text-anchor="middle" x="27" y="-122.3" font-family="Times New Roman,serif" font-size="14.00">root</text>
</a>
</g>
</g>
<!-- default_2 -->
<g id="node2" class="node">
<title>default_2</title>
<g id="a_node2"><a xlink:href="javascript:s=&quot;\(&#x27;default&#x27;,\)\nCE156F18Punchdown&quot;; console.log(s); alert(s);" xlink:title="CE156F18Punchdown">
<ellipse fill="none" stroke="black" cx="125.1" cy="-126" rx="35.19" ry="18"/>
<text text-anchor="middle" x="125.1" y="-122.3" font-family="Times New Roman,serif" font-size="14.00">default</text>
</a>
</g>
</g>
<!-- root_1&#45;&gt;default_2 -->
<g id="edge1" class="edge">
<title>root_1&#45;&gt;default_2</title>
<path fill="none" stroke="black" d="M54.01,-126C61.92,-126 70.84,-126 79.61,-126"/>
<polygon fill="black" stroke="black" points="79.76,-129.5 89.76,-126 79.76,-122.5 79.76,-129.5"/>
</g>
<!-- box_3 -->
<g id="node3" class="node">
<title>box_3</title>
<g id="a_node3"><a xlink:href="javascript:s=&quot;\(&#x27;default&#x27;,\ &#x27;box&#x27;\)\nBox&quot;; console.log(s); alert(s);" xlink:title="Box">
<ellipse fill="none" stroke="black" cx="236.49" cy="-234" rx="27" ry="18"/>
<text text-anchor="middle" x="236.49" y="-230.3" font-family="Times New Roman,serif" font-size="14.00">box</text>
</a>
</g>
</g>
<!-- default_2&#45;&gt;box_3 -->
<g id="edge2" class="edge">
<title>default_2&#45;&gt;box_3</title>
<path fill="none" stroke="black" d="M138.67,-142.94C151.91,-160.15 173.88,-187.04 196.19,-207 199.69,-210.13 203.56,-213.19 207.47,-216.07"/>
<polygon fill="black" stroke="black" points="205.77,-219.15 215.97,-222.02 209.79,-213.42 205.77,-219.15"/>
</g>
<!-- handle_4 -->
<g id="node4" class="node">
<title>handle_4</title>
<g id="a_node4"><a xlink:href="javascript:s=&quot;\(&#x27;default&#x27;,\ &#x27;handle&#x27;\)\nLinearExtrude&quot;; console.log(s); alert(s);" xlink:title="LinearExtrude">
<ellipse fill="none" stroke="black" cx="236.49" cy="-180" rx="34.39" ry="18"/>
<text text-anchor="middle" x="236.49" y="-176.3" font-family="Times New Roman,serif" font-size="14.00">handle</text>
</a>
</g>
</g>
<!-- default_2&#45;&gt;handle_4 -->
<g id="edge3" class="edge">
<title>default_2&#45;&gt;handle_4</title>
<path fill="none" stroke="black" d="M150.92,-138.25C165.89,-145.64 185.16,-155.15 201.52,-163.23"/>
<polygon fill="black" stroke="black" points="200.25,-166.51 210.77,-167.8 203.35,-160.23 200.25,-166.51"/>
</g>
<!-- slit_5 -->
<g id="node5" class="node">
<title>slit_5</title>
<g id="a_node5"><a xlink:href="javascript:s=&quot;\(&#x27;default&#x27;,\ \(&#x27;slit&#x27;,\ 0\)\)\nBox&quot;; console.log(s); alert(s);" xlink:title="Box">
<ellipse fill="none" stroke="black" cx="236.49" cy="-126" rx="40.09" ry="18"/>
<text text-anchor="middle" x="236.49" y="-122.3" font-family="Times New Roman,serif" font-size="14.00">(&#39;slit&#39;, 0)</text>
</a>
</g>
</g>
<!-- default_2&#45;&gt;slit_5 -->
<g id="edge4" class="edge">
<title>default_2&#45;&gt;slit_5</title>
<path fill="none" stroke="black" d="M160.41,-126C168.52,-126 177.32,-126 185.95,-126"/>
<polygon fill="black" stroke="black" points="185.95,-129.5 195.95,-126 185.95,-122.5 185.95,-129.5"/>
</g>
<!-- slit_6 -->
<g id="node6" class="node">
<title>slit_6</title>
<g id="a_node6"><a xlink:href="javascript:s=&quot;\(&#x27;default&#x27;,\ \(&#x27;slit&#x27;,\ 1\)\)\nBox&quot;; console.log(s); alert(s);" xlink:title="Box">
<ellipse fill="none" stroke="black" cx="236.49" cy="-72" rx="40.09" ry="18"/>
<text text-anchor="middle" x="236.49" y="-68.3" font-family="Times New Roman,serif" font-size="14.00">(&#39;slit&#39;, 1)</text>
</a>
</g>
</g>
<!-- default_2&#45;&gt;slit_6 -->
<g id="edge5" class="edge">
<title>default_2&#45;&gt;slit_6</title>
<path fill="none" stroke="black" d="M150.92,-113.75C165.36,-106.62 183.8,-97.51 199.78,-89.63"/>
<polygon fill="black" stroke="black" points="201.44,-92.71 208.85,-85.15 198.34,-86.44 201.44,-92.71"/>
</g>
<!-- notch_7 -->
<g id="node7" class="node">
<title>notch_7</title>
<g id="a_node7"><a xlink:href="javascript:s=&quot;\(&#x27;default&#x27;,\ &#x27;notch&#x27;\)\nBox&quot;; console.log(s); alert(s);" xlink:title="Box">
<ellipse fill="none" stroke="black" cx="236.49" cy="-18" rx="31.4" ry="18"/>
<text text-anchor="middle" x="236.49" y="-14.3" font-family="Times New Roman,serif" font-size="14.00">notch</text>
</a>
</g>
</g>
<!-- default_2&#45;&gt;notch_7 -->
<g id="edge6" class="edge">
<title>default_2&#45;&gt;notch_7</title>
<path fill="none" stroke="black" d="M138.67,-109.06C151.91,-91.85 173.88,-64.96 196.19,-45 199.23,-42.28 202.55,-39.61 205.94,-37.07"/>
<polygon fill="black" stroke="black" points="208.24,-39.73 214.35,-31.07 204.18,-34.03 208.24,-39.73"/>
</g>
</g>
</svg>
